<?xml version="1.0" encoding="UTF-8"?>
<svg width="58px" height="64px" viewBox="0 0 58 64" version="1.1" xmlns="http://www.w3.org/2000/svg" xmlns:xlink="http://www.w3.org/1999/xlink">
    <!-- Generator: Sketch 49 (51002) - http://www.bohemiancoding.com/sketch -->
    <title>bitcoin-grey-13</title>
    <desc>Created with Sketch.</desc>
    <defs></defs>
    <g id="Page-1" stroke="none" stroke-width="1" fill="none" fill-rule="evenodd">
        <g id="bitcoin-grey-13" fill="#000000">
            <path d="M28.782,8.568 C28.877,8.554 28.971,8.54 29.069,8.54 C29.168,8.54 29.263,8.554 29.358,8.569 C30.125,8.69 30.741,9.273 30.896,10.029 L27.244,10.029 C27.399,9.273 28.015,8.689 28.782,8.568 Z M28.063,2.425 C28.248,1.874 28.643,1.517 29.07,1.517 C29.497,1.517 29.891,1.874 30.074,2.425 C30.26,2.979 30.26,3.614 30.074,4.167 L29.07,7.175 L28.064,4.168 C27.88,3.614 27.88,2.979 28.063,2.425 Z M24.899,11.998 C24.899,11.325 25.447,10.779 26.119,10.779 L32.021,10.779 C32.694,10.779 33.241,11.325 33.241,11.998 L33.241,14.897 L32.273,14.897 L32.273,12.576 C32.273,12.369 32.106,12.201 31.898,12.201 C31.691,12.201 31.523,12.369 31.523,12.576 L31.523,14.897 L29.445,14.897 L29.445,12.576 C29.445,12.433 29.362,12.313 29.245,12.25 C29.192,12.222 29.134,12.201 29.07,12.201 C29.006,12.201 28.949,12.222 28.896,12.25 C28.778,12.314 28.695,12.433 28.695,12.576 L28.695,14.897 L26.617,14.897 L26.617,12.576 C26.617,12.369 26.449,12.201 26.242,12.201 C26.035,12.201 25.867,12.369 25.867,12.576 L25.867,14.897 L24.899,14.897 L24.899,11.998 Z M29.071,54.232 C18.301,54.232 9.539,45.471 9.539,34.703 C9.539,25.389 16.096,17.59 24.833,15.647 L26.24,15.647 C26.241,15.647 26.241,15.648 26.242,15.648 C26.243,15.648 26.244,15.647 26.245,15.647 L29.068,15.647 C29.069,15.647 29.069,15.648 29.07,15.648 C29.071,15.648 29.072,15.647 29.073,15.647 L31.896,15.647 C31.897,15.647 31.898,15.648 31.898,15.648 C31.899,15.648 31.9,15.647 31.901,15.647 L33.309,15.647 C42.045,17.59 48.602,25.389 48.602,34.703 C48.602,45.471 39.84,54.232 29.071,54.232 Z M33.991,15.049 L33.991,11.998 C33.991,10.912 33.107,10.029 32.021,10.029 L31.646,10.029 C31.489,8.952 30.684,8.087 29.633,7.855 L30.785,4.405 C31.022,3.7 31.022,2.891 30.786,2.188 C30.499,1.325 29.825,0.767 29.07,0.767 C28.315,0.767 27.641,1.325 27.352,2.188 C27.118,2.892 27.118,3.7 27.353,4.405 L28.506,7.854 C27.456,8.086 26.65,8.952 26.494,10.029 L26.119,10.029 C25.033,10.029 24.149,10.912 24.149,11.998 L24.149,15.049 C15.341,17.258 8.789,25.219 8.789,34.703 C8.789,45.885 17.888,54.981 29.071,54.981 C40.254,54.981 49.352,45.885 49.352,34.703 C49.352,25.219 42.8,17.257 33.991,15.049 Z" id="Fill-1"></path>
            <path d="M44.157,43.833 C43.982,43.723 43.751,43.774 43.64,43.949 C43.419,44.295 43.18,44.629 42.937,44.958 C41.121,47.407 38.678,49.343 35.885,50.547 C35.51,50.708 35.132,50.864 34.745,50.998 C34.549,51.067 34.446,51.281 34.514,51.475 C34.568,51.631 34.713,51.728 34.868,51.728 C34.909,51.728 34.951,51.721 34.991,51.708 C38.805,50.381 42.101,47.768 44.272,44.35 C44.384,44.177 44.332,43.944 44.157,43.833" id="Fill-2"></path>
            <path d="M14.929,24.547 C15.044,24.547 15.157,24.495 15.23,24.396 C16.239,23.043 17.442,21.844 18.805,20.833 C18.971,20.71 19.006,20.474 18.882,20.308 C18.759,20.142 18.524,20.108 18.357,20.231 C16.936,21.285 15.682,22.536 14.629,23.947 C14.505,24.114 14.54,24.348 14.706,24.472 C14.773,24.523 14.852,24.547 14.929,24.547" id="Fill-3"></path>
            <path d="M13.798,25.881 C13.616,25.781 13.389,25.847 13.289,26.028 C12.177,28.047 11.474,30.231 11.198,32.52 C11.173,32.725 11.32,32.912 11.525,32.938 C11.541,32.94 11.556,32.94 11.571,32.94 C11.758,32.94 11.92,32.801 11.943,32.611 C12.207,30.417 12.88,28.324 13.946,26.39 C14.045,26.209 13.98,25.981 13.798,25.881" id="Fill-4"></path>
            <path d="M27.065,43.697 C27.065,44.116 26.725,44.457 26.306,44.457 C25.887,44.457 25.546,44.116 25.546,43.697 L25.546,42.617 C25.546,42.41 25.378,42.242 25.171,42.242 L22.514,42.242 C22.387,42.242 22.271,42.199 22.163,42.138 C22.051,42.075 21.96,41.986 21.89,41.881 C21.812,41.761 21.755,41.631 21.755,41.485 L21.755,41.484 C21.755,41.06 22.103,40.701 22.514,40.701 L23.558,40.701 C23.576,40.701 23.592,40.694 23.61,40.691 C23.773,40.668 23.898,40.542 23.922,40.378 C23.925,40.361 23.933,40.345 23.933,40.327 L23.933,29.004 C23.933,28.797 23.765,28.629 23.558,28.629 L22.514,28.629 C22.494,28.629 22.476,28.619 22.457,28.617 C22.085,28.588 21.795,28.298 21.766,27.927 C21.765,27.908 21.755,27.89 21.755,27.87 C21.755,27.736 21.804,27.614 21.871,27.502 C21.937,27.392 22.026,27.303 22.134,27.235 C22.249,27.163 22.375,27.111 22.514,27.111 L25.173,27.111 C25.38,27.111 25.548,26.943 25.548,26.737 L25.548,25.703 C25.548,25.284 25.889,24.944 26.309,24.944 C26.726,24.944 27.065,25.284 27.065,25.703 L27.065,26.737 C27.065,26.943 27.233,27.111 27.44,27.111 L30.092,27.111 C30.299,27.111 30.467,26.943 30.467,26.737 L30.467,25.703 C30.467,25.284 30.807,24.944 31.226,24.944 C31.645,24.944 31.985,25.284 31.985,25.703 L31.985,26.805 C31.985,26.988 32.117,27.144 32.297,27.175 C33.25,27.339 34.085,27.842 34.701,28.54 C34.784,28.634 34.858,28.736 34.933,28.837 C35.008,28.94 35.086,29.04 35.152,29.148 C35.543,29.79 35.772,30.535 35.772,31.319 C35.772,32.487 35.205,33.574 34.292,34.157 C34.228,34.198 34.184,34.259 34.155,34.326 C34.133,34.377 34.116,34.431 34.119,34.488 C34.122,34.569 34.157,34.64 34.206,34.701 C34.238,34.74 34.271,34.78 34.316,34.804 C34.472,34.887 34.619,34.978 34.758,35.076 C35.785,35.792 36.385,36.884 36.385,38.08 C36.385,39.025 36.044,39.894 35.498,40.598 C35.421,40.697 35.347,40.799 35.261,40.891 C35.176,40.984 35.082,41.065 34.988,41.149 C34.278,41.79 33.361,42.204 32.347,42.235 C32.145,42.241 31.983,42.407 31.983,42.611 L31.983,43.697 C31.983,44.116 31.643,44.457 31.224,44.457 C30.805,44.457 30.465,44.116 30.465,43.697 L30.465,42.617 C30.465,42.41 30.297,42.242 30.09,42.242 L27.44,42.242 C27.233,42.242 27.065,42.41 27.065,42.617 L27.065,43.697 Z M29.444,45.573 L29.444,42.992 L29.715,42.992 L29.715,43.697 C29.715,44.53 30.392,45.207 31.224,45.207 C32.056,45.207 32.733,44.53 32.733,43.697 L32.733,42.96 C33.801,42.847 34.759,42.369 35.516,41.677 L36.493,42.653 L36.199,46.967 C36.185,47.174 36.341,47.353 36.548,47.367 C36.557,47.367 36.565,47.368 36.574,47.368 C36.769,47.368 36.934,47.216 36.947,47.018 L37.196,43.357 L39.15,45.31 C39.223,45.384 39.319,45.42 39.415,45.42 C39.511,45.42 39.607,45.384 39.68,45.31 C39.827,45.164 39.827,44.927 39.68,44.781 L37.729,42.828 L41.387,42.58 C41.593,42.566 41.749,42.387 41.735,42.18 C41.722,41.973 41.543,41.817 41.336,41.832 L37.025,42.125 L36.031,41.131 C36.711,40.286 37.135,39.229 37.135,38.08 C37.135,36.944 36.688,35.891 35.904,35.076 L36.972,35.076 L41.123,39.827 C41.197,39.912 41.301,39.956 41.405,39.956 C41.493,39.956 41.581,39.926 41.652,39.863 C41.808,39.728 41.824,39.491 41.688,39.335 L37.968,35.076 L40.023,35.076 L42.869,38.333 C42.943,38.418 43.047,38.461 43.151,38.461 C43.239,38.461 43.327,38.431 43.398,38.368 C43.554,38.232 43.57,37.995 43.434,37.84 L41.019,35.076 L43.7,35.076 C43.907,35.076 44.075,34.908 44.075,34.701 C44.075,34.495 43.907,34.327 43.7,34.327 L41.021,34.327 L43.432,31.563 C43.568,31.407 43.552,31.17 43.396,31.033 C43.24,30.897 43.003,30.913 42.867,31.07 L40.025,34.327 L37.969,34.327 L41.683,30.069 C41.819,29.912 41.803,29.675 41.647,29.54 C41.491,29.403 41.254,29.42 41.118,29.575 L36.974,34.327 L35.26,34.326 C36.045,33.57 36.522,32.48 36.522,31.319 C36.522,30.333 36.207,29.403 35.686,28.615 L37.022,27.278 L41.336,27.57 C41.345,27.571 41.353,27.571 41.362,27.571 C41.557,27.571 41.722,27.42 41.735,27.222 C41.749,27.015 41.593,26.836 41.387,26.823 L37.726,26.575 L39.68,24.62 C39.827,24.473 39.827,24.237 39.68,24.09 C39.534,23.944 39.296,23.944 39.15,24.09 L37.197,26.043 L36.947,22.384 C36.933,22.177 36.746,22.022 36.548,22.035 C36.341,22.049 36.185,22.228 36.199,22.435 L36.494,26.745 L35.225,28.015 C34.57,27.286 33.716,26.738 32.735,26.5 L32.735,25.703 C32.735,24.87 32.058,24.194 31.226,24.194 C30.394,24.194 29.717,24.87 29.717,25.703 L29.717,26.361 L29.444,26.361 L29.444,23.829 L32.702,20.986 C32.858,20.85 32.874,20.613 32.738,20.457 C32.602,20.301 32.365,20.285 32.209,20.421 L29.444,22.834 L29.444,20.072 C29.444,19.865 29.276,19.697 29.069,19.697 C28.862,19.697 28.694,19.865 28.694,20.072 L28.694,22.834 L25.93,20.421 C25.773,20.285 25.537,20.301 25.401,20.457 C25.265,20.613 25.281,20.85 25.437,20.986 L28.694,23.829 L28.694,26.361 L27.815,26.361 L27.815,25.703 C27.815,24.87 27.14,24.194 26.309,24.194 C25.476,24.194 24.798,24.87 24.798,25.703 L24.798,26.361 L22.514,26.361 C22.197,26.361 21.901,26.467 21.656,26.64 L21.941,22.436 C21.956,22.23 21.799,22.051 21.593,22.036 C21.392,22.022 21.208,22.179 21.193,22.385 L20.944,26.045 L18.991,24.091 C18.844,23.945 18.607,23.945 18.46,24.091 C18.314,24.238 18.314,24.475 18.46,24.621 L20.414,26.575 L16.754,26.824 C16.547,26.838 16.391,27.016 16.405,27.223 C16.418,27.421 16.583,27.573 16.779,27.573 C16.788,27.573 16.796,27.573 16.805,27.572 L21.118,27.279 L21.127,27.287 C21.048,27.468 21.005,27.665 21.005,27.87 C21.005,28.703 21.682,29.379 22.514,29.379 L23.183,29.379 L23.183,34.326 L21.334,34.325 L17.184,29.575 C17.048,29.42 16.81,29.403 16.655,29.54 C16.499,29.676 16.483,29.912 16.619,30.069 L20.337,34.325 L18.28,34.325 L15.44,31.07 C15.303,30.913 15.067,30.897 14.911,31.033 C14.755,31.17 14.738,31.407 14.875,31.563 L17.285,34.325 L14.44,34.325 C14.233,34.325 14.065,34.493 14.065,34.7 C14.065,34.907 14.233,35.075 14.44,35.075 L17.287,35.075 L14.875,37.841 C14.738,37.996 14.755,38.234 14.911,38.37 C14.982,38.432 15.07,38.462 15.157,38.462 C15.262,38.462 15.366,38.419 15.44,38.334 L18.282,35.075 L20.337,35.075 L16.622,39.335 C16.485,39.491 16.502,39.728 16.658,39.864 C16.729,39.926 16.817,39.956 16.904,39.956 C17.009,39.956 17.113,39.912 17.187,39.827 L21.334,35.075 L23.183,35.076 L23.183,39.951 L22.514,39.951 C21.682,39.951 21.005,40.639 21.005,41.484 C21.005,41.701 21.056,41.908 21.144,42.096 L21.116,42.124 L16.805,41.831 C16.596,41.817 16.419,41.972 16.405,42.179 C16.391,42.386 16.547,42.565 16.754,42.578 L20.412,42.827 L18.46,44.78 C18.314,44.926 18.314,45.163 18.46,45.31 C18.534,45.383 18.629,45.42 18.726,45.42 C18.822,45.42 18.918,45.383 18.991,45.31 L20.944,43.356 L21.193,47.018 C21.207,47.216 21.372,47.368 21.567,47.368 C21.576,47.368 21.584,47.367 21.593,47.367 C21.799,47.353 21.956,47.174 21.941,46.967 L21.652,42.71 C21.898,42.885 22.196,42.992 22.514,42.992 L24.796,42.992 L24.796,43.697 C24.796,44.53 25.473,45.207 26.306,45.207 C27.138,45.207 27.815,44.53 27.815,43.697 L27.815,42.992 L28.694,42.992 L28.694,45.573 L25.437,48.415 C25.281,48.551 25.265,48.787 25.401,48.945 C25.537,49.1 25.773,49.116 25.93,48.98 L28.694,46.568 L28.694,49.331 C28.694,49.537 28.862,49.706 29.069,49.706 C29.276,49.706 29.444,49.537 29.444,49.331 L29.444,46.568 L32.209,48.98 C32.28,49.042 32.368,49.073 32.455,49.073 C32.56,49.073 32.664,49.029 32.738,48.945 C32.874,48.787 32.858,48.551 32.702,48.415 L29.444,45.573 Z" id="Fill-5"></path>
            <path d="M26.223,32.384 L26.223,29.379 L31.61,29.379 C32.208,29.379 32.746,29.686 33.096,30.144 C33.174,30.246 33.242,30.356 33.299,30.471 C33.359,30.595 33.408,30.723 33.442,30.859 C33.479,31.007 33.505,31.16 33.505,31.319 C33.505,32.352 32.655,33.191 31.61,33.191 L26.223,33.191 L26.223,32.384 Z M25.848,33.941 L31.61,33.941 C33.068,33.941 34.255,32.765 34.255,31.319 C34.255,30.948 34.175,30.592 34.034,30.266 C33.982,30.146 33.916,30.033 33.848,29.923 C33.781,29.814 33.705,29.715 33.624,29.616 C33.134,29.022 32.412,28.629 31.61,28.629 L25.848,28.629 C25.641,28.629 25.473,28.797 25.473,29.004 L25.473,33.566 C25.473,33.773 25.641,33.941 25.848,33.941 Z" id="Fill-6"></path>
            <path d="M26.223,38.077 L26.223,36.21 L32.222,36.21 C33.254,36.21 34.094,37.049 34.094,38.08 C34.094,38.404 34.007,38.703 33.866,38.966 C33.805,39.078 33.733,39.184 33.651,39.281 C33.57,39.378 33.481,39.465 33.381,39.542 C33.059,39.795 32.654,39.951 32.201,39.951 L26.223,39.951 L26.223,38.077 Z M29.069,40.701 L32.201,40.701 C32.864,40.701 33.456,40.462 33.915,40.075 C34.011,39.995 34.101,39.908 34.184,39.814 C34.268,39.72 34.349,39.624 34.419,39.518 C34.686,39.108 34.844,38.616 34.844,38.08 C34.844,36.635 33.667,35.46 32.222,35.46 L25.848,35.46 C25.641,35.46 25.473,35.628 25.473,35.836 L25.473,40.327 C25.473,40.533 25.641,40.701 25.848,40.701 L29.069,40.701 Z" id="Fill-7"></path>
            <path d="M14.728,12.131 C14.615,12.365 14.429,12.518 14.227,12.656 L13.699,13.018 C13.423,13.208 13.338,13.472 13.533,13.756 C13.733,14.049 13.991,14.018 14.259,13.834 L15.372,13.071 L14.728,12.131 Z M13.882,10.899 L12.724,11.693 C12.473,11.865 12.255,12.22 12.468,12.53 C12.714,12.888 13.089,12.764 13.385,12.56 L13.913,12.198 C14.111,12.063 14.296,11.9 14.414,11.674 L13.882,10.899 Z M12.461,11.213 L14.019,10.144 L16.128,13.219 L14.57,14.287 C14.05,14.643 13.457,14.609 13.086,14.068 C12.906,13.804 12.845,13.513 12.947,13.273 C12.665,13.322 12.274,13.202 11.983,12.777 C11.564,12.167 11.95,11.563 12.461,11.213 Z" id="Fill-8"></path>
            <path d="M13.862,11.003 L12.767,11.755 C12.609,11.863 12.493,12.027 12.464,12.182 C12.444,12.292 12.466,12.394 12.53,12.487 C12.708,12.747 12.989,12.741 13.343,12.499 L13.871,12.137 C14.085,11.991 14.23,11.844 14.326,11.678 L13.862,11.003 Z M12.869,12.832 C12.68,12.832 12.524,12.745 12.406,12.572 C12.32,12.447 12.289,12.303 12.316,12.155 C12.353,11.962 12.493,11.761 12.682,11.631 L13.839,10.837 C13.855,10.826 13.877,10.822 13.896,10.825 C13.915,10.829 13.933,10.84 13.944,10.856 L14.476,11.631 C14.491,11.654 14.493,11.684 14.48,11.708 C14.374,11.913 14.207,12.089 13.956,12.26 L13.428,12.622 C13.225,12.761 13.037,12.832 12.869,12.832 Z M14.734,12.273 C14.612,12.466 14.44,12.601 14.269,12.718 L13.742,13.079 C13.562,13.204 13.39,13.415 13.595,13.714 C13.751,13.943 13.947,13.957 14.216,13.772 L15.268,13.051 L14.734,12.273 Z M13.889,14.049 C13.726,14.049 13.585,13.965 13.471,13.799 C13.263,13.495 13.332,13.18 13.657,12.956 L14.184,12.594 C14.397,12.448 14.56,12.308 14.66,12.099 C14.671,12.074 14.695,12.058 14.722,12.056 C14.752,12.054 14.774,12.066 14.79,12.089 L15.434,13.028 C15.445,13.044 15.449,13.065 15.446,13.084 C15.442,13.104 15.431,13.121 15.415,13.132 L14.301,13.896 C14.153,13.998 14.014,14.049 13.889,14.049 Z M12.947,13.198 C12.97,13.198 12.992,13.209 13.006,13.227 C13.023,13.249 13.027,13.278 13.016,13.303 C12.927,13.51 12.976,13.774 13.148,14.026 C13.337,14.301 13.591,14.446 13.885,14.446 C14.095,14.446 14.317,14.37 14.528,14.225 L16.023,13.199 L14,10.248 L12.504,11.274 C12.17,11.503 11.948,11.801 11.894,12.094 C11.853,12.313 11.903,12.529 12.045,12.735 C12.338,13.162 12.689,13.208 12.827,13.208 C12.864,13.208 12.9,13.205 12.935,13.199 C12.939,13.199 12.943,13.198 12.947,13.198 Z M13.885,14.596 C13.544,14.596 13.239,14.423 13.024,14.111 C12.852,13.858 12.788,13.59 12.841,13.358 C12.836,13.358 12.832,13.358 12.827,13.358 C12.486,13.358 12.156,13.162 11.921,12.82 C11.756,12.58 11.698,12.326 11.746,12.066 C11.808,11.735 12.053,11.401 12.419,11.151 L13.977,10.083 C13.993,10.071 14.014,10.068 14.033,10.071 C14.052,10.074 14.07,10.085 14.081,10.102 L16.19,13.176 C16.213,13.211 16.205,13.257 16.17,13.281 L14.613,14.349 C14.377,14.51 14.125,14.596 13.885,14.596 Z" id="Fill-9"></path>
            <path d="M10.551,14.564 L12.194,16.149 L11.819,16.538 L10.176,14.953 C9.714,14.508 9.177,14.561 8.673,15.084 C8.169,15.606 8.137,16.145 8.598,16.59 L10.242,18.174 L9.867,18.563 L8.224,16.979 C7.524,16.304 7.548,15.465 8.281,14.705 C9.014,13.945 9.852,13.89 10.551,14.564" id="Fill-10"></path>
            <path d="M9.507,14.169 C9.111,14.169 8.706,14.373 8.335,14.757 C7.628,15.49 7.607,16.28 8.276,16.925 L9.865,18.457 L10.136,18.176 L8.546,16.644 C8.301,16.407 8.184,16.144 8.199,15.862 C8.213,15.585 8.355,15.306 8.619,15.032 C9.154,14.479 9.742,14.431 10.228,14.899 L11.817,16.432 L12.088,16.151 L10.499,14.618 C10.19,14.32 9.856,14.169 9.507,14.169 Z M9.867,18.638 C9.848,18.638 9.829,18.631 9.815,18.617 L8.171,17.033 C7.445,16.333 7.465,15.443 8.227,14.653 C8.626,14.238 9.069,14.019 9.507,14.019 C9.891,14.019 10.27,14.189 10.603,14.51 L12.247,16.095 C12.261,16.108 12.269,16.127 12.27,16.147 C12.27,16.167 12.262,16.187 12.249,16.201 L11.873,16.59 C11.844,16.62 11.797,16.621 11.767,16.592 L10.124,15.007 C9.696,14.595 9.203,14.643 8.728,15.136 C8.489,15.383 8.361,15.63 8.349,15.87 C8.336,16.107 8.438,16.331 8.65,16.536 L10.294,18.12 C10.309,18.134 10.317,18.153 10.317,18.173 C10.317,18.193 10.31,18.212 10.296,18.226 L9.921,18.615 C9.906,18.631 9.886,18.638 9.867,18.638 Z" id="Fill-11"></path>
            <path d="M7.452,22.025 L7.113,22.55 C6.609,21.802 6.298,21.031 6.09,20.237 L4.734,19.362 L5.027,18.909 L6.383,19.783 C7.191,19.646 8.022,19.611 8.911,19.763 L8.572,20.287 C7.976,20.152 7.273,20.145 6.636,20.268 C6.787,20.9 7.083,21.537 7.452,22.025" id="Fill-12"></path>
            <path d="M4.838,19.34 L6.131,20.174 C6.147,20.184 6.158,20.2 6.163,20.218 C6.38,21.046 6.691,21.765 7.112,22.413 L7.36,22.028 C7,21.539 6.711,20.906 6.563,20.285 C6.558,20.265 6.562,20.244 6.573,20.227 C6.584,20.21 6.602,20.198 6.622,20.194 C7.242,20.074 7.946,20.077 8.538,20.203 L8.786,19.818 C8.016,19.7 7.246,19.712 6.396,19.857 C6.377,19.86 6.358,19.857 6.342,19.846 L5.05,19.013 L4.838,19.34 Z M7.113,22.625 C7.088,22.625 7.065,22.613 7.051,22.592 C6.593,21.912 6.257,21.157 6.025,20.284 L4.694,19.425 C4.677,19.415 4.665,19.397 4.661,19.378 C4.657,19.359 4.661,19.338 4.671,19.321 L4.964,18.869 C4.987,18.833 5.033,18.824 5.068,18.846 L6.399,19.705 C7.297,19.554 8.111,19.55 8.924,19.689 C8.949,19.693 8.97,19.709 8.98,19.732 C8.99,19.756 8.988,19.782 8.974,19.803 L8.635,20.328 C8.618,20.354 8.585,20.368 8.556,20.36 C8,20.234 7.326,20.223 6.728,20.327 C6.881,20.922 7.164,21.52 7.512,21.98 C7.53,22.005 7.532,22.039 7.515,22.066 L7.176,22.59 C7.163,22.612 7.139,22.625 7.114,22.625 C7.114,22.625 7.114,22.625 7.113,22.625 Z" id="Fill-13"></path>
            <path d="M3.859,28.542 C4.204,28.364 4.48,28.034 4.601,27.626 C4.837,26.831 4.449,26.048 3.645,25.809 C2.873,25.58 2.11,26.078 1.888,26.825 C1.75,27.29 1.843,27.766 2.111,28.127 L1.58,28.318 C1.284,27.84 1.196,27.239 1.367,26.665 C1.69,25.583 2.782,24.995 3.859,25.315 C4.913,25.628 5.431,26.762 5.126,27.788 C4.967,28.324 4.606,28.749 4.152,28.994 L3.859,28.542" id="Fill-14"></path>
            <path d="M3.966,28.569 L4.177,28.894 C4.601,28.645 4.912,28.247 5.055,27.766 C5.358,26.744 4.812,25.677 3.838,25.386 C3.65,25.331 3.459,25.303 3.268,25.303 C2.42,25.303 1.686,25.859 1.438,26.686 C1.284,27.208 1.348,27.766 1.612,28.226 L1.994,28.09 C1.749,27.711 1.684,27.248 1.816,26.803 C2.013,26.141 2.608,25.678 3.262,25.678 C3.397,25.678 3.534,25.697 3.666,25.737 C4.491,25.982 4.923,26.803 4.672,27.648 C4.557,28.039 4.302,28.37 3.966,28.569 Z M4.152,29.069 C4.128,29.069 4.104,29.057 4.089,29.035 L3.796,28.583 C3.785,28.565 3.781,28.543 3.787,28.523 C3.792,28.503 3.806,28.485 3.825,28.475 C4.16,28.302 4.417,27.985 4.529,27.605 C4.759,26.83 4.378,26.105 3.623,25.881 C3.505,25.845 3.383,25.828 3.262,25.828 C2.674,25.828 2.138,26.247 1.96,26.846 C1.832,27.278 1.909,27.729 2.171,28.083 C2.185,28.101 2.19,28.126 2.183,28.149 C2.176,28.172 2.159,28.19 2.137,28.198 L1.605,28.389 C1.571,28.401 1.535,28.387 1.516,28.358 C1.203,27.851 1.122,27.226 1.295,26.644 C1.56,25.752 2.354,25.153 3.268,25.153 C3.473,25.153 3.679,25.183 3.881,25.243 C4.935,25.556 5.526,26.708 5.198,27.809 C5.037,28.35 4.679,28.795 4.188,29.06 C4.177,29.066 4.165,29.069 4.152,29.069 Z" id="Fill-15"></path>
            <path d="M0.514,31.111 L0.561,30.573 L4.28,30.895 L4.233,31.433 L2.708,31.301 C2.769,31.457 2.78,31.624 2.767,31.783 C2.748,32.003 2.581,32.646 2.552,32.985 C2.539,33.139 2.547,33.331 2.603,33.497 L4.043,33.622 L3.997,34.165 L0.278,33.843 L0.325,33.299 L2.055,33.449 C1.999,33.284 1.99,33.092 2.004,32.938 C2.033,32.599 2.199,31.955 2.218,31.736 C2.231,31.576 2.221,31.41 2.16,31.254 L0.514,31.111" id="Fill-16"></path>
            <path d="M0.359,33.775 L3.928,34.083 L3.962,33.69 L2.597,33.572 C2.567,33.569 2.542,33.549 2.532,33.521 C2.461,33.313 2.467,33.092 2.477,32.979 C2.494,32.786 2.553,32.5 2.605,32.249 C2.646,32.054 2.684,31.87 2.692,31.777 C2.707,31.607 2.689,31.456 2.638,31.329 C2.629,31.304 2.632,31.277 2.648,31.256 C2.663,31.236 2.687,31.224 2.714,31.226 L4.165,31.352 L4.199,30.964 L0.629,30.654 L0.595,31.043 L2.166,31.179 C2.194,31.181 2.219,31.2 2.229,31.226 C2.289,31.376 2.309,31.545 2.293,31.742 C2.284,31.844 2.247,32.024 2.204,32.232 C2.153,32.48 2.095,32.761 2.079,32.944 C2.063,33.117 2.081,33.292 2.125,33.425 C2.134,33.449 2.129,33.476 2.114,33.496 C2.098,33.515 2.072,33.528 2.048,33.524 L0.393,33.381 L0.359,33.775 Z M3.997,34.24 C3.995,34.24 3.992,34.24 3.99,34.239 L0.272,33.918 C0.231,33.914 0.2,33.878 0.204,33.837 L0.25,33.293 C0.251,33.273 0.261,33.255 0.276,33.242 C0.292,33.229 0.312,33.223 0.331,33.225 L1.954,33.365 C1.915,33.192 1.921,33.025 1.929,32.931 C1.946,32.739 2.005,32.454 2.057,32.202 C2.097,32.007 2.135,31.823 2.144,31.729 C2.156,31.575 2.144,31.442 2.106,31.324 L0.508,31.186 C0.488,31.184 0.47,31.174 0.456,31.159 C0.444,31.144 0.438,31.125 0.44,31.104 L0.486,30.566 C0.489,30.525 0.522,30.493 0.567,30.498 L4.286,30.821 C4.306,30.822 4.324,30.832 4.337,30.847 C4.35,30.862 4.356,30.882 4.354,30.902 L4.308,31.44 C4.304,31.481 4.26,31.512 4.227,31.508 L2.813,31.385 C2.845,31.508 2.854,31.643 2.841,31.79 C2.833,31.892 2.795,32.071 2.752,32.279 C2.701,32.527 2.643,32.808 2.627,32.992 C2.613,33.145 2.626,33.301 2.66,33.426 L4.05,33.547 C4.091,33.551 4.122,33.587 4.118,33.628 L4.071,34.171 C4.07,34.191 4.06,34.209 4.045,34.222 C4.031,34.234 4.014,34.24 3.997,34.24 Z" id="Fill-17"></path>
            <path d="M2.33,36.91 C2.486,37.118 2.529,37.35 2.559,37.592 L2.645,38.298 C2.69,38.669 2.891,38.907 3.288,38.859 C3.675,38.812 3.775,38.517 3.731,38.165 L3.561,36.76 L2.33,36.91 Z M2.07,38.09 L2.018,37.658 C1.989,37.42 1.935,37.185 1.789,36.976 L0.399,37.146 L0.333,36.604 L4.036,36.154 L4.272,38.099 C4.355,38.774 4.023,39.313 3.323,39.398 C2.762,39.467 2.361,39.193 2.162,38.674 L1.606,39.033 C1.292,39.308 1.228,39.402 1.257,39.64 C1.259,39.66 1.261,39.674 1.264,39.694 L1.283,39.813 L0.732,39.88 C0.68,39.448 0.626,39.011 1.177,38.657 L2.07,38.09 Z" id="Fill-18"></path>
            <path d="M2.459,36.97 C2.574,37.169 2.609,37.381 2.633,37.583 L2.719,38.288 C2.76,38.621 2.918,38.79 3.189,38.79 L3.19,38.79 C3.218,38.79 3.248,38.789 3.278,38.785 C3.437,38.765 3.544,38.702 3.606,38.59 C3.661,38.489 3.679,38.349 3.657,38.174 L3.496,36.844 L2.459,36.97 Z M3.19,38.94 L3.189,38.94 C2.84,38.94 2.621,38.715 2.571,38.307 L2.485,37.601 C2.458,37.384 2.419,37.154 2.27,36.955 C2.253,36.934 2.25,36.905 2.261,36.881 C2.271,36.856 2.294,36.839 2.321,36.835 L3.552,36.686 C3.571,36.684 3.592,36.689 3.607,36.701 C3.623,36.714 3.633,36.732 3.635,36.751 L3.806,38.156 C3.832,38.362 3.808,38.533 3.737,38.662 C3.652,38.817 3.504,38.908 3.297,38.933 C3.259,38.938 3.224,38.94 3.19,38.94 Z M1.789,36.901 C1.813,36.901 1.836,36.913 1.851,36.933 C2.018,37.171 2.067,37.441 2.092,37.649 L2.145,38.081 C2.148,38.11 2.135,38.138 2.11,38.153 L1.217,38.72 C0.737,39.03 0.752,39.402 0.798,39.797 L1.196,39.748 L1.183,39.649 C1.149,39.376 1.232,39.26 1.557,38.977 L2.121,38.611 C2.141,38.598 2.163,38.595 2.185,38.602 C2.207,38.609 2.224,38.626 2.231,38.647 C2.424,39.149 2.801,39.387 3.313,39.324 C3.627,39.285 3.875,39.148 4.029,38.927 C4.179,38.712 4.237,38.429 4.198,38.108 L3.971,36.237 L0.417,36.67 L0.465,37.062 L1.78,36.902 C1.783,36.901 1.786,36.901 1.789,36.901 Z M0.732,39.955 C0.716,39.955 0.7,39.949 0.686,39.939 C0.67,39.927 0.66,39.909 0.658,39.889 C0.606,39.46 0.546,38.974 1.137,38.594 L1.99,38.052 L1.943,37.667 C1.92,37.476 1.879,37.256 1.752,37.056 L0.409,37.22 C0.384,37.221 0.369,37.217 0.353,37.205 C0.337,37.193 0.327,37.174 0.325,37.155 L0.259,36.613 C0.257,36.593 0.262,36.574 0.274,36.558 C0.287,36.542 0.305,36.532 0.324,36.53 L4.027,36.079 C4.05,36.077 4.067,36.083 4.083,36.095 C4.098,36.107 4.108,36.125 4.11,36.145 L4.347,38.09 C4.391,38.448 4.323,38.768 4.152,39.013 C3.973,39.27 3.689,39.429 3.332,39.473 C2.772,39.539 2.354,39.291 2.127,38.785 L1.647,39.096 C1.349,39.358 1.307,39.428 1.331,39.631 L1.357,39.8 C1.36,39.821 1.356,39.841 1.343,39.858 C1.331,39.874 1.312,39.885 1.293,39.887 L0.742,39.954 C0.738,39.955 0.735,39.955 0.732,39.955 Z" id="Fill-19"></path>
            <polyline id="Fill-20" points="1.304 42.212 4.902 41.206 5.046 41.722 1.448 42.728 1.304 42.212"></polyline>
            <path d="M1.396,42.264 L1.5,42.636 L4.954,41.67 L4.85,41.298 L1.396,42.264 Z M1.448,42.803 C1.435,42.803 1.422,42.8 1.411,42.794 C1.394,42.784 1.381,42.767 1.375,42.749 L1.231,42.232 C1.22,42.192 1.244,42.151 1.284,42.14 L4.882,41.133 C4.901,41.129 4.921,41.131 4.939,41.14 C4.956,41.15 4.969,41.166 4.974,41.186 L5.118,41.702 C5.129,41.742 5.106,41.783 5.066,41.794 L1.468,42.8 C1.461,42.802 1.455,42.803 1.448,42.803 Z" id="Fill-21"></path>
            <path d="M2.659,46.305 C2.427,45.784 2.444,45.131 2.735,44.591 L3.228,44.799 C3.092,45.073 2.92,45.549 3.157,46.084 C3.38,46.588 3.798,47.01 4.224,46.822 C4.745,46.591 4.516,46.073 4.296,45.579 C3.936,44.765 4.04,44.187 4.621,43.93 C5.175,43.685 5.925,43.981 6.25,44.713 C6.479,45.23 6.532,45.744 6.318,46.325 L5.814,46.176 C5.95,45.678 5.94,45.371 5.747,44.936 C5.576,44.552 5.169,44.35 4.872,44.481 C4.666,44.573 4.543,44.802 4.801,45.383 C5.33,46.577 5.096,47.048 4.45,47.334 C3.764,47.638 3.042,47.17 2.659,46.305" id="Fill-22"></path>
            <path d="M2.77,44.687 C2.527,45.181 2.509,45.783 2.727,46.275 C3.022,46.939 3.518,47.352 4.022,47.352 C4.157,47.352 4.291,47.323 4.42,47.266 C4.754,47.117 4.932,46.937 4.993,46.682 C5.064,46.386 4.98,45.971 4.732,45.414 C4.498,44.886 4.535,44.549 4.841,44.413 C4.911,44.382 4.987,44.366 5.067,44.366 C5.367,44.366 5.674,44.588 5.815,44.906 C6.002,45.327 6.027,45.643 5.905,46.125 L6.271,46.233 C6.439,45.733 6.409,45.258 6.182,44.744 C5.96,44.243 5.507,43.92 5.029,43.92 C4.896,43.92 4.769,43.947 4.651,43.998 C3.979,44.297 4.125,45.006 4.364,45.549 C4.476,45.8 4.591,46.06 4.612,46.292 C4.637,46.573 4.517,46.774 4.254,46.89 C4.176,46.925 4.095,46.943 4.013,46.943 C3.602,46.943 3.266,46.515 3.089,46.114 C2.911,45.714 2.924,45.285 3.126,44.838 L2.77,44.687 Z M4.022,47.502 C3.458,47.502 2.909,47.055 2.59,46.336 C2.345,45.783 2.375,45.1 2.669,44.555 C2.688,44.521 2.728,44.507 2.765,44.522 L3.257,44.73 C3.276,44.739 3.291,44.754 3.298,44.773 C3.306,44.793 3.304,44.814 3.295,44.833 C3.081,45.263 3.058,45.674 3.226,46.054 C3.425,46.503 3.734,46.792 4.013,46.792 C4.074,46.792 4.134,46.779 4.193,46.753 C4.399,46.662 4.482,46.524 4.463,46.306 C4.444,46.098 4.334,45.85 4.228,45.61 C3.849,44.754 3.978,44.133 4.591,43.861 C4.727,43.801 4.875,43.77 5.029,43.77 C5.567,43.77 6.073,44.128 6.318,44.683 C6.573,45.258 6.596,45.787 6.389,46.351 C6.376,46.387 6.337,46.408 6.297,46.397 L5.794,46.248 C5.754,46.236 5.731,46.196 5.742,46.156 C5.875,45.666 5.86,45.377 5.678,44.967 C5.56,44.701 5.309,44.516 5.067,44.516 C5.008,44.516 4.953,44.528 4.902,44.55 C4.822,44.585 4.577,44.694 4.869,45.353 C5.134,45.95 5.22,46.383 5.139,46.717 C5.066,47.018 4.857,47.236 4.48,47.403 C4.332,47.469 4.178,47.502 4.022,47.502 Z" id="Fill-23"></path>
            <polyline id="Fill-24" points="8.04 49.271 5.404 51.056 5.107 50.616 7.742 48.832 6.996 47.73 7.452 47.422 9.233 50.052 8.778 50.361 8.04 49.271"></polyline>
            <path d="M5.211,50.636 L5.424,50.951 L7.998,49.209 C8.031,49.186 8.079,49.195 8.102,49.229 L8.798,50.257 L9.129,50.032 L7.432,47.526 L7.1,47.75 L7.804,48.79 C7.828,48.824 7.818,48.871 7.784,48.894 L5.211,50.636 Z M5.404,51.131 C5.399,51.131 5.395,51.13 5.39,51.129 C5.371,51.125 5.354,51.114 5.342,51.098 L5.045,50.658 C5.022,50.624 5.031,50.578 5.065,50.554 L7.638,48.812 L6.934,47.772 C6.923,47.756 6.919,47.735 6.922,47.716 C6.926,47.696 6.937,47.679 6.954,47.668 L7.41,47.36 C7.444,47.337 7.49,47.345 7.514,47.38 L9.295,50.01 C9.318,50.045 9.309,50.091 9.275,50.114 L8.82,50.423 C8.804,50.435 8.783,50.438 8.764,50.435 C8.744,50.431 8.727,50.42 8.716,50.403 L8.019,49.375 L5.446,51.118 C5.434,51.126 5.419,51.131 5.404,51.131 Z" id="Fill-25"></path>
            <polyline id="Fill-26" points="9.731 54.561 9.885 52.583 8.097 54.427 7.712 54.053 9.946 51.75 10 51.07 10.506 51.561 10.327 53.939 12.712 53.701 13.219 54.193 12.54 54.267 10.307 56.569 9.922 56.197 11.71 54.354 9.731 54.561"></polyline>
            <path d="M10.028,56.195 L10.305,56.464 L12.486,54.214 C12.499,54.202 12.515,54.194 12.532,54.192 L13.052,54.135 L12.685,53.779 L10.334,54.014 C10.312,54.016 10.29,54.008 10.274,53.993 C10.258,53.977 10.25,53.955 10.252,53.934 L10.429,51.59 L10.062,51.235 L10.021,51.756 C10.02,51.773 10.012,51.79 10,51.802 L7.818,54.052 L8.096,54.321 L9.831,52.531 C9.853,52.509 9.887,52.502 9.916,52.515 C9.944,52.528 9.962,52.558 9.96,52.589 L9.813,54.477 L11.702,54.279 C11.731,54.276 11.764,54.292 11.777,54.321 C11.791,54.349 11.786,54.383 11.764,54.406 L10.028,56.195 Z M10.307,56.645 C10.288,56.645 10.269,56.637 10.254,56.623 L9.87,56.251 C9.856,56.237 9.848,56.218 9.847,56.198 C9.847,56.178 9.855,56.159 9.869,56.145 L11.512,54.45 L9.739,54.636 C9.718,54.638 9.695,54.63 9.679,54.615 C9.663,54.6 9.654,54.578 9.656,54.555 L9.794,52.785 L8.151,54.479 C8.122,54.509 8.075,54.508 8.045,54.48 L7.66,54.107 C7.646,54.093 7.638,54.074 7.637,54.055 C7.637,54.035 7.644,54.016 7.659,54.001 L9.874,51.718 L9.925,51.064 C9.927,51.035 9.946,51.01 9.973,51 C10,50.989 10.031,50.996 10.052,51.016 L10.559,51.507 C10.575,51.523 10.583,51.545 10.581,51.567 L10.408,53.856 L12.705,53.626 C12.729,53.623 12.749,53.632 12.765,53.647 L13.271,54.139 C13.292,54.159 13.299,54.189 13.29,54.217 C13.28,54.244 13.256,54.264 13.227,54.267 L12.575,54.338 L10.36,56.622 C10.346,56.637 10.326,56.645 10.307,56.645 Z" id="Fill-27"></path>
            <path d="M15.083,58.585 L15.224,56.819 L13.581,57.896 C13.756,57.87 14.065,57.951 14.498,58.22 L15.083,58.585 Z M15.412,55.611 L15.921,55.928 L15.437,60.096 L14.919,59.773 L15,59.181 L14.037,58.581 C13.46,58.221 13.037,58.211 12.883,58.298 L12.71,58.396 L12.21,58.084 L15.343,56.11 L15.412,55.611 Z" id="Fill-28"></path>
            <path d="M13.812,57.834 C13.978,57.868 14.214,57.955 14.537,58.157 L15.018,58.457 L15.137,56.966 L13.812,57.834 Z M15.083,58.66 C15.069,58.66 15.056,58.657 15.043,58.649 L14.458,58.284 C14.015,58.008 13.76,57.967 13.647,57.967 C13.627,57.967 13.608,57.968 13.591,57.97 C13.559,57.976 13.523,57.956 13.51,57.923 C13.498,57.89 13.51,57.853 13.54,57.833 L15.183,56.756 C15.207,56.741 15.238,56.74 15.262,56.755 C15.287,56.769 15.301,56.797 15.299,56.825 L15.158,58.591 C15.156,58.617 15.14,58.641 15.117,58.652 C15.106,58.658 15.095,58.66 15.083,58.66 Z M15.001,59.735 L15.376,59.969 L15.841,55.967 L15.47,55.736 L15.417,56.12 C15.414,56.142 15.401,56.161 15.383,56.173 L12.351,58.083 L12.712,58.309 L12.846,58.232 C12.91,58.197 13,58.178 13.106,58.178 C13.265,58.178 13.603,58.222 14.077,58.518 L15.039,59.118 C15.064,59.133 15.078,59.162 15.074,59.191 L15.001,59.735 Z M15.437,60.171 C15.423,60.171 15.409,60.167 15.397,60.16 L14.88,59.837 C14.854,59.821 14.841,59.792 14.845,59.763 L14.918,59.219 L13.998,58.645 C13.555,58.369 13.249,58.328 13.106,58.328 C12.999,58.328 12.943,58.35 12.92,58.363 L12.747,58.461 C12.723,58.475 12.694,58.474 12.67,58.459 L12.17,58.147 C12.148,58.134 12.135,58.11 12.134,58.084 C12.134,58.058 12.147,58.034 12.169,58.02 L15.273,56.065 L15.337,55.601 C15.341,55.576 15.357,55.554 15.38,55.543 C15.403,55.532 15.429,55.534 15.451,55.547 L15.96,55.864 C15.985,55.88 15.999,55.908 15.996,55.937 L15.511,60.104 C15.508,60.13 15.492,60.152 15.469,60.163 C15.458,60.168 15.448,60.171 15.437,60.171 Z" id="Fill-29"></path>
            <path d="M18.645,61.601 C18.113,61.397 17.664,60.925 17.488,60.339 L17.982,60.138 C18.08,60.427 18.295,60.884 18.84,61.093 C19.353,61.291 19.946,61.294 20.112,60.86 C20.316,60.329 19.79,60.126 19.286,59.933 C18.457,59.614 18.123,59.133 18.351,58.541 C18.567,57.977 19.306,57.656 20.052,57.943 C20.578,58.145 20.978,58.47 21.238,59.03 L20.778,59.281 C20.522,58.835 20.297,58.626 19.854,58.455 C19.463,58.305 19.033,58.45 18.916,58.753 C18.835,58.963 18.911,59.211 19.503,59.439 C20.72,59.906 20.887,60.404 20.635,61.061 C20.366,61.76 19.526,61.94 18.645,61.601" id="Fill-30"></path>
            <path d="M17.581,60.382 C17.759,60.903 18.171,61.339 18.672,61.531 C18.946,61.637 19.224,61.692 19.477,61.692 C20.007,61.692 20.404,61.452 20.565,61.034 C20.794,60.439 20.691,59.976 19.476,59.509 C19.187,59.397 18.997,59.274 18.896,59.133 C18.807,59.007 18.791,58.871 18.846,58.726 C18.941,58.48 19.211,58.321 19.534,58.321 C19.652,58.321 19.769,58.342 19.881,58.385 C20.31,58.55 20.55,58.755 20.806,59.18 L21.139,58.998 C20.904,58.528 20.548,58.214 20.025,58.013 C19.849,57.945 19.669,57.911 19.49,57.911 C19.001,57.911 18.572,58.175 18.42,58.568 C18.317,58.837 18.338,59.082 18.484,59.297 C18.634,59.519 18.913,59.709 19.313,59.863 C19.803,60.051 20.414,60.286 20.182,60.887 C20.081,61.151 19.828,61.296 19.469,61.296 C19.267,61.296 19.04,61.25 18.813,61.163 C18.405,61.007 18.111,60.695 17.938,60.237 L17.581,60.382 Z M19.477,61.842 C19.202,61.842 18.913,61.785 18.618,61.671 C18.055,61.455 17.594,60.953 17.417,60.36 C17.405,60.324 17.424,60.284 17.46,60.27 L17.954,60.068 C17.973,60.061 17.995,60.061 18.014,60.07 C18.032,60.078 18.047,60.094 18.054,60.114 C18.207,60.569 18.481,60.875 18.867,61.023 C19.076,61.104 19.285,61.146 19.469,61.146 C19.676,61.146 19.943,61.092 20.043,60.833 C20.208,60.404 19.839,60.226 19.259,60.003 C18.83,59.838 18.527,59.629 18.36,59.382 C18.185,59.124 18.159,58.832 18.281,58.514 C18.454,58.064 18.94,57.761 19.49,57.761 C19.688,57.761 19.886,57.799 20.079,57.873 C20.664,58.098 21.054,58.456 21.306,58.999 C21.322,59.034 21.309,59.077 21.274,59.096 L20.814,59.347 C20.777,59.366 20.733,59.354 20.713,59.318 C20.46,58.878 20.245,58.686 19.828,58.526 C19.732,58.489 19.634,58.47 19.534,58.47 C19.277,58.47 19.057,58.595 18.986,58.78 C18.949,58.877 18.959,58.962 19.019,59.046 C19.1,59.161 19.272,59.27 19.53,59.369 C20.666,59.805 21.006,60.303 20.705,61.088 C20.521,61.567 20.073,61.842 19.477,61.842 Z" id="Fill-31"></path>
            <path d="M28.267,60.644 C28.02,60.343 27.64,60.14 27.217,60.106 C26.389,60.037 25.702,60.578 25.633,61.416 C25.567,62.218 26.212,62.864 26.989,62.928 C27.363,62.958 27.718,62.852 27.996,62.649 L28.052,61.971 L27.573,61.932 L27.383,61.374 L28.634,61.477 L28.516,62.923 C28.107,63.31 27.538,63.52 26.94,63.47 C25.813,63.378 25.013,62.429 25.105,61.307 C25.195,60.21 26.199,59.47 27.267,59.558 C27.825,59.603 28.315,59.87 28.648,60.264 L28.267,60.644" id="Fill-32"></path>
            <path d="M27.094,59.626 C26.082,59.626 25.259,60.351 25.18,61.313 C25.137,61.837 25.294,62.338 25.623,62.726 C25.952,63.115 26.422,63.353 26.946,63.396 C27.505,63.442 28.042,63.257 28.443,62.888 L28.553,61.546 L27.491,61.458 L27.628,61.861 L28.058,61.896 C28.078,61.898 28.096,61.907 28.109,61.922 C28.122,61.937 28.128,61.957 28.127,61.977 L28.071,62.655 C28.069,62.677 28.058,62.697 28.041,62.709 C27.739,62.93 27.369,63.034 26.983,63.002 C26.586,62.97 26.206,62.786 25.94,62.5 C25.661,62.199 25.525,61.812 25.559,61.41 C25.629,60.546 26.33,59.957 27.223,60.031 C27.629,60.064 28.007,60.246 28.271,60.534 L28.545,60.26 C28.214,59.895 27.76,59.673 27.261,59.632 C27.205,59.628 27.149,59.626 27.094,59.626 Z M27.113,63.552 C27.053,63.552 26.994,63.55 26.934,63.545 C26.37,63.499 25.863,63.243 25.508,62.823 C25.154,62.405 24.984,61.864 25.03,61.301 C25.116,60.26 26.003,59.476 27.094,59.476 C27.154,59.476 27.213,59.478 27.273,59.483 C27.836,59.529 28.345,59.789 28.706,60.215 C28.731,60.245 28.729,60.289 28.701,60.317 L28.319,60.697 C28.304,60.712 28.284,60.718 28.263,60.719 C28.242,60.718 28.222,60.708 28.208,60.691 C27.969,60.399 27.606,60.213 27.21,60.18 C27.166,60.177 27.121,60.175 27.077,60.175 C26.331,60.175 25.769,60.688 25.708,61.422 C25.678,61.781 25.8,62.128 26.05,62.398 C26.291,62.657 26.635,62.823 26.996,62.853 C27.335,62.881 27.657,62.794 27.924,62.608 L27.971,62.04 L27.567,62.007 C27.538,62.004 27.512,61.984 27.502,61.956 L27.312,61.398 C27.304,61.374 27.308,61.348 27.324,61.328 C27.339,61.308 27.36,61.297 27.389,61.299 L28.641,61.403 C28.682,61.406 28.712,61.442 28.709,61.483 L28.59,62.929 C28.589,62.948 28.581,62.965 28.567,62.978 C28.176,63.348 27.659,63.552 27.113,63.552 Z" id="Fill-33"></path>
            <polyline id="Fill-34" points="30.87 63.405 30.604 59.679 31.139 59.64 31.405 63.367 30.87 63.405"></polyline>
            <path d="M30.685,59.748 L30.939,63.325 L31.325,63.297 L31.069,59.72 L30.685,59.748 Z M30.87,63.48 C30.852,63.48 30.834,63.474 30.82,63.462 C30.806,63.449 30.796,63.43 30.795,63.41 L30.53,59.684 C30.527,59.643 30.558,59.607 30.599,59.604 L31.133,59.565 C31.155,59.563 31.173,59.57 31.188,59.583 C31.203,59.596 31.212,59.615 31.213,59.635 L31.479,63.361 C31.481,63.381 31.475,63.401 31.461,63.416 C31.448,63.431 31.43,63.44 31.41,63.442 L30.875,63.48 C30.873,63.48 30.872,63.48 30.87,63.48 Z" id="Fill-35"></path>
            <path d="M34.439,62.964 L33.906,63.077 L33.133,59.423 L35.705,58.879 L35.818,59.418 L33.78,59.849 L34.015,60.956 C34.208,60.782 34.436,60.718 34.675,60.668 L35.474,60.499 L35.589,61.043 L34.791,61.212 C34.556,61.261 34.326,61.336 34.13,61.5 L34.439,62.964" id="Fill-36"></path>
            <path d="M33.222,59.481 L33.964,62.988 L34.351,62.906 L34.057,61.515 C34.051,61.488 34.061,61.46 34.082,61.442 C34.305,61.256 34.569,61.182 34.775,61.138 L35.5,60.985 L35.417,60.588 L34.691,60.741 C34.476,60.787 34.251,60.845 34.065,61.011 C34.045,61.03 34.018,61.035 33.992,61.027 C33.966,61.019 33.947,60.997 33.942,60.971 L33.707,59.864 C33.703,59.845 33.707,59.824 33.717,59.808 C33.728,59.791 33.745,59.779 33.765,59.775 L35.729,59.36 L35.647,58.968 L33.222,59.481 Z M33.906,63.152 C33.871,63.152 33.84,63.128 33.833,63.092 L33.06,59.438 C33.055,59.419 33.059,59.399 33.07,59.382 C33.081,59.365 33.098,59.353 33.117,59.349 L35.69,58.806 C35.709,58.802 35.73,58.805 35.746,58.816 C35.763,58.827 35.774,58.844 35.778,58.864 L35.892,59.402 C35.9,59.443 35.875,59.483 35.834,59.491 L33.869,59.906 L34.063,60.822 C34.252,60.69 34.46,60.637 34.66,60.594 L35.458,60.425 C35.502,60.417 35.539,60.443 35.547,60.483 L35.663,61.027 C35.667,61.047 35.663,61.067 35.652,61.084 C35.642,61.1 35.625,61.112 35.605,61.116 L34.806,61.285 C34.617,61.325 34.401,61.385 34.213,61.529 L34.513,62.949 C34.521,62.989 34.496,63.029 34.455,63.038 L33.921,63.15 C33.916,63.151 33.911,63.152 33.906,63.152 Z" id="Fill-37"></path>
            <polyline id="Fill-38" points="38.95 58.301 40.144 61.252 39.652 61.451 38.458 58.5 37.224 59 37.018 58.489 39.964 57.297 40.17 57.808 38.95 58.301"></polyline>
            <path d="M38.458,58.425 C38.468,58.425 38.478,58.427 38.487,58.431 C38.505,58.439 38.52,58.454 38.527,58.472 L39.693,61.353 L40.046,61.211 L38.88,58.33 C38.873,58.311 38.873,58.29 38.881,58.272 C38.888,58.254 38.903,58.239 38.921,58.232 L40.072,57.766 L39.922,57.395 L37.115,58.531 L37.265,58.902 L38.43,58.431 C38.439,58.427 38.448,58.425 38.458,58.425 Z M39.652,61.526 C39.622,61.526 39.594,61.508 39.583,61.479 L38.417,58.598 L37.252,59.069 C37.233,59.077 37.213,59.077 37.194,59.069 C37.176,59.061 37.162,59.047 37.154,59.028 L36.948,58.518 C36.933,58.479 36.951,58.436 36.989,58.42 L39.936,57.228 C39.954,57.22 39.975,57.22 39.993,57.228 C40.012,57.236 40.026,57.251 40.033,57.269 L40.239,57.78 C40.255,57.818 40.236,57.862 40.198,57.877 L39.047,58.343 L40.213,61.224 C40.221,61.242 40.22,61.263 40.212,61.281 C40.205,61.3 40.19,61.314 40.172,61.322 L39.68,61.52 C39.671,61.524 39.661,61.526 39.652,61.526 Z" id="Fill-39"></path>
            <path d="M44.454,59.102 C43.973,59.408 43.324,59.489 42.748,59.282 L42.88,58.764 C43.171,58.858 43.667,58.956 44.161,58.642 C44.625,58.347 44.98,57.872 44.73,57.479 C44.424,56.998 43.947,57.302 43.492,57.592 C42.741,58.07 42.154,58.053 41.813,57.516 C41.488,57.006 41.669,56.22 42.345,55.791 C42.821,55.487 43.32,55.359 43.928,55.483 L43.855,56.003 C43.343,55.943 43.041,55.999 42.64,56.255 C42.286,56.48 42.146,56.913 42.321,57.187 C42.441,57.377 42.687,57.464 43.223,57.123 C44.324,56.422 44.824,56.583 45.203,57.178 C45.606,57.811 45.251,58.594 44.454,59.102" id="Fill-40"></path>
            <path d="M42.837,59.233 C43.356,59.398 43.967,59.322 44.414,59.039 C44.794,58.797 45.076,58.484 45.209,58.159 C45.344,57.827 45.32,57.502 45.139,57.219 C44.927,56.885 44.701,56.736 44.405,56.736 C44.112,56.736 43.738,56.884 43.263,57.187 C42.769,57.5 42.436,57.507 42.257,57.228 C42.162,57.077 42.145,56.876 42.211,56.679 C42.277,56.482 42.415,56.309 42.6,56.191 C42.922,55.986 43.181,55.906 43.522,55.906 C43.604,55.906 43.692,55.911 43.791,55.92 L43.844,55.543 C43.316,55.451 42.865,55.548 42.385,55.854 C41.708,56.285 41.593,57.032 41.876,57.476 C42.192,57.971 42.739,57.983 43.452,57.529 C43.742,57.344 44.043,57.152 44.318,57.152 C44.512,57.152 44.672,57.248 44.794,57.439 C44.882,57.578 44.909,57.733 44.872,57.898 C44.81,58.176 44.56,58.478 44.201,58.706 C43.832,58.94 43.407,58.993 42.934,58.859 L42.837,59.233 Z M43.414,59.472 C43.175,59.472 42.942,59.432 42.722,59.353 C42.686,59.339 42.665,59.301 42.675,59.263 L42.808,58.746 C42.813,58.726 42.826,58.709 42.844,58.699 C42.862,58.689 42.884,58.687 42.903,58.693 C43.368,58.842 43.769,58.802 44.121,58.579 C44.446,58.372 44.672,58.105 44.726,57.866 C44.753,57.74 44.733,57.624 44.667,57.519 C44.572,57.371 44.461,57.302 44.318,57.302 C44.086,57.302 43.805,57.482 43.533,57.656 C42.738,58.161 42.109,58.121 41.749,57.557 C41.381,56.977 41.63,56.157 42.305,55.727 C42.835,55.39 43.355,55.29 43.943,55.409 C43.981,55.417 44.007,55.454 44.002,55.493 L43.929,56.013 C43.923,56.053 43.887,56.084 43.846,56.077 C43.724,56.063 43.618,56.056 43.522,56.056 C43.212,56.056 42.977,56.129 42.681,56.318 C42.527,56.415 42.408,56.565 42.353,56.727 C42.301,56.881 42.313,57.034 42.384,57.147 C42.517,57.357 42.78,57.316 43.183,57.06 C43.683,56.741 44.082,56.586 44.405,56.586 C44.753,56.586 45.026,56.762 45.266,57.138 C45.474,57.464 45.502,57.837 45.348,58.216 C45.204,58.569 44.9,58.906 44.494,59.166 C44.184,59.363 43.8,59.472 43.414,59.472 Z" id="Fill-41"></path>
            <path d="M49.975,54.461 L49.609,54.865 L46.848,52.361 L48.609,50.418 L49.017,50.788 L47.621,52.327 L48.457,53.086 C48.512,52.832 48.658,52.648 48.823,52.466 L49.37,51.863 L49.781,52.236 L49.233,52.839 C49.073,53.016 48.93,53.211 48.868,53.458 L49.975,54.461" id="Fill-42"></path>
            <path d="M46.954,52.356 L49.604,54.759 L49.869,54.467 L48.818,53.514 C48.797,53.495 48.789,53.467 48.795,53.44 C48.865,53.161 49.028,52.954 49.178,52.789 L49.675,52.241 L49.375,51.969 L48.878,52.517 C48.731,52.679 48.583,52.858 48.53,53.102 C48.525,53.128 48.505,53.149 48.48,53.157 C48.456,53.165 48.426,53.16 48.407,53.142 L47.57,52.382 C47.54,52.354 47.537,52.307 47.565,52.277 L48.911,50.793 L48.615,50.524 L46.954,52.356 Z M49.609,54.94 C49.59,54.94 49.572,54.933 49.559,54.921 L46.797,52.417 C46.767,52.389 46.764,52.342 46.792,52.311 L48.554,50.368 C48.568,50.352 48.597,50.342 48.609,50.343 C48.628,50.343 48.646,50.35 48.66,50.363 L49.067,50.732 C49.098,50.76 49.1,50.807 49.072,50.838 L47.727,52.322 L48.418,52.949 C48.493,52.731 48.63,52.567 48.767,52.416 L49.314,51.813 C49.328,51.797 49.35,51.789 49.37,51.788 C49.388,51.788 49.406,51.795 49.42,51.808 L49.831,52.18 C49.846,52.194 49.854,52.213 49.855,52.232 C49.856,52.252 49.85,52.272 49.836,52.286 L49.289,52.889 C49.159,53.032 49.02,53.208 48.953,53.434 L50.025,54.406 C50.056,54.434 50.058,54.481 50.03,54.512 L49.665,54.915 C49.65,54.931 49.621,54.939 49.609,54.94 Z" id="Fill-43"></path>
            <path d="M50.844,47.921 C50.414,48.631 50.591,49.487 51.309,49.921 C51.996,50.338 52.86,50.05 53.265,49.383 C53.679,48.699 53.493,47.81 52.801,47.39 C52.101,46.966 51.255,47.242 50.844,47.921 Z M53.728,49.669 C53.143,50.635 51.937,50.927 50.976,50.344 C50.036,49.775 49.822,48.547 50.377,47.632 C50.949,46.688 52.153,46.367 53.106,46.944 C54.046,47.514 54.287,48.746 53.728,49.669 Z" id="Fill-44"></path>
            <path d="M52.091,47.263 C51.622,47.263 51.169,47.531 50.908,47.96 C50.708,48.289 50.641,48.662 50.719,49.008 C50.797,49.358 51.021,49.659 51.348,49.857 C51.548,49.979 51.768,50.04 52.001,50.04 C52.48,50.04 52.94,49.774 53.201,49.344 C53.604,48.678 53.412,47.848 52.762,47.454 C52.553,47.328 52.327,47.263 52.091,47.263 Z M52.001,50.19 C51.744,50.19 51.491,50.119 51.27,49.985 C50.908,49.766 50.66,49.431 50.573,49.041 C50.486,48.656 50.56,48.245 50.78,47.883 C51.067,47.408 51.57,47.113 52.091,47.113 C52.351,47.113 52.61,47.187 52.84,47.326 C53.549,47.756 53.769,48.696 53.329,49.422 C53.041,49.896 52.532,50.19 52.001,50.19 Z M52.085,46.731 C51.412,46.731 50.797,47.083 50.44,47.671 C50.177,48.105 50.088,48.613 50.19,49.102 C50.293,49.602 50.585,50.02 51.015,50.28 C51.326,50.469 51.676,50.569 52.028,50.569 C52.696,50.569 53.308,50.218 53.664,49.63 C53.927,49.195 54.014,48.684 53.906,48.191 C53.797,47.69 53.499,47.27 53.067,47.009 C52.768,46.827 52.428,46.731 52.085,46.731 Z M52.028,50.718 C51.649,50.718 51.271,50.611 50.937,50.409 C50.472,50.127 50.154,49.674 50.043,49.133 C49.934,48.606 50.029,48.06 50.313,47.594 C50.696,46.96 51.359,46.581 52.085,46.581 C52.456,46.581 52.822,46.685 53.146,46.88 C53.612,47.164 53.935,47.618 54.053,48.159 C54.169,48.69 54.076,49.24 53.791,49.708 C53.409,50.341 52.75,50.718 52.028,50.718 Z" id="Fill-45"></path>
            <path d="M54.077,44.442 C54.028,44.187 54.091,43.96 54.171,43.728 L54.404,43.057 C54.527,42.702 54.452,42.401 54.074,42.27 C53.706,42.142 53.486,42.362 53.369,42.698 L52.905,44.035 L54.077,44.442 Z M54.83,43.496 L54.687,43.907 C54.608,44.133 54.553,44.369 54.592,44.621 L55.915,45.08 L55.736,45.595 L52.211,44.372 L52.854,42.519 C53.078,41.877 53.613,41.538 54.279,41.769 C54.814,41.955 55.053,42.377 55.004,42.932 L55.661,42.853 C56.065,42.744 56.163,42.688 56.242,42.461 C56.249,42.442 56.254,42.428 56.26,42.409 L56.295,42.294 L56.819,42.476 C56.677,42.887 56.532,43.303 55.881,43.379 L54.83,43.496 Z" id="Fill-46"></path>
            <path d="M53.001,43.989 L53.987,44.331 C53.972,44.102 54.034,43.896 54.101,43.704 L54.334,43.032 C54.392,42.864 54.399,42.721 54.356,42.606 C54.312,42.485 54.208,42.396 54.049,42.341 C53.765,42.242 53.563,42.37 53.44,42.722 L53.001,43.989 Z M54.077,44.517 C54.069,44.517 54.061,44.516 54.053,44.513 L52.881,44.106 C52.842,44.093 52.821,44.05 52.835,44.011 L53.298,42.673 C53.446,42.248 53.692,42.158 53.873,42.158 C53.944,42.158 54.02,42.172 54.098,42.199 C54.301,42.27 54.436,42.389 54.497,42.553 C54.553,42.702 54.545,42.88 54.475,43.082 L54.242,43.753 C54.17,43.96 54.104,44.184 54.151,44.428 C54.156,44.454 54.146,44.481 54.126,44.498 C54.112,44.51 54.095,44.517 54.077,44.517 Z M52.307,44.325 L55.69,45.499 L55.82,45.126 L54.568,44.692 C54.541,44.683 54.522,44.66 54.518,44.632 C54.473,44.345 54.547,44.081 54.616,43.882 L54.759,43.471 C54.768,43.444 54.793,43.424 54.821,43.421 L55.873,43.304 C56.441,43.238 56.592,42.897 56.724,42.522 L56.344,42.391 L56.331,42.431 C56.326,42.449 56.32,42.464 56.314,42.481 C56.223,42.746 56.097,42.813 55.681,42.925 L55.013,43.006 C54.99,43.009 54.968,43.001 54.952,42.986 C54.936,42.97 54.927,42.948 54.929,42.925 C54.977,42.385 54.744,42.01 54.254,41.84 C53.661,41.635 53.145,41.914 52.925,42.544 L52.307,44.325 Z M55.736,45.67 C55.728,45.67 55.72,45.669 55.712,45.666 L52.187,44.443 C52.147,44.429 52.127,44.386 52.141,44.347 L52.783,42.495 C52.974,41.948 53.38,41.621 53.872,41.621 C54.011,41.621 54.157,41.647 54.303,41.698 C54.829,41.881 55.104,42.286 55.085,42.847 L55.652,42.778 C56.035,42.674 56.104,42.629 56.171,42.436 C56.179,42.414 56.184,42.402 56.188,42.387 L56.223,42.272 C56.229,42.253 56.243,42.236 56.261,42.227 C56.28,42.218 56.301,42.217 56.319,42.223 L56.844,42.405 C56.863,42.411 56.878,42.425 56.887,42.443 C56.896,42.461 56.896,42.482 56.89,42.5 C56.748,42.909 56.588,43.372 55.89,43.453 L54.885,43.565 L54.758,43.932 C54.694,44.114 54.634,44.329 54.661,44.565 L55.94,45.009 C55.959,45.015 55.974,45.029 55.983,45.047 C55.992,45.065 55.993,45.086 55.986,45.104 L55.807,45.62 C55.796,45.651 55.768,45.67 55.736,45.67 Z" id="Fill-47"></path>
            <path d="M57.217,36.83 L57.274,35.427 C57.287,35.122 57.132,34.735 56.758,34.72 C56.323,34.702 56.197,35.077 56.183,35.437 L56.157,36.077 C56.147,36.316 56.167,36.562 56.277,36.792 L57.217,36.83 Z M55.723,36.769 C55.602,36.539 55.592,36.299 55.602,36.053 L55.628,35.414 C55.642,35.08 55.481,34.853 55.137,34.838 C54.782,34.824 54.652,35.049 54.639,35.374 L54.584,36.723 L55.723,36.769 Z M57.816,35.504 L57.739,37.392 L54.013,37.239 L54.09,35.351 C54.116,34.721 54.499,34.267 55.154,34.294 C55.474,34.307 55.744,34.433 55.874,34.659 C56.005,34.404 56.335,34.162 56.85,34.183 C57.589,34.214 57.842,34.884 57.816,35.504 Z" id="Fill-48"></path>
            <path d="M54.662,36.651 L55.605,36.689 C55.524,36.476 55.519,36.258 55.527,36.05 L55.553,35.411 C55.56,35.261 55.527,35.137 55.459,35.053 C55.388,34.966 55.279,34.919 55.134,34.913 L55.105,34.913 C54.945,34.913 54.731,34.961 54.714,35.377 L54.662,36.651 Z M55.723,36.844 C55.722,36.844 55.721,36.844 55.72,36.844 L54.581,36.798 C54.54,36.796 54.507,36.761 54.509,36.719 L54.564,35.371 C54.585,34.868 54.87,34.763 55.105,34.763 L55.14,34.763 C55.327,34.771 55.478,34.839 55.575,34.959 C55.666,35.072 55.711,35.23 55.703,35.417 L55.677,36.056 C55.666,36.315 55.682,36.529 55.79,36.734 C55.802,36.758 55.801,36.787 55.787,36.809 C55.773,36.831 55.749,36.844 55.723,36.844 Z M56.327,36.719 L57.145,36.752 L57.199,35.423 C57.207,35.232 57.146,35.041 57.038,34.925 C56.962,34.843 56.867,34.799 56.755,34.795 L56.729,34.794 C56.433,34.794 56.275,35.012 56.258,35.44 L56.231,36.08 C56.221,36.339 56.252,36.543 56.327,36.719 Z M57.217,36.905 C57.216,36.905 57.215,36.905 57.214,36.905 L56.274,36.867 C56.247,36.866 56.222,36.849 56.21,36.824 C56.11,36.617 56.069,36.378 56.082,36.074 L56.108,35.434 C56.128,34.925 56.349,34.644 56.729,34.644 L56.761,34.645 C56.913,34.651 57.046,34.713 57.148,34.823 C57.282,34.968 57.358,35.2 57.349,35.43 L57.291,36.834 C57.291,36.854 57.282,36.872 57.268,36.886 C57.254,36.898 57.235,36.905 57.217,36.905 Z M54.091,37.168 L57.667,37.314 L57.742,35.501 C57.755,35.177 57.689,34.879 57.556,34.662 C57.4,34.407 57.162,34.271 56.847,34.258 C56.35,34.238 56.053,34.473 55.941,34.693 C55.929,34.717 55.904,34.733 55.877,34.734 C55.876,34.734 55.874,34.734 55.874,34.734 C55.848,34.734 55.823,34.72 55.81,34.697 C55.697,34.501 55.456,34.381 55.151,34.369 C54.572,34.339 54.19,34.727 54.165,35.354 L54.091,37.168 Z M57.739,37.467 C57.738,37.467 57.737,37.467 57.736,37.467 L54.01,37.314 C53.968,37.313 53.936,37.278 53.938,37.236 L54.015,35.348 C54.044,34.641 54.498,34.191 55.157,34.219 C55.463,34.231 55.716,34.341 55.87,34.523 C56.027,34.307 56.331,34.107 56.787,34.107 C56.809,34.107 56.831,34.107 56.853,34.108 C57.215,34.123 57.503,34.288 57.684,34.583 C57.832,34.826 57.906,35.154 57.891,35.507 L57.814,37.395 C57.812,37.436 57.779,37.467 57.739,37.467 Z" id="Fill-49"></path>
            <polyline id="Fill-50" points="57.685 31.829 53.974 32.239 53.915 31.707 57.625 31.296 57.685 31.829"></polyline>
            <path d="M53.998,31.773 L54.04,32.156 L57.602,31.762 L57.559,31.379 L53.998,31.773 Z M53.974,32.314 C53.936,32.314 53.903,32.285 53.899,32.247 L53.84,31.715 C53.838,31.695 53.844,31.676 53.856,31.66 C53.869,31.644 53.887,31.635 53.906,31.632 L57.617,31.222 C57.665,31.213 57.695,31.247 57.7,31.288 L57.759,31.82 C57.761,31.84 57.755,31.86 57.743,31.875 C57.73,31.891 57.712,31.901 57.693,31.903 L53.982,32.313 C53.979,32.314 53.976,32.314 53.974,32.314 Z" id="Fill-51"></path>
            <polyline id="Fill-52" points="53.806 28.163 56.887 27.387 57.017 27.901 53.935 28.677 54.26 29.965 53.727 30.099 52.953 27.023 53.485 26.889 53.806 28.163"></polyline>
            <path d="M53.044,27.078 L53.781,30.008 L54.169,29.911 L53.862,28.695 C53.857,28.676 53.86,28.655 53.871,28.638 C53.881,28.621 53.897,28.609 53.916,28.604 L56.926,27.846 L56.833,27.479 L53.824,28.236 C53.782,28.245 53.744,28.221 53.733,28.181 L53.431,26.98 L53.044,27.078 Z M53.727,30.174 C53.693,30.174 53.663,30.151 53.654,30.117 L52.88,27.041 C52.87,27.001 52.894,26.961 52.934,26.95 L53.467,26.816 C53.487,26.812 53.506,26.814 53.524,26.824 C53.541,26.835 53.553,26.851 53.558,26.87 L53.86,28.072 L56.869,27.315 C56.907,27.304 56.95,27.329 56.96,27.369 L57.089,27.882 C57.094,27.902 57.091,27.922 57.081,27.939 C57.071,27.957 57.054,27.969 57.035,27.974 L54.026,28.731 L54.332,29.947 C54.337,29.966 54.335,29.986 54.324,30.004 C54.314,30.021 54.297,30.033 54.278,30.038 L53.745,30.172 C53.739,30.173 53.732,30.174 53.727,30.174 Z" id="Fill-53"></path>
            <path d="M52.011,22.556 C51.87,22.919 51.882,23.349 52.06,23.735 C52.41,24.489 53.22,24.821 53.983,24.467 C54.714,24.128 54.958,23.249 54.629,22.54 C54.425,22.099 54.04,21.803 53.599,21.71 L53.872,21.214 C54.411,21.377 54.874,21.77 55.127,22.315 C55.602,23.341 55.171,24.507 54.149,24.98 C53.15,25.443 52.009,24.934 51.559,23.962 C51.323,23.453 51.313,22.895 51.491,22.41 L52.011,22.556" id="Fill-54"></path>
            <path d="M51.539,22.502 C51.385,22.97 51.415,23.475 51.627,23.931 C51.95,24.628 52.634,25.078 53.37,25.078 C53.628,25.078 53.88,25.022 54.117,24.912 C54.594,24.691 54.953,24.307 55.129,23.829 C55.305,23.351 55.28,22.824 55.059,22.347 C54.83,21.852 54.413,21.475 53.908,21.304 L53.712,21.66 C54.146,21.782 54.502,22.086 54.697,22.508 C55.057,23.284 54.751,24.194 54.015,24.535 C53.802,24.634 53.581,24.684 53.36,24.684 C52.778,24.683 52.254,24.332 51.992,23.766 C51.82,23.395 51.793,22.977 51.913,22.606 L51.539,22.502 Z M53.37,25.228 C52.576,25.228 51.838,24.744 51.491,23.994 C51.253,23.48 51.228,22.909 51.421,22.384 C51.435,22.348 51.478,22.328 51.511,22.338 L52.031,22.484 C52.051,22.489 52.068,22.503 52.078,22.522 C52.087,22.541 52.088,22.563 52.081,22.583 C51.944,22.934 51.961,23.342 52.128,23.704 C52.366,24.216 52.837,24.534 53.36,24.534 C53.56,24.534 53.759,24.489 53.952,24.399 C54.613,24.092 54.886,23.272 54.562,22.571 C54.372,22.162 54.015,21.874 53.584,21.783 C53.561,21.778 53.541,21.762 53.531,21.741 C53.521,21.719 53.522,21.694 53.533,21.674 L53.806,21.178 C53.824,21.147 53.863,21.132 53.894,21.142 C54.465,21.315 54.939,21.731 55.194,22.284 C55.433,22.798 55.46,23.365 55.27,23.881 C55.08,24.396 54.693,24.811 54.181,25.048 C53.923,25.168 53.65,25.228 53.37,25.228 Z" id="Fill-55"></path>
            <path d="M49.451,19.418 C49.949,20.08 50.808,20.235 51.479,19.731 C52.122,19.248 52.176,18.339 51.708,17.716 C51.228,17.077 50.334,16.918 49.687,17.404 C49.032,17.896 48.975,18.783 49.451,19.418 Z M52.146,17.393 C52.824,18.296 52.646,19.522 51.748,20.197 C50.869,20.857 49.651,20.598 49.009,19.744 C48.347,18.862 48.497,17.624 49.387,16.955 C50.266,16.295 51.498,16.531 52.146,17.393 Z" id="Fill-56"></path>
            <path d="M50.532,17.195 C50.243,17.195 49.966,17.288 49.732,17.464 C49.139,17.91 49.042,18.748 49.511,19.373 C49.789,19.742 50.192,19.954 50.617,19.954 C50.904,19.954 51.187,19.856 51.434,19.671 C52.015,19.234 52.111,18.377 51.648,17.761 C51.381,17.407 50.964,17.195 50.532,17.195 Z M50.617,20.104 C50.617,20.104 50.617,20.104 50.616,20.104 C50.144,20.104 49.697,19.87 49.391,19.463 C48.871,18.771 48.982,17.84 49.642,17.344 C49.902,17.148 50.21,17.045 50.532,17.045 C51.011,17.045 51.473,17.279 51.768,17.671 C52.28,18.354 52.171,19.304 51.524,19.791 C51.251,19.996 50.937,20.104 50.617,20.104 Z M50.525,16.651 C50.127,16.651 49.749,16.777 49.432,17.015 C48.58,17.656 48.42,18.835 49.069,19.699 C49.443,20.197 50.028,20.494 50.633,20.494 C51.022,20.494 51.392,20.37 51.703,20.137 C52.567,19.488 52.735,18.302 52.086,17.438 C51.715,16.945 51.132,16.651 50.525,16.651 Z M50.633,20.644 C49.981,20.644 49.351,20.324 48.949,19.789 C48.25,18.858 48.422,17.587 49.342,16.895 C49.685,16.637 50.094,16.501 50.525,16.501 C51.179,16.501 51.807,16.818 52.206,17.348 C52.906,18.28 52.724,19.557 51.793,20.257 C51.456,20.51 51.055,20.644 50.633,20.644 Z" id="Fill-57"></path>
            <polyline id="Fill-58" points="49.2 14.162 46.608 16.85 46.223 16.479 48.814 13.79 49.2 14.162"></polyline>
            <path d="M46.329,16.477 L46.606,16.744 L49.094,14.164 L48.816,13.896 L46.329,16.477 Z M46.608,16.925 C46.588,16.925 46.57,16.918 46.556,16.904 L46.17,16.533 C46.141,16.504 46.14,16.457 46.169,16.427 L48.76,13.738 C48.774,13.724 48.793,13.715 48.813,13.715 C48.833,13.716 48.852,13.722 48.867,13.736 L49.252,14.108 C49.282,14.137 49.282,14.184 49.254,14.214 L46.662,16.902 C46.648,16.917 46.628,16.92 46.608,16.925 Z" id="Fill-59"></path>
            <polyline id="Fill-60" points="45.015 15.311 44.437 14.907 44.109 11.195 42.473 13.532 42.022 13.216 44.163 10.158 44.606 10.467 44.888 13.799 46.361 11.696 46.8 12.003 44.96 14.631 45.015 15.311"></polyline>
            <path d="M44.509,14.865 L44.928,15.158 L44.885,14.637 C44.884,14.62 44.889,14.603 44.898,14.588 L46.695,12.022 L46.379,11.8 L44.95,13.842 C44.932,13.868 44.899,13.88 44.869,13.872 C44.838,13.864 44.816,13.837 44.813,13.806 L44.534,10.509 L44.182,10.262 L42.127,13.198 L42.455,13.427 L44.047,11.152 C44.065,11.126 44.095,11.114 44.128,11.122 C44.159,11.131 44.181,11.157 44.184,11.188 L44.509,14.865 Z M45.019,15.386 C45.015,15.386 45.016,15.386 45.015,15.386 C45,15.386 44.985,15.382 44.972,15.373 L44.394,14.968 C44.376,14.956 44.364,14.936 44.362,14.913 L44.052,11.407 L42.535,13.575 C42.51,13.609 42.463,13.616 42.43,13.593 L41.979,13.278 C41.963,13.267 41.952,13.249 41.948,13.229 C41.945,13.21 41.949,13.19 41.96,13.174 L44.102,10.115 C44.126,10.08 44.172,10.073 44.206,10.096 L44.649,10.406 C44.667,10.419 44.679,10.439 44.681,10.461 L44.945,13.587 L46.299,11.653 C46.311,11.637 46.328,11.626 46.348,11.622 C46.369,11.619 46.388,11.623 46.404,11.635 L46.843,11.942 C46.877,11.966 46.885,12.012 46.861,12.046 L45.037,14.652 L45.088,15.282 C45.092,15.291 45.094,15.301 45.094,15.311 C45.094,15.353 45.061,15.386 45.019,15.386 Z" id="Fill-61"></path>
        </g>
    </g>
</svg>