<svg xmlns="http://www.w3.org/2000/svg" viewBox="0 0 84 83"><g fill="#000" fill-rule="evenodd"><path d="M6.1 30.711l-.529 2.05 1.612.415.524-2.03a.533.533 0 000-.269.764.764 0 00-.12-.249.854.854 0 00-.219-.207 1.004 1.004 0 00-.622-.163.815.815 0 00-.288.073.765.765 0 00-.224.157.567.567 0 00-.134.223zM4.605 30a.735.735 0 00-.498.034.474.474 0 00-.286.318l-.473 1.836 1.306.337.473-1.836a.428.428 0 000-.219.6.6 0 00-.277-.365.796.796 0 00-.245-.105zm4.019 1.382l-.837 3.242-.917-.236.124-.477-3.835-.989-.123.477-.917-.236.786-3.048c.044-.171.127-.322.247-.455.121-.131.268-.236.44-.314.172-.077.362-.124.57-.14.208-.015.419.004.632.059a1.907 1.907 0 01.901.519c.196-.149.437-.242.724-.279a2.183 2.183 0 011.479.332c.189.127.347.274.472.442.126.167.211.346.256.536.047.19.045.379-.002.567zM10.972 25.417l-.756 1.593-.855-.406.214-.45-3.579-1.697-.213.451-.856-.406.753-1.587.855.406-.214.451 3.578 1.696.217-.456.856.405M9.554 19.468l-.415.558-1.324-.983 3.033-4.084 1.324.984-.414.557-.602-.368-.84 1.132 3.179 2.361.298-.401.759.564-1.047 1.41-.76-.564.298-.4-3.179-2.361-.836 1.125.526.47M16.468 10.74c-.199.169-.35.363-.455.582a1.73 1.73 0 00-.168.691c-.009.241.034.488.127.74.092.253.235.493.429.722.194.229.407.41.641.542.234.133.471.215.71.246a1.73 1.73 0 001.358-.405c.264-.224.446-.476.547-.758.1-.282.124-.576.069-.881l.842.124c.055.436.009.849-.138 1.239a2.421 2.421 0 01-1.588 1.469 2.5 2.5 0 01-1.021.08 2.936 2.936 0 01-1.049-.348 3.373 3.373 0 01-.964-.805 3.458 3.458 0 01-.649-1.099 2.845 2.845 0 01-.169-1.088c.019-.35.103-.678.254-.986a2.41 2.41 0 01.613-.787c.212-.18.411-.319.598-.419.186-.099.36-.172.522-.22.161-.047.309-.075.443-.081.135-.008.257-.012.365-.015l.658.777-.53.448-.289-.291a2.13 2.13 0 00-.274.029 1.186 1.186 0 00-.266.081 1.793 1.793 0 00-.285.158 4.12 4.12 0 00-.331.255M23.744 5.93a1.725 1.725 0 00-.898 1.097 1.959 1.959 0 00-.046.75c.033.267.117.534.253.801.136.266.303.492.501.674.197.183.409.316.635.402.226.085.46.123.702.111.243-.012.48-.078.712-.197.248-.126.448-.285.602-.475.153-.19.26-.401.318-.633.06-.231.071-.478.033-.743a2.564 2.564 0 00-.262-.796 2.533 2.533 0 00-.492-.678 1.879 1.879 0 00-.621-.41 1.653 1.653 0 00-.699-.111c-.245.012-.49.082-.738.208zm-1.383 3.001a3.457 3.457 0 01-.381-1.217 2.827 2.827 0 01.085-1.098c.098-.336.255-.637.472-.902a2.481 2.481 0 011.761-.9c.342-.021.676.028 1.002.148.326.12.635.313.928.58.293.267.545.609.758 1.026.206.402.331.799.375 1.19.043.391.019.756-.072 1.096a2.5 2.5 0 01-.459.912 2.417 2.417 0 01-1.76.904 2.527 2.527 0 01-1.013-.156 2.956 2.956 0 01-.941-.578 3.374 3.374 0 01-.755-1.005zM33.13 7.649l-1.697.478-.257-.911.481-.135-1.074-3.812-.481.135-.257-.911 1.691-.476.257.911-.481.135 1.074 3.812.487-.137.257.911M38.053 6.775l-1.744.141-.077-.943.491-.04-.32-3.947-.49.04-.077-.944 1.895-.153 2.11 4.751.183-.015-.32-3.946-.498.04-.076-.944 1.751-.142.077.944-.499.04.321 3.947.497-.04.076.943-1.895.154-2.11-4.752-.189.015.32 3.948.498-.04.076.943M57.584 4.92l-.472-.162-1.29 3.744.472.162-.309.895-1.66-.572.308-.895.472.163 1.29-3.745-.257-.088-2.68 4.266-1.237-.426.524-5.009-.263-.091-1.291 3.744.473.162-.309.895-1.655-.569.309-.896.466.161 1.29-3.744-.466-.16.308-.895 1.984.683-.523 5.009.161.056 2.68-4.266 1.983.684-.308.894M60.297 12.098l-1.503-.921.494-.807.425.261 2.069-3.377-.426-.261.495-.807 1.498.918-.495.807-.425-.261-2.069 3.377.431.264-.494.807M64.271 15.113l-1.288-1.185.641-.696.362.333 2.681-2.915-.363-.333.641-.697 1.4 1.287-2.056 4.776.134.124 2.681-2.915-.367-.338.64-.697 1.293 1.19-.641.696-.366-.338-2.681 2.915.367.337-.642.698-1.399-1.288 2.057-4.775-.14-.129-2.681 2.915.368.339-.641.696M69.819 21.31l-1.046-1.419.762-.562.296.402 3.188-2.349-.296-.402.762-.562 1.042 1.414-.762.562-.296-.402-3.187 2.349.299.407-.762.562M72.368 25.604l-.745-1.583.856-.404.21.446 3.582-1.687-.209-.445.857-.404.809 1.721-3.707 3.645.078.166 3.583-1.687-.213-.451.857-.403.748 1.589-.856.403-.213-.452-3.583 1.687.213.452-.857.403-.81-1.721 3.707-3.645-.081-.171-3.583 1.686.213.452-.856.403M80.134 33.074a1.733 1.733 0 00-.821-1.154 1.962 1.962 0 00-.712-.242 2.371 2.371 0 00-.839.034 2.34 2.34 0 00-.783.305 1.955 1.955 0 00-.555.507 1.737 1.737 0 00-.29 1.387c.056.268.153.499.29.694.138.196.308.353.511.474l.934-.195-.394-1.886.926-.194.549 2.629-2.161.452a2.407 2.407 0 01-1.038-.687 2.338 2.338 0 01-.543-1.094 2.381 2.381 0 01.004-.998c.073-.336.211-.648.417-.936.206-.288.475-.54.806-.756.33-.216.72-.37 1.168-.463a3.47 3.47 0 011.275-.048c.393.065.738.188 1.037.371a2.498 2.498 0 011.146 1.607c.057.272.084.514.083.725-.002.211-.021.4-.056.564a1.946 1.946 0 01-.14.429c-.057.122-.112.231-.161.328l-.997.208-.141-.681.395-.115c.041-.085.076-.17.104-.254.028-.083.047-.174.056-.272a1.888 1.888 0 00-.004-.326 3.979 3.979 0 00-.066-.413M10.443 59.353a1.748 1.748 0 00-.492-.551 1.73 1.73 0 00-.651-.287 1.95 1.95 0 00-.751-.007 2.393 2.393 0 00-.786.295c-.26.151-.475.329-.647.536a1.928 1.928 0 00-.368.655c-.074.23-.098.466-.074.707.025.242.102.476.233.701.174.299.39.523.65.672.259.149.544.224.855.224l-.271.808a2.567 2.567 0 01-1.196-.356 2.408 2.408 0 01-.857-.873 2.38 2.38 0 01-.309-.95 2.53 2.53 0 01.102-1.019c.106-.338.281-.662.528-.97a3.38 3.38 0 01.964-.807 3.467 3.467 0 011.196-.445c.392-.062.76-.053 1.1.027a2.492 2.492 0 011.593 1.166c.139.24.241.461.306.662s.106.385.124.553c.018.167.019.317.002.451a9.474 9.474 0 01-.05.362l-.88.51-.349-.601.339-.233c.012-.095.018-.186.019-.274.001-.088-.01-.18-.032-.277a2.018 2.018 0 00-.106-.308 3.957 3.957 0 00-.192-.371M15.209 65.708a1.728 1.728 0 00-1.302-.56 1.954 1.954 0 00-.734.163 2.37 2.37 0 00-.699.465 2.388 2.388 0 00-.51.667c-.121.24-.191.481-.211.722a1.723 1.723 0 00.474 1.336c.19.203.398.351.623.446.225.095.457.139.695.132a1.9 1.9 0 00.724-.175c.243-.11.474-.267.693-.472.218-.205.391-.425.516-.66a1.88 1.88 0 00.221-.71 1.641 1.641 0 00-.086-.703 1.804 1.804 0 00-.404-.651zm-3.267-.499c.342-.32.697-.555 1.065-.704a2.85 2.85 0 011.079-.222c.35.001.682.069.997.205a2.488 2.488 0 011.352 1.444c.115.322.159.656.135 1.003a2.853 2.853 0 01-.301 1.052A3.6 3.6 0 0115.493 69c-.33.309-.677.539-1.041.689-.364.15-.721.228-1.073.233a2.485 2.485 0 01-1.004-.189 2.402 2.402 0 01-.839-.585 2.366 2.366 0 01-.515-.856 2.497 2.497 0 01-.131-1.016c.027-.353.124-.708.296-1.064.17-.356.422-.691.756-1.003zM18.485 75.023l-1.465-.959.518-.792.413.27 2.168-3.314-.413-.27.519-.792 1.591 1.041-1.248 5.048.154.1 2.167-3.314-.417-.273.518-.792 1.47.961-.518.793-.417-.274-2.169 3.314.418.274-.519.792-1.591-1.042 1.248-5.046-.159-.104-2.168 3.313.418.274-.518.792M27.133 79.512l-1.646-.594.321-.89.464.168 1.344-3.726-.463-.167.321-.89 4.428 1.598-.56 1.551-.653-.236.179-.682-2.538-.916-.458 1.269 2.11.761-.321.891-2.111-.762-.565 1.566.47.169-.322.89M39.242 77.929l-.69-.085.024-.705-2.364-.293-.167 1.338 1.976.246-.117.939-1.975-.245-.205 1.652 2.427.301.149-.689.69.085-.203 1.637-4.421-.549.117-.939.489.06.487-3.929-.489-.061.116-.94 4.359.541-.203 1.636M46.982 78.039a1.378 1.378 0 00-.119-.436 1.19 1.19 0 00-.233-.34.918.918 0 00-.318-.213.76.76 0 00-.367-.053l-1.685.177.241 2.284 1.722-.181a.694.694 0 00.332-.127.926.926 0 00.255-.276c.067-.113.118-.241.149-.385.032-.143.039-.294.023-.45zm-1.711 3.963l-1.742.183-.098-.941.489-.052-.414-3.938-.489.052-.1-.942 2.973-.313c.214-.021.423.01.629.097.207.086.397.218.572.396.18.182.326.393.435.632.111.24.181.501.21.784.03.281.015.553-.042.813-.057.26-.155.497-.293.712-.19.296-.421.505-.696.629l.138.295c.153.317.337.464.555.441a.524.524 0 00.296-.122c.079-.069.156-.16.228-.274l.543.633a2.07 2.07 0 01-.418.492c-.144.118-.328.19-.549.213a1.045 1.045 0 01-.792-.219c-.222-.177-.417-.439-.585-.787l-.252-.52-1.269.133.075.714.496-.052.1.941zM55.846 75.204l-.657.227-.289-.642-2.252.779.442 1.275 1.88-.651.31.894-1.881.651.544 1.573 2.311-.8-.169-.684.657-.227.539 1.558-4.21 1.457-.31-.895.466-.161-1.296-3.742-.465.161-.31-.894 4.151-1.437.539 1.558M63.029 76.204l-1.479.937-.506-.801.416-.263-2.117-3.346-.417.264-.507-.801 1.608-1.017 4.076 3.227.155-.098-2.118-3.346-.421.267-.507-.8 1.485-.939.506.8-.422.266 2.118 3.347.422-.267.506.8-1.607 1.017-4.076-3.227-.161.101 2.118 3.346.422-.266.506.799M67.614 66.261a1.75 1.75 0 00-.403.62 1.739 1.739 0 00-.108.703c.012.241.076.483.189.726.114.244.277.471.491.682a2.4 2.4 0 00.685.486c.244.112.488.173.729.184a1.717 1.717 0 001.317-.522c.244-.245.404-.512.48-.801a1.69 1.69 0 00-.007-.884l.85.051c.092.43.082.845-.031 1.246a2.4 2.4 0 01-.62 1.055c-.237.24-.516.421-.836.546-.319.125-.657.18-1.011.167a2.946 2.946 0 01-1.074-.255 3.411 3.411 0 01-1.03-.721 3.455 3.455 0 01-.742-1.039 2.849 2.849 0 01-.261-1.069 2.507 2.507 0 01.168-1.004c.124-.319.305-.598.542-.837.197-.198.383-.354.56-.469.177-.115.344-.203.501-.263.157-.062.302-.101.435-.12.134-.019.255-.034.362-.046l.723.717-.49.493-.313-.267a2.61 2.61 0 00-.269.054 1.186 1.186 0 00-.26.104 1.773 1.773 0 00-.269.182 3.934 3.934 0 00-.308.281M74.226 58.693l-.369.589-.628-.318-1.262 2.021 1.144.714 1.054-1.688.803.501-1.054 1.689 1.412.881 1.296-2.074-.563-.425.368-.59 1.399.873-2.36 3.779-.803-.501.261-.419-3.359-2.097-.261.418-.803-.502 2.327-3.725 1.398.874M37.478 29.325c.016.027.03.053.052.076.067.07.161.103.258.103a.452.452 0 00.306-.118.375.375 0 00.026-.53c-.023-.026-.059-.023-.087-.041.353-.288.74-.534 1.15-.744.007.033-.004.062.01.093.06.135.211.206.361.206a.445.445 0 00.177-.036.377.377 0 00.197-.493c-.012-.027-.032-.047-.049-.07a6.297 6.297 0 011.295-.324c-.003.029-.008.058-.006.089.018.194.223.336.418.336h.037a.376.376 0 00.345-.403c-.002-.031-.015-.058-.024-.086.042-.001.083-.006.125-.006.413 0 .816.043 1.207.118-.012.027-.027.054-.035.085-.049.201.119.415.32.464a.376.376 0 00.459-.267c.008-.032.004-.062.005-.093.429.139.837.323 1.222.544-.02.021-.042.04-.059.067-.112.174-.022.431.152.544a.38.38 0 00.52-.104c.017-.025.023-.053.033-.08.357.268.685.569.98.905-.025.013-.052.024-.076.042-.162.13-.16.402-.032.564a.377.377 0 00.526.069c.025-.02.042-.045.061-.069.254.37.469.77.643 1.192-.035.004-.065-.01-.099.003-.195.07-.28.329-.21.524a.377.377 0 00.477.233c.027-.01.049-.028.073-.043.117.42.19.857.218 1.308-.028-.005-.054-.013-.083-.013-.204 0-.371.2-.375.404l-.001.101c-.001.027.009.05.014.076a.37.37 0 00.355.305h.006c.028 0 .054-.011.081-.017-.005.067-.004.135-.011.201-.013.126-.037.248-.057.372a6.043 6.043 0 01-.154.702c-.024-.016-.046-.034-.076-.045a.376.376 0 00-.476.233l.337.172-.369-.078c-.068.195.043.386.238.455.03.01.059.012.089.014a6.4 6.4 0 01-.637 1.153c-.018-.023-.033-.048-.057-.066a.375.375 0 00-.527.062l-.06.076a.377.377 0 00.06.528c.024.018.056.015.082.028-.3.335-.634.637-.998.903-.011-.026-.02-.054-.037-.08-.113-.173-.385-.195-.558-.082a.376.376 0 00-.115.518c.017.027.044.042.066.062-.393.221-.81.403-1.249.536-.001-.034.016-.062.007-.098-.052-.201-.299-.31-.502-.259a.376.376 0 00-.278.452c.008.031.036.05.051.077a6.334 6.334 0 01-1.151.109c-.057 0-.112-.007-.169-.009.011-.03.039-.05.041-.084a.374.374 0 00-.344-.403l-.095-.009a.374.374 0 00-.407.339c-.003.031.005.057.009.086a6.43 6.43 0 01-1.259-.326c.017-.024.044-.039.056-.067a.375.375 0 00-.193-.494l-.087-.038a.375.375 0 00-.496.187c-.013.027-.015.057-.02.086a6.504 6.504 0 01-1.116-.739c.026-.018.053-.034.075-.058.14-.153.095-.422-.058-.562a.376.376 0 00-.53.015c-.024.025-.019.06-.034.088a6.398 6.398 0 01-.805-1.039c.027-.008.056-.007.082-.022a.373.373 0 00.151-.507l-.046-.087a.376.376 0 00-.508-.153c-.025.015-.044.036-.065.055a6.4 6.4 0 01-.428-1.264c.003 0 .005.003.008.003a.58.58 0 00.082-.007c.202-.034.333-.27.301-.473v-.004a.372.372 0 00-.303-.309.389.389 0 00-.123-.007c-.034.005-.062.021-.091.034-.012-.117-.013-.238-.018-.358-.004-.092-.014-.182-.014-.277 0-.238.015-.474.041-.706.028.011.056.023.088.029a.277.277 0 00.049.004c.186 0 .359-.171.39-.359a.374.374 0 00-.303-.435c-.031-.006-.06 0-.09.002.104-.44.253-.862.442-1.261.023.018.043.038.071.052a.313.313 0 00.15.036c.15 0 .307-.094.379-.231a.374.374 0 00-.145-.509c-.026-.015-.054-.019-.083-.027.24-.379.514-.731.824-1.051zm-2.511 5.29c.015.125.036.249.057.372.577 3.371 3.512 5.947 7.045 5.947 3.534 0 6.47-2.576 7.045-5.947.022-.123.043-.247.057-.372.015-.125.022-.252.03-.379.01-.151.023-.3.023-.455 0-3.944-3.209-7.154-7.155-7.154-3.945 0-7.154 3.21-7.154 7.154 0 .155.013.305.022.455.009.128.016.254.03.379z"/><path d="M42.069 28.911c2.655 0 4.813 2.138 4.862 4.782.001.03.009.058.009.088 0 .1-.023.193-.03.292-.007.127-.02.252-.038.376-.329 2.367-2.346 4.201-4.803 4.201s-4.473-1.834-4.802-4.201a4.646 4.646 0 01-.038-.376c-.006-.099-.03-.192-.03-.292 0-.03.009-.058.009-.088.049-2.644 2.206-4.782 4.861-4.782zm-5.615 4.963a5.12 5.12 0 00.066.755c.411 2.696 2.739 4.771 5.549 4.771 2.811 0 5.139-2.075 5.55-4.771a5.73 5.73 0 00.067-.757c0-.03.004-.06.004-.091a5.627 5.627 0 00-5.621-5.62 5.626 5.626 0 00-5.62 5.62c0 .031.004.062.005.093zM30.595 49.671h3.525a1.264 1.264 0 010 2.526h-.885l-.005-.002-.004.002h-1.795l-.005-.002-.005.002h-.826v-2.526zm.831-3.274h1.915c.265 0 .498.1.702.242.168.116.308.262.403.445.091.174.156.364.156.575 0 .133-.038.253-.076.374a1.248 1.248 0 01-1.186.887h-2.745v-2.523h.831zm3.365 2.648c.263-.275.449-.622.523-1.012.023-.122.038-.247.038-.374 0-.129-.015-.254-.038-.376a2.012 2.012 0 00-.543-1.037 2.045 2.045 0 00-.781-.482 1.91 1.91 0 00-.385-.09v-1.379a.375.375 0 00-.75 0v1.352h-1.054v-1.352a.376.376 0 00-.75 0v1.352h-1.843a.375.375 0 000 .75h.637v2.66a.365.365 0 00-.092.238c0 .092.037.174.092.238v2.664h-.637a.375.375 0 000 .75h1.843v1.351a.375.375 0 00.75 0v-1.351h1.054v1.351a.375.375 0 00.75 0v-1.351h.515c1.11 0 2.012-.903 2.012-2.013a2.01 2.01 0 00-1.341-1.889zM51.656 55.049a5.758 5.758 0 01-5.753-5.752 5.728 5.728 0 01.37-2.014 5.783 5.783 0 011.826-2.5 5.744 5.744 0 011.438-.831c.127-.05.254-.1.385-.14.125-.04.253-.071.382-.102a5.734 5.734 0 011.352-.167 5.725 5.725 0 013.988 1.616 5.726 5.726 0 011.766 4.138 5.76 5.76 0 01-5.754 5.752zm5.295-9.516c-.091-.127-.182-.255-.282-.374a6.703 6.703 0 00-.34-.376 6.482 6.482 0 00-5.978-1.859c-.129.027-.255.064-.382.098a6.518 6.518 0 00-2.986 1.761 7.116 7.116 0 00-.34.376c-.099.119-.19.247-.281.374a6.465 6.465 0 00-.886 1.75c-.04.124-.073.249-.106.376-.033.124-.067.248-.092.374a6.51 6.51 0 006.378 7.766 6.51 6.51 0 006.504-6.502c0-1.404-.451-2.7-1.209-3.764z"/><path d="M32.482 55.049a5.76 5.76 0 01-5.754-5.752 5.73 5.73 0 011.766-4.138 5.723 5.723 0 013.988-1.616c.478 0 .94.065 1.384.175.129.032.257.065.383.105a5.725 5.725 0 012.576 1.71 5.743 5.743 0 011.04 1.75 5.378 5.378 0 01.227.75c.092.408.144.829.144 1.264a5.76 5.76 0 01-5.754 5.752zm6.378-7.016c-.025-.126-.059-.25-.091-.374a6.738 6.738 0 00-.106-.376 6.494 6.494 0 00-.886-1.75c-.091-.127-.182-.255-.281-.374a6.722 6.722 0 00-.341-.376 6.514 6.514 0 00-2.954-1.752 6.297 6.297 0 00-.382-.099 6.48 6.48 0 00-6.01 1.851 6.722 6.722 0 00-.341.376c-.099.119-.19.247-.281.374a6.463 6.463 0 00-1.209 3.764 6.51 6.51 0 006.504 6.502 6.51 6.51 0 006.504-6.502c0-.432-.045-.854-.126-1.264zM49.768 49.671h3.525a1.264 1.264 0 010 2.526h-.884l-.005-.002-.005.002h-1.794l-.005-.002-.005.002h-.827v-2.526zm0-1.653v-1.621h2.747c.695 0 1.261.566 1.261 1.262 0 .695-.566 1.261-1.262 1.261h-2.746v-.902zm4.197 1.027c.346-.362.561-.848.561-1.386a2.007 2.007 0 00-1.747-1.985v-1.379a.376.376 0 00-.75 0v1.352h-1.054v-1.352a.376.376 0 00-.375-.375.372.372 0 00-.321.193.369.369 0 00-.054.182v1.352h-1.843a.375.375 0 000 .75h.636v2.661a.37.37 0 00-.091.237c0 .092.037.172.091.237v2.665h-.637a.375.375 0 000 .75h1.844v1.351a.375.375 0 00.75 0v-1.351h1.054v1.351a.375.375 0 00.75 0v-1.351h.514a2.015 2.015 0 002.012-2.013 2.01 2.01 0 00-1.34-1.889zM39.716 33.259a.369.369 0 00-.1.241.36.36 0 00.1.29c.031.031.074.028.111.046.051.025.098.063.154.063a.377.377 0 00.265-.109l.071-.072 3.274-3.274a.374.374 0 000-.53.372.372 0 00-.53 0l-3.124 3.123-.221.222M40.826 34.453l-1.852 1.852a.377.377 0 00.265.641.374.374 0 00.265-.11l1.852-1.852a.375.375 0 00-.53-.531M45.099 34.787l-2.61 2.61a.375.375 0 00.531.53l2.609-2.608a.376.376 0 00-.53-.532M42.685 35.429a.371.371 0 00.53 0l1.497-1.498.622-.623.489-.487a.375.375 0 10-.53-.531l-.814.814-.311.31-.311.312-1.172 1.173a.374.374 0 000 .53M38.29 33.285a.374.374 0 00.265-.11L40.731 31a.375.375 0 00-.53-.531l-2.176 2.176a.374.374 0 00.265.64"/><path d="M19.846 50.199c-.186-.738-.101-1.323.261-1.789.406-.522 1.091-.808 1.734-.976V48a.374.374 0 00.45.367l.076-.014c-.005.072-.01.145-.012.217-.26.016-.532.058-.784.156a.376.376 0 10.273.699 1.83 1.83 0 01.523-.108 7.738 7.738 0 001.171 3.634l.172 2.511c-.14-.097-.319-.226-.562-.412l-.002-.001a27.158 27.158 0 00-.447-.334c-1.223-.905-2.107-1.56-2.853-4.516zm2.745-4.666v-1.161c.118-.024.236-.045.355-.068l.37-.07.372-.072.271-.051a8.465 8.465 0 00-.25.356c-.071.105-.143.21-.209.316-.044.073-.088.146-.131.221-.028.051-.053.103-.08.155-.068.124-.136.247-.197.374-.017.038-.037.073-.054.11a7.85 7.85 0 00-.447 1.288v-1.398zm21.293 1.75c-.032.125-.07.248-.096.376-.026.122-.04.249-.06.374-.06.377-.098.761-.104 1.153a4.904 4.904 0 00-3.108.009 8.108 8.108 0 00-.104-1.162c-.02-.125-.034-.252-.06-.374-.026-.128-.064-.251-.097-.376a8.143 8.143 0 00-.201-.661v-.081a4.18 4.18 0 014.062 0c-.089.242-.166.49-.232.742zm-11.401 9.301a7.213 7.213 0 01-1.87-.254c-3.114-.827-5.418-3.662-5.418-7.033a7.23 7.23 0 011.059-3.764c.077-.126.153-.253.237-.374.089-.129.184-.253.281-.376a7.275 7.275 0 015.711-2.774 7.2 7.2 0 011.668.201 9.7 9.7 0 01.382.097 7.313 7.313 0 013.942 2.852c.004.007.01.014.016.021.078.115.149.234.221.353a7.272 7.272 0 01.942 2.5l.025.164c.054.359.092.725.092 1.1 0 .218-.014.435-.033.65-.012.137-.033.27-.052.404-.045.31-.108.614-.192.91-.8 2.852-3.292 5.002-6.323 5.288a7.456 7.456 0 01-.688.035zm13.675-.683a6.043 6.043 0 01-3.311 1.592 5.672 5.672 0 01-.523.043c-.085.005-.169.015-.255.015-.074 0-.148-.009-.222-.013a5.927 5.927 0 01-.518-.038 6.037 6.037 0 01-.781-.159 5.93 5.93 0 01-2.135-1.069 6.511 6.511 0 01-.431-.369c-.079-.076-.151-.161-.227-.242-.053-.055-.107-.109-.159-.168a8.092 8.092 0 001.696-1.945l.761.255a.373.373 0 00.474-.237.375.375 0 00-.236-.475l-.625-.208a7.983 7.983 0 00.82-2.897 4.217 4.217 0 013.167-.011 7.957 7.957 0 00.821 2.908l-.625.208a.374.374 0 00.118.73c.04 0 .08-.005.119-.018l.762-.255a8.066 8.066 0 001.695 1.945c-.051.059-.106.113-.159.168-.075.08-.147.165-.226.24zM34.143 62.52c-4.191-.502-6.343-2.213-7.354-3.411.611.231 1.427.42 2.464.42 2.227-.002 4.775-.858 7.576-2.548.255-.154.578-.238.925-.288a6.668 6.668 0 003.694 1.573c.119.202.201.414.251.635a2.99 2.99 0 00-.037.63c.006.113.025.222.043.331-.014.058-.036.112-.055.168a2.14 2.14 0 01-.188.421 2.753 2.753 0 01-.33.451c-.995 1.116-2.979 1.765-4.497 1.765-.571 0-1.103-.026-1.616-.063-.148-.011-.303-.018-.446-.032-.149-.015-.287-.036-.43-.052zm10.014 1.907h-4.175a.375.375 0 00-.375.376c0 .939-.619 1.774-1.577 2.126-.494.181-1.094-.03-1.322-.458l-1.654-3.108c.503.033 1.027.054 1.581.054 1.913 0 4.456-.872 5.45-2.527.994 1.655 3.537 2.527 5.45 2.527.543 0 1.056-.021 1.55-.053l-1.599 3.005c-.259.485-.932.724-1.491.517-.889-.325-1.463-1.099-1.463-1.97v-.113a.375.375 0 00-.375-.376zm5.842-1.903c-.144.016-.283.036-.432.05-.143.014-.297.021-.445.031-.505.036-1.028.062-1.587.062-1.515 0-3.493-.646-4.49-1.757a2.824 2.824 0 01-.334-.451 2.216 2.216 0 01-.189-.423c-.02-.057-.043-.114-.058-.174a2.03 2.03 0 01-.053-.367 2.2 2.2 0 01.06-.594 2.14 2.14 0 01.252-.636 6.667 6.667 0 003.666-1.575c.357.048.69.133.952.291 2.801 1.69 5.35 2.548 7.575 2.548 1.038 0 1.854-.189 2.465-.42-1.014 1.201-3.174 2.918-7.382 3.415zm1.657-5.94c-.232 0-.461-.014-.688-.035-3.027-.285-5.515-2.43-6.32-5.276a7.32 7.32 0 01-.195-.931 6.917 6.917 0 01-.084-1.045c0-.432.045-.852.117-1.264l.005-.032a7.666 7.666 0 01.167-.718 7.216 7.216 0 01.77-1.75c.067-.111.133-.226.206-.334l.031-.04a7.294 7.294 0 014.734-3.033c.41-.072.828-.117 1.257-.117a7.275 7.275 0 015.991 3.15c.084.121.161.248.238.374a7.24 7.24 0 011.059 3.764c0 3.371-2.304 6.206-5.419 7.035a7.291 7.291 0 01-1.869.252zm7.646-12.365c.13.151.258.306.375.468.022.031.042.065.064.096.086.124.171.248.249.376.075.122.143.248.211.374.047.087.095.173.138.262.109.225.206.454.291.69.01.026.023.051.032.079.031.09.054.182.082.273a7.33 7.33 0 01.153.583c.024.115.04.233.059.35l.007.049c.02.128.039.258.051.39.011.127.016.256.021.384.003.082.013.163.013.246 0 .173-.015.342-.028.512a6.917 6.917 0 01-.275 1.485 7.017 7.017 0 01-.371.981c-.025.053-.056.104-.082.156a7.475 7.475 0 01-.427.735 7.97 7.97 0 01-2.944 2.647 8.01 8.01 0 002.773-6.058c0-.465-.048-.918-.125-1.361a7.283 7.283 0 00-.267-1.109 8.25 8.25 0 00-.375-.935c-.057-.12-.111-.241-.174-.359-.068-.128-.145-.25-.22-.374-.075-.127-.148-.254-.231-.376a8.045 8.045 0 00-5.678-3.46c.068-.001.134-.009.203-.009 2.421 0 4.594.969 6.1 2.498.13.132.255.266.375.407zm-36.212 4.62c0-.083.011-.164.014-.246a7 7 0 01.021-.384c.012-.132.031-.261.05-.39l.008-.048c.018-.118.035-.236.059-.351.014-.07.03-.137.047-.204a6.48 6.48 0 01.188-.651c.009-.028.022-.054.032-.08a6.85 6.85 0 01.291-.69c.043-.089.091-.175.138-.262.068-.126.135-.252.21-.374.08-.128.164-.252.249-.376.023-.031.042-.064.065-.096a7.994 7.994 0 01.75-.875c1.506-1.529 3.679-2.498 6.101-2.498.068 0 .134.008.202.009a8.047 8.047 0 00-5.679 3.46c-.082.122-.155.249-.231.376-.075.124-.151.246-.22.374-.062.118-.116.239-.173.359a7.894 7.894 0 00-.375.935 7.797 7.797 0 00-.268 1.109 8.028 8.028 0 00-.124 1.361 8.01 8.01 0 002.772 6.057 7.982 7.982 0 01-2.945-2.648 7.005 7.005 0 01-1.153-3.355c-.013-.17-.029-.339-.029-.512zm10.369-24.282a1.3 1.3 0 011.295-1.378h14.661c.356 0 .701.148.946.409.243.259.371.612.349.969l-.053.887-.025.406-.922 15.239c-1.983.681-3.636 1.986-4.674 3.66l-.026.034c-.082.122-.155.249-.231.376-.075.124-.152.246-.22.374-.056.106-.105.216-.156.324a4.78 4.78 0 00-.746-.324 5 5 0 00-3.144 0 4.657 4.657 0 00-.77.337c-.053-.113-.104-.226-.162-.337-.069-.128-.145-.25-.221-.374-.075-.127-.148-.254-.231-.376-.012-.018-.026-.034-.039-.051-1.032-1.658-2.668-2.951-4.631-3.632l-.922-15.25-.024-.406-.054-.887zm-12.32 19.724a.356.356 0 00.027-.122c.081-1.695.388-3.323.852-4.882l.573-.152.369-.098.37-.098 4.573-1.208a.374.374 0 10-.191-.725l-4.435 1.172-.369.097-.369.097-.266.07c.071-.204.152-.405.229-.608.086-.227.182-.448.276-.671a20.467 20.467 0 011.909-3.517l2.62.047h.007a.375.375 0 00.007-.75l-2.124-.038a20.77 20.77 0 012.725-2.997.368.368 0 00.311-.256l.001-.011a20.898 20.898 0 014.596-3.051l.864 14.289a9.654 9.654 0 00-2.381-.305c-2.584 0-4.91 1.019-6.548 2.636-.377.066-.752.143-1.128.213l-.371.072c-.124.022-.248.046-.371.07-.251.049-.503.091-.754.142a.376.376 0 00-.3.368v.718h-.702v-.502zm23.606 26.288h-5.351a9.475 9.475 0 01-5.915-2.063l-5.956-4.781c-1.677-1.344-2.722-3.322-2.867-5.424l-.29-4.233c1.485 1.675 3.667 2.802 6.134 3.007a7.955 7.955 0 001.983.258c1.67 0 3.223-.512 4.51-1.389.033.041.071.074.106.113-.237.073-.46.162-.658.282-2.682 1.618-5.1 2.439-7.188 2.439-2.279 0-3.335-1.017-3.344-1.025a.375.375 0 00-.618.393c.071.195 1.709 4.325 8.864 5.126l1.891 3.552c.304.569.914.923 1.594.923.222 0 .44-.038.649-.114 1.13-.415 1.9-1.356 2.044-2.456h3.461c.103 1.081.843 2.011 1.942 2.414.224.082.46.124.7.124.729 0 1.384-.38 1.711-.992l1.834-3.448c7.183-.792 8.827-4.934 8.898-5.129a.374.374 0 00-.616-.394c-.011.009-1.067 1.026-3.347 1.026-2.087 0-4.505-.821-7.187-2.439a2.918 2.918 0 00-.682-.29c.033-.036.067-.068.099-.105a7.98 7.98 0 004.51 1.389c.685 0 1.347-.095 1.983-.258 2.466-.205 4.648-1.332 6.133-3.006l-.29 4.232c-.144 2.101-1.188 4.078-2.866 5.424l-5.956 4.781a9.475 9.475 0 01-5.915 2.063zm19.548-20.37c-.746 2.956-1.63 3.611-2.854 4.516-.145.107-.295.217-.448.335-.24.184-.418.317-.564.423l.173-2.521a7.743 7.743 0 001.172-3.635c.179.013.36.045.524.109a.373.373 0 00.485-.213.376.376 0 00-.213-.487 2.62 2.62 0 00-.784-.156 7.89 7.89 0 00-.013-.217l.078.014a.365.365 0 00.312-.077.375.375 0 00.137-.29v-.567c.641.166 1.326.454 1.732.975.364.468.45 1.053.263 1.791zm-2.745-4.666v1.399a.333.333 0 00-.008-.03c-.035-.132-.069-.264-.11-.394a7.85 7.85 0 00-.329-.865c-.017-.037-.037-.072-.055-.11-.06-.127-.128-.25-.196-.374-.028-.052-.052-.104-.08-.155-.043-.075-.087-.148-.131-.221-.067-.106-.138-.211-.209-.316a7.354 7.354 0 00-.251-.356l.272.051.371.071.371.071c.119.023.237.043.355.068v1.161zm.094-7.772c.14.363.266.732.386 1.106l-.454-.13-.368-.104-.369-.105-4.468-1.268a.375.375 0 00-.205.721l4.621 1.312.368.105.369.105.764.216c.389 1.425.645 2.906.718 4.44a.333.333 0 00.026.113v.511h-.732v-.718a.376.376 0 00-.3-.368c-.25-.051-.502-.093-.754-.142l-.371-.07a40.645 40.645 0 00-.371-.071c-.376-.07-.751-.148-1.128-.214-1.638-1.617-3.963-2.636-6.547-2.636-.815 0-1.6.11-2.351.298l.864-14.282a20.938 20.938 0 014.645 3.094.374.374 0 00-.017.223.376.376 0 00.459.266l.099-.026a20.832 20.832 0 012.883 3.387l-2.577-.048a.365.365 0 00-.382.369.374.374 0 00.368.381l3.09.057a20.52 20.52 0 011.493 2.892c.081.195.164.389.241.586zm6.074-4.088l-5.171-.093-2.228-.04a21.394 21.394 0 00-2.96-3.622l6.027-1.591a.375.375 0 10-.191-.726l-6.476 1.711a21.664 21.664 0 00-5.329-3.534l.071-1.176a2.056 2.056 0 00-.552-1.528 2.052 2.052 0 00-1.492-.645H34.754a2.052 2.052 0 00-2.044 2.172l.071 1.177a21.663 21.663 0 00-5.082 3.322l-6.646-1.885a.374.374 0 10-.205.72l6.184 1.756a21.489 21.489 0 00-2.741 3.188l-7.855-.143h-.007a.376.376 0 00-.007.75l5.187.094 2.19.04a21.194 21.194 0 00-2.375 5.037l-.669.177a.375.375 0 10.192.724l.216-.056a21.381 21.381 0 00-.739 4.48.375.375 0 00-.035.158l.001 1.019c0 .207.168.374.375.374h1.076v1.123c-.814.188-1.755.56-2.324 1.292-.508.652-.642 1.471-.398 2.434.811 3.216 1.888 4.014 3.134 4.935l.439.329c.51.39.838.614 1.08.724l.136 1.982c.159 2.31 1.306 4.482 3.145 5.959l5.957 4.78a10.228 10.228 0 006.384 2.228h5.351c2.326 0 4.593-.791 6.384-2.228l5.956-4.78c1.841-1.478 2.987-3.65 3.145-5.959l.132-1.921c.232-.137.555-.379 1.085-.785l.439-.329c1.246-.921 2.323-1.719 3.135-4.935.242-.963.108-1.782-.399-2.434-.569-.732-1.51-1.104-2.324-1.292v-1.123h1.107a.375.375 0 00.375-.374V44.14a.35.35 0 00-.033-.146 21.402 21.402 0 00-.612-4.041c.017.002.035.008.053.008a.376.376 0 00.102-.737l-.404-.113a21.211 21.211 0 00-2.074-4.812l6.891.124h.007a.375.375 0 00.006-.75z"/><path d="M23.005 22.695l6.184 3.679a.377.377 0 00.515-.131.375.375 0 00-.131-.514l-6.184-3.678a.375.375 0 10-.384.644M37.927 19.414a.376.376 0 00.726-.192l-1.837-6.957a.373.373 0 00-.458-.265.374.374 0 00-.267.457l1.836 6.957M31.457 23.307a.372.372 0 00.53.005.376.376 0 00.005-.531l-7.627-7.768a.375.375 0 10-.535.525l7.627 7.769M34.446 20.936a.376.376 0 00.512.139.375.375 0 00.139-.511l-3.565-6.25a.375.375 0 00-.651.371l3.565 6.251M42.334 19.199h.007a.376.376 0 00.375-.369l.172-9.503a.374.374 0 00-.368-.381h-.007a.375.375 0 00-.375.368l-.172 9.503a.375.375 0 00.368.382M46.007 19.744a.376.376 0 00.464-.257l1.965-6.922a.376.376 0 10-.722-.204l-1.965 6.92c-.057.2.059.407.258.463M49.405 21.214a.374.374 0 00.514-.13l3.68-6.184a.376.376 0 00-.645-.385l-3.679 6.184a.377.377 0 00.13.515M52.338 23.497a.37.37 0 00.53.006l7.768-7.627a.376.376 0 00-.525-.536l-7.768 7.627a.375.375 0 00-.005.53M54.576 26.468a.374.374 0 00.511.14l6.25-3.565a.376.376 0 00-.372-.652l-6.25 3.565a.375.375 0 00-.139.512M83.292 47.951a4.6 4.6 0 00-.975-1.913l.241-.239a.375.375 0 10-.531-.531l-.24.241a4.6 4.6 0 00-1.913-.976.375.375 0 00-.174.73 3.865 3.865 0 011.557.775l-2.655 2.655-2.655-2.653c.445-.366.97-.638 1.555-.777a.375.375 0 00-.173-.73 4.59 4.59 0 00-1.913.976l-.24-.241a.375.375 0 10-.53.531l.24.239a4.625 4.625 0 00-.976 1.913.374.374 0 00.365.463c.17 0 .324-.116.365-.289.139-.585.412-1.11.777-1.555l2.655 2.653-1.366 1.366a.375.375 0 00.53.53l1.366-1.365 1.366 1.365a.37.37 0 00.265.11.374.374 0 00.265-.64l-1.366-1.366 2.655-2.654c.365.445.637.969.775 1.555a.374.374 0 00.452.279.375.375 0 00.278-.452M9.253 46.038l.24-.239a.375.375 0 10-.53-.531l-.24.241a4.607 4.607 0 00-1.913-.976.376.376 0 00-.174.73 3.839 3.839 0 011.556.777l-2.655 2.654-2.654-2.654c.444-.366.97-.638 1.555-.777a.375.375 0 00-.173-.73 4.583 4.583 0 00-1.913.976l-.241-.241a.374.374 0 00-.53 0 .377.377 0 000 .531l.24.239a4.619 4.619 0 00-.974 1.914.374.374 0 10.729.173c.139-.585.411-1.11.777-1.555l2.654 2.653-1.365 1.366a.374.374 0 00.265.64.37.37 0 00.265-.11l1.365-1.365 1.366 1.365a.37.37 0 00.265.11.374.374 0 00.265-.64l-1.366-1.366 2.655-2.653c.365.445.637.97.777 1.555a.374.374 0 00.451.278.375.375 0 00.278-.452 4.611 4.611 0 00-.975-1.913"/></g></svg>