<?xml version="1.0" encoding="UTF-8"?>
<svg width="88px" height="77px" viewBox="0 0 88 77" version="1.1" xmlns="http://www.w3.org/2000/svg" xmlns:xlink="http://www.w3.org/1999/xlink">
    <!-- Generator: Sketch 49 (51002) - http://www.bohemiancoding.com/sketch -->
    <title>bitcoin-grey-22</title>
    <desc>Created with Sketch.</desc>
    <defs></defs>
    <g id="Page-1" stroke="none" stroke-width="1" fill="none" fill-rule="evenodd">
        <g id="bitcoin-grey-22" fill="#000000">
            <path d="M11.21,44.784 L11.314,45.53 C10.265,45.244 9.373,44.784 8.559,44.222 L6.632,44.491 L6.542,43.846 L8.47,43.578 C9.099,42.815 9.831,42.129 10.763,41.567 L10.866,42.313 C10.215,42.659 9.567,43.206 9.081,43.821 C9.717,44.28 10.489,44.629 11.21,44.784" id="Fill-1"></path>
            <path d="M8.559,44.147 C8.574,44.147 8.589,44.152 8.602,44.16 C9.458,44.751 10.316,45.166 11.224,45.427 L11.143,44.846 C10.428,44.683 9.663,44.334 9.037,43.882 C9.021,43.87 9.01,43.852 9.007,43.831 C9.004,43.811 9.01,43.791 9.022,43.774 C9.501,43.169 10.141,42.624 10.785,42.272 L10.704,41.691 C9.902,42.19 9.189,42.824 8.527,43.625 C8.516,43.64 8.499,43.65 8.48,43.652 L6.627,43.91 L6.696,44.406 L8.549,44.148 C8.552,44.147 8.556,44.147 8.559,44.147 Z M11.314,45.604 C11.308,45.604 11.301,45.604 11.294,45.602 C10.338,45.341 9.437,44.916 8.541,44.3 L6.642,44.565 C6.624,44.568 6.603,44.563 6.586,44.551 C6.571,44.539 6.56,44.521 6.558,44.501 L6.468,43.856 C6.462,43.815 6.491,43.777 6.532,43.772 L8.431,43.507 C9.124,42.671 9.875,42.015 10.724,41.503 C10.745,41.49 10.771,41.489 10.795,41.5 C10.818,41.51 10.833,41.532 10.837,41.557 L10.94,42.303 C10.945,42.334 10.929,42.365 10.901,42.379 C10.282,42.709 9.662,43.226 9.19,43.806 C9.802,44.235 10.54,44.563 11.226,44.71 C11.256,44.717 11.28,44.742 11.284,44.773 L11.385,45.496 C11.39,45.507 11.393,45.518 11.393,45.53 C11.393,45.571 11.359,45.604 11.318,45.604 C11.316,45.604 11.315,45.604 11.314,45.604 Z" id="Fill-2"></path>
            <path d="M11.859,49.462 C11.55,48.51 10.629,47.999 9.667,48.313 C8.744,48.613 8.328,49.63 8.618,50.524 C8.917,51.441 9.875,51.971 10.804,51.669 C11.744,51.363 12.156,50.373 11.859,49.462 Z M7.992,50.721 C7.57,49.426 8.252,48.095 9.541,47.675 C10.801,47.265 12.092,48.036 12.492,49.262 C12.904,50.528 12.249,51.882 10.971,52.298 C9.71,52.709 8.396,51.959 7.992,50.721 Z" id="Fill-3"></path>
            <path d="M10.232,48.295 C10.053,48.295 9.87,48.325 9.69,48.384 C8.848,48.658 8.399,49.608 8.69,50.501 C8.919,51.205 9.556,51.679 10.273,51.679 C10.443,51.679 10.614,51.651 10.78,51.597 C11.207,51.458 11.543,51.161 11.727,50.761 C11.907,50.369 11.929,49.916 11.788,49.485 C11.553,48.762 10.942,48.295 10.232,48.295 Z M10.273,51.829 C9.491,51.829 8.797,51.314 8.547,50.547 C8.231,49.576 8.723,48.541 9.643,48.241 C9.839,48.178 10.037,48.145 10.232,48.145 C11.008,48.145 11.675,48.653 11.931,49.438 C12.083,49.906 12.059,50.397 11.863,50.823 C11.662,51.262 11.294,51.588 10.827,51.74 C10.646,51.799 10.459,51.829 10.273,51.829 Z M10.235,47.639 C10.009,47.639 9.783,47.675 9.565,47.747 C8.959,47.944 8.472,48.355 8.192,48.904 C7.912,49.454 7.866,50.091 8.064,50.698 C8.378,51.663 9.283,52.336 10.264,52.336 C10.495,52.336 10.725,52.3 10.947,52.227 C11.543,52.033 12.023,51.62 12.298,51.065 C12.571,50.514 12.615,49.882 12.42,49.285 C12.104,48.316 11.206,47.639 10.235,47.639 Z M10.264,52.486 C9.219,52.486 8.255,51.77 7.921,50.745 C7.711,50.1 7.76,49.422 8.058,48.836 C8.356,48.251 8.875,47.814 9.518,47.604 C9.752,47.528 9.993,47.489 10.235,47.489 C11.27,47.489 12.227,48.209 12.563,49.239 C12.77,49.873 12.723,50.545 12.432,51.132 C12.139,51.724 11.628,52.163 10.994,52.37 C10.756,52.447 10.511,52.486 10.264,52.486 Z" id="Fill-4"></path>
            <path d="M11.569,54.792 L13.966,53.449 L14.284,54.017 L11.888,55.36 C11.215,55.738 11.089,56.374 11.516,57.136 C11.943,57.898 12.553,58.123 13.225,57.746 L15.621,56.403 L15.939,56.97 L13.543,58.313 C12.523,58.884 11.565,58.566 10.943,57.457 C10.321,56.348 10.55,55.364 11.569,54.792" id="Fill-5"></path>
            <path d="M13.937,53.551 L11.606,54.858 C10.623,55.409 10.404,56.343 11.008,57.421 C11.41,58.138 11.951,58.517 12.572,58.517 C12.874,58.517 13.188,58.426 13.506,58.248 L15.837,56.941 L15.592,56.505 L13.261,57.811 C12.564,58.203 11.896,57.968 11.451,57.173 C11.003,56.373 11.148,55.689 11.851,55.295 L14.182,53.988 L13.937,53.551 Z M12.572,58.667 C11.894,58.667 11.308,58.261 10.877,57.494 C10.237,56.351 10.481,55.316 11.533,54.727 L13.929,53.384 C13.946,53.374 13.966,53.372 13.986,53.377 C14.005,53.382 14.021,53.395 14.031,53.412 L14.349,53.98 C14.369,54.016 14.356,54.062 14.32,54.082 L11.924,55.426 C11.296,55.778 11.174,56.373 11.582,57.099 C11.986,57.822 12.563,58.031 13.188,57.68 L15.584,56.337 C15.62,56.317 15.666,56.33 15.687,56.366 L16.004,56.933 C16.024,56.969 16.012,57.015 15.976,57.035 L13.58,58.379 C13.239,58.57 12.899,58.667 12.572,58.667 Z" id="Fill-6"></path>
            <path d="M16.06,60.789 C16.354,60.896 16.549,61.102 16.738,61.328 L17.287,61.984 C17.576,62.33 17.934,62.439 18.304,62.13 C18.664,61.829 18.572,61.465 18.298,61.138 L17.205,59.831 L16.06,60.789 Z M16.571,62.151 L16.235,61.749 C16.049,61.528 15.841,61.325 15.556,61.21 L14.264,62.292 L13.842,61.788 L17.287,58.907 L18.801,60.717 C19.327,61.345 19.344,62.108 18.693,62.652 C18.171,63.088 17.587,63.075 17.045,62.68 L16.719,63.407 C16.582,63.891 16.579,64.028 16.764,64.249 C16.779,64.268 16.791,64.282 16.807,64.301 L16.904,64.407 L16.392,64.836 C16.056,64.434 15.715,64.027 16.041,63.309 L16.571,62.151 Z" id="Fill-7"></path>
            <path d="M16.202,60.768 C16.457,60.892 16.635,61.087 16.796,61.28 L17.344,61.936 C17.509,62.132 17.689,62.236 17.864,62.236 C17.994,62.236 18.125,62.181 18.256,62.072 C18.382,61.966 18.452,61.848 18.463,61.721 C18.478,61.56 18.403,61.38 18.24,61.186 L17.195,59.937 L16.202,60.768 Z M17.864,62.386 C17.643,62.386 17.423,62.264 17.229,62.032 L16.681,61.376 C16.509,61.171 16.318,60.963 16.034,60.859 C16.009,60.85 15.99,60.828 15.986,60.802 C15.981,60.775 15.991,60.748 16.011,60.731 L17.156,59.774 C17.188,59.747 17.235,59.751 17.262,59.783 L18.355,61.09 C18.544,61.315 18.631,61.532 18.613,61.734 C18.598,61.903 18.51,62.055 18.352,62.187 C18.194,62.319 18.03,62.386 17.864,62.386 Z M15.556,61.135 C15.565,61.135 15.575,61.137 15.584,61.141 C15.902,61.269 16.121,61.496 16.293,61.701 L16.628,62.103 C16.647,62.125 16.651,62.156 16.639,62.182 L16.109,63.34 C15.818,63.983 16.088,64.354 16.401,64.731 L16.796,64.4 L16.706,64.296 C16.499,64.049 16.507,63.88 16.647,63.387 L16.977,62.65 C16.986,62.629 17.004,62.614 17.025,62.608 C17.047,62.602 17.07,62.606 17.089,62.62 C17.615,63.003 18.165,62.996 18.646,62.594 C18.94,62.348 19.102,62.043 19.113,61.713 C19.124,61.395 18.996,61.067 18.744,60.765 L17.278,59.013 L13.948,61.798 L14.273,62.186 L15.508,61.153 C15.522,61.141 15.539,61.135 15.556,61.135 Z M16.392,64.911 C16.389,64.911 16.387,64.911 16.385,64.911 C16.365,64.909 16.347,64.9 16.334,64.884 L16.392,64.836 L16.334,64.884 C16.003,64.488 15.628,64.039 15.972,63.278 L16.483,62.162 L16.177,61.797 C16.025,61.616 15.835,61.416 15.569,61.297 L14.312,62.349 C14.28,62.376 14.233,62.372 14.206,62.34 L13.785,61.836 C13.772,61.821 13.766,61.801 13.768,61.782 C13.77,61.762 13.779,61.744 13.794,61.731 L17.239,58.849 C17.271,58.823 17.318,58.827 17.345,58.859 L18.859,60.669 C19.135,60.999 19.275,61.362 19.263,61.718 C19.251,62.092 19.07,62.435 18.742,62.71 C18.231,63.135 17.637,63.163 17.076,62.794 L16.788,63.438 C16.657,63.901 16.662,64.01 16.822,64.201 L16.959,64.357 C16.974,64.372 16.981,64.392 16.979,64.412 C16.978,64.433 16.968,64.452 16.953,64.465 L16.44,64.894 C16.426,64.905 16.409,64.911 16.392,64.911 Z" id="Fill-8"></path>
            <path d="M22.883,67.309 C23.194,67.336 23.444,67.481 23.687,67.65 L24.317,68.09 C24.648,68.321 24.982,68.305 25.219,67.964 C25.463,67.614 25.32,67.338 24.999,67.114 L23.667,66.185 L22.883,67.309 Z M21.854,68.783 L23.239,69.751 C23.54,69.961 24.032,70.055 24.29,69.685 C24.59,69.256 24.291,68.886 23.935,68.638 L23.304,68.197 C23.067,68.032 22.806,67.893 22.501,67.856 L21.854,68.783 Z M22.81,70.25 L20.946,68.949 L23.514,65.27 L25.377,66.572 C25.999,67.006 26.211,67.689 25.761,68.335 C25.54,68.65 25.237,68.842 24.924,68.829 C25.098,69.127 25.129,69.618 24.774,70.125 C24.265,70.855 23.421,70.677 22.81,70.25 Z" id="Fill-9"></path>
            <path d="M23.015,67.252 C23.291,67.304 23.521,67.443 23.73,67.589 L24.36,68.029 C24.671,68.246 24.955,68.211 25.157,67.922 C25.26,67.774 25.29,67.641 25.25,67.515 C25.212,67.4 25.114,67.286 24.956,67.175 L23.686,66.289 L23.015,67.252 Z M24.745,68.32 C24.593,68.32 24.435,68.263 24.274,68.152 L23.644,67.712 C23.387,67.532 23.158,67.408 22.876,67.384 C22.85,67.382 22.826,67.365 22.815,67.341 C22.804,67.317 22.806,67.288 22.821,67.266 L23.606,66.142 C23.617,66.125 23.635,66.114 23.654,66.111 C23.675,66.107 23.694,66.112 23.71,66.123 L25.042,67.052 C25.229,67.184 25.344,67.32 25.392,67.469 C25.448,67.641 25.41,67.822 25.28,68.007 C25.138,68.212 24.953,68.32 24.745,68.32 Z M21.958,68.765 L23.282,69.689 C23.436,69.796 23.627,69.86 23.794,69.86 C23.981,69.86 24.127,69.787 24.229,69.642 C24.35,69.468 24.371,69.299 24.291,69.125 C24.224,68.98 24.09,68.837 23.893,68.699 L23.261,68.259 C23,68.077 22.769,67.974 22.536,67.937 L21.958,68.765 Z M23.794,70.01 C23.595,70.01 23.377,69.938 23.196,69.812 L21.811,68.845 C21.777,68.821 21.769,68.774 21.792,68.74 L22.44,67.813 C22.456,67.791 22.485,67.78 22.51,67.782 C22.869,67.825 23.16,68.005 23.347,68.136 L23.979,68.576 C24.198,68.729 24.349,68.892 24.427,69.062 C24.53,69.285 24.504,69.509 24.352,69.728 C24.223,69.912 24.03,70.01 23.794,70.01 Z M21.051,68.931 L22.853,70.189 C23.184,70.42 23.54,70.547 23.855,70.547 C24.209,70.547 24.498,70.391 24.713,70.082 C25.057,69.59 25.014,69.132 24.859,68.867 C24.845,68.843 24.845,68.813 24.86,68.79 C24.873,68.768 24.897,68.754 24.924,68.754 C24.925,68.754 24.926,68.754 24.927,68.754 L24.955,68.755 C25.222,68.755 25.494,68.586 25.699,68.292 C26.099,67.718 25.956,67.067 25.335,66.633 L23.532,65.375 L21.051,68.931 Z M23.855,70.697 C23.509,70.697 23.123,70.56 22.767,70.312 L20.903,69.011 C20.87,68.987 20.861,68.94 20.885,68.906 L23.452,65.227 C23.463,65.211 23.481,65.2 23.5,65.197 C23.521,65.192 23.541,65.197 23.557,65.209 L25.42,66.51 C26.117,66.996 26.274,67.729 25.822,68.378 C25.609,68.682 25.329,68.868 25.042,68.9 C25.173,69.212 25.178,69.679 24.836,70.168 C24.594,70.514 24.255,70.697 23.855,70.697 Z" id="Fill-10"></path>
            <polyline id="Fill-11" points="26.544 72.487 28.588 68.495 29.161 68.788 27.116 72.78 26.544 72.487"></polyline>
            <path d="M26.645,72.455 L27.083,72.679 L29.06,68.821 L28.621,68.596 L26.645,72.455 Z M27.116,72.855 C27.104,72.855 27.093,72.853 27.082,72.847 L26.51,72.554 C26.492,72.545 26.479,72.529 26.473,72.51 C26.466,72.491 26.468,72.471 26.477,72.453 L28.521,68.461 C28.53,68.443 28.546,68.43 28.565,68.424 C28.583,68.417 28.604,68.419 28.622,68.428 L29.195,68.722 C29.232,68.74 29.246,68.786 29.228,68.822 L27.183,72.814 C27.17,72.84 27.144,72.855 27.116,72.855 Z" id="Fill-12"></path>
            <polyline id="Fill-13" points="32.81 71.04 31.513 74.642 30.912 74.426 32.209 70.823 30.702 70.281 30.927 69.658 34.523 70.953 34.299 71.576 32.81 71.04"></polyline>
            <path d="M31.008,74.381 L31.468,74.546 L32.739,71.014 C32.746,70.996 32.76,70.98 32.778,70.972 C32.795,70.963 32.816,70.963 32.835,70.969 L34.254,71.48 L34.427,70.998 L30.972,69.754 L30.798,70.236 L32.234,70.752 C32.253,70.759 32.269,70.773 32.277,70.791 C32.285,70.809 32.286,70.829 32.28,70.848 L31.008,74.381 Z M31.513,74.717 C31.504,74.717 31.496,74.716 31.487,74.713 L30.887,74.496 C30.848,74.482 30.828,74.439 30.841,74.4 L32.113,70.868 L30.677,70.352 C30.658,70.345 30.643,70.331 30.634,70.313 C30.626,70.295 30.625,70.274 30.632,70.256 L30.856,69.633 C30.87,69.594 30.914,69.574 30.952,69.587 L34.549,70.882 C34.567,70.889 34.583,70.903 34.591,70.921 C34.6,70.939 34.601,70.96 34.594,70.978 L34.37,71.601 C34.355,71.64 34.312,71.66 34.273,71.646 L32.855,71.136 L31.583,74.668 C31.577,74.687 31.563,74.702 31.544,74.71 C31.535,74.715 31.523,74.717 31.513,74.717 Z" id="Fill-14"></path>
            <path d="M39.59,73.113 C39.33,72.724 38.898,72.438 38.395,72.347 C37.412,72.17 36.526,72.738 36.347,73.733 C36.175,74.687 36.872,75.534 37.796,75.701 C38.371,75.805 38.929,75.63 39.325,75.261 L39.625,75.872 C39.091,76.289 38.385,76.474 37.674,76.345 C36.335,76.104 35.487,74.875 35.727,73.542 C35.962,72.239 37.25,71.468 38.519,71.697 C39.182,71.817 39.738,72.192 40.092,72.702 L39.59,73.113" id="Fill-15"></path>
            <path d="M38.071,71.732 C36.946,71.732 35.991,72.499 35.8,73.555 C35.568,74.846 36.397,76.039 37.687,76.272 C38.338,76.388 39.013,76.231 39.53,75.849 L39.301,75.382 C38.886,75.727 38.331,75.873 37.783,75.775 C36.779,75.593 36.102,74.671 36.273,73.72 C36.433,72.835 37.143,72.24 38.041,72.24 C38.162,72.24 38.285,72.251 38.408,72.273 C38.894,72.361 39.325,72.626 39.605,73.004 L39.99,72.689 C39.633,72.204 39.108,71.879 38.505,71.771 C38.362,71.745 38.216,71.732 38.071,71.732 Z M38.121,76.461 C37.967,76.461 37.813,76.447 37.661,76.419 C36.288,76.172 35.406,74.902 35.653,73.528 C35.856,72.401 36.874,71.582 38.071,71.582 C38.226,71.582 38.38,71.596 38.532,71.623 C39.197,71.743 39.773,72.111 40.154,72.66 C40.176,72.692 40.17,72.735 40.14,72.76 L39.637,73.171 C39.621,73.185 39.598,73.189 39.579,73.187 C39.558,73.184 39.539,73.172 39.527,73.155 C39.273,72.774 38.855,72.507 38.381,72.421 C38.267,72.4 38.153,72.39 38.041,72.39 C37.218,72.39 36.567,72.935 36.42,73.747 C36.264,74.617 36.887,75.461 37.81,75.628 C38.344,75.723 38.887,75.566 39.274,75.206 C39.292,75.19 39.314,75.182 39.339,75.188 C39.362,75.192 39.382,75.207 39.393,75.229 L39.692,75.839 C39.708,75.871 39.699,75.909 39.671,75.931 C39.234,76.272 38.683,76.46 38.121,76.461 Z" id="Fill-16"></path>
            <path d="M44.468,72.819 C43.471,72.832 42.71,73.557 42.723,74.567 C42.735,75.534 43.58,76.233 44.517,76.221 C45.479,76.209 46.269,75.454 46.256,74.48 C46.244,73.494 45.424,72.807 44.468,72.819 Z M44.519,76.876 C43.161,76.893 42.096,75.848 42.079,74.497 C42.063,73.175 43.18,72.175 44.466,72.158 C45.794,72.142 46.889,73.168 46.906,74.508 C46.922,75.83 45.817,76.86 44.519,76.876 Z" id="Fill-17"></path>
            <path d="M44.493,72.895 L44.469,72.895 C44.002,72.901 43.576,73.071 43.27,73.373 C42.959,73.678 42.792,74.102 42.798,74.566 C42.809,75.437 43.57,76.146 44.494,76.146 L44.516,76.146 C44.966,76.14 45.386,75.967 45.699,75.658 C46.016,75.345 46.187,74.927 46.181,74.481 C46.169,73.576 45.444,72.895 44.493,72.895 Z M44.494,76.296 C43.488,76.296 42.66,75.521 42.648,74.568 C42.642,74.063 42.825,73.601 43.164,73.266 C43.498,72.936 43.961,72.751 44.467,72.745 L44.493,72.744 C45.512,72.744 46.319,73.506 46.331,74.479 C46.337,74.967 46.15,75.423 45.805,75.765 C45.464,76.101 45.007,76.29 44.518,76.296 L44.494,76.296 Z M44.497,72.233 L44.467,72.233 C43.176,72.249 42.139,73.265 42.154,74.496 C42.17,75.789 43.194,76.801 44.486,76.801 L44.518,76.801 C45.134,76.793 45.715,76.554 46.153,76.128 C46.598,75.696 46.838,75.12 46.831,74.509 C46.814,73.233 45.789,72.233 44.497,72.233 Z M44.486,76.951 C43.111,76.951 42.021,75.874 42.004,74.498 C41.988,73.184 43.091,72.101 44.465,72.083 L44.497,72.083 C45.872,72.083 46.963,73.148 46.981,74.507 C46.989,75.16 46.732,75.774 46.258,76.236 C45.792,76.689 45.175,76.943 44.52,76.951 L44.486,76.951 Z" id="Fill-18"></path>
            <polyline id="Fill-19" points="49.687 76.363 48.987 71.927 49.624 71.827 50.323 76.262 49.687 76.363"></polyline>
            <path d="M49.073,71.99 L49.75,76.277 L50.237,76.2 L49.561,71.913 L49.073,71.99 Z M49.687,76.437 C49.651,76.437 49.619,76.411 49.613,76.374 L48.913,71.939 C48.91,71.919 48.915,71.899 48.927,71.883 C48.938,71.867 48.956,71.856 48.976,71.854 L49.612,71.753 C49.655,71.746 49.691,71.775 49.698,71.816 L50.397,76.25 C50.4,76.27 50.396,76.29 50.384,76.306 C50.372,76.322 50.354,76.333 50.335,76.336 L49.699,76.437 C49.695,76.437 49.691,76.437 49.687,76.437 Z" id="Fill-20"></path>
            <polyline id="Fill-21" points="51.667 71.503 52.477 71.252 56.246 73.677 55.232 70.4 55.864 70.204 57.192 74.494 56.571 74.686 53.196 72.498 54.11 75.448 53.495 75.639 52.354 71.952 51.667 71.503"></polyline>
            <path d="M51.841,71.527 L52.395,71.889 C52.409,71.899 52.42,71.913 52.425,71.93 L53.544,75.545 L54.017,75.399 L53.125,72.52 C53.115,72.489 53.126,72.457 53.151,72.438 C53.177,72.419 53.21,72.417 53.237,72.435 L56.582,74.604 L57.099,74.444 L55.815,70.297 L55.326,70.449 L56.318,73.655 C56.327,73.686 56.316,73.718 56.292,73.737 C56.267,73.756 56.232,73.758 56.206,73.74 L52.466,71.334 L51.841,71.527 Z M53.495,75.714 C53.482,75.714 53.471,75.711 53.459,75.705 C53.442,75.696 53.429,75.68 53.423,75.661 L52.29,72 L51.625,71.566 C51.601,71.55 51.588,71.521 51.592,71.493 C51.596,71.464 51.617,71.44 51.645,71.432 L52.455,71.181 C52.475,71.173 52.499,71.177 52.518,71.189 L56.114,73.503 L55.16,70.422 C55.148,70.382 55.17,70.34 55.21,70.328 L55.842,70.132 C55.861,70.125 55.882,70.128 55.899,70.137 C55.917,70.146 55.93,70.162 55.936,70.181 L57.264,74.472 C57.276,74.511 57.254,74.553 57.214,74.565 L56.593,74.758 C56.573,74.765 56.549,74.761 56.53,74.749 L53.329,72.673 L54.182,75.426 C54.188,75.445 54.186,75.466 54.177,75.483 C54.168,75.501 54.151,75.514 54.132,75.52 L53.517,75.71 C53.51,75.713 53.502,75.714 53.495,75.714 Z" id="Fill-22"></path>
            <polyline id="Fill-23" points="65.225 64.906 66.55 69.425 65.961 69.822 63.759 68.109 64.546 70.779 63.958 71.176 60.185 68.309 60.744 67.932 63.609 70.047 62.826 67.382 62.239 66.922 62.797 66.544 65.613 68.694 64.651 65.293 65.225 64.906"></polyline>
            <path d="M60.314,68.312 L63.96,71.083 L64.459,70.747 L63.687,68.13 C63.678,68.099 63.69,68.065 63.717,68.047 C63.744,68.028 63.78,68.029 63.805,68.05 L65.964,69.73 L66.462,69.394 L65.182,65.025 L64.738,65.324 L65.685,68.673 C65.694,68.704 65.682,68.738 65.655,68.756 C65.628,68.774 65.592,68.772 65.567,68.753 L62.794,66.637 L62.366,66.926 L62.872,67.323 C62.884,67.333 62.893,67.346 62.897,67.361 L63.681,70.026 C63.69,70.057 63.679,70.09 63.652,70.108 C63.627,70.127 63.591,70.126 63.565,70.107 L60.742,68.024 L60.314,68.312 Z M63.958,71.251 C63.942,71.251 63.926,71.246 63.913,71.235 L60.14,68.369 C60.121,68.354 60.109,68.331 60.11,68.307 C60.111,68.282 60.123,68.26 60.143,68.246 L60.702,67.87 C60.728,67.852 60.763,67.853 60.788,67.871 L63.475,69.854 L62.761,67.426 L62.193,66.981 C62.174,66.966 62.164,66.943 62.165,66.919 C62.165,66.895 62.177,66.873 62.197,66.86 L62.755,66.482 C62.781,66.464 62.817,66.465 62.842,66.485 L65.479,68.497 L64.579,65.313 C64.57,65.282 64.583,65.249 64.609,65.23 L65.183,64.843 C65.204,64.83 65.229,64.827 65.251,64.835 C65.273,64.843 65.29,64.861 65.297,64.884 L66.622,69.404 C66.631,69.436 66.619,69.469 66.592,69.488 L66.003,69.885 C65.977,69.902 65.94,69.902 65.915,69.882 L63.897,68.311 L64.618,70.758 C64.627,70.789 64.615,70.823 64.588,70.841 L64,71.238 C63.987,71.246 63.973,71.251 63.958,71.251 Z" id="Fill-24"></path>
            <path d="M70.819,63.822 L68.777,63.207 L69.627,65.414 C69.642,65.201 69.814,64.858 70.242,64.418 L70.819,63.822 Z M67.404,62.679 L67.907,62.162 L72.686,63.79 L72.175,64.316 L71.499,64.072 L70.549,65.052 C69.979,65.638 69.859,66.133 69.922,66.336 L69.994,66.565 L69.499,67.074 L67.973,62.888 L67.404,62.679 Z" id="Fill-25"></path>
            <path d="M68.902,63.323 L69.613,65.167 C69.706,64.935 69.903,64.659 70.188,64.366 L70.679,63.859 L68.902,63.323 Z M69.627,65.489 C69.597,65.489 69.569,65.47 69.558,65.441 L68.707,63.234 C68.697,63.207 68.703,63.177 68.722,63.156 C68.742,63.135 68.773,63.127 68.799,63.135 L70.84,63.751 C70.866,63.758 70.885,63.778 70.892,63.804 C70.898,63.829 70.891,63.856 70.873,63.875 L70.295,64.47 C69.782,65 69.71,65.31 69.702,65.419 C69.7,65.454 69.673,65.483 69.639,65.489 C69.635,65.489 69.631,65.489 69.627,65.489 Z M67.539,62.649 L67.999,62.818 C68.02,62.825 68.036,62.842 68.044,62.862 L69.529,66.936 L69.909,66.545 L69.85,66.359 C69.77,66.096 69.937,65.574 70.495,64.999 L71.445,64.019 C71.466,63.998 71.498,63.992 71.524,64.001 L72.155,64.229 L72.549,63.822 L67.928,62.248 L67.539,62.649 Z M69.499,67.149 C69.494,67.149 69.489,67.149 69.484,67.148 C69.459,67.142 69.438,67.125 69.429,67.1 L67.915,62.946 L67.378,62.75 C67.354,62.741 67.337,62.721 67.331,62.696 C67.326,62.671 67.333,62.645 67.351,62.627 L67.854,62.11 C67.874,62.089 67.904,62.082 67.932,62.091 L72.71,63.719 C72.734,63.727 72.752,63.747 72.758,63.772 C72.765,63.797 72.757,63.823 72.739,63.842 L72.229,64.368 C72.208,64.39 72.178,64.397 72.149,64.387 L71.519,64.159 L70.603,65.104 C70.056,65.667 69.939,66.136 69.994,66.314 L70.065,66.542 C70.073,66.568 70.067,66.597 70.047,66.617 L69.553,67.127 C69.539,67.141 69.52,67.149 69.499,67.149 Z" id="Fill-26"></path>
            <polyline id="Fill-27" points="74.348 61.683 70.677 59.108 71.054 58.571 74.188 60.771 75.617 58.734 76.153 59.11 74.348 61.683"></polyline>
            <path d="M70.782,59.089 L74.33,61.579 L76.049,59.128 L75.636,58.838 L74.249,60.814 C74.238,60.83 74.221,60.841 74.201,60.845 C74.183,60.848 74.162,60.844 74.145,60.832 L71.072,58.676 L70.782,59.089 Z M74.348,61.758 C74.332,61.758 74.317,61.754 74.305,61.745 L70.634,59.169 C70.6,59.145 70.592,59.098 70.616,59.065 L70.992,58.528 C71.004,58.512 71.021,58.5 71.04,58.497 C71.06,58.494 71.081,58.498 71.097,58.51 L74.17,60.666 L75.556,58.691 C75.567,58.675 75.585,58.663 75.604,58.66 C75.623,58.657 75.644,58.661 75.66,58.673 L76.196,59.049 C76.23,59.072 76.238,59.119 76.215,59.153 L74.409,61.726 C74.397,61.743 74.38,61.754 74.361,61.757 C74.356,61.758 74.352,61.758 74.348,61.758 Z" id="Fill-28"></path>
            <polyline id="Fill-29" points="77.43 56.872 73.405 54.876 73.697 54.288 77.134 55.992 78.242 53.759 78.829 54.05 77.43 56.872"></polyline>
            <path d="M73.506,54.842 L77.396,56.771 L78.729,54.084 L78.275,53.86 L77.201,56.026 C77.182,56.063 77.136,56.078 77.101,56.059 L73.731,54.388 L73.506,54.842 Z M77.43,56.947 C77.419,56.947 77.407,56.944 77.396,56.939 L73.372,54.943 C73.354,54.934 73.34,54.918 73.334,54.9 C73.328,54.881 73.329,54.86 73.338,54.842 L73.63,54.254 C73.648,54.217 73.693,54.202 73.73,54.221 L77.1,55.892 L78.174,53.726 C78.183,53.708 78.199,53.694 78.218,53.688 C78.236,53.682 78.257,53.683 78.275,53.692 L78.862,53.983 C78.899,54.002 78.915,54.047 78.896,54.084 L77.497,56.905 C77.484,56.932 77.457,56.947 77.43,56.947 Z" id="Fill-30"></path>
            <path d="M79.336,50.8 L80.156,48.155 L80.783,48.349 L79.77,51.621 L75.479,50.292 L76.414,47.273 L77.046,47.469 L76.306,49.861 L77.605,50.264 C77.536,49.959 77.603,49.683 77.69,49.402 L77.98,48.464 L78.618,48.662 L78.328,49.599 C78.243,49.875 78.186,50.16 78.244,50.462 L79.336,50.8" id="Fill-31"></path>
            <path d="M75.573,50.243 L79.72,51.527 L80.689,48.398 L80.205,48.248 L79.408,50.822 C79.402,50.841 79.389,50.857 79.372,50.866 C79.354,50.875 79.332,50.878 79.314,50.872 L78.222,50.533 C78.195,50.525 78.176,50.503 78.17,50.476 C78.105,50.139 78.177,49.832 78.256,49.577 L78.524,48.711 L78.029,48.558 L77.762,49.424 C77.683,49.678 77.611,49.951 77.679,50.248 C77.685,50.274 77.676,50.301 77.656,50.319 C77.637,50.337 77.608,50.344 77.584,50.336 L76.284,49.933 C76.245,49.921 76.222,49.879 76.234,49.839 L76.953,47.519 L76.463,47.367 L75.573,50.243 Z M79.77,51.696 C79.762,51.696 79.754,51.695 79.748,51.692 L75.457,50.364 C75.438,50.358 75.422,50.345 75.413,50.327 C75.403,50.309 75.401,50.289 75.407,50.27 L76.342,47.251 C76.354,47.212 76.396,47.189 76.436,47.202 L77.068,47.397 C77.087,47.403 77.104,47.416 77.113,47.434 C77.122,47.452 77.124,47.472 77.118,47.491 L76.4,49.812 L77.511,50.156 C77.477,49.874 77.544,49.618 77.618,49.379 L77.908,48.442 C77.914,48.423 77.927,48.407 77.945,48.398 C77.963,48.389 77.984,48.386 78.002,48.393 L78.64,48.59 C78.68,48.602 78.702,48.644 78.69,48.684 L78.4,49.621 C78.33,49.847 78.266,50.115 78.31,50.403 L79.287,50.706 L80.084,48.132 C80.09,48.113 80.103,48.097 80.121,48.088 C80.139,48.079 80.16,48.077 80.178,48.083 L80.805,48.277 C80.844,48.29 80.867,48.332 80.854,48.371 L79.841,51.643 C79.835,51.662 79.822,51.678 79.805,51.687 C79.794,51.693 79.782,51.696 79.77,51.696 Z" id="Fill-32"></path>
            <polyline id="Fill-33" points="77.819 43.264 81.607 43.785 81.52 44.417 77.732 43.896 77.514 45.48 76.859 45.39 77.379 41.608 78.035 41.697 77.819 43.264"></polyline>
            <path d="M76.943,45.326 L77.45,45.395 L77.658,43.885 C77.66,43.866 77.671,43.848 77.687,43.836 C77.703,43.824 77.724,43.819 77.742,43.822 L81.456,44.332 L81.522,43.849 L77.809,43.338 C77.789,43.335 77.771,43.325 77.759,43.309 C77.747,43.293 77.742,43.273 77.745,43.254 L77.95,41.762 L77.443,41.692 L76.943,45.326 Z M77.514,45.555 C77.511,45.555 77.507,45.554 77.504,45.554 L76.849,45.464 C76.829,45.461 76.811,45.451 76.799,45.435 C76.787,45.419 76.782,45.399 76.785,45.38 L77.305,41.597 C77.31,41.556 77.349,41.528 77.39,41.533 L78.045,41.623 C78.064,41.626 78.082,41.636 78.094,41.652 C78.106,41.668 78.112,41.688 78.109,41.708 L77.903,43.2 L81.617,43.711 C81.637,43.714 81.655,43.724 81.667,43.74 C81.679,43.756 81.684,43.776 81.681,43.796 L81.594,44.427 C81.588,44.468 81.552,44.496 81.509,44.491 L77.796,43.98 L77.588,45.49 C77.584,45.528 77.551,45.555 77.514,45.555 Z" id="Fill-34"></path>
            <path d="M14.635,21.665 L14.284,22.211 L10.509,19.788 L10.86,19.241 L12.409,20.236 C12.43,20.035 12.512,19.852 12.616,19.69 C12.758,19.467 13.295,18.875 13.517,18.532 C13.617,18.375 13.715,18.166 13.748,17.959 L12.286,17.02 L12.64,16.468 L16.415,18.892 L16.06,19.443 L14.305,18.317 C14.272,18.524 14.174,18.732 14.073,18.889 C13.852,19.233 13.315,19.825 13.172,20.047 C13.068,20.209 12.986,20.392 12.965,20.592 L14.635,21.665" id="Fill-35"></path>
            <path d="M10.613,19.766 L14.262,22.107 L14.531,21.687 L12.924,20.656 C12.9,20.64 12.887,20.613 12.89,20.584 C12.911,20.395 12.984,20.201 13.109,20.007 C13.175,19.904 13.314,19.735 13.475,19.54 C13.669,19.304 13.889,19.036 14.01,18.848 C14.123,18.672 14.204,18.474 14.231,18.305 C14.235,18.28 14.252,18.258 14.274,18.248 C14.297,18.238 14.325,18.24 14.346,18.253 L16.038,19.34 L16.312,18.914 L12.662,16.572 L12.39,16.997 L13.789,17.895 C13.813,17.912 13.827,17.941 13.822,17.97 C13.781,18.229 13.652,18.459 13.58,18.572 C13.455,18.765 13.235,19.033 13.041,19.27 C12.886,19.457 12.741,19.634 12.679,19.73 C12.565,19.908 12.501,20.076 12.483,20.244 C12.481,20.27 12.464,20.292 12.441,20.303 C12.418,20.314 12.39,20.313 12.368,20.299 L10.882,19.345 L10.613,19.766 Z M14.284,22.286 C14.27,22.286 14.256,22.282 14.244,22.274 L10.469,19.852 C10.434,19.829 10.424,19.783 10.446,19.748 L10.797,19.201 C10.808,19.184 10.824,19.172 10.844,19.168 C10.862,19.163 10.884,19.167 10.9,19.178 L12.353,20.111 C12.386,19.959 12.452,19.807 12.553,19.649 C12.619,19.545 12.761,19.374 12.924,19.174 C13.116,18.941 13.334,18.677 13.454,18.491 C13.515,18.395 13.621,18.207 13.665,17.995 L12.246,17.083 C12.211,17.061 12.201,17.015 12.223,16.98 L12.577,16.428 C12.587,16.411 12.604,16.399 12.624,16.395 C12.643,16.39 12.663,16.395 12.68,16.405 L16.456,18.828 C16.472,18.839 16.484,18.856 16.488,18.876 C16.493,18.895 16.489,18.915 16.478,18.932 L16.124,19.484 C16.101,19.519 16.055,19.528 16.02,19.506 L14.356,18.438 C14.302,18.651 14.198,18.833 14.136,18.929 C14.011,19.125 13.788,19.396 13.591,19.635 C13.44,19.819 13.296,19.993 13.235,20.088 C13.133,20.246 13.069,20.403 13.045,20.555 L14.675,21.601 C14.71,21.624 14.72,21.67 14.698,21.705 L14.347,22.251 C14.333,22.273 14.309,22.286 14.284,22.286 Z" id="Fill-36"></path>
            <path d="M16.588,12.62 C15.896,13.34 15.88,14.391 16.608,15.09 C17.307,15.761 18.397,15.65 19.047,14.973 C19.714,14.279 19.729,13.186 19.027,12.511 C18.315,11.828 17.25,11.93 16.588,12.62 Z M19.516,15.431 C18.574,16.412 17.082,16.437 16.106,15.501 C15.152,14.584 15.224,13.086 16.115,12.158 C17.035,11.199 18.536,11.139 19.502,12.068 C20.457,12.984 20.416,14.494 19.516,15.431 Z" id="Fill-37"></path>
            <path d="M17.89,12.122 C17.432,12.122 16.977,12.323 16.642,12.672 C15.963,13.38 15.97,14.374 16.66,15.036 C16.949,15.313 17.33,15.466 17.734,15.466 C18.202,15.466 18.661,15.267 18.993,14.921 C19.305,14.597 19.476,14.175 19.476,13.735 C19.475,13.29 19.297,12.875 18.975,12.565 C18.673,12.276 18.298,12.122 17.89,12.122 Z M17.734,15.616 C17.291,15.616 16.873,15.448 16.557,15.145 C15.816,14.434 15.806,13.326 16.534,12.568 C16.897,12.19 17.391,11.973 17.89,11.973 C18.331,11.973 18.753,12.145 19.079,12.457 C19.431,12.795 19.625,13.249 19.625,13.735 C19.626,14.214 19.44,14.673 19.101,15.025 C18.741,15.401 18.243,15.616 17.734,15.616 Z M17.864,11.479 C17.224,11.479 16.622,11.738 16.169,12.21 C15.744,12.653 15.503,13.23 15.494,13.835 C15.483,14.453 15.719,15.025 16.158,15.447 C16.605,15.875 17.18,16.11 17.778,16.11 C18.411,16.11 19.009,15.851 19.461,15.379 C19.889,14.935 20.126,14.353 20.129,13.741 C20.133,13.121 19.892,12.546 19.451,12.122 C19.019,11.707 18.456,11.479 17.864,11.479 Z M17.778,16.26 C17.141,16.26 16.528,16.01 16.055,15.555 C15.585,15.104 15.333,14.492 15.344,13.832 C15.354,13.189 15.609,12.576 16.061,12.106 C16.542,11.605 17.182,11.329 17.864,11.329 C18.495,11.329 19.095,11.572 19.554,12.013 C20.026,12.466 20.283,13.08 20.279,13.742 C20.276,14.392 20.023,15.011 19.57,15.483 C19.088,15.984 18.453,16.26 17.778,16.26 Z" id="Fill-38"></path>
            <polyline id="Fill-39" points="24.988 5.263 26.312 9.783 25.725 10.18 23.522 8.466 24.309 11.136 23.721 11.533 19.948 8.666 20.506 8.289 23.372 10.404 22.588 7.739 22.002 7.279 22.56 6.902 25.376 9.051 24.415 5.65 24.988 5.263"></polyline>
            <path d="M20.077,8.67 L23.723,11.441 L24.222,11.104 L23.45,8.487 C23.441,8.456 23.453,8.422 23.48,8.404 C23.506,8.386 23.542,8.387 23.568,8.407 L25.728,10.087 L26.225,9.751 L24.945,5.382 L24.502,5.681 L25.448,9.03 C25.457,9.062 25.445,9.095 25.418,9.113 C25.391,9.131 25.355,9.13 25.331,9.11 L22.558,6.994 L22.129,7.284 L22.635,7.68 C22.647,7.69 22.656,7.703 22.66,7.718 L23.444,10.383 C23.453,10.414 23.441,10.447 23.415,10.465 C23.389,10.484 23.354,10.483 23.328,10.464 L20.504,8.381 L20.077,8.67 Z M23.721,11.608 C23.705,11.608 23.689,11.603 23.675,11.593 L19.903,8.726 C19.884,8.711 19.873,8.688 19.873,8.664 C19.874,8.64 19.886,8.617 19.906,8.604 L20.464,8.227 C20.491,8.209 20.525,8.21 20.551,8.229 L23.237,10.211 L22.523,7.784 L21.956,7.338 C21.937,7.323 21.926,7.3 21.927,7.276 C21.928,7.252 21.94,7.23 21.96,7.217 L22.519,6.84 C22.545,6.822 22.581,6.823 22.606,6.842 L25.243,8.855 L24.342,5.67 C24.334,5.639 24.346,5.606 24.373,5.587 L24.946,5.201 C24.966,5.187 24.991,5.185 25.013,5.192 C25.036,5.2 25.053,5.219 25.06,5.242 L26.384,9.762 C26.394,9.793 26.381,9.827 26.354,9.845 L25.767,10.242 C25.739,10.259 25.704,10.259 25.679,10.239 L23.66,8.668 L24.381,11.115 C24.39,11.146 24.378,11.18 24.351,11.198 L23.763,11.595 C23.75,11.604 23.735,11.608 23.721,11.608 Z" id="Fill-40"></path>
            <polyline id="Fill-41" points="32.522 2.804 33.716 6.441 33.11 6.64 31.916 3.003 30.395 3.503 30.188 2.874 33.819 1.681 34.026 2.311 32.522 2.804"></polyline>
            <path d="M31.916,2.928 C31.927,2.928 31.939,2.931 31.949,2.936 C31.967,2.945 31.981,2.961 31.987,2.98 L33.158,6.545 L33.621,6.393 L32.451,2.827 C32.444,2.808 32.446,2.788 32.455,2.77 C32.464,2.752 32.479,2.739 32.499,2.733 L33.932,2.263 L33.771,1.776 L30.283,2.922 L30.442,3.408 L31.892,2.932 C31.9,2.929 31.908,2.928 31.916,2.928 Z M33.11,6.715 C33.078,6.715 33.049,6.695 33.039,6.663 L31.868,3.098 L30.418,3.574 C30.398,3.58 30.377,3.578 30.361,3.57 C30.343,3.561 30.33,3.545 30.323,3.526 L30.117,2.897 C30.105,2.858 30.125,2.815 30.165,2.802 L33.796,1.61 C33.835,1.598 33.878,1.619 33.891,1.658 L34.098,2.287 C34.104,2.306 34.102,2.327 34.093,2.344 C34.085,2.362 34.069,2.375 34.05,2.382 L32.617,2.852 L33.787,6.417 C33.8,6.457 33.779,6.499 33.739,6.512 L33.133,6.711 C33.125,6.714 33.118,6.715 33.11,6.715 Z" id="Fill-42"></path>
            <path d="M38.782,1.244 C37.792,1.382 37.127,2.197 37.266,3.2 C37.4,4.161 38.327,4.749 39.258,4.62 C40.213,4.487 40.903,3.636 40.769,2.67 C40.632,1.692 39.731,1.112 38.782,1.244 Z M39.343,5.271 C37.994,5.459 36.804,4.554 36.617,3.212 C36.435,1.899 37.419,0.764 38.697,0.586 C40.016,0.403 41.233,1.286 41.419,2.616 C41.601,3.929 40.632,5.091 39.343,5.271 Z" id="Fill-43"></path>
            <path d="M39.05,1.3 C38.965,1.3 38.878,1.306 38.793,1.318 C38.329,1.382 37.926,1.605 37.659,1.944 C37.39,2.287 37.276,2.729 37.34,3.19 C37.452,3.985 38.15,4.562 39.001,4.563 C39.083,4.563 39.166,4.557 39.248,4.546 C39.694,4.483 40.09,4.258 40.363,3.911 C40.638,3.561 40.756,3.124 40.694,2.68 C40.581,1.868 39.905,1.3 39.05,1.3 Z M39.001,4.713 C38.074,4.713 37.313,4.081 37.192,3.211 C37.122,2.709 37.246,2.227 37.542,1.851 C37.833,1.482 38.27,1.239 38.772,1.17 C38.864,1.157 38.958,1.15 39.05,1.15 C39.982,1.15 40.719,1.771 40.843,2.659 C40.91,3.143 40.782,3.621 40.481,4.004 C40.184,4.382 39.753,4.627 39.268,4.694 C39.18,4.706 39.09,4.713 39.001,4.713 Z M39.042,0.637 C38.931,0.637 38.818,0.645 38.707,0.66 C37.426,0.839 36.521,1.979 36.691,3.201 C36.854,4.372 37.821,5.221 38.99,5.221 C39.104,5.221 39.219,5.213 39.333,5.197 C40.614,5.018 41.517,3.865 41.344,2.627 C41.184,1.474 40.216,0.637 39.042,0.637 Z M38.99,5.371 C37.745,5.371 36.716,4.467 36.543,3.222 C36.361,1.917 37.323,0.702 38.687,0.512 C38.805,0.495 38.924,0.487 39.042,0.487 C40.292,0.487 41.322,1.378 41.493,2.606 C41.676,3.926 40.717,5.156 39.353,5.345 C39.232,5.362 39.11,5.371 38.99,5.371 Z" id="Fill-44"></path>
            <path d="M48.262,5.197 C47.582,5.112 46.92,4.69 46.544,4.055 L47.064,3.678 C47.262,3.988 47.646,4.46 48.344,4.547 C49,4.629 49.693,4.461 49.763,3.906 C49.847,3.226 49.173,3.141 48.528,3.061 C47.467,2.928 46.937,2.462 47.031,1.705 C47.122,0.983 47.892,0.394 48.847,0.513 C49.521,0.597 50.082,0.861 50.549,1.441 L50.083,1.867 C49.654,1.42 49.332,1.24 48.764,1.169 C48.263,1.107 47.802,1.401 47.754,1.789 C47.721,2.057 47.881,2.326 48.639,2.42 C50.196,2.614 50.536,3.148 50.431,3.989 C50.319,4.884 49.39,5.338 48.262,5.197" id="Fill-45"></path>
            <path d="M46.644,4.075 C47.004,4.643 47.622,5.041 48.271,5.122 C48.402,5.139 48.533,5.147 48.659,5.147 C49.601,5.147 50.268,4.689 50.356,3.98 C50.411,3.538 50.334,3.241 50.106,3.015 C49.842,2.756 49.359,2.586 48.629,2.495 C47.951,2.41 47.631,2.169 47.68,1.78 C47.732,1.352 48.235,1.027 48.773,1.095 C49.323,1.164 49.663,1.335 50.086,1.763 L50.446,1.434 C50.03,0.942 49.517,0.673 48.837,0.588 C48.758,0.578 48.679,0.573 48.601,0.573 C47.83,0.573 47.187,1.063 47.106,1.714 C47.062,2.064 47.16,2.349 47.396,2.562 C47.639,2.779 48.022,2.922 48.538,2.987 C49.19,3.068 49.931,3.16 49.837,3.915 C49.78,4.37 49.337,4.641 48.653,4.641 C48.549,4.641 48.441,4.635 48.335,4.621 C47.812,4.556 47.378,4.275 47.044,3.785 L46.644,4.075 Z M48.659,5.297 C48.526,5.297 48.39,5.288 48.252,5.271 C47.536,5.182 46.856,4.73 46.479,4.093 C46.46,4.06 46.469,4.018 46.5,3.995 L47.02,3.617 C47.037,3.605 47.056,3.601 47.078,3.604 C47.098,3.608 47.116,3.62 47.127,3.638 C47.441,4.129 47.854,4.41 48.353,4.472 C48.454,4.485 48.555,4.491 48.653,4.491 C48.878,4.491 49.619,4.448 49.688,3.897 C49.758,3.333 49.271,3.229 48.519,3.135 C47.973,3.067 47.562,2.912 47.296,2.673 C47.021,2.426 46.907,2.097 46.957,1.695 C47.047,0.97 47.754,0.423 48.601,0.423 C48.685,0.423 48.771,0.428 48.856,0.439 C49.601,0.532 50.157,0.835 50.607,1.394 C50.632,1.425 50.629,1.469 50.6,1.496 L50.134,1.923 C50.104,1.95 50.057,1.949 50.029,1.919 C49.603,1.476 49.294,1.311 48.755,1.244 C48.296,1.186 47.872,1.451 47.828,1.798 C47.815,1.906 47.774,2.237 48.648,2.346 C49.423,2.443 49.919,2.621 50.21,2.909 C50.472,3.166 50.566,3.513 50.505,3.998 C50.407,4.787 49.682,5.297 48.659,5.297 Z" id="Fill-46"></path>
            <path d="M53.229,5.392 L55.879,6.186 L55.69,6.814 L52.413,5.832 L53.7,1.534 L56.725,2.44 L56.535,3.074 L54.138,2.356 L53.748,3.658 C54.052,3.586 54.329,3.65 54.61,3.734 L55.55,4.016 L55.358,4.655 L54.419,4.374 C54.143,4.291 53.857,4.236 53.557,4.298 L53.229,5.392" id="Fill-47"></path>
            <path d="M52.506,5.782 L55.64,6.721 L55.786,6.237 L53.207,5.464 C53.188,5.458 53.172,5.445 53.163,5.428 C53.153,5.41 53.151,5.39 53.157,5.371 L53.485,4.276 C53.493,4.249 53.515,4.23 53.542,4.224 C53.808,4.17 54.073,4.191 54.44,4.302 L55.308,4.562 L55.457,4.066 L54.589,3.806 C54.282,3.714 54.025,3.67 53.765,3.731 C53.741,3.737 53.712,3.729 53.693,3.709 C53.675,3.69 53.668,3.662 53.676,3.636 L54.066,2.334 C54.072,2.315 54.085,2.299 54.103,2.29 C54.121,2.28 54.141,2.278 54.16,2.284 L56.485,2.98 L56.631,2.49 L53.751,1.627 L52.506,5.782 Z M55.69,6.889 C55.683,6.889 55.676,6.888 55.669,6.886 L52.391,5.904 C52.352,5.892 52.329,5.85 52.341,5.811 L53.628,1.512 C53.634,1.493 53.647,1.477 53.665,1.468 C53.683,1.458 53.704,1.456 53.722,1.462 L56.746,2.368 C56.786,2.38 56.808,2.422 56.796,2.462 L56.607,3.095 C56.602,3.114 56.588,3.131 56.571,3.14 C56.553,3.15 56.532,3.151 56.514,3.146 L54.188,2.449 L53.855,3.562 C54.117,3.527 54.391,3.59 54.632,3.662 L55.571,3.944 C55.611,3.956 55.633,3.997 55.622,4.037 L55.43,4.677 C55.424,4.696 55.412,4.712 55.394,4.721 C55.376,4.731 55.355,4.733 55.337,4.727 L54.397,4.446 C54.075,4.349 53.844,4.325 53.615,4.363 L53.322,5.342 L55.9,6.114 C55.919,6.12 55.936,6.133 55.945,6.151 C55.955,6.168 55.957,6.189 55.951,6.208 L55.762,6.836 C55.752,6.868 55.723,6.889 55.69,6.889 Z" id="Fill-48"></path>
            <path d="M62.4,6.152 C62.261,5.705 61.928,5.309 61.471,5.08 C60.58,4.632 59.57,4.926 59.117,5.829 C58.683,6.694 59.112,7.703 59.95,8.124 C60.471,8.385 61.055,8.376 61.539,8.134 L61.653,8.804 C61.024,9.053 60.295,9.031 59.65,8.707 C58.436,8.097 57.971,6.679 58.577,5.47 C59.171,4.289 60.623,3.914 61.773,4.492 C62.375,4.793 62.802,5.31 62.997,5.899 L62.4,6.152" id="Fill-49"></path>
            <path d="M60.649,4.299 C59.786,4.299 59.018,4.761 58.644,5.504 C58.057,6.674 58.514,8.052 59.684,8.64 C60.271,8.934 60.967,8.975 61.569,8.756 L61.481,8.244 C60.986,8.456 60.408,8.438 59.916,8.191 C59.492,7.978 59.153,7.606 58.986,7.17 C58.812,6.713 58.835,6.225 59.05,5.795 C59.364,5.171 59.953,4.798 60.627,4.798 C60.926,4.798 61.221,4.87 61.504,5.013 C61.945,5.234 62.284,5.61 62.445,6.051 L62.903,5.857 C62.697,5.292 62.287,4.833 61.74,4.559 C61.402,4.389 61.025,4.299 60.649,4.299 Z M60.765,9.048 C60.371,9.048 59.974,8.953 59.617,8.774 C58.371,8.148 57.885,6.683 58.51,5.437 C58.909,4.643 59.729,4.15 60.649,4.15 C61.048,4.15 61.449,4.245 61.807,4.424 C62.411,4.727 62.858,5.243 63.068,5.875 C63.081,5.912 63.062,5.953 63.026,5.968 L62.429,6.221 C62.41,6.229 62.388,6.228 62.368,6.22 C62.349,6.211 62.335,6.194 62.328,6.174 C62.192,5.737 61.868,5.363 61.437,5.147 C61.175,5.015 60.902,4.948 60.627,4.948 C60.011,4.948 59.472,5.29 59.184,5.863 C58.988,6.254 58.967,6.699 59.127,7.116 C59.28,7.518 59.592,7.86 59.984,8.057 C60.464,8.298 61.035,8.302 61.506,8.067 C61.527,8.057 61.552,8.057 61.573,8.068 C61.594,8.078 61.609,8.099 61.613,8.122 L61.727,8.791 C61.733,8.827 61.714,8.861 61.681,8.874 C61.39,8.989 61.081,9.048 60.765,9.048 Z" id="Fill-50"></path>
            <path d="M64.18,9.194 L65.848,7.014 L66.363,7.409 L64.695,9.588 C64.228,10.2 64.364,10.835 65.057,11.366 C65.749,11.896 66.397,11.861 66.866,11.249 L68.534,9.07 L69.05,9.465 L67.382,11.644 C66.672,12.572 65.667,12.658 64.658,11.886 C63.649,11.115 63.47,10.121 64.18,9.194" id="Fill-51"></path>
            <path d="M65.862,7.12 L64.239,9.239 C63.904,9.677 63.769,10.142 63.848,10.585 C63.928,11.03 64.224,11.459 64.704,11.827 C65.143,12.163 65.578,12.333 65.996,12.333 C66.496,12.333 66.955,12.079 67.322,11.599 L68.945,9.479 L68.548,9.175 L66.925,11.295 C66.441,11.927 65.735,11.979 65.011,11.425 C64.284,10.868 64.147,10.182 64.636,9.543 L66.258,7.423 L65.862,7.12 Z M65.996,12.484 C65.544,12.484 65.079,12.303 64.613,11.946 C64.102,11.555 63.787,11.094 63.701,10.611 C63.614,10.126 63.759,9.62 64.12,9.148 L65.788,6.969 C65.813,6.936 65.86,6.93 65.893,6.955 L66.409,7.349 C66.425,7.362 66.435,7.379 66.437,7.399 C66.44,7.419 66.435,7.439 66.423,7.454 L64.755,9.634 C64.317,10.206 64.441,10.8 65.102,11.306 C65.761,11.811 66.368,11.777 66.806,11.204 L68.474,9.024 C68.486,9.008 68.504,8.998 68.524,8.995 C68.545,8.994 68.563,8.998 68.579,9.01 L69.095,9.405 C69.128,9.43 69.135,9.477 69.109,9.51 L67.441,11.69 C67.044,12.209 66.544,12.484 65.996,12.484 Z" id="Fill-52"></path>
            <path d="M70.33,13.648 C70.628,13.744 70.831,13.942 71.029,14.161 L71.602,14.795 C71.905,15.13 72.266,15.225 72.623,14.902 C72.973,14.588 72.867,14.229 72.581,13.911 L71.438,12.647 L70.33,13.648 Z M70.893,14.989 L70.543,14.601 C70.349,14.386 70.132,14.192 69.844,14.088 L68.593,15.217 L68.153,14.731 L71.485,11.72 L73.067,13.471 C73.616,14.079 73.663,14.84 73.032,15.409 C72.527,15.865 71.943,15.874 71.387,15.5 L71.089,16.239 C70.971,16.728 70.973,16.864 71.166,17.079 C71.183,17.096 71.194,17.11 71.211,17.128 L71.312,17.231 L70.816,17.679 C70.465,17.29 70.11,16.897 70.407,16.167 L70.893,14.989 Z" id="Fill-53"></path>
            <path d="M70.471,13.621 C70.731,13.736 70.917,13.925 71.085,14.111 L71.658,14.745 C71.826,14.931 71.999,15.026 72.171,15.026 C72.306,15.026 72.441,14.966 72.573,14.847 C72.72,14.715 72.783,14.574 72.766,14.416 C72.75,14.274 72.669,14.121 72.525,13.962 L71.433,12.753 L70.471,13.621 Z M72.171,15.176 C71.958,15.176 71.742,15.062 71.546,14.845 L70.974,14.211 C70.794,14.013 70.595,13.812 70.307,13.719 C70.282,13.711 70.262,13.69 70.257,13.663 C70.251,13.637 70.26,13.61 70.28,13.592 L71.388,12.592 C71.418,12.564 71.466,12.566 71.494,12.597 L72.636,13.861 C72.802,14.045 72.896,14.226 72.915,14.4 C72.938,14.606 72.856,14.794 72.674,14.958 C72.514,15.103 72.344,15.176 72.171,15.176 Z M69.844,14.013 C69.853,14.013 69.861,14.014 69.869,14.017 C70.194,14.134 70.429,14.364 70.598,14.55 L70.949,14.939 C70.968,14.961 70.974,14.991 70.962,15.018 L70.477,16.195 C70.211,16.849 70.495,17.209 70.822,17.573 L71.204,17.228 L71.111,17.13 C70.894,16.889 70.896,16.72 71.017,16.222 L71.318,15.472 C71.326,15.451 71.344,15.435 71.365,15.428 C71.386,15.422 71.41,15.425 71.429,15.438 C71.969,15.801 72.518,15.772 72.982,15.353 C73.268,15.095 73.419,14.785 73.417,14.455 C73.415,14.136 73.275,13.814 73.012,13.522 L71.48,11.826 L68.259,14.736 L68.598,15.111 L69.794,14.032 C69.808,14.02 69.826,14.013 69.844,14.013 Z M70.816,17.754 C70.794,17.754 70.775,17.745 70.761,17.729 L70.816,17.679 L70.76,17.729 C70.415,17.346 70.023,16.913 70.338,16.138 L70.806,15.005 L70.487,14.651 C70.328,14.476 70.13,14.283 69.86,14.174 L68.643,15.273 C68.612,15.3 68.564,15.299 68.537,15.268 L68.097,14.781 C68.084,14.766 68.077,14.747 68.078,14.727 C68.079,14.707 68.088,14.688 68.103,14.675 L71.435,11.665 C71.465,11.637 71.513,11.639 71.541,11.67 L73.123,13.421 C73.412,13.741 73.565,14.098 73.567,14.454 C73.568,14.828 73.401,15.177 73.083,15.464 C72.59,15.909 71.997,15.961 71.423,15.612 L71.159,16.268 C71.045,16.74 71.053,16.841 71.222,17.028 L71.366,17.178 C71.38,17.193 71.388,17.212 71.387,17.233 C71.386,17.253 71.377,17.273 71.362,17.286 L70.867,17.735 C70.853,17.747 70.835,17.754 70.816,17.754 Z" id="Fill-54"></path>
            <path d="M73.068,19.757 L74.532,22.104 L73.976,22.451 L72.165,19.548 L75.973,17.173 L77.644,19.852 L77.082,20.202 L75.758,18.079 L74.604,18.799 C74.881,18.946 75.045,19.176 75.201,19.426 L75.72,20.258 L75.153,20.611 L74.635,19.779 C74.482,19.534 74.304,19.305 74.038,19.152 L73.068,19.757" id="Fill-55"></path>
            <path d="M72.269,19.572 L74,22.348 L74.429,22.08 L73.005,19.796 C72.994,19.779 72.991,19.759 72.995,19.74 C73,19.72 73.012,19.703 73.029,19.693 L73.998,19.088 C74.022,19.074 74.052,19.073 74.076,19.087 C74.376,19.26 74.566,19.527 74.698,19.739 L75.177,20.507 L75.617,20.234 L75.138,19.466 C74.997,19.24 74.837,19.008 74.569,18.865 C74.545,18.852 74.53,18.828 74.529,18.801 C74.529,18.774 74.542,18.749 74.565,18.735 L75.719,18.016 C75.753,17.994 75.8,18.004 75.822,18.04 L77.106,20.099 L77.54,19.828 L75.949,17.276 L72.269,19.572 Z M73.976,22.526 C73.97,22.526 73.965,22.526 73.959,22.524 C73.94,22.52 73.923,22.508 73.913,22.491 L72.102,19.587 C72.08,19.552 72.09,19.506 72.126,19.484 L75.933,17.109 C75.95,17.099 75.971,17.095 75.99,17.1 C76.009,17.104 76.026,17.116 76.036,17.133 L77.707,19.812 C77.729,19.848 77.718,19.894 77.683,19.916 L77.122,20.266 C77.105,20.276 77.085,20.281 77.065,20.275 C77.046,20.271 77.029,20.259 77.019,20.242 L75.734,18.183 L74.748,18.797 C74.984,18.956 75.133,19.174 75.265,19.387 L75.784,20.218 C75.794,20.235 75.798,20.256 75.794,20.275 C75.789,20.294 75.777,20.311 75.76,20.322 L75.193,20.674 C75.158,20.696 75.112,20.686 75.09,20.651 L74.571,19.819 C74.447,19.619 74.287,19.395 74.039,19.24 L73.172,19.781 L74.596,22.064 C74.618,22.1 74.607,22.146 74.572,22.168 L74.016,22.515 C74.004,22.522 73.99,22.526 73.976,22.526 Z" id="Fill-56"></path>
            <path d="M32.988,22.469 C32.631,20.589 33.03,18.679 34.112,17.093 C35.193,15.507 36.824,14.436 38.705,14.08 C39.147,13.996 39.598,13.953 40.044,13.953 C43.489,13.953 46.455,16.411 47.096,19.797 L47.689,22.924 L46.199,23.206 L45.607,20.078 C45.025,17.011 42.059,14.987 38.987,15.568 C38.784,15.607 38.65,15.803 38.689,16.007 C38.728,16.211 38.926,16.344 39.127,16.306 C41.791,15.801 44.365,17.557 44.87,20.219 L45.462,23.345 L45.02,23.429 L44.427,20.303 C44.028,18.198 42.186,16.671 40.045,16.671 C39.767,16.671 39.486,16.697 39.211,16.749 C38.042,16.971 37.027,17.635 36.355,18.621 C35.683,19.608 35.434,20.795 35.656,21.965 L36.248,25.091 L34.759,25.374 L34.167,22.246 C33.553,19.007 35.689,15.873 38.928,15.259 C39.131,15.221 39.265,15.025 39.227,14.821 C39.188,14.617 38.988,14.485 38.788,14.523 C35.143,15.213 32.74,18.74 33.43,22.386 L34.022,25.513 L33.58,25.597 L32.988,22.469 Z M61.169,44.029 L60.794,44.099 L60.418,44.171 L35.075,48.971 L31.533,30.275 L33.627,29.878 L34.365,29.739 L34.807,29.655 L35.544,29.515 L37.033,29.233 L37.77,29.093 L45.067,27.711 L45.805,27.572 L46.247,27.487 L46.984,27.348 L48.473,27.066 L49.21,26.927 L51.25,26.54 L51.862,26.425 L52.438,26.315 L55.475,25.739 C56.327,26.689 56.937,27.868 57.188,29.193 C57.494,30.804 57.231,32.487 56.449,33.932 C56.394,34.035 56.389,34.157 56.437,34.264 C56.484,34.37 56.578,34.449 56.691,34.475 C59.439,35.137 61.554,37.352 62.078,40.115 C62.322,41.407 62.203,42.711 61.758,43.917 L61.169,44.029 Z M30.883,30.874 L34.345,49.15 L32.89,49.426 L29.699,32.584 L30.883,30.874 Z M27.783,30.986 L30.213,30.525 L29.038,32.221 L26.608,32.682 L27.783,30.986 Z M26.716,28.19 L27.165,30.561 L25.981,32.271 L25.532,29.899 L26.716,28.19 Z M33.72,26.334 L34.162,26.25 L34.899,26.111 L36.388,25.828 L37.125,25.689 L44.422,24.307 L45.159,24.167 L45.602,24.083 L46.339,23.943 L47.828,23.661 L48.565,23.521 L48.801,23.477 C49.243,23.392 49.693,23.35 50.14,23.35 C51.913,23.35 53.556,24.006 54.823,25.1 L51.33,25.762 L50.609,25.898 L49.74,26.063 L49.071,26.19 L48.334,26.329 L46.845,26.612 L46.107,26.752 L45.665,26.835 L44.928,26.974 L37.63,28.357 L36.893,28.496 L35.404,28.778 L34.667,28.918 L34.225,29.002 L33.488,29.141 L31.025,29.608 L27.92,30.197 C27.91,30.188 27.904,30.176 27.893,30.168 C27.88,30.159 27.865,30.157 27.851,30.15 L27.356,27.542 L27.356,27.54 L27.873,27.442 L32.982,26.473 L33.72,26.334 Z M36.393,21.824 C36.209,20.852 36.415,19.865 36.975,19.044 C37.534,18.223 38.378,17.67 39.351,17.487 C41.351,17.108 43.315,18.465 43.69,20.442 L44.282,23.569 L36.985,24.951 L36.393,21.824 Z M31.05,51.069 L31.508,53.486 L30.324,55.196 L29.866,52.777 L31.05,51.069 Z M42.275,59.055 C41.98,59.055 41.649,59.087 41.317,59.15 C40.862,59.236 40.385,59.386 40.02,59.589 L39.038,54.407 L38.968,54.037 L38.94,53.894 C39.062,53.772 39.513,53.532 40.228,53.398 C40.514,53.343 40.797,53.315 41.047,53.315 C41.362,53.315 41.536,53.359 41.609,53.389 L41.636,53.532 L41.706,53.901 L41.775,54.27 L42.687,59.082 C42.565,59.066 42.433,59.055 42.275,59.055 Z M41.522,60.224 C41.044,60.316 40.547,60.319 40.314,60.279 C40.313,60.279 40.313,60.279 40.312,60.279 C40.519,60.153 40.906,59.992 41.457,59.887 C41.936,59.796 42.433,59.793 42.666,59.833 C42.456,59.96 42.065,60.121 41.522,60.224 Z M53.771,51.006 C53.719,50.728 53.453,50.397 52.488,50.397 C52.192,50.397 51.86,50.43 51.528,50.493 C51.038,50.586 50.583,50.736 50.247,50.917 C49.66,51.233 49.587,51.566 49.629,51.791 L49.671,52.01 L42.373,53.392 L42.332,53.174 C42.279,52.896 42.013,52.565 41.047,52.565 C40.751,52.565 40.419,52.598 40.088,52.66 C39.597,52.753 39.142,52.903 38.807,53.084 C38.219,53.4 38.147,53.734 38.189,53.958 L38.23,54.177 L30.992,55.549 L32.166,53.853 L56.5,49.243 C57.389,49.075 58.223,48.754 58.985,48.314 C57.907,49.761 56.357,50.743 54.578,51.08 L53.813,51.225 L53.771,51.006 Z M53.716,56.887 C53.42,56.887 53.089,56.92 52.758,56.983 C52.303,57.069 51.825,57.217 51.459,57.42 L50.408,51.87 L50.381,51.725 C50.502,51.605 50.953,51.365 51.668,51.23 C51.955,51.175 52.238,51.147 52.488,51.147 C52.803,51.147 52.977,51.191 53.049,51.221 L53.076,51.365 L53.147,51.734 L53.216,52.102 L54.127,56.914 C54.005,56.898 53.873,56.887 53.716,56.887 Z M52.961,58.057 C52.482,58.148 51.986,58.152 51.754,58.111 L51.753,58.111 C51.963,57.986 52.354,57.823 52.897,57.72 C53.377,57.629 53.874,57.625 54.106,57.666 C53.897,57.792 53.505,57.954 52.961,58.057 Z M61.057,45.325 C61.021,45.381 60.991,45.439 60.954,45.493 C60.812,45.701 60.66,45.9 60.499,46.091 C60.31,46.316 60.105,46.523 59.891,46.721 C58.912,47.631 57.702,48.253 56.36,48.507 L32.209,53.082 C32.204,53.078 32.199,53.077 32.193,53.075 L31.79,50.942 L31.69,50.42 L31.69,50.416 L32.206,50.319 L32.292,50.302 L32.661,50.232 L34.853,49.817 C34.91,49.806 34.959,49.781 35.003,49.749 L60.358,44.944 L60.748,44.87 L61.132,44.799 L61.393,44.749 C61.291,44.945 61.178,45.137 61.057,45.325 Z M57.32,33.87 C58.018,32.371 58.233,30.679 57.925,29.053 C57.217,25.314 53.942,22.6 50.14,22.6 C49.646,22.6 49.149,22.648 48.661,22.739 L48.426,22.784 L47.833,19.657 C47.125,15.918 43.849,13.203 40.044,13.203 C39.551,13.203 39.053,13.251 38.565,13.343 C36.488,13.737 34.686,14.918 33.492,16.671 C32.298,18.423 31.857,20.531 32.251,22.609 L32.843,25.737 L26.852,26.871 L26.848,26.872 C26.8,26.881 26.755,26.9 26.714,26.926 C26.685,26.944 26.661,26.972 26.638,27 C26.629,27.01 26.617,27.015 26.609,27.027 L26.608,27.029 C26.608,27.029 26.607,27.029 26.607,27.03 C26.607,27.03 26.607,27.03 26.607,27.031 L24.826,29.602 C24.769,29.683 24.747,29.786 24.766,29.885 L25.411,33.291 C25.43,33.388 25.486,33.474 25.569,33.531 C25.651,33.587 25.752,33.608 25.85,33.589 L29.012,32.99 L32.153,49.565 L31.182,49.749 C31.168,49.752 31.157,49.761 31.144,49.765 C31.11,49.775 31.077,49.785 31.048,49.804 C31.016,49.825 30.988,49.855 30.962,49.887 C30.957,49.894 30.949,49.897 30.944,49.904 L30.943,49.906 L30.942,49.907 L29.16,52.478 C29.103,52.561 29.081,52.662 29.1,52.761 L29.745,56.167 C29.763,56.264 29.82,56.35 29.902,56.407 C29.965,56.449 30.039,56.472 30.113,56.472 C30.137,56.472 30.16,56.47 30.183,56.465 L38.37,54.914 L39.418,60.449 C39.471,60.726 39.737,61.057 40.703,61.057 C40.999,61.057 41.33,61.025 41.661,60.962 C42.339,60.833 43.167,60.545 43.455,60.12 C43.58,59.938 43.581,59.771 43.561,59.664 L43.561,59.663 L42.513,54.13 L49.811,52.748 L50.859,58.281 C50.912,58.558 51.177,58.89 52.143,58.89 C52.438,58.89 52.77,58.857 53.101,58.795 C53.592,58.701 54.047,58.551 54.383,58.371 C54.96,58.062 55.039,57.735 55.001,57.511 C55.001,57.507 55.002,57.502 55.001,57.496 L53.953,51.963 L54.717,51.818 C56.795,51.424 58.597,50.242 59.791,48.489 C60.08,48.067 60.321,47.622 60.521,47.164 C60.908,46.787 61.263,46.372 61.574,45.916 C62.768,44.164 63.209,42.054 62.815,39.975 C62.265,37.076 60.132,34.724 57.32,33.87 Z" id="Fill-57"></path>
            <path d="M32.451,27.615 C32.603,27.615 32.734,27.724 32.763,27.876 C32.771,27.917 32.747,27.952 32.739,27.992 C32.731,28.034 32.738,28.078 32.713,28.115 C32.666,28.184 32.593,28.233 32.509,28.248 C32.374,28.274 32.267,28.199 32.2,28.095 C32.178,28.061 32.143,28.036 32.135,27.995 C32.103,27.822 32.217,27.654 32.451,27.615 Z M31.619,28.586 C31.724,28.718 31.853,28.824 32.005,28.896 C32.142,28.96 32.289,29.004 32.448,29.004 C32.514,29.004 32.581,28.998 32.648,28.986 C32.866,28.945 33.048,28.824 33.199,28.669 C33.243,28.624 33.297,28.59 33.334,28.536 C33.347,28.516 33.349,28.492 33.361,28.472 C33.405,28.397 33.437,28.319 33.461,28.237 C33.499,28.111 33.51,27.981 33.499,27.848 C33.496,27.811 33.507,27.774 33.5,27.737 C33.45,27.474 33.3,27.257 33.102,27.102 C32.869,26.92 32.568,26.824 32.25,26.884 C31.671,26.994 31.29,27.555 31.398,28.135 C31.406,28.173 31.427,28.202 31.438,28.239 C31.478,28.368 31.539,28.484 31.619,28.586 Z" id="Fill-58"></path>
            <path d="M50.221,24.248 C50.375,24.248 50.507,24.358 50.535,24.508 C50.551,24.592 50.533,24.677 50.485,24.748 C50.437,24.819 50.365,24.866 50.281,24.882 C50.103,24.916 49.94,24.798 49.908,24.628 C49.875,24.454 49.989,24.286 50.221,24.248 Z M50.221,25.637 C50.286,25.637 50.353,25.631 50.42,25.619 C50.506,25.603 50.58,25.558 50.658,25.524 C50.834,25.443 50.993,25.334 51.105,25.17 C51.266,24.934 51.325,24.65 51.272,24.368 C51.164,23.801 50.622,23.405 50.021,23.516 C49.443,23.628 49.061,24.188 49.17,24.767 C49.206,24.956 49.302,25.115 49.42,25.253 C49.618,25.485 49.9,25.637 50.221,25.637 Z" id="Fill-59"></path>
            <path d="M36.835,51.088 C36.663,51.121 36.495,51.004 36.462,50.833 C36.429,50.66 36.544,50.493 36.776,50.454 C36.929,50.454 37.061,50.564 37.09,50.715 C37.123,50.887 37.008,51.055 36.835,51.088 Z M36.576,49.723 C35.997,49.833 35.615,50.394 35.725,50.972 C35.821,51.477 36.262,51.843 36.775,51.843 C36.841,51.843 36.908,51.837 36.976,51.824 C37.555,51.714 37.937,51.152 37.827,50.575 C37.718,50.006 37.172,49.613 36.576,49.723 Z" id="Fill-60"></path>
            <path d="M54.607,47.72 C54.43,47.755 54.266,47.636 54.234,47.466 C54.201,47.293 54.315,47.126 54.549,47.088 C54.702,47.088 54.833,47.197 54.861,47.348 C54.894,47.521 54.78,47.688 54.607,47.72 Z M54.349,46.357 C53.77,46.466 53.388,47.027 53.497,47.606 C53.592,48.111 54.034,48.476 54.547,48.476 C54.613,48.476 54.68,48.47 54.748,48.457 C55.326,48.347 55.708,47.786 55.599,47.208 C55.49,46.639 54.939,46.243 54.349,46.357 Z" id="Fill-61"></path>
            <path d="M40.234,54.272 C40.228,54.24 40.212,54.215 40.199,54.186 C40.128,54.035 39.966,53.94 39.795,53.973 C39.623,54.005 39.508,54.152 39.498,54.319 C39.496,54.349 39.491,54.38 39.497,54.411 L39.55,54.691 L40.275,58.525 C40.31,58.704 40.467,58.83 40.644,58.83 C40.667,58.83 40.69,58.827 40.714,58.823 C40.917,58.785 41.051,58.589 41.013,58.385 L40.287,54.551 L40.234,54.272" id="Fill-62"></path>
            <path d="M51.674,52.104 C51.668,52.073 51.652,52.047 51.639,52.019 C51.568,51.867 51.407,51.773 51.236,51.806 C51.064,51.838 50.949,51.985 50.938,52.152 C50.937,52.182 50.931,52.212 50.937,52.244 L50.99,52.524 L51.716,56.357 C51.75,56.536 51.907,56.661 52.084,56.661 C52.107,56.661 52.131,56.66 52.154,56.656 C52.358,56.617 52.492,56.421 52.453,56.217 L51.674,52.104" id="Fill-63"></path>
            <path d="M48.229,42.298 L47.933,41.686 L48.566,41.566 L48.858,42.179 L48.229,42.298 Z M43.916,43.115 L44.356,36.803 C44.369,36.632 44.263,36.474 44.1,36.421 C43.314,36.161 42.732,35.504 42.581,34.706 C42.474,34.139 42.596,33.585 42.873,33.126 C43.002,33.075 43.136,33.035 43.275,33.008 C43.868,32.896 44.47,33.021 44.969,33.361 C45.468,33.701 45.805,34.215 45.917,34.808 C46.068,35.606 45.767,36.431 45.131,36.96 C44.999,37.07 44.959,37.257 45.034,37.411 L47.466,42.442 L43.916,43.115 Z M44.382,32.064 C44.524,32.037 44.666,32.024 44.806,32.024 C44.972,32.024 45.132,32.049 45.289,32.082 L44.269,32.276 C44.138,32.25 44.004,32.24 43.87,32.233 C44.031,32.159 44.2,32.099 44.382,32.064 Z M47.298,39.486 L46.905,39.56 L46.554,38.834 L47.153,38.72 L47.208,38.71 L47.554,39.437 L47.298,39.486 Z M46.159,33.474 L46.136,33.479 C45.953,33.225 45.732,33 45.474,32.81 L46.014,32.708 L46.348,32.645 C46.557,32.841 46.727,33.077 46.85,33.344 L46.159,33.474 Z M45.865,37.407 L46.528,37.282 L46.875,38.01 L46.216,38.135 L45.865,37.407 Z M47.035,34.072 C47.06,34.347 47.036,34.619 46.962,34.881 L46.671,34.936 C46.663,34.846 46.671,34.757 46.654,34.669 C46.622,34.496 46.569,34.332 46.509,34.172 L47.035,34.072 Z M48.233,40.866 L47.595,40.986 L47.244,40.26 L47.887,40.138 L48.233,40.866 Z M49.328,41.421 L48.527,39.736 L48.316,39.293 L48.194,39.035 L47.97,38.566 L47.833,38.277 L47.637,37.865 L47.291,37.137 L46.958,36.437 L46.937,36.392 C47.111,36.216 47.245,36.012 47.363,35.801 C47.413,35.715 47.465,35.631 47.508,35.54 C47.581,35.385 47.636,35.223 47.681,35.057 C47.711,34.95 47.739,34.841 47.757,34.729 C47.798,34.467 47.806,34.201 47.774,33.932 C47.767,33.863 47.774,33.794 47.761,33.724 C47.727,33.542 47.672,33.368 47.606,33.2 C47.505,32.939 47.364,32.703 47.199,32.483 C47.196,32.48 47.194,32.478 47.191,32.474 C47.028,32.259 46.838,32.069 46.625,31.905 C46.601,31.885 46.579,31.862 46.554,31.843 C46.318,31.674 46.053,31.551 45.776,31.454 C45.3,31.288 44.78,31.225 44.243,31.327 C43.445,31.478 42.783,31.936 42.348,32.552 C42.325,32.585 42.304,32.619 42.281,32.653 C42.224,32.742 42.176,32.838 42.127,32.932 C42.078,33.031 42.032,33.129 41.994,33.232 C41.905,33.465 41.851,33.711 41.823,33.965 C41.792,34.252 41.787,34.547 41.844,34.846 C42.028,35.816 42.686,36.628 43.589,37.027 L43.134,43.547 C43.126,43.664 43.172,43.777 43.259,43.854 C43.329,43.916 43.417,43.949 43.508,43.949 C43.532,43.949 43.555,43.946 43.578,43.942 L49.475,42.824 C49.589,42.803 49.687,42.73 49.74,42.626 C49.792,42.522 49.794,42.4 49.744,42.295 L49.328,41.421 Z" id="Fill-64"></path>
            <path d="M50.719,43.122 C50.639,43.281 50.486,43.396 50.312,43.429 L43.02,44.81 C42.843,44.843 42.662,44.792 42.529,44.674 C42.396,44.556 42.325,44.381 42.337,44.203 L42.791,37.677 C42.8,37.546 42.74,37.42 42.633,37.344 C41.83,36.779 41.288,35.942 41.107,34.986 C40.721,32.949 42.065,30.975 44.103,30.59 C44.334,30.546 44.571,30.524 44.804,30.524 C45.084,30.524 45.354,30.565 45.619,30.624 C45.905,30.688 46.178,30.786 46.437,30.912 C46.618,31 46.79,31.102 46.953,31.217 C47.322,31.475 47.642,31.796 47.898,32.171 C48.184,32.589 48.398,33.062 48.498,33.585 C48.595,34.1 48.574,34.62 48.457,35.12 C48.356,35.548 48.189,35.961 47.941,36.339 C47.935,36.348 47.936,36.361 47.93,36.371 C47.875,36.475 47.864,36.598 47.916,36.706 L48.751,38.463 L48.955,38.891 L50.726,42.613 C50.803,42.777 50.801,42.962 50.719,43.122 Z M50.05,39.447 L49.717,38.746 L48.764,36.743 L48.681,36.569 C48.695,36.545 48.703,36.519 48.717,36.495 C49.246,35.566 49.434,34.495 49.235,33.445 C49.029,32.362 48.443,31.433 47.634,30.78 C47.37,30.566 47.076,30.392 46.769,30.243 C46.605,30.162 46.442,30.085 46.27,30.026 C46.012,29.937 45.744,29.874 45.469,29.833 C45.251,29.8 45.03,29.774 44.804,29.774 C44.524,29.774 44.241,29.8 43.963,29.853 C41.519,30.316 39.907,32.681 40.37,35.126 C40.574,36.203 41.16,37.157 42.029,37.83 L41.589,44.151 C41.561,44.558 41.726,44.964 42.031,45.235 C42.274,45.451 42.587,45.57 42.912,45.57 C42.995,45.57 43.078,45.562 43.16,45.546 L50.452,44.165 C50.853,44.089 51.203,43.827 51.388,43.462 C51.573,43.098 51.579,42.66 51.403,42.292 L50.05,39.447 Z" id="Fill-65"></path>
            <path d="M85.187,35.053 L85.183,35.427 L85.183,35.053 C84.105,35.053 83.226,34.024 83.222,32.759 L83.22,31.906 C83.219,31.285 83.428,30.701 83.81,30.263 C84.178,29.839 84.663,29.605 85.18,29.604 C86.256,29.604 87.135,30.631 87.138,31.896 L87.14,32.75 C87.143,34.016 86.267,35.049 85.187,35.053 Z M87.888,31.894 C87.884,30.217 86.669,28.853 85.172,28.853 C84.441,28.855 83.756,29.181 83.244,29.771 C82.743,30.347 82.468,31.105 82.47,31.907 L82.47,31.958 L72.029,31.984 C71.822,31.985 71.654,32.153 71.655,32.36 C71.655,32.567 71.823,32.734 72.03,32.734 C72.03,32.734 72.03,32.734 72.031,32.734 L72.521,32.733 L72.526,35.02 C72.527,35.225 72.695,35.394 72.901,35.394 C73.132,35.359 73.276,35.224 73.276,35.017 L73.271,32.731 L73.859,32.729 L73.863,34.199 C73.864,34.407 74.032,34.573 74.238,34.573 C74.239,34.573 74.239,34.573 74.239,34.573 C74.446,34.573 74.614,34.404 74.613,34.197 L74.609,32.728 L75.198,32.725 L75.203,35.013 C75.204,35.219 75.372,35.387 75.578,35.387 L75.579,35.387 C75.786,35.387 75.954,35.218 75.953,35.011 L75.948,32.723 L82.472,32.708 L82.472,32.761 C82.477,34.438 83.693,35.803 85.183,35.803 C85.183,35.803 85.188,35.803 85.189,35.803 C86.683,35.799 87.894,34.428 87.89,32.748 L87.888,31.894 Z" id="Fill-66"></path>
            <path d="M2.964,35.053 L2.96,35.427 L2.96,35.053 C1.883,35.053 1.004,34.024 1.001,32.76 L0.999,31.905 C0.998,31.285 1.207,30.701 1.587,30.263 C1.956,29.839 2.441,29.604 2.958,29.604 C4.034,29.604 4.913,30.632 4.917,31.896 L4.919,32.749 C4.922,34.015 4.045,35.049 2.964,35.053 Z M16.109,31.923 L16.108,31.923 L15.618,31.923 L15.612,29.636 C15.612,29.429 15.444,29.262 15.237,29.262 C15.026,29.237 14.862,29.431 14.862,29.638 L14.868,31.925 L14.28,31.927 L14.275,30.456 C14.275,30.248 14.107,30.082 13.9,30.082 C13.692,30.082 13.525,30.25 13.525,30.457 L13.53,31.928 L12.94,31.929 L12.936,29.641 C12.935,29.436 12.767,29.267 12.56,29.267 C12.353,29.268 12.185,29.437 12.186,29.644 L12.19,31.931 L5.667,31.946 L5.667,31.894 C5.662,30.217 4.446,28.853 2.951,28.853 C2.219,28.855 1.534,29.18 1.021,29.771 C0.521,30.347 0.247,31.105 0.249,31.907 L0.251,32.762 C0.255,34.439 1.47,35.803 2.96,35.803 L2.966,35.803 C4.461,35.799 5.673,34.427 5.669,32.748 L5.669,32.696 L16.11,32.673 C16.317,32.672 16.484,32.503 16.484,32.296 C16.483,32.09 16.315,31.923 16.109,31.923 Z" id="Fill-67"></path>
        </g>
    </g>
</svg>