<?xml version="1.0" encoding="UTF-8"?>
<svg width="76px" height="80px" viewBox="0 0 76 80" version="1.1" xmlns="http://www.w3.org/2000/svg" xmlns:xlink="http://www.w3.org/1999/xlink">
    <!-- Generator: Sketch 49 (51002) - http://www.bohemiancoding.com/sketch -->
    <title>bitcoin-grey-28</title>
    <desc>Created with Sketch.</desc>
    <defs></defs>
    <g id="Page-1" stroke="none" stroke-width="1" fill="none" fill-rule="evenodd">
        <g id="bitcoin-grey-28" fill="#000000">
            <path d="M13.978,68.094 L13.978,69.779 L17.347,69.779 C17.81,69.779 18.188,69.4 18.188,68.937 C18.188,68.473 17.81,68.094 17.347,68.094 L13.978,68.094 Z M13.978,67.252 L17.347,67.252 C17.81,67.252 18.188,66.873 18.188,66.41 C18.188,65.947 17.81,65.567 17.347,65.567 L13.978,65.567 L13.978,67.252 Z M13.135,70.621 L13.135,64.725 L17.347,64.725 C18.231,64.725 19.031,65.475 19.031,66.41 C19.031,66.915 18.837,67.336 18.458,67.673 C18.837,68.01 19.031,68.431 19.031,68.937 C19.031,69.846 18.29,70.596 17.347,70.621 L13.135,70.621 Z" id="Fill-1"></path>
            <polygon id="Fill-2" points="22.316 70.621 23.159 70.621 23.159 64.725 22.316 64.725"></polygon>
            <polyline id="Fill-3" points="29.476 65.567 29.476 70.621 28.633 70.621 28.633 65.567 26.106 65.567 26.106 64.725 32.002 64.725 32.002 65.567 29.476 65.567"></polyline>
            <path d="M38.91,64.725 C39.812,64.725 40.57,65.475 40.596,66.41 L39.753,66.41 C39.753,65.947 39.374,65.567 38.91,65.567 L36.384,65.567 C35.921,65.567 35.541,65.947 35.541,66.41 L35.541,68.937 C35.541,69.4 35.921,69.779 36.384,69.779 L38.91,69.779 C39.374,69.779 39.753,69.4 39.753,68.937 L40.596,68.937 C40.596,69.829 39.854,70.621 38.91,70.621 L36.384,70.621 C35.482,70.621 34.699,69.888 34.699,68.937 L34.699,66.41 C34.699,65.5 35.44,64.75 36.384,64.725 L38.91,64.725" id="Fill-4"></path>
            <path d="M48.767,66.41 C48.767,65.947 48.388,65.567 47.924,65.567 L45.397,65.567 C44.935,65.567 44.555,65.947 44.555,66.41 L44.555,68.937 C44.555,69.4 44.935,69.779 45.397,69.779 L47.924,69.779 C48.388,69.779 48.767,69.4 48.767,68.937 L48.767,66.41 Z M49.609,68.937 C49.609,69.863 48.851,70.621 47.924,70.621 L45.397,70.621 C44.463,70.621 43.713,69.871 43.713,68.937 L43.713,66.41 C43.713,65.483 44.471,64.725 45.397,64.725 L47.924,64.725 C48.817,64.725 49.609,65.491 49.609,66.41 L49.609,68.937 Z" id="Fill-5"></path>
            <polygon id="Fill-6" points="52.894 70.621 53.737 70.621 53.737 64.725 52.894 64.725"></polygon>
            <polyline id="Fill-7" points="63.002 70.621 62.159 70.621 57.948 66.09 57.948 70.621 57.105 70.621 57.105 64.725 57.948 64.725 62.159 69.189 62.159 64.725 63.002 64.725 63.002 70.621"></polyline>
            <path d="M10.204,52.386 C10.027,52.507 9.981,52.75 10.104,52.927 L10.982,54.214 L11.947,53.553 L11.067,52.267 C10.945,52.091 10.703,52.045 10.525,52.166 L10.204,52.386 Z M10.306,51.844 C10.646,51.611 11.143,51.687 11.389,52.047 L12.27,53.333 L12.912,52.893 L13.133,53.215 L10.882,54.755 L9.781,53.148 C9.546,52.804 9.634,52.318 9.984,52.064 L10.306,51.844 Z" id="Fill-8"></path>
            <path d="M10.745,52.223 C10.691,52.223 10.64,52.239 10.596,52.269 L10.275,52.489 C10.217,52.529 10.177,52.589 10.165,52.659 C10.152,52.729 10.166,52.799 10.206,52.856 L11.015,54.04 L11.773,53.521 L10.964,52.338 C10.915,52.266 10.833,52.223 10.745,52.223 Z M10.95,54.387 L10,52.998 C9.923,52.886 9.894,52.749 9.919,52.614 C9.944,52.478 10.02,52.361 10.133,52.283 L10.455,52.063 C10.682,51.908 11.015,51.971 11.17,52.196 L12.121,53.586 L10.95,54.387 Z M10.743,51.836 C10.609,51.836 10.483,51.875 10.376,51.947 L10.055,52.167 C9.764,52.378 9.686,52.787 9.884,53.077 L10.915,54.581 L12.959,53.182 L12.88,53.067 L12.237,53.507 L11.286,52.118 C11.165,51.941 10.962,51.836 10.743,51.836 Z M10.849,54.929 L9.678,53.218 C9.404,52.818 9.508,52.254 9.911,51.963 L10.235,51.741 C10.383,51.64 10.559,51.586 10.743,51.586 C11.045,51.586 11.325,51.732 11.492,51.976 L12.302,53.159 L12.944,52.719 L13.307,53.247 L10.849,54.929 Z" id="Fill-9"></path>
            <polyline id="Fill-10" points="9.252 49.985 8.384 48.243 8.732 48.069 9.601 49.812 10.298 49.464 9.256 47.374 9.604 47.2 10.82 49.639 8.381 50.855 7.165 48.416 7.514 48.242 8.556 50.333 9.252 49.985"></polyline>
            <path d="M7.333,48.472 L8.437,50.687 L10.653,49.583 L9.547,47.368 L9.423,47.43 L10.465,49.52 L9.544,49.979 L8.676,48.237 L8.551,48.299 L9.419,50.041 L8.499,50.501 L7.458,48.409 L7.333,48.472 Z M8.325,51.023 L6.998,48.359 L7.57,48.074 L8.612,50.166 L9.084,49.929 L8.216,48.187 L8.789,47.902 L9.657,49.644 L10.13,49.408 L9.088,47.317 L9.66,47.032 L10.988,49.695 L8.325,51.023 Z" id="Fill-11"></path>
            <polyline id="Fill-12" points="7.415 45.898 6.795 44.048 7.164 43.924 7.785 45.774 8.525 45.526 7.78 43.306 8.15 43.181 9.02 45.772 6.429 46.64 5.56 44.05 5.93 43.926 6.675 46.146 7.415 45.898"></polyline>
            <path d="M5.718,44.129 L6.507,46.482 L8.861,45.693 L8.072,43.34 L7.939,43.384 L8.684,45.605 L7.706,45.932 L7.085,44.082 L6.953,44.126 L7.573,45.977 L6.596,46.304 L5.851,44.084 L5.718,44.129 Z M6.35,46.798 L5.401,43.971 L6.008,43.768 L6.753,45.988 L7.257,45.819 L6.637,43.969 L7.243,43.765 L7.864,45.616 L8.367,45.447 L7.622,43.227 L8.229,43.023 L9.178,45.851 L6.35,46.798 Z" id="Fill-13"></path>
            <path d="M5.414,39.749 C5.203,39.789 5.064,39.994 5.104,40.204 L5.393,41.737 L6.541,41.52 L6.252,39.987 C6.213,39.777 6.008,39.637 5.797,39.677 L5.414,39.749 Z M7.308,39.276 L6.688,40.187 L6.924,41.447 L7.69,41.303 L7.763,41.686 L5.081,42.192 L4.72,40.277 C4.645,39.875 4.916,39.446 5.342,39.366 L5.725,39.294 C6.051,39.232 6.386,39.391 6.553,39.688 L6.984,39.056 L7.257,39.004 L7.308,39.276 Z" id="Fill-14"></path>
            <path d="M5.869,39.795 C5.853,39.795 5.836,39.797 5.82,39.8 L5.437,39.871 C5.294,39.899 5.199,40.037 5.226,40.18 L5.492,41.59 L6.395,41.42 L6.129,40.01 C6.106,39.885 5.997,39.795 5.869,39.795 Z M5.293,41.883 L4.981,40.227 C4.928,39.949 5.112,39.679 5.391,39.626 L5.774,39.554 C6.056,39.5 6.324,39.69 6.375,39.964 L6.687,41.619 L5.293,41.883 Z M5.866,39.406 C5.827,39.406 5.787,39.409 5.748,39.417 L5.365,39.489 C5.017,39.554 4.777,39.905 4.843,40.254 L5.181,42.046 L7.617,41.586 L7.591,41.449 L6.824,41.593 L6.555,40.16 L7.175,39.249 L7.157,39.15 L7.059,39.169 L6.543,39.925 L6.444,39.75 C6.325,39.537 6.104,39.406 5.866,39.406 Z M4.981,42.338 L4.597,40.3 C4.507,39.818 4.837,39.334 5.318,39.243 L5.702,39.171 C6.019,39.111 6.343,39.232 6.551,39.47 L6.91,38.942 L7.357,38.858 L7.44,39.304 L6.82,40.215 L7.023,41.301 L7.79,41.157 L7.909,41.785 L4.981,42.338 Z" id="Fill-15"></path>
            <polyline id="Fill-16" points="5.552 37.662 5.435 35.913 5.823 35.888 5.94 37.636 5.552 37.662"></polyline>
            <path d="M5.568,36.029 L5.668,37.528 L5.807,37.519 L5.707,36.02 L5.568,36.029 Z M5.436,37.795 L5.301,35.797 L5.94,35.755 L6.072,37.752 L5.436,37.795 Z" id="Fill-17"></path>
            <polyline id="Fill-18" points="4.683 32.86 7.02 32.97 7.001 33.359 4.664 33.25 4.609 34.418 4.22 34.4 4.349 31.673 4.738 31.692 4.683 32.86"></polyline>
            <path d="M4.351,34.281 L4.49,34.287 L4.545,33.119 L6.882,33.229 L6.889,33.089 L4.552,32.979 L4.607,31.811 L4.468,31.804 L4.351,34.281 Z M4.729,34.549 L4.089,34.52 L4.229,31.542 L4.869,31.573 L4.813,32.741 L7.15,32.851 L7.12,33.49 L4.783,33.38 L4.729,34.549 Z" id="Fill-19"></path>
            <path d="M5.695,27.859 C5.483,27.822 5.28,27.965 5.244,28.176 L5.043,29.329 C5.006,29.54 5.149,29.743 5.36,29.78 L6.513,29.98 C6.725,30.017 6.927,29.874 6.963,29.663 L7.164,28.511 C7.201,28.3 7.059,28.096 6.847,28.06 L5.695,27.859 Z M6.914,27.676 C7.337,27.749 7.621,28.155 7.549,28.578 L7.348,29.73 C7.273,30.156 6.872,30.439 6.445,30.364 L5.293,30.164 C4.871,30.09 4.585,29.685 4.659,29.262 L4.859,28.109 C4.931,27.702 5.343,27.402 5.762,27.475 L6.914,27.676 Z" id="Fill-20"></path>
            <path d="M5.628,27.978 C5.499,27.978 5.389,28.071 5.367,28.197 L5.166,29.35 C5.141,29.494 5.238,29.631 5.382,29.657 L6.534,29.857 C6.678,29.881 6.815,29.784 6.84,29.642 L7.041,28.489 C7.053,28.42 7.037,28.35 6.997,28.292 C6.956,28.234 6.895,28.195 6.825,28.183 L5.674,27.982 C5.659,27.98 5.644,27.978 5.628,27.978 Z M6.58,30.111 C6.55,30.111 6.521,30.109 6.491,30.104 L5.339,29.903 C5.059,29.854 4.871,29.586 4.92,29.307 L5.121,28.155 C5.169,27.879 5.433,27.69 5.717,27.736 L6.868,27.937 C7.003,27.96 7.122,28.035 7.201,28.148 C7.28,28.261 7.311,28.397 7.287,28.533 L7.086,29.684 C7.044,29.932 6.831,30.111 6.58,30.111 Z M5.634,27.589 C5.322,27.589 5.036,27.827 4.982,28.131 L4.782,29.283 C4.752,29.455 4.792,29.628 4.892,29.772 C4.993,29.916 5.143,30.011 5.315,30.041 L6.467,30.241 C6.83,30.305 7.163,30.061 7.225,29.709 L7.426,28.556 C7.486,28.2 7.248,27.861 6.893,27.799 L5.74,27.598 C5.705,27.592 5.669,27.589 5.634,27.589 Z M6.583,30.501 C6.53,30.501 6.477,30.496 6.424,30.487 L5.272,30.287 C5.034,30.246 4.827,30.114 4.688,29.916 C4.548,29.718 4.495,29.478 4.536,29.24 L4.736,28.088 C4.819,27.613 5.293,27.265 5.783,27.352 L6.936,27.552 C7.426,27.638 7.756,28.107 7.672,28.599 L7.471,29.752 C7.395,30.186 7.022,30.501 6.583,30.501 Z" id="Fill-21"></path>
            <polyline id="Fill-22" points="6.557 25.968 7.062 24.288 7.435 24.4 6.93 26.08 6.557 25.968"></polyline>
            <path d="M6.712,25.884 L6.846,25.924 L7.279,24.484 L7.145,24.444 L6.712,25.884 Z M7.013,26.236 L6.401,26.052 L6.978,24.132 L7.59,24.317 L7.013,26.236 Z" id="Fill-23"></path>
            <path d="M8.205,20.389 C8.009,20.303 7.778,20.393 7.692,20.589 L7.066,22.018 L8.138,22.488 L8.764,21.058 C8.85,20.862 8.759,20.631 8.563,20.545 L8.205,20.389 Z M8.719,20.187 C9.098,20.354 9.296,20.816 9.12,21.215 L8.495,22.644 L9.209,22.956 L9.053,23.314 L6.553,22.218 L7.335,20.433 C7.502,20.051 7.961,19.869 8.362,20.032 L8.719,20.187 Z" id="Fill-24"></path>
            <path d="M7.231,21.954 L8.073,22.323 L8.649,21.008 C8.677,20.944 8.679,20.872 8.653,20.806 C8.627,20.74 8.577,20.688 8.513,20.66 L8.155,20.503 C8.027,20.446 7.864,20.51 7.807,20.639 L7.231,21.954 Z M8.202,22.652 L6.902,22.082 L7.578,20.539 C7.688,20.287 8.002,20.164 8.255,20.274 L8.613,20.431 C8.738,20.485 8.835,20.586 8.885,20.715 C8.935,20.843 8.933,20.983 8.878,21.108 L8.202,22.652 Z M6.717,22.154 L8.988,23.149 L9.044,23.021 L8.331,22.708 L9.005,21.165 C9.075,21.007 9.078,20.831 9.014,20.668 C8.95,20.504 8.824,20.37 8.669,20.302 L8.312,20.146 C8.232,20.114 8.146,20.097 8.057,20.097 C7.791,20.097 7.552,20.248 7.45,20.483 L6.717,22.154 Z M9.117,23.479 L6.388,22.283 L7.221,20.383 C7.363,20.057 7.691,19.847 8.057,19.847 C8.178,19.847 8.296,19.87 8.409,19.916 L8.769,20.073 C8.985,20.168 9.16,20.352 9.247,20.577 C9.335,20.802 9.331,21.047 9.234,21.265 L8.66,22.579 L9.374,22.892 L9.117,23.479 Z" id="Fill-25"></path>
            <polyline id="Fill-26" points="9.736 18.31 10.762 16.648 11.094 16.853 10.068 18.515 10.733 18.925 11.964 16.931 12.296 17.136 10.861 19.463 8.534 18.027 9.969 15.701 10.302 15.906 9.072 17.9 9.736 18.31"></polyline>
            <path d="M8.706,17.987 L10.82,19.29 L12.124,17.177 L12.004,17.103 L10.774,19.097 L9.896,18.555 L10.922,16.894 L10.802,16.82 L9.777,18.482 L8.9,17.941 L10.13,15.947 L10.01,15.873 L8.706,17.987 Z M10.902,19.635 L8.362,18.068 L9.928,15.529 L10.474,15.864 L9.244,17.859 L9.696,18.138 L10.721,16.476 L11.266,16.812 L10.24,18.474 L10.693,18.753 L11.923,16.759 L12.468,17.095 L10.902,19.635 Z" id="Fill-27"></path>
            <polyline id="Fill-28" points="12.228 14.6 13.463 13.095 13.764 13.342 12.529 14.847 13.131 15.341 14.613 13.535 14.914 13.782 13.185 15.889 11.078 14.16 12.807 12.052 13.107 12.299 11.625 14.105 12.228 14.6"></polyline>
            <path d="M11.254,14.143 L13.168,15.713 L14.738,13.799 L14.63,13.711 L13.148,15.517 L12.354,14.865 L13.588,13.359 L13.48,13.271 L12.245,14.776 L11.449,14.122 L12.932,12.317 L12.824,12.229 L11.254,14.143 Z M13.203,16.065 L10.902,14.177 L12.79,11.876 L13.283,12.282 L11.801,14.088 L12.21,14.424 L13.446,12.919 L13.94,13.324 L12.705,14.83 L13.114,15.165 L14.596,13.359 L15.09,13.765 L13.203,16.065 Z" id="Fill-29"></path>
            <path d="M16.356,9.665 C16.21,9.508 15.963,9.499 15.805,9.644 L14.661,10.701 L15.454,11.559 L16.598,10.502 C16.756,10.356 16.766,10.109 16.62,9.952 L16.356,9.665 Z M17.76,11.019 L16.66,10.975 L15.719,11.845 L16.247,12.417 L15.961,12.681 L14.11,10.68 L15.541,9.358 C15.841,9.081 16.348,9.084 16.641,9.401 L16.906,9.687 C17.131,9.93 17.174,10.298 17.01,10.597 L17.775,10.628 L17.963,10.831 L17.76,11.019 Z" id="Fill-30"></path>
            <path d="M14.838,10.708 L15.461,11.382 L16.513,10.41 C16.565,10.362 16.595,10.297 16.598,10.226 C16.601,10.156 16.576,10.088 16.528,10.036 L16.264,9.75 C16.168,9.647 15.993,9.64 15.889,9.736 L14.838,10.708 Z M15.447,11.735 L14.484,10.694 L15.72,9.552 C15.921,9.367 16.263,9.381 16.447,9.58 L16.712,9.867 C16.805,9.967 16.853,10.099 16.848,10.236 C16.842,10.374 16.783,10.501 16.682,10.594 L15.447,11.735 Z M14.287,10.687 L15.968,12.505 L16.07,12.41 L15.542,11.838 L16.613,10.848 L17.713,10.891 L17.786,10.824 L17.719,10.751 L16.803,10.714 L16.9,10.537 C17.039,10.285 17.004,9.978 16.815,9.772 L16.549,9.486 C16.318,9.236 15.871,9.223 15.626,9.45 L14.287,10.687 Z M15.954,12.858 L13.934,10.673 L15.456,9.266 C15.799,8.949 16.413,8.969 16.732,9.316 L16.998,9.602 C17.217,9.84 17.288,10.174 17.194,10.48 L17.832,10.505 L18.14,10.837 L17.807,11.145 L16.707,11.102 L15.896,11.852 L16.424,12.424 L15.954,12.858 Z" id="Fill-31"></path>
            <polyline id="Fill-32" points="21.034 6.701 22.729 5.73 22.922 6.069 21.229 7.04 21.616 7.718 23.649 6.552 23.844 6.891 21.473 8.251 20.113 5.879 22.484 4.52 22.678 4.858 20.646 6.024 21.034 6.701"></polyline>
            <path d="M20.284,5.925 L21.519,8.08 L23.673,6.845 L23.603,6.723 L21.57,7.888 L21.058,6.993 L22.751,6.023 L22.682,5.901 L20.988,6.872 L20.475,5.978 L22.507,4.812 L22.438,4.69 L20.284,5.925 Z M21.426,8.421 L19.943,5.833 L22.531,4.349 L22.848,4.905 L20.816,6.07 L21.081,6.531 L22.775,5.559 L23.092,6.116 L21.399,7.086 L21.663,7.547 L23.696,6.382 L24.014,6.937 L21.426,8.421 Z" id="Fill-33"></path>
            <polyline id="Fill-34" points="25.453 5.718 27.622 4.845 27.769 5.206 25.238 6.226 24.219 3.695 24.58 3.55 25.453 5.718"></polyline>
            <path d="M24.381,3.765 L25.308,6.063 L27.605,5.137 L27.553,5.007 L25.384,5.881 L24.511,3.713 L24.381,3.765 Z M25.169,6.388 L24.056,3.626 L24.649,3.387 L25.522,5.556 L27.691,4.682 L27.932,5.275 L25.169,6.388 Z" id="Fill-35"></path>
            <polyline id="Fill-36" points="29.105 3.164 30.999 2.684 31.095 3.063 29.201 3.543 29.394 4.3 31.666 3.724 31.762 4.103 29.111 4.775 28.438 2.124 31.09 1.452 31.186 1.83 28.913 2.407 29.105 3.164"></polyline>
            <path d="M28.589,2.214 L29.202,4.623 L31.61,4.012 L31.576,3.876 L29.303,4.452 L29.049,3.453 L30.943,2.972 L30.909,2.836 L29.015,3.316 L28.761,2.316 L31.034,1.74 L31,1.604 L28.589,2.214 Z M29.021,4.927 L28.286,2.033 L31.18,1.3 L31.337,1.921 L29.065,2.497 L29.196,3.012 L31.089,2.532 L31.247,3.153 L29.353,3.633 L29.484,4.148 L31.756,3.572 L31.914,4.194 L29.021,4.927 Z" id="Fill-37"></path>
            <path d="M34.869,0.905 C35.284,0.858 35.672,1.162 35.732,1.591 L35.346,1.635 C35.321,1.422 35.127,1.268 34.914,1.292 L33.751,1.425 C33.539,1.449 33.385,1.643 33.408,1.856 L33.541,3.019 C33.565,3.232 33.76,3.386 33.973,3.362 L35.135,3.229 C35.348,3.204 35.502,3.011 35.479,2.797 L35.865,2.753 C35.912,3.163 35.613,3.567 35.179,3.616 L34.017,3.749 C33.603,3.796 33.204,3.5 33.154,3.063 L33.021,1.901 C32.974,1.483 33.275,1.099 33.707,1.038 L34.869,0.905" id="Fill-38"></path>
            <path d="M34.954,1.025 C34.931,1.025 34.907,1.027 34.883,1.029 L33.721,1.162 C33.359,1.213 33.105,1.532 33.146,1.887 L33.278,3.049 C33.319,3.403 33.635,3.67 34.002,3.625 L35.165,3.492 C35.338,3.472 35.495,3.384 35.604,3.243 C35.684,3.141 35.731,3.018 35.743,2.893 L35.601,2.909 C35.57,3.137 35.388,3.325 35.149,3.353 L33.987,3.486 C33.698,3.519 33.449,3.312 33.417,3.033 L33.284,1.87 C33.253,1.588 33.456,1.333 33.737,1.301 L34.9,1.168 C35.141,1.141 35.36,1.284 35.44,1.499 L35.579,1.483 C35.487,1.215 35.238,1.025 34.954,1.025 Z M33.93,3.879 C33.469,3.879 33.082,3.534 33.03,3.077 L32.898,1.915 C32.841,1.425 33.189,0.985 33.689,0.914 L34.855,0.781 C35.345,0.726 35.787,1.085 35.856,1.573 L35.874,1.701 L35.236,1.774 L35.222,1.65 C35.206,1.516 35.093,1.415 34.958,1.415 L33.765,1.549 C33.621,1.565 33.517,1.697 33.532,1.843 L33.665,3.004 C33.681,3.138 33.794,3.239 33.929,3.239 L35.121,3.104 C35.265,3.088 35.37,2.956 35.355,2.811 L35.341,2.687 L35.975,2.614 L35.989,2.739 C36.016,2.969 35.947,3.209 35.801,3.397 C35.65,3.591 35.434,3.713 35.193,3.74 L34.031,3.873 C33.997,3.877 33.963,3.879 33.93,3.879 Z" id="Fill-39"></path>
            <polyline id="Fill-40" points="38.796 1.156 38.757 3.5 38.366 3.493 38.406 1.15 37.233 1.13 37.24 0.74 39.975 0.785 39.968 1.176 38.796 1.156"></polyline>
            <path d="M38.493,3.37 L38.634,3.373 L38.673,1.029 L39.845,1.049 L39.848,0.908 L37.363,0.867 L37.36,1.007 L38.533,1.027 L38.493,3.37 Z M38.88,3.627 L38.239,3.616 L38.279,1.273 L37.106,1.253 L37.118,0.613 L40.102,0.662 L40.09,1.303 L38.919,1.283 L38.88,3.627 Z" id="Fill-41"></path>
            <path d="M43.938,2.051 C43.969,1.84 43.822,1.64 43.609,1.609 L42.068,1.381 L41.898,2.536 L43.437,2.765 C43.65,2.796 43.849,2.648 43.881,2.437 L43.938,2.051 Z M43.764,3.994 L43.107,3.11 L41.841,2.921 L41.726,3.692 L41.341,3.634 L41.741,0.938 L43.667,1.224 C44.071,1.284 44.387,1.681 44.323,2.109 L44.266,2.494 C44.217,2.822 43.957,3.086 43.621,3.146 L44.078,3.761 L44.037,4.035 L43.764,3.994 Z" id="Fill-42"></path>
            <path d="M42.04,2.431 L43.456,2.641 C43.604,2.664 43.736,2.559 43.757,2.418 L43.814,2.033 C43.824,1.963 43.807,1.893 43.764,1.836 C43.722,1.78 43.661,1.743 43.591,1.733 L42.174,1.523 L42.04,2.431 Z M43.495,2.894 C43.47,2.894 43.445,2.892 43.419,2.888 L41.755,2.642 L41.963,1.239 L43.628,1.486 C43.763,1.505 43.883,1.577 43.965,1.687 C44.047,1.798 44.081,1.934 44.061,2.07 L44.004,2.455 C43.966,2.706 43.748,2.894 43.495,2.894 Z M43.834,3.878 L43.932,3.893 L43.947,3.794 L43.4,3.059 L43.599,3.023 C43.882,2.972 44.101,2.752 44.142,2.476 L44.2,2.09 C44.251,1.74 43.999,1.4 43.648,1.347 L41.847,1.08 L41.483,3.529 L41.621,3.549 L41.736,2.779 L43.177,2.994 L43.834,3.878 Z M44.142,4.177 L43.694,4.11 L43.038,3.226 L41.946,3.063 L41.831,3.834 L41.199,3.739 L41.636,0.796 L43.686,1.1 C44.17,1.173 44.519,1.643 44.447,2.127 L44.389,2.513 C44.342,2.832 44.125,3.096 43.829,3.216 L44.21,3.729 L44.142,4.177 Z" id="Fill-43"></path>
            <path d="M48.336,3.15 C48.396,2.944 48.276,2.726 48.07,2.666 L46.947,2.339 C46.741,2.279 46.524,2.399 46.464,2.605 L46.137,3.728 C46.077,3.934 46.196,4.151 46.402,4.211 L47.525,4.538 C47.732,4.598 47.949,4.479 48.009,4.273 L48.336,3.15 Z M48.383,4.382 C48.264,4.793 47.828,5.032 47.417,4.912 L46.293,4.586 C45.878,4.464 45.642,4.034 45.763,3.619 L46.09,2.495 C46.209,2.084 46.645,1.845 47.056,1.965 L48.18,2.291 C48.576,2.407 48.828,2.85 48.71,3.259 L48.383,4.382 Z" id="Fill-44"></path>
            <path d="M46.839,2.449 C46.722,2.449 46.617,2.527 46.584,2.64 L46.257,3.763 C46.216,3.903 46.297,4.051 46.437,4.091 L47.561,4.418 C47.697,4.458 47.85,4.374 47.889,4.238 L48.216,3.115 C48.236,3.047 48.228,2.976 48.194,2.913 C48.16,2.851 48.103,2.806 48.036,2.786 L46.912,2.459 C46.888,2.452 46.864,2.449 46.839,2.449 Z M47.634,4.679 C47.586,4.679 47.538,4.672 47.49,4.658 L46.368,4.331 C46.095,4.252 45.938,3.966 46.017,3.693 L46.344,2.57 C46.422,2.305 46.715,2.143 46.982,2.219 L48.105,2.546 C48.237,2.584 48.347,2.672 48.413,2.794 C48.48,2.915 48.495,3.053 48.456,3.185 L48.129,4.308 C48.066,4.526 47.862,4.679 47.634,4.679 Z M46.839,2.059 C46.549,2.059 46.29,2.253 46.21,2.53 L45.883,3.654 C45.782,4 45.981,4.364 46.328,4.466 L47.452,4.792 C47.793,4.893 48.166,4.683 48.263,4.347 L48.59,3.224 C48.687,2.889 48.479,2.509 48.145,2.411 L47.021,2.085 C46.961,2.068 46.9,2.059 46.839,2.059 Z M47.633,5.068 C47.548,5.068 47.464,5.056 47.382,5.033 L46.258,4.706 C45.779,4.566 45.503,4.062 45.643,3.584 L45.97,2.461 C46.105,1.995 46.622,1.71 47.091,1.845 L48.214,2.171 C48.685,2.309 48.966,2.822 48.83,3.293 L48.503,4.417 C48.392,4.801 48.034,5.068 47.633,5.068 Z" id="Fill-45"></path>
            <polyline id="Fill-46" points="52.123 6.809 51.769 6.648 50.858 3.934 49.994 5.843 49.639 5.683 50.764 3.198 51.119 3.359 52.042 6.044 52.894 4.163 53.249 4.324 52.123 6.809"></polyline>
            <path d="M51.87,6.556 L52.061,6.643 L53.084,4.386 L52.956,4.328 L52.026,6.382 L51.019,3.45 L50.826,3.364 L49.804,5.62 L49.932,5.678 L50.876,3.592 L51.87,6.556 Z M52.185,6.974 L51.668,6.739 L50.841,4.275 L50.057,6.009 L49.473,5.745 L50.701,3.032 L51.22,3.267 L52.058,5.706 L52.831,3.998 L53.415,4.261 L52.185,6.974 Z" id="Fill-47"></path>
            <polyline id="Fill-48" points="54.891 5.234 55.228 5.43 53.853 7.786 53.516 7.59 54.891 5.234"></polyline>
            <path d="M53.687,7.545 L53.808,7.615 L55.057,5.475 L54.936,5.404 L53.687,7.545 Z M53.897,7.957 L53.345,7.635 L54.846,5.063 L55.398,5.385 L53.897,7.957 Z" id="Fill-49"></path>
            <path d="M58.365,7.525 C58.703,7.77 58.783,8.256 58.539,8.612 L58.224,8.384 C58.35,8.21 58.311,7.966 58.137,7.84 L57.192,7.154 C57.019,7.028 56.774,7.067 56.648,7.24 L55.962,8.185 C55.836,8.358 55.875,8.604 56.048,8.729 L56.994,9.415 C57.167,9.541 57.412,9.502 57.537,9.329 L57.853,9.558 C57.609,9.892 57.117,9.986 56.765,9.73 L55.819,9.044 C55.482,8.799 55.389,8.313 55.646,7.957 L56.333,7.012 C56.58,6.671 57.062,6.592 57.421,6.839 L58.365,7.525" id="Fill-50"></path>
            <path d="M56.961,6.82 C56.748,6.82 56.556,6.917 56.434,7.085 L55.748,8.03 C55.537,8.322 55.602,8.731 55.893,8.943 L56.838,9.629 C57.085,9.808 57.45,9.777 57.668,9.578 L57.552,9.495 C57.379,9.639 57.106,9.652 56.92,9.517 L55.975,8.831 C55.745,8.663 55.694,8.341 55.861,8.111 L56.547,7.167 C56.706,6.947 57.043,6.892 57.266,7.052 L58.21,7.739 C58.321,7.819 58.395,7.938 58.416,8.074 C58.431,8.168 58.42,8.262 58.386,8.347 L58.499,8.429 C58.622,8.146 58.542,7.807 58.292,7.626 L57.347,6.94 C57.234,6.862 57.1,6.82 56.961,6.82 Z M57.216,10.001 C57.026,10.001 56.844,9.943 56.691,9.831 L55.746,9.145 C55.343,8.853 55.253,8.287 55.545,7.883 L56.232,6.938 C56.508,6.557 57.092,6.462 57.492,6.736 L58.439,7.424 C58.831,7.709 58.923,8.273 58.642,8.683 L58.57,8.788 L58.049,8.412 L58.123,8.311 C58.208,8.193 58.182,8.027 58.063,7.941 L57.119,7.255 C57.004,7.173 56.831,7.201 56.749,7.314 L56.063,8.258 C55.977,8.376 56.003,8.542 56.122,8.628 L57.067,9.314 C57.182,9.397 57.354,9.368 57.436,9.256 L57.509,9.154 L58.027,9.53 L57.954,9.631 C57.785,9.863 57.509,10.001 57.216,10.001 Z" id="Fill-51"></path>
            <path d="M63.888,12.719 C64.164,13.032 64.136,13.525 63.818,13.82 L63.561,13.527 C63.722,13.385 63.737,13.138 63.596,12.977 L62.822,12.1 C62.68,11.939 62.433,11.923 62.271,12.066 L61.395,12.839 C61.233,12.981 61.218,13.229 61.359,13.389 L62.133,14.266 C62.275,14.427 62.523,14.443 62.684,14.301 L62.941,14.593 C62.632,14.867 62.13,14.852 61.841,14.524 L61.067,13.647 C60.791,13.335 60.806,12.838 61.137,12.547 L62.014,11.773 C62.33,11.495 62.816,11.522 63.114,11.842 L63.888,12.719" id="Fill-52"></path>
            <path d="M62.523,11.707 C62.365,11.707 62.214,11.764 62.096,11.867 L61.219,12.641 C61.088,12.756 61.01,12.915 61,13.089 C60.989,13.263 61.047,13.436 61.161,13.565 L61.935,14.442 C62.134,14.668 62.501,14.72 62.757,14.573 L62.663,14.466 C62.461,14.57 62.192,14.522 62.039,14.349 L61.266,13.472 C61.078,13.259 61.099,12.933 61.312,12.745 L62.189,11.972 C62.394,11.792 62.735,11.813 62.916,12.017 L63.69,12.894 C63.848,13.075 63.857,13.337 63.727,13.527 L63.819,13.632 C64.002,13.383 63.998,13.033 63.794,12.802 L63.021,11.925 C62.892,11.787 62.71,11.707 62.523,11.707 Z M62.425,14.91 C62.165,14.91 61.917,14.8 61.747,14.607 L60.974,13.73 C60.816,13.552 60.735,13.313 60.75,13.073 C60.765,12.832 60.873,12.612 61.054,12.453 L61.931,11.68 C62.285,11.367 62.876,11.403 63.206,11.757 L63.981,12.636 C64.303,13 64.268,13.573 63.903,13.912 L63.81,13.999 L63.384,13.516 L63.478,13.434 C63.587,13.337 63.598,13.169 63.502,13.06 L62.729,12.183 C62.636,12.078 62.46,12.066 62.354,12.159 L61.477,12.933 C61.368,13.029 61.357,13.197 61.453,13.307 L62.227,14.184 C62.319,14.288 62.496,14.3 62.601,14.207 L62.694,14.124 L63.118,14.604 L63.024,14.687 C62.861,14.831 62.648,14.91 62.425,14.91 Z" id="Fill-53"></path>
            <path d="M65.666,15.697 C65.549,15.519 65.306,15.469 65.127,15.587 L64.478,16.017 L65.551,17.641 L66.2,17.211 C66.38,17.093 66.429,16.851 66.311,16.671 L65.666,15.697 Z M64.791,18.609 L64.576,18.285 L65.227,17.855 L64.152,16.231 L63.504,16.661 L63.288,16.336 L64.912,15.262 C65.257,15.035 65.751,15.119 65.991,15.483 L66.636,16.457 C66.865,16.804 66.77,17.287 66.416,17.536 L64.791,18.609 Z" id="Fill-54"></path>
            <path d="M64.651,16.052 L65.586,17.467 L66.131,17.107 C66.19,17.068 66.23,17.009 66.245,16.94 C66.259,16.87 66.245,16.799 66.206,16.74 L65.562,15.766 C65.485,15.65 65.314,15.614 65.196,15.691 L64.651,16.052 Z M65.516,17.814 L64.304,15.981 L65.058,15.483 C65.287,15.331 65.621,15.4 65.771,15.629 L66.415,16.603 C66.491,16.717 66.517,16.855 66.489,16.991 C66.461,17.125 66.383,17.241 66.269,17.316 L65.516,17.814 Z M64.75,18.32 L64.826,18.436 L66.347,17.432 C66.641,17.225 66.725,16.818 66.531,16.526 L65.887,15.551 C65.697,15.264 65.266,15.178 64.981,15.366 L63.461,16.371 L63.539,16.488 L64.187,16.058 L65.4,17.89 L64.75,18.32 Z M64.756,18.782 L64.403,18.25 L65.053,17.82 L64.117,16.405 L63.469,16.834 L63.115,16.301 L64.843,15.158 C64.989,15.062 65.16,15.011 65.338,15.011 C65.646,15.011 65.929,15.162 66.096,15.414 L66.74,16.388 C67.007,16.792 66.894,17.353 66.488,17.638 L64.756,18.782 Z" id="Fill-55"></path>
            <path d="M66.406,21.739 L65.9,20.684 C65.718,20.3 65.875,19.844 66.268,19.644 L66.436,19.995 C66.242,20.088 66.16,20.322 66.253,20.515 L66.758,21.571 C66.851,21.764 67.084,21.847 67.277,21.754 C67.471,21.661 67.554,21.427 67.461,21.234 L66.956,20.178 C66.775,19.802 66.926,19.329 67.322,19.139 C67.695,18.96 68.174,19.111 68.363,19.506 L68.868,20.56 C69.048,20.937 68.887,21.403 68.501,21.601 L68.333,21.249 C68.526,21.156 68.609,20.923 68.516,20.729 L68.011,19.674 C67.918,19.48 67.685,19.398 67.491,19.49 C67.298,19.583 67.215,19.817 67.308,20.01 L67.813,21.066 C67.989,21.435 67.836,21.919 67.445,22.105 C67.073,22.284 66.594,22.133 66.406,21.739" id="Fill-56"></path>
            <path d="M66.215,19.824 C65.968,20.013 65.878,20.345 66.013,20.63 L66.519,21.685 C66.626,21.91 66.86,22.055 67.115,22.055 C67.211,22.055 67.307,22.033 67.391,21.993 C67.545,21.919 67.662,21.787 67.721,21.62 C67.78,21.453 67.772,21.271 67.7,21.12 L67.195,20.064 C67.136,19.941 67.128,19.801 67.174,19.671 C67.22,19.541 67.313,19.437 67.437,19.377 C67.684,19.259 68.004,19.372 68.123,19.62 L68.628,20.675 C68.688,20.798 68.696,20.938 68.65,21.068 C68.619,21.157 68.564,21.235 68.493,21.294 L68.553,21.42 C68.796,21.23 68.888,20.893 68.755,20.614 L68.251,19.56 C68.101,19.249 67.687,19.103 67.377,19.251 C67.217,19.328 67.098,19.462 67.041,19.629 C66.985,19.794 66.995,19.97 67.069,20.124 L67.574,21.18 C67.696,21.436 67.588,21.744 67.331,21.867 C67.083,21.985 66.764,21.871 66.645,21.625 L66.14,20.569 C66.036,20.352 66.098,20.097 66.275,19.95 L66.215,19.824 Z M67.115,22.305 C66.764,22.305 66.441,22.104 66.294,21.792 L65.788,20.738 C65.575,20.291 65.761,19.762 66.211,19.532 L66.325,19.474 L66.602,20.054 L66.49,20.108 C66.358,20.171 66.302,20.329 66.366,20.461 L66.871,21.517 C66.932,21.643 67.096,21.703 67.223,21.641 C67.355,21.578 67.411,21.419 67.348,21.288 L66.843,20.232 C66.741,20.019 66.727,19.776 66.804,19.549 C66.883,19.317 67.048,19.132 67.268,19.026 C67.387,18.969 67.52,18.939 67.653,18.939 C68.003,18.939 68.327,19.14 68.476,19.451 L68.981,20.506 C69.19,20.944 69,21.485 68.558,21.712 L68.443,21.771 L68.166,21.189 L68.279,21.136 C68.343,21.105 68.391,21.052 68.414,20.985 C68.438,20.918 68.434,20.847 68.403,20.784 L67.898,19.728 C67.837,19.601 67.673,19.542 67.545,19.603 C67.481,19.633 67.434,19.687 67.41,19.754 C67.386,19.821 67.39,19.893 67.42,19.956 L67.925,21.012 C68.026,21.222 68.038,21.474 67.957,21.703 C67.876,21.933 67.713,22.116 67.499,22.218 C67.381,22.275 67.248,22.305 67.115,22.305 Z" id="Fill-57"></path>
            <polyline id="Fill-58" points="68.922 23.817 69.51 25.678 70.627 25.325 70.744 25.697 68.139 26.521 68.021 26.148 69.138 25.795 68.55 23.934 67.433 24.287 67.315 23.915 69.921 23.092 70.038 23.464 68.922 23.817"></polyline>
            <path d="M68.178,26.23 L68.22,26.364 L70.587,25.616 L70.545,25.482 L69.428,25.834 L68.765,23.735 L69.881,23.382 L69.839,23.249 L67.472,23.996 L67.514,24.13 L68.631,23.777 L69.294,25.877 L68.178,26.23 Z M68.057,26.677 L67.863,26.067 L68.981,25.714 L68.468,24.091 L67.351,24.444 L67.159,23.833 L70.002,22.935 L70.195,23.545 L69.079,23.898 L69.591,25.521 L70.709,25.168 L70.901,25.779 L68.057,26.677 Z" id="Fill-59"></path>
            <path d="M69.112,32.722 L69.021,31.557 C68.988,31.133 69.3,30.766 69.738,30.719 L69.769,31.108 C69.555,31.124 69.394,31.313 69.41,31.527 L69.501,32.692 C69.518,32.906 69.706,33.067 69.919,33.05 C70.133,33.033 70.294,32.845 70.277,32.632 L70.187,31.466 C70.154,31.05 70.465,30.663 70.903,30.629 C71.314,30.597 71.707,30.91 71.74,31.345 L71.832,32.51 C71.863,32.926 71.545,33.303 71.115,33.348 L71.084,32.96 C71.299,32.943 71.459,32.755 71.442,32.541 L71.353,31.375 C71.336,31.162 71.146,31.001 70.934,31.018 C70.721,31.034 70.559,31.223 70.575,31.436 L70.666,32.602 C70.697,33.009 70.381,33.405 69.949,33.438 C69.537,33.47 69.146,33.157 69.112,32.722" id="Fill-60"></path>
            <path d="M69.624,30.869 C69.325,30.957 69.122,31.234 69.146,31.547 L69.237,32.712 C69.265,33.067 69.585,33.339 69.939,33.314 C70.293,33.287 70.568,32.965 70.542,32.611 L70.451,31.446 C70.44,31.309 70.483,31.177 70.573,31.072 C70.663,30.967 70.788,30.903 70.924,30.893 L70.964,30.891 C71.231,30.891 71.456,31.1 71.477,31.366 L71.567,32.531 C71.585,32.771 71.436,32.986 71.217,33.059 L71.229,33.198 C71.523,33.109 71.73,32.828 71.707,32.52 L71.616,31.355 C71.589,31 71.267,30.729 70.913,30.753 C70.737,30.767 70.578,30.849 70.464,30.985 C70.352,31.118 70.298,31.286 70.311,31.456 L70.402,32.622 C70.413,32.758 70.369,32.891 70.279,32.996 C70.19,33.101 70.065,33.164 69.929,33.174 L69.888,33.176 C69.622,33.176 69.397,32.967 69.377,32.702 L69.286,31.536 C69.275,31.399 69.318,31.266 69.408,31.162 C69.47,31.09 69.548,31.037 69.635,31.008 L69.624,30.869 Z M69.891,33.566 C69.421,33.566 69.024,33.199 68.988,32.732 L68.897,31.567 C68.858,31.075 69.222,30.648 69.725,30.595 L69.853,30.582 L69.903,31.223 L69.778,31.233 C69.708,31.238 69.644,31.27 69.598,31.324 C69.552,31.378 69.529,31.447 69.535,31.517 L69.626,32.682 C69.636,32.819 69.752,32.926 69.888,32.926 C69.979,32.92 70.044,32.887 70.09,32.833 C70.136,32.78 70.158,32.711 70.153,32.641 L70.062,31.476 C70.044,31.239 70.119,31.008 70.272,30.824 C70.43,30.637 70.65,30.523 70.894,30.504 C71.393,30.464 71.827,30.846 71.865,31.336 L71.956,32.501 C71.993,32.985 71.622,33.42 71.128,33.472 L71.001,33.486 L70.949,32.845 L71.074,32.835 C71.22,32.824 71.329,32.696 71.318,32.551 L71.228,31.385 C71.217,31.249 71.102,31.141 70.964,31.141 C70.874,31.147 70.81,31.18 70.763,31.234 C70.717,31.288 70.694,31.356 70.7,31.426 L70.79,32.592 C70.828,33.081 70.447,33.526 69.959,33.563 C69.937,33.565 69.914,33.566 69.891,33.566 Z" id="Fill-61"></path>
            <polyline id="Fill-62" points="69.968 36.48 69.11 36.435 69.131 36.045 69.987 36.09 71.334 34.989 71.919 35.02 71.898 35.41 71.474 35.387 70.352 36.304 71.371 37.335 71.795 37.357 71.775 37.747 71.19 37.716 69.968 36.48"></polyline>
            <path d="M71.245,37.593 L71.657,37.615 L71.664,37.476 L71.316,37.457 L70.166,36.295 L71.432,35.26 L71.78,35.278 L71.788,35.138 L71.376,35.117 L70.029,36.217 L69.249,36.176 L69.242,36.317 L70.022,36.358 L71.245,37.593 Z M71.894,37.879 L71.136,37.838 L69.913,36.602 L68.979,36.553 L69.013,35.914 L69.946,35.962 L71.293,34.862 L72.05,34.902 L72.017,35.542 L71.515,35.514 L70.537,36.314 L71.426,37.213 L71.926,37.239 L71.894,37.879 Z" id="Fill-63"></path>
            <path d="M68.528,40.896 L68.742,39.743 C68.82,39.325 69.217,39.049 69.652,39.118 L69.581,39.502 C69.37,39.462 69.165,39.604 69.126,39.814 L68.912,40.967 C68.873,41.178 69.014,41.383 69.226,41.422 C69.437,41.461 69.642,41.321 69.681,41.109 L69.895,39.957 C69.971,39.546 70.371,39.25 70.805,39.331 C71.212,39.406 71.511,39.812 71.431,40.242 L71.217,41.395 C71.141,41.805 70.734,42.088 70.307,42.02 L70.378,41.636 C70.589,41.675 70.794,41.535 70.833,41.323 L71.047,40.171 C71.086,39.959 70.945,39.754 70.733,39.715 C70.523,39.676 70.318,39.817 70.278,40.028 L70.064,41.181 C69.99,41.583 69.58,41.885 69.154,41.806 C68.747,41.731 68.449,41.326 68.528,40.896" id="Fill-64"></path>
            <path d="M70.481,41.767 L70.455,41.905 C70.766,41.895 71.039,41.669 71.094,41.372 L71.308,40.219 C71.34,40.047 71.301,39.871 71.198,39.725 C71.099,39.583 70.947,39.484 70.782,39.454 C70.423,39.389 70.081,39.635 70.018,39.98 L69.804,41.132 C69.752,41.406 69.487,41.598 69.203,41.545 C68.923,41.493 68.737,41.223 68.789,40.944 L69.003,39.792 C69.046,39.558 69.244,39.385 69.478,39.371 L69.504,39.232 C69.185,39.239 68.923,39.457 68.865,39.766 L68.651,40.919 C68.587,41.268 68.828,41.618 69.177,41.683 C69.528,41.749 69.879,41.496 69.941,41.158 L70.155,40.006 C70.207,39.731 70.472,39.539 70.756,39.593 C70.891,39.617 71.009,39.694 71.087,39.808 C71.165,39.921 71.195,40.058 71.17,40.193 L70.956,41.345 C70.913,41.579 70.716,41.752 70.481,41.767 Z M70.434,42.155 C70.385,42.155 70.336,42.151 70.287,42.144 L70.16,42.124 L70.278,41.49 L70.401,41.513 C70.547,41.538 70.684,41.441 70.71,41.3 L70.924,40.148 C70.937,40.079 70.921,40.008 70.881,39.949 C70.841,39.891 70.78,39.851 70.711,39.838 C70.563,39.81 70.428,39.909 70.401,40.051 L70.187,41.203 C70.1,41.677 69.619,42.019 69.131,41.929 C68.649,41.84 68.316,41.356 68.405,40.873 L68.619,39.72 C68.709,39.244 69.173,38.916 69.672,38.994 L69.799,39.014 L69.681,39.648 L69.558,39.625 C69.414,39.598 69.275,39.695 69.249,39.837 L69.035,40.99 C69.008,41.134 69.104,41.272 69.248,41.3 C69.4,41.327 69.532,41.228 69.558,41.087 L69.771,39.934 C69.861,39.451 70.324,39.115 70.828,39.208 C71.056,39.25 71.266,39.386 71.403,39.582 C71.544,39.783 71.598,40.026 71.554,40.265 L71.34,41.417 C71.26,41.845 70.879,42.155 70.434,42.155 Z" id="Fill-65"></path>
            <polyline id="Fill-66" points="69.812 45.114 67.584 44.389 67.705 44.017 69.933 44.743 70.295 43.629 70.666 43.75 69.82 46.348 69.449 46.227 69.812 45.114"></polyline>
            <path d="M69.607,46.147 L69.74,46.19 L70.508,43.83 L70.375,43.787 L70.013,44.9 L67.785,44.175 L67.742,44.309 L69.969,45.034 L69.607,46.147 Z M69.9,46.506 L69.291,46.307 L69.654,45.194 L67.426,44.469 L67.625,43.86 L69.853,44.585 L70.215,43.472 L70.824,43.669 L69.9,46.506 Z" id="Fill-67"></path>
            <polyline id="Fill-68" points="67.932 47.853 67.09 49.612 66.738 49.443 67.579 47.685 66.876 47.348 65.866 49.458 65.514 49.29 66.692 46.828 69.155 48.006 67.977 50.468 67.625 50.3 68.635 48.19 67.932 47.853"></polyline>
            <path d="M67.792,50.241 L67.918,50.302 L68.989,48.065 L66.751,46.995 L65.68,49.231 L65.808,49.292 L66.817,47.181 L67.746,47.626 L66.905,49.384 L67.031,49.445 L67.873,47.686 L68.801,48.131 L67.792,50.241 Z M68.036,50.635 L67.458,50.359 L68.468,48.249 L67.99,48.02 L67.148,49.779 L66.572,49.501 L67.413,47.743 L66.935,47.515 L65.925,49.625 L65.347,49.349 L66.634,46.661 L69.322,47.947 L68.036,50.635 Z" id="Fill-69"></path>
            <polyline id="Fill-70" points="66.232 52.084 64.546 50.949 64.764 50.624 67.029 52.15 66.812 52.474 64.756 52.501 65.504 54.416 65.286 54.74 63.021 53.214 63.238 52.89 64.925 54.026 64.177 52.111 66.232 52.084"></polyline>
            <path d="M63.194,53.18 L65.252,54.566 L65.364,54.4 L64.574,52.379 L66.744,52.35 L66.856,52.184 L64.798,50.798 L64.719,50.915 L66.634,52.203 L64.359,52.233 L65.187,54.353 L63.272,53.064 L63.194,53.18 Z M65.32,54.913 L62.847,53.248 L63.204,52.717 L64.663,53.699 L63.995,51.988 L65.831,51.964 L64.373,50.983 L64.729,50.451 L67.203,52.116 L66.879,52.598 L64.938,52.624 L65.644,54.431 L65.32,54.913 Z" id="Fill-71"></path>
            <path d="M7.904,73.619 C7.959,73.734 7.996,73.859 7.996,73.995 C7.996,74.131 7.959,74.255 7.904,74.369 C7.763,74.662 7.468,74.869 7.121,74.869 C6.639,74.869 6.246,74.477 6.246,73.995 C6.246,73.648 6.453,73.353 6.746,73.212 C6.861,73.157 6.985,73.119 7.121,73.119 C7.257,73.119 7.382,73.157 7.496,73.212 C7.675,73.298 7.817,73.441 7.904,73.619 Z M6.246,61.425 C6.246,60.942 6.639,60.55 7.121,60.55 C7.468,60.55 7.763,60.756 7.904,61.05 C7.959,61.164 7.996,61.289 7.996,61.425 C7.996,61.56 7.959,61.685 7.904,61.8 C7.817,61.978 7.675,62.12 7.496,62.208 C7.382,62.263 7.257,62.299 7.121,62.299 C6.985,62.299 6.861,62.263 6.746,62.208 C6.453,62.066 6.246,61.772 6.246,61.425 Z M8.698,61.8 L16.371,61.8 C16.578,61.8 16.746,61.632 16.746,61.425 C16.746,61.218 16.578,61.05 16.371,61.05 L8.698,61.05 C8.528,60.335 7.888,59.8 7.121,59.8 C6.226,59.8 5.496,60.528 5.496,61.425 C5.496,62.191 6.031,62.832 6.746,63.002 L6.746,67.335 L1.121,67.335 C0.914,67.335 0.746,67.503 0.746,67.71 C0.746,67.917 0.914,68.085 1.121,68.085 L6.746,68.085 L6.746,72.417 C6.031,72.588 5.496,73.228 5.496,73.995 C5.496,74.89 6.226,75.619 7.121,75.619 C7.888,75.619 8.528,75.085 8.698,74.369 L16.351,74.369 C16.558,74.369 16.726,74.201 16.726,73.995 C16.726,73.787 16.558,73.62 16.352,73.619 L8.698,73.619 C8.557,73.025 8.091,72.558 7.496,72.417 L7.496,63.002 C8.091,62.86 8.557,62.394 8.698,61.8 Z" id="Fill-72"></path>
            <path d="M26.247,53.334 L28.765,53.334 C29.228,53.334 29.604,53.71 29.604,54.173 C29.604,54.636 29.228,55.012 28.765,55.012 L26.247,55.012 L26.247,53.334 Z M26.247,51.302 L26.247,50.903 L28.188,50.903 C28.651,50.903 29.027,51.28 29.027,51.743 C29.027,52.206 28.651,52.582 28.188,52.582 L26.247,52.582 L26.247,51.302 Z M29.777,52.959 C29.67,52.868 29.553,52.79 29.423,52.731 C29.461,52.683 29.498,52.635 29.531,52.584 C29.685,52.339 29.777,52.052 29.777,51.743 C29.777,50.966 29.218,50.322 28.481,50.183 L28.481,49.248 C28.481,49.041 28.313,48.873 28.106,48.873 C27.899,48.873 27.731,49.041 27.731,49.248 L27.731,50.154 L27.141,50.154 L27.141,49.248 C27.141,49.041 26.973,48.873 26.766,48.873 C26.559,48.873 26.391,49.041 26.391,49.248 L26.391,50.154 L25.122,50.154 C24.915,50.154 24.747,50.322 24.747,50.528 C24.747,50.736 24.915,50.903 25.122,50.903 L25.497,50.903 L25.497,55.012 L25.123,55.012 C24.916,55.012 24.748,55.18 24.748,55.387 C24.748,55.595 24.916,55.763 25.123,55.763 L26.391,55.763 L26.391,56.669 C26.391,56.876 26.559,57.044 26.766,57.044 C26.973,57.044 27.141,56.876 27.141,56.669 L27.141,55.763 L27.731,55.763 L27.731,56.669 C27.731,56.876 27.899,57.044 28.106,57.044 C28.313,57.044 28.481,56.876 28.481,56.669 L28.481,55.763 L28.765,55.763 C29.641,55.763 30.354,55.05 30.354,54.173 C30.354,53.864 30.262,53.577 30.108,53.334 C30.019,53.191 29.906,53.066 29.777,52.959 Z" id="Fill-73"></path>
            <path d="M29.604,18.035 C29.604,18.498 29.228,18.875 28.765,18.875 L26.247,18.875 L26.247,17.197 L28.765,17.197 C29.228,17.197 29.604,17.573 29.604,18.035 Z M26.766,14.766 L28.189,14.766 C28.651,14.766 29.027,15.142 29.027,15.605 C29.027,16.068 28.651,16.445 28.188,16.445 L26.247,16.445 L26.247,14.766 L26.766,14.766 Z M25.122,14.766 L25.497,14.766 L25.497,18.875 L25.123,18.875 C24.916,18.875 24.748,19.043 24.748,19.25 C24.748,19.457 24.916,19.625 25.123,19.625 L26.391,19.625 L26.391,20.531 C26.391,20.738 26.559,20.906 26.766,20.906 C26.973,20.906 27.141,20.738 27.141,20.531 L27.141,19.625 L27.731,19.625 L27.731,20.531 C27.731,20.738 27.899,20.906 28.106,20.906 C28.313,20.906 28.481,20.738 28.481,20.531 L28.481,19.625 L28.765,19.625 C29.641,19.625 30.354,18.911 30.354,18.035 C30.354,17.726 30.262,17.44 30.108,17.197 C30.019,17.053 29.906,16.928 29.777,16.821 C29.67,16.731 29.553,16.653 29.423,16.593 C29.461,16.546 29.498,16.498 29.531,16.446 C29.685,16.201 29.777,15.914 29.777,15.605 C29.777,14.828 29.218,14.183 28.481,14.046 L28.481,13.111 C28.481,12.903 28.313,12.735 28.106,12.735 C27.899,12.735 27.731,12.903 27.731,13.111 L27.731,14.016 L27.141,14.016 L27.141,13.111 C27.141,12.903 26.973,12.735 26.766,12.735 C26.559,12.735 26.391,12.903 26.391,13.111 L26.391,14.016 L25.122,14.016 C24.915,14.016 24.747,14.184 24.747,14.391 C24.747,14.599 24.915,14.766 25.122,14.766 Z" id="Fill-74"></path>
            <path d="M47.111,53.334 L49.629,53.334 C50.092,53.334 50.468,53.71 50.468,54.173 C50.468,54.636 50.092,55.012 49.629,55.012 L47.111,55.012 L47.111,53.334 Z M47.63,50.903 L49.053,50.903 C49.117,50.903 49.174,50.927 49.233,50.94 C49.361,50.969 49.476,51.021 49.574,51.1 C49.68,51.187 49.772,51.288 49.825,51.416 C49.868,51.515 49.892,51.627 49.892,51.743 C49.892,52.165 49.572,52.502 49.165,52.558 C49.127,52.564 49.092,52.582 49.053,52.582 L47.111,52.582 L47.111,50.903 L47.63,50.903 Z M50.287,52.731 C50.506,52.459 50.642,52.118 50.642,51.743 C50.642,51.341 50.487,50.978 50.24,50.697 C50.155,50.6 50.063,50.512 49.956,50.438 C49.854,50.367 49.742,50.31 49.624,50.264 C49.534,50.229 49.442,50.201 49.346,50.183 L49.346,49.248 C49.346,49.041 49.178,48.873 48.971,48.873 C48.764,48.873 48.596,49.041 48.596,49.248 L48.596,50.154 L48.005,50.154 L48.005,49.248 C48.005,49.041 47.837,48.873 47.63,48.873 C47.423,48.873 47.255,49.041 47.255,49.248 L47.255,50.154 L45.986,50.154 C45.779,50.154 45.611,50.322 45.611,50.528 C45.611,50.736 45.779,50.903 45.986,50.903 L46.361,50.903 L46.361,55.012 L45.987,55.012 C45.78,55.012 45.612,55.18 45.612,55.387 C45.612,55.595 45.78,55.763 45.987,55.763 L47.255,55.763 L47.255,56.669 C47.255,56.876 47.423,57.044 47.63,57.044 C47.837,57.044 48.005,56.876 48.005,56.669 L48.005,55.763 L48.596,55.763 L48.596,56.669 C48.596,56.876 48.764,57.044 48.971,57.044 C49.178,57.044 49.346,56.876 49.346,56.669 L49.346,55.763 L49.629,55.763 C50.505,55.763 51.218,55.05 51.218,54.173 C51.218,53.532 50.835,52.982 50.287,52.731 Z" id="Fill-75"></path>
            <path d="M28.03,34.89 L33.05,26.197 L43.089,26.197 L48.108,34.89 L43.089,43.584 L33.05,43.584 L28.03,34.89 Z M45.734,22.222 L51.187,22.222 L52.532,24.551 C52.311,24.759 52.149,25.023 52.071,25.323 C51.962,25.744 52.023,26.181 52.243,26.555 C52.534,27.049 53.07,27.357 53.645,27.357 C53.803,27.357 53.958,27.328 54.109,27.284 L55.6,29.865 L52.914,34.516 L48.758,34.515 L43.735,25.818 L45.734,22.222 Z M22.49,27.357 C23.064,27.357 23.602,27.049 23.892,26.555 C24.112,26.181 24.173,25.744 24.063,25.323 C23.986,25.024 23.825,24.761 23.605,24.553 L24.951,22.222 L30.239,22.222 L32.398,25.825 L27.38,34.515 L23.225,34.516 L20.538,29.865 L22.028,27.285 C22.179,27.33 22.333,27.357 22.49,27.357 Z M30.239,47.557 L24.951,47.557 L23.605,45.227 C24.142,44.718 24.282,43.889 23.893,43.223 C23.523,42.596 22.721,42.31 22.031,42.5 L20.539,39.916 L23.225,35.266 L27.381,35.265 L32.398,43.954 L30.239,47.557 Z M52.242,43.224 C51.853,43.889 51.993,44.72 52.531,45.228 L51.187,47.557 L45.734,47.557 L43.735,43.962 L48.758,35.265 L52.913,35.266 L55.599,39.916 L54.106,42.5 C53.415,42.307 52.612,42.595 52.242,43.224 Z M61.619,30.241 L64.305,34.891 L61.619,39.543 L56.249,39.543 L56.248,39.542 L56.031,39.167 L53.563,34.891 L56.033,30.615 L56.249,30.241 L61.619,30.241 Z M53.643,24.857 C53.952,24.857 54.242,25.022 54.398,25.287 C54.574,25.589 54.545,25.951 54.361,26.221 C54.291,26.325 54.203,26.418 54.088,26.486 C54.086,26.487 54.084,26.487 54.083,26.489 C53.97,26.554 53.843,26.588 53.713,26.598 C53.69,26.6 53.668,26.607 53.645,26.607 C53.331,26.607 53.049,26.446 52.89,26.174 C52.771,25.973 52.738,25.738 52.798,25.512 C52.823,25.411 52.872,25.323 52.929,25.239 C53,25.135 53.089,25.044 53.201,24.978 C53.204,24.975 53.206,24.975 53.209,24.974 C53.322,24.909 53.449,24.876 53.579,24.865 C53.601,24.864 53.621,24.857 53.643,24.857 Z M43.261,16.446 L45.73,12.17 L51.101,12.17 L53.786,16.821 L51.359,21.022 L51.101,21.472 L45.73,21.472 L43.261,17.197 L43.045,16.821 L43.261,16.446 Z M38.069,18.446 C38.836,18.446 39.477,17.911 39.647,17.197 L42.396,17.197 L45.083,21.85 L43.084,25.446 L33.046,25.446 L30.888,21.843 L33.571,17.197 L36.492,17.197 C36.663,17.911 37.303,18.446 38.069,18.446 Z M37.287,16.446 C37.429,16.153 37.723,15.946 38.069,15.946 C38.416,15.946 38.711,16.153 38.853,16.446 C38.907,16.561 38.944,16.686 38.944,16.821 C38.944,16.957 38.907,17.082 38.853,17.197 C38.711,17.489 38.416,17.697 38.069,17.697 C37.723,17.697 37.429,17.489 37.287,17.197 C37.231,17.082 37.194,16.957 37.194,16.821 C37.194,16.686 37.231,16.561 37.287,16.446 Z M30.236,12.17 L32.705,16.446 L32.922,16.821 L30.236,21.472 L24.866,21.472 L22.181,16.821 L24.866,12.17 L30.236,12.17 Z M21.736,25.288 C21.894,25.022 22.183,24.857 22.492,24.857 C22.515,24.857 22.536,24.864 22.559,24.866 C22.688,24.876 22.815,24.91 22.929,24.975 C22.931,24.976 22.933,24.977 22.935,24.978 C23.048,25.044 23.136,25.137 23.208,25.242 C23.264,25.324 23.312,25.412 23.338,25.512 C23.396,25.738 23.364,25.973 23.245,26.175 C23.077,26.461 22.75,26.61 22.429,26.591 C22.3,26.584 22.172,26.556 22.055,26.489 C22.053,26.487 22.05,26.488 22.048,26.486 C21.934,26.419 21.845,26.327 21.774,26.223 C21.59,25.952 21.56,25.59 21.736,25.288 Z M14.52,39.543 L11.834,34.891 L14.52,30.241 L19.89,30.241 L22.575,34.891 L20.106,39.167 L19.89,39.542 L19.89,39.543 L14.52,39.543 Z M22.493,44.924 C22.184,44.923 21.895,44.757 21.738,44.491 C21.62,44.29 21.587,44.055 21.646,43.827 C21.671,43.728 21.72,43.64 21.775,43.557 C21.848,43.452 21.936,43.361 22.049,43.294 C22.051,43.293 22.053,43.292 22.055,43.292 C22.168,43.225 22.295,43.192 22.425,43.181 C22.446,43.18 22.468,43.173 22.49,43.173 C22.8,43.173 23.09,43.338 23.246,43.604 C23.423,43.904 23.393,44.267 23.208,44.538 C23.138,44.642 23.05,44.735 22.936,44.803 C22.934,44.803 22.931,44.804 22.929,44.805 C22.815,44.87 22.688,44.905 22.56,44.915 C22.537,44.916 22.516,44.924 22.493,44.924 Z M32.705,53.334 L30.236,57.61 L24.866,57.61 L22.181,52.959 L24.692,48.609 L24.866,48.307 L30.236,48.307 L32.705,52.584 L32.922,52.959 L32.705,53.334 Z M38.067,51.334 C37.301,51.334 36.661,51.869 36.49,52.584 L33.571,52.584 L30.888,47.936 L33.046,44.334 L43.084,44.334 L45.083,47.929 L42.396,52.584 L39.645,52.584 C39.475,51.869 38.834,51.334 38.067,51.334 Z M38.851,53.334 C38.709,53.627 38.414,53.834 38.067,53.834 C37.721,53.834 37.427,53.627 37.285,53.334 C37.23,53.219 37.192,53.095 37.192,52.959 C37.192,52.823 37.23,52.699 37.285,52.584 C37.427,52.291 37.721,52.084 38.067,52.084 C38.414,52.084 38.709,52.291 38.851,52.584 C38.905,52.699 38.942,52.823 38.942,52.959 C38.942,53.095 38.905,53.219 38.851,53.334 Z M45.73,57.61 L43.261,53.334 L43.045,52.959 L43.261,52.584 L45.73,48.307 L51.101,48.307 L51.144,48.382 L51.359,48.757 L53.786,52.959 L51.101,57.61 L45.73,57.61 Z M54.489,43.827 C54.548,44.055 54.516,44.29 54.396,44.491 C54.231,44.773 53.904,44.921 53.584,44.906 C53.454,44.899 53.325,44.871 53.209,44.805 C53.206,44.804 53.203,44.804 53.2,44.803 C53.087,44.736 52.998,44.644 52.928,44.541 C52.742,44.27 52.712,43.906 52.889,43.604 C53.046,43.338 53.335,43.173 53.646,43.173 C53.668,43.173 53.69,43.18 53.713,43.182 C53.842,43.192 53.97,43.225 54.083,43.292 C54.084,43.293 54.085,43.293 54.087,43.294 C54.2,43.361 54.289,43.453 54.36,43.56 C54.416,43.641 54.464,43.729 54.489,43.827 Z M61.835,40.293 C61.969,40.293 62.093,40.221 62.16,40.105 L65.063,35.079 C65.129,34.964 65.129,34.821 65.063,34.704 L62.16,29.679 C62.093,29.563 61.969,29.491 61.835,29.491 L56.25,29.491 L54.759,26.909 C55.295,26.401 55.435,25.573 55.045,24.908 C54.675,24.281 53.874,23.993 53.186,24.183 L51.793,21.772 L54.544,17.008 C54.61,16.892 54.61,16.75 54.544,16.633 L51.642,11.608 C51.574,11.491 51.45,11.42 51.316,11.42 L45.514,11.42 C45.38,11.42 45.256,11.491 45.189,11.608 L42.396,16.446 L39.647,16.446 C39.477,15.732 38.836,15.197 38.069,15.197 C37.303,15.197 36.663,15.732 36.492,16.446 L33.571,16.446 L30.777,11.608 C30.71,11.491 30.586,11.42 30.452,11.42 L24.649,11.42 C24.516,11.42 24.392,11.491 24.325,11.608 L21.423,16.633 C21.355,16.75 21.355,16.892 21.423,17.008 L24.26,21.921 L22.952,24.184 C22.262,23.992 21.46,24.28 21.09,24.909 C20.7,25.574 20.84,26.404 21.378,26.911 L19.889,29.491 L14.303,29.491 C14.169,29.491 14.045,29.563 13.979,29.679 L11.076,34.704 C11.009,34.821 11.009,34.964 11.076,35.079 L13.979,40.105 C14.045,40.221 14.169,40.293 14.303,40.293 L19.891,40.293 L21.378,42.869 C21.158,43.077 20.997,43.341 20.919,43.64 C20.811,44.06 20.872,44.498 21.092,44.871 C21.382,45.366 21.919,45.673 22.493,45.674 C22.65,45.674 22.806,45.646 22.955,45.6 L24.26,47.859 L21.423,52.772 C21.355,52.887 21.355,53.03 21.423,53.146 L24.325,58.173 C24.392,58.288 24.516,58.36 24.649,58.36 L30.452,58.36 C30.586,58.36 30.71,58.288 30.777,58.173 L33.571,53.334 L36.49,53.334 C36.661,54.049 37.301,54.584 38.067,54.584 C38.834,54.584 39.475,54.049 39.645,53.334 L42.396,53.334 L45.189,58.173 C45.256,58.288 45.38,58.36 45.514,58.36 L51.316,58.36 C51.45,58.36 51.574,58.288 51.642,58.173 L54.544,53.146 C54.61,53.03 54.61,52.887 54.544,52.772 L51.793,48.007 L53.182,45.602 C53.331,45.646 53.485,45.674 53.642,45.674 C54.216,45.674 54.753,45.366 55.043,44.871 C55.263,44.498 55.324,44.06 55.216,43.64 C55.139,43.341 54.978,43.078 54.759,42.87 L56.247,40.293 L61.835,40.293 Z" id="Fill-76"></path>
            <path d="M60.986,36.106 C60.986,36.569 60.61,36.946 60.147,36.946 L57.63,36.946 L57.63,35.266 L60.147,35.266 C60.61,35.266 60.986,35.644 60.986,36.106 Z M58.148,32.837 L59.572,32.837 C60.034,32.837 60.41,33.213 60.41,33.675 C60.41,34.139 60.034,34.515 59.571,34.515 L57.63,34.515 L57.63,32.837 L58.148,32.837 Z M56.13,32.462 C56.13,32.669 56.298,32.837 56.505,32.837 L56.88,32.837 L56.88,36.946 L56.506,36.946 C56.299,36.946 56.131,37.114 56.131,37.321 C56.131,37.528 56.299,37.696 56.506,37.696 L57.773,37.696 L57.773,38.602 C57.773,38.808 57.941,38.977 58.148,38.977 C58.355,38.977 58.523,38.808 58.523,38.602 L58.523,37.696 L59.114,37.696 L59.114,38.602 C59.114,38.808 59.282,38.977 59.489,38.977 C59.696,38.977 59.864,38.808 59.864,38.602 L59.864,37.696 L60.147,37.696 C61.023,37.696 61.736,36.983 61.736,36.106 C61.736,35.465 61.354,34.915 60.806,34.663 C61.024,34.391 61.16,34.051 61.16,33.675 C61.16,32.9 60.601,32.255 59.864,32.117 L59.864,31.181 C59.864,30.973 59.696,30.806 59.489,30.806 C59.282,30.806 59.114,30.973 59.114,31.181 L59.114,32.087 L58.523,32.087 L58.523,31.181 C58.523,30.973 58.355,30.806 58.148,30.806 C57.941,30.806 57.773,30.973 57.773,31.181 L57.773,32.087 L56.505,32.087 C56.298,32.087 56.13,32.255 56.13,32.462 Z" id="Fill-77"></path>
            <path d="M15.9,35.266 L18.418,35.266 C18.881,35.266 19.257,35.644 19.257,36.106 C19.257,36.44 19.058,36.723 18.774,36.859 C18.665,36.911 18.547,36.946 18.418,36.946 L15.9,36.946 L15.9,35.266 Z M16.419,32.837 L17.843,32.837 C17.879,32.837 17.909,32.853 17.944,32.858 C18.076,32.875 18.194,32.921 18.3,32.992 C18.411,33.067 18.503,33.161 18.567,33.279 C18.634,33.399 18.681,33.53 18.681,33.675 C18.681,34.133 18.312,34.504 17.856,34.512 C17.851,34.512 17.847,34.515 17.842,34.515 L15.9,34.515 L15.9,32.837 L16.419,32.837 Z M19.076,34.663 C19.295,34.391 19.431,34.051 19.431,33.675 C19.431,33.244 19.257,32.855 18.978,32.569 C18.89,32.478 18.789,32.4 18.681,32.332 C18.575,32.265 18.46,32.215 18.339,32.175 C18.273,32.153 18.205,32.131 18.135,32.117 L18.135,31.181 C18.135,30.973 17.967,30.806 17.76,30.806 C17.553,30.806 17.385,30.973 17.385,31.181 L17.385,32.087 L16.794,32.087 L16.794,31.181 C16.794,30.973 16.626,30.806 16.419,30.806 C16.212,30.806 16.044,30.973 16.044,31.181 L16.044,32.087 L14.775,32.087 C14.568,32.087 14.4,32.255 14.4,32.462 C14.4,32.669 14.568,32.837 14.775,32.837 L15.15,32.837 L15.15,36.946 L14.776,36.946 C14.569,36.946 14.401,37.114 14.401,37.321 C14.401,37.528 14.569,37.696 14.776,37.696 L16.044,37.696 L16.044,38.602 C16.044,38.808 16.212,38.977 16.419,38.977 C16.626,38.977 16.794,38.808 16.794,38.602 L16.794,37.696 L17.385,37.696 L17.385,38.602 C17.385,38.808 17.553,38.977 17.76,38.977 C17.967,38.977 18.135,38.808 18.135,38.602 L18.135,37.696 L18.418,37.696 C18.549,37.696 18.674,37.675 18.795,37.645 C18.92,37.615 19.038,37.567 19.149,37.509 C19.656,37.243 20.007,36.717 20.007,36.106 C20.007,35.465 19.624,34.915 19.076,34.663 Z" id="Fill-78"></path>
            <path d="M47.111,17.197 L49.629,17.197 C50.092,17.197 50.468,17.573 50.468,18.035 C50.468,18.343 50.294,18.602 50.046,18.748 C49.937,18.812 49.815,18.856 49.681,18.864 C49.662,18.865 49.648,18.875 49.629,18.875 L47.111,18.875 L47.111,17.197 Z M47.63,14.766 L49.054,14.766 C49.516,14.766 49.892,15.142 49.892,15.605 C49.892,16.068 49.516,16.445 49.053,16.445 L47.111,16.445 L47.111,14.766 L47.63,14.766 Z M45.986,14.766 L46.361,14.766 L46.361,18.875 L45.987,18.875 C45.78,18.875 45.612,19.043 45.612,19.25 C45.612,19.457 45.78,19.625 45.987,19.625 L47.255,19.625 L47.255,20.531 C47.255,20.738 47.423,20.906 47.63,20.906 C47.837,20.906 48.005,20.738 48.005,20.531 L48.005,19.625 L48.596,19.625 L48.596,20.531 C48.596,20.738 48.764,20.906 48.971,20.906 C49.178,20.906 49.346,20.738 49.346,20.531 L49.346,19.625 L49.629,19.625 C49.648,19.625 49.665,19.62 49.684,19.619 C49.821,19.615 49.952,19.59 50.078,19.552 C50.2,19.515 50.316,19.466 50.425,19.403 C50.897,19.128 51.218,18.62 51.218,18.035 C51.218,17.394 50.835,16.844 50.287,16.593 C50.506,16.321 50.642,15.98 50.642,15.605 C50.642,14.828 50.082,14.183 49.346,14.046 L49.346,13.111 C49.346,12.903 49.178,12.735 48.971,12.735 C48.764,12.735 48.596,12.903 48.596,13.111 L48.596,14.016 L48.005,14.016 L48.005,13.111 C48.005,12.903 47.837,12.735 47.63,12.735 C47.423,12.735 47.255,12.903 47.255,13.111 L47.255,14.016 L45.986,14.016 C45.779,14.016 45.611,14.184 45.611,14.391 C45.611,14.599 45.779,14.766 45.986,14.766 Z" id="Fill-79"></path>
            <path d="M34.161,40.862 L30.254,34.093 L34.161,27.325 L41.977,27.325 L45.885,34.093 L41.977,40.862 L34.161,40.862 Z M46.643,33.906 L42.518,26.763 C42.45,26.646 42.326,26.575 42.192,26.575 L33.944,26.575 C33.811,26.575 33.687,26.646 33.62,26.763 L29.496,33.906 C29.429,34.021 29.429,34.165 29.496,34.281 L33.62,41.424 C33.687,41.54 33.811,41.612 33.944,41.612 L42.192,41.612 C42.326,41.612 42.45,41.54 42.518,41.424 L46.643,34.281 C46.709,34.165 46.709,34.021 46.643,33.906 Z" id="Fill-80"></path>
            <path d="M36.059,34.467 L39.796,34.467 C40.541,34.467 41.147,35.073 41.147,35.819 C41.147,36.564 40.541,37.169 39.796,37.169 L36.059,37.169 L36.059,34.467 Z M36.955,31.015 L38.975,31.015 C39.719,31.015 40.324,31.62 40.324,32.365 C40.324,33.11 39.718,33.716 38.973,33.716 L36.059,33.716 L36.059,31.015 L36.955,31.015 Z M40.468,33.838 C40.842,33.458 41.074,32.938 41.074,32.365 C41.074,31.295 40.268,30.42 39.232,30.291 L39.232,28.821 C39.232,28.614 39.065,28.446 38.857,28.446 C38.65,28.446 38.482,28.614 38.482,28.821 L38.482,30.264 L37.33,30.264 L37.33,28.821 C37.33,28.614 37.162,28.446 36.955,28.446 C36.748,28.446 36.58,28.614 36.58,28.821 L36.58,30.264 L34.616,30.264 C34.409,30.264 34.241,30.432 34.241,30.639 C34.241,30.847 34.409,31.015 34.616,31.015 L35.309,31.015 L35.309,34.082 C35.309,34.085 35.307,34.088 35.307,34.091 C35.307,34.095 35.309,34.097 35.309,34.1 L35.309,37.169 L34.618,37.169 C34.411,37.169 34.243,37.337 34.243,37.544 C34.243,37.752 34.411,37.92 34.618,37.92 L35.677,37.92 C35.679,37.92 35.682,37.921 35.684,37.921 C35.687,37.921 35.689,37.92 35.691,37.92 L36.58,37.92 L36.58,39.367 C36.58,39.573 36.748,39.741 36.955,39.741 C37.162,39.741 37.33,39.573 37.33,39.367 L37.33,37.92 L38.482,37.92 L38.482,39.367 C38.482,39.573 38.65,39.741 38.857,39.741 C39.065,39.741 39.232,39.573 39.232,39.367 L39.232,37.92 L39.796,37.92 C40.954,37.92 41.897,36.977 41.897,35.819 C41.897,34.896 41.296,34.12 40.468,33.838 Z" id="Fill-81"></path>
            <path d="M69.892,73.995 C69.892,74.477 69.499,74.869 69.017,74.869 C68.67,74.869 68.376,74.662 68.234,74.369 C68.179,74.255 68.142,74.131 68.142,73.995 C68.142,73.859 68.179,73.734 68.234,73.619 C68.32,73.441 68.463,73.299 68.642,73.212 C68.757,73.157 68.881,73.119 69.017,73.119 C69.152,73.119 69.277,73.157 69.392,73.212 C69.685,73.353 69.892,73.648 69.892,73.995 Z M68.234,61.8 C68.179,61.685 68.142,61.56 68.142,61.425 C68.142,61.289 68.179,61.164 68.234,61.05 C68.376,60.756 68.67,60.55 69.017,60.55 C69.499,60.55 69.892,60.942 69.892,61.425 C69.892,61.772 69.685,62.066 69.392,62.208 C69.277,62.263 69.152,62.299 69.017,62.299 C68.881,62.299 68.757,62.263 68.642,62.208 C68.463,62.12 68.32,61.978 68.234,61.8 Z M75.017,67.335 L69.392,67.335 L69.392,63.002 C70.106,62.832 70.642,62.191 70.642,61.425 C70.642,60.528 69.913,59.8 69.017,59.8 C68.25,59.8 67.61,60.335 67.439,61.05 L59.787,61.05 C59.58,61.05 59.412,61.218 59.412,61.425 C59.412,61.632 59.58,61.799 59.787,61.8 L67.439,61.8 C67.581,62.394 68.048,62.86 68.642,63.002 L68.642,72.417 C68.048,72.558 67.581,73.025 67.439,73.619 L59.767,73.619 C59.56,73.619 59.392,73.787 59.392,73.995 C59.392,74.201 59.56,74.369 59.767,74.369 L67.439,74.369 C67.61,75.085 68.25,75.619 69.017,75.619 C69.913,75.619 70.642,74.89 70.642,73.995 C70.642,73.228 70.106,72.588 69.392,72.417 L69.392,68.085 L75.017,68.085 C75.224,68.085 75.392,67.917 75.392,67.71 C75.392,67.503 75.224,67.335 75.017,67.335 Z" id="Fill-82"></path>
            <path d="M38.942,75.995 C38.942,76.131 38.905,76.255 38.851,76.369 C38.765,76.547 38.622,76.689 38.445,76.775 C38.33,76.832 38.204,76.869 38.067,76.869 C37.934,76.869 37.81,76.833 37.695,76.779 C37.516,76.693 37.372,76.549 37.285,76.369 C37.23,76.255 37.192,76.131 37.192,75.995 C37.192,75.859 37.23,75.734 37.285,75.619 C37.371,75.44 37.516,75.296 37.695,75.21 C37.81,75.156 37.934,75.119 38.067,75.119 C38.204,75.119 38.33,75.157 38.445,75.214 C38.622,75.301 38.765,75.442 38.851,75.619 C38.905,75.734 38.942,75.859 38.942,75.995 Z M46.062,75.619 L39.645,75.619 C39.503,75.027 39.038,74.561 38.445,74.418 L38.445,73.163 C38.445,72.956 38.277,72.788 38.07,72.788 C37.863,72.788 37.695,72.956 37.695,73.163 L37.695,74.416 C37.1,74.557 36.632,75.024 36.49,75.619 L30.075,75.619 C29.868,75.619 29.7,75.787 29.7,75.995 C29.7,76.201 29.868,76.369 30.075,76.369 L36.49,76.369 C36.632,76.965 37.1,77.431 37.695,77.573 L37.695,78.826 C37.695,79.033 37.863,79.201 38.07,79.201 C38.277,79.201 38.445,79.033 38.445,78.826 L38.445,77.571 C39.038,77.428 39.503,76.963 39.645,76.369 L46.062,76.369 C46.27,76.369 46.437,76.201 46.437,75.995 C46.437,75.787 46.27,75.619 46.062,75.619 Z" id="Fill-83"></path>
        </g>
    </g>
</svg>