<?xml version="1.0" encoding="UTF-8"?>
<svg width="75px" height="76px" viewBox="0 0 75 76" version="1.1" xmlns="http://www.w3.org/2000/svg" xmlns:xlink="http://www.w3.org/1999/xlink">
    <!-- Generator: Sketch 49 (51002) - http://www.bohemiancoding.com/sketch -->
    <title>bitcoin-grey-27</title>
    <desc>Created with Sketch.</desc>
    <defs></defs>
    <g id="Page-1" stroke="none" stroke-width="1" fill="none" fill-rule="evenodd">
        <g id="bitcoin-grey-27" fill="#000000">
            <path d="M38.759,22.916 C38.759,22.071 39.274,21.383 39.908,21.383 L40.481,21.383 L40.481,24.448 L38.759,24.448 L38.759,22.916 Z M31.601,17.562 C31.599,17.565 31.598,17.566 31.596,17.568 C31.448,17.828 31.33,17.956 31.213,17.953 C31.209,17.953 31.205,17.947 31.2,17.947 C31.087,17.936 30.975,17.812 30.835,17.564 C30.835,17.564 30.834,17.563 30.834,17.561 L31.217,16.449 L31.6,17.561 L31.601,17.562 Z M30.379,23.656 C30.867,23.937 31.57,23.936 32.057,23.656 L32.057,24.449 L30.379,24.449 L30.379,23.656 Z M33.345,23.531 L33.345,24.449 L32.807,24.449 L32.807,23.531 C32.832,23.54 32.859,23.538 32.886,23.544 C33.017,23.575 33.153,23.575 33.283,23.541 C33.303,23.536 33.325,23.537 33.345,23.531 Z M29.16,22.416 L30.542,18.407 C30.555,18.418 30.566,18.424 30.579,18.434 C30.621,18.471 30.663,18.504 30.704,18.531 C30.724,18.544 30.743,18.555 30.763,18.566 C30.799,18.587 30.835,18.605 30.871,18.62 C30.89,18.628 30.909,18.635 30.928,18.641 C30.964,18.655 30.999,18.663 31.033,18.671 C31.049,18.674 31.064,18.679 31.08,18.681 C31.128,18.689 31.174,18.693 31.218,18.693 C31.261,18.693 31.307,18.689 31.355,18.681 C31.37,18.679 31.386,18.674 31.401,18.671 C31.436,18.663 31.47,18.655 31.506,18.642 C31.525,18.635 31.544,18.628 31.563,18.619 C31.599,18.605 31.634,18.587 31.67,18.566 C31.69,18.555 31.709,18.544 31.73,18.531 C31.772,18.503 31.815,18.469 31.858,18.431 C31.87,18.423 31.88,18.416 31.892,18.406 L33.274,22.416 L33.157,22.755 C33.038,22.838 32.897,22.763 32.834,22.483 C32.809,22.365 32.706,22.288 32.591,22.241 C32.552,22.224 32.514,22.207 32.472,22.203 C32.458,22.201 32.445,22.189 32.432,22.189 C32.427,22.189 32.423,22.192 32.419,22.192 C32.414,22.192 32.41,22.189 32.405,22.189 C32.394,22.189 32.386,22.199 32.375,22.201 C32.322,22.206 32.277,22.23 32.233,22.254 C32.132,22.31 32.049,22.394 32.033,22.516 C31.989,22.865 31.638,23.127 31.218,23.127 C30.798,23.127 30.447,22.864 30.401,22.515 C30.377,22.328 30.192,22.189 30.004,22.189 C29.998,22.189 29.992,22.193 29.986,22.193 C29.979,22.193 29.973,22.189 29.967,22.189 C29.948,22.189 29.935,22.204 29.917,22.207 C29.886,22.212 29.859,22.225 29.831,22.237 C29.721,22.283 29.628,22.361 29.601,22.483 C29.54,22.757 29.398,22.838 29.277,22.757 L29.16,22.416 Z M29.09,24.448 L29.09,23.531 C29.109,23.538 29.132,23.536 29.152,23.542 C29.282,23.575 29.418,23.575 29.549,23.544 C29.575,23.537 29.604,23.54 29.629,23.531 L29.629,24.449 L29.09,24.449 L29.09,24.448 Z M42.625,19.122 C42.64,19.12 42.654,19.115 42.669,19.115 L43.799,19.115 C43.812,19.115 43.824,19.12 43.837,19.12 C43.968,19.125 44.092,19.157 44.212,19.204 C44.346,19.258 44.473,19.33 44.587,19.429 C44.976,19.768 45.233,20.348 45.233,21.008 L45.233,24.449 L41.231,24.449 L41.231,21.008 C41.231,20.35 41.487,19.772 41.875,19.432 C41.989,19.333 42.116,19.261 42.25,19.207 C42.37,19.159 42.494,19.127 42.625,19.122 Z M42.625,15.673 L43.837,15.673 L43.837,18.37 C43.824,18.37 43.812,18.365 43.799,18.365 L42.669,18.365 C42.654,18.365 42.64,18.37 42.625,18.37 L42.625,15.673 Z M32.807,56.612 L33.345,56.612 L33.345,52.988 L32.807,52.988 L32.807,56.612 Z M29.09,56.612 L29.629,56.612 L29.629,52.988 L29.09,52.988 L29.09,56.612 Z M30.379,56.612 L32.057,56.612 L32.057,52.988 L30.379,52.988 L30.379,56.612 Z M33.345,57.379 C33.444,57.402 33.526,57.48 33.526,57.585 L33.526,58.098 C33.526,58.202 33.444,58.281 33.345,58.304 C33.329,58.307 33.319,58.322 33.303,58.322 L29.132,58.322 C29.115,58.322 29.105,58.307 29.089,58.303 C28.99,58.281 28.908,58.203 28.908,58.098 L28.908,57.585 C28.908,57.481 28.99,57.403 29.089,57.38 C29.089,57.38 29.089,57.38 29.09,57.379 C29.106,57.376 29.116,57.361 29.132,57.361 L33.303,57.361 C33.319,57.361 33.329,57.376 33.345,57.379 Z M33.345,60.882 C33.345,61.368 32.95,61.763 32.464,61.763 L29.97,61.763 C29.484,61.763 29.089,61.368 29.089,60.882 L29.089,59.063 C29.104,59.064 29.117,59.072 29.132,59.072 L33.303,59.072 C33.317,59.072 33.33,59.064 33.345,59.064 L33.345,60.882 Z M44.148,57.003 C44.127,57.128 44.111,57.254 44.089,57.378 C44.078,57.436 44.071,57.494 44.061,57.553 L44.024,57.752 L42.441,57.752 L42.404,57.553 C42.393,57.495 42.386,57.436 42.376,57.378 C42.354,57.254 42.337,57.128 42.316,57.003 C42.09,55.686 41.913,54.347 41.796,52.988 L44.669,52.988 C44.552,54.347 44.375,55.686 44.148,57.003 Z M43.232,60.48 L42.774,58.502 L43.69,58.502 L43.232,60.48 Z M51.323,52.095 C50.859,52.186 50.381,52.236 49.891,52.236 L16.788,52.236 C16.935,50.64 18.282,49.387 19.916,49.387 L20.135,49.387 C20.342,49.387 20.51,49.219 20.51,49.011 L20.51,28.425 C20.51,28.217 20.342,28.049 20.135,28.049 L19.916,28.049 C18.305,28.049 16.973,26.83 16.795,25.198 L26.418,25.198 C26.421,25.198 26.423,25.199 26.426,25.199 L45.262,25.199 C45.264,25.199 45.267,25.198 45.269,25.198 L47.016,25.198 C48.62,25.198 50.105,25.712 51.323,26.576 C53.233,27.931 54.485,30.155 54.485,32.67 C54.485,34.378 53.891,36.049 52.811,37.374 C52.737,37.464 52.71,37.583 52.737,37.697 C52.763,37.81 52.841,37.905 52.948,37.952 C55.631,39.16 57.364,41.833 57.364,44.763 C57.364,48.393 54.761,51.425 51.323,52.095 Z M53.679,37.473 C54.686,36.08 55.235,34.392 55.235,32.67 C55.235,29.718 53.666,27.131 51.323,25.681 C50.069,24.905 48.596,24.448 47.016,24.448 L45.983,24.448 L45.983,21.008 C45.983,19.888 45.402,18.934 44.587,18.551 L44.587,15.298 C44.587,15.09 44.419,14.923 44.212,14.923 L42.25,14.923 C42.043,14.923 41.875,15.09 41.875,15.298 L41.875,18.552 C41.154,18.894 40.626,19.68 40.512,20.633 L39.908,20.633 C38.861,20.633 38.009,21.657 38.009,22.916 L38.009,24.448 L34.095,24.448 L34.095,22.564 C34.095,22.493 34.065,22.431 34.025,22.375 C34.022,22.347 34.034,22.321 34.025,22.294 L32.362,17.471 L31.572,15.175 C31.521,15.024 31.378,14.923 31.218,14.923 C31.058,14.923 30.916,15.024 30.863,15.175 L28.409,22.294 C28.402,22.315 28.413,22.337 28.409,22.359 C28.369,22.419 28.34,22.487 28.34,22.564 L28.34,24.448 L16.399,24.448 C16.192,24.448 16.024,24.7 16.024,24.907 C16.024,27.001 17.686,28.714 19.76,28.796 L19.76,48.639 C17.686,48.722 16.024,50.437 16.024,52.611 C16.024,52.818 16.192,52.986 16.399,52.986 L27.219,52.986 C27.221,52.986 27.222,52.988 27.224,52.988 L28.34,52.988 L28.34,56.982 C28.34,56.984 28.339,56.985 28.339,56.986 L28.339,57.053 C28.234,57.208 28.158,57.385 28.158,57.585 L28.158,58.098 C28.158,58.299 28.234,58.475 28.339,58.631 L28.339,60.882 C28.339,61.782 29.07,62.513 29.97,62.513 L32.464,62.513 C33.363,62.513 34.095,61.782 34.095,60.882 L34.095,58.632 C34.2,58.476 34.276,58.3 34.276,58.098 L34.276,57.585 C34.276,57.384 34.2,57.207 34.095,57.051 L34.095,52.988 L41.045,52.988 C41.18,54.58 41.384,56.153 41.667,57.689 L41.76,58.196 C41.784,58.323 41.879,58.406 41.993,58.453 L42.866,62.218 C42.899,62.372 43.027,62.493 43.19,62.511 C43.204,62.513 43.219,62.514 43.233,62.514 C43.405,62.514 43.558,62.396 43.598,62.223 L44.472,58.452 C44.585,58.406 44.681,58.323 44.705,58.196 L44.798,57.689 C45.081,56.152 45.285,54.58 45.42,52.988 L47.769,52.988 C47.771,52.988 47.771,52.986 47.773,52.986 L49.891,52.986 C50.38,52.986 50.857,52.936 51.323,52.853 C55.176,52.173 58.114,48.808 58.114,44.763 C58.114,41.695 56.388,38.885 53.679,37.473 Z" id="Fill-1"></path>
            <path d="M40.857,40.142 L34.095,40.142 L34.095,37.293 L40.481,37.293 L40.481,38.719 C40.481,38.926 40.648,39.093 40.856,39.093 L40.857,39.093 L40.857,40.142 Z M45.233,36.543 L45.233,38.343 L41.231,38.343 L41.231,28.8 L45.233,28.8 L45.233,36.543 Z M47.013,36.543 L45.983,36.543 L45.983,28.8 L47.016,28.8 C49.148,28.8 50.883,30.536 50.883,32.671 C50.883,34.806 49.147,36.543 47.013,36.543 Z M38.384,30.885 C38.86,30.885 39.263,31.432 39.263,32.08 C39.263,32.728 38.86,33.274 38.384,33.274 C38.177,33.274 38.009,33.443 38.009,33.649 L38.009,35.073 C38.009,35.281 38.177,35.448 38.384,35.448 C38.591,35.448 38.759,35.281 38.759,35.073 L38.759,33.972 C39.477,33.77 40.013,32.998 40.013,32.08 C40.013,31.161 39.477,30.39 38.759,30.188 L38.759,28.8 L40.481,28.8 L40.481,36.543 L34.095,36.543 L34.095,28.8 L38.009,28.8 L38.009,30.511 C38.009,30.718 38.177,30.885 38.384,30.885 Z M32.807,40.892 L32.807,28.8 L33.345,28.8 L33.345,48.636 L32.807,48.636 L32.807,40.892 Z M30.379,40.892 L30.379,28.8 L32.057,28.8 L32.057,48.636 L30.379,48.636 L30.379,40.892 Z M24.111,36.543 L28.339,36.543 L28.339,28.8 L24.111,28.8 L24.111,36.543 Z M29.09,40.892 L29.09,28.8 L29.629,28.8 L29.629,48.636 L29.09,48.636 L29.09,40.892 Z M24.111,48.636 L28.339,48.636 L28.339,40.892 L24.111,40.892 L24.111,48.636 Z M34.095,48.636 L40.858,48.636 L40.858,40.892 L34.095,40.892 L34.095,48.636 Z M41.607,48.636 L44.857,48.636 L44.857,39.093 L41.607,39.093 L41.607,48.636 Z M51.323,48.354 C50.879,48.532 50.397,48.636 49.89,48.636 L45.607,48.636 L45.607,40.892 L49.89,40.892 C50.397,40.892 50.879,40.996 51.323,41.175 C52.749,41.746 53.762,43.137 53.762,44.765 C53.762,46.392 52.749,47.783 51.323,48.354 Z M51.323,40.392 C50.869,40.243 50.393,40.142 49.89,40.142 L45.607,40.142 L45.607,39.093 L45.608,39.093 C45.815,39.093 45.983,38.926 45.983,38.719 L45.983,37.293 L47.013,37.293 C48.987,37.293 50.663,36.041 51.323,34.294 C51.515,33.787 51.633,33.244 51.633,32.671 C51.633,32.097 51.515,31.554 51.323,31.047 C50.664,29.301 48.989,28.049 47.016,28.049 L23.736,28.049 C23.529,28.049 23.361,28.217 23.361,28.425 L23.361,36.918 C23.361,37.125 23.529,37.293 23.736,37.293 L28.34,37.293 L28.34,40.142 L23.736,40.142 C23.529,40.142 23.361,40.31 23.361,40.518 L23.361,49.011 C23.361,49.219 23.529,49.387 23.736,49.387 L49.89,49.387 C50.393,49.387 50.869,49.285 51.323,49.136 C53.168,48.528 54.512,46.81 54.512,44.765 C54.512,42.719 53.168,41 51.323,40.392 Z" id="Fill-2"></path>
            <path d="M10.482,64.344 L10.019,63.896 L13.087,60.732 L15.313,62.891 L14.86,63.357 L13.097,61.647 L12.168,62.605 C12.465,62.68 12.677,62.861 12.885,63.062 L13.576,63.732 L13.12,64.203 L12.428,63.533 C12.225,63.335 12.001,63.159 11.711,63.076 L10.482,64.344" id="Fill-3"></path>
            <path d="M10.125,63.894 L10.481,64.239 L11.657,63.024 C11.676,63.004 11.704,62.996 11.731,63.004 C12.056,63.097 12.292,63.296 12.48,63.479 L13.119,64.097 L13.47,63.734 L12.833,63.116 C12.644,62.934 12.437,62.75 12.15,62.678 C12.124,62.672 12.103,62.652 12.096,62.626 C12.088,62.6 12.095,62.572 12.114,62.553 L13.043,61.595 C13.057,61.581 13.076,61.572 13.096,61.572 C13.096,61.572 13.096,61.572 13.097,61.572 C13.116,61.572 13.135,61.58 13.149,61.593 L14.859,63.251 L15.207,62.893 L13.088,60.838 L10.125,63.894 Z M10.482,64.419 C10.463,64.419 10.444,64.412 10.43,64.398 L9.967,63.95 C9.953,63.936 9.945,63.917 9.944,63.897 C9.944,63.877 9.952,63.858 9.966,63.844 L13.033,60.68 C13.047,60.666 13.066,60.658 13.086,60.657 C13.086,60.657 13.086,60.657 13.087,60.657 C13.106,60.657 13.125,60.665 13.139,60.678 L15.365,62.837 C15.379,62.851 15.388,62.87 15.388,62.89 C15.388,62.91 15.381,62.929 15.367,62.943 L14.914,63.409 C14.885,63.439 14.837,63.439 14.808,63.411 L13.098,61.753 L12.307,62.57 C12.567,62.665 12.76,62.837 12.937,63.008 L13.628,63.678 C13.658,63.707 13.659,63.755 13.63,63.785 L13.174,64.255 C13.146,64.285 13.098,64.286 13.068,64.257 L12.375,63.587 C12.209,63.425 12.004,63.25 11.733,63.161 L10.536,64.397 C10.523,64.411 10.503,64.419 10.483,64.419 C10.483,64.419 10.483,64.419 10.482,64.419 Z" id="Fill-4"></path>
            <path d="M18.15,65.684 C17.341,65.132 16.32,65.287 15.763,66.106 C15.228,66.891 15.513,67.929 16.274,68.447 C17.054,68.979 18.115,68.816 18.653,68.026 C19.198,67.226 18.926,66.212 18.15,65.684 Z M15.907,68.976 C14.805,68.224 14.536,66.785 15.284,65.687 C16.015,64.614 17.477,64.439 18.521,65.15 C19.598,65.885 19.901,67.327 19.16,68.414 C18.429,69.488 16.961,69.693 15.907,68.976 Z" id="Fill-5"></path>
            <path d="M17.134,65.433 C16.611,65.433 16.134,65.694 15.825,66.148 C15.583,66.503 15.505,66.934 15.605,67.36 C15.702,67.77 15.961,68.143 16.316,68.385 C16.601,68.579 16.93,68.681 17.268,68.681 C17.807,68.681 18.29,68.427 18.591,67.984 C19.089,67.253 18.877,66.269 18.108,65.746 C17.808,65.541 17.471,65.433 17.134,65.433 Z M17.268,68.831 C16.899,68.831 16.542,68.72 16.232,68.509 C15.846,68.246 15.565,67.84 15.46,67.394 C15.349,66.926 15.435,66.454 15.701,66.064 C16.039,65.568 16.56,65.283 17.134,65.283 C17.502,65.283 17.868,65.4 18.193,65.621 C19.031,66.193 19.261,67.268 18.715,68.068 C18.385,68.553 17.857,68.831 17.268,68.831 Z M17.141,64.798 C16.403,64.798 15.75,65.137 15.346,65.729 C14.623,66.791 14.888,68.19 15.949,68.913 C16.342,69.181 16.8,69.322 17.273,69.322 C18.021,69.322 18.687,68.976 19.098,68.372 C19.812,67.324 19.54,65.936 18.478,65.212 C18.081,64.941 17.618,64.798 17.141,64.798 Z M17.273,69.472 C16.77,69.472 16.283,69.322 15.865,69.037 C14.734,68.267 14.451,66.776 15.222,65.645 C15.654,65.011 16.353,64.648 17.141,64.648 C17.648,64.648 18.14,64.8 18.562,65.088 C19.694,65.86 19.984,67.339 19.222,68.457 C18.789,69.093 18.06,69.472 17.273,69.472 Z" id="Fill-6"></path>
            <path d="M21.983,69.736 C22.288,69.7 22.55,69.795 22.815,69.91 L23.585,70.244 C23.99,70.42 24.353,70.359 24.54,69.925 C24.724,69.503 24.484,69.225 24.1,69.058 L22.566,68.392 L21.983,69.736 Z M23.03,70.705 L22.559,70.5 C22.299,70.388 22.027,70.302 21.727,70.326 L21.068,71.842 L20.478,71.586 L22.232,67.546 L24.355,68.467 C25.092,68.787 25.442,69.448 25.111,70.212 C24.846,70.824 24.327,71.069 23.679,70.961 L23.713,71.742 C23.806,72.227 23.862,72.348 24.122,72.461 C24.144,72.47 24.16,72.477 24.182,72.486 L24.314,72.537 L24.053,73.138 C23.582,72.934 23.105,72.727 23.073,71.954 L23.03,70.705 Z" id="Fill-7"></path>
            <path d="M22.114,69.653 C22.389,69.653 22.635,69.75 22.845,69.841 L23.614,70.175 C24.016,70.35 24.315,70.256 24.471,69.895 C24.615,69.564 24.48,69.305 24.07,69.127 L22.605,68.491 L22.101,69.653 C22.105,69.653 22.11,69.653 22.114,69.653 Z M23.976,70.411 C23.847,70.411 23.705,70.378 23.555,70.313 L22.786,69.979 C22.547,69.876 22.293,69.775 21.992,69.81 C21.963,69.814 21.939,69.802 21.923,69.781 C21.907,69.759 21.904,69.731 21.915,69.706 L22.498,68.363 C22.505,68.344 22.521,68.33 22.539,68.322 C22.557,68.315 22.578,68.315 22.596,68.323 L24.129,68.989 C24.617,69.201 24.787,69.544 24.609,69.955 C24.446,70.332 24.175,70.411 23.976,70.411 Z M21.828,70.246 C22.125,70.246 22.39,70.345 22.588,70.432 L23.06,70.636 C23.087,70.648 23.104,70.674 23.106,70.702 L23.148,71.951 C23.177,72.641 23.575,72.847 24.014,73.04 L24.214,72.579 L24.092,72.529 C23.801,72.403 23.734,72.251 23.639,71.756 L23.604,70.964 C23.603,70.942 23.612,70.92 23.629,70.905 C23.646,70.89 23.668,70.883 23.691,70.887 C24.324,70.992 24.8,70.743 25.043,70.182 C25.343,69.489 25.068,68.859 24.326,68.536 L22.271,67.644 L20.576,71.547 L21.029,71.744 L21.658,70.296 C21.669,70.27 21.693,70.253 21.721,70.251 C21.757,70.248 21.792,70.246 21.828,70.246 Z M24.053,73.213 C24.042,73.213 24.033,73.211 24.023,73.207 C23.559,73.006 23.032,72.777 22.999,71.957 L22.957,70.755 L22.529,70.569 C22.332,70.484 22.065,70.385 21.777,70.398 L21.137,71.872 C21.129,71.891 21.114,71.905 21.096,71.912 C21.077,71.919 21.056,71.919 21.039,71.911 L20.448,71.655 C20.41,71.638 20.392,71.594 20.409,71.556 L22.164,67.516 C22.18,67.478 22.224,67.461 22.262,67.477 L24.385,68.399 C25.2,68.752 25.512,69.476 25.18,70.242 C24.92,70.842 24.413,71.127 23.758,71.048 L23.788,71.739 C23.878,72.207 23.926,72.294 24.152,72.392 L24.341,72.467 C24.36,72.475 24.375,72.489 24.383,72.508 C24.391,72.527 24.391,72.549 24.383,72.567 L24.122,73.168 C24.109,73.197 24.082,73.213 24.053,73.213 Z" id="Fill-8"></path>
            <path d="M30.828,72.452 C31.112,72.338 31.396,72.356 31.683,72.398 L32.429,72.507 C32.82,72.564 33.106,72.403 33.165,72 C33.226,71.586 32.978,71.407 32.598,71.351 L31.022,71.121 L30.828,72.452 Z M30.573,74.197 L32.213,74.437 C32.569,74.489 33.042,74.355 33.105,73.917 C33.18,73.41 32.755,73.216 32.335,73.155 L31.588,73.046 C31.308,73.005 31.016,72.998 30.733,73.1 L30.573,74.197 Z M32.056,75.064 L29.85,74.742 L30.485,70.387 L32.692,70.709 C33.427,70.817 33.914,71.323 33.802,72.087 C33.748,72.461 33.566,72.762 33.286,72.889 C33.568,73.073 33.812,73.49 33.724,74.091 C33.599,74.955 32.78,75.17 32.056,75.064 Z" id="Fill-9"></path>
            <path d="M31.306,72.291 C31.418,72.291 31.538,72.301 31.693,72.324 L32.44,72.433 C32.807,72.486 33.042,72.33 33.091,71.989 C33.139,71.662 32.979,71.483 32.587,71.425 L31.086,71.206 L30.92,72.342 C31.04,72.308 31.167,72.291 31.306,72.291 Z M32.576,72.593 C32.526,72.593 32.473,72.589 32.418,72.581 L31.672,72.472 C31.523,72.451 31.41,72.441 31.306,72.441 C31.139,72.441 30.992,72.468 30.856,72.522 C30.832,72.532 30.803,72.528 30.782,72.511 C30.761,72.494 30.75,72.468 30.754,72.441 L30.948,71.11 C30.954,71.069 30.994,71.041 31.033,71.047 L32.608,71.277 C33.206,71.365 33.281,71.725 33.239,72.011 C33.186,72.381 32.944,72.593 32.576,72.593 Z M30.658,74.134 L32.224,74.363 C32.268,74.369 32.314,74.373 32.361,74.373 C32.639,74.373 32.981,74.251 33.031,73.907 C33.062,73.701 33.005,73.544 32.859,73.427 C32.738,73.331 32.554,73.263 32.324,73.229 L31.577,73.12 C31.258,73.074 31.021,73.085 30.8,73.156 L30.658,74.134 Z M32.361,74.523 C32.307,74.523 32.253,74.519 32.202,74.511 L30.562,74.272 C30.521,74.266 30.493,74.228 30.499,74.187 L30.659,73.089 C30.663,73.062 30.682,73.038 30.708,73.029 C30.963,72.938 31.235,72.918 31.599,72.972 L32.346,73.081 C32.605,73.119 32.809,73.196 32.952,73.31 C33.141,73.461 33.218,73.669 33.18,73.928 C33.116,74.367 32.699,74.523 32.361,74.523 Z M29.935,74.678 L32.066,74.99 C32.176,75.006 32.286,75.014 32.392,75.014 C32.729,75.014 33.527,74.923 33.65,74.08 C33.734,73.498 33.496,73.115 33.245,72.951 C33.222,72.937 33.209,72.91 33.211,72.883 C33.213,72.855 33.231,72.832 33.255,72.82 C33.503,72.709 33.675,72.438 33.728,72.077 C33.778,71.733 33.702,71.43 33.507,71.2 C33.32,70.979 33.034,70.835 32.681,70.783 L30.549,70.472 L29.935,74.678 Z M32.392,75.164 C32.278,75.164 32.162,75.155 32.045,75.138 L29.839,74.816 C29.819,74.813 29.801,74.803 29.79,74.787 C29.777,74.771 29.772,74.751 29.775,74.731 L30.411,70.376 C30.414,70.356 30.425,70.338 30.44,70.327 C30.457,70.315 30.477,70.31 30.496,70.312 L32.703,70.635 C33.093,70.692 33.411,70.854 33.622,71.104 C33.845,71.367 33.933,71.711 33.876,72.098 C33.824,72.459 33.661,72.744 33.424,72.899 C33.674,73.115 33.882,73.523 33.798,74.102 C33.702,74.767 33.176,75.164 32.392,75.164 Z" id="Fill-10"></path>
            <polyline id="Fill-11" points="36.305 75.393 36.361 70.991 36.993 70.999 36.937 75.401 36.305 75.393"></polyline>
            <path d="M36.381,75.319 L36.862,75.325 L36.917,71.073 L36.436,71.067 L36.381,75.319 Z M36.937,75.476 C36.936,75.476 36.936,75.476 36.936,75.476 L36.304,75.468 C36.284,75.468 36.265,75.46 36.251,75.446 C36.237,75.431 36.23,75.412 36.23,75.392 L36.286,70.99 C36.287,70.949 36.32,70.916 36.361,70.916 C36.362,70.916 36.362,70.916 36.362,70.916 L36.994,70.924 C37.014,70.924 37.033,70.932 37.047,70.947 C37.061,70.961 37.068,70.98 37.068,71 L37.012,75.402 C37.011,75.443 36.978,75.476 36.937,75.476 Z" id="Fill-12"></path>
            <polyline id="Fill-13" points="41.144 71.404 41.563 75.13 40.941 75.2 40.523 71.474 38.965 71.649 38.893 71.005 42.613 70.586 42.685 71.231 41.144 71.404"></polyline>
            <path d="M40.523,71.399 C40.541,71.399 40.557,71.404 40.57,71.415 C40.586,71.427 40.596,71.446 40.598,71.465 L41.008,75.117 L41.48,75.064 L41.069,71.412 C41.067,71.392 41.073,71.373 41.085,71.357 C41.097,71.341 41.115,71.332 41.135,71.329 L42.602,71.165 L42.546,70.669 L38.976,71.071 L39.031,71.566 L40.515,71.399 C40.518,71.399 40.521,71.399 40.523,71.399 Z M40.941,75.275 C40.904,75.275 40.871,75.246 40.867,75.208 L40.458,71.557 L38.973,71.724 C38.952,71.727 38.934,71.72 38.918,71.708 C38.902,71.695 38.893,71.677 38.89,71.657 L38.818,71.013 C38.814,70.972 38.843,70.935 38.884,70.93 L42.604,70.512 C42.625,70.508 42.644,70.515 42.66,70.528 C42.675,70.54 42.685,70.558 42.688,70.578 L42.76,71.222 C42.764,71.263 42.734,71.3 42.693,71.305 L41.227,71.47 L41.638,75.122 C41.64,75.142 41.634,75.161 41.622,75.177 C41.609,75.192 41.591,75.202 41.571,75.204 L40.95,75.274 C40.947,75.275 40.944,75.275 40.941,75.275 Z" id="Fill-14"></path>
            <path d="M48.026,70.292 C47.629,70.061 47.126,69.996 46.644,70.134 C45.701,70.402 45.167,71.285 45.439,72.238 C45.699,73.152 46.68,73.597 47.565,73.344 C48.115,73.187 48.53,72.792 48.721,72.297 L49.248,72.704 C48.958,73.302 48.417,73.77 47.735,73.964 C46.453,74.33 45.175,73.614 44.811,72.337 C44.455,71.089 45.256,69.854 46.471,69.507 C47.106,69.326 47.759,69.417 48.291,69.713 L48.026,70.292" id="Fill-15"></path>
            <path d="M47.135,69.489 C46.918,69.489 46.702,69.52 46.491,69.579 C45.273,69.927 44.552,71.155 44.883,72.317 C45.167,73.314 46.043,73.985 47.062,73.985 C47.28,73.985 47.499,73.954 47.715,73.892 C48.339,73.714 48.86,73.291 49.153,72.726 L48.752,72.416 C48.534,72.904 48.113,73.266 47.585,73.416 C47.416,73.465 47.24,73.489 47.064,73.489 C46.258,73.489 45.577,72.995 45.367,72.259 C45.231,71.782 45.286,71.296 45.521,70.891 C45.753,70.492 46.145,70.198 46.623,70.062 C47.084,69.93 47.586,69.977 47.992,70.187 L48.193,69.746 C47.868,69.578 47.504,69.489 47.135,69.489 Z M47.062,74.135 C45.976,74.135 45.042,73.421 44.738,72.358 C44.385,71.116 45.153,69.805 46.45,69.436 C47.079,69.256 47.765,69.334 48.328,69.647 C48.362,69.666 48.376,69.708 48.359,69.744 L48.095,70.323 C48.086,70.342 48.069,70.357 48.049,70.363 C48.028,70.369 48.007,70.367 47.989,70.357 C47.604,70.134 47.115,70.078 46.664,70.206 C46.223,70.331 45.863,70.602 45.651,70.967 C45.436,71.336 45.387,71.78 45.512,72.218 C45.702,72.888 46.326,73.339 47.064,73.339 C47.227,73.339 47.388,73.316 47.544,73.272 C48.059,73.125 48.462,72.76 48.651,72.27 C48.659,72.247 48.678,72.231 48.701,72.224 C48.722,72.219 48.748,72.223 48.767,72.237 L49.294,72.645 C49.322,72.667 49.331,72.705 49.315,72.737 C49.01,73.368 48.441,73.841 47.756,74.036 C47.527,74.102 47.294,74.135 47.062,74.135 Z" id="Fill-16"></path>
            <path d="M52.181,67.938 C51.307,68.378 50.949,69.345 51.395,70.229 C51.822,71.077 52.867,71.329 53.688,70.916 C54.531,70.49 54.902,69.485 54.472,68.632 C54.037,67.768 53.018,67.516 52.181,67.938 Z M53.973,71.492 C52.783,72.092 51.394,71.629 50.797,70.445 C50.213,69.287 50.768,67.924 51.894,67.356 C53.058,66.77 54.465,67.202 55.057,68.377 C55.641,69.535 55.109,70.918 53.973,71.492 Z" id="Fill-17"></path>
            <path d="M53.009,67.813 C52.738,67.813 52.464,67.879 52.214,68.005 C51.357,68.437 51.04,69.358 51.461,70.196 C51.727,70.721 52.253,71.035 52.87,71.035 C53.141,71.035 53.412,70.971 53.655,70.849 C54.482,70.431 54.812,69.472 54.405,68.666 C54.136,68.132 53.614,67.813 53.009,67.813 Z M52.87,71.185 C52.206,71.185 51.615,70.832 51.328,70.263 C50.874,69.363 51.227,68.335 52.147,67.871 C52.417,67.735 52.715,67.663 53.009,67.663 C53.672,67.663 54.244,68.013 54.539,68.598 C54.984,69.48 54.625,70.527 53.722,70.982 C53.459,71.115 53.164,71.185 52.87,71.185 Z M52.979,67.171 C52.618,67.171 52.255,67.258 51.928,67.423 C50.798,67.993 50.32,69.333 50.864,70.411 C51.258,71.193 52.033,71.679 52.888,71.679 C53.251,71.679 53.604,71.594 53.939,71.425 C55.069,70.855 55.54,69.502 54.99,68.41 C54.605,67.646 53.834,67.171 52.979,67.171 Z M52.888,71.829 C51.977,71.829 51.149,71.312 50.73,70.479 C50.149,69.327 50.656,67.896 51.86,67.289 C52.209,67.114 52.595,67.021 52.979,67.021 C53.891,67.021 54.713,67.527 55.123,68.343 C55.711,69.509 55.21,70.951 54.006,71.559 C53.65,71.738 53.274,71.829 52.888,71.829 Z" id="Fill-18"></path>
            <polyline id="Fill-19" points="58.303 68.811 55.775 65.205 56.293 64.843 58.82 68.448 58.303 68.811"></polyline>
            <path d="M55.88,65.223 L58.321,68.707 L58.715,68.43 L56.274,64.947 L55.88,65.223 Z M58.303,68.886 C58.298,68.886 58.294,68.886 58.29,68.885 C58.27,68.882 58.253,68.87 58.241,68.854 L55.714,65.248 C55.703,65.232 55.698,65.212 55.702,65.192 C55.705,65.172 55.716,65.155 55.732,65.144 L56.25,64.781 C56.283,64.758 56.33,64.765 56.354,64.8 L58.881,68.406 C58.905,68.439 58.897,68.486 58.863,68.51 L58.346,68.873 C58.333,68.882 58.318,68.886 58.303,68.886 Z" id="Fill-20"></path>
            <polyline id="Fill-21" points="57.939 63.696 58.546 63.128 62.902 63.654 60.609 61.2 61.082 60.758 64.085 63.969 63.619 64.404 59.713 63.918 61.777 66.126 61.316 66.557 58.736 63.797 57.939 63.696"></polyline>
            <path d="M58.107,63.642 L58.746,63.723 C58.763,63.725 58.779,63.733 58.791,63.746 L61.32,66.451 L61.671,66.123 L59.658,63.969 C59.637,63.946 59.632,63.912 59.646,63.884 C59.66,63.856 59.693,63.841 59.722,63.843 L63.594,64.325 L63.979,63.965 L61.079,60.864 L60.715,61.204 L62.957,63.603 C62.979,63.626 62.983,63.66 62.969,63.688 C62.955,63.716 62.923,63.731 62.894,63.729 L58.572,63.207 L58.107,63.642 Z M61.316,66.632 C61.294,66.631 61.276,66.623 61.262,66.608 L58.7,63.868 L57.93,63.77 C57.901,63.767 57.877,63.746 57.868,63.719 C57.859,63.691 57.867,63.661 57.888,63.641 L58.495,63.073 C58.511,63.058 58.532,63.051 58.555,63.054 L62.707,63.555 L60.554,61.252 C60.526,61.221 60.527,61.174 60.558,61.146 L61.031,60.703 C61.045,60.689 61.064,60.683 61.085,60.683 C61.104,60.683 61.123,60.692 61.137,60.706 L64.139,63.918 C64.153,63.932 64.16,63.952 64.16,63.971 C64.159,63.991 64.15,64.01 64.136,64.024 L63.67,64.458 C63.654,64.474 63.63,64.479 63.61,64.478 L59.909,64.018 L61.831,66.075 C61.86,66.105 61.858,66.152 61.828,66.181 L61.368,66.612 C61.354,66.625 61.335,66.632 61.316,66.632 Z" id="Fill-22"></path>
            <path d="M3.351,35.734 L1.469,36.651 L3.553,37.675 C3.421,37.512 3.317,37.149 3.331,36.547 L3.351,35.734 Z M0.128,37.187 L0.145,36.478 L4.675,34.466 L4.657,35.186 L4.007,35.459 L3.976,36.799 C3.956,37.601 4.2,38.039 4.38,38.144 L4.584,38.26 L4.567,38.957 L0.676,36.957 L0.128,37.187 Z" id="Fill-23"></path>
            <path d="M1.639,36.651 L3.376,37.504 C3.289,37.275 3.247,36.946 3.256,36.546 L3.273,35.855 L1.639,36.651 Z M3.553,37.75 C3.542,37.75 3.53,37.747 3.52,37.742 L1.436,36.718 C1.41,36.706 1.394,36.68 1.394,36.651 C1.394,36.622 1.41,36.596 1.436,36.584 L3.318,35.666 C3.342,35.655 3.37,35.656 3.392,35.671 C3.414,35.684 3.427,35.709 3.426,35.736 L3.406,36.549 C3.39,37.274 3.544,37.545 3.611,37.627 C3.633,37.655 3.633,37.694 3.611,37.721 C3.597,37.74 3.575,37.75 3.553,37.75 Z M0.676,36.882 C0.688,36.882 0.7,36.885 0.71,36.891 L4.495,38.835 L4.508,38.303 L4.343,38.209 C4.116,38.077 3.881,37.58 3.9,36.798 L3.932,35.458 C3.933,35.428 3.951,35.402 3.978,35.39 L4.583,35.135 L4.597,34.583 L0.218,36.528 L0.206,37.073 L0.648,36.888 C0.657,36.884 0.667,36.882 0.676,36.882 Z M4.567,39.032 C4.556,39.032 4.544,39.029 4.533,39.023 L0.673,37.04 L0.157,37.256 C0.133,37.265 0.106,37.263 0.085,37.249 C0.065,37.234 0.052,37.21 0.053,37.185 L0.069,36.476 C0.07,36.447 0.087,36.421 0.114,36.41 L4.645,34.397 C4.669,34.387 4.696,34.389 4.716,34.403 C4.738,34.418 4.75,34.442 4.75,34.468 L4.732,35.187 C4.731,35.217 4.713,35.243 4.687,35.255 L4.081,35.51 L4.051,36.801 C4.032,37.571 4.26,37.987 4.418,38.079 L4.621,38.195 C4.645,38.209 4.66,38.235 4.659,38.262 L4.643,38.958 C4.642,38.984 4.628,39.008 4.606,39.021 C4.594,39.028 4.581,39.032 4.567,39.032 Z" id="Fill-24"></path>
            <path d="M2.842,31.343 C2.748,31.051 2.789,30.776 2.85,30.493 L3.026,29.674 C3.119,29.241 2.988,28.899 2.525,28.799 C2.075,28.703 1.85,28.992 1.762,29.402 L1.411,31.035 L2.842,31.343 Z M3.587,30.126 L3.479,30.628 C3.419,30.906 3.389,31.189 3.472,31.479 L5.088,31.826 L4.953,32.455 L0.647,31.53 L1.133,29.267 C1.302,28.482 1.88,28.008 2.694,28.183 C3.347,28.323 3.689,28.783 3.71,29.44 L4.469,29.253 C4.926,29.068 5.033,28.988 5.093,28.711 C5.098,28.688 5.102,28.67 5.106,28.647 L5.131,28.507 L5.772,28.645 C5.664,29.148 5.554,29.656 4.802,29.838 L3.587,30.126 Z" id="Fill-25"></path>
            <path d="M1.5,30.978 L2.738,31.244 C2.681,30.972 2.725,30.717 2.777,30.478 L2.953,29.658 C3.018,29.357 2.993,28.976 2.51,28.873 C2.155,28.797 1.93,28.98 1.835,29.417 L1.5,30.978 Z M2.842,31.418 C2.837,31.418 2.832,31.417 2.827,31.416 L1.395,31.109 C1.375,31.104 1.358,31.093 1.348,31.076 C1.337,31.059 1.333,31.039 1.337,31.02 L1.688,29.386 C1.8,28.867 2.1,28.631 2.541,28.726 C3.006,28.826 3.209,29.177 3.1,29.689 L2.923,30.509 C2.868,30.764 2.822,31.037 2.914,31.32 C2.922,31.345 2.916,31.374 2.898,31.393 C2.883,31.409 2.863,31.418 2.842,31.418 Z M0.735,31.472 L4.895,32.366 L4.999,31.883 L3.456,31.552 C3.429,31.546 3.407,31.526 3.399,31.499 C3.307,31.176 3.351,30.87 3.405,30.613 L3.514,30.111 C3.52,30.082 3.542,30.06 3.57,30.053 L4.785,29.765 C5.456,29.602 5.58,29.171 5.682,28.703 L5.191,28.597 L5.166,28.728 C5.099,29.038 4.963,29.133 4.498,29.323 L3.728,29.513 C3.705,29.518 3.682,29.514 3.665,29.5 C3.646,29.486 3.636,29.465 3.635,29.443 C3.614,28.796 3.283,28.386 2.679,28.256 C1.95,28.1 1.374,28.504 1.206,29.282 L0.735,31.472 Z M4.953,32.53 C4.947,32.53 4.942,32.53 4.937,32.528 L0.631,31.603 C0.59,31.594 0.564,31.554 0.573,31.514 L1.06,29.251 C1.218,28.512 1.707,28.072 2.367,28.072 C2.478,28.072 2.593,28.085 2.71,28.11 C3.351,28.247 3.728,28.685 3.78,29.346 L4.451,29.18 C4.892,29.001 4.967,28.937 5.02,28.695 L5.057,28.495 C5.061,28.475 5.072,28.457 5.089,28.445 C5.106,28.434 5.127,28.43 5.146,28.434 L5.787,28.572 C5.828,28.581 5.854,28.621 5.845,28.661 C5.738,29.156 5.618,29.717 4.82,29.911 L3.65,30.188 L3.552,30.644 C3.503,30.871 3.464,31.139 3.532,31.415 L5.104,31.753 C5.144,31.761 5.17,31.801 5.161,31.842 L5.026,32.471 C5.022,32.49 5.01,32.507 4.993,32.518 C4.981,32.526 4.967,32.53 4.953,32.53 Z" id="Fill-26"></path>
            <polyline id="Fill-27" points="3.574 23.723 7.054 25.116 6.821 25.696 3.342 24.303 2.76 25.757 2.158 25.517 3.549 22.043 4.151 22.284 3.574 23.723"></polyline>
            <path d="M2.256,25.475 L2.718,25.66 L3.273,24.275 C3.288,24.237 3.331,24.218 3.37,24.233 L6.78,25.598 L6.956,25.158 L3.546,23.793 C3.528,23.785 3.513,23.771 3.505,23.753 C3.498,23.734 3.497,23.714 3.504,23.695 L4.053,22.326 L3.59,22.141 L2.256,25.475 Z M2.76,25.833 C2.75,25.833 2.741,25.831 2.732,25.827 L2.13,25.587 C2.112,25.579 2.097,25.565 2.089,25.547 C2.082,25.528 2.081,25.508 2.088,25.489 L3.479,22.015 C3.487,21.996 3.501,21.982 3.52,21.974 C3.537,21.966 3.558,21.965 3.577,21.973 L4.179,22.215 C4.217,22.23 4.236,22.274 4.221,22.312 L3.672,23.681 L7.081,25.046 C7.1,25.054 7.115,25.068 7.123,25.086 C7.13,25.105 7.131,25.125 7.123,25.144 L6.891,25.724 C6.876,25.762 6.833,25.781 6.794,25.765 L3.384,24.4 L2.83,25.785 C2.818,25.815 2.79,25.833 2.76,25.833 Z" id="Fill-28"></path>
            <path d="M8.894,15.306 C8.422,15.305 8.062,15.588 7.859,15.856 C7.625,16.168 7.429,16.722 7.877,17.059 C8.155,17.269 8.494,17.162 8.714,16.87 L9.104,16.351 L9.59,16.776 L9.221,17.266 C8.979,17.586 8.852,18.089 9.272,18.405 C9.55,18.614 9.923,18.659 10.392,18.036 C10.7,17.626 10.804,16.988 10.718,16.494 L10.165,16.011 L9.892,16.375 L9.41,15.945 L10.322,14.734 L10.804,15.163 L10.545,15.507 L12.016,16.792 L11.64,17.292 L11.222,16.933 C11.271,17.516 11.119,18.081 10.877,18.402 C10.203,19.298 9.483,19.362 8.897,18.921 C8.407,18.552 8.319,18.072 8.328,17.716 C8.038,17.816 7.788,17.805 7.534,17.614 C7.123,17.304 6.566,16.494 7.348,15.457 C7.77,14.896 8.31,14.718 8.758,14.701 L8.894,15.306" id="Fill-29"></path>
            <path d="M8.328,17.641 C8.343,17.641 8.359,17.646 8.372,17.656 C8.392,17.67 8.403,17.693 8.403,17.718 C8.391,18.198 8.572,18.583 8.942,18.862 C9.547,19.315 10.231,19.136 10.817,18.357 C11.062,18.031 11.192,17.475 11.147,16.939 C11.145,16.909 11.161,16.88 11.188,16.866 C11.214,16.852 11.248,16.856 11.271,16.876 L11.628,17.183 L11.914,16.802 L10.496,15.564 C10.466,15.538 10.461,15.494 10.485,15.462 L10.702,15.173 L10.333,14.844 L9.512,15.935 L9.881,16.264 L10.105,15.966 C10.118,15.95 10.137,15.939 10.157,15.937 C10.179,15.935 10.199,15.941 10.214,15.955 L10.767,16.437 C10.78,16.449 10.789,16.464 10.792,16.481 C10.873,16.944 10.799,17.619 10.452,18.081 C10.038,18.631 9.616,18.759 9.228,18.465 C9.017,18.307 8.912,18.089 8.923,17.834 C8.933,17.629 9.017,17.412 9.161,17.221 L9.488,16.786 L9.116,16.46 L8.774,16.915 C8.524,17.247 8.122,17.338 7.832,17.119 C7.611,16.953 7.509,16.718 7.538,16.441 C7.559,16.234 7.654,16.004 7.799,15.811 C7.924,15.646 8.262,15.272 8.801,15.234 L8.699,14.78 C8.324,14.806 7.816,14.959 7.408,15.502 C7.077,15.941 6.962,16.374 7.066,16.79 C7.175,17.222 7.486,17.484 7.579,17.554 C7.797,17.718 8.011,17.746 8.303,17.645 C8.311,17.642 8.319,17.641 8.328,17.641 Z M9.629,19.262 C9.361,19.262 9.1,19.167 8.853,18.981 C8.468,18.692 8.267,18.301 8.253,17.817 C7.96,17.895 7.722,17.849 7.489,17.673 C7.357,17.574 7.038,17.293 6.921,16.826 C6.807,16.371 6.934,15.882 7.288,15.412 C7.755,14.791 8.344,14.642 8.755,14.626 C8.789,14.626 8.824,14.649 8.831,14.685 L8.962,15.268 C8.969,15.279 8.973,15.292 8.973,15.306 C8.973,15.347 8.94,15.381 8.898,15.381 C8.896,15.381 8.895,15.381 8.894,15.381 C8.367,15.381 8.037,15.745 7.919,15.902 C7.79,16.073 7.705,16.275 7.687,16.456 C7.664,16.682 7.743,16.865 7.922,16.999 C8.15,17.171 8.451,17.093 8.654,16.824 L9.044,16.305 C9.057,16.289 9.076,16.278 9.097,16.276 C9.117,16.274 9.139,16.281 9.154,16.294 L9.64,16.719 C9.669,16.745 9.674,16.789 9.65,16.821 L9.281,17.311 C9.157,17.476 9.082,17.668 9.073,17.841 C9.064,18.047 9.146,18.216 9.317,18.345 C9.648,18.593 9.969,18.472 10.332,17.991 C10.6,17.634 10.729,17.038 10.648,16.533 L10.176,16.121 L9.952,16.42 C9.939,16.436 9.92,16.447 9.899,16.449 C9.877,16.451 9.857,16.445 9.842,16.43 L9.36,16.001 C9.331,15.975 9.327,15.931 9.35,15.9 L10.262,14.689 C10.275,14.672 10.294,14.661 10.315,14.659 C10.334,14.657 10.356,14.664 10.372,14.678 L10.854,15.107 C10.883,15.133 10.887,15.177 10.864,15.208 L10.647,15.496 L12.065,16.735 C12.095,16.761 12.099,16.805 12.076,16.837 L11.7,17.337 C11.687,17.354 11.668,17.364 11.648,17.366 C11.623,17.37 11.606,17.362 11.591,17.349 L11.306,17.104 C11.314,17.618 11.175,18.131 10.937,18.447 C10.536,18.98 10.084,19.262 9.629,19.262 Z" id="Fill-30"></path>
            <path d="M15.372,8.329 C14.586,8.914 14.399,9.93 14.992,10.726 C15.56,11.488 16.635,11.556 17.374,11.006 C18.131,10.442 18.324,9.385 17.752,8.617 C17.174,7.841 16.125,7.768 15.372,8.329 Z M17.753,11.526 C16.683,12.323 15.233,12.107 14.439,11.041 C13.663,10 13.975,8.559 14.988,7.804 C16.035,7.024 17.499,7.209 18.285,8.265 C19.062,9.307 18.776,10.764 17.753,11.526 Z" id="Fill-31"></path>
            <path d="M16.452,8.037 C16.089,8.037 15.721,8.162 15.417,8.389 C14.645,8.964 14.492,9.928 15.052,10.681 C15.342,11.069 15.794,11.292 16.292,11.292 C16.661,11.292 17.029,11.169 17.329,10.946 C17.683,10.682 17.917,10.302 17.988,9.875 C18.059,9.445 17.954,9.014 17.692,8.662 C17.396,8.265 16.944,8.037 16.452,8.037 Z M16.292,11.442 C15.746,11.442 15.25,11.197 14.932,10.77 C14.329,9.961 14.499,8.886 15.327,8.269 C15.657,8.023 16.057,7.887 16.452,7.887 C16.992,7.887 17.488,8.137 17.813,8.572 C18.099,8.957 18.214,9.429 18.136,9.9 C18.059,10.365 17.804,10.779 17.419,11.066 C17.093,11.309 16.693,11.442 16.292,11.442 Z M16.42,7.4 C15.92,7.4 15.441,7.561 15.033,7.864 C14.549,8.225 14.224,8.745 14.116,9.329 C14.006,9.925 14.143,10.518 14.499,10.996 C14.942,11.591 15.609,11.932 16.329,11.932 C16.822,11.932 17.299,11.771 17.709,11.465 C18.194,11.104 18.518,10.579 18.62,9.988 C18.724,9.387 18.584,8.791 18.225,8.31 C17.794,7.732 17.137,7.4 16.42,7.4 Z M16.329,12.082 C15.561,12.082 14.851,11.719 14.379,11.086 C13.997,10.573 13.852,9.94 13.969,9.301 C14.083,8.68 14.429,8.127 14.943,7.744 C15.377,7.421 15.888,7.25 16.42,7.25 C17.185,7.25 17.886,7.604 18.345,8.22 C18.729,8.735 18.879,9.372 18.768,10.013 C18.659,10.643 18.314,11.201 17.798,11.586 C17.363,11.91 16.855,12.082 16.329,12.082 Z" id="Fill-32"></path>
            <path d="M22.095,8.672 L21.517,8.955 L19.577,5.003 L22.358,3.638 L22.645,4.221 L20.44,5.302 L21.028,6.5 C21.199,6.245 21.44,6.107 21.7,5.979 L22.564,5.556 L22.852,6.144 L21.989,6.568 C21.734,6.692 21.493,6.844 21.317,7.088 L22.095,8.672" id="Fill-33"></path>
            <path d="M19.678,5.037 L21.551,8.855 L21.994,8.638 L21.25,7.121 C21.238,7.096 21.24,7.067 21.256,7.044 C21.455,6.768 21.734,6.609 21.956,6.5 L22.751,6.11 L22.529,5.656 L21.733,6.047 C21.499,6.162 21.256,6.295 21.09,6.541 C21.076,6.564 21.052,6.575 21.023,6.575 C20.997,6.573 20.973,6.557 20.961,6.533 L20.373,5.335 C20.364,5.318 20.363,5.297 20.37,5.278 C20.376,5.26 20.39,5.244 20.407,5.235 L22.544,4.187 L22.324,3.738 L19.678,5.037 Z M21.517,9.03 C21.489,9.03 21.463,9.015 21.45,8.988 L19.51,5.036 C19.501,5.018 19.5,4.997 19.506,4.979 C19.513,4.96 19.526,4.944 19.544,4.936 L22.325,3.571 C22.363,3.553 22.408,3.568 22.426,3.605 L22.712,4.188 C22.721,4.206 22.722,4.226 22.715,4.245 C22.709,4.264 22.695,4.279 22.678,4.288 L20.541,5.337 L21.042,6.357 C21.22,6.144 21.447,6.02 21.667,5.912 L22.53,5.488 C22.549,5.479 22.569,5.478 22.588,5.485 C22.606,5.491 22.622,5.505 22.631,5.523 L22.919,6.111 C22.938,6.148 22.922,6.193 22.885,6.211 L22.022,6.635 C21.814,6.737 21.581,6.87 21.405,7.096 L22.162,8.639 C22.171,8.657 22.172,8.677 22.166,8.696 C22.159,8.715 22.146,8.73 22.128,8.739 L21.55,9.023 C21.54,9.028 21.528,9.03 21.517,9.03 Z" id="Fill-34"></path>
            <path d="M26.963,6.627 L26.347,6.813 L25.076,2.595 L28.044,1.7 L28.231,2.322 L25.88,3.031 L26.265,4.309 C26.475,4.085 26.735,3.988 27.013,3.905 L27.934,3.627 L28.123,4.254 L27.202,4.532 C26.931,4.614 26.667,4.724 26.454,4.937 L26.963,6.627" id="Fill-35"></path>
            <path d="M25.169,2.645 L26.397,6.719 L26.87,6.577 L26.382,4.958 C26.375,4.932 26.381,4.903 26.401,4.883 C26.639,4.646 26.928,4.537 27.18,4.461 L28.03,4.204 L27.884,3.721 L27.034,3.977 C26.784,4.052 26.523,4.143 26.319,4.36 C26.301,4.379 26.272,4.388 26.248,4.382 C26.221,4.375 26.201,4.356 26.193,4.33 L25.808,3.053 C25.796,3.013 25.818,2.971 25.858,2.959 L28.138,2.272 L27.994,1.794 L25.169,2.645 Z M26.347,6.888 C26.315,6.888 26.285,6.867 26.275,6.834 L25.004,2.617 C24.998,2.598 25,2.577 25.01,2.56 C25.019,2.542 25.035,2.529 25.054,2.523 L28.022,1.628 C28.059,1.617 28.104,1.639 28.116,1.678 L28.303,2.3 C28.315,2.34 28.293,2.382 28.253,2.394 L25.973,3.081 L26.301,4.17 C26.512,3.988 26.756,3.904 26.991,3.833 L27.913,3.555 C27.931,3.549 27.952,3.552 27.97,3.561 C27.987,3.57 28,3.586 28.006,3.605 L28.195,4.233 C28.207,4.272 28.185,4.314 28.145,4.326 L27.223,4.604 C27.001,4.671 26.748,4.766 26.539,4.959 L27.035,6.605 C27.041,6.625 27.039,6.645 27.029,6.662 C27.02,6.68 27.004,6.693 26.985,6.699 L26.369,6.884 C26.362,6.887 26.354,6.888 26.347,6.888 Z" id="Fill-36"></path>
            <polyline id="Fill-37" points="31.472 5.512 30.755 1.173 31.378 1.071 32.094 5.409 31.472 5.512"></polyline>
            <path d="M30.841,1.235 L31.534,5.426 L32.008,5.348 L31.316,1.157 L30.841,1.235 Z M31.472,5.587 C31.436,5.587 31.404,5.561 31.397,5.524 L30.681,1.186 C30.678,1.166 30.682,1.146 30.694,1.13 C30.706,1.114 30.723,1.103 30.743,1.099 L31.366,0.997 C31.413,0.99 31.445,1.018 31.452,1.059 L32.169,5.397 C32.171,5.417 32.167,5.437 32.155,5.453 C32.144,5.469 32.126,5.48 32.106,5.483 L31.484,5.586 C31.48,5.587 31.476,5.587 31.472,5.587 Z" id="Fill-38"></path>
            <path d="M37.836,1.648 C37.51,1.325 37.039,1.135 36.537,1.147 C35.558,1.171 34.819,1.891 34.842,2.882 C34.865,3.833 35.702,4.51 36.623,4.488 C37.195,4.474 37.696,4.196 38.005,3.764 L38.413,4.292 C37.982,4.798 37.34,5.114 36.632,5.131 C35.299,5.163 34.241,4.149 34.209,2.821 C34.179,1.522 35.265,0.528 36.528,0.498 C37.188,0.482 37.797,0.733 38.238,1.154 L37.836,1.648" id="Fill-39"></path>
            <path d="M36.588,0.572 L36.53,0.573 C35.263,0.603 34.256,1.611 34.284,2.819 C34.315,4.095 35.297,5.057 36.57,5.057 L36.63,5.056 C37.28,5.04 37.891,4.762 38.316,4.289 L38.005,3.887 C37.671,4.305 37.173,4.549 36.625,4.562 L36.579,4.563 C35.585,4.563 34.79,3.825 34.767,2.884 C34.744,1.876 35.503,1.097 36.535,1.072 L36.581,1.072 C37.047,1.072 37.498,1.241 37.829,1.538 L38.136,1.162 C37.712,0.781 37.166,0.572 36.588,0.572 Z M36.57,5.206 C35.236,5.207 34.166,4.159 34.134,2.822 C34.104,1.531 35.177,0.455 36.526,0.423 L36.588,0.422 C37.228,0.422 37.832,0.663 38.29,1.1 C38.318,1.127 38.321,1.171 38.296,1.202 L37.895,1.695 C37.881,1.711 37.862,1.721 37.84,1.723 C37.823,1.721 37.799,1.716 37.784,1.701 C37.476,1.396 37.037,1.222 36.581,1.222 L36.539,1.222 C35.577,1.245 34.895,1.943 34.917,2.88 C34.938,3.74 35.668,4.413 36.579,4.413 L36.621,4.412 C37.157,4.4 37.639,4.147 37.944,3.72 C37.958,3.701 37.98,3.69 38.003,3.689 C38.031,3.689 38.05,3.7 38.064,3.718 L38.472,4.246 C38.494,4.274 38.493,4.313 38.47,4.34 C38.017,4.873 37.347,5.189 36.634,5.206 L36.57,5.206 Z" id="Fill-40"></path>
            <path d="M41.32,4.647 L44,5.064 L43.901,5.699 L40.586,5.184 L41.263,0.837 L44.321,1.313 L44.222,1.954 L41.798,1.577 L41.593,2.893 C41.878,2.782 42.155,2.808 42.44,2.852 L43.391,3 L43.29,3.646 L42.34,3.499 C42.061,3.456 41.776,3.441 41.492,3.54 L41.32,4.647" id="Fill-41"></path>
            <path d="M40.672,5.121 L43.839,5.613 L43.915,5.127 L41.309,4.722 C41.268,4.715 41.24,4.677 41.246,4.636 L41.418,3.529 C41.422,3.502 41.441,3.479 41.467,3.47 C41.719,3.382 41.972,3.367 42.352,3.425 L43.228,3.561 L43.305,3.062 L42.429,2.926 C42.312,2.908 42.174,2.889 42.039,2.889 C41.885,2.889 41.748,2.913 41.62,2.963 C41.596,2.973 41.567,2.969 41.546,2.952 C41.525,2.935 41.515,2.908 41.519,2.882 L41.724,1.565 C41.73,1.524 41.768,1.497 41.81,1.503 L44.159,1.868 L44.236,1.375 L41.325,0.923 L40.672,5.121 Z M43.901,5.774 C43.897,5.774 43.894,5.774 43.89,5.773 L40.575,5.258 C40.555,5.255 40.538,5.244 40.526,5.228 C40.514,5.212 40.509,5.192 40.512,5.172 L41.188,0.825 C41.191,0.806 41.202,0.788 41.218,0.776 C41.234,0.764 41.253,0.76 41.274,0.763 L44.333,1.239 C44.374,1.245 44.402,1.284 44.396,1.324 L44.296,1.965 C44.293,1.985 44.282,2.003 44.266,2.014 C44.25,2.026 44.229,2.031 44.21,2.028 L41.86,1.663 L41.686,2.784 C41.924,2.719 42.223,2.742 42.452,2.778 L43.402,2.926 C43.443,2.932 43.471,2.971 43.465,3.011 L43.364,3.658 C43.358,3.699 43.318,3.726 43.278,3.721 L42.329,3.573 C41.998,3.522 41.776,3.531 41.559,3.597 L41.406,4.585 L44.012,4.99 C44.052,4.997 44.081,5.035 44.074,5.076 L43.976,5.71 C43.973,5.73 43.962,5.748 43.946,5.759 C43.933,5.769 43.917,5.774 43.901,5.774 Z" id="Fill-42"></path>
            <path d="M49.992,7.813 C49.376,7.544 48.87,6.962 48.693,6.26 L49.288,6.05 C49.388,6.396 49.617,6.947 50.25,7.224 C50.844,7.484 51.544,7.519 51.763,7.016 C52.032,6.4 51.421,6.133 50.838,5.878 C49.876,5.457 49.507,4.871 49.808,4.185 C50.093,3.531 50.982,3.192 51.847,3.569 C52.457,3.836 52.912,4.241 53.189,4.916 L52.633,5.188 C52.354,4.648 52.101,4.389 51.587,4.164 C51.133,3.965 50.617,4.114 50.463,4.465 C50.357,4.708 50.434,5.006 51.12,5.306 C52.531,5.922 52.702,6.519 52.368,7.281 C52.014,8.091 51.014,8.259 49.992,7.813" id="Fill-43"></path>
            <path d="M48.784,6.308 C48.965,6.941 49.434,7.487 50.021,7.744 C50.375,7.898 50.733,7.98 51.059,7.98 C51.653,7.98 52.094,7.721 52.299,7.251 C52.475,6.851 52.485,6.55 52.333,6.275 C52.158,5.958 51.752,5.663 51.09,5.374 C50.475,5.105 50.24,4.79 50.395,4.435 C50.51,4.171 50.813,4 51.165,4 C51.318,4 51.475,4.033 51.617,4.095 C52.115,4.313 52.386,4.568 52.665,5.089 L53.093,4.88 C52.838,4.302 52.431,3.907 51.817,3.638 C51.587,3.538 51.35,3.487 51.112,3.487 C50.555,3.487 50.069,3.772 49.876,4.215 C49.524,5.02 50.221,5.526 50.868,5.809 C51.46,6.068 52.131,6.362 51.831,7.046 C51.708,7.329 51.43,7.485 51.049,7.485 C50.797,7.485 50.502,7.416 50.219,7.292 C49.746,7.085 49.417,6.7 49.239,6.147 L48.784,6.308 Z M51.059,8.13 C50.713,8.13 50.334,8.044 49.961,7.881 C49.312,7.598 48.798,6.983 48.621,6.279 C48.611,6.241 48.632,6.202 48.669,6.189 L49.263,5.979 C49.282,5.973 49.304,5.974 49.322,5.984 C49.341,5.993 49.355,6.01 49.36,6.03 C49.518,6.579 49.828,6.958 50.28,7.155 C50.544,7.271 50.817,7.335 51.049,7.335 C51.273,7.335 51.568,7.274 51.694,6.986 C51.917,6.477 51.488,6.244 50.809,5.947 C49.805,5.508 49.425,4.872 49.739,4.154 C49.956,3.658 50.495,3.337 51.112,3.337 C51.371,3.337 51.628,3.392 51.877,3.5 C52.552,3.796 52.991,4.236 53.259,4.888 C53.274,4.924 53.258,4.966 53.222,4.984 L52.665,5.255 C52.629,5.273 52.585,5.259 52.566,5.222 C52.29,4.686 52.044,4.446 51.557,4.233 C51.433,4.179 51.298,4.15 51.165,4.15 C50.873,4.15 50.624,4.286 50.532,4.495 C50.489,4.593 50.359,4.892 51.15,5.237 C51.853,5.544 52.27,5.851 52.464,6.202 C52.639,6.518 52.63,6.87 52.437,7.311 C52.21,7.831 51.707,8.13 51.059,8.13 Z" id="Fill-44"></path>
            <path d="M54.614,8.094 L56.13,5.87 L56.656,6.229 L55.141,8.453 C54.716,9.077 54.883,9.691 55.59,10.173 C56.297,10.655 56.93,10.586 57.355,9.962 L58.871,7.738 L59.397,8.097 L57.882,10.32 C57.237,11.267 56.257,11.406 55.228,10.704 C54.199,10.003 53.97,9.04 54.614,8.094" id="Fill-45"></path>
            <path d="M56.149,5.974 L54.676,8.136 C54.055,9.049 54.271,9.962 55.27,10.642 C55.687,10.927 56.094,11.071 56.48,11.071 C57.003,11.071 57.467,10.797 57.82,10.278 L59.294,8.116 L58.89,7.842 L57.418,10.004 C56.976,10.65 56.287,10.738 55.548,10.235 C55.18,9.984 54.951,9.698 54.868,9.385 C54.784,9.067 54.855,8.739 55.079,8.411 L56.552,6.249 L56.149,5.974 Z M56.48,11.221 C56.064,11.221 55.628,11.068 55.186,10.766 C54.124,10.043 53.887,9.028 54.552,8.052 L56.068,5.828 C56.079,5.812 56.096,5.8 56.116,5.796 C56.135,5.793 56.155,5.797 56.172,5.808 L56.699,6.167 C56.733,6.191 56.742,6.237 56.718,6.271 L55.203,8.495 C55.005,8.786 54.941,9.073 55.014,9.347 C55.086,9.624 55.295,9.881 55.632,10.111 C56.304,10.569 56.896,10.504 57.294,9.919 L58.809,7.695 C58.82,7.679 58.837,7.667 58.856,7.664 C58.876,7.661 58.896,7.664 58.913,7.675 L59.44,8.035 C59.474,8.058 59.483,8.105 59.46,8.139 L57.944,10.363 C57.562,10.924 57.055,11.221 56.48,11.221 Z" id="Fill-46"></path>
            <path d="M62.128,13.069 C62.429,13.361 62.734,13.377 63.03,13.072 C63.339,12.754 63.297,12.475 62.991,12.178 L61.829,11.052 L60.843,12.069 C61.141,12.145 61.36,12.325 61.568,12.526 L62.128,13.069 Z M58.748,13.305 L61.815,10.142 L63.439,11.716 C63.999,12.259 64.035,12.951 63.488,13.516 C62.945,14.075 62.235,14.078 61.676,13.535 L61.116,12.992 C60.912,12.795 60.68,12.619 60.391,12.536 L59.211,13.754 L58.748,13.305 Z" id="Fill-47"></path>
            <path d="M60.982,12.034 C61.24,12.128 61.441,12.299 61.621,12.472 L62.18,13.015 C62.32,13.151 62.457,13.219 62.588,13.219 C62.717,13.219 62.848,13.152 62.977,13.02 C63.113,12.879 63.175,12.749 63.167,12.622 C63.158,12.5 63.084,12.372 62.939,12.232 L61.831,11.158 L60.982,12.034 Z M62.588,13.369 C62.417,13.369 62.244,13.286 62.076,13.123 L61.516,12.58 C61.295,12.366 61.093,12.21 60.824,12.142 C60.798,12.135 60.778,12.115 60.771,12.09 C60.763,12.064 60.771,12.036 60.789,12.017 L61.775,11 C61.804,10.97 61.852,10.97 61.881,10.998 L63.044,12.124 C63.216,12.291 63.305,12.451 63.316,12.612 C63.328,12.784 63.252,12.951 63.084,13.124 C62.926,13.287 62.759,13.369 62.588,13.369 Z M60.391,12.461 C60.397,12.461 60.404,12.462 60.411,12.464 C60.751,12.562 61.005,12.781 61.168,12.938 L61.728,13.481 C62.25,13.988 62.932,13.981 63.435,13.463 C63.942,12.939 63.924,12.29 63.387,11.77 L61.816,10.248 L58.854,13.303 L59.21,13.648 L60.337,12.484 C60.351,12.469 60.371,12.461 60.391,12.461 Z M62.579,14.014 C62.24,14.014 61.91,13.867 61.624,13.589 L61.063,13.046 C60.839,12.829 60.63,12.693 60.413,12.621 L59.265,13.806 C59.236,13.836 59.188,13.836 59.159,13.808 L58.696,13.359 C58.682,13.345 58.673,13.326 58.673,13.306 C58.673,13.286 58.68,13.267 58.694,13.253 L61.761,10.09 C61.79,10.06 61.837,10.06 61.867,10.088 L63.491,11.662 C64.085,12.238 64.105,12.986 63.542,13.568 C63.259,13.86 62.926,14.014 62.579,14.014 Z" id="Fill-48"></path>
            <path d="M66.029,17.854 C66.271,18.195 66.567,18.267 66.914,18.021 C67.274,17.765 67.285,17.484 67.04,17.138 L66.105,15.818 L64.95,16.637 C65.229,16.765 65.412,16.983 65.579,17.218 L66.029,17.854 Z M62.668,17.466 L66.258,14.923 L67.564,16.766 C68.014,17.401 67.922,18.087 67.282,18.541 C66.647,18.991 65.949,18.864 65.5,18.229 L65.049,17.593 C64.886,17.363 64.689,17.147 64.421,17.012 L63.04,17.99 L62.668,17.466 Z" id="Fill-49"></path>
            <path d="M65.093,16.628 C65.33,16.768 65.496,16.972 65.64,17.174 L66.09,17.81 C66.313,18.125 66.568,18.175 66.871,17.96 C67.182,17.739 67.214,17.513 66.979,17.181 L66.087,15.923 L65.093,16.628 Z M66.524,18.242 C66.524,18.242 66.524,18.242 66.523,18.242 C66.317,18.242 66.13,18.126 65.968,17.897 L65.518,17.261 C65.34,17.011 65.17,16.821 64.919,16.705 C64.895,16.694 64.878,16.671 64.876,16.644 C64.873,16.617 64.885,16.591 64.907,16.576 L66.062,15.757 C66.078,15.746 66.099,15.742 66.118,15.745 C66.137,15.748 66.155,15.759 66.166,15.775 L67.101,17.094 C67.382,17.491 67.335,17.814 66.957,18.083 C66.809,18.188 66.663,18.242 66.524,18.242 Z M64.421,16.937 C64.433,16.937 64.444,16.94 64.455,16.945 C64.696,17.066 64.904,17.258 65.11,17.55 L65.561,18.185 C65.812,18.539 66.148,18.734 66.511,18.733 C66.753,18.733 67.005,18.646 67.239,18.479 C67.833,18.058 67.934,17.418 67.503,16.809 L66.24,15.027 L62.772,17.484 L63.058,17.886 L64.377,16.951 C64.391,16.942 64.406,16.937 64.421,16.937 Z M66.511,18.883 C66.099,18.883 65.718,18.666 65.439,18.272 L64.988,17.636 C64.809,17.382 64.629,17.211 64.427,17.1 L63.083,18.052 C63.049,18.075 63.002,18.068 62.979,18.034 L62.607,17.51 C62.595,17.493 62.591,17.473 62.594,17.454 C62.597,17.434 62.608,17.416 62.625,17.405 L66.214,14.861 C66.247,14.838 66.294,14.845 66.319,14.879 L67.625,16.722 C68.103,17.397 67.985,18.135 67.326,18.602 C67.066,18.786 66.784,18.883 66.511,18.883 Z" id="Fill-50"></path>
            <polyline id="Fill-51" points="65.749 22.221 69.709 20.305 69.989 20.884 66.607 22.52 67.67 24.717 67.092 24.997 65.749 22.221"></polyline>
            <path d="M65.849,22.256 L67.127,24.897 L67.57,24.682 L66.54,22.552 C66.531,22.534 66.53,22.514 66.537,22.495 C66.543,22.476 66.557,22.461 66.575,22.452 L69.889,20.849 L69.674,20.405 L65.849,22.256 Z M67.092,25.072 C67.064,25.072 67.037,25.056 67.024,25.029 L65.682,22.253 C65.664,22.216 65.679,22.171 65.716,22.153 L69.676,20.237 C69.715,20.22 69.759,20.235 69.776,20.272 L70.057,20.851 C70.065,20.869 70.066,20.89 70.06,20.908 C70.054,20.927 70.04,20.943 70.022,20.951 L66.707,22.554 L67.738,24.684 C67.747,24.702 67.748,24.723 67.741,24.742 C67.735,24.76 67.721,24.776 67.703,24.785 L67.124,25.064 C67.114,25.069 67.103,25.072 67.092,25.072 Z" id="Fill-52"></path>
            <polyline id="Fill-53" points="67.747 26.87 71.924 25.478 72.124 26.077 67.946 27.469 67.747 26.87"></polyline>
            <path d="M67.842,26.917 L67.994,27.374 L72.029,26.03 L71.877,25.573 L67.842,26.917 Z M67.946,27.544 C67.935,27.544 67.923,27.541 67.913,27.536 C67.895,27.527 67.881,27.512 67.875,27.493 L67.676,26.894 C67.663,26.854 67.684,26.812 67.723,26.799 L71.9,25.407 C71.942,25.393 71.982,25.415 71.996,25.454 L72.195,26.053 C72.202,26.072 72.2,26.093 72.191,26.11 C72.182,26.128 72.167,26.142 72.148,26.148 L67.97,27.54 C67.962,27.543 67.954,27.544 67.946,27.544 Z" id="Fill-54"></path>
            <path d="M69.406,30.353 L69.918,33.018 L69.286,33.139 L68.653,29.842 L72.976,29.013 L73.56,32.055 L72.922,32.177 L72.46,29.767 L71.15,30.018 C71.351,30.25 71.421,30.519 71.475,30.803 L71.656,31.748 L71.013,31.87 L70.832,30.926 C70.778,30.648 70.696,30.376 70.508,30.142 L69.406,30.353" id="Fill-55"></path>
            <path d="M68.741,29.902 L69.346,33.051 L69.83,32.958 L69.332,30.367 C69.329,30.347 69.333,30.327 69.344,30.311 C69.355,30.294 69.373,30.283 69.392,30.279 L70.494,30.068 C70.519,30.063 70.548,30.073 70.566,30.094 C70.777,30.356 70.856,30.655 70.906,30.912 L71.072,31.783 L71.568,31.688 L71.401,30.817 C71.353,30.561 71.289,30.292 71.094,30.067 C71.076,30.047 71.071,30.019 71.08,29.994 C71.088,29.968 71.11,29.95 71.136,29.944 L72.446,29.694 C72.487,29.687 72.526,29.713 72.534,29.753 L72.981,32.09 L73.472,31.996 L72.916,29.101 L68.741,29.902 Z M69.286,33.214 C69.271,33.214 69.256,33.21 69.244,33.201 C69.228,33.19 69.216,33.173 69.212,33.153 L68.58,29.856 C68.576,29.837 68.58,29.817 68.591,29.8 C68.603,29.784 68.62,29.772 68.639,29.769 L72.961,28.939 C73.006,28.933 73.041,28.959 73.049,28.999 L73.633,32.041 C73.637,32.061 73.633,32.081 73.622,32.097 C73.61,32.114 73.593,32.125 73.574,32.129 L72.936,32.251 C72.892,32.257 72.856,32.232 72.848,32.191 L72.4,29.855 L71.285,30.069 C71.444,30.297 71.503,30.549 71.549,30.789 L71.73,31.733 C71.734,31.753 71.73,31.773 71.718,31.79 C71.707,31.806 71.69,31.817 71.67,31.821 L71.027,31.944 C70.984,31.951 70.946,31.925 70.939,31.885 L70.758,30.941 C70.714,30.713 70.646,30.452 70.477,30.224 L69.494,30.412 L69.991,33.004 C69.999,33.044 69.972,33.084 69.932,33.092 L69.3,33.213 C69.295,33.214 69.291,33.214 69.286,33.214 Z" id="Fill-56"></path>
            <path d="M69.418,36.825 C69.406,36.153 69.723,35.452 70.286,35 L70.725,35.452 C70.452,35.686 70.048,36.124 70.061,36.813 C70.072,37.462 70.331,38.111 70.879,38.101 C71.551,38.088 71.539,37.423 71.527,36.786 C71.508,35.738 71.886,35.159 72.635,35.145 C73.348,35.133 74.025,35.798 74.043,36.74 C74.055,37.406 73.877,37.987 73.38,38.52 L72.901,38.129 C73.275,37.65 73.405,37.312 73.395,36.752 C73.385,36.257 73.036,35.851 72.653,35.858 C72.389,35.863 72.15,36.056 72.164,36.804 C72.192,38.342 71.722,38.745 70.892,38.76 C70.008,38.776 69.438,37.938 69.418,36.825" id="Fill-57"></path>
            <path d="M70.281,35.102 C69.782,35.53 69.481,36.183 69.493,36.823 C69.514,37.937 70.065,38.686 70.867,38.686 L70.89,38.686 C71.326,38.677 71.603,38.561 71.79,38.309 C72.004,38.018 72.103,37.526 72.089,36.806 C72.077,36.135 72.266,35.791 72.652,35.783 C73.09,35.783 73.46,36.226 73.47,36.751 C73.479,37.293 73.361,37.646 73.005,38.117 L73.372,38.417 C73.79,37.946 73.98,37.412 73.967,36.742 C73.951,35.802 73.273,35.22 72.655,35.22 C71.758,35.237 71.589,36.08 71.602,36.785 C71.608,37.107 71.614,37.44 71.531,37.7 C71.432,38.01 71.213,38.17 70.881,38.176 C70.275,38.176 69.998,37.492 69.985,36.815 C69.976,36.299 70.188,35.839 70.616,35.447 L70.281,35.102 Z M70.867,38.836 C69.992,38.836 69.365,38.01 69.343,36.826 C69.33,36.118 69.673,35.396 70.239,34.941 C70.27,34.917 70.313,34.92 70.34,34.947 L70.778,35.399 C70.793,35.414 70.8,35.434 70.799,35.455 C70.799,35.476 70.789,35.495 70.773,35.509 C70.341,35.881 70.127,36.319 70.136,36.812 C70.146,37.416 70.377,38.026 70.867,38.026 C71.146,38.021 71.309,37.903 71.388,37.655 C71.464,37.418 71.458,37.098 71.452,36.788 C71.432,35.695 71.852,35.085 72.633,35.071 L72.655,35.07 C73.445,35.07 74.101,35.819 74.118,36.739 C74.131,37.475 73.914,38.057 73.435,38.571 C73.408,38.6 73.363,38.603 73.332,38.578 L72.854,38.187 C72.822,38.161 72.817,38.114 72.842,38.083 C73.213,37.608 73.329,37.285 73.319,36.754 C73.312,36.317 73.005,35.933 72.663,35.933 C72.548,35.935 72.223,35.941 72.239,36.803 C72.253,37.568 72.148,38.075 71.91,38.398 C71.696,38.688 71.373,38.827 70.893,38.835 L70.867,38.836 Z" id="Fill-58"></path>
            <path d="M7.085,47.115 C6.814,46.453 6.302,45.938 5.643,45.662 C4.984,45.387 4.257,45.385 3.595,45.657 C2.94,45.925 2.43,46.432 2.158,47.084 C1.885,47.736 1.883,48.454 2.151,49.109 L4.48,54.783 C4.559,54.974 4.779,55.066 4.97,54.987 C5.161,54.908 5.253,54.69 5.174,54.497 L2.845,48.824 C2.653,48.356 2.654,47.84 2.85,47.374 C3.045,46.907 3.411,46.544 3.88,46.35 C4.356,46.155 4.879,46.157 5.354,46.355 C5.828,46.553 6.196,46.924 6.392,47.4 L9.24,54.339 C9.372,54.658 9.371,55.011 9.237,55.33 C9.104,55.65 8.854,55.898 8.459,56.06 C7.797,56.33 7.039,56.015 6.767,55.353 L4.624,50.132 C4.548,49.947 4.548,49.744 4.625,49.561 C4.702,49.377 4.845,49.235 5.062,49.146 C5.246,49.071 5.448,49.072 5.631,49.148 C5.815,49.224 5.958,49.368 6.033,49.553 L7.66,53.511 C7.739,53.703 7.958,53.794 8.149,53.715 C8.34,53.637 8.432,53.418 8.353,53.226 L6.727,49.268 C6.414,48.505 5.537,48.14 4.746,48.466 C4.381,48.615 4.085,48.909 3.934,49.272 C3.779,49.64 3.778,50.047 3.93,50.416 L6.074,55.639 C6.394,56.418 7.143,56.894 7.968,56.894 C8.247,56.894 8.535,56.84 8.818,56.723 C9.324,56.515 9.718,56.124 9.929,55.619 C10.14,55.114 10.142,54.557 9.934,54.053 L7.085,47.115" id="Fill-59"></path>
            <path d="M71.956,49.379 C71.766,49.299 71.545,49.389 71.465,49.58 L69.1,55.239 C68.908,55.699 68.533,56.072 68.071,56.262 C67.604,56.453 67.088,56.452 66.619,56.257 C65.64,55.847 65.176,54.717 65.585,53.739 L68.477,46.819 C68.61,46.499 68.86,46.251 69.181,46.119 C69.502,45.987 69.854,45.989 70.247,46.153 C70.907,46.428 71.219,47.19 70.943,47.849 L68.768,53.056 C68.691,53.24 68.547,53.383 68.363,53.459 C68.184,53.533 67.976,53.533 67.761,53.443 C67.577,53.367 67.435,53.223 67.359,53.04 C67.284,52.856 67.284,52.653 67.361,52.469 L69.011,48.52 C69.09,48.328 69,48.109 68.809,48.029 C68.617,47.949 68.398,48.04 68.318,48.231 L66.669,52.18 C66.515,52.549 66.514,52.954 66.665,53.324 C66.817,53.693 67.104,53.981 67.505,54.149 C67.868,54.301 68.285,54.301 68.648,54.152 C69.017,54.001 69.305,53.715 69.46,53.346 L71.636,48.139 C72.071,47.097 71.578,45.896 70.462,45.43 C69.423,44.995 68.219,45.489 67.785,46.53 L64.893,53.45 C64.325,54.81 64.97,56.38 66.33,56.949 C66.66,57.086 67.006,57.155 67.352,57.155 C67.692,57.155 68.032,57.089 68.356,56.955 C69.001,56.691 69.524,56.171 69.793,55.528 L72.158,49.869 C72.237,49.679 72.148,49.459 71.956,49.379" id="Fill-60"></path>
        </g>
    </g>
</svg>