<?xml version="1.0" encoding="UTF-8"?>
<svg width="50px" height="71px" viewBox="0 0 50 71" version="1.1" xmlns="http://www.w3.org/2000/svg" xmlns:xlink="http://www.w3.org/1999/xlink">
    <!-- Generator: Sketch 49 (51002) - http://www.bohemiancoding.com/sketch -->
    <title>bitcoin-grey-34</title>
    <desc>Created with Sketch.</desc>
    <defs></defs>
    <g id="Page-1" stroke="none" stroke-width="1" fill="none" fill-rule="evenodd">
        <g id="bitcoin-grey-34" fill="#000000">
            <path d="M37.694,20.191 C37.875,20.042 38.093,19.949 38.329,19.949 C38.6,19.949 38.854,20.054 39.045,20.244 L43.044,24.244 C43.415,24.615 43.424,25.197 43.098,25.593 C43.077,25.619 43.068,25.651 43.044,25.675 L42.847,25.872 L42.581,26.137 L41.498,27.221 L40.968,27.752 L40.69,28.028 L40.426,28.294 L40.16,28.558 L36.89,31.83 C36.28,32.44 35.471,32.775 34.61,32.775 L32.72,32.775 C31.509,32.775 30.522,31.788 30.522,30.577 L30.521,28.672 C30.521,27.81 30.857,27 31.467,26.391 L34.729,23.129 L34.995,22.864 L35.537,22.322 L36.067,21.792 L37.151,20.708 L37.416,20.443 L37.614,20.244 C37.638,20.221 37.669,20.212 37.694,20.191 Z M1.802,38.693 L22.981,17.514 L23.981,18.513 L8.644,33.852 C8.643,33.851 8.643,33.852 8.643,33.852 L5.982,36.511 L3.877,38.617 C3.286,39.208 2.366,39.26 1.71,38.784 L1.802,38.693 Z M4.029,33.565 L6.192,31.402 C6.192,31.401 6.192,31.401 6.192,31.4 L22.533,15.061 C23.672,13.923 25.524,13.923 26.663,15.061 L27.048,15.447 L24.512,17.983 L23.246,16.719 C23.1,16.572 22.862,16.573 22.716,16.719 L1.193,38.24 C1.027,37.976 0.935,37.673 0.935,37.353 C0.935,36.905 1.109,36.485 1.427,36.168 L4.029,33.565 Z M21.966,58.89 L22.332,58.524 C22.479,58.378 22.479,58.14 22.332,57.994 C22.186,57.847 21.948,57.847 21.802,57.994 L21.356,58.44 L20.905,58 C20.897,57.991 20.885,57.994 20.876,57.988 L20.506,57.617 L20.24,57.352 L20.161,57.273 C20.159,57.27 20.16,57.266 20.158,57.265 L19.978,57.085 L19.453,56.563 C19.452,56.562 19.451,56.562 19.45,56.562 L4.836,41.947 L5.278,41.505 C5.425,41.358 5.425,41.12 5.278,40.974 C5.132,40.827 4.895,40.827 4.748,40.974 L4.307,41.416 L3.864,40.974 C3.863,40.973 3.862,40.973 3.861,40.973 L3.517,40.628 C3.516,40.628 3.517,40.628 3.516,40.627 L2.809,39.92 C2.808,39.92 2.808,39.92 2.808,39.92 L2.74,39.852 C3.346,39.841 3.946,39.608 4.407,39.148 L5.881,37.674 C5.881,37.674 5.881,37.674 5.882,37.674 L27.578,15.978 L27.844,15.712 L27.935,15.622 C27.993,15.562 28.063,15.518 28.128,15.465 C29.25,14.534 31.02,14.577 32.065,15.622 L36.621,20.177 L35.537,21.261 L35.249,20.972 C35.103,20.826 34.865,20.826 34.719,20.972 C34.572,21.119 34.572,21.356 34.719,21.503 L35.007,21.792 L34.729,22.069 L30.937,25.861 C30.186,26.612 29.771,27.61 29.771,28.672 L29.772,30.577 C29.772,32.203 31.095,33.525 32.72,33.525 L34.61,33.525 C35.671,33.525 36.669,33.111 37.42,32.361 L40.69,29.089 L40.956,28.824 L41.221,28.558 L41.498,28.282 L41.779,28.564 C41.853,28.636 41.948,28.673 42.044,28.673 C42.141,28.673 42.236,28.636 42.31,28.563 C42.456,28.417 42.456,28.179 42.31,28.032 L42.028,27.752 L43.111,26.668 L47.669,31.224 C48.807,32.363 48.807,34.217 47.669,35.356 L24.559,58.467 C23.857,59.168 22.811,59.303 21.966,58.89 Z M48.199,30.694 L43.635,26.131 C44.254,25.44 44.238,24.378 43.574,23.714 L39.575,19.715 C38.933,19.072 37.832,19.056 37.158,19.655 L32.595,15.091 C31.268,13.764 29.005,13.721 27.598,14.936 L27.193,14.531 C25.808,13.145 23.389,13.145 22.003,14.531 L3.552,32.98 C3.552,32.98 3.552,32.981 3.551,32.982 L0.896,35.637 C0.437,36.095 0.185,36.704 0.185,37.353 C0.185,38.002 0.438,38.612 0.896,39.07 L0.975,39.148 C0.976,39.149 0.977,39.149 0.978,39.15 L20.825,58.996 C20.881,59.053 20.944,59.092 21.003,59.142 L21.099,59.235 C21.109,59.245 21.124,59.242 21.136,59.25 C21.673,59.661 22.312,59.879 22.957,59.879 C23.729,59.879 24.501,59.585 25.089,58.996 L48.199,35.886 C49.63,34.454 49.63,32.126 48.199,30.694 Z" id="Fill-1"></path>
            <path d="M21.401,55.938 L7.123,41.66 C6.977,41.513 6.739,41.513 6.593,41.66 C6.446,41.807 6.446,42.044 6.593,42.19 L20.732,56.33 L20.871,56.469 C20.921,56.517 20.987,56.527 21.05,56.543 C21.08,56.551 21.105,56.578 21.137,56.578 C21.232,56.578 21.328,56.542 21.401,56.469 C21.499,56.372 21.507,56.241 21.476,56.117 C21.46,56.054 21.451,55.988 21.401,55.938" id="Fill-2"></path>
            <path d="M7.692,39.091 L8.111,38.672 C8.258,38.525 8.258,38.287 8.111,38.141 C7.965,37.994 7.728,37.994 7.581,38.141 L7.27,38.452 L6.169,39.553 C6.022,39.7 6.022,39.937 6.169,40.084 C6.242,40.157 6.338,40.194 6.435,40.194 C6.53,40.194 6.626,40.157 6.699,40.084 L7.692,39.091" id="Fill-3"></path>
            <path d="M33.307,20.091 C33.38,20.163 33.476,20.201 33.571,20.201 C33.668,20.201 33.764,20.163 33.837,20.09 C33.983,19.945 33.983,19.706 33.837,19.56 L32.425,18.148 C32.278,18.002 32.041,18.002 31.895,18.149 C31.748,18.295 31.748,18.532 31.895,18.679 L33.307,20.091" id="Fill-4"></path>
            <path d="M27.45,52.345 L26.038,53.757 C25.892,53.905 25.892,54.141 26.038,54.287 C26.111,54.361 26.207,54.398 26.303,54.398 C26.399,54.398 26.495,54.361 26.568,54.287 L27.98,52.876 C28.127,52.729 28.127,52.492 27.98,52.345 C27.834,52.199 27.597,52.199 27.45,52.345" id="Fill-5"></path>
            <path d="M37.6,43.1 C37.695,43.1 37.791,43.064 37.864,42.991 L39.276,41.578 C39.423,41.432 39.423,41.195 39.276,41.049 C39.13,40.903 38.893,40.903 38.746,41.049 L37.334,42.461 C37.188,42.607 37.188,42.844 37.334,42.991 C37.407,43.064 37.503,43.1 37.6,43.1" id="Fill-6"></path>
            <path d="M46.072,34.629 C46.168,34.629 46.264,34.592 46.337,34.518 L46.584,34.272 C46.847,34.01 46.991,33.661 46.991,33.29 C46.991,32.919 46.847,32.57 46.547,32.27 L46.281,32.534 L46.055,32.838 C46.175,32.958 46.241,33.119 46.241,33.29 C46.241,33.46 46.175,33.62 46.054,33.741 L45.807,33.989 C45.66,34.135 45.66,34.372 45.807,34.518 C45.88,34.593 45.977,34.629 46.072,34.629" id="Fill-7"></path>
            <path d="M40.424,40.277 C40.52,40.277 40.615,40.24 40.688,40.168 L42.101,38.755 C42.247,38.609 42.247,38.37 42.101,38.224 C41.954,38.077 41.717,38.077 41.57,38.224 L40.158,39.636 C40.012,39.783 40.012,40.021 40.158,40.168 C40.231,40.24 40.327,40.277 40.424,40.277" id="Fill-8"></path>
            <path d="M34.775,45.925 C34.871,45.925 34.967,45.888 35.04,45.816 L36.452,44.403 C36.599,44.257 36.599,44.02 36.452,43.872 C36.306,43.726 36.068,43.726 35.922,43.872 L34.51,45.285 C34.363,45.431 34.363,45.669 34.51,45.816 C34.583,45.888 34.679,45.925 34.775,45.925" id="Fill-9"></path>
            <path d="M43.248,37.452 C43.344,37.452 43.439,37.416 43.513,37.343 L44.925,35.931 C45.071,35.784 45.071,35.547 44.925,35.4 C44.778,35.254 44.541,35.254 44.395,35.4 L42.982,36.812 C42.836,36.959 42.836,37.197 42.982,37.343 C43.056,37.416 43.151,37.452 43.248,37.452" id="Fill-10"></path>
            <path d="M25.156,55.17 C25.01,55.024 24.773,55.024 24.626,55.17 L23.214,56.581 C23.067,56.728 23.067,56.965 23.214,57.113 C23.287,57.186 23.383,57.222 23.479,57.222 C23.575,57.222 23.671,57.186 23.744,57.113 L25.156,55.7 C25.303,55.553 25.303,55.316 25.156,55.17" id="Fill-11"></path>
            <path d="M31.951,48.749 C32.047,48.749 32.143,48.713 32.216,48.639 L33.628,47.228 C33.774,47.08 33.774,46.843 33.628,46.697 C33.481,46.551 33.244,46.551 33.098,46.697 L31.686,48.109 C31.539,48.256 31.539,48.493 31.686,48.639 C31.759,48.713 31.854,48.749 31.951,48.749" id="Fill-12"></path>
            <path d="M44.604,31.387 C44.677,31.46 44.772,31.496 44.869,31.496 C44.965,31.496 45.061,31.46 45.134,31.387 C45.28,31.24 45.28,31.003 45.134,30.857 L43.722,29.445 C43.575,29.299 43.338,29.299 43.191,29.445 C43.045,29.591 43.045,29.828 43.191,29.974 L44.604,31.387" id="Fill-13"></path>
            <path d="M30.274,49.521 L28.862,50.933 C28.716,51.08 28.716,51.317 28.862,51.464 C28.936,51.536 29.031,51.573 29.127,51.573 C29.224,51.573 29.319,51.536 29.393,51.464 L30.805,50.052 C30.951,49.905 30.951,49.668 30.805,49.521 C30.658,49.375 30.421,49.375 30.274,49.521" id="Fill-14"></path>
            <path d="M26.204,20.425 C26.301,20.425 26.396,20.388 26.47,20.316 L27.882,18.903 C28.028,18.757 28.028,18.52 27.882,18.372 C27.735,18.226 27.498,18.226 27.352,18.372 L25.939,19.785 C25.793,19.931 25.793,20.169 25.939,20.316 C26.013,20.388 26.108,20.425 26.204,20.425" id="Fill-15"></path>
            <path d="M23.38,23.249 C23.476,23.249 23.571,23.213 23.645,23.139 L25.058,21.728 C25.204,21.58 25.204,21.343 25.058,21.197 C24.911,21.051 24.674,21.05 24.527,21.197 L23.114,22.609 C22.968,22.756 22.968,22.993 23.114,23.139 C23.188,23.213 23.283,23.249 23.38,23.249" id="Fill-16"></path>
            <path d="M12.083,34.546 C12.179,34.546 12.274,34.509 12.348,34.435 L13.76,33.024 C13.906,32.877 13.906,32.64 13.76,32.493 C13.613,32.347 13.376,32.347 13.229,32.493 L11.817,33.906 C11.671,34.052 11.671,34.29 11.817,34.435 C11.891,34.509 11.986,34.546 12.083,34.546" id="Fill-17"></path>
            <path d="M9.259,37.369 C9.354,37.369 9.45,37.333 9.523,37.26 L10.936,35.848 C11.082,35.701 11.082,35.464 10.936,35.318 C10.789,35.171 10.552,35.171 10.405,35.317 L8.993,36.729 C8.847,36.876 8.847,37.113 8.993,37.26 C9.066,37.333 9.162,37.369 9.259,37.369" id="Fill-18"></path>
            <path d="M14.907,31.721 C15.003,31.721 15.099,31.684 15.172,31.611 L16.584,30.199 C16.731,30.053 16.731,29.816 16.584,29.669 C16.438,29.523 16.2,29.523 16.054,29.669 L14.642,31.082 C14.495,31.228 14.495,31.465 14.642,31.611 C14.715,31.684 14.811,31.721 14.907,31.721" id="Fill-19"></path>
            <path d="M20.556,26.073 C20.651,26.073 20.747,26.036 20.82,25.964 L22.232,24.551 C22.379,24.405 22.379,24.168 22.232,24.021 C22.086,23.875 21.849,23.875 21.702,24.021 L20.29,25.433 C20.144,25.58 20.144,25.817 20.29,25.964 C20.363,26.036 20.459,26.073 20.556,26.073" id="Fill-20"></path>
            <path d="M17.731,28.897 C17.827,28.897 17.923,28.861 17.996,28.787 L19.408,27.376 C19.555,27.229 19.555,26.991 19.408,26.845 C19.262,26.699 19.024,26.699 18.878,26.845 L17.466,28.257 C17.319,28.403 17.319,28.64 17.466,28.787 C17.539,28.861 17.635,28.897 17.731,28.897" id="Fill-21"></path>
            <path d="M29.028,17.602 C29.073,17.602 29.109,17.566 29.151,17.55 C29.2,17.532 29.254,17.53 29.294,17.491 L29.458,17.327 L29.55,17.236 C29.61,17.174 29.683,17.129 29.761,17.099 C29.991,17.01 30.271,17.055 30.45,17.235 L30.482,17.268 C30.629,17.412 30.85,17.397 30.996,17.251 C31.143,17.104 31.127,16.85 30.98,16.704 C30.518,16.241 29.763,16.213 29.229,16.569 C29.159,16.615 29.08,16.644 29.019,16.706 L28.928,16.797 L28.764,16.961 C28.725,17 28.723,17.055 28.704,17.104 C28.654,17.237 28.656,17.385 28.764,17.491 C28.837,17.565 28.933,17.602 29.028,17.602" id="Fill-22"></path>
            <path d="M33.516,29.777 C33.114,29.376 32.894,28.842 32.894,28.275 C32.894,27.708 33.114,27.175 33.516,26.774 C33.916,26.374 34.448,26.153 35.016,26.153 C35.582,26.153 36.115,26.374 36.517,26.774 C37.344,27.602 37.344,28.948 36.517,29.777 C35.715,30.576 34.316,30.576 33.516,29.777 Z M32.985,26.244 C32.442,26.786 32.144,27.508 32.144,28.275 C32.144,29.042 32.442,29.764 32.985,30.307 C33.527,30.848 34.248,31.147 35.016,31.147 C35.782,31.147 36.504,30.848 37.047,30.307 C38.166,29.185 38.166,27.364 37.047,26.244 C35.961,25.159 34.067,25.159 32.985,26.244 Z" id="Fill-23"></path>
            <path d="M21.745,47.797 L19.165,45.217 L18.072,44.124 L15.492,41.545 L14.358,42.679 L13.266,41.586 L15.492,39.358 L15.705,39.145 L13.729,37.17 L14.822,36.077 L16.799,38.052 L19.259,35.592 L17.284,33.616 L18.377,32.521 L20.357,34.501 C21.003,33.899 21.83,33.597 22.656,33.597 C23.518,33.597 24.378,33.925 25.034,34.581 C25.603,35.15 25.924,35.872 26.001,36.617 C26.388,36.47 26.796,36.397 27.204,36.397 C28.065,36.397 28.926,36.723 29.581,37.38 C30.896,38.695 30.896,40.833 29.583,42.146 L28.792,42.937 L30.768,44.911 L29.674,46.006 L27.698,44.03 L25.237,46.492 L27.213,48.466 L26.119,49.56 L24.144,47.584 L21.704,50.024 L20.611,48.931 L21.745,47.797 Z M25.589,50.09 C25.735,50.236 25.928,50.31 26.119,50.31 C26.312,50.31 26.503,50.236 26.649,50.09 L27.743,48.996 C27.884,48.856 27.963,48.664 27.963,48.466 C27.963,48.266 27.884,48.076 27.743,47.935 L26.299,46.492 L27.698,45.091 L29.144,46.536 C29.29,46.682 29.482,46.756 29.674,46.756 C29.866,46.756 30.058,46.682 30.204,46.536 L31.298,45.443 C31.438,45.302 31.518,45.111 31.518,44.911 C31.518,44.713 31.438,44.522 31.298,44.382 L29.853,42.937 L30.113,42.677 C30.89,41.9 31.317,40.865 31.317,39.763 C31.317,38.661 30.889,37.627 30.111,36.849 C29.336,36.074 28.304,35.647 27.204,35.647 C26.99,35.647 26.778,35.662 26.569,35.696 C26.369,35.078 26.026,34.512 25.564,34.051 C24.789,33.275 23.756,32.847 22.656,32.847 C21.854,32.847 21.082,33.077 20.421,33.504 L18.907,31.991 C18.767,31.85 18.576,31.772 18.377,31.772 C18.178,31.772 17.987,31.85 17.847,31.991 L16.753,33.087 C16.461,33.38 16.461,33.854 16.754,34.147 L18.198,35.592 L16.799,36.991 L15.353,35.547 C15.206,35.4 15.015,35.327 14.822,35.327 C14.631,35.327 14.438,35.4 14.292,35.547 L13.198,36.64 C13.058,36.781 12.979,36.971 12.979,37.17 C12.979,37.369 13.058,37.56 13.199,37.701 L14.645,39.145 L13.869,39.922 L12.735,41.055 C12.595,41.197 12.516,41.387 12.516,41.586 C12.516,41.785 12.595,41.976 12.735,42.116 L13.828,43.209 C13.975,43.356 14.167,43.428 14.358,43.428 C14.551,43.428 14.742,43.356 14.889,43.209 L15.492,42.605 L17.542,44.654 L18.635,45.747 L20.685,47.797 L20.081,48.4 C19.789,48.693 19.788,49.168 20.081,49.46 L21.173,50.554 C21.313,50.695 21.505,50.774 21.704,50.774 C21.902,50.774 22.094,50.695 22.234,50.555 L24.144,48.644 L25.589,50.09 Z" id="Fill-24"></path>
            <path d="M19.165,41.969 L17.648,40.451 L21.894,36.204 C22.095,36.004 22.363,35.892 22.65,35.892 C22.937,35.892 23.208,36.004 23.411,36.206 C23.613,36.408 23.724,36.678 23.724,36.965 C23.724,37.252 23.612,37.522 23.41,37.723 L19.165,41.969 Z M23.941,35.677 C23.585,35.321 23.117,35.142 22.65,35.142 C22.184,35.142 21.718,35.32 21.362,35.674 L17.892,39.145 L16.799,40.239 L16.587,40.451 L19.165,43.03 L23.939,38.255 C24.652,37.544 24.651,36.387 23.941,35.677 Z" id="Fill-25"></path>
            <path d="M25.564,39.879 L26.44,39.004 C26.642,38.801 26.911,38.69 27.197,38.69 C27.485,38.69 27.756,38.802 27.959,39.005 C28.161,39.208 28.272,39.476 28.272,39.763 C28.272,40.051 28.161,40.321 27.959,40.523 L27.201,41.281 C27.19,41.29 27.179,41.301 27.167,41.312 L26.073,42.405 C26.06,42.42 26.046,42.433 26.032,42.449 L23.646,44.835 C23.634,44.845 23.623,44.856 23.612,44.867 L22.838,45.641 L21.319,44.124 L25.564,39.879 Z M23.05,46.492 L23.05,46.491 L24.143,45.396 L24.144,45.397 L26.606,42.937 L26.604,42.936 L27.697,41.842 L27.698,41.843 L28.489,41.053 C29.199,40.342 29.199,39.184 28.489,38.474 C28.133,38.119 27.665,37.94 27.197,37.94 C26.73,37.94 26.265,38.118 25.909,38.473 L20.259,44.124 L22.839,46.703 L23.05,46.492 Z" id="Fill-26"></path>
            <path d="M9.332,7.306 L7.336,8.439 L8.05,9.695 L10.027,8.573 C10.115,8.523 10.187,8.46 10.243,8.383 C10.299,8.307 10.34,8.225 10.366,8.136 C10.392,8.048 10.4,7.955 10.39,7.859 C10.38,7.762 10.35,7.67 10.3,7.583 C10.253,7.499 10.192,7.429 10.117,7.372 C10.043,7.314 9.961,7.274 9.872,7.251 C9.783,7.229 9.692,7.221 9.599,7.229 C9.506,7.237 9.417,7.262 9.332,7.306 Z M8.933,5.91 C8.854,5.771 8.737,5.68 8.581,5.637 C8.425,5.594 8.278,5.612 8.14,5.691 L6.353,6.705 L6.931,7.724 L8.718,6.71 C8.789,6.669 8.848,6.617 8.894,6.554 C8.939,6.492 8.972,6.425 8.992,6.353 C9.012,6.282 9.017,6.208 9.008,6.132 C8.999,6.055 8.974,5.981 8.933,5.91 Z M10.434,9.287 L7.277,11.08 L6.871,10.365 L7.335,10.101 L5.638,7.111 L5.173,7.375 L4.767,6.66 L7.733,4.977 C7.9,4.882 8.076,4.824 8.261,4.803 C8.446,4.782 8.625,4.796 8.8,4.843 C8.974,4.892 9.136,4.972 9.283,5.085 C9.432,5.197 9.553,5.337 9.647,5.504 C9.729,5.647 9.782,5.797 9.808,5.953 C9.833,6.109 9.836,6.261 9.815,6.409 C10.063,6.421 10.295,6.499 10.512,6.644 C10.728,6.789 10.896,6.966 11.015,7.177 C11.121,7.364 11.185,7.559 11.205,7.762 C11.227,7.965 11.21,8.164 11.157,8.357 C11.104,8.55 11.016,8.727 10.892,8.889 C10.769,9.051 10.616,9.184 10.434,9.287 Z" id="Fill-27"></path>
            <polyline id="Fill-28" points="14.727 7.436 12.94 8.116 12.648 7.348 13.154 7.156 11.931 3.942 11.425 4.135 11.133 3.367 12.912 2.689 13.205 3.457 12.699 3.65 13.922 6.863 14.434 6.668 14.727 7.436"></polyline>
            <polyline id="Fill-29" points="15.877 3.222 15.14 3.376 14.847 1.975 20.243 0.846 20.537 2.247 19.799 2.401 19.607 1.818 18.112 2.132 18.816 5.497 19.346 5.386 19.514 6.19 17.65 6.58 17.482 5.776 18.012 5.665 17.308 2.3 15.82 2.611 15.877 3.222"></polyline>
            <path d="M25.146,1.405 C24.862,1.407 24.602,1.452 24.362,1.54 C24.123,1.629 23.916,1.751 23.741,1.907 C23.567,2.064 23.43,2.252 23.331,2.471 C23.232,2.692 23.183,2.931 23.185,3.192 C23.187,3.452 23.239,3.692 23.341,3.91 C23.442,4.129 23.582,4.315 23.759,4.469 C23.936,4.623 24.144,4.742 24.384,4.827 C24.625,4.913 24.887,4.954 25.169,4.952 C25.544,4.95 25.871,4.882 26.151,4.751 C26.431,4.619 26.654,4.436 26.822,4.202 L27.435,4.752 C27.177,5.074 26.851,5.324 26.458,5.502 C26.064,5.68 25.636,5.771 25.175,5.774 C24.81,5.777 24.457,5.718 24.115,5.6 C23.775,5.481 23.473,5.31 23.211,5.085 C22.95,4.861 22.74,4.59 22.583,4.271 C22.425,3.952 22.346,3.595 22.343,3.197 C22.34,2.791 22.415,2.426 22.568,2.104 C22.721,1.781 22.927,1.508 23.186,1.284 C23.444,1.061 23.744,0.889 24.083,0.768 C24.422,0.647 24.775,0.585 25.14,0.583 C25.441,0.581 25.704,0.598 25.928,0.636 C26.152,0.673 26.348,0.721 26.515,0.779 C26.682,0.838 26.823,0.901 26.941,0.971 C27.058,1.042 27.162,1.106 27.253,1.165 L27.26,2.048 L26.506,2.053 L26.47,1.697 C26.387,1.648 26.304,1.604 26.222,1.565 C26.139,1.527 26.047,1.496 25.944,1.471 C25.841,1.447 25.726,1.43 25.598,1.419 C25.47,1.408 25.319,1.404 25.146,1.405" id="Fill-30"></path>
            <path d="M31.906,2.061 C31.627,2.007 31.363,2 31.111,2.04 C30.859,2.079 30.632,2.158 30.43,2.277 C30.228,2.396 30.057,2.554 29.917,2.75 C29.776,2.946 29.682,3.172 29.632,3.427 C29.583,3.683 29.586,3.928 29.643,4.162 C29.7,4.396 29.8,4.606 29.943,4.792 C30.086,4.978 30.268,5.136 30.486,5.267 C30.705,5.398 30.953,5.49 31.231,5.544 C31.527,5.601 31.802,5.611 32.056,5.571 C32.31,5.532 32.536,5.452 32.734,5.333 C32.931,5.213 33.097,5.054 33.23,4.857 C33.364,4.659 33.456,4.433 33.505,4.177 C33.555,3.922 33.554,3.677 33.504,3.445 C33.454,3.212 33.359,3.003 33.221,2.818 C33.082,2.633 32.902,2.475 32.681,2.343 C32.46,2.213 32.201,2.118 31.906,2.061 Z M28.805,3.268 C28.882,2.868 29.027,2.526 29.241,2.239 C29.455,1.953 29.71,1.725 30.008,1.558 C30.306,1.389 30.633,1.28 30.989,1.228 C31.346,1.176 31.703,1.184 32.062,1.254 C32.439,1.327 32.782,1.454 33.094,1.635 C33.405,1.816 33.666,2.04 33.875,2.306 C34.083,2.572 34.231,2.878 34.318,3.222 C34.404,3.567 34.409,3.938 34.332,4.337 C34.258,4.723 34.116,5.058 33.907,5.343 C33.698,5.629 33.447,5.858 33.153,6.031 C32.859,6.204 32.533,6.319 32.176,6.376 C31.818,6.432 31.452,6.424 31.075,6.351 C30.716,6.281 30.382,6.155 30.071,5.972 C29.76,5.788 29.498,5.561 29.286,5.29 C29.073,5.018 28.92,4.711 28.829,4.368 C28.737,4.024 28.73,3.657 28.805,3.268 Z" id="Fill-31"></path>
            <polyline id="Fill-32" points="36.827 7.965 35.033 7.307 35.315 6.536 35.823 6.722 37.005 3.493 36.497 3.307 36.779 2.535 38.567 3.19 38.285 3.962 37.777 3.776 36.595 7.004 37.109 7.193 36.827 7.965"></polyline>
            <polyline id="Fill-33" points="39.653 9.268 37.995 8.345 38.395 7.627 38.861 7.886 40.533 4.882 40.067 4.623 40.467 3.904 42.268 4.907 41.824 9.536 41.998 9.632 43.669 6.628 43.197 6.364 43.596 5.647 45.26 6.572 44.86 7.291 44.388 7.028 42.716 10.032 43.188 10.295 42.789 11.013 40.987 10.01 41.432 5.382 41.252 5.282 39.58 8.286 40.053 8.549 39.653 9.268"></polyline>
            <polyline id="Fill-34" points="8.735 62.436 10.064 63.188 9.284 66.068 9.511 66.196 11.979 63.642 11.544 63.396 11.948 62.681 13.6 63.615 13.195 64.33 12.724 64.064 9.643 67.215 8.349 66.483 9.104 63.59 8.884 63.465 6.793 65.603 5.5 64.871 6.614 60.607 6.143 60.34 6.547 59.625 8.199 60.559 7.794 61.275 7.359 61.029 6.441 64.459 6.668 64.588 8.735 62.436"></polyline>
            <path d="M14.896,66.802 L16.879,67.369 L16.86,65.291 L16.018,65.05 L14.896,66.802 Z M18.013,70.051 L16.183,69.527 L16.409,68.738 L16.89,68.875 L16.89,68.227 L14.434,67.524 L14.084,68.072 L14.565,68.21 L14.339,69 L12.515,68.478 L12.741,67.688 L13.261,67.837 L15.188,64.812 L14.773,64.693 L15,63.903 L17.679,64.67 L17.719,69.113 L18.239,69.261 L18.013,70.051 Z" id="Fill-35"></path>
            <polyline id="Fill-36" points="22.465 66.276 21.925 66.241 21.705 69.672 24.486 69.851 24.594 69.247 25.346 69.295 25.254 70.723 20.299 70.406 20.352 69.585 20.885 69.619 21.104 66.188 20.572 66.154 20.625 65.334 22.518 65.455 22.465 66.276"></polyline>
            <polyline id="Fill-37" points="28.884 66.151 28.349 66.227 28.829 69.631 31.589 69.242 31.572 68.629 32.317 68.523 32.518 69.94 27.601 70.634 27.486 69.821 28.015 69.746 27.535 66.342 27.006 66.416 26.891 65.603 28.769 65.337 28.884 66.151"></polyline>
            <polyline id="Fill-38" points="38.056 64.329 37.347 64.583 37.077 64.032 34.646 64.903 35.041 66.005 37.072 65.278 37.349 66.052 35.318 66.779 35.805 68.14 38.301 67.246 38.159 66.649 38.869 66.395 39.352 67.742 34.806 69.371 34.529 68.597 35.031 68.417 33.872 65.18 33.369 65.36 33.092 64.586 37.573 62.981 38.056 64.329"></polyline>
            <polyline id="Fill-39" points="40.153 63.277 39.513 63.674 38.759 62.458 43.446 59.554 44.2 60.771 43.56 61.168 43.18 60.686 41.882 61.49 43.692 64.413 44.152 64.128 44.585 64.826 42.966 65.829 42.534 65.131 42.994 64.845 41.183 61.923 39.891 62.723 40.153 63.277"></polyline>
        </g>
    </g>
</svg>