<?xml version="1.0" encoding="UTF-8"?>
<svg width="86px" height="64px" viewBox="0 0 86 64" version="1.1" xmlns="http://www.w3.org/2000/svg" xmlns:xlink="http://www.w3.org/1999/xlink">
    <!-- Generator: Sketch 49 (51002) - http://www.bohemiancoding.com/sketch -->
    <title>bitcoin-grey-15</title>
    <desc>Created with Sketch.</desc>
    <defs></defs>
    <g id="Page-1" stroke="none" stroke-width="1" fill="none" fill-rule="evenodd">
        <g id="bitcoin-grey-15" transform="translate(0.000000, -1.000000)">
            <path d="M85.387,40.475 C58.36,28.91 27.777,28.91 0.751,40.475 C2.908,41.564 5.001,42.717 7.028,43.928 C6.308,46.177 5.671,48.428 5.116,50.677 C29.354,40.306 56.783,40.305 81.021,50.677 C80.467,48.428 79.83,46.177 79.109,43.928 C81.136,42.716 83.229,41.564 85.387,40.475" id="Fill-1" fill="#FFFFFF"></path>
            <path d="M5.677,50.033 C29.598,40.02 56.54,40.02 80.46,50.033 C79.946,48.028 79.365,46.021 78.719,44.017 C78.669,43.858 78.729,43.691 78.873,43.606 C80.681,42.518 82.543,41.479 84.455,40.488 C57.979,29.406 28.159,29.406 1.682,40.488 C3.595,41.479 5.457,42.519 7.265,43.606 C7.409,43.695 7.47,43.855 7.419,44.017 C6.772,46.02 6.192,48.028 5.677,50.033 Z M80.873,51.022 C56.729,40.69 29.408,40.69 5.264,51.022 C5.129,51.082 4.975,51.059 4.863,50.971 C4.752,50.888 4.702,50.74 4.737,50.602 C5.266,48.439 5.871,46.274 6.552,44.11 C4.599,42.956 2.584,41.857 0.512,40.818 C0.379,40.75 0.306,40.616 0.325,40.474 C0.346,40.33 0.452,40.196 0.604,40.131 C27.724,28.526 58.414,28.525 85.534,40.131 C85.685,40.195 85.794,40.327 85.812,40.474 C85.831,40.617 85.76,40.751 85.626,40.817 C83.553,41.857 81.539,42.955 79.585,44.11 C80.267,46.273 80.872,48.438 81.401,50.602 C81.435,50.739 81.386,50.885 81.275,50.971 C81.163,51.061 81.008,51.082 80.873,51.022 Z" id="Fill-2" fill="#000000"></path>
            <path d="M59.548,37.662 C59.528,37.787 59.508,37.911 59.488,38.035 C59.328,38.008 59.169,37.984 59.009,37.958 C59.029,37.826 59.05,37.694 59.071,37.562 C59.13,37.188 59.002,36.936 58.627,36.88 C58.26,36.824 58.058,37.023 58.003,37.399 C57.896,38.131 57.789,38.863 57.682,39.594 C57.627,39.969 57.759,40.216 58.113,40.271 C58.473,40.323 58.668,40.128 58.727,39.754 C58.754,39.573 58.783,39.394 58.811,39.214 C58.969,39.238 59.127,39.265 59.285,39.29 C59.256,39.461 59.229,39.634 59.201,39.805 C59.099,40.433 58.716,40.793 58.037,40.69 C57.363,40.589 57.105,40.132 57.194,39.5 C57.295,38.784 57.396,38.067 57.498,37.351 C57.586,36.721 57.974,36.35 58.679,36.457 C59.39,36.565 59.65,37.032 59.548,37.662" id="Fill-3" fill="#000000"></path>
            <path d="M61.055,40.147 C60.987,40.522 61.118,40.773 61.47,40.839 C61.829,40.908 62.036,40.724 62.108,40.344 C62.248,39.617 62.387,38.89 62.527,38.165 C62.599,37.795 62.473,37.535 62.1,37.467 C61.734,37.401 61.517,37.589 61.451,37.964 C61.319,38.692 61.188,39.42 61.055,40.147 Z M60.947,37.899 C61.058,37.267 61.476,36.918 62.178,37.049 C62.885,37.182 63.153,37.657 63.027,38.287 C62.887,38.997 62.747,39.707 62.607,40.417 C62.483,41.039 62.068,41.383 61.392,41.257 C60.719,41.134 60.461,40.662 60.57,40.036 C60.696,39.323 60.821,38.612 60.947,37.899 Z" id="Fill-4" fill="#000000"></path>
            <path d="M65.81,39.841 C65.778,39.979 65.747,40.118 65.714,40.256 C65.374,40.178 65.032,40.102 64.691,40.028 C64.562,40.621 64.433,41.213 64.305,41.804 C64.142,41.769 63.979,41.734 63.817,41.699 C64.107,40.33 64.398,38.961 64.689,37.593 C65.294,37.721 65.896,37.854 66.499,37.994 C66.467,38.132 66.435,38.271 66.403,38.409 C65.972,38.308 65.539,38.213 65.107,38.118 C64.999,38.616 64.89,39.114 64.782,39.613 C65.124,39.687 65.467,39.763 65.81,39.841" id="Fill-5" fill="#000000"></path>
            <path d="M68.929,40.606 C68.893,40.743 68.857,40.881 68.821,41.018 C68.482,40.929 68.143,40.842 67.803,40.757 C67.656,41.344 67.509,41.932 67.361,42.52 C67.2,42.48 67.038,42.44 66.876,42.399 C67.21,41.041 67.544,39.681 67.877,38.322 C68.478,38.47 69.078,38.622 69.677,38.781 C69.64,38.918 69.604,39.055 69.568,39.193 C69.139,39.079 68.709,38.969 68.279,38.861 C68.155,39.356 68.031,39.849 67.907,40.344 C68.248,40.43 68.588,40.517 68.929,40.606" id="Fill-6" fill="#000000"></path>
            <path d="M72.121,41.397 C72.081,41.531 72.041,41.665 72.002,41.8 C71.644,41.694 71.285,41.589 70.926,41.488 C70.79,41.966 70.654,42.445 70.517,42.924 C70.952,43.047 71.385,43.173 71.818,43.303 C71.777,43.439 71.737,43.574 71.696,43.711 C71.105,43.534 70.512,43.363 69.919,43.197 C70.295,41.849 70.671,40.502 71.047,39.154 C71.666,39.326 72.284,39.505 72.899,39.69 C72.859,39.825 72.818,39.961 72.777,40.097 C72.33,39.964 71.882,39.832 71.433,39.705 C71.303,40.165 71.172,40.625 71.041,41.084 C71.401,41.187 71.761,41.29 72.121,41.397" id="Fill-7" fill="#000000"></path>
            <path d="M75.327,42.406 C75.283,42.539 75.239,42.672 75.194,42.804 C74.839,42.686 74.483,42.569 74.127,42.456 C73.975,42.93 73.824,43.403 73.671,43.878 C74.103,44.016 74.532,44.156 74.962,44.301 C74.917,44.436 74.872,44.571 74.827,44.705 C74.24,44.509 73.652,44.317 73.063,44.131 C73.483,42.796 73.904,41.461 74.324,40.127 C74.938,40.32 75.551,40.519 76.162,40.725 C76.117,40.859 76.071,40.994 76.026,41.129 C75.582,40.979 75.138,40.833 74.693,40.691 C74.547,41.146 74.401,41.601 74.255,42.056 C74.613,42.171 74.97,42.287 75.327,42.406" id="Fill-8" fill="#000000"></path>
            <path d="M15.158,41.533 C15.331,42.139 15.503,42.745 15.676,43.35 C15.516,43.396 15.355,43.443 15.195,43.489 C14.804,42.146 14.414,40.802 14.023,39.459 C14.19,39.41 14.357,39.362 14.525,39.314 C14.697,39.919 14.871,40.525 15.043,41.13 C15.405,41.028 15.768,40.926 16.131,40.826 C15.965,40.219 15.799,39.612 15.633,39.004 C15.801,38.958 15.969,38.913 16.137,38.868 C16.499,40.219 16.861,41.571 17.223,42.923 C17.063,42.965 16.901,43.009 16.74,43.053 C16.574,42.446 16.408,41.838 16.242,41.231 C15.88,41.33 15.519,41.431 15.158,41.533" id="Fill-9" fill="#000000"></path>
            <path d="M19.487,41.326 C19.577,41.701 19.796,41.873 20.147,41.792 C20.503,41.709 20.617,41.453 20.532,41.081 C20.366,40.36 20.201,39.639 20.036,38.918 C19.952,38.549 19.731,38.364 19.362,38.453 C19,38.538 18.878,38.803 18.968,39.169 C19.141,39.888 19.314,40.608 19.487,41.326 Z M18.478,39.313 C18.325,38.693 18.569,38.203 19.265,38.038 C19.968,37.876 20.404,38.199 20.544,38.828 C20.702,39.534 20.86,40.24 21.018,40.945 C21.157,41.566 20.915,42.05 20.244,42.206 C19.578,42.365 19.149,42.036 18.997,41.421 C18.823,40.719 18.651,40.015 18.478,39.313 Z" id="Fill-10" fill="#000000"></path>
            <path d="M23.903,41.376 C23.662,40.142 23.42,38.908 23.179,37.674 C22.899,37.729 22.619,37.785 22.339,37.842 C22.311,37.703 22.283,37.564 22.254,37.425 C22.983,37.277 23.713,37.135 24.445,37.002 C24.47,37.141 24.496,37.282 24.521,37.421 C24.241,37.471 23.96,37.524 23.68,37.578 C23.916,38.813 24.151,40.049 24.386,41.283 C24.225,41.313 24.064,41.345 23.903,41.376" id="Fill-11" fill="#000000"></path>
            <path d="M48.031,51.895 C48.031,52.101 47.863,52.27 47.656,52.27 C47.449,52.27 47.281,52.101 47.281,51.895 L47.281,49.501 L45.736,49.501 L45.736,51.895 C45.736,52.101 45.568,52.27 45.361,52.27 C45.154,52.27 44.986,52.101 44.986,51.895 L44.986,49.501 L43.443,49.501 L43.443,51.895 C43.443,52.101 43.275,52.27 43.068,52.27 C42.861,52.27 42.693,52.101 42.693,51.895 L42.693,49.501 L41.15,49.501 L41.15,51.895 C41.15,52.101 40.982,52.27 40.775,52.27 C40.568,52.27 40.4,52.101 40.4,51.895 L40.4,49.501 L38.855,49.501 L38.855,51.895 C38.855,52.101 38.687,52.27 38.48,52.27 C38.273,52.27 38.105,52.101 38.105,51.895 L38.105,49.501 L36.803,49.501 L37.279,53.221 L48.859,53.221 L49.333,49.501 L48.031,49.501 L48.031,51.895" id="Fill-12" fill="#FFFFFF"></path>
            <path d="M38.144,30.174 C38.314,30.056 38.547,30.1 38.665,30.272 C38.781,30.443 38.738,30.677 38.566,30.793 C37.253,31.691 36.245,32.943 35.65,34.412 C35.591,34.558 35.45,34.647 35.302,34.647 C35.255,34.647 35.208,34.638 35.162,34.619 C34.97,34.542 34.877,34.323 34.955,34.131 C35.605,32.524 36.708,31.155 38.144,30.174 Z M39.792,29.291 C40.832,28.87 41.932,28.657 43.062,28.657 C43.269,28.657 43.437,28.825 43.437,29.032 C43.437,29.239 43.269,29.407 43.062,29.407 C42.029,29.407 41.023,29.602 40.073,29.986 C40.026,30.005 39.979,30.013 39.932,30.013 C39.784,30.013 39.644,29.925 39.584,29.779 C39.507,29.587 39.6,29.368 39.792,29.291 Z M49.686,37.398 C49.686,41.049 46.714,44.021 43.062,44.021 C39.41,44.021 36.439,41.049 36.439,37.398 C36.439,33.744 39.41,30.773 43.062,30.773 C46.714,30.773 49.686,33.744 49.686,37.398 Z M50.308,41.596 C50.482,41.708 50.532,41.94 50.42,42.114 C49.941,42.861 49.353,43.529 48.672,44.1 C48.602,44.159 48.517,44.188 48.431,44.188 C48.324,44.188 48.218,44.142 48.144,44.054 C48.011,43.896 48.031,43.659 48.19,43.526 C48.813,43.003 49.351,42.391 49.79,41.709 C49.901,41.535 50.132,41.484 50.308,41.596 Z M42.687,45.761 C42.687,45.553 42.855,45.385 43.062,45.385 C44.399,45.385 45.719,45.051 46.876,44.418 C47.059,44.319 47.286,44.386 47.385,44.568 C47.484,44.749 47.418,44.978 47.236,45.076 C45.968,45.77 44.525,46.135 43.062,46.135 C42.855,46.135 42.687,45.968 42.687,45.761 Z M35.619,48.751 L50.52,48.751 L53.801,26.271 L32.337,26.271 L35.619,48.751 Z" id="Fill-13" fill="#FFFFFF"></path>
            <path d="M42.201,21.407 L49.303,21.407 C49.51,21.407 49.678,21.575 49.678,21.782 C49.678,21.989 49.51,22.157 49.303,22.157 L42.201,22.157 C41.994,22.157 41.826,21.989 41.826,21.782 C41.826,21.575 41.994,21.407 42.201,21.407 Z M51.492,21.407 L55.441,21.407 L55.441,20.58 L30.697,20.58 L30.697,21.407 L39.554,21.407 C39.761,21.407 39.929,21.575 39.929,21.782 C39.929,21.989 39.761,22.157 39.554,22.157 L30.697,22.157 L30.697,25.521 L55.441,25.521 L55.441,22.157 L51.492,22.157 C51.285,22.157 51.117,21.989 51.117,21.782 C51.117,21.575 51.285,21.407 51.492,21.407 Z" id="Fill-14" fill="#FFFFFF"></path>
            <path d="M43.3,33.319 C43.3,33.112 43.468,32.944 43.675,32.944 C43.882,32.944 44.05,33.112 44.05,33.319 L44.05,34.381 C44.856,34.518 45.473,35.217 45.473,36.062 C45.473,36.481 45.316,36.861 45.065,37.159 C45.678,37.419 46.109,38.027 46.109,38.733 C46.109,39.677 45.341,40.444 44.398,40.444 L44.05,40.444 L44.05,41.478 C44.05,41.684 43.882,41.853 43.675,41.853 C43.468,41.853 43.3,41.684 43.3,41.478 L43.3,40.444 L42.578,40.444 L42.578,41.478 C42.578,41.684 42.41,41.853 42.203,41.853 C41.996,41.853 41.828,41.684 41.828,41.478 L41.828,40.444 L40.39,40.444 C40.183,40.444 40.015,40.277 40.015,40.069 C40.015,39.862 40.183,39.694 40.39,39.694 L40.841,39.694 L40.841,35.102 L40.392,35.102 C40.185,35.102 40.017,34.934 40.017,34.728 C40.017,34.52 40.185,34.352 40.392,34.352 L41.828,34.352 L41.828,33.319 C41.828,33.112 41.996,32.944 42.203,32.944 C42.41,32.944 42.578,33.112 42.578,33.319 L42.578,34.352 L43.3,34.352 L43.3,33.319 Z M37.189,37.398 C37.189,40.636 39.824,43.271 43.062,43.271 C46.301,43.271 48.936,40.636 48.936,37.398 C48.936,34.159 46.301,31.523 43.062,31.523 C39.824,31.523 37.189,34.159 37.189,37.398 Z" id="Fill-15" fill="#FFFFFF"></path>
            <path d="M41.591,35.102 L41.591,37.023 L43.771,37.023 C44.296,37.018 44.723,36.591 44.723,36.064 C44.723,35.533 44.293,35.102 43.764,35.102 L41.591,35.102" id="Fill-16" fill="#FFFFFF"></path>
            <path d="M43.777,37.773 L41.591,37.773 L41.591,39.694 L44.398,39.694 C44.928,39.694 45.359,39.263 45.359,38.733 C45.359,38.203 44.928,37.773 44.398,37.773 L43.777,37.773" id="Fill-17" fill="#FFFFFF"></path>
            <path d="M37.279,53.221 L36.803,49.501 L38.105,49.501 L38.105,51.895 C38.105,52.101 38.273,52.27 38.48,52.27 C38.687,52.27 38.855,52.101 38.855,51.895 L38.855,49.501 L40.4,49.501 L40.4,51.895 C40.4,52.101 40.568,52.27 40.775,52.27 C40.982,52.27 41.15,52.101 41.15,51.895 L41.15,49.501 L42.693,49.501 L42.693,51.895 C42.693,52.101 42.861,52.27 43.068,52.27 C43.275,52.27 43.443,52.101 43.443,51.895 L43.443,49.501 L44.986,49.501 L44.986,51.895 C44.986,52.101 45.154,52.27 45.361,52.27 C45.568,52.27 45.736,52.101 45.736,51.895 L45.736,49.501 L47.281,49.501 L47.281,51.895 C47.281,52.101 47.449,52.27 47.656,52.27 C47.863,52.27 48.031,52.101 48.031,51.895 L48.031,49.501 L49.333,49.501 L48.859,53.221 L37.279,53.221 Z M50.185,48.751 L35.619,48.751 L32.337,26.271 L53.801,26.271 L50.52,48.751 L50.185,48.751 Z M51.492,22.157 L55.441,22.157 L55.441,25.521 L30.697,25.521 L30.697,22.157 L39.554,22.157 C39.761,22.157 39.929,21.989 39.929,21.782 C39.929,21.575 39.761,21.407 39.554,21.407 L30.697,21.407 L30.697,20.58 L55.441,20.58 L55.441,21.407 L51.492,21.407 C51.285,21.407 51.117,21.575 51.117,21.782 C51.117,21.989 51.285,22.157 51.492,22.157 Z M55.816,19.83 L30.322,19.83 C30.115,19.83 29.947,19.997 29.947,20.204 L29.947,25.896 C29.947,26.103 30.115,26.271 30.322,26.271 L31.58,26.271 L34.923,49.18 C34.95,49.364 35.108,49.501 35.294,49.501 L36.047,49.501 L36.577,53.643 C36.601,53.83 36.76,53.971 36.949,53.971 L49.189,53.971 C49.378,53.971 49.537,53.83 49.561,53.644 L50.089,49.501 L50.844,49.501 C51.03,49.501 51.189,49.364 51.215,49.18 L54.559,26.271 L55.816,26.271 C56.023,26.271 56.191,26.103 56.191,25.896 L56.191,20.204 C56.191,19.997 56.023,19.83 55.816,19.83 Z" id="Fill-18" fill="#000000"></path>
            <path d="M42.803,16.344 C42.656,16.491 42.656,16.728 42.803,16.875 C42.876,16.948 42.972,16.985 43.068,16.985 C43.164,16.985 43.26,16.948 43.333,16.875 C45.586,14.62 45.586,10.952 43.333,8.696 C42.395,7.759 41.857,6.462 41.857,5.138 C41.857,3.813 42.395,2.515 43.333,1.578 C43.479,1.432 43.479,1.195 43.333,1.049 C43.187,0.902 42.95,0.901 42.803,1.049 C41.725,2.125 41.107,3.615 41.107,5.138 C41.107,6.66 41.725,8.15 42.803,9.225 C44.764,11.189 44.764,14.382 42.803,16.344" id="Fill-19" fill="#000000"></path>
            <path d="M37.229,16.344 C37.083,16.491 37.083,16.729 37.229,16.875 C37.303,16.948 37.399,16.985 37.495,16.985 C37.591,16.985 37.687,16.948 37.76,16.875 C39.581,15.053 39.518,12.027 37.62,10.129 C36.84,9.35 36.398,8.327 36.375,7.246 C36.349,6.195 36.752,5.173 37.48,4.443 C37.627,4.297 37.627,4.058 37.48,3.912 C37.333,3.765 37.096,3.766 36.95,3.912 C36.077,4.786 35.594,6.009 35.625,7.264 C35.652,8.537 36.173,9.743 37.09,10.659 C38.695,12.264 38.758,14.815 37.229,16.344" id="Fill-20" fill="#000000"></path>
            <path d="M49.763,13.54 C49.787,14.611 49.394,15.606 48.654,16.344 C48.508,16.491 48.508,16.728 48.654,16.875 C48.728,16.948 48.823,16.985 48.919,16.985 C49.015,16.985 49.111,16.948 49.185,16.876 C50.07,15.991 50.542,14.801 50.513,13.523 C50.485,12.252 49.964,11.047 49.047,10.129 C48.276,9.359 47.821,8.31 47.798,7.249 C47.773,6.182 48.167,5.186 48.908,4.443 C49.055,4.297 49.055,4.06 48.908,3.914 C48.761,3.766 48.524,3.768 48.378,3.914 C47.503,4.788 47.019,6.011 47.048,7.266 C47.076,8.518 47.611,9.754 48.517,10.659 C49.296,11.44 49.739,12.463 49.763,13.54" id="Fill-21" fill="#000000"></path>
            <path d="M43.062,43.271 C39.824,43.271 37.189,40.636 37.189,37.398 C37.189,34.159 39.824,31.523 43.062,31.523 C46.301,31.523 48.936,34.159 48.936,37.398 C48.936,40.636 46.301,43.271 43.062,43.271 Z M43.062,30.773 C39.41,30.773 36.439,33.744 36.439,37.398 C36.439,41.049 39.41,44.021 43.062,44.021 C46.714,44.021 49.686,41.049 49.686,37.398 C49.686,33.744 46.714,30.773 43.062,30.773 Z" id="Fill-22" fill="#000000"></path>
            <path d="M39.932,30.013 C39.979,30.013 40.026,30.005 40.073,29.986 C41.023,29.602 42.029,29.407 43.062,29.407 C43.269,29.407 43.437,29.239 43.437,29.032 C43.437,28.825 43.269,28.657 43.062,28.657 C41.932,28.657 40.832,28.87 39.792,29.291 C39.6,29.368 39.507,29.587 39.584,29.779 C39.644,29.925 39.784,30.013 39.932,30.013" id="Fill-23" fill="#000000"></path>
            <path d="M50.308,41.596 C50.132,41.484 49.901,41.535 49.79,41.709 C49.351,42.391 48.813,43.003 48.19,43.526 C48.031,43.659 48.011,43.896 48.144,44.054 C48.218,44.142 48.324,44.188 48.431,44.188 C48.517,44.188 48.602,44.159 48.672,44.1 C49.353,43.529 49.941,42.861 50.42,42.114 C50.532,41.94 50.482,41.708 50.308,41.596" id="Fill-24" fill="#000000"></path>
            <path d="M46.876,44.418 C45.719,45.051 44.399,45.385 43.062,45.385 C42.855,45.385 42.687,45.553 42.687,45.761 C42.687,45.968 42.855,46.135 43.062,46.135 C44.525,46.135 45.968,45.77 47.236,45.076 C47.418,44.978 47.484,44.749 47.385,44.568 C47.286,44.386 47.059,44.319 46.876,44.418" id="Fill-25" fill="#000000"></path>
            <path d="M38.566,30.793 C38.738,30.677 38.781,30.443 38.665,30.272 C38.547,30.1 38.314,30.056 38.144,30.174 C36.708,31.155 35.605,32.524 34.955,34.131 C34.877,34.323 34.97,34.542 35.162,34.619 C35.208,34.638 35.255,34.647 35.302,34.647 C35.45,34.647 35.591,34.558 35.65,34.412 C36.245,32.943 37.253,31.691 38.566,30.793" id="Fill-26" fill="#000000"></path>
            <path d="M41.591,37.774 L41.591,37.773 L44.398,37.773 C44.928,37.773 45.359,38.203 45.359,38.733 C45.359,39.263 44.928,39.694 44.398,39.694 L41.591,39.694 L41.591,37.774 Z M42.203,35.102 L43.764,35.102 C44.293,35.102 44.723,35.533 44.723,36.064 C44.723,36.591 44.296,37.018 43.771,37.023 L41.591,37.023 L41.591,35.102 L42.203,35.102 Z M45.065,37.159 C45.316,36.861 45.473,36.481 45.473,36.062 C45.473,35.217 44.856,34.518 44.05,34.381 L44.05,33.319 C44.05,33.112 43.882,32.944 43.675,32.944 C43.468,32.944 43.3,33.112 43.3,33.319 L43.3,34.352 L42.578,34.352 L42.578,33.319 C42.578,33.112 42.41,32.944 42.203,32.944 C41.996,32.944 41.828,33.112 41.828,33.319 L41.828,34.352 L40.392,34.352 C40.185,34.352 40.017,34.52 40.017,34.728 C40.017,34.934 40.185,35.102 40.392,35.102 L40.841,35.102 L40.841,39.694 L40.39,39.694 C40.183,39.694 40.015,39.862 40.015,40.069 C40.015,40.277 40.183,40.444 40.39,40.444 L41.828,40.444 L41.828,41.478 C41.828,41.684 41.996,41.853 42.203,41.853 C42.41,41.853 42.578,41.684 42.578,41.478 L42.578,40.444 L43.3,40.444 L43.3,41.478 C43.3,41.684 43.468,41.853 43.675,41.853 C43.882,41.853 44.05,41.684 44.05,41.478 L44.05,40.444 L44.398,40.444 C45.341,40.444 46.109,39.677 46.109,38.733 C46.109,38.027 45.678,37.419 45.065,37.159 Z" id="Fill-27" fill="#000000"></path>
            <path d="M49.303,21.407 L42.201,21.407 C41.994,21.407 41.826,21.575 41.826,21.782 C41.826,21.989 41.994,22.157 42.201,22.157 L49.303,22.157 C49.51,22.157 49.678,21.989 49.678,21.782 C49.678,21.575 49.51,21.407 49.303,21.407" id="Fill-28" fill="#000000"></path>
            <polyline id="Fill-29" fill="#000000" points="28.816 58.056 28.551 58.477 27.597 57.88 26.471 59.677 26.008 59.388 28.607 55.234 30.256 56.265 29.994 56.687 28.806 55.945 27.86 57.458 28.816 58.056"></polyline>
            <path d="M30.425,60.563 C30.24,60.972 30.303,61.285 30.661,61.448 C31.024,61.613 31.297,61.453 31.484,61.045 L32.557,58.685 C32.741,58.284 32.684,57.966 32.321,57.8 C31.963,57.638 31.681,57.802 31.499,58.204 L30.425,60.563 Z M30.997,58.006 C31.306,57.323 31.844,57.037 32.527,57.348 C33.216,57.662 33.353,58.255 33.042,58.937 L31.993,61.246 C31.685,61.922 31.144,62.215 30.455,61.901 C29.772,61.59 29.638,60.99 29.945,60.314 L30.997,58.006 Z" id="Fill-30" fill="#000000"></path>
            <path d="M35.199,60.872 C35.616,60.995 35.903,60.934 36.054,60.424 L36.188,59.975 C36.312,59.551 36.223,59.284 35.833,59.169 L35.325,59.019 L34.81,60.757 L35.199,60.872 Z M35.989,58.697 C36.727,58.916 36.924,59.382 36.718,60.081 L36.605,60.463 C36.452,60.979 36.175,61.248 35.735,61.257 C36.127,61.511 36.185,61.908 36.036,62.411 L35.819,63.142 C35.757,63.35 35.707,63.547 35.747,63.734 L35.216,63.578 C35.196,63.425 35.205,63.297 35.298,62.981 L35.516,62.242 C35.673,61.713 35.475,61.472 35.038,61.342 L34.669,61.233 L34.075,63.239 L33.552,63.085 L34.942,58.387 L35.989,58.697 Z" id="Fill-31" fill="#000000"></path>
            <path d="M41.502,61.808 C41.935,61.838 42.168,61.714 42.204,61.205 L42.223,60.918 C42.253,60.485 42.122,60.266 41.731,60.239 L41.194,60.201 L41.083,61.779 L41.502,61.808 Z M41.502,64.137 C41.9,64.165 42.095,63.967 42.127,63.514 L42.157,63.081 C42.195,62.537 41.991,62.34 41.524,62.307 L41.049,62.275 L40.922,64.096 L41.502,64.137 Z M41.78,59.744 C42.541,59.797 42.815,60.18 42.765,60.9 L42.749,61.13 C42.713,61.647 42.544,61.958 42.109,62.06 C42.574,62.226 42.73,62.616 42.693,63.153 L42.664,63.565 C42.613,64.298 42.228,64.685 41.467,64.632 L40.343,64.554 L40.683,59.668 L41.78,59.744 Z" id="Fill-32" fill="#000000"></path>
            <polyline id="Fill-33" fill="#000000" points="44.959 59.783 45.141 64.677 44.596 64.697 44.415 59.803 44.959 59.783"></polyline>
            <polyline id="Fill-34" fill="#000000" points="47.928 64.426 47.303 60.069 46.411 60.198 46.339 59.706 48.661 59.373 48.731 59.865 47.837 59.993 48.461 64.35 47.928 64.426"></polyline>
            <path d="M52.435,59.629 L52.555,60.052 L52.056,60.192 L51.929,59.742 C51.81,59.318 51.569,59.109 51.186,59.218 C50.809,59.324 50.706,59.629 50.825,60.053 L51.528,62.544 C51.647,62.968 51.894,63.175 52.271,63.068 C52.655,62.96 52.752,62.657 52.631,62.233 L52.459,61.621 L52.958,61.479 L53.123,62.065 C53.324,62.779 53.12,63.345 52.393,63.55 C51.673,63.754 51.204,63.377 51.001,62.664 L50.314,60.226 C50.114,59.513 50.317,58.946 51.038,58.743 C51.764,58.538 52.234,58.914 52.435,59.629" id="Fill-35" fill="#000000"></path>
            <path d="M55.474,61.214 C55.654,61.624 55.93,61.784 56.29,61.627 C56.655,61.468 56.717,61.157 56.538,60.747 L55.5,58.376 C55.323,57.972 55.05,57.802 54.685,57.962 C54.326,58.119 54.259,58.438 54.436,58.842 L55.474,61.214 Z M53.954,59.083 C53.654,58.397 53.8,57.807 54.485,57.506 C55.178,57.203 55.711,57.497 56.011,58.183 L57.027,60.503 C57.324,61.182 57.181,61.78 56.489,62.083 C55.803,62.382 55.266,62.082 54.969,61.403 L53.954,59.083 Z" id="Fill-36" fill="#000000"></path>
            <polyline id="Fill-37" fill="#000000" points="57.353 56.094 59.792 60.345 59.318 60.618 56.878 56.366 57.353 56.094"></polyline>
            <polyline id="Fill-38" fill="#000000" points="61.988 58.939 61.593 59.229 58.692 55.286 59.251 54.877 62.259 57.055 60.163 54.206 60.551 53.92 63.452 57.862 62.996 58.197 59.642 55.752 61.988 58.939"></polyline>
        </g>
    </g>
</svg>