<svg xmlns="http://www.w3.org/2000/svg" viewBox="0 0 76 76"><g fill="none" fill-rule="evenodd"><path fill="#FFF" d="M58.898 54.232c-10.29 14.099-31.368 14.098-41.658 0a33.06 33.06 0 00-1.836 6.014c-2.124.29-4.349.363-6.645.187 14.48 19.839 44.14 19.838 58.621 0a31.374 31.374 0 01-6.645-.187 32.88 32.88 0 00-1.837-6.014"/><path fill="#000" d="M9.545 60.859c6.84 8.959 17.189 14.078 28.524 14.078 11.334 0 21.684-5.119 28.525-14.078a31.625 31.625 0 01-5.91-.241.373.373 0 01-.316-.296 32.833 32.833 0 00-1.569-5.332c-4.983 6.485-12.5 10.19-20.729 10.191h-.003c-8.228 0-15.744-3.705-20.728-10.191a32.96 32.96 0 00-1.568 5.332.375.375 0 01-.316.296 31.704 31.704 0 01-5.91.241zm28.524 14.828c-11.846 0-22.64-5.479-29.613-15.032a.377.377 0 01.332-.596c2.12.163 4.247.112 6.303-.15a33.442 33.442 0 011.803-5.821.374.374 0 01.649-.077c4.833 6.622 12.314 10.42 20.524 10.42h.003c8.212-.001 15.693-3.799 20.526-10.42a.375.375 0 01.649.077 33.354 33.354 0 011.802 5.821c2.058.262 4.185.313 6.304.15a.367.367 0 01.356.192.375.375 0 01-.024.404c-6.973 9.553-17.767 15.032-29.614 15.032z"/><path fill="#000" d="M21.711 65.857A30.845 30.845 0 0120 64.735l-.671.955c.576.406 1.163.79 1.758 1.154a.72.72 0 00.491.094.597.597 0 00.217-.087.495.495 0 00.162-.172.531.531 0 00.068-.215.578.578 0 00-.026-.228.834.834 0 00-.109-.209.675.675 0 00-.179-.17zm.843-.821a.44.44 0 00.046-.359.495.495 0 00-.224-.299 28.89 28.89 0 01-1.452-.96l-.543.774c.491.346.991.675 1.497.99a.53.53 0 00.381.067.458.458 0 00.168-.073.486.486 0 00.127-.14zm-1.812 2.374a32.677 32.677 0 01-2.834-1.941l.402-.527c.132.102.265.201.399.3.549-.745 1.099-1.489 1.647-2.234a18.222 18.222 0 01-.364-.274l.402-.527a29.086 29.086 0 002.331 1.607 1.231 1.231 0 01.535.707c.04.141.053.286.038.439a1.086 1.086 0 01-.384.723 1.21 1.21 0 01-.327.186c.106.188.16.381.157.597a1.176 1.176 0 01-.143.578 1.062 1.062 0 01-.333.371 1.217 1.217 0 01-.465.196 1.418 1.418 0 01-.532.003 1.62 1.62 0 01-.529-.204zM27.628 67.798a.795.795 0 00-.035-.617.9.9 0 00-.188-.253.857.857 0 00-.28-.176c-.472-.186-.94-.382-1.404-.593l-.666 1.465a30.7 30.7 0 001.514.637.812.812 0 00.892-.192.805.805 0 00.167-.271zm-2.872 1.695a32.082 32.082 0 01-1.598-.746l.298-.592c.145.072.291.144.437.214L25.1 65.87c-.134-.065-.267-.13-.401-.197l.298-.593c.789.395 1.592.751 2.408 1.07.175.068.331.167.467.297.135.135.247.284.331.458.089.178.139.364.155.553.015.193-.006.382-.07.568a1.357 1.357 0 01-.293.496 1.4 1.4 0 01-.483.337c-.26.108-.534.148-.817.115l.022.237c.026.258.141.423.343.497a.63.63 0 00.305.039c.093-.011.191-.04.293-.084.094.2.191.4.289.601a1.9 1.9 0 01-.538.152 1.305 1.305 0 01-.573-.084c-.29-.104-.504-.257-.642-.461a1.498 1.498 0 01-.243-.73 60.787 60.787 0 01-.034-.425c-.381-.154-.76-.318-1.137-.488l-.209.458c.15.068.3.134.45.199l-.265.608zM33.746 68.998a42.21 42.21 0 01-.621-.095l.024-.495a30.163 30.163 0 01-2.081-.419l-.222.918c.594.142 1.192.266 1.792.373l-.117.652a31.97 31.97 0 01-1.831-.38l-.273 1.133c.773.185 1.552.342 2.335.469l.14-.476c.219.036.439.068.659.099l-.163 1.144a33.58 33.58 0 01-4.333-.904l.179-.638.465.126.713-2.682a33.553 33.553 0 01-.426-.114l.18-.638c1.232.343 2.483.604 3.744.784l-.164 1.143M37.564 69.25c.423.007.847.005 1.27-.005.225.771.465 1.54.721 2.306l.234-.011c.216-.937.41-1.875.582-2.816l-.41.028c-.014-.22-.027-.441-.042-.661a30.79 30.79 0 001.516-.134l.076.658c-.147.017-.294.032-.441.047a61.406 61.406 0 01-.684 3.506c-.452.031-.905.053-1.358.066a61.275 61.275 0 01-.719-2.318l-.215.001a59.944 59.944 0 01-.699 2.324c-.453-.01-.906-.028-1.358-.055a59.295 59.295 0 01-.714-3.5 33.024 33.024 0 01-.442-.043l.071-.659c.505.055 1.01.095 1.517.121l-.037.662c-.136-.008-.273-.015-.409-.025.179.94.381 1.876.606 2.811l.233.01c.25-.768.484-1.539.702-2.313M46.586 68.097c-.202.059-.405.115-.608.169l-.183-.46c-.686.183-1.377.339-2.072.471l.179.928a31.334 31.334 0 001.788-.396l.164.642c-.605.153-1.214.288-1.826.405l.221 1.145c.78-.149 1.555-.326 2.324-.532-.022-.164-.046-.327-.07-.491.216-.057.431-.118.644-.18l.328 1.108a33.573 33.573 0 01-4.325.957 148.14 148.14 0 00-.101-.655c.158-.025.316-.05.473-.077l-.463-2.734a32.59 32.59 0 01-.434.069l-.101-.655a29.498 29.498 0 003.737-.823l.325 1.109M51.209 66.677a.814.814 0 00-.464-.409.87.87 0 00-.638.03c-.465.206-.936.397-1.41.576l.573 1.503a31.667 31.667 0 001.52-.622.815.815 0 00.494-.768.74.74 0 00-.075-.31zm-.82 3.229c-.545.216-1.093.416-1.646.602-.071-.21-.141-.419-.213-.628.153-.051.305-.103.457-.158l-.929-2.614-.418.144-.213-.628a29.259 29.259 0 002.449-.948c.174-.077.353-.115.543-.121.189-.008.377.021.562.086.189.061.358.155.506.278a1.408 1.408 0 01.501 1.006c.008.194-.026.387-.103.581a1.552 1.552 0 01-.498.661l.185.151c.202.162.402.196.598.106a.653.653 0 00.245-.189c.058-.077.106-.163.148-.268.211.073.423.147.637.216a1.872 1.872 0 01-.276.491c-.108.137-.265.245-.468.348-.28.134-.543.179-.785.132a1.496 1.496 0 01-.692-.342l-.326-.275c-.38.161-.762.315-1.147.46l.18.47c.152-.059.305-.116.457-.177l.246.616zM53.794 64.358l-.275.169c.45.247.91.484 1.377.712.32-.206.638-.418.952-.637a35.97 35.97 0 00-.125-1.55l-.264.192-.387-.538c.427-.309.848-.629 1.262-.963l.415.517c-.133.108-.267.213-.401.318.108.76.193 1.527.254 2.303-.184.13-.369.26-.555.389l.441.644a28.5 28.5 0 00.417-.292l.384.541c-.492.349-.991.682-1.496 1.001l-.354-.561c.14-.087.278-.177.416-.266-.142-.218-.284-.435-.425-.654-.187.122-.374.241-.563.358a34.73 34.73 0 01-2.019-1.12c-.143.082-.287.161-.432.241l-.318-.581c.455-.25.904-.511 1.347-.787l.349.564M17.713 12.017l-2.17 2.093 1.318 1.367 2.151-2.074a.915.915 0 00.213-.311c.046-.116.071-.235.076-.355a.93.93 0 00-.264-.683.947.947 0 00-.302-.209.885.885 0 00-.352-.073c-.121 0-.239.02-.355.06a.951.951 0 00-.315.185zm-.963-1.647a.734.734 0 00-.537-.232.737.737 0 00-.545.213l-1.943 1.874 1.069 1.108 1.943-1.874a.745.745 0 00.173-.255.794.794 0 00.059-.289.767.767 0 00-.219-.545zm3.011 3.81l-3.433 3.311-.749-.776.505-.488-3.137-3.252-.505.487-.75-.777 3.226-3.112a1.86 1.86 0 012.009-.368 1.83 1.83 0 01.95.934c.084.191.137.384.159.579.319-.066.64-.042.963.072.323.114.594.285.815.514.196.204.34.431.433.683.093.252.137.51.132.772a2.035 2.035 0 01-.163.765 1.962 1.962 0 01-.455.656zM24.71 10.732l-2.146 1.304-.561-.923.608-.369-2.346-3.861-.608.369-.561-.923 2.138-1.298.561.921-.608.37 2.347 3.861.615-.374.561.923M25.437 4.981l-.941.307-.583-1.789 6.888-2.245.583 1.789-.941.306-.334-.733-1.908.622 1.4 4.295.676-.22.335 1.027-2.379.775-.335-1.027.676-.22-1.4-4.296-1.899.619.162.79M37.735 1.695a3 3 0 00-1.026.194 2.49 2.49 0 00-.808.496 2.171 2.171 0 00-.528.749 2.243 2.243 0 00-.177.949 2.207 2.207 0 00.78 1.667c.235.198.512.351.829.458.318.107.662.156 1.034.148.492-.011.921-.106 1.286-.286.365-.179.655-.423.871-.734l.816.71a3.456 3.456 0 01-1.268 1.006 4.13 4.13 0 01-1.681.384 4.114 4.114 0 01-1.395-.208 3.654 3.654 0 01-1.198-.657 3.341 3.341 0 01-.843-1.057 3.19 3.19 0 01-.338-1.406 3.285 3.285 0 01.274-1.442c.195-.427.46-.79.795-1.089A3.698 3.698 0 0136.326.88a4.224 4.224 0 011.385-.265c.396-.009.742.009 1.037.054.295.044.552.103.773.176.221.073.409.154.564.244.155.09.293.172.416.248l.025 1.16-.989.022-.057-.467a3.492 3.492 0 00-.327-.168 1.976 1.976 0 00-.367-.118 3.165 3.165 0 00-.456-.062 6.946 6.946 0 00-.595-.009M46.914 2.88a3.012 3.012 0 00-1.039-.107c-.335.027-.64.109-.917.245a2.228 2.228 0 00-1.159 1.427 2.24 2.24 0 00-.058.965c.051.312.161.597.331.855.169.257.39.483.664.676.274.193.591.338.949.436.382.105.741.143 1.078.117.337-.026.641-.108.912-.245.271-.138.503-.329.698-.575.194-.245.336-.533.426-.863.091-.33.115-.65.072-.96a2.108 2.108 0 00-.309-.85 2.415 2.415 0 00-.661-.674 3.142 3.142 0 00-.987-.447zm-4.183 1.274c.14-.515.365-.95.673-1.304a3.235 3.235 0 011.073-.818c.406-.19.845-.302 1.318-.335.472-.032.939.014 1.403.141.486.133.924.333 1.314.601.39.269.709.587.956.956.248.37.411.784.491 1.245.08.46.049.948-.091 1.463a3.26 3.26 0 01-.657 1.276 3.26 3.26 0 01-1.056.826c-.402.199-.84.317-1.315.355a4.132 4.132 0 01-1.439-.141 4.135 4.135 0 01-1.279-.597 3.654 3.654 0 01-.962-.971 3.341 3.341 0 01-.506-1.253 3.175 3.175 0 01.077-1.444zM52.531 11.368l-2.202-1.205.518-.948.624.342 2.169-3.964-.623-.341.519-.947 2.194 1.201-.519.948-.623-.341-2.169 3.963.631.345-.519.947M55.782 13.69l-1.858-1.662.72-.805.524.468 3.012-3.367-.523-.468.72-.805 2.019 1.807-1.909 5.804.194.174 3.013-3.367-.529-.474.719-.805 1.865 1.668-.72.805-.529-.474-3.014 3.367.53.474-.72.805-2.019-1.806 1.909-5.805-.202-.18-3.012 3.367.53.474-.72.805M46.123 30.108l.09 2.257.016.375.819 20.267h-20.8l.926-22.899h18.949zm.963 5.267h5.256c1.224 0 2.258 1.058 2.258 2.311 0 1.231-1.013 2.232-2.258 2.232H47.27l-.184-4.543zm.321 7.927h5.645a2.235 2.235 0 012.234 2.231c0 1.252-.993 2.233-2.26 2.233h-5.439l-.18-4.464zM26.22 27.743c.099.007.194.03.294.03.029 0 .057-.009.085-.01.334-.006.658-.058.974-.139a4.246 4.246 0 002.131-1.296 4.87 4.87 0 001.636 1.296 4.87 4.87 0 002.145.497c.37 0 .732-.043 1.083-.122a4.902 4.902 0 002.589-1.559c1.699 1.178 4.019 1.294 5.839.271a4.52 4.52 0 001.909.913c.305.066.617.111.934.111.25 0 .492-.035.731-.074.169-.027.331-.07.493-.116l.118 1.813H26.115l.105-1.615zm.281-7.723l.062-.354.004-.001.037.366a.374.374 0 00.377-.452 4.472 4.472 0 014.375-5.367c.352 0 .719.054 1.156.173a.376.376 0 00.443-.215 4.773 4.773 0 014.396-2.908c2.62 0 4.762 2.13 4.775 4.75 0 .132.069.253.182.32a.372.372 0 00.368.01 3.708 3.708 0 011.751-.453 3.761 3.761 0 013.757 3.757c0 .091-.013.179-.025.266l-.019.15a.374.374 0 00.13.325 3.748 3.748 0 011.327 2.842c0 1.374-.75 2.565-1.854 3.22a3.53 3.53 0 01-.363.197c-.118.054-.243.092-.367.133a3.684 3.684 0 01-1.174.206 3.716 3.716 0 01-2.338-.85c-.068-.055-.143-.1-.208-.161a.378.378 0 00-.455-.042c-.125.079-.258.138-.389.203a4.828 4.828 0 01-4.309 0 4.468 4.468 0 01-.621-.374c-.063-.046-.133-.082-.194-.13a.377.377 0 00-.534.068c-.016.021-.035.04-.052.062a4.68 4.68 0 01-.327.374 4.077 4.077 0 01-2.927 1.236 4.12 4.12 0 01-2.938-1.236 4.5 4.5 0 01-.328-.374c-.065-.086-.134-.168-.194-.259a.362.362 0 00-.126-.117.374.374 0 00-.183-.052h-.004a.37.37 0 00-.184.052.381.381 0 00-.125.111c-.068.099-.157.175-.233.265-.108.127-.207.265-.33.374a3.497 3.497 0 01-2.326.888c-.084 0-.163-.019-.245-.025-.126-.009-.252-.016-.374-.038-.127-.023-.247-.06-.369-.097-1.447-.43-2.513-1.756-2.513-3.341a3.504 3.504 0 013.488-3.502zm21.441 36.443H24.8l.2-2.706h23.296l.201 2.706h-.555zm4.892-5.671v1.261a.942.942 0 01-1.882 0v-1.254a.376.376 0 00-.375-.375h-1.455a.376.376 0 00-.375.375v1.254c0 .52-.424.942-.944.942l-.004-.001-.181-4.478h5.408c1.687 0 3.01-1.311 3.01-2.983a2.986 2.986 0 00-2.984-2.981h-5.675l-.077-1.884h5.042c1.659 0 3.008-1.338 3.008-2.982 0-1.659-1.377-3.061-3.008-3.061h-5.286l-.148-3.665a.928.928 0 01.898-.734c.519 0 .941.422.941.94v1.199c0 .208.168.375.375.375h1.459a.374.374 0 00.375-.375v-1.199a.94.94 0 011.88 0v1.281c0 .182.132.338.312.369 2.329.401 4.086 2.495 4.086 4.87 0 1.375-.671 2.656-1.75 3.343a.376.376 0 00.024.648c1.527.814 2.438 2.255 2.438 3.856 0 2.616-2.131 4.807-4.749 4.884a.376.376 0 00-.363.375zm3.525-9.48c1.014-.866 1.625-2.206 1.625-3.626 0-2.629-1.87-4.958-4.398-5.546v-.974c0-.931-.758-1.69-1.691-1.69-.932 0-1.689.759-1.689 1.69v.825h-.709v-.825c0-.885-.688-1.606-1.557-1.676l-.144-2.22c1.504-.732 2.551-2.26 2.551-4.041a4.488 4.488 0 00-1.437-3.275c.013-.101.024-.202.024-.308a4.512 4.512 0 00-4.507-4.507c-.537 0-1.068.101-1.583.302-.299-2.765-2.653-4.929-5.493-4.929a5.52 5.52 0 00-4.952 3.073 4.705 4.705 0 00-1.043-.123 5.223 5.223 0 00-5.182 5.822 4.258 4.258 0 00-3.911 4.238c0 1.985 1.372 3.642 3.213 4.108l-.135 2.079a.377.377 0 00.374.399h.709l-.927 22.899h-.845a.375.375 0 00-.374.347l-.256 3.457a.374.374 0 00.374.402h24.523a.374.374 0 00.347-.518l-.248-3.341c-.002-.033-.03-.055-.041-.086.319-.307.52-.737.52-1.215v-.879h.705v.879c0 .933.758 1.692 1.691 1.692.932 0 1.691-.759 1.691-1.692v-.909c2.85-.273 5.112-2.716 5.112-5.611 0-1.698-.863-3.24-2.337-4.221z"/><path fill="#000" d="M31.057 32.458c.237 0 .413.129.519.236.228.233.361.601.355.985l-.284 16.159c-.01.669-.482 1.233-1.031 1.233a.855.855 0 01-.615-.272 1.304 1.304 0 01-.343-.945l.452-16.157c.019-.672.453-1.239.947-1.239zm-.441 19.363c.965 0 1.764-.885 1.781-1.971l.284-16.159c.009-.59-.199-1.144-.57-1.522a1.478 1.478 0 00-1.054-.461c-.905 0-1.666.882-1.697 1.967l-.452 16.159c-.015.567.187 1.109.555 1.487.314.323.723.5 1.153.5zM35.738 33.688c.004-.667.421-1.23.91-1.23.49 0 .907.564.912 1.308l.083 16.08c.003.366-.13.711-.365.947a.886.886 0 01-.63.278.888.888 0 01-.629-.279 1.331 1.331 0 01-.365-.947l.084-16.157zm.91 18.133c.43 0 .843-.177 1.163-.5.374-.377.586-.916.582-1.48l-.084-16.158c-.006-1.088-.751-1.974-1.661-1.975-.908 0-1.653.886-1.661 2.055l-.083 16.078a2.085 2.085 0 00.583 1.48c.32.323.732.5 1.161.5zM41.366 33.679a1.394 1.394 0 01.325-.939c.012-.012.017-.033.028-.046a.741.741 0 01.52-.236c.208 0 .397.116.557.282.221.229.379.567.39.957l.026.928.011.375.01.375.127 4.543.021.75.053 1.884.021.75.125 4.464.01.375.011.375.037 1.339c.007.203-.039.394-.112.569a1.16 1.16 0 01-.228.371.846.846 0 01-.618.276c-.23 0-.434-.111-.607-.272a1.177 1.177 0 01-.274-.375 1.411 1.411 0 01-.15-.587l-.023-1.321-.013-.75-.078-4.464-.014-.75-.039-2.259-.007-.375-.079-4.543-.007-.375-.007-.375-.016-.946zM40.639 35l.006.375.08 4.543.013.75.04 2.259.091 5.214.007.375.023 1.334c.004.202.042.392.095.574a2.2 2.2 0 00.391.75c.327.395.786.647 1.295.647.431 0 .841-.18 1.156-.503.042-.044.075-.096.112-.144a1.87 1.87 0 00.233-.375c.056-.119.101-.244.134-.375.048-.19.079-.388.073-.591l-.037-1.317-.02-.75-.125-4.464-.011-.375-.01-.375-.064-2.259-.137-4.918-.022-.75-.026-.95a2.304 2.304 0 00-.463-1.31 1.847 1.847 0 00-.392-.374 1.465 1.465 0 00-.841-.283c-.301 0-.592.1-.844.283-.074.053-.145.11-.211.178-.059.059-.105.13-.155.196a2.056 2.056 0 00-.219.375 2.253 2.253 0 00-.195.952l.016.933.007.375zM29.145 23.058a.375.375 0 00.375-.375l.002-.018c.012-1.136 1.052-2.045 2.238-1.787.1.022.203.002.287-.055a.368.368 0 00.161-.245 3.6 3.6 0 013.539-2.957c1.486 0 2.838.943 3.363 2.344a.376.376 0 00.618.132 2.587 2.587 0 011.854-.776 2.609 2.609 0 012.606 2.606c0 .006.003.013.004.019a.373.373 0 00.746-.019 3.36 3.36 0 00-3.356-3.356 3.33 3.33 0 00-1.984.649 4.369 4.369 0 00-3.851-2.349 4.35 4.35 0 00-4.197 3.22c-1.511-.111-2.78 1.1-2.78 2.592 0 .207.168.375.375.375M44.741 23.075l-.08-.032c-.191-.076-.37.033-.447.227-.076.192.058.426.251.502a.372.372 0 00.487-.211.374.374 0 00-.211-.486M27.847 20.947a.377.377 0 00.26-.646l-.063-.06c-.148-.143-.355-.109-.499.04-.143.15-.107.418.042.561a.378.378 0 00.26.105M29.136 23.74c-.207.005-.369.22-.365.427a.376.376 0 00.375.366h.009a.374.374 0 00.366-.383l-.002-.086c-.005-.207-.194-.33-.383-.324"/><path fill="#000" d="M33.085 20.81l-.08-.032c-.193-.078-.371.032-.448.223-.078.193.056.427.248.505a.373.373 0 00.487-.208.374.374 0 00-.207-.488M41.11 17.456c.113 0 .23-.045.311-.126a.374.374 0 10-.528-.531l-.061.059c-.147.146-.118.353.028.501a.35.35 0 00.25.097M31.842 15.946a.306.306 0 00.107.019c.165 0 .33-.124.388-.283a.375.375 0 10-.705-.257l-.029.082c-.071.193.044.369.239.439M7.286 30.706a4.192 4.192 0 00-.634.549c.05-.217.091-.436.145-.651.164.041.33.075.499.096-.003.003-.007.003-.01.006zm-.888 8.154c-.177.21-.324.444-.454.687-.012-.218-.012-.436-.02-.655.165-.004.327-.027.491-.05-.005.006-.012.011-.017.018zm.095 4.864c-.039-.195-.086-.387-.121-.583.144-.024.29-.037.431-.075a3.953 3.953 0 00-.31.658zm.227 3.749c.082.246.161.493.25.737a6.15 6.15 0 00-.743-.557c-.025-.016-.051-.027-.076-.042.192-.029.381-.079.569-.138zM5.046 38.92c.043 0 .086-.007.129-.008.01.258.014.515.03.772a6.05 6.05 0 00-.566-.744c-.024-.028-.05-.05-.075-.075.161.02.316.055.482.055zm1.014-4.086c.095.01.189.027.285.03a4.045 4.045 0 00-.325.388c.012-.14.026-.279.04-.418zm-.425 8.443c.043.238.099.474.148.712a6.057 6.057 0 00-.661-.66c.171-.006.342-.024.513-.052zm-.372-7.978a6.088 6.088 0 00-.325-.587c.124.024.248.045.376.057-.018.176-.036.352-.051.53zm.636-4.111a5.921 5.921 0 00-.327-.852c-.012-.026-.028-.048-.04-.072.172.069.35.125.535.169-.063.25-.11.504-.168.755zM7.892 47.12c-.108.25-.182.512-.236.78-.077-.214-.148-.432-.22-.648.155-.049.316-.082.466-.148-.003.007-.008.011-.01.016zm2.589-25.628c.115 1.054-.095 2.121-.615 3.108a5.662 5.662 0 01-2.009 2.153c-.091.057-.175.124-.27.176-.034-.097-.043-.204-.069-.304-.237-.935-.121-1.984.378-2.928.557-1.062 1.505-1.864 2.585-2.205zm-6.04 2.641c.864.358 1.515 1.12 1.851 2.174.332 1.048.318 2.22-.038 3.408-.99-.237-1.731-.896-2.106-1.883-.42-1.093-.308-2.456.293-3.699zm-1.704 4.635c.912.243 1.672.907 2.162 1.898.484.993.645 2.15.471 3.362-1.014-.103-1.845-.654-2.364-1.581-.575-1.02-.67-2.376-.269-3.679zm-.953 4.529c.935.123 1.781.685 2.407 1.608.618.916.937 2.038.931 3.265-1.035.022-1.927-.43-2.56-1.268-.71-.937-.993-2.265-.778-3.605zm-.317 4.875h.002c.94 0 1.869.452 2.614 1.271.746.823 1.225 1.892 1.399 3.106-.166.026-.332.04-.497.04-.827 0-1.595-.331-2.222-.957-.839-.831-1.312-2.105-1.296-3.46zm.386 4.8c.937-.124 1.913.202 2.772.916.856.719 1.487 1.717 1.838 2.899-.288.087-.583.13-.88.13-.68 0-1.352-.236-1.945-.682-.953-.714-1.606-1.916-1.785-3.263zm4.994 8.223c-.553 0-1.102-.15-1.634-.446-1.039-.572-1.885-1.703-2.262-3.001.901-.243 1.934-.049 2.879.54.956.599 1.734 1.506 2.264 2.637a3.04 3.04 0 01-1.247.27zm3.813-2.655c-.357.96-1.012 1.68-1.862 2.064-.043-.089-.087-.176-.128-.264-.42-.985-.471-2.041-.089-2.922.382-.892 1.129-1.515 2.124-1.778.31.979.296 1.975-.045 2.9zm-1.3-3.763c-.497.897-1.256 1.522-2.157 1.788-.039-.126-.071-.255-.108-.383-.227-.991-.113-1.993.378-2.782.513-.83 1.345-1.346 2.367-1.473a4.397 4.397 0 01-.48 2.85zm.169-6.583a4.387 4.387 0 01-.888 2.748c-.619.817-1.455 1.332-2.381 1.483-.026-.17-.05-.339-.074-.509-.049-.964.213-1.889.788-2.577.613-.739 1.509-1.145 2.524-1.145h.031zm-1.045-1.193c-.729.72-1.641 1.124-2.579 1.149-.001-.106-.008-.212-.008-.318.054-1.035.457-1.993 1.17-2.637.273-.249.581-.436.91-.575.041-.016.08-.038.121-.053a3.258 3.258 0 011.147-.205c.171 0 .345.013.519.038a4.456 4.456 0 01-1.28 2.601zm.377-3.707c-.826.629-1.788.917-2.731.814.01-.077.027-.155.037-.232.181-1.055.725-1.988 1.545-2.552.814-.563 1.805-.719 2.781-.452a4.537 4.537 0 01-1.632 2.422zm.958-3.843c-.898.505-1.911.663-2.818.445l.059-.204c.334-1.032 1.019-1.893 1.923-2.351a3.323 3.323 0 012.82-.079 4.682 4.682 0 01-1.984 2.189zm2.817-2.243a.376.376 0 00-.175-.463 4.17 4.17 0 00-2.96-.386c.396-.421.75-.885 1.028-1.409.665-1.264.884-2.646.631-3.994a.374.374 0 00-.445-.299c-1.456.302-2.757 1.308-3.482 2.69a5.107 5.107 0 00-.57 1.926c-.515-.971-1.318-1.672-2.298-1.961a.373.373 0 00-.434.178c-.833 1.506-1.014 3.23-.484 4.61.021.054.049.102.071.156a3.7 3.7 0 00-.971-.293.372.372 0 00-.409.239c-.566 1.526-.511 3.163.127 4.431a3.762 3.762 0 00-.777-.111c-.218-.005-.338.119-.376.295-.364 1.657-.046 3.354.852 4.537.034.045.077.077.112.119a3.79 3.79 0 00-1.01-.029.374.374 0 00-.333.346c-.119 1.69.442 3.326 1.501 4.374.013.013.029.022.042.035-.31-.002-.618.03-.921.104a.377.377 0 00-.284.393c.124 1.691.916 3.238 2.116 4.139.044.032.091.055.136.088-.33.034-.653.11-.959.231a.373.373 0 00-.229.43c.373 1.661 1.388 3.09 2.714 3.821.644.358 1.316.54 1.998.54.548 0 1.09-.128 1.593-.361a28.578 28.578 0 002.044 3.405.375.375 0 10.614-.431 27.982 27.982 0 01-1.984-3.302 4.348 4.348 0 002.249-2.455c.441-1.196.418-2.487-.066-3.733a.378.378 0 00-.417-.234 4.4 4.4 0 00-.84.253c.595-1.113.761-2.37.47-3.645a.367.367 0 00-.383-.291 4.433 4.433 0 00-.807.114 5.149 5.149 0 00.941-3.459.375.375 0 00-.34-.343 4.463 4.463 0 00-.858.01 5.217 5.217 0 001.481-3.354.372.372 0 00-.29-.39 4.39 4.39 0 00-.657-.095 5.32 5.32 0 001.71-2.935.374.374 0 00-.237-.428 4.38 4.38 0 00-.819-.21 5.454 5.454 0 002.385-2.853zM69.676 46.787c.351-1.183.982-2.18 1.837-2.898.859-.715 1.834-1.041 2.773-.917-.18 1.347-.833 2.549-1.785 3.263-.851.641-1.874.835-2.825.552zm.236.866a6.15 6.15 0 00-.743.557c.088-.244.167-.49.25-.737.188.059.377.109.569.138-.025.015-.051.026-.076.042zm-.145-4.513c-.035.196-.082.389-.121.583a4.024 4.024 0 00-.31-.657c.141.039.287.051.431.074zm.448-4.248c-.008.219-.008.436-.02.655a3.935 3.935 0 00-.453-.686l-.017-.019c.162.023.325.046.49.05zm-.874-8.288c.055.215.096.434.146.651a4.07 4.07 0 00-.645-.555c.169-.021.335-.055.499-.096zm2.157 8.336a6.104 6.104 0 00-.563.744c.015-.257.02-.514.028-.772.043.001.086.008.13.008.165 0 .321-.035.482-.055-.025.025-.052.049-.077.075zm-.994 4.337c.171.028.342.046.513.052-.237.2-.456.423-.662.66.049-.237.105-.474.149-.712zm-.385-8.025a3.772 3.772 0 00-.325-.388c.096-.003.19-.02.285-.03.014.139.028.278.04.418zm-.047-4.819c.184-.044.364-.1.535-.17l-.041.074a6.029 6.029 0 00-.327.851c-.056-.252-.104-.505-.167-.755zm.753 4.336c.128-.012.253-.033.376-.057-.116.191-.23.383-.325.587-.015-.178-.033-.354-.051-.53zm-2.577 12.353c-.003-.007-.008-.011-.011-.018.149.066.31.099.466.148-.073.216-.142.434-.22.648a3.994 3.994 0 00-.235-.778zm6.423-8.95c.017 1.355-.456 2.629-1.295 3.461-.752.749-1.722 1.075-2.719.916.174-1.215.654-2.283 1.397-3.105.747-.82 1.675-1.272 2.615-1.272h.002zm-1.095-1.269c-.633.838-1.552 1.288-2.559 1.267-.006-1.225.313-2.349.931-3.264.626-.924 1.471-1.486 2.407-1.609.215 1.34-.068 2.668-.779 3.606zm-.444-4.454c-.519.925-1.35 1.476-2.363 1.579-.175-1.211-.014-2.368.47-3.36.491-.993 1.251-1.657 2.162-1.9.402 1.303.307 2.659-.269 3.681zm-1.435-8.316c.601 1.243.714 2.606.293 3.7-.374.987-1.116 1.645-2.106 1.882-.355-1.19-.369-2.361-.037-3.408.336-1.054.987-1.816 1.85-2.174zm-6.039-2.641c1.08.341 2.028 1.143 2.585 2.206.499.943.615 1.992.378 2.927-.026.1-.036.207-.07.304-.095-.052-.178-.119-.269-.176a5.647 5.647 0 01-2.009-2.153c-.52-.987-.73-2.054-.615-3.108zm-1.323 5.77c.928-.392 1.938-.367 2.82.079.907.459 1.592 1.321 1.926 2.354.019.067.039.133.057.201-.905.218-1.921.06-2.818-.444a4.687 4.687 0 01-1.985-2.19zm1.311 3.61c.977-.267 1.967-.112 2.782.452.816.562 1.359 1.49 1.542 2.542.011.081.028.161.039.242-.941.102-1.905-.185-2.731-.814a4.531 4.531 0 01-1.632-2.422zm.73 3.528c1.01-.143 1.974.136 2.696.795.712.642 1.115 1.597 1.17 2.63 0 .108-.007.216-.008.325-.938-.025-1.851-.429-2.578-1.148a4.439 4.439 0 01-1.28-2.602zm.233 3.794c1.044-.013 1.936.399 2.556 1.146.574.687.836 1.611.789 2.574-.024.17-.049.34-.076.51-.925-.15-1.761-.665-2.38-1.481a4.386 4.386 0 01-.889-2.749zm-.311 3.733c1.022.127 1.855.643 2.369 1.475.49.787.605 1.79.377 2.782-.038.128-.069.256-.108.381-.901-.266-1.659-.891-2.157-1.788a4.402 4.402 0 01-.481-2.85zm-.864 3.713c.994.263 1.742.886 2.125 1.78.382.882.33 1.94-.093 2.927l-.125.258c-.85-.385-1.505-1.105-1.862-2.064-.341-.926-.356-1.922-.045-2.901zm7.754 2.108c-.377 1.298-1.224 2.429-2.263 3.002-.942.523-1.973.582-2.88.175.53-1.131 1.308-2.038 2.264-2.637.944-.589 1.975-.784 2.879-.54zm1.88-5.052a.376.376 0 00-.284-.393 3.767 3.767 0 00-.921-.104c.014-.012.028-.021.041-.034 1.059-1.05 1.621-2.685 1.502-4.375a.375.375 0 00-.334-.346 3.76 3.76 0 00-1.011.03c.036-.042.079-.074.113-.119.898-1.184 1.217-2.881.853-4.538a.367.367 0 00-.376-.295c-.264.007-.523.05-.777.111.639-1.268.693-2.905.127-4.431a.375.375 0 00-.41-.239c-.34.053-.664.153-.97.293.022-.053.049-.102.07-.156.53-1.38.349-3.104-.482-4.61a.374.374 0 00-.435-.178c-.995.295-1.787.98-2.298 1.956a5.113 5.113 0 00-.569-1.92c-.726-1.383-2.028-2.389-3.483-2.691a.37.37 0 00-.284.056.371.371 0 00-.16.241c-.254 1.35-.036 2.732.63 3.997.277.523.631.987 1.026 1.407a4.17 4.17 0 00-2.958.387.377.377 0 00-.176.463 5.459 5.459 0 002.385 2.853c-.274.045-.548.11-.817.21a.374.374 0 00-.237.428 5.31 5.31 0 001.709 2.935 4.543 4.543 0 00-.657.095.374.374 0 00-.29.389 5.207 5.207 0 001.481 3.354 4.556 4.556 0 00-.859-.009.375.375 0 00-.339.343 5.15 5.15 0 00.941 3.459 4.358 4.358 0 00-.808-.114.363.363 0 00-.382.291c-.291 1.275-.125 2.532.47 3.645a4.388 4.388 0 00-.841-.253.374.374 0 00-.416.234c-.485 1.246-.507 2.537-.066 3.734a4.351 4.351 0 002.249 2.455 28.051 28.051 0 01-1.984 3.301.377.377 0 00.307.591.375.375 0 00.307-.16 28.711 28.711 0 002.044-3.405 3.797 3.797 0 001.593.361c.682 0 1.354-.182 1.997-.539 1.326-.732 2.341-2.16 2.715-3.821a.374.374 0 00-.229-.431 3.624 3.624 0 00-.959-.232c.044-.032.092-.054.135-.086 1.201-.902 1.992-2.449 2.117-4.14zM17.349 62.535a.468.468 0 110-.937.468.468 0 010 .937zm0-1.687a1.22 1.22 0 00-1.218 1.218 1.219 1.219 0 101.218-1.218zM58.79 62.535a.468.468 0 110-.937.468.468 0 010 .937zm0-1.687a1.219 1.219 0 000 2.436 1.219 1.219 0 000-2.436z"/></g></svg>