<?xml version="1.0" encoding="UTF-8"?>
<svg width="72px" height="72px" viewBox="0 0 72 72" version="1.1" xmlns="http://www.w3.org/2000/svg" xmlns:xlink="http://www.w3.org/1999/xlink">
    <!-- Generator: Sketch 49 (51002) - http://www.bohemiancoding.com/sketch -->
    <title>bitcoin-grey-29</title>
    <desc>Created with Sketch.</desc>
    <defs></defs>
    <g id="Page-1" stroke="none" stroke-width="1" fill="none" fill-rule="evenodd">
        <g id="bitcoin-grey-29" fill="#000000">
            <path d="M58.301,44.06 L58.301,52.235 C58.301,52.79 57.465,53.383 56.142,53.69 L56.142,35.346 C57.465,35.653 58.301,36.245 58.301,36.799 L58.301,44.06 Z M17.561,54.608 C17.861,54.637 18.171,54.654 18.491,54.654 L31.965,54.654 C33.4,55.29 34.985,55.65 36.653,55.65 C38.322,55.65 39.906,55.29 41.343,54.654 L54.235,54.654 C54.638,54.654 55.021,54.624 55.392,54.578 L55.392,55.976 L17.561,55.976 L17.561,54.608 Z M14.426,53.54 C14.981,53.981 15.813,54.317 16.811,54.5 L16.811,55.976 L16.151,55.976 C15.2,55.976 14.426,55.201 14.426,54.25 L14.426,53.54 Z M8.136,41.475 C8.037,40.34 8.012,39.209 8.048,38.087 C8.056,37.836 8.071,37.585 8.086,37.335 C8.487,30.501 11.349,24.055 16.245,19.165 L19.15,17.644 C13.093,22.502 9.413,29.634 8.986,37.457 C8.973,37.707 8.969,37.959 8.962,38.21 C8.955,38.469 8.938,38.726 8.938,38.987 C8.938,39.669 8.964,40.362 9.016,41.049 C9.06,41.628 9.199,42.087 9.42,42.405 C8.997,42.41 8.563,42.298 8.168,42.1 C8.168,41.948 8.159,41.751 8.136,41.475 Z M50.191,15.024 L50.729,14.176 C52.408,15.197 53.985,16.396 55.422,17.764 L50.191,15.024 Z M22.535,15.024 L17.304,17.764 C18.74,16.396 20.318,15.197 21.998,14.175 L22.535,15.024 Z M56.142,25.867 C57.465,26.174 58.301,26.765 58.301,27.321 L58.301,35.496 C57.787,35.088 57.043,34.763 56.142,34.573 L56.142,25.867 Z M54.235,34.382 L45.122,34.382 L44.638,25.654 L54.235,25.654 C54.647,25.654 55.027,25.688 55.392,25.735 L55.392,34.457 C55.021,34.412 54.638,34.382 54.235,34.382 Z M17.561,45.129 L17.561,35.181 C17.857,35.152 18.166,35.132 18.491,35.132 L29.179,35.132 C28.98,35.299 28.79,35.475 28.604,35.656 C28.499,35.757 28.396,35.859 28.295,35.964 C28.202,36.06 28.115,36.161 28.025,36.26 C26.576,37.869 25.573,39.878 25.2,42.104 L22.901,42.104 C22.694,42.104 22.526,42.272 22.526,42.48 L22.526,44.45 C22.526,44.605 22.623,44.744 22.768,44.8 C22.769,44.801 22.77,44.801 22.77,44.801 L23.77,45.175 L25.162,45.695 C25.665,49.162 27.697,52.132 30.557,53.905 L18.491,53.905 C18.167,53.905 17.858,53.883 17.561,53.852 L17.561,45.129 Z M14.425,44.057 L14.425,36.799 C14.425,36.799 14.426,36.797 14.426,36.796 C14.43,36.21 15.355,35.577 16.811,35.291 L16.811,53.739 C15.38,53.448 14.43,52.819 14.426,52.239 C14.426,52.238 14.425,52.236 14.425,52.235 L14.425,44.057 Z M16.446,27.702 L17.132,27.702 L17.132,25.504 L16.446,25.504 L16.446,27.702 Z M27.891,34.382 L18.491,34.382 C18.171,34.382 17.861,34.4 17.561,34.428 L17.561,28.451 L22.454,28.451 C22.661,28.451 22.829,28.283 22.829,28.076 L22.829,26.478 C22.829,26.024 23.199,25.654 23.654,25.654 L28.374,25.654 L27.891,34.382 Z M29.146,25.279 L29.167,24.904 L29.281,22.834 C29.308,22.357 29.659,21.998 30.098,21.998 L42.916,21.998 C43.354,21.998 43.704,22.357 43.73,22.833 L43.845,24.904 L43.866,25.279 L43.887,25.654 L44.371,34.382 L43.143,34.382 C41.288,33.131 39.055,32.398 36.653,32.398 C34.253,32.398 32.02,33.131 30.165,34.382 L28.643,34.382 L29.125,25.654 L29.146,25.279 Z M20.132,27.702 L20.817,27.702 L20.817,25.504 L20.132,25.504 L20.132,27.702 Z M17.882,27.702 L19.382,27.702 L19.382,25.504 L17.882,25.504 L17.882,27.702 Z M16.071,28.451 L16.811,28.451 L16.811,34.537 C15.813,34.719 14.981,35.055 14.426,35.495 L14.426,29.277 C14.426,28.821 14.796,28.451 15.251,28.451 L16.071,28.451 Z M23.904,44.425 L23.276,44.19 L23.276,42.854 L25.088,42.854 C25.049,43.239 25.028,43.629 25.028,44.024 C25.028,44.159 25.044,44.291 25.049,44.425 C25.053,44.55 25.06,44.675 25.067,44.8 C25.068,44.82 25.069,44.841 25.07,44.861 L24.908,44.8 L23.904,44.425 Z M40.242,54.279 C39.817,54.428 39.385,54.558 38.939,54.654 C38.201,54.812 37.438,54.9 36.653,54.9 C35.869,54.9 35.106,54.812 34.369,54.654 C33.923,54.558 33.489,54.428 33.065,54.279 C32.748,54.168 32.438,54.044 32.134,53.905 C28.937,52.436 26.576,49.468 25.952,45.903 C25.917,45.703 25.884,45.505 25.86,45.303 C25.856,45.259 25.845,45.218 25.841,45.175 C25.827,45.051 25.826,44.924 25.817,44.8 C25.809,44.675 25.803,44.55 25.799,44.425 C25.794,44.291 25.778,44.159 25.778,44.024 C25.778,43.591 25.811,43.166 25.86,42.745 C25.885,42.536 25.919,42.329 25.955,42.124 C26.314,40.1 27.232,38.273 28.547,36.799 C28.635,36.701 28.722,36.602 28.812,36.507 C28.9,36.416 28.987,36.324 29.078,36.237 C29.491,35.834 29.938,35.466 30.411,35.132 C30.599,35 30.793,34.878 30.989,34.757 C31.203,34.627 31.418,34.499 31.641,34.382 C33.143,33.599 34.846,33.148 36.653,33.148 C38.462,33.148 40.165,33.599 41.667,34.382 C41.89,34.499 42.104,34.627 42.318,34.757 C42.514,34.878 42.708,35 42.897,35.132 C43.324,35.433 43.727,35.766 44.106,36.125 C44.201,36.215 44.299,36.3 44.391,36.392 C44.478,36.481 44.557,36.577 44.642,36.669 C46.428,38.607 47.529,41.186 47.529,44.024 C47.529,44.159 47.514,44.291 47.509,44.425 C47.504,44.55 47.499,44.675 47.49,44.8 C47.481,44.924 47.479,45.051 47.467,45.175 C47.056,49.062 44.585,52.337 41.173,53.905 C40.87,54.044 40.56,54.168 40.242,54.279 Z M55.392,44.344 L55.392,53.823 C55.027,53.87 54.647,53.905 54.235,53.905 L42.751,53.905 C45.754,52.044 47.856,48.865 48.221,45.175 C48.233,45.051 48.231,44.924 48.24,44.8 C48.248,44.675 48.255,44.55 48.259,44.425 C48.264,44.291 48.279,44.159 48.279,44.024 C48.279,40.937 47.062,38.135 45.092,36.051 C44.992,35.945 44.895,35.837 44.791,35.735 C44.674,35.62 44.549,35.515 44.428,35.405 C44.327,35.314 44.231,35.219 44.128,35.132 L54.235,35.132 C54.647,35.132 55.027,35.166 55.392,35.213 L55.392,44.344 Z M49.32,15 C49.229,15.141 49.246,15.327 49.359,15.452 C49.672,15.797 49.971,16.05 50.298,16.252 C57.867,20.894 62.534,28.783 62.994,37.557 L60.231,37.931 C59.996,37.518 59.559,37.236 59.051,37.232 L59.051,27.321 C59.051,25.965 56.936,24.904 54.235,24.904 L44.597,24.904 L44.479,22.792 C44.432,21.926 43.745,21.248 42.916,21.248 L30.098,21.248 C29.27,21.248 28.581,21.926 28.532,22.792 L28.415,24.904 L23.654,24.904 C22.786,24.904 22.079,25.611 22.079,26.478 L22.079,27.701 L21.566,27.701 L21.566,25.129 C21.566,24.922 21.398,24.754 21.191,24.754 L16.071,24.754 C15.864,24.754 15.696,24.922 15.696,25.129 L15.696,27.701 L15.251,27.701 C14.383,27.701 13.676,28.407 13.676,29.277 L13.676,36.795 C13.676,36.796 13.675,36.798 13.675,36.799 L13.675,37.232 C13.168,37.236 12.73,37.518 12.496,37.931 L9.732,37.557 C10.192,28.783 14.859,20.894 22.429,16.252 C22.756,16.05 23.055,15.797 23.367,15.452 C23.48,15.327 23.497,15.141 23.406,15 L22.646,13.796 C26.793,11.425 31.528,10.128 36.363,10.128 C41.198,10.128 45.934,11.425 50.081,13.796 L49.32,15 Z M10.522,42.139 C10.518,42.141 10.516,42.145 10.511,42.148 C9.913,42.281 9.793,41.379 9.764,40.992 C9.713,40.324 9.688,39.65 9.688,38.987 C9.688,38.761 9.703,38.536 9.709,38.312 L12.312,38.664 L12.312,40.244 C12.312,40.269 12.317,40.292 12.319,40.315 L11.548,41.332 C11.291,41.669 10.946,41.941 10.522,42.139 Z M63.039,38.987 C63.039,39.65 63.014,40.324 62.963,40.992 C62.934,41.378 62.81,42.281 62.216,42.148 C62.212,42.145 62.209,42.141 62.204,42.139 C61.78,41.941 61.436,41.669 61.179,41.332 L60.408,40.315 C60.409,40.291 60.415,40.269 60.415,40.244 L60.415,38.664 L63.018,38.312 C63.023,38.536 63.039,38.761 63.039,38.987 Z M3.906,38.892 C3.688,38.508 3.513,38.102 3.391,37.677 C3.197,37.003 3.127,36.292 3.199,35.578 C3.938,28.335 6.958,21.729 11.845,16.501 L14.437,18.801 C14.614,18.958 14.834,19.038 15.061,19.084 C15.044,19.154 15.05,19.228 15.075,19.299 C10.452,24.219 7.746,30.542 7.341,37.235 C7.325,37.485 7.312,37.735 7.303,37.986 C7.262,39.162 7.285,40.349 7.389,41.541 C7.389,41.542 7.389,41.544 7.389,41.546 C7.395,41.608 7.401,41.719 7.406,41.837 C7.206,41.749 7.019,41.654 6.839,41.557 C6.004,41.111 5.426,40.626 5.404,40.608 C4.782,40.144 4.279,39.553 3.906,38.892 Z M13.119,40.5 C13.084,40.422 13.062,40.337 13.062,40.244 L13.062,38.605 C13.062,38.363 13.204,38.159 13.406,38.055 C13.488,38.012 13.577,37.985 13.675,37.983 L13.675,40.867 C13.428,40.862 13.216,40.714 13.119,40.5 Z M58.301,54.25 C58.301,55.201 57.527,55.976 56.575,55.976 L56.142,55.976 L56.142,54.463 C57.043,54.273 57.787,53.948 58.301,53.538 L58.301,54.25 Z M59.051,40.867 L59.051,37.983 C59.149,37.985 59.238,38.012 59.32,38.055 C59.522,38.159 59.665,38.363 59.665,38.605 L59.665,40.244 C59.665,40.336 59.643,40.422 59.607,40.5 C59.511,40.714 59.299,40.863 59.051,40.867 Z M63.307,42.405 C63.527,42.087 63.667,41.628 63.711,41.049 C63.763,40.362 63.789,39.669 63.789,38.987 C63.789,38.726 63.771,38.469 63.765,38.21 C63.758,37.959 63.754,37.707 63.74,37.457 C63.314,29.635 59.635,22.503 53.579,17.645 L56.482,19.166 C61.379,24.056 64.239,30.501 64.641,37.335 C64.655,37.585 64.671,37.836 64.679,38.087 C64.715,39.209 64.69,40.34 64.591,41.475 C64.567,41.753 64.559,41.951 64.559,42.104 C64.183,42.294 63.77,42.405 63.341,42.405 C63.329,42.405 63.317,42.405 63.307,42.405 Z M67.304,40.624 C67.296,40.631 66.721,41.113 65.888,41.558 C65.708,41.654 65.521,41.749 65.32,41.837 C65.325,41.719 65.332,41.609 65.338,41.546 C65.338,41.544 65.338,41.542 65.338,41.54 C65.441,40.348 65.465,39.162 65.424,37.986 C65.415,37.735 65.401,37.485 65.387,37.235 C64.981,30.542 62.274,24.219 57.651,19.299 C57.676,19.231 57.681,19.161 57.667,19.095 C57.895,19.045 58.111,18.959 58.289,18.801 L60.882,16.501 C65.769,21.728 68.79,28.334 69.527,35.578 C69.601,36.292 69.529,37.004 69.335,37.678 C69.212,38.104 69.035,38.511 68.815,38.898 C68.439,39.56 67.933,40.153 67.304,40.624 Z M70.277,35.593 C70.274,35.563 70.276,35.533 70.273,35.503 C69.52,28.099 66.426,21.353 61.437,16.009 L61.924,15.576 C66.233,20.269 69.217,26.085 70.421,32.404 C70.625,33.478 70.559,34.566 70.277,35.593 Z M9.486,13.152 C9.479,12.985 9.54,12.819 9.655,12.697 C16.554,5.344 26.288,1.128 36.363,1.128 C46.439,1.128 56.173,5.344 63.071,12.697 C63.186,12.818 63.247,12.985 63.239,13.152 C63.231,13.32 63.155,13.481 63.03,13.591 L61.708,14.765 L61.416,15.024 L60.924,15.461 L60.643,15.71 L60.356,15.965 L57.791,18.241 C57.547,18.458 57.147,18.44 56.924,18.203 C56.922,18.202 56.92,18.2 56.918,18.198 C56.802,18.076 56.679,17.961 56.561,17.841 C56.441,17.721 56.323,17.602 56.203,17.485 C54.659,15.974 52.956,14.654 51.129,13.542 C51.023,13.478 50.913,13.416 50.806,13.352 C50.698,13.288 50.591,13.224 50.482,13.162 C46.215,10.717 41.341,9.378 36.363,9.378 C31.386,9.378 26.512,10.716 22.244,13.162 C22.136,13.224 22.028,13.288 21.921,13.352 C21.813,13.416 21.704,13.477 21.598,13.542 C19.771,14.653 18.067,15.973 16.523,17.483 C16.403,17.6 16.285,17.72 16.167,17.84 C16.048,17.96 15.926,18.075 15.809,18.197 C15.807,18.199 15.805,18.201 15.802,18.203 C15.577,18.44 15.18,18.457 14.935,18.24 L12.37,15.965 L12.084,15.71 L11.803,15.461 L11.311,15.024 L11.019,14.765 L9.695,13.591 C9.57,13.481 9.494,13.32 9.486,13.152 Z M2.306,32.404 C3.51,26.085 6.494,20.27 10.803,15.577 L11.29,16.009 C6.301,21.353 3.207,28.099 2.453,35.503 C2.45,35.533 2.452,35.562 2.45,35.593 C2.168,34.566 2.102,33.478 2.306,32.404 Z M4.936,41.194 C4.984,41.235 6.14,42.215 7.651,42.737 C7.692,42.752 7.733,42.758 7.774,42.758 C7.781,42.758 7.787,42.753 7.794,42.753 C8.284,43.007 8.825,43.155 9.386,43.155 C9.497,43.155 9.608,43.149 9.72,43.139 C10.029,43.108 10.348,43.02 10.687,42.879 C10.708,42.877 10.729,42.875 10.742,42.871 C10.771,42.865 10.803,42.84 10.834,42.82 C10.836,42.819 10.839,42.819 10.841,42.819 C10.861,42.808 10.877,42.794 10.896,42.784 C11.403,42.536 11.827,42.203 12.146,41.785 L12.643,41.129 C12.893,41.425 13.26,41.615 13.675,41.619 L13.675,52.235 C13.675,52.237 13.676,52.239 13.676,52.24 L13.676,54.25 C13.676,55.615 14.786,56.726 16.151,56.726 L56.575,56.726 C57.94,56.726 59.051,55.615 59.051,54.25 L59.051,41.619 C59.467,41.615 59.834,41.425 60.084,41.129 L60.582,41.785 C60.912,42.22 61.352,42.569 61.886,42.819 C61.889,42.82 61.893,42.819 61.896,42.821 C61.927,42.837 61.951,42.864 61.984,42.871 C61.997,42.875 62.021,42.877 62.042,42.88 C62.38,43.02 62.698,43.108 63.007,43.139 C63.118,43.149 63.229,43.155 63.341,43.155 C63.901,43.155 64.443,43.007 64.933,42.753 C64.939,42.753 64.945,42.758 64.952,42.758 C64.993,42.758 65.034,42.752 65.075,42.737 C66.587,42.215 67.742,41.235 67.771,41.209 C68.852,40.403 69.624,39.272 70.015,38.013 C71.106,36.337 71.54,34.27 71.157,32.264 C69.929,25.811 66.883,19.871 62.484,15.078 L63.527,14.153 C63.804,13.909 63.972,13.557 63.988,13.187 C64.005,12.818 63.87,12.451 63.617,12.183 C56.578,4.68 46.645,0.378 36.363,0.378 C26.082,0.378 16.147,4.68 9.108,12.183 C8.855,12.452 8.72,12.819 8.737,13.187 C8.754,13.556 8.922,13.908 9.198,14.153 L10.242,15.078 C5.844,19.871 2.799,25.811 1.569,32.264 C1.188,34.268 1.619,36.334 2.709,38.009 C3.099,39.266 3.867,40.396 4.936,41.194 Z" id="Fill-1"></path>
            <path d="M26.592,30.565 L26.592,32.095 C26.592,32.263 26.456,32.398 26.289,32.398 L19.514,32.398 C19.35,32.398 19.21,32.26 19.21,32.095 L19.21,30.565 C19.21,30.397 19.347,30.261 19.514,30.261 L26.289,30.261 C26.456,30.261 26.592,30.397 26.592,30.565 Z M18.46,30.565 L18.46,32.095 C18.46,32.676 18.933,33.148 19.514,33.148 L26.289,33.148 C26.87,33.148 27.342,32.676 27.342,32.095 L27.342,30.565 C27.342,29.985 26.87,29.511 26.289,29.511 L19.514,29.511 C18.933,29.511 18.46,29.985 18.46,30.565 Z" id="Fill-2"></path>
            <path d="M52.186,32.142 C52.186,32.354 52.014,32.527 51.803,32.527 L47.655,32.527 C47.444,32.527 47.273,32.354 47.273,32.142 L47.273,27.994 C47.273,27.783 47.444,27.611 47.655,27.611 L51.803,27.611 C52.014,27.611 52.186,27.783 52.186,27.994 L52.186,32.142 Z M51.803,26.861 L47.655,26.861 C47.03,26.861 46.523,27.37 46.523,27.994 L46.523,32.142 C46.523,32.767 47.03,33.277 47.655,33.277 L51.803,33.277 C52.427,33.277 52.936,32.767 52.936,32.142 L52.936,27.994 C52.936,27.37 52.427,26.861 51.803,26.861 Z" id="Fill-3"></path>
            <path d="M41.857,29.985 C41.857,30.197 41.686,30.369 41.475,30.369 L31.779,30.369 C31.568,30.369 31.396,30.197 31.396,29.985 L31.396,29.688 L41.857,29.688 L41.857,29.985 Z M31.396,23.994 C31.396,23.783 31.568,23.611 31.779,23.611 L41.475,23.611 C41.686,23.611 41.857,23.783 41.857,23.994 L41.857,24.292 L31.396,24.292 L31.396,23.994 Z M31.396,25.654 L31.396,25.042 L41.857,25.042 L41.857,25.84 L40.256,25.84 C40.049,25.84 39.881,26.008 39.881,26.215 C39.881,26.423 40.049,26.59 40.256,26.59 L41.857,26.59 L41.857,27.389 L40.256,27.389 C40.049,27.389 39.881,27.557 39.881,27.764 C39.881,27.972 40.049,28.139 40.256,28.139 L41.857,28.139 L41.857,28.937 L31.396,28.937 L31.396,28.139 L32.998,28.139 C33.205,28.139 33.373,27.972 33.373,27.764 C33.373,27.557 33.205,27.389 32.998,27.389 L31.396,27.389 L31.396,26.59 L32.998,26.59 C33.205,26.59 33.373,26.423 33.373,26.215 C33.373,26.008 33.205,25.84 32.998,25.84 L31.396,25.84 L31.396,25.654 Z M31.779,31.119 L41.475,31.119 C42.1,31.119 42.607,30.611 42.607,29.985 L42.607,23.994 C42.607,23.369 42.1,22.861 41.475,22.861 L31.779,22.861 C31.155,22.861 30.646,23.369 30.646,23.994 L30.646,29.985 C30.646,30.611 31.155,31.119 31.779,31.119 Z" id="Fill-4"></path>
            <path d="M48.399,30.624 C48.353,30.472 48.327,30.312 48.327,30.148 C48.327,29.27 49.041,28.555 49.919,28.555 C49.958,28.555 49.998,28.556 50.037,28.56 C49.138,28.84 48.471,29.651 48.399,30.624 Z M49.919,27.805 C48.628,27.805 47.577,28.856 47.577,30.148 C47.577,31.09 48.137,31.936 49.003,32.303 C49.05,32.324 49.1,32.334 49.149,32.334 C49.152,32.334 49.155,32.334 49.159,32.333 C49.367,32.341 49.543,32.169 49.543,31.959 C49.543,31.84 49.488,31.735 49.402,31.666 C49.232,31.407 49.144,31.107 49.144,30.795 C49.144,29.917 49.857,29.202 50.735,29.202 C50.954,29.202 51.163,29.245 51.356,29.328 C51.512,29.396 51.692,29.35 51.799,29.218 C51.904,29.086 51.907,28.899 51.808,28.763 C51.361,28.154 50.673,27.805 49.919,27.805 Z" id="Fill-5"></path>
            <path d="M43.499,44.425 C43.491,44.55 43.486,44.676 43.472,44.8 C43.458,44.926 43.436,45.05 43.415,45.175 C42.865,48.414 40.047,50.891 36.653,50.891 C33.26,50.891 30.44,48.414 29.891,45.175 C29.869,45.05 29.847,44.926 29.833,44.8 C29.819,44.676 29.813,44.55 29.807,44.425 C29.799,44.292 29.786,44.159 29.786,44.024 C29.786,40.239 32.867,37.159 36.653,37.159 C40.44,37.159 43.519,40.239 43.519,44.024 C43.519,44.159 43.507,44.292 43.499,44.425 Z M39.706,37.053 C39.359,36.9 38.998,36.778 38.627,36.677 C37.996,36.509 37.337,36.409 36.653,36.409 C35.97,36.409 35.311,36.509 34.68,36.677 C34.309,36.778 33.947,36.9 33.6,37.053 C30.917,38.232 29.036,40.911 29.036,44.024 C29.036,44.159 29.049,44.292 29.057,44.425 C29.063,44.549 29.063,44.676 29.075,44.8 C29.088,44.927 29.113,45.049 29.133,45.175 C29.69,48.829 32.846,51.641 36.653,51.641 C40.461,51.641 43.615,48.829 44.173,45.175 C44.191,45.049 44.217,44.927 44.229,44.8 C44.242,44.676 44.242,44.549 44.249,44.425 C44.256,44.292 44.269,44.159 44.269,44.024 C44.269,40.911 42.389,38.232 39.706,37.053 Z" id="Fill-6"></path>
            <path d="M44.867,45.175 C44.304,49.21 40.841,52.328 36.653,52.328 C32.466,52.328 29.001,49.21 28.437,45.175 C28.42,45.049 28.399,44.926 28.388,44.8 C28.376,44.676 28.375,44.549 28.369,44.425 C28.362,44.291 28.349,44.159 28.349,44.024 C28.349,41.102 29.87,38.532 32.159,37.053 C32.366,36.919 32.578,36.793 32.797,36.677 C33.063,36.537 33.339,36.413 33.622,36.303 C34.562,35.932 35.583,35.721 36.653,35.721 C37.724,35.721 38.744,35.932 39.685,36.303 C39.967,36.413 40.243,36.537 40.51,36.677 C40.729,36.793 40.939,36.919 41.146,37.053 C43.436,38.532 44.956,41.102 44.956,44.024 C44.956,44.159 44.942,44.291 44.937,44.425 C44.93,44.549 44.929,44.676 44.917,44.8 C44.905,44.926 44.885,45.049 44.867,45.175 Z M45.667,44.8 C45.678,44.675 45.681,44.549 45.687,44.425 C45.692,44.291 45.706,44.159 45.706,44.024 C45.706,41.223 44.427,38.715 42.421,37.053 C42.261,36.92 42.092,36.799 41.923,36.677 C41.738,36.545 41.549,36.421 41.354,36.303 C40.438,35.742 39.417,35.338 38.324,35.132 C37.782,35.031 37.226,34.971 36.653,34.971 C36.082,34.971 35.524,35.031 34.982,35.132 C33.89,35.338 32.869,35.742 31.951,36.303 C31.758,36.421 31.567,36.545 31.384,36.677 C31.215,36.799 31.045,36.92 30.885,37.053 C28.879,38.715 27.599,41.223 27.599,44.024 C27.599,44.159 27.613,44.291 27.619,44.425 C27.624,44.549 27.627,44.675 27.638,44.8 C27.648,44.925 27.664,45.05 27.68,45.175 C28.248,49.625 32.051,53.078 36.653,53.078 C41.255,53.078 45.057,49.625 45.625,45.175 C45.641,45.05 45.656,44.925 45.667,44.8 Z" id="Fill-7"></path>
            <path d="M34.221,40.976 L38.647,40.976 C39.355,40.976 39.93,41.562 39.93,42.282 C39.93,43.002 39.355,43.587 38.647,43.587 L34.221,43.587 L34.221,40.976 Z M39.437,46.949 L38.548,46.949 C38.545,46.949 38.542,46.947 38.538,46.947 C38.535,46.947 38.532,46.949 38.528,46.949 L34.811,46.949 C34.808,46.949 34.805,46.947 34.801,46.947 C34.798,46.947 34.795,46.949 34.791,46.949 L34.221,46.949 L34.221,44.337 L39.437,44.337 C39.589,44.337 39.729,44.376 39.863,44.425 C40.074,44.501 40.253,44.631 40.396,44.8 C40.491,44.911 40.572,45.034 40.626,45.175 C40.682,45.321 40.719,45.478 40.719,45.644 C40.719,46.363 40.144,46.949 39.437,46.949 Z M41.286,44.8 C41.227,44.666 41.151,44.541 41.065,44.425 C40.825,44.096 40.492,43.847 40.104,43.71 C40.459,43.34 40.68,42.837 40.68,42.282 C40.68,41.24 39.907,40.387 38.913,40.254 L38.913,38.793 C38.913,38.586 38.745,38.418 38.538,38.418 C38.331,38.418 38.163,38.586 38.163,38.793 L38.163,40.226 L35.176,40.226 L35.176,38.793 C35.176,38.586 35.008,38.418 34.801,38.418 C34.594,38.418 34.426,38.586 34.426,38.793 L34.426,40.226 L32.822,40.226 C32.615,40.226 32.447,40.394 32.447,40.602 C32.447,40.808 32.615,40.976 32.822,40.976 L33.471,40.976 L33.471,46.949 L32.822,46.949 C32.615,46.949 32.447,47.116 32.447,47.324 C32.447,47.531 32.615,47.699 32.822,47.699 L34.426,47.699 L34.426,49.132 C34.426,49.339 34.594,49.507 34.801,49.507 C35.008,49.507 35.176,49.339 35.176,49.132 L35.176,47.699 L38.163,47.699 L38.163,49.132 C38.163,49.339 38.331,49.507 38.538,49.507 C38.745,49.507 38.913,49.339 38.913,49.132 L38.913,47.699 L39.437,47.699 C40.558,47.699 41.469,46.777 41.469,45.641 C41.469,45.48 41.446,45.325 41.411,45.175 C41.381,45.044 41.34,44.92 41.286,44.8 Z" id="Fill-8"></path>
            <path d="M70.056,60.373 L1.22,60.373 C1.013,60.373 0.845,60.54 0.845,60.748 C0.845,60.954 1.013,61.123 1.22,61.123 L70.056,61.123 C70.263,61.123 70.431,60.954 70.431,60.748 C70.431,60.54 70.263,60.373 70.056,60.373" id="Fill-9"></path>
            <path d="M70.056,70.735 L1.22,70.735 C1.013,70.735 0.845,70.902 0.845,71.11 C0.845,71.317 1.013,71.485 1.22,71.485 L70.056,71.485 C70.263,71.485 70.431,71.317 70.431,71.11 C70.431,70.902 70.263,70.735 70.056,70.735" id="Fill-10"></path>
            <path d="M6.835,68.299 L5.435,68.299 L5.435,67.717 L5.817,67.717 L5.817,65.963 L5.435,65.963 L5.435,65.382 L5.817,65.382 L5.817,65.198 C5.817,65.065 5.842,64.943 5.893,64.832 C5.942,64.72 6.01,64.625 6.096,64.546 C6.182,64.467 6.282,64.405 6.396,64.359 C6.511,64.314 6.635,64.291 6.767,64.291 C6.861,64.291 6.958,64.311 7.06,64.35 C7.162,64.388 7.25,64.44 7.324,64.505 L7.324,65.149 L6.864,65.149 L6.792,64.859 L6.767,64.859 C6.661,64.859 6.572,64.9 6.503,64.982 C6.434,65.064 6.399,65.159 6.399,65.266 L6.399,65.382 L7.024,65.382 L7.024,65.963 L6.399,65.963 L6.399,67.717 L6.835,67.717 L6.835,68.299" id="Fill-11"></path>
            <path d="M10.13,65.92 C9.984,65.92 9.849,65.942 9.723,65.988 C9.597,66.033 9.489,66.095 9.398,66.174 C9.308,66.253 9.237,66.349 9.185,66.462 C9.133,66.576 9.107,66.7 9.107,66.836 C9.107,66.971 9.133,67.096 9.185,67.209 C9.237,67.322 9.308,67.419 9.398,67.499 C9.489,67.58 9.597,67.643 9.723,67.686 C9.849,67.73 9.984,67.751 10.13,67.751 C10.285,67.751 10.425,67.73 10.549,67.686 C10.673,67.643 10.78,67.58 10.869,67.499 C10.958,67.419 11.026,67.322 11.075,67.209 C11.123,67.096 11.147,66.971 11.147,66.836 C11.147,66.7 11.123,66.576 11.075,66.462 C11.026,66.349 10.958,66.253 10.869,66.174 C10.78,66.095 10.673,66.033 10.549,65.988 C10.425,65.942 10.285,65.92 10.13,65.92 Z M8.492,66.836 C8.492,66.6 8.537,66.388 8.627,66.201 C8.718,66.013 8.839,65.855 8.991,65.726 C9.143,65.597 9.317,65.498 9.515,65.43 C9.711,65.363 9.917,65.329 10.13,65.329 C10.35,65.329 10.558,65.363 10.755,65.43 C10.952,65.498 11.125,65.597 11.273,65.726 C11.422,65.855 11.54,66.013 11.627,66.201 C11.714,66.388 11.758,66.6 11.758,66.836 C11.758,67.065 11.714,67.273 11.627,67.458 C11.54,67.644 11.422,67.802 11.273,67.933 C11.125,68.064 10.952,68.165 10.755,68.236 C10.558,68.307 10.35,68.343 10.13,68.343 C9.917,68.343 9.711,68.307 9.515,68.236 C9.317,68.165 9.143,68.064 8.991,67.933 C8.839,67.802 8.718,67.644 8.627,67.458 C8.537,67.273 8.492,67.065 8.492,66.836 Z" id="Fill-12"></path>
            <path d="M15.935,66.254 L15.873,65.973 C15.769,65.947 15.679,65.932 15.604,65.927 C15.528,65.922 15.453,65.92 15.378,65.92 C15.204,65.92 15.033,65.952 14.867,66.017 C14.701,66.081 14.569,66.167 14.472,66.273 L14.472,67.717 L14.86,67.717 L14.86,68.299 L13.508,68.299 L13.508,67.717 L13.891,67.717 L13.891,65.963 L13.508,65.963 L13.508,65.382 L14.375,65.382 L14.433,65.736 C14.514,65.668 14.601,65.609 14.695,65.559 C14.789,65.509 14.883,65.467 14.979,65.433 C15.074,65.399 15.166,65.373 15.254,65.355 C15.343,65.337 15.425,65.329 15.5,65.329 C15.732,65.329 15.922,65.342 16.069,65.367 C16.216,65.393 16.341,65.432 16.444,65.484 L16.444,66.254 L15.935,66.254" id="Fill-13"></path>
            <path d="M24.986,66.206 L22.867,66.206 L22.867,67.54 L24.967,67.54 C25.06,67.54 25.146,67.522 25.226,67.486 C25.306,67.451 25.377,67.403 25.438,67.344 C25.499,67.285 25.547,67.215 25.583,67.132 C25.619,67.05 25.637,66.963 25.637,66.87 C25.637,66.781 25.62,66.697 25.586,66.617 C25.553,66.537 25.505,66.467 25.444,66.408 C25.383,66.35 25.313,66.302 25.235,66.266 C25.157,66.23 25.074,66.21 24.986,66.206 Z M25.302,64.903 C25.302,64.756 25.249,64.63 25.144,64.524 C25.038,64.419 24.912,64.366 24.764,64.366 L22.867,64.366 L22.867,65.447 L24.764,65.447 C24.84,65.447 24.911,65.433 24.976,65.403 C25.042,65.374 25.098,65.335 25.147,65.286 C25.195,65.238 25.233,65.181 25.261,65.115 C25.288,65.05 25.302,64.979 25.302,64.903 Z M24.967,68.299 L21.615,68.299 L21.615,67.54 L22.109,67.54 L22.109,64.366 L21.615,64.366 L21.615,63.607 L24.764,63.607 C24.941,63.607 25.109,63.641 25.267,63.708 C25.425,63.776 25.563,63.869 25.681,63.987 C25.799,64.105 25.892,64.243 25.96,64.401 C26.027,64.559 26.061,64.727 26.061,64.903 C26.061,65.055 26.035,65.2 25.985,65.337 C25.934,65.474 25.867,65.597 25.782,65.706 C25.976,65.829 26.127,65.998 26.234,66.212 C26.342,66.427 26.396,66.647 26.396,66.87 C26.396,67.068 26.358,67.254 26.282,67.427 C26.206,67.599 26.103,67.751 25.972,67.882 C25.841,68.012 25.689,68.115 25.517,68.188 C25.344,68.262 25.161,68.299 24.967,68.299 Z" id="Fill-14"></path>
            <polyline id="Fill-15" points="30.714 68.299 28.95 68.299 28.95 67.54 29.45 67.54 29.45 64.366 28.95 64.366 28.95 63.607 30.708 63.607 30.708 64.366 30.208 64.366 30.208 67.54 30.714 67.54 30.714 68.299"></polyline>
            <polyline id="Fill-16" points="33.989 64.929 33.293 64.929 33.293 63.607 38.384 63.607 38.384 64.929 37.688 64.929 37.625 64.366 36.215 64.366 36.215 67.54 36.714 67.54 36.714 68.299 34.957 68.299 34.957 67.54 35.456 67.54 35.456 64.366 34.052 64.366 33.989 64.929"></polyline>
            <path d="M43.455,64.322 C43.193,64.322 42.952,64.362 42.731,64.442 C42.51,64.522 42.318,64.634 42.156,64.777 C41.993,64.92 41.866,65.093 41.773,65.296 C41.68,65.498 41.634,65.719 41.634,65.959 C41.634,66.2 41.68,66.421 41.773,66.623 C41.866,66.826 41.993,66.999 42.156,67.142 C42.318,67.285 42.51,67.397 42.731,67.477 C42.952,67.557 43.193,67.597 43.455,67.597 C43.8,67.597 44.103,67.537 44.362,67.417 C44.622,67.297 44.829,67.129 44.985,66.914 L45.548,67.427 C45.308,67.722 45.005,67.95 44.641,68.113 C44.276,68.275 43.88,68.356 43.455,68.356 C43.118,68.356 42.792,68.3 42.478,68.188 C42.164,68.077 41.887,67.916 41.646,67.708 C41.406,67.499 41.214,67.247 41.071,66.952 C40.928,66.657 40.856,66.326 40.856,65.959 C40.856,65.584 40.928,65.248 41.071,64.951 C41.214,64.654 41.406,64.403 41.646,64.198 C41.887,63.994 42.164,63.837 42.478,63.728 C42.792,63.618 43.118,63.563 43.455,63.563 C43.733,63.563 43.976,63.581 44.182,63.617 C44.389,63.653 44.569,63.698 44.723,63.753 C44.876,63.808 45.007,63.868 45.115,63.933 C45.222,63.998 45.318,64.059 45.402,64.113 L45.402,64.929 L44.707,64.929 L44.675,64.6 C44.599,64.554 44.523,64.513 44.448,64.477 C44.372,64.441 44.286,64.412 44.191,64.388 C44.097,64.365 43.99,64.348 43.872,64.338 C43.754,64.327 43.615,64.322 43.455,64.322" id="Fill-17"></path>
            <path d="M50.429,64.322 C50.168,64.322 49.926,64.362 49.705,64.442 C49.484,64.522 49.292,64.634 49.13,64.777 C48.967,64.92 48.84,65.093 48.747,65.296 C48.654,65.498 48.608,65.719 48.608,65.959 C48.608,66.2 48.654,66.421 48.747,66.623 C48.84,66.826 48.967,66.999 49.13,67.142 C49.292,67.285 49.484,67.397 49.705,67.477 C49.926,67.557 50.168,67.597 50.429,67.597 C50.707,67.597 50.958,67.557 51.182,67.477 C51.405,67.397 51.596,67.285 51.754,67.142 C51.912,66.999 52.034,66.826 52.121,66.623 C52.206,66.421 52.25,66.2 52.25,65.959 C52.25,65.719 52.206,65.498 52.121,65.296 C52.034,65.093 51.912,64.92 51.754,64.777 C51.596,64.634 51.405,64.522 51.182,64.442 C50.958,64.362 50.707,64.322 50.429,64.322 Z M47.83,65.959 C47.83,65.584 47.902,65.248 48.045,64.951 C48.188,64.654 48.38,64.403 48.621,64.198 C48.861,63.994 49.138,63.837 49.452,63.728 C49.766,63.618 50.092,63.563 50.429,63.563 C50.783,63.563 51.117,63.618 51.431,63.728 C51.745,63.837 52.02,63.994 52.256,64.198 C52.492,64.403 52.68,64.654 52.819,64.951 C52.958,65.248 53.028,65.584 53.028,65.959 C53.028,66.322 52.958,66.651 52.819,66.946 C52.68,67.241 52.492,67.493 52.256,67.702 C52.02,67.91 51.745,68.072 51.431,68.185 C51.117,68.299 50.783,68.356 50.429,68.356 C50.092,68.356 49.766,68.3 49.452,68.188 C49.138,68.077 48.861,67.916 48.621,67.708 C48.38,67.499 48.188,67.247 48.045,66.952 C47.902,66.657 47.83,66.326 47.83,65.959 Z" id="Fill-18"></path>
            <polyline id="Fill-19" points="57.397 68.299 55.633 68.299 55.633 67.54 56.133 67.54 56.133 64.366 55.633 64.366 55.633 63.607 57.391 63.607 57.391 64.366 56.891 64.366 56.891 67.54 57.397 67.54 57.397 68.299"></polyline>
            <polyline id="Fill-20" points="61.722 68.299 59.971 68.299 59.971 67.54 60.464 67.54 60.464 64.366 59.971 64.366 59.971 63.607 61.873 63.607 63.594 67.54 63.777 67.54 63.777 64.366 63.277 64.366 63.277 63.607 65.035 63.607 65.035 64.366 64.536 64.366 64.536 67.54 65.035 67.54 65.035 68.299 63.132 68.299 61.412 64.366 61.223 64.366 61.223 67.54 61.722 67.54 61.722 68.299"></polyline>
            <path d="M21.004,8.316 C20.938,8.203 20.855,8.109 20.755,8.034 C20.653,7.959 20.545,7.906 20.43,7.875 C20.314,7.844 20.192,7.836 20.065,7.851 C19.939,7.867 19.819,7.906 19.706,7.972 L18.191,8.845 L19.139,10.49 L20.688,9.598 C20.797,9.535 20.887,9.453 20.958,9.355 C21.029,9.256 21.079,9.149 21.107,9.032 C21.136,8.915 21.142,8.795 21.125,8.671 C21.109,8.548 21.069,8.429 21.004,8.316 Z M20.664,12.104 L19.098,13.006 L18.707,12.328 L19.148,12.073 L17.513,9.236 L17.071,9.49 L16.681,8.812 L19.354,7.271 C19.547,7.16 19.753,7.093 19.973,7.069 C20.192,7.046 20.413,7.064 20.632,7.122 C20.858,7.183 21.06,7.281 21.238,7.417 C21.417,7.552 21.565,7.722 21.682,7.925 C21.799,8.129 21.873,8.343 21.901,8.567 C21.93,8.791 21.914,9.016 21.854,9.242 C21.796,9.456 21.702,9.653 21.573,9.833 C21.443,10.013 21.282,10.159 21.09,10.269 L19.53,11.168 L19.827,11.683 L20.272,11.425 L20.664,12.104 Z" id="Fill-21"></path>
            <polyline id="Fill-22" points="26.462 5.139 25.965 5.275 26.259 6.351 28.808 5.656 28.514 4.579 28.017 4.715 27.811 3.96 29.56 3.482 29.767 4.237 29.269 4.372 30.132 7.532 30.629 7.397 30.835 8.152 29.086 8.63 28.88 7.874 29.377 7.738 29.014 6.41 26.465 7.107 26.828 8.435 27.332 8.297 27.538 9.052 25.788 9.53 25.582 8.775 26.073 8.641 25.21 5.481 24.719 5.615 24.513 4.86 26.256 4.384 26.462 5.139"></polyline>
            <path d="M36.002,3.661 C35.732,3.663 35.483,3.708 35.256,3.792 C35.028,3.877 34.832,3.995 34.666,4.144 C34.5,4.294 34.371,4.474 34.277,4.683 C34.184,4.893 34.138,5.122 34.141,5.37 C34.144,5.618 34.193,5.845 34.291,6.053 C34.389,6.261 34.522,6.438 34.691,6.584 C34.861,6.731 35.06,6.843 35.289,6.924 C35.518,7.004 35.768,7.043 36.037,7.04 C36.324,7.037 36.583,6.993 36.813,6.908 C37.042,6.822 37.237,6.705 37.399,6.556 C37.561,6.407 37.685,6.226 37.771,6.017 C37.858,5.807 37.901,5.578 37.898,5.331 C37.896,5.083 37.849,4.855 37.758,4.647 C37.666,4.439 37.538,4.262 37.374,4.116 C37.209,3.97 37.011,3.856 36.78,3.777 C36.548,3.697 36.289,3.657 36.002,3.661 Z M33.338,5.378 C33.334,4.991 33.404,4.643 33.549,4.335 C33.693,4.027 33.89,3.766 34.135,3.553 C34.38,3.339 34.665,3.174 34.988,3.058 C35.311,2.941 35.646,2.881 35.993,2.877 C36.359,2.874 36.705,2.927 37.029,3.037 C37.354,3.146 37.64,3.305 37.886,3.514 C38.131,3.722 38.328,3.979 38.475,4.284 C38.621,4.589 38.696,4.935 38.701,5.322 C38.705,5.696 38.636,6.036 38.496,6.342 C38.356,6.648 38.165,6.91 37.924,7.128 C37.683,7.346 37.4,7.515 37.077,7.635 C36.755,7.757 36.411,7.818 36.045,7.822 C35.697,7.827 35.361,7.772 35.036,7.66 C34.71,7.548 34.422,7.386 34.173,7.174 C33.923,6.961 33.722,6.703 33.571,6.4 C33.419,6.097 33.343,5.757 33.338,5.378 Z" id="Fill-23"></path>
            <polyline id="Fill-24" points="43.002 4.882 42.308 4.703 42.646 3.382 47.733 4.689 47.394 6.01 46.699 5.831 46.78 5.253 45.371 4.891 44.556 8.063 45.056 8.191 44.86 8.95 43.104 8.498 43.299 7.74 43.798 7.868 44.612 4.696 43.21 4.336 43.002 4.882"></polyline>
            <path d="M53.298,8.076 C53.063,7.944 52.825,7.858 52.585,7.818 C52.346,7.779 52.116,7.782 51.898,7.829 C51.68,7.876 51.478,7.967 51.292,8.102 C51.106,8.237 50.953,8.413 50.831,8.628 C50.71,8.845 50.64,9.068 50.621,9.297 C50.603,9.525 50.63,9.745 50.703,9.956 C50.777,10.167 50.893,10.365 51.052,10.549 C51.21,10.732 51.407,10.89 51.642,11.022 C51.893,11.163 52.139,11.254 52.38,11.295 C52.621,11.336 52.849,11.331 53.064,11.282 C53.278,11.234 53.476,11.14 53.655,11.001 C53.836,10.863 53.986,10.686 54.108,10.47 C54.229,10.253 54.302,10.032 54.327,9.807 C54.352,9.581 54.328,9.364 54.259,9.155 C54.189,8.946 54.074,8.749 53.914,8.565 C53.753,8.379 53.548,8.217 53.298,8.076 Z M50.132,8.236 C50.321,7.898 50.556,7.632 50.835,7.437 C51.114,7.242 51.413,7.114 51.733,7.051 C52.052,6.989 52.381,6.987 52.719,7.048 C53.057,7.108 53.377,7.223 53.681,7.394 C53.999,7.572 54.272,7.791 54.499,8.048 C54.727,8.305 54.895,8.586 55.004,8.889 C55.112,9.192 55.154,9.512 55.129,9.85 C55.105,10.187 54.997,10.525 54.808,10.862 C54.624,11.189 54.396,11.449 54.121,11.644 C53.847,11.84 53.551,11.971 53.233,12.04 C52.915,12.109 52.586,12.114 52.246,12.058 C51.906,12.001 51.577,11.884 51.259,11.705 C50.955,11.535 50.69,11.32 50.465,11.061 C50.238,10.801 50.069,10.517 49.96,10.208 C49.849,9.899 49.804,9.575 49.824,9.238 C49.844,8.899 49.947,8.566 50.132,8.236 Z" id="Fill-25"></path>
        </g>
    </g>
</svg>