<?xml version="1.0" encoding="UTF-8"?>
<svg width="86px" height="77px" viewBox="0 0 86 77" version="1.1" xmlns="http://www.w3.org/2000/svg" xmlns:xlink="http://www.w3.org/1999/xlink">
    <!-- Generator: Sketch 49 (51002) - http://www.bohemiancoding.com/sketch -->
    <title>bitcoin-grey-7</title>
    <desc>Created with Sketch.</desc>
    <defs></defs>
    <g id="Page-1" stroke="none" stroke-width="1" fill="none" fill-rule="evenodd">
        <g id="bitcoin-grey-7" fill="#000000">
            <path d="M11.04,64.486 L8.487,64.486 L8.487,66.081 L11.017,66.081 C11.128,66.081 11.233,66.059 11.329,66.017 C11.426,65.974 11.511,65.917 11.585,65.846 C11.658,65.776 11.717,65.691 11.76,65.593 C11.803,65.495 11.825,65.39 11.825,65.28 C11.825,65.174 11.804,65.073 11.764,64.977 C11.723,64.882 11.666,64.798 11.592,64.728 C11.519,64.657 11.435,64.601 11.341,64.558 C11.247,64.515 11.146,64.491 11.04,64.486 Z M11.421,62.929 C11.421,62.752 11.357,62.601 11.23,62.475 C11.103,62.349 10.951,62.286 10.773,62.286 L8.487,62.286 L8.487,63.579 L10.773,63.579 C10.864,63.579 10.949,63.561 11.028,63.526 C11.107,63.491 11.175,63.444 11.234,63.386 C11.292,63.328 11.338,63.26 11.371,63.182 C11.404,63.104 11.421,63.02 11.421,62.929 Z M11.017,66.988 L6.978,66.988 L6.978,66.081 L7.572,66.081 L7.572,62.286 L6.978,62.286 L6.978,61.379 L10.773,61.379 C10.986,61.379 11.189,61.42 11.379,61.5 C11.569,61.581 11.736,61.692 11.878,61.833 C12.02,61.974 12.132,62.139 12.213,62.328 C12.294,62.517 12.335,62.717 12.335,62.929 C12.335,63.11 12.305,63.283 12.244,63.447 C12.183,63.61 12.102,63.758 12,63.889 C12.233,64.035 12.415,64.237 12.544,64.493 C12.674,64.75 12.739,65.012 12.739,65.28 C12.739,65.516 12.693,65.738 12.602,65.945 C12.51,66.151 12.386,66.333 12.229,66.489 C12.071,66.645 11.888,66.767 11.68,66.855 C11.471,66.944 11.251,66.988 11.017,66.988 Z" id="Fill-1"></path>
            <polyline id="Fill-2" points="16.419 66.988 14.293 66.988 14.293 66.081 14.895 66.081 14.895 62.286 14.293 62.286 14.293 61.379 16.412 61.379 16.412 62.286 15.81 62.286 15.81 66.081 16.419 66.081 16.419 66.988"></polyline>
            <polyline id="Fill-3" points="18.843 62.959 18.004 62.959 18.004 61.379 24.139 61.379 24.139 62.959 23.3 62.959 23.224 62.286 21.525 62.286 21.525 66.081 22.127 66.081 22.127 66.988 20.009 66.988 20.009 66.081 20.61 66.081 20.61 62.286 18.919 62.286 18.843 62.959"></polyline>
            <path d="M28.726,62.233 C28.411,62.233 28.12,62.281 27.854,62.377 C27.586,62.473 27.355,62.606 27.16,62.777 C26.964,62.949 26.811,63.156 26.699,63.397 C26.587,63.639 26.531,63.904 26.531,64.191 C26.531,64.478 26.587,64.743 26.699,64.985 C26.811,65.227 26.964,65.433 27.16,65.604 C27.355,65.776 27.586,65.909 27.854,66.005 C28.12,66.101 28.411,66.149 28.726,66.149 C29.142,66.149 29.507,66.077 29.819,65.933 C30.132,65.79 30.382,65.589 30.57,65.332 L31.248,65.945 C30.958,66.297 30.594,66.571 30.155,66.765 C29.715,66.959 29.239,67.056 28.726,67.056 C28.319,67.056 27.927,66.989 27.548,66.855 C27.17,66.722 26.836,66.531 26.546,66.281 C26.257,66.032 26.026,65.73 25.853,65.378 C25.68,65.025 25.594,64.629 25.594,64.191 C25.594,63.743 25.68,63.341 25.853,62.985 C26.026,62.63 26.257,62.33 26.546,62.086 C26.836,61.842 27.17,61.654 27.548,61.523 C27.927,61.392 28.319,61.326 28.726,61.326 C29.061,61.326 29.353,61.348 29.602,61.391 C29.851,61.434 30.068,61.488 30.254,61.553 C30.439,61.619 30.597,61.69 30.726,61.769 C30.855,61.847 30.971,61.919 31.073,61.984 L31.073,62.959 L30.235,62.959 L30.197,62.566 C30.105,62.511 30.014,62.461 29.922,62.419 C29.831,62.376 29.728,62.341 29.614,62.313 C29.5,62.285 29.371,62.265 29.229,62.252 C29.086,62.24 28.919,62.233 28.726,62.233" id="Fill-4"></path>
            <path d="M35.607,62.233 C35.292,62.233 35.002,62.281 34.735,62.377 C34.468,62.473 34.237,62.606 34.041,62.777 C33.846,62.949 33.692,63.156 33.58,63.397 C33.468,63.639 33.413,63.904 33.413,64.191 C33.413,64.478 33.468,64.743 33.58,64.985 C33.692,65.227 33.846,65.433 34.041,65.604 C34.237,65.776 34.468,65.909 34.735,66.005 C35.002,66.101 35.292,66.149 35.607,66.149 C35.942,66.149 36.245,66.101 36.514,66.005 C36.783,65.909 37.013,65.776 37.204,65.604 C37.394,65.433 37.542,65.227 37.646,64.985 C37.75,64.743 37.802,64.478 37.802,64.191 C37.802,63.904 37.75,63.639 37.646,63.397 C37.542,63.156 37.394,62.949 37.204,62.777 C37.013,62.606 36.783,62.473 36.514,62.377 C36.245,62.281 35.942,62.233 35.607,62.233 Z M32.475,64.191 C32.475,63.743 32.562,63.341 32.734,62.985 C32.907,62.63 33.138,62.33 33.428,62.086 C33.717,61.842 34.051,61.654 34.43,61.523 C34.808,61.392 35.201,61.326 35.607,61.326 C36.034,61.326 36.437,61.392 36.815,61.523 C37.193,61.654 37.525,61.842 37.81,62.086 C38.094,62.33 38.32,62.63 38.488,62.985 C38.655,63.341 38.739,63.743 38.739,64.191 C38.739,64.625 38.655,65.018 38.488,65.37 C38.32,65.723 38.094,66.024 37.81,66.273 C37.525,66.523 37.193,66.715 36.815,66.852 C36.437,66.988 36.034,67.056 35.607,67.056 C35.201,67.056 34.808,66.989 34.43,66.855 C34.051,66.722 33.717,66.531 33.428,66.281 C33.138,66.032 32.907,65.73 32.734,65.378 C32.562,65.025 32.475,64.629 32.475,64.191 Z" id="Fill-5"></path>
            <polyline id="Fill-6" points="42.48 66.988 40.355 66.988 40.355 66.081 40.956 66.081 40.956 62.286 40.355 62.286 40.355 61.379 42.473 61.379 42.473 62.286 41.871 62.286 41.871 66.081 42.48 66.081 42.48 66.988"></polyline>
            <polyline id="Fill-7" points="46.168 66.988 44.058 66.988 44.058 66.081 44.652 66.081 44.652 62.286 44.058 62.286 44.058 61.379 46.352 61.379 48.424 66.081 48.645 66.081 48.645 62.286 48.044 62.286 48.044 61.379 50.162 61.379 50.162 62.286 49.56 62.286 49.56 66.081 50.162 66.081 50.162 66.988 47.868 66.988 45.795 62.286 45.567 62.286 45.567 66.081 46.168 66.081 46.168 66.988"></polyline>
            <path d="M57.584,64.486 L59.877,64.486 L59.222,62.286 L58.247,62.286 L57.584,64.486 Z M61.912,66.988 L59.794,66.988 L59.794,66.081 L60.35,66.081 L60.151,65.393 L57.309,65.393 L57.104,66.081 L57.66,66.081 L57.66,66.988 L55.549,66.988 L55.549,66.081 L56.151,66.081 L57.286,62.286 L56.806,62.286 L56.806,61.379 L59.908,61.379 L61.31,66.081 L61.912,66.081 L61.912,66.988 Z" id="Fill-8"></path>
            <polyline id="Fill-9" points="63.116 62.959 62.277 62.959 62.277 61.379 68.412 61.379 68.412 62.959 67.573 62.959 67.497 62.286 65.798 62.286 65.798 66.081 66.4 66.081 66.4 66.988 64.282 66.988 64.282 66.081 64.883 66.081 64.883 62.286 63.192 62.286 63.116 62.959"></polyline>
            <polyline id="Fill-10" points="78.021 62.286 77.419 62.286 77.419 66.081 78.021 66.081 78.021 66.988 75.902 66.988 75.902 66.081 76.504 66.081 76.504 62.286 76.177 62.286 74.797 66.988 73.22 66.988 71.849 62.286 71.513 62.286 71.513 66.081 72.115 66.081 72.115 66.988 70.004 66.988 70.004 66.081 70.599 66.081 70.599 62.286 70.004 62.286 70.004 61.379 72.534 61.379 73.906 66.081 74.112 66.081 75.491 61.379 78.021 61.379 78.021 62.286"></polyline>
            <polyline id="Fill-11" points="6.962 48.915 7.328 50.37 6.696 50.527 6.592 50.114 3.951 50.766 4.055 51.179 3.424 51.334 3.059 49.884 3.691 49.728 3.794 50.14 6.436 49.488 6.331 49.071 6.962 48.915"></polyline>
            <polyline id="Fill-12" points="6.354 45.524 6.521 47.004 5.875 47.076 5.828 46.659 3.123 46.961 3.17 47.378 2.524 47.45 2.342 45.841 5.528 44.014 5.511 43.859 2.806 44.161 2.854 44.583 2.208 44.655 2.039 43.169 2.686 43.097 2.734 43.519 5.438 43.218 5.391 42.795 6.037 42.723 6.219 44.332 3.032 46.159 3.051 46.319 5.756 46.018 5.708 45.596 6.354 45.524"></polyline>
            <path d="M2.033,38.561 C2.044,38.36 2.061,38.182 2.084,38.025 C2.106,37.868 2.136,37.721 2.171,37.583 C2.208,37.444 2.253,37.311 2.307,37.18 C2.361,37.051 2.424,36.912 2.497,36.765 L3.31,36.807 L3.278,37.397 L2.952,37.407 C2.883,37.54 2.825,37.705 2.776,37.902 C2.728,38.099 2.696,38.344 2.681,38.637 C2.669,38.856 2.674,39.04 2.695,39.187 C2.716,39.336 2.746,39.455 2.785,39.545 C2.824,39.635 2.869,39.7 2.921,39.741 C2.974,39.781 3.024,39.802 3.075,39.805 C3.129,39.808 3.18,39.799 3.226,39.778 C3.273,39.757 3.316,39.707 3.358,39.628 C3.401,39.55 3.44,39.435 3.477,39.285 C3.514,39.134 3.548,38.93 3.58,38.673 C3.625,38.309 3.682,38.003 3.751,37.753 C3.82,37.504 3.908,37.303 4.016,37.151 C4.123,36.998 4.252,36.889 4.402,36.825 C4.553,36.762 4.729,36.735 4.931,36.745 C5.107,36.754 5.272,36.81 5.427,36.911 C5.581,37.012 5.712,37.154 5.822,37.335 C5.933,37.517 6.015,37.737 6.073,37.995 C6.13,38.253 6.149,38.544 6.132,38.87 C6.12,39.096 6.086,39.308 6.028,39.508 C5.971,39.708 5.901,39.892 5.82,40.061 C5.738,40.228 5.65,40.377 5.555,40.507 C5.459,40.636 5.366,40.742 5.274,40.824 L4.821,40.375 C4.905,40.279 4.985,40.177 5.062,40.069 C5.139,39.962 5.206,39.845 5.265,39.719 C5.324,39.593 5.373,39.456 5.412,39.309 C5.45,39.162 5.474,39.005 5.482,38.837 C5.496,38.586 5.487,38.371 5.457,38.191 C5.427,38.012 5.383,37.865 5.325,37.751 C5.268,37.637 5.201,37.552 5.125,37.496 C5.048,37.44 4.972,37.41 4.896,37.405 C4.82,37.402 4.749,37.418 4.684,37.454 C4.619,37.49 4.559,37.557 4.505,37.655 C4.451,37.753 4.403,37.887 4.362,38.057 C4.32,38.227 4.281,38.444 4.246,38.708 C4.198,39.072 4.141,39.372 4.074,39.609 C4.007,39.846 3.925,40.034 3.827,40.172 C3.729,40.311 3.616,40.406 3.489,40.457 C3.361,40.507 3.212,40.529 3.043,40.52 C2.877,40.511 2.728,40.461 2.595,40.367 C2.463,40.274 2.352,40.145 2.263,39.978 C2.174,39.812 2.109,39.61 2.069,39.37 C2.029,39.131 2.018,38.862 2.033,38.561" id="Fill-13"></path>
            <polyline id="Fill-14" points="3.737 33.812 3.611 34.39 2.504 34.151 3.433 29.921 4.54 30.16 4.413 30.738 3.93 30.688 3.673 31.86 6.332 32.435 6.424 32.02 7.06 32.158 6.738 33.618 6.103 33.481 6.193 33.065 3.534 32.491 3.278 33.657 3.737 33.812"></polyline>
            <path d="M6.563,27.604 L7.15,26.093 L5.511,25.961 L5.261,26.604 L6.563,27.604 Z M9.346,25.395 L8.803,26.789 L8.196,26.557 L8.339,26.191 L7.828,26.145 L7.1,28.016 L7.507,28.328 L7.649,27.962 L8.257,28.195 L7.715,29.584 L7.108,29.352 L7.263,28.956 L5.015,27.236 L4.892,27.552 L4.285,27.319 L5.079,25.278 L8.585,25.559 L8.739,25.162 L9.346,25.395 Z" id="Fill-15"></path>
            <polyline id="Fill-16" points="10.99 22.377 10.215 23.654 9.657 23.321 9.876 22.961 7.544 21.568 7.325 21.927 6.769 21.594 7.61 20.208 11.26 20.68 11.342 20.547 9.01 19.154 8.789 19.518 8.231 19.185 9.01 17.905 9.566 18.238 9.346 18.601 11.677 19.994 11.898 19.63 12.456 19.963 11.613 21.35 7.963 20.877 7.88 21.016 10.211 22.408 10.433 22.044 10.99 22.377"></polyline>
            <polyline id="Fill-17" points="11.85 16.018 11.459 16.465 10.603 15.729 13.461 12.458 14.317 13.193 13.927 13.641 13.526 13.368 12.734 14.274 14.791 16.042 15.072 15.721 15.564 16.144 14.576 17.274 14.085 16.851 14.365 16.53 12.309 14.762 11.521 15.664 11.85 16.018"></polyline>
            <path d="M20.883,9.125 L22.24,8.226 L20.978,7.181 L20.399,7.563 L20.883,9.125 Z M24.44,8.911 L23.187,9.74 L22.826,9.203 L23.155,8.985 L22.764,8.656 L21.081,9.769 L21.233,10.257 L21.563,10.039 L21.924,10.576 L20.674,11.402 L20.313,10.866 L20.67,10.63 L19.831,7.94 L19.547,8.127 L19.186,7.59 L21.022,6.375 L23.723,8.609 L24.079,8.374 L24.44,8.911 Z" id="Fill-18"></path>
            <path d="M26.616,4.089 C26.412,4.181 26.237,4.297 26.093,4.437 C25.948,4.576 25.838,4.73 25.762,4.898 C25.686,5.066 25.647,5.245 25.646,5.434 C25.646,5.623 25.687,5.812 25.772,5.997 C25.857,6.183 25.972,6.338 26.116,6.463 C26.26,6.587 26.42,6.676 26.598,6.73 C26.776,6.785 26.965,6.804 27.166,6.788 C27.368,6.772 27.57,6.719 27.774,6.627 C28.044,6.506 28.26,6.354 28.419,6.169 C28.58,5.985 28.682,5.783 28.728,5.562 L29.349,5.761 C29.266,6.073 29.11,6.357 28.882,6.61 C28.655,6.864 28.375,7.066 28.043,7.215 C27.779,7.334 27.505,7.404 27.221,7.428 C26.936,7.452 26.663,7.425 26.401,7.347 C26.14,7.27 25.9,7.142 25.684,6.964 C25.468,6.786 25.295,6.554 25.165,6.27 C25.032,5.979 24.97,5.694 24.976,5.413 C24.983,5.132 25.044,4.871 25.16,4.628 C25.275,4.386 25.437,4.167 25.643,3.972 C25.849,3.777 26.084,3.62 26.348,3.502 C26.565,3.404 26.761,3.333 26.935,3.288 C27.108,3.243 27.266,3.215 27.404,3.204 C27.545,3.192 27.668,3.193 27.775,3.206 C27.882,3.219 27.979,3.232 28.063,3.244 L28.352,3.876 L27.809,4.12 L27.667,3.877 C27.592,3.867 27.518,3.862 27.446,3.861 C27.374,3.86 27.297,3.867 27.215,3.883 C27.133,3.898 27.044,3.922 26.947,3.955 C26.852,3.988 26.741,4.033 26.616,4.089" id="Fill-19"></path>
            <path d="M32.633,1.981 C32.417,2.04 32.227,2.127 32.062,2.242 C31.896,2.357 31.763,2.492 31.661,2.646 C31.56,2.8 31.493,2.97 31.462,3.157 C31.431,3.344 31.442,3.536 31.496,3.733 C31.551,3.93 31.639,4.102 31.762,4.247 C31.884,4.392 32.028,4.505 32.195,4.586 C32.361,4.667 32.546,4.716 32.747,4.732 C32.948,4.748 33.156,4.727 33.373,4.669 C33.659,4.591 33.896,4.474 34.083,4.318 C34.271,4.161 34.403,3.977 34.484,3.766 L35.065,4.06 C34.934,4.355 34.735,4.611 34.47,4.826 C34.205,5.041 33.896,5.196 33.544,5.292 C33.265,5.367 32.983,5.394 32.698,5.372 C32.413,5.351 32.148,5.282 31.902,5.165 C31.656,5.048 31.44,4.884 31.256,4.674 C31.07,4.464 30.936,4.208 30.854,3.907 C30.769,3.599 30.752,3.308 30.804,3.032 C30.854,2.756 30.957,2.507 31.109,2.285 C31.262,2.064 31.456,1.873 31.69,1.713 C31.926,1.552 32.183,1.434 32.462,1.359 C32.691,1.296 32.896,1.257 33.075,1.24 C33.254,1.223 33.413,1.22 33.553,1.23 C33.693,1.241 33.814,1.261 33.918,1.29 C34.022,1.32 34.114,1.348 34.197,1.374 L34.381,2.043 L33.806,2.199 L33.705,1.936 C33.632,1.915 33.561,1.898 33.489,1.886 C33.418,1.873 33.341,1.869 33.257,1.87 C33.174,1.873 33.082,1.883 32.981,1.901 C32.882,1.919 32.765,1.945 32.633,1.981" id="Fill-20"></path>
            <polyline id="Fill-21" points="40.619 1.176 40.026 1.239 39.921 0.769 37.888 0.986 37.988 1.9 39.686 1.719 39.755 2.361 38.058 2.542 38.18 3.67 40.267 3.447 40.269 2.965 40.861 2.902 40.983 4.02 37.183 4.426 37.113 3.785 37.533 3.74 37.241 1.055 36.821 1.1 36.751 0.459 40.498 0.058 40.619 1.176"></polyline>
            <path d="M45.305,0.031 C45.507,0.041 45.687,0.058 45.845,0.081 C46.003,0.104 46.152,0.133 46.291,0.169 C46.43,0.205 46.565,0.249 46.697,0.303 C46.827,0.357 46.967,0.42 47.115,0.492 L47.072,1.298 L46.477,1.267 L46.467,0.943 C46.333,0.874 46.167,0.816 45.969,0.769 C45.771,0.721 45.523,0.688 45.227,0.673 C45.007,0.661 44.822,0.666 44.672,0.687 C44.523,0.708 44.402,0.737 44.312,0.776 C44.221,0.814 44.156,0.859 44.115,0.911 C44.074,0.962 44.052,1.013 44.05,1.063 C44.047,1.117 44.056,1.167 44.077,1.213 C44.098,1.259 44.148,1.303 44.228,1.345 C44.307,1.387 44.422,1.426 44.574,1.463 C44.726,1.499 44.931,1.533 45.19,1.565 C45.557,1.61 45.866,1.666 46.118,1.735 C46.369,1.804 46.572,1.891 46.726,1.999 C46.879,2.105 46.988,2.233 47.052,2.382 C47.116,2.531 47.144,2.705 47.133,2.906 C47.124,3.081 47.068,3.245 46.966,3.398 C46.863,3.55 46.721,3.681 46.537,3.79 C46.354,3.899 46.133,3.982 45.873,4.038 C45.612,4.094 45.318,4.113 44.99,4.097 C44.763,4.084 44.548,4.05 44.347,3.993 C44.146,3.935 43.96,3.866 43.79,3.786 C43.621,3.705 43.471,3.617 43.341,3.522 C43.209,3.427 43.103,3.335 43.021,3.244 L43.474,2.794 C43.571,2.879 43.673,2.958 43.782,3.034 C43.89,3.11 44.008,3.177 44.134,3.236 C44.262,3.294 44.399,3.343 44.548,3.381 C44.695,3.419 44.855,3.443 45.024,3.452 C45.277,3.465 45.494,3.457 45.675,3.427 C45.855,3.397 46.003,3.354 46.119,3.297 C46.234,3.24 46.319,3.174 46.377,3.098 C46.433,3.022 46.463,2.946 46.467,2.871 C46.471,2.796 46.455,2.726 46.419,2.661 C46.382,2.596 46.315,2.537 46.217,2.483 C46.118,2.43 45.982,2.382 45.812,2.341 C45.64,2.299 45.421,2.261 45.155,2.226 C44.788,2.178 44.485,2.12 44.247,2.054 C44.008,1.988 43.818,1.906 43.679,1.809 C43.539,1.711 43.443,1.6 43.393,1.473 C43.342,1.347 43.32,1.199 43.329,1.031 C43.338,0.866 43.39,0.718 43.483,0.587 C43.577,0.456 43.708,0.345 43.876,0.257 C44.044,0.169 44.248,0.106 44.488,0.066 C44.729,0.026 45.001,0.015 45.305,0.031" id="Fill-22"></path>
            <path d="M51.933,0.924 C52.13,0.967 52.306,1.012 52.458,1.06 C52.61,1.108 52.752,1.16 52.884,1.218 C53.016,1.276 53.141,1.342 53.262,1.416 C53.382,1.49 53.51,1.575 53.645,1.67 L53.471,2.458 L52.888,2.332 L52.931,2.01 C52.81,1.922 52.655,1.838 52.468,1.758 C52.28,1.679 52.041,1.608 51.751,1.545 C51.536,1.499 51.353,1.474 51.202,1.47 C51.051,1.467 50.928,1.477 50.832,1.5 C50.736,1.523 50.664,1.557 50.615,1.601 C50.566,1.646 50.537,1.693 50.526,1.742 C50.515,1.794 50.516,1.845 50.528,1.894 C50.542,1.943 50.584,1.994 50.655,2.048 C50.727,2.102 50.834,2.159 50.979,2.22 C51.122,2.281 51.319,2.347 51.57,2.42 C51.925,2.522 52.221,2.628 52.458,2.736 C52.694,2.844 52.88,2.964 53.014,3.094 C53.148,3.224 53.235,3.367 53.274,3.525 C53.314,3.682 53.312,3.858 53.269,4.054 C53.231,4.226 53.148,4.379 53.023,4.513 C52.897,4.647 52.735,4.754 52.537,4.831 C52.338,4.91 52.106,4.956 51.84,4.969 C51.574,4.984 51.281,4.956 50.959,4.886 C50.737,4.838 50.531,4.769 50.342,4.68 C50.152,4.592 49.98,4.494 49.826,4.387 C49.672,4.28 49.539,4.169 49.425,4.055 C49.312,3.94 49.222,3.832 49.155,3.73 L49.676,3.358 C49.758,3.456 49.846,3.552 49.94,3.644 C50.034,3.736 50.14,3.821 50.256,3.899 C50.372,3.978 50.499,4.048 50.64,4.109 C50.779,4.171 50.933,4.219 51.099,4.256 C51.345,4.309 51.561,4.336 51.744,4.335 C51.927,4.334 52.081,4.315 52.204,4.278 C52.326,4.24 52.422,4.189 52.49,4.122 C52.559,4.057 52.601,3.986 52.617,3.913 C52.634,3.84 52.629,3.768 52.604,3.698 C52.578,3.628 52.522,3.559 52.433,3.49 C52.345,3.422 52.219,3.354 52.056,3.285 C51.894,3.217 51.684,3.144 51.427,3.066 C51.073,2.96 50.784,2.855 50.559,2.751 C50.334,2.647 50.16,2.536 50.039,2.418 C49.917,2.3 49.84,2.174 49.811,2.041 C49.781,1.908 49.784,1.759 49.82,1.594 C49.856,1.433 49.931,1.296 50.045,1.181 C50.159,1.066 50.306,0.979 50.486,0.918 C50.666,0.858 50.877,0.828 51.122,0.828 C51.366,0.828 51.636,0.86 51.933,0.924" id="Fill-23"></path>
            <polyline id="Fill-24" points="60.185 4.919 59.656 4.645 60.182 3.649 64.048 5.657 63.522 6.653 62.994 6.378 63.17 5.929 62.099 5.373 60.836 7.765 61.216 7.962 60.914 8.533 59.579 7.84 59.881 7.268 60.26 7.465 61.523 5.074 60.456 4.52 60.185 4.919"></polyline>
            <path d="M67.601,8.841 C67.423,8.706 67.237,8.608 67.045,8.548 C66.853,8.488 66.663,8.465 66.479,8.478 C66.293,8.49 66.116,8.541 65.948,8.63 C65.779,8.718 65.632,8.844 65.507,9.007 C65.382,9.169 65.298,9.342 65.257,9.527 C65.214,9.712 65.211,9.894 65.247,10.075 C65.282,10.256 65.355,10.431 65.464,10.599 C65.573,10.767 65.717,10.919 65.896,11.054 C66.085,11.198 66.276,11.3 66.47,11.361 C66.664,11.423 66.852,11.446 67.034,11.431 C67.217,11.415 67.39,11.362 67.554,11.27 C67.719,11.178 67.863,11.05 67.988,10.888 C68.113,10.726 68.199,10.554 68.246,10.373 C68.292,10.191 68.299,10.011 68.266,9.833 C68.233,9.654 68.161,9.48 68.051,9.311 C67.94,9.141 67.79,8.984 67.601,8.841 Z M64.978,8.605 C65.173,8.352 65.396,8.161 65.649,8.035 C65.902,7.908 66.163,7.838 66.433,7.823 C66.703,7.81 66.974,7.847 67.244,7.935 C67.516,8.023 67.766,8.154 67.996,8.329 C68.236,8.511 68.436,8.721 68.593,8.957 C68.75,9.193 68.855,9.441 68.91,9.702 C68.964,9.962 68.961,10.228 68.901,10.5 C68.841,10.773 68.714,11.037 68.518,11.29 C68.329,11.535 68.11,11.721 67.862,11.849 C67.614,11.977 67.355,12.05 67.085,12.069 C66.815,12.087 66.544,12.054 66.271,11.969 C65.998,11.884 65.741,11.749 65.5,11.567 C65.27,11.393 65.077,11.187 64.921,10.949 C64.766,10.711 64.66,10.46 64.605,10.194 C64.55,9.929 64.551,9.66 64.606,9.387 C64.663,9.113 64.786,8.853 64.978,8.605 Z" id="Fill-25"></path>
            <path d="M75.521,17.6 C75.622,17.523 75.68,17.422 75.697,17.296 C75.714,17.171 75.684,17.058 75.607,16.959 L74.62,15.677 L73.883,16.236 L74.871,17.517 C74.91,17.568 74.957,17.608 75.011,17.637 C75.065,17.666 75.122,17.685 75.18,17.692 C75.238,17.7 75.297,17.696 75.355,17.681 C75.414,17.666 75.469,17.639 75.521,17.6 Z M74.469,18.059 L73.366,16.628 L72.457,17.317 L73.55,18.735 C73.599,18.798 73.656,18.847 73.722,18.882 C73.788,18.918 73.857,18.942 73.929,18.952 C74.001,18.963 74.074,18.959 74.149,18.941 C74.224,18.923 74.293,18.89 74.356,18.841 C74.417,18.796 74.465,18.741 74.502,18.677 C74.539,18.613 74.562,18.545 74.57,18.473 C74.578,18.401 74.574,18.33 74.558,18.259 C74.542,18.187 74.513,18.12 74.469,18.059 Z M73.034,19.127 L71.289,16.863 L71.805,16.47 L72.062,16.804 L74.225,15.164 L73.968,14.831 L74.484,14.439 L76.124,16.567 C76.217,16.687 76.281,16.817 76.317,16.959 C76.354,17.1 76.362,17.241 76.343,17.382 C76.324,17.523 76.278,17.657 76.206,17.784 C76.134,17.911 76.037,18.021 75.917,18.112 C75.813,18.19 75.701,18.248 75.581,18.285 C75.462,18.322 75.343,18.339 75.225,18.339 C75.242,18.534 75.206,18.722 75.115,18.906 C75.025,19.089 74.903,19.239 74.751,19.355 C74.616,19.457 74.47,19.527 74.313,19.565 C74.155,19.603 73.999,19.611 73.841,19.59 C73.685,19.57 73.536,19.52 73.396,19.442 C73.255,19.363 73.135,19.258 73.034,19.127 Z" id="Fill-26"></path>
            <polyline id="Fill-27" points="75.559 23.072 74.804 21.772 75.368 21.449 75.581 21.818 77.939 20.47 77.726 20.102 78.29 19.78 79.043 21.075 78.479 21.397 78.265 21.03 75.906 22.377 76.123 22.75 75.559 23.072"></polyline>
            <polyline id="Fill-28" points="79.426 24.277 79.2 23.73 80.249 23.304 81.901 27.311 80.853 27.737 80.627 27.189 81.053 26.958 80.595 25.848 78.076 26.87 78.238 27.264 77.636 27.508 77.065 26.124 77.668 25.88 77.83 26.273 80.349 25.25 79.894 24.146 79.426 24.277"></polyline>
            <path d="M82.563,32.058 C82.513,31.841 82.434,31.648 82.324,31.48 C82.215,31.312 82.085,31.173 81.935,31.065 C81.784,30.958 81.615,30.885 81.429,30.846 C81.241,30.807 81.048,30.81 80.847,30.856 C80.646,30.901 80.47,30.981 80.318,31.096 C80.166,31.212 80.046,31.35 79.958,31.512 C79.869,31.673 79.812,31.853 79.786,32.052 C79.762,32.25 79.774,32.458 79.824,32.675 C79.89,32.962 79.997,33.201 80.147,33.394 C80.297,33.586 80.476,33.727 80.686,33.815 L80.364,34.379 C80.072,34.235 79.823,34.028 79.618,33.756 C79.413,33.483 79.27,33.171 79.189,32.818 C79.126,32.539 79.11,32.258 79.144,31.976 C79.178,31.695 79.258,31.435 79.387,31.196 C79.517,30.957 79.69,30.751 79.91,30.577 C80.129,30.402 80.393,30.28 80.699,30.211 C81.013,30.14 81.308,30.136 81.583,30.199 C81.858,30.262 82.105,30.374 82.322,30.534 C82.538,30.695 82.723,30.895 82.873,31.135 C83.025,31.375 83.133,31.635 83.197,31.914 C83.249,32.145 83.281,32.349 83.29,32.528 C83.299,32.706 83.296,32.864 83.279,33.002 C83.263,33.14 83.237,33.26 83.203,33.361 C83.169,33.462 83.137,33.553 83.107,33.633 L82.425,33.787 L82.293,33.211 L82.562,33.122 C82.586,33.05 82.606,32.979 82.621,32.91 C82.637,32.84 82.646,32.764 82.647,32.681 C82.648,32.598 82.642,32.506 82.629,32.406 C82.615,32.307 82.593,32.19 82.563,32.058" id="Fill-29"></path>
            <path d="M83.439,38.275 C83.425,38.053 83.378,37.85 83.298,37.666 C83.218,37.482 83.112,37.325 82.981,37.195 C82.851,37.065 82.696,36.965 82.518,36.897 C82.34,36.829 82.148,36.801 81.942,36.814 C81.736,36.826 81.55,36.877 81.381,36.966 C81.213,37.056 81.071,37.173 80.957,37.318 C80.843,37.463 80.758,37.632 80.701,37.824 C80.644,38.016 80.622,38.223 80.636,38.445 C80.65,38.681 80.698,38.892 80.778,39.078 C80.858,39.263 80.964,39.419 81.095,39.546 C81.226,39.673 81.38,39.767 81.558,39.83 C81.735,39.893 81.927,39.918 82.133,39.906 C82.339,39.893 82.525,39.844 82.694,39.761 C82.863,39.677 83.004,39.564 83.119,39.423 C83.233,39.281 83.319,39.113 83.376,38.919 C83.433,38.726 83.454,38.511 83.439,38.275 Z M81.901,36.153 C82.223,36.134 82.514,36.177 82.775,36.284 C83.038,36.39 83.263,36.54 83.45,36.733 C83.638,36.926 83.787,37.153 83.896,37.414 C84.007,37.675 84.071,37.949 84.088,38.235 C84.107,38.536 84.078,38.822 84.001,39.094 C83.923,39.367 83.803,39.609 83.64,39.82 C83.478,40.03 83.272,40.203 83.026,40.336 C82.779,40.47 82.495,40.547 82.173,40.566 C81.863,40.585 81.578,40.543 81.318,40.44 C81.059,40.337 80.833,40.191 80.643,40.002 C80.451,39.812 80.299,39.587 80.185,39.326 C80.071,39.065 80.005,38.784 79.986,38.484 C79.969,38.198 79.999,37.918 80.079,37.646 C80.158,37.374 80.28,37.13 80.446,36.915 C80.612,36.7 80.818,36.524 81.063,36.388 C81.308,36.25 81.587,36.172 81.901,36.153 Z" id="Fill-30"></path>
            <polyline id="Fill-31" points="79.95 44.187 80.061 42.691 80.709 42.739 80.678 43.162 83.393 43.359 83.424 42.936 84.073 42.983 83.963 44.474 83.313 44.426 83.345 44.003 80.63 43.805 80.599 44.235 79.95 44.187"></polyline>
            <polyline id="Fill-32" points="79.459 47.619 79.766 46.161 80.403 46.293 80.316 46.703 82.981 47.254 83.067 46.843 83.704 46.975 83.371 48.56 79.769 49.309 79.737 49.462 82.401 50.013 82.488 49.597 83.125 49.729 82.817 51.192 82.181 51.061 82.269 50.645 79.604 50.094 79.517 50.51 78.879 50.378 79.213 48.794 82.815 48.044 82.848 47.886 80.184 47.335 80.096 47.75 79.459 47.619"></polyline>
            <path d="M54.54,33.303 L54.011,33.245 L53.635,33.206 L53.259,33.166 L53.129,33.153 L53.314,31.451 C53.347,31.153 53.307,30.861 53.213,30.584 C53.137,30.363 53.029,30.152 52.877,29.964 C52.712,29.758 52.511,29.592 52.287,29.466 C52.047,29.332 51.781,29.244 51.5,29.215 C51.237,29.186 50.982,29.214 50.742,29.279 C49.956,29.495 49.34,30.163 49.248,31.016 L49.15,31.921 C49.149,31.922 49.149,31.922 49.149,31.922 L48.99,33.39 L48.969,33.586 L48.797,35.165 C48.782,35.307 48.729,35.432 48.673,35.556 C48.541,35.84 48.312,36.054 48.027,36.179 C47.981,36.2 47.942,36.235 47.893,36.25 C47.729,36.3 47.553,36.319 47.372,36.301 C47.338,36.297 47.311,36.278 47.278,36.272 C47.144,36.246 47.01,36.215 46.892,36.153 C46.743,36.072 46.61,35.963 46.5,35.828 C46.284,35.562 46.186,35.229 46.222,34.89 L46.447,32.818 C46.447,32.817 46.448,32.816 46.448,32.816 C46.448,32.813 46.447,32.812 46.448,32.81 L46.819,29.383 L46.819,29.382 L46.851,29.095 C46.873,28.889 46.724,28.704 46.518,28.682 C46.451,28.675 46.39,28.691 46.333,28.715 C46.211,28.766 46.119,28.874 46.104,29.015 L46.006,29.922 L46.002,29.958 L45.741,32.362 L44.617,32.243 L44.328,32.212 C44.298,32.209 44.271,32.217 44.242,32.22 C44.076,32.243 43.934,32.369 43.915,32.545 C43.897,32.72 44.005,32.874 44.163,32.931 C44.191,32.941 44.218,32.954 44.249,32.958 L44.255,32.958 L44.465,32.981 L44.631,32.998 L44.631,32.999 L45.661,33.108 L45.476,34.81 C45.418,35.348 45.575,35.879 45.918,36.302 C46.078,36.498 46.271,36.655 46.483,36.779 C46.711,36.911 46.964,36.998 47.232,37.035 C47.253,37.037 47.272,37.045 47.292,37.047 C47.353,37.053 47.413,37.055 47.474,37.056 C47.486,37.056 47.499,37.058 47.512,37.058 C47.646,37.058 47.777,37.044 47.904,37.019 C47.952,37.01 47.997,36.992 48.044,36.98 C48.354,36.896 48.641,36.748 48.876,36.537 C48.994,36.432 49.094,36.31 49.185,36.18 C49.299,36.017 49.395,35.839 49.457,35.644 C49.498,35.516 49.528,35.385 49.544,35.245 L49.661,34.166 C49.661,34.163 49.662,34.161 49.663,34.16 L49.763,33.233 L49.768,33.188 L49.994,31.097 C50.069,30.395 50.708,29.884 51.42,29.96 C51.431,29.961 51.439,29.968 51.45,29.969 C51.695,30.001 51.909,30.115 52.095,30.268 C52.162,30.323 52.238,30.365 52.293,30.434 C52.508,30.7 52.605,31.032 52.569,31.37 L52.343,33.444 L52.343,33.445 C52.343,33.446 52.343,33.446 52.343,33.446 L51.964,36.929 C51.941,37.135 52.09,37.321 52.296,37.343 C52.31,37.343 52.323,37.344 52.337,37.344 C52.372,37.344 52.396,37.319 52.428,37.31 C52.571,37.27 52.692,37.167 52.71,37.01 L53.048,33.898 L53.273,33.922 L53.649,33.962 L54.024,34.002 L54.461,34.049 C54.474,34.05 54.488,34.051 54.501,34.051 C54.69,34.051 54.853,33.908 54.874,33.716 C54.896,33.51 54.746,33.324 54.54,33.303" id="Fill-33"></path>
            <path d="M42.642,27.275 L43.555,18.869 C43.763,18.874 43.966,18.852 44.167,18.828 C44.511,18.79 44.846,18.719 45.163,18.605 C45.284,18.562 45.398,18.503 45.514,18.449 C45.631,18.396 45.751,18.347 45.862,18.283 C46.533,17.901 47.094,17.349 47.487,16.682 C47.714,16.299 47.88,15.876 47.981,15.426 C47.991,15.385 48.008,15.347 48.017,15.304 L52.946,15.83 L53.322,15.871 L53.698,15.911 L54.567,16.004 C54.542,17.036 54.88,18.036 55.538,18.853 C56.204,19.681 57.125,20.232 58.162,20.431 L57.151,29.725 C56.328,28.737 55.204,27.913 53.904,27.307 C53.78,27.249 53.653,27.195 53.526,27.14 C53.399,27.087 53.277,27.03 53.147,26.981 C52.851,26.868 52.547,26.763 52.236,26.674 C51.99,26.602 51.736,26.547 51.483,26.491 C51.043,26.394 50.596,26.311 50.139,26.262 C49.696,26.215 49.25,26.191 48.811,26.191 C48.37,26.191 47.94,26.223 47.516,26.267 C47.391,26.281 47.265,26.292 47.141,26.31 C47.016,26.327 46.894,26.349 46.771,26.37 C46.535,26.411 46.301,26.457 46.072,26.512 C46.009,26.528 45.949,26.547 45.887,26.563 C45.642,26.627 45.401,26.697 45.166,26.777 C44.855,26.882 44.554,27.004 44.263,27.136 C43.888,27.307 43.526,27.493 43.19,27.707 C42.966,27.849 42.751,28.001 42.546,28.161 L42.642,27.275 Z M41.908,29.436 C42.054,29.503 42.226,29.471 42.337,29.356 C42.631,29.051 42.978,28.781 43.344,28.529 C43.604,28.35 43.879,28.186 44.17,28.035 C44.534,27.846 44.919,27.68 45.323,27.538 C45.559,27.456 45.797,27.382 46.043,27.317 C46.08,27.307 46.117,27.299 46.153,27.29 C46.407,27.224 46.663,27.164 46.926,27.118 C47.048,27.096 47.173,27.082 47.298,27.065 C47.422,27.048 47.544,27.025 47.669,27.011 C47.812,26.996 47.955,26.989 48.099,26.98 C48.743,26.936 49.399,26.937 50.059,27.008 C50.551,27.06 51.028,27.154 51.497,27.265 C51.75,27.325 52.005,27.384 52.25,27.46 C52.563,27.557 52.866,27.673 53.162,27.795 C53.292,27.848 53.415,27.907 53.541,27.965 C53.669,28.024 53.794,28.087 53.919,28.151 C55.277,28.845 56.398,29.798 57.099,30.932 C57.168,31.045 57.29,31.111 57.418,31.111 C57.445,31.111 57.473,31.108 57.501,31.102 C57.657,31.067 57.773,30.936 57.791,30.777 L58.946,20.154 C58.957,20.055 58.928,19.956 58.865,19.878 C58.803,19.8 58.712,19.751 58.613,19.74 C57.626,19.635 56.741,19.153 56.122,18.383 C55.511,17.624 55.232,16.675 55.337,15.71 C55.349,15.611 55.319,15.512 55.257,15.434 C55.194,15.357 55.104,15.307 55.005,15.297 L53.685,15.156 L53.309,15.115 L52.933,15.075 L47.74,14.52 C47.525,14.498 47.349,14.648 47.327,14.853 C47.324,14.872 47.317,14.89 47.314,14.909 C47.282,15.171 47.22,15.423 47.136,15.662 C46.869,16.425 46.356,17.058 45.699,17.494 C45.587,17.568 45.48,17.647 45.36,17.709 C45.248,17.766 45.126,17.807 45.007,17.853 C44.471,18.063 43.882,18.165 43.261,18.098 C43.048,18.077 42.871,18.225 42.848,18.431 L41.874,27.406 L41.871,27.431 L41.789,28.187 L41.694,29.055 C41.677,29.215 41.763,29.367 41.908,29.436 Z" id="Fill-34"></path>
            <path d="M51.511,49.265 C51.158,49.764 50.893,50.33 50.771,50.957 L48.647,50.73 L47.895,50.649 L46.754,50.528 L46.006,50.447 L44.22,50.257 C44.245,49.223 43.906,48.222 43.249,47.405 C42.583,46.578 41.662,46.028 40.627,45.831 L41.243,40.157 L41.276,39.858 L41.617,36.717 L41.637,36.535 C41.757,36.68 41.895,36.815 42.027,36.952 C42.187,37.117 42.353,37.277 42.528,37.43 C43.085,37.92 43.72,38.355 44.418,38.723 C44.669,38.854 44.928,38.975 45.193,39.09 C45.389,39.174 45.585,39.256 45.787,39.329 C46.286,39.511 46.805,39.661 47.338,39.778 C47.517,39.817 47.697,39.852 47.879,39.883 C48.134,39.926 48.389,39.971 48.648,39.999 C48.655,40 48.662,40 48.669,40 C48.982,40.033 49.294,40.05 49.605,40.06 C49.733,40.064 49.86,40.061 49.988,40.061 C50.116,40.061 50.243,40.056 50.369,40.052 C50.829,40.036 51.283,40.003 51.726,39.937 C51.979,39.9 52.227,39.847 52.473,39.794 C52.781,39.727 53.081,39.647 53.375,39.555 C53.499,39.516 53.627,39.486 53.748,39.443 C53.876,39.398 53.995,39.342 54.12,39.292 C54.57,39.111 55.002,38.907 55.403,38.669 L53.766,40.463 L52.51,41.84 L51.215,43.259 C51.161,43.319 51.123,43.387 51.073,43.449 C50.967,43.58 50.861,43.711 50.773,43.852 C50.666,44.025 50.582,44.208 50.502,44.394 C50.265,44.951 50.139,45.553 50.17,46.177 C50.187,46.512 50.258,46.834 50.353,47.146 C50.427,47.391 50.522,47.628 50.642,47.854 C50.846,48.239 51.109,48.594 51.436,48.901 C51.46,48.925 51.479,48.952 51.504,48.975 L51.637,49.095 C51.594,49.151 51.552,49.208 51.511,49.265 Z M67.335,31.624 L68.714,32.863 L57.949,44.664 L57.521,45.133 L54.761,48.159 L54.29,48.675 L53.554,49.482 L53.39,49.661 L52.709,49.049 L52.148,48.547 L52.123,48.524 L52.005,48.417 C51.867,48.294 51.748,48.155 51.635,48.013 C51.625,48.002 51.613,47.991 51.604,47.98 L51.623,47.958 L51.936,47.616 L52.071,47.467 L52.602,46.886 L53.489,45.912 L53.857,45.509 L54.225,45.106 L66.852,31.265 C67.022,31.369 67.184,31.489 67.335,31.624 Z M65.104,30.775 C65.457,30.775 65.8,30.84 66.128,30.946 L58.535,39.27 L58.106,39.739 L57.678,40.208 L53.837,44.418 L53.47,44.822 L52.582,45.795 L51.846,46.602 L51.748,46.709 L51.713,46.746 L51.436,47.051 L51.203,47.305 C51.142,47.168 51.091,47.024 51.049,46.878 C50.981,46.639 50.932,46.394 50.919,46.139 C50.902,45.794 50.953,45.458 51.039,45.134 C51.098,44.908 51.18,44.691 51.287,44.483 C51.418,44.228 51.571,43.982 51.77,43.764 L51.794,43.738 L52.53,42.931 L53.418,41.958 L53.786,41.555 L54.154,41.151 L58.466,36.424 L58.895,35.954 L62.634,31.856 C63.261,31.169 64.161,30.775 65.104,30.775 Z M34.207,16.633 L31.933,17.096 C31.835,17.116 31.75,17.174 31.695,17.257 C31.64,17.34 31.621,17.442 31.641,17.54 C31.837,18.491 31.651,19.463 31.115,20.277 C30.572,21.099 29.739,21.661 28.769,21.858 C28.671,21.878 28.585,21.936 28.531,22.02 C28.476,22.103 28.457,22.204 28.477,22.302 L30.366,31.431 C30.037,31.223 29.691,31.046 29.333,30.898 L26.515,17.29 L34.19,15.725 L34.207,16.633 Z M37.966,28.291 C37.56,28.575 37.175,28.879 36.839,29.216 L36.671,19.868 C37.713,19.763 38.675,19.301 39.412,18.544 C39.559,18.392 39.685,18.228 39.807,18.06 C39.963,17.847 40.099,17.622 40.213,17.387 C40.457,16.885 40.611,16.344 40.648,15.779 L41.472,15.764 L41.198,18.286 L41.112,19.082 L40.24,27.112 C40.057,27.179 39.88,27.254 39.703,27.33 C39.077,27.598 38.496,27.921 37.966,28.291 Z M41.508,52.564 L38.892,52.61 L35.769,52.666 C36.463,52.042 37.008,51.288 37.384,50.449 C37.489,50.214 37.581,49.972 37.658,49.723 C37.752,49.424 37.833,49.12 37.884,48.805 C37.889,48.779 37.889,48.753 37.894,48.726 L37.584,51.575 C37.573,51.674 37.603,51.773 37.665,51.85 C37.728,51.927 37.818,51.978 37.917,51.989 L38.721,52.074 L39.554,52.162 L39.664,52.174 L42.127,52.438 L43.053,52.536 L41.508,52.564 Z M37.96,48.114 C37.964,48.045 37.961,47.976 37.963,47.907 C37.969,47.909 37.976,47.911 37.981,47.914 L37.96,48.114 Z M37.043,40.508 L36.991,37.637 C37.259,37.889 37.555,38.119 37.862,38.337 C38.034,38.458 38.207,38.578 38.39,38.689 C38.569,38.799 38.76,38.896 38.95,38.993 L38.781,40.551 L38.698,41.313 L38.064,47.159 C38.021,47.146 37.981,47.128 37.938,47.117 C37.853,46.195 37.577,45.301 37.114,44.485 L37.043,40.508 Z M32.888,39.908 C33.418,40.245 34.01,40.522 34.642,40.742 L34.664,42.008 C34.2,41.737 33.706,41.521 33.189,41.366 L32.888,39.908 Z M32.384,41.177 C32.279,41.159 32.176,41.133 32.07,41.12 C32.152,41.015 32.229,40.906 32.306,40.796 L32.384,41.177 Z M33.466,36.712 C33.383,35.091 32.72,33.591 31.596,32.434 C32.237,31.355 33.224,30.407 34.442,29.669 L34.536,34.892 L34.123,34.976 C33.92,35.017 33.789,35.217 33.83,35.419 C33.867,35.596 34.023,35.719 34.197,35.719 C34.222,35.719 34.248,35.717 34.272,35.712 L34.55,35.655 L34.627,39.924 C34.084,39.715 33.58,39.459 33.129,39.154 C33.389,38.378 33.509,37.553 33.466,36.712 Z M32.436,17.759 L34.221,17.396 L34.426,28.811 C33.083,29.556 31.952,30.531 31.18,31.662 L29.284,22.503 C30.294,22.209 31.157,21.575 31.741,20.689 C32.318,19.814 32.56,18.786 32.436,17.759 Z M25.864,43.755 C25.852,43.718 25.837,43.681 25.824,43.644 C25.861,43.65 25.898,43.655 25.935,43.66 C25.91,43.691 25.888,43.723 25.864,43.755 Z M34.914,14.239 L38.002,14.184 L40.058,14.148 L41.651,14.12 L41.642,14.208 L41.554,15.012 L40.275,15.035 C40.176,15.037 40.082,15.078 40.012,15.15 C39.943,15.221 39.905,15.318 39.907,15.417 C39.914,15.813 39.843,16.195 39.728,16.564 C39.633,16.865 39.513,17.157 39.342,17.425 C39.208,17.637 39.053,17.837 38.874,18.021 C38.189,18.725 37.269,19.123 36.283,19.14 C36.184,19.142 36.089,19.183 36.02,19.255 C35.951,19.327 35.913,19.423 35.915,19.522 L36.107,30.204 C36.11,30.365 36.214,30.506 36.367,30.555 C36.405,30.567 36.443,30.573 36.482,30.573 C36.598,30.573 36.71,30.52 36.782,30.423 C37.513,29.447 38.575,28.648 39.831,28.08 C39.934,28.034 40.043,27.996 40.149,27.953 L40.137,28.065 L39.601,33.002 L39.341,33.007 L39.324,33.007 L39.118,33.011 C39.024,33.012 38.941,33.051 38.877,33.111 C38.799,33.18 38.748,33.279 38.75,33.392 C38.754,33.593 38.916,33.753 39.114,33.758 C39.118,33.758 39.121,33.761 39.125,33.761 C39.127,33.761 39.129,33.761 39.132,33.761 L39.496,33.754 L39.519,33.754 L39.511,33.825 L39.511,33.827 L39.379,35.038 L39.314,35.642 L39.06,37.979 L39.038,38.188 C38.987,38.16 38.943,38.127 38.894,38.098 C38.761,38.02 38.633,37.938 38.506,37.855 C37.881,37.444 37.327,36.971 36.891,36.43 C36.821,36.344 36.719,36.312 36.614,36.307 C36.565,36.305 36.518,36.296 36.471,36.313 C36.376,36.347 36.314,36.423 36.272,36.509 C36.248,36.56 36.223,36.613 36.224,36.673 L36.345,43.403 C36.065,43.078 35.757,42.786 35.424,42.525 L35.224,31.44 L35.222,31.331 L34.914,14.239 Z M26.758,31.133 C27.422,31.133 28.068,31.258 28.685,31.467 C28.825,31.515 28.963,31.567 29.1,31.625 C29.246,31.687 29.386,31.76 29.526,31.833 C29.904,32.031 30.264,32.261 30.595,32.537 C30.646,32.582 30.706,32.613 30.757,32.658 C30.89,32.777 31.015,32.903 31.135,33.032 C32.087,34.049 32.646,35.349 32.717,36.75 C32.751,37.422 32.666,38.08 32.481,38.707 C32.38,39.054 32.247,39.39 32.082,39.714 C31.889,40.091 31.653,40.447 31.378,40.781 C31.315,40.858 31.256,40.937 31.189,41.011 C31.167,41.035 31.143,41.055 31.121,41.078 C31.1,41.078 31.079,41.083 31.058,41.084 C30.932,41.087 30.807,41.102 30.681,41.113 C29.479,41.213 28.33,41.612 27.337,42.319 C27.067,42.511 26.82,42.725 26.585,42.95 C26.209,42.94 25.838,42.892 25.475,42.813 C25.353,42.572 25.221,42.334 25.068,42.106 C24.166,40.757 22.831,39.803 21.274,39.374 C21.001,38.739 20.834,38.057 20.798,37.348 C20.717,35.772 21.26,34.258 22.327,33.086 C23.456,31.845 25.071,31.133 26.758,31.133 Z M19.478,51.708 C19.088,51.708 18.695,51.67 18.309,51.593 C16.736,51.285 15.383,50.385 14.497,49.061 C13.622,47.752 13.309,46.182 13.618,44.64 C14.169,41.878 16.629,39.874 19.466,39.874 C19.854,39.874 20.247,39.911 20.631,39.987 C20.671,39.994 20.706,40.013 20.746,40.021 C20.921,40.06 21.086,40.121 21.255,40.174 C21.441,40.232 21.633,40.277 21.812,40.352 C22.855,40.791 23.747,41.517 24.398,42.467 C24.412,42.486 24.431,42.502 24.444,42.522 C24.551,42.682 24.648,42.845 24.738,43.012 C24.819,43.162 24.891,43.316 24.958,43.471 C25.118,43.841 25.24,44.223 25.32,44.615 C24.982,45.248 24.741,45.936 24.622,46.662 C24.506,47.369 24.51,48.076 24.618,48.764 C23.571,50.54 21.637,51.708 19.478,51.708 Z M26.405,51.184 C25.896,50.482 25.562,49.694 25.399,48.87 C25.359,48.661 25.33,48.452 25.312,48.24 C25.271,47.759 25.282,47.272 25.362,46.784 C25.442,46.296 25.601,45.836 25.793,45.394 C25.886,45.179 25.985,44.968 26.103,44.767 C26.324,44.389 26.576,44.031 26.879,43.709 C27.018,43.562 27.185,43.44 27.339,43.307 C27.484,43.181 27.614,43.043 27.772,42.931 C27.815,42.9 27.862,42.879 27.906,42.85 C28.575,42.398 29.316,42.095 30.097,41.943 C30.339,41.896 30.585,41.867 30.834,41.85 C30.838,41.85 30.842,41.85 30.847,41.849 C30.968,41.841 31.088,41.822 31.211,41.822 C31.223,41.822 31.235,41.819 31.247,41.819 C31.308,41.819 31.366,41.827 31.426,41.829 C31.483,41.831 31.541,41.836 31.598,41.84 C31.919,41.859 32.237,41.898 32.548,41.967 C32.826,42.029 33.099,42.106 33.363,42.206 C33.83,42.381 34.271,42.617 34.68,42.901 C34.811,42.992 34.938,43.087 35.061,43.188 C35.193,43.297 35.318,43.416 35.442,43.536 C35.679,43.768 35.905,44.013 36.102,44.286 C36.198,44.418 36.284,44.555 36.368,44.694 C36.778,45.369 37.045,46.108 37.158,46.875 C37.163,46.912 37.17,46.951 37.175,46.989 C37.207,47.243 37.217,47.5 37.216,47.757 C37.214,48.064 37.195,48.374 37.144,48.683 C37.105,48.92 37.027,49.141 36.961,49.368 C36.891,49.611 36.812,49.848 36.711,50.078 C36.437,50.71 36.069,51.294 35.591,51.794 C35.479,51.911 35.344,52.008 35.222,52.116 C35.1,52.223 34.984,52.338 34.852,52.437 C34.811,52.469 34.778,52.508 34.735,52.538 C34.473,52.725 34.198,52.888 33.914,53.028 C33.8,53.086 33.678,53.124 33.561,53.173 C33.443,53.222 33.328,53.275 33.208,53.317 C32.585,53.532 31.93,53.651 31.257,53.651 C29.336,53.651 27.523,52.729 26.405,51.184 Z M34.31,54.941 L34.068,53.774 C34.373,53.633 34.667,53.469 34.951,53.283 C35.02,53.367 35.121,53.425 35.238,53.425 C35.24,53.425 35.243,53.425 35.245,53.425 L42.368,53.299 L34.31,54.941 Z M54.256,52.98 L52.119,52.752 L49.952,52.52 L49.109,52.429 L48.719,52.388 L47.487,52.257 L44.557,51.943 L42.094,51.68 L41.961,51.666 L40.63,51.524 L39.213,51.371 L38.371,51.282 L38.702,48.23 L38.788,47.434 L39.669,39.327 L39.754,38.536 L39.861,37.555 L40.889,28.093 L40.971,27.333 L41.834,19.382 L41.915,18.64 L42.407,14.106 L42.413,14.05 L42.448,13.731 L42.489,13.355 L42.498,13.268 L42.52,13.066 L43.157,13.134 L44.389,13.265 L44.442,13.272 L44.833,13.313 L47.844,13.635 L50.856,13.957 L52.917,14.177 L53.293,14.217 L53.668,14.257 L60.418,14.979 L58.175,35.631 L56.991,36.929 C56.957,36.891 56.928,36.849 56.881,36.827 C56.736,36.759 56.564,36.79 56.452,36.906 C55.827,37.552 55.023,38.083 54.106,38.482 C53.985,38.535 53.857,38.576 53.733,38.624 C53.61,38.671 53.486,38.717 53.36,38.76 C53.068,38.858 52.767,38.942 52.459,39.015 C52.213,39.073 51.965,39.123 51.711,39.163 C51.223,39.243 50.723,39.288 50.214,39.302 C50.087,39.305 49.962,39.317 49.834,39.316 C49.705,39.314 49.575,39.299 49.446,39.293 C49.238,39.284 49.029,39.278 48.82,39.258 C48.79,39.255 48.759,39.257 48.729,39.253 C48.653,39.244 48.582,39.228 48.507,39.218 C48.24,39.184 47.976,39.145 47.716,39.094 C47.58,39.067 47.448,39.033 47.315,39.002 C46.811,38.884 46.325,38.732 45.857,38.552 C45.594,38.45 45.339,38.339 45.09,38.219 C44.527,37.948 44.002,37.637 43.529,37.283 C43.515,37.272 43.501,37.26 43.487,37.249 C43.37,37.16 43.258,37.069 43.148,36.975 C43.025,36.871 42.904,36.769 42.79,36.66 C42.768,36.639 42.749,36.616 42.727,36.595 C42.325,36.202 41.968,35.783 41.688,35.328 C41.611,35.206 41.472,35.148 41.328,35.163 C41.313,35.165 41.301,35.157 41.286,35.16 C41.13,35.195 41.014,35.326 40.996,35.485 L40.98,35.627 L39.842,46.108 C39.832,46.208 39.861,46.307 39.923,46.385 C39.986,46.462 40.077,46.511 40.176,46.522 C41.162,46.627 42.046,47.108 42.665,47.876 C43.275,48.635 43.554,49.585 43.449,50.551 C43.438,50.65 43.467,50.749 43.53,50.827 C43.55,50.852 43.576,50.868 43.602,50.887 C43.655,50.926 43.715,50.957 43.782,50.965 L44.979,51.093 L46.8,51.286 L48.468,51.465 L50.371,51.669 L51.047,51.741 C51.061,51.742 51.075,51.743 51.088,51.743 C51.26,51.743 51.397,51.617 51.438,51.451 C51.442,51.434 51.458,51.425 51.46,51.408 C51.5,51.046 51.607,50.709 51.743,50.387 C51.822,50.203 51.911,50.026 52.017,49.859 C52.073,49.77 52.133,49.682 52.197,49.598 L52.38,49.761 L53.163,50.465 L53.163,50.466 L53.164,50.466 L53.578,50.838 L54.341,51.523 L56.193,53.187 L54.256,52.98 Z M58.179,53.961 L57.05,52.947 L56.706,52.639 L56.362,52.329 L54.322,50.498 L53.948,50.161 L56.955,46.865 L57.384,46.396 L57.812,45.925 L69.271,33.363 L73.508,37.166 C74.164,37.754 74.549,38.564 74.593,39.445 C74.637,40.327 74.335,41.17 73.743,41.819 L62.878,53.728 C61.701,55.018 59.482,55.131 58.179,53.961 Z M74.009,36.608 L67.835,31.066 C67.604,30.858 67.345,30.69 67.076,30.542 C67.063,30.527 67.067,30.504 67.052,30.491 C66.974,30.42 66.874,30.389 66.776,30.396 C66.254,30.161 65.69,30.025 65.104,30.025 C63.951,30.025 62.849,30.509 62.08,31.35 L59.032,34.692 L61.204,14.686 C61.215,14.587 61.186,14.489 61.123,14.411 C61.061,14.333 60.97,14.283 60.871,14.273 L53.648,13.501 C53.628,13.312 53.474,13.163 53.28,13.163 C53.278,13.163 53.276,13.163 53.273,13.163 L50.889,13.205 L42.228,12.281 C42.015,12.257 41.837,12.407 41.815,12.613 L41.732,13.368 L34.525,13.495 C34.426,13.498 34.332,13.538 34.262,13.611 C34.193,13.682 34.155,13.778 34.157,13.878 L34.177,14.964 L25.997,16.63 C25.899,16.65 25.813,16.708 25.759,16.791 C25.704,16.874 25.685,16.975 25.705,17.073 L28.508,30.616 C27.942,30.465 27.355,30.383 26.758,30.383 C24.861,30.383 23.043,31.184 21.772,32.582 C20.57,33.903 19.958,35.609 20.049,37.387 C20.081,38.012 20.203,38.619 20.4,39.196 C20.089,39.153 19.777,39.124 19.466,39.124 C16.272,39.124 13.503,41.382 12.882,44.493 C12.534,46.232 12.886,48.003 13.873,49.478 C14.871,50.969 16.394,51.982 18.164,52.33 C18.598,52.415 19.04,52.458 19.478,52.458 C21.653,52.458 23.612,51.394 24.849,49.739 C25.061,50.405 25.376,51.041 25.798,51.624 C27.056,53.363 29.097,54.401 31.257,54.401 C31.98,54.401 32.688,54.283 33.362,54.062 L33.651,55.46 C33.688,55.636 33.844,55.758 34.018,55.758 C34.043,55.758 34.068,55.756 34.093,55.751 L46.484,53.226 L49.074,53.18 L56.561,53.98 C56.574,53.982 56.588,53.982 56.601,53.982 C56.726,53.982 56.82,53.908 56.889,53.812 L57.678,54.52 C58.425,55.19 59.395,55.56 60.408,55.56 C61.562,55.56 62.664,55.076 63.432,54.233 L74.296,42.324 C75.025,41.527 75.396,40.491 75.342,39.408 C75.288,38.325 74.815,37.33 74.009,36.608 Z" id="Fill-35"></path>
            <path d="M69.322,39.714 L70.038,38.928 C70.353,38.584 70.79,38.377 71.207,38.377 C71.48,38.377 71.72,38.464 71.902,38.627 C72.151,38.85 72.215,39.142 72.226,39.348 C72.245,39.744 72.085,40.161 71.785,40.489 L71.069,41.274 C70.547,41.844 69.665,41.989 69.204,41.576 C68.956,41.353 68.892,41.061 68.881,40.856 C68.861,40.46 69.022,40.043 69.322,39.714 Z M69.899,42.575 C70.533,42.575 71.161,42.285 71.623,41.779 L72.339,40.995 C72.772,40.52 73.004,39.906 72.975,39.312 C72.95,38.819 72.747,38.378 72.403,38.069 C71.638,37.382 70.281,37.55 69.483,38.423 L68.768,39.208 C68.334,39.684 68.102,40.299 68.132,40.894 C68.157,41.385 68.359,41.825 68.703,42.134 C69.025,42.423 69.438,42.575 69.899,42.575 Z" id="Fill-36"></path>
            <path d="M67.34,45.153 C67.412,45.216 67.501,45.248 67.59,45.248 C67.693,45.248 67.795,45.206 67.87,45.124 C68.008,44.969 67.995,44.733 67.841,44.595 L67.116,43.945 C66.963,43.806 66.726,43.819 66.586,43.972 C66.448,44.127 66.461,44.363 66.615,44.502 L67.34,45.153" id="Fill-37"></path>
            <path d="M66.426,46.154 C66.498,46.218 66.587,46.25 66.677,46.25 C66.779,46.25 66.882,46.208 66.956,46.125 C67.094,45.971 67.081,45.734 66.927,45.595 L66.202,44.945 C66.048,44.807 65.811,44.82 65.672,44.974 C65.534,45.128 65.547,45.365 65.701,45.504 L66.426,46.154" id="Fill-38"></path>
            <path d="M65.512,47.156 C65.584,47.22 65.673,47.252 65.763,47.252 C65.865,47.252 65.968,47.21 66.042,47.128 C66.18,46.973 66.168,46.737 66.013,46.597 L65.289,45.947 C65.135,45.81 64.898,45.821 64.759,45.975 C64.621,46.131 64.633,46.367 64.788,46.506 L65.512,47.156" id="Fill-39"></path>
            <path d="M64.598,48.157 C64.67,48.221 64.759,48.253 64.849,48.253 C64.951,48.253 65.054,48.211 65.128,48.129 C65.266,47.974 65.253,47.737 65.099,47.598 L64.374,46.949 C64.22,46.811 63.983,46.823 63.844,46.978 C63.706,47.132 63.719,47.369 63.873,47.507 L64.598,48.157" id="Fill-40"></path>
            <path d="M62.994,49.916 C63.065,49.98 63.155,50.011 63.244,50.011 C63.347,50.011 63.449,49.969 63.523,49.887 C63.662,49.733 63.649,49.495 63.495,49.357 L62.77,48.707 C62.616,48.569 62.379,48.582 62.24,48.736 C62.102,48.89 62.115,49.127 62.269,49.265 L62.994,49.916" id="Fill-41"></path>
            <path d="M61.856,49.709 C61.702,49.57 61.465,49.584 61.327,49.737 C61.188,49.891 61.201,50.129 61.355,50.266 L62.08,50.918 C62.151,50.982 62.241,51.014 62.33,51.014 C62.433,51.014 62.535,50.972 62.609,50.889 C62.748,50.736 62.735,50.498 62.581,50.361 L61.856,49.709" id="Fill-42"></path>
            <path d="M60.941,50.711 C60.788,50.573 60.551,50.585 60.412,50.739 C60.273,50.894 60.287,51.131 60.44,51.27 L61.166,51.92 C61.238,51.985 61.328,52.015 61.417,52.015 C61.52,52.015 61.622,51.973 61.696,51.891 C61.835,51.737 61.821,51.5 61.668,51.361 L60.941,50.711" id="Fill-43"></path>
            <path d="M60.029,51.713 C59.877,51.575 59.639,51.587 59.5,51.741 C59.361,51.896 59.374,52.133 59.528,52.271 L60.252,52.921 C60.323,52.986 60.413,53.017 60.502,53.017 C60.605,53.017 60.707,52.975 60.781,52.894 C60.92,52.739 60.907,52.502 60.753,52.364 L60.029,51.713" id="Fill-44"></path>
            <path d="M25.45,37.94 L27.869,36.449 C28.089,36.314 28.359,36.27 28.611,36.327 C28.867,36.387 29.084,36.542 29.222,36.763 C29.359,36.982 29.402,37.24 29.344,37.491 C29.285,37.744 29.129,37.959 28.907,38.096 L28.289,38.477 C28.286,38.478 28.283,38.478 28.28,38.48 C28.278,38.481 28.276,38.485 28.274,38.486 L27.018,39.26 C27.015,39.261 27.012,39.261 27.009,39.263 C27.007,39.264 27.006,39.266 27.003,39.268 L26.482,39.589 L25.45,37.94 Z M24.02,35.655 L25.811,34.551 C25.813,34.55 25.816,34.55 25.818,34.549 C25.821,34.547 25.823,34.544 25.826,34.542 L25.891,34.502 C26.112,34.367 26.383,34.322 26.634,34.381 C26.889,34.44 27.105,34.594 27.244,34.816 C27.381,35.035 27.424,35.293 27.365,35.544 C27.306,35.796 27.151,36.009 26.929,36.146 L25.051,37.303 L24.02,35.655 Z M22.987,36.292 L23.079,36.235 L23.381,36.049 L24.047,37.113 L24.501,37.837 C24.497,37.911 24.507,37.986 24.549,38.053 C24.591,38.123 24.655,38.166 24.725,38.195 L25.252,39.036 L25.844,39.982 L25.549,40.163 L25.452,40.223 C25.276,40.332 25.221,40.564 25.33,40.739 C25.4,40.854 25.523,40.918 25.649,40.918 C25.716,40.918 25.784,40.9 25.846,40.862 L27.09,40.096 L27.646,40.984 C27.718,41.097 27.84,41.159 27.965,41.159 C28.033,41.159 28.102,41.14 28.164,41.102 C28.339,40.992 28.392,40.761 28.282,40.585 L27.729,39.702 L28.359,39.314 L28.914,40.201 C28.985,40.316 29.107,40.378 29.232,40.378 C29.3,40.378 29.369,40.359 29.431,40.321 C29.606,40.211 29.66,39.98 29.55,39.804 L28.998,38.921 L29.3,38.735 C29.635,38.529 29.876,38.22 30.008,37.858 C30.031,37.794 30.059,37.73 30.074,37.662 C30.179,37.216 30.102,36.755 29.858,36.365 C29.795,36.264 29.722,36.172 29.641,36.087 C29.411,35.845 29.115,35.675 28.781,35.597 C28.559,35.546 28.333,35.538 28.114,35.574 C28.174,35.173 28.098,34.766 27.879,34.418 C27.636,34.027 27.253,33.754 26.803,33.65 C26.447,33.568 26.084,33.602 25.753,33.738 L25.184,32.827 C25.075,32.651 24.844,32.597 24.668,32.708 C24.492,32.817 24.439,33.049 24.548,33.223 L25.101,34.108 L24.47,34.496 L23.915,33.608 C23.805,33.432 23.573,33.379 23.398,33.489 C23.222,33.598 23.169,33.83 23.279,34.006 L23.832,34.89 L23.306,35.215 C23.304,35.215 23.303,35.215 23.302,35.216 C23.301,35.217 23.3,35.217 23.299,35.218 L22.593,35.653 C22.417,35.762 22.362,35.993 22.471,36.169 C22.579,36.345 22.809,36.401 22.987,36.292 Z" id="Fill-45"></path>
            <path d="M18.807,47.219 L20.114,44.71 C20.232,44.483 20.44,44.308 20.686,44.23 C20.934,44.153 21.207,44.176 21.437,44.293 C21.669,44.412 21.841,44.615 21.92,44.862 C21.998,45.107 21.975,45.368 21.856,45.596 L20.833,47.562 C20.833,47.564 20.833,47.564 20.832,47.564 C20.832,47.565 20.832,47.566 20.831,47.567 L20.548,48.111 L18.807,47.219 Z M16.399,45.986 L17.41,44.045 C17.53,43.814 17.734,43.644 17.983,43.565 C18.232,43.486 18.499,43.508 18.732,43.628 C18.965,43.748 19.137,43.949 19.215,44.197 C19.294,44.441 19.271,44.702 19.153,44.931 L18.139,46.878 L16.399,45.986 Z M23.293,46.735 L22.359,46.255 L22.522,45.943 C22.733,45.536 22.773,45.071 22.634,44.635 C22.495,44.195 22.19,43.838 21.779,43.626 C21.369,43.416 20.9,43.377 20.46,43.515 C20.242,43.585 20.044,43.695 19.873,43.836 C19.717,43.46 19.443,43.149 19.075,42.961 C18.665,42.75 18.196,42.711 17.756,42.85 C17.409,42.96 17.115,43.174 16.9,43.46 L15.938,42.965 C15.754,42.87 15.527,42.944 15.433,43.128 C15.338,43.312 15.411,43.537 15.595,43.633 L16.529,44.113 L16.19,44.763 L15.251,44.283 C15.065,44.188 14.84,44.263 14.746,44.446 C14.652,44.631 14.725,44.856 14.909,44.951 L15.844,45.429 L15.562,45.971 C15.56,45.973 15.558,45.974 15.557,45.976 C15.556,45.978 15.557,45.98 15.556,45.983 L15.175,46.713 C15.08,46.896 15.151,47.122 15.334,47.218 C15.521,47.314 15.745,47.242 15.84,47.058 L15.89,46.963 L16.053,46.651 L17.17,47.223 L17.94,47.618 C17.974,47.683 18.022,47.743 18.092,47.779 C18.148,47.807 18.207,47.822 18.265,47.822 C18.282,47.822 18.296,47.811 18.312,47.808 L19.217,48.272 L20.202,48.777 L20.045,49.077 L19.993,49.177 C19.898,49.362 19.969,49.588 20.153,49.683 C20.208,49.712 20.267,49.725 20.325,49.725 C20.461,49.725 20.591,49.653 20.658,49.524 L21.327,48.238 L22.267,48.718 C22.321,48.745 22.379,48.759 22.437,48.759 C22.573,48.759 22.705,48.684 22.771,48.555 C22.865,48.37 22.792,48.144 22.607,48.05 L21.674,47.573 L22.013,46.921 L22.95,47.403 C23.005,47.431 23.064,47.444 23.121,47.444 C23.257,47.444 23.389,47.369 23.455,47.24 C23.55,47.056 23.477,46.83 23.293,46.735 Z" id="Fill-46"></path>
            <path d="M29.783,48.331 L32.013,47.544 L32.37,47.418 L32.468,47.383 C32.557,47.352 32.648,47.35 32.737,47.345 C33.162,47.32 33.571,47.555 33.721,47.973 C33.808,48.216 33.795,48.479 33.683,48.712 C33.573,48.942 33.371,49.123 33.128,49.209 L33.124,49.21 L32.767,49.336 L32.41,49.462 L31.03,49.949 C31.029,49.95 31.028,49.949 31.027,49.95 C31.026,49.951 31.025,49.951 31.024,49.951 L30.439,50.158 L29.783,48.331 Z M30.865,45.095 C30.866,45.095 30.867,45.095 30.869,45.095 C30.87,45.094 30.87,45.093 30.871,45.093 L30.953,45.064 C31.128,45.003 31.315,45.011 31.497,45.051 C31.566,45.067 31.639,45.072 31.704,45.103 C31.789,45.142 31.855,45.204 31.924,45.264 C32.046,45.371 32.149,45.498 32.206,45.654 C32.292,45.896 32.279,46.157 32.169,46.389 C32.166,46.394 32.162,46.397 32.159,46.402 C32.088,46.546 31.977,46.657 31.848,46.749 C31.774,46.803 31.701,46.858 31.612,46.889 L29.53,47.624 L28.875,45.798 L30.865,45.095 Z M33.393,51.015 L33.042,50.035 L33.277,49.951 L33.377,49.916 C33.656,49.818 33.898,49.642 34.092,49.424 C34.196,49.307 34.291,49.179 34.36,49.035 C34.559,48.62 34.583,48.153 34.426,47.719 C34.266,47.272 33.937,46.932 33.537,46.743 C33.336,46.649 33.118,46.593 32.894,46.58 C33.038,46.2 33.05,45.788 32.912,45.401 C32.773,45.014 32.501,44.703 32.148,44.498 C32.106,44.474 32.068,44.445 32.023,44.424 C31.928,44.379 31.828,44.345 31.728,44.319 C31.598,44.284 31.466,44.265 31.333,44.261 C31.215,44.258 31.097,44.268 30.98,44.288 L30.619,43.278 C30.549,43.082 30.333,42.981 30.14,43.051 C29.945,43.12 29.843,43.335 29.913,43.53 L30.263,44.512 L29.563,44.759 L29.21,43.775 C29.14,43.581 28.925,43.48 28.73,43.549 C28.535,43.619 28.434,43.834 28.504,44.029 L28.856,45.009 L27.482,45.494 C27.287,45.563 27.185,45.777 27.253,45.972 C27.322,46.168 27.535,46.27 27.732,46.201 L27.834,46.165 L28.167,46.047 L28.879,48.031 C28.86,48.102 28.854,48.177 28.881,48.252 C28.908,48.329 28.96,48.391 29.024,48.436 L29.359,49.368 L29.731,50.408 L29.408,50.522 L29.3,50.56 C29.105,50.629 29.002,50.843 29.071,51.038 C29.125,51.193 29.271,51.288 29.425,51.288 C29.466,51.288 29.508,51.282 29.55,51.267 L30.927,50.781 L31.28,51.765 C31.335,51.919 31.479,52.014 31.633,52.014 C31.675,52.014 31.718,52.007 31.759,51.992 C31.955,51.922 32.056,51.708 31.986,51.512 L31.634,50.531 L32.334,50.284 L32.687,51.269 C32.713,51.342 32.762,51.4 32.82,51.443 C32.884,51.489 32.959,51.517 33.04,51.517 C33.082,51.517 33.124,51.511 33.166,51.495 C33.182,51.489 33.193,51.478 33.208,51.47 C33.372,51.385 33.457,51.194 33.393,51.015 Z" id="Fill-47"></path>
            <path d="M0.587,58.073 L85.551,58.073 C85.758,58.073 85.926,57.906 85.926,57.699 C85.926,57.491 85.758,57.323 85.551,57.323 L0.587,57.323 C0.38,57.323 0.212,57.491 0.212,57.699 C0.212,57.906 0.38,58.073 0.587,58.073" id="Fill-48"></path>
            <path d="M85.551,69.688 L0.587,69.688 C0.38,69.688 0.212,69.856 0.212,70.063 C0.212,70.27 0.38,70.438 0.587,70.438 L85.551,70.438 C85.758,70.438 85.926,70.27 85.926,70.063 C85.926,69.856 85.758,69.688 85.551,69.688" id="Fill-49"></path>
            <polyline id="Fill-50" points="25.362 74.452 24.865 74.452 24.82 74.051 23.12 74.051 23.12 74.822 24.541 74.822 24.541 75.363 23.12 75.363 23.12 76.315 24.865 76.315 24.911 75.914 25.407 75.914 25.407 76.856 22.227 76.856 22.227 76.315 22.579 76.315 22.579 74.051 22.227 74.051 22.227 73.509 25.362 73.509 25.362 74.452"></polyline>
            <path d="M28.763,73.469 C28.931,73.469 29.082,73.475 29.214,73.487 C29.346,73.499 29.471,73.517 29.588,73.541 C29.706,73.565 29.82,73.597 29.931,73.636 C30.042,73.675 30.161,73.721 30.288,73.776 L30.288,74.452 L29.792,74.452 L29.769,74.182 C29.654,74.131 29.514,74.089 29.347,74.058 C29.18,74.026 28.973,74.01 28.727,74.01 C28.543,74.01 28.39,74.022 28.267,74.046 C28.143,74.07 28.045,74.1 27.971,74.136 C27.897,74.173 27.845,74.213 27.814,74.258 C27.782,74.303 27.766,74.347 27.766,74.389 C27.766,74.434 27.776,74.476 27.795,74.513 C27.815,74.551 27.858,74.585 27.926,74.617 C27.994,74.648 28.091,74.676 28.219,74.7 C28.347,74.724 28.519,74.744 28.736,74.759 C29.042,74.78 29.302,74.814 29.514,74.86 C29.726,74.907 29.898,74.972 30.03,75.054 C30.163,75.137 30.259,75.239 30.319,75.361 C30.379,75.483 30.409,75.628 30.409,75.796 C30.409,75.944 30.37,76.084 30.292,76.216 C30.214,76.348 30.101,76.464 29.954,76.563 C29.806,76.663 29.626,76.741 29.413,76.8 C29.199,76.859 28.955,76.888 28.682,76.888 C28.492,76.888 28.312,76.868 28.143,76.829 C27.973,76.79 27.815,76.741 27.671,76.68 C27.527,76.62 27.398,76.553 27.286,76.48 C27.173,76.406 27.081,76.333 27.008,76.261 L27.365,75.864 C27.449,75.93 27.538,75.993 27.631,76.051 C27.724,76.11 27.825,76.161 27.933,76.205 C28.041,76.248 28.158,76.283 28.282,76.308 C28.407,76.334 28.54,76.347 28.682,76.347 C28.892,76.347 29.072,76.33 29.221,76.297 C29.37,76.264 29.491,76.221 29.584,76.168 C29.677,76.116 29.746,76.057 29.789,75.99 C29.833,75.924 29.855,75.86 29.855,75.796 C29.855,75.733 29.838,75.675 29.805,75.623 C29.771,75.57 29.713,75.523 29.629,75.483 C29.544,75.442 29.43,75.408 29.286,75.381 C29.142,75.354 28.958,75.332 28.736,75.314 C28.429,75.29 28.175,75.255 27.974,75.21 C27.772,75.165 27.611,75.105 27.491,75.03 C27.371,74.954 27.286,74.865 27.238,74.761 C27.19,74.657 27.166,74.535 27.166,74.394 C27.166,74.255 27.202,74.129 27.274,74.015 C27.347,73.9 27.45,73.803 27.585,73.721 C27.721,73.64 27.888,73.578 28.086,73.534 C28.285,73.491 28.51,73.469 28.763,73.469" id="Fill-51"></path>
            <polyline id="Fill-52" points="32.357 74.452 31.861 74.452 31.861 73.509 35.493 73.509 35.493 74.452 34.997 74.452 34.951 74.051 33.945 74.051 33.945 76.315 34.302 76.315 34.302 76.856 33.048 76.856 33.048 76.315 33.404 76.315 33.404 74.051 32.403 74.051 32.357 74.452"></polyline>
            <path d="M39.092,76.315 C39.252,76.315 39.401,76.286 39.541,76.227 C39.681,76.168 39.803,76.088 39.906,75.986 C40.01,75.884 40.092,75.763 40.152,75.625 C40.212,75.487 40.242,75.338 40.242,75.178 C40.242,75.022 40.212,74.875 40.152,74.736 C40.092,74.598 40.01,74.479 39.906,74.378 C39.803,74.277 39.681,74.197 39.541,74.139 C39.401,74.08 39.252,74.051 39.092,74.051 L38.005,74.051 L38.005,76.315 L39.092,76.315 Z M37.112,73.509 L39.092,73.509 C39.317,73.509 39.532,73.551 39.735,73.634 C39.938,73.716 40.118,73.832 40.274,73.981 C40.43,74.13 40.554,74.306 40.646,74.511 C40.738,74.715 40.784,74.938 40.784,75.178 C40.784,75.404 40.741,75.618 40.655,75.821 C40.569,76.024 40.451,76.202 40.301,76.356 C40.15,76.509 39.972,76.631 39.767,76.721 C39.561,76.811 39.335,76.856 39.092,76.856 L37.112,76.856 L37.112,76.315 L37.464,76.315 L37.464,74.051 L37.112,74.051 L37.112,73.509 Z" id="Fill-53"></path>
            <path d="M48.438,76.856 L45.348,76.856 L45.348,76.315 C45.348,76.162 45.377,76.02 45.434,75.889 C45.491,75.758 45.582,75.635 45.707,75.521 C45.832,75.407 45.99,75.299 46.183,75.199 C46.375,75.098 46.607,75.002 46.877,74.912 C47.091,74.84 47.258,74.784 47.378,74.743 C47.499,74.703 47.588,74.666 47.647,74.633 C47.705,74.6 47.74,74.567 47.752,74.533 C47.765,74.5 47.771,74.457 47.771,74.402 C47.771,74.327 47.749,74.266 47.705,74.218 C47.662,74.17 47.602,74.133 47.525,74.109 C47.448,74.085 47.359,74.069 47.258,74.06 C47.158,74.051 47.049,74.046 46.932,74.046 C46.808,74.046 46.686,74.059 46.564,74.085 C46.442,74.11 46.326,74.145 46.217,74.191 C46.107,74.236 46.007,74.289 45.919,74.351 C45.83,74.412 45.759,74.479 45.705,74.551 L45.303,74.186 C45.387,74.081 45.492,73.986 45.617,73.902 C45.741,73.818 45.876,73.746 46.021,73.688 C46.165,73.629 46.315,73.584 46.471,73.552 C46.628,73.521 46.781,73.505 46.932,73.505 C47.139,73.505 47.332,73.519 47.509,73.548 C47.687,73.576 47.84,73.626 47.969,73.697 C48.098,73.767 48.199,73.86 48.271,73.976 C48.343,74.092 48.379,74.236 48.379,74.407 C48.379,74.549 48.348,74.666 48.285,74.761 C48.222,74.856 48.134,74.939 48.023,75.011 C47.912,75.084 47.778,75.149 47.622,75.208 C47.465,75.266 47.295,75.327 47.112,75.39 C46.875,75.475 46.677,75.559 46.519,75.643 C46.361,75.727 46.235,75.809 46.142,75.889 C46.049,75.968 45.983,76.045 45.946,76.119 C45.908,76.193 45.89,76.258 45.89,76.315 L47.897,76.315 L47.942,75.914 L48.438,75.914 L48.438,76.856" id="Fill-54"></path>
            <path d="M51.812,74.019 C51.626,74.019 51.458,74.048 51.309,74.105 C51.16,74.162 51.034,74.242 50.93,74.344 C50.827,74.446 50.746,74.569 50.689,74.714 C50.632,74.858 50.604,75.016 50.604,75.187 C50.604,75.359 50.632,75.517 50.689,75.661 C50.746,75.805 50.827,75.929 50.93,76.031 C51.034,76.133 51.16,76.213 51.309,76.27 C51.458,76.327 51.626,76.356 51.812,76.356 C52.011,76.356 52.185,76.327 52.335,76.27 C52.486,76.213 52.611,76.133 52.712,76.031 C52.812,75.929 52.89,75.805 52.942,75.661 C52.995,75.517 53.021,75.359 53.021,75.187 C53.021,75.016 52.995,74.858 52.942,74.714 C52.89,74.569 52.812,74.446 52.712,74.344 C52.611,74.242 52.486,74.162 52.335,74.105 C52.185,74.048 52.011,74.019 51.812,74.019 Z M50.048,75.187 C50.048,74.92 50.095,74.68 50.188,74.468 C50.281,74.256 50.408,74.077 50.567,73.931 C50.727,73.785 50.914,73.673 51.129,73.595 C51.344,73.517 51.571,73.478 51.812,73.478 C52.065,73.478 52.298,73.517 52.514,73.595 C52.729,73.673 52.915,73.785 53.073,73.931 C53.231,74.077 53.354,74.256 53.443,74.468 C53.531,74.68 53.576,74.92 53.576,75.187 C53.576,75.446 53.531,75.681 53.443,75.891 C53.354,76.102 53.231,76.281 53.073,76.43 C52.915,76.579 52.729,76.694 52.514,76.775 C52.298,76.856 52.065,76.897 51.812,76.897 C51.571,76.897 51.344,76.857 51.129,76.777 C50.914,76.698 50.727,76.583 50.567,76.435 C50.408,76.286 50.281,76.106 50.188,75.896 C50.095,75.685 50.048,75.449 50.048,75.187 Z" id="Fill-55"></path>
            <polyline id="Fill-56" points="56.558 73.509 56.973 73.509 56.973 76.315 58.005 76.315 58.005 76.856 55.308 76.856 55.308 76.315 56.431 76.315 56.431 74.362 55.597 75.201 55.245 74.845 56.558 73.509"></polyline>
            <path d="M61.194,76.347 C61.321,76.347 61.45,76.333 61.582,76.304 C61.714,76.275 61.834,76.234 61.941,76.18 C62.047,76.126 62.135,76.058 62.203,75.977 C62.27,75.896 62.304,75.802 62.304,75.697 C62.304,75.532 62.21,75.399 62.022,75.298 C61.834,75.197 61.558,75.147 61.194,75.147 C61.044,75.147 60.906,75.161 60.782,75.19 C60.657,75.218 60.544,75.252 60.443,75.291 C60.342,75.33 60.255,75.372 60.182,75.415 C60.108,75.459 60.047,75.496 59.999,75.526 C60.068,75.781 60.201,75.982 60.398,76.128 C60.595,76.274 60.86,76.347 61.194,76.347 Z M61.194,76.888 C60.93,76.888 60.687,76.848 60.466,76.769 C60.245,76.689 60.055,76.575 59.898,76.428 C59.74,76.281 59.616,76.103 59.527,75.893 C59.439,75.684 59.395,75.449 59.395,75.187 C59.395,74.92 59.442,74.681 59.539,74.47 C59.635,74.26 59.765,74.082 59.929,73.938 C60.093,73.794 60.284,73.683 60.502,73.606 C60.72,73.53 60.949,73.491 61.19,73.491 C61.34,73.491 61.477,73.497 61.6,73.507 C61.724,73.518 61.842,73.539 61.956,73.573 C62.071,73.606 62.187,73.653 62.306,73.715 C62.425,73.776 62.555,73.858 62.696,73.96 L62.394,74.371 C62.277,74.296 62.171,74.234 62.079,74.186 C61.985,74.138 61.894,74.101 61.803,74.076 C61.713,74.05 61.62,74.033 61.523,74.024 C61.427,74.015 61.317,74.01 61.194,74.01 C60.852,74.013 60.576,74.102 60.369,74.276 C60.161,74.451 60.03,74.679 59.977,74.962 C60.021,74.935 60.08,74.901 60.152,74.86 C60.225,74.82 60.312,74.781 60.414,74.743 C60.516,74.705 60.632,74.673 60.761,74.646 C60.891,74.619 61.037,74.606 61.199,74.606 C61.421,74.606 61.634,74.625 61.837,74.664 C62.04,74.703 62.218,74.766 62.372,74.851 C62.525,74.937 62.647,75.046 62.739,75.178 C62.831,75.311 62.877,75.469 62.877,75.652 C62.877,75.857 62.828,76.035 62.73,76.189 C62.632,76.342 62.505,76.471 62.347,76.574 C62.189,76.678 62.009,76.757 61.808,76.809 C61.606,76.861 61.402,76.888 61.194,76.888 Z" id="Fill-57"></path>
        </g>
    </g>
</svg>