<?xml version="1.0" encoding="UTF-8"?>
<svg width="74px" height="76px" viewBox="0 0 74 76" version="1.1" xmlns="http://www.w3.org/2000/svg" xmlns:xlink="http://www.w3.org/1999/xlink">
    <!-- Generator: Sketch 49 (51002) - http://www.bohemiancoding.com/sketch -->
    <title>bitcoin-grey-33</title>
    <desc>Created with Sketch.</desc>
    <defs></defs>
    <g id="Page-1" stroke="none" stroke-width="1" fill="none" fill-rule="evenodd">
        <g id="bitcoin-grey-33" fill="#000000">
            <polyline id="Fill-1" points="9.403 51.547 10.1 52.944 7.793 54.938 7.911 55.176 11.463 54.424 11.234 53.966 11.986 53.592 12.851 55.327 12.099 55.701 11.853 55.207 7.44 56.115 6.763 54.755 9.058 52.736 8.942 52.504 5.948 53.12 5.271 51.76 8.652 48.785 8.406 48.29 9.158 47.915 10.022 49.651 9.271 50.025 9.043 49.568 6.304 51.95 6.422 52.188 9.403 51.547"></polyline>
            <polyline id="Fill-2" points="11.279 61.282 10.031 59.78 10.677 59.243 11.03 59.668 13.734 57.424 13.38 56.998 14.026 56.461 15.269 57.958 14.624 58.496 14.271 58.07 11.567 60.315 11.924 60.745 11.279 61.282"></polyline>
            <polyline id="Fill-3" points="16.009 60.897 15.417 60.406 16.35 59.28 20.689 62.876 19.755 64.002 19.162 63.51 19.506 62.986 18.304 61.99 16.062 64.695 16.487 65.048 15.951 65.694 14.452 64.453 14.988 63.806 15.415 64.159 17.657 61.454 16.461 60.462 16.009 60.897"></polyline>
            <polyline id="Fill-4" points="23.49 65.359 22.99 65.123 22.479 66.205 25.042 67.416 25.554 66.334 25.054 66.098 25.412 65.338 27.172 66.17 26.813 66.929 26.313 66.693 24.812 69.87 25.312 70.107 24.953 70.866 23.193 70.035 23.553 69.275 24.052 69.511 24.683 68.176 22.12 66.965 21.489 68.3 21.995 68.54 21.637 69.299 19.877 68.467 20.236 67.708 20.729 67.941 22.23 64.764 21.737 64.531 22.096 63.771 23.849 64.6 23.49 65.359"></polyline>
            <path d="M36.46,69.215 C36.471,69.052 36.422,68.909 36.314,68.784 C36.205,68.661 36.069,68.593 35.906,68.581 L33.811,68.441 L33.73,69.635 L35.826,69.776 C35.91,69.781 35.989,69.77 36.063,69.743 C36.138,69.715 36.203,69.676 36.261,69.626 C36.318,69.576 36.364,69.517 36.399,69.446 C36.434,69.376 36.455,69.299 36.46,69.215 Z M36.015,70.631 L33.675,70.473 L33.576,71.947 L35.895,72.103 C35.997,72.11 36.094,72.096 36.185,72.063 C36.276,72.029 36.357,71.982 36.429,71.921 C36.501,71.861 36.56,71.786 36.605,71.698 C36.651,71.61 36.678,71.515 36.685,71.412 C36.691,71.314 36.679,71.22 36.647,71.129 C36.616,71.038 36.569,70.958 36.505,70.888 C36.443,70.819 36.369,70.76 36.286,70.716 C36.202,70.67 36.112,70.642 36.015,70.631 Z M35.838,72.941 L32.137,72.692 L32.193,71.854 L32.737,71.891 L32.973,68.385 L32.428,68.348 L32.485,67.51 L35.962,67.743 C36.159,67.757 36.341,67.806 36.511,67.893 C36.68,67.979 36.826,68.092 36.947,68.231 C37.068,68.37 37.161,68.529 37.224,68.709 C37.286,68.888 37.312,69.076 37.298,69.272 C37.287,69.439 37.249,69.597 37.183,69.744 C37.116,69.892 37.033,70.023 36.932,70.138 C37.137,70.287 37.29,70.485 37.394,70.73 C37.496,70.976 37.539,71.221 37.523,71.469 C37.508,71.687 37.452,71.889 37.355,72.075 C37.259,72.26 37.134,72.42 36.98,72.554 C36.826,72.689 36.65,72.791 36.454,72.859 C36.257,72.928 36.052,72.955 35.838,72.941 Z" id="Fill-5"></path>
            <polyline id="Fill-6" points="41.943 72.614 40.003 72.835 39.908 72 40.457 71.938 40.06 68.446 39.51 68.509 39.415 67.674 41.349 67.454 41.443 68.289 40.895 68.352 41.292 71.843 41.848 71.78 41.943 72.614"></polyline>
            <polyline id="Fill-7" points="44.22 68.441 43.484 68.67 43.05 67.273 48.431 65.6 48.865 66.997 48.13 67.225 47.878 66.652 46.388 67.115 47.431 70.47 47.959 70.307 48.209 71.109 46.35 71.686 46.101 70.884 46.629 70.72 45.585 67.364 44.102 67.826 44.22 68.441"></polyline>
            <path d="M52.704,64.14 C52.456,64.288 52.249,64.464 52.085,64.666 C51.92,64.868 51.802,65.083 51.729,65.311 C51.656,65.54 51.634,65.777 51.661,66.021 C51.687,66.266 51.77,66.503 51.906,66.731 C52.043,66.959 52.213,67.143 52.416,67.282 C52.62,67.422 52.839,67.513 53.074,67.557 C53.311,67.601 53.556,67.598 53.812,67.548 C54.067,67.498 54.319,67.399 54.567,67.25 C54.896,67.053 55.149,66.824 55.327,66.563 C55.504,66.301 55.606,66.024 55.632,65.731 L56.458,65.897 C56.397,66.314 56.24,66.704 55.986,67.065 C55.732,67.426 55.404,67.729 54.999,67.971 C54.679,68.163 54.338,68.295 53.977,68.367 C53.614,68.44 53.26,68.446 52.913,68.384 C52.566,68.323 52.241,68.193 51.937,67.994 C51.633,67.796 51.377,67.522 51.168,67.174 C50.954,66.817 50.831,66.457 50.798,66.094 C50.765,65.73 50.805,65.383 50.916,65.051 C51.028,64.721 51.202,64.415 51.438,64.131 C51.674,63.848 51.951,63.611 52.272,63.419 C52.536,63.261 52.776,63.14 52.993,63.056 C53.21,62.973 53.406,62.913 53.584,62.878 C53.762,62.843 53.92,62.825 54.059,62.826 C54.198,62.827 54.323,62.829 54.435,62.833 L54.898,63.608 L54.238,64.004 L54.021,63.71 C53.923,63.709 53.828,63.713 53.735,63.722 C53.642,63.731 53.544,63.751 53.441,63.783 C53.338,63.816 53.228,63.86 53.109,63.917 C52.991,63.975 52.855,64.048 52.704,64.14" id="Fill-8"></path>
            <path d="M57.966,60.03 C57.758,60.231 57.597,60.449 57.482,60.683 C57.369,60.917 57.301,61.153 57.283,61.393 C57.265,61.632 57.296,61.867 57.378,62.099 C57.46,62.332 57.594,62.544 57.779,62.735 C57.964,62.926 58.171,63.066 58.4,63.155 C58.63,63.245 58.865,63.284 59.105,63.273 C59.344,63.263 59.582,63.204 59.82,63.097 C60.058,62.99 60.28,62.836 60.488,62.635 C60.71,62.421 60.878,62.196 60.994,61.96 C61.11,61.724 61.176,61.488 61.191,61.253 C61.206,61.017 61.171,60.785 61.084,60.558 C60.997,60.33 60.86,60.121 60.675,59.93 C60.49,59.739 60.285,59.596 60.062,59.502 C59.836,59.407 59.606,59.364 59.37,59.372 C59.134,59.379 58.896,59.437 58.657,59.546 C58.418,59.655 58.187,59.816 57.966,60.03 Z M57.16,63.333 C56.871,63.035 56.669,62.713 56.554,62.365 C56.439,62.019 56.399,61.672 56.433,61.325 C56.466,60.977 56.565,60.638 56.731,60.31 C56.896,59.98 57.113,59.686 57.381,59.426 C57.663,59.154 57.971,58.94 58.306,58.785 C58.64,58.631 58.979,58.544 59.324,58.525 C59.669,58.505 60.012,58.56 60.352,58.689 C60.691,58.818 61.005,59.033 61.294,59.331 C61.573,59.619 61.771,59.935 61.888,60.276 C62.004,60.618 62.049,60.963 62.022,61.311 C61.995,61.658 61.9,61.999 61.738,62.331 C61.576,62.663 61.354,62.965 61.072,63.238 C60.805,63.498 60.502,63.704 60.167,63.857 C59.83,64.01 59.486,64.096 59.135,64.115 C58.783,64.134 58.437,64.082 58.096,63.958 C57.754,63.833 57.442,63.625 57.16,63.333 Z" id="Fill-9"></path>
            <polyline id="Fill-10" points="65.828 57.381 64.713 58.985 64.023 58.505 64.339 58.051 61.453 56.047 61.138 56.501 60.448 56.022 61.558 54.423 62.248 54.902 61.933 55.356 64.818 57.361 65.138 56.901 65.828 57.381"></polyline>
            <polyline id="Fill-11" points="68.061 53.396 67.271 55.166 66.504 54.824 66.727 54.326 63.517 52.896 63.294 53.395 62.527 53.053 63.385 51.129 68.136 51.16 68.219 50.975 65.009 49.545 64.784 50.051 64.017 49.709 64.809 47.931 65.576 48.273 65.351 48.778 68.561 50.208 68.786 49.702 69.554 50.045 68.696 51.969 63.943 51.937 63.858 52.129 67.068 53.559 67.293 53.053 68.061 53.396"></polyline>
            <polyline id="Fill-12" points="16.409 11.342 15.77 11.771 14.954 10.556 19.632 7.415 20.447 8.629 19.809 9.059 19.403 8.581 18.107 9.451 20.066 12.368 20.525 12.06 20.994 12.757 19.378 13.842 18.91 13.145 19.369 12.837 17.41 9.919 16.119 10.786 16.409 11.342"></polyline>
            <path d="M27.228,6.261 C27.181,6.129 27.111,6.014 27.02,5.915 C26.927,5.817 26.823,5.74 26.707,5.684 C26.591,5.629 26.464,5.597 26.328,5.589 C26.191,5.58 26.057,5.599 25.925,5.646 L24.157,6.273 L24.838,8.193 L26.646,7.552 C26.773,7.507 26.884,7.439 26.979,7.349 C27.073,7.258 27.146,7.154 27.198,7.037 C27.25,6.919 27.28,6.793 27.287,6.66 C27.294,6.526 27.274,6.393 27.228,6.261 Z M26.134,10.192 L24.307,10.84 L24.026,10.049 L24.54,9.866 L23.365,6.554 L22.851,6.737 L22.57,5.946 L25.69,4.838 C25.914,4.758 26.145,4.728 26.381,4.745 C26.618,4.763 26.847,4.824 27.067,4.929 C27.294,5.037 27.488,5.18 27.649,5.357 C27.812,5.535 27.935,5.742 28.02,5.98 C28.104,6.217 28.139,6.458 28.126,6.7 C28.113,6.942 28.053,7.177 27.944,7.403 C27.797,7.713 27.588,7.961 27.317,8.146 L27.521,8.363 C27.742,8.597 27.967,8.673 28.195,8.591 C28.319,8.548 28.416,8.485 28.488,8.402 C28.561,8.32 28.625,8.218 28.682,8.1 L29.38,8.497 C29.275,8.718 29.157,8.9 29.024,9.044 C28.893,9.187 28.709,9.3 28.476,9.383 C28.155,9.497 27.86,9.508 27.589,9.415 C27.319,9.323 27.062,9.149 26.817,8.895 L26.451,8.512 L25.119,8.985 L25.332,9.585 L25.854,9.4 L26.134,10.192 Z" id="Fill-13"></path>
            <path d="M32.996,6.091 L35.094,5.896 L34.306,3.924 L33.414,4.007 L32.996,6.091 Z M37.168,8.031 L35.231,8.211 L35.153,7.374 L35.662,7.327 L35.422,6.709 L32.822,6.95 L32.692,7.602 L33.201,7.555 L33.279,8.391 L31.348,8.57 L31.271,7.734 L31.821,7.683 L32.536,4.088 L32.097,4.129 L32.019,3.292 L34.856,3.029 L36.54,7.245 L37.091,7.194 L37.168,8.031 Z" id="Fill-14"></path>
            <polyline id="Fill-15" points="40.601 3.982 40.094 3.916 40.68 7.536 41.568 7.653 43.051 4.302 42.544 4.236 42.653 3.403 44.582 3.655 44.474 4.488 43.925 4.416 42.078 8.566 39.947 8.288 39.226 3.803 38.678 3.731 38.787 2.899 40.709 3.15 40.601 3.982"></polyline>
            <polyline id="Fill-16" points="51.632 7.608 50.914 7.33 51.074 6.724 48.613 5.77 48.18 6.885 50.236 7.683 49.933 8.466 47.876 7.668 47.343 9.046 49.868 10.025 50.159 9.47 50.877 9.748 50.348 11.112 45.746 9.328 46.05 8.544 46.56 8.742 47.83 5.466 47.321 5.269 47.624 4.485 52.16 6.244 51.632 7.608"></polyline>
            <polyline id="Fill-17" points="56.131 9.513 55.674 9.2 53.69 12.101 56.041 13.709 56.451 13.235 57.086 13.669 56.26 14.877 52.072 12.011 52.546 11.318 52.997 11.627 54.981 8.727 54.53 8.418 55.005 7.724 56.605 8.82 56.131 9.513"></polyline>
            <path d="M12.133,16.325 C9.792,18.981 7.905,21.976 6.508,25.273 L4.715,26.414 C6.181,22.39 8.394,18.708 11.212,15.507 L12.133,16.325 Z M17.528,19.15 C18.211,18.44 18.929,17.77 19.679,17.144 L20.853,18.605 L17.528,19.15 Z M10.421,23.225 C10.367,23.141 10.283,23.083 10.185,23.061 C10.088,23.04 9.987,23.057 9.903,23.111 L7.652,24.545 C8.961,21.723 10.655,19.143 12.698,16.825 L16.252,19.98 C16.254,19.981 16.256,19.98 16.257,19.981 C16.324,20.038 16.409,20.073 16.501,20.073 C16.507,20.073 16.514,20.073 16.521,20.072 C16.523,20.072 16.525,20.072 16.527,20.072 C16.539,20.071 16.55,20.071 16.562,20.069 L16.916,20.011 C15.146,21.963 13.661,24.139 12.522,26.526 L10.421,23.225 Z M13,27.277 C14.263,24.502 15.981,21.995 18.102,19.816 L20.294,19.457 C17.481,21.972 15.257,25.078 13.812,28.55 L13,27.277 Z M56.61,19.15 L53.288,18.605 L54.461,17.144 C55.21,17.771 55.927,18.44 56.61,19.15 Z M60.328,28.549 C58.883,25.077 56.659,21.972 53.847,19.457 L56.039,19.817 C58.16,21.994 59.877,24.5 61.14,27.274 L60.328,28.549 Z M64.236,23.111 C64.151,23.057 64.049,23.04 63.953,23.061 C63.856,23.083 63.771,23.141 63.718,23.225 L61.618,26.524 C60.48,24.137 58.995,21.963 57.225,20.011 L57.577,20.069 C57.597,20.072 57.617,20.073 57.637,20.073 L57.638,20.073 C57.729,20.073 57.815,20.038 57.881,19.981 C57.882,19.98 57.885,19.981 57.886,19.98 L61.442,16.824 C63.486,19.144 65.18,21.723 66.49,24.546 L64.236,23.111 Z M67.634,25.275 C66.236,21.976 64.348,18.98 62.006,16.324 L62.927,15.507 C65.746,18.708 67.96,22.39 69.426,26.416 L67.634,25.275 Z M37.069,0.821 C47.549,0.821 57.556,5.266 64.587,13.031 L62.994,14.445 L62.715,14.693 L62.434,14.941 L61.498,15.772 L61.215,16.023 L60.94,16.266 L57.667,19.171 C56.812,18.233 55.893,17.367 54.929,16.562 C54.833,16.482 54.739,16.399 54.642,16.321 C54.545,16.241 54.448,16.161 54.35,16.085 C49.464,12.223 43.381,10.07 37.069,10.07 C30.757,10.07 24.675,12.223 19.79,16.084 C19.692,16.161 19.595,16.24 19.498,16.319 C19.401,16.398 19.307,16.481 19.211,16.561 C18.247,17.366 17.328,18.232 16.472,19.171 L13.2,16.267 L12.924,16.024 L12.642,15.773 L11.145,14.446 L9.552,13.031 C16.583,5.266 26.59,0.821 37.069,0.821 Z M4.209,27.626 L7.008,25.843 C7.008,25.843 7.009,25.843 7.01,25.843 L9.99,23.945 L12.258,27.509 C12.259,27.509 12.259,27.509 12.259,27.51 L13.572,29.57 C13.642,29.679 13.761,29.744 13.889,29.744 C13.901,29.744 13.914,29.743 13.927,29.742 C14.067,29.728 14.188,29.635 14.239,29.503 C15.783,25.463 18.391,21.887 21.782,19.163 C21.797,19.153 21.804,19.136 21.816,19.122 C21.832,19.106 21.848,19.09 21.86,19.07 C21.875,19.048 21.884,19.023 21.894,18.998 C21.901,18.978 21.908,18.96 21.912,18.94 C21.917,18.911 21.917,18.881 21.915,18.852 C21.915,18.838 21.918,18.824 21.917,18.811 C21.916,18.805 21.912,18.8 21.91,18.794 C21.904,18.765 21.892,18.74 21.88,18.715 C21.872,18.695 21.864,18.675 21.851,18.657 C21.846,18.651 21.845,18.642 21.84,18.636 L20.262,16.672 C25.016,12.917 30.93,10.82 37.069,10.82 C43.21,10.82 49.124,12.917 53.877,16.673 L52.301,18.636 C52.297,18.641 52.296,18.648 52.292,18.654 C52.276,18.676 52.265,18.701 52.254,18.725 C52.246,18.745 52.237,18.764 52.231,18.786 C52.229,18.795 52.224,18.802 52.222,18.811 C52.219,18.832 52.224,18.85 52.224,18.87 C52.224,18.885 52.219,18.898 52.221,18.912 C52.221,18.919 52.226,18.924 52.227,18.931 C52.231,18.96 52.242,18.987 52.252,19.014 C52.26,19.032 52.267,19.05 52.277,19.066 C52.292,19.09 52.311,19.111 52.331,19.131 C52.341,19.141 52.347,19.155 52.358,19.163 C55.749,21.887 58.357,25.461 59.901,29.501 C59.952,29.633 60.073,29.725 60.214,29.74 C60.226,29.741 60.239,29.742 60.252,29.742 C60.379,29.742 60.499,29.677 60.568,29.569 L61.882,27.506 C61.882,27.505 61.882,27.505 61.883,27.504 L64.149,23.945 L67.132,25.844 C67.132,25.845 67.133,25.845 67.133,25.845 L69.932,27.628 C69.997,27.668 70.077,27.688 70.143,27.686 C70.385,27.693 70.527,27.521 70.527,27.311 C70.527,27.228 70.501,27.153 70.455,27.09 C68.965,22.613 66.584,18.527 63.486,15.011 L65.367,13.343 C65.441,13.277 65.486,13.183 65.492,13.084 C65.498,12.985 65.464,12.887 65.398,12.813 C58.213,4.715 47.888,0.071 37.069,0.071 C26.25,0.071 15.925,4.715 8.741,12.813 C8.674,12.887 8.641,12.985 8.647,13.084 C8.653,13.183 8.698,13.277 8.772,13.343 L10.654,15.012 C7.533,18.555 5.139,22.676 3.652,27.193 C3.602,27.343 3.652,27.509 3.778,27.606 C3.903,27.702 4.075,27.711 4.209,27.626 Z" id="Fill-18"></path>
            <path d="M62.978,45.429 C63.025,45.432 63.069,45.429 63.113,45.417 C62.835,46.394 62.521,47.351 62.144,48.275 L60.655,47.653 L62.978,45.429 Z M69.576,44.963 C70.031,42.759 70.264,40.507 70.264,38.228 C70.264,37.042 70.194,35.812 70.058,34.568 L71.1,32.931 C71.374,34.703 71.514,36.48 71.514,38.228 C71.514,40.605 71.267,42.947 70.791,45.239 L69.576,44.963 Z M67.626,38.388 L69.403,35.596 C69.477,36.489 69.514,37.37 69.514,38.228 C69.514,40.451 69.263,42.641 68.82,44.792 L63.956,43.686 C63.937,43.682 63.918,43.686 63.898,43.684 C63.887,43.683 63.876,43.683 63.864,43.683 C63.807,43.686 63.752,43.697 63.701,43.724 C64.07,41.926 64.264,40.084 64.264,38.228 C64.264,37.722 64.248,37.203 64.214,36.659 L67.108,38.503 C67.192,38.556 67.294,38.574 67.391,38.553 C67.488,38.531 67.572,38.472 67.626,38.388 Z M62.264,38.228 C62.264,37.277 62.205,36.297 62.087,35.305 L63.428,36.159 C63.485,36.892 63.514,37.571 63.514,38.228 C63.514,40.4 63.242,42.553 62.723,44.635 L60.877,46.403 C61.779,43.778 62.264,41.04 62.264,38.228 Z M4.083,34.571 C3.946,35.814 3.877,37.044 3.877,38.228 C3.877,40.507 4.109,42.759 4.565,44.963 L3.349,45.239 C2.874,42.947 2.627,40.605 2.627,38.228 C2.627,36.48 2.766,34.703 3.04,32.934 L4.083,34.571 Z M10.982,45.257 L13.484,47.654 L11.995,48.275 C11.598,47.303 11.27,46.29 10.982,45.257 Z M10.713,36.157 L12.053,35.304 C11.936,36.299 11.877,37.278 11.877,38.228 C11.877,41.041 12.362,43.779 13.266,46.406 L11.393,44.613 C11.392,44.585 11.389,44.556 11.382,44.528 C10.881,42.483 10.627,40.363 10.627,38.228 C10.627,37.571 10.655,36.891 10.713,36.157 Z M4.737,35.599 L6.513,38.388 C6.566,38.472 6.651,38.531 6.748,38.553 C6.845,38.574 6.946,38.556 7.031,38.503 L9.926,36.659 C9.893,37.203 9.877,37.721 9.877,38.228 C9.877,40.085 10.075,41.928 10.445,43.726 C10.393,43.698 10.334,43.686 10.274,43.683 C10.263,43.683 10.252,43.683 10.24,43.684 C10.22,43.686 10.201,43.682 10.183,43.686 L5.32,44.792 C4.877,42.641 4.627,40.451 4.627,38.228 C4.627,37.371 4.664,36.491 4.737,35.599 Z M37.069,75.042 C19.748,75.042 4.955,63.345 0.965,46.55 L2.781,46.137 L3.147,46.055 L3.51,45.972 L4.729,45.694 L5.094,45.612 L5.476,45.525 L9.985,44.5 C10.324,45.907 10.779,47.257 11.311,48.56 C11.358,48.676 11.396,48.797 11.445,48.911 C11.494,49.027 11.547,49.139 11.598,49.254 C15.977,59.203 25.807,65.792 37.069,65.792 C48.332,65.792 58.162,59.203 62.541,49.253 C62.591,49.139 62.646,49.027 62.694,48.911 C62.743,48.796 62.781,48.675 62.828,48.56 C63.36,47.257 63.815,45.907 64.153,44.5 L68.665,45.526 L69.046,45.613 L69.412,45.695 L70.63,45.972 L70.994,46.055 L71.36,46.138 L73.173,46.55 C69.184,63.345 54.391,75.042 37.069,75.042 Z M73.707,45.903 L71.525,45.406 C72.012,43.06 72.264,40.661 72.264,38.228 C72.264,36.12 72.066,33.971 71.676,31.84 C71.648,31.688 71.53,31.569 71.379,31.54 C71.226,31.509 71.074,31.575 70.991,31.705 L69.355,34.275 C69.354,34.276 69.354,34.277 69.354,34.277 L67.195,37.669 L63.989,35.627 C63.989,35.627 63.988,35.626 63.987,35.626 L61.811,34.24 C61.687,34.161 61.528,34.162 61.405,34.242 C61.282,34.322 61.217,34.467 61.238,34.611 C61.421,35.84 61.514,37.057 61.514,38.228 C61.514,41.485 60.882,44.65 59.636,47.634 C59.62,47.674 59.613,47.718 59.611,47.761 C59.611,47.765 59.608,47.77 59.608,47.775 C59.607,47.824 59.616,47.874 59.636,47.921 C59.645,47.943 59.671,47.95 59.684,47.969 C59.697,47.991 59.692,48.018 59.71,48.037 C59.748,48.077 59.792,48.106 59.838,48.125 L61.84,48.961 C57.576,58.634 48.023,65.042 37.069,65.042 C26.116,65.042 16.563,58.634 12.298,48.961 L14.303,48.125 C14.304,48.124 14.304,48.124 14.305,48.122 C14.35,48.104 14.392,48.075 14.428,48.037 C14.446,48.02 14.44,47.993 14.454,47.973 C14.467,47.952 14.496,47.945 14.505,47.921 C14.525,47.874 14.533,47.823 14.532,47.772 C14.532,47.77 14.532,47.77 14.532,47.768 C14.53,47.723 14.522,47.677 14.504,47.634 C13.259,44.65 12.627,41.485 12.627,38.228 C12.627,37.06 12.72,35.843 12.902,34.611 C12.924,34.465 12.858,34.321 12.735,34.24 C12.612,34.16 12.454,34.16 12.33,34.239 L10.153,35.625 C10.153,35.625 10.152,35.625 10.152,35.626 L6.944,37.669 L4.786,34.281 C4.786,34.28 4.786,34.279 4.786,34.279 L3.149,31.709 C3.067,31.578 2.912,31.513 2.761,31.542 C2.61,31.572 2.492,31.691 2.464,31.843 C2.075,33.971 1.877,36.119 1.877,38.228 C1.877,40.661 2.128,43.058 2.616,45.406 L0.432,45.903 C0.229,45.948 0.103,46.149 0.149,46.35 C4.087,63.686 19.27,75.792 37.069,75.792 C54.869,75.792 70.051,63.686 73.99,46.35 C74.036,46.149 73.909,45.948 73.707,45.903 Z" id="Fill-19"></path>
            <path d="M57.098,44.21 C57.494,44.34 57.709,44.763 57.581,45.159 C57.477,45.476 57.183,45.678 56.865,45.678 C56.788,45.678 56.71,45.666 56.632,45.641 C56.615,45.636 56.597,45.629 56.578,45.62 L56.577,45.624 C56.577,45.624 54.508,44.572 54.311,44.544 C54.281,44.538 54.248,44.536 54.214,44.536 C54.158,44.536 54.098,44.545 54.039,44.552 C53.925,44.564 53.816,44.58 53.747,44.58 C53.728,44.58 53.711,44.578 53.699,44.575 C53.686,44.572 53.649,44.563 53.6,44.552 C53.618,44.502 53.636,44.453 53.654,44.405 C53.763,44.1 53.872,43.797 53.964,43.485 C53.981,43.429 53.992,43.37 54.008,43.314 C54.053,43.332 54.086,43.346 54.099,43.35 C54.154,43.374 54.255,43.478 54.364,43.577 C54.433,43.64 54.503,43.7 54.571,43.737 C54.726,43.819 56.469,44.103 56.929,44.178 C56.965,44.181 57.002,44.186 57.04,44.194 C57.06,44.199 57.078,44.203 57.098,44.21 Z M53.701,32.415 C53.714,32.411 53.73,32.411 53.749,32.411 C53.818,32.411 53.927,32.425 54.039,32.438 C54.098,32.445 54.159,32.452 54.214,32.452 C54.248,32.452 54.281,32.451 54.311,32.447 C54.483,32.424 56.061,31.63 56.477,31.418 C56.508,31.399 56.541,31.382 56.577,31.367 C56.595,31.359 56.615,31.353 56.632,31.347 C56.71,31.322 56.789,31.311 56.866,31.311 C57.183,31.311 57.477,31.511 57.581,31.828 C57.709,32.226 57.494,32.649 57.098,32.778 C57.079,32.783 57.061,32.788 57.041,32.793 L57.041,32.796 C57.041,32.796 54.748,33.161 54.572,33.254 C54.504,33.29 54.434,33.35 54.366,33.411 C54.256,33.511 54.156,33.616 54.099,33.639 C54.086,33.644 54.053,33.657 54.008,33.676 C53.993,33.62 53.981,33.563 53.965,33.508 C53.873,33.194 53.762,32.888 53.653,32.582 C53.636,32.534 53.618,32.487 53.601,32.44 C53.65,32.427 53.688,32.418 53.701,32.415 Z M46.951,23.801 C46.989,23.755 47.115,23.693 47.241,23.622 C47.324,23.575 47.408,23.524 47.465,23.467 C47.588,23.347 48.399,21.777 48.61,21.362 C48.626,21.327 48.643,21.295 48.662,21.262 L48.663,21.262 C48.673,21.245 48.684,21.228 48.696,21.213 C48.843,21.01 49.072,20.902 49.305,20.902 C49.458,20.902 49.612,20.949 49.746,21.045 C50.083,21.29 50.157,21.76 49.912,22.096 C49.901,22.113 49.889,22.128 49.876,22.14 L49.878,22.145 C49.878,22.145 48.238,23.787 48.148,23.966 C48.115,24.036 48.093,24.129 48.075,24.22 C48.045,24.364 48.026,24.506 47.993,24.556 C47.986,24.569 47.965,24.602 47.937,24.646 C47.899,24.616 47.859,24.589 47.82,24.558 C47.558,24.356 47.297,24.151 47.024,23.963 C46.98,23.932 46.938,23.898 46.893,23.868 C46.922,23.834 46.943,23.81 46.951,23.801 Z M37.821,17.679 C37.821,17.699 37.82,17.717 37.818,17.738 L37.821,17.739 C37.821,17.739 37.46,20.031 37.495,20.228 C37.508,20.304 37.544,20.391 37.583,20.476 C37.644,20.611 37.711,20.738 37.714,20.798 C37.715,20.812 37.718,20.85 37.722,20.902 C37.67,20.9 37.62,20.896 37.567,20.893 C37.4,20.889 37.238,20.868 37.069,20.868 C36.902,20.868 36.74,20.889 36.573,20.893 C36.521,20.895 36.47,20.9 36.418,20.902 C36.422,20.85 36.425,20.812 36.426,20.798 C36.43,20.737 36.498,20.611 36.559,20.476 C36.597,20.391 36.634,20.304 36.647,20.228 C36.676,20.056 36.408,18.311 36.336,17.85 C36.329,17.813 36.323,17.778 36.32,17.739 C36.319,17.719 36.316,17.699 36.316,17.679 C36.316,17.264 36.653,16.928 37.068,16.928 C37.484,16.928 37.821,17.264 37.821,17.679 Z M24.834,20.902 C25.066,20.902 25.295,21.01 25.442,21.213 C25.456,21.228 25.464,21.245 25.476,21.261 L25.479,21.261 C25.479,21.261 26.534,23.326 26.677,23.467 C26.734,23.523 26.817,23.573 26.901,23.62 C27.026,23.691 27.151,23.753 27.189,23.799 C27.198,23.808 27.218,23.833 27.248,23.867 C27.202,23.897 27.16,23.931 27.114,23.963 C26.841,24.15 26.581,24.355 26.319,24.557 C26.281,24.587 26.241,24.615 26.203,24.645 C26.176,24.602 26.155,24.569 26.147,24.556 C26.116,24.505 26.096,24.364 26.067,24.22 C26.048,24.128 26.026,24.035 25.99,23.965 C25.914,23.81 24.671,22.553 24.343,22.223 C24.314,22.199 24.289,22.173 24.264,22.142 L24.263,22.142 C24.25,22.128 24.237,22.113 24.227,22.097 C23.981,21.76 24.055,21.29 24.393,21.045 C24.526,20.949 24.681,20.902 24.834,20.902 Z M17.099,32.793 C17.08,32.788 17.06,32.783 17.041,32.778 C16.645,32.649 16.429,32.223 16.558,31.828 C16.662,31.511 16.957,31.308 17.273,31.308 C17.35,31.308 17.428,31.321 17.505,31.345 C17.525,31.353 17.543,31.359 17.561,31.367 L17.562,31.365 C17.562,31.365 19.63,32.416 19.829,32.446 C19.857,32.449 19.889,32.451 19.922,32.451 C19.979,32.451 20.04,32.443 20.099,32.436 C20.212,32.423 20.321,32.407 20.391,32.407 C20.411,32.407 20.427,32.409 20.439,32.412 C20.453,32.416 20.489,32.425 20.538,32.436 C20.52,32.486 20.501,32.535 20.483,32.585 C20.374,32.89 20.264,33.197 20.171,33.51 C20.156,33.564 20.145,33.619 20.129,33.673 C20.085,33.654 20.052,33.641 20.04,33.636 C19.984,33.614 19.885,33.511 19.778,33.412 C19.708,33.349 19.636,33.287 19.567,33.252 C19.412,33.17 17.669,32.886 17.21,32.811 C17.174,32.807 17.136,32.802 17.099,32.793 Z M20.438,44.573 C20.426,44.576 20.41,44.577 20.391,44.577 C20.321,44.577 20.211,44.562 20.098,44.549 C20.038,44.542 19.977,44.534 19.92,44.534 C19.887,44.534 19.856,44.535 19.827,44.54 C19.656,44.567 18.078,45.359 17.662,45.57 C17.631,45.59 17.597,45.605 17.562,45.619 L17.562,45.62 C17.544,45.628 17.525,45.636 17.505,45.641 C17.428,45.666 17.35,45.678 17.273,45.678 C16.956,45.678 16.661,45.476 16.558,45.159 C16.43,44.763 16.645,44.34 17.041,44.21 C17.06,44.203 17.078,44.2 17.097,44.194 L17.097,44.191 C17.097,44.191 19.388,43.827 19.566,43.733 C19.635,43.697 19.708,43.635 19.777,43.572 C19.884,43.473 19.984,43.372 20.04,43.348 C20.052,43.344 20.084,43.33 20.128,43.312 C20.144,43.365 20.154,43.42 20.17,43.473 C20.263,43.79 20.374,44.097 20.484,44.406 C20.502,44.453 20.519,44.501 20.537,44.549 C20.488,44.56 20.452,44.569 20.438,44.573 Z M27.188,53.188 C27.149,53.233 27.023,53.295 26.897,53.366 C26.814,53.414 26.731,53.465 26.675,53.52 C26.548,53.641 25.741,55.21 25.527,55.626 C25.512,55.659 25.496,55.694 25.477,55.726 L25.476,55.726 C25.467,55.742 25.456,55.76 25.442,55.774 C25.295,55.978 25.066,56.085 24.833,56.085 C24.68,56.085 24.526,56.038 24.393,55.944 C24.055,55.698 23.981,55.226 24.227,54.891 C24.237,54.876 24.25,54.86 24.263,54.845 L24.261,54.844 C24.261,54.844 25.9,53.201 25.989,53.022 C26.023,52.952 26.044,52.861 26.063,52.772 C26.094,52.626 26.114,52.482 26.146,52.431 C26.153,52.42 26.173,52.386 26.2,52.343 C26.24,52.374 26.282,52.402 26.322,52.433 C26.583,52.635 26.841,52.839 27.112,53.025 C27.157,53.055 27.199,53.091 27.244,53.12 C27.216,53.153 27.196,53.177 27.188,53.188 Z M36.316,59.308 C36.316,59.288 36.319,59.268 36.32,59.249 L36.316,59.249 C36.316,59.249 36.677,56.957 36.644,56.761 C36.63,56.683 36.594,56.596 36.556,56.511 C36.495,56.377 36.428,56.25 36.424,56.19 C36.423,56.177 36.42,56.138 36.417,56.087 C36.469,56.089 36.52,56.094 36.573,56.095 C36.739,56.1 36.902,56.12 37.069,56.12 C37.236,56.12 37.397,56.1 37.563,56.095 C37.616,56.094 37.667,56.089 37.72,56.087 C37.716,56.138 37.713,56.177 37.713,56.19 C37.708,56.25 37.64,56.377 37.579,56.511 C37.541,56.596 37.504,56.683 37.491,56.761 C37.462,56.932 37.73,58.678 37.8,59.138 C37.809,59.174 37.814,59.211 37.818,59.248 L37.818,59.249 C37.82,59.268 37.821,59.288 37.821,59.308 C37.821,59.724 37.484,60.06 37.068,60.06 C36.653,60.06 36.316,59.724 36.316,59.308 Z M48.125,51.215 C48.028,51.299 47.94,51.39 47.843,51.471 C47.837,51.475 47.832,51.481 47.827,51.486 C47.735,51.561 47.637,51.628 47.544,51.701 C47.533,51.71 47.521,51.718 47.51,51.726 C47.161,52.004 46.806,52.274 46.435,52.523 C46.423,52.531 46.41,52.537 46.397,52.546 C46.296,52.613 46.189,52.67 46.086,52.735 C46.082,52.738 46.077,52.74 46.073,52.743 C45.967,52.81 45.86,52.872 45.753,52.937 C45.751,52.938 45.75,52.94 45.748,52.941 C43.604,54.234 41.159,55.068 38.536,55.296 C38.535,55.296 38.534,55.296 38.532,55.296 C38.409,55.307 38.282,55.307 38.158,55.316 C38.148,55.316 38.137,55.316 38.127,55.317 C38.012,55.324 37.896,55.329 37.78,55.334 C37.766,55.335 37.752,55.336 37.738,55.337 C37.514,55.345 37.295,55.37 37.069,55.37 C36.842,55.37 36.622,55.345 36.397,55.336 C36.382,55.336 36.369,55.335 36.354,55.334 C36.239,55.329 36.123,55.324 36.007,55.317 C35.998,55.316 35.987,55.316 35.977,55.316 C35.853,55.307 35.726,55.307 35.603,55.296 C35.601,55.296 35.6,55.296 35.599,55.296 C32.977,55.068 30.533,54.233 28.389,52.94 C28.387,52.939 28.385,52.937 28.382,52.936 C28.276,52.871 28.169,52.808 28.064,52.743 C28.059,52.739 28.054,52.736 28.049,52.734 C27.947,52.669 27.84,52.611 27.739,52.545 C27.727,52.536 27.714,52.53 27.702,52.522 C27.33,52.273 26.975,52.002 26.625,51.724 C26.614,51.717 26.602,51.709 26.591,51.7 C26.499,51.626 26.4,51.56 26.309,51.484 C26.303,51.48 26.298,51.473 26.293,51.469 C26.195,51.388 26.107,51.296 26.011,51.213 L26.01,51.212 C24.092,49.542 22.544,47.456 21.534,45.084 C21.53,45.076 21.526,45.069 21.522,45.061 C21.477,44.952 21.444,44.839 21.401,44.73 C21.398,44.722 21.395,44.715 21.392,44.706 C21.349,44.597 21.312,44.486 21.271,44.376 C21.266,44.362 21.261,44.348 21.256,44.336 C21.102,43.918 20.96,43.496 20.838,43.065 C20.834,43.05 20.831,43.035 20.827,43.02 C20.795,42.908 20.768,42.794 20.739,42.68 C20.737,42.671 20.735,42.662 20.732,42.653 C20.704,42.54 20.671,42.428 20.645,42.313 C20.643,42.304 20.64,42.296 20.638,42.286 C20.356,41.066 20.192,39.8 20.192,38.495 C20.192,37.188 20.356,35.921 20.639,34.699 C20.639,34.697 20.639,34.697 20.64,34.696 C20.668,34.573 20.703,34.452 20.733,34.332 C20.736,34.321 20.739,34.312 20.741,34.301 C20.77,34.189 20.797,34.076 20.828,33.965 C20.832,33.95 20.835,33.936 20.839,33.921 C20.961,33.489 21.103,33.067 21.258,32.649 C21.262,32.636 21.267,32.622 21.272,32.611 C21.313,32.5 21.35,32.387 21.394,32.279 C21.396,32.271 21.399,32.263 21.402,32.256 C21.446,32.146 21.479,32.032 21.524,31.924 C21.528,31.916 21.532,31.909 21.536,31.902 C22.546,29.529 24.094,27.445 26.013,25.774 C26.02,25.768 26.026,25.762 26.033,25.757 C26.123,25.679 26.205,25.593 26.295,25.518 C26.303,25.511 26.309,25.504 26.317,25.498 C26.406,25.424 26.503,25.359 26.594,25.286 C26.605,25.278 26.617,25.27 26.628,25.261 C26.978,24.985 27.333,24.715 27.704,24.465 C27.716,24.457 27.729,24.451 27.742,24.443 C27.842,24.376 27.95,24.318 28.052,24.254 C28.057,24.251 28.062,24.247 28.067,24.244 C28.172,24.179 28.279,24.115 28.385,24.051 C28.387,24.05 28.39,24.049 28.392,24.047 C30.535,22.755 32.979,21.92 35.602,21.693 C35.603,21.693 35.604,21.693 35.606,21.693 C35.729,21.682 35.855,21.681 35.98,21.674 C35.99,21.673 36,21.673 36.01,21.673 C36.126,21.665 36.242,21.659 36.357,21.655 C36.371,21.654 36.385,21.653 36.399,21.653 C36.623,21.644 36.843,21.619 37.069,21.619 C37.296,21.619 37.517,21.643 37.742,21.653 C37.756,21.653 37.77,21.654 37.784,21.655 C37.899,21.659 38.015,21.665 38.13,21.673 C38.141,21.673 38.151,21.673 38.161,21.674 C38.286,21.682 38.412,21.682 38.535,21.693 C38.537,21.693 38.538,21.693 38.54,21.693 C41.161,21.921 43.605,22.757 45.749,24.049 C45.751,24.051 45.754,24.052 45.756,24.053 C45.862,24.117 45.969,24.18 46.073,24.246 C46.079,24.25 46.084,24.253 46.089,24.257 C46.191,24.321 46.298,24.377 46.398,24.444 C46.411,24.452 46.424,24.46 46.437,24.467 C46.808,24.716 47.163,24.987 47.512,25.263 C47.523,25.272 47.535,25.281 47.546,25.288 C47.636,25.361 47.731,25.424 47.82,25.498 C47.828,25.504 47.836,25.512 47.844,25.52 C47.942,25.6 48.03,25.692 48.125,25.775 C48.126,25.776 48.127,25.777 48.127,25.777 C50.045,27.447 51.593,29.532 52.604,31.906 C52.607,31.912 52.611,31.92 52.614,31.927 C52.66,32.035 52.693,32.15 52.737,32.259 C52.74,32.266 52.742,32.274 52.745,32.281 C52.788,32.39 52.825,32.503 52.867,32.614 C52.872,32.626 52.876,32.639 52.881,32.653 C53.036,33.07 53.177,33.492 53.299,33.925 C53.303,33.939 53.306,33.953 53.31,33.967 C53.341,34.077 53.367,34.188 53.396,34.299 C53.398,34.311 53.402,34.323 53.405,34.334 C53.436,34.456 53.47,34.577 53.498,34.699 C53.499,34.7 53.499,34.701 53.499,34.702 C53.781,35.923 53.945,37.189 53.945,38.495 C53.945,39.801 53.781,41.067 53.498,42.29 C53.498,42.29 53.498,42.29 53.498,42.292 C53.47,42.413 53.435,42.535 53.404,42.656 C53.401,42.668 53.398,42.679 53.395,42.692 C53.367,42.802 53.34,42.914 53.31,43.023 C53.306,43.036 53.303,43.052 53.298,43.066 C53.176,43.498 53.035,43.921 52.88,44.339 C52.876,44.351 52.871,44.365 52.866,44.378 C52.825,44.488 52.788,44.6 52.744,44.709 C52.741,44.717 52.739,44.724 52.736,44.732 C52.692,44.841 52.659,44.956 52.614,45.064 C52.61,45.071 52.606,45.078 52.603,45.086 C51.592,47.459 50.044,49.544 48.125,51.215 C48.125,51.215 48.125,51.215 48.125,51.215 Z M49.305,56.085 C49.072,56.085 48.843,55.978 48.696,55.774 C48.684,55.76 48.674,55.743 48.664,55.726 L48.66,55.726 C48.66,55.726 47.604,53.661 47.461,53.522 C47.404,53.466 47.32,53.415 47.236,53.367 C47.111,53.297 46.986,53.235 46.95,53.189 C46.941,53.179 46.921,53.155 46.892,53.122 C46.937,53.091 46.98,53.056 47.025,53.026 C47.295,52.84 47.553,52.636 47.813,52.436 C47.853,52.405 47.896,52.376 47.936,52.344 C47.962,52.387 47.983,52.421 47.99,52.432 C48.023,52.484 48.043,52.628 48.073,52.772 C48.091,52.863 48.113,52.954 48.146,53.024 C48.224,53.179 49.467,54.434 49.796,54.765 C49.823,54.788 49.85,54.816 49.874,54.844 L49.875,54.844 C49.888,54.86 49.901,54.876 49.912,54.891 C50.157,55.226 50.081,55.698 49.746,55.944 C49.612,56.038 49.458,56.085 49.305,56.085 Z M53.34,45.261 C53.427,45.281 53.497,45.298 53.516,45.303 C53.576,45.318 53.685,45.33 53.747,45.33 C53.818,45.33 53.919,45.321 54.029,45.305 C54.075,45.3 54.126,45.292 54.173,45.288 C54.467,45.409 55.433,45.883 56.237,46.292 C56.279,46.313 56.323,46.33 56.367,46.344 C56.374,46.346 56.381,46.348 56.389,46.35 C56.551,46.403 56.707,46.428 56.865,46.428 C57.516,46.428 58.09,46.012 58.294,45.394 C58.55,44.6 58.116,43.752 57.329,43.496 C57.281,43.481 57.242,43.47 57.197,43.461 C57.134,43.447 57.072,43.438 57.01,43.431 C55.851,43.243 55.127,43.109 54.896,43.053 C54.865,43.026 54.828,42.987 54.794,42.954 C54.67,42.837 54.553,42.726 54.382,42.657 C54.356,42.646 54.285,42.617 54.197,42.58 C54.511,41.266 54.695,39.903 54.695,38.495 C54.695,37.086 54.511,35.723 54.198,34.409 C54.285,34.372 54.355,34.344 54.375,34.336 C54.55,34.267 54.674,34.15 54.795,34.035 C54.828,34.004 54.863,33.968 54.898,33.938 C55.207,33.863 56.268,33.679 57.16,33.536 C57.212,33.528 57.262,33.515 57.31,33.496 C57.311,33.496 57.312,33.495 57.313,33.495 C58.116,33.236 58.549,32.387 58.295,31.598 C58.09,30.975 57.517,30.56 56.866,30.56 C56.708,30.56 56.551,30.585 56.399,30.635 C56.365,30.645 56.325,30.659 56.286,30.677 C56.226,30.7 56.169,30.729 56.115,30.761 C55.358,31.145 54.454,31.587 54.173,31.703 C54.128,31.699 54.078,31.691 54.032,31.684 C53.921,31.67 53.821,31.66 53.749,31.66 C53.683,31.66 53.568,31.674 53.503,31.691 C53.484,31.697 53.42,31.712 53.341,31.731 C52.27,29.163 50.604,26.911 48.524,25.125 C48.574,25.042 48.614,24.976 48.626,24.958 C48.729,24.802 48.76,24.629 48.791,24.462 C48.799,24.418 48.806,24.37 48.816,24.326 C49.026,24.08 49.773,23.313 50.409,22.675 C50.447,22.636 50.481,22.594 50.509,22.55 C50.516,22.542 50.521,22.533 50.527,22.525 C50.755,22.214 50.851,21.816 50.788,21.42 C50.726,21.024 50.512,20.674 50.186,20.438 C49.927,20.251 49.623,20.152 49.305,20.152 C48.824,20.152 48.369,20.385 48.088,20.774 C48.066,20.804 48.043,20.839 48.03,20.859 C47.984,20.934 47.952,20.994 47.923,21.062 C47.605,21.683 47.083,22.674 46.913,22.949 C46.878,22.97 46.83,22.993 46.788,23.016 C46.645,23.094 46.496,23.175 46.377,23.319 C46.363,23.334 46.311,23.396 46.244,23.473 C43.946,22.064 41.308,21.165 38.478,20.94 C38.47,20.845 38.464,20.77 38.463,20.749 C38.453,20.565 38.378,20.407 38.306,20.257 C38.287,20.215 38.263,20.171 38.246,20.128 C38.27,19.812 38.422,18.746 38.562,17.856 C38.57,17.807 38.572,17.76 38.571,17.713 C38.571,17.701 38.571,17.69 38.571,17.679 C38.571,16.85 37.897,16.178 37.068,16.178 C36.24,16.178 35.566,16.85 35.566,17.679 C35.566,17.7 35.57,17.765 35.572,17.786 C35.578,17.863 35.587,17.924 35.599,17.988 C35.75,18.95 35.875,19.853 35.896,20.132 C35.88,20.168 35.855,20.215 35.834,20.258 C35.764,20.406 35.69,20.558 35.678,20.746 C35.676,20.773 35.67,20.848 35.663,20.94 C32.833,21.165 30.195,22.064 27.896,23.472 C27.831,23.396 27.779,23.336 27.766,23.32 C27.646,23.174 27.496,23.092 27.35,23.013 C27.31,22.991 27.266,22.969 27.226,22.946 C27.059,22.673 26.557,21.723 26.146,20.92 C26.124,20.876 26.097,20.834 26.067,20.796 C26.056,20.781 26.045,20.765 26.034,20.751 C25.751,20.376 25.305,20.152 24.834,20.152 C24.516,20.152 24.211,20.251 23.953,20.438 C23.627,20.674 23.413,21.022 23.35,21.42 C23.288,21.816 23.383,22.213 23.62,22.538 C23.646,22.574 23.674,22.609 23.703,22.64 C23.744,22.689 23.786,22.732 23.831,22.772 C24.679,23.626 25.175,24.15 25.327,24.328 C25.336,24.37 25.344,24.422 25.352,24.469 C25.382,24.628 25.412,24.793 25.51,24.951 C25.526,24.975 25.566,25.042 25.616,25.122 C23.536,26.908 21.869,29.161 20.798,31.728 C20.711,31.706 20.642,31.69 20.623,31.686 C20.563,31.67 20.453,31.657 20.391,31.657 C20.318,31.657 20.217,31.668 20.106,31.682 C20.061,31.689 20.012,31.697 19.965,31.699 C19.669,31.577 18.706,31.105 17.902,30.696 C17.86,30.675 17.816,30.657 17.772,30.645 C17.763,30.64 17.752,30.637 17.742,30.634 C17.586,30.584 17.43,30.558 17.273,30.558 C16.622,30.558 16.047,30.975 15.845,31.596 C15.72,31.978 15.751,32.386 15.934,32.743 C16.116,33.102 16.427,33.367 16.809,33.49 C16.86,33.507 16.896,33.515 16.93,33.524 C16.999,33.54 17.07,33.551 17.138,33.557 C18.617,33.799 19.099,33.901 19.245,33.937 C19.274,33.962 19.311,34.001 19.345,34.032 C19.463,34.146 19.586,34.262 19.761,34.333 C19.785,34.342 19.854,34.37 19.94,34.407 C19.627,35.721 19.442,37.085 19.442,38.495 C19.442,39.903 19.626,41.265 19.939,42.578 C19.85,42.616 19.779,42.646 19.76,42.653 C19.589,42.719 19.463,42.84 19.342,42.954 C19.309,42.985 19.274,43.021 19.239,43.05 C18.931,43.125 17.871,43.308 16.979,43.45 C16.926,43.46 16.874,43.473 16.825,43.492 L16.809,43.496 C16.022,43.753 15.589,44.602 15.844,45.39 C16.047,46.012 16.621,46.428 17.273,46.428 C17.43,46.428 17.586,46.403 17.737,46.355 C17.75,46.35 17.795,46.336 17.808,46.329 C17.869,46.311 17.925,46.285 17.977,46.253 C17.993,46.244 18.008,46.236 18.023,46.228 C18.92,45.774 19.715,45.389 19.969,45.283 C20.007,45.288 20.058,45.297 20.105,45.303 C20.217,45.317 20.318,45.327 20.391,45.327 C20.455,45.327 20.567,45.314 20.63,45.298 C20.648,45.293 20.714,45.277 20.796,45.257 C21.867,47.824 23.533,50.078 25.614,51.864 C25.565,51.944 25.526,52.008 25.514,52.027 C25.411,52.191 25.382,52.348 25.351,52.516 C25.342,52.562 25.334,52.614 25.323,52.661 C25.117,52.903 24.368,53.675 23.73,54.314 C23.698,54.346 23.669,54.382 23.644,54.418 C23.629,54.437 23.616,54.455 23.603,54.475 C23.384,54.773 23.288,55.169 23.35,55.566 C23.412,55.963 23.626,56.313 23.952,56.549 C24.211,56.738 24.516,56.836 24.833,56.836 C25.301,56.836 25.745,56.615 26.028,56.244 C26.072,56.191 26.103,56.14 26.126,56.1 C26.153,56.057 26.184,55.995 26.211,55.933 C26.9,54.596 27.143,54.173 27.225,54.04 C27.263,54.016 27.31,53.993 27.352,53.97 C27.495,53.892 27.644,53.812 27.764,53.668 C27.779,53.649 27.83,53.59 27.894,53.515 C30.192,54.925 32.83,55.823 35.661,56.049 C35.668,56.142 35.674,56.217 35.676,56.238 C35.686,56.424 35.76,56.579 35.832,56.73 C35.852,56.772 35.875,56.816 35.893,56.86 C35.868,57.178 35.716,58.241 35.576,59.131 C35.568,59.181 35.565,59.23 35.567,59.278 C35.566,59.288 35.566,59.298 35.566,59.308 C35.566,60.136 36.24,60.811 37.068,60.811 C37.897,60.811 38.571,60.136 38.571,59.308 C38.571,59.265 38.569,59.222 38.565,59.178 C38.559,59.114 38.549,59.054 38.537,58.999 L38.523,58.905 C38.319,57.56 38.255,57.041 38.242,56.857 C38.258,56.819 38.284,56.772 38.305,56.728 C38.374,56.582 38.446,56.432 38.46,56.25 C38.462,56.218 38.468,56.143 38.475,56.049 C41.306,55.824 43.944,54.925 46.243,53.515 C46.31,53.594 46.362,53.655 46.376,53.671 C46.481,53.807 46.638,53.892 46.789,53.975 C46.829,53.996 46.873,54.018 46.911,54.042 C47.077,54.312 47.581,55.263 47.992,56.068 C48.016,56.115 48.044,56.158 48.076,56.198 C48.084,56.209 48.093,56.221 48.102,56.232 C48.384,56.611 48.832,56.836 49.305,56.836 C49.623,56.836 49.927,56.738 50.185,56.551 C50.511,56.312 50.724,55.965 50.787,55.569 C50.851,55.171 50.755,54.774 50.518,54.449 C50.507,54.432 50.484,54.405 50.46,54.374 C50.4,54.307 50.355,54.26 50.312,54.22 C49.617,53.524 48.992,52.874 48.811,52.661 C48.804,52.625 48.797,52.574 48.788,52.528 C48.757,52.361 48.726,52.189 48.621,52.027 C48.611,52.011 48.572,51.947 48.522,51.865 C50.603,50.08 52.269,47.827 53.34,45.261 Z" id="Fill-20"></path>
            <path d="M46.468,48.878 C46.425,48.819 46.371,48.772 46.322,48.718 C46.087,48.445 45.68,47.972 45.635,47.918 C45.525,47.786 45.392,47.708 45.26,47.635 L44.371,46.41 C45.385,45.484 46.051,44.202 46.166,42.772 L48.294,43.463 C48.406,43.569 48.518,43.665 48.672,43.729 C48.769,43.768 49.535,44.089 49.792,44.197 C49.813,44.204 49.829,44.22 49.849,44.226 L49.903,44.244 C49.099,46.032 47.931,47.616 46.496,48.916 L46.468,48.878 Z M30.098,50.642 C30.169,50.544 30.229,50.44 30.278,50.333 C30.462,50.029 30.71,49.622 30.749,49.56 C30.844,49.407 30.878,49.261 30.907,49.11 L31.794,47.888 L32.253,47.888 L32.253,48.744 C32.253,49.663 33.001,50.411 33.921,50.411 C34.84,50.411 35.588,49.663 35.588,48.744 L35.588,47.888 L35.812,47.888 L35.812,50.703 C35.746,50.844 35.684,50.991 35.675,51.168 C35.671,51.223 35.631,51.708 35.601,52.066 C35.58,52.181 35.566,52.299 35.566,52.42 L35.566,52.486 C33.58,52.274 31.72,51.639 30.067,50.686 L30.098,50.642 Z M24.287,44.223 C24.402,44.186 24.51,44.138 24.612,44.082 C24.944,43.943 25.396,43.753 25.457,43.729 C25.614,43.668 25.729,43.569 25.844,43.46 L30.293,42.015 L30.414,42.004 L30.414,44.527 L29.599,44.527 C28.696,44.527 27.933,45.303 27.933,46.22 C27.933,46.839 28.294,47.385 28.81,47.673 C28.702,47.735 28.594,47.804 28.504,47.911 C28.442,47.986 27.981,48.522 27.763,48.775 C27.732,48.811 27.696,48.841 27.668,48.879 L27.642,48.915 C26.207,47.615 25.039,46.029 24.234,44.241 L24.287,44.223 Z M27.67,28.109 C27.708,28.16 27.754,28.199 27.795,28.245 C28.026,28.515 28.46,29.018 28.507,29.074 C28.577,29.162 28.669,29.226 28.765,29.284 C28.273,29.578 27.933,30.111 27.933,30.712 C27.933,31.632 28.68,32.38 29.599,32.38 L30.414,32.38 L30.414,34.982 L30.294,34.971 L25.845,33.525 C25.73,33.418 25.608,33.312 25.439,33.25 C25.397,33.233 24.949,33.045 24.616,32.905 C24.514,32.848 24.406,32.8 24.29,32.762 L24.236,32.744 C25.04,30.956 26.208,29.372 27.644,28.071 L27.67,28.109 Z M44.042,26.346 C44.029,26.363 44.025,26.385 44.013,26.403 C43.866,26.646 43.427,27.369 43.384,27.438 C43.296,27.574 43.262,27.721 43.232,27.876 L42.068,29.48 C41.787,29.361 41.495,29.263 41.192,29.193 L41.192,28.242 C41.192,27.323 40.444,26.576 39.524,26.576 C39.053,26.576 38.63,26.774 38.327,27.089 L38.327,26.284 C38.392,26.145 38.454,26 38.463,25.826 C38.467,25.766 38.507,25.281 38.537,24.922 C38.559,24.807 38.571,24.69 38.571,24.569 L38.571,24.501 C40.559,24.714 42.419,25.348 44.073,26.303 L44.042,26.346 Z M49.849,32.764 C49.733,32.802 49.625,32.852 49.522,32.908 C49.198,33.044 48.763,33.226 48.691,33.255 C48.522,33.322 48.405,33.424 48.294,33.528 L45.49,34.439 C45.441,33.13 44.924,31.914 44.093,30.965 L45.264,29.354 C45.397,29.281 45.523,29.206 45.631,29.08 C45.688,29.011 46.086,28.548 46.319,28.277 C46.37,28.222 46.426,28.173 46.471,28.111 L46.498,28.073 C47.933,29.374 49.1,30.958 49.904,32.746 L49.849,32.764 Z M49.99,33.525 C50.097,33.48 50.168,33.45 50.172,33.449 C50.172,33.448 50.175,33.447 50.175,33.447 L50.64,34.875 C50.64,34.875 50.554,34.896 50.429,34.924 C50.169,34.986 49.739,35.089 49.508,35.142 C49.433,35.16 49.372,35.175 49.355,35.179 C49.342,35.182 49.325,35.184 49.305,35.184 C49.225,35.184 49.093,35.161 48.964,35.149 C48.954,35.148 48.944,35.147 48.934,35.146 L48.941,35.17 L45.159,36.4 C45.302,36.031 45.394,35.643 45.444,35.243 L48.629,34.208 L48.635,34.233 C48.644,34.225 48.651,34.218 48.659,34.21 C48.781,34.104 48.896,33.98 48.959,33.956 C48.977,33.949 49.045,33.92 49.13,33.885 C49.359,33.79 49.755,33.624 49.99,33.525 Z M43.923,28.246 C43.925,28.236 43.927,28.226 43.929,28.215 C43.963,28.057 43.985,27.89 44.021,27.834 C44.032,27.817 44.071,27.753 44.12,27.672 C44.25,27.458 44.473,27.091 44.604,26.876 C44.664,26.777 44.703,26.713 44.705,26.71 L44.706,26.708 L44.707,26.708 L45.92,27.59 C45.92,27.59 45.82,27.707 45.69,27.858 C45.519,28.057 45.3,28.312 45.169,28.465 C45.116,28.527 45.074,28.577 45.062,28.591 C45.018,28.642 44.868,28.713 44.729,28.795 C44.719,28.802 44.709,28.807 44.699,28.813 L44.719,28.827 L43.561,30.423 C43.306,30.2 43.03,30.007 42.739,29.832 L43.9,28.232 L43.923,28.246 Z M36.565,26.177 L36.59,26.177 C36.586,26.167 36.582,26.158 36.577,26.148 C36.513,26 36.431,25.853 36.426,25.785 C36.425,25.765 36.419,25.691 36.412,25.599 C36.392,25.352 36.357,24.924 36.336,24.67 C36.326,24.55 36.319,24.469 36.319,24.469 L37.821,24.469 C37.821,24.469 37.815,24.549 37.805,24.668 C37.784,24.922 37.749,25.35 37.729,25.599 C37.721,25.691 37.715,25.765 37.714,25.785 C37.71,25.853 37.628,26 37.563,26.148 C37.559,26.158 37.554,26.167 37.55,26.177 L37.577,26.177 L37.577,29.045 L36.565,29.045 L36.565,26.177 Z M29.422,28.825 L29.441,28.811 C29.431,28.804 29.421,28.801 29.411,28.794 C29.273,28.711 29.121,28.641 29.08,28.59 C29.067,28.575 29.025,28.526 28.972,28.464 C28.841,28.311 28.622,28.056 28.451,27.857 C28.32,27.706 28.22,27.589 28.22,27.589 L29.435,26.707 C29.435,26.707 29.481,26.783 29.548,26.894 C29.681,27.113 29.896,27.467 30.023,27.674 C30.072,27.753 30.11,27.816 30.122,27.833 C30.158,27.889 30.177,28.055 30.213,28.215 C30.216,28.225 30.217,28.236 30.22,28.246 L30.24,28.23 L30.832,29.045 L29.599,29.045 C29.594,29.045 29.588,29.046 29.583,29.046 L29.422,28.825 Z M25.176,35.146 C25.045,35.159 24.912,35.182 24.832,35.182 C24.813,35.182 24.797,35.181 24.785,35.178 C24.767,35.173 24.704,35.158 24.627,35.139 C24.393,35.084 23.966,34.982 23.708,34.922 C23.585,34.892 23.5,34.872 23.5,34.872 L23.964,33.446 C23.964,33.446 24.042,33.478 24.155,33.526 C24.391,33.624 24.782,33.787 25.008,33.883 C25.094,33.918 25.162,33.947 25.181,33.954 C25.243,33.976 25.358,34.1 25.479,34.208 C25.488,34.215 25.495,34.222 25.503,34.229 L25.511,34.204 L30.143,35.711 C30.237,35.72 30.327,35.728 30.414,35.735 L30.414,37.003 C30.292,36.956 30.07,36.813 29.829,36.672 L25.198,35.169 L25.206,35.142 C25.196,35.143 25.187,35.145 25.176,35.146 Z M24.142,43.466 C24.038,43.509 23.97,43.537 23.966,43.54 L23.963,43.541 L23.963,43.54 L23.5,42.112 C23.5,42.112 23.585,42.093 23.707,42.064 C23.965,42.003 24.393,41.902 24.625,41.845 C24.703,41.827 24.765,41.812 24.783,41.807 C24.795,41.804 24.812,41.803 24.83,41.803 C24.911,41.803 25.044,41.827 25.175,41.839 C25.185,41.839 25.195,41.841 25.205,41.841 L25.198,41.818 L29.829,40.313 C30.07,40.172 30.292,40.029 30.414,39.981 L30.414,41.252 C30.327,41.258 30.236,41.266 30.141,41.276 L25.511,42.78 L25.501,42.755 C25.493,42.762 25.486,42.768 25.479,42.776 C25.358,42.884 25.243,43.007 25.181,43.032 C25.162,43.04 25.093,43.068 25.007,43.104 C24.776,43.199 24.376,43.367 24.142,43.466 Z M30.216,48.74 C30.213,48.75 30.212,48.76 30.21,48.77 C30.175,48.929 30.154,49.098 30.119,49.154 C30.108,49.171 30.069,49.234 30.021,49.313 C29.894,49.52 29.678,49.876 29.545,50.095 C29.479,50.203 29.433,50.281 29.433,50.281 L28.218,49.398 L28.217,49.397 C28.217,49.397 28.227,49.385 28.23,49.382 C28.252,49.357 28.333,49.263 28.443,49.134 C28.615,48.934 28.836,48.677 28.968,48.523 C29.021,48.46 29.064,48.411 29.076,48.396 C29.12,48.344 29.272,48.275 29.411,48.193 C29.42,48.187 29.43,48.182 29.44,48.177 L29.419,48.16 L29.617,47.888 L30.867,47.888 L30.237,48.755 L30.216,48.74 Z M37.713,51.202 C37.713,51.223 37.719,51.297 37.726,51.39 C37.746,51.637 37.781,52.066 37.802,52.319 C37.812,52.439 37.818,52.518 37.818,52.518 L36.316,52.518 C36.316,52.518 36.323,52.439 36.333,52.318 C36.354,52.065 36.39,51.636 36.41,51.389 C36.417,51.297 36.423,51.223 36.424,51.202 C36.427,51.136 36.509,50.989 36.574,50.841 C36.579,50.83 36.583,50.821 36.587,50.812 L36.562,50.812 L36.562,47.888 L37.573,47.888 L37.573,50.812 L37.547,50.812 C37.551,50.821 37.556,50.83 37.561,50.84 C37.625,50.989 37.708,51.136 37.713,51.202 Z M44.727,48.195 C44.864,48.277 45.016,48.347 45.059,48.398 C45.071,48.412 45.114,48.463 45.167,48.525 C45.298,48.679 45.517,48.932 45.688,49.131 C45.818,49.283 45.918,49.399 45.918,49.399 L44.704,50.281 L44.702,50.282 C44.702,50.282 44.695,50.271 44.693,50.268 C44.683,50.251 44.655,50.203 44.609,50.128 C44.479,49.914 44.249,49.533 44.116,49.315 C44.067,49.235 44.028,49.172 44.017,49.154 C43.983,49.098 43.96,48.931 43.926,48.772 C43.923,48.762 43.922,48.753 43.92,48.743 L43.9,48.758 L42.9,47.383 C43.212,47.242 43.508,47.075 43.787,46.882 L44.717,48.162 L44.698,48.178 C44.708,48.183 44.717,48.189 44.727,48.195 Z M45.457,42.344 C45.457,42.409 45.44,42.47 45.437,42.535 C45.384,43.814 44.818,44.971 43.932,45.807 C43.84,45.894 43.742,45.973 43.643,46.053 C43.546,46.131 43.457,46.217 43.354,46.286 C43.074,46.48 42.77,46.635 42.452,46.765 C42.332,46.816 42.206,46.853 42.081,46.892 C41.955,46.932 41.834,46.983 41.705,47.013 C41.413,47.078 41.113,47.122 40.805,47.131 C40.602,47.136 40.441,47.303 40.441,47.505 L40.441,48.744 C40.441,49.25 40.03,49.661 39.524,49.661 C39.018,49.661 38.606,49.25 38.606,48.744 L38.606,47.513 C38.606,47.339 38.484,47.199 38.323,47.157 C38.292,47.149 38.263,47.138 38.231,47.138 L35.213,47.138 C35.006,47.138 34.838,47.306 34.838,47.513 L34.838,48.744 C34.838,49.25 34.427,49.661 33.921,49.661 C33.415,49.661 33.003,49.25 33.003,48.744 L33.003,47.513 C33.003,47.306 32.835,47.138 32.628,47.138 L29.599,47.138 C29.489,47.138 29.384,47.111 29.284,47.071 C28.941,46.936 28.683,46.598 28.683,46.22 C28.683,45.709 29.103,45.277 29.599,45.277 L30.789,45.277 C30.996,45.277 31.164,45.109 31.164,44.903 L31.164,32.005 C31.164,31.798 30.996,31.63 30.789,31.63 L29.599,31.63 C29.094,31.63 28.683,31.218 28.683,30.712 C28.683,30.344 28.925,30.011 29.253,29.868 C29.361,29.822 29.478,29.795 29.599,29.795 L32.63,29.795 C32.837,29.795 33.005,29.627 33.005,29.42 L33.005,28.242 C33.005,27.737 33.416,27.326 33.921,27.326 C34.427,27.326 34.839,27.737 34.839,28.242 L34.839,29.42 C34.839,29.627 35.007,29.795 35.214,29.795 L38.232,29.795 C38.266,29.795 38.296,29.784 38.327,29.776 C38.487,29.733 38.607,29.593 38.607,29.42 L38.607,28.242 C38.607,27.737 39.019,27.326 39.524,27.326 C40.03,27.326 40.442,27.737 40.442,28.242 L40.442,29.499 C40.442,29.681 40.573,29.838 40.753,29.868 C41.051,29.92 41.337,30.002 41.613,30.106 C41.735,30.153 41.846,30.216 41.963,30.272 C42.076,30.326 42.194,30.37 42.302,30.433 C42.596,30.603 42.867,30.807 43.118,31.032 C43.212,31.117 43.298,31.21 43.385,31.301 C43.474,31.393 43.566,31.481 43.647,31.579 C44.339,32.425 44.758,33.499 44.758,34.641 C44.758,34.653 44.756,34.665 44.755,34.677 C44.754,34.816 44.746,34.952 44.731,35.089 C44.716,35.226 44.691,35.362 44.663,35.496 C44.566,35.953 44.393,36.382 44.156,36.766 C44.002,37.015 43.823,37.243 43.62,37.447 C43.443,37.621 43.254,37.784 43.045,37.918 C42.974,37.963 42.93,38.033 42.903,38.111 C42.887,38.155 42.87,38.199 42.872,38.248 C42.877,38.381 42.952,38.502 43.07,38.565 C43.483,38.785 43.845,39.057 44.16,39.362 C44.387,39.582 44.588,39.821 44.759,40.077 C44.861,40.23 44.951,40.388 45.032,40.551 C45.216,40.925 45.347,41.321 45.409,41.736 C45.429,41.87 45.436,42.007 45.442,42.141 C45.446,42.21 45.457,42.276 45.457,42.344 Z M49.134,43.108 C49.045,43.071 48.976,43.042 48.957,43.035 C48.896,43.01 48.78,42.887 48.66,42.781 C48.651,42.774 48.643,42.765 48.635,42.758 L48.627,42.782 L46.184,41.989 C46.155,41.597 46.081,41.219 45.961,40.854 L48.94,41.822 L48.932,41.845 C48.942,41.844 48.952,41.843 48.962,41.841 C49.093,41.829 49.227,41.805 49.307,41.805 C49.326,41.805 49.342,41.807 49.355,41.811 C49.372,41.816 49.434,41.83 49.512,41.848 C49.746,41.905 50.181,42.007 50.439,42.069 C50.552,42.095 50.626,42.112 50.633,42.113 L50.639,42.115 L50.174,43.542 L50.174,43.544 C50.174,43.544 50.165,43.54 50.163,43.538 C50.149,43.533 50.092,43.509 50.001,43.471 C49.77,43.374 49.368,43.204 49.134,43.108 Z M51.145,38.495 C51.145,39.488 51.038,40.456 50.841,41.392 L50.777,41.372 C50.748,41.362 50.717,41.365 50.687,41.357 C50.394,41.287 49.639,41.109 49.547,41.085 C49.471,41.065 49.393,41.055 49.307,41.055 C49.245,41.055 49.162,41.064 49.069,41.074 L45.555,39.932 C45.166,39.258 44.614,38.664 43.919,38.2 C44.205,37.954 44.447,37.662 44.662,37.35 L49.07,35.917 C49.162,35.928 49.244,35.934 49.305,35.934 C49.374,35.934 49.492,35.92 49.559,35.901 C49.617,35.887 50.418,35.698 50.704,35.631 C50.729,35.624 50.754,35.626 50.778,35.619 L50.842,35.598 C51.039,36.533 51.145,37.501 51.145,38.495 Z M35.569,24.501 L35.569,24.569 C35.569,24.69 35.583,24.807 35.604,24.923 C35.633,25.275 35.672,25.748 35.677,25.824 C35.69,26.008 35.749,26.145 35.815,26.284 L35.815,29.045 L35.589,29.045 L35.589,28.242 C35.589,27.323 34.841,26.576 33.921,26.576 C33.002,26.576 32.255,27.323 32.255,28.242 L32.255,29.045 L31.759,29.045 L30.91,27.876 C30.881,27.726 30.847,27.574 30.752,27.428 C30.706,27.356 30.464,26.957 30.282,26.658 C30.233,26.551 30.174,26.446 30.102,26.347 L30.069,26.301 C31.723,25.347 33.582,24.713 35.569,24.501 Z M22.995,38.495 C22.995,37.501 23.101,36.532 23.298,35.596 L23.362,35.616 C23.388,35.625 23.416,35.621 23.442,35.629 C23.728,35.697 24.503,35.879 24.594,35.903 C24.656,35.92 24.768,35.932 24.832,35.932 C24.893,35.932 24.975,35.926 25.066,35.915 L29.517,37.359 L29.641,37.432 C29.853,37.561 30.021,37.662 30.179,37.719 C30.208,37.729 30.299,37.763 30.414,37.804 L30.414,39.181 C30.3,39.223 30.208,39.257 30.18,39.266 C30.018,39.325 29.852,39.425 29.642,39.552 L29.518,39.625 L25.068,41.071 C24.976,41.06 24.893,41.053 24.83,41.053 C24.769,41.053 24.66,41.065 24.6,41.08 C24.499,41.106 23.728,41.288 23.442,41.356 C23.415,41.363 23.387,41.361 23.36,41.369 L23.297,41.389 C23.101,40.454 22.995,39.486 22.995,38.495 Z M38.568,52.486 L38.568,52.42 C38.568,52.299 38.555,52.18 38.534,52.066 C38.504,51.718 38.466,51.251 38.462,51.169 C38.448,50.981 38.387,50.837 38.323,50.703 L38.323,49.896 C38.626,50.212 39.051,50.411 39.524,50.411 C40.443,50.411 41.191,49.663 41.191,48.744 L41.191,47.857 C41.53,47.824 41.859,47.758 42.178,47.665 L43.229,49.111 C43.258,49.261 43.292,49.405 43.376,49.543 C43.418,49.611 43.676,50.036 43.863,50.345 C43.912,50.447 43.97,50.547 44.039,50.642 L44.071,50.686 C42.416,51.64 40.556,52.275 38.568,52.486 Z M50.622,44.478 C50.673,44.362 50.726,44.249 50.774,44.132 C50.822,44.016 50.859,43.896 50.904,43.779 C51.082,43.314 51.236,42.839 51.368,42.351 C51.4,42.232 51.432,42.111 51.461,41.989 C51.491,41.867 51.529,41.748 51.555,41.624 C51.773,40.614 51.895,39.569 51.895,38.495 C51.895,37.421 51.773,36.376 51.556,35.366 C51.529,35.243 51.492,35.124 51.462,35.002 C51.432,34.881 51.401,34.759 51.368,34.639 C51.237,34.153 51.082,33.677 50.904,33.21 C50.859,33.093 50.823,32.973 50.775,32.858 C50.727,32.741 50.674,32.628 50.623,32.513 C49.764,30.575 48.5,28.861 46.94,27.465 C46.846,27.381 46.757,27.292 46.661,27.21 C46.565,27.129 46.471,27.047 46.373,26.968 C45.984,26.653 45.578,26.361 45.158,26.086 C45.053,26.018 44.943,25.956 44.837,25.89 C44.73,25.824 44.624,25.758 44.515,25.695 C42.733,24.654 40.724,23.962 38.571,23.744 C38.448,23.732 38.321,23.735 38.196,23.725 C38.072,23.716 37.946,23.713 37.821,23.707 C37.571,23.695 37.323,23.669 37.069,23.669 C36.816,23.669 36.569,23.695 36.319,23.707 C36.194,23.713 36.069,23.716 35.944,23.725 C35.82,23.735 35.693,23.732 35.569,23.744 C33.418,23.962 31.409,24.653 29.627,25.693 C29.518,25.757 29.412,25.823 29.305,25.889 C29.199,25.954 29.089,26.015 28.984,26.084 C28.564,26.359 28.157,26.652 27.768,26.967 C27.67,27.046 27.576,27.128 27.48,27.208 C27.384,27.29 27.294,27.378 27.201,27.462 C25.642,28.859 24.376,30.573 23.517,32.511 C23.466,32.626 23.413,32.739 23.365,32.856 C23.317,32.971 23.281,33.093 23.236,33.208 C23.057,33.674 22.903,34.15 22.771,34.636 C22.739,34.757 22.708,34.879 22.678,35.001 C22.648,35.122 22.611,35.241 22.584,35.365 C22.366,36.374 22.245,37.42 22.245,38.495 C22.245,39.568 22.366,40.612 22.583,41.622 C22.61,41.744 22.647,41.863 22.677,41.986 C22.707,42.107 22.738,42.228 22.771,42.349 C22.902,42.836 23.056,43.312 23.235,43.777 C23.279,43.893 23.316,44.015 23.364,44.13 C23.412,44.245 23.464,44.36 23.515,44.474 C24.375,46.414 25.64,48.128 27.199,49.524 C27.293,49.608 27.382,49.696 27.478,49.778 C27.574,49.859 27.669,49.941 27.766,50.02 C28.155,50.335 28.562,50.628 28.982,50.902 C29.087,50.971 29.197,51.032 29.303,51.098 C29.41,51.163 29.516,51.23 29.625,51.293 C31.406,52.334 33.415,53.025 35.566,53.243 C35.69,53.255 35.817,53.252 35.941,53.261 C36.066,53.271 36.191,53.274 36.316,53.281 C36.567,53.293 36.815,53.319 37.069,53.319 C37.322,53.319 37.569,53.293 37.818,53.281 C37.943,53.274 38.069,53.272 38.193,53.261 C38.318,53.252 38.445,53.255 38.568,53.243 C40.72,53.026 42.73,52.335 44.512,51.294 C44.621,51.232 44.727,51.165 44.833,51.098 C44.94,51.033 45.05,50.972 45.155,50.903 C45.576,50.629 45.982,50.336 46.371,50.021 C46.469,49.943 46.564,49.861 46.66,49.779 C46.755,49.697 46.845,49.61 46.938,49.526 C48.498,48.129 49.763,46.416 50.622,44.478 Z" id="Fill-21"></path>
            <path d="M25.84,27.757 C25.971,27.757 26.094,27.706 26.187,27.613 C26.28,27.52 26.332,27.397 26.332,27.265 C26.332,27.135 26.28,27.011 26.187,26.92 C26.002,26.733 25.679,26.734 25.494,26.92 C25.401,27.011 25.35,27.135 25.35,27.265 C25.35,27.397 25.401,27.52 25.494,27.613 C25.586,27.706 25.709,27.757 25.84,27.757" id="Fill-22"></path>
            <path d="M47.949,49.376 C47.759,49.567 47.759,49.878 47.95,50.07 C48.043,50.162 48.167,50.215 48.297,50.215 C48.428,50.215 48.551,50.162 48.645,50.069 C48.836,49.878 48.836,49.567 48.644,49.374 C48.457,49.191 48.138,49.19 47.949,49.376" id="Fill-23"></path>
            <path d="M21.462,35.526 C21.191,35.483 20.943,35.669 20.901,35.932 C20.88,36.062 20.911,36.192 20.988,36.299 C21.064,36.405 21.178,36.473 21.308,36.495 C21.334,36.498 21.359,36.5 21.385,36.5 C21.627,36.5 21.831,36.327 21.87,36.087 C21.891,35.958 21.859,35.827 21.782,35.721 C21.705,35.615 21.591,35.546 21.462,35.526" id="Fill-24"></path>
            <path d="M52.676,41.463 C52.702,41.467 52.728,41.469 52.753,41.469 C52.996,41.469 53.2,41.295 53.238,41.054 C53.279,40.786 53.095,40.536 52.829,40.495 C52.562,40.451 52.309,40.64 52.268,40.901 C52.226,41.166 52.408,41.419 52.676,41.463" id="Fill-25"></path>
            <path d="M22.698,45.265 C22.581,45.325 22.495,45.427 22.454,45.552 C22.414,45.677 22.424,45.81 22.484,45.925 C22.567,46.091 22.735,46.195 22.922,46.195 C22.999,46.195 23.075,46.177 23.144,46.14 C23.383,46.018 23.479,45.721 23.358,45.48 C23.237,45.246 22.932,45.146 22.698,45.265" id="Fill-26"></path>
            <path d="M51.217,31.775 C51.294,31.775 51.372,31.757 51.439,31.722 C51.557,31.662 51.644,31.561 51.685,31.436 C51.726,31.312 51.715,31.179 51.655,31.062 C51.535,30.827 51.227,30.729 50.995,30.848 C50.878,30.907 50.792,31.008 50.751,31.132 C50.71,31.258 50.721,31.39 50.781,31.508 C50.864,31.673 51.031,31.775 51.217,31.775" id="Fill-27"></path>
            <path d="M30.082,52.206 C29.847,52.086 29.542,52.187 29.424,52.419 C29.364,52.536 29.353,52.67 29.394,52.795 C29.434,52.92 29.521,53.021 29.637,53.079 C29.706,53.114 29.783,53.133 29.86,53.133 C30.046,53.133 30.213,53.03 30.297,52.864 C30.357,52.746 30.367,52.614 30.327,52.489 C30.286,52.365 30.199,52.264 30.082,52.206" id="Fill-28"></path>
            <path d="M44.056,24.783 C44.125,24.818 44.201,24.836 44.277,24.836 C44.462,24.836 44.63,24.733 44.715,24.569 C44.775,24.451 44.785,24.319 44.745,24.195 C44.705,24.07 44.618,23.968 44.501,23.908 C44.265,23.788 43.961,23.889 43.841,24.122 C43.718,24.363 43.814,24.659 44.056,24.783" id="Fill-29"></path>
            <path d="M39.476,53.693 C39.208,53.737 39.026,53.989 39.068,54.254 C39.106,54.494 39.31,54.668 39.553,54.668 C39.578,54.668 39.604,54.666 39.629,54.661 C39.758,54.641 39.872,54.573 39.949,54.468 C40.026,54.361 40.058,54.232 40.038,54.1 C39.995,53.835 39.748,53.65 39.476,53.693" id="Fill-30"></path>
            <path d="M34.585,23.301 C34.61,23.301 34.636,23.299 34.662,23.295 C34.791,23.274 34.905,23.204 34.982,23.099 C35.059,22.992 35.09,22.863 35.069,22.734 C35.027,22.47 34.795,22.283 34.507,22.325 C34.241,22.369 34.058,22.62 34.1,22.887 C34.139,23.127 34.342,23.301 34.585,23.301" id="Fill-31"></path>
            <path d="M22.698,31.722 C22.767,31.757 22.844,31.775 22.921,31.775 C23.106,31.775 23.273,31.673 23.359,31.507 C23.48,31.265 23.383,30.969 23.145,30.848 C22.911,30.728 22.603,30.828 22.484,31.062 C22.424,31.179 22.414,31.312 22.455,31.437 C22.495,31.561 22.582,31.662 22.698,31.722" id="Fill-32"></path>
            <path d="M51.44,45.266 C51.208,45.146 50.899,45.248 50.781,45.48 C50.658,45.72 50.753,46.016 50.995,46.141 C51.063,46.177 51.14,46.195 51.216,46.195 C51.402,46.195 51.57,46.091 51.655,45.926 C51.715,45.81 51.726,45.677 51.685,45.551 C51.644,45.427 51.557,45.325 51.44,45.266" id="Fill-33"></path>
            <path d="M21.308,40.494 C21.178,40.515 21.064,40.584 20.988,40.69 C20.911,40.796 20.88,40.926 20.901,41.055 C20.939,41.295 21.142,41.469 21.385,41.469 C21.41,41.469 21.436,41.467 21.463,41.463 C21.73,41.419 21.912,41.166 21.87,40.9 C21.827,40.635 21.573,40.451 21.308,40.494" id="Fill-34"></path>
            <path d="M52.752,36.5 C52.777,36.5 52.803,36.498 52.829,36.495 C53.096,36.452 53.279,36.201 53.238,35.933 C53.195,35.668 52.941,35.483 52.676,35.526 C52.547,35.546 52.434,35.615 52.356,35.721 C52.279,35.827 52.248,35.957 52.268,36.086 C52.305,36.323 52.513,36.5 52.752,36.5" id="Fill-35"></path>
            <path d="M25.494,49.376 C25.303,49.566 25.303,49.878 25.494,50.069 C25.586,50.162 25.709,50.215 25.84,50.215 C25.971,50.215 26.094,50.162 26.187,50.07 C26.28,49.976 26.332,49.854 26.332,49.723 C26.332,49.591 26.28,49.467 26.187,49.374 C26.001,49.191 25.68,49.19 25.494,49.376" id="Fill-36"></path>
            <path d="M48.297,27.757 C48.428,27.757 48.551,27.706 48.644,27.613 C48.737,27.52 48.789,27.397 48.789,27.265 C48.789,27.135 48.737,27.011 48.645,26.92 C48.458,26.733 48.135,26.733 47.95,26.92 C47.857,27.011 47.807,27.135 47.807,27.265 C47.807,27.397 47.857,27.52 47.95,27.613 C48.043,27.706 48.167,27.757 48.297,27.757" id="Fill-37"></path>
            <path d="M34.662,53.693 C34.385,53.65 34.142,53.836 34.1,54.1 C34.08,54.232 34.111,54.361 34.189,54.468 C34.266,54.573 34.379,54.641 34.508,54.661 C34.534,54.666 34.56,54.668 34.585,54.668 C34.827,54.668 35.031,54.495 35.069,54.255 C35.09,54.125 35.059,53.995 34.981,53.888 C34.904,53.783 34.791,53.713 34.662,53.693" id="Fill-38"></path>
            <path d="M39.476,23.295 C39.502,23.299 39.527,23.301 39.553,23.301 C39.795,23.301 39.999,23.128 40.038,22.888 C40.058,22.757 40.026,22.628 39.948,22.52 C39.871,22.414 39.758,22.345 39.629,22.325 C39.352,22.285 39.11,22.471 39.069,22.733 C39.048,22.862 39.079,22.991 39.155,23.096 C39.232,23.203 39.346,23.274 39.476,23.295" id="Fill-39"></path>
            <path d="M44.056,52.206 C43.938,52.265 43.852,52.366 43.811,52.491 C43.771,52.615 43.782,52.748 43.841,52.865 C43.926,53.03 44.093,53.133 44.279,53.133 C44.355,53.133 44.432,53.114 44.5,53.079 C44.617,53.021 44.703,52.92 44.744,52.796 C44.786,52.671 44.775,52.537 44.715,52.418 C44.595,52.187 44.292,52.086 44.056,52.206" id="Fill-40"></path>
            <path d="M29.861,24.836 C29.937,24.836 30.014,24.817 30.082,24.783 C30.323,24.66 30.42,24.364 30.297,24.122 C30.178,23.888 29.872,23.788 29.637,23.908 C29.52,23.968 29.433,24.07 29.393,24.195 C29.353,24.319 29.364,24.452 29.423,24.568 C29.507,24.733 29.675,24.836 29.861,24.836" id="Fill-41"></path>
            <path d="M34.364,32.38 L39.964,32.38 C40.056,32.38 40.144,32.397 40.233,32.408 C40.38,32.428 40.523,32.462 40.66,32.51 C41.054,32.65 41.397,32.9 41.659,33.225 C41.749,33.337 41.827,33.456 41.895,33.582 C41.966,33.715 42.024,33.854 42.068,34 C42.13,34.205 42.173,34.418 42.173,34.641 C42.173,34.898 42.12,35.141 42.038,35.37 C42.019,35.421 42.004,35.473 41.982,35.523 C41.935,35.627 41.88,35.726 41.818,35.821 C41.807,35.837 41.799,35.854 41.789,35.87 C41.674,36.035 41.531,36.178 41.376,36.307 C41.359,36.321 41.342,36.336 41.325,36.348 C41.159,36.478 40.978,36.589 40.779,36.667 C40.664,36.712 40.545,36.752 40.421,36.777 C40.334,36.795 40.243,36.799 40.152,36.806 C40.115,36.81 40.078,36.816 40.04,36.818 C40.014,36.819 39.99,36.825 39.964,36.825 L33.773,36.825 L33.773,32.38 L34.364,32.38 Z M33.398,37.575 L39.964,37.575 C40.071,37.575 40.172,37.555 40.276,37.544 C40.403,37.531 40.53,37.515 40.652,37.487 C40.775,37.458 40.894,37.42 41.01,37.376 C41.526,37.181 41.968,36.848 42.3,36.421 C42.377,36.322 42.446,36.219 42.51,36.111 C42.532,36.075 42.551,36.036 42.571,36 C42.612,35.924 42.66,35.853 42.693,35.774 C42.723,35.704 42.737,35.628 42.761,35.556 C42.807,35.42 42.848,35.281 42.873,35.135 C42.901,34.973 42.923,34.811 42.923,34.641 C42.923,34.101 42.765,33.597 42.508,33.153 C42.441,33.035 42.367,32.925 42.285,32.817 C42.206,32.715 42.129,32.61 42.039,32.517 C41.8,32.277 41.519,32.082 41.213,31.932 C41.101,31.877 40.983,31.833 40.863,31.793 C40.731,31.748 40.599,31.708 40.46,31.682 C40.298,31.653 40.133,31.63 39.964,31.63 L33.398,31.63 C33.33,31.63 33.269,31.653 33.213,31.686 C33.102,31.75 33.023,31.867 33.023,32.005 L33.023,37.2 C33.023,37.288 33.058,37.367 33.11,37.431 C33.179,37.516 33.28,37.575 33.398,37.575 Z" id="Fill-42"></path>
            <path d="M42.42,43.637 C42.338,43.748 42.246,43.85 42.144,43.945 C42.049,44.031 41.948,44.112 41.838,44.181 C41.51,44.388 41.122,44.509 40.7,44.521 C40.678,44.522 40.658,44.527 40.636,44.527 L33.773,44.527 L33.773,40.16 L40.662,40.16 C40.718,40.16 40.771,40.173 40.827,40.177 C41.302,40.213 41.731,40.399 42.073,40.691 C42.155,40.761 42.23,40.836 42.3,40.916 C42.317,40.934 42.333,40.954 42.349,40.973 C42.428,41.071 42.498,41.174 42.559,41.283 C42.58,41.32 42.601,41.357 42.62,41.395 C42.687,41.532 42.741,41.677 42.778,41.828 C42.818,41.994 42.846,42.166 42.846,42.344 C42.846,42.834 42.686,43.277 42.42,43.637 Z M43.49,41.606 C43.455,41.472 43.42,41.337 43.367,41.211 C43.297,41.045 43.21,40.888 43.113,40.739 C43.039,40.627 42.951,40.525 42.862,40.425 C42.762,40.31 42.654,40.204 42.538,40.107 C42.125,39.761 41.622,39.528 41.063,39.451 C40.937,39.432 40.812,39.412 40.681,39.411 C40.675,39.411 40.668,39.41 40.662,39.41 L33.398,39.41 C33.279,39.41 33.178,39.469 33.109,39.555 C33.058,39.619 33.023,39.697 33.023,39.785 L33.023,44.903 C33.023,44.907 33.026,44.911 33.026,44.916 C33.032,45.061 33.118,45.184 33.243,45.241 C33.291,45.263 33.342,45.277 33.398,45.277 L40.636,45.277 C40.723,45.277 40.804,45.26 40.889,45.253 C41.033,45.241 41.175,45.228 41.312,45.197 C41.661,45.119 41.986,44.985 42.273,44.799 C42.376,44.731 42.468,44.65 42.562,44.57 C42.661,44.487 42.754,44.4 42.841,44.303 C43.307,43.786 43.596,43.108 43.596,42.344 C43.596,42.223 43.574,42.108 43.56,41.991 C43.544,41.859 43.523,41.732 43.49,41.606 Z" id="Fill-43"></path>
            <path d="M65.143,27.716 C65.268,27.716 65.377,27.805 65.402,27.928 C65.417,27.998 65.403,28.069 65.364,28.128 C65.327,28.182 65.27,28.216 65.207,28.233 C65.203,28.234 65.198,28.232 65.193,28.233 C65.188,28.234 65.184,28.237 65.179,28.239 C65.041,28.257 64.91,28.169 64.882,28.033 C64.853,27.89 64.946,27.75 65.143,27.716 Z M63.855,32.263 C63.842,32.238 63.825,32.215 63.813,32.188 C63.728,31.998 63.504,31.916 63.317,32 C63.128,32.085 63.044,32.307 63.129,32.495 C63.613,33.57 64.661,34.228 65.8,34.228 C65.998,34.228 66.197,34.208 66.397,34.168 C67.754,33.892 68.724,32.735 68.756,31.354 C68.761,31.147 68.597,30.974 68.39,30.97 C68.194,30.965 68.011,31.13 68.006,31.337 C68.005,31.366 67.998,31.393 67.997,31.423 C67.942,32.272 67.391,33.018 66.609,33.326 L65.915,29.904 L66.783,29.728 C66.986,29.686 67.117,29.489 67.076,29.285 C67.035,29.082 66.837,28.951 66.634,28.992 L65.766,29.169 L65.697,28.829 C65.811,28.755 65.911,28.659 65.989,28.542 C66.139,28.316 66.191,28.045 66.138,27.779 C66.028,27.242 65.499,26.874 64.94,26.986 C64.391,27.097 64.036,27.634 64.147,28.182 C64.23,28.593 64.56,28.889 64.959,28.965 L65.031,29.319 L64.162,29.495 C63.959,29.535 63.828,29.733 63.869,29.936 C63.905,30.114 64.061,30.237 64.236,30.237 C64.261,30.237 64.286,30.235 64.311,30.229 L65.18,30.053 L65.874,33.475 C65.037,33.496 64.238,33.025 63.855,32.263 Z" id="Fill-44"></path>
            <path d="M9.035,27.72 C9.04,27.72 9.045,27.721 9.05,27.721 C9.193,27.75 9.286,27.89 9.256,28.034 C9.231,28.157 9.123,28.246 8.998,28.246 L8.974,28.244 C8.964,28.241 8.956,28.235 8.946,28.233 C8.941,28.232 8.936,28.234 8.931,28.233 C8.868,28.216 8.812,28.182 8.775,28.128 C8.736,28.069 8.722,27.998 8.736,27.928 C8.76,27.808 8.864,27.72 9.035,27.72 Z M7.529,33.326 C6.748,33.018 6.197,32.272 6.142,31.423 C6.141,31.393 6.133,31.366 6.133,31.337 C6.128,31.13 5.97,30.966 5.749,30.97 C5.542,30.974 5.378,31.147 5.383,31.354 C5.415,32.735 6.384,33.892 7.741,34.168 C7.941,34.208 8.141,34.228 8.338,34.228 C9.477,34.228 10.525,33.57 11.009,32.495 C11.094,32.307 11.01,32.085 10.821,32 C10.633,31.916 10.411,31.998 10.326,32.188 C10.314,32.215 10.296,32.238 10.283,32.263 C9.902,33.025 9.103,33.496 8.265,33.474 L8.959,30.053 L9.828,30.229 C9.853,30.235 9.878,30.237 9.903,30.237 C10.077,30.237 10.234,30.114 10.27,29.936 C10.311,29.733 10.18,29.535 9.977,29.495 L9.108,29.319 L9.18,28.965 C9.579,28.889 9.909,28.593 9.992,28.182 C10.103,27.634 9.748,27.097 9.199,26.986 C8.643,26.874 8.11,27.242 8.001,27.779 C7.947,28.045 8,28.316 8.15,28.542 C8.228,28.659 8.328,28.755 8.442,28.829 L8.373,29.169 L7.505,28.992 C7.303,28.951 7.104,29.082 7.063,29.285 C7.021,29.489 7.153,29.686 7.356,29.728 L8.224,29.904 L7.529,33.326 Z" id="Fill-45"></path>
        </g>
    </g>
</svg>