<?xml version="1.0" encoding="UTF-8"?>
<svg width="72px" height="65px" viewBox="0 0 72 65" version="1.1" xmlns="http://www.w3.org/2000/svg" xmlns:xlink="http://www.w3.org/1999/xlink">
    <!-- Generator: Sketch 49 (51002) - http://www.bohemiancoding.com/sketch -->
    <title>bitcoin-grey-31</title>
    <desc>Created with Sketch.</desc>
    <defs></defs>
    <g id="Page-1" stroke="none" stroke-width="1" fill="none" fill-rule="evenodd">
        <g id="bitcoin-grey-31" fill="#000000">
            <path d="M36.83,54.876 C25.127,54.876 15.606,45.356 15.606,33.653 C15.606,21.95 25.127,12.429 36.83,12.429 C48.533,12.429 58.054,21.95 58.054,33.653 C58.054,45.356 48.533,54.876 36.83,54.876 Z M36.83,11.679 C24.714,11.679 14.856,21.536 14.856,33.653 C14.856,45.769 24.714,55.626 36.83,55.626 C48.946,55.626 58.804,45.769 58.804,33.653 C58.804,21.536 48.946,11.679 36.83,11.679 Z" id="Fill-1"></path>
            <path d="M63.685,37.297 L66.158,22.79 C66.564,20.408 68.414,18.613 70.46,18.613 C70.653,18.613 70.847,18.629 71.043,18.661 L67.283,40.723 L65.508,40.422 C64.246,40.207 63.428,38.805 63.685,37.297 Z M64.415,41.168 C64.511,41.1 64.624,41.064 64.742,41.064 C64.773,41.064 64.805,41.067 64.837,41.072 L67.156,41.468 L64.279,58.354 C64.169,59.003 63.554,59.454 62.886,59.342 L62.495,59.275 C62.149,59.216 61.847,59.025 61.644,58.739 C61.44,58.452 61.361,58.104 61.42,57.758 L64.184,41.535 C64.21,41.385 64.291,41.256 64.415,41.168 Z M71.781,18.136 C71.724,18.055 71.636,18.001 71.538,17.985 L71.179,17.924 C68.507,17.469 65.932,19.656 65.419,22.663 L62.946,37.171 C62.718,38.509 63.192,39.774 64.062,40.52 C64.037,40.535 64.006,40.538 63.981,40.556 C63.694,40.759 63.504,41.062 63.445,41.408 L60.681,57.633 C60.588,58.176 60.712,58.723 61.032,59.173 C61.351,59.623 61.826,59.922 62.369,60.014 L62.76,60.081 C62.872,60.1 62.981,60.109 63.09,60.109 C64.047,60.109 64.857,59.424 65.018,58.48 L67.959,41.224 C67.959,41.223 67.958,41.223 67.959,41.221 C67.959,41.22 67.96,41.22 67.96,41.219 L71.845,18.417 C71.862,18.319 71.839,18.217 71.781,18.136 Z" id="Fill-2"></path>
            <path d="M6.394,35.642 C6.395,35.641 6.397,35.642 6.399,35.641 L7.743,35.425 C7.746,35.425 7.749,35.423 7.752,35.423 L7.801,35.415 L8.576,40.217 L7.118,40.452 L6.342,35.651 L6.394,35.642 Z M1.804,19.703 L2.129,19.65 L3.507,28.177 C3.537,28.361 3.696,28.491 3.876,28.491 C3.896,28.491 3.917,28.49 3.937,28.486 C4.141,28.453 4.28,28.261 4.247,28.056 L2.869,19.531 L4.093,19.333 L5.47,27.861 C5.5,28.044 5.659,28.175 5.839,28.175 C5.859,28.175 5.879,28.174 5.899,28.17 C6.104,28.137 6.243,27.944 6.21,27.74 L4.833,19.214 L6.056,19.016 L7.434,27.543 C7.463,27.727 7.623,27.858 7.803,27.858 C7.823,27.858 7.843,27.856 7.864,27.853 C8.068,27.821 8.207,27.628 8.174,27.423 L6.796,18.897 L7.09,18.85 C7.14,18.842 7.188,18.838 7.237,18.838 C7.685,18.838 8.06,19.159 8.132,19.602 L10.029,31.352 C10.153,32.118 9.972,32.887 9.518,33.516 C9.066,34.142 8.398,34.555 7.636,34.681 C7.632,34.682 7.628,34.684 7.624,34.684 L6.28,34.902 C6.277,34.903 6.273,34.903 6.27,34.903 C6.116,34.927 5.963,34.94 5.813,34.94 C4.381,34.94 3.176,33.911 2.947,32.494 L1.05,20.744 C0.97,20.251 1.309,19.783 1.804,19.703 Z M11.067,60.159 C10.138,60.31 9.282,59.674 9.134,58.763 L6.419,41.958 C6.394,41.799 6.433,41.632 6.526,41.499 C6.528,41.496 6.528,41.494 6.529,41.493 C6.613,41.378 6.734,41.305 6.869,41.266 C6.893,41.26 6.913,41.245 6.938,41.241 L7.237,41.193 L8.696,40.958 L8.996,40.909 C9.02,40.906 9.044,40.905 9.067,40.904 C9.077,40.903 9.087,40.901 9.097,40.901 C9.236,40.901 9.363,40.951 9.467,41.029 C9.593,41.124 9.686,41.261 9.713,41.427 L12.433,58.267 C12.503,58.702 12.4,59.139 12.142,59.495 C11.884,59.853 11.502,60.089 11.067,60.159 Z M10.453,41.307 C10.358,40.717 9.897,40.274 9.33,40.177 L8.526,35.2 C9.161,34.946 9.716,34.524 10.126,33.956 C10.697,33.164 10.926,32.196 10.77,31.232 L8.872,19.482 C8.729,18.588 7.892,17.961 6.971,18.11 L6.31,18.216 C6.309,18.216 6.308,18.216 6.306,18.216 C6.305,18.216 6.304,18.217 6.303,18.217 L1.684,18.962 C0.78,19.109 0.164,19.962 0.31,20.864 L2.207,32.615 C2.482,34.319 3.886,35.564 5.585,35.669 L6.391,40.659 C6.21,40.757 6.046,40.882 5.921,41.054 C5.706,41.352 5.62,41.716 5.679,42.077 L8.394,58.884 C8.586,60.069 9.596,60.931 10.795,60.931 C10.924,60.931 11.055,60.921 11.187,60.899 C11.82,60.797 12.375,60.454 12.75,59.936 C13.125,59.416 13.275,58.781 13.173,58.148 L10.453,41.307 Z" id="Fill-3"></path>
            <path d="M50.228,34.532 C49.614,35.83 48.917,37.078 48.151,38.248 C44.523,43.781 39.479,47.599 35.757,47.146 C31.219,46.591 26.247,39.383 24.674,31.075 C24.219,28.67 24.448,26.451 25.31,24.527 C25.529,24.038 25.785,23.567 26.087,23.119 C26.264,22.857 26.446,22.598 26.651,22.35 C26.845,22.117 27.062,21.904 27.277,21.69 C29.51,19.451 32.842,18.217 36.795,18.217 C37.6,18.217 38.434,18.27 39.273,18.371 C44.36,18.993 48.377,21.318 50.295,24.75 C51.575,27.042 51.814,29.703 51.044,32.392 C50.87,33 50.662,33.608 50.384,34.215 C50.335,34.322 50.278,34.425 50.228,34.532 Z M34.613,49.052 C30.073,48.496 25.102,41.287 23.532,32.982 C23.157,31.004 23.25,29.154 23.769,27.487 C23.645,28.681 23.694,29.932 23.937,31.215 C25.566,39.819 30.828,47.3 35.667,47.89 C35.894,47.918 36.125,47.931 36.36,47.931 C38.241,47.931 40.337,47.068 42.403,45.577 C39.731,47.969 36.916,49.332 34.613,49.052 Z M50.949,24.385 C48.914,20.74 44.691,18.278 39.364,17.628 C38.495,17.521 37.63,17.467 36.795,17.467 C32.235,17.467 28.427,19.031 26.074,21.872 C25.504,22.56 25.045,23.319 24.678,24.124 C22.83,26.56 22.152,29.73 22.794,33.121 C24.421,41.724 29.682,49.204 34.522,49.796 C34.749,49.824 34.979,49.838 35.214,49.838 C39.517,49.838 45.145,45.105 48.748,38.715 C49.604,37.407 50.389,36.003 51.065,34.527 C52.68,31.011 52.639,27.408 50.949,24.385 Z" id="Fill-4"></path>
            <path d="M40.986,27.237 C41.133,28.58 40.392,29.768 39.333,29.885 L34.537,30.417 L34,25.544 L38.801,25.015 C39.848,24.898 40.839,25.916 40.986,27.237 Z M38.719,24.27 L33.545,24.84 C33.339,24.862 33.19,25.048 33.213,25.253 L33.833,30.871 C33.843,30.971 33.893,31.061 33.971,31.124 C34.038,31.177 34.12,31.206 34.205,31.206 C34.219,31.206 34.232,31.204 34.246,31.203 L39.416,30.631 C40.885,30.469 41.923,28.909 41.731,27.155 C41.537,25.405 40.205,24.104 38.719,24.27 Z" id="Fill-5"></path>
            <path d="M43.314,34.467 C43.387,35.131 43.247,35.775 42.919,36.282 C42.606,36.764 42.16,37.06 41.662,37.115 L39.958,37.303 C39.943,37.303 39.928,37.305 39.913,37.308 L36.437,37.69 C36.43,37.691 36.422,37.692 36.415,37.694 L35.351,37.812 L34.815,32.936 L41.126,32.24 C42.195,32.124 43.169,33.144 43.314,34.467 Z M34.029,32.646 L34.647,38.265 C34.658,38.365 34.708,38.456 34.785,38.517 C34.852,38.571 34.935,38.6 35.02,38.6 C35.033,38.6 35.047,38.599 35.061,38.597 L40.02,38.052 C40.027,38.051 40.035,38.049 40.043,38.048 L41.744,37.861 C42.47,37.781 43.111,37.365 43.548,36.689 C43.97,36.038 44.151,35.22 44.059,34.385 C43.866,32.632 42.537,31.331 41.044,31.494 L34.36,32.233 C34.154,32.256 34.006,32.441 34.029,32.646 Z" id="Fill-6"></path>
            <path d="M38.502,44.864 L37.975,40.071 L38.958,39.963 L39.445,44.38 C39.124,44.569 38.809,44.73 38.502,44.864 Z M39.249,39.177 L37.52,39.366 C37.421,39.377 37.33,39.427 37.268,39.505 C37.206,39.582 37.177,39.681 37.188,39.781 L37.779,45.303 C37.779,45.305 37.771,45.353 37.771,45.356 C37.751,45.486 37.802,45.616 37.903,45.7 C37.971,45.757 38.056,45.785 38.142,45.785 C38.184,45.785 38.226,45.778 38.266,45.764 C38.833,45.565 39.43,45.273 40.041,44.897 C40.164,44.821 40.232,44.68 40.216,44.536 L39.663,39.509 C39.64,39.302 39.458,39.155 39.249,39.177 Z" id="Fill-7"></path>
            <path d="M36.775,20.159 L37.051,22.659 L36.067,22.766 L35.778,20.145 C35.87,20.139 35.974,20.14 36.068,20.136 C36.296,20.126 36.522,20.115 36.771,20.114 L36.775,20.159 Z M35.363,23.222 C35.374,23.321 35.423,23.411 35.501,23.473 C35.568,23.527 35.65,23.556 35.735,23.556 C35.749,23.556 35.763,23.555 35.776,23.553 L37.506,23.363 C37.712,23.34 37.86,23.155 37.837,22.949 L37.496,19.852 L37.479,19.698 C37.468,19.594 37.41,19.511 37.333,19.451 C37.27,19.403 37.195,19.365 37.11,19.364 L36.896,19.363 C36.581,19.363 36.286,19.37 36.002,19.384 C35.772,19.394 35.546,19.408 35.33,19.427 C35.23,19.436 35.137,19.485 35.073,19.564 C35.024,19.623 35.003,19.697 34.997,19.772 C34.995,19.796 34.988,19.819 34.991,19.841 L35.024,20.15 L35.363,23.222 Z" id="Fill-8"></path>
            <path d="M41.803,42.633 L41.477,39.686 L41.94,39.635 C44.387,39.365 46.132,36.922 45.832,34.189 C45.625,32.304 44.502,30.729 42.92,30.05 C43.416,29.123 43.623,28.043 43.503,26.96 C43.251,24.661 41.627,22.85 39.587,22.533 L39.362,20.485 L39.338,20.27 C40.834,20.457 42.209,20.813 43.44,21.304 C44.826,21.857 46.024,22.587 46.978,23.473 C47.555,24.011 48.047,24.602 48.436,25.244 C48.662,25.62 48.838,26.015 48.991,26.415 C49.722,28.331 49.626,30.501 48.669,32.773 C47.051,36.63 44.571,40.183 41.803,42.633 Z M49.667,26.081 C49.502,25.662 49.315,25.252 49.078,24.857 C47.298,21.907 43.607,19.945 38.952,19.471 C38.838,19.459 38.728,19.5 38.648,19.58 C38.642,19.587 38.64,19.596 38.634,19.603 C38.566,19.681 38.53,19.781 38.542,19.885 L38.551,19.967 L38.593,20.356 L38.875,22.911 C38.894,23.091 39.038,23.231 39.218,23.244 C41.043,23.388 42.532,24.986 42.758,27.042 C42.875,28.111 42.626,29.177 42.054,30.04 C41.989,30.139 41.974,30.263 42.014,30.374 C42.054,30.485 42.144,30.57 42.257,30.605 C43.76,31.067 44.896,32.54 45.086,34.272 C45.342,36.593 43.894,38.665 41.859,38.889 L41.022,38.981 C40.923,38.992 40.832,39.042 40.77,39.119 C40.708,39.197 40.679,39.296 40.69,39.396 L41.135,43.42 C41.15,43.556 41.239,43.674 41.367,43.725 C41.412,43.744 41.46,43.753 41.508,43.753 C41.593,43.753 41.678,43.723 41.746,43.668 C44.819,41.139 47.594,37.274 49.36,33.064 C49.845,31.914 50.122,30.784 50.204,29.693 C50.248,29.102 50.227,28.522 50.152,27.956 C50.068,27.311 49.904,26.686 49.667,26.081 Z" id="Fill-9"></path>
            <path d="M26.535,30.792 C25.889,27.88 26.433,25.332 28.108,23.424 C29.319,22.044 31.098,21.046 33.27,20.524 L33.548,23.045 L30.502,23.381 C30.166,23.418 29.864,23.583 29.653,23.847 C29.441,24.111 29.345,24.441 29.382,24.778 C29.458,25.467 30.07,25.976 30.78,25.899 L31.48,25.822 L32.832,38.088 L32.127,38.165 C31.433,38.243 30.931,38.87 31.008,39.564 C31.084,40.254 31.706,40.764 32.406,40.684 L35.455,40.348 L35.998,45.267 C32.866,44.526 28.213,38.319 26.535,30.792 Z M36.76,45.345 L36.159,39.894 C36.136,39.688 35.949,39.538 35.745,39.562 L32.265,39.942 C32.002,39.942 31.782,39.744 31.753,39.482 C31.722,39.199 31.927,38.942 32.209,38.911 L33.287,38.793 C33.386,38.782 33.477,38.732 33.539,38.655 C33.601,38.577 33.63,38.478 33.619,38.379 L32.184,25.367 C32.161,25.161 31.978,25.015 31.771,25.036 L30.641,25.157 C30.377,25.157 30.156,24.959 30.127,24.697 C30.113,24.558 30.152,24.424 30.238,24.316 C30.324,24.209 30.447,24.141 30.584,24.126 L34.003,23.749 C34.209,23.726 34.357,23.541 34.335,23.336 L33.988,20.201 L33.969,20.026 C33.962,19.96 33.934,19.903 33.896,19.85 C33.873,19.819 33.849,19.786 33.817,19.763 C33.731,19.701 33.625,19.677 33.52,19.699 C32.9,19.828 32.309,19.994 31.747,20.195 C30.828,20.52 29.994,20.94 29.253,21.441 C28.609,21.877 28.033,22.372 27.544,22.929 C25.705,25.024 25.103,27.799 25.803,30.954 C27.704,39.483 32.873,45.772 36.321,46.08 C36.333,46.081 36.371,46.082 36.382,46.082 L36.382,45.761 L36.394,45.755 L36.473,46.078 C36.608,46.086 36.734,46.019 36.806,45.906 C36.878,45.792 36.884,45.649 36.821,45.53 C36.787,45.466 36.767,45.403 36.76,45.345 Z" id="Fill-10"></path>
            <path d="M15.655,15.524 L16.962,14.052 C17.246,13.733 17.421,13.176 17.028,12.828 C16.573,12.423 16.104,12.719 15.769,13.096 L15.173,13.767 C14.95,14.018 14.753,14.302 14.67,14.649 L15.655,15.524 Z M14.088,14.133 C14.162,13.777 14.364,13.507 14.592,13.25 L15.188,12.579 C15.5,12.229 15.526,11.84 15.165,11.519 C14.793,11.189 14.453,11.318 14.15,11.658 L12.894,13.072 L14.088,14.133 Z M17.481,14.618 L15.723,16.597 L11.816,13.127 L13.575,11.146 C14.161,10.486 14.98,10.334 15.666,10.943 C16.002,11.241 16.183,11.618 16.125,11.978 C16.492,11.817 17.065,11.849 17.604,12.328 C18.379,13.016 18.059,13.968 17.481,14.618 Z" id="Fill-11"></path>
            <path d="M19.873,11.312 L22.447,9.384 L22.904,9.994 L19.72,12.378 L16.594,8.204 L19.531,6.003 L19.993,6.619 L17.664,8.363 L18.611,9.627 C18.754,9.293 19.005,9.079 19.279,8.874 L20.191,8.191 L20.656,8.812 L19.745,9.495 C19.476,9.696 19.228,9.926 19.077,10.248 L19.873,11.312" id="Fill-12"></path>
            <path d="M24.449,8.298 L27.355,6.909 L27.684,7.598 L24.089,9.316 L21.838,4.603 L25.154,3.018 L25.486,3.713 L22.858,4.968 L23.541,6.396 C23.746,6.096 24.034,5.936 24.343,5.787 L25.373,5.296 L25.709,5.996 L24.679,6.489 C24.375,6.633 24.087,6.81 23.875,7.097 L24.449,8.298" id="Fill-13"></path>
            <path d="M29.707,6.991 L28.969,7.183 L27.655,2.131 L31.21,1.207 L31.404,1.951 L28.587,2.684 L28.985,4.214 C29.244,3.959 29.557,3.856 29.889,3.77 L30.993,3.483 L31.188,4.235 L30.084,4.522 C29.759,4.606 29.443,4.725 29.181,4.966 L29.707,6.991" id="Fill-14"></path>
            <path d="M37.703,5.999 C36.905,5.99 36.084,5.589 35.566,4.904 L36.118,4.399 C36.388,4.731 36.893,5.227 37.712,5.236 C38.481,5.245 39.262,4.959 39.269,4.309 C39.278,3.51 38.487,3.502 37.731,3.493 C36.486,3.48 35.812,3.01 35.821,2.121 C35.831,1.274 36.645,0.492 37.764,0.505 C38.555,0.514 39.238,0.745 39.855,1.354 L39.373,1.909 C38.817,1.447 38.421,1.282 37.756,1.275 C37.168,1.268 36.674,1.668 36.668,2.124 C36.665,2.439 36.886,2.728 37.774,2.738 C39.602,2.758 40.064,3.33 40.053,4.317 C40.041,5.367 39.026,6.014 37.703,5.999" id="Fill-15"></path>
            <polyline id="Fill-16" points="44.149 2.135 43.266 6.499 42.539 6.352 43.422 1.988 41.597 1.619 41.75 0.864 46.106 1.745 45.954 2.501 44.149 2.135"></polyline>
            <path d="M47.118,6.804 L50.096,8.026 L49.806,8.732 L46.123,7.221 L48.104,2.391 L51.502,3.785 L51.21,4.497 L48.517,3.393 L47.917,4.855 C48.277,4.807 48.59,4.913 48.907,5.042 L49.962,5.475 L49.668,6.193 L48.612,5.761 C48.301,5.634 47.977,5.538 47.622,5.575 L47.118,6.804" id="Fill-17"></path>
            <path d="M54.464,9.881 L54.754,7.416 L52.398,8.838 C52.645,8.811 53.073,8.939 53.664,9.339 L54.464,9.881 Z M55.08,5.736 L55.775,6.206 L54.88,12.012 L54.173,11.534 L54.316,10.71 L53.001,9.82 C52.213,9.287 51.621,9.25 51.401,9.363 L51.154,9.492 L50.47,9.028 L54.957,6.43 L55.08,5.736 Z" id="Fill-18"></path>
            <path d="M56.203,13.314 L55.676,12.762 L59.447,9.15 L59.975,9.702 L57.159,12.399 L61.81,11.618 L62.444,12.28 L59.483,12.741 L59.117,14.391 C58.985,14.963 59.099,15.223 59.253,15.385 C59.263,15.395 59.277,15.409 59.287,15.42 L59.408,15.536 L58.847,16.073 C58.426,15.634 58.06,15.373 58.32,14.329 L58.688,12.882 L56.203,13.314" id="Fill-19"></path>
            <polyline id="Fill-20" points="18.59 63 19.158 63 19.158 63.4 18.59 63.4 18.59 64.555 18.15 64.555 18.15 61.757 19.314 61.757 19.314 62.156 18.59 62.156 18.59 63"></polyline>
            <path d="M20.53,63.911 C20.53,64.111 20.618,64.187 20.758,64.187 C20.898,64.187 20.986,64.111 20.986,63.911 L20.986,62.4 C20.986,62.2 20.898,62.124 20.758,62.124 C20.618,62.124 20.53,62.2 20.53,62.4 L20.53,63.911 Z M20.09,62.428 C20.09,61.98 20.326,61.724 20.758,61.724 C21.189,61.724 21.425,61.98 21.425,62.428 L21.425,63.883 C21.425,64.331 21.189,64.587 20.758,64.587 C20.326,64.587 20.09,64.331 20.09,63.883 L20.09,62.428 Z" id="Fill-21"></path>
            <path d="M22.75,62.156 L22.75,63.016 L22.922,63.016 C23.086,63.016 23.186,62.944 23.186,62.72 L23.186,62.444 C23.186,62.244 23.118,62.156 22.962,62.156 L22.75,62.156 Z M23.23,64.555 C23.206,64.483 23.19,64.439 23.19,64.211 L23.19,63.771 C23.19,63.511 23.102,63.415 22.902,63.415 L22.75,63.415 L22.75,64.555 L22.311,64.555 L22.311,61.757 L22.974,61.757 C23.43,61.757 23.625,61.968 23.625,62.4 L23.625,62.62 C23.625,62.908 23.534,63.096 23.338,63.188 C23.558,63.28 23.629,63.491 23.629,63.783 L23.629,64.215 C23.629,64.351 23.634,64.451 23.678,64.555 L23.23,64.555 Z" id="Fill-22"></path>
            <path d="M27.996,62.041 L27.996,63.757 L28.498,63.757 C28.793,63.757 28.953,63.621 28.953,63.206 L28.953,62.719 C28.953,62.201 28.786,62.041 28.386,62.041 L27.996,62.041 Z M27.996,59.767 L27.996,61.243 L28.338,61.243 C28.666,61.243 28.865,61.099 28.865,60.653 L28.865,60.341 C28.865,59.942 28.729,59.767 28.418,59.767 L27.996,59.767 Z M29.743,60.253 L29.743,60.453 C29.743,61.028 29.567,61.395 29.176,61.578 C29.647,61.762 29.831,62.185 29.831,62.775 L29.831,63.23 C29.831,64.092 29.376,64.555 28.498,64.555 L27.118,64.555 L27.118,58.969 L28.442,58.969 C29.352,58.969 29.743,59.392 29.743,60.253 Z" id="Fill-23"></path>
            <polygon id="Fill-24" points="31.554 64.555 32.432 64.555 32.432 58.969 31.554 58.969"></polygon>
            <polyline id="Fill-25" points="34.011 58.969 36.725 58.969 36.725 59.767 35.807 59.767 35.807 64.555 34.929 64.555 34.929 59.767 34.011 59.767 34.011 58.969"></polyline>
            <path d="M40.85,62.472 L40.85,63.214 C40.85,64.108 40.403,64.619 39.541,64.619 C38.679,64.619 38.232,64.108 38.232,63.214 L38.232,60.309 C38.232,59.415 38.679,58.905 39.541,58.905 C40.403,58.905 40.85,59.415 40.85,60.309 L40.85,60.852 L40.02,60.852 L40.02,60.253 C40.02,59.854 39.844,59.703 39.565,59.703 C39.286,59.703 39.11,59.854 39.11,60.253 L39.11,63.27 C39.11,63.669 39.286,63.813 39.565,63.813 C39.844,63.813 40.02,63.669 40.02,63.27 L40.02,62.472 L40.85,62.472" id="Fill-26"></path>
            <path d="M43.386,63.27 C43.386,63.669 43.562,63.821 43.841,63.821 C44.121,63.821 44.296,63.669 44.296,63.27 L44.296,60.253 C44.296,59.854 44.121,59.703 43.841,59.703 C43.562,59.703 43.386,59.854 43.386,60.253 L43.386,63.27 Z M42.509,60.309 C42.509,59.415 42.979,58.905 43.841,58.905 C44.703,58.905 45.174,59.415 45.174,60.309 L45.174,63.214 C45.174,64.108 44.703,64.619 43.841,64.619 C42.979,64.619 42.509,64.108 42.509,63.214 L42.509,60.309 Z" id="Fill-27"></path>
            <polygon id="Fill-28" points="46.937 64.555 47.815 64.555 47.815 58.969 46.937 58.969"></polygon>
            <polyline id="Fill-29" points="50.432 60.509 50.432 64.555 49.642 64.555 49.642 58.969 50.743 58.969 51.645 62.312 51.645 58.969 52.427 58.969 52.427 64.555 51.525 64.555 50.432 60.509"></polyline>
        </g>
    </g>
</svg>