<svg xmlns="http://www.w3.org/2000/svg" viewBox="0 0 68 63"><g fill="#000" fill-rule="evenodd"><path d="M18.831 46.998h-1.866v1.176h1.849a.542.542 0 00.228-.048.632.632 0 00.187-.125.576.576 0 00.175-.418.565.565 0 00-.17-.407.607.607 0 00-.403-.178zm.278-1.147a.457.457 0 00-.139-.335.459.459 0 00-.334-.139h-1.671v.953h1.671a.446.446 0 00.186-.039.518.518 0 00.151-.103.46.46 0 00.136-.337zm-.295 2.991h-2.953v-.668h.435v-2.797h-.435v-.668h2.775a1.127 1.127 0 01.807.334 1.127 1.127 0 01.334.808c0 .133-.021.26-.066.381s-.105.23-.179.326c.171.108.304.256.399.446.094.189.142.382.142.579a1.2 1.2 0 01-.1.49 1.265 1.265 0 01-.674.672 1.228 1.228 0 01-.485.097zM23.6 48.842h-1.555v-.668h.44v-2.797h-.44v-.668h1.549v.668h-.44v2.797h.446v.668M26.207 45.873h-.613v-1.164h4.484v1.164h-.612l-.056-.496h-1.242v2.797h.439v.668h-1.548v-.668h.44v-2.797h-1.236l-.056.496M34.268 45.338c-.231 0-.443.035-.638.106a1.57 1.57 0 00-.507.295 1.381 1.381 0 00-.46 1.042 1.381 1.381 0 00.46 1.042c.143.126.312.225.507.295.195.071.407.106.638.106.304 0 .571-.053.799-.159a1.37 1.37 0 00.549-.443l.495.451c-.211.26-.477.462-.798.605-.322.143-.67.214-1.045.214-.297 0-.584-.049-.861-.147a2.257 2.257 0 01-.732-.424 2.058 2.058 0 01-.507-.665 1.968 1.968 0 01-.189-.875c0-.331.062-.627.189-.888.126-.262.295-.483.507-.664.211-.18.455-.318.732-.415a2.61 2.61 0 01.861-.144c.245 0 .459.016.64.047.182.032.341.072.477.12.136.048.251.101.345.158.095.058.179.111.253.159v.719h-.612l-.028-.29a2.07 2.07 0 00-.2-.108 1.175 1.175 0 00-.226-.078 1.817 1.817 0 00-.281-.045 4.342 4.342 0 00-.368-.014M40.134 45.338c-.231 0-.443.035-.638.106a1.57 1.57 0 00-.507.295 1.381 1.381 0 00-.46 1.042 1.381 1.381 0 00.46 1.042c.143.126.312.225.507.295.195.071.407.106.638.106.245 0 .466-.035.663-.106.197-.07.365-.169.504-.295.139-.126.247-.279.323-.457.076-.178.114-.373.114-.585 0-.212-.038-.407-.114-.585a1.306 1.306 0 00-.323-.457 1.494 1.494 0 00-.504-.295 1.946 1.946 0 00-.663-.106zm-2.289 1.443c0-.331.062-.627.189-.888.126-.262.295-.483.507-.664.211-.18.455-.318.732-.415a2.61 2.61 0 01.861-.144c.312 0 .606.048.883.144.277.097.519.235.727.415.208.181.373.402.495.664.123.261.185.557.185.888a2.005 2.005 0 01-.68 1.535c-.208.184-.45.326-.727.426-.277.1-.571.15-.883.15-.297 0-.584-.049-.861-.147a2.257 2.257 0 01-.732-.424 2.058 2.058 0 01-.507-.665 1.968 1.968 0 01-.189-.875zM45.994 48.842H44.44v-.668h.44v-2.797h-.44v-.668h1.548v.668h-.439v2.797h.445v.668M49.526 48.842h-1.544v-.668h.435v-2.797h-.435v-.668h1.678l1.515 3.465h.162v-2.797h-.441v-.668h1.549v.668h-.44v2.797h.44v.668h-1.676l-1.516-3.465h-.167v2.797h.44v.668M21.588 52.023c-.231 0-.442.036-.638.106a1.57 1.57 0 00-.507.295 1.384 1.384 0 00-.46 1.042 1.381 1.381 0 00.46 1.042c.143.126.312.225.507.295.196.071.407.106.638.106.305 0 .571-.053.8-.159.228-.106.411-.253.549-.443l.495.452c-.211.26-.478.461-.799.604a2.54 2.54 0 01-1.045.214c-.297 0-.584-.049-.86-.147a2.25 2.25 0 01-.733-.424 2.058 2.058 0 01-.507-.665 1.968 1.968 0 01-.189-.875c0-.331.062-.627.189-.888.126-.262.295-.483.507-.664.211-.179.455-.318.733-.414.276-.097.563-.145.86-.145.245 0 .459.016.641.047.181.032.34.072.476.12.136.048.251.101.346.159.095.057.178.11.253.158v.719h-.613l-.028-.29a1.958 1.958 0 00-.2-.108 1.152 1.152 0 00-.226-.078 1.797 1.797 0 00-.281-.045 4.325 4.325 0 00-.368-.014M26.919 52.062h-.439v2.797h2.266l.056-.496h.613v1.164h-4.039v-.668h.435v-2.797h-.435v-.668h1.543v.668M33.504 52.023c-.231 0-.442.036-.638.106a1.57 1.57 0 00-.507.295 1.369 1.369 0 00-.46 1.042 1.381 1.381 0 00.46 1.042c.143.126.312.225.507.295.196.071.407.106.638.106.245 0 .466-.035.663-.106.197-.07.365-.169.504-.295.14-.126.247-.279.323-.457.076-.178.114-.373.114-.585 0-.212-.038-.406-.114-.585a1.293 1.293 0 00-.323-.457 1.494 1.494 0 00-.504-.295 1.97 1.97 0 00-.663-.106zm-2.289 1.443c0-.331.062-.627.189-.888.126-.262.295-.483.507-.664.211-.179.455-.318.733-.414.276-.097.563-.145.86-.145.312 0 .606.048.883.145.277.096.519.235.727.414.208.181.373.402.495.664.123.261.185.557.185.888a2.005 2.005 0 01-.68 1.535c-.208.184-.45.326-.727.426-.277.1-.571.15-.883.15-.297 0-.584-.049-.86-.147a2.25 2.25 0 01-.733-.424 2.058 2.058 0 01-.507-.665 1.968 1.968 0 01-.189-.875zM42.145 52.062v1.41c0 .319-.045.609-.134.869-.09.26-.219.481-.388.665a1.688 1.688 0 01-.621.424 2.216 2.216 0 01-.83.147c-.297 0-.568-.049-.811-.147a1.75 1.75 0 01-.624-.424 1.912 1.912 0 01-.4-.665 2.537 2.537 0 01-.143-.875v-1.404h-.434v-.668h1.543v.668h-.44v1.404c0 .212.025.407.075.585.05.178.129.331.237.457.107.126.243.225.407.295.163.071.359.106.59.106.245 0 .45-.035.616-.106.165-.07.299-.169.4-.295a1.16 1.16 0 00.221-.457c.044-.178.067-.373.067-.585v-1.404h-.441v-.668h1.549v.668h-.439M47.029 54.859a1.427 1.427 0 001.006-.407 1.375 1.375 0 00.415-.997 1.36 1.36 0 00-.415-.989 1.433 1.433 0 00-1.006-.404h-1.342v2.797h1.342zm-2.445-3.465h2.445a2.104 2.104 0 011.46.582c.194.184.347.402.46.654.114.253.17.528.17.825 0 .279-.054.543-.159.794a2.07 2.07 0 01-1.931 1.278h-2.445v-.668h.435v-2.797h-.435v-.668zM24.025 58.747h-.439v2.797h.439v.668h-1.548v-.668h.44v-2.797h-.239l-1.009 3.465h-1.153l-1.002-3.465h-.245v2.797h.439v.668h-1.543v-.668h.435v-2.797h-.435v-.668h1.85l1.003 3.465h.15l1.008-3.465h1.849v.668M27.574 62.212H26.02v-.668h.44v-2.797h-.44v-.668h1.548v.668h-.439v2.797h.445v.668M31.106 62.212h-1.544v-.668h.435v-2.797h-.435v-.668h1.678l1.515 3.465h.162v-2.797h-.44v-.668h1.548v.668h-.44v2.797h.44v.668h-1.676l-1.516-3.465h-.167v2.797h.44v.668M37.574 62.212H36.02v-.668h.44v-2.797h-.44v-.668h1.548v.668h-.439v2.797h.445v.668M41.106 62.212h-1.543v-.668h.434v-2.797h-.434v-.668h1.677l1.515 3.465h.162v-2.797h-.44v-.668h1.548v.668h-.44v2.797h.44v.668h-1.676l-1.516-3.465h-.167v2.797h.44v.668M48.214 58.708c-.231 0-.443.036-.638.106a1.57 1.57 0 00-.507.295 1.384 1.384 0 00-.46 1.042 1.381 1.381 0 00.46 1.042c.143.126.312.225.507.295.195.071.407.106.638.106.241 0 .459-.033.652-.1s.36-.162.501-.284v-.674h-1.699v-.669h2.368v1.56a1.986 1.986 0 01-.78.618 2.49 2.49 0 01-1.042.217c-.297 0-.584-.049-.86-.147a2.233 2.233 0 01-.733-.424 2.047 2.047 0 01-.507-.665 1.968 1.968 0 01-.189-.875c0-.33.062-.627.189-.888.126-.262.295-.483.507-.663.211-.18.455-.319.733-.415.276-.097.563-.145.86-.145.245 0 .459.016.64.047.182.032.341.072.477.12.136.048.251.101.346.159.094.057.178.11.253.158v.719h-.613l-.028-.29a1.958 1.958 0 00-.2-.108 1.175 1.175 0 00-.226-.078 1.797 1.797 0 00-.281-.045 4.325 4.325 0 00-.368-.014M35.239 10.943a.375.375 0 00.508-.153l3.534-6.579a.375.375 0 10-.661-.355l-3.535 6.58a.375.375 0 00.154.507M30.1 10.114h.017a.375.375 0 00.374-.358l.418-9.395a.375.375 0 00-.358-.392.38.38 0 00-.391.358l-.418 9.396a.375.375 0 00.358.391M45.497 9.615a.374.374 0 00.22-.071l2.758-2.017a.376.376 0 00-.442-.606l-2.758 2.017a.375.375 0 00.222.677M38.681 14.224a.375.375 0 00.524.081l4.792-3.505a.374.374 0 10-.443-.605L38.762 13.7a.375.375 0 00-.081.524M43.778 18.735a.374.374 0 00.436.3l6.477-1.193a.374.374 0 10-.136-.737l-6.476 1.194a.373.373 0 00-.301.436M20.411 29.009l-4.929 3.464a.374.374 0 00-.09.522.373.373 0 00.522.092l4.929-3.466a.375.375 0 10-.432-.612M9.354 25.316a.423.423 0 00.07-.006l8.258-1.553a.376.376 0 00-.139-.737l-8.258 1.552a.376.376 0 00.069.744M10.256 16.374l6.722 1.816a.373.373 0 00.459-.265.375.375 0 00-.264-.46l-6.722-1.816a.375.375 0 00-.195.725M23.471 7.864a.374.374 0 00.493.193.374.374 0 00.194-.493l-1.689-3.876a.376.376 0 00-.494-.195.376.376 0 00-.194.494l1.69 3.877M20.382 13.37a.374.374 0 00.49-.567l-2.153-1.861a.375.375 0 10-.49.567l2.153 1.861M16.082 9.701a.375.375 0 00.481-.575l-4.273-3.57a.376.376 0 00-.48.576l4.272 3.569M28.326 17.015h2.347a1.633 1.633 0 01-.001 3.264h-3.45v-3.264h1.104zm-1.104 4.015h4.407c.9 0 1.633.732 1.633 1.631 0 .901-.733 1.634-1.633 1.634h-4.407V21.03zm-.75 3.265h-.866a.375.375 0 000 .75h2.345v1.741a.374.374 0 10.75 0v-1.741h1.464v1.741a.374.374 0 10.75 0v-1.741h.714a2.387 2.387 0 002.383-2.384 2.377 2.377 0 00-1.722-2.276 2.373 2.373 0 00.765-1.739c0-1.23-.941-2.234-2.14-2.358v-1.766a.375.375 0 00-.75 0v1.742h-1.464v-1.742a.375.375 0 00-.75 0v1.742h-2.345a.375.375 0 000 .751h.866v3.372a.372.372 0 000 .533v3.375z"/><path d="M29.619 12.104c4.974 0 9.021 4.047 9.021 9.02 0 .053-.008.104-.008.157a7.601 7.601 0 00-3.653 4.458 7.495 7.495 0 00-5.651 4.034 3.558 3.558 0 00-.466-.038c-.48 0-.949.049-1.404.135-3.931-.972-6.857-4.52-6.857-8.746 0-4.973 4.045-9.02 9.018-9.02zm23.341 25.48a5.645 5.645 0 00-4.616-2.402c-1.92 0-3.706.997-4.741 2.623-1.09-.457-2.208-.571-3.378-.289.052-.297.077-.579.077-.858 0-2.43-1.546-4.499-3.703-5.294.159-.813.945-1.41 1.838-1.211a.379.379 0 00.45-.3 3.055 3.055 0 013.006-2.512 3.07 3.07 0 012.857 1.991.374.374 0 00.617.132 2.192 2.192 0 011.565-.656c1.214 0 2.202.988 2.202 2.201a.375.375 0 10.75 0 2.955 2.955 0 00-2.952-2.951c-.616 0-1.202.188-1.696.537a3.823 3.823 0 00-3.343-2.004 3.806 3.806 0 00-3.664 2.778c-1.124-.064-2.104.723-2.351 1.78a5.648 5.648 0 00-1.221-.137c-3.01 0-5.477 2.367-5.631 5.405a5.652 5.652 0 00-1.28.422 2.229 2.229 0 00-1.282 2.208H23.51a1.47 1.47 0 01-1.468-1.389 6.546 6.546 0 01-.01-.343c0-3.277 2.319-6.018 5.401-6.677.461-.1.939-.153 1.429-.153.137 0 .267.018.397.036.084.011.169.023.254.03a.36.36 0 00.167-.036.364.364 0 00.208-.179c.034-.073.079-.139.115-.212a6.754 6.754 0 015.31-3.672.374.374 0 00.321-.274c.455-1.692 1.535-3.076 2.935-3.974.135-.086.263-.185.404-.262.123-.067.257-.114.384-.172a6.707 6.707 0 012.845-.654c3.074 0 5.777 2.09 6.574 5.082a.374.374 0 00.311.274c3.158.442 5.611 3.076 5.832 6.262.01.14.098.264.227.319 1.027.436 2.106 1.78 3.119 3.887.22.457.189.988-.082 1.419a1.462 1.462 0 01-1.245.688H53.34a2.22 2.22 0 00-.38-1.463zm-.513 1.981c-.044.086-.105.158-.164.232a1.48 1.48 0 01-1.164.574H28.703a1.478 1.478 0 01-1.373-.949c-.03-.075-.073-.141-.091-.222-.011-.052-.001-.101-.008-.153a1.481 1.481 0 01.834-1.53 4.887 4.887 0 011.382-.412c.184-.027.313-.261.313-.447a4.902 4.902 0 014.897-4.895c.464 0 .903.085 1.328.206.059.04.128.069.205.069l.012-.002c1.939.652 3.35 2.466 3.35 4.622 0 .402-.063.814-.198 1.3a.376.376 0 00.486.453c1.353-.475 2.554-.37 3.75.21a.375.375 0 00.492-.155 4.888 4.888 0 014.262-2.534c1.591 0 3.087.779 4.002 2.083.215.306.292.673.249 1.032a1.48 1.48 0 01-.097.375c-.018.047-.027.098-.051.143zm6.371-.806c.41-.651.455-1.453.122-2.145-1.044-2.172-2.151-3.568-3.292-4.153-.333-3.357-2.897-6.117-6.214-6.693-.961-3.193-3.9-5.402-7.232-5.402a7.45 7.45 0 00-2.822.577 9.645 9.645 0 00-.077-1.053c.028.007.05.029.08.029a.323.323 0 00.069-.007l2.929-.539a.374.374 0 10-.135-.738l-2.93.54a.343.343 0 00-.115.046c-.889-4.478-4.846-7.867-9.582-7.867-5.386 0-9.768 4.383-9.768 9.77 0 4.163 2.622 7.718 6.299 9.12-2.842 1.096-4.868 3.848-4.868 7.071 0 .129.004.258.011.384a2.22 2.22 0 002.217 2.098h3.146a2.23 2.23 0 002.047 1.324h22.416c.841 0 1.605-.463 1.993-1.21.019-.036.024-.077.042-.114h3.784c.768 0 1.471-.389 1.88-1.038zM59.106 51.585l7.158 5.47c.223.17.276.476.12.678a.453.453 0 01-.365.174.538.538 0 01-.323-.111l-7.159-5.473c.184-.25.374-.496.569-.738zm-1.603.893a21.751 21.751 0 00-2.175 4.018c-.261-1.119.061-2.988 1.132-4.816.063-.108.125-.216.194-.324.067-.103.142-.205.214-.308.088-.129.169-.26.266-.387.095-.126.197-.237.297-.357.08-.096.158-.196.24-.288a9.65 9.65 0 01.259-.273c1.475-1.523 3.202-2.318 4.383-2.319a21.66 21.66 0 00-3.326 3.126c-.082.095-.158.194-.239.29-.079.096-.16.192-.238.289a21.619 21.619 0 00-.788 1.044c-.072.102-.148.201-.219.305zm9.215 3.981l-7.135-5.453a20.915 20.915 0 013.161-2.967.751.751 0 00.322-.615.747.747 0 00-.748-.75h-.005c-1.577 0-3.552 1.079-5.072 2.703-.093-.021-.186-.047-.282-.047-.382 0-.731.17-.957.465a1.215 1.215 0 00-.086 1.316c-1.296 2.114-1.614 4.292-1.318 5.557a.748.748 0 00.67.576l.061.002a.749.749 0 00.693-.465 20.927 20.927 0 012.078-3.848l7.141 5.458c.222.172.499.266.778.266a1.194 1.194 0 001.194-1.353 1.283 1.283 0 00-.495-.845zM2.12 57.907a.451.451 0 01-.365-.174c-.156-.202-.104-.508.12-.678l7.158-5.47c.195.242.384.488.569.738l-7.16 5.473a.535.535 0 01-.322.111zm8.297-5.734c-.073-.102-.145-.204-.219-.305a21.619 21.619 0 00-.569-.739l-.239-.289c-.08-.096-.157-.195-.238-.29a21.667 21.667 0 00-3.327-3.126c1.181.001 2.909.796 4.384 2.319.087.089.173.179.259.273.082.092.16.192.24.288.099.12.202.231.297.357.097.127.177.258.266.387.071.103.148.205.213.309.069.107.132.215.195.323 1.071 1.828 1.393 3.697 1.131 4.816a21.633 21.633 0 00-2.175-4.018c-.07-.104-.146-.203-.218-.305zm1.721-2.377a1.195 1.195 0 00-.958-.466c-.096 0-.188.026-.282.047-1.519-1.623-3.495-2.703-5.072-2.703h-.001a.75.75 0 00-.452 1.348 20.84 20.84 0 013.182 2.985L1.419 56.46a1.28 1.28 0 00-.493.844 1.19 1.19 0 001.194 1.353c.279 0 .556-.094.779-.267l7.141-5.458a21.024 21.024 0 012.077 3.849.748.748 0 00.693.465l.061-.002a.748.748 0 00.67-.576c.295-1.264-.022-3.44-1.319-5.555.223-.416.212-.93-.084-1.317z"/></g></svg>