<?xml version="1.0" encoding="UTF-8"?>
<svg width="57px" height="74px" viewBox="0 0 57 74" version="1.1" xmlns="http://www.w3.org/2000/svg" xmlns:xlink="http://www.w3.org/1999/xlink">
    <!-- Generator: Sketch 49 (51002) - http://www.bohemiancoding.com/sketch -->
    <title>bitcoin-grey-12</title>
    <desc>Created with Sketch.</desc>
    <defs></defs>
    <g id="Page-1" stroke="none" stroke-width="1" fill="none" fill-rule="evenodd">
        <g id="bitcoin-grey-12">
            <path d="M50.905,17.639 C50.617,19.022 49.242,19.91 47.843,19.678 C39.147,18.215 30.269,18.215 21.573,19.678 C20.173,19.913 18.8,19.021 18.511,17.639 C17.656,13.407 16.801,9.176 15.945,4.943 C15.658,3.567 16.837,2.143 18.576,1.853 C29.255,0.057 40.161,0.057 50.84,1.853 C52.579,2.143 53.759,3.566 53.471,4.943 C52.615,9.175 51.76,13.407 50.905,17.639" id="Fill-1" fill="#FFFFFF"></path>
            <path d="M18.638,2.222 C17.157,2.469 16.153,3.673 16.392,4.854 C17.227,9.09 18.062,13.327 18.896,17.562 C19.136,18.745 20.305,19.507 21.511,19.307 C30.248,17.839 39.168,17.839 47.905,19.307 C49.11,19.515 50.28,18.742 50.52,17.562 C51.354,13.327 52.189,9.091 53.024,4.854 C53.263,3.673 52.259,2.474 50.778,2.222 C40.14,0.433 29.276,0.433 18.638,2.222 Z M47.781,20.047 C39.126,18.592 30.29,18.592 21.635,20.047 C20.035,20.315 18.465,19.303 18.126,17.718 C17.251,13.49 16.375,9.263 15.5,5.034 C15.16,3.453 16.507,1.818 18.514,1.483 C29.234,-0.321 40.182,-0.321 50.902,1.483 C52.909,1.82 54.256,3.453 53.916,5.034 C53.041,9.263 52.165,13.49 51.29,17.718 C50.95,19.301 49.38,20.314 47.781,20.047 Z" id="Fill-2" fill="#000000"></path>
            <path d="M26.373,5.681 C26.363,5.566 26.327,5.463 26.266,5.364 C26.203,5.268 26.125,5.187 26.03,5.119 C25.933,5.051 25.822,5.005 25.695,4.972 C25.568,4.939 25.436,4.929 25.3,4.944 C24.689,5.007 24.079,5.074 23.469,5.148 C23.536,5.703 23.604,6.258 23.671,6.814 C24.283,6.739 24.896,6.671 25.509,6.61 C25.639,6.594 25.758,6.562 25.868,6.507 C25.979,6.452 26.073,6.384 26.15,6.298 C26.228,6.216 26.288,6.115 26.328,6.012 C26.368,5.908 26.384,5.796 26.373,5.681 Z M24.42,8.647 C23.813,8.716 23.208,8.793 22.603,8.875 C22.572,8.646 22.541,8.418 22.509,8.189 C22.681,8.166 22.853,8.143 23.024,8.121 C22.9,7.164 22.775,6.207 22.65,5.251 C22.474,5.273 22.296,5.297 22.119,5.322 C22.088,5.093 22.057,4.865 22.026,4.636 C23.108,4.489 24.192,4.36 25.278,4.251 C25.512,4.229 25.739,4.245 25.96,4.303 C26.182,4.362 26.383,4.453 26.563,4.582 C26.751,4.711 26.897,4.863 27.002,5.039 C27.109,5.212 27.168,5.403 27.187,5.611 C27.204,5.816 27.175,6.015 27.1,6.209 C27.025,6.403 26.909,6.572 26.752,6.736 C26.537,6.954 26.282,7.115 25.987,7.211 C26.032,7.282 26.077,7.353 26.122,7.424 C26.27,7.654 26.456,7.758 26.686,7.737 C26.81,7.725 26.915,7.693 27.002,7.643 C27.088,7.594 27.173,7.521 27.256,7.439 C27.436,7.592 27.615,7.747 27.792,7.9 C27.641,8.054 27.486,8.175 27.33,8.263 C27.174,8.35 26.979,8.406 26.747,8.426 C26.427,8.452 26.156,8.407 25.93,8.282 C25.705,8.151 25.51,7.972 25.346,7.721 C25.264,7.597 25.181,7.471 25.099,7.347 C24.65,7.395 24.202,7.446 23.754,7.5 C23.775,7.674 23.797,7.847 23.817,8.021 C23.992,8 24.166,7.979 24.34,7.959 C24.367,8.188 24.394,8.417 24.42,8.647 Z" id="Fill-3" fill="#000000"></path>
            <path d="M33.377,4.991 C33.127,4.995 32.877,5 32.626,5.005 C32.6,4.834 32.573,4.665 32.546,4.493 C31.684,4.514 30.822,4.547 29.961,4.589 C29.978,4.917 29.994,5.245 30.011,5.574 C30.723,5.539 31.436,5.509 32.148,5.49 C32.154,5.72 32.161,5.951 32.168,6.181 C31.46,6.202 30.753,6.229 30.046,6.265 C30.066,6.67 30.087,7.075 30.108,7.48 C30.965,7.436 31.822,7.405 32.68,7.385 C32.698,7.214 32.716,7.042 32.735,6.871 C32.98,6.865 33.225,6.861 33.47,6.859 C33.476,7.26 33.481,7.662 33.487,8.063 C31.937,8.085 30.387,8.146 28.838,8.247 C28.823,8.017 28.809,7.786 28.793,7.556 C28.966,7.545 29.139,7.534 29.311,7.524 C29.253,6.561 29.196,5.598 29.138,4.635 C28.96,4.646 28.782,4.657 28.604,4.669 C28.589,4.438 28.574,4.209 28.559,3.978 C30.157,3.874 31.758,3.809 33.359,3.786 C33.365,4.188 33.371,4.589 33.377,4.991" id="Fill-4" fill="#000000"></path>
            <path d="M36.37,8.07 C35.76,8.059 35.151,8.054 34.542,8.055 C34.542,7.823 34.541,7.593 34.541,7.363 C34.714,7.363 34.887,7.363 35.06,7.363 C35.063,6.399 35.067,5.433 35.07,4.469 C34.892,4.468 34.714,4.468 34.535,4.469 C34.535,4.238 34.535,4.007 34.534,3.777 C35.228,3.775 35.922,3.782 36.615,3.796 C37.217,5.004 37.795,6.217 38.35,7.436 C38.414,7.439 38.478,7.442 38.543,7.444 C38.583,6.481 38.625,5.516 38.665,4.552 C38.485,4.545 38.304,4.538 38.124,4.531 C38.132,4.301 38.141,4.07 38.149,3.84 C38.789,3.863 39.429,3.894 40.068,3.929 C40.055,4.16 40.042,4.39 40.029,4.62 C39.849,4.609 39.668,4.6 39.488,4.591 C39.438,5.554 39.389,6.517 39.34,7.481 C39.515,7.49 39.689,7.5 39.864,7.509 C39.851,7.74 39.837,7.97 39.824,8.201 C39.163,8.163 38.502,8.133 37.84,8.11 C37.284,6.895 36.704,5.684 36.1,4.479 C36.032,4.477 35.962,4.477 35.894,4.476 C35.882,5.44 35.87,6.406 35.857,7.37 C36.032,7.371 36.208,7.375 36.382,7.378 C36.378,7.609 36.374,7.84 36.37,8.07" id="Fill-5" fill="#000000"></path>
            <path d="M41.832,5.256 C41.582,5.237 41.332,5.217 41.083,5.201 C41.11,4.8 41.138,4.4 41.165,3.999 C43.017,4.126 44.865,4.309 46.708,4.546 C46.657,4.944 46.606,5.342 46.554,5.741 C46.306,5.709 46.058,5.678 45.809,5.648 C45.806,5.475 45.804,5.303 45.801,5.13 C45.294,5.07 44.786,5.013 44.278,4.96 C44.18,5.92 44.081,6.88 43.981,7.839 C44.156,7.857 44.331,7.875 44.505,7.895 C44.48,8.125 44.455,8.353 44.43,8.583 C43.821,8.517 43.212,8.457 42.603,8.403 C42.623,8.173 42.644,7.943 42.664,7.713 C42.838,7.728 43.013,7.745 43.187,7.761 C43.277,6.801 43.368,5.84 43.458,4.88 C42.952,4.832 42.446,4.789 41.939,4.749 C41.903,4.918 41.868,5.086 41.832,5.256" id="Fill-6" fill="#000000"></path>
            <path d="M23.291,13.838 C23.912,13.752 24.533,13.675 25.155,13.605 C24.915,13.07 24.67,12.534 24.422,12.002 C24.152,12.034 23.883,12.067 23.614,12.102 C23.503,12.681 23.395,13.259 23.291,13.838 Z M26.99,15.334 C26.427,15.386 25.865,15.445 25.304,15.509 C25.277,15.28 25.251,15.051 25.225,14.822 C25.374,14.805 25.523,14.788 25.671,14.772 C25.599,14.604 25.527,14.436 25.455,14.268 C24.69,14.352 23.927,14.447 23.164,14.553 C23.132,14.735 23.102,14.915 23.071,15.096 C23.22,15.075 23.368,15.055 23.516,15.034 C23.547,15.262 23.578,15.491 23.609,15.72 C23.051,15.796 22.493,15.877 21.936,15.964 C21.9,15.737 21.864,15.509 21.829,15.281 C21.989,15.256 22.149,15.231 22.31,15.207 C22.469,14.207 22.639,13.208 22.819,12.209 C22.687,12.227 22.554,12.246 22.421,12.265 C22.389,12.038 22.356,11.81 22.323,11.581 C23.185,11.455 24.049,11.346 24.914,11.248 C25.438,12.39 25.948,13.539 26.442,14.692 C26.603,14.676 26.764,14.661 26.925,14.645 C26.947,14.874 26.968,15.105 26.99,15.334 Z" id="Fill-7" fill="#000000"></path>
            <path d="M33.125,11.362 C32.862,11.366 32.62,11.407 32.4,11.488 C32.181,11.565 31.99,11.672 31.833,11.81 C31.676,11.945 31.554,12.107 31.468,12.296 C31.383,12.485 31.345,12.686 31.354,12.906 C31.361,13.124 31.416,13.326 31.514,13.506 C31.612,13.685 31.742,13.839 31.905,13.965 C32.067,14.092 32.257,14.183 32.474,14.254 C32.692,14.32 32.926,14.353 33.179,14.347 C33.514,14.342 33.807,14.281 34.058,14.172 C34.31,14.06 34.51,13.906 34.664,13.711 C34.847,13.865 35.029,14.022 35.211,14.179 C34.975,14.444 34.684,14.656 34.332,14.804 C33.981,14.953 33.602,15.03 33.192,15.039 C32.868,15.042 32.552,15 32.248,14.909 C31.942,14.816 31.668,14.679 31.429,14.498 C31.189,14.318 30.992,14.095 30.84,13.835 C30.687,13.572 30.603,13.274 30.586,12.94 C30.569,12.599 30.625,12.292 30.756,12.011 C30.886,11.732 31.068,11.501 31.303,11.301 C31.537,11.103 31.812,10.952 32.127,10.843 C32.442,10.736 32.771,10.673 33.112,10.67 C33.395,10.664 33.639,10.678 33.849,10.708 C34.059,10.735 34.241,10.781 34.396,10.828 C34.552,10.876 34.686,10.929 34.793,10.993 C34.901,11.052 34.998,11.105 35.083,11.157 C35.082,11.406 35.081,11.654 35.08,11.901 C34.848,11.901 34.617,11.901 34.385,11.901 C34.374,11.801 34.363,11.7 34.352,11.601 C34.276,11.56 34.199,11.523 34.124,11.49 C34.047,11.456 33.961,11.433 33.865,11.412 C33.77,11.392 33.663,11.378 33.544,11.369 C33.425,11.363 33.286,11.36 33.125,11.362" id="Fill-8" fill="#000000"></path>
            <path d="M37.746,13.119 C38.371,13.141 38.995,13.171 39.619,13.207 C39.473,12.639 39.324,12.07 39.17,11.503 C38.9,11.488 38.629,11.475 38.358,11.465 C38.151,12.015 37.947,12.567 37.746,13.119 Z M41.132,15.223 C40.568,15.178 40.005,15.141 39.442,15.109 C39.455,14.879 39.468,14.649 39.481,14.419 C39.631,14.426 39.779,14.436 39.929,14.445 C39.887,14.267 39.844,14.09 39.801,13.911 C39.034,13.866 38.267,13.829 37.499,13.803 C37.437,13.976 37.377,14.15 37.316,14.322 C37.465,14.327 37.614,14.332 37.764,14.338 C37.755,14.568 37.747,14.798 37.738,15.029 C37.176,15.007 36.614,14.993 36.052,14.984 C36.056,14.754 36.06,14.523 36.063,14.293 C36.225,14.296 36.387,14.299 36.548,14.302 C36.875,13.345 37.211,12.388 37.559,11.434 C37.425,11.429 37.292,11.425 37.158,11.422 C37.165,11.191 37.171,10.961 37.178,10.73 C38.046,10.755 38.915,10.792 39.782,10.843 C40.104,12.06 40.411,13.277 40.701,14.497 C40.863,14.508 41.024,14.52 41.186,14.533 C41.168,14.763 41.149,14.993 41.132,15.223 Z" id="Fill-9" fill="#000000"></path>
            <path d="M46.112,12.986 C46.127,12.873 46.118,12.761 46.083,12.654 C46.048,12.548 45.995,12.454 45.923,12.365 C45.851,12.279 45.761,12.21 45.653,12.15 C45.545,12.097 45.428,12.055 45.302,12.039 C44.737,11.969 44.172,11.905 43.607,11.846 C43.55,12.403 43.492,12.96 43.434,13.515 C44.001,13.574 44.567,13.638 45.132,13.709 C45.252,13.724 45.367,13.717 45.479,13.685 C45.59,13.651 45.689,13.609 45.778,13.541 C45.867,13.479 45.939,13.393 46,13.3 C46.06,13.204 46.097,13.1 46.112,12.986 Z M43.717,15.464 C43.157,15.402 42.597,15.348 42.036,15.298 C42.057,15.068 42.077,14.839 42.098,14.609 C42.257,14.623 42.416,14.638 42.575,14.652 C42.666,13.692 42.756,12.732 42.848,11.771 C42.683,11.756 42.519,11.741 42.354,11.726 C42.374,11.496 42.395,11.266 42.415,11.037 C43.421,11.126 44.427,11.234 45.431,11.358 C45.648,11.387 45.849,11.45 46.036,11.555 C46.223,11.657 46.384,11.791 46.521,11.954 C46.66,12.124 46.761,12.304 46.818,12.494 C46.877,12.69 46.891,12.885 46.861,13.09 C46.832,13.297 46.763,13.485 46.653,13.655 C46.545,13.827 46.402,13.973 46.226,14.096 C45.985,14.262 45.722,14.364 45.435,14.398 C45.459,14.476 45.484,14.554 45.51,14.634 C45.594,14.893 45.74,15.033 45.951,15.059 C46.064,15.073 46.167,15.07 46.256,15.034 C46.345,15 46.436,14.949 46.528,14.89 C46.657,15.077 46.785,15.264 46.913,15.452 C46.743,15.57 46.577,15.656 46.417,15.71 C46.258,15.76 46.071,15.773 45.857,15.745 C45.562,15.709 45.329,15.599 45.153,15.431 C44.977,15.263 44.842,15.038 44.748,14.759 C44.7,14.62 44.653,14.481 44.605,14.341 C44.191,14.292 43.777,14.247 43.363,14.204 C43.345,14.378 43.327,14.552 43.309,14.726 C43.47,14.742 43.631,14.76 43.792,14.777 C43.767,15.006 43.742,15.235 43.717,15.464 Z" id="Fill-10" fill="#000000"></path>
            <path d="M53.23,68.96 C53.495,70.341 52.318,71.739 50.604,72.006 C40.069,73.638 29.347,73.639 18.813,72.006 C17.098,71.74 15.92,70.346 16.186,68.96 C16.976,64.716 17.766,60.47 18.556,56.226 C18.822,54.841 20.181,53.927 21.581,54.144 C30.28,55.493 39.136,55.493 47.835,54.144 C49.235,53.927 50.595,54.847 50.86,56.226 C51.65,60.47 52.44,64.716 53.23,68.96" id="Fill-11" fill="#FFFFFF"></path>
            <path d="M21.524,54.515 C20.317,54.331 19.162,55.113 18.941,56.297 C18.169,60.545 17.398,64.793 16.627,69.041 C16.406,70.226 17.409,71.411 18.87,71.635 C29.366,73.262 40.05,73.262 50.546,71.635 C52.007,71.41 53.01,70.224 52.789,69.041 C52.018,64.793 51.247,60.545 50.475,56.297 C50.254,55.111 49.098,54.332 47.892,54.515 C39.155,55.87 30.261,55.87 21.524,54.515 Z M50.661,72.377 C40.089,74.015 29.327,74.016 18.755,72.377 C16.777,72.07 15.431,70.464 15.745,68.877 C16.553,64.635 17.363,60.394 18.171,56.153 C18.485,54.566 20.037,53.525 21.639,53.774 C30.3,55.117 39.116,55.117 47.777,53.774 C49.379,53.527 50.931,54.568 51.245,56.153 C52.053,60.394 52.863,64.635 53.671,68.877 C53.985,70.462 52.639,72.073 50.661,72.377 Z" id="Fill-12" fill="#000000"></path>
            <path d="M29.125,62.893 C28.654,62.864 28.182,62.832 27.711,62.797 C27.725,62.613 27.738,62.426 27.752,62.241 C27.884,62.252 28.016,62.261 28.148,62.271 C28.203,61.496 28.258,60.72 28.312,59.946 C28.184,59.936 28.055,59.927 27.927,59.918 C27.94,59.733 27.954,59.547 27.968,59.362 C29.189,59.453 30.412,59.52 31.635,59.562 C31.624,59.885 31.613,60.209 31.602,60.532 C31.42,60.526 31.237,60.519 31.055,60.511 C31.044,60.374 31.033,60.235 31.021,60.097 C30.316,60.068 29.611,60.031 28.907,59.986 C28.89,60.25 28.873,60.514 28.856,60.777 C29.447,60.816 30.038,60.849 30.629,60.874 C30.621,61.06 30.613,61.246 30.605,61.431 C30.009,61.404 29.415,61.372 28.82,61.334 C28.799,61.66 28.778,61.985 28.758,62.312 C28.891,62.321 29.025,62.328 29.159,62.337 C29.147,62.522 29.137,62.707 29.125,62.893" id="Fill-13" fill="#000000"></path>
            <path d="M34.239,60.138 C34.033,60.135 33.846,60.164 33.67,60.221 C33.495,60.278 33.344,60.356 33.215,60.461 C33.085,60.565 32.983,60.688 32.907,60.836 C32.83,60.986 32.791,61.146 32.787,61.322 C32.783,61.499 32.816,61.659 32.887,61.811 C32.959,61.956 33.057,62.088 33.187,62.197 C33.314,62.301 33.468,62.385 33.645,62.45 C33.821,62.513 34.017,62.539 34.227,62.543 C34.451,62.539 34.652,62.515 34.832,62.456 C35.011,62.398 35.164,62.317 35.29,62.208 C35.417,62.103 35.514,61.972 35.581,61.825 C35.648,61.678 35.681,61.515 35.679,61.336 C35.677,61.157 35.641,60.997 35.572,60.849 C35.502,60.703 35.405,60.577 35.279,60.472 C35.154,60.366 35.004,60.284 34.829,60.227 C34.654,60.171 34.458,60.137 34.239,60.138 Z M32.169,61.306 C32.176,61.031 32.241,60.785 32.359,60.571 C32.478,60.357 32.632,60.173 32.823,60.029 C33.015,59.883 33.233,59.77 33.479,59.694 C33.725,59.614 33.98,59.583 34.242,59.581 C34.518,59.585 34.778,59.625 35.023,59.702 C35.268,59.781 35.484,59.893 35.67,60.043 C35.857,60.191 36.006,60.373 36.119,60.59 C36.232,60.806 36.292,61.052 36.297,61.328 C36.301,61.593 36.252,61.836 36.142,62.055 C36.034,62.272 35.886,62.459 35.698,62.615 C35.508,62.772 35.288,62.894 35.034,62.975 C34.781,63.06 34.51,63.1 34.224,63.1 C33.951,63.096 33.687,63.051 33.435,62.969 C33.181,62.882 32.96,62.762 32.77,62.605 C32.58,62.448 32.43,62.256 32.321,62.04 C32.211,61.821 32.161,61.572 32.169,61.306 Z" id="Fill-14" fill="#000000"></path>
            <path d="M40.156,60.682 C40.151,60.589 40.125,60.503 40.084,60.423 C40.041,60.347 39.985,60.277 39.917,60.219 C39.85,60.163 39.77,60.123 39.679,60.089 C39.587,60.059 39.492,60.045 39.393,60.051 C38.951,60.073 38.508,60.093 38.065,60.11 C38.083,60.56 38.099,61.01 38.116,61.46 C38.575,61.443 39.034,61.422 39.493,61.398 C39.59,61.393 39.682,61.376 39.764,61.33 C39.847,61.292 39.92,61.236 39.979,61.172 C40.04,61.107 40.086,61.031 40.117,60.947 C40.148,60.865 40.161,60.773 40.156,60.682 Z M38.576,62.979 C38.105,62.999 37.632,63.014 37.16,63.027 C37.155,62.842 37.15,62.656 37.145,62.47 C37.277,62.466 37.41,62.463 37.542,62.459 C37.518,61.683 37.495,60.906 37.471,60.13 C37.342,60.134 37.213,60.137 37.084,60.14 C37.079,59.955 37.074,59.769 37.069,59.584 C37.846,59.563 38.623,59.533 39.399,59.492 C39.566,59.488 39.728,59.505 39.885,59.561 C40.041,59.613 40.183,59.699 40.313,59.803 C40.445,59.914 40.548,60.036 40.625,60.181 C40.7,60.324 40.744,60.479 40.755,60.645 C40.766,60.809 40.743,60.971 40.686,61.124 C40.629,61.276 40.54,61.414 40.42,61.541 C40.255,61.712 40.06,61.832 39.834,61.9 C39.866,61.96 39.898,62.018 39.93,62.076 C40.035,62.267 40.176,62.359 40.353,62.344 C40.447,62.34 40.528,62.318 40.596,62.276 C40.662,62.238 40.729,62.181 40.792,62.117 C40.927,62.243 41.063,62.369 41.199,62.494 C41.083,62.622 40.962,62.714 40.84,62.781 C40.718,62.854 40.566,62.888 40.387,62.901 C40.138,62.919 39.927,62.87 39.758,62.76 C39.589,62.65 39.446,62.49 39.331,62.285 C39.272,62.181 39.215,62.076 39.158,61.972 C38.817,61.989 38.477,62.003 38.136,62.016 C38.142,62.157 38.146,62.298 38.152,62.439 C38.286,62.433 38.419,62.427 38.553,62.423 C38.561,62.608 38.568,62.794 38.576,62.979 Z" id="Fill-15" fill="#000000"></path>
            <path d="M22.988,66.388 C22.396,66.317 21.803,66.239 21.212,66.156 C21.167,66.48 21.122,66.803 21.076,67.127 C21.669,67.209 22.262,67.286 22.854,67.358 C22.934,67.367 23.009,67.366 23.079,67.345 C23.15,67.329 23.213,67.296 23.271,67.263 C23.328,67.23 23.373,67.182 23.412,67.122 C23.449,67.065 23.471,67.004 23.48,66.937 C23.487,66.872 23.479,66.811 23.458,66.747 C23.436,66.687 23.402,66.629 23.356,66.581 C23.31,66.533 23.255,66.491 23.192,66.456 C23.13,66.422 23.062,66.4 22.988,66.388 Z M23.366,65.47 C23.378,65.363 23.346,65.265 23.268,65.177 C23.189,65.091 23.089,65.041 22.967,65.024 C22.444,64.96 21.921,64.891 21.398,64.818 C21.362,65.081 21.325,65.343 21.289,65.604 C21.815,65.677 22.343,65.747 22.87,65.812 C22.934,65.822 22.993,65.813 23.051,65.802 C23.108,65.787 23.159,65.764 23.204,65.733 C23.249,65.701 23.285,65.662 23.313,65.62 C23.342,65.577 23.359,65.523 23.366,65.47 Z M22.788,67.911 C21.835,67.796 20.884,67.667 19.934,67.524 C19.962,67.34 19.989,67.156 20.017,66.973 C20.156,66.994 20.295,67.014 20.435,67.035 C20.547,66.266 20.659,65.497 20.771,64.729 C20.636,64.71 20.5,64.689 20.364,64.668 C20.392,64.485 20.42,64.301 20.447,64.117 C21.309,64.246 22.171,64.365 23.035,64.471 C23.181,64.49 23.316,64.53 23.44,64.595 C23.564,64.659 23.671,64.743 23.758,64.838 C23.846,64.936 23.91,65.045 23.954,65.166 C23.998,65.288 24.012,65.414 23.997,65.542 C23.984,65.651 23.952,65.758 23.898,65.851 C23.845,65.951 23.779,66.028 23.698,66.101 C23.851,66.207 23.962,66.345 24.036,66.514 C24.11,66.68 24.138,66.849 24.12,67.008 C24.104,67.156 24.058,67.282 23.979,67.404 C23.901,67.526 23.801,67.624 23.679,67.707 C23.558,67.79 23.42,67.85 23.266,67.886 C23.112,67.922 22.952,67.93 22.788,67.911 Z" id="Fill-16" fill="#000000"></path>
            <path d="M26.346,68.277 C25.843,68.235 25.34,68.188 24.838,68.138 C24.856,67.953 24.875,67.769 24.894,67.583 C25.035,67.598 25.176,67.611 25.317,67.625 C25.392,66.852 25.466,66.078 25.54,65.305 C25.401,65.292 25.264,65.278 25.125,65.264 C25.144,65.08 25.163,64.895 25.181,64.71 C25.664,64.758 26.147,64.804 26.631,64.844 C26.615,65.029 26.6,65.215 26.584,65.4 C26.445,65.387 26.307,65.376 26.169,65.363 C26.1,66.137 26.031,66.911 25.962,67.685 C26.106,67.697 26.249,67.71 26.393,67.722 C26.377,67.906 26.361,68.092 26.346,68.277" id="Fill-17" fill="#000000"></path>
            <path d="M27.967,65.921 C27.774,65.907 27.581,65.893 27.387,65.878 C27.412,65.555 27.436,65.233 27.46,64.911 C28.861,65.018 30.264,65.093 31.667,65.137 C31.657,65.46 31.647,65.784 31.637,66.107 C31.443,66.101 31.25,66.094 31.056,66.087 C31.044,65.949 31.031,65.81 31.019,65.672 C30.628,65.657 30.237,65.64 29.846,65.62 C29.807,66.396 29.768,67.172 29.729,67.947 C29.87,67.954 30.012,67.961 30.154,67.968 C30.145,68.153 30.137,68.339 30.128,68.525 C29.626,68.501 29.125,68.474 28.623,68.444 C28.634,68.258 28.646,68.072 28.657,67.887 C28.799,67.896 28.94,67.905 29.082,67.913 C29.127,67.137 29.171,66.362 29.215,65.586 C28.826,65.563 28.438,65.54 28.049,65.512 C28.021,65.648 27.995,65.785 27.967,65.921" id="Fill-18" fill="#000000"></path>
            <path d="M34.555,65.71 C34.337,65.71 34.137,65.738 33.952,65.796 C33.768,65.854 33.606,65.935 33.469,66.037 C33.332,66.14 33.224,66.265 33.144,66.412 C33.064,66.56 33.023,66.724 33.019,66.898 C33.016,67.072 33.051,67.234 33.128,67.388 C33.205,67.539 33.311,67.662 33.447,67.773 C33.583,67.878 33.746,67.964 33.934,68.024 C34.123,68.085 34.327,68.116 34.551,68.115 C34.846,68.111 35.105,68.072 35.324,67.981 C35.544,67.893 35.72,67.77 35.85,67.607 C36.011,67.73 36.172,67.854 36.333,67.977 C36.133,68.194 35.876,68.365 35.565,68.49 C35.254,68.608 34.915,68.677 34.55,68.672 C34.261,68.669 33.981,68.631 33.713,68.544 C33.445,68.461 33.21,68.339 33.008,68.182 C32.806,68.028 32.646,67.834 32.529,67.617 C32.412,67.399 32.357,67.153 32.364,66.884 C32.37,66.608 32.438,66.364 32.562,66.148 C32.686,65.931 32.85,65.751 33.052,65.606 C33.253,65.46 33.486,65.343 33.746,65.269 C34.007,65.188 34.277,65.152 34.556,65.153 C34.787,65.152 34.986,65.169 35.158,65.191 C35.329,65.217 35.477,65.25 35.606,65.288 C35.733,65.327 35.843,65.37 35.932,65.417 C36.022,65.465 36.102,65.51 36.173,65.546 C36.176,65.745 36.179,65.944 36.182,66.145 C35.988,66.147 35.794,66.15 35.601,66.152 C35.591,66.072 35.582,65.991 35.572,65.91 C35.509,65.879 35.444,65.847 35.381,65.822 C35.317,65.794 35.247,65.777 35.168,65.758 C35.089,65.74 35,65.73 34.902,65.721 C34.805,65.715 34.687,65.708 34.555,65.71" id="Fill-19" fill="#000000"></path>
            <path d="M39.041,65.613 C38.825,65.623 38.625,65.657 38.442,65.726 C38.26,65.793 38.104,65.878 37.972,65.989 C37.84,66.102 37.737,66.227 37.664,66.38 C37.59,66.528 37.557,66.696 37.562,66.871 C37.567,67.049 37.611,67.208 37.694,67.355 C37.777,67.502 37.888,67.624 38.03,67.725 C38.172,67.825 38.338,67.898 38.528,67.953 C38.72,68.007 38.927,68.028 39.149,68.015 C39.386,68.009 39.6,67.965 39.786,67.896 C39.974,67.828 40.13,67.738 40.259,67.624 C40.388,67.51 40.482,67.38 40.548,67.226 C40.612,67.072 40.639,66.911 40.628,66.733 C40.616,66.558 40.57,66.394 40.49,66.252 C40.408,66.11 40.299,65.986 40.161,65.891 C40.022,65.79 39.86,65.725 39.671,65.671 C39.483,65.62 39.272,65.6 39.041,65.613 Z M36.907,66.888 C36.9,66.613 36.955,66.364 37.07,66.143 C37.184,65.921 37.339,65.735 37.535,65.578 C37.729,65.423 37.956,65.3 38.213,65.21 C38.47,65.121 38.737,65.069 39.016,65.056 C39.31,65.044 39.588,65.069 39.851,65.136 C40.114,65.2 40.349,65.31 40.554,65.442 C40.759,65.583 40.927,65.758 41.058,65.964 C41.189,66.174 41.263,66.416 41.282,66.691 C41.3,66.953 41.258,67.204 41.153,67.425 C41.05,67.646 40.902,67.84 40.71,68.009 C40.518,68.174 40.291,68.307 40.026,68.405 C39.763,68.503 39.478,68.557 39.174,68.571 C38.886,68.585 38.604,68.554 38.333,68.483 C38.061,68.41 37.819,68.304 37.61,68.154 C37.401,68.008 37.232,67.827 37.106,67.613 C36.978,67.398 36.912,67.156 36.907,66.888 Z" id="Fill-20" fill="#000000"></path>
            <path d="M43.783,68.215 C43.28,68.261 42.777,68.304 42.274,68.342 C42.26,68.157 42.246,67.971 42.232,67.786 C42.374,67.776 42.515,67.765 42.657,67.753 C42.594,66.979 42.531,66.204 42.469,65.429 C42.331,65.441 42.192,65.452 42.054,65.462 C42.04,65.277 42.025,65.091 42.012,64.907 C42.495,64.871 42.979,64.829 43.462,64.784 C43.479,64.969 43.496,65.154 43.513,65.339 C43.375,65.353 43.236,65.364 43.099,65.376 C43.166,66.15 43.234,66.924 43.302,67.698 C43.445,67.686 43.588,67.672 43.731,67.66 C43.749,67.845 43.766,68.03 43.783,68.215" id="Fill-21" fill="#000000"></path>
            <path d="M46.126,67.971 C45.628,68.029 45.129,68.083 44.631,68.132 C44.612,67.947 44.594,67.763 44.575,67.578 C44.715,67.564 44.854,67.549 44.994,67.535 C44.912,66.762 44.831,65.99 44.75,65.217 C44.614,65.231 44.478,65.245 44.342,65.26 C44.323,65.074 44.305,64.89 44.286,64.705 C44.809,64.652 45.332,64.596 45.854,64.534 C46.438,65.435 47.036,66.331 47.647,67.22 C47.699,67.214 47.751,67.206 47.803,67.2 C47.7,66.43 47.597,65.66 47.494,64.89 C47.356,64.908 47.218,64.926 47.081,64.944 C47.057,64.76 47.033,64.577 47.009,64.392 C47.491,64.33 47.973,64.264 48.453,64.193 C48.48,64.378 48.507,64.561 48.533,64.745 C48.396,64.764 48.258,64.784 48.121,64.804 C48.229,65.573 48.337,66.343 48.445,67.112 C48.586,67.092 48.728,67.072 48.868,67.051 C48.895,67.235 48.921,67.419 48.948,67.603 C48.408,67.681 47.868,67.755 47.328,67.824 C46.717,66.931 46.12,66.035 45.537,65.132 C45.484,65.138 45.432,65.144 45.379,65.149 C45.465,65.921 45.551,66.693 45.638,67.465 C45.779,67.449 45.92,67.434 46.062,67.418 C46.083,67.602 46.104,67.787 46.126,67.971" id="Fill-22" fill="#000000"></path>
            <path d="M53.315,26.763 C51.486,23.794 48.941,21.443 45.942,19.845 C48.556,21.47 50.787,23.673 52.448,26.369 C55.271,30.951 56.141,36.357 54.897,41.593 C53.62,46.971 50.288,51.378 45.856,54.103 C50.678,51.564 54.339,47.038 55.674,41.42 C56.871,36.378 56.033,31.173 53.315,26.763" id="Fill-23" fill="#FFFFFF"></path>
            <path d="M54.168,41.42 C55.365,36.378 54.527,31.173 51.81,26.763 C49.675,23.298 46.571,20.665 42.898,19.108 C46.077,20.768 48.774,23.237 50.704,26.369 C53.527,30.951 54.396,36.357 53.153,41.593 C51.765,47.436 47.956,52.14 42.94,54.775 C48.454,52.421 52.705,47.575 54.168,41.42" id="Fill-24" fill="#FFFFFF"></path>
            <path d="M44.109,52.217 C43.988,52.049 44.026,51.815 44.194,51.694 C44.363,51.572 44.597,51.611 44.718,51.778 L45.205,52.456 C45.902,51.931 46.562,51.361 47.183,50.746 L46.587,50.165 C46.438,50.02 46.436,49.783 46.581,49.634 C46.726,49.486 46.963,49.483 47.111,49.628 L47.709,50.212 C48.302,49.577 48.849,48.898 49.355,48.183 L48.677,47.72 C48.505,47.604 48.462,47.37 48.578,47.199 C48.695,47.029 48.929,46.985 49.1,47.1 L49.785,47.569 C50.258,46.844 50.674,46.077 51.05,45.284 L50.321,44.953 C50.133,44.868 50.049,44.646 50.134,44.457 C50.22,44.268 50.442,44.186 50.631,44.271 L51.372,44.607 C51.711,43.814 51.985,42.985 52.221,42.136 L51.441,41.936 C51.241,41.884 51.12,41.679 51.172,41.479 C51.225,41.278 51.427,41.158 51.629,41.209 L52.425,41.413 C52.656,40.434 52.789,39.451 52.869,38.467 L52.064,38.418 C51.857,38.405 51.7,38.228 51.713,38.021 C51.726,37.814 51.916,37.658 52.109,37.669 L52.934,37.719 C52.971,36.844 52.933,35.974 52.852,35.109 L52.043,35.201 C52.028,35.203 52.014,35.203 52,35.203 C51.812,35.203 51.649,35.062 51.628,34.87 C51.605,34.665 51.752,34.48 51.958,34.455 L52.769,34.363 C52.653,33.5 52.488,32.645 52.257,31.803 L51.47,32.036 C51.435,32.046 51.398,32.051 51.363,32.051 C51.201,32.051 51.052,31.945 51.004,31.783 C50.945,31.584 51.059,31.376 51.257,31.317 L52.029,31.089 C51.767,30.261 51.46,29.447 51.083,28.655 L50.364,29.012 C50.311,29.038 50.254,29.051 50.198,29.051 C50.06,29.051 49.928,28.974 49.861,28.843 C49.77,28.657 49.845,28.432 50.03,28.34 L50.74,27.987 C50.525,27.575 50.312,27.162 50.065,26.763 C49.852,26.416 49.611,26.091 49.379,25.76 L48.738,26.231 C48.671,26.28 48.593,26.303 48.517,26.303 C48.4,26.303 48.287,26.251 48.214,26.151 C48.091,25.984 48.127,25.749 48.294,25.626 L48.951,25.144 C48.419,24.446 47.831,23.805 47.217,23.193 L46.658,23.777 C46.584,23.854 46.485,23.892 46.387,23.892 C46.294,23.892 46.2,23.858 46.128,23.788 C45.978,23.645 45.973,23.407 46.116,23.258 L46.681,22.669 C46.039,22.076 45.361,21.53 44.647,21.031 L44.19,21.715 C44.118,21.823 44,21.881 43.879,21.881 C43.807,21.881 43.734,21.861 43.671,21.817 C43.498,21.702 43.452,21.469 43.567,21.297 L44.02,20.622 C43.287,20.154 42.532,19.718 41.737,19.35 L41.407,20.101 C41.345,20.242 41.208,20.325 41.064,20.325 C41.013,20.325 40.962,20.316 40.913,20.294 C40.723,20.21 40.637,19.989 40.721,19.799 L41.044,19.064 C40.246,18.732 39.423,18.449 38.574,18.222 L38.383,18.994 C38.341,19.166 38.187,19.281 38.02,19.281 C37.989,19.281 37.959,19.277 37.929,19.27 C37.728,19.219 37.605,19.016 37.654,18.816 L37.85,18.028 C36.996,17.834 36.133,17.701 35.267,17.622 L35.208,18.443 C35.194,18.64 35.029,18.792 34.835,18.792 C34.826,18.792 34.816,18.792 34.808,18.79 C34.602,18.776 34.445,18.596 34.46,18.39 L34.51,17.684 L34.519,17.569 L34.519,17.565 C34.19,17.549 33.863,17.536 33.535,17.536 C33.337,17.536 33.142,17.555 32.944,17.561 C32.598,17.572 32.25,17.577 31.907,17.606 L31.926,17.784 L31.931,17.825 L31.964,18.141 L31.994,18.431 C32.016,18.637 31.866,18.822 31.661,18.843 C31.647,18.844 31.634,18.845 31.621,18.845 C31.432,18.845 31.269,18.702 31.248,18.509 L31.232,18.357 L31.193,17.993 L31.192,17.984 L31.162,17.697 C30.97,17.72 30.776,17.741 30.585,17.771 C30.504,17.783 30.421,17.788 30.341,17.802 C29.75,17.9 29.166,18.021 28.594,18.171 L28.64,18.332 L28.683,18.483 L28.736,18.668 L28.798,18.882 L28.822,18.969 C28.851,19.068 28.836,19.168 28.791,19.252 C28.744,19.337 28.666,19.405 28.565,19.432 C28.531,19.443 28.496,19.447 28.462,19.447 C28.448,19.447 28.438,19.436 28.425,19.434 C28.28,19.419 28.151,19.328 28.106,19.182 C28.105,19.179 28.103,19.178 28.102,19.175 L28.036,18.947 L27.997,18.81 L27.938,18.602 L27.877,18.389 C27.206,18.593 26.55,18.827 25.911,19.098 C25.75,19.168 25.588,19.235 25.428,19.307 L25.444,19.342 L25.627,19.717 L25.773,20.02 L25.787,20.049 L25.789,20.051 C25.879,20.237 25.802,20.462 25.615,20.552 C25.563,20.577 25.507,20.59 25.452,20.59 C25.351,20.59 25.262,20.537 25.191,20.464 C25.173,20.445 25.153,20.428 25.139,20.406 C25.132,20.395 25.12,20.39 25.114,20.378 L24.97,20.08 L24.801,19.733 L24.757,19.642 C23.977,20.04 23.225,20.483 22.508,20.979 L22.676,21.212 L22.917,21.546 L22.996,21.656 C23.043,21.721 23.059,21.797 23.06,21.872 C23.061,21.989 23.014,22.105 22.911,22.179 C22.845,22.228 22.768,22.25 22.692,22.25 C22.673,22.25 22.654,22.24 22.635,22.237 C22.54,22.222 22.448,22.179 22.388,22.095 L22.34,22.029 L22.105,21.702 L21.901,21.42 C21.204,21.943 20.545,22.514 19.925,23.128 L20.286,23.48 L20.521,23.71 C20.538,23.726 20.534,23.752 20.547,23.77 C20.649,23.914 20.657,24.109 20.528,24.24 C20.455,24.316 20.357,24.354 20.26,24.354 C20.209,24.354 20.167,24.317 20.119,24.297 C20.078,24.279 20.032,24.281 19.998,24.248 L19.805,24.058 L19.398,23.662 C18.806,24.297 18.259,24.976 17.753,25.692 L18.318,26.077 L18.431,26.154 C18.518,26.213 18.57,26.303 18.587,26.399 C18.604,26.492 18.586,26.591 18.528,26.675 C18.476,26.753 18.396,26.794 18.312,26.816 C18.28,26.824 18.251,26.839 18.219,26.839 C18.146,26.839 18.072,26.818 18.008,26.774 L17.938,26.726 L17.322,26.306 C16.85,27.031 16.434,27.798 16.058,28.591 L16.787,28.921 C16.795,28.925 16.8,28.931 16.808,28.936 C16.979,29.029 17.056,29.237 16.974,29.417 C16.911,29.555 16.774,29.637 16.632,29.637 C16.603,29.637 16.573,29.626 16.544,29.619 C16.521,29.613 16.499,29.614 16.478,29.604 L15.735,29.268 C15.396,30.061 15.122,30.89 14.887,31.739 L15.664,31.94 C15.707,31.951 15.745,31.971 15.78,31.995 C15.906,32.082 15.975,32.239 15.934,32.396 C15.896,32.544 15.771,32.633 15.63,32.657 C15.608,32.661 15.593,32.677 15.571,32.677 C15.54,32.677 15.509,32.674 15.477,32.666 L14.684,32.461 C14.449,33.446 14.32,34.429 14.242,35.408 L15.043,35.457 C15.112,35.462 15.172,35.489 15.226,35.526 C15.332,35.597 15.402,35.717 15.395,35.855 C15.386,35.998 15.295,36.115 15.173,36.171 C15.126,36.193 15.075,36.207 15.021,36.207 C15.013,36.207 15.005,36.207 14.997,36.206 L14.182,36.157 C14.146,37.035 14.18,37.903 14.262,38.763 L15.062,38.671 C15.128,38.664 15.188,38.677 15.244,38.7 C15.367,38.75 15.462,38.859 15.479,39 C15.494,39.14 15.428,39.266 15.32,39.344 C15.271,39.381 15.215,39.408 15.148,39.416 L14.351,39.507 C14.468,40.376 14.627,41.233 14.857,42.069 L15.636,41.838 C15.682,41.824 15.728,41.821 15.772,41.825 C15.922,41.838 16.057,41.938 16.102,42.091 C16.149,42.249 16.083,42.411 15.954,42.501 C15.922,42.524 15.889,42.545 15.849,42.556 L15.088,42.782 C15.353,43.614 15.662,44.428 16.034,45.213 L16.741,44.862 C16.761,44.852 16.782,44.851 16.803,44.845 C16.975,44.794 17.162,44.866 17.244,45.031 C17.333,45.209 17.264,45.42 17.095,45.518 C17.088,45.524 17.083,45.53 17.075,45.534 L16.373,45.883 C16.775,46.655 17.232,47.398 17.734,48.11 L18.291,47.7 L18.369,47.642 C18.452,47.582 18.552,47.56 18.646,47.575 C18.741,47.589 18.831,47.639 18.894,47.723 C18.959,47.813 18.976,47.923 18.954,48.024 C18.936,48.11 18.89,48.191 18.814,48.248 L18.715,48.319 L18.166,48.723 C18.693,49.413 19.28,50.057 19.898,50.674 L20.253,50.304 L20.451,50.098 C20.473,50.076 20.504,50.08 20.528,50.064 C20.671,49.973 20.854,49.965 20.981,50.087 C21.121,50.22 21.122,50.433 21.006,50.583 C20.998,50.593 21.002,50.608 20.992,50.617 L20.762,50.857 L20.432,51.201 C21.068,51.79 21.749,52.33 22.466,52.832 L22.638,52.576 L22.843,52.27 L22.916,52.16 C22.969,52.082 23.046,52.034 23.13,52.011 C23.23,51.983 23.342,51.994 23.437,52.057 C23.551,52.133 23.604,52.262 23.596,52.39 C23.592,52.454 23.578,52.52 23.539,52.577 L23.222,53.051 L23.091,53.246 C23.819,53.715 24.57,54.153 25.368,54.524 L25.394,54.465 L25.544,54.124 L25.696,53.778 L25.699,53.773 C25.705,53.758 25.717,53.749 25.725,53.736 C25.812,53.591 25.979,53.524 26.143,53.569 C26.159,53.574 26.177,53.573 26.193,53.58 C26.252,53.606 26.297,53.648 26.334,53.696 C26.416,53.801 26.443,53.944 26.386,54.075 L26.361,54.129 L26.352,54.152 L26.209,54.474 L26.063,54.807 C26.857,55.139 27.68,55.424 28.533,55.653 L28.566,55.518 L28.612,55.33 L28.657,55.151 L28.703,54.965 L28.725,54.881 C28.751,54.773 28.821,54.692 28.911,54.644 C28.991,54.6 29.085,54.584 29.179,54.606 C29.309,54.639 29.399,54.738 29.439,54.857 C29.459,54.921 29.47,54.989 29.452,55.06 L29.405,55.249 L29.371,55.388 L29.28,55.752 L29.257,55.848 C29.62,55.93 29.985,56.003 30.353,56.064 C30.466,56.084 30.58,56.098 30.694,56.115 C31.075,56.173 31.457,56.217 31.84,56.252 L31.853,56.063 L31.856,56.025 L31.879,55.68 L31.897,55.431 C31.911,55.224 32.095,55.069 32.297,55.084 C32.504,55.098 32.659,55.277 32.645,55.484 L32.618,55.87 L32.599,56.139 L32.592,56.24 L32.587,56.31 C32.738,56.317 32.889,56.318 33.039,56.323 C33.215,56.327 33.392,56.339 33.567,56.339 C33.809,56.339 34.044,56.317 34.282,56.307 C34.589,56.297 34.897,56.294 35.199,56.268 L35.198,56.261 L35.113,55.443 C35.092,55.238 35.242,55.053 35.448,55.032 C35.652,55.011 35.838,55.16 35.859,55.367 L35.943,56.177 C36.816,56.071 37.677,55.922 38.513,55.703 L38.284,54.906 C38.228,54.707 38.343,54.5 38.542,54.442 C38.737,54.385 38.948,54.5 39.005,54.699 L39.229,55.485 C40.069,55.229 40.89,54.928 41.68,54.566 L41.319,53.823 C41.229,53.636 41.307,53.411 41.493,53.322 C41.681,53.231 41.903,53.31 41.994,53.495 L42.351,54.231 C43.13,53.835 43.882,53.391 44.598,52.896 L44.109,52.217" id="Fill-25" fill="#FFFFFF"></path>
            <path d="M53.153,41.593 C54.396,36.357 53.527,30.951 50.704,26.369 C48.774,23.237 46.077,20.768 42.898,19.108 C46.571,20.665 49.675,23.298 51.81,26.763 C54.527,31.173 55.365,36.378 54.168,41.42 C52.705,47.575 48.454,52.421 42.94,54.775 C47.956,52.14 51.765,47.436 53.153,41.593 Z M29.28,55.752 L29.371,55.388 L29.405,55.249 L29.452,55.06 C29.47,54.989 29.459,54.921 29.439,54.857 C29.399,54.738 29.309,54.639 29.179,54.606 C29.085,54.584 28.991,54.6 28.911,54.644 C28.821,54.692 28.751,54.773 28.725,54.881 L28.703,54.965 L28.657,55.151 L28.612,55.33 L28.566,55.518 L28.533,55.653 C27.68,55.424 26.857,55.139 26.063,54.807 L26.209,54.474 L26.352,54.152 L26.361,54.129 L26.386,54.075 C26.443,53.944 26.416,53.801 26.334,53.696 C26.297,53.648 26.252,53.606 26.193,53.58 C26.177,53.573 26.159,53.574 26.143,53.569 C25.979,53.524 25.812,53.591 25.725,53.736 C25.717,53.749 25.705,53.758 25.699,53.773 L25.696,53.778 L25.544,54.124 L25.394,54.465 L25.368,54.524 C24.57,54.153 23.819,53.715 23.091,53.246 L23.222,53.051 L23.539,52.577 C23.578,52.52 23.592,52.454 23.596,52.39 C23.604,52.262 23.551,52.133 23.437,52.057 C23.342,51.994 23.23,51.983 23.13,52.011 C23.046,52.034 22.969,52.082 22.916,52.16 L22.843,52.27 L22.638,52.576 L22.466,52.832 C21.749,52.33 21.068,51.79 20.432,51.201 L20.762,50.857 L20.992,50.617 C21.002,50.608 20.998,50.593 21.006,50.583 C21.122,50.433 21.121,50.22 20.981,50.087 C20.854,49.965 20.671,49.973 20.528,50.064 C20.504,50.08 20.473,50.076 20.451,50.098 L20.253,50.304 L19.898,50.674 C19.28,50.057 18.693,49.413 18.166,48.723 L18.715,48.319 L18.814,48.248 C18.89,48.191 18.936,48.11 18.954,48.024 C18.976,47.923 18.959,47.813 18.894,47.723 C18.831,47.639 18.741,47.589 18.646,47.575 C18.552,47.56 18.452,47.582 18.369,47.642 L18.291,47.7 L17.734,48.11 C17.232,47.398 16.775,46.655 16.373,45.883 L17.075,45.534 C17.083,45.53 17.088,45.524 17.095,45.518 C17.264,45.42 17.333,45.209 17.244,45.031 C17.162,44.866 16.975,44.794 16.803,44.845 C16.782,44.851 16.761,44.852 16.741,44.862 L16.034,45.213 C15.662,44.428 15.353,43.614 15.088,42.782 L15.849,42.556 C15.889,42.545 15.922,42.524 15.954,42.501 C16.083,42.411 16.149,42.249 16.102,42.091 C16.057,41.938 15.922,41.838 15.772,41.825 C15.728,41.821 15.682,41.824 15.636,41.838 L14.857,42.069 C14.627,41.233 14.468,40.376 14.351,39.507 L15.148,39.416 C15.215,39.408 15.271,39.381 15.32,39.344 C15.428,39.266 15.494,39.14 15.479,39 C15.462,38.859 15.367,38.75 15.244,38.7 C15.188,38.677 15.128,38.664 15.062,38.671 L14.262,38.763 C14.18,37.903 14.146,37.035 14.182,36.157 L14.997,36.206 C15.005,36.207 15.013,36.207 15.021,36.207 C15.075,36.207 15.126,36.193 15.173,36.171 C15.295,36.115 15.386,35.998 15.395,35.855 C15.402,35.717 15.332,35.597 15.226,35.526 C15.172,35.489 15.112,35.462 15.043,35.457 L14.242,35.408 C14.32,34.429 14.449,33.446 14.684,32.461 L15.477,32.666 C15.509,32.674 15.54,32.677 15.571,32.677 C15.593,32.677 15.608,32.661 15.63,32.657 C15.771,32.633 15.896,32.544 15.934,32.396 C15.975,32.239 15.906,32.082 15.78,31.995 C15.745,31.971 15.707,31.951 15.664,31.94 L14.887,31.739 C15.122,30.89 15.396,30.061 15.735,29.268 L16.478,29.604 C16.499,29.614 16.521,29.613 16.544,29.619 C16.573,29.626 16.603,29.637 16.632,29.637 C16.774,29.637 16.911,29.555 16.974,29.417 C17.056,29.237 16.979,29.029 16.808,28.936 C16.8,28.931 16.795,28.925 16.787,28.921 L16.058,28.591 C16.434,27.798 16.85,27.031 17.322,26.306 L17.938,26.726 L18.008,26.774 C18.072,26.818 18.146,26.839 18.219,26.839 C18.251,26.839 18.28,26.824 18.312,26.816 C18.396,26.794 18.476,26.753 18.528,26.675 C18.586,26.591 18.604,26.492 18.587,26.399 C18.57,26.303 18.518,26.213 18.431,26.154 L18.318,26.077 L17.753,25.692 C18.259,24.976 18.806,24.297 19.398,23.662 L19.805,24.058 L19.998,24.248 C20.032,24.281 20.078,24.279 20.119,24.297 C20.167,24.317 20.209,24.354 20.26,24.354 C20.357,24.354 20.455,24.316 20.528,24.24 C20.657,24.109 20.649,23.914 20.547,23.77 C20.534,23.752 20.538,23.726 20.521,23.71 L20.286,23.48 L19.925,23.128 C20.545,22.514 21.204,21.943 21.901,21.42 L22.105,21.702 L22.34,22.029 L22.388,22.095 C22.448,22.179 22.54,22.222 22.635,22.237 C22.654,22.24 22.673,22.25 22.692,22.25 C22.768,22.25 22.845,22.228 22.911,22.179 C23.014,22.105 23.061,21.989 23.06,21.872 C23.059,21.797 23.043,21.721 22.996,21.656 L22.917,21.546 L22.676,21.212 L22.508,20.979 C23.225,20.483 23.977,20.04 24.757,19.642 L24.801,19.733 L24.97,20.08 L25.114,20.378 C25.12,20.39 25.132,20.395 25.139,20.406 C25.153,20.428 25.173,20.445 25.191,20.464 C25.262,20.537 25.351,20.59 25.452,20.59 C25.507,20.59 25.563,20.577 25.615,20.552 C25.802,20.462 25.879,20.237 25.789,20.051 L25.787,20.049 L25.773,20.02 L25.627,19.717 L25.444,19.342 L25.428,19.307 C25.588,19.235 25.75,19.168 25.911,19.098 C26.55,18.827 27.206,18.593 27.877,18.389 L27.938,18.602 L27.997,18.81 L28.036,18.947 L28.102,19.175 C28.103,19.178 28.105,19.179 28.106,19.182 C28.151,19.328 28.28,19.419 28.425,19.434 C28.438,19.436 28.448,19.447 28.462,19.447 C28.496,19.447 28.531,19.443 28.565,19.432 C28.666,19.405 28.744,19.337 28.791,19.252 C28.836,19.168 28.851,19.068 28.822,18.969 L28.798,18.882 L28.736,18.668 L28.683,18.483 L28.64,18.332 L28.594,18.171 C29.166,18.021 29.75,17.9 30.341,17.802 C30.421,17.788 30.504,17.783 30.585,17.771 C30.776,17.741 30.97,17.72 31.162,17.697 L31.192,17.984 L31.193,17.993 L31.232,18.357 L31.248,18.509 C31.269,18.702 31.432,18.845 31.621,18.845 C31.634,18.845 31.647,18.844 31.661,18.843 C31.866,18.822 32.016,18.637 31.994,18.431 L31.964,18.141 L31.931,17.825 L31.926,17.784 L31.907,17.606 C32.25,17.577 32.598,17.572 32.944,17.561 C33.142,17.555 33.337,17.536 33.535,17.536 C33.863,17.536 34.19,17.549 34.519,17.565 L34.519,17.569 L34.51,17.684 L34.46,18.39 C34.445,18.596 34.602,18.776 34.808,18.79 C34.816,18.792 34.826,18.792 34.835,18.792 C35.029,18.792 35.194,18.64 35.208,18.443 L35.267,17.622 C36.133,17.701 36.996,17.834 37.85,18.028 L37.654,18.816 C37.605,19.016 37.728,19.219 37.929,19.27 C37.959,19.277 37.989,19.281 38.02,19.281 C38.187,19.281 38.341,19.166 38.383,18.994 L38.574,18.222 C39.423,18.449 40.246,18.732 41.044,19.064 L40.721,19.799 C40.637,19.989 40.723,20.21 40.913,20.294 C40.962,20.316 41.013,20.325 41.064,20.325 C41.208,20.325 41.345,20.242 41.407,20.101 L41.737,19.35 C42.532,19.718 43.287,20.154 44.02,20.622 L43.567,21.297 C43.452,21.469 43.498,21.702 43.671,21.817 C43.734,21.861 43.807,21.881 43.879,21.881 C44,21.881 44.118,21.823 44.19,21.715 L44.647,21.031 C45.361,21.53 46.039,22.076 46.681,22.669 L46.116,23.258 C45.973,23.407 45.978,23.645 46.128,23.788 C46.2,23.858 46.294,23.892 46.387,23.892 C46.485,23.892 46.584,23.854 46.658,23.777 L47.217,23.193 C47.831,23.805 48.419,24.446 48.951,25.144 L48.294,25.626 C48.127,25.749 48.091,25.984 48.214,26.151 C48.287,26.251 48.4,26.303 48.517,26.303 C48.593,26.303 48.671,26.28 48.738,26.231 L49.379,25.76 C49.611,26.091 49.852,26.416 50.065,26.763 C50.312,27.162 50.525,27.575 50.74,27.987 L50.03,28.34 C49.845,28.432 49.77,28.657 49.861,28.843 C49.928,28.974 50.06,29.051 50.198,29.051 C50.254,29.051 50.311,29.038 50.364,29.012 L51.083,28.655 C51.46,29.447 51.767,30.261 52.029,31.089 L51.257,31.317 C51.059,31.376 50.945,31.584 51.004,31.783 C51.052,31.945 51.201,32.051 51.363,32.051 C51.398,32.051 51.435,32.046 51.47,32.036 L52.257,31.803 C52.488,32.645 52.653,33.5 52.769,34.363 L51.958,34.455 C51.752,34.48 51.605,34.665 51.628,34.87 C51.649,35.062 51.812,35.203 52,35.203 C52.014,35.203 52.028,35.203 52.043,35.201 L52.852,35.109 C52.933,35.974 52.971,36.844 52.934,37.719 L52.109,37.669 C51.916,37.658 51.726,37.814 51.713,38.021 C51.7,38.228 51.857,38.405 52.064,38.418 L52.869,38.467 C52.789,39.451 52.656,40.434 52.425,41.413 L51.629,41.209 C51.427,41.158 51.225,41.278 51.172,41.479 C51.12,41.679 51.241,41.884 51.441,41.936 L52.221,42.136 C51.985,42.985 51.711,43.814 51.372,44.607 L50.631,44.271 C50.442,44.186 50.22,44.268 50.134,44.457 C50.049,44.646 50.133,44.868 50.321,44.953 L51.05,45.284 C50.674,46.077 50.258,46.844 49.785,47.569 L49.1,47.1 C48.929,46.985 48.695,47.029 48.578,47.199 C48.462,47.37 48.505,47.604 48.677,47.72 L49.355,48.183 C48.849,48.898 48.302,49.577 47.709,50.212 L47.111,49.628 C46.963,49.483 46.726,49.486 46.581,49.634 C46.436,49.783 46.438,50.02 46.587,50.165 L47.183,50.746 C46.562,51.361 45.902,51.931 45.205,52.456 L44.718,51.778 C44.597,51.611 44.363,51.572 44.194,51.694 C44.026,51.815 43.988,52.049 44.109,52.217 L44.598,52.896 C43.882,53.391 43.13,53.835 42.351,54.231 L41.994,53.495 C41.903,53.31 41.681,53.231 41.493,53.322 C41.307,53.411 41.229,53.636 41.319,53.823 L41.68,54.566 C40.89,54.928 40.069,55.229 39.229,55.485 L39.005,54.699 C38.948,54.5 38.737,54.385 38.542,54.442 C38.343,54.5 38.228,54.707 38.284,54.906 L38.513,55.703 C37.677,55.922 36.816,56.071 35.943,56.177 L35.859,55.367 C35.838,55.16 35.652,55.011 35.448,55.032 C35.242,55.053 35.092,55.238 35.113,55.443 L35.198,56.261 L35.199,56.268 C34.897,56.294 34.589,56.297 34.282,56.307 C34.044,56.317 33.809,56.339 33.567,56.339 C33.392,56.339 33.215,56.327 33.039,56.323 C32.889,56.318 32.738,56.317 32.587,56.31 L32.592,56.24 L32.599,56.139 L32.618,55.87 L32.645,55.484 C32.659,55.277 32.504,55.098 32.297,55.084 C32.095,55.069 31.911,55.224 31.897,55.431 L31.879,55.68 L31.856,56.025 L31.853,56.063 L31.84,56.252 C31.457,56.217 31.075,56.173 30.694,56.115 C30.58,56.098 30.466,56.084 30.353,56.064 C29.985,56.003 29.62,55.93 29.257,55.848 L29.28,55.752 Z M45.856,54.103 C50.288,51.378 53.62,46.971 54.897,41.593 C56.141,36.357 55.271,30.951 52.448,26.369 C50.787,23.673 48.556,21.47 45.942,19.845 C48.941,21.443 51.486,23.794 53.315,26.763 C56.033,31.173 56.871,36.378 55.674,41.42 C54.339,47.038 50.678,51.564 45.856,54.103 Z M53.954,26.369 C51.132,21.787 46.693,18.58 41.457,17.336 C39.921,16.971 38.35,16.786 36.785,16.786 C36.577,16.786 36.374,16.807 36.168,16.813 C35.872,16.799 35.575,16.786 35.279,16.786 C35.039,16.786 34.803,16.808 34.564,16.817 C34.222,16.799 33.878,16.786 33.535,16.786 C24.174,16.786 16.122,23.159 13.955,32.283 C11.388,43.09 18.09,53.971 28.897,56.538 C30.432,56.903 32.004,57.089 33.567,57.089 C33.809,57.089 34.044,57.066 34.282,57.057 C34.626,57.075 34.969,57.089 35.312,57.089 C35.52,57.089 35.723,57.068 35.929,57.062 C36.226,57.075 36.521,57.089 36.817,57.089 C46.183,57.089 54.236,50.717 56.403,41.593 C57.646,36.357 56.777,30.951 53.954,26.369 Z" id="Fill-26" fill="#000000"></path>
            <path d="M38.564,50.723 C38.76,50.652 38.86,50.437 38.789,50.243 C38.719,50.049 38.504,49.947 38.309,50.017 C37.914,50.161 37.514,50.283 37.11,50.388 C34.903,50.969 32.576,51.001 30.36,50.481 C29.955,50.385 29.553,50.275 29.156,50.142 C28.957,50.077 28.747,50.184 28.682,50.381 C28.616,50.577 28.723,50.79 28.919,50.855 C30.414,51.353 31.979,51.601 33.547,51.601 C35.248,51.601 36.95,51.308 38.564,50.723" id="Fill-27" fill="#000000"></path>
            <path d="M29.684,23.551 C29.717,23.551 29.751,23.547 29.784,23.537 C31.105,23.171 32.464,22.998 33.823,23.022 C34.017,23.026 34.201,22.862 34.205,22.654 C34.209,22.447 34.044,22.277 33.837,22.272 C32.405,22.246 30.974,22.428 29.583,22.816 C29.384,22.87 29.267,23.077 29.322,23.277 C29.369,23.443 29.52,23.551 29.684,23.551" id="Fill-28" fill="#000000"></path>
            <path d="M23.375,27.281 C23.473,27.281 23.569,27.243 23.643,27.168 C24.892,25.896 26.352,24.89 27.982,24.179 C28.172,24.096 28.259,23.876 28.176,23.686 C28.094,23.495 27.873,23.409 27.683,23.491 C25.964,24.241 24.424,25.301 23.107,26.642 C22.963,26.79 22.965,27.028 23.112,27.173 C23.186,27.244 23.28,27.281 23.375,27.281" id="Fill-29" fill="#000000"></path>
            <path d="M20.411,32.35 C20.48,32.155 20.376,31.941 20.181,31.872 C19.987,31.805 19.771,31.907 19.703,32.104 C18.619,35.204 18.616,38.631 19.695,41.75 C19.749,41.905 19.895,42.002 20.05,42.002 C20.091,42.002 20.132,41.995 20.173,41.982 C20.368,41.913 20.472,41.7 20.404,41.505 C20.267,41.108 20.151,40.704 20.051,40.299 C19.503,38.083 19.505,35.756 20.056,33.55 C20.157,33.146 20.273,32.745 20.411,32.35" id="Fill-30" fill="#000000"></path>
            <path d="M47.004,33.359 C47.354,34.68 47.507,36.042 47.461,37.405 C47.454,37.612 47.616,37.785 47.823,37.792 C47.828,37.792 47.832,37.792 47.836,37.792 C48.038,37.792 48.204,37.632 48.211,37.43 C48.259,35.994 48.097,34.56 47.729,33.168 C47.677,32.967 47.475,32.847 47.271,32.901 C47.07,32.953 46.951,33.159 47.004,33.359" id="Fill-31" fill="#000000"></path>
            <path d="M46.388,31.549 C46.448,31.693 46.587,31.778 46.733,31.778 C46.782,31.778 46.831,31.77 46.878,31.75 C47.069,31.67 47.159,31.45 47.08,31.259 C46.355,29.528 45.318,27.973 43.995,26.638 C43.85,26.491 43.611,26.489 43.465,26.635 C43.317,26.781 43.316,27.018 43.462,27.165 C44.717,28.432 45.701,29.907 46.388,31.549" id="Fill-32" fill="#000000"></path>
            <path d="M21.863,34.161 C23.156,28.719 27.958,24.918 33.542,24.918 C34.475,24.918 35.413,25.028 36.33,25.246 C39.453,25.989 42.1,27.902 43.784,30.634 C45.468,33.367 45.986,36.591 45.245,39.715 C43.952,45.156 39.148,48.956 33.565,48.956 C32.631,48.956 31.693,48.846 30.776,48.628 C24.331,47.097 20.332,40.607 21.863,34.161 Z M33.565,49.706 C39.498,49.706 44.601,45.669 45.975,39.887 C46.763,36.57 46.211,33.143 44.422,30.24 C42.634,27.337 39.821,25.304 36.503,24.516 C35.529,24.285 34.533,24.168 33.542,24.168 C27.609,24.168 22.507,28.205 21.134,33.987 C19.507,40.836 23.755,47.732 30.603,49.358 C31.576,49.589 32.573,49.706 33.565,49.706 Z" id="Fill-33" fill="#000000"></path>
            <path d="M35.882,27.131 C36.044,27.169 36.202,27.214 36.359,27.262 L35.741,29.863 L35.16,29.725 L35.781,27.109 C35.815,27.115 35.849,27.122 35.882,27.131 Z M34.621,30.368 L35.933,30.68 C35.962,30.687 35.991,30.69 36.02,30.69 C36.089,30.69 36.157,30.671 36.217,30.635 C36.301,30.582 36.361,30.499 36.385,30.402 L37.169,27.097 C37.214,26.907 37.106,26.715 36.921,26.654 C36.637,26.561 36.353,26.471 36.055,26.4 C35.951,26.376 35.848,26.359 35.745,26.342 L35.57,26.311 C35.373,26.272 35.18,26.396 35.134,26.592 L34.344,29.916 C34.296,30.118 34.42,30.321 34.621,30.368 Z" id="Fill-34" fill="#000000"></path>
            <path d="M36.605,32.78 C37.472,32.986 38.01,33.859 37.804,34.726 C37.601,35.58 36.715,36.13 35.856,35.926 L31.696,34.937 L32.442,31.792 L36.605,32.78 Z M31.157,35.58 L35.684,36.656 C35.863,36.699 36.047,36.72 36.23,36.72 C36.23,36.72 36.23,36.72 36.23,36.72 C37.331,36.72 38.278,35.971 38.533,34.9 C38.835,33.631 38.048,32.351 36.778,32.05 L32.251,30.974 C32.156,30.952 32.053,30.968 31.968,31.02 C31.883,31.073 31.822,31.157 31.8,31.253 L30.88,35.129 C30.832,35.33 30.956,35.532 31.157,35.58 Z" id="Fill-35" fill="#000000"></path>
            <path d="M37.808,40.764 C37.604,41.619 36.722,42.169 35.861,41.964 L34.387,41.615 C34.367,41.599 34.355,41.595 34.306,41.595 L31.222,40.871 L31.224,40.867 C31.197,40.856 31.167,40.847 31.138,40.842 L30.338,40.653 L31.085,37.504 L36.608,38.816 C37.476,39.022 38.014,39.896 37.808,40.764 Z M30.61,36.733 C30.525,36.785 30.465,36.869 30.442,36.966 L29.522,40.844 C29.475,41.045 29.599,41.248 29.8,41.295 L30.978,41.575 C30.983,41.576 30.99,41.577 30.996,41.579 L34.058,42.296 C34.086,42.308 34.115,42.321 34.144,42.327 L35.687,42.693 C35.867,42.737 36.052,42.757 36.235,42.757 C37.336,42.757 38.282,42.009 38.537,40.938 C38.839,39.667 38.052,38.388 36.782,38.086 L30.894,36.688 C30.799,36.665 30.695,36.681 30.61,36.733 Z" id="Fill-36" fill="#000000"></path>
            <path d="M43.592,37.764 L42.472,37.497 C41.824,37.345 41.158,37.759 41.006,38.402 L40.956,38.612 C40.801,39.264 41.205,39.923 41.859,40.078 L43.031,40.356 C41.698,44.057 38.309,46.649 34.39,46.972 L34.984,44.469 L35.252,44.532 C35.574,44.609 35.905,44.648 36.234,44.648 C38.215,44.648 39.919,43.301 40.377,41.374 C40.719,39.932 40.264,38.406 39.211,37.367 C39.789,36.805 40.187,36.111 40.371,35.336 C40.815,33.466 39.94,31.533 38.273,30.621 L38.814,28.35 C42.027,30.322 43.9,34.007 43.592,37.764 Z M37.685,31.165 C39.204,31.858 40.027,33.538 39.642,35.162 C39.463,35.912 39.038,36.573 38.412,37.072 C38.323,37.142 38.271,37.251 38.271,37.365 C38.271,37.479 38.322,37.587 38.411,37.657 C39.471,38.507 39.956,39.898 39.647,41.2 C39.27,42.788 37.866,43.897 36.234,43.898 C35.963,43.898 35.69,43.865 35.425,43.803 L34.793,43.652 C34.697,43.629 34.596,43.645 34.51,43.697 C34.425,43.749 34.364,43.833 34.342,43.93 L33.544,47.29 C33.517,47.403 33.544,47.523 33.618,47.613 C33.689,47.7 33.796,47.751 33.908,47.751 C33.912,47.751 33.917,47.751 33.921,47.751 C38.499,47.599 42.5,44.564 43.875,40.198 C43.907,40.099 43.896,39.991 43.844,39.9 C43.792,39.81 43.705,39.744 43.604,39.72 L42.033,39.348 C41.781,39.288 41.626,39.035 41.686,38.784 L41.735,38.575 C41.794,38.327 42.051,38.169 42.298,38.228 L43.833,38.592 C43.938,38.617 44.046,38.596 44.134,38.535 C44.222,38.474 44.279,38.38 44.292,38.274 C44.84,33.908 42.61,29.556 38.744,27.444 C38.643,27.388 38.519,27.383 38.412,27.431 C38.306,27.478 38.227,27.573 38.2,27.687 L37.476,30.738 C37.434,30.911 37.522,31.091 37.685,31.165 Z" id="Fill-37" fill="#000000"></path>
            <path d="M31.224,46.743 C31.19,46.736 31.157,46.726 31.124,46.717 L31.835,43.72 L32.417,43.858 L31.708,46.84 C31.547,46.813 31.386,46.782 31.224,46.743 Z M32.955,43.215 L31.644,42.905 C31.441,42.857 31.239,42.981 31.192,43.182 L30.313,46.888 C30.267,47.084 30.384,47.282 30.578,47.336 L30.747,47.387 C30.847,47.418 30.946,47.449 31.051,47.473 C31.347,47.544 31.641,47.591 31.936,47.637 C31.955,47.64 31.974,47.641 31.993,47.641 C32.164,47.641 32.316,47.524 32.357,47.353 L33.233,43.666 C33.256,43.569 33.24,43.467 33.188,43.383 C33.136,43.299 33.052,43.238 32.955,43.215 Z" id="Fill-38" fill="#000000"></path>
            <path d="M23.553,35.73 L26.25,36.37 C26.893,36.524 27.562,36.111 27.715,35.469 L27.766,35.257 C27.841,34.94 27.788,34.613 27.617,34.336 C27.446,34.058 27.178,33.865 26.862,33.791 L24.217,33.161 C25.684,29.524 29.161,27.058 33.123,26.876 L32.591,29.114 L30.005,28.5 C29.3,28.333 28.58,28.781 28.416,29.479 C28.248,30.187 28.687,30.899 29.396,31.067 L29.875,31.181 L27.771,40.043 L27.29,39.928 C26.588,39.763 25.866,40.211 25.702,40.907 C25.62,41.25 25.677,41.604 25.862,41.905 C26.047,42.204 26.338,42.415 26.682,42.496 L29.267,43.111 L28.644,45.732 C25.055,43.736 23.054,39.81 23.553,35.73 Z M28.73,46.625 C28.782,46.651 28.84,46.663 28.897,46.663 C28.951,46.663 29.006,46.653 29.056,46.629 C29.159,46.58 29.235,46.487 29.262,46.376 L30.083,42.919 C30.105,42.822 30.09,42.72 30.037,42.635 C29.985,42.551 29.901,42.49 29.805,42.467 L26.855,41.766 C26.706,41.732 26.581,41.64 26.501,41.511 C26.421,41.382 26.396,41.229 26.432,41.08 C26.503,40.781 26.815,40.587 27.117,40.658 L27.962,40.859 C28.061,40.882 28.161,40.866 28.246,40.814 C28.33,40.761 28.391,40.678 28.414,40.582 L30.691,30.991 C30.739,30.788 30.614,30.587 30.413,30.538 L29.569,30.338 C29.264,30.265 29.073,29.957 29.146,29.652 C29.216,29.35 29.524,29.157 29.832,29.23 L32.783,29.93 C32.981,29.978 33.186,29.854 33.234,29.653 L33.965,26.577 C33.991,26.465 33.94,26.347 33.868,26.257 C33.797,26.168 33.662,26.115 33.548,26.115 C28.983,26.115 24.89,29.003 23.361,33.303 C23.326,33.403 23.335,33.513 23.386,33.607 C23.437,33.701 23.524,33.768 23.628,33.793 L26.689,34.521 C26.811,34.549 26.913,34.624 26.979,34.729 C27.045,34.836 27.064,34.961 27.036,35.082 L26.985,35.295 C26.927,35.541 26.672,35.7 26.423,35.64 L23.326,34.905 C23.226,34.881 23.118,34.9 23.031,34.958 C22.944,35.015 22.886,35.107 22.869,35.21 C22.105,39.915 24.461,44.502 28.73,46.625 Z" id="Fill-39" fill="#000000"></path>
            <path d="M8.68,20.04 L17.555,20.04 C17.762,20.04 17.93,19.871 17.93,19.665 C17.93,19.458 17.762,19.29 17.555,19.29 L8.68,19.29 C8.473,19.29 8.305,19.458 8.305,19.665 C8.305,19.871 8.473,20.04 8.68,20.04" id="Fill-40" fill="#000000"></path>
            <path d="M1.492,36.493 L10.742,36.493 C10.949,36.493 11.117,36.325 11.117,36.118 C11.117,35.911 10.949,35.743 10.742,35.743 L1.492,35.743 C1.285,35.743 1.117,35.911 1.117,36.118 C1.117,36.325 1.285,36.493 1.492,36.493" id="Fill-41" fill="#000000"></path>
            <path d="M7.648,44.719 L11.523,44.719 C11.73,44.719 11.898,44.551 11.898,44.344 C11.898,44.137 11.73,43.969 11.523,43.969 L7.648,43.969 C7.441,43.969 7.273,44.137 7.273,44.344 C7.273,44.551 7.441,44.719 7.648,44.719" id="Fill-42" fill="#000000"></path>
            <path d="M4.633,44.344 C4.633,44.137 4.465,43.969 4.258,43.969 L0.914,43.969 C0.707,43.969 0.539,44.137 0.539,44.344 C0.539,44.551 0.707,44.719 0.914,44.719 L4.258,44.719 C4.465,44.719 4.633,44.551 4.633,44.344" id="Fill-43" fill="#000000"></path>
            <path d="M13.492,48.458 C13.492,48.251 13.324,48.083 13.117,48.083 L4.242,48.083 C4.035,48.083 3.867,48.251 3.867,48.458 C3.867,48.665 4.035,48.833 4.242,48.833 L13.117,48.833 C13.324,48.833 13.492,48.665 13.492,48.458" id="Fill-44" fill="#000000"></path>
            <path d="M9.492,40.232 C9.492,40.024 9.324,39.856 9.117,39.856 L5.117,39.856 C4.91,39.856 4.742,40.024 4.742,40.232 C4.742,40.438 4.91,40.606 5.117,40.606 L9.117,40.606 C9.324,40.606 9.492,40.438 9.492,40.232" id="Fill-45" fill="#000000"></path>
            <path d="M15.523,52.197 L10.742,52.197 C10.535,52.197 10.367,52.365 10.367,52.572 C10.367,52.779 10.535,52.947 10.742,52.947 L15.523,52.947 C15.73,52.947 15.898,52.779 15.898,52.572 C15.898,52.365 15.73,52.197 15.523,52.197" id="Fill-46" fill="#000000"></path>
            <path d="M3.867,24.153 L9.367,24.153 C9.574,24.153 9.742,23.985 9.742,23.778 C9.742,23.571 9.574,23.403 9.367,23.403 L3.867,23.403 C3.66,23.403 3.492,23.571 3.492,23.778 C3.492,23.985 3.66,24.153 3.867,24.153" id="Fill-47" fill="#000000"></path>
            <path d="M11.836,27.891 C11.836,27.684 11.668,27.516 11.461,27.516 L7.711,27.516 C7.504,27.516 7.336,27.684 7.336,27.891 C7.336,28.099 7.504,28.266 7.711,28.266 L11.461,28.266 C11.668,28.266 11.836,28.099 11.836,27.891" id="Fill-48" fill="#000000"></path>
            <path d="M4.867,31.631 C4.66,31.631 4.492,31.799 4.492,32.006 C4.492,32.213 4.66,32.381 4.867,32.381 L9.367,32.381 C9.574,32.381 9.742,32.213 9.742,32.006 C9.742,31.799 9.574,31.631 9.367,31.631 L4.867,31.631" id="Fill-49" fill="#000000"></path>
            <path d="M50.821,3.932 C50.547,3.932 50.323,4.156 50.323,4.431 C50.323,4.705 50.547,4.929 50.821,4.929 C51.096,4.929 51.319,4.705 51.319,4.431 C51.319,4.156 51.096,3.932 50.821,3.932" id="Fill-50" fill="#000000"></path>
            <path d="M18.595,3.932 C18.32,3.932 18.097,4.156 18.097,4.431 C18.097,4.705 18.32,4.929 18.595,4.929 C18.869,4.929 19.093,4.705 19.093,4.431 C19.093,4.156 18.869,3.932 18.595,3.932" id="Fill-51" fill="#000000"></path>
            <path d="M48.609,16.834 C48.345,16.834 48.129,17.05 48.129,17.316 C48.129,17.582 48.345,17.798 48.609,17.798 C48.875,17.798 49.091,17.582 49.091,17.316 C49.091,17.05 48.875,16.834 48.609,16.834" id="Fill-52" fill="#000000"></path>
            <path d="M20.807,16.834 C20.542,16.834 20.326,17.05 20.326,17.316 C20.326,17.582 20.542,17.798 20.807,17.798 C21.072,17.798 21.288,17.582 21.288,17.316 C21.288,17.05 21.072,16.834 20.807,16.834" id="Fill-53" fill="#000000"></path>
            <path d="M18.595,68.88 C18.32,68.88 18.097,69.103 18.097,69.377 C18.097,69.652 18.32,69.877 18.595,69.877 C18.869,69.877 19.093,69.652 19.093,69.377 C19.093,69.103 18.869,68.88 18.595,68.88" id="Fill-54" fill="#000000"></path>
            <path d="M50.821,68.88 C50.547,68.88 50.323,69.103 50.323,69.377 C50.323,69.652 50.547,69.877 50.821,69.877 C51.096,69.877 51.319,69.652 51.319,69.377 C51.319,69.103 51.096,68.88 50.821,68.88" id="Fill-55" fill="#000000"></path>
            <path d="M20.807,56.011 C20.541,56.011 20.325,56.228 20.325,56.493 C20.325,56.759 20.541,56.974 20.807,56.974 C21.072,56.974 21.287,56.759 21.287,56.493 C21.287,56.228 21.072,56.011 20.807,56.011" id="Fill-56" fill="#000000"></path>
            <path d="M48.609,56.011 C48.344,56.011 48.128,56.228 48.128,56.493 C48.128,56.759 48.344,56.974 48.609,56.974 C48.875,56.974 49.09,56.759 49.09,56.493 C49.09,56.228 48.875,56.011 48.609,56.011" id="Fill-57" fill="#000000"></path>
        </g>
    </g>
</svg>