<?xml version="1.0" encoding="UTF-8"?>
<svg width="68px" height="63px" viewBox="0 0 68 63" version="1.1" xmlns="http://www.w3.org/2000/svg" xmlns:xlink="http://www.w3.org/1999/xlink">
    <!-- Generator: Sketch 49 (51002) - http://www.bohemiancoding.com/sketch -->
    <title>bitcoin-grey-14</title>
    <desc>Created with Sketch.</desc>
    <defs></defs>
    <g id="Page-1" stroke="none" stroke-width="1" fill="none" fill-rule="evenodd">
        <g id="bitcoin-grey-14" transform="translate(0.000000, -1.000000)" fill="#000000">
            <path d="M18.831,47.998 L16.965,47.998 L16.965,49.174 L18.814,49.174 C18.896,49.174 18.972,49.158 19.042,49.126 C19.113,49.095 19.175,49.053 19.229,49.001 C19.283,48.949 19.325,48.887 19.357,48.814 C19.389,48.742 19.404,48.665 19.404,48.583 C19.404,48.505 19.39,48.431 19.36,48.36 C19.33,48.29 19.288,48.229 19.234,48.176 C19.181,48.124 19.119,48.083 19.051,48.051 C18.982,48.02 18.909,48.002 18.831,47.998 Z M19.109,46.851 C19.109,46.721 19.063,46.609 18.97,46.516 C18.877,46.424 18.766,46.377 18.636,46.377 L16.965,46.377 L16.965,47.33 L18.636,47.33 C18.702,47.33 18.765,47.317 18.822,47.291 C18.88,47.265 18.93,47.23 18.973,47.188 C19.016,47.145 19.049,47.095 19.073,47.037 C19.098,46.98 19.109,46.917 19.109,46.851 Z M18.814,49.842 L15.861,49.842 L15.861,49.174 L16.296,49.174 L16.296,46.377 L15.861,46.377 L15.861,45.709 L18.636,45.709 C18.792,45.709 18.939,45.739 19.079,45.798 C19.218,45.857 19.34,45.939 19.443,46.043 C19.548,46.147 19.629,46.269 19.688,46.408 C19.748,46.547 19.777,46.695 19.777,46.851 C19.777,46.984 19.756,47.111 19.711,47.232 C19.666,47.353 19.606,47.462 19.532,47.558 C19.703,47.666 19.836,47.814 19.931,48.004 C20.025,48.193 20.073,48.386 20.073,48.583 C20.073,48.758 20.04,48.921 19.973,49.073 C19.906,49.226 19.814,49.36 19.7,49.475 C19.585,49.59 19.451,49.68 19.299,49.745 C19.146,49.81 18.984,49.842 18.814,49.842 Z" id="Fill-1"></path>
            <polyline id="Fill-2" points="23.6 49.842 22.045 49.842 22.045 49.174 22.485 49.174 22.485 46.377 22.045 46.377 22.045 45.709 23.594 45.709 23.594 46.377 23.154 46.377 23.154 49.174 23.6 49.174 23.6 49.842"></polyline>
            <polyline id="Fill-3" points="26.207 46.873 25.594 46.873 25.594 45.709 30.078 45.709 30.078 46.873 29.466 46.873 29.41 46.377 28.168 46.377 28.168 49.174 28.607 49.174 28.607 49.842 27.059 49.842 27.059 49.174 27.499 49.174 27.499 46.377 26.263 46.377 26.207 46.873"></polyline>
            <path d="M34.268,46.338 C34.037,46.338 33.825,46.373 33.63,46.444 C33.435,46.515 33.266,46.613 33.123,46.739 C32.979,46.866 32.867,47.018 32.786,47.196 C32.704,47.374 32.663,47.569 32.663,47.781 C32.663,47.993 32.704,48.188 32.786,48.366 C32.867,48.544 32.979,48.697 33.123,48.823 C33.266,48.949 33.435,49.048 33.63,49.118 C33.825,49.189 34.037,49.224 34.268,49.224 C34.572,49.224 34.839,49.171 35.067,49.065 C35.296,48.959 35.479,48.812 35.616,48.622 L36.111,49.073 C35.9,49.333 35.634,49.535 35.313,49.678 C34.991,49.821 34.643,49.892 34.268,49.892 C33.971,49.892 33.684,49.843 33.407,49.745 C33.13,49.646 32.886,49.505 32.675,49.321 C32.463,49.137 32.294,48.916 32.168,48.656 C32.041,48.396 31.979,48.104 31.979,47.781 C31.979,47.45 32.041,47.154 32.168,46.893 C32.294,46.631 32.463,46.41 32.675,46.229 C32.886,46.049 33.13,45.911 33.407,45.814 C33.684,45.718 33.971,45.67 34.268,45.67 C34.513,45.67 34.727,45.686 34.908,45.717 C35.09,45.749 35.249,45.789 35.385,45.837 C35.521,45.885 35.636,45.938 35.73,45.995 C35.825,46.053 35.909,46.106 35.983,46.154 L35.983,46.873 L35.371,46.873 L35.343,46.583 C35.276,46.542 35.209,46.506 35.143,46.475 C35.075,46.443 35,46.417 34.917,46.397 C34.833,46.376 34.739,46.361 34.636,46.352 C34.531,46.343 34.409,46.338 34.268,46.338" id="Fill-4"></path>
            <path d="M40.134,46.338 C39.903,46.338 39.691,46.373 39.496,46.444 C39.301,46.515 39.132,46.613 38.989,46.739 C38.846,46.866 38.733,47.018 38.652,47.196 C38.57,47.374 38.529,47.569 38.529,47.781 C38.529,47.993 38.57,48.188 38.652,48.366 C38.733,48.544 38.846,48.697 38.989,48.823 C39.132,48.949 39.301,49.048 39.496,49.118 C39.691,49.189 39.903,49.224 40.134,49.224 C40.379,49.224 40.6,49.189 40.797,49.118 C40.994,49.048 41.162,48.949 41.301,48.823 C41.44,48.697 41.548,48.544 41.624,48.366 C41.7,48.188 41.738,47.993 41.738,47.781 C41.738,47.569 41.7,47.374 41.624,47.196 C41.548,47.018 41.44,46.866 41.301,46.739 C41.162,46.613 40.994,46.515 40.797,46.444 C40.6,46.373 40.379,46.338 40.134,46.338 Z M37.845,47.781 C37.845,47.45 37.907,47.154 38.034,46.893 C38.16,46.631 38.329,46.41 38.541,46.229 C38.752,46.049 38.996,45.911 39.273,45.814 C39.55,45.718 39.837,45.67 40.134,45.67 C40.446,45.67 40.74,45.718 41.017,45.814 C41.294,45.911 41.536,46.049 41.744,46.229 C41.952,46.41 42.117,46.631 42.239,46.893 C42.362,47.154 42.424,47.45 42.424,47.781 C42.424,48.101 42.362,48.39 42.239,48.65 C42.117,48.91 41.952,49.132 41.744,49.316 C41.536,49.5 41.294,49.642 41.017,49.742 C40.74,49.842 40.446,49.892 40.134,49.892 C39.837,49.892 39.55,49.843 39.273,49.745 C38.996,49.646 38.752,49.505 38.541,49.321 C38.329,49.137 38.16,48.916 38.034,48.656 C37.907,48.396 37.845,48.104 37.845,47.781 Z" id="Fill-5"></path>
            <polyline id="Fill-6" points="45.994 49.842 44.44 49.842 44.44 49.174 44.88 49.174 44.88 46.377 44.44 46.377 44.44 45.709 45.988 45.709 45.988 46.377 45.549 46.377 45.549 49.174 45.994 49.174 45.994 49.842"></polyline>
            <polyline id="Fill-7" points="49.526 49.842 47.982 49.842 47.982 49.174 48.417 49.174 48.417 46.377 47.982 46.377 47.982 45.709 49.66 45.709 51.175 49.174 51.337 49.174 51.337 46.377 50.896 46.377 50.896 45.709 52.445 45.709 52.445 46.377 52.005 46.377 52.005 49.174 52.445 49.174 52.445 49.842 50.769 49.842 49.253 46.377 49.086 46.377 49.086 49.174 49.526 49.174 49.526 49.842"></polyline>
            <path d="M21.588,53.023 C21.357,53.023 21.146,53.059 20.95,53.129 C20.755,53.2 20.586,53.298 20.443,53.424 C20.3,53.551 20.187,53.703 20.106,53.881 C20.024,54.06 19.983,54.254 19.983,54.466 C19.983,54.678 20.024,54.873 20.106,55.051 C20.187,55.229 20.3,55.382 20.443,55.508 C20.586,55.634 20.755,55.733 20.95,55.803 C21.146,55.874 21.357,55.909 21.588,55.909 C21.893,55.909 22.159,55.856 22.388,55.75 C22.616,55.644 22.799,55.497 22.937,55.307 L23.432,55.759 C23.221,56.019 22.954,56.22 22.633,56.363 C22.312,56.506 21.963,56.577 21.588,56.577 C21.291,56.577 21.004,56.528 20.728,56.43 C20.45,56.331 20.206,56.19 19.995,56.006 C19.783,55.822 19.614,55.601 19.488,55.341 C19.361,55.081 19.299,54.789 19.299,54.466 C19.299,54.135 19.361,53.839 19.488,53.578 C19.614,53.316 19.783,53.095 19.995,52.914 C20.206,52.735 20.45,52.596 20.728,52.5 C21.004,52.403 21.291,52.355 21.588,52.355 C21.833,52.355 22.047,52.371 22.229,52.402 C22.41,52.434 22.569,52.474 22.705,52.522 C22.841,52.57 22.956,52.623 23.051,52.681 C23.146,52.738 23.229,52.791 23.304,52.839 L23.304,53.558 L22.691,53.558 L22.663,53.268 C22.597,53.227 22.529,53.191 22.463,53.16 C22.396,53.128 22.32,53.102 22.237,53.082 C22.153,53.061 22.06,53.046 21.956,53.037 C21.852,53.028 21.729,53.023 21.588,53.023" id="Fill-8"></path>
            <polyline id="Fill-9" points="26.919 53.062 26.48 53.062 26.48 55.859 28.746 55.859 28.802 55.363 29.415 55.363 29.415 56.527 25.376 56.527 25.376 55.859 25.811 55.859 25.811 53.062 25.376 53.062 25.376 52.394 26.919 52.394 26.919 53.062"></polyline>
            <path d="M33.504,53.023 C33.273,53.023 33.062,53.059 32.866,53.129 C32.671,53.2 32.502,53.298 32.359,53.424 C32.216,53.551 32.104,53.703 32.022,53.881 C31.94,54.06 31.899,54.254 31.899,54.466 C31.899,54.678 31.94,54.873 32.022,55.051 C32.104,55.229 32.216,55.382 32.359,55.508 C32.502,55.634 32.671,55.733 32.866,55.803 C33.062,55.874 33.273,55.909 33.504,55.909 C33.749,55.909 33.97,55.874 34.167,55.803 C34.364,55.733 34.532,55.634 34.671,55.508 C34.811,55.382 34.918,55.229 34.994,55.051 C35.07,54.873 35.108,54.678 35.108,54.466 C35.108,54.254 35.07,54.06 34.994,53.881 C34.918,53.703 34.811,53.551 34.671,53.424 C34.532,53.298 34.364,53.2 34.167,53.129 C33.97,53.059 33.749,53.023 33.504,53.023 Z M31.215,54.466 C31.215,54.135 31.277,53.839 31.404,53.578 C31.53,53.316 31.699,53.095 31.911,52.914 C32.122,52.735 32.366,52.596 32.644,52.5 C32.92,52.403 33.207,52.355 33.504,52.355 C33.816,52.355 34.11,52.403 34.387,52.5 C34.664,52.596 34.906,52.735 35.114,52.914 C35.322,53.095 35.487,53.316 35.609,53.578 C35.732,53.839 35.794,54.135 35.794,54.466 C35.794,54.786 35.732,55.075 35.609,55.335 C35.487,55.595 35.322,55.817 35.114,56.001 C34.906,56.185 34.664,56.327 34.387,56.427 C34.11,56.527 33.816,56.577 33.504,56.577 C33.207,56.577 32.92,56.528 32.644,56.43 C32.366,56.331 32.122,56.19 31.911,56.006 C31.699,55.822 31.53,55.601 31.404,55.341 C31.277,55.081 31.215,54.789 31.215,54.466 Z" id="Fill-10"></path>
            <path d="M42.145,53.062 L42.145,54.472 C42.145,54.791 42.1,55.081 42.011,55.341 C41.921,55.601 41.792,55.822 41.623,56.006 C41.454,56.19 41.247,56.331 41.002,56.43 C40.757,56.528 40.481,56.577 40.172,56.577 C39.875,56.577 39.604,56.528 39.361,56.43 C39.118,56.331 38.91,56.19 38.737,56.006 C38.564,55.822 38.432,55.601 38.337,55.341 C38.242,55.081 38.194,54.789 38.194,54.466 L38.194,53.062 L37.76,53.062 L37.76,52.394 L39.303,52.394 L39.303,53.062 L38.863,53.062 L38.863,54.466 C38.863,54.678 38.888,54.873 38.938,55.051 C38.988,55.229 39.067,55.382 39.175,55.508 C39.282,55.634 39.418,55.733 39.582,55.803 C39.745,55.874 39.941,55.909 40.172,55.909 C40.417,55.909 40.622,55.874 40.788,55.803 C40.953,55.733 41.087,55.634 41.188,55.508 C41.291,55.382 41.364,55.229 41.409,55.051 C41.453,54.873 41.476,54.678 41.476,54.466 L41.476,53.062 L41.035,53.062 L41.035,52.394 L42.584,52.394 L42.584,53.062 L42.145,53.062" id="Fill-11"></path>
            <path d="M47.029,55.859 C47.227,55.859 47.411,55.822 47.584,55.75 C47.757,55.678 47.907,55.578 48.035,55.452 C48.163,55.326 48.265,55.177 48.339,55.007 C48.413,54.836 48.45,54.652 48.45,54.455 C48.45,54.262 48.413,54.08 48.339,53.909 C48.265,53.738 48.163,53.591 48.035,53.466 C47.907,53.342 47.757,53.243 47.584,53.171 C47.411,53.098 47.227,53.062 47.029,53.062 L45.687,53.062 L45.687,55.859 L47.029,55.859 Z M44.584,52.394 L47.029,52.394 C47.309,52.394 47.573,52.445 47.823,52.547 C48.074,52.649 48.296,52.792 48.489,52.976 C48.683,53.16 48.836,53.378 48.949,53.63 C49.063,53.883 49.119,54.158 49.119,54.455 C49.119,54.734 49.065,54.998 48.96,55.249 C48.854,55.5 48.708,55.719 48.522,55.909 C48.337,56.098 48.117,56.249 47.862,56.36 C47.608,56.472 47.33,56.527 47.029,56.527 L44.584,56.527 L44.584,55.859 L45.019,55.859 L45.019,53.062 L44.584,53.062 L44.584,52.394 Z" id="Fill-12"></path>
            <polyline id="Fill-13" points="24.025 59.747 23.586 59.747 23.586 62.544 24.025 62.544 24.025 63.212 22.477 63.212 22.477 62.544 22.917 62.544 22.917 59.747 22.678 59.747 21.669 63.212 20.516 63.212 19.514 59.747 19.269 59.747 19.269 62.544 19.708 62.544 19.708 63.212 18.165 63.212 18.165 62.544 18.6 62.544 18.6 59.747 18.165 59.747 18.165 59.079 20.015 59.079 21.018 62.544 21.168 62.544 22.176 59.079 24.025 59.079 24.025 59.747"></polyline>
            <polyline id="Fill-14" points="27.574 63.212 26.02 63.212 26.02 62.544 26.46 62.544 26.46 59.747 26.02 59.747 26.02 59.079 27.568 59.079 27.568 59.747 27.129 59.747 27.129 62.544 27.574 62.544 27.574 63.212"></polyline>
            <polyline id="Fill-15" points="31.106 63.212 29.562 63.212 29.562 62.544 29.997 62.544 29.997 59.747 29.562 59.747 29.562 59.079 31.24 59.079 32.755 62.544 32.917 62.544 32.917 59.747 32.477 59.747 32.477 59.079 34.025 59.079 34.025 59.747 33.585 59.747 33.585 62.544 34.025 62.544 34.025 63.212 32.349 63.212 30.833 59.747 30.666 59.747 30.666 62.544 31.106 62.544 31.106 63.212"></polyline>
            <polyline id="Fill-16" points="37.574 63.212 36.02 63.212 36.02 62.544 36.46 62.544 36.46 59.747 36.02 59.747 36.02 59.079 37.568 59.079 37.568 59.747 37.129 59.747 37.129 62.544 37.574 62.544 37.574 63.212"></polyline>
            <polyline id="Fill-17" points="41.106 63.212 39.563 63.212 39.563 62.544 39.997 62.544 39.997 59.747 39.563 59.747 39.563 59.079 41.24 59.079 42.755 62.544 42.917 62.544 42.917 59.747 42.477 59.747 42.477 59.079 44.025 59.079 44.025 59.747 43.585 59.747 43.585 62.544 44.025 62.544 44.025 63.212 42.349 63.212 40.833 59.747 40.666 59.747 40.666 62.544 41.106 62.544 41.106 63.212"></polyline>
            <path d="M48.214,59.708 C47.983,59.708 47.771,59.744 47.576,59.814 C47.381,59.885 47.212,59.983 47.069,60.109 C46.926,60.236 46.813,60.388 46.732,60.566 C46.65,60.745 46.609,60.939 46.609,61.151 C46.609,61.363 46.65,61.558 46.732,61.736 C46.813,61.914 46.926,62.067 47.069,62.193 C47.212,62.319 47.381,62.418 47.576,62.488 C47.771,62.559 47.983,62.594 48.214,62.594 C48.455,62.594 48.673,62.561 48.866,62.494 C49.059,62.427 49.226,62.332 49.367,62.21 L49.367,61.536 L47.668,61.536 L47.668,60.867 L50.036,60.867 L50.036,62.427 C49.835,62.694 49.575,62.9 49.256,63.045 C48.937,63.19 48.589,63.262 48.214,63.262 C47.917,63.262 47.63,63.213 47.354,63.115 C47.076,63.017 46.832,62.875 46.621,62.691 C46.409,62.508 46.24,62.286 46.114,62.026 C45.987,61.766 45.925,61.474 45.925,61.151 C45.925,60.821 45.987,60.524 46.114,60.263 C46.24,60.001 46.409,59.78 46.621,59.6 C46.832,59.42 47.076,59.281 47.354,59.185 C47.63,59.088 47.917,59.04 48.214,59.04 C48.459,59.04 48.673,59.056 48.854,59.087 C49.036,59.119 49.195,59.159 49.331,59.207 C49.467,59.255 49.582,59.308 49.677,59.366 C49.771,59.423 49.855,59.476 49.93,59.524 L49.93,60.243 L49.317,60.243 L49.289,59.953 C49.223,59.912 49.155,59.876 49.089,59.845 C49.021,59.813 48.946,59.787 48.863,59.767 C48.779,59.746 48.686,59.731 48.582,59.722 C48.478,59.713 48.355,59.708 48.214,59.708" id="Fill-18"></path>
            <path d="M35.239,11.943 C35.295,11.973 35.356,11.988 35.416,11.988 C35.549,11.988 35.679,11.916 35.747,11.79 L39.281,5.211 C39.378,5.029 39.31,4.8 39.127,4.702 C38.945,4.604 38.717,4.674 38.62,4.856 L35.085,11.436 C34.988,11.617 35.056,11.845 35.239,11.943" id="Fill-19"></path>
            <path d="M30.1,11.114 C30.105,11.114 30.111,11.114 30.117,11.114 C30.316,11.114 30.482,10.957 30.491,10.756 L30.909,1.361 C30.918,1.153 30.758,0.978 30.551,0.969 C30.352,0.962 30.168,1.12 30.16,1.327 L29.742,10.723 C29.732,10.929 29.893,11.104 30.1,11.114" id="Fill-20"></path>
            <path d="M45.497,10.615 C45.573,10.615 45.651,10.592 45.717,10.544 L48.475,8.527 C48.643,8.404 48.679,8.169 48.557,8.002 C48.434,7.836 48.199,7.799 48.033,7.921 L45.275,9.938 C45.107,10.06 45.071,10.295 45.193,10.462 C45.267,10.562 45.381,10.615 45.497,10.615" id="Fill-21"></path>
            <path d="M38.681,15.224 C38.754,15.324 38.868,15.378 38.984,15.378 C39.061,15.378 39.138,15.354 39.205,15.305 L43.997,11.8 C44.164,11.679 44.2,11.443 44.078,11.277 C43.955,11.11 43.72,11.073 43.554,11.195 L38.762,14.7 C38.595,14.822 38.559,15.057 38.681,15.224" id="Fill-22"></path>
            <path d="M43.778,19.735 C43.811,19.916 43.969,20.042 44.146,20.042 C44.168,20.042 44.191,20.04 44.214,20.035 L50.691,18.842 C50.895,18.805 51.029,18.61 50.992,18.406 C50.955,18.203 50.76,18.067 50.555,18.105 L44.079,19.299 C43.875,19.336 43.74,19.531 43.778,19.735" id="Fill-23"></path>
            <path d="M20.411,30.009 L15.482,33.473 C15.313,33.592 15.272,33.827 15.392,33.995 C15.464,34.099 15.581,34.155 15.699,34.155 C15.773,34.155 15.848,34.133 15.914,34.087 L20.843,30.621 C21.012,30.503 21.053,30.269 20.934,30.099 C20.815,29.931 20.583,29.889 20.411,30.009" id="Fill-24"></path>
            <path d="M9.354,26.316 C9.377,26.316 9.4,26.314 9.424,26.31 L17.682,24.757 C17.885,24.719 18.019,24.522 17.981,24.319 C17.942,24.115 17.746,23.981 17.543,24.02 L9.285,25.572 C9.081,25.611 8.948,25.807 8.986,26.01 C9.02,26.19 9.177,26.316 9.354,26.316" id="Fill-25"></path>
            <path d="M10.256,17.374 L16.978,19.19 C17.01,19.199 17.043,19.202 17.075,19.202 C17.241,19.202 17.392,19.093 17.437,18.925 C17.491,18.725 17.373,18.52 17.173,18.465 L10.451,16.649 C10.251,16.595 10.045,16.715 9.992,16.913 C9.938,17.114 10.056,17.32 10.256,17.374" id="Fill-26"></path>
            <path d="M23.471,8.864 C23.532,9.005 23.67,9.089 23.814,9.089 C23.865,9.089 23.916,9.078 23.964,9.057 C24.154,8.974 24.241,8.754 24.158,8.564 L22.469,4.688 C22.386,4.498 22.166,4.411 21.975,4.493 C21.785,4.576 21.699,4.797 21.781,4.987 L23.471,8.864" id="Fill-27"></path>
            <path d="M20.382,14.37 C20.453,14.431 20.54,14.461 20.627,14.461 C20.732,14.461 20.836,14.417 20.911,14.332 C21.046,14.174 21.029,13.938 20.872,13.803 L18.719,11.942 C18.562,11.807 18.326,11.823 18.19,11.98 C18.055,12.137 18.072,12.374 18.229,12.509 L20.382,14.37" id="Fill-28"></path>
            <path d="M16.082,10.701 C16.152,10.759 16.237,10.788 16.322,10.788 C16.429,10.788 16.536,10.743 16.61,10.654 C16.743,10.494 16.722,10.258 16.563,10.126 L12.29,6.556 C12.133,6.424 11.896,6.445 11.762,6.604 C11.629,6.763 11.65,6.999 11.81,7.132 L16.082,10.701" id="Fill-29"></path>
            <path d="M28.326,18.015 L30.673,18.015 C31.573,18.015 32.305,18.746 32.305,19.646 C32.305,20.546 31.572,21.279 30.672,21.279 L27.222,21.279 L27.222,18.015 L28.326,18.015 Z M27.222,22.03 L31.629,22.03 C32.529,22.03 33.262,22.762 33.262,23.661 C33.262,24.562 32.529,25.295 31.629,25.295 L27.222,25.295 L27.222,22.03 Z M26.472,25.295 L25.606,25.295 C25.399,25.295 25.231,25.463 25.231,25.67 C25.231,25.877 25.399,26.045 25.606,26.045 L27.951,26.045 L27.951,27.786 C27.951,27.994 28.119,28.161 28.326,28.161 C28.533,28.161 28.701,27.994 28.701,27.786 L28.701,26.045 L30.165,26.045 L30.165,27.786 C30.165,27.994 30.333,28.161 30.54,28.161 C30.747,28.161 30.915,27.994 30.915,27.786 L30.915,26.045 L31.629,26.045 C32.943,26.045 34.012,24.975 34.012,23.661 C34.012,22.579 33.281,21.673 32.29,21.385 C32.757,20.949 33.055,20.334 33.055,19.646 C33.055,18.416 32.114,17.412 30.915,17.288 L30.915,15.522 C30.915,15.315 30.747,15.147 30.54,15.147 C30.333,15.147 30.165,15.315 30.165,15.522 L30.165,17.264 L28.701,17.264 L28.701,15.522 C28.701,15.315 28.533,15.147 28.326,15.147 C28.119,15.147 27.951,15.315 27.951,15.522 L27.951,17.264 L25.606,17.264 C25.399,17.264 25.231,17.432 25.231,17.639 C25.231,17.847 25.399,18.015 25.606,18.015 L26.472,18.015 L26.472,21.387 C26.403,21.454 26.359,21.549 26.359,21.654 C26.359,21.758 26.403,21.852 26.472,21.92 L26.472,25.295 Z" id="Fill-30"></path>
            <path d="M29.619,13.104 C34.593,13.104 38.64,17.151 38.64,22.124 C38.64,22.177 38.632,22.228 38.632,22.281 C36.918,23.21 35.576,24.786 34.979,26.739 C32.529,27.091 30.447,28.578 29.328,30.773 C29.175,30.753 29.022,30.735 28.862,30.735 C28.382,30.735 27.913,30.784 27.458,30.87 C23.527,29.898 20.601,26.35 20.601,22.124 C20.601,17.151 24.646,13.104 29.619,13.104 Z M52.96,38.584 C51.905,37.08 50.179,36.182 48.344,36.182 C46.424,36.182 44.638,37.179 43.603,38.805 C42.513,38.348 41.395,38.234 40.225,38.516 C40.277,38.219 40.302,37.937 40.302,37.658 C40.302,35.228 38.756,33.159 36.599,32.364 C36.758,31.551 37.544,30.954 38.437,31.153 C38.538,31.174 38.64,31.155 38.725,31.099 C38.81,31.042 38.868,30.953 38.887,30.853 C39.151,29.398 40.415,28.341 41.893,28.341 C43.155,28.341 44.303,29.14 44.75,30.332 C44.794,30.451 44.897,30.54 45.022,30.567 C45.15,30.593 45.277,30.555 45.367,30.464 C45.786,30.042 46.341,29.808 46.932,29.808 C48.146,29.808 49.134,30.796 49.134,32.009 C49.134,32.217 49.302,32.385 49.509,32.385 C49.716,32.385 49.884,32.217 49.884,32.009 C49.884,30.383 48.56,29.058 46.932,29.058 C46.316,29.058 45.73,29.246 45.236,29.595 C44.578,28.379 43.292,27.591 41.893,27.591 C40.173,27.591 38.686,28.74 38.229,30.369 C37.105,30.305 36.125,31.092 35.878,32.149 C35.484,32.062 35.077,32.012 34.657,32.012 C31.647,32.012 29.18,34.379 29.026,37.417 C28.584,37.506 28.154,37.648 27.746,37.839 C26.883,38.244 26.39,39.122 26.464,40.047 L23.51,40.047 C22.73,40.047 22.085,39.437 22.042,38.658 C22.036,38.544 22.032,38.429 22.032,38.315 C22.032,35.038 24.351,32.297 27.433,31.638 C27.894,31.538 28.372,31.485 28.862,31.485 C28.999,31.485 29.129,31.503 29.259,31.521 C29.343,31.532 29.428,31.544 29.513,31.551 C29.572,31.557 29.626,31.536 29.68,31.515 C29.768,31.481 29.846,31.425 29.888,31.336 C29.922,31.263 29.967,31.197 30.003,31.124 C31.045,29.078 33.007,27.709 35.313,27.452 C35.466,27.436 35.593,27.327 35.634,27.178 C36.089,25.486 37.169,24.102 38.569,23.204 C38.704,23.118 38.832,23.019 38.973,22.942 C39.096,22.875 39.23,22.828 39.357,22.77 C40.232,22.361 41.193,22.116 42.202,22.116 C45.276,22.116 47.979,24.206 48.776,27.198 C48.815,27.343 48.937,27.452 49.087,27.472 C52.245,27.914 54.698,30.548 54.919,33.734 C54.929,33.874 55.017,33.998 55.146,34.053 C56.173,34.489 57.252,35.833 58.265,37.94 C58.485,38.397 58.454,38.928 58.183,39.359 C57.912,39.79 57.447,40.047 56.938,40.047 L53.34,40.047 C53.38,39.536 53.266,39.02 52.96,38.584 Z M52.447,40.565 C52.403,40.651 52.342,40.723 52.283,40.797 C52.002,41.152 51.583,41.371 51.119,41.371 L28.703,41.371 C28.231,41.371 27.819,41.144 27.543,40.797 C27.454,40.684 27.385,40.56 27.33,40.422 C27.3,40.347 27.257,40.281 27.239,40.2 C27.228,40.148 27.238,40.099 27.231,40.047 C27.157,39.411 27.473,38.796 28.065,38.517 C28.502,38.312 28.967,38.174 29.447,38.105 C29.631,38.078 29.76,37.844 29.76,37.658 C29.76,34.959 31.957,32.763 34.657,32.763 C35.121,32.763 35.56,32.848 35.985,32.969 C36.044,33.009 36.113,33.038 36.19,33.038 C36.194,33.038 36.198,33.036 36.202,33.036 C38.141,33.688 39.552,35.502 39.552,37.658 C39.552,38.06 39.489,38.472 39.354,38.958 C39.317,39.092 39.358,39.237 39.46,39.332 C39.562,39.427 39.708,39.459 39.84,39.411 C41.193,38.936 42.394,39.041 43.59,39.621 C43.769,39.709 43.985,39.64 44.082,39.466 C44.949,37.903 46.582,36.932 48.344,36.932 C49.935,36.932 51.431,37.711 52.346,39.015 C52.561,39.321 52.638,39.688 52.595,40.047 C52.58,40.174 52.547,40.299 52.498,40.422 C52.48,40.469 52.471,40.52 52.447,40.565 Z M58.818,39.759 C59.228,39.108 59.273,38.306 58.94,37.614 C57.896,35.442 56.789,34.046 55.648,33.461 C55.315,30.104 52.751,27.344 49.434,26.768 C48.473,23.575 45.534,21.366 42.202,21.366 C41.21,21.366 40.262,21.583 39.38,21.943 C39.374,21.587 39.347,21.237 39.303,20.89 C39.331,20.897 39.353,20.919 39.383,20.919 C39.406,20.919 39.429,20.917 39.452,20.912 L42.381,20.373 C42.585,20.336 42.72,20.14 42.682,19.936 C42.645,19.733 42.451,19.597 42.246,19.635 L39.316,20.175 C39.273,20.182 39.236,20.201 39.201,20.221 C38.312,15.743 34.355,12.354 29.619,12.354 C24.233,12.354 19.851,16.737 19.851,22.124 C19.851,26.287 22.473,29.842 26.15,31.244 C23.308,32.34 21.282,35.092 21.282,38.315 C21.282,38.444 21.286,38.573 21.293,38.699 C21.357,39.876 22.332,40.797 23.51,40.797 L26.656,40.797 C27.012,41.593 27.798,42.121 28.703,42.121 L51.119,42.121 C51.96,42.121 52.724,41.658 53.112,40.911 C53.131,40.875 53.136,40.834 53.154,40.797 L56.938,40.797 C57.706,40.797 58.409,40.408 58.818,39.759 Z" id="Fill-31"></path>
            <path d="M59.106,52.585 L66.264,58.055 C66.487,58.225 66.54,58.531 66.384,58.733 C66.296,58.848 66.161,58.907 66.019,58.907 C65.908,58.907 65.794,58.87 65.696,58.796 L58.537,53.323 C58.721,53.073 58.911,52.827 59.106,52.585 Z M57.503,53.478 C56.644,54.733 55.911,56.077 55.328,57.496 C55.067,56.377 55.389,54.508 56.46,52.68 C56.523,52.572 56.585,52.464 56.654,52.356 C56.721,52.253 56.796,52.151 56.868,52.048 C56.956,51.919 57.037,51.788 57.134,51.661 C57.229,51.535 57.331,51.424 57.431,51.304 C57.511,51.208 57.589,51.108 57.671,51.016 C57.756,50.922 57.843,50.832 57.93,50.743 C59.405,49.22 61.132,48.425 62.313,48.424 C61.091,49.348 59.98,50.4 58.987,51.55 C58.905,51.645 58.829,51.744 58.748,51.84 C58.669,51.936 58.588,52.032 58.51,52.129 C58.315,52.371 58.126,52.617 57.941,52.868 C57.867,52.969 57.794,53.071 57.722,53.173 C57.65,53.275 57.574,53.374 57.503,53.478 Z M66.718,57.459 L59.583,52.006 C60.529,50.915 61.585,49.918 62.744,49.039 C62.938,48.903 63.066,48.678 63.066,48.424 C63.066,48.009 62.733,47.674 62.318,47.674 L62.313,47.674 C60.736,47.674 58.761,48.753 57.241,50.377 C57.148,50.356 57.055,50.33 56.959,50.33 C56.577,50.33 56.228,50.5 56.002,50.795 C55.706,51.182 55.694,51.697 55.916,52.111 C54.62,54.225 54.302,56.403 54.598,57.668 C54.672,57.985 54.943,58.219 55.268,58.244 C55.289,58.245 55.309,58.246 55.329,58.246 C55.63,58.246 55.906,58.065 56.022,57.781 C56.579,56.424 57.279,55.136 58.1,53.933 L65.241,59.391 C65.463,59.563 65.74,59.657 66.019,59.657 C66.404,59.657 66.755,59.486 66.982,59.186 C67.171,58.94 67.255,58.625 67.213,58.304 C67.169,57.973 66.989,57.665 66.718,57.459 Z" id="Fill-32"></path>
            <path d="M2.12,58.907 C1.978,58.907 1.842,58.848 1.755,58.733 C1.599,58.531 1.651,58.225 1.875,58.055 L9.033,52.585 C9.228,52.827 9.417,53.073 9.602,53.323 L2.442,58.796 C2.345,58.87 2.23,58.907 2.12,58.907 Z M10.417,53.173 C10.344,53.071 10.272,52.969 10.198,52.868 C10.013,52.617 9.824,52.371 9.629,52.129 C9.55,52.032 9.47,51.936 9.39,51.84 C9.31,51.744 9.233,51.645 9.152,51.55 C8.159,50.4 7.047,49.348 5.825,48.424 C7.006,48.425 8.734,49.22 10.209,50.743 C10.296,50.832 10.382,50.922 10.468,51.016 C10.55,51.108 10.628,51.208 10.708,51.304 C10.807,51.424 10.91,51.535 11.005,51.661 C11.102,51.788 11.182,51.919 11.271,52.048 C11.342,52.151 11.419,52.253 11.484,52.357 C11.553,52.464 11.616,52.572 11.679,52.68 C12.75,54.508 13.072,56.377 12.81,57.496 C12.228,56.077 11.495,54.733 10.635,53.478 C10.565,53.374 10.489,53.275 10.417,53.173 Z M12.138,50.796 C11.911,50.5 11.562,50.33 11.18,50.33 C11.084,50.33 10.992,50.356 10.898,50.377 C9.379,48.754 7.403,47.674 5.826,47.674 L5.825,47.674 C5.503,47.674 5.217,47.879 5.114,48.185 C5.012,48.491 5.116,48.827 5.373,49.022 C6.54,49.905 7.604,50.908 8.555,52.007 L1.419,57.46 C1.15,57.665 0.969,57.973 0.926,58.304 C0.883,58.625 0.967,58.94 1.161,59.191 C1.384,59.486 1.735,59.657 2.12,59.657 C2.399,59.657 2.676,59.563 2.899,59.39 L10.04,53.932 C10.86,55.136 11.56,56.424 12.117,57.781 C12.233,58.065 12.508,58.246 12.81,58.246 C12.831,58.246 12.85,58.245 12.871,58.244 C13.196,58.219 13.467,57.985 13.541,57.668 C13.836,56.404 13.519,54.228 12.222,52.113 C12.445,51.697 12.434,51.183 12.138,50.796 Z" id="Fill-33"></path>
        </g>
    </g>
</svg>