<?xml version="1.0" encoding="UTF-8"?>
<svg width="68px" height="62px" viewBox="0 0 68 62" version="1.1" xmlns="http://www.w3.org/2000/svg" xmlns:xlink="http://www.w3.org/1999/xlink">
    <!-- Generator: Sketch 49 (51002) - http://www.bohemiancoding.com/sketch -->
    <title>bitcoin-grey-17</title>
    <desc>Created with Sketch.</desc>
    <defs></defs>
    <g id="Page-1" stroke="none" stroke-width="1" fill="none" fill-rule="evenodd">
        <g id="bitcoin-grey-17" fill="#000000">
            <path d="M7.779,25.335 C6.987,25.887 6.208,26.467 5.443,27.075 C5.192,26.761 4.942,26.449 4.691,26.136 C4.912,25.96 5.134,25.786 5.357,25.614 C4.331,24.285 3.306,22.956 2.28,21.626 C2.033,21.818 1.788,22.012 1.544,22.208 C1.293,21.895 1.042,21.582 0.792,21.269 C3.178,19.344 5.69,17.656 8.297,16.205 C8.636,16.822 8.974,17.439 9.312,18.056 C8.943,18.261 8.575,18.471 8.209,18.686 C8.025,18.448 7.841,18.208 7.656,17.97 C6.213,18.823 4.803,19.754 3.429,20.76 C3.766,21.223 4.103,21.686 4.44,22.149 C5.544,21.343 6.673,20.586 7.824,19.882 C8.034,20.226 8.243,20.572 8.453,20.916 C7.329,21.602 6.227,22.339 5.149,23.125 C5.565,23.696 5.98,24.268 6.396,24.839 C6.625,24.673 6.856,24.508 7.088,24.346 C7.318,24.677 7.549,25.005 7.779,25.335" id="Fill-1"></path>
            <path d="M19.931,12.709 C20.159,13.54 20.387,14.369 20.615,15.2 C20.77,15.765 20.827,16.299 20.793,16.805 C20.759,17.31 20.639,17.766 20.436,18.18 C20.231,18.59 19.946,18.949 19.578,19.261 C19.208,19.571 18.765,19.817 18.239,20.008 C17.732,20.188 17.243,20.286 16.764,20.284 C16.284,20.282 15.831,20.194 15.403,20.014 C14.976,19.835 14.581,19.57 14.222,19.212 C13.862,18.854 13.558,18.412 13.314,17.876 C12.96,17.101 12.607,16.326 12.254,15.551 C11.979,15.679 11.706,15.808 11.433,15.94 C11.259,15.575 11.084,15.21 10.91,14.843 C11.901,14.361 12.904,13.912 13.917,13.496 C14.069,13.873 14.22,14.25 14.372,14.627 C14.09,14.742 13.808,14.861 13.527,14.982 C13.86,15.767 14.192,16.552 14.524,17.338 C14.675,17.694 14.859,18 15.074,18.262 C15.289,18.527 15.535,18.72 15.812,18.856 C16.087,18.992 16.391,19.062 16.723,19.07 C17.055,19.079 17.421,19.007 17.823,18.86 C18.252,18.703 18.592,18.518 18.844,18.297 C19.095,18.074 19.278,17.832 19.393,17.548 C19.506,17.27 19.558,16.961 19.543,16.624 C19.528,16.282 19.468,15.934 19.355,15.561 C19.105,14.742 18.857,13.921 18.608,13.102 C18.318,13.192 18.03,13.284 17.742,13.381 C17.617,12.993 17.491,12.605 17.366,12.217 C18.403,11.872 19.45,11.561 20.502,11.282 C20.604,11.678 20.705,12.075 20.806,12.47 C20.514,12.547 20.222,12.627 19.931,12.709" id="Fill-2"></path>
            <path d="M24.976,12.481 C24.57,12.553 24.166,12.632 23.761,12.714 C23.623,12.014 23.485,11.314 23.347,10.613 C26.427,9.978 29.553,9.618 32.685,9.535 C32.697,10.254 32.71,10.973 32.722,11.693 C32.311,11.703 31.9,11.717 31.49,11.738 C31.44,11.434 31.39,11.131 31.338,10.827 C30.492,10.871 29.646,10.936 28.802,11.022 C28.962,12.736 29.121,14.451 29.281,16.166 C29.55,16.14 29.819,16.115 30.089,16.094 C30.12,16.505 30.151,16.916 30.182,17.326 C29.258,17.399 28.336,17.499 27.417,17.629 C27.361,17.222 27.306,16.815 27.25,16.408 C27.518,16.37 27.786,16.334 28.055,16.301 C27.85,14.593 27.646,12.885 27.441,11.177 C26.603,11.285 25.767,11.413 24.934,11.561 C24.947,11.868 24.961,12.174 24.976,12.481" id="Fill-3"></path>
            <path d="M44.464,11.81 C44.281,12.671 44.097,13.531 43.914,14.392 C43.788,14.975 43.591,15.491 43.327,15.933 C43.062,16.377 42.744,16.737 42.375,17.016 C42.005,17.3 41.587,17.491 41.121,17.601 C40.653,17.71 40.151,17.728 39.603,17.657 C39.075,17.588 38.606,17.444 38.188,17.22 C37.771,16.998 37.418,16.704 37.128,16.339 C36.838,15.974 36.617,15.549 36.469,15.056 C36.321,14.564 36.259,14.018 36.291,13.418 C36.339,12.549 36.386,11.68 36.434,10.811 C36.138,10.797 35.841,10.787 35.545,10.778 C35.56,10.364 35.576,9.951 35.591,9.537 C36.669,9.567 37.746,9.63 38.821,9.725 C38.78,10.139 38.74,10.552 38.699,10.965 C38.399,10.938 38.1,10.914 37.8,10.892 C37.73,11.76 37.66,12.629 37.589,13.497 C37.558,13.888 37.576,14.258 37.643,14.594 C37.71,14.934 37.835,15.228 38.013,15.479 C38.191,15.73 38.424,15.937 38.71,16.098 C38.996,16.26 39.348,16.367 39.768,16.421 C40.215,16.478 40.598,16.469 40.921,16.383 C41.244,16.298 41.52,16.161 41.749,15.958 C41.978,15.756 42.165,15.502 42.309,15.188 C42.452,14.87 42.563,14.528 42.635,14.135 C42.795,13.274 42.955,12.414 43.115,11.553 C42.818,11.501 42.521,11.451 42.224,11.403 C42.293,10.992 42.362,10.582 42.431,10.171 C43.502,10.34 44.57,10.543 45.632,10.78 C45.538,11.186 45.443,11.592 45.35,12 C45.055,11.934 44.76,11.872 44.464,11.81" id="Fill-4"></path>
            <path d="M54.262,16.514 C54.348,16.32 54.388,16.12 54.384,15.918 C54.379,15.714 54.335,15.52 54.252,15.334 C54.169,15.15 54.047,14.981 53.886,14.825 C53.725,14.671 53.536,14.547 53.321,14.464 C52.359,14.08 51.389,13.726 50.411,13.4 C50.084,14.364 49.756,15.326 49.428,16.29 C50.369,16.604 51.302,16.948 52.226,17.322 C52.423,17.402 52.62,17.436 52.824,17.438 C53.027,17.436 53.221,17.398 53.405,17.324 C53.59,17.254 53.758,17.146 53.907,17.008 C54.058,16.869 54.176,16.708 54.262,16.514 Z M49.063,19.838 C48.185,19.524 47.298,19.237 46.405,18.979 C46.522,18.578 46.64,18.175 46.757,17.774 C47.016,17.848 47.273,17.925 47.531,18.004 C48.052,16.329 48.572,14.656 49.093,12.982 C48.807,12.896 48.52,12.812 48.232,12.729 C48.349,12.328 48.467,11.925 48.584,11.524 C50.371,12.029 52.137,12.631 53.874,13.326 C54.248,13.478 54.579,13.691 54.858,13.967 C55.138,14.244 55.357,14.561 55.514,14.916 C55.674,15.277 55.752,15.648 55.748,16.014 C55.745,16.382 55.66,16.734 55.496,17.077 C55.332,17.421 55.109,17.709 54.831,17.953 C54.554,18.196 54.234,18.382 53.872,18.509 C53.377,18.683 52.886,18.737 52.391,18.666 C52.393,18.816 52.395,18.964 52.396,19.114 C52.404,19.596 52.57,19.907 52.9,20.058 C53.077,20.134 53.248,20.172 53.412,20.158 C53.576,20.145 53.752,20.107 53.939,20.038 C54.048,20.426 54.15,20.816 54.248,21.205 C53.902,21.328 53.588,21.395 53.3,21.409 C53.013,21.424 52.708,21.358 52.38,21.21 C51.929,21.005 51.606,20.724 51.407,20.351 C51.208,19.983 51.098,19.534 51.075,19.002 C51.064,18.737 51.051,18.473 51.037,18.208 C50.37,17.95 49.698,17.708 49.023,17.481 C48.92,17.782 48.817,18.084 48.715,18.385 C48.974,18.472 49.232,18.562 49.49,18.654 C49.348,19.048 49.206,19.444 49.063,19.838 Z" id="Fill-5"></path>
            <path d="M65.721,22.749 C65.381,22.48 65.038,22.214 64.693,21.953 C64.853,21.678 65.011,21.403 65.169,21.127 C63.962,20.221 62.725,19.376 61.463,18.59 C61.142,19.101 60.82,19.613 60.499,20.124 C61.517,20.759 62.517,21.435 63.497,22.151 C63.246,22.495 62.995,22.837 62.744,23.18 C61.789,22.481 60.815,21.821 59.823,21.2 C59.427,21.832 59.03,22.463 58.634,23.093 C59.796,23.824 60.933,24.613 62.042,25.455 C62.261,25.225 62.48,24.997 62.7,24.767 C63.021,25.013 63.34,25.262 63.657,25.516 C63.193,26.095 62.729,26.674 62.266,27.252 C60.335,25.694 58.307,24.316 56.205,23.119 C56.414,22.752 56.623,22.383 56.831,22.016 C57.07,22.152 57.309,22.289 57.546,22.43 C58.447,20.905 59.349,19.38 60.25,17.856 C59.985,17.701 59.72,17.549 59.453,17.399 C59.662,17.031 59.871,16.664 60.08,16.296 C62.513,17.66 64.864,19.232 67.108,21.009 C66.646,21.589 66.183,22.169 65.721,22.749" id="Fill-6"></path>
            <polyline id="Fill-7" points="29.732 1.474 29.732 5.132 29.122 5.132 29.122 1.474 27.592 1.474 27.592 0.841 31.245 0.841 31.245 1.474 29.732 1.474"></polyline>
            <path d="M32.666,5.132 L32.045,5.132 L32.045,0.841 L32.666,0.841 L32.666,2.601 C32.839,2.515 33.029,2.486 33.213,2.486 C33.466,2.486 34.219,2.613 34.61,2.613 C34.789,2.613 35.007,2.584 35.191,2.504 L35.191,0.841 L35.818,0.841 L35.818,5.132 L35.191,5.132 L35.191,3.136 C35.007,3.217 34.789,3.246 34.61,3.246 C34.219,3.246 33.466,3.119 33.213,3.119 C33.029,3.119 32.839,3.148 32.666,3.234 L32.666,5.132" id="Fill-8"></path>
            <path d="M37.705,4.506 L40.351,4.506 L40.351,5.132 L37.078,5.132 L37.078,0.841 L40.098,0.841 L40.098,1.474 L37.705,1.474 L37.705,2.774 C37.963,2.625 38.234,2.607 38.516,2.607 L39.454,2.607 L39.454,3.246 L38.516,3.246 C38.24,3.246 37.963,3.274 37.705,3.413 L37.705,4.506" id="Fill-9"></path>
            <polygon id="Fill-10" points="31.192 25.624 31.918 25.624 31.918 20.559 31.192 20.559"></polygon>
            <path d="M35.091,25.74 C34.317,25.74 33.516,25.36 33.007,24.701 L33.536,24.206 C33.801,24.525 34.297,25 35.091,25 C35.838,25 36.592,24.715 36.592,24.084 C36.592,23.309 35.824,23.309 35.091,23.309 C33.883,23.309 33.224,22.861 33.224,21.999 C33.224,21.177 34.005,20.41 35.091,20.41 C35.858,20.41 36.523,20.627 37.128,21.211 L36.666,21.755 C36.123,21.313 35.736,21.157 35.091,21.157 C34.521,21.157 34.045,21.55 34.045,21.992 C34.045,22.298 34.263,22.576 35.125,22.576 C36.897,22.576 37.353,23.126 37.353,24.084 C37.353,25.102 36.374,25.74 35.091,25.74" id="Fill-11"></path>
            <path d="M6.969,10.744 C7.798,10.744 8.669,10.509 9.455,10.027 C14.616,6.824 20.271,4.693 26.262,3.693 C26.466,3.658 26.604,3.465 26.57,3.261 C26.536,3.056 26.346,2.919 26.138,2.952 C20.051,3.969 14.305,6.135 9.06,9.387 C7.506,10.344 5.576,10.157 4.669,8.962 C4.384,8.586 4.278,8.087 4.371,7.558 C4.505,6.796 5.01,6.08 5.755,5.597 C6.331,5.224 6.988,5.091 7.56,5.232 C7.961,5.332 8.269,5.553 8.45,5.876 C8.79,6.48 8.477,7.317 7.738,7.785 C7.187,8.132 6.509,8.076 6.225,7.659 C6.108,7.489 5.875,7.443 5.704,7.56 C5.533,7.677 5.488,7.91 5.605,8.082 C6.124,8.841 7.235,8.989 8.138,8.419 C9.216,7.738 9.64,6.459 9.104,5.507 C8.823,5.008 8.339,4.652 7.74,4.504 C6.97,4.313 6.097,4.482 5.347,4.969 C4.428,5.565 3.803,6.462 3.633,7.428 C3.503,8.163 3.659,8.869 4.07,9.414 C4.733,10.287 5.812,10.744 6.969,10.744" id="Fill-12"></path>
            <path d="M41.833,3.732 C47.818,4.764 53.457,6.924 58.594,10.151 C59.347,10.62 60.187,10.847 61.001,10.847 C62.209,10.847 63.359,10.347 64.08,9.398 C64.53,8.803 64.701,8.042 64.56,7.255 C64.388,6.292 63.776,5.411 62.882,4.839 C62.151,4.37 61.29,4.21 60.517,4.4 C59.881,4.557 59.364,4.937 59.061,5.471 C58.497,6.459 58.898,7.77 59.975,8.453 C60.878,9.024 62.009,8.852 62.55,8.058 C62.666,7.887 62.623,7.654 62.452,7.537 C62.282,7.421 62.048,7.465 61.931,7.635 C61.623,8.086 60.925,8.168 60.377,7.82 C59.639,7.352 59.347,6.482 59.712,5.841 C59.913,5.489 60.263,5.235 60.696,5.129 C61.273,4.987 61.919,5.113 62.477,5.471 C63.196,5.931 63.687,6.629 63.822,7.387 C63.925,7.965 63.805,8.52 63.483,8.945 C62.507,10.228 60.535,10.478 58.993,9.515 C53.772,6.237 48.042,4.043 41.96,2.993 C41.751,2.958 41.563,3.095 41.527,3.299 C41.492,3.504 41.628,3.697 41.833,3.732" id="Fill-13"></path>
            <path d="M40.557,23.374 C45.533,24.202 50.234,25.966 54.53,28.616 C55.19,29.024 55.642,29.649 55.771,30.334 C55.87,30.861 55.762,31.366 55.467,31.757 C54.94,32.459 53.869,32.587 53.03,32.048 C52.4,31.64 52.162,30.868 52.488,30.29 C52.589,30.112 52.765,29.985 52.982,29.929 C53.264,29.857 53.584,29.914 53.857,30.087 C54.061,30.214 54.203,30.407 54.247,30.617 C54.27,30.728 54.276,30.89 54.172,31.043 C54.056,31.215 54.1,31.448 54.271,31.564 C54.443,31.68 54.676,31.635 54.793,31.465 C54.989,31.175 55.056,30.82 54.98,30.463 C54.895,30.055 54.63,29.686 54.255,29.451 C53.808,29.172 53.276,29.08 52.798,29.202 C52.38,29.307 52.039,29.562 51.835,29.921 C51.314,30.844 51.66,32.055 52.624,32.679 C53.097,32.982 53.627,33.129 54.14,33.129 C54.894,33.129 55.613,32.812 56.066,32.208 C56.489,31.648 56.646,30.932 56.508,30.197 C56.341,29.303 55.763,28.494 54.923,27.978 C50.544,25.277 45.752,23.478 40.68,22.634 C40.471,22.6 40.282,22.738 40.248,22.943 C40.214,23.146 40.353,23.34 40.557,23.374" id="Fill-14"></path>
            <path d="M11.661,30.334 C11.534,31.024 11.677,31.686 12.063,32.195 C12.483,32.757 13.161,33.051 13.886,33.051 C14.409,33.051 14.955,32.898 15.447,32.585 C16.415,31.968 16.784,30.787 16.287,29.896 C16.096,29.558 15.771,29.317 15.373,29.217 C14.892,29.095 14.356,29.191 13.902,29.478 C13.517,29.719 13.247,30.092 13.161,30.501 C13.089,30.841 13.15,31.177 13.333,31.447 C13.45,31.618 13.682,31.662 13.855,31.547 C14.026,31.431 14.071,31.197 13.955,31.027 C13.867,30.897 13.874,30.754 13.895,30.656 C13.939,30.445 14.086,30.246 14.3,30.113 C14.583,29.934 14.908,29.872 15.189,29.944 C15.33,29.98 15.52,30.064 15.632,30.263 C15.936,30.807 15.677,31.549 15.043,31.952 C14.199,32.491 13.152,32.4 12.662,31.744 C12.403,31.403 12.31,30.95 12.398,30.469 C12.524,29.786 13.002,29.128 13.677,28.707 C17.954,26.038 22.643,24.255 27.615,23.405 C27.819,23.369 27.957,23.176 27.921,22.971 C27.887,22.766 27.696,22.63 27.488,22.664 C22.42,23.532 17.64,25.35 13.28,28.07 C12.417,28.609 11.827,29.433 11.661,30.334" id="Fill-15"></path>
            <path d="M51.392,48.814 C51.58,48.564 51.756,48.285 51.911,47.951 C51.957,47.824 51.998,47.721 52.043,47.609 C52.106,47.617 52.172,47.625 52.222,47.625 C52.368,47.625 52.481,47.59 52.577,47.53 C54.276,48.012 55.871,48.458 57,48.71 C56.966,48.761 56.934,48.81 56.9,48.861 C56.369,49.591 55.764,50.052 54.98,50.345 L54.976,50.707 L54.976,50.345 C54.655,50.345 53.352,49.819 51.392,48.814 Z M52.38,46.708 C52.323,46.763 52.271,46.823 52.21,46.875 C52.159,46.874 52.071,46.863 51.939,46.837 C51.844,46.818 51.723,46.788 51.571,46.746 C51.021,46.596 50.053,46.273 48.353,45.589 C48.336,45.557 48.316,45.529 48.3,45.499 C48.171,45.257 48.027,45.025 47.87,44.801 C47.848,44.77 47.822,44.739 47.8,44.708 C47.707,44.58 47.616,44.452 47.515,44.33 C47.507,44.322 47.502,44.313 47.494,44.304 C47.45,44.253 47.401,44.204 47.355,44.154 C47.275,44.065 47.19,43.978 47.105,43.894 C47.088,43.877 47.073,43.859 47.056,43.843 C47.042,43.828 47.029,43.813 47.015,43.799 C47.312,43.856 47.623,43.917 47.944,43.981 C47.985,43.989 48.025,43.996 48.065,44.005 C48.18,44.027 48.29,44.05 48.405,44.072 L49.481,44.285 C50.718,44.524 52.271,44.798 53.367,44.9 C53.335,44.994 53.306,45.07 53.272,45.173 L53.272,45.174 C53.249,45.244 53.221,45.304 53.196,45.371 C53.152,45.493 53.109,45.616 53.059,45.724 C53.004,45.847 52.942,45.958 52.879,46.065 C52.739,46.304 52.576,46.511 52.391,46.697 C52.387,46.701 52.383,46.703 52.38,46.708 Z M47.611,42.382 C47.977,42.27 48.399,42.232 48.946,42.232 L49.054,42.232 C49.214,42.232 49.398,42.233 49.584,42.235 C51.05,42.254 53.245,42.34 55.529,42.436 C55.415,42.758 55.287,43.053 55.133,43.307 C55.057,43.433 54.971,43.547 54.884,43.659 C54.789,43.781 54.687,43.894 54.579,44.002 C54.524,44.056 54.475,44.116 54.416,44.168 C54.416,44.168 54.413,44.169 54.413,44.169 C54.402,44.173 54.33,44.193 54.106,44.193 C54.079,44.193 54.043,44.191 54.013,44.19 C53.899,44.188 53.769,44.18 53.623,44.17 C52.771,44.104 51.39,43.89 49.624,43.549 L49.009,43.427 L48.551,43.337 C47.893,43.205 47.259,43.08 46.697,42.976 C46.725,42.945 46.752,42.906 46.78,42.878 C46.79,42.868 46.798,42.853 46.808,42.843 C46.872,42.783 46.941,42.745 47.007,42.697 C47.081,42.639 47.153,42.573 47.232,42.529 C47.351,42.465 47.48,42.422 47.611,42.382 Z M36.426,30.844 C36.763,30.867 37.082,30.948 37.39,31.053 L37.39,33.208 L36.426,33.208 L36.426,30.844 Z M24.924,33.107 L24.924,33.223 C24.674,33.244 24.433,33.294 24.195,33.353 C24.389,32.819 24.696,32.342 25.092,31.948 C24.993,32.32 24.924,32.703 24.924,33.107 Z M23.96,47.599 L23.96,39.035 L19.79,39.035 C19.795,38.958 19.817,38.885 19.827,38.81 C19.844,38.683 19.86,38.558 19.889,38.437 C20.054,37.728 20.413,37.097 20.913,36.602 C20.814,36.973 20.745,37.358 20.745,37.761 L20.745,38.253 L24.924,38.253 L24.924,50.516 L23.96,50.516 L23.96,47.599 Z M23.21,41.945 C22.894,41.226 22.577,40.508 22.259,39.785 L23.21,39.785 L23.21,41.945 Z M13.263,43.658 C13.174,43.545 13.086,43.431 13.009,43.307 C12.851,43.051 12.723,42.757 12.609,42.436 C14.894,42.34 17.088,42.254 18.554,42.235 C18.739,42.233 18.924,42.232 19.085,42.232 L19.194,42.232 C19.74,42.232 20.163,42.27 20.527,42.382 C20.659,42.422 20.788,42.465 20.905,42.529 C20.984,42.573 21.056,42.639 21.131,42.697 C21.196,42.745 21.266,42.783 21.329,42.843 C21.339,42.853 21.348,42.868 21.357,42.878 C21.386,42.906 21.413,42.946 21.44,42.978 C20.879,43.08 20.247,43.205 19.588,43.337 L19.131,43.427 L18.515,43.549 C16.749,43.89 15.368,44.104 14.516,44.17 C14.37,44.18 14.239,44.188 14.125,44.19 C14.096,44.191 14.06,44.193 14.033,44.193 C13.886,44.193 13.803,44.184 13.772,44.184 C13.762,44.184 13.757,44.186 13.757,44.188 C13.744,44.177 13.734,44.162 13.721,44.151 C13.667,44.104 13.621,44.051 13.571,44.001 C13.461,43.891 13.357,43.778 13.263,43.658 Z M20.442,45.326 C20.244,45.405 20.045,45.485 19.853,45.562 C18.107,46.268 17.126,46.595 16.568,46.746 C16.416,46.788 16.294,46.818 16.2,46.837 C16.068,46.863 15.979,46.874 15.928,46.875 C15.867,46.823 15.815,46.763 15.759,46.708 C15.755,46.703 15.752,46.7 15.748,46.697 C15.562,46.511 15.399,46.304 15.26,46.065 C15.196,45.958 15.135,45.847 15.08,45.724 C15.03,45.616 14.986,45.493 14.942,45.371 C14.918,45.304 14.89,45.244 14.867,45.173 C14.867,45.173 14.866,45.173 14.866,45.172 C14.833,45.07 14.804,44.993 14.771,44.9 C15.867,44.798 17.42,44.524 18.658,44.285 L19.734,44.072 C19.849,44.049 19.959,44.027 20.072,44.005 C20.112,43.996 20.152,43.989 20.193,43.981 C20.796,43.861 21.363,43.752 21.856,43.664 C21.873,43.661 21.892,43.658 21.909,43.655 C21.912,43.66 21.915,43.663 21.917,43.669 C21.931,43.693 21.942,43.709 21.956,43.732 C21.962,43.744 21.969,43.755 21.975,43.766 C22.016,43.842 22.061,43.936 22.103,44.018 C22.118,44.047 22.134,44.077 22.149,44.109 C22.191,44.193 22.231,44.268 22.275,44.357 C22.277,44.36 22.278,44.362 22.279,44.364 C22.312,44.432 22.349,44.508 22.383,44.58 C22.287,44.615 22.191,44.649 22.09,44.688 C21.571,44.88 21.003,45.102 20.442,45.326 Z M3.452,41.825 C3.068,41.555 2.329,40.775 1.756,39.94 C1.131,39.029 1.001,38.497 1.026,38.263 C1.248,38.237 1.787,38.204 2.555,38.25 C5.63,38.428 8.708,38.599 11.784,38.768 C14.204,38.9 16.625,39.025 19.046,39.144 C19.044,39.195 19.031,39.243 19.031,39.294 L19.031,39.785 L21.439,39.785 C21.482,39.884 21.525,39.98 21.568,40.077 C21.626,40.209 21.683,40.337 21.74,40.467 C21.799,40.602 21.858,40.735 21.917,40.87 C21.93,40.899 21.943,40.927 21.956,40.957 C22.088,41.258 22.22,41.557 22.353,41.857 C22.446,42.07 22.54,42.282 22.633,42.494 C22.696,42.637 22.759,42.781 22.822,42.923 C22.87,43.032 22.918,43.141 22.966,43.25 C22.97,43.259 22.974,43.268 22.978,43.277 C23.025,43.385 23.074,43.494 23.122,43.604 C23.124,43.608 23.126,43.613 23.127,43.616 C23.14,43.644 23.152,43.672 23.164,43.699 C23.166,43.702 23.167,43.705 23.169,43.71 C23.183,43.741 23.196,43.773 23.21,43.804 L23.21,44.574 C23.198,44.547 23.185,44.521 23.172,44.494 C23.082,44.302 22.989,44.111 22.905,43.94 C22.856,43.84 22.81,43.754 22.762,43.661 C22.761,43.658 22.759,43.655 22.758,43.653 C22.742,43.622 22.727,43.591 22.711,43.564 C22.709,43.56 22.707,43.555 22.705,43.551 C22.7,43.541 22.695,43.531 22.69,43.522 C22.638,43.424 22.584,43.325 22.532,43.235 C22.528,43.228 22.523,43.221 22.52,43.214 C22.512,43.202 22.505,43.191 22.498,43.179 C22.43,43.064 22.361,42.951 22.293,42.85 C22.26,42.802 22.226,42.75 22.191,42.704 C22.135,42.628 22.074,42.565 22.015,42.497 C22.01,42.492 22.005,42.485 21.999,42.478 C21.948,42.422 21.902,42.353 21.849,42.303 C21.83,42.285 21.81,42.277 21.791,42.26 C21.646,42.127 21.497,42.015 21.343,41.923 C21.043,41.744 20.712,41.641 20.354,41.577 C20.004,41.515 19.63,41.481 19.196,41.481 L19.085,41.481 C18.714,41.481 18.265,41.489 17.773,41.5 C16.295,41.534 14.353,41.611 12.358,41.697 C12.229,41.701 12.1,41.707 11.971,41.713 C11.84,41.718 11.71,41.723 11.58,41.729 C11.439,41.735 11.297,41.741 11.156,41.746 L10.087,41.793 C8.464,41.861 6.625,41.931 5.292,41.931 C4.94,41.931 4.659,41.927 4.427,41.919 C4.275,41.913 4.146,41.907 4.037,41.9 C3.864,41.889 3.738,41.877 3.65,41.865 C3.52,41.847 3.468,41.832 3.452,41.825 Z M6.583,45.476 C6.579,45.476 6.578,45.478 6.579,45.478 C5.745,44.965 5.243,44.339 4.954,43.452 C4.861,43.161 4.766,42.91 4.678,42.676 C4.861,42.679 5.064,42.681 5.292,42.681 C6.64,42.681 8.488,42.611 10.119,42.542 L11.188,42.496 C11.4,42.487 11.612,42.478 11.825,42.469 C11.932,42.81 12.065,43.114 12.215,43.4 C12.278,43.521 12.338,43.646 12.409,43.758 C12.487,43.882 12.578,43.993 12.666,44.106 C12.822,44.307 12.993,44.496 13.185,44.672 L12.923,44.711 C10.895,45.02 8.962,45.313 7.729,45.431 C7.591,45.444 7.458,45.455 7.338,45.465 C7.19,45.476 7.063,45.48 6.947,45.482 C6.914,45.483 6.87,45.487 6.839,45.487 C6.68,45.487 6.603,45.476 6.583,45.476 Z M9.808,48.173 L9.777,48.182 C8.952,47.781 8.443,47.245 8.131,46.464 C8.091,46.348 8.053,46.261 8.012,46.156 C9.279,46.024 11.115,45.744 13.036,45.452 L14.113,45.288 C14.127,45.33 14.139,45.361 14.153,45.405 C14.171,45.461 14.195,45.509 14.215,45.564 C14.258,45.686 14.303,45.804 14.352,45.918 C14.403,46.037 14.46,46.151 14.519,46.261 C14.645,46.504 14.788,46.724 14.949,46.924 C13.35,47.377 11.73,47.826 10.701,48.041 C10.552,48.072 10.426,48.093 10.304,48.114 C10.142,48.142 10.007,48.158 9.9,48.163 C9.873,48.166 9.831,48.173 9.808,48.173 Z M11.139,48.71 C12.268,48.459 13.862,48.012 15.562,47.53 C15.656,47.59 15.77,47.625 15.917,47.625 C15.968,47.625 16.033,47.617 16.098,47.609 C16.142,47.721 16.189,47.841 16.24,47.98 C16.389,48.299 16.56,48.569 16.746,48.816 C14.803,49.812 13.505,50.337 13.171,50.345 C12.362,50.042 11.765,49.584 11.25,48.88 C11.211,48.819 11.177,48.768 11.139,48.71 Z M20.892,47.111 C20.529,47.371 20.174,47.635 19.841,47.882 C19.616,48.049 19.377,48.224 19.143,48.394 C18.702,48.712 18.292,48.994 18.104,49.066 C18.071,49.047 18.043,49.021 18.011,49.001 C17.896,48.925 17.786,48.841 17.685,48.747 C17.589,48.661 17.498,48.569 17.413,48.466 C17.231,48.245 17.071,47.991 16.932,47.693 C16.898,47.602 16.87,47.531 16.838,47.448 C17.587,47.238 18.686,46.843 20.134,46.257 C20.307,46.188 20.493,46.113 20.678,46.04 C21.252,45.81 21.854,45.574 22.399,45.372 C22.507,45.333 22.604,45.299 22.706,45.261 C22.76,45.376 22.826,45.515 22.883,45.635 C22.9,45.672 22.919,45.711 22.937,45.747 C22.86,45.794 22.769,45.856 22.688,45.906 C22.674,45.914 22.659,45.925 22.645,45.934 C22.222,46.2 21.762,46.507 21.276,46.845 C21.147,46.936 21.023,47.018 20.892,47.111 Z M27.505,60.987 C25.528,60.854 23.96,59.202 23.96,57.193 L23.96,56.343 L23.585,56.343 C21.575,56.343 19.923,54.775 19.79,52.798 L21.121,52.797 C21.771,54.31 23.211,55.406 24.924,55.546 L24.924,55.661 C24.924,57.463 25.983,59.009 27.505,59.746 L27.505,60.987 Z M36.426,60.987 L36.426,56.343 L29.968,56.343 L29.968,55.561 L37.39,55.561 L37.39,60.215 L37.881,60.215 C38.106,60.215 38.322,60.18 38.539,60.148 C37.95,60.621 37.226,60.933 36.426,60.987 Z M42.395,56.053 C42.406,55.922 42.435,55.796 42.435,55.661 L42.435,55.558 C42.909,55.547 43.372,55.485 43.818,55.381 C43.378,55.661 42.902,55.891 42.395,56.053 Z M48.358,48.712 C48.358,48.76 48.353,48.805 48.351,48.853 C48.318,50.261 47.811,51.555 46.976,52.573 C46.752,52.847 46.502,53.096 46.234,53.327 C45.97,53.556 45.684,53.761 45.382,53.941 C44.467,54.49 43.401,54.812 42.259,54.812 L41.685,54.812 L41.685,55.661 C41.685,55.859 41.658,56.051 41.628,56.24 C41.607,56.374 41.577,56.503 41.543,56.633 C41.507,56.768 41.474,56.905 41.423,57.035 C41.228,57.536 40.927,57.981 40.551,58.353 C40.389,58.515 40.214,58.66 40.025,58.79 C39.838,58.919 39.639,59.032 39.429,59.126 C39.03,59.305 38.598,59.426 38.14,59.455 L38.14,54.812 L29.218,54.812 L29.218,59.455 C28.881,59.433 28.563,59.352 28.255,59.246 C28.128,59.203 28,59.163 27.88,59.108 C27.748,59.047 27.628,58.969 27.505,58.894 C26.413,58.224 25.674,57.033 25.674,55.661 L25.674,54.812 L25.299,54.812 C23.85,54.812 22.598,53.991 21.956,52.797 C21.891,52.676 21.836,52.551 21.784,52.423 C21.734,52.3 21.682,52.177 21.646,52.048 C21.573,51.796 21.521,51.536 21.503,51.266 L23.21,51.266 L23.585,51.265 L25.674,51.265 L25.674,37.503 L21.503,37.503 C21.545,36.891 21.744,36.328 22.042,35.83 C22.153,35.642 22.278,35.466 22.42,35.302 C22.575,35.12 22.745,34.955 22.931,34.807 C23.025,34.732 23.115,34.651 23.216,34.585 C23.341,34.502 23.478,34.437 23.612,34.37 C23.74,34.307 23.868,34.244 24.003,34.196 C24.409,34.049 24.843,33.958 25.299,33.958 L25.674,33.958 L25.674,33.107 C25.674,32.4 25.876,31.743 26.213,31.174 C26.325,30.987 26.453,30.812 26.595,30.648 C26.749,30.467 26.918,30.302 27.103,30.153 C27.692,29.677 28.418,29.366 29.218,29.312 L29.218,33.958 L38.14,33.958 L38.14,29.312 C40.117,29.445 41.685,31.096 41.685,33.107 L41.685,34.137 L41.952,34.218 C44.195,34.892 45.844,36.821 46.217,39.084 C46.256,39.322 46.268,39.567 46.277,39.812 C46.281,39.894 46.298,39.974 46.298,40.057 C46.298,40.073 46.295,40.089 46.295,40.104 C46.293,40.328 46.277,40.552 46.25,40.774 C46.249,40.786 46.249,40.798 46.248,40.81 C46.242,40.857 46.232,40.903 46.225,40.951 C46.205,41.085 46.174,41.215 46.145,41.348 C46.107,41.52 46.064,41.688 46.012,41.856 C45.973,41.978 45.933,42.1 45.886,42.221 C45.853,42.307 45.821,42.394 45.784,42.478 C45.748,42.56 45.704,42.639 45.664,42.72 C45.664,42.72 45.664,42.721 45.663,42.721 C45.641,42.768 45.618,42.814 45.594,42.86 C45.552,42.941 45.518,43.027 45.472,43.106 L45.431,43.177 L45.353,43.312 L45.313,43.381 L45.293,43.413 L45.299,43.418 L45.426,43.501 L45.451,43.518 L45.471,43.531 L45.533,43.572 L45.555,43.586 L45.59,43.609 C45.602,43.616 45.61,43.625 45.621,43.632 C45.666,43.661 45.706,43.697 45.749,43.728 C45.752,43.729 45.755,43.732 45.758,43.735 C45.823,43.781 45.886,43.828 45.949,43.877 C45.986,43.906 46.026,43.933 46.063,43.963 C46.098,43.99 46.135,44.013 46.168,44.041 C46.201,44.068 46.231,44.096 46.264,44.124 C46.302,44.157 46.335,44.195 46.372,44.229 C46.43,44.281 46.485,44.336 46.54,44.39 C46.588,44.437 46.639,44.48 46.685,44.529 C46.863,44.716 47.029,44.913 47.181,45.121 C47.2,45.148 47.222,45.174 47.241,45.2 C47.346,45.349 47.439,45.507 47.53,45.663 C47.531,45.666 47.533,45.668 47.534,45.67 C47.62,45.819 47.697,45.971 47.77,46.127 C47.777,46.142 47.784,46.157 47.791,46.172 C47.926,46.465 48.043,46.768 48.129,47.08 C48.174,47.239 48.206,47.4 48.237,47.562 C48.258,47.669 48.283,47.773 48.298,47.882 C48.305,47.931 48.31,47.98 48.315,48.028 C48.329,48.144 48.331,48.261 48.337,48.377 C48.344,48.489 48.358,48.599 48.358,48.712 Z M50.127,49 C50.096,49.021 50.067,49.047 50.035,49.066 C49.86,49 49.495,48.752 49.094,48.464 C49.093,48.457 49.093,48.451 49.093,48.445 C49.087,48.298 49.081,48.15 49.066,48.006 C49.05,47.849 49.023,47.697 48.996,47.543 C48.937,47.204 48.856,46.875 48.75,46.553 C49.835,46.978 50.687,47.277 51.301,47.448 C51.273,47.521 51.245,47.59 51.218,47.663 C51.073,47.978 50.909,48.241 50.725,48.466 C50.64,48.569 50.548,48.661 50.454,48.747 C50.352,48.841 50.242,48.925 50.127,49 Z M60.012,46.451 C59.695,47.245 59.187,47.781 58.396,48.169 C58.396,48.169 58.377,48.173 58.331,48.173 C58.308,48.173 58.266,48.166 58.238,48.163 C58.131,48.158 57.997,48.141 57.835,48.114 C57.712,48.093 57.587,48.072 57.437,48.041 C56.409,47.825 54.789,47.377 53.19,46.924 C53.351,46.724 53.494,46.504 53.62,46.261 C53.679,46.151 53.736,46.037 53.787,45.918 C53.836,45.804 53.881,45.686 53.924,45.564 C53.943,45.509 53.967,45.462 53.985,45.405 C53.999,45.362 54.012,45.33 54.026,45.288 L55.101,45.452 C57.022,45.744 58.858,46.024 60.127,46.156 C60.087,46.257 60.05,46.343 60.012,46.451 Z M63.186,43.45 C62.894,44.341 62.391,44.967 61.585,45.466 C61.582,45.468 61.518,45.487 61.299,45.487 C61.269,45.487 61.225,45.483 61.191,45.482 C61.075,45.48 60.948,45.476 60.8,45.465 C60.681,45.455 60.548,45.444 60.409,45.431 C59.177,45.313 57.244,45.02 55.214,44.711 L54.954,44.672 C55.145,44.496 55.316,44.307 55.473,44.106 C55.561,43.993 55.651,43.882 55.729,43.758 C55.801,43.646 55.861,43.521 55.924,43.4 C56.073,43.114 56.206,42.81 56.315,42.469 C56.526,42.478 56.739,42.487 56.951,42.496 L58.021,42.542 C59.65,42.611 61.498,42.681 62.846,42.681 L62.847,42.681 C63.075,42.681 63.277,42.679 63.461,42.676 C63.373,42.909 63.278,43.161 63.186,43.45 Z M64.488,41.863 C64.399,41.876 64.273,41.888 64.102,41.9 C63.992,41.907 63.863,41.912 63.712,41.919 C63.479,41.927 63.198,41.931 62.846,41.931 C61.513,41.931 59.674,41.861 58.052,41.793 L56.982,41.746 C56.841,41.741 56.7,41.735 56.558,41.729 C56.428,41.723 56.298,41.718 56.168,41.713 C56.039,41.707 55.91,41.701 55.78,41.697 C53.786,41.611 51.843,41.534 50.365,41.5 C49.874,41.489 49.424,41.481 49.054,41.481 L48.944,41.481 C48.509,41.481 48.136,41.515 47.786,41.577 C47.427,41.641 47.096,41.744 46.796,41.923 C46.786,41.928 46.777,41.937 46.768,41.943 C46.771,41.936 46.773,41.928 46.775,41.921 C46.802,41.825 46.836,41.732 46.859,41.635 C46.89,41.511 46.905,41.382 46.928,41.256 C46.951,41.129 46.982,41.002 46.998,40.872 C47.001,40.848 47.001,40.823 47.003,40.798 C47.017,40.673 47.019,40.547 47.026,40.421 C47.032,40.3 47.048,40.179 47.048,40.057 C47.048,40.053 47.047,40.047 47.047,40.042 C47.046,39.827 47.017,39.62 46.996,39.409 L47.231,39.241 C50.274,39.099 53.315,38.934 56.354,38.768 C59.431,38.599 62.508,38.428 65.584,38.25 C66.352,38.204 66.892,38.237 67.112,38.263 C67.137,38.497 67.007,39.029 66.382,39.94 C65.81,40.775 65.071,41.555 64.704,41.814 C64.682,41.825 64.625,41.843 64.488,41.863 Z M67.701,37.735 C67.619,37.614 67.526,37.476 66.329,37.476 C66.098,37.476 65.834,37.483 65.54,37.501 C62.465,37.679 59.389,37.85 56.313,38.02 C53.239,38.188 50.164,38.354 47.086,38.496 C47.013,38.501 46.943,38.525 46.884,38.567 L46.863,38.582 C46.349,36.3 44.69,34.369 42.435,33.586 L42.435,33.107 C42.435,30.596 40.392,28.553 37.881,28.553 L37.39,28.553 L37.39,30.273 C36.998,30.163 36.593,30.086 36.166,30.086 L35.676,30.086 L35.676,33.208 L29.968,33.208 L29.968,28.553 L29.478,28.553 C27.886,28.553 26.487,29.377 25.673,30.618 C24.495,31.233 23.613,32.333 23.321,33.663 C22.585,34.02 21.964,34.571 21.514,35.246 C20.299,35.87 19.399,37.02 19.123,38.397 C16.689,38.277 14.257,38.153 11.825,38.02 C8.75,37.85 5.673,37.679 2.599,37.501 C2.306,37.483 2.041,37.476 1.81,37.476 C0.612,37.476 0.52,37.614 0.438,37.735 C0.075,38.274 0.31,39.159 1.138,40.364 C1.702,41.188 2.512,42.08 3.021,42.438 C3.131,42.516 3.304,42.593 3.867,42.639 C3.894,42.711 3.916,42.777 3.945,42.853 C4.037,43.096 4.141,43.37 4.24,43.682 C4.585,44.741 5.206,45.515 6.193,46.12 C6.327,46.202 6.514,46.237 6.839,46.237 C6.953,46.237 7.091,46.23 7.236,46.223 C7.298,46.377 7.362,46.541 7.43,46.728 C7.815,47.697 8.457,48.372 9.453,48.858 C9.546,48.902 9.659,48.923 9.808,48.923 C9.942,48.923 10.131,48.899 10.344,48.866 C10.432,48.997 10.523,49.135 10.632,49.303 C11.248,50.148 11.981,50.707 12.94,51.06 C13.006,51.084 13.079,51.095 13.163,51.095 C13.855,51.095 15.958,50.066 17.274,49.387 C17.445,49.53 17.625,49.661 17.825,49.772 C17.881,49.801 18.005,49.83 18.068,49.83 C18.455,49.83 19.028,49.418 20.288,48.485 C20.618,48.239 20.969,47.978 21.328,47.721 C21.828,47.364 22.319,47.031 22.77,46.74 C22.898,46.796 23.045,46.853 23.21,46.912 L23.21,50.516 L20.745,50.516 L20.745,51.008 C20.745,51.367 20.799,51.712 20.878,52.048 L19.031,52.048 L19.031,52.54 C19.031,54.924 20.874,56.885 23.21,57.077 L23.21,57.193 C23.21,59.703 25.253,61.745 27.764,61.745 L28.255,61.745 L28.255,60.027 C28.646,60.137 29.051,60.215 29.478,60.215 L29.968,60.215 L29.968,57.093 L35.676,57.093 L35.676,61.745 L36.166,61.745 C37.757,61.745 39.155,60.923 39.97,59.683 C41.077,59.105 41.911,58.095 42.251,56.87 C43.713,56.493 44.988,55.649 45.902,54.501 C47.65,53.396 48.869,51.53 49.076,49.368 C49.541,49.681 49.841,49.83 50.07,49.83 C50.133,49.83 50.257,49.801 50.312,49.772 C50.512,49.661 50.692,49.53 50.863,49.385 C52.18,50.066 54.284,51.095 54.976,51.095 C55.059,51.095 55.132,51.084 55.199,51.06 C56.157,50.705 56.891,50.148 57.519,49.285 C57.617,49.133 57.707,48.996 57.795,48.866 C58.008,48.899 58.197,48.923 58.331,48.923 C58.48,48.923 58.593,48.902 58.691,48.856 C59.682,48.372 60.323,47.697 60.714,46.716 C60.779,46.531 60.842,46.38 60.906,46.223 C61.05,46.23 61.187,46.237 61.299,46.237 C61.624,46.237 61.812,46.202 61.946,46.12 C62.932,45.515 63.553,44.741 63.899,43.68 C63.998,43.37 64.102,43.096 64.193,42.854 C64.222,42.777 64.245,42.711 64.271,42.639 C64.835,42.593 65.007,42.516 65.118,42.438 C65.627,42.08 66.437,41.188 67.001,40.364 C67.828,39.158 68.064,38.273 67.701,37.735 Z" id="Fill-16"></path>
            <path d="M42.263,50.515 L29.968,50.515 L29.968,48.438 L40.546,48.438 C41.541,48.438 42.351,49.247 42.351,50.243 C42.351,50.334 42.338,50.422 42.324,50.51 C42.304,50.511 42.284,50.515 42.263,50.515 Z M43.095,50.302 C43.095,50.282 43.101,50.263 43.101,50.243 C43.101,48.835 41.955,47.688 40.546,47.688 L29.968,47.688 L29.968,46.905 L42.26,46.905 C43.254,46.905 44.064,47.716 44.064,48.712 C44.064,49.405 43.667,49.999 43.095,50.302 Z M42.26,46.155 L29.218,46.155 L29.218,51.265 L42.26,51.265 C42.332,51.265 42.4,51.25 42.471,51.244 C42.625,51.232 42.775,51.207 42.921,51.168 C44.008,50.875 44.814,49.89 44.814,48.712 C44.814,47.302 43.668,46.155 42.26,46.155 Z" id="Fill-17"></path>
            <path d="M29.968,38.253 L40.199,38.253 C41.194,38.253 42.004,39.061 42.004,40.055 C42.004,40.747 41.607,41.343 41.034,41.646 C41.035,41.627 41.04,41.608 41.04,41.589 C41.04,40.18 39.894,39.034 38.486,39.034 L29.968,39.034 L29.968,38.253 Z M29.968,39.784 L38.486,39.784 C39.48,39.784 40.29,40.593 40.29,41.589 C40.29,41.679 40.276,41.766 40.263,41.854 C40.241,41.856 40.221,41.861 40.199,41.861 L29.968,41.861 L29.968,39.784 Z M40.199,42.611 C40.271,42.611 40.34,42.595 40.41,42.59 C40.565,42.577 40.715,42.553 40.86,42.513 C41.947,42.219 42.754,41.235 42.754,40.055 C42.754,38.648 41.608,37.503 40.199,37.503 L29.218,37.503 L29.218,42.611 L40.199,42.611 Z" id="Fill-18"></path>
        </g>
    </g>
</svg>