<?xml version="1.0" encoding="UTF-8"?>
<svg width="66px" height="57px" viewBox="0 0 66 57" version="1.1" xmlns="http://www.w3.org/2000/svg" xmlns:xlink="http://www.w3.org/1999/xlink">
    <!-- Generator: Sketch 49 (51002) - http://www.bohemiancoding.com/sketch -->
    <title>bitcoin-grey-25</title>
    <desc>Created with Sketch.</desc>
    <defs></defs>
    <g id="Page-1" stroke="none" stroke-width="1" fill="none" fill-rule="evenodd">
        <g id="bitcoin-grey-25" fill="#000000">
            <path d="M9.672,9.013 C8.753,9.38 7.841,9.771 6.935,10.183 C7.228,10.824 7.52,11.465 7.812,12.106 C8.679,11.711 9.553,11.337 10.433,10.985 C10.549,10.935 10.649,10.872 10.728,10.775 C10.809,10.68 10.87,10.578 10.914,10.461 C10.957,10.342 10.979,10.216 10.978,10.076 C10.977,9.939 10.95,9.799 10.897,9.662 C10.846,9.532 10.777,9.416 10.688,9.312 C10.6,9.213 10.498,9.133 10.385,9.076 C10.272,9.022 10.154,8.987 10.032,8.972 C9.91,8.958 9.79,8.972 9.672,9.013 Z M9.33,6.928 C9.244,6.711 9.101,6.552 8.896,6.454 C8.692,6.354 8.488,6.348 8.288,6.427 C7.429,6.777 6.575,7.146 5.727,7.531 C5.964,8.05 6.2,8.57 6.437,9.09 C7.263,8.714 8.095,8.354 8.932,8.014 C9.032,7.974 9.117,7.915 9.187,7.837 C9.257,7.759 9.308,7.67 9.345,7.573 C9.38,7.474 9.399,7.373 9.398,7.262 C9.396,7.152 9.374,7.039 9.33,6.928 Z M10.88,12.1 C9.503,12.651 8.141,13.257 6.798,13.915 C6.622,13.554 6.445,13.195 6.269,12.836 C6.471,12.737 6.673,12.638 6.875,12.543 C6.154,11.029 5.434,9.516 4.713,8.003 C4.494,8.108 4.275,8.213 4.057,8.32 C3.881,7.96 3.704,7.601 3.528,7.24 C4.947,6.546 6.384,5.902 7.836,5.314 C8.081,5.213 8.333,5.174 8.591,5.184 C8.85,5.2 9.094,5.263 9.323,5.374 C9.553,5.486 9.758,5.645 9.938,5.843 C10.117,6.04 10.256,6.277 10.354,6.537 C10.438,6.758 10.484,6.989 10.493,7.217 C10.503,7.446 10.48,7.661 10.43,7.867 C10.756,7.954 11.048,8.126 11.307,8.395 C11.565,8.663 11.753,8.963 11.875,9.296 C11.983,9.595 12.034,9.886 12.032,10.177 C12.03,10.469 11.983,10.743 11.892,10.999 C11.801,11.253 11.668,11.477 11.496,11.669 C11.324,11.859 11.118,12.003 10.88,12.1 Z" id="Fill-1"></path>
            <path d="M17.686,9.835 C16.938,10.034 16.194,10.249 15.453,10.479 C15.335,10.096 15.216,9.714 15.098,9.331 C15.312,9.264 15.526,9.2 15.741,9.136 C15.263,7.529 14.785,5.922 14.308,4.316 C14.075,4.385 13.843,4.455 13.611,4.528 C13.493,4.144 13.375,3.761 13.256,3.379 C14.086,3.122 14.919,2.882 15.756,2.658 C15.86,3.046 15.963,3.432 16.067,3.82 C15.834,3.882 15.6,3.946 15.367,4.011 C15.818,5.625 16.269,7.24 16.72,8.854 C16.938,8.792 17.156,8.733 17.375,8.674 C17.479,9.061 17.583,9.448 17.686,9.835" id="Fill-2"></path>
            <path d="M20.426,3.718 C20.102,3.782 19.777,3.85 19.454,3.92 C19.307,3.238 19.16,2.555 19.014,1.873 C21.459,1.347 23.928,0.959 26.406,0.708 C26.476,1.402 26.546,2.097 26.616,2.791 C26.288,2.825 25.96,2.861 25.633,2.899 C25.568,2.607 25.504,2.315 25.439,2.024 C24.766,2.102 24.093,2.192 23.421,2.293 C23.669,3.95 23.916,5.608 24.163,7.266 C24.383,7.233 24.603,7.202 24.822,7.171 C24.877,7.568 24.932,7.965 24.986,8.362 C24.228,8.466 23.47,8.585 22.714,8.719 C22.645,8.325 22.575,7.931 22.505,7.536 C22.724,7.498 22.943,7.46 23.162,7.423 C22.888,5.769 22.613,4.117 22.339,2.463 C21.671,2.574 21.006,2.695 20.342,2.826 C20.37,3.123 20.398,3.421 20.426,3.718" id="Fill-3"></path>
            <path d="M33.368,1.499 C32.991,1.501 32.644,1.564 32.327,1.696 C32.011,1.823 31.738,2.009 31.513,2.242 C31.288,2.473 31.115,2.752 30.995,3.079 C30.876,3.403 30.823,3.757 30.838,4.136 C30.854,4.519 30.93,4.864 31.066,5.181 C31.204,5.497 31.384,5.763 31.608,5.987 C31.832,6.209 32.093,6.381 32.389,6.502 C32.686,6.628 33.006,6.689 33.354,6.688 C33.813,6.686 34.215,6.603 34.566,6.418 C34.916,6.231 35.204,5.981 35.426,5.646 C35.67,5.925 35.91,6.206 36.148,6.489 C35.803,6.939 35.392,7.285 34.906,7.528 C34.42,7.768 33.904,7.894 33.35,7.89 C32.912,7.888 32.486,7.803 32.072,7.634 C31.658,7.465 31.287,7.224 30.957,6.903 C30.627,6.588 30.353,6.197 30.136,5.741 C29.92,5.284 29.792,4.764 29.762,4.185 C29.729,3.59 29.8,3.053 29.981,2.574 C30.161,2.091 30.419,1.684 30.754,1.348 C31.089,1.012 31.485,0.749 31.942,0.57 C32.397,0.388 32.877,0.296 33.372,0.298 C33.78,0.301 34.135,0.331 34.438,0.395 C34.739,0.456 35,0.534 35.224,0.629 C35.446,0.724 35.632,0.822 35.785,0.934 C35.938,1.045 36.072,1.146 36.19,1.237 C36.171,1.668 36.151,2.097 36.132,2.527 C35.803,2.513 35.474,2.5 35.145,2.491 C35.135,2.318 35.125,2.142 35.115,1.968 C35.007,1.892 34.901,1.822 34.794,1.764 C34.687,1.708 34.564,1.656 34.428,1.616 C34.293,1.576 34.139,1.549 33.97,1.529 C33.801,1.511 33.599,1.502 33.368,1.499" id="Fill-4"></path>
            <path d="M42.942,2.221 C42.568,2.166 42.213,2.181 41.881,2.264 C41.547,2.346 41.252,2.488 40.995,2.688 C40.737,2.886 40.527,3.137 40.361,3.441 C40.196,3.746 40.093,4.084 40.053,4.465 C40.01,4.841 40.038,5.198 40.127,5.531 C40.218,5.864 40.358,6.156 40.548,6.407 C40.738,6.656 40.972,6.865 41.248,7.03 C41.525,7.194 41.834,7.302 42.178,7.353 C42.544,7.411 42.884,7.391 43.199,7.321 C43.516,7.247 43.798,7.117 44.047,6.928 C44.298,6.742 44.51,6.506 44.685,6.21 C44.86,5.918 44.984,5.584 45.055,5.21 C45.126,4.833 45.133,4.477 45.071,4.143 C45.01,3.802 44.889,3.503 44.706,3.241 C44.523,2.979 44.282,2.754 43.985,2.578 C43.688,2.4 43.34,2.281 42.942,2.221 Z M38.979,4.358 C39.034,3.764 39.18,3.243 39.429,2.796 C39.677,2.344 39.989,1.977 40.372,1.693 C40.752,1.407 41.184,1.209 41.662,1.095 C42.14,0.98 42.628,0.962 43.119,1.033 C43.634,1.112 44.106,1.275 44.532,1.523 C44.956,1.775 45.308,2.087 45.585,2.471 C45.862,2.855 46.049,3.292 46.15,3.797 C46.252,4.294 46.238,4.838 46.117,5.421 C46.001,5.986 45.801,6.472 45.522,6.894 C45.244,7.314 44.92,7.658 44.549,7.922 C44.179,8.19 43.776,8.378 43.339,8.483 C42.903,8.59 42.458,8.611 42.001,8.542 C41.564,8.481 41.156,8.33 40.771,8.104 C40.384,7.879 40.051,7.582 39.771,7.219 C39.489,6.856 39.273,6.43 39.125,5.951 C38.978,5.466 38.927,4.935 38.979,4.358 Z" id="Fill-5"></path>
            <path d="M50.526,10.362 C49.784,10.136 49.039,9.928 48.291,9.733 C48.392,9.345 48.493,8.957 48.594,8.57 C48.81,8.627 49.026,8.684 49.241,8.743 C49.682,7.126 50.121,5.508 50.562,3.891 C50.328,3.828 50.094,3.765 49.86,3.704 C49.962,3.317 50.063,2.929 50.164,2.541 C51.002,2.759 51.836,2.994 52.667,3.244 C52.551,3.628 52.436,4.012 52.319,4.395 C52.088,4.324 51.855,4.257 51.623,4.189 C51.156,5.799 50.689,7.409 50.222,9.019 C50.439,9.082 50.657,9.145 50.874,9.212 C50.758,9.594 50.643,9.979 50.526,10.362" id="Fill-6"></path>
            <path d="M55.53,12.119 C54.81,11.83 54.086,11.555 53.359,11.295 C53.494,10.918 53.628,10.541 53.763,10.163 C53.972,10.239 54.18,10.313 54.389,10.391 C54.97,8.818 55.551,7.246 56.132,5.674 C55.906,5.591 55.681,5.509 55.455,5.428 C55.59,5.052 55.724,4.674 55.859,4.297 C56.748,4.614 57.631,4.95 58.509,5.306 C58.522,7.552 58.457,9.785 58.315,11.999 C58.391,12.033 58.467,12.068 58.543,12.102 C59.237,10.577 59.932,9.051 60.627,7.527 C60.404,7.425 60.18,7.324 59.956,7.225 C60.118,6.859 60.28,6.493 60.442,6.126 C61.245,6.481 62.043,6.852 62.835,7.24 C62.658,7.6 62.482,7.96 62.306,8.32 C62.085,8.211 61.863,8.105 61.642,7.999 C60.921,9.513 60.201,11.026 59.48,12.539 C59.685,12.636 59.89,12.735 60.094,12.836 C59.918,13.195 59.741,13.554 59.565,13.915 C58.802,13.541 58.034,13.185 57.259,12.845 C57.393,10.636 57.45,8.409 57.429,6.17 C57.343,6.135 57.257,6.101 57.17,6.068 C56.563,7.631 55.956,9.193 55.349,10.755 C55.559,10.837 55.768,10.92 55.978,11.004 C55.828,11.376 55.679,11.747 55.53,12.119" id="Fill-7"></path>
            <path d="M10.058,52.28 L10.058,52.707 C10.058,53.221 9.801,53.515 9.305,53.515 C8.809,53.515 8.552,53.221 8.552,52.707 L8.552,51.035 C8.552,50.521 8.809,50.227 9.305,50.227 C9.801,50.227 10.058,50.521 10.058,51.035 L10.058,51.348 L9.581,51.348 L9.581,51.003 C9.581,50.773 9.479,50.686 9.318,50.686 C9.158,50.686 9.057,50.773 9.057,51.003 L9.057,52.739 C9.057,52.969 9.158,53.052 9.318,53.052 C9.479,53.052 9.581,52.969 9.581,52.739 L9.581,52.28 L10.058,52.28" id="Fill-8"></path>
            <path d="M11.56,50.723 L11.56,51.71 L11.757,51.71 C11.946,51.71 12.061,51.628 12.061,51.37 L12.061,51.054 C12.061,50.824 11.982,50.723 11.803,50.723 L11.56,50.723 Z M12.111,53.479 C12.083,53.396 12.065,53.345 12.065,53.084 L12.065,52.579 C12.065,52.28 11.964,52.17 11.734,52.17 L11.56,52.17 L11.56,53.479 L11.055,53.479 L11.055,50.264 L11.817,50.264 C12.341,50.264 12.566,50.507 12.566,51.003 L12.566,51.256 C12.566,51.586 12.46,51.802 12.235,51.908 C12.488,52.014 12.57,52.257 12.57,52.592 L12.57,53.088 C12.57,53.245 12.575,53.359 12.626,53.479 L12.111,53.479 Z" id="Fill-9"></path>
            <polyline id="Fill-10" points="14.017 52.413 13.379 50.264 13.907 50.264 14.293 51.729 14.679 50.264 15.161 50.264 14.522 52.413 14.522 53.479 14.017 53.479 14.017 52.413"></polyline>
            <path d="M16.557,50.723 L16.557,51.812 L16.795,51.812 C16.956,51.812 17.044,51.738 17.044,51.508 L17.044,51.026 C17.044,50.797 16.956,50.723 16.795,50.723 L16.557,50.723 Z M17.549,51.058 L17.549,51.476 C17.549,51.991 17.301,52.271 16.795,52.271 L16.557,52.271 L16.557,53.479 L16.051,53.479 L16.051,50.264 L16.795,50.264 C17.301,50.264 17.549,50.544 17.549,51.058 Z" id="Fill-11"></path>
            <polyline id="Fill-12" points="18.325 50.264 19.886 50.264 19.886 50.723 19.358 50.723 19.358 53.479 18.853 53.479 18.853 50.723 18.325 50.723 18.325 50.264"></polyline>
            <path d="M21.26,52.739 C21.26,52.969 21.361,53.056 21.521,53.056 C21.683,53.056 21.784,52.969 21.784,52.739 L21.784,51.003 C21.784,50.773 21.683,50.686 21.521,50.686 C21.361,50.686 21.26,50.773 21.26,51.003 L21.26,52.739 Z M20.755,51.035 C20.755,50.521 21.026,50.227 21.521,50.227 C22.018,50.227 22.289,50.521 22.289,51.035 L22.289,52.707 C22.289,53.221 22.018,53.515 21.521,53.515 C21.026,53.515 20.755,53.221 20.755,52.707 L20.755,51.035 Z" id="Fill-13"></path>
            <path d="M24.769,52.28 L24.769,52.707 C24.769,53.221 24.511,53.515 24.015,53.515 C23.519,53.515 23.262,53.221 23.262,52.707 L23.262,51.035 C23.262,50.521 23.519,50.227 24.015,50.227 C24.511,50.227 24.769,50.521 24.769,51.035 L24.769,51.348 L24.291,51.348 L24.291,51.003 C24.291,50.773 24.19,50.686 24.029,50.686 C23.868,50.686 23.767,50.773 23.767,51.003 L23.767,52.739 C23.767,52.969 23.868,53.052 24.029,53.052 C24.19,53.052 24.291,52.969 24.291,52.739 L24.291,52.28 L24.769,52.28" id="Fill-14"></path>
            <path d="M26.248,50.264 L26.248,52.744 C26.248,52.974 26.349,53.056 26.509,53.056 C26.67,53.056 26.771,52.974 26.771,52.744 L26.771,50.264 L27.249,50.264 L27.249,52.712 C27.249,53.226 26.992,53.52 26.496,53.52 C26,53.52 25.742,53.226 25.742,52.712 L25.742,50.264 L26.248,50.264" id="Fill-15"></path>
            <path d="M28.787,50.723 L28.787,51.71 L28.984,51.71 C29.173,51.71 29.288,51.628 29.288,51.37 L29.288,51.054 C29.288,50.824 29.209,50.723 29.03,50.723 L28.787,50.723 Z M29.338,53.479 C29.311,53.396 29.293,53.345 29.293,53.084 L29.293,52.579 C29.293,52.28 29.191,52.17 28.961,52.17 L28.787,52.17 L28.787,53.479 L28.282,53.479 L28.282,50.264 L29.044,50.264 C29.568,50.264 29.793,50.507 29.793,51.003 L29.793,51.256 C29.793,51.586 29.687,51.802 29.462,51.908 C29.715,52.014 29.797,52.257 29.797,52.592 L29.797,53.088 C29.797,53.245 29.802,53.359 29.853,53.479 L29.338,53.479 Z" id="Fill-16"></path>
            <path d="M31.322,50.723 L31.322,51.71 L31.52,51.71 C31.708,51.71 31.823,51.628 31.823,51.37 L31.823,51.054 C31.823,50.824 31.745,50.723 31.565,50.723 L31.322,50.723 Z M31.874,53.479 C31.846,53.396 31.828,53.345 31.828,53.084 L31.828,52.579 C31.828,52.28 31.727,52.17 31.497,52.17 L31.322,52.17 L31.322,53.479 L30.817,53.479 L30.817,50.264 L31.58,50.264 C32.103,50.264 32.328,50.507 32.328,51.003 L32.328,51.256 C32.328,51.586 32.223,51.802 31.998,51.908 C32.25,52.014 32.333,52.257 32.333,52.592 L32.333,53.088 C32.333,53.245 32.337,53.359 32.388,53.479 L31.874,53.479 Z" id="Fill-17"></path>
            <polyline id="Fill-18" points="33.857 51.619 34.551 51.619 34.551 52.078 33.857 52.078 33.857 53.02 34.73 53.02 34.73 53.479 33.352 53.479 33.352 50.264 34.73 50.264 34.73 50.723 33.857 50.723 33.857 51.619"></polyline>
            <polyline id="Fill-19" points="36.182 51.15 36.182 53.479 35.727 53.479 35.727 50.264 36.361 50.264 36.88 52.188 36.88 50.264 37.33 50.264 37.33 53.479 36.811 53.479 36.182 51.15"></polyline>
            <path d="M39.847,52.28 L39.847,52.707 C39.847,53.221 39.589,53.515 39.093,53.515 C38.597,53.515 38.34,53.221 38.34,52.707 L38.34,51.035 C38.34,50.521 38.597,50.227 39.093,50.227 C39.589,50.227 39.847,50.521 39.847,51.035 L39.847,51.348 L39.369,51.348 L39.369,51.003 C39.369,50.773 39.268,50.686 39.107,50.686 C38.946,50.686 38.845,50.773 38.845,51.003 L38.845,52.739 C38.845,52.969 38.946,53.052 39.107,53.052 C39.268,53.052 39.369,52.969 39.369,52.739 L39.369,52.28 L39.847,52.28" id="Fill-20"></path>
            <polyline id="Fill-21" points="41.266 52.413 40.627 50.264 41.155 50.264 41.541 51.729 41.927 50.264 42.409 50.264 41.771 52.413 41.771 53.479 41.266 53.479 41.266 52.413"></polyline>
            <path d="M46.166,52.28 L46.166,52.707 C46.166,53.221 45.909,53.515 45.413,53.515 C44.917,53.515 44.66,53.221 44.66,52.707 L44.66,51.035 C44.66,50.521 44.917,50.227 45.413,50.227 C45.909,50.227 46.166,50.521 46.166,51.035 L46.166,51.348 L45.689,51.348 L45.689,51.003 C45.689,50.773 45.588,50.686 45.427,50.686 C45.266,50.686 45.165,50.773 45.165,51.003 L45.165,52.739 C45.165,52.969 45.266,53.052 45.427,53.052 C45.588,53.052 45.689,52.969 45.689,52.739 L45.689,52.28 L46.166,52.28" id="Fill-22"></path>
            <polyline id="Fill-23" points="47.668 53.479 47.163 53.479 47.163 50.264 47.668 50.264 47.668 51.642 48.242 51.642 48.242 50.264 48.756 50.264 48.756 53.479 48.242 53.479 48.242 52.101 47.668 52.101 47.668 53.479"></polyline>
            <path d="M50.295,52.459 L50.782,52.459 L50.538,50.833 L50.295,52.459 Z M51.448,53.479 L50.938,53.479 L50.851,52.895 L50.23,52.895 L50.143,53.479 L49.679,53.479 L50.194,50.264 L50.933,50.264 L51.448,53.479 Z" id="Fill-24"></path>
            <path d="M52.876,50.723 L52.876,51.71 L53.073,51.71 C53.262,51.71 53.377,51.628 53.377,51.37 L53.377,51.054 C53.377,50.824 53.298,50.723 53.119,50.723 L52.876,50.723 Z M53.427,53.479 C53.399,53.396 53.381,53.345 53.381,53.084 L53.381,52.579 C53.381,52.28 53.28,52.17 53.05,52.17 L52.876,52.17 L52.876,53.479 L52.371,53.479 L52.371,50.264 L53.133,50.264 C53.657,50.264 53.882,50.507 53.882,51.003 L53.882,51.256 C53.882,51.586 53.776,51.802 53.551,51.908 C53.804,52.014 53.886,52.257 53.886,52.592 L53.886,53.088 C53.886,53.245 53.891,53.359 53.941,53.479 L53.427,53.479 Z" id="Fill-25"></path>
            <polyline id="Fill-26" points="54.759 50.264 56.32 50.264 56.32 50.723 55.793 50.723 55.793 53.479 55.287 53.479 55.287 50.723 54.759 50.723 54.759 50.264"></polyline>
            <path d="M57.91,50.227 C58.401,50.227 58.654,50.521 58.654,51.035 L58.654,51.136 L58.176,51.136 L58.176,51.003 C58.176,50.773 58.085,50.686 57.924,50.686 C57.763,50.686 57.671,50.773 57.671,51.003 C57.671,51.664 58.659,51.788 58.659,52.707 C58.659,53.221 58.401,53.515 57.905,53.515 C57.409,53.515 57.152,53.221 57.152,52.707 L57.152,52.51 L57.63,52.51 L57.63,52.739 C57.63,52.969 57.731,53.052 57.892,53.052 C58.052,53.052 58.153,52.969 58.153,52.739 C58.153,52.078 57.166,51.954 57.166,51.035 C57.166,50.521 57.419,50.227 57.91,50.227" id="Fill-27"></path>
            <path d="M5.367,47.631 L62.495,47.631 C62.702,47.631 62.87,47.463 62.87,47.256 C62.87,47.049 62.702,46.881 62.495,46.881 L5.367,46.881 C5.16,46.881 4.992,47.049 4.992,47.256 C4.992,47.463 5.16,47.631 5.367,47.631" id="Fill-28"></path>
            <path d="M62.495,55.931 L5.367,55.931 C5.16,55.931 4.992,56.099 4.992,56.307 C4.992,56.513 5.16,56.681 5.367,56.681 L62.495,56.681 C62.702,56.681 62.87,56.513 62.87,56.307 C62.87,56.099 62.702,55.931 62.495,55.931" id="Fill-29"></path>
            <path d="M30.972,44.716 L36.733,44.716 L36.733,40.98 L30.972,40.98 L30.972,44.716 Z M25.615,46.881 C25.788,46.073 26.506,45.466 27.365,45.466 L40.338,45.466 C41.197,45.466 41.916,46.073 42.088,46.881 L25.615,46.881 Z M51.646,38.854 C51.646,39.613 51.029,40.23 50.271,40.23 L17.434,40.23 C16.675,40.23 16.058,39.613 16.058,38.854 L16.058,18.535 C16.058,17.777 16.675,17.159 17.434,17.159 L50.271,17.159 C51.029,17.159 51.646,17.777 51.646,18.535 L51.646,38.854 Z M50.271,16.409 L17.434,16.409 C16.262,16.409 15.308,17.363 15.308,18.535 L15.308,38.854 C15.308,40.027 16.262,40.98 17.434,40.98 L30.222,40.98 L30.222,44.717 L27.365,44.717 C25.964,44.717 24.825,45.856 24.825,47.256 C24.825,47.463 24.993,47.631 25.2,47.631 L42.503,47.631 C42.509,47.631 42.516,47.631 42.522,47.631 C42.729,47.631 42.897,47.463 42.897,47.256 C42.897,47.211 42.889,47.169 42.875,47.129 C42.809,45.787 41.696,44.717 40.338,44.717 L37.482,44.717 L37.482,40.98 L50.271,40.98 C51.442,40.98 52.396,40.027 52.396,38.854 L52.396,18.535 C52.396,17.363 51.442,16.409 50.271,16.409 Z" id="Fill-30"></path>
            <path d="M18.48,36.528 L49.223,36.528 L49.223,19.58 L18.48,19.58 L18.48,36.528 Z M49.599,18.83 L18.105,18.83 C17.898,18.83 17.73,18.999 17.73,19.205 L17.73,36.904 C17.73,37.111 17.898,37.279 18.105,37.279 L49.599,37.279 C49.806,37.279 49.974,37.111 49.974,36.904 L49.974,19.205 C49.974,18.999 49.806,18.83 49.599,18.83 Z" id="Fill-31"></path>
            <path d="M19.727,34.813 C19.801,34.905 19.909,34.952 20.019,34.952 C20.102,34.952 20.185,34.926 20.254,34.87 L21.125,34.168 L23.709,32.086 L24.779,32.814 L25.838,33.534 C25.982,33.633 26.175,33.618 26.303,33.5 L32.689,27.62 L36.558,31.232 C36.632,31.301 36.735,31.338 36.832,31.332 C36.933,31.327 37.027,31.283 37.094,31.207 L40.502,27.366 L42.361,28.823 C42.5,28.931 42.696,28.928 42.832,28.816 L47.888,24.631 C48.047,24.497 48.069,24.261 47.937,24.101 C47.805,23.943 47.568,23.921 47.409,24.053 L46.585,24.735 L42.586,28.046 L40.687,26.558 C40.53,26.436 40.307,26.455 40.175,26.604 L39.507,27.358 L36.789,30.421 L32.947,26.836 C32.803,26.701 32.581,26.701 32.437,26.833 L26.014,32.746 L25.643,32.495 L23.901,31.31 C23.764,31.217 23.583,31.224 23.455,31.327 L19.783,34.286 C19.622,34.416 19.597,34.653 19.727,34.813" id="Fill-32"></path>
            <path d="M43.292,24.681 L42.878,24.681 C42.877,24.681 42.877,24.681 42.876,24.681 C42.875,24.681 42.875,24.681 42.874,24.681 L42.028,24.681 C42.027,24.681 42.027,24.681 42.026,24.681 C42.025,24.681 42.024,24.681 42.023,24.681 L41.833,24.681 L41.833,23.891 L43.292,23.891 C43.51,23.891 43.687,24.069 43.687,24.286 C43.687,24.504 43.51,24.681 43.292,24.681 Z M42.026,22.352 L42.927,22.352 C43.145,22.352 43.321,22.529 43.321,22.745 C43.321,22.964 43.144,23.14 42.926,23.14 L41.833,23.14 L41.833,22.352 L42.026,22.352 Z M41.083,24.681 L40.982,24.681 C40.775,24.681 40.607,24.849 40.607,25.056 C40.607,25.263 40.775,25.431 40.982,25.431 L41.651,25.431 L41.651,25.868 C41.651,26.075 41.819,26.243 42.026,26.243 C42.233,26.243 42.401,26.075 42.401,25.868 L42.401,25.431 L42.501,25.431 L42.501,25.868 C42.501,26.002 42.576,26.115 42.682,26.181 C42.74,26.217 42.803,26.243 42.876,26.243 C43.043,26.243 43.181,26.131 43.229,25.979 C43.24,25.943 43.251,25.907 43.251,25.868 L43.251,25.431 L43.292,25.431 C43.923,25.431 44.437,24.918 44.437,24.286 C44.437,23.878 44.21,23.535 43.886,23.332 C43.993,23.158 44.071,22.965 44.071,22.745 C44.071,22.23 43.721,21.81 43.251,21.667 L43.251,21.164 C43.251,20.957 43.083,20.79 42.876,20.79 C42.669,20.79 42.501,20.957 42.501,21.164 L42.501,21.602 L42.401,21.602 L42.401,21.164 C42.401,20.957 42.233,20.79 42.026,20.79 C41.819,20.79 41.651,20.957 41.651,21.164 L41.651,21.602 L40.982,21.602 C40.775,21.602 40.607,21.77 40.607,21.976 C40.607,22.183 40.775,22.352 40.982,22.352 L41.083,22.352 L41.083,24.681 Z" id="Fill-33"></path>
            <path d="M41.667,38.788 C41.667,38.661 41.77,38.557 41.897,38.557 C42.024,38.557 42.128,38.661 42.128,38.788 C42.128,39.042 41.667,39.044 41.667,38.788 Z M41.897,37.807 C41.356,37.807 40.917,38.248 40.917,38.788 C40.917,39.328 41.356,39.768 41.897,39.768 C42.438,39.768 42.878,39.328 42.878,38.788 C42.878,38.248 42.438,37.807 41.897,37.807 Z" id="Fill-34"></path>
            <path d="M44.42,38.788 C44.42,38.661 44.524,38.557 44.651,38.557 C44.778,38.557 44.881,38.661 44.881,38.788 C44.881,39.043 44.42,39.043 44.42,38.788 Z M44.651,37.807 C44.11,37.807 43.67,38.248 43.67,38.788 C43.67,39.328 44.11,39.768 44.651,39.768 C45.191,39.768 45.631,39.328 45.631,38.788 C45.631,38.248 45.191,37.807 44.651,37.807 Z" id="Fill-35"></path>
            <path d="M47.175,38.788 C47.175,38.661 47.279,38.557 47.406,38.557 C47.533,38.557 47.636,38.661 47.636,38.788 C47.636,39.043 47.175,39.043 47.175,38.788 Z M47.406,37.807 C46.865,37.807 46.425,38.248 46.425,38.788 C46.425,39.328 46.865,39.768 47.406,39.768 C47.946,39.768 48.386,39.328 48.386,38.788 C48.386,38.248 47.946,37.807 47.406,37.807 Z" id="Fill-36"></path>
            <path d="M19.793,21.54 L20.601,21.54 C20.808,21.54 20.976,21.372 20.976,21.164 C20.976,20.957 20.808,20.79 20.601,20.79 L19.793,20.79 C19.586,20.79 19.418,20.957 19.418,21.164 C19.418,21.372 19.586,21.54 19.793,21.54" id="Fill-37"></path>
            <path d="M19.793,23.969 L20.601,23.969 C20.808,23.969 20.976,23.801 20.976,23.594 C20.976,23.387 20.808,23.219 20.601,23.219 L19.793,23.219 C19.586,23.219 19.418,23.387 19.418,23.594 C19.418,23.801 19.586,23.969 19.793,23.969" id="Fill-38"></path>
            <path d="M19.793,26.399 L20.601,26.399 C20.808,26.399 20.976,26.232 20.976,26.024 C20.976,25.817 20.808,25.649 20.601,25.649 L19.793,25.649 C19.586,25.649 19.418,25.817 19.418,26.024 C19.418,26.232 19.586,26.399 19.793,26.399" id="Fill-39"></path>
            <path d="M19.793,28.83 L20.601,28.83 C20.808,28.83 20.976,28.661 20.976,28.454 C20.976,28.247 20.808,28.08 20.601,28.08 L19.793,28.08 C19.586,28.08 19.418,28.247 19.418,28.454 C19.418,28.661 19.586,28.83 19.793,28.83" id="Fill-40"></path>
            <path d="M19.793,31.26 L20.601,31.26 C20.808,31.26 20.976,31.092 20.976,30.885 C20.976,30.678 20.808,30.51 20.601,30.51 L19.793,30.51 C19.586,30.51 19.418,30.678 19.418,30.885 C19.418,31.092 19.586,31.26 19.793,31.26" id="Fill-41"></path>
            <path d="M22.824,34.223 C22.617,34.223 22.449,34.39 22.449,34.598 L22.449,35.406 C22.449,35.613 22.617,35.781 22.824,35.781 C23.031,35.781 23.199,35.613 23.199,35.406 L23.199,34.598 C23.199,34.39 23.031,34.223 22.824,34.223" id="Fill-42"></path>
            <path d="M25.583,34.223 C25.376,34.223 25.208,34.39 25.208,34.598 L25.208,35.406 C25.208,35.613 25.376,35.781 25.583,35.781 C25.79,35.781 25.958,35.613 25.958,35.406 L25.958,34.598 C25.958,34.39 25.79,34.223 25.583,34.223" id="Fill-43"></path>
            <path d="M28.341,34.223 C28.134,34.223 27.966,34.39 27.966,34.598 L27.966,35.406 C27.966,35.613 28.134,35.781 28.341,35.781 C28.548,35.781 28.716,35.613 28.716,35.406 L28.716,34.598 C28.716,34.39 28.548,34.223 28.341,34.223" id="Fill-44"></path>
            <path d="M31.099,34.223 C30.892,34.223 30.724,34.39 30.724,34.598 L30.724,35.406 C30.724,35.613 30.892,35.781 31.099,35.781 C31.306,35.781 31.474,35.613 31.474,35.406 L31.474,34.598 C31.474,34.39 31.306,34.223 31.099,34.223" id="Fill-45"></path>
            <path d="M33.857,34.223 C33.65,34.223 33.482,34.39 33.482,34.598 L33.482,35.406 C33.482,35.613 33.65,35.781 33.857,35.781 C34.064,35.781 34.232,35.613 34.232,35.406 L34.232,34.598 C34.232,34.39 34.064,34.223 33.857,34.223" id="Fill-46"></path>
            <path d="M36.615,34.223 C36.408,34.223 36.24,34.39 36.24,34.598 L36.24,35.406 C36.24,35.613 36.408,35.781 36.615,35.781 C36.822,35.781 36.99,35.613 36.99,35.406 L36.99,34.598 C36.99,34.39 36.822,34.223 36.615,34.223" id="Fill-47"></path>
            <path d="M39.373,34.223 C39.166,34.223 38.998,34.39 38.998,34.598 L38.998,35.406 C38.998,35.613 39.166,35.781 39.373,35.781 C39.58,35.781 39.748,35.613 39.748,35.406 L39.748,34.598 C39.748,34.39 39.58,34.223 39.373,34.223" id="Fill-48"></path>
            <path d="M42.131,34.223 C41.924,34.223 41.756,34.39 41.756,34.598 L41.756,35.406 C41.756,35.613 41.924,35.781 42.131,35.781 C42.338,35.781 42.506,35.613 42.506,35.406 L42.506,34.598 C42.506,34.39 42.338,34.223 42.131,34.223" id="Fill-49"></path>
            <path d="M44.89,34.223 C44.683,34.223 44.515,34.39 44.515,34.598 L44.515,35.406 C44.515,35.613 44.683,35.781 44.89,35.781 C45.097,35.781 45.265,35.613 45.265,35.406 L45.265,34.598 C45.265,34.39 45.097,34.223 44.89,34.223" id="Fill-50"></path>
            <path d="M47.648,34.223 C47.441,34.223 47.273,34.39 47.273,34.598 L47.273,35.406 C47.273,35.613 47.441,35.781 47.648,35.781 C47.855,35.781 48.023,35.613 48.023,35.406 L48.023,34.598 C48.023,34.39 47.855,34.223 47.648,34.223" id="Fill-51"></path>
            <path d="M11.028,29.805 C10.937,29.692 10.79,29.641 10.646,29.677 L7.405,30.478 L3.882,27.759 C3.801,27.697 3.698,27.67 3.598,27.684 C3.498,27.699 3.407,27.755 3.348,27.838 L0.764,31.452 C0.644,31.62 0.683,31.855 0.851,31.976 C1.021,32.096 1.254,32.056 1.375,31.888 L3.732,28.591 L7.09,31.182 C7.181,31.252 7.298,31.277 7.409,31.249 L10.593,30.462 L13.693,34.32 C13.768,34.411 13.877,34.46 13.986,34.46 C14.068,34.46 14.151,34.432 14.221,34.377 C14.382,34.248 14.408,34.011 14.278,33.85 L11.028,29.805" id="Fill-52"></path>
            <path d="M65.335,27.791 L60.085,22.52 C60.013,22.447 59.908,22.408 59.81,22.409 C59.707,22.412 59.609,22.457 59.54,22.533 L56.931,25.432 L54.685,22.403 L54.204,21.753 C54.08,21.587 53.845,21.551 53.679,21.675 C53.513,21.799 53.478,22.033 53.601,22.199 L56.601,26.248 C56.668,26.338 56.772,26.394 56.884,26.399 C57.011,26.405 57.106,26.359 57.181,26.275 L58.7,24.589 L59.833,23.33 L64.804,28.321 C64.877,28.393 64.973,28.431 65.069,28.431 C65.165,28.431 65.261,28.394 65.334,28.321 C65.48,28.175 65.481,27.938 65.335,27.791" id="Fill-53"></path>
        </g>
    </g>
</svg>