<svg xmlns="http://www.w3.org/2000/svg" viewBox="0 0 57 74"><g fill="none" fill-rule="evenodd"><path fill="#FFF" d="M50.905 17.639c-.288 1.383-1.663 2.271-3.062 2.039a79.167 79.167 0 00-26.27 0c-1.4.235-2.773-.657-3.062-2.039L15.945 4.943c-.287-1.376.892-2.8 2.631-3.09a97.274 97.274 0 0132.264 0c1.739.29 2.919 1.713 2.631 3.09l-2.566 12.696"/><path fill="#000" d="M18.638 2.222c-1.481.247-2.485 1.451-2.246 2.632l2.504 12.708c.24 1.183 1.409 1.945 2.615 1.745a79.643 79.643 0 0126.394 0c1.205.208 2.375-.565 2.615-1.745l2.504-12.708c.239-1.181-.765-2.38-2.246-2.632a96.905 96.905 0 00-32.14 0zm29.143 17.825a78.852 78.852 0 00-26.146 0c-1.6.268-3.17-.744-3.509-2.329L15.5 5.034c-.34-1.581 1.007-3.216 3.014-3.551a97.59 97.59 0 0132.388 0c2.007.337 3.354 1.97 3.014 3.551L51.29 17.718c-.34 1.583-1.91 2.596-3.509 2.329z"/><path fill="#000" d="M26.373 5.681a.708.708 0 00-.107-.317.916.916 0 00-.236-.245 1.019 1.019 0 00-.335-.147 1.086 1.086 0 00-.395-.028c-.611.063-1.221.13-1.831.204l.202 1.666a81.283 81.283 0 011.838-.204c.13-.016.249-.048.359-.103a.918.918 0 00.46-.495.725.725 0 00.045-.331zM24.42 8.647c-.607.069-1.212.146-1.817.228l-.094-.686.515-.068-.374-2.87c-.176.022-.354.046-.531.071l-.093-.686a93.566 93.566 0 013.252-.385c.234-.022.461-.006.682.052.222.059.423.15.603.279.188.129.334.281.439.457a1.332 1.332 0 01.098 1.17 1.58 1.58 0 01-.348.527 1.88 1.88 0 01-.765.475l.135.213c.148.23.334.334.564.313a.778.778 0 00.316-.094c.086-.049.171-.122.254-.204.18.153.359.308.536.461a2.098 2.098 0 01-.462.363 1.447 1.447 0 01-.583.163c-.32.026-.591-.019-.817-.144a1.72 1.72 0 01-.584-.561l-.247-.374c-.449.048-.897.099-1.345.153.021.174.043.347.063.521l.523-.062.08.688zM33.377 4.991l-.751.014-.08-.512c-.862.021-1.724.054-2.585.096l.05.985a95.365 95.365 0 012.137-.084l.02.691c-.708.021-1.415.048-2.122.084l.062 1.215a91.929 91.929 0 012.572-.095l.055-.514c.245-.006.49-.01.735-.012l.017 1.204c-1.55.022-3.1.083-4.649.184-.015-.23-.029-.461-.045-.691l.518-.032-.173-2.889-.534.034-.045-.691a94.917 94.917 0 014.8-.192l.018 1.205M36.37 8.07a92.897 92.897 0 00-1.828-.015l-.001-.692h.519l.01-2.894a47.704 47.704 0 00-.535 0l-.001-.692c.694-.002 1.388.005 2.081.019.602 1.208 1.18 2.421 1.735 3.64l.193.008.122-2.892-.541-.021.025-.691c.64.023 1.28.054 1.919.089l-.039.691c-.18-.011-.361-.02-.541-.029l-.148 2.89.524.028-.04.692a87.484 87.484 0 00-1.984-.091 113.517 113.517 0 00-1.74-3.631c-.068-.002-.138-.002-.206-.003l-.037 2.894c.175.001.351.005.525.008l-.012.692M41.832 5.256c-.25-.019-.5-.039-.749-.055l.082-1.202c1.852.127 3.7.31 5.543.547l-.154 1.195a89.113 89.113 0 00-.745-.093l-.008-.518a110.76 110.76 0 00-1.523-.17c-.098.96-.197 1.92-.297 2.879.175.018.35.036.524.056l-.075.688a94.076 94.076 0 00-1.827-.18l.061-.69.523.048.271-2.881a96.18 96.18 0 00-1.519-.131l-.107.507M23.291 13.838a73.517 73.517 0 011.864-.233c-.24-.535-.485-1.071-.733-1.603-.27.032-.539.065-.808.1-.111.579-.219 1.157-.323 1.736zm3.699 1.496c-.563.052-1.125.111-1.686.175l-.079-.687.446-.05-.216-.504c-.765.084-1.528.179-2.291.285l-.093.543.445-.062.093.686c-.558.076-1.116.157-1.673.244l-.107-.683.481-.074c.159-1 .329-1.999.509-2.998a63.28 63.28 0 00-.398.056l-.098-.684a80.801 80.801 0 012.591-.333 148.422 148.422 0 011.528 3.444l.483-.047.065.689zM33.125 11.362a2.183 2.183 0 00-.725.126c-.219.077-.41.184-.567.322a1.397 1.397 0 00-.365.486c-.085.189-.123.39-.114.61.007.218.062.42.16.6.098.179.228.333.391.459.162.127.352.218.569.289.218.066.452.099.705.093.335-.005.628-.066.879-.175.252-.112.452-.266.606-.461.183.154.365.311.547.468a2.415 2.415 0 01-.879.625c-.351.149-.73.226-1.14.235a3.176 3.176 0 01-.944-.13 2.595 2.595 0 01-.819-.411 2.227 2.227 0 01-.589-.663 1.948 1.948 0 01-.254-.895 1.93 1.93 0 01.17-.929c.13-.279.312-.51.547-.71a2.55 2.55 0 01.824-.458c.315-.107.644-.17.985-.173.283-.006.527.008.737.038.21.027.392.073.547.12.156.048.29.101.397.165.108.059.205.112.29.164l-.003.744h-.695l-.033-.3a3.174 3.174 0 00-.228-.111 1.362 1.362 0 00-.259-.078 2.478 2.478 0 00-.321-.043 6.692 6.692 0 00-.419-.007M37.746 13.119c.625.022 1.249.052 1.873.088-.146-.568-.295-1.137-.449-1.704-.27-.015-.541-.028-.812-.038-.207.55-.411 1.102-.612 1.654zm3.386 2.104a74.12 74.12 0 00-1.69-.114l.039-.69c.15.007.298.017.448.026l-.128-.534a93.05 93.05 0 00-2.302-.108l-.183.519.448.016-.026.691a72.967 72.967 0 00-1.686-.045l.011-.691.485.009c.327-.957.663-1.914 1.011-2.868a26.837 26.837 0 00-.401-.012l.02-.692c.868.025 1.737.062 2.604.113.322 1.217.629 2.434.919 3.654.162.011.323.023.485.036l-.054.69zM46.112 12.986a.745.745 0 00-.029-.332.903.903 0 00-.16-.289.936.936 0 00-.27-.215 1.117 1.117 0 00-.351-.111c-.565-.07-1.13-.134-1.695-.193a781.51 781.51 0 01-.173 1.669c.567.059 1.133.123 1.698.194.12.015.235.008.347-.024A.868.868 0 0046 13.3c.06-.096.097-.2.112-.314zm-2.395 2.478c-.56-.062-1.12-.116-1.681-.166l.062-.689.477.043.273-2.881-.494-.045.061-.689c1.006.089 2.012.197 3.016.321.217.029.418.092.605.197.187.102.348.236.485.399.139.17.24.35.297.54.059.196.073.391.043.596a1.377 1.377 0 01-.208.565 1.53 1.53 0 01-.427.441 1.736 1.736 0 01-.791.302l.075.236c.084.259.23.399.441.425a.611.611 0 00.305-.025c.089-.034.18-.085.272-.144l.385.562c-.17.118-.336.204-.496.258a1.3 1.3 0 01-.56.035 1.2 1.2 0 01-.704-.314 1.629 1.629 0 01-.405-.672l-.143-.418a87.268 87.268 0 00-1.242-.137l-.054.522.483.051-.075.687z"/><path fill="#FFF" d="M53.23 68.96c.265 1.381-.912 2.779-2.626 3.046a103.794 103.794 0 01-31.791 0c-1.715-.266-2.893-1.66-2.627-3.046l2.37-12.734c.266-1.385 1.625-2.299 3.025-2.082a85.664 85.664 0 0026.254 0c1.4-.217 2.76.703 3.025 2.082l2.37 12.734"/><path fill="#000" d="M21.524 54.515c-1.207-.184-2.362.598-2.583 1.782l-2.314 12.744c-.221 1.185.782 2.37 2.243 2.594a103.393 103.393 0 0031.676 0c1.461-.225 2.464-1.411 2.243-2.594l-2.314-12.744c-.221-1.186-1.377-1.965-2.583-1.782a86.027 86.027 0 01-26.368 0zm29.137 17.862a104.164 104.164 0 01-31.906 0c-1.978-.307-3.324-1.913-3.01-3.5l2.426-12.724c.314-1.587 1.866-2.628 3.468-2.379a85.288 85.288 0 0026.138 0c1.602-.247 3.154.794 3.468 2.379l2.426 12.724c.314 1.585-1.032 3.196-3.01 3.5z"/><path fill="#000" d="M29.125 62.893c-.471-.029-.943-.061-1.414-.096l.041-.556.396.03.164-2.325-.385-.028.041-.556c1.221.091 2.444.158 3.667.2l-.033.97a49.979 49.979 0 01-.547-.021l-.034-.414a93.187 93.187 0 01-2.114-.111l-.051.791c.591.039 1.182.072 1.773.097l-.024.557a96.506 96.506 0 01-1.785-.097l-.062.978.401.025-.034.556M34.239 60.138a1.74 1.74 0 00-.569.083 1.391 1.391 0 00-.455.24 1.14 1.14 0 00-.308.375c-.077.15-.116.31-.12.486-.004.177.029.337.1.489.072.145.17.277.3.386.127.104.281.188.458.253.176.063.372.089.582.093.224-.004.425-.028.605-.087.179-.058.332-.139.458-.248.127-.105.224-.236.291-.383.067-.147.1-.31.098-.489a1.108 1.108 0 00-.4-.864 1.319 1.319 0 00-.45-.245 1.894 1.894 0 00-.59-.089zm-2.07 1.168c.007-.275.072-.521.19-.735.119-.214.273-.398.464-.542.192-.146.41-.259.656-.335a2.51 2.51 0 01.763-.113c.276.004.536.044.781.121.245.079.461.191.647.341a1.634 1.634 0 01.627 1.285c.004.265-.045.508-.155.727a1.711 1.711 0 01-.444.56c-.19.157-.41.279-.664.36a2.53 2.53 0 01-.81.125 2.667 2.667 0 01-.789-.131 2.096 2.096 0 01-.665-.364 1.753 1.753 0 01-.449-.565 1.52 1.52 0 01-.152-.734zM40.156 60.682a.638.638 0 00-.239-.463.765.765 0 00-.524-.168c-.442.022-.885.042-1.328.059l.051 1.35c.459-.017.918-.038 1.377-.062a.607.607 0 00.271-.068.681.681 0 00.392-.648zm-1.58 2.297c-.471.02-.944.035-1.416.048l-.015-.557.397-.011-.071-2.329-.387.01-.015-.556a90.518 90.518 0 002.33-.092c.167-.004.329.013.486.069.156.052.298.138.428.242.132.111.235.233.312.378.075.143.119.298.13.464.011.164-.012.326-.069.479-.057.152-.146.29-.266.417-.165.171-.36.291-.586.359l.096.176c.105.191.246.283.423.268a.494.494 0 00.243-.068.964.964 0 00.196-.159l.407.377c-.116.128-.237.22-.359.287a1.018 1.018 0 01-.453.12.996.996 0 01-.629-.141 1.33 1.33 0 01-.427-.475c-.059-.104-.116-.209-.173-.313-.341.017-.681.031-1.022.044l.016.423c.134-.006.267-.012.401-.016l.023.556zM22.988 66.388a88.903 88.903 0 01-1.776-.232l-.136.971c.593.082 1.186.159 1.778.231a.56.56 0 00.225-.013.704.704 0 00.192-.082.422.422 0 00.141-.141.441.441 0 00.068-.185.442.442 0 00-.124-.356.63.63 0 00-.368-.193zm.378-.918a.365.365 0 00-.098-.293.484.484 0 00-.301-.153 93.546 93.546 0 01-1.569-.206l-.109.786c.526.073 1.054.143 1.581.208a.485.485 0 00.334-.079.432.432 0 00.109-.113.355.355 0 00.053-.15zm-.578 2.441a98.233 98.233 0 01-2.854-.387l.083-.551.418.062.336-2.306c-.135-.019-.271-.04-.407-.061l.083-.551c.862.129 1.724.248 2.588.354.146.019.281.059.405.124.124.064.231.148.318.243a.991.991 0 01.196.328.816.816 0 01.043.376.89.89 0 01-.299.559.959.959 0 01.338.413.95.95 0 01.084.494.878.878 0 01-.141.396c-.078.122-.178.22-.3.303a1.21 1.21 0 01-.413.179 1.388 1.388 0 01-.478.025zM26.346 68.277a94.871 94.871 0 01-1.508-.139l.056-.555.423.042.223-2.32-.415-.041.056-.554c.483.048.966.094 1.45.134l-.047.556-.415-.037-.207 2.322.431.037-.047.555M27.967 65.921l-.58-.043.073-.967c1.401.107 2.804.182 4.207.226l-.03.97-.581-.02-.037-.415a92 92 0 01-1.173-.052l-.117 2.327.425.021-.026.557c-.502-.024-1.003-.051-1.505-.081l.034-.557.425.026.133-2.327a91.186 91.186 0 01-1.166-.074l-.082.409M34.555 65.71c-.218 0-.418.028-.603.086a1.619 1.619 0 00-.483.241 1.155 1.155 0 00-.325.375c-.08.148-.121.312-.125.486-.003.174.032.336.109.49.077.151.183.274.319.385.136.105.299.191.487.251.189.061.393.092.617.091a2.09 2.09 0 00.773-.134c.22-.088.396-.211.526-.374l.483.37c-.2.217-.457.388-.768.513-.311.118-.65.187-1.015.182a2.788 2.788 0 01-.837-.128 2.198 2.198 0 01-.705-.362 1.752 1.752 0 01-.479-.565 1.448 1.448 0 01-.165-.733c.006-.276.074-.52.198-.736.124-.217.288-.397.49-.542.201-.146.434-.263.694-.337.261-.081.531-.117.81-.116.231-.001.43.016.602.038.171.026.319.059.448.097.127.039.237.082.326.129.09.048.17.093.241.129l.009.599-.581.007-.029-.242c-.063-.031-.128-.063-.191-.088a1.275 1.275 0 00-.213-.064 2.082 2.082 0 00-.266-.037 4.39 4.39 0 00-.347-.011M39.041 65.613c-.216.01-.416.044-.599.113a1.55 1.55 0 00-.47.263 1.175 1.175 0 00-.308.391 1.027 1.027 0 00-.102.491c.005.178.049.337.132.484.083.147.194.269.336.37.142.1.308.173.498.228.192.054.399.075.621.062.237-.006.451-.05.637-.119.188-.068.344-.158.473-.272a1.082 1.082 0 00.369-.891 1.134 1.134 0 00-.138-.481 1.102 1.102 0 00-.329-.361 1.528 1.528 0 00-.49-.22 1.98 1.98 0 00-.63-.058zm-2.134 1.275a1.507 1.507 0 01.163-.745c.114-.222.269-.408.465-.565a2.29 2.29 0 01.678-.368 2.888 2.888 0 011.638-.074c.263.064.498.174.703.306.205.141.373.316.504.522.131.21.205.452.224.727.018.262-.024.513-.129.734a1.77 1.77 0 01-.443.584 2.218 2.218 0 01-.684.396 2.797 2.797 0 01-.852.166 2.778 2.778 0 01-.841-.088 2.204 2.204 0 01-.723-.329 1.722 1.722 0 01-.504-.541 1.445 1.445 0 01-.199-.725zM43.783 68.215a95.89 95.89 0 01-1.509.127l-.042-.556c.142-.01.283-.021.425-.033l-.188-2.324c-.138.012-.277.023-.415.033l-.042-.555c.483-.036.967-.078 1.45-.123l.051.555c-.138.014-.277.025-.414.037l.203 2.322.429-.038.052.555M46.126 67.971c-.498.058-.997.112-1.495.161l-.056-.554.419-.043-.244-2.318-.408.043-.056-.555a91.581 91.581 0 001.568-.171c.584.901 1.182 1.797 1.793 2.686l.156-.02-.309-2.31-.413.054-.072-.552c.482-.062.964-.128 1.444-.199l.08.552a58.33 58.33 0 00-.412.059l.324 2.308.423-.061.08.552c-.54.078-1.08.152-1.62.221a120.792 120.792 0 01-1.791-2.692l-.158.017.259 2.316.424-.047.064.553"/><path fill="#FFF" d="M53.315 26.763a19.263 19.263 0 00-7.373-6.918 20.04 20.04 0 016.506 6.524 20.013 20.013 0 012.449 15.224 20.084 20.084 0 01-9.041 12.51 19.34 19.34 0 009.818-12.683 19.269 19.269 0 00-2.359-14.657"/><path fill="#FFF" d="M54.168 41.42a19.273 19.273 0 00-2.358-14.657 19.241 19.241 0 00-8.912-7.655 20.006 20.006 0 017.806 7.261 20.017 20.017 0 012.449 15.224A20.082 20.082 0 0142.94 54.775 19.332 19.332 0 0054.168 41.42"/><path fill="#FFF" d="M44.109 52.217a.375.375 0 11.609-.439l.487.678a19.37 19.37 0 001.978-1.71l-.596-.581a.375.375 0 11.524-.537l.598.584a19.31 19.31 0 001.646-2.029l-.678-.463a.375.375 0 11.423-.62l.685.469c.473-.725.889-1.492 1.265-2.285l-.729-.331a.375.375 0 11.31-.682l.741.336c.339-.793.613-1.622.849-2.471l-.78-.2a.376.376 0 01.188-.727l.796.204c.231-.979.364-1.962.444-2.946l-.805-.049a.374.374 0 01-.351-.397.384.384 0 01.396-.352l.825.05a19.243 19.243 0 00-.082-2.61l-.809.092c-.015.002-.029.002-.043.002a.374.374 0 01-.042-.748l.811-.092a19.46 19.46 0 00-.512-2.56l-.787.233a.375.375 0 01-.213-.719l.772-.228a18.929 18.929 0 00-.946-2.434l-.719.357a.378.378 0 01-.503-.169.377.377 0 01.169-.503l.71-.353c-.215-.412-.428-.825-.675-1.224-.213-.347-.454-.672-.686-1.003l-.641.471a.374.374 0 01-.221.072.375.375 0 01-.223-.677l.657-.482a19.2 19.2 0 00-1.734-1.951l-.559.584a.375.375 0 01-.542-.519l.565-.589a19.228 19.228 0 00-2.034-1.638l-.457.684a.372.372 0 01-.519.102.374.374 0 01-.104-.52l.453-.675a19.393 19.393 0 00-2.283-1.272l-.33.751a.374.374 0 11-.686-.302l.323-.735a19.617 19.617 0 00-2.47-.842l-.191.772a.376.376 0 11-.729-.178l.196-.788a19.758 19.758 0 00-2.583-.406l-.059.821a.376.376 0 01-.373.349c-.009 0-.019 0-.027-.002a.375.375 0 01-.348-.4l.05-.706.009-.115v-.004a20.239 20.239 0 00-.984-.029c-.198 0-.393.019-.591.025-.346.011-.694.016-1.037.045l.019.178.005.041.033.316.03.29a.374.374 0 01-.333.412l-.04.002a.376.376 0 01-.373-.336l-.016-.152-.039-.364-.001-.009-.03-.287c-.192.023-.386.044-.577.074-.081.012-.164.017-.244.031-.591.098-1.175.219-1.747.369l.046.161.043.151.053.185.062.214.024.087a.373.373 0 01-.36.478c-.014 0-.024-.011-.037-.013a.365.365 0 01-.319-.252l-.004-.007-.066-.228-.039-.137-.059-.208-.061-.213a19.72 19.72 0 00-1.966.709c-.161.07-.323.137-.483.209l.016.035.183.375.146.303.014.029.002.002a.375.375 0 01-.337.539.37.37 0 01-.261-.126c-.018-.019-.038-.036-.052-.058-.007-.011-.019-.016-.025-.028l-.144-.298-.169-.347-.044-.091a19.62 19.62 0 00-2.249 1.337l.168.233.241.334.079.11a.37.37 0 01.064.216.367.367 0 01-.368.378c-.019 0-.038-.01-.057-.013a.365.365 0 01-.247-.142l-.048-.066-.235-.327-.204-.282a19.1 19.1 0 00-1.976 1.708l.361.352.235.23c.017.016.013.042.026.06.102.144.11.339-.019.47a.371.371 0 01-.268.114c-.051 0-.093-.037-.141-.057-.041-.018-.087-.016-.121-.049l-.193-.19-.407-.396a19.338 19.338 0 00-1.645 2.03l.565.385.113.077a.371.371 0 01.156.245.357.357 0 01-.275.417c-.032.008-.061.023-.093.023a.372.372 0 01-.211-.065l-.07-.048-.616-.42a19.462 19.462 0 00-1.264 2.285l.729.33c.008.004.013.01.021.015a.373.373 0 01-.176.701c-.029 0-.059-.011-.088-.018-.023-.006-.045-.005-.066-.015l-.743-.336a19.541 19.541 0 00-.848 2.471l.777.201a.365.365 0 01.116.055.374.374 0 01.154.401c-.038.148-.163.237-.304.261-.022.004-.037.02-.059.02a.383.383 0 01-.094-.011l-.793-.205a19.203 19.203 0 00-.442 2.947l.801.049a.368.368 0 01.183.069.372.372 0 01.169.329.376.376 0 01-.222.316.358.358 0 01-.152.036l-.024-.001-.815-.049c-.036.878-.002 1.746.08 2.606l.8-.092a.369.369 0 01.182.029c.123.05.218.159.235.3a.374.374 0 01-.159.344.35.35 0 01-.172.072l-.797.091c.117.869.276 1.726.506 2.562l.779-.231a.375.375 0 01.466.253.371.371 0 01-.148.41.33.33 0 01-.105.055l-.761.226c.265.832.574 1.646.946 2.431l.707-.351c.02-.01.041-.011.062-.017a.37.37 0 01.441.186.37.37 0 01-.149.487c-.007.006-.012.012-.02.016l-.702.349c.402.772.859 1.515 1.361 2.227l.557-.41.078-.058a.378.378 0 01.525.081c.065.09.082.2.06.301a.372.372 0 01-.14.224l-.099.071-.549.404c.527.69 1.114 1.334 1.732 1.951l.355-.37.198-.206c.022-.022.053-.018.077-.034.143-.091.326-.099.453.023.14.133.141.346.025.496-.008.01-.004.025-.014.034l-.23.24-.33.344a19.135 19.135 0 002.034 1.631l.172-.256.205-.306.073-.11a.372.372 0 01.214-.149.37.37 0 01.307.046.367.367 0 01.159.333.365.365 0 01-.057.187l-.317.474-.131.195c.728.469 1.479.907 2.277 1.278l.026-.059.15-.341.152-.346.003-.005c.006-.015.018-.024.026-.037a.368.368 0 01.418-.167c.016.005.034.004.05.011a.365.365 0 01.141.116.372.372 0 01.052.379l-.025.054-.009.023-.143.322-.146.333c.794.332 1.617.617 2.47.846l.033-.135.046-.188.045-.179.046-.186.022-.084a.362.362 0 01.186-.237.375.375 0 01.268-.038c.13.033.22.132.26.251.02.064.031.132.013.203l-.047.189-.034.139-.091.364-.023.096c.363.082.728.155 1.096.216.113.02.227.034.341.051.381.058.763.102 1.146.137l.013-.189.003-.038.023-.345.018-.249a.376.376 0 01.748.053l-.027.386-.019.269-.007.101-.005.07c.151.007.302.008.452.013.176.004.353.016.528.016.242 0 .477-.022.715-.032.307-.01.615-.013.917-.039l-.001-.007-.085-.818a.376.376 0 01.746-.076l.084.81a19.341 19.341 0 002.57-.474l-.229-.797a.376.376 0 01.721-.207l.224.786c.84-.256 1.661-.557 2.451-.919l-.361-.743a.375.375 0 01.675-.328l.357.736c.779-.396 1.531-.84 2.247-1.335l-.489-.679"/><path fill="#000" d="M53.153 41.593a20.017 20.017 0 00-2.449-15.224 20.006 20.006 0 00-7.806-7.261 19.241 19.241 0 018.912 7.655 19.273 19.273 0 012.358 14.657A19.332 19.332 0 0142.94 54.775a20.082 20.082 0 0010.213-13.182zM29.28 55.752l.091-.364.034-.139.047-.189a.367.367 0 00-.013-.203.373.373 0 00-.26-.251.375.375 0 00-.268.038.362.362 0 00-.186.237l-.022.084-.046.186-.045.179-.046.188-.033.135a19.515 19.515 0 01-2.47-.846l.146-.333.143-.322.009-.023.025-.054a.372.372 0 00-.052-.379.365.365 0 00-.141-.116c-.016-.007-.034-.006-.05-.011a.368.368 0 00-.418.167c-.008.013-.02.022-.026.037l-.003.005-.152.346-.15.341-.026.059a19.005 19.005 0 01-2.277-1.278l.131-.195.317-.474a.365.365 0 00.057-.187.367.367 0 00-.159-.333.37.37 0 00-.307-.046.372.372 0 00-.214.149l-.073.11-.205.306-.172.256a19.135 19.135 0 01-2.034-1.631l.33-.344.23-.24c.01-.009.006-.024.014-.034a.369.369 0 00-.025-.496c-.127-.122-.31-.114-.453-.023-.024.016-.055.012-.077.034l-.198.206-.355.37a19.493 19.493 0 01-1.732-1.951l.549-.404.099-.071a.372.372 0 00.14-.224.375.375 0 00-.06-.301.378.378 0 00-.525-.081l-.078.058-.557.41a19.493 19.493 0 01-1.361-2.227l.702-.349c.008-.004.013-.01.02-.016a.37.37 0 00.149-.487.37.37 0 00-.441-.186c-.021.006-.042.007-.062.017l-.707.351a19.448 19.448 0 01-.946-2.431l.761-.226a.33.33 0 00.105-.055.371.371 0 00.148-.41.375.375 0 00-.466-.253l-.779.231a19.41 19.41 0 01-.506-2.562l.797-.091a.35.35 0 00.172-.072.374.374 0 00.159-.344.373.373 0 00-.235-.3.369.369 0 00-.182-.029l-.8.092a19.144 19.144 0 01-.08-2.606l.815.049.024.001a.358.358 0 00.152-.036.376.376 0 00.222-.316.372.372 0 00-.169-.329.368.368 0 00-.183-.069l-.801-.049c.078-.979.207-1.962.442-2.947l.793.205a.383.383 0 00.094.011c.022 0 .037-.016.059-.02.141-.024.266-.113.304-.261a.374.374 0 00-.154-.401.365.365 0 00-.116-.055l-.777-.201c.235-.849.509-1.678.848-2.471l.743.336c.021.01.043.009.066.015.029.007.059.018.088.018a.373.373 0 00.176-.701c-.008-.005-.013-.011-.021-.015l-.729-.33c.376-.793.792-1.56 1.264-2.285l.616.42.07.048a.372.372 0 00.211.065c.032 0 .061-.015.093-.023a.357.357 0 00.275-.417.371.371 0 00-.156-.245l-.113-.077-.565-.385a19.338 19.338 0 011.645-2.03l.407.396.193.19c.034.033.08.031.121.049.048.02.09.057.141.057a.371.371 0 00.268-.114c.129-.131.121-.326.019-.47-.013-.018-.009-.044-.026-.06l-.235-.23-.361-.352a19.1 19.1 0 011.976-1.708l.204.282.235.327.048.066c.06.084.152.127.247.142.019.003.038.013.057.013a.365.365 0 00.368-.378.37.37 0 00-.064-.216l-.079-.11-.241-.334-.168-.233a19.62 19.62 0 012.249-1.337l.044.091.169.347.144.298c.006.012.018.017.025.028.014.022.034.039.052.058a.37.37 0 00.261.126.375.375 0 00.337-.539l-.002-.002-.014-.029-.146-.303-.183-.375-.016-.035c.16-.072.322-.139.483-.209a19.72 19.72 0 011.966-.709l.061.213.059.208.039.137.066.228.004.007a.365.365 0 00.319.252c.013.002.023.013.037.013a.334.334 0 00.103-.015.373.373 0 00.257-.463l-.024-.087-.062-.214-.053-.185-.043-.151-.046-.161c.572-.15 1.156-.271 1.747-.369.08-.014.163-.019.244-.031.191-.03.385-.051.577-.074l.03.287.001.009.039.364.016.152a.376.376 0 00.373.336l.04-.002a.374.374 0 00.333-.412l-.03-.29-.033-.316-.005-.041-.019-.178c.343-.029.691-.034 1.037-.045.198-.006.393-.025.591-.025.328 0 .655.013.984.029v.004l-.009.115-.05.706a.375.375 0 00.348.4.376.376 0 00.4-.347l.059-.821c.866.079 1.729.212 2.583.406l-.196.788a.377.377 0 00.366.465.376.376 0 00.363-.287l.191-.772c.849.227 1.672.51 2.47.842l-.323.735a.375.375 0 10.686.302l.33-.751c.795.368 1.55.804 2.283 1.272l-.453.675a.374.374 0 00.312.584.372.372 0 00.311-.166l.457-.684a19.228 19.228 0 012.034 1.638l-.565.589a.375.375 0 00.542.519l.559-.584a19.2 19.2 0 011.734 1.951l-.657.482a.375.375 0 00.444.605l.641-.471c.232.331.473.656.686 1.003.247.399.46.812.675 1.224l-.71.353a.377.377 0 00-.169.503.38.38 0 00.503.169l.719-.357c.377.792.684 1.606.946 2.434l-.772.228a.375.375 0 00.213.719l.787-.233c.231.842.396 1.697.512 2.56l-.811.092a.374.374 0 00.042.748c.014 0 .028 0 .043-.002l.809-.092c.081.865.119 1.735.082 2.61l-.825-.05a.384.384 0 00-.396.352.374.374 0 00.351.397l.805.049c-.08.984-.213 1.967-.444 2.946l-.796-.204a.376.376 0 00-.188.727l.78.2c-.236.849-.51 1.678-.849 2.471l-.741-.336a.375.375 0 10-.31.682l.729.331c-.376.793-.792 1.56-1.265 2.285L49.1 47.1a.375.375 0 10-.423.62l.678.463a19.31 19.31 0 01-1.646 2.029l-.598-.584a.375.375 0 10-.524.537l.596.581a19.37 19.37 0 01-1.978 1.71l-.487-.678a.375.375 0 00-.609.439l.489.679c-.716.495-1.468.939-2.247 1.335l-.357-.736a.375.375 0 00-.675.328l.361.743c-.79.362-1.611.663-2.451.919l-.224-.786a.376.376 0 00-.721.207l.229.797c-.836.219-1.697.368-2.57.474l-.084-.81a.375.375 0 00-.746.076l.085.818.001.007c-.302.026-.61.029-.917.039-.238.01-.473.032-.715.032-.175 0-.352-.012-.528-.016-.15-.005-.301-.006-.452-.013l.005-.07.007-.101.019-.269.027-.386a.374.374 0 10-.748-.053l-.018.249-.023.345-.003.038-.013.189a19.247 19.247 0 01-1.146-.137c-.114-.017-.228-.031-.341-.051a19.288 19.288 0 01-1.096-.216l.023-.096zm16.576-1.649a20.084 20.084 0 009.041-12.51 20.013 20.013 0 00-2.449-15.224 20.04 20.04 0 00-6.506-6.524 19.263 19.263 0 017.373 6.918 19.269 19.269 0 012.359 14.657 19.34 19.34 0 01-9.818 12.683zm8.098-27.734a20.012 20.012 0 00-12.497-9.033 20.23 20.23 0 00-4.672-.55c-.208 0-.411.021-.617.027a18.846 18.846 0 00-.889-.027c-.24 0-.476.022-.715.031a19.605 19.605 0 00-1.029-.031c-9.361 0-17.413 6.373-19.58 15.497-2.567 10.807 4.135 21.688 14.942 24.255a20.22 20.22 0 004.67.551c.242 0 .477-.023.715-.032.344.018.687.032 1.03.032.208 0 .411-.021.617-.027.297.013.592.027.888.027 9.366 0 17.419-6.372 19.586-15.496a20.017 20.017 0 00-2.449-15.224z"/><path fill="#000" d="M38.564 50.723a.376.376 0 00-.255-.706c-.395.144-.795.266-1.199.371a14.003 14.003 0 01-7.954-.246.374.374 0 00-.474.239.375.375 0 00.237.474 14.65 14.65 0 004.628.746c1.701 0 3.403-.293 5.017-.878M29.684 23.551a.345.345 0 00.1-.014 14.183 14.183 0 014.039-.515.383.383 0 00.382-.368.376.376 0 00-.368-.382 14.82 14.82 0 00-4.254.544.374.374 0 00.101.735M23.375 27.281a.374.374 0 00.268-.113 13.773 13.773 0 014.339-2.989.374.374 0 10-.299-.688 14.53 14.53 0 00-4.576 3.151.378.378 0 00.268.639M20.411 32.35a.375.375 0 10-.708-.246 14.744 14.744 0 00-.008 9.646.376.376 0 00.478.232.376.376 0 00.231-.477 13.947 13.947 0 01-.353-1.206 14.021 14.021 0 01.36-7.949M47.004 33.359c.35 1.321.503 2.683.457 4.046a.374.374 0 00.362.387h.013c.202 0 .368-.16.375-.362a14.738 14.738 0 00-.482-4.262.371.371 0 00-.458-.267.374.374 0 00-.267.458M46.388 31.549a.373.373 0 00.49.201c.191-.08.281-.3.202-.491a14.482 14.482 0 00-3.085-4.621.375.375 0 10-.533.527 13.733 13.733 0 012.926 4.384"/><path fill="#000" d="M21.863 34.161a11.97 11.97 0 0111.679-9.243c.933 0 1.871.11 2.788.328a11.946 11.946 0 017.454 5.388 11.941 11.941 0 011.461 9.081 11.97 11.97 0 01-11.68 9.241c-.934 0-1.872-.11-2.789-.328-6.445-1.531-10.444-8.021-8.913-14.467zm11.702 15.545a12.717 12.717 0 0012.41-9.819 12.683 12.683 0 00-1.553-9.647 12.681 12.681 0 00-7.919-5.724 12.847 12.847 0 00-2.961-.348 12.714 12.714 0 00-12.408 9.819c-1.627 6.849 2.621 13.745 9.469 15.371.973.231 1.97.348 2.962.348z"/><path fill="#000" d="M35.882 27.131c.162.038.32.083.477.131l-.618 2.601-.581-.138.621-2.616c.034.006.068.013.101.022zm-1.261 3.237l1.312.312a.383.383 0 00.284-.045.384.384 0 00.168-.233l.784-3.305a.375.375 0 00-.248-.443 10.842 10.842 0 00-.866-.254c-.104-.024-.207-.041-.31-.058l-.175-.031a.373.373 0 00-.436.281l-.79 3.324a.374.374 0 00.277.452zM36.605 32.78a1.618 1.618 0 011.199 1.946 1.635 1.635 0 01-1.948 1.2l-4.16-.989.746-3.145 4.163.988zm-5.448 2.8l4.527 1.076a2.36 2.36 0 002.849-1.756 2.369 2.369 0 00-1.755-2.85l-4.527-1.076a.375.375 0 00-.451.279l-.92 3.876a.374.374 0 00.277.451zM37.808 40.764a1.632 1.632 0 01-1.947 1.2l-1.474-.349c-.02-.016-.032-.02-.081-.02l-3.084-.724.002-.004a.424.424 0 00-.086-.025l-.8-.189.747-3.149 5.523 1.312a1.62 1.62 0 011.2 1.948zm-7.198-4.031a.373.373 0 00-.168.233l-.92 3.878a.375.375 0 00.278.451l1.178.28.018.004 3.062.717c.028.012.057.025.086.031l1.543.366a2.358 2.358 0 002.85-1.755 2.37 2.37 0 00-1.755-2.852l-5.888-1.398a.379.379 0 00-.284.045z"/><path fill="#000" d="M43.592 37.764l-1.12-.267a1.232 1.232 0 00-1.466.905l-.05.21a1.219 1.219 0 00.903 1.466l1.172.278a10.078 10.078 0 01-8.641 6.616l.594-2.503.268.063a4.245 4.245 0 005.125-3.158 4.27 4.27 0 00-1.166-4.007 4.156 4.156 0 001.16-2.031 4.264 4.264 0 00-2.098-4.715l.541-2.271c3.213 1.972 5.086 5.657 4.778 9.414zm-5.907-6.599a3.512 3.512 0 011.957 3.997 3.458 3.458 0 01-1.23 1.91.374.374 0 00-.001.585c1.06.85 1.545 2.241 1.236 3.543a3.498 3.498 0 01-4.222 2.603l-.632-.151a.376.376 0 00-.451.278l-.798 3.36a.373.373 0 00.364.461h.013a10.825 10.825 0 009.954-7.553.37.37 0 00-.031-.298.38.38 0 00-.24-.18l-1.571-.372a.468.468 0 01-.347-.564l.049-.209a.472.472 0 01.563-.347l1.535.364a.373.373 0 00.459-.318c.548-4.366-1.682-8.718-5.548-10.83a.373.373 0 00-.544.243l-.724 3.051a.374.374 0 00.209.427zM31.224 46.743c-.034-.007-.067-.017-.1-.026l.711-2.997.582.138-.709 2.982a7.022 7.022 0 01-.484-.097zm1.731-3.528l-1.311-.31a.374.374 0 00-.452.277l-.879 3.706a.376.376 0 00.265.448l.169.051c.1.031.199.062.304.086.296.071.59.118.885.164a.375.375 0 00.421-.284l.876-3.687a.374.374 0 00-.278-.451zM23.553 35.73l2.697.64a1.23 1.23 0 001.465-.901l.051-.212a1.21 1.21 0 00-.149-.921 1.202 1.202 0 00-.755-.545l-2.645-.63c1.467-3.637 4.944-6.103 8.906-6.285l-.532 2.238-2.586-.614a1.33 1.33 0 00-1.589.979 1.32 1.32 0 00.98 1.588l.479.114-2.104 8.862-.481-.115a1.333 1.333 0 00-1.588.979 1.31 1.31 0 00.16.998c.185.299.476.51.82.591l2.585.615-.623 2.621a10.01 10.01 0 01-5.091-10.002zm5.177 10.895c.052.026.11.038.167.038.054 0 .109-.01.159-.034a.38.38 0 00.206-.253l.821-3.457a.377.377 0 00-.278-.452l-2.95-.701a.562.562 0 01-.354-.255.562.562 0 01-.069-.431.576.576 0 01.685-.422l.845.201a.376.376 0 00.452-.277l2.277-9.591a.377.377 0 00-.278-.453l-.844-.2a.57.57 0 01.263-1.108l2.951.7a.376.376 0 00.451-.277l.731-3.076c.026-.112-.025-.23-.097-.32a.432.432 0 00-.32-.142 10.83 10.83 0 00-10.187 7.188.376.376 0 00.267.49l3.061.728a.464.464 0 01.347.561l-.051.213a.47.47 0 01-.562.345l-3.097-.735a.376.376 0 00-.457.305 10.763 10.763 0 005.861 11.415zM8.68 20.04h8.875a.376.376 0 000-.75H8.68a.375.375 0 000 .75M1.492 36.493h9.25a.375.375 0 000-.75h-9.25a.375.375 0 000 .75M7.648 44.719h3.875a.375.375 0 000-.75H7.648a.375.375 0 000 .75M4.633 44.344a.375.375 0 00-.375-.375H.914a.375.375 0 000 .75h3.344a.375.375 0 00.375-.375M13.492 48.458a.375.375 0 00-.375-.375H4.242a.375.375 0 000 .75h8.875a.375.375 0 00.375-.375M9.492 40.232a.375.375 0 00-.375-.376h-4a.375.375 0 000 .75h4a.375.375 0 00.375-.374M15.523 52.197h-4.781a.375.375 0 000 .75h4.781a.375.375 0 000-.75M3.867 24.153h5.5a.375.375 0 000-.75h-5.5a.375.375 0 000 .75M11.836 27.891a.375.375 0 00-.375-.375h-3.75a.375.375 0 000 .75h3.75a.374.374 0 00.375-.375M4.867 31.631a.375.375 0 000 .75h4.5a.375.375 0 000-.75h-4.5M50.821 3.932a.5.5 0 000 .997.499.499 0 000-.997M18.595 3.932a.499.499 0 10.002.998.499.499 0 00-.002-.998M48.609 16.834a.482.482 0 10.004.964.482.482 0 00-.004-.964M20.807 16.834a.482.482 0 10.002.964.482.482 0 00-.002-.964M18.595 68.88a.498.498 0 100 .996.498.498 0 000-.996M50.821 68.88a.498.498 0 10.001.997.498.498 0 00-.001-.997M20.807 56.011a.481.481 0 10-.001.963.481.481 0 00.001-.963M48.609 56.011a.483.483 0 000 .963.48.48 0 100-.963"/></g></svg>