<?xml version="1.0" encoding="UTF-8"?>
<svg width="77px" height="78px" viewBox="0 0 77 78" version="1.1" xmlns="http://www.w3.org/2000/svg" xmlns:xlink="http://www.w3.org/1999/xlink">
    <!-- Generator: Sketch 49 (51002) - http://www.bohemiancoding.com/sketch -->
    <title>bitcoin-grey-6</title>
    <desc>Created with Sketch.</desc>
    <defs></defs>
    <g id="Page-1" stroke="none" stroke-width="1" fill="none" fill-rule="evenodd">
        <g id="bitcoin-grey-6" fill="#000000">
            <path d="M29.383,25.635 L29.383,26.514 C28.859,26.462 28.43,26.117 28.265,25.635 L29.383,25.635 Z M29.509,47.007 C28.948,47.007 28.447,46.616 28.26,46.101 L31.813,46.101 L31.813,47.007 L29.509,47.007 Z M36.918,47.007 C36.711,47.007 36.543,47.175 36.543,47.382 L36.543,49.007 C36.543,49.74 35.946,50.337 35.212,50.337 C34.628,50.337 34.146,49.951 33.968,49.425 C35.08,49.385 35.973,48.473 35.973,47.351 L35.973,46.101 L39.207,46.101 L39.207,47.007 L36.918,47.007 Z M50.556,40.56 C50.556,44.005 47.75,46.892 44.302,46.996 C44.099,47.003 43.938,47.169 43.938,47.372 L43.938,49.007 C43.938,49.74 43.341,50.337 42.607,50.337 C42.022,50.337 41.539,49.951 41.361,49.425 C42.473,49.385 43.368,48.473 43.368,47.351 L43.368,46.071 C47.049,45.772 49.986,42.631 49.986,38.905 C49.986,38.607 49.961,38.313 49.92,38.024 C50.327,38.801 50.556,39.659 50.556,40.56 Z M49.635,30.395 C49.635,31.918 49.008,33.347 47.968,34.307 C47.64,33.995 47.285,33.702 46.887,33.449 C48.244,32.352 49.066,30.6 49.066,28.74 C49.066,28.358 49.031,27.981 48.971,27.611 C49.383,28.466 49.635,29.407 49.635,30.395 Z M43.369,21.645 L43.369,20.889 C43.662,21.098 43.858,21.414 43.906,21.787 C43.729,21.735 43.551,21.684 43.369,21.645 Z M35.974,21.473 L35.974,20.889 C36.183,21.038 36.354,21.231 36.448,21.473 L35.974,21.473 Z M28.189,22.223 L32.189,22.223 C32.396,22.223 32.564,22.056 32.564,21.848 L32.564,20.296 C32.564,19.563 33.161,18.966 33.894,18.966 C34.479,18.966 34.962,19.351 35.14,19.878 C35.179,19.994 35.208,20.116 35.214,20.245 C35.214,20.263 35.224,20.278 35.224,20.296 L35.224,21.848 C35.224,22.056 35.392,22.223 35.599,22.223 L39.584,22.223 C39.791,22.223 39.959,22.056 39.959,21.848 L39.959,20.296 C39.959,19.563 40.555,18.966 41.289,18.966 C41.874,18.966 42.357,19.351 42.534,19.878 C42.574,19.994 42.603,20.116 42.608,20.245 C42.609,20.263 42.619,20.278 42.619,20.296 L42.619,21.953 C42.619,22.136 42.75,22.292 42.93,22.323 C43.278,22.383 43.613,22.48 43.939,22.594 C44.068,22.639 44.189,22.697 44.314,22.751 C44.442,22.805 44.565,22.867 44.689,22.928 C45.1,23.136 45.49,23.376 45.846,23.661 C46.187,23.937 46.506,24.237 46.786,24.572 C47.048,24.887 47.275,25.23 47.476,25.589 C48.006,26.534 48.316,27.611 48.316,28.74 C48.316,30.56 47.428,32.255 45.999,33.166 C45.887,33.237 45.821,33.363 45.826,33.496 C45.831,33.629 45.907,33.75 46.024,33.813 C46.531,34.084 46.985,34.407 47.382,34.773 C47.476,34.859 47.556,34.954 47.643,35.045 C47.761,35.168 47.878,35.288 47.983,35.42 C48.212,35.703 48.406,36.007 48.575,36.321 C48.997,37.111 49.236,37.985 49.236,38.905 C49.236,42.352 46.43,45.239 42.981,45.343 C42.779,45.348 42.618,45.515 42.618,45.717 L42.618,47.351 C42.618,48.086 42.021,48.682 41.287,48.682 C41.283,48.682 41.28,48.681 41.276,48.681 C41.143,48.679 41.022,48.641 40.901,48.605 C40.763,48.562 40.641,48.496 40.526,48.413 C40.298,48.25 40.127,48.029 40.039,47.757 C40,47.637 39.966,47.515 39.962,47.382 C39.962,47.372 39.957,47.363 39.957,47.351 L39.957,45.726 C39.957,45.52 39.789,45.351 39.582,45.351 L35.598,45.351 C35.391,45.351 35.223,45.52 35.223,45.726 L35.223,47.351 C35.223,48.086 34.626,48.682 33.892,48.682 C33.889,48.682 33.886,48.681 33.883,48.681 C33.75,48.68 33.629,48.642 33.508,48.605 C33.37,48.562 33.249,48.498 33.133,48.414 C32.905,48.251 32.734,48.03 32.645,47.757 C32.606,47.637 32.572,47.515 32.569,47.382 C32.569,47.372 32.563,47.363 32.563,47.351 L32.563,45.726 C32.563,45.52 32.395,45.351 32.188,45.351 L28.189,45.351 C28.072,45.351 27.959,45.329 27.848,45.298 C27.727,45.263 27.612,45.212 27.506,45.145 C27.125,44.906 26.859,44.485 26.859,44.022 C26.859,43.283 27.468,42.657 28.189,42.657 L29.758,42.657 C29.965,42.657 30.133,42.489 30.133,42.283 L30.133,25.261 C30.133,25.053 29.965,24.885 29.758,24.885 L28.189,24.885 C28.071,24.885 27.965,24.847 27.856,24.819 C27.731,24.785 27.619,24.738 27.511,24.673 C27.128,24.438 26.859,24.035 26.859,23.555 C26.859,22.846 27.48,22.223 28.189,22.223 Z M28.189,41.907 C27.062,41.907 26.109,42.876 26.109,44.022 C26.109,44.892 26.679,45.654 27.458,45.957 C27.601,46.957 28.477,47.757 29.509,47.757 L31.854,47.757 C31.995,48.467 32.499,49.043 33.163,49.294 C33.304,50.304 34.165,51.087 35.212,51.087 C36.36,51.087 37.293,50.154 37.293,49.007 L37.293,47.757 L39.248,47.757 C39.388,48.466 39.892,49.042 40.555,49.293 C40.696,50.304 41.558,51.087 42.607,51.087 C43.754,51.087 44.688,50.154 44.688,49.007 L44.688,47.725 C48.37,47.426 51.306,44.285 51.306,40.56 C51.306,38.761 50.536,37.107 49.2,35.88 C48.999,35.516 48.754,35.176 48.481,34.853 C49.669,33.752 50.385,32.124 50.385,30.395 C50.385,28.347 49.493,26.445 48.066,25.1 C47.29,23.777 46.109,22.703 44.689,22.08 L44.689,21.949 C44.689,21.061 44.126,20.307 43.34,20.01 C43.199,19 42.337,18.216 41.289,18.216 C40.142,18.216 39.209,19.149 39.209,20.296 L39.209,21.473 L37.234,21.473 C37.075,20.799 36.586,20.252 35.945,20.01 C35.804,19 34.943,18.216 33.894,18.216 C32.747,18.216 31.814,19.149 31.814,20.296 L31.814,21.473 L28.189,21.473 C27.062,21.473 26.109,22.427 26.109,23.555 C26.109,24.444 26.671,25.199 27.457,25.495 C27.592,26.465 28.392,27.217 29.383,27.277 L29.383,41.907 L28.189,41.907 Z" id="Fill-1"></path>
            <path d="M44.905,28.74 C44.905,30.396 43.543,31.743 41.868,31.743 L34.899,31.743 L34.899,27.29 L43.188,27.29 C43.746,27.29 44.269,27.463 44.724,27.744 C44.833,28.06 44.905,28.391 44.905,28.74 Z M33.579,25.635 L41.868,25.635 C42.741,25.635 43.535,26.042 44.095,26.669 C43.802,26.593 43.501,26.54 43.188,26.54 L34.524,26.54 C34.317,26.54 34.149,26.708 34.149,26.914 L34.149,31.743 L33.579,31.743 L33.579,25.635 Z M33.204,32.492 L41.868,32.492 C43.956,32.492 45.655,30.81 45.655,28.74 C45.655,28.693 45.642,28.649 45.641,28.602 C45.632,28.368 45.608,28.139 45.558,27.918 C45.508,27.693 45.442,27.473 45.354,27.263 C44.772,25.882 43.41,24.885 41.868,24.885 L33.204,24.885 C32.997,24.885 32.829,25.053 32.829,25.261 L32.829,32.117 C32.829,32.324 32.997,32.492 33.204,32.492 Z" id="Fill-2"></path>
            <path d="M45.793,38.905 C45.793,40.589 44.458,41.907 42.754,41.907 L34.899,41.907 L34.899,37.557 L44.109,37.557 C44.668,37.557 45.185,37.721 45.634,37.989 C45.728,38.278 45.793,38.583 45.793,38.905 Z M33.579,35.904 L42.789,35.904 C43.689,35.904 44.489,36.31 45.04,36.939 C44.741,36.862 44.432,36.807 44.109,36.807 L34.524,36.807 C34.317,36.807 34.149,36.975 34.149,37.182 L34.149,41.907 L33.579,41.907 L33.579,35.904 Z M33.204,42.657 L42.754,42.657 C44.878,42.657 46.543,41.009 46.543,38.905 C46.543,38.869 46.533,38.836 46.532,38.802 C46.526,38.58 46.509,38.361 46.466,38.151 C46.419,37.924 46.348,37.706 46.263,37.495 C45.704,36.125 44.359,35.154 42.789,35.154 L33.204,35.154 C32.997,35.154 32.829,35.322 32.829,35.529 L32.829,42.283 C32.829,42.489 32.997,42.657 33.204,42.657 Z" id="Fill-3"></path>
            <path d="M33.108,60.959 L33.462,60.754 L33.839,60.536 L34.253,60.298 L34.572,60.115 L36.431,59.042 L36.807,58.825 L37.183,58.608 L37.86,58.217 L38.236,58.001 L38.612,57.784 L41.248,56.264 C41.346,56.207 41.459,56.177 41.572,56.177 C41.629,56.177 41.686,56.184 41.741,56.199 C41.909,56.244 42.05,56.351 42.137,56.503 L42.38,56.924 L42.419,56.991 L42.567,57.249 L42.754,57.574 L42.759,57.582 L43.204,58.354 C43.319,58.553 43.306,58.785 43.206,58.975 C43.164,59.057 43.106,59.127 43.031,59.186 C43.007,59.203 42.992,59.228 42.965,59.243 L42.066,59.761 L41.69,59.979 L41.314,60.196 L40.638,60.586 L40.261,60.803 L39.886,61.02 L38.303,61.932 L37.927,62.15 L37.551,62.367 L36.874,62.757 L36.498,62.974 L36.122,63.191 L27.817,67.983 C27.777,68.005 27.734,68.017 27.694,68.036 C27.07,68.327 26.309,68.189 25.809,67.735 C25.693,67.631 25.589,67.515 25.507,67.378 C25.503,67.37 25.498,67.365 25.493,67.358 C25.405,67.204 25.349,67.036 25.311,66.865 C25.25,66.593 25.247,66.31 25.32,66.04 C25.44,65.591 25.728,65.216 26.13,64.984 L33.108,60.959 Z M36.43,58.177 L36.054,58.393 L35.678,58.611 L35.005,58.999 L35.338,58.416 L35.525,58.091 L36.047,57.179 L37.107,57.786 L36.43,58.177 Z M15.493,45.409 L35.396,56.807 L35.051,57.409 L34.474,58.416 C34.298,58.723 34.037,58.965 33.731,59.148 C33.356,59.372 32.909,59.506 32.414,59.506 C31.868,59.506 31.315,59.354 30.816,59.068 L17.74,51.58 C15.34,50.207 14.333,47.438 15.492,45.41 L15.493,45.409 Z M39.886,63.703 L49.315,69.104 C49.614,69.275 49.951,69.361 50.293,69.374 C49.869,69.734 49.234,69.836 48.735,69.55 L39.209,64.094 L39.886,63.703 Z M51.739,67.599 L51.662,67.735 L51.538,67.951 C51.481,68.049 51.394,68.12 51.315,68.199 C51.18,68.333 51.027,68.437 50.85,68.505 C50.475,68.651 50.047,68.659 49.688,68.452 L40.637,63.27 L42.22,62.356 L43.649,61.532 L51.277,65.9 C51.566,66.066 51.773,66.334 51.86,66.654 C51.947,66.975 51.904,67.312 51.739,67.599 Z M43.723,59.872 C43.81,60.023 43.833,60.199 43.788,60.367 C43.758,60.476 43.693,60.568 43.614,60.648 C43.574,60.689 43.535,60.732 43.484,60.761 L43.271,60.885 L42.896,61.1 L42.219,61.491 L41.843,61.708 L41.467,61.925 L39.884,62.839 L38.456,63.662 L38.08,63.881 L37.704,64.097 L28.335,69.502 C27.549,69.957 26.464,69.661 26.011,68.877 C25.98,68.823 25.961,68.766 25.936,68.712 C26.257,68.862 26.604,68.96 26.969,68.96 C27.396,68.96 27.819,68.847 28.192,68.632 L36.875,63.622 L37.251,63.406 L37.627,63.189 L38.304,62.799 L38.68,62.58 L39.056,62.364 L40.639,61.451 L41.015,61.235 L41.391,61.018 L42.067,60.627 L42.443,60.41 L42.819,60.193 L43.34,59.892 C43.39,59.864 43.432,59.827 43.477,59.794 L43.627,59.708 L43.723,59.872 Z M48.667,55.933 L44.033,58.607 C44.022,58.392 43.968,58.177 43.854,57.979 L43.404,57.199 L47.901,54.605 L47.93,54.656 C47.932,54.659 47.933,54.662 47.935,54.665 L48.593,55.805 L48.633,55.876 L48.667,55.933 Z M49.283,55.5 L49.282,55.5 L48.584,54.291 C48.582,54.287 48.581,54.283 48.579,54.28 C47.765,52.853 48.256,51.029 49.681,50.208 L60.249,44.11 C60.393,44.027 60.556,43.983 60.72,43.983 C61.055,43.983 61.368,44.164 61.536,44.456 L61.71,44.757 L54.031,49.186 C53.852,49.29 53.79,49.518 53.894,49.698 C53.963,49.819 54.089,49.885 54.219,49.885 C54.282,49.885 54.347,49.869 54.406,49.836 L62.085,45.406 L62.729,46.523 L55.05,50.952 C54.871,51.055 54.81,51.285 54.913,51.465 C54.982,51.584 55.108,51.652 55.238,51.652 C55.302,51.652 55.366,51.635 55.425,51.601 L63.104,47.173 L63.748,48.288 L56.07,52.719 C55.891,52.823 55.829,53.052 55.933,53.232 C56.002,53.351 56.128,53.419 56.258,53.419 C56.321,53.419 56.386,53.402 56.445,53.368 L64.123,48.938 L64.279,49.21 C64.405,49.428 64.439,49.682 64.374,49.925 C64.309,50.168 64.153,50.37 63.935,50.495 L53.365,56.595 C52.91,56.857 52.395,56.995 51.874,56.995 C50.807,56.995 49.815,56.423 49.283,55.5 Z M64.929,48.836 L63.568,46.478 C63.567,46.475 63.567,46.473 63.566,46.472 C63.565,46.471 63.564,46.469 63.563,46.468 L62.186,44.08 C61.736,43.302 60.659,43.009 59.874,43.46 L49.306,49.557 C47.764,50.447 47.101,52.275 47.609,53.907 L43.029,56.549 L42.786,56.128 C42.599,55.803 42.297,55.572 41.936,55.474 C41.579,55.379 41.19,55.431 40.873,55.615 L37.859,57.353 L36.094,56.342 C36.094,56.342 36.093,56.341 36.092,56.341 L15.542,44.573 C15.361,44.469 15.133,44.531 15.03,44.71 L14.842,45.036 C13.476,47.425 14.609,50.653 17.367,52.232 L30.443,59.719 C31.056,60.07 31.738,60.256 32.414,60.256 C32.594,60.256 32.761,60.219 32.933,60.194 L25.755,64.334 C25.179,64.667 24.767,65.203 24.595,65.845 C24.423,66.486 24.511,67.157 24.844,67.735 C24.898,67.827 24.973,67.902 25.038,67.986 C25.033,68.426 25.136,68.861 25.363,69.254 C25.799,70.011 26.613,70.48 27.487,70.48 C27.915,70.48 28.338,70.367 28.71,70.152 L38.457,64.528 L48.362,70.2 C48.681,70.383 49.042,70.48 49.407,70.48 C50.161,70.48 50.861,70.073 51.236,69.42 L51.422,69.093 C51.736,68.911 52.002,68.648 52.188,68.323 L52.39,67.972 C52.654,67.511 52.724,66.972 52.584,66.457 C52.444,65.944 52.112,65.515 51.65,65.249 L44.281,61.03 C44.385,60.89 44.466,60.734 44.512,60.56 C44.609,60.199 44.559,59.822 44.372,59.498 L44.277,59.332 L49.127,56.534 C49.827,57.292 50.819,57.745 51.874,57.745 C52.526,57.745 53.171,57.573 53.74,57.244 L64.31,51.146 C64.701,50.92 64.981,50.556 65.098,50.12 C65.215,49.683 65.155,49.228 64.929,48.836 Z" id="Fill-4"></path>
            <path d="M35.104,77.653 L32.232,77.653 L32.232,77.15 C32.232,77.007 32.258,76.875 32.312,76.754 C32.365,76.632 32.449,76.518 32.565,76.412 C32.681,76.306 32.829,76.206 33.007,76.112 C33.187,76.019 33.401,75.93 33.653,75.846 C33.852,75.779 34.007,75.727 34.119,75.689 C34.23,75.651 34.313,75.617 34.368,75.586 C34.422,75.555 34.455,75.525 34.466,75.494 C34.478,75.463 34.483,75.423 34.483,75.372 C34.483,75.302 34.463,75.245 34.422,75.2 C34.382,75.156 34.326,75.122 34.255,75.1 C34.184,75.078 34.101,75.062 34.007,75.054 C33.914,75.045 33.812,75.041 33.704,75.041 C33.589,75.041 33.475,75.053 33.362,75.077 C33.249,75.101 33.141,75.133 33.039,75.175 C32.937,75.217 32.845,75.267 32.762,75.324 C32.68,75.381 32.613,75.443 32.563,75.511 L32.19,75.171 C32.268,75.073 32.365,74.985 32.481,74.907 C32.597,74.829 32.723,74.762 32.856,74.708 C32.991,74.653 33.13,74.611 33.276,74.582 C33.421,74.553 33.563,74.538 33.704,74.538 C33.897,74.538 34.075,74.552 34.24,74.578 C34.405,74.604 34.547,74.651 34.667,74.716 C34.788,74.782 34.881,74.869 34.948,74.976 C35.016,75.084 35.049,75.217 35.049,75.376 C35.049,75.508 35.02,75.618 34.961,75.705 C34.902,75.794 34.821,75.871 34.718,75.938 C34.614,76.005 34.49,76.066 34.345,76.121 C34.2,76.175 34.042,76.232 33.871,76.29 C33.65,76.369 33.467,76.447 33.32,76.525 C33.173,76.604 33.057,76.68 32.97,76.754 C32.883,76.828 32.822,76.899 32.788,76.967 C32.752,77.036 32.735,77.097 32.735,77.15 L34.601,77.15 L34.643,76.777 L35.104,76.777 L35.104,77.653" id="Fill-5"></path>
            <path d="M32.282,77.603 L35.054,77.603 L35.054,76.827 L34.688,76.827 L34.646,77.2 L32.685,77.2 L32.685,77.15 C32.685,77.089 32.705,77.02 32.743,76.944 C32.78,76.871 32.846,76.794 32.937,76.715 C33.026,76.64 33.148,76.561 33.296,76.481 C33.446,76.401 33.634,76.322 33.854,76.243 C34.025,76.185 34.183,76.128 34.327,76.074 C34.468,76.021 34.59,75.961 34.69,75.896 C34.788,75.833 34.865,75.759 34.919,75.678 C34.972,75.598 35,75.497 35,75.376 C35,75.227 34.968,75.102 34.906,75.003 C34.844,74.903 34.756,74.822 34.644,74.76 C34.529,74.697 34.391,74.653 34.232,74.627 C33.953,74.583 33.622,74.563 33.286,74.631 C33.143,74.66 33.005,74.701 32.876,74.754 C32.745,74.808 32.621,74.873 32.509,74.948 C32.412,75.014 32.328,75.087 32.259,75.166 L32.558,75.438 C32.606,75.383 32.665,75.331 32.734,75.283 C32.818,75.224 32.915,75.172 33.02,75.129 C33.124,75.086 33.236,75.052 33.352,75.028 C33.574,74.981 33.815,74.986 34.012,75.004 C34.109,75.013 34.195,75.029 34.27,75.052 C34.349,75.077 34.413,75.116 34.459,75.167 C34.508,75.221 34.533,75.29 34.533,75.372 C34.533,75.429 34.526,75.475 34.513,75.511 C34.498,75.554 34.458,75.593 34.392,75.63 C34.336,75.662 34.252,75.697 34.135,75.736 L33.669,75.893 C33.421,75.976 33.207,76.064 33.03,76.156 C32.857,76.247 32.711,76.346 32.599,76.449 C32.489,76.55 32.408,76.659 32.357,76.774 C32.307,76.888 32.282,77.015 32.282,77.15 L32.282,77.603 Z M35.153,77.703 L32.182,77.703 L32.182,77.15 C32.182,77.001 32.21,76.861 32.266,76.734 C32.321,76.606 32.411,76.486 32.532,76.375 C32.65,76.266 32.803,76.163 32.984,76.068 C33.165,75.973 33.385,75.883 33.638,75.799 L34.103,75.642 C34.212,75.604 34.293,75.571 34.343,75.543 C34.402,75.509 34.416,75.485 34.419,75.477 C34.428,75.452 34.433,75.417 34.433,75.372 C34.433,75.314 34.417,75.269 34.385,75.234 C34.351,75.196 34.302,75.167 34.24,75.147 C34.172,75.126 34.093,75.111 34.003,75.104 C33.815,75.087 33.585,75.081 33.372,75.126 C33.262,75.149 33.157,75.181 33.058,75.221 C32.959,75.262 32.87,75.311 32.791,75.365 C32.713,75.419 32.65,75.478 32.603,75.541 L32.57,75.585 L32.122,75.176 L32.151,75.14 C32.231,75.039 32.334,74.947 32.454,74.865 C32.571,74.786 32.7,74.717 32.837,74.662 C32.973,74.606 33.117,74.563 33.266,74.533 C33.614,74.463 33.957,74.482 34.248,74.528 C34.418,74.556 34.567,74.604 34.691,74.672 C34.819,74.742 34.919,74.835 34.991,74.95 C35.063,75.065 35.099,75.208 35.099,75.376 C35.099,75.517 35.067,75.637 35.002,75.733 C34.94,75.826 34.854,75.909 34.745,75.98 C34.639,76.049 34.51,76.112 34.362,76.167 C34.217,76.222 34.058,76.279 33.887,76.338 C33.672,76.414 33.489,76.492 33.343,76.569 C33.201,76.645 33.086,76.72 33.002,76.792 C32.921,76.861 32.863,76.928 32.832,76.99 C32.812,77.03 32.798,77.067 32.791,77.1 L34.556,77.1 L34.598,76.727 L35.153,76.727 L35.153,77.703 Z" id="Fill-6"></path>
            <path d="M37.61,75.016 C37.437,75.016 37.281,75.043 37.143,75.096 C37.004,75.149 36.887,75.223 36.791,75.318 C36.694,75.413 36.62,75.527 36.566,75.662 C36.513,75.796 36.487,75.942 36.487,76.102 C36.487,76.261 36.513,76.408 36.566,76.542 C36.62,76.676 36.694,76.791 36.791,76.886 C36.887,76.981 37.004,77.055 37.143,77.108 C37.281,77.161 37.437,77.187 37.61,77.187 C37.794,77.187 37.957,77.161 38.097,77.108 C38.236,77.055 38.353,76.981 38.447,76.886 C38.54,76.791 38.611,76.676 38.66,76.542 C38.709,76.408 38.734,76.261 38.734,76.102 C38.734,75.942 38.709,75.796 38.66,75.662 C38.611,75.527 38.54,75.413 38.447,75.318 C38.353,75.223 38.236,75.149 38.097,75.096 C37.957,75.043 37.794,75.016 37.61,75.016 Z M35.971,76.102 C35.971,75.853 36.015,75.63 36.101,75.433 C36.187,75.236 36.305,75.07 36.453,74.934 C36.601,74.799 36.775,74.694 36.975,74.622 C37.175,74.549 37.387,74.513 37.61,74.513 C37.845,74.513 38.062,74.549 38.262,74.622 C38.462,74.694 38.635,74.799 38.782,74.934 C38.929,75.07 39.043,75.236 39.125,75.433 C39.208,75.63 39.25,75.853 39.25,76.102 C39.25,76.342 39.208,76.56 39.125,76.756 C39.043,76.951 38.929,77.118 38.782,77.257 C38.635,77.395 38.462,77.502 38.262,77.577 C38.062,77.653 37.845,77.691 37.61,77.691 C37.387,77.691 37.175,77.653 36.975,77.58 C36.775,77.505 36.601,77.399 36.453,77.261 C36.305,77.123 36.187,76.956 36.101,76.76 C36.015,76.564 35.971,76.345 35.971,76.102 Z" id="Fill-7"></path>
            <path d="M37.61,75.066 C37.444,75.066 37.293,75.092 37.161,75.142 C37.03,75.192 36.917,75.263 36.826,75.354 C36.735,75.443 36.663,75.553 36.613,75.68 C36.563,75.807 36.537,75.949 36.537,76.102 C36.537,76.254 36.563,76.396 36.613,76.524 C36.664,76.651 36.735,76.761 36.826,76.85 C36.917,76.94 37.03,77.011 37.161,77.061 C37.293,77.112 37.444,77.137 37.61,77.137 C37.787,77.137 37.945,77.112 38.079,77.061 C38.211,77.011 38.323,76.94 38.411,76.851 C38.499,76.761 38.567,76.652 38.613,76.525 C38.66,76.396 38.684,76.253 38.684,76.102 C38.684,75.95 38.66,75.808 38.613,75.679 C38.567,75.552 38.499,75.443 38.411,75.353 C38.323,75.263 38.211,75.193 38.079,75.143 C37.945,75.092 37.787,75.066 37.61,75.066 Z M37.61,77.238 C37.432,77.238 37.269,77.21 37.125,77.155 C36.981,77.099 36.856,77.021 36.755,76.921 C36.655,76.822 36.576,76.701 36.52,76.561 C36.465,76.421 36.437,76.267 36.437,76.102 C36.437,75.936 36.465,75.782 36.52,75.643 C36.575,75.503 36.655,75.382 36.755,75.282 C36.857,75.182 36.981,75.104 37.125,75.049 C37.269,74.994 37.432,74.966 37.61,74.966 C37.799,74.966 37.969,74.994 38.114,75.049 C38.26,75.104 38.384,75.183 38.482,75.283 C38.581,75.383 38.656,75.505 38.707,75.645 C38.758,75.784 38.784,75.938 38.784,76.102 C38.784,76.265 38.758,76.419 38.707,76.559 C38.656,76.699 38.581,76.821 38.482,76.921 C38.384,77.02 38.26,77.099 38.114,77.155 C37.969,77.21 37.799,77.238 37.61,77.238 Z M37.61,74.563 C37.394,74.563 37.186,74.599 36.992,74.669 C36.799,74.739 36.629,74.841 36.487,74.971 C36.344,75.102 36.23,75.264 36.147,75.453 C36.063,75.643 36.021,75.861 36.021,76.102 C36.021,76.336 36.063,76.551 36.147,76.74 C36.23,76.928 36.344,77.091 36.487,77.224 C36.629,77.357 36.799,77.461 36.993,77.533 C37.389,77.679 37.866,77.674 38.245,77.531 C38.438,77.458 38.606,77.353 38.748,77.22 C38.888,77.088 39,76.925 39.08,76.736 C39.159,76.547 39.2,76.334 39.2,76.102 C39.2,75.861 39.159,75.643 39.08,75.452 C39,75.262 38.888,75.101 38.748,74.971 C38.607,74.84 38.438,74.739 38.245,74.669 C38.051,74.599 37.838,74.563 37.61,74.563 Z M37.61,77.741 C37.382,77.741 37.162,77.702 36.958,77.626 C36.752,77.55 36.571,77.439 36.419,77.298 C36.266,77.155 36.144,76.98 36.055,76.78 C35.966,76.579 35.921,76.351 35.921,76.102 C35.921,75.848 35.966,75.616 36.055,75.413 C36.144,75.211 36.267,75.038 36.419,74.897 C36.572,74.758 36.753,74.65 36.958,74.575 C37.162,74.501 37.382,74.463 37.61,74.463 C37.85,74.463 38.075,74.501 38.279,74.575 C38.484,74.649 38.665,74.758 38.816,74.898 C38.967,75.037 39.086,75.21 39.171,75.414 C39.256,75.616 39.299,75.848 39.299,76.102 C39.299,76.347 39.256,76.574 39.171,76.775 C39.086,76.977 38.967,77.151 38.816,77.293 C38.666,77.435 38.485,77.547 38.28,77.624 C38.075,77.701 37.85,77.741 37.61,77.741 Z" id="Fill-8"></path>
            <polyline id="Fill-9" points="41.392 74.542 41.777 74.542 41.777 77.15 42.737 77.15 42.737 77.653 40.231 77.653 40.231 77.15 41.274 77.15 41.274 75.335 40.499 76.114 40.171 75.783 41.392 74.542"></polyline>
            <path d="M40.28,77.603 L42.688,77.603 L42.688,77.2 L41.728,77.2 L41.728,74.592 L41.413,74.592 L40.242,75.783 L40.499,76.043 L41.324,75.214 L41.324,77.2 L40.28,77.2 L40.28,77.603 Z M42.787,77.703 L40.181,77.703 L40.181,77.1 L41.224,77.1 L41.224,75.456 L40.499,76.185 L40.101,75.783 L41.371,74.492 L41.827,74.492 L41.827,77.1 L42.787,77.1 L42.787,77.703 Z" id="Fill-10"></path>
            <path d="M45.072,77.179 C45.19,77.179 45.31,77.166 45.433,77.139 C45.556,77.113 45.667,77.074 45.766,77.024 C45.865,76.974 45.946,76.911 46.009,76.835 C46.072,76.76 46.104,76.673 46.104,76.575 C46.104,76.422 46.016,76.298 45.842,76.204 C45.667,76.111 45.411,76.064 45.072,76.064 C44.933,76.064 44.805,76.077 44.689,76.104 C44.573,76.13 44.468,76.162 44.375,76.198 C44.281,76.235 44.2,76.273 44.131,76.313 C44.063,76.354 44.006,76.388 43.961,76.416 C44.026,76.654 44.149,76.84 44.333,76.976 C44.516,77.111 44.762,77.179 45.072,77.179 Z M45.072,77.682 C44.826,77.682 44.601,77.645 44.396,77.571 C44.19,77.497 44.014,77.392 43.867,77.255 C43.72,77.118 43.606,76.952 43.523,76.758 C43.441,76.564 43.4,76.345 43.4,76.102 C43.4,75.853 43.444,75.631 43.534,75.435 C43.623,75.24 43.744,75.075 43.896,74.941 C44.049,74.806 44.226,74.704 44.429,74.632 C44.631,74.561 44.845,74.526 45.068,74.526 C45.208,74.526 45.335,74.531 45.45,74.54 C45.564,74.55 45.675,74.57 45.781,74.601 C45.887,74.632 45.995,74.676 46.105,74.733 C46.216,74.79 46.337,74.866 46.468,74.961 L46.187,75.343 C46.079,75.273 45.98,75.216 45.894,75.171 C45.807,75.126 45.722,75.092 45.638,75.068 C45.554,75.045 45.468,75.028 45.378,75.02 C45.289,75.012 45.187,75.007 45.072,75.007 C44.754,75.01 44.498,75.093 44.305,75.255 C44.112,75.417 43.991,75.629 43.94,75.892 C43.982,75.867 44.037,75.836 44.104,75.798 C44.171,75.76 44.252,75.724 44.347,75.689 C44.442,75.654 44.55,75.624 44.67,75.599 C44.79,75.573 44.926,75.561 45.077,75.561 C45.283,75.561 45.481,75.579 45.67,75.615 C45.858,75.652 46.024,75.71 46.167,75.79 C46.309,75.869 46.423,75.97 46.508,76.093 C46.593,76.216 46.636,76.363 46.636,76.533 C46.636,76.724 46.59,76.89 46.5,77.032 C46.409,77.175 46.29,77.294 46.144,77.391 C45.997,77.487 45.83,77.56 45.643,77.609 C45.455,77.658 45.265,77.682 45.072,77.682 Z" id="Fill-11"></path>
            <path d="M44.02,76.439 C44.084,76.647 44.199,76.815 44.362,76.936 C44.536,77.064 44.775,77.129 45.072,77.129 C45.186,77.129 45.304,77.116 45.422,77.09 C45.541,77.065 45.648,77.027 45.744,76.979 C45.836,76.932 45.913,76.873 45.971,76.803 C46.026,76.737 46.054,76.662 46.054,76.575 C46.054,76.44 45.977,76.333 45.818,76.249 C45.651,76.159 45.4,76.114 45.072,76.114 C44.938,76.114 44.813,76.127 44.7,76.152 C44.586,76.178 44.483,76.209 44.393,76.245 C44.301,76.28 44.222,76.318 44.157,76.356 C44.104,76.388 44.059,76.415 44.02,76.439 Z M45.072,77.229 C44.753,77.229 44.494,77.157 44.303,77.016 C44.111,76.874 43.981,76.677 43.913,76.429 L43.903,76.394 L43.935,76.374 C43.98,76.346 44.037,76.311 44.106,76.27 C44.176,76.229 44.26,76.189 44.356,76.152 C44.451,76.115 44.56,76.082 44.678,76.055 C44.797,76.028 44.93,76.014 45.072,76.014 C45.418,76.014 45.684,76.063 45.865,76.161 C46.057,76.263 46.153,76.403 46.153,76.575 C46.153,76.685 46.118,76.783 46.048,76.867 C45.981,76.948 45.894,77.015 45.789,77.069 C45.686,77.121 45.57,77.161 45.444,77.188 C45.318,77.215 45.193,77.229 45.072,77.229 Z M45.068,74.576 C44.851,74.576 44.642,74.611 44.445,74.68 C44.25,74.748 44.077,74.849 43.93,74.978 C43.783,75.107 43.665,75.268 43.579,75.456 C43.493,75.644 43.45,75.861 43.45,76.102 C43.45,76.338 43.49,76.552 43.569,76.738 C43.649,76.926 43.761,77.087 43.901,77.218 C44.042,77.35 44.214,77.453 44.413,77.524 C44.611,77.596 44.833,77.632 45.072,77.632 C45.26,77.632 45.447,77.608 45.63,77.561 C45.811,77.513 45.974,77.442 46.116,77.349 C46.256,77.257 46.371,77.141 46.458,77.006 C46.543,76.871 46.586,76.712 46.586,76.533 C46.586,76.375 46.546,76.236 46.467,76.122 C46.386,76.006 46.277,75.908 46.142,75.833 C46.005,75.757 45.843,75.7 45.661,75.664 C45.476,75.629 45.279,75.611 45.077,75.611 C44.929,75.611 44.796,75.623 44.68,75.647 C44.564,75.672 44.457,75.702 44.364,75.736 C44.271,75.77 44.192,75.805 44.128,75.841 C44.062,75.879 44.008,75.91 43.966,75.935 L43.87,75.992 L43.891,75.883 C43.943,75.61 44.072,75.385 44.273,75.217 C44.474,75.048 44.743,74.961 45.072,74.957 C45.189,74.957 45.293,74.962 45.383,74.97 C45.474,74.979 45.564,74.996 45.652,75.02 C45.738,75.045 45.828,75.081 45.917,75.127 C45.995,75.167 46.081,75.217 46.175,75.276 L46.398,74.973 C46.284,74.892 46.178,74.827 46.083,74.777 C45.976,74.722 45.869,74.679 45.767,74.649 C45.665,74.619 45.557,74.6 45.445,74.59 C45.333,74.58 45.206,74.576 45.068,74.576 Z M45.072,77.732 C44.821,77.732 44.588,77.694 44.378,77.618 C44.167,77.542 43.984,77.432 43.833,77.291 C43.682,77.151 43.563,76.978 43.478,76.777 C43.393,76.578 43.35,76.351 43.35,76.102 C43.35,75.847 43.396,75.615 43.488,75.415 C43.58,75.213 43.707,75.041 43.863,74.903 C44.02,74.765 44.205,74.658 44.412,74.585 C44.619,74.512 44.84,74.476 45.068,74.476 C45.209,74.476 45.338,74.481 45.454,74.49 C45.572,74.5 45.687,74.521 45.795,74.553 C45.903,74.584 46.016,74.63 46.128,74.689 C46.241,74.747 46.362,74.823 46.498,74.921 L46.539,74.95 L46.2,75.41 L46.161,75.385 C46.054,75.317 45.957,75.26 45.871,75.215 C45.788,75.173 45.705,75.139 45.625,75.116 C45.544,75.093 45.459,75.078 45.374,75.07 C45.287,75.062 45.186,75.058 45.072,75.058 C44.768,75.06 44.521,75.14 44.337,75.293 C44.182,75.423 44.075,75.59 44.016,75.79 C44.036,75.779 44.057,75.767 44.08,75.754 C44.148,75.715 44.23,75.678 44.33,75.642 C44.427,75.606 44.538,75.575 44.66,75.55 C44.782,75.524 44.922,75.511 45.077,75.511 C45.286,75.511 45.489,75.53 45.679,75.566 C45.873,75.604 46.045,75.664 46.191,75.746 C46.339,75.829 46.46,75.936 46.549,76.065 C46.64,76.196 46.686,76.354 46.686,76.533 C46.686,76.732 46.638,76.909 46.542,77.059 C46.448,77.207 46.323,77.333 46.171,77.433 C46.02,77.532 45.846,77.607 45.655,77.657 C45.464,77.707 45.269,77.732 45.072,77.732 Z" id="Fill-12"></path>
            <path d="M35.954,72.159 C35.954,72.264 35.928,72.353 35.876,72.426 C35.823,72.499 35.753,72.559 35.668,72.606 C35.582,72.653 35.482,72.687 35.369,72.707 C35.256,72.728 35.14,72.738 35.022,72.738 C34.937,72.738 34.854,72.73 34.771,72.716 C34.688,72.701 34.609,72.681 34.535,72.656 C34.459,72.631 34.39,72.6 34.325,72.565 C34.261,72.53 34.207,72.491 34.162,72.448 L34.357,72.162 C34.385,72.189 34.423,72.216 34.472,72.243 C34.521,72.271 34.575,72.295 34.635,72.317 C34.696,72.338 34.76,72.356 34.827,72.371 C34.894,72.385 34.959,72.393 35.022,72.393 C35.201,72.393 35.341,72.372 35.441,72.331 C35.542,72.29 35.592,72.236 35.592,72.167 C35.592,72.119 35.549,72.078 35.464,72.045 C35.379,72.011 35.233,71.983 35.024,71.96 C34.903,71.946 34.792,71.927 34.691,71.903 C34.589,71.878 34.503,71.847 34.431,71.808 C34.358,71.769 34.302,71.721 34.263,71.666 C34.223,71.61 34.203,71.545 34.203,71.468 C34.203,71.361 34.229,71.272 34.283,71.202 C34.336,71.132 34.404,71.077 34.485,71.036 C34.565,70.995 34.653,70.966 34.748,70.949 C34.842,70.933 34.931,70.925 35.013,70.925 C35.085,70.925 35.159,70.929 35.236,70.939 C35.313,70.949 35.388,70.963 35.461,70.98 C35.535,70.997 35.604,71.019 35.668,71.043 C35.732,71.067 35.787,71.094 35.832,71.123 L35.832,71.512 L35.539,71.512 L35.498,71.346 C35.43,71.316 35.353,71.295 35.267,71.281 C35.181,71.268 35.096,71.261 35.013,71.261 C34.95,71.261 34.893,71.264 34.84,71.271 C34.788,71.278 34.741,71.288 34.701,71.302 C34.661,71.315 34.63,71.332 34.607,71.352 C34.585,71.371 34.574,71.394 34.574,71.419 C34.574,71.514 34.722,71.58 35.019,71.615 C35.188,71.634 35.333,71.658 35.451,71.685 C35.57,71.712 35.667,71.746 35.742,71.787 C35.817,71.828 35.872,71.879 35.905,71.939 C35.938,72 35.954,72.073 35.954,72.159" id="Fill-13"></path>
            <path d="M34.228,72.44 C34.263,72.469 34.303,72.496 34.349,72.521 C34.411,72.555 34.479,72.584 34.55,72.608 C34.623,72.633 34.7,72.652 34.78,72.666 C34.972,72.701 35.174,72.692 35.36,72.658 C35.468,72.638 35.563,72.606 35.644,72.562 C35.723,72.519 35.787,72.464 35.835,72.397 C35.881,72.333 35.904,72.253 35.904,72.159 C35.904,72.082 35.89,72.016 35.861,71.963 C35.833,71.912 35.785,71.867 35.718,71.831 C35.647,71.792 35.553,71.76 35.44,71.734 C35.324,71.707 35.18,71.684 35.013,71.664 C34.803,71.639 34.524,71.587 34.524,71.419 C34.524,71.391 34.533,71.35 34.575,71.314 C34.602,71.29 34.638,71.27 34.685,71.254 C34.729,71.24 34.778,71.229 34.833,71.222 C34.96,71.205 35.119,71.207 35.275,71.232 C35.364,71.246 35.446,71.269 35.518,71.3 L35.541,71.31 L35.578,71.462 L35.782,71.462 L35.782,71.151 C35.744,71.129 35.7,71.109 35.65,71.09 C35.588,71.066 35.521,71.046 35.45,71.029 C35.378,71.012 35.304,70.998 35.23,70.989 C35.07,70.968 34.927,70.968 34.757,70.999 C34.667,71.014 34.584,71.042 34.507,71.08 C34.434,71.118 34.372,71.169 34.322,71.233 C34.276,71.294 34.252,71.373 34.252,71.468 C34.252,71.534 34.269,71.589 34.303,71.637 C34.338,71.686 34.389,71.729 34.455,71.764 C34.523,71.801 34.606,71.831 34.703,71.854 C34.802,71.878 34.912,71.897 35.03,71.91 C35.244,71.934 35.392,71.963 35.482,71.998 C35.588,72.039 35.642,72.096 35.642,72.167 C35.642,72.258 35.581,72.328 35.46,72.378 C35.353,72.421 35.21,72.443 35.022,72.443 C34.956,72.443 34.887,72.435 34.816,72.42 C34.747,72.405 34.681,72.386 34.619,72.364 C34.557,72.342 34.499,72.316 34.447,72.287 C34.417,72.27 34.391,72.253 34.367,72.236 L34.228,72.44 Z M35.022,72.788 C34.935,72.788 34.848,72.78 34.763,72.765 C34.677,72.75 34.595,72.729 34.519,72.703 C34.441,72.677 34.368,72.646 34.301,72.609 C34.233,72.572 34.174,72.53 34.127,72.484 L34.096,72.455 L34.35,72.084 L34.393,72.126 C34.417,72.15 34.452,72.175 34.496,72.2 C34.543,72.226 34.595,72.25 34.652,72.27 C34.71,72.29 34.772,72.308 34.837,72.322 C34.901,72.336 34.963,72.343 35.022,72.343 C35.194,72.343 35.329,72.323 35.422,72.285 C35.542,72.236 35.542,72.185 35.542,72.167 C35.542,72.134 35.482,72.105 35.446,72.091 C35.365,72.06 35.222,72.032 35.019,72.01 C34.897,71.996 34.783,71.976 34.679,71.951 C34.575,71.926 34.483,71.893 34.407,71.852 C34.328,71.809 34.266,71.756 34.222,71.695 C34.176,71.631 34.153,71.555 34.153,71.468 C34.153,71.351 34.183,71.251 34.243,71.172 C34.301,71.096 34.375,71.035 34.462,70.991 C34.547,70.948 34.64,70.917 34.739,70.9 C34.92,70.868 35.073,70.868 35.243,70.89 C35.32,70.899 35.398,70.913 35.473,70.932 C35.548,70.949 35.619,70.971 35.686,70.996 C35.752,71.022 35.811,71.051 35.859,71.082 L35.881,71.096 L35.881,71.562 L35.5,71.562 L35.456,71.382 C35.397,71.359 35.331,71.342 35.259,71.331 C35.114,71.308 34.964,71.306 34.846,71.321 C34.798,71.327 34.754,71.337 34.717,71.349 C34.684,71.361 34.658,71.374 34.64,71.389 C34.625,71.402 34.624,71.412 34.624,71.419 C34.624,71.442 34.653,71.521 35.024,71.565 C35.195,71.585 35.343,71.609 35.462,71.636 C35.584,71.664 35.687,71.7 35.766,71.743 C35.85,71.788 35.911,71.846 35.949,71.915 C35.985,71.983 36.004,72.065 36.004,72.159 C36.004,72.274 35.975,72.374 35.916,72.455 C35.859,72.534 35.784,72.6 35.691,72.65 C35.602,72.699 35.496,72.735 35.378,72.756 C35.263,72.777 35.143,72.788 35.022,72.788 Z" id="Fill-14"></path>
            <path d="M36.689,70.536 C36.689,70.471 36.71,70.419 36.753,70.379 C36.796,70.339 36.848,70.319 36.911,70.319 C36.975,70.319 37.029,70.339 37.072,70.379 C37.114,70.419 37.136,70.471 37.136,70.536 C37.136,70.598 37.114,70.649 37.072,70.689 C37.029,70.729 36.975,70.749 36.911,70.749 C36.848,70.749 36.796,70.729 36.753,70.689 C36.71,70.649 36.689,70.598 36.689,70.536 Z M37.323,72.717 L36.507,72.717 L36.507,72.366 L36.738,72.366 L36.738,71.308 L36.507,71.308 L36.507,70.957 L37.089,70.957 L37.089,72.366 L37.323,72.366 L37.323,72.717 Z" id="Fill-15"></path>
            <path d="M36.911,70.369 C36.861,70.369 36.821,70.384 36.787,70.416 C36.754,70.446 36.738,70.485 36.738,70.536 C36.738,70.584 36.754,70.622 36.787,70.652 C36.855,70.717 36.973,70.714 37.038,70.652 C37.07,70.622 37.086,70.584 37.086,70.536 C37.086,70.485 37.07,70.446 37.038,70.416 C37.004,70.384 36.962,70.369 36.911,70.369 Z M36.911,70.799 C36.835,70.799 36.771,70.774 36.719,70.726 C36.666,70.676 36.639,70.612 36.639,70.536 C36.639,70.457 36.666,70.392 36.719,70.343 C36.825,70.243 37.003,70.247 37.106,70.343 C37.159,70.393 37.186,70.457 37.186,70.536 C37.186,70.612 37.159,70.676 37.106,70.726 C37.054,70.774 36.988,70.799 36.911,70.799 Z M36.557,72.667 L37.273,72.667 L37.273,72.416 L37.04,72.416 L37.04,71.007 L36.557,71.007 L36.557,71.257 L36.788,71.257 L36.788,72.416 L36.557,72.416 L36.557,72.667 Z M37.373,72.767 L36.458,72.767 L36.458,72.316 L36.689,72.316 L36.689,71.358 L36.458,71.358 L36.458,70.907 L37.139,70.907 L37.139,72.316 L37.373,72.316 L37.373,72.767 Z" id="Fill-16"></path>
            <path d="M40.058,72.717 L39.476,72.717 L39.476,71.659 C39.476,71.577 39.464,71.511 39.442,71.461 C39.419,71.411 39.386,71.374 39.343,71.347 C39.299,71.321 39.245,71.303 39.18,71.294 C39.116,71.286 39.041,71.281 38.955,71.281 C38.875,71.281 38.797,71.297 38.72,71.328 C38.643,71.359 38.573,71.398 38.511,71.445 L38.511,72.366 L38.745,72.366 L38.745,72.717 L37.929,72.717 L37.929,72.366 L38.16,72.366 L38.16,71.308 L37.929,71.308 L37.929,70.957 L38.452,70.957 L38.476,71.109 C38.538,71.066 38.621,71.024 38.724,70.985 C38.827,70.944 38.943,70.925 39.072,70.925 C39.175,70.925 39.273,70.936 39.364,70.96 C39.456,70.983 39.536,71.022 39.604,71.078 C39.672,71.134 39.727,71.209 39.767,71.303 C39.807,71.398 39.827,71.516 39.827,71.659 L39.827,72.366 L40.058,72.366 L40.058,72.717" id="Fill-17"></path>
            <path d="M39.525,72.667 L40.008,72.667 L40.008,72.416 L39.777,72.416 L39.777,71.659 C39.777,71.524 39.758,71.411 39.721,71.323 C39.684,71.236 39.634,71.167 39.573,71.117 C39.511,71.066 39.437,71.03 39.352,71.008 C39.157,70.958 38.917,70.963 38.742,71.031 C38.643,71.069 38.563,71.109 38.504,71.15 L38.438,71.196 L38.409,71.007 L37.979,71.007 L37.979,71.257 L38.209,71.257 L38.209,72.416 L37.979,72.416 L37.979,72.667 L38.695,72.667 L38.695,72.416 L38.461,72.416 L38.461,71.42 L38.48,71.405 C38.546,71.356 38.62,71.314 38.701,71.282 C38.784,71.248 38.869,71.231 38.955,71.231 C39.044,71.231 39.12,71.236 39.187,71.245 C39.258,71.255 39.319,71.275 39.369,71.304 C39.421,71.336 39.461,71.382 39.487,71.441 C39.513,71.498 39.525,71.569 39.525,71.659 L39.525,72.667 Z M40.107,72.767 L39.426,72.767 L39.426,71.659 C39.426,71.584 39.416,71.525 39.396,71.482 C39.378,71.441 39.352,71.411 39.317,71.39 C39.279,71.367 39.231,71.352 39.173,71.344 C39.057,71.328 38.891,71.313 38.738,71.374 C38.674,71.401 38.614,71.433 38.561,71.47 L38.561,72.316 L38.794,72.316 L38.794,72.767 L37.879,72.767 L37.879,72.316 L38.11,72.316 L38.11,71.358 L37.879,71.358 L37.879,70.907 L38.495,70.907 L38.514,71.027 C38.568,70.996 38.632,70.966 38.706,70.938 C38.814,70.896 38.938,70.874 39.072,70.874 C39.179,70.874 39.282,70.887 39.377,70.911 C39.476,70.937 39.562,70.979 39.636,71.039 C39.71,71.1 39.77,71.182 39.813,71.284 C39.855,71.384 39.876,71.51 39.876,71.659 L39.876,72.316 L40.107,72.316 L40.107,72.767 Z" id="Fill-18"></path>
            <path d="M42.005,71.542 L41.982,71.363 C41.931,71.338 41.874,71.318 41.811,71.303 C41.748,71.288 41.679,71.281 41.605,71.281 C41.517,71.281 41.436,71.294 41.36,71.321 C41.285,71.347 41.22,71.385 41.165,71.433 C41.109,71.482 41.065,71.54 41.034,71.607 C41.003,71.675 40.987,71.749 40.987,71.831 C40.987,71.913 41.003,71.988 41.034,72.056 C41.065,72.124 41.108,72.183 41.163,72.232 C41.217,72.281 41.283,72.319 41.359,72.346 C41.435,72.373 41.517,72.387 41.605,72.387 C41.731,72.387 41.84,72.367 41.932,72.328 C42.024,72.289 42.097,72.243 42.151,72.191 L42.406,72.448 C42.314,72.534 42.2,72.605 42.063,72.66 C41.927,72.716 41.774,72.744 41.605,72.744 C41.476,72.744 41.352,72.722 41.233,72.679 C41.114,72.636 41.009,72.575 40.918,72.495 C40.826,72.415 40.752,72.319 40.698,72.207 C40.644,72.095 40.616,71.97 40.616,71.831 C40.616,71.695 40.644,71.57 40.698,71.458 C40.752,71.346 40.826,71.251 40.918,71.172 C41.009,71.093 41.114,71.032 41.233,70.989 C41.352,70.946 41.476,70.925 41.605,70.925 C41.751,70.925 41.885,70.946 42.007,70.988 C42.128,71.029 42.235,71.084 42.327,71.153 L42.327,71.542 L42.005,71.542" id="Fill-19"></path>
            <path d="M41.605,70.975 C41.482,70.975 41.363,70.995 41.25,71.036 C41.137,71.077 41.037,71.135 40.95,71.209 C40.864,71.284 40.794,71.375 40.743,71.48 C40.692,71.585 40.666,71.703 40.666,71.831 C40.666,71.961 40.692,72.08 40.743,72.185 C40.794,72.291 40.864,72.382 40.95,72.458 C41.037,72.533 41.137,72.592 41.25,72.632 C41.363,72.673 41.482,72.694 41.605,72.694 C41.767,72.694 41.915,72.667 42.044,72.614 C42.156,72.569 42.252,72.512 42.333,72.446 L42.149,72.259 C42.095,72.303 42.029,72.341 41.952,72.374 C41.854,72.416 41.738,72.437 41.605,72.437 C41.511,72.437 41.423,72.422 41.342,72.393 C41.26,72.364 41.189,72.322 41.13,72.269 C41.07,72.216 41.023,72.151 40.989,72.077 C40.955,72.003 40.938,71.92 40.938,71.831 C40.938,71.742 40.955,71.66 40.989,71.586 C41.023,71.513 41.071,71.449 41.131,71.396 C41.191,71.343 41.263,71.302 41.344,71.274 C41.491,71.222 41.676,71.22 41.822,71.255 C41.889,71.27 41.95,71.291 42.004,71.318 L42.028,71.33 L42.049,71.492 L42.277,71.492 L42.277,71.178 C42.194,71.12 42.098,71.072 41.991,71.035 C41.875,70.995 41.745,70.975 41.605,70.975 Z M41.605,72.794 C41.471,72.794 41.34,72.771 41.216,72.726 C41.092,72.681 40.981,72.616 40.885,72.533 C40.788,72.449 40.71,72.346 40.653,72.229 C40.595,72.11 40.566,71.976 40.566,71.831 C40.566,71.688 40.595,71.555 40.653,71.437 C40.71,71.319 40.788,71.217 40.885,71.134 C40.981,71.051 41.092,70.986 41.216,70.942 C41.48,70.847 41.785,70.858 42.023,70.94 C42.149,70.984 42.261,71.041 42.356,71.113 L42.377,71.127 L42.377,71.592 L41.961,71.592 L41.936,71.397 C41.895,71.378 41.849,71.363 41.799,71.352 C41.672,71.322 41.506,71.322 41.377,71.368 C41.308,71.392 41.248,71.427 41.198,71.471 C41.147,71.515 41.108,71.568 41.08,71.628 C41.051,71.689 41.037,71.757 41.037,71.831 C41.037,71.905 41.052,71.974 41.08,72.036 C41.108,72.097 41.147,72.151 41.196,72.194 C41.246,72.239 41.306,72.274 41.376,72.299 C41.447,72.324 41.521,72.337 41.605,72.337 C41.724,72.337 41.828,72.318 41.913,72.282 C41.998,72.246 42.066,72.203 42.117,72.155 L42.152,72.121 L42.478,72.45 L42.44,72.485 C42.343,72.575 42.223,72.649 42.082,72.707 C41.941,72.764 41.78,72.794 41.605,72.794 Z" id="Fill-20"></path>
            <path d="M43.833,71.281 C43.693,71.281 43.574,71.314 43.476,71.379 C43.379,71.444 43.312,71.533 43.274,71.644 L44.365,71.644 C44.334,71.533 44.274,71.444 44.186,71.379 C44.097,71.314 43.979,71.281 43.833,71.281 Z M43.26,71.966 C43.273,72.03 43.298,72.088 43.335,72.14 C43.371,72.191 43.415,72.236 43.468,72.273 C43.52,72.31 43.58,72.338 43.648,72.358 C43.715,72.377 43.786,72.387 43.862,72.387 C43.989,72.387 44.098,72.367 44.19,72.328 C44.282,72.289 44.354,72.243 44.409,72.191 L44.664,72.448 C44.572,72.534 44.458,72.605 44.321,72.66 C44.185,72.716 44.032,72.744 43.862,72.744 C43.734,72.744 43.61,72.722 43.491,72.679 C43.372,72.636 43.267,72.575 43.175,72.497 C43.083,72.417 43.01,72.322 42.956,72.21 C42.901,72.098 42.874,71.973 42.874,71.834 C42.874,71.692 42.9,71.564 42.951,71.451 C43.003,71.338 43.073,71.242 43.161,71.164 C43.248,71.086 43.35,71.027 43.466,70.986 C43.582,70.945 43.705,70.925 43.833,70.925 C43.958,70.925 44.076,70.944 44.187,70.985 C44.298,71.024 44.396,71.081 44.479,71.153 C44.563,71.225 44.63,71.311 44.68,71.41 C44.729,71.509 44.754,71.619 44.754,71.738 L44.74,71.966 L43.26,71.966 Z" id="Fill-21"></path>
            <path d="M43.349,71.594 L44.295,71.594 C44.264,71.523 44.218,71.465 44.156,71.42 C44.076,71.361 43.968,71.331 43.833,71.331 C43.704,71.331 43.593,71.361 43.504,71.421 C43.437,71.466 43.385,71.524 43.349,71.594 Z M44.431,71.694 L43.205,71.694 L43.227,71.628 C43.268,71.507 43.342,71.409 43.448,71.338 C43.554,71.267 43.683,71.231 43.833,71.231 C43.989,71.231 44.118,71.268 44.215,71.339 C44.312,71.41 44.379,71.508 44.414,71.631 L44.431,71.694 Z M43.833,70.975 C43.71,70.975 43.593,70.994 43.483,71.033 C43.374,71.072 43.276,71.128 43.194,71.202 C43.111,71.275 43.045,71.366 42.997,71.472 C42.948,71.578 42.924,71.7 42.924,71.834 C42.924,71.964 42.95,72.083 43.001,72.188 C43.052,72.293 43.122,72.384 43.208,72.459 C43.294,72.533 43.395,72.592 43.508,72.632 C43.621,72.673 43.74,72.694 43.862,72.694 C44.025,72.694 44.173,72.667 44.302,72.614 C44.414,72.569 44.51,72.512 44.591,72.446 L44.407,72.259 C44.353,72.303 44.287,72.341 44.209,72.374 C44.112,72.416 43.996,72.437 43.862,72.437 C43.782,72.437 43.705,72.426 43.633,72.406 C43.561,72.384 43.495,72.354 43.439,72.313 C43.382,72.274 43.333,72.225 43.294,72.168 C43.254,72.111 43.226,72.047 43.211,71.976 L43.198,71.916 L44.693,71.916 L44.705,71.734 C44.705,71.627 44.681,71.524 44.635,71.432 C44.588,71.34 44.525,71.258 44.447,71.19 C44.368,71.123 44.274,71.069 44.17,71.032 C44.065,70.994 43.951,70.975 43.833,70.975 Z M43.862,72.794 C43.729,72.794 43.598,72.771 43.474,72.726 C43.35,72.682 43.238,72.617 43.143,72.534 C43.046,72.451 42.968,72.349 42.911,72.232 C42.853,72.113 42.824,71.979 42.824,71.834 C42.824,71.686 42.852,71.55 42.906,71.43 C42.96,71.311 43.035,71.209 43.127,71.127 C43.219,71.045 43.328,70.982 43.45,70.939 C43.687,70.855 43.968,70.853 44.204,70.937 C44.32,70.979 44.424,71.039 44.512,71.115 C44.601,71.191 44.672,71.283 44.725,71.387 C44.777,71.494 44.804,71.611 44.804,71.738 L44.787,72.016 L43.326,72.016 C43.338,72.05 43.355,72.082 43.376,72.111 C43.408,72.158 43.449,72.198 43.497,72.232 C43.544,72.266 43.6,72.292 43.662,72.31 C43.724,72.328 43.79,72.337 43.862,72.337 C43.982,72.337 44.085,72.318 44.17,72.282 C44.255,72.246 44.324,72.203 44.375,72.155 L44.41,72.121 L44.735,72.45 L44.698,72.485 C44.601,72.575 44.481,72.649 44.34,72.707 C44.199,72.764 44.038,72.794 43.862,72.794 Z" id="Fill-22"></path>
            <polyline id="Fill-23" points="55.699 60.755 55.254 60.755 55.254 59.909 58.512 59.909 58.512 60.755 58.067 60.755 58.026 60.395 57.124 60.395 57.124 62.426 57.444 62.426 57.444 62.912 56.318 62.912 56.318 62.426 56.638 62.426 56.638 60.395 55.74 60.395 55.699 60.755"></polyline>
            <path d="M56.368,62.862 L57.394,62.862 L57.394,62.477 L57.074,62.477 L57.074,60.344 L58.071,60.344 L58.112,60.705 L58.462,60.705 L58.462,59.959 L55.304,59.959 L55.304,60.705 L55.654,60.705 L55.695,60.344 L56.688,60.344 L56.688,62.477 L56.368,62.477 L56.368,62.862 Z M57.494,62.962 L56.269,62.962 L56.269,62.376 L56.588,62.376 L56.588,60.444 L55.785,60.444 L55.744,60.805 L55.204,60.805 L55.204,59.859 L58.562,59.859 L58.562,60.805 L58.022,60.805 L57.981,60.444 L57.174,60.444 L57.174,62.376 L57.494,62.376 L57.494,62.962 Z" id="Fill-24"></path>
            <path d="M59.852,61.572 L61.071,61.572 L60.723,60.395 L60.204,60.395 L59.852,61.572 Z M62.151,62.912 L61.026,62.912 L61.026,62.426 L61.322,62.426 L61.216,62.058 L59.706,62.058 L59.597,62.426 L59.893,62.426 L59.893,62.912 L58.771,62.912 L58.771,62.426 L59.091,62.426 L59.694,60.395 L59.439,60.395 L59.439,59.909 L61.087,59.909 L61.831,62.426 L62.151,62.426 L62.151,62.912 Z" id="Fill-25"></path>
            <path d="M59.919,61.522 L61.004,61.522 L60.685,60.444 L60.241,60.444 L59.919,61.522 Z M61.138,61.622 L59.785,61.622 L60.167,60.344 L60.76,60.344 L60.771,60.38 L61.138,61.622 Z M61.076,62.862 L62.102,62.862 L62.102,62.477 L61.794,62.477 L61.784,62.441 L61.049,59.959 L59.489,59.959 L59.489,60.344 L59.761,60.344 L59.128,62.477 L58.821,62.477 L58.821,62.862 L59.843,62.862 L59.843,62.477 L59.53,62.477 L59.669,62.008 L61.254,62.008 L61.388,62.477 L61.076,62.477 L61.076,62.862 Z M62.201,62.962 L60.976,62.962 L60.976,62.376 L61.255,62.376 L61.179,62.108 L59.744,62.108 L59.664,62.376 L59.942,62.376 L59.942,62.962 L58.722,62.962 L58.722,62.376 L59.054,62.376 L59.627,60.444 L59.39,60.444 L59.39,59.859 L61.124,59.859 L61.135,59.895 L61.869,62.376 L62.201,62.376 L62.201,62.962 Z" id="Fill-26"></path>
            <path d="M64.467,59.872 C64.618,59.872 64.753,59.878 64.872,59.889 C64.99,59.899 65.102,59.916 65.207,59.937 C65.313,59.959 65.415,59.987 65.515,60.022 C65.615,60.057 65.722,60.099 65.835,60.148 L65.835,60.755 L65.39,60.755 L65.369,60.512 C65.267,60.466 65.141,60.429 64.991,60.401 C64.841,60.372 64.656,60.358 64.434,60.358 C64.27,60.358 64.132,60.369 64.021,60.391 C63.911,60.412 63.822,60.439 63.756,60.471 C63.69,60.504 63.643,60.54 63.615,60.581 C63.586,60.621 63.572,60.66 63.572,60.698 C63.572,60.739 63.581,60.776 63.599,60.81 C63.616,60.843 63.655,60.874 63.716,60.902 C63.776,60.931 63.864,60.956 63.979,60.978 C64.094,60.999 64.248,61.017 64.442,61.03 C64.718,61.049 64.95,61.079 65.141,61.121 C65.331,61.163 65.485,61.221 65.604,61.295 C65.723,61.369 65.809,61.461 65.863,61.571 C65.917,61.68 65.944,61.81 65.944,61.961 C65.944,62.093 65.909,62.219 65.839,62.338 C65.769,62.456 65.668,62.56 65.535,62.649 C65.403,62.738 65.241,62.809 65.05,62.862 C64.858,62.914 64.639,62.941 64.394,62.941 C64.224,62.941 64.063,62.923 63.91,62.888 C63.758,62.853 63.617,62.809 63.487,62.754 C63.357,62.7 63.242,62.641 63.141,62.574 C63.04,62.508 62.957,62.443 62.892,62.378 L63.212,62.022 C63.288,62.081 63.367,62.137 63.451,62.19 C63.534,62.242 63.624,62.288 63.722,62.327 C63.819,62.367 63.924,62.398 64.036,62.421 C64.147,62.443 64.267,62.455 64.394,62.455 C64.582,62.455 64.744,62.44 64.877,62.41 C65.011,62.381 65.12,62.342 65.204,62.295 C65.287,62.248 65.349,62.194 65.388,62.135 C65.427,62.076 65.446,62.018 65.446,61.961 C65.446,61.905 65.432,61.853 65.402,61.805 C65.372,61.758 65.319,61.716 65.244,61.68 C65.169,61.643 65.066,61.613 64.936,61.589 C64.807,61.564 64.642,61.544 64.442,61.528 C64.167,61.506 63.939,61.475 63.758,61.435 C63.578,61.394 63.433,61.34 63.325,61.273 C63.217,61.205 63.142,61.125 63.099,61.032 C63.055,60.939 63.034,60.829 63.034,60.702 C63.034,60.578 63.066,60.465 63.131,60.362 C63.196,60.26 63.289,60.172 63.41,60.099 C63.532,60.026 63.682,59.97 63.859,59.931 C64.038,59.892 64.24,59.872 64.467,59.872" id="Fill-27"></path>
            <path d="M62.962,62.375 C63.018,62.427 63.087,62.48 63.169,62.533 C63.266,62.596 63.38,62.656 63.506,62.708 C63.632,62.761 63.771,62.805 63.921,62.839 C64.07,62.873 64.229,62.891 64.394,62.891 C64.633,62.891 64.85,62.865 65.037,62.813 C65.223,62.762 65.381,62.693 65.507,62.608 C65.632,62.524 65.729,62.424 65.796,62.312 C65.861,62.202 65.895,62.083 65.895,61.961 C65.895,61.819 65.869,61.695 65.818,61.592 C65.769,61.492 65.687,61.406 65.578,61.338 C65.464,61.267 65.314,61.21 65.13,61.17 C64.943,61.129 64.71,61.099 64.439,61.08 C64.245,61.066 64.086,61.048 63.97,61.027 C63.849,61.004 63.759,60.978 63.695,60.948 C63.623,60.914 63.576,60.876 63.554,60.832 C63.533,60.792 63.522,60.746 63.522,60.698 C63.522,60.65 63.54,60.601 63.574,60.552 C63.607,60.504 63.66,60.463 63.734,60.427 C63.805,60.392 63.898,60.364 64.012,60.341 C64.124,60.319 64.267,60.308 64.434,60.308 C64.658,60.308 64.848,60.323 65,60.352 C65.153,60.38 65.284,60.419 65.39,60.466 L65.416,60.478 L65.436,60.705 L65.785,60.705 L65.785,60.181 C65.687,60.139 65.59,60.102 65.499,60.069 C65.401,60.035 65.3,60.007 65.197,59.986 C65.095,59.965 64.984,59.949 64.867,59.938 C64.749,59.928 64.614,59.922 64.467,59.922 C64.246,59.922 64.045,59.942 63.87,59.98 C63.698,60.018 63.552,60.072 63.436,60.142 C63.322,60.21 63.234,60.293 63.173,60.389 C63.114,60.483 63.084,60.588 63.084,60.702 C63.084,60.821 63.104,60.925 63.144,61.011 C63.183,61.095 63.252,61.169 63.352,61.23 C63.454,61.294 63.595,61.347 63.769,61.386 C63.946,61.426 64.174,61.457 64.446,61.478 C64.646,61.494 64.814,61.515 64.945,61.539 C65.081,61.565 65.186,61.596 65.266,61.635 C65.351,61.676 65.409,61.723 65.444,61.778 C65.479,61.833 65.496,61.895 65.496,61.961 C65.496,62.027 65.474,62.095 65.43,62.163 C65.386,62.228 65.319,62.287 65.229,62.339 C65.14,62.388 65.025,62.429 64.888,62.459 C64.753,62.489 64.586,62.505 64.394,62.505 C64.263,62.505 64.139,62.493 64.025,62.47 C63.91,62.446 63.802,62.413 63.703,62.374 C63.604,62.334 63.51,62.286 63.424,62.232 C63.353,62.187 63.284,62.139 63.218,62.09 L62.962,62.375 Z M64.394,62.991 C64.221,62.991 64.055,62.973 63.899,62.937 C63.743,62.901 63.598,62.855 63.468,62.801 C63.336,62.745 63.217,62.684 63.114,62.616 C63.01,62.548 62.923,62.48 62.857,62.413 L62.823,62.38 L63.206,61.953 L63.243,61.982 C63.316,62.04 63.395,62.096 63.477,62.147 C63.558,62.198 63.646,62.243 63.74,62.281 C63.834,62.318 63.936,62.349 64.046,62.372 C64.153,62.394 64.27,62.405 64.394,62.405 C64.579,62.405 64.738,62.39 64.867,62.361 C64.994,62.333 65.099,62.296 65.179,62.251 C65.255,62.208 65.312,62.16 65.346,62.108 C65.379,62.057 65.396,62.008 65.396,61.961 C65.396,61.914 65.384,61.871 65.359,61.832 C65.335,61.793 65.289,61.757 65.222,61.725 C65.151,61.69 65.052,61.661 64.927,61.638 C64.799,61.614 64.635,61.594 64.439,61.578 C64.162,61.556 63.929,61.524 63.748,61.484 C63.562,61.442 63.411,61.385 63.299,61.315 C63.183,61.243 63.1,61.155 63.053,61.053 C63.007,60.954 62.984,60.836 62.984,60.702 C62.984,60.569 63.019,60.446 63.088,60.335 C63.158,60.226 63.257,60.132 63.384,60.056 C63.51,59.981 63.666,59.922 63.849,59.882 C64.03,59.843 64.238,59.822 64.467,59.822 C64.617,59.822 64.755,59.828 64.876,59.839 C64.997,59.85 65.111,59.866 65.218,59.888 C65.324,59.91 65.43,59.939 65.532,59.975 C65.635,60.011 65.744,60.054 65.854,60.102 L65.885,60.115 L65.885,60.805 L65.344,60.805 L65.322,60.546 C65.228,60.507 65.114,60.475 64.981,60.45 C64.836,60.422 64.651,60.408 64.434,60.408 C64.273,60.408 64.137,60.419 64.031,60.44 C63.925,60.46 63.84,60.486 63.778,60.516 C63.72,60.545 63.679,60.576 63.656,60.609 C63.633,60.641 63.622,60.671 63.622,60.698 C63.622,60.73 63.629,60.76 63.643,60.786 C63.65,60.8 63.671,60.826 63.737,60.857 C63.793,60.883 63.877,60.907 63.988,60.928 C64.101,60.949 64.255,60.967 64.446,60.98 C64.723,60.999 64.96,61.03 65.151,61.072 C65.347,61.115 65.508,61.176 65.63,61.253 C65.756,61.331 65.85,61.431 65.908,61.548 C65.965,61.665 65.994,61.803 65.994,61.961 C65.994,62.102 65.956,62.237 65.882,62.363 C65.808,62.488 65.701,62.598 65.563,62.691 C65.428,62.782 65.26,62.856 65.063,62.91 C64.867,62.964 64.642,62.991 64.394,62.991 Z" id="Fill-28"></path>
            <polyline id="Fill-29" points="67.086 60.755 66.641 60.755 66.641 59.909 69.899 59.909 69.899 60.755 69.454 60.755 69.413 60.395 68.511 60.395 68.511 62.426 68.831 62.426 68.831 62.912 67.705 62.912 67.705 62.426 68.025 62.426 68.025 60.395 67.127 60.395 67.086 60.755"></polyline>
            <path d="M67.755,62.862 L68.781,62.862 L68.781,62.477 L68.461,62.477 L68.461,60.344 L69.458,60.344 L69.498,60.705 L69.849,60.705 L69.849,59.959 L66.69,59.959 L66.69,60.705 L67.041,60.705 L67.081,60.344 L68.075,60.344 L68.075,62.477 L67.755,62.477 L67.755,62.862 Z M68.88,62.962 L67.655,62.962 L67.655,62.376 L67.975,62.376 L67.975,60.444 L67.171,60.444 L67.131,60.805 L66.591,60.805 L66.591,59.859 L69.949,59.859 L69.949,60.805 L69.409,60.805 L69.368,60.444 L68.561,60.444 L68.561,62.376 L68.88,62.376 L68.88,62.962 Z" id="Fill-30"></path>
            <polyline id="Fill-31" points="71.826 60.395 71.599 60.395 72.142 61.37 72.907 61.37 73.449 60.395 73.222 60.395 73.222 59.909 74.344 59.909 74.344 60.395 73.991 60.395 73.206 61.856 72.765 61.856 72.765 62.426 73.089 62.426 73.089 62.912 71.963 62.912 71.963 62.426 72.279 62.426 72.279 61.856 71.842 61.856 71.053 60.395 70.705 60.395 70.705 59.909 71.826 59.909 71.826 60.395"></polyline>
            <path d="M72.013,62.862 L73.039,62.862 L73.039,62.477 L72.715,62.477 L72.715,61.806 L73.176,61.806 L73.961,60.344 L74.294,60.344 L74.294,59.959 L73.272,59.959 L73.272,60.344 L73.534,60.344 L72.936,61.42 L72.112,61.42 L71.514,60.344 L71.776,60.344 L71.776,59.959 L70.754,59.959 L70.754,60.344 L71.083,60.344 L71.872,61.806 L72.329,61.806 L72.329,62.477 L72.013,62.477 L72.013,62.862 Z M73.139,62.962 L71.914,62.962 L71.914,62.376 L72.23,62.376 L72.23,61.906 L71.812,61.906 L71.023,60.444 L70.655,60.444 L70.655,59.859 L71.876,59.859 L71.876,60.444 L71.684,60.444 L72.171,61.32 L72.877,61.32 L73.364,60.444 L73.172,60.444 L73.172,59.859 L74.394,59.859 L74.394,60.444 L74.021,60.444 L73.236,61.906 L72.814,61.906 L72.814,62.376 L73.139,62.376 L73.139,62.962 Z" id="Fill-32"></path>
            <path d="M4.9,60.366 C4.733,60.366 4.578,60.392 4.437,60.443 C4.295,60.494 4.172,60.566 4.068,60.658 C3.964,60.75 3.883,60.86 3.823,60.989 C3.764,61.119 3.734,61.261 3.734,61.414 C3.734,61.568 3.764,61.71 3.823,61.84 C3.883,61.969 3.964,62.08 4.068,62.172 C4.172,62.263 4.295,62.335 4.437,62.386 C4.578,62.437 4.733,62.463 4.9,62.463 C5.122,62.463 5.315,62.424 5.481,62.348 C5.647,62.271 5.78,62.164 5.88,62.026 L6.24,62.354 C6.086,62.543 5.893,62.689 5.659,62.793 C5.426,62.897 5.173,62.949 4.9,62.949 C4.684,62.949 4.476,62.913 4.275,62.842 C4.074,62.77 3.896,62.667 3.743,62.534 C3.589,62.4 3.466,62.239 3.374,62.05 C3.282,61.861 3.236,61.649 3.236,61.414 C3.236,61.175 3.282,60.959 3.374,60.769 C3.466,60.579 3.589,60.418 3.743,60.287 C3.896,60.156 4.074,60.056 4.275,59.986 C4.476,59.916 4.684,59.88 4.9,59.88 C5.078,59.88 5.233,59.892 5.366,59.915 C5.498,59.938 5.613,59.967 5.712,60.002 C5.81,60.037 5.894,60.075 5.963,60.117 C6.032,60.159 6.093,60.197 6.147,60.233 L6.147,60.755 L5.702,60.755 L5.681,60.544 C5.633,60.515 5.584,60.488 5.536,60.465 C5.487,60.443 5.433,60.424 5.372,60.409 C5.311,60.394 5.243,60.383 5.168,60.376 C5.092,60.37 5.002,60.366 4.9,60.366" id="Fill-33"></path>
            <path d="M4.9,59.93 C4.691,59.93 4.486,59.965 4.292,60.033 C4.097,60.101 3.924,60.199 3.775,60.325 C3.627,60.451 3.507,60.608 3.419,60.791 C3.331,60.973 3.286,61.183 3.286,61.414 C3.286,61.641 3.331,61.847 3.419,62.028 C3.507,62.21 3.627,62.367 3.775,62.496 C3.924,62.625 4.098,62.725 4.292,62.794 C4.486,62.864 4.69,62.899 4.9,62.899 C5.165,62.899 5.413,62.848 5.639,62.747 C5.848,62.654 6.027,62.523 6.171,62.358 L5.886,62.099 C5.786,62.223 5.657,62.321 5.502,62.393 C5.33,62.473 5.127,62.513 4.9,62.513 C4.728,62.513 4.566,62.486 4.419,62.433 C4.273,62.38 4.144,62.305 4.035,62.209 C3.927,62.113 3.84,61.996 3.778,61.86 C3.716,61.725 3.685,61.575 3.685,61.414 C3.685,61.255 3.716,61.105 3.778,60.969 C3.84,60.833 3.927,60.716 4.035,60.62 C4.144,60.525 4.273,60.449 4.419,60.396 C4.566,60.343 4.728,60.316 4.9,60.316 C5.004,60.316 5.095,60.32 5.172,60.327 C5.248,60.333 5.319,60.344 5.383,60.36 C5.447,60.375 5.505,60.396 5.557,60.42 C5.606,60.443 5.657,60.471 5.708,60.502 L5.729,60.515 L5.747,60.705 L6.097,60.705 L6.097,60.26 C6.049,60.229 5.996,60.196 5.937,60.16 C5.872,60.12 5.791,60.083 5.695,60.049 C5.6,60.015 5.486,59.986 5.357,59.964 C5.227,59.942 5.073,59.93 4.9,59.93 Z M4.9,62.999 C4.679,62.999 4.463,62.962 4.258,62.889 C4.052,62.815 3.868,62.709 3.71,62.572 C3.551,62.434 3.423,62.266 3.329,62.072 C3.234,61.877 3.187,61.656 3.187,61.414 C3.187,61.168 3.234,60.943 3.329,60.747 C3.423,60.552 3.552,60.384 3.71,60.249 C3.868,60.115 4.053,60.01 4.258,59.939 C4.463,59.867 4.68,59.83 4.9,59.83 C5.079,59.83 5.238,59.842 5.374,59.865 C5.508,59.889 5.627,59.919 5.729,59.955 C5.831,59.991 5.919,60.032 5.989,60.074 C6.058,60.117 6.12,60.155 6.174,60.191 L6.197,60.206 L6.197,60.805 L5.656,60.805 L5.634,60.574 C5.594,60.551 5.554,60.529 5.514,60.51 C5.469,60.489 5.417,60.471 5.36,60.457 C5.301,60.443 5.234,60.433 5.163,60.426 C5.089,60.42 5.001,60.416 4.9,60.416 C4.739,60.416 4.589,60.441 4.454,60.49 C4.319,60.539 4.2,60.608 4.102,60.695 C4.003,60.782 3.925,60.888 3.869,61.01 C3.813,61.133 3.784,61.269 3.784,61.414 C3.784,61.56 3.813,61.696 3.869,61.819 C3.925,61.941 4.003,62.048 4.102,62.134 C4.2,62.221 4.319,62.29 4.454,62.339 C4.589,62.388 4.739,62.413 4.9,62.413 C5.113,62.413 5.301,62.376 5.46,62.302 C5.617,62.229 5.745,62.126 5.839,61.997 L5.872,61.951 L6.309,62.349 L6.279,62.385 C6.12,62.58 5.919,62.732 5.68,62.839 C5.441,62.945 5.179,62.999 4.9,62.999 Z" id="Fill-34"></path>
            <polyline id="Fill-35" points="8.167 60.395 7.847 60.395 7.847 61.087 9.487 61.087 9.487 60.395 9.167 60.395 9.167 59.909 10.292 59.909 10.292 60.395 9.972 60.395 9.972 62.426 10.292 62.426 10.292 62.912 9.167 62.912 9.167 62.426 9.487 62.426 9.487 61.572 7.847 61.572 7.847 62.426 8.171 62.426 8.171 62.912 7.046 62.912 7.046 62.426 7.361 62.426 7.361 60.395 7.046 60.395 7.046 59.909 8.167 59.909 8.167 60.395"></polyline>
            <path d="M9.217,62.862 L10.242,62.862 L10.242,62.477 L9.922,62.477 L9.922,60.344 L10.242,60.344 L10.242,59.959 L9.217,59.959 L9.217,60.344 L9.537,60.344 L9.537,61.137 L7.797,61.137 L7.797,60.344 L8.117,60.344 L8.117,59.959 L7.096,59.959 L7.096,60.344 L7.411,60.344 L7.411,62.477 L7.096,62.477 L7.096,62.862 L8.121,62.862 L8.121,62.477 L7.797,62.477 L7.797,61.522 L9.537,61.522 L9.537,62.477 L9.217,62.477 L9.217,62.862 Z M10.342,62.962 L9.117,62.962 L9.117,62.376 L9.437,62.376 L9.437,61.622 L7.897,61.622 L7.897,62.376 L8.221,62.376 L8.221,62.962 L6.996,62.962 L6.996,62.376 L7.312,62.376 L7.312,60.444 L6.996,60.444 L6.996,59.859 L8.217,59.859 L8.217,60.444 L7.897,60.444 L7.897,61.037 L9.437,61.037 L9.437,60.444 L9.117,60.444 L9.117,59.859 L10.342,59.859 L10.342,60.444 L10.022,60.444 L10.022,62.376 L10.342,62.376 L10.342,62.962 Z" id="Fill-36"></path>
            <polyline id="Fill-37" points="13.951 60.755 13.506 60.755 13.465 60.395 11.94 60.395 11.94 61.087 13.215 61.087 13.215 61.572 11.94 61.572 11.94 62.426 13.506 62.426 13.546 62.066 13.992 62.066 13.992 62.912 11.138 62.912 11.138 62.426 11.454 62.426 11.454 60.395 11.138 60.395 11.138 59.909 13.951 59.909 13.951 60.755"></polyline>
            <path d="M11.188,62.862 L13.942,62.862 L13.942,62.116 L13.591,62.116 L13.551,62.477 L11.89,62.477 L11.89,61.522 L13.165,61.522 L13.165,61.137 L11.89,61.137 L11.89,60.344 L13.51,60.344 L13.551,60.705 L13.901,60.705 L13.901,59.959 L11.188,59.959 L11.188,60.344 L11.503,60.344 L11.503,62.477 L11.188,62.477 L11.188,62.862 Z M14.042,62.962 L11.088,62.962 L11.088,62.376 L11.404,62.376 L11.404,60.444 L11.088,60.444 L11.088,59.859 L14.001,59.859 L14.001,60.805 L13.461,60.805 L13.42,60.444 L11.989,60.444 L11.989,61.037 L13.265,61.037 L13.265,61.622 L11.989,61.622 L11.989,62.376 L13.461,62.376 L13.501,62.016 L14.042,62.016 L14.042,62.962 Z" id="Fill-38"></path>
            <path d="M15.886,61.572 L17.104,61.572 L16.756,60.395 L16.238,60.395 L15.886,61.572 Z M18.185,62.912 L17.06,62.912 L17.06,62.426 L17.356,62.426 L17.25,62.058 L15.74,62.058 L15.631,62.426 L15.926,62.426 L15.926,62.912 L14.805,62.912 L14.805,62.426 L15.125,62.426 L15.728,60.395 L15.473,60.395 L15.473,59.909 L17.121,59.909 L17.865,62.426 L18.185,62.426 L18.185,62.912 Z" id="Fill-39"></path>
            <path d="M15.953,61.522 L17.038,61.522 L16.719,60.444 L16.275,60.444 L15.953,61.522 Z M17.171,61.622 L15.819,61.622 L16.201,60.344 L16.794,60.344 L16.804,60.38 L17.171,61.622 Z M17.109,62.862 L18.135,62.862 L18.135,62.477 L17.828,62.477 L17.817,62.441 L17.083,59.959 L15.523,59.959 L15.523,60.344 L15.795,60.344 L15.162,62.477 L14.855,62.477 L14.855,62.862 L15.876,62.862 L15.876,62.477 L15.564,62.477 L15.703,62.008 L17.288,62.008 L17.422,62.477 L17.109,62.477 L17.109,62.862 Z M18.235,62.962 L17.01,62.962 L17.01,62.376 L17.289,62.376 L17.212,62.108 L15.777,62.108 L15.698,62.376 L15.976,62.376 L15.976,62.962 L14.755,62.962 L14.755,62.376 L15.088,62.376 L15.661,60.444 L15.423,60.444 L15.423,59.859 L17.158,59.859 L17.169,59.895 L17.903,62.376 L18.235,62.376 L18.235,62.962 Z" id="Fill-40"></path>
            <path d="M21.468,60.981 C21.468,60.901 21.452,60.824 21.421,60.753 C21.39,60.681 21.349,60.619 21.296,60.567 C21.243,60.514 21.181,60.472 21.107,60.441 C21.035,60.41 20.958,60.395 20.877,60.395 L19.792,60.395 L19.792,61.572 L20.901,61.572 C20.979,61.572 21.053,61.557 21.122,61.526 C21.19,61.495 21.251,61.452 21.302,61.398 C21.353,61.344 21.394,61.282 21.423,61.21 C21.453,61.139 21.468,61.062 21.468,60.981 Z M20.112,62.912 L18.991,62.912 L18.991,62.426 L19.306,62.426 L19.306,60.395 L18.991,60.395 L18.991,59.909 L20.905,59.909 C21.043,59.909 21.174,59.936 21.3,59.992 C21.425,60.047 21.538,60.125 21.638,60.225 C21.74,60.327 21.819,60.443 21.873,60.571 C21.927,60.699 21.954,60.836 21.954,60.981 C21.954,61.127 21.927,61.265 21.873,61.394 C21.819,61.524 21.74,61.64 21.638,61.742 C21.541,61.84 21.429,61.916 21.304,61.973 C21.178,62.03 21.047,62.058 20.909,62.058 L19.792,62.058 L19.792,62.426 L20.112,62.426 L20.112,62.912 Z" id="Fill-41"></path>
            <path d="M19.842,61.522 L20.901,61.522 C20.972,61.522 21.039,61.508 21.101,61.48 C21.164,61.452 21.219,61.413 21.266,61.364 C21.312,61.315 21.35,61.256 21.377,61.191 C21.404,61.126 21.418,61.056 21.418,60.981 C21.418,60.908 21.403,60.838 21.376,60.772 C21.347,60.707 21.308,60.649 21.261,60.602 C21.212,60.553 21.155,60.516 21.088,60.487 C21.021,60.459 20.951,60.444 20.877,60.444 L19.842,60.444 L19.842,61.522 Z M20.901,61.622 L19.742,61.622 L19.742,60.344 L20.877,60.344 C20.964,60.344 21.048,60.362 21.127,60.395 C21.206,60.428 21.274,60.474 21.331,60.531 C21.387,60.587 21.433,60.655 21.467,60.733 C21.501,60.811 21.518,60.894 21.518,60.981 C21.518,61.069 21.501,61.152 21.47,61.229 C21.437,61.306 21.393,61.375 21.338,61.433 C21.283,61.491 21.217,61.538 21.142,61.572 C21.067,61.605 20.986,61.622 20.901,61.622 Z M19.041,62.862 L20.062,62.862 L20.062,62.477 L19.742,62.477 L19.742,62.008 L20.909,62.008 C21.039,62.008 21.165,61.981 21.283,61.927 C21.402,61.874 21.51,61.8 21.603,61.707 C21.7,61.609 21.776,61.497 21.826,61.375 C21.877,61.253 21.904,61.12 21.904,60.981 C21.904,60.843 21.877,60.711 21.827,60.59 C21.776,60.469 21.7,60.358 21.603,60.26 C21.508,60.165 21.399,60.09 21.28,60.037 C21.161,59.985 21.035,59.959 20.905,59.959 L19.041,59.959 L19.041,60.344 L19.356,60.344 L19.356,62.477 L19.041,62.477 L19.041,62.862 Z M20.162,62.962 L18.941,62.962 L18.941,62.376 L19.256,62.376 L19.256,60.444 L18.941,60.444 L18.941,59.859 L20.905,59.859 C21.049,59.859 21.189,59.888 21.32,59.946 C21.451,60.004 21.57,60.086 21.673,60.189 C21.78,60.296 21.863,60.418 21.919,60.551 C21.975,60.685 22.003,60.829 22.003,60.981 C22.003,61.134 21.975,61.279 21.919,61.414 C21.863,61.548 21.78,61.67 21.673,61.778 C21.572,61.879 21.455,61.96 21.324,62.019 C21.193,62.078 21.053,62.108 20.909,62.108 L19.842,62.108 L19.842,62.376 L20.162,62.376 L20.162,62.962 Z" id="Fill-42"></path>
            <path d="M4.537,42.188 L4.964,45.382 L6.976,45.113 L6.553,41.948 C6.534,41.809 6.489,41.682 6.419,41.569 C6.35,41.455 6.263,41.358 6.162,41.277 C6.061,41.197 5.945,41.139 5.813,41.101 C5.682,41.064 5.547,41.054 5.407,41.073 C5.273,41.091 5.15,41.133 5.036,41.2 C4.922,41.267 4.827,41.353 4.75,41.457 C4.674,41.561 4.616,41.675 4.578,41.8 C4.539,41.924 4.526,42.054 4.537,42.188 Z M2.51,41.974 C2.288,42.004 2.107,42.109 1.97,42.289 C1.833,42.469 1.778,42.67 1.808,42.892 L2.19,45.752 L3.82,45.534 L3.439,42.675 C3.423,42.56 3.387,42.457 3.329,42.364 C3.271,42.272 3.201,42.194 3.118,42.131 C3.035,42.068 2.942,42.022 2.837,41.993 C2.733,41.965 2.625,41.959 2.51,41.974 Z M7.696,41.795 L8.372,46.848 L7.227,47 L7.128,46.257 L2.343,46.896 L2.442,47.64 L1.298,47.792 L0.664,43.045 C0.628,42.779 0.646,42.519 0.716,42.267 C0.785,42.015 0.897,41.789 1.052,41.587 C1.206,41.385 1.396,41.218 1.62,41.084 C1.845,40.95 2.09,40.865 2.357,40.83 C2.586,40.799 2.809,40.809 3.025,40.857 C3.242,40.906 3.441,40.983 3.624,41.088 C3.769,40.771 3.993,40.51 4.296,40.305 C4.598,40.099 4.917,39.974 5.254,39.929 C5.553,39.889 5.84,39.909 6.116,39.989 C6.393,40.068 6.642,40.193 6.865,40.364 C7.088,40.535 7.272,40.743 7.419,40.988 C7.565,41.235 7.657,41.503 7.696,41.795 Z" id="Fill-43"></path>
            <polyline id="Fill-44" points="7.886 34.835 7.632 37.506 6.483 37.397 6.555 36.641 1.749 36.185 1.677 36.941 0.528 36.832 0.781 34.17 1.93 34.279 1.858 35.035 6.664 35.492 6.737 34.726 7.886 34.835"></polyline>
            <polyline id="Fill-45" points="3.553 29.966 3.209 30.967 1.308 30.312 3.83 22.992 5.73 23.647 5.386 24.647 4.545 24.459 3.847 26.487 8.411 28.059 8.659 27.341 9.75 27.717 8.879 30.245 7.788 29.869 8.036 29.151 3.471 27.578 2.775 29.597 3.553 29.966"></polyline>
            <path d="M9.093,16.709 C8.856,17.029 8.687,17.36 8.585,17.703 C8.482,18.046 8.445,18.382 8.474,18.709 C8.503,19.038 8.599,19.351 8.762,19.646 C8.925,19.943 9.154,20.199 9.448,20.417 C9.741,20.634 10.054,20.778 10.386,20.848 C10.717,20.917 11.044,20.918 11.365,20.849 C11.687,20.78 11.998,20.647 12.296,20.448 C12.594,20.25 12.861,19.991 13.098,19.672 C13.41,19.249 13.61,18.825 13.698,18.399 C13.786,17.974 13.769,17.568 13.647,17.183 L14.782,16.958 C14.926,17.519 14.932,18.096 14.8,18.689 C14.669,19.281 14.41,19.838 14.025,20.358 C13.72,20.771 13.357,21.118 12.937,21.401 C12.516,21.684 12.069,21.878 11.597,21.983 C11.125,22.088 10.643,22.095 10.152,22.003 C9.662,21.912 9.192,21.7 8.745,21.368 C8.286,21.029 7.94,20.637 7.706,20.193 C7.472,19.749 7.339,19.287 7.306,18.809 C7.273,18.33 7.332,17.849 7.482,17.366 C7.632,16.883 7.859,16.435 8.165,16.023 C8.417,15.683 8.658,15.402 8.888,15.182 C9.119,14.963 9.337,14.783 9.544,14.645 C9.75,14.506 9.941,14.4 10.119,14.328 C10.296,14.256 10.456,14.193 10.599,14.139 L11.597,14.877 L10.967,15.727 L10.537,15.469 C10.411,15.519 10.293,15.575 10.18,15.635 C10.067,15.696 9.954,15.773 9.84,15.869 C9.727,15.964 9.609,16.078 9.489,16.213 C9.37,16.348 9.237,16.513 9.093,16.709" id="Fill-46"></path>
            <path d="M16.69,9.217 C16.37,9.453 16.11,9.72 15.912,10.018 C15.713,10.316 15.579,10.626 15.51,10.947 C15.44,11.269 15.44,11.596 15.51,11.927 C15.579,12.259 15.722,12.571 15.938,12.866 C16.155,13.16 16.412,13.389 16.709,13.553 C17.004,13.717 17.316,13.813 17.644,13.842 C17.973,13.871 18.308,13.835 18.651,13.733 C18.994,13.631 19.326,13.463 19.646,13.227 C19.987,12.976 20.257,12.7 20.459,12.4 C20.66,12.101 20.792,11.792 20.856,11.474 C20.921,11.156 20.915,10.834 20.838,10.508 C20.761,10.182 20.614,9.872 20.397,9.578 C20.181,9.284 19.928,9.052 19.639,8.882 C19.351,8.713 19.045,8.612 18.722,8.579 C18.399,8.546 18.065,8.582 17.719,8.685 C17.373,8.788 17.03,8.966 16.69,9.217 Z M14.987,13.568 C14.647,13.108 14.432,12.632 14.339,12.139 C14.246,11.646 14.255,11.165 14.365,10.698 C14.475,10.231 14.672,9.789 14.958,9.371 C15.243,8.954 15.592,8.592 16.005,8.288 C16.439,7.969 16.897,7.735 17.38,7.585 C17.863,7.436 18.342,7.38 18.815,7.417 C19.289,7.454 19.745,7.592 20.184,7.83 C20.622,8.068 21.011,8.417 21.349,8.876 C21.677,9.32 21.888,9.786 21.983,10.272 C22.08,10.759 22.078,11.236 21.978,11.705 C21.877,12.174 21.685,12.619 21.404,13.042 C21.122,13.465 20.764,13.836 20.331,14.156 C19.918,14.46 19.469,14.685 18.984,14.832 C18.498,14.979 18.015,15.033 17.532,14.995 C17.05,14.956 16.587,14.82 16.146,14.589 C15.704,14.357 15.317,14.016 14.987,13.568 Z" id="Fill-47"></path>
            <polyline id="Fill-48" points="28.035 9.891 25.557 10.919 25.115 9.853 25.817 9.562 23.968 5.102 23.267 5.393 22.825 4.327 25.294 3.303 25.736 4.37 25.034 4.66 26.883 9.12 27.594 8.825 28.035 9.891"></polyline>
            <polyline id="Fill-49" points="32.682 8.604 30.05 9.017 29.871 7.878 30.612 7.761 29.861 2.992 29.121 3.108 28.941 1.968 31.801 1.519 35.314 7.021 35.59 6.978 34.84 2.209 34.09 2.327 33.91 1.187 36.551 0.772 36.73 1.912 35.98 2.03 36.73 6.798 37.48 6.681 37.66 7.821 34.8 8.271 31.287 2.768 31.002 2.812 31.752 7.582 32.502 7.463 32.682 8.604"></polyline>
            <path d="M51.865,5.281 C51.935,5.067 51.918,4.86 51.815,4.657 C51.712,4.455 51.554,4.32 51.341,4.25 L48.599,3.356 L48.089,4.92 L50.832,5.814 C50.941,5.849 51.051,5.861 51.159,5.85 C51.267,5.837 51.368,5.808 51.461,5.761 C51.554,5.714 51.636,5.649 51.706,5.567 C51.776,5.486 51.829,5.39 51.865,5.281 Z M50.794,7.015 L47.731,6.017 L47.102,7.946 L50.138,8.935 C50.271,8.979 50.405,8.994 50.538,8.98 C50.671,8.966 50.795,8.931 50.911,8.874 C51.027,8.818 51.131,8.738 51.221,8.636 C51.312,8.534 51.379,8.416 51.423,8.282 C51.465,8.154 51.479,8.024 51.469,7.893 C51.458,7.761 51.422,7.638 51.361,7.524 C51.301,7.41 51.223,7.308 51.127,7.22 C51.031,7.131 50.92,7.063 50.794,7.015 Z M49.78,10.032 L44.935,8.453 L45.292,7.356 L46.005,7.588 L47.501,2.999 L46.788,2.766 L47.146,1.669 L51.699,3.153 C51.955,3.236 52.181,3.364 52.378,3.536 C52.575,3.708 52.731,3.907 52.846,4.133 C52.96,4.36 53.03,4.604 53.053,4.863 C53.076,5.124 53.046,5.382 52.962,5.638 C52.891,5.858 52.786,6.055 52.648,6.229 C52.511,6.403 52.355,6.55 52.182,6.668 C52.404,6.937 52.543,7.251 52.597,7.613 C52.651,7.975 52.626,8.317 52.52,8.64 C52.427,8.926 52.284,9.176 52.093,9.391 C51.902,9.605 51.681,9.776 51.431,9.903 C51.18,10.031 50.912,10.107 50.628,10.132 C50.343,10.157 50.061,10.124 49.78,10.032 Z" id="Fill-50"></path>
            <polyline id="Fill-51" points="55.97 13.229 53.676 11.838 54.274 10.852 54.923 11.245 57.428 7.118 56.778 6.724 57.376 5.737 59.663 7.124 59.064 8.111 58.414 7.716 55.91 11.844 56.568 12.243 55.97 13.229"></polyline>
            <path d="M65.352,11.598 C65.61,11.847 65.831,12.079 66.017,12.293 C66.202,12.507 66.367,12.72 66.512,12.93 C66.656,13.141 66.784,13.358 66.897,13.583 C67.01,13.807 67.123,14.055 67.237,14.325 L66.236,15.363 L65.475,14.629 L65.84,14.18 C65.741,13.933 65.586,13.661 65.377,13.365 C65.168,13.071 64.873,12.74 64.495,12.375 C64.213,12.104 63.96,11.895 63.735,11.75 C63.51,11.604 63.314,11.504 63.148,11.451 C62.981,11.397 62.841,11.381 62.727,11.404 C62.61,11.426 62.522,11.47 62.46,11.534 C62.393,11.604 62.347,11.682 62.321,11.769 C62.295,11.855 62.312,11.973 62.368,12.121 C62.425,12.27 62.534,12.457 62.694,12.683 C62.855,12.909 63.091,13.194 63.4,13.538 C63.84,14.024 64.188,14.46 64.444,14.845 C64.701,15.23 64.869,15.584 64.95,15.907 C65.031,16.23 65.027,16.529 64.939,16.805 C64.852,17.081 64.683,17.348 64.434,17.607 C64.215,17.833 63.949,17.989 63.633,18.077 C63.317,18.164 62.973,18.175 62.6,18.109 C62.227,18.044 61.833,17.897 61.418,17.671 C61.004,17.445 60.587,17.13 60.166,16.725 C59.876,16.445 59.629,16.149 59.426,15.837 C59.223,15.526 59.056,15.217 58.923,14.911 C58.791,14.605 58.692,14.312 58.628,14.032 C58.564,13.753 58.53,13.504 58.526,13.286 L59.661,13.204 C59.691,13.43 59.736,13.657 59.792,13.885 C59.849,14.113 59.927,14.341 60.029,14.568 C60.13,14.795 60.258,15.021 60.412,15.244 C60.565,15.468 60.751,15.685 60.968,15.894 C61.291,16.206 61.591,16.446 61.868,16.616 C62.146,16.785 62.395,16.899 62.616,16.956 C62.837,17.013 63.03,17.023 63.194,16.986 C63.359,16.949 63.488,16.882 63.582,16.785 C63.676,16.688 63.735,16.575 63.763,16.446 C63.79,16.316 63.769,16.157 63.7,15.971 C63.63,15.783 63.506,15.562 63.324,15.308 C63.143,15.052 62.895,14.746 62.58,14.389 C62.145,13.898 61.806,13.469 61.563,13.102 C61.321,12.735 61.163,12.404 61.089,12.111 C61.016,11.818 61.02,11.555 61.099,11.325 C61.179,11.094 61.323,10.871 61.532,10.654 C61.737,10.442 61.979,10.301 62.259,10.233 C62.539,10.164 62.843,10.167 63.171,10.243 C63.498,10.319 63.847,10.47 64.216,10.697 C64.586,10.924 64.964,11.224 65.352,11.598" id="Fill-52"></path>
            <polyline id="Fill-53" points="69.078 19.189 68.567 18.262 70.327 17.291 74.066 24.071 72.306 25.041 71.796 24.115 72.498 23.618 71.462 21.739 67.235 24.071 67.602 24.736 66.592 25.294 65.3 22.953 66.311 22.395 66.678 23.061 70.905 20.729 69.874 18.86 69.078 19.189"></polyline>
            <path d="M74.16,34.59 C74.349,34.554 74.52,34.485 74.673,34.381 C74.827,34.278 74.953,34.153 75.053,34.007 C75.153,33.861 75.223,33.696 75.264,33.512 C75.304,33.328 75.307,33.142 75.271,32.953 L74.797,30.42 L72.046,30.935 L72.531,33.525 C72.565,33.708 72.634,33.873 72.736,34.02 C72.839,34.167 72.965,34.289 73.113,34.385 C73.262,34.481 73.426,34.548 73.606,34.586 C73.786,34.624 73.97,34.625 74.16,34.59 Z M69.058,32.268 L68.566,29.65 L69.701,29.437 L69.839,30.175 L74.584,29.286 L74.446,28.548 L75.58,28.335 L76.418,32.807 C76.479,33.128 76.472,33.447 76.398,33.765 C76.323,34.082 76.191,34.379 76.002,34.656 C75.807,34.94 75.571,35.173 75.296,35.355 C75.02,35.537 74.712,35.661 74.372,35.724 C74.032,35.788 73.699,35.785 73.372,35.715 C73.046,35.647 72.741,35.515 72.457,35.32 C72.068,35.054 71.776,34.717 71.582,34.31 L71.244,34.539 C70.88,34.79 70.729,35.08 70.79,35.407 C70.823,35.583 70.888,35.73 70.984,35.845 C71.081,35.961 71.205,36.07 71.354,36.173 L70.665,37.035 C70.388,36.846 70.166,36.646 69.999,36.436 C69.833,36.225 69.718,35.953 69.656,35.619 C69.57,35.159 69.618,34.756 69.801,34.409 C69.983,34.061 70.274,33.749 70.672,33.472 L71.27,33.057 L70.912,31.148 L70.052,31.309 L70.192,32.056 L69.058,32.268 Z" id="Fill-54"></path>
            <path d="M75.577,43.622 C75.625,43.227 75.608,42.856 75.528,42.507 C75.448,42.158 75.314,41.848 75.127,41.576 C74.94,41.305 74.703,41.08 74.415,40.904 C74.127,40.727 73.801,40.616 73.439,40.572 C73.075,40.528 72.732,40.557 72.41,40.66 C72.087,40.763 71.803,40.924 71.557,41.143 C71.311,41.362 71.107,41.631 70.946,41.95 C70.784,42.27 70.68,42.627 70.632,43.021 C70.581,43.441 70.595,43.827 70.675,44.179 C70.755,44.531 70.889,44.84 71.076,45.105 C71.264,45.37 71.502,45.586 71.792,45.754 C72.081,45.921 72.408,46.027 72.771,46.071 C73.133,46.115 73.475,46.09 73.797,45.997 C74.118,45.904 74.401,45.751 74.646,45.539 C74.892,45.326 75.096,45.059 75.258,44.736 C75.419,44.413 75.525,44.041 75.577,43.622 Z M73.581,39.398 C74.148,39.467 74.642,39.636 75.064,39.907 C75.486,40.178 75.83,40.514 76.095,40.914 C76.359,41.314 76.545,41.761 76.653,42.256 C76.761,42.75 76.784,43.252 76.723,43.761 C76.658,44.296 76.514,44.79 76.291,45.244 C76.067,45.698 75.78,46.084 75.428,46.404 C75.076,46.723 74.663,46.96 74.189,47.115 C73.714,47.271 73.194,47.314 72.628,47.246 C72.081,47.179 71.597,47.013 71.177,46.75 C70.757,46.485 70.411,46.156 70.139,45.761 C69.867,45.367 69.675,44.922 69.56,44.427 C69.446,43.932 69.421,43.417 69.486,42.882 C69.548,42.373 69.692,41.892 69.918,41.438 C70.145,40.984 70.438,40.596 70.796,40.271 C71.155,39.946 71.57,39.703 72.042,39.541 C72.514,39.378 73.027,39.331 73.581,39.398 Z" id="Fill-55"></path>
        </g>
    </g>
</svg>