<?xml version="1.0" encoding="UTF-8"?>
<svg width="76px" height="76px" viewBox="0 0 76 76" version="1.1" xmlns="http://www.w3.org/2000/svg" xmlns:xlink="http://www.w3.org/1999/xlink">
    <!-- Generator: Sketch 49 (51002) - http://www.bohemiancoding.com/sketch -->
    <title>bitcoin-grey-10</title>
    <desc>Created with Sketch.</desc>
    <defs></defs>
    <g id="Page-1" stroke="none" stroke-width="1" fill="none" fill-rule="evenodd">
        <g id="bitcoin-grey-10">
            <path d="M58.898,54.232 C48.608,68.331 27.53,68.33 17.24,54.232 C16.455,56.126 15.836,58.14 15.404,60.246 C13.28,60.536 11.055,60.609 8.759,60.433 C23.239,80.272 52.899,80.271 67.38,60.433 C65.084,60.609 62.858,60.536 60.735,60.246 C60.303,58.14 59.685,56.125 58.898,54.232" id="Fill-1" fill="#FFFFFF"></path>
            <path d="M9.545,60.859 C16.385,69.818 26.734,74.937 38.069,74.937 C49.403,74.937 59.753,69.818 66.594,60.859 C64.596,60.963 62.612,60.881 60.684,60.618 C60.526,60.596 60.399,60.478 60.368,60.322 C59.99,58.481 59.463,56.69 58.799,54.99 C53.816,61.475 46.299,65.18 38.07,65.181 C38.069,65.181 38.068,65.181 38.067,65.181 C29.839,65.181 22.323,61.476 17.339,54.99 C16.676,56.691 16.149,58.481 15.771,60.322 C15.739,60.478 15.612,60.596 15.455,60.618 C13.528,60.88 11.544,60.963 9.545,60.859 Z M38.069,75.687 C26.223,75.687 15.429,70.208 8.456,60.655 C8.37,60.536 8.36,60.379 8.431,60.251 C8.502,60.123 8.637,60.049 8.788,60.059 C10.908,60.222 13.035,60.171 15.091,59.909 C15.522,57.891 16.128,55.934 16.894,54.088 C16.946,53.963 17.061,53.876 17.196,53.86 C17.331,53.843 17.463,53.902 17.543,54.011 C22.376,60.633 29.857,64.431 38.067,64.431 C38.068,64.431 38.069,64.431 38.07,64.431 C46.282,64.43 53.763,60.632 58.596,54.011 C58.675,53.902 58.803,53.843 58.943,53.86 C59.077,53.876 59.193,53.963 59.245,54.088 C60.011,55.934 60.617,57.891 61.047,59.909 C63.105,60.171 65.232,60.222 67.351,60.059 C67.506,60.049 67.637,60.123 67.707,60.251 C67.779,60.379 67.769,60.536 67.683,60.655 C60.71,70.208 49.916,75.687 38.069,75.687 Z" id="Fill-2" fill="#000000"></path>
            <path d="M21.711,65.857 C21.131,65.504 20.56,65.129 20,64.735 C19.776,65.053 19.552,65.372 19.329,65.69 C19.905,66.096 20.492,66.48 21.087,66.844 C21.167,66.892 21.249,66.923 21.334,66.938 C21.418,66.952 21.5,66.952 21.578,66.938 C21.657,66.923 21.729,66.894 21.795,66.851 C21.862,66.808 21.916,66.75 21.957,66.679 C21.995,66.613 22.018,66.539 22.025,66.464 C22.032,66.389 22.023,66.312 21.999,66.236 C21.973,66.161 21.937,66.094 21.89,66.027 C21.843,65.961 21.781,65.903 21.711,65.857 Z M22.554,65.036 C22.621,64.926 22.635,64.806 22.6,64.677 C22.564,64.547 22.489,64.448 22.376,64.378 C21.885,64.074 21.4,63.754 20.924,63.418 C20.743,63.677 20.562,63.934 20.381,64.192 C20.872,64.538 21.372,64.867 21.878,65.182 C21.939,65.219 22.005,65.242 22.068,65.253 C22.135,65.267 22.198,65.258 22.259,65.249 C22.319,65.235 22.376,65.213 22.427,65.176 C22.479,65.138 22.52,65.091 22.554,65.036 Z M20.742,67.41 C19.771,66.817 18.825,66.171 17.908,65.469 C18.042,65.294 18.176,65.118 18.31,64.942 C18.442,65.044 18.575,65.143 18.709,65.242 C19.258,64.497 19.808,63.753 20.356,63.008 C20.234,62.919 20.113,62.827 19.992,62.734 C20.125,62.558 20.26,62.383 20.394,62.207 C21.149,62.784 21.927,63.319 22.725,63.814 C22.859,63.898 22.971,63.999 23.063,64.122 C23.154,64.245 23.22,64.378 23.26,64.521 C23.3,64.662 23.313,64.807 23.298,64.96 C23.283,65.11 23.237,65.253 23.161,65.388 C23.096,65.504 23.015,65.602 22.914,65.683 C22.813,65.765 22.704,65.823 22.587,65.869 C22.693,66.057 22.747,66.25 22.744,66.466 C22.743,66.68 22.697,66.871 22.601,67.044 C22.518,67.196 22.407,67.319 22.268,67.415 C22.129,67.51 21.974,67.579 21.803,67.611 C21.634,67.647 21.455,67.645 21.271,67.614 C21.088,67.582 20.911,67.508 20.742,67.41 Z" id="Fill-3" fill="#000000"></path>
            <path d="M27.628,67.798 C27.666,67.693 27.679,67.587 27.672,67.482 C27.665,67.375 27.639,67.275 27.593,67.181 C27.548,67.087 27.485,67.007 27.405,66.928 C27.324,66.852 27.231,66.793 27.125,66.752 C26.653,66.566 26.185,66.37 25.721,66.159 C25.499,66.647 25.276,67.136 25.055,67.624 C25.555,67.85 26.06,68.063 26.569,68.261 C26.677,68.306 26.786,68.323 26.896,68.319 C27.006,68.317 27.109,68.291 27.206,68.249 C27.302,68.207 27.386,68.146 27.461,68.069 C27.534,67.992 27.59,67.899 27.628,67.798 Z M24.756,69.493 C24.218,69.26 23.686,69.011 23.158,68.747 C23.257,68.549 23.356,68.353 23.456,68.155 C23.601,68.227 23.747,68.299 23.893,68.369 C24.295,67.536 24.698,66.703 25.1,65.87 C24.966,65.805 24.833,65.74 24.699,65.673 C24.799,65.475 24.897,65.279 24.997,65.08 C25.786,65.475 26.589,65.831 27.405,66.15 C27.58,66.218 27.736,66.317 27.872,66.447 C28.007,66.582 28.119,66.731 28.203,66.905 C28.292,67.083 28.342,67.269 28.358,67.458 C28.373,67.651 28.352,67.84 28.288,68.026 C28.224,68.215 28.127,68.38 27.995,68.522 C27.865,68.663 27.702,68.778 27.512,68.859 C27.252,68.967 26.978,69.007 26.695,68.974 C26.703,69.052 26.709,69.133 26.717,69.211 C26.743,69.469 26.858,69.634 27.06,69.708 C27.169,69.75 27.271,69.758 27.365,69.747 C27.458,69.736 27.556,69.707 27.658,69.663 C27.752,69.863 27.849,70.063 27.947,70.264 C27.76,70.346 27.579,70.396 27.409,70.416 C27.238,70.436 27.046,70.405 26.836,70.332 C26.546,70.228 26.332,70.075 26.194,69.871 C26.055,69.665 25.975,69.425 25.951,69.141 C25.939,68.999 25.928,68.858 25.917,68.716 C25.536,68.562 25.157,68.398 24.78,68.228 C24.71,68.381 24.641,68.534 24.571,68.686 C24.721,68.754 24.871,68.82 25.021,68.885 C24.933,69.088 24.845,69.291 24.756,69.493 Z" id="Fill-4" fill="#000000"></path>
            <path d="M33.746,68.998 C33.538,68.968 33.332,68.936 33.125,68.903 C33.132,68.739 33.141,68.573 33.149,68.408 C32.451,68.294 31.757,68.152 31.068,67.989 C30.994,68.295 30.92,68.6 30.846,68.907 C31.44,69.049 32.038,69.173 32.638,69.28 C32.599,69.497 32.56,69.715 32.521,69.932 C31.908,69.823 31.297,69.697 30.69,69.552 C30.6,69.929 30.508,70.308 30.417,70.685 C31.19,70.87 31.969,71.027 32.752,71.154 C32.799,70.995 32.846,70.837 32.892,70.678 C33.111,70.714 33.331,70.746 33.551,70.777 C33.497,71.159 33.442,71.54 33.388,71.921 C31.929,71.716 30.481,71.414 29.055,71.017 C29.115,70.804 29.175,70.592 29.234,70.379 C29.389,70.422 29.544,70.464 29.699,70.505 C29.937,69.611 30.174,68.718 30.412,67.823 C30.27,67.786 30.128,67.748 29.986,67.709 C30.046,67.496 30.106,67.283 30.166,67.071 C31.398,67.414 32.649,67.675 33.91,67.855 C33.856,68.236 33.801,68.617 33.746,68.998" id="Fill-5" fill="#000000"></path>
            <path d="M37.564,69.25 C37.987,69.257 38.411,69.255 38.834,69.245 C39.059,70.016 39.299,70.785 39.555,71.551 C39.633,71.548 39.71,71.544 39.789,71.54 C40.005,70.603 40.199,69.665 40.371,68.724 C40.234,68.734 40.098,68.743 39.961,68.752 C39.947,68.532 39.934,68.311 39.919,68.091 C40.425,68.059 40.931,68.014 41.435,67.957 C41.46,68.176 41.485,68.396 41.511,68.615 C41.364,68.632 41.217,68.647 41.07,68.662 C40.877,69.832 40.649,71.001 40.386,72.168 C39.934,72.199 39.481,72.221 39.028,72.234 C38.772,71.464 38.533,70.691 38.309,69.916 C38.238,69.917 38.166,69.917 38.094,69.917 C37.877,70.694 37.645,71.468 37.395,72.241 C36.942,72.231 36.489,72.213 36.037,72.186 C35.763,71.022 35.525,69.856 35.323,68.686 C35.176,68.673 35.028,68.658 34.881,68.643 C34.905,68.425 34.929,68.205 34.952,67.984 C35.457,68.039 35.962,68.079 36.469,68.105 C36.457,68.326 36.444,68.547 36.432,68.767 C36.296,68.759 36.159,68.752 36.023,68.742 C36.202,69.682 36.404,70.618 36.629,71.553 C36.707,71.557 36.785,71.56 36.862,71.563 C37.112,70.795 37.346,70.024 37.564,69.25" id="Fill-6" fill="#000000"></path>
            <path d="M46.586,68.097 C46.384,68.156 46.181,68.212 45.978,68.266 C45.917,68.113 45.855,67.959 45.795,67.806 C45.109,67.989 44.418,68.145 43.723,68.277 C43.783,68.586 43.843,68.896 43.902,69.205 C44.501,69.09 45.098,68.959 45.69,68.809 C45.745,69.023 45.799,69.237 45.854,69.451 C45.249,69.604 44.64,69.739 44.028,69.856 C44.102,70.238 44.176,70.62 44.249,71.001 C45.029,70.852 45.804,70.675 46.573,70.469 C46.551,70.305 46.527,70.142 46.503,69.978 C46.719,69.921 46.934,69.86 47.147,69.798 C47.257,70.167 47.365,70.536 47.475,70.906 C46.052,71.321 44.608,71.64 43.15,71.863 C43.117,71.645 43.083,71.426 43.049,71.208 C43.207,71.183 43.365,71.158 43.522,71.131 C43.368,70.22 43.213,69.309 43.059,68.397 C42.914,68.421 42.77,68.444 42.625,68.466 C42.591,68.248 42.558,68.031 42.524,67.811 C43.783,67.618 45.032,67.344 46.261,66.988 C46.37,67.358 46.478,67.727 46.586,68.097" id="Fill-7" fill="#000000"></path>
            <path d="M51.209,66.677 C51.162,66.579 51.098,66.493 51.015,66.423 C50.933,66.354 50.843,66.3 50.745,66.268 C50.646,66.233 50.542,66.218 50.431,66.223 C50.318,66.227 50.212,66.252 50.107,66.298 C49.642,66.504 49.171,66.695 48.697,66.874 C48.888,67.375 49.079,67.877 49.27,68.377 C49.781,68.183 50.288,67.976 50.79,67.755 C50.895,67.708 50.988,67.645 51.062,67.564 C51.137,67.483 51.194,67.393 51.232,67.295 C51.269,67.197 51.285,67.092 51.284,66.987 C51.282,66.878 51.257,66.779 51.209,66.677 Z M50.389,69.906 C49.844,70.122 49.296,70.322 48.743,70.508 C48.672,70.298 48.602,70.089 48.53,69.88 C48.683,69.829 48.835,69.777 48.987,69.722 C48.677,68.85 48.368,67.979 48.058,67.108 C47.919,67.156 47.779,67.204 47.64,67.252 C47.569,67.041 47.498,66.833 47.427,66.624 C48.255,66.346 49.072,66.029 49.876,65.676 C50.05,65.599 50.229,65.561 50.419,65.555 C50.608,65.547 50.796,65.576 50.981,65.641 C51.17,65.702 51.339,65.796 51.487,65.919 C51.634,66.042 51.753,66.192 51.842,66.368 C51.933,66.545 51.98,66.732 51.988,66.925 C51.996,67.119 51.962,67.312 51.885,67.506 C51.779,67.771 51.612,67.993 51.387,68.167 C51.448,68.217 51.51,68.268 51.572,68.318 C51.774,68.48 51.974,68.514 52.17,68.424 C52.275,68.373 52.356,68.313 52.415,68.235 C52.473,68.158 52.521,68.072 52.563,67.967 C52.774,68.04 52.986,68.114 53.2,68.183 C53.125,68.374 53.032,68.54 52.924,68.674 C52.816,68.811 52.659,68.919 52.456,69.022 C52.176,69.156 51.913,69.201 51.671,69.154 C51.429,69.11 51.198,68.995 50.979,68.812 C50.87,68.721 50.762,68.629 50.653,68.537 C50.273,68.698 49.891,68.852 49.506,68.997 C49.566,69.153 49.626,69.311 49.686,69.467 C49.838,69.408 49.991,69.351 50.143,69.29 C50.225,69.495 50.307,69.7 50.389,69.906 Z" id="Fill-8" fill="#000000"></path>
            <path d="M53.794,64.358 C53.703,64.414 53.611,64.471 53.519,64.527 C53.969,64.774 54.429,65.011 54.896,65.239 C55.216,65.033 55.534,64.821 55.848,64.602 C55.817,64.082 55.776,63.566 55.723,63.052 C55.635,63.117 55.547,63.18 55.459,63.244 C55.33,63.065 55.201,62.885 55.072,62.706 C55.499,62.397 55.92,62.077 56.334,61.743 C56.472,61.915 56.61,62.088 56.749,62.26 C56.616,62.368 56.482,62.473 56.348,62.578 C56.456,63.338 56.541,64.105 56.602,64.881 C56.418,65.011 56.233,65.141 56.047,65.27 C56.194,65.484 56.341,65.699 56.488,65.914 C56.627,65.818 56.767,65.721 56.905,65.622 C57.033,65.802 57.161,65.983 57.289,66.163 C56.797,66.512 56.298,66.845 55.793,67.164 C55.675,66.977 55.557,66.79 55.439,66.603 C55.579,66.516 55.717,66.426 55.855,66.337 C55.713,66.119 55.571,65.902 55.43,65.683 C55.243,65.805 55.056,65.924 54.867,66.041 C54.176,65.687 53.502,65.313 52.848,64.921 C52.705,65.003 52.561,65.082 52.416,65.162 C52.31,64.968 52.204,64.776 52.098,64.581 C52.553,64.331 53.002,64.07 53.445,63.794 C53.562,63.982 53.678,64.17 53.794,64.358" id="Fill-9" fill="#000000"></path>
            <path d="M17.713,12.017 L15.543,14.11 L16.861,15.477 L19.012,13.403 C19.107,13.311 19.177,13.208 19.225,13.092 C19.271,12.976 19.296,12.857 19.301,12.737 C19.305,12.616 19.286,12.496 19.241,12.376 C19.196,12.257 19.128,12.149 19.037,12.054 C18.949,11.964 18.848,11.894 18.735,11.845 C18.621,11.796 18.503,11.772 18.383,11.772 C18.262,11.772 18.144,11.792 18.028,11.832 C17.913,11.872 17.808,11.934 17.713,12.017 Z M16.75,10.37 C16.604,10.219 16.425,10.141 16.213,10.138 C16.001,10.134 15.82,10.205 15.668,10.351 L13.725,12.225 L14.794,13.333 L16.737,11.459 C16.814,11.383 16.872,11.299 16.91,11.204 C16.948,11.109 16.968,11.013 16.969,10.915 C16.971,10.818 16.954,10.722 16.917,10.628 C16.881,10.534 16.825,10.448 16.75,10.37 Z M19.761,14.18 L16.328,17.491 L15.579,16.715 L16.084,16.227 L12.947,12.975 L12.442,13.462 L11.692,12.685 L14.918,9.573 C15.1,9.398 15.305,9.267 15.534,9.18 C15.762,9.093 15.996,9.052 16.233,9.056 C16.471,9.061 16.702,9.11 16.927,9.205 C17.152,9.301 17.353,9.44 17.528,9.621 C17.677,9.776 17.794,9.949 17.877,10.139 C17.961,10.33 18.014,10.523 18.036,10.718 C18.355,10.652 18.676,10.676 18.999,10.79 C19.322,10.904 19.593,11.075 19.814,11.304 C20.01,11.508 20.154,11.735 20.247,11.987 C20.34,12.239 20.384,12.497 20.379,12.759 C20.375,13.022 20.32,13.277 20.216,13.524 C20.112,13.77 19.96,13.989 19.761,14.18 Z" id="Fill-10" fill="#000000"></path>
            <polyline id="Fill-11" fill="#000000" points="24.71 10.732 22.564 12.036 22.003 11.113 22.611 10.744 20.265 6.883 19.657 7.252 19.096 6.329 21.234 5.031 21.795 5.952 21.187 6.322 23.534 10.183 24.149 9.809 24.71 10.732"></polyline>
            <polyline id="Fill-12" fill="#000000" points="25.437 4.981 24.496 5.288 23.913 3.499 30.801 1.254 31.384 3.043 30.443 3.349 30.109 2.616 28.201 3.238 29.601 7.533 30.277 7.313 30.612 8.34 28.233 9.115 27.898 8.088 28.574 7.868 27.174 3.572 25.275 4.191 25.437 4.981"></polyline>
            <path d="M37.735,1.695 C37.363,1.703 37.022,1.768 36.709,1.889 C36.396,2.01 36.127,2.175 35.901,2.385 C35.674,2.593 35.499,2.843 35.373,3.134 C35.248,3.425 35.188,3.741 35.196,4.083 C35.204,4.425 35.277,4.739 35.415,5.024 C35.554,5.309 35.741,5.551 35.976,5.75 C36.211,5.948 36.488,6.101 36.805,6.208 C37.123,6.315 37.467,6.364 37.839,6.356 C38.331,6.345 38.76,6.25 39.125,6.07 C39.49,5.891 39.78,5.647 39.996,5.336 L40.812,6.046 C40.479,6.474 40.056,6.809 39.544,7.052 C39.029,7.294 38.469,7.422 37.863,7.436 C37.384,7.447 36.919,7.377 36.468,7.228 C36.018,7.079 35.618,6.86 35.27,6.571 C34.921,6.281 34.64,5.929 34.427,5.514 C34.213,5.098 34.101,4.63 34.089,4.108 C34.078,3.574 34.169,3.094 34.363,2.666 C34.558,2.239 34.823,1.876 35.158,1.577 C35.494,1.279 35.883,1.046 36.326,0.88 C36.77,0.715 37.231,0.626 37.711,0.615 C38.107,0.606 38.453,0.624 38.748,0.669 C39.043,0.713 39.3,0.772 39.521,0.845 C39.742,0.918 39.93,0.999 40.085,1.089 C40.24,1.179 40.378,1.261 40.501,1.337 L40.526,2.497 L39.537,2.519 L39.48,2.052 C39.372,1.989 39.262,1.933 39.153,1.884 C39.044,1.836 38.921,1.796 38.786,1.766 C38.65,1.736 38.499,1.716 38.33,1.704 C38.162,1.693 37.963,1.69 37.735,1.695" id="Fill-13" fill="#000000"></path>
            <path d="M46.914,2.88 C46.554,2.782 46.208,2.746 45.875,2.773 C45.54,2.8 45.235,2.882 44.958,3.018 C44.682,3.154 44.442,3.343 44.239,3.587 C44.036,3.829 43.889,4.115 43.799,4.445 C43.709,4.776 43.689,5.097 43.741,5.41 C43.792,5.722 43.902,6.007 44.072,6.265 C44.241,6.522 44.462,6.748 44.736,6.941 C45.01,7.134 45.327,7.279 45.685,7.377 C46.067,7.482 46.426,7.52 46.763,7.494 C47.1,7.468 47.404,7.386 47.675,7.249 C47.946,7.111 48.178,6.92 48.373,6.674 C48.567,6.429 48.709,6.141 48.799,5.811 C48.89,5.481 48.914,5.161 48.871,4.851 C48.828,4.541 48.725,4.258 48.562,4.001 C48.398,3.745 48.178,3.521 47.901,3.327 C47.625,3.133 47.295,2.984 46.914,2.88 Z M42.731,4.154 C42.871,3.639 43.096,3.204 43.404,2.85 C43.712,2.496 44.07,2.223 44.477,2.032 C44.883,1.842 45.322,1.73 45.795,1.697 C46.267,1.665 46.734,1.711 47.198,1.838 C47.684,1.971 48.122,2.171 48.512,2.439 C48.902,2.708 49.221,3.026 49.468,3.395 C49.716,3.765 49.879,4.179 49.959,4.64 C50.039,5.1 50.008,5.588 49.868,6.103 C49.731,6.601 49.513,7.026 49.211,7.379 C48.91,7.732 48.558,8.008 48.155,8.205 C47.753,8.404 47.315,8.522 46.84,8.56 C46.367,8.599 45.887,8.552 45.401,8.419 C44.938,8.292 44.511,8.093 44.122,7.822 C43.733,7.551 43.412,7.228 43.16,6.851 C42.909,6.475 42.74,6.057 42.654,5.598 C42.567,5.139 42.593,4.658 42.731,4.154 Z" id="Fill-14" fill="#000000"></path>
            <polyline id="Fill-15" fill="#000000" points="52.531 11.368 50.329 10.163 50.847 9.215 51.471 9.557 53.64 5.593 53.017 5.252 53.536 4.305 55.73 5.506 55.211 6.454 54.588 6.113 52.419 10.076 53.05 10.421 52.531 11.368"></polyline>
            <polyline id="Fill-16" fill="#000000" points="55.782 13.69 53.924 12.028 54.644 11.223 55.168 11.691 58.18 8.324 57.657 7.856 58.377 7.051 60.396 8.858 58.487 14.662 58.681 14.836 61.694 11.469 61.165 10.995 61.884 10.19 63.749 11.858 63.029 12.663 62.5 12.189 59.486 15.556 60.016 16.03 59.296 16.835 57.277 15.029 59.186 9.224 58.984 9.044 55.972 12.411 56.502 12.885 55.782 13.69"></polyline>
            <path d="M46.123,30.108 L46.213,32.365 L46.229,32.74 L47.048,53.007 L26.248,53.007 L27.174,30.108 L46.123,30.108 Z M47.086,35.375 L52.342,35.375 C53.566,35.375 54.6,36.433 54.6,37.686 C54.6,38.917 53.587,39.918 52.342,39.918 L47.27,39.918 L47.086,35.375 Z M47.407,43.302 L53.052,43.302 C54.284,43.302 55.286,44.303 55.286,45.533 C55.286,46.785 54.293,47.766 53.026,47.766 L47.587,47.766 L47.407,43.302 Z M26.22,27.743 C26.319,27.75 26.414,27.773 26.514,27.773 C26.543,27.773 26.571,27.764 26.599,27.763 C26.933,27.757 27.257,27.705 27.573,27.624 C28.392,27.411 29.139,26.971 29.704,26.328 C30.155,26.881 30.715,27.318 31.34,27.624 C31.675,27.787 32.028,27.916 32.395,27.999 C32.748,28.079 33.113,28.121 33.485,28.121 C33.855,28.121 34.217,28.078 34.568,27.999 C34.933,27.916 35.284,27.787 35.618,27.624 C36.195,27.34 36.72,26.943 37.157,26.44 C38.856,27.618 41.176,27.734 42.996,26.711 C43.557,27.17 44.212,27.473 44.905,27.624 C45.21,27.69 45.522,27.735 45.839,27.735 C46.089,27.735 46.331,27.7 46.57,27.661 C46.739,27.634 46.901,27.591 47.063,27.545 L47.181,29.358 L26.115,29.358 L26.22,27.743 Z M26.501,20.02 L26.563,19.666 L26.567,19.665 L26.604,20.031 C26.708,20.033 26.828,19.985 26.901,19.896 C26.975,19.808 27.004,19.692 26.981,19.579 C26.92,19.286 26.889,18.984 26.889,18.679 C26.889,16.216 28.893,14.212 31.356,14.212 C31.708,14.212 32.075,14.266 32.512,14.385 C32.695,14.433 32.882,14.341 32.955,14.17 C33.707,12.404 35.433,11.262 37.351,11.262 C39.971,11.262 42.113,13.392 42.126,16.012 C42.126,16.144 42.195,16.265 42.308,16.332 C42.42,16.4 42.56,16.404 42.676,16.342 C43.243,16.041 43.832,15.889 44.427,15.889 C46.499,15.889 48.184,17.575 48.184,19.646 C48.184,19.737 48.171,19.825 48.159,19.912 L48.14,20.062 C48.127,20.184 48.175,20.307 48.27,20.387 C49.113,21.109 49.597,22.145 49.597,23.229 C49.597,24.603 48.847,25.794 47.743,26.449 C47.625,26.52 47.506,26.589 47.38,26.646 C47.262,26.7 47.137,26.738 47.013,26.779 C46.642,26.903 46.252,26.985 45.839,26.985 C44.987,26.985 44.171,26.677 43.501,26.135 C43.433,26.08 43.358,26.035 43.293,25.974 C43.168,25.86 42.982,25.842 42.838,25.932 C42.713,26.011 42.58,26.07 42.449,26.135 C41.095,26.817 39.48,26.806 38.14,26.135 C37.924,26.028 37.717,25.903 37.519,25.761 C37.456,25.715 37.386,25.679 37.325,25.631 C37.245,25.567 37.142,25.538 37.043,25.552 C36.943,25.565 36.852,25.618 36.791,25.699 C36.775,25.72 36.756,25.739 36.739,25.761 C36.636,25.892 36.527,26.017 36.412,26.135 C35.636,26.925 34.599,27.371 33.485,27.371 C32.367,27.371 31.318,26.917 30.547,26.135 C30.431,26.017 30.322,25.892 30.219,25.761 C30.154,25.675 30.085,25.593 30.025,25.502 C29.993,25.452 29.949,25.414 29.899,25.385 C29.844,25.353 29.782,25.334 29.716,25.333 C29.715,25.333 29.713,25.333 29.712,25.333 C29.646,25.333 29.584,25.353 29.528,25.385 C29.479,25.414 29.435,25.449 29.403,25.496 C29.335,25.595 29.246,25.671 29.17,25.761 C29.062,25.888 28.963,26.026 28.84,26.135 C28.206,26.7 27.381,27.023 26.514,27.023 C26.43,27.023 26.351,27.004 26.269,26.998 C26.143,26.989 26.017,26.982 25.895,26.96 C25.768,26.937 25.648,26.9 25.526,26.863 C24.079,26.433 23.013,25.107 23.013,23.522 C23.013,21.591 24.584,20.021 26.501,20.02 Z M47.942,56.463 L24.8,56.463 L25,53.757 L48.296,53.757 L48.497,56.463 L47.942,56.463 Z M52.834,50.792 L52.834,52.053 C52.834,52.573 52.412,52.995 51.893,52.995 C51.374,52.995 50.952,52.573 50.952,52.053 L50.952,50.799 C50.952,50.593 50.784,50.424 50.577,50.424 L49.122,50.424 C48.915,50.424 48.747,50.593 48.747,50.799 L48.747,52.053 C48.747,52.573 48.323,52.995 47.803,52.995 C47.802,52.995 47.8,52.994 47.799,52.994 L47.618,48.516 L53.026,48.516 C54.713,48.516 56.036,47.205 56.036,45.533 C56.036,43.889 54.697,42.552 53.052,42.552 L47.377,42.552 L47.3,40.668 L52.342,40.668 C54.001,40.668 55.35,39.33 55.35,37.686 C55.35,36.027 53.973,34.625 52.342,34.625 L47.056,34.625 L46.908,30.96 C47.004,30.544 47.361,30.226 47.806,30.226 C48.325,30.226 48.747,30.648 48.747,31.166 L48.747,32.365 C48.747,32.573 48.915,32.74 49.122,32.74 L50.581,32.74 C50.788,32.74 50.956,32.573 50.956,32.365 L50.956,31.166 C50.956,30.648 51.377,30.226 51.895,30.226 C52.414,30.226 52.836,30.648 52.836,31.166 L52.836,32.447 C52.836,32.629 52.968,32.785 53.148,32.816 C55.477,33.217 57.234,35.311 57.234,37.686 C57.234,39.061 56.563,40.342 55.484,41.029 C55.371,41.1 55.305,41.226 55.311,41.36 C55.315,41.493 55.391,41.613 55.508,41.677 C57.035,42.491 57.946,43.932 57.946,45.533 C57.946,48.149 55.815,50.34 53.197,50.417 C52.995,50.424 52.834,50.59 52.834,50.792 Z M56.359,41.312 C57.373,40.446 57.984,39.106 57.984,37.686 C57.984,35.057 56.114,32.728 53.586,32.14 L53.586,31.166 C53.586,30.235 52.828,29.476 51.895,29.476 C50.963,29.476 50.206,30.235 50.206,31.166 L50.206,31.991 L49.497,31.991 L49.497,31.166 C49.497,30.281 48.809,29.56 47.94,29.49 L47.796,27.27 C49.3,26.538 50.347,25.01 50.347,23.229 C50.347,21.993 49.826,20.811 48.91,19.954 C48.923,19.853 48.934,19.752 48.934,19.646 C48.934,17.161 46.912,15.139 44.427,15.139 C43.89,15.139 43.359,15.24 42.844,15.441 C42.545,12.676 40.191,10.512 37.351,10.512 C35.239,10.512 33.329,11.708 32.399,13.585 C32.024,13.501 31.687,13.462 31.356,13.462 C28.479,13.462 26.139,15.803 26.139,18.679 C26.139,18.882 26.151,19.084 26.174,19.284 C23.989,19.458 22.263,21.292 22.263,23.522 C22.263,25.507 23.635,27.164 25.476,27.63 L25.341,29.709 C25.335,29.812 25.371,29.913 25.442,29.989 C25.513,30.065 25.612,30.108 25.715,30.108 L26.424,30.108 L25.497,53.007 L24.652,53.007 C24.456,53.007 24.292,53.158 24.278,53.354 L24.022,56.811 C24.014,56.914 24.05,57.016 24.121,57.093 C24.192,57.17 24.292,57.213 24.396,57.213 L48.901,57.213 C48.907,57.213 48.914,57.213 48.919,57.213 C49.127,57.213 49.294,57.045 49.294,56.838 C49.294,56.787 49.285,56.739 49.266,56.695 L49.018,53.354 C49.016,53.321 48.988,53.299 48.977,53.268 C49.296,52.961 49.497,52.531 49.497,52.053 L49.497,51.174 L50.202,51.174 L50.202,52.053 C50.202,52.986 50.96,53.745 51.893,53.745 C52.825,53.745 53.584,52.986 53.584,52.053 L53.584,51.144 C56.434,50.871 58.696,48.428 58.696,45.533 C58.696,43.835 57.833,42.293 56.359,41.312 Z" id="Fill-17" fill="#000000"></path>
            <path d="M31.057,32.458 C31.294,32.458 31.47,32.587 31.576,32.694 C31.804,32.927 31.937,33.295 31.931,33.679 L31.647,49.838 C31.637,50.507 31.165,51.071 30.616,51.071 C30.327,51.071 30.122,50.923 30.001,50.799 C29.773,50.564 29.648,50.22 29.658,49.854 L30.11,33.697 C30.129,33.025 30.563,32.458 31.057,32.458 Z M30.616,51.821 C31.581,51.821 32.38,50.936 32.397,49.85 L32.681,33.691 C32.69,33.101 32.482,32.547 32.111,32.169 C31.819,31.872 31.445,31.708 31.057,31.708 C30.152,31.708 29.391,32.59 29.36,33.675 L28.908,49.834 C28.893,50.401 29.095,50.943 29.463,51.321 C29.777,51.644 30.186,51.821 30.616,51.821 Z" id="Fill-18" fill="#000000"></path>
            <path d="M35.738,33.688 C35.742,33.021 36.159,32.458 36.648,32.458 C37.138,32.458 37.555,33.022 37.56,33.766 L37.643,49.846 C37.646,50.212 37.513,50.557 37.278,50.793 C37.152,50.92 36.941,51.071 36.648,51.071 C36.42,51.071 36.197,50.972 36.019,50.792 C35.785,50.556 35.651,50.211 35.654,49.845 L35.738,33.688 Z M36.648,51.821 C37.078,51.821 37.491,51.644 37.811,51.321 C38.185,50.944 38.397,50.405 38.393,49.841 L38.309,33.683 C38.303,32.595 37.558,31.709 36.648,31.708 C35.74,31.708 34.995,32.594 34.987,33.763 L34.904,49.841 C34.9,50.405 35.113,50.944 35.487,51.321 C35.807,51.644 36.219,51.821 36.648,51.821 Z" id="Fill-19" fill="#000000"></path>
            <path d="M41.366,33.679 C41.359,33.316 41.485,32.973 41.691,32.74 C41.703,32.728 41.708,32.707 41.719,32.694 C41.826,32.587 42.002,32.458 42.239,32.458 C42.447,32.458 42.636,32.574 42.796,32.74 C43.017,32.969 43.175,33.307 43.186,33.697 L43.212,34.625 L43.223,35 L43.233,35.375 L43.36,39.918 L43.381,40.668 L43.434,42.552 L43.455,43.302 L43.58,47.766 L43.59,48.141 L43.601,48.516 L43.638,49.855 C43.645,50.058 43.599,50.249 43.526,50.424 C43.469,50.562 43.398,50.692 43.298,50.795 C43.296,50.797 43.294,50.799 43.292,50.799 C43.17,50.925 42.967,51.071 42.68,51.071 C42.45,51.071 42.246,50.96 42.073,50.799 C41.961,50.697 41.869,50.573 41.799,50.424 C41.715,50.248 41.653,50.054 41.649,49.837 L41.626,48.516 L41.613,47.766 L41.535,43.302 L41.521,42.552 L41.482,40.293 L41.475,39.918 L41.396,35.375 L41.389,35 L41.382,34.625 L41.366,33.679 Z M40.639,35 L40.645,35.375 L40.725,39.918 L40.738,40.668 L40.778,42.927 L40.869,48.141 L40.876,48.516 L40.899,49.85 C40.903,50.052 40.941,50.242 40.994,50.424 C41.033,50.556 41.082,50.681 41.142,50.799 C41.211,50.934 41.292,51.061 41.385,51.174 C41.712,51.569 42.171,51.821 42.68,51.821 C43.111,51.821 43.521,51.641 43.836,51.318 C43.878,51.274 43.911,51.222 43.948,51.174 C44.04,51.06 44.117,50.934 44.181,50.799 C44.237,50.68 44.282,50.555 44.315,50.424 C44.363,50.234 44.394,50.036 44.388,49.833 L44.351,48.516 L44.331,47.766 L44.206,43.302 L44.195,42.927 L44.185,42.552 L44.121,40.293 L43.984,35.375 L43.962,34.625 L43.936,33.675 C43.926,33.335 43.838,33.02 43.703,32.74 C43.637,32.605 43.561,32.48 43.473,32.365 C43.358,32.218 43.226,32.093 43.081,31.991 C42.831,31.816 42.545,31.708 42.24,31.708 C41.939,31.708 41.648,31.808 41.396,31.991 C41.322,32.044 41.251,32.101 41.185,32.169 C41.126,32.228 41.08,32.299 41.03,32.365 C40.945,32.481 40.871,32.606 40.811,32.74 C40.683,33.029 40.61,33.353 40.616,33.692 L40.632,34.625 L40.639,35 Z" id="Fill-20" fill="#000000"></path>
            <path d="M29.145,23.058 C29.352,23.058 29.52,22.89 29.52,22.683 C29.52,22.677 29.522,22.672 29.522,22.665 C29.534,21.529 30.574,20.62 31.76,20.878 C31.86,20.9 31.963,20.88 32.047,20.823 C32.132,20.768 32.19,20.679 32.208,20.578 C32.522,18.865 34.009,17.621 35.747,17.621 C37.233,17.621 38.585,18.564 39.11,19.965 C39.155,20.085 39.258,20.173 39.383,20.2 C39.508,20.226 39.638,20.188 39.728,20.097 C40.223,19.596 40.881,19.321 41.582,19.321 C43.019,19.321 44.188,20.49 44.188,21.927 C44.188,21.933 44.191,21.94 44.192,21.946 C44.202,22.144 44.362,22.303 44.563,22.303 C44.77,22.303 44.938,22.135 44.938,21.927 C44.938,20.076 43.432,18.571 41.582,18.571 C40.858,18.571 40.17,18.799 39.598,19.22 C38.856,17.797 37.368,16.871 35.747,16.871 C33.769,16.871 32.058,18.205 31.55,20.091 C30.039,19.98 28.77,21.191 28.77,22.683 C28.77,22.89 28.938,23.058 29.145,23.058" id="Fill-21" fill="#000000"></path>
            <path d="M44.741,23.075 L44.661,23.043 C44.47,22.967 44.291,23.076 44.214,23.27 C44.138,23.462 44.272,23.696 44.465,23.772 C44.51,23.79 44.557,23.799 44.603,23.799 C44.752,23.799 44.894,23.708 44.952,23.561 C45.028,23.369 44.934,23.151 44.741,23.075" id="Fill-22" fill="#000000"></path>
            <path d="M27.847,20.947 C27.946,20.947 28.044,20.908 28.118,20.832 C28.261,20.682 28.256,20.445 28.107,20.301 L28.044,20.241 C27.896,20.098 27.689,20.132 27.545,20.281 C27.402,20.431 27.438,20.699 27.587,20.842 C27.66,20.911 27.753,20.947 27.847,20.947" id="Fill-23" fill="#000000"></path>
            <path d="M29.136,23.74 C28.929,23.745 28.767,23.96 28.771,24.167 C28.776,24.37 28.943,24.533 29.146,24.533 C29.149,24.533 29.152,24.533 29.155,24.533 C29.362,24.529 29.525,24.357 29.521,24.15 L29.519,24.064 C29.514,23.857 29.325,23.734 29.136,23.74" id="Fill-24" fill="#000000"></path>
            <path d="M33.085,20.81 L33.005,20.778 C32.812,20.7 32.634,20.81 32.557,21.001 C32.479,21.194 32.613,21.428 32.805,21.506 C32.851,21.524 32.898,21.532 32.945,21.532 C33.093,21.532 33.234,21.444 33.292,21.298 C33.37,21.105 33.277,20.887 33.085,20.81" id="Fill-25" fill="#000000"></path>
            <path d="M41.11,17.456 C41.223,17.456 41.34,17.411 41.421,17.33 C41.568,17.184 41.569,16.947 41.423,16.801 C41.277,16.653 41.04,16.653 40.893,16.799 L40.832,16.858 C40.685,17.004 40.714,17.211 40.86,17.359 C40.926,17.425 41.017,17.456 41.11,17.456" id="Fill-26" fill="#000000"></path>
            <path d="M31.842,15.946 C31.877,15.959 31.913,15.965 31.949,15.965 C32.114,15.965 32.279,15.841 32.337,15.682 C32.408,15.487 32.308,15.272 32.113,15.201 C31.919,15.131 31.703,15.231 31.632,15.425 L31.603,15.507 C31.532,15.7 31.647,15.876 31.842,15.946" id="Fill-27" fill="#000000"></path>
            <path d="M7.286,30.706 C7.055,30.865 6.847,31.053 6.652,31.255 C6.702,31.038 6.743,30.819 6.797,30.604 C6.961,30.645 7.127,30.679 7.296,30.7 C7.293,30.703 7.289,30.703 7.286,30.706 Z M6.398,38.86 C6.221,39.07 6.074,39.304 5.944,39.547 C5.932,39.329 5.932,39.111 5.924,38.892 C6.089,38.888 6.251,38.865 6.415,38.842 C6.41,38.848 6.403,38.853 6.398,38.86 Z M6.493,43.724 C6.454,43.529 6.407,43.337 6.372,43.141 C6.516,43.117 6.662,43.104 6.803,43.066 C6.678,43.275 6.578,43.495 6.493,43.724 Z M6.72,47.473 C6.802,47.719 6.881,47.966 6.97,48.21 C6.734,48.007 6.489,47.817 6.227,47.653 C6.202,47.637 6.176,47.626 6.151,47.611 C6.343,47.582 6.532,47.532 6.72,47.473 Z M5.046,38.92 C5.089,38.92 5.132,38.913 5.175,38.912 C5.185,39.17 5.189,39.427 5.205,39.684 C5.033,39.423 4.848,39.17 4.639,38.94 C4.615,38.912 4.589,38.89 4.564,38.865 C4.725,38.885 4.88,38.92 5.046,38.92 Z M6.06,34.834 C6.155,34.844 6.249,34.861 6.345,34.864 C6.229,34.986 6.121,35.115 6.02,35.252 C6.032,35.112 6.046,34.973 6.06,34.834 Z M5.635,43.277 C5.678,43.515 5.734,43.751 5.783,43.989 C5.578,43.752 5.359,43.53 5.122,43.329 C5.293,43.323 5.464,43.305 5.635,43.277 Z M5.263,35.299 C5.168,35.095 5.054,34.903 4.938,34.712 C5.062,34.736 5.186,34.757 5.314,34.769 C5.296,34.945 5.278,35.121 5.263,35.299 Z M5.899,31.188 C5.809,30.896 5.705,30.609 5.572,30.336 C5.56,30.31 5.544,30.288 5.532,30.264 C5.704,30.333 5.882,30.389 6.067,30.433 C6.004,30.683 5.957,30.937 5.899,31.188 Z M7.892,47.12 C7.784,47.37 7.71,47.632 7.656,47.9 C7.579,47.686 7.508,47.468 7.436,47.252 C7.591,47.203 7.752,47.17 7.902,47.104 C7.899,47.111 7.894,47.115 7.892,47.12 Z M10.481,21.492 C10.596,22.546 10.386,23.613 9.866,24.6 C9.391,25.498 8.699,26.223 7.857,26.753 C7.766,26.81 7.682,26.877 7.587,26.929 C7.553,26.832 7.544,26.725 7.518,26.625 C7.281,25.69 7.397,24.641 7.896,23.697 C8.453,22.635 9.401,21.833 10.481,21.492 Z M4.441,24.133 C5.305,24.491 5.956,25.253 6.292,26.307 C6.624,27.355 6.61,28.527 6.254,29.715 C5.264,29.478 4.523,28.819 4.148,27.832 C3.728,26.739 3.84,25.376 4.441,24.133 Z M2.737,28.768 C3.649,29.011 4.409,29.675 4.899,30.666 C5.383,31.659 5.544,32.816 5.37,34.028 C4.356,33.925 3.525,33.374 3.006,32.447 C2.431,31.427 2.336,30.071 2.737,28.768 Z M1.784,33.297 C2.719,33.42 3.565,33.982 4.191,34.905 C4.809,35.821 5.128,36.943 5.122,38.17 C4.087,38.192 3.195,37.74 2.562,36.902 C1.852,35.965 1.569,34.637 1.784,33.297 Z M1.467,38.172 C1.468,38.172 1.469,38.172 1.469,38.172 C2.409,38.172 3.338,38.624 4.083,39.443 C4.829,40.266 5.308,41.335 5.482,42.549 C5.316,42.575 5.15,42.589 4.985,42.589 C4.158,42.589 3.39,42.258 2.763,41.632 C1.924,40.801 1.451,39.527 1.467,38.172 Z M1.853,42.972 C2.79,42.848 3.766,43.174 4.625,43.888 C5.481,44.607 6.112,45.605 6.463,46.787 C6.175,46.874 5.88,46.917 5.583,46.917 C4.903,46.917 4.231,46.681 3.638,46.235 C2.685,45.521 2.032,44.319 1.853,42.972 Z M6.847,51.195 C6.294,51.195 5.745,51.045 5.213,50.749 C4.174,50.177 3.328,49.046 2.951,47.748 C3.852,47.505 4.885,47.699 5.83,48.288 C6.786,48.887 7.564,49.794 8.094,50.925 C7.699,51.103 7.273,51.195 6.847,51.195 Z M10.66,48.54 C10.303,49.5 9.648,50.22 8.798,50.604 C8.755,50.515 8.711,50.428 8.67,50.34 C8.25,49.355 8.199,48.299 8.581,47.418 C8.963,46.526 9.71,45.903 10.705,45.64 C11.015,46.619 11.001,47.615 10.66,48.54 Z M9.36,44.777 C8.863,45.674 8.104,46.299 7.203,46.565 C7.164,46.439 7.132,46.31 7.095,46.182 C6.868,45.191 6.982,44.189 7.473,43.4 C7.986,42.57 8.818,42.054 9.84,41.927 C10.001,42.929 9.837,43.908 9.36,44.777 Z M9.529,38.194 C9.544,39.206 9.24,40.15 8.641,40.942 C8.022,41.759 7.186,42.274 6.26,42.425 C6.234,42.255 6.21,42.086 6.186,41.916 C6.137,40.952 6.399,40.027 6.974,39.339 C7.587,38.6 8.483,38.194 9.498,38.194 C9.508,38.194 9.519,38.194 9.529,38.194 Z M8.484,37.001 C7.755,37.721 6.843,38.125 5.905,38.15 C5.904,38.044 5.897,37.938 5.897,37.832 C5.951,36.797 6.354,35.839 7.067,35.195 C7.34,34.946 7.648,34.759 7.977,34.62 C8.018,34.604 8.057,34.582 8.098,34.567 C8.456,34.433 8.841,34.362 9.245,34.362 C9.416,34.362 9.59,34.375 9.764,34.4 C9.63,35.403 9.191,36.297 8.484,37.001 Z M8.861,33.294 C8.035,33.923 7.073,34.211 6.13,34.108 C6.14,34.031 6.157,33.953 6.167,33.876 C6.348,32.821 6.892,31.888 7.712,31.324 C8.526,30.761 9.517,30.605 10.493,30.872 C10.219,31.853 9.66,32.686 8.861,33.294 Z M9.819,29.451 C8.921,29.956 7.908,30.114 7.001,29.896 C7.02,29.827 7.04,29.759 7.06,29.692 C7.394,28.66 8.079,27.799 8.983,27.341 C9.867,26.895 10.876,26.871 11.803,27.262 C11.381,28.202 10.7,28.954 9.819,29.451 Z M12.636,27.208 C12.702,27.031 12.627,26.834 12.461,26.745 C11.527,26.248 10.48,26.119 9.501,26.359 C9.897,25.938 10.251,25.474 10.529,24.95 C11.194,23.686 11.413,22.304 11.16,20.956 C11.141,20.856 11.084,20.769 11,20.713 C10.916,20.657 10.814,20.636 10.715,20.657 C9.259,20.959 7.958,21.965 7.233,23.347 C6.908,23.963 6.722,24.619 6.663,25.273 C6.148,24.302 5.345,23.601 4.365,23.312 C4.196,23.261 4.016,23.336 3.931,23.49 C3.098,24.996 2.917,26.72 3.447,28.1 C3.468,28.154 3.496,28.202 3.518,28.256 C3.211,28.116 2.888,28.016 2.547,27.963 C2.368,27.934 2.2,28.036 2.138,28.202 C1.572,29.728 1.627,31.365 2.265,32.633 C2.01,32.572 1.752,32.529 1.488,32.522 C1.27,32.517 1.15,32.641 1.112,32.817 C0.748,34.474 1.066,36.171 1.964,37.354 C1.998,37.399 2.041,37.431 2.076,37.473 C1.744,37.42 1.406,37.407 1.066,37.444 C0.886,37.463 0.746,37.609 0.733,37.79 C0.614,39.48 1.175,41.116 2.234,42.164 C2.247,42.177 2.263,42.186 2.276,42.199 C1.966,42.197 1.658,42.229 1.355,42.303 C1.178,42.347 1.058,42.513 1.071,42.696 C1.195,44.387 1.987,45.934 3.187,46.835 C3.231,46.867 3.278,46.89 3.323,46.923 C2.993,46.957 2.67,47.033 2.364,47.154 C2.191,47.221 2.095,47.404 2.135,47.584 C2.508,49.245 3.523,50.674 4.849,51.405 C5.493,51.763 6.165,51.945 6.847,51.945 C7.395,51.945 7.937,51.817 8.44,51.584 C9.042,52.76 9.72,53.901 10.484,54.989 C10.557,55.093 10.673,55.149 10.792,55.149 C10.866,55.149 10.941,55.128 11.006,55.082 C11.176,54.962 11.217,54.728 11.098,54.558 C10.357,53.502 9.699,52.396 9.114,51.256 C10.128,50.787 10.944,49.928 11.363,48.801 C11.804,47.605 11.781,46.314 11.297,45.068 C11.231,44.901 11.057,44.803 10.88,44.834 C10.583,44.888 10.307,44.981 10.04,45.087 C10.635,43.974 10.801,42.717 10.51,41.442 C10.469,41.265 10.321,41.144 10.127,41.151 C9.848,41.162 9.581,41.206 9.32,41.265 C10.033,40.264 10.365,39.075 10.261,37.806 C10.246,37.624 10.103,37.48 9.921,37.463 C9.63,37.436 9.344,37.445 9.063,37.473 C9.945,36.569 10.46,35.412 10.544,34.119 C10.557,33.934 10.434,33.77 10.254,33.729 C10.035,33.678 9.815,33.651 9.597,33.634 C10.464,32.869 11.062,31.871 11.307,30.699 C11.345,30.516 11.244,30.335 11.07,30.271 C10.8,30.171 10.526,30.106 10.251,30.061 C11.352,29.42 12.178,28.438 12.636,27.208 Z" id="Fill-28" fill="#000000"></path>
            <path d="M69.676,46.787 C70.027,45.604 70.658,44.607 71.513,43.889 C72.372,43.174 73.347,42.848 74.286,42.972 C74.106,44.319 73.453,45.521 72.501,46.235 C71.65,46.876 70.627,47.07 69.676,46.787 Z M69.912,47.653 C69.65,47.817 69.405,48.007 69.169,48.21 C69.257,47.966 69.336,47.72 69.419,47.473 C69.607,47.532 69.796,47.582 69.988,47.611 C69.963,47.626 69.937,47.637 69.912,47.653 Z M69.767,43.14 C69.732,43.336 69.685,43.529 69.646,43.723 C69.561,43.495 69.46,43.274 69.336,43.066 C69.477,43.105 69.623,43.117 69.767,43.14 Z M70.215,38.892 C70.207,39.111 70.207,39.328 70.195,39.547 C70.065,39.304 69.919,39.071 69.742,38.861 C69.737,38.854 69.73,38.848 69.725,38.842 C69.887,38.865 70.05,38.888 70.215,38.892 Z M69.341,30.604 C69.396,30.819 69.437,31.038 69.487,31.255 C69.293,31.053 69.085,30.866 68.854,30.708 C68.85,30.704 68.846,30.702 68.842,30.7 C69.011,30.679 69.177,30.645 69.341,30.604 Z M71.498,38.94 C71.29,39.171 71.106,39.423 70.935,39.684 C70.95,39.427 70.955,39.17 70.963,38.912 C71.006,38.913 71.049,38.92 71.093,38.92 C71.258,38.92 71.414,38.885 71.575,38.865 C71.55,38.89 71.523,38.914 71.498,38.94 Z M70.504,43.277 C70.675,43.305 70.846,43.323 71.017,43.329 C70.78,43.529 70.561,43.752 70.355,43.989 C70.404,43.752 70.46,43.515 70.504,43.277 Z M70.119,35.252 C70.019,35.115 69.911,34.986 69.794,34.864 C69.89,34.861 69.984,34.844 70.079,34.834 C70.093,34.973 70.107,35.112 70.119,35.252 Z M70.072,30.433 C70.256,30.389 70.436,30.333 70.607,30.263 C70.594,30.288 70.579,30.312 70.566,30.337 C70.433,30.61 70.33,30.896 70.239,31.188 C70.183,30.936 70.135,30.683 70.072,30.433 Z M70.825,34.769 C70.953,34.757 71.078,34.736 71.201,34.712 C71.085,34.903 70.971,35.095 70.876,35.299 C70.861,35.121 70.843,34.945 70.825,34.769 Z M68.248,47.122 C68.245,47.115 68.24,47.111 68.237,47.104 C68.386,47.17 68.547,47.203 68.703,47.252 C68.63,47.468 68.561,47.686 68.483,47.9 C68.428,47.633 68.355,47.37 68.248,47.122 Z M74.671,38.172 C74.688,39.527 74.215,40.801 73.376,41.633 C72.624,42.382 71.654,42.708 70.657,42.549 C70.831,41.334 71.311,40.266 72.054,39.444 C72.801,38.624 73.729,38.172 74.669,38.172 C74.669,38.172 74.67,38.172 74.671,38.172 Z M73.576,36.903 C72.943,37.741 72.024,38.191 71.017,38.17 C71.011,36.945 71.33,35.821 71.948,34.906 C72.574,33.982 73.419,33.42 74.355,33.297 C74.57,34.637 74.287,35.965 73.576,36.903 Z M73.132,32.449 C72.613,33.374 71.782,33.925 70.769,34.028 C70.594,32.817 70.755,31.66 71.239,30.668 C71.73,29.675 72.49,29.011 73.401,28.768 C73.803,30.071 73.708,31.427 73.132,32.449 Z M71.697,24.133 C72.298,25.376 72.411,26.739 71.99,27.833 C71.616,28.82 70.874,29.478 69.884,29.715 C69.529,28.525 69.515,27.354 69.847,26.307 C70.183,25.253 70.834,24.491 71.697,24.133 Z M65.658,21.492 C66.738,21.833 67.686,22.635 68.243,23.698 C68.742,24.641 68.858,25.69 68.621,26.625 C68.595,26.725 68.585,26.832 68.551,26.929 C68.456,26.877 68.373,26.81 68.282,26.753 C67.439,26.223 66.747,25.498 66.273,24.6 C65.753,23.613 65.543,22.546 65.658,21.492 Z M64.335,27.262 C65.263,26.87 66.273,26.895 67.155,27.341 C68.062,27.8 68.747,28.662 69.081,29.695 C69.1,29.762 69.12,29.828 69.138,29.896 C68.233,30.114 67.217,29.956 66.32,29.452 C65.438,28.954 64.758,28.203 64.335,27.262 Z M65.646,30.872 C66.623,30.605 67.613,30.76 68.428,31.324 C69.244,31.886 69.787,32.814 69.97,33.866 C69.981,33.947 69.998,34.027 70.009,34.108 C69.068,34.21 68.104,33.923 67.278,33.294 C66.479,32.686 65.919,31.853 65.646,30.872 Z M66.376,34.4 C67.386,34.257 68.35,34.536 69.072,35.195 C69.784,35.837 70.187,36.792 70.242,37.825 C70.242,37.933 70.235,38.041 70.234,38.15 C69.296,38.125 68.383,37.721 67.656,37.002 C66.947,36.297 66.508,35.403 66.376,34.4 Z M66.609,38.194 C67.653,38.181 68.545,38.593 69.165,39.34 C69.739,40.027 70.001,40.951 69.954,41.914 C69.93,42.084 69.905,42.254 69.878,42.424 C68.953,42.274 68.117,41.759 67.498,40.943 C66.898,40.15 66.594,39.206 66.609,38.194 Z M66.298,41.927 C67.32,42.054 68.153,42.57 68.667,43.402 C69.157,44.189 69.272,45.192 69.044,46.184 C69.006,46.312 68.975,46.44 68.936,46.565 C68.035,46.299 67.277,45.674 66.779,44.777 C66.302,43.909 66.138,42.93 66.298,41.927 Z M65.434,45.64 C66.428,45.903 67.176,46.526 67.559,47.42 C67.941,48.302 67.889,49.36 67.466,50.347 C67.425,50.433 67.382,50.519 67.341,50.605 C66.491,50.22 65.836,49.5 65.479,48.541 C65.138,47.615 65.123,46.619 65.434,45.64 Z M73.188,47.748 C72.811,49.046 71.964,50.177 70.925,50.75 C69.983,51.273 68.952,51.332 68.045,50.925 C68.575,49.794 69.353,48.887 70.309,48.288 C71.253,47.699 72.284,47.504 73.188,47.748 Z M75.068,42.696 C75.082,42.513 74.961,42.347 74.784,42.303 C74.481,42.229 74.173,42.197 73.863,42.199 C73.877,42.187 73.891,42.178 73.904,42.165 C74.963,41.115 75.525,39.48 75.406,37.79 C75.393,37.609 75.252,37.463 75.072,37.444 C74.733,37.407 74.395,37.42 74.061,37.474 C74.097,37.432 74.14,37.4 74.174,37.355 C75.072,36.171 75.391,34.474 75.027,32.817 C74.989,32.641 74.84,32.517 74.651,32.522 C74.387,32.529 74.128,32.572 73.874,32.633 C74.513,31.365 74.567,29.728 74.001,28.202 C73.939,28.036 73.766,27.934 73.591,27.963 C73.251,28.016 72.927,28.116 72.621,28.256 C72.643,28.203 72.67,28.154 72.691,28.1 C73.221,26.72 73.04,24.996 72.209,23.49 C72.123,23.336 71.943,23.261 71.774,23.312 C70.779,23.607 69.987,24.292 69.476,25.268 C69.416,24.616 69.231,23.962 68.907,23.348 C68.181,21.965 66.879,20.959 65.424,20.657 C65.325,20.636 65.223,20.657 65.14,20.713 C65.056,20.769 64.998,20.856 64.98,20.954 C64.726,22.304 64.944,23.686 65.61,24.951 C65.887,25.474 66.241,25.938 66.636,26.358 C65.658,26.119 64.611,26.248 63.678,26.745 C63.512,26.834 63.437,27.031 63.502,27.208 C63.96,28.438 64.787,29.42 65.887,30.061 C65.613,30.106 65.339,30.171 65.07,30.271 C64.896,30.335 64.795,30.516 64.833,30.699 C65.076,31.87 65.675,32.869 66.542,33.634 C66.324,33.651 66.105,33.679 65.885,33.729 C65.706,33.77 65.583,33.934 65.595,34.118 C65.678,35.411 66.193,36.568 67.076,37.472 C66.795,37.445 66.509,37.436 66.217,37.463 C66.036,37.48 65.893,37.624 65.878,37.806 C65.774,39.075 66.106,40.263 66.819,41.265 C66.558,41.205 66.29,41.162 66.011,41.151 C65.814,41.144 65.669,41.265 65.629,41.442 C65.338,42.717 65.504,43.974 66.099,45.087 C65.832,44.981 65.556,44.888 65.258,44.834 C65.079,44.802 64.907,44.901 64.842,45.068 C64.357,46.314 64.335,47.605 64.776,48.802 C65.195,49.929 66.011,50.787 67.025,51.257 C66.44,52.396 65.782,53.502 65.041,54.558 C64.922,54.728 64.963,54.962 65.133,55.082 C65.198,55.128 65.273,55.149 65.348,55.149 C65.466,55.149 65.582,55.093 65.655,54.989 C66.419,53.901 67.096,52.76 67.699,51.584 C68.202,51.817 68.745,51.945 69.292,51.945 C69.974,51.945 70.646,51.763 71.289,51.406 C72.615,50.674 73.63,49.246 74.004,47.585 C74.044,47.404 73.948,47.221 73.775,47.154 C73.468,47.032 73.146,46.957 72.816,46.922 C72.86,46.89 72.908,46.868 72.951,46.836 C74.152,45.934 74.943,44.387 75.068,42.696 Z" id="Fill-29" fill="#000000"></path>
            <path d="M17.349,62.535 C17.091,62.535 16.881,62.324 16.881,62.066 C16.881,61.808 17.091,61.599 17.349,61.599 C17.607,61.599 17.817,61.808 17.817,62.066 C17.817,62.324 17.607,62.535 17.349,62.535 Z M17.349,60.848 C16.678,60.848 16.131,61.395 16.131,62.066 C16.131,62.738 16.678,63.284 17.349,63.284 C18.021,63.284 18.567,62.738 18.567,62.066 C18.567,61.395 18.021,60.848 17.349,60.848 Z" id="Fill-30" fill="#000000"></path>
            <path d="M58.79,62.535 C58.532,62.535 58.322,62.324 58.322,62.066 C58.322,61.808 58.532,61.599 58.79,61.599 C59.047,61.599 59.257,61.808 59.257,62.066 C59.257,62.324 59.047,62.535 58.79,62.535 Z M58.79,60.848 C58.118,60.848 57.572,61.395 57.572,62.066 C57.572,62.738 58.118,63.284 58.79,63.284 C59.461,63.284 60.007,62.738 60.007,62.066 C60.007,61.395 59.461,60.848 58.79,60.848 Z" id="Fill-31" fill="#000000"></path>
        </g>
    </g>
</svg>