<?xml version="1.0" encoding="UTF-8"?>
<svg width="69px" height="84px" viewBox="0 0 69 84" version="1.1" xmlns="http://www.w3.org/2000/svg" xmlns:xlink="http://www.w3.org/1999/xlink">
    <!-- Generator: Sketch 49 (51002) - http://www.bohemiancoding.com/sketch -->
    <title>bitcoin-grey-20</title>
    <desc>Created with Sketch.</desc>
    <defs></defs>
    <g id="Page-1" stroke="none" stroke-width="1" fill="none" fill-rule="evenodd">
        <g id="bitcoin-grey-20" fill="#000000">
            <path d="M61.721,50.53 L50.013,50.53 L45.667,48.403 C45.48,48.312 45.257,48.389 45.165,48.575 C45.074,48.761 45.151,48.985 45.337,49.076 L49.761,51.242 C49.812,51.266 49.869,51.281 49.926,51.281 L61.721,51.281 C62.775,51.281 63.633,52.137 63.633,53.191 C63.633,53.993 62.98,54.646 62.178,54.646 C61.577,54.646 61.088,54.158 61.088,53.557 C61.088,53.119 61.446,52.763 61.886,52.763 C62.195,52.763 62.446,53.015 62.446,53.323 C62.446,53.531 62.614,53.699 62.821,53.699 C63.028,53.699 63.196,53.531 63.196,53.323 C63.196,52.6 62.608,52.012 61.886,52.012 C61.032,52.012 60.338,52.705 60.338,53.557 C60.338,54.572 61.163,55.396 62.178,55.396 C63.394,55.396 64.383,54.407 64.383,53.191 C64.383,51.723 63.188,50.53 61.721,50.53" id="Fill-1"></path>
            <path d="M8.118,36.588 L19.825,36.588 L24.467,38.86 C24.52,38.885 24.576,38.898 24.631,38.898 C24.77,38.898 24.903,38.821 24.969,38.688 C25.06,38.502 24.982,38.277 24.797,38.185 L20.077,35.876 C20.025,35.85 19.969,35.838 19.912,35.838 L8.118,35.838 C7.063,35.838 6.205,34.98 6.205,33.926 C6.205,33.124 6.857,32.471 7.66,32.471 C8.261,32.471 8.75,32.96 8.75,33.56 C8.75,33.998 8.392,34.356 7.952,34.356 C7.643,34.356 7.392,34.104 7.392,33.794 C7.392,33.587 7.224,33.419 7.017,33.419 C6.81,33.419 6.642,33.587 6.642,33.794 C6.642,34.516 7.23,35.105 7.952,35.105 C8.806,35.105 9.5,34.411 9.5,33.56 C9.5,32.546 8.675,31.721 7.66,31.721 C6.444,31.721 5.455,32.71 5.455,33.926 C5.455,35.393 6.649,36.588 8.118,36.588" id="Fill-2"></path>
            <path d="M45.503,38.754 C45.559,38.754 45.614,38.741 45.668,38.716 L50.013,36.588 L61.721,36.588 C63.188,36.588 64.383,35.393 64.383,33.926 C64.383,32.71 63.394,31.721 62.178,31.721 C61.163,31.721 60.338,32.546 60.338,33.56 C60.338,34.411 61.032,35.105 61.886,35.105 C62.608,35.105 63.196,34.516 63.196,33.794 C63.196,33.587 63.028,33.419 62.821,33.419 C62.614,33.419 62.446,33.587 62.446,33.794 C62.446,34.104 62.195,34.356 61.886,34.356 C61.446,34.356 61.088,33.998 61.088,33.56 C61.088,32.96 61.577,32.471 62.178,32.471 C62.98,32.471 63.633,33.124 63.633,33.926 C63.633,34.98 62.775,35.838 61.721,35.838 L49.926,35.838 C49.869,35.838 49.812,35.85 49.761,35.876 L45.338,38.042 C45.151,38.133 45.075,38.358 45.166,38.544 C45.231,38.677 45.364,38.754 45.503,38.754" id="Fill-3"></path>
            <path d="M24.467,48.259 L19.825,50.53 L8.118,50.53 C6.65,50.53 5.456,51.723 5.456,53.191 C5.456,54.407 6.444,55.396 7.66,55.396 C8.675,55.396 9.5,54.572 9.5,53.557 C9.5,52.705 8.806,52.012 7.953,52.012 C7.23,52.012 6.642,52.6 6.642,53.323 C6.642,53.531 6.81,53.699 7.017,53.699 C7.224,53.699 7.392,53.531 7.392,53.323 C7.392,53.014 7.644,52.763 7.953,52.763 C8.393,52.763 8.75,53.119 8.75,53.557 C8.75,54.158 8.261,54.646 7.66,54.646 C6.858,54.646 6.206,53.993 6.206,53.191 C6.206,52.137 7.063,51.281 8.118,51.281 L19.912,51.281 C19.97,51.281 20.025,51.266 20.077,51.242 L24.797,48.932 C24.983,48.841 25.06,48.616 24.969,48.431 C24.878,48.244 24.654,48.168 24.467,48.259" id="Fill-4"></path>
            <path d="M48.672,19.538 C48.408,20.9 47.082,21.839 45.674,21.567 C45.002,21.438 44.422,21.055 44.038,20.489 C43.655,19.923 43.516,19.24 43.645,18.568 C43.876,17.367 44.933,16.494 46.155,16.494 C46.316,16.494 46.479,16.509 46.643,16.541 C48.029,16.808 48.939,18.154 48.672,19.538 Z M42.908,18.427 C42.741,19.295 42.922,20.177 43.417,20.908 C43.913,21.64 44.664,22.136 45.531,22.303 C45.743,22.344 45.954,22.364 46.162,22.364 C47.742,22.364 49.107,21.236 49.408,19.681 C49.754,17.889 48.577,16.151 46.785,15.804 C44.963,15.452 43.247,16.668 42.908,18.427 Z" id="Fill-5"></path>
            <path d="M46.648,18.254 C46.713,18.266 46.772,18.305 46.81,18.361 C46.847,18.416 46.86,18.485 46.848,18.549 C46.821,18.686 46.687,18.775 46.554,18.749 L45.748,18.593 L45.843,18.099 L46.648,18.254 Z M46.799,19.999 C46.747,20.033 46.686,20.042 46.626,20.034 C46.605,20.026 46.587,20.013 46.564,20.008 C46.53,20.002 46.498,20.007 46.466,20.009 L45.597,19.841 C45.597,19.841 45.597,19.841 45.596,19.841 L45.511,19.824 L45.606,19.329 L46.412,19.485 L46.705,19.542 C46.841,19.568 46.931,19.7 46.904,19.839 C46.892,19.903 46.854,19.962 46.799,19.999 Z M47.374,19.116 C47.472,18.993 47.553,18.856 47.584,18.693 C47.635,18.432 47.578,18.159 47.431,17.94 C47.411,17.911 47.38,17.895 47.358,17.868 L47.461,17.335 C47.5,17.132 47.367,16.934 47.164,16.896 C46.96,16.856 46.764,16.99 46.725,17.193 L46.667,17.493 L46.438,17.449 L46.492,17.168 C46.531,16.965 46.398,16.767 46.195,16.729 C45.99,16.689 45.795,16.823 45.756,17.027 L45.702,17.307 L45.618,17.291 C45.617,17.291 45.617,17.29 45.617,17.29 C45.616,17.29 45.616,17.29 45.615,17.29 L45.236,17.217 C45.027,17.177 44.836,17.31 44.797,17.514 C44.758,17.717 44.891,17.914 45.094,17.953 L45.107,17.955 L44.774,19.682 L44.762,19.679 C44.563,19.64 44.362,19.773 44.322,19.976 C44.283,20.18 44.416,20.376 44.619,20.416 L44.999,20.489 C45,20.489 45,20.49 45.001,20.49 C45.002,20.491 45.003,20.49 45.005,20.491 L45.084,20.507 L45.029,20.786 C44.99,20.99 45.122,21.187 45.326,21.226 C45.35,21.232 45.374,21.234 45.398,21.234 C45.574,21.234 45.731,21.11 45.766,20.931 L45.821,20.649 L46.051,20.693 L46,20.954 C45.961,21.158 46.094,21.355 46.298,21.393 C46.321,21.399 46.346,21.401 46.369,21.401 C46.545,21.401 46.702,21.277 46.736,21.096 L46.799,20.772 C46.947,20.75 47.092,20.705 47.22,20.619 C47.437,20.471 47.592,20.238 47.641,19.978 C47.691,19.715 47.637,19.449 47.487,19.228 C47.457,19.182 47.411,19.155 47.374,19.116 Z" id="Fill-6"></path>
            <path d="M25.862,65.847 C26.436,66.221 26.828,66.795 26.969,67.465 C27.109,68.133 26.98,68.817 26.607,69.389 C25.863,70.531 24.215,70.885 23.064,70.134 C21.883,69.363 21.549,67.774 22.32,66.593 C22.795,65.865 23.598,65.431 24.467,65.431 C24.963,65.431 25.445,65.575 25.862,65.847 Z M22.654,70.762 C23.194,71.115 23.819,71.301 24.461,71.301 C25.585,71.301 26.622,70.739 27.235,69.799 C27.719,69.058 27.885,68.175 27.702,67.31 C27.521,66.444 27.013,65.703 26.272,65.219 C25.733,64.867 25.108,64.681 24.467,64.681 C23.343,64.681 22.306,65.242 21.692,66.182 C20.695,67.711 21.127,69.765 22.654,70.762 Z" id="Fill-7"></path>
            <path d="M25.47,67.596 C25.526,67.633 25.565,67.689 25.579,67.755 C25.592,67.816 25.576,67.876 25.547,67.929 C25.531,67.944 25.513,67.956 25.501,67.976 C25.482,68.003 25.476,68.034 25.465,68.064 L24.932,68.881 L24.511,68.606 L24.51,68.606 L24.96,67.916 L25.121,67.669 C25.197,67.553 25.354,67.52 25.47,67.596 Z M24.366,67.321 C24.38,67.385 24.366,67.452 24.331,67.507 L23.882,68.197 L23.46,67.921 L23.907,67.235 C23.944,67.179 24.001,67.14 24.066,67.126 C24.132,67.113 24.201,67.125 24.258,67.162 C24.314,67.199 24.353,67.256 24.366,67.321 Z M22.955,66.761 L23.211,66.929 L23.083,67.125 L22.844,66.969 C22.671,66.856 22.439,66.905 22.325,67.077 C22.212,67.252 22.261,67.484 22.435,67.597 L22.674,67.753 L22.627,67.823 L22.627,67.824 C22.626,67.825 22.626,67.825 22.626,67.825 L22.415,68.15 C22.302,68.323 22.351,68.556 22.523,68.669 C22.698,68.782 22.93,68.733 23.043,68.56 L23.05,68.549 L24.521,69.509 L24.515,69.52 C24.401,69.693 24.45,69.925 24.623,70.038 C24.687,70.08 24.758,70.1 24.828,70.1 C24.95,70.1 25.07,70.04 25.143,69.93 L25.353,69.608 C25.354,69.607 25.354,69.607 25.355,69.606 C25.356,69.604 25.356,69.603 25.356,69.602 L25.401,69.533 L25.643,69.69 C25.706,69.732 25.777,69.752 25.848,69.752 C25.97,69.752 26.09,69.692 26.162,69.582 C26.275,69.408 26.227,69.177 26.054,69.063 L25.812,68.905 L25.939,68.71 L26.163,68.856 C26.227,68.898 26.298,68.917 26.368,68.917 C26.49,68.917 26.61,68.858 26.683,68.748 C26.796,68.574 26.747,68.342 26.573,68.228 L26.296,68.047 C26.332,67.902 26.345,67.752 26.313,67.6 C26.258,67.339 26.104,67.113 25.879,66.967 C25.6,66.786 25.271,66.778 24.981,66.887 C24.903,66.749 24.804,66.624 24.666,66.533 C24.441,66.387 24.174,66.337 23.912,66.391 C23.879,66.399 23.853,66.421 23.82,66.431 L23.366,66.134 C23.192,66.02 22.96,66.069 22.847,66.243 C22.733,66.416 22.782,66.648 22.955,66.761 Z" id="Fill-8"></path>
            <path d="M24.603,16.522 C25.614,17.507 25.637,19.131 24.653,20.141 C23.7,21.121 22.013,21.145 21.033,20.193 C20.021,19.208 20,17.584 20.983,16.573 C21.471,16.073 22.122,15.798 22.818,15.798 C23.488,15.798 24.122,16.055 24.603,16.522 Z M22.817,21.667 C23.72,21.667 24.563,21.31 25.19,20.664 C26.463,19.358 26.434,17.258 25.126,15.985 C23.858,14.752 21.681,14.781 20.446,16.049 C19.174,17.358 19.202,19.457 20.511,20.73 C21.132,21.334 21.951,21.667 22.817,21.667 Z" id="Fill-9"></path>
            <path d="M23.525,18.168 C23.622,18.07 23.781,18.066 23.882,18.164 C23.931,18.211 23.957,18.273 23.958,18.34 C23.959,18.407 23.934,18.471 23.888,18.518 L23.884,18.523 C23.87,18.533 23.851,18.53 23.839,18.542 C23.826,18.555 23.831,18.573 23.82,18.587 L23.106,19.322 L22.745,18.971 L22.745,18.97 L23.318,18.381 L23.525,18.168 Z M21.907,18.033 L21.907,18.032 L22.417,17.507 C22.465,17.46 22.527,17.432 22.594,17.431 C22.683,17.427 22.727,17.456 22.774,17.503 C22.874,17.6 22.876,17.759 22.78,17.858 L22.207,18.447 L21.846,18.095 L21.903,18.036 C21.904,18.035 21.906,18.035 21.907,18.033 Z M20.902,17.58 L21.106,17.779 L20.776,18.119 C20.632,18.267 20.636,18.505 20.784,18.65 C20.933,18.794 21.17,18.791 21.314,18.641 L21.323,18.633 L22.583,19.859 L22.574,19.868 C22.43,20.016 22.433,20.254 22.581,20.398 C22.654,20.469 22.749,20.505 22.843,20.505 C22.94,20.505 23.038,20.466 23.111,20.391 L23.382,20.113 L23.383,20.113 L23.442,20.051 L23.647,20.252 C23.721,20.323 23.815,20.358 23.909,20.358 C24.007,20.358 24.105,20.32 24.178,20.244 C24.322,20.096 24.319,19.859 24.171,19.715 L23.966,19.514 L24.129,19.347 L24.32,19.532 C24.393,19.604 24.487,19.639 24.581,19.639 C24.679,19.639 24.776,19.6 24.851,19.525 C24.994,19.376 24.991,19.139 24.843,18.995 L24.604,18.763 C24.669,18.628 24.71,18.482 24.708,18.33 C24.705,18.064 24.597,17.813 24.404,17.625 C24.166,17.393 23.844,17.323 23.539,17.375 C23.49,17.226 23.418,17.083 23.298,16.965 C23.104,16.779 22.825,16.677 22.584,16.681 C22.55,16.681 22.519,16.698 22.485,16.702 L22.097,16.324 C21.949,16.18 21.712,16.182 21.566,16.332 C21.422,16.48 21.426,16.717 21.574,16.862 L21.792,17.075 L21.63,17.241 L21.425,17.042 C21.276,16.898 21.039,16.902 20.895,17.05 C20.75,17.199 20.754,17.435 20.902,17.58 Z" id="Fill-10"></path>
            <path d="M27.896,3.766 C28.417,3.766 28.918,3.924 29.348,4.22 C30.509,5.022 30.802,6.62 30,7.781 C29.226,8.9 27.564,9.21 26.439,8.432 C25.277,7.631 24.985,6.032 25.787,4.871 C26.266,4.18 27.054,3.766 27.896,3.766 Z M26.013,9.05 C26.568,9.433 27.218,9.636 27.891,9.636 C28.98,9.636 29.999,9.102 30.617,8.208 C31.653,6.706 31.275,4.64 29.774,3.604 C29.219,3.22 28.569,3.016 27.896,3.016 C26.808,3.016 25.789,3.551 25.17,4.445 C24.133,5.947 24.511,8.012 26.013,9.05 Z" id="Fill-11"></path>
            <path d="M27.276,6.356 L27.956,6.824 L28.198,6.991 C28.313,7.07 28.342,7.228 28.262,7.343 C28.224,7.398 28.165,7.436 28.101,7.447 C28.04,7.458 27.978,7.442 27.926,7.41 C27.91,7.394 27.899,7.376 27.881,7.363 C27.856,7.345 27.826,7.339 27.798,7.327 L26.99,6.77 L27.276,6.356 Z M28.06,5.372 C28.06,5.372 28.06,5.374 28.061,5.374 C28.061,5.374 28.061,5.374 28.062,5.374 L28.664,5.79 C28.778,5.869 28.808,6.027 28.729,6.14 C28.69,6.197 28.632,6.235 28.566,6.246 C28.501,6.258 28.435,6.243 28.381,6.205 L27.703,5.738 L27.989,5.324 L28.06,5.372 Z M25.937,6.954 L26.252,7.172 C26.253,7.173 26.253,7.174 26.255,7.174 L26.257,7.175 L26.327,7.223 L26.164,7.46 C26.047,7.631 26.09,7.865 26.26,7.982 C26.325,8.027 26.399,8.049 26.473,8.049 C26.592,8.049 26.709,7.991 26.781,7.886 L26.944,7.65 L27.137,7.783 L26.984,8.003 C26.867,8.173 26.91,8.407 27.08,8.524 C27.146,8.569 27.22,8.59 27.293,8.59 C27.412,8.59 27.529,8.534 27.602,8.428 L27.787,8.16 C27.875,8.184 27.966,8.201 28.058,8.201 C28.117,8.201 28.177,8.195 28.235,8.184 C28.494,8.138 28.729,7.986 28.881,7.766 C29.068,7.493 29.085,7.164 28.982,6.872 C29.124,6.798 29.253,6.702 29.346,6.566 C29.523,6.31 29.55,6.003 29.47,5.723 L29.778,5.277 C29.897,5.106 29.854,4.872 29.684,4.755 C29.511,4.637 29.279,4.68 29.161,4.85 L28.987,5.101 L28.796,4.969 L28.958,4.735 C29.076,4.564 29.033,4.33 28.863,4.212 C28.691,4.094 28.459,4.137 28.341,4.307 L28.179,4.544 L28.108,4.494 L28.107,4.493 C28.106,4.493 28.105,4.493 28.105,4.493 L27.788,4.274 C27.617,4.156 27.385,4.199 27.267,4.369 C27.149,4.54 27.192,4.773 27.362,4.89 L27.372,4.898 L26.373,6.344 L26.363,6.338 C26.192,6.22 25.96,6.263 25.842,6.433 C25.725,6.604 25.768,6.837 25.937,6.954 Z" id="Fill-12"></path>
            <path d="M40.743,2.54 C42.236,2.54 43.55,3.494 44.012,4.917 C44.597,6.719 43.606,8.661 41.804,9.247 C41.458,9.361 41.101,9.417 40.74,9.417 C39.248,9.417 37.935,8.462 37.473,7.04 C36.888,5.236 37.878,3.294 39.68,2.708 C40.025,2.596 40.383,2.54 40.743,2.54 Z M40.74,10.167 C41.179,10.167 41.614,10.097 42.035,9.961 C44.231,9.248 45.438,6.881 44.725,4.686 C44.163,2.952 42.563,1.79 40.743,1.79 C40.305,1.79 39.869,1.859 39.448,1.995 C37.253,2.708 36.046,5.075 36.759,7.272 C37.322,9.004 38.922,10.167 40.74,10.167 Z" id="Fill-13"></path>
            <path d="M40.143,6.568 L40.821,6.347 L41.633,6.084 C41.864,6.009 42.112,6.135 42.188,6.369 C42.225,6.48 42.215,6.598 42.162,6.703 C42.108,6.807 42.018,6.885 41.906,6.922 L41.492,7.056 C41.49,7.057 41.487,7.056 41.485,7.057 C41.483,7.057 41.481,7.06 41.479,7.06 L40.638,7.334 C40.635,7.335 40.632,7.334 40.629,7.335 C40.626,7.336 40.623,7.339 40.62,7.339 L40.415,7.406 L40.143,6.568 Z M40.761,4.654 C40.992,4.578 41.239,4.706 41.315,4.937 C41.351,5.048 41.341,5.169 41.289,5.272 C41.236,5.375 41.144,5.454 41.033,5.489 L39.911,5.854 L39.64,5.017 L40.761,4.654 Z M38.333,5.049 C38.397,5.244 38.607,5.354 38.806,5.288 L38.927,5.249 L39.69,7.6 L39.702,7.637 L39.69,7.641 L39.581,7.677 C39.384,7.741 39.276,7.952 39.34,8.149 C39.392,8.307 39.538,8.408 39.696,8.408 C39.734,8.408 39.773,8.402 39.813,8.39 L40.506,8.164 L40.655,8.624 C40.707,8.781 40.854,8.882 41.012,8.882 C41.051,8.882 41.09,8.876 41.129,8.863 C41.325,8.799 41.433,8.587 41.368,8.39 L41.219,7.933 L41.359,7.887 L41.508,8.345 C41.559,8.504 41.706,8.605 41.864,8.605 C41.902,8.605 41.941,8.598 41.979,8.587 C42.177,8.523 42.285,8.312 42.222,8.115 L42.073,7.656 L42.138,7.635 C42.44,7.536 42.686,7.327 42.83,7.044 C42.975,6.761 43,6.438 42.9,6.135 C42.767,5.723 42.422,5.452 42.027,5.362 C42.082,5.145 42.098,4.92 42.027,4.703 C41.86,4.189 41.371,3.886 40.855,3.903 L40.687,3.381 C40.623,3.183 40.411,3.075 40.214,3.139 C40.017,3.202 39.909,3.414 39.973,3.612 L40.122,4.073 L39.981,4.119 L39.832,3.658 C39.769,3.461 39.556,3.353 39.359,3.416 C39.162,3.48 39.055,3.692 39.118,3.889 L39.268,4.35 L39.059,4.418 C39.057,4.42 39.054,4.418 39.052,4.42 C39.049,4.42 39.047,4.423 39.045,4.423 L38.574,4.576 C38.377,4.64 38.27,4.852 38.333,5.049 Z" id="Fill-14"></path>
            <path d="M31.331,16.497 C31.534,14.584 33.138,13.14 35.06,13.14 C35.193,13.14 35.328,13.147 35.465,13.161 C36.462,13.268 37.358,13.756 37.989,14.536 C38.619,15.317 38.907,16.297 38.801,17.294 C38.584,19.342 36.755,20.853 34.668,20.632 C33.67,20.525 32.773,20.036 32.143,19.257 C31.513,18.474 31.225,17.495 31.331,16.497 Z M31.56,19.726 C32.315,20.663 33.391,21.25 34.589,21.378 C34.751,21.395 34.911,21.403 35.07,21.403 C37.379,21.403 39.303,19.671 39.547,17.374 C39.675,16.177 39.329,15.002 38.572,14.065 C37.816,13.129 36.74,12.543 35.544,12.416 C33.039,12.148 30.846,13.962 30.585,16.418 C30.457,17.615 30.803,18.79 31.56,19.726 Z" id="Fill-15"></path>
            <path d="M34.186,17.179 L35.495,17.318 L35.904,17.362 C36.038,17.376 36.162,17.443 36.246,17.548 C36.331,17.654 36.37,17.786 36.355,17.922 C36.342,18.055 36.273,18.179 36.17,18.263 C36.066,18.347 35.926,18.386 35.798,18.371 L34.078,18.188 L34.186,17.179 Z M35.611,15.556 C35.612,15.556 35.613,15.557 35.614,15.557 C35.617,15.557 35.621,15.557 35.624,15.557 L35.675,15.563 C35.952,15.592 36.154,15.843 36.125,16.12 C36.11,16.256 36.045,16.377 35.939,16.462 C35.836,16.546 35.701,16.585 35.569,16.572 L34.266,16.432 L34.373,15.424 L35.611,15.556 Z M33.083,18.837 L33.624,18.894 L33.625,18.895 C33.627,18.895 33.628,18.895 33.63,18.895 L33.9,18.924 L33.841,19.478 C33.819,19.682 33.969,19.868 34.175,19.89 C34.188,19.891 34.201,19.891 34.215,19.891 C34.404,19.891 34.566,19.749 34.587,19.557 L34.646,19.004 L34.868,19.027 L34.809,19.58 C34.787,19.786 34.936,19.971 35.142,19.993 C35.155,19.994 35.169,19.995 35.183,19.995 C35.371,19.995 35.534,19.853 35.555,19.66 L35.614,19.107 L35.718,19.118 C35.762,19.122 35.806,19.125 35.85,19.125 C36.136,19.125 36.419,19.027 36.641,18.847 C36.902,18.635 37.065,18.336 37.102,18.001 C37.138,17.666 37.041,17.339 36.83,17.077 C36.758,16.988 36.66,16.924 36.567,16.858 C36.726,16.669 36.844,16.451 36.871,16.199 C36.932,15.622 36.579,15.113 36.061,14.914 L36.127,14.297 C36.149,14.09 36,13.906 35.794,13.884 C35.579,13.861 35.403,14.011 35.381,14.216 L35.321,14.77 L35.1,14.746 L35.159,14.195 C35.182,13.989 35.033,13.803 34.827,13.781 C34.619,13.758 34.436,13.907 34.413,14.113 L34.354,14.667 L33.538,14.58 C33.326,14.557 33.147,14.708 33.125,14.912 C33.104,15.119 33.253,15.304 33.458,15.326 L33.563,15.337 L33.627,15.344 L33.604,15.571 L33.498,16.556 C33.465,16.605 33.439,16.659 33.432,16.721 C33.425,16.785 33.439,16.843 33.461,16.899 L33.332,18.109 L33.278,18.103 L33.163,18.09 C32.951,18.068 32.772,18.218 32.75,18.424 C32.729,18.63 32.878,18.815 33.083,18.837 Z" id="Fill-16"></path>
            <path d="M34.047,8.876 C34.343,8.991 34.49,9.326 34.376,9.622 C34.266,9.908 33.919,10.064 33.631,9.951 C33.335,9.837 33.188,9.502 33.302,9.205 C33.388,8.986 33.604,8.837 33.84,8.837 C33.911,8.837 33.981,8.85 34.047,8.876 Z M33.36,10.651 C33.514,10.71 33.675,10.74 33.838,10.74 C34.39,10.74 34.875,10.408 35.075,9.892 C35.339,9.212 35,8.443 34.318,8.177 C33.656,7.92 32.859,8.275 32.603,8.934 C32.339,9.616 32.679,10.386 33.36,10.651 Z" id="Fill-17"></path>
            <path d="M38.989,23.718 C38.846,23.662 38.733,23.555 38.671,23.414 C38.608,23.273 38.605,23.116 38.66,22.973 C38.747,22.749 38.958,22.605 39.198,22.605 C39.27,22.605 39.34,22.619 39.407,22.644 C39.703,22.759 39.851,23.093 39.735,23.389 C39.623,23.68 39.286,23.834 38.989,23.718 Z M39.678,21.945 C39.008,21.684 38.222,22.034 37.961,22.702 C37.833,23.032 37.842,23.392 37.984,23.717 C38.128,24.041 38.389,24.29 38.718,24.417 C38.873,24.478 39.034,24.508 39.199,24.508 C39.75,24.508 40.235,24.175 40.435,23.66 C40.699,22.979 40.359,22.209 39.678,21.945 Z" id="Fill-18"></path>
            <path d="M33.579,2.122 C33.719,1.763 34.057,1.531 34.44,1.531 C34.555,1.531 34.667,1.553 34.774,1.595 C35.25,1.779 35.486,2.316 35.302,2.791 C35.122,3.255 34.577,3.501 34.106,3.318 C33.632,3.133 33.396,2.597 33.579,2.122 Z M33.835,4.016 C34.03,4.093 34.233,4.131 34.44,4.131 C35.127,4.131 35.754,3.701 36.001,3.062 C36.335,2.201 35.906,1.23 35.046,0.896 C34.195,0.567 33.207,1.008 32.88,1.851 C32.547,2.712 32.976,3.683 33.835,4.016 Z" id="Fill-19"></path>
            <path d="M40.745,12.775 C40.882,12.422 41.228,12.184 41.606,12.184 C41.721,12.184 41.832,12.205 41.939,12.248 C42.414,12.431 42.651,12.968 42.468,13.443 C42.287,13.908 41.742,14.152 41.271,13.97 C41.042,13.881 40.86,13.708 40.761,13.482 C40.661,13.257 40.656,13.005 40.745,12.775 Z M41.606,14.783 C42.303,14.783 42.915,14.364 43.168,13.713 C43.499,12.852 43.07,11.881 42.211,11.549 C41.373,11.223 40.367,11.671 40.046,12.504 C39.885,12.92 39.895,13.376 40.075,13.784 C40.255,14.193 40.584,14.507 41,14.669 C41.195,14.744 41.399,14.783 41.606,14.783 Z" id="Fill-20"></path>
            <path d="M29.124,20.339 C29.276,20.339 29.426,20.367 29.569,20.423 C30.202,20.669 30.518,21.385 30.273,22.018 C30.034,22.633 29.296,22.964 28.678,22.723 C28.37,22.604 28.128,22.372 27.994,22.071 C27.861,21.77 27.855,21.434 27.974,21.127 C28.156,20.656 28.618,20.339 29.124,20.339 Z M28.406,23.423 C28.637,23.512 28.877,23.557 29.122,23.557 C29.935,23.557 30.678,23.049 30.972,22.29 C31.366,21.27 30.858,20.119 29.841,19.723 C28.843,19.339 27.656,19.87 27.274,20.856 C27.083,21.349 27.095,21.888 27.309,22.374 C27.522,22.858 27.912,23.231 28.406,23.423 Z" id="Fill-21"></path>
            <path d="M47.24,8.901 C47.537,9.015 47.686,9.352 47.572,9.647 C47.46,9.933 47.116,10.089 46.824,9.975 C46.528,9.861 46.381,9.527 46.495,9.23 C46.582,9.007 46.793,8.861 47.032,8.861 C47.104,8.861 47.174,8.875 47.24,8.901 Z M46.553,10.675 C46.707,10.735 46.868,10.765 47.033,10.765 C47.584,10.765 48.069,10.433 48.271,9.918 C48.534,9.236 48.193,8.466 47.512,8.201 C46.849,7.945 46.051,8.299 45.796,8.96 C45.532,9.64 45.872,10.411 46.553,10.675 Z" id="Fill-22"></path>
            <path d="M27.521,13.443 C27.342,13.908 26.798,14.154 26.325,13.971 C26.096,13.882 25.914,13.709 25.814,13.483 C25.715,13.257 25.709,13.005 25.798,12.775 C25.936,12.423 26.281,12.184 26.66,12.184 C26.774,12.184 26.886,12.205 26.993,12.248 C27.224,12.337 27.405,12.511 27.506,12.737 C27.605,12.962 27.611,13.213 27.521,13.443 Z M28.221,13.715 C28.383,13.298 28.372,12.843 28.191,12.433 C28.011,12.025 27.682,11.71 27.265,11.549 C26.427,11.223 25.422,11.671 25.099,12.504 C24.937,12.921 24.947,13.376 25.128,13.785 C25.309,14.195 25.638,14.509 26.055,14.671 C26.249,14.745 26.452,14.784 26.658,14.784 C27.355,14.784 27.969,14.364 28.221,13.715 Z" id="Fill-23"></path>
            <path d="M47.875,66.682 C48.139,67.59 48.033,68.545 47.578,69.371 C47.124,70.199 46.374,70.8 45.467,71.063 C45.144,71.157 44.812,71.203 44.479,71.203 C42.917,71.203 41.522,70.156 41.085,68.654 C40.542,66.783 41.623,64.818 43.494,64.273 C43.817,64.179 44.15,64.131 44.482,64.131 C46.045,64.131 47.439,65.18 47.875,66.682 Z M44.479,71.953 C44.882,71.953 45.285,71.896 45.676,71.783 C46.775,71.465 47.685,70.737 48.235,69.733 C48.787,68.73 48.915,67.573 48.596,66.473 C48.067,64.653 46.376,63.382 44.482,63.382 C44.079,63.382 43.677,63.44 43.285,63.553 C41.017,64.213 39.707,66.595 40.365,68.864 C40.895,70.682 42.586,71.953 44.479,71.953 Z" id="Fill-24"></path>
            <path d="M45.959,68.11 C45.993,68.228 45.979,68.352 45.92,68.46 C45.862,68.566 45.762,68.646 45.646,68.68 L44.093,69.131 L43.836,68.245 L45.006,67.906 L45.389,67.795 C45.506,67.761 45.63,67.774 45.738,67.834 C45.846,67.892 45.925,67.991 45.959,68.11 Z M45.108,66.616 C45.18,66.859 45.039,67.114 44.797,67.186 L43.627,67.527 L43.37,66.641 L43.601,66.575 L43.602,66.575 C43.603,66.575 43.603,66.575 43.603,66.575 L44.482,66.319 C44.483,66.318 44.484,66.319 44.486,66.318 C44.487,66.318 44.487,66.318 44.488,66.318 L44.54,66.303 C44.656,66.268 44.783,66.283 44.889,66.341 C44.997,66.4 45.074,66.497 45.108,66.616 Z M44.034,64.75 C43.835,64.807 43.721,65.015 43.777,65.215 L43.918,65.703 L43.753,65.75 L43.611,65.263 C43.554,65.064 43.343,64.95 43.146,65.009 C42.947,65.066 42.833,65.274 42.892,65.473 L43.032,65.96 L42.804,66.027 C42.803,66.027 42.802,66.026 42.801,66.027 C42.8,66.027 42.8,66.027 42.799,66.027 L42.307,66.17 C42.107,66.228 41.993,66.436 42.051,66.635 C42.109,66.834 42.317,66.947 42.516,66.89 L42.649,66.85 L43.372,69.339 L43.236,69.378 C43.038,69.436 42.923,69.643 42.981,69.843 C43.028,70.007 43.179,70.114 43.341,70.114 C43.375,70.114 43.41,70.109 43.445,70.098 L43.937,69.956 C43.939,69.956 43.94,69.956 43.941,69.955 C43.942,69.956 43.943,69.954 43.944,69.954 L44.174,69.888 L44.315,70.374 C44.362,70.537 44.513,70.643 44.675,70.643 C44.71,70.643 44.745,70.639 44.78,70.629 C44.979,70.571 45.093,70.363 45.035,70.163 L44.894,69.679 L45.059,69.631 L45.2,70.118 C45.247,70.281 45.397,70.388 45.56,70.388 C45.595,70.388 45.63,70.383 45.664,70.374 C45.863,70.316 45.978,70.107 45.92,69.908 L45.778,69.423 L45.855,69.401 C46.165,69.311 46.422,69.105 46.577,68.822 C46.733,68.54 46.77,68.212 46.68,67.901 C46.589,67.589 46.383,67.332 46.1,67.177 C46.007,67.125 45.905,67.108 45.806,67.083 C45.87,66.867 45.896,66.639 45.829,66.407 C45.739,66.097 45.534,65.841 45.251,65.683 C45.068,65.584 44.862,65.553 44.656,65.555 L44.498,65.007 C44.441,64.807 44.232,64.693 44.034,64.75 Z" id="Fill-25"></path>
            <path d="M29.523,62.478 C30.08,60.504 31.9,59.125 33.948,59.125 C34.369,59.125 34.79,59.183 35.199,59.299 C37.64,59.988 39.065,62.533 38.378,64.974 C37.821,66.948 36.002,68.327 33.954,68.327 C33.532,68.327 33.111,68.268 32.702,68.152 C30.261,67.465 28.835,64.918 29.523,62.478 Z M32.498,68.874 C32.974,69.008 33.464,69.077 33.954,69.077 C36.336,69.077 38.452,67.473 39.1,65.178 C39.899,62.339 38.241,59.378 35.403,58.577 C34.928,58.443 34.438,58.376 33.948,58.376 C31.566,58.376 29.449,59.978 28.802,62.274 C28.001,65.113 29.659,68.073 32.498,68.874 Z" id="Fill-26"></path>
            <path d="M32.796,63.79 L34.873,64.376 C35.05,64.426 35.196,64.541 35.286,64.703 C35.376,64.863 35.398,65.048 35.349,65.224 C35.245,65.591 34.863,65.803 34.499,65.701 L32.422,65.115 L32.796,63.79 Z M33.765,61.854 C33.766,61.855 33.766,61.856 33.767,61.856 C33.768,61.856 33.769,61.856 33.77,61.856 L34.892,62.173 C34.893,62.173 34.893,62.173 34.894,62.173 C34.894,62.173 34.895,62.173 34.896,62.174 L34.964,62.193 C35.328,62.296 35.542,62.677 35.439,63.041 C35.389,63.218 35.273,63.365 35.113,63.456 C34.953,63.545 34.77,63.567 34.591,63.516 L32.999,63.068 L33.373,61.744 L33.765,61.854 Z M31.227,65.557 L31.856,65.735 C31.857,65.735 31.857,65.735 31.857,65.735 C31.858,65.735 31.858,65.735 31.858,65.735 L32.252,65.846 L32.05,66.564 C31.993,66.763 32.109,66.969 32.309,67.026 C32.343,67.035 32.377,67.04 32.41,67.04 C32.574,67.04 32.725,66.932 32.771,66.766 L32.974,66.049 L33.379,66.163 L33.177,66.881 C33.12,67.08 33.236,67.287 33.436,67.343 C33.47,67.353 33.504,67.358 33.537,67.358 C33.701,67.358 33.852,67.25 33.898,67.084 L34.101,66.367 L34.296,66.423 C34.426,66.46 34.557,66.476 34.685,66.476 C35.313,66.476 35.892,66.062 36.07,65.429 C36.175,65.058 36.129,64.67 35.94,64.336 C35.862,64.195 35.752,64.082 35.636,63.976 C35.88,63.79 36.075,63.547 36.161,63.244 C36.348,62.582 36.035,61.895 35.449,61.585 L35.661,60.836 C35.717,60.636 35.602,60.428 35.402,60.372 C35.202,60.316 34.995,60.432 34.94,60.631 L34.736,61.349 L34.331,61.235 L34.534,60.518 C34.59,60.318 34.475,60.11 34.275,60.055 C34.073,59.998 33.868,60.114 33.813,60.313 L33.609,61.031 L32.586,60.743 C32.385,60.686 32.179,60.802 32.123,61.001 C32.066,61.201 32.183,61.408 32.382,61.465 L32.524,61.504 L32.651,61.54 L32.561,61.861 L31.846,64.397 L31.7,64.911 L31.541,64.867 L31.431,64.836 C31.231,64.778 31.023,64.895 30.968,65.094 C30.911,65.294 31.027,65.501 31.227,65.557 Z" id="Fill-27"></path>
            <path d="M56.525,72.778 C56.021,73.89 54.905,74.61 53.684,74.61 L16.45,74.61 C15.228,74.61 14.111,73.89 13.606,72.779 C13.103,71.665 13.297,70.351 14.104,69.432 L29.849,51.481 C29.908,51.412 29.941,51.324 29.941,51.234 L29.941,29.546 L31.191,29.546 L31.191,51.846 L26.958,56.673 C26.957,56.673 26.957,56.673 26.957,56.674 L15.042,70.258 C14.922,70.396 14.824,70.549 14.75,70.71 C14.69,70.841 14.657,70.98 14.629,71.119 C14.622,71.152 14.604,71.182 14.6,71.217 C14.587,71.303 14.599,71.39 14.598,71.478 C14.596,71.744 14.632,72.012 14.746,72.264 C14.862,72.52 15.045,72.726 15.252,72.902 C15.584,73.182 15.999,73.36 16.45,73.36 L53.683,73.36 C54.415,73.36 55.083,72.928 55.386,72.261 C55.688,71.594 55.572,70.807 55.09,70.258 L38.941,51.846 L38.941,29.546 L40.191,29.546 L40.191,51.234 C40.191,51.324 40.225,51.412 40.285,51.481 L56.03,69.432 C56.836,70.352 57.03,71.664 56.525,72.778 Z M27.965,28.171 L27.965,27.589 C27.965,27.243 28.245,26.963 28.59,26.963 L41.542,26.963 C41.887,26.963 42.167,27.243 42.167,27.589 L42.167,28.171 C42.167,28.515 41.887,28.796 41.542,28.796 L28.59,28.796 C28.245,28.796 27.965,28.515 27.965,28.171 Z M37.959,56.546 C38.117,56.166 38.493,55.897 38.926,55.897 C39.358,55.897 39.734,56.166 39.893,56.546 L37.959,56.546 Z M30.113,56.546 C30.313,55.518 31.226,54.734 32.303,54.734 C33.381,54.734 34.293,55.518 34.492,56.546 L30.113,56.546 Z M15.43,71.953 C15.248,71.554 15.317,71.082 15.606,70.752 L27.409,57.296 L42.724,57.296 L54.526,70.752 C54.814,71.082 54.884,71.552 54.702,71.951 C54.521,72.352 54.121,72.61 53.683,72.61 L16.45,72.61 C16.197,72.61 15.963,72.516 15.77,72.368 C15.628,72.259 15.506,72.122 15.43,71.953 Z M38.285,52.235 L42.065,56.546 L40.677,56.546 C40.492,55.747 39.773,55.148 38.926,55.148 C38.079,55.148 37.359,55.747 37.176,56.546 L35.238,56.546 C35.029,55.105 33.791,53.984 32.303,53.984 C30.815,53.984 29.576,55.105 29.367,56.546 L28.067,56.546 L31.849,52.235 C31.908,52.166 31.941,52.078 31.941,51.987 L31.941,29.546 L38.191,29.546 L38.191,51.987 C38.191,52.078 38.225,52.166 38.285,52.235 Z M56.594,68.938 L40.941,51.093 L40.941,29.546 L41.542,29.546 C42.301,29.546 42.917,28.929 42.917,28.171 L42.917,27.589 C42.917,26.83 42.301,26.213 41.542,26.213 L28.59,26.213 C27.832,26.213 27.215,26.83 27.215,27.589 L27.215,28.171 C27.215,28.929 27.832,29.546 28.59,29.546 L29.191,29.546 L29.191,51.093 L13.54,68.938 C12.539,70.077 12.298,71.708 12.924,73.089 C13.55,74.468 14.934,75.36 16.45,75.36 L53.684,75.36 C55.199,75.36 56.583,74.468 57.208,73.087 C57.834,71.706 57.593,70.077 56.594,68.938 Z" id="Fill-28"></path>
            <path d="M35.91,34.441 C36.413,34.441 36.822,34.85 36.822,35.353 C36.822,35.856 36.413,36.265 35.91,36.265 C35.407,36.265 34.997,35.856 34.997,35.353 C34.997,34.85 35.407,34.441 35.91,34.441 Z M35.91,37.015 C36.827,37.015 37.572,36.27 37.572,35.353 C37.572,34.436 36.827,33.691 35.91,33.691 C34.993,33.691 34.247,34.436 34.247,35.353 C34.247,36.27 34.993,37.015 35.91,37.015 Z" id="Fill-29"></path>
            <path d="M35.066,47.842 C33.981,47.842 33.096,46.958 33.096,45.872 C33.096,44.785 33.981,43.901 35.066,43.901 C36.153,43.901 37.037,44.785 37.037,45.872 C37.037,46.958 36.153,47.842 35.066,47.842 Z M35.066,43.151 C33.566,43.151 32.346,44.372 32.346,45.872 C32.346,47.372 33.566,48.593 35.066,48.593 C36.566,48.593 37.787,47.372 37.787,45.872 C37.787,44.372 36.566,43.151 35.066,43.151 Z" id="Fill-30"></path>
            <path d="M3.64,41.956 C3.344,41.956 3.07,42.001 2.819,42.09 C2.568,42.179 2.351,42.304 2.167,42.463 C1.983,42.623 1.838,42.816 1.733,43.041 C1.628,43.266 1.575,43.513 1.575,43.781 C1.575,44.048 1.628,44.295 1.733,44.52 C1.838,44.746 1.983,44.938 2.167,45.098 C2.351,45.258 2.568,45.382 2.819,45.471 C3.07,45.561 3.344,45.605 3.64,45.605 C4.032,45.605 4.375,45.538 4.669,45.404 C4.963,45.271 5.198,45.084 5.375,44.844 L6.014,45.415 C5.741,45.744 5.398,45.999 4.984,46.179 C4.571,46.36 4.123,46.451 3.64,46.451 C3.258,46.451 2.889,46.388 2.532,46.264 C2.176,46.14 1.862,45.961 1.589,45.729 C1.317,45.496 1.1,45.216 0.937,44.887 C0.774,44.558 0.693,44.189 0.693,43.781 C0.693,43.363 0.774,42.988 0.937,42.657 C1.1,42.326 1.317,42.047 1.589,41.819 C1.862,41.591 2.176,41.416 2.532,41.294 C2.889,41.172 3.258,41.111 3.64,41.111 C3.956,41.111 4.231,41.131 4.465,41.171 C4.699,41.211 4.903,41.261 5.078,41.322 C5.252,41.383 5.4,41.45 5.523,41.523 C5.644,41.596 5.753,41.663 5.849,41.724 L5.849,42.632 L5.06,42.632 L5.024,42.266 C4.938,42.214 4.852,42.169 4.766,42.129 C4.68,42.089 4.583,42.056 4.476,42.03 C4.368,42.004 4.247,41.986 4.113,41.974 C3.979,41.962 3.822,41.956 3.64,41.956" id="Fill-31"></path>
            <path d="M9.756,41.956 C9.46,41.956 9.187,42.001 8.935,42.09 C8.685,42.179 8.467,42.304 8.283,42.463 C8.099,42.623 7.954,42.816 7.849,43.041 C7.744,43.266 7.691,43.513 7.691,43.781 C7.691,44.048 7.744,44.295 7.849,44.52 C7.954,44.746 8.099,44.938 8.283,45.098 C8.467,45.258 8.685,45.382 8.935,45.471 C9.187,45.561 9.46,45.605 9.756,45.605 C10.072,45.605 10.356,45.561 10.61,45.471 C10.863,45.382 11.079,45.258 11.259,45.098 C11.438,44.938 11.576,44.746 11.674,44.52 C11.772,44.295 11.821,44.048 11.821,43.781 C11.821,43.513 11.772,43.266 11.674,43.041 C11.576,42.816 11.438,42.623 11.259,42.463 C11.079,42.304 10.863,42.179 10.61,42.09 C10.356,42.001 10.072,41.956 9.756,41.956 Z M6.81,43.781 C6.81,43.363 6.891,42.988 7.053,42.657 C7.216,42.326 7.433,42.047 7.706,41.819 C7.978,41.591 8.292,41.416 8.648,41.294 C9.005,41.172 9.374,41.111 9.756,41.111 C10.158,41.111 10.537,41.172 10.893,41.294 C11.249,41.416 11.561,41.591 11.829,41.819 C12.096,42.047 12.309,42.326 12.467,42.657 C12.625,42.988 12.703,43.363 12.703,43.781 C12.703,44.185 12.625,44.551 12.467,44.88 C12.309,45.208 12.096,45.489 11.829,45.721 C11.561,45.954 11.249,46.134 10.893,46.26 C10.537,46.387 10.158,46.451 9.756,46.451 C9.374,46.451 9.005,46.388 8.648,46.264 C8.292,46.14 7.978,45.961 7.706,45.729 C7.433,45.496 7.216,45.216 7.053,44.887 C6.891,44.558 6.81,44.189 6.81,43.781 Z" id="Fill-32"></path>
            <polyline id="Fill-33" points="15.866 46.387 13.865 46.387 13.865 45.542 14.432 45.542 14.432 42.005 13.865 42.005 13.865 41.16 15.858 41.16 15.858 42.005 15.292 42.005 15.292 45.542 15.866 45.542 15.866 46.387"></polyline>
            <polyline id="Fill-34" points="18.977 46.387 16.991 46.387 16.991 45.542 17.55 45.542 17.55 42.005 16.991 42.005 16.991 41.16 19.149 41.16 21.1 45.542 21.308 45.542 21.308 42.005 20.741 42.005 20.741 41.16 22.734 41.16 22.734 42.005 22.168 42.005 22.168 45.542 22.734 45.542 22.734 46.387 20.576 46.387 18.626 42.005 18.411 42.005 18.411 45.542 18.977 45.542 18.977 46.387"></polyline>
            <polyline id="Fill-35" points="28.044 80.61 28.044 83.451 27.306 83.451 27.306 81.472 26.111 83.065 24.916 81.472 24.916 83.451 24.178 83.451 24.178 80.61 23.845 80.068 24.668 80.068 26.111 81.981 27.555 80.068 28.377 80.068 28.044 80.61"></polyline>
            <polyline id="Fill-36" points="33.946 80.61 33.946 83.451 33.208 83.451 33.208 81.472 32.013 83.065 30.817 81.472 30.817 83.451 30.08 83.451 30.08 80.61 29.747 80.068 30.569 80.068 32.013 81.981 33.456 80.068 34.279 80.068 33.946 80.61"></polyline>
            <polyline id="Fill-37" points="36.536 83.451 35.615 83.451 37.051 81.661 35.804 80.068 36.725 80.068 37.521 81.087 38.338 80.068 39.233 80.068 37.966 81.655 39.376 83.451 38.462 83.451 37.502 82.236 36.536 83.451"></polyline>
            <polyline id="Fill-38" points="42.829 83.451 41.96 83.451 40.491 80.068 41.249 80.068 42.392 82.765 43.561 80.068 44.325 80.068 42.829 83.451"></polyline>
            <polygon id="Fill-39" points="46.021 83.451 46.687 83.451 46.687 80.068 46.021 80.068"></polygon>
            <polyline id="Fill-40" points="49.856 42.005 49.29 42.005 49.29 45.542 52.209 45.542 52.28 44.915 53.069 44.915 53.069 46.387 47.871 46.387 47.871 45.542 48.43 45.542 48.43 42.005 47.871 42.005 47.871 41.16 49.856 41.16 49.856 42.005"></polyline>
            <path d="M56.783,44.055 L58.941,44.055 L58.325,42.005 L57.407,42.005 L56.783,44.055 Z M60.855,46.387 L58.862,46.387 L58.862,45.542 L59.386,45.542 L59.199,44.901 L56.525,44.901 L56.331,45.542 L56.854,45.542 L56.854,46.387 L54.869,46.387 L54.869,45.542 L55.435,45.542 L56.503,42.005 L56.052,42.005 L56.052,41.16 L58.97,41.16 L60.289,45.542 L60.855,45.542 L60.855,46.387 Z" id="Fill-41"></path>
            <path d="M66.462,44.055 L64.061,44.055 L64.061,45.542 L66.441,45.542 C66.546,45.542 66.644,45.522 66.735,45.482 C66.826,45.442 66.906,45.389 66.975,45.323 C67.044,45.258 67.1,45.179 67.14,45.087 C67.181,44.996 67.201,44.898 67.201,44.795 C67.201,44.696 67.182,44.603 67.144,44.513 C67.105,44.424 67.052,44.347 66.982,44.281 C66.913,44.215 66.834,44.162 66.746,44.122 C66.657,44.083 66.563,44.06 66.462,44.055 Z M66.821,42.604 C66.821,42.44 66.761,42.299 66.642,42.182 C66.522,42.064 66.379,42.005 66.211,42.005 L64.061,42.005 L64.061,43.21 L66.211,43.21 C66.298,43.21 66.377,43.194 66.452,43.161 C66.526,43.128 66.59,43.084 66.646,43.031 C66.7,42.976 66.743,42.913 66.774,42.84 C66.806,42.767 66.821,42.689 66.821,42.604 Z M66.441,46.387 L62.641,46.387 L62.641,45.542 L63.2,45.542 L63.2,42.005 L62.641,42.005 L62.641,41.16 L66.211,41.16 C66.413,41.16 66.603,41.198 66.782,41.273 C66.961,41.348 67.117,41.451 67.252,41.583 C67.385,41.714 67.49,41.868 67.567,42.044 C67.643,42.22 67.682,42.407 67.682,42.604 C67.682,42.773 67.653,42.934 67.595,43.087 C67.538,43.239 67.461,43.377 67.366,43.499 C67.586,43.635 67.757,43.823 67.878,44.062 C68.001,44.302 68.062,44.546 68.062,44.795 C68.062,45.016 68.019,45.222 67.933,45.415 C67.846,45.608 67.729,45.777 67.581,45.922 C67.433,46.068 67.261,46.182 67.065,46.264 C66.869,46.346 66.661,46.387 66.441,46.387 Z" id="Fill-42"></path>
        </g>
    </g>
</svg>