<?xml version="1.0" encoding="UTF-8"?>
<svg width="84px" height="83px" viewBox="0 0 84 83" version="1.1" xmlns="http://www.w3.org/2000/svg" xmlns:xlink="http://www.w3.org/1999/xlink">
    <!-- Generator: Sketch 49 (51002) - http://www.bohemiancoding.com/sketch -->
    <title>bitcoin-grey-32</title>
    <desc>Created with Sketch.</desc>
    <defs></defs>
    <g id="Page-1" stroke="none" stroke-width="1" fill="none" fill-rule="evenodd">
        <g id="bitcoin-grey-32" fill="#000000">
            <path d="M1.845,47.267 L1.737,46.599 L6.309,45.859 L6.83,49.076 L6.156,49.185 L5.743,46.635 L4.358,46.86 C4.562,47.11 4.627,47.395 4.675,47.696 L4.837,48.694 L4.157,48.804 L3.995,47.805 C3.947,47.511 3.869,47.222 3.677,46.97 L1.845,47.267" id="Fill-1"></path>
            <path d="M5.743,46.561 C5.758,46.561 5.774,46.565 5.787,46.575 C5.803,46.586 5.814,46.604 5.817,46.624 L6.218,49.099 L6.744,49.014 L6.247,45.945 L1.823,46.661 L1.907,47.181 L3.665,46.896 C3.695,46.892 3.72,46.903 3.737,46.925 C3.951,47.206 4.025,47.521 4.069,47.793 L4.219,48.718 L4.751,48.632 L4.601,47.708 C4.557,47.436 4.498,47.15 4.3,46.907 C4.283,46.887 4.278,46.858 4.288,46.833 C4.297,46.808 4.319,46.79 4.346,46.786 L5.73,46.562 C5.735,46.561 5.739,46.561 5.743,46.561 Z M6.156,49.26 C6.14,49.26 6.125,49.255 6.112,49.246 C6.096,49.234 6.085,49.217 6.082,49.197 L5.681,46.722 L4.491,46.915 C4.653,47.159 4.708,47.428 4.75,47.684 L4.912,48.682 C4.915,48.702 4.91,48.722 4.898,48.738 C4.887,48.754 4.869,48.765 4.85,48.768 L4.169,48.878 C4.124,48.885 4.089,48.857 4.083,48.816 L3.92,47.817 C3.882,47.576 3.818,47.298 3.644,47.052 L1.857,47.341 C1.835,47.344 1.817,47.339 1.801,47.328 C1.785,47.316 1.774,47.298 1.771,47.279 L1.663,46.611 C1.656,46.57 1.684,46.531 1.725,46.524 L6.296,45.785 C6.343,45.779 6.376,45.806 6.383,45.847 L6.904,49.064 C6.91,49.105 6.882,49.143 6.842,49.15 L6.168,49.259 C6.164,49.26 6.16,49.26 6.156,49.26 Z" id="Fill-2"></path>
            <path d="M7.433,53.198 C7.104,52.222 6.152,51.704 5.165,52.036 C4.217,52.354 3.798,53.404 4.106,54.322 C4.422,55.262 5.415,55.8 6.367,55.48 C7.332,55.156 7.747,54.133 7.433,53.198 Z M3.463,54.531 C3.017,53.202 3.707,51.826 5.029,51.381 C6.324,50.947 7.659,51.729 8.082,52.987 C8.518,54.286 7.856,55.686 6.545,56.127 C5.25,56.561 3.89,55.801 3.463,54.531 Z" id="Fill-3"></path>
            <path d="M5.762,52.011 C5.572,52.011 5.379,52.043 5.188,52.107 C4.759,52.251 4.42,52.563 4.233,52.984 C4.054,53.39 4.033,53.869 4.178,54.298 C4.419,55.015 5.073,55.498 5.805,55.498 C5.805,55.498 5.805,55.498 5.806,55.498 C5.987,55.498 6.167,55.468 6.343,55.409 C6.781,55.262 7.125,54.952 7.311,54.538 C7.492,54.132 7.51,53.665 7.361,53.222 C7.114,52.486 6.486,52.011 5.762,52.011 Z M5.806,55.648 L5.805,55.648 C5.008,55.648 4.297,55.124 4.035,54.345 C3.879,53.881 3.901,53.363 4.096,52.924 C4.3,52.463 4.671,52.123 5.141,51.965 C5.347,51.896 5.556,51.861 5.762,51.861 C6.552,51.861 7.235,52.376 7.504,53.174 C7.665,53.653 7.645,54.159 7.448,54.599 C7.245,55.052 6.869,55.39 6.391,55.551 C6.2,55.615 6.003,55.648 5.806,55.648 Z M5.763,51.335 C5.523,51.335 5.285,51.375 5.053,51.452 C3.771,51.883 3.104,53.225 3.535,54.507 C3.864,55.489 4.795,56.175 5.798,56.175 C6.042,56.175 6.286,56.135 6.521,56.056 C7.787,55.63 8.441,54.293 8.01,53.011 C7.679,52.024 6.755,51.335 5.763,51.335 Z M5.798,56.325 C4.715,56.325 3.748,55.614 3.392,54.555 C2.935,53.193 3.644,51.768 5.005,51.31 C5.252,51.227 5.507,51.185 5.763,51.185 C6.818,51.185 7.801,51.916 8.153,52.963 C8.61,54.325 7.915,55.746 6.569,56.198 C6.318,56.282 6.059,56.325 5.798,56.325 Z" id="Fill-4"></path>
            <path d="M8.075,59.039 C8.351,59.205 8.51,59.45 8.658,59.716 L9.086,60.485 C9.313,60.891 9.654,61.069 10.088,60.828 C10.51,60.593 10.487,60.207 10.273,59.823 L9.417,58.29 L8.075,59.039 Z M8.331,60.516 L8.068,60.045 C7.922,59.785 7.75,59.54 7.484,59.369 L5.967,60.214 L5.638,59.625 L9.679,57.371 L10.863,59.494 C11.274,60.23 11.145,61.005 10.381,61.431 C9.77,61.773 9.181,61.646 8.708,61.143 L8.239,61.817 C8.007,62.28 7.978,62.417 8.122,62.677 C8.134,62.699 8.144,62.715 8.156,62.737 L8.233,62.864 L7.632,63.199 C7.37,62.728 7.104,62.251 7.571,61.586 L8.331,60.516 Z" id="Fill-5"></path>
            <path d="M8.218,59.045 C8.454,59.22 8.597,59.453 8.723,59.679 L9.152,60.448 C9.257,60.637 9.44,60.862 9.713,60.862 C9.819,60.862 9.933,60.829 10.051,60.763 C10.385,60.576 10.438,60.272 10.208,59.859 L9.389,58.392 L8.218,59.045 Z M9.713,61.012 C9.44,61.012 9.201,60.843 9.021,60.521 L8.592,59.752 C8.458,59.512 8.305,59.264 8.036,59.103 C8.013,59.09 8,59.065 8,59.038 C8,59.011 8.015,58.986 8.038,58.974 L9.381,58.224 C9.398,58.215 9.417,58.212 9.438,58.218 C9.457,58.223 9.473,58.236 9.483,58.253 L10.338,59.786 C10.609,60.272 10.533,60.666 10.125,60.894 C9.983,60.972 9.845,61.012 9.713,61.012 Z M7.484,59.294 C7.498,59.294 7.512,59.298 7.524,59.305 C7.821,59.496 7.999,59.768 8.133,60.008 L8.396,60.48 C8.41,60.505 8.409,60.536 8.392,60.56 L7.632,61.629 C7.212,62.226 7.417,62.654 7.661,63.097 L8.128,62.836 L8.057,62.713 C7.895,62.423 7.936,62.255 8.172,61.783 L8.646,61.1 C8.659,61.081 8.68,61.07 8.703,61.068 C8.725,61.066 8.747,61.075 8.763,61.091 C9.225,61.583 9.782,61.68 10.345,61.366 C10.692,61.172 10.915,60.894 10.989,60.562 C11.062,60.242 10.995,59.885 10.797,59.53 L9.65,57.473 L5.74,59.653 L5.996,60.112 L7.447,59.303 C7.459,59.297 7.471,59.294 7.484,59.294 Z M7.632,63.274 C7.626,63.274 7.619,63.273 7.612,63.271 C7.593,63.266 7.577,63.253 7.567,63.235 L7.632,63.199 L7.566,63.234 C7.308,62.771 7.016,62.246 7.509,61.543 L8.242,60.511 L8.002,60.081 C7.883,59.868 7.728,59.628 7.481,59.456 L6.004,60.28 C5.968,60.3 5.922,60.287 5.902,60.251 L5.573,59.661 C5.563,59.644 5.561,59.623 5.566,59.604 C5.571,59.585 5.585,59.569 5.602,59.559 L9.643,57.305 C9.659,57.296 9.68,57.293 9.7,57.299 C9.719,57.304 9.735,57.317 9.745,57.334 L10.928,59.457 C11.145,59.844 11.216,60.238 11.136,60.595 C11.051,60.97 10.803,61.282 10.418,61.497 C9.826,61.827 9.213,61.741 8.718,61.26 L8.3,61.86 C8.079,62.304 8.062,62.415 8.188,62.64 L8.297,62.824 C8.308,62.842 8.311,62.863 8.306,62.882 C8.301,62.902 8.288,62.919 8.27,62.929 L7.669,63.264 C7.658,63.271 7.645,63.274 7.632,63.274 Z" id="Fill-6"></path>
            <path d="M16.388,68.354 C16.407,67.872 16.221,67.373 15.857,66.993 C15.147,66.249 14.065,66.186 13.313,66.905 C12.592,67.595 12.659,68.723 13.328,69.422 C13.743,69.856 14.313,70.048 14.867,69.981 L14.746,70.671 C14.049,70.696 13.349,70.421 12.835,69.884 C11.867,68.872 11.905,67.334 12.913,66.371 C13.898,65.428 15.437,65.568 16.354,66.526 C16.834,67.028 17.07,67.677 17.055,68.316 L16.388,68.354" id="Fill-7"></path>
            <path d="M14.515,65.806 C13.932,65.806 13.381,66.026 12.964,66.425 C11.988,67.359 11.955,68.856 12.889,69.832 C13.355,70.319 14,70.598 14.661,70.598 C14.668,70.598 14.675,70.598 14.683,70.598 L14.776,70.065 C14.206,70.103 13.669,69.888 13.273,69.473 C12.935,69.12 12.735,68.642 12.724,68.162 C12.713,67.659 12.903,67.193 13.261,66.851 C13.616,66.511 14.067,66.324 14.53,66.324 C15.041,66.324 15.531,66.543 15.911,66.941 C16.262,67.307 16.461,67.789 16.464,68.275 L16.981,68.245 C16.978,67.625 16.737,67.035 16.3,66.578 C15.831,66.088 15.181,65.806 14.515,65.806 Z M14.661,70.748 C13.96,70.748 13.274,70.452 12.781,69.936 C11.789,68.898 11.824,67.309 12.861,66.316 C13.306,65.891 13.894,65.656 14.515,65.656 C15.221,65.656 15.911,65.954 16.408,66.474 C16.89,66.977 17.146,67.632 17.13,68.318 C17.129,68.357 17.099,68.389 17.06,68.391 L16.393,68.429 C16.368,68.429 16.351,68.422 16.335,68.408 C16.32,68.393 16.312,68.372 16.313,68.351 C16.332,67.879 16.146,67.403 15.803,67.045 C15.451,66.677 14.999,66.474 14.53,66.474 C14.1,66.474 13.697,66.642 13.365,66.959 C13.038,67.272 12.864,67.698 12.874,68.158 C12.884,68.602 13.069,69.043 13.382,69.37 C13.769,69.774 14.31,69.973 14.858,69.907 C14.883,69.904 14.905,69.913 14.921,69.93 C14.938,69.947 14.945,69.971 14.94,69.994 L14.819,70.684 C14.813,70.719 14.784,70.745 14.748,70.746 C14.719,70.747 14.69,70.748 14.661,70.748 Z" id="Fill-8"></path>
            <path d="M18.424,71.572 C18.744,71.608 18.991,71.766 19.235,71.946 L19.945,72.469 C20.319,72.744 20.704,72.766 20.999,72.366 C21.286,71.977 21.105,71.635 20.75,71.374 L19.336,70.333 L18.424,71.572 Z M19.269,72.811 L18.834,72.49 C18.594,72.313 18.336,72.162 18.023,72.116 L16.993,73.515 L16.448,73.114 L19.193,69.387 L21.151,70.83 C21.831,71.33 22.035,72.089 21.516,72.793 C21.1,73.358 20.511,73.487 19.873,73.225 L19.725,74.033 C19.706,74.55 19.735,74.688 19.976,74.864 C19.995,74.879 20.01,74.89 20.03,74.905 L20.154,74.988 L19.745,75.542 C19.311,75.223 18.871,74.899 19.021,74.1 L19.269,72.811 Z" id="Fill-9"></path>
            <path d="M18.558,71.518 C18.845,71.579 19.071,71.732 19.279,71.885 L19.989,72.408 C20.362,72.683 20.691,72.657 20.938,72.322 C21.165,72.014 21.087,71.715 20.706,71.434 L19.353,70.438 L18.558,71.518 Z M20.469,72.746 C20.288,72.746 20.096,72.673 19.9,72.529 L19.19,72.006 C18.97,71.843 18.728,71.681 18.416,71.647 C18.389,71.644 18.366,71.627 18.355,71.602 C18.345,71.578 18.348,71.549 18.364,71.528 L19.276,70.288 C19.288,70.272 19.306,70.262 19.325,70.259 C19.346,70.255 19.365,70.26 19.381,70.272 L20.795,71.314 C21.243,71.644 21.337,72.034 21.059,72.411 C20.895,72.634 20.696,72.746 20.469,72.746 Z M18.023,72.041 C18.026,72.041 18.03,72.041 18.034,72.042 C18.384,72.093 18.658,72.267 18.878,72.43 L19.313,72.75 C19.337,72.767 19.348,72.796 19.343,72.825 L19.095,74.114 C18.96,74.831 19.323,75.136 19.729,75.437 L20.047,75.007 L19.931,74.925 C19.663,74.728 19.63,74.557 19.65,74.03 L19.799,73.211 C19.803,73.189 19.817,73.17 19.837,73.159 C19.857,73.148 19.882,73.147 19.901,73.156 C20.524,73.412 21.073,73.269 21.455,72.749 C21.691,72.428 21.779,72.083 21.709,71.75 C21.643,71.428 21.434,71.131 21.106,70.89 L19.209,69.492 L16.553,73.099 L16.977,73.41 L17.962,72.072 C17.977,72.052 18,72.041 18.023,72.041 Z M19.745,75.617 C19.729,75.617 19.714,75.613 19.701,75.603 C19.273,75.288 18.789,74.931 18.947,74.086 L19.187,72.843 L18.79,72.551 C18.593,72.406 18.354,72.252 18.056,72.198 L17.053,73.56 C17.029,73.593 16.981,73.6 16.948,73.576 L16.404,73.175 C16.388,73.163 16.377,73.145 16.374,73.126 C16.371,73.106 16.376,73.086 16.388,73.07 L19.132,69.343 C19.144,69.327 19.162,69.316 19.182,69.313 C19.201,69.31 19.221,69.315 19.237,69.327 L21.195,70.769 C21.553,71.032 21.782,71.361 21.856,71.72 C21.935,72.096 21.838,72.482 21.576,72.838 C21.174,73.385 20.581,73.561 19.931,73.327 L19.799,74.046 C19.781,74.543 19.812,74.651 20.02,74.804 L20.196,74.926 C20.212,74.937 20.224,74.955 20.228,74.975 C20.231,74.995 20.227,75.016 20.214,75.033 L19.806,75.587 C19.791,75.607 19.768,75.617 19.745,75.617 Z" id="Fill-10"></path>
            <path d="M26.846,74.184 L27.538,74.538 C26.675,75.254 25.761,75.734 24.805,76.088 L23.893,77.873 L23.296,77.568 L24.21,75.783 C23.938,74.801 23.792,73.778 23.869,72.661 L24.56,73.014 C24.466,73.768 24.544,74.637 24.776,75.411 C25.539,75.146 26.29,74.701 26.846,74.184" id="Fill-11"></path>
            <path d="M23.397,77.535 L23.86,77.772 L24.738,76.054 C24.747,76.037 24.762,76.024 24.779,76.018 C25.783,75.646 26.642,75.166 27.401,74.552 L26.858,74.275 C26.3,74.782 25.553,75.221 24.8,75.482 C24.782,75.489 24.76,75.487 24.742,75.478 C24.724,75.469 24.71,75.452 24.704,75.433 C24.476,74.67 24.395,73.808 24.479,73.057 L23.937,72.78 C23.882,73.751 23.996,74.728 24.282,75.763 C24.287,75.781 24.285,75.801 24.276,75.817 L23.397,77.535 Z M23.893,77.948 C23.881,77.948 23.87,77.945 23.859,77.94 L23.262,77.634 C23.244,77.625 23.23,77.61 23.225,77.591 C23.218,77.572 23.22,77.551 23.229,77.533 L24.129,75.775 C23.834,74.693 23.724,73.673 23.794,72.656 C23.795,72.63 23.81,72.608 23.832,72.595 C23.854,72.583 23.88,72.582 23.903,72.594 L24.594,72.947 C24.622,72.961 24.638,72.992 24.634,73.023 C24.545,73.741 24.615,74.572 24.826,75.314 C25.551,75.05 26.265,74.621 26.795,74.129 C26.819,74.108 26.853,74.103 26.88,74.117 L27.572,74.471 C27.594,74.483 27.609,74.505 27.612,74.53 C27.615,74.555 27.605,74.579 27.585,74.595 C26.798,75.249 25.906,75.757 24.859,76.149 L23.96,77.907 C23.951,77.925 23.935,77.938 23.916,77.944 C23.909,77.947 23.901,77.948 23.893,77.948 Z" id="Fill-12"></path>
            <path d="M31.02,77.874 C31.439,78.01 31.734,77.884 31.872,77.459 C32.014,77.016 31.846,76.772 31.421,76.635 L29.804,76.112 L29.345,77.528 C29.661,77.461 29.952,77.529 30.241,77.623 L31.02,77.874 Z M27.944,79.663 L29.369,75.26 L31.629,75.991 C32.409,76.244 32.763,76.881 32.509,77.665 C32.257,78.444 31.589,78.776 30.81,78.524 L30.031,78.271 C29.748,78.18 29.447,78.122 29.135,78.177 L28.587,79.871 L27.944,79.663 Z" id="Fill-13"></path>
            <path d="M29.605,77.426 C29.844,77.426 30.072,77.489 30.264,77.551 L31.042,77.803 C31.142,77.835 31.234,77.851 31.315,77.852 C31.551,77.852 31.71,77.715 31.8,77.436 C31.924,77.05 31.808,76.839 31.398,76.706 L29.853,76.207 L29.455,77.434 C29.504,77.429 29.555,77.426 29.605,77.426 Z M31.315,78.001 C31.218,78.001 31.111,77.983 30.997,77.946 L30.218,77.694 C29.968,77.613 29.649,77.54 29.361,77.601 C29.334,77.607 29.307,77.598 29.29,77.578 C29.271,77.558 29.266,77.53 29.274,77.505 L29.733,76.089 C29.746,76.05 29.79,76.029 29.827,76.041 L31.444,76.564 C31.928,76.72 32.091,77.02 31.943,77.482 C31.804,77.911 31.525,78.001 31.315,78.001 Z M28.038,79.615 L28.539,79.777 L29.064,78.154 C29.072,78.128 29.095,78.108 29.122,78.103 C29.404,78.054 29.693,78.083 30.054,78.2 L30.833,78.452 C30.996,78.505 31.156,78.532 31.309,78.532 C31.843,78.532 32.255,78.208 32.438,77.642 C32.555,77.28 32.539,76.941 32.391,76.664 C32.244,76.389 31.973,76.182 31.606,76.063 L29.417,75.355 L28.038,79.615 Z M28.587,79.946 C28.58,79.946 28.572,79.945 28.564,79.942 L27.921,79.734 C27.902,79.728 27.886,79.715 27.877,79.697 C27.868,79.679 27.866,79.659 27.873,79.64 L29.297,75.237 C29.31,75.198 29.355,75.177 29.392,75.189 L31.652,75.92 C32.056,76.051 32.357,76.284 32.523,76.593 C32.691,76.908 32.71,77.286 32.58,77.688 C32.379,78.31 31.904,78.682 31.309,78.682 C31.14,78.682 30.965,78.653 30.787,78.595 L30.008,78.343 C29.689,78.24 29.438,78.21 29.192,78.244 L28.659,79.894 C28.653,79.913 28.639,79.929 28.622,79.938 C28.611,79.943 28.599,79.946 28.587,79.946 Z" id="Fill-14"></path>
            <polyline id="Fill-15" points="36.701 77.823 36.09 81.715 35.442 81.612 36.053 77.722 34.425 77.466 34.531 76.793 38.416 77.403 38.31 78.076 36.701 77.823"></polyline>
            <path d="M35.528,81.55 L36.028,81.629 L36.627,77.811 C36.63,77.792 36.641,77.774 36.657,77.762 C36.673,77.75 36.693,77.745 36.712,77.749 L38.248,77.99 L38.33,77.465 L34.593,76.879 L34.511,77.404 L36.064,77.648 C36.105,77.654 36.133,77.693 36.127,77.734 L35.528,81.55 Z M36.09,81.79 C36.086,81.79 36.083,81.789 36.079,81.789 L35.43,81.686 C35.389,81.68 35.361,81.642 35.368,81.601 L35.967,77.784 L34.413,77.54 C34.394,77.537 34.376,77.526 34.364,77.51 C34.353,77.494 34.348,77.474 34.351,77.454 L34.457,76.782 C34.463,76.741 34.5,76.713 34.543,76.719 L38.427,77.329 C38.468,77.335 38.496,77.374 38.49,77.415 L38.384,78.088 C38.381,78.107 38.37,78.125 38.354,78.137 C38.338,78.148 38.316,78.153 38.298,78.15 L36.763,77.909 L36.165,81.726 C36.161,81.746 36.15,81.764 36.134,81.775 C36.122,81.785 36.106,81.79 36.09,81.79 Z" id="Fill-16"></path>
            <path d="M42.614,78.063 C41.584,78.079 40.801,78.83 40.817,79.872 C40.833,80.871 41.708,81.59 42.675,81.574 C43.667,81.559 44.48,80.777 44.465,79.772 C44.449,78.754 43.6,78.048 42.614,78.063 Z M42.679,82.251 C41.277,82.272 40.174,81.198 40.152,79.802 C40.13,78.437 41.282,77.401 42.609,77.38 C43.98,77.359 45.114,78.415 45.135,79.798 C45.157,81.163 44.019,82.229 42.679,82.251 Z" id="Fill-17"></path>
            <path d="M42.646,78.138 L42.615,78.138 C41.602,78.154 40.877,78.883 40.893,79.871 C40.907,80.769 41.693,81.5 42.645,81.5 L42.674,81.499 C43.651,81.484 44.405,80.725 44.39,79.773 C44.375,78.841 43.625,78.138 42.646,78.138 Z M42.645,81.65 C41.611,81.65 40.758,80.853 40.742,79.874 C40.726,78.816 41.53,78.005 42.613,77.988 L42.646,77.988 C43.71,77.988 44.524,78.754 44.54,79.77 C44.556,80.807 43.737,81.632 42.676,81.649 L42.645,81.65 Z M42.65,77.455 L42.61,77.455 C41.976,77.465 41.378,77.709 40.927,78.141 C40.465,78.583 40.217,79.172 40.228,79.801 C40.249,81.133 41.307,82.176 42.637,82.176 L42.678,82.176 C44.012,82.155 45.081,81.089 45.06,79.8 C45.04,78.485 43.981,77.455 42.65,77.455 Z M42.637,82.326 C41.224,82.326 40.1,81.218 40.077,79.803 C40.066,79.133 40.332,78.504 40.823,78.033 C41.301,77.574 41.935,77.316 42.608,77.305 L42.65,77.305 C44.064,77.305 45.188,78.4 45.21,79.797 C45.232,81.169 44.097,82.303 42.68,82.326 L42.637,82.326 Z" id="Fill-18"></path>
            <path d="M50.937,77.593 C50.541,77.317 50.019,77.205 49.502,77.308 C48.492,77.509 47.856,78.387 48.06,79.41 C48.254,80.39 49.242,80.94 50.191,80.751 C50.782,80.634 51.251,80.256 51.493,79.753 L52.01,80.226 C51.655,80.827 51.047,81.271 50.317,81.415 C48.942,81.689 47.664,80.829 47.393,79.46 C47.126,78.122 48.072,76.896 49.375,76.638 C50.056,76.502 50.732,76.653 51.264,77.009 L50.937,77.593" id="Fill-19"></path>
            <path d="M49.873,76.664 C49.712,76.664 49.549,76.68 49.39,76.712 C48.767,76.835 48.223,77.181 47.856,77.688 C47.482,78.205 47.344,78.829 47.466,79.446 C47.693,80.591 48.656,81.391 49.808,81.391 C49.972,81.391 50.138,81.375 50.302,81.342 C50.975,81.209 51.559,80.808 51.914,80.239 L51.515,79.874 C51.245,80.368 50.773,80.712 50.206,80.825 C50.079,80.85 49.948,80.863 49.817,80.863 C48.907,80.863 48.154,80.272 47.986,79.425 C47.884,78.914 47.983,78.411 48.264,78.008 C48.541,77.611 48.975,77.336 49.487,77.234 C49.981,77.137 50.504,77.23 50.911,77.485 L51.165,77.033 C50.779,76.791 50.334,76.664 49.873,76.664 Z M49.808,81.541 C48.584,81.541 47.56,80.691 47.319,79.475 C47.189,78.817 47.336,78.151 47.735,77.6 C48.123,77.063 48.701,76.695 49.36,76.564 C50.038,76.43 50.742,76.569 51.306,76.946 C51.338,76.968 51.349,77.011 51.33,77.045 L51.002,77.629 C50.992,77.648 50.975,77.661 50.954,77.666 C50.935,77.67 50.912,77.666 50.894,77.654 C50.512,77.388 49.998,77.286 49.516,77.382 C49.042,77.476 48.642,77.729 48.387,78.094 C48.13,78.463 48.04,78.925 48.133,79.396 C48.287,80.171 48.979,80.713 49.817,80.713 C49.938,80.713 50.059,80.701 50.177,80.678 C50.731,80.568 51.186,80.219 51.425,79.72 C51.436,79.699 51.455,79.684 51.479,79.679 C51.5,79.674 51.525,79.681 51.544,79.697 L52.061,80.17 C52.087,80.194 52.093,80.233 52.075,80.264 C51.701,80.897 51.066,81.344 50.332,81.489 C50.158,81.524 49.981,81.541 49.808,81.541 Z" id="Fill-20"></path>
            <path d="M54.246,78.462 L53.218,75.83 L53.841,75.586 L54.87,78.219 C55.159,78.958 55.79,79.177 56.627,78.85 C57.463,78.523 57.779,77.934 57.491,77.195 L56.462,74.563 L57.085,74.319 L58.114,76.952 C58.551,78.071 58.09,79.003 56.872,79.479 C55.655,79.955 54.684,79.582 54.246,78.462" id="Fill-21"></path>
            <path d="M53.315,75.873 L54.316,78.435 C54.616,79.201 55.163,79.606 55.897,79.606 C56.191,79.606 56.51,79.54 56.845,79.409 C57.425,79.182 57.841,78.842 58.046,78.424 C58.252,78.007 58.251,77.508 58.044,76.979 L57.043,74.416 L56.56,74.606 L57.561,77.168 C57.862,77.938 57.531,78.577 56.654,78.92 C55.777,79.263 55.1,79.013 54.8,78.246 L53.799,75.684 L53.315,75.873 Z M55.897,79.756 C55.107,79.756 54.496,79.307 54.176,78.489 L53.148,75.857 C53.133,75.819 53.152,75.775 53.191,75.76 L53.814,75.517 C53.832,75.509 53.853,75.51 53.872,75.518 C53.89,75.526 53.904,75.541 53.911,75.559 L54.94,78.191 C55.209,78.88 55.807,79.09 56.599,78.78 C57.399,78.467 57.691,77.914 57.421,77.222 L56.393,74.591 C56.377,74.552 56.396,74.509 56.435,74.493 L57.058,74.249 C57.076,74.242 57.097,74.242 57.116,74.25 C57.134,74.258 57.148,74.273 57.155,74.292 L58.184,76.924 C58.406,77.493 58.405,78.035 58.181,78.49 C57.959,78.942 57.515,79.308 56.899,79.549 C56.547,79.687 56.21,79.756 55.897,79.756 Z" id="Fill-22"></path>
            <path d="M61.007,74.751 C61.161,74.468 61.399,74.3 61.657,74.141 L62.407,73.68 C62.802,73.436 62.966,73.088 62.706,72.666 C62.453,72.254 62.07,72.294 61.696,72.524 L60.202,73.443 L61.007,74.751 Z M62.47,74.433 L62.011,74.715 C61.758,74.871 61.521,75.054 61.362,75.327 L62.271,76.804 L61.696,77.158 L59.273,73.222 L61.341,71.949 C62.059,71.508 62.838,71.603 63.295,72.346 C63.663,72.943 63.562,73.536 63.08,74.029 L63.772,74.468 C64.245,74.68 64.383,74.703 64.636,74.548 C64.658,74.535 64.673,74.525 64.694,74.512 L64.817,74.429 L65.178,75.015 C64.719,75.297 64.255,75.583 63.571,75.145 L62.47,74.433 Z" id="Fill-23"></path>
            <path d="M60.305,73.467 L61.007,74.608 C61.172,74.365 61.398,74.212 61.618,74.077 L62.368,73.616 C62.559,73.498 62.681,73.364 62.731,73.215 C62.785,73.059 62.755,72.887 62.643,72.705 C62.439,72.375 62.132,72.343 61.735,72.588 L60.305,73.467 Z M61.007,74.826 C60.981,74.826 60.957,74.813 60.943,74.791 L60.138,73.482 C60.127,73.465 60.124,73.445 60.129,73.425 C60.133,73.406 60.146,73.389 60.163,73.379 L61.657,72.461 C62.128,72.169 62.526,72.23 62.771,72.626 C62.907,72.849 62.942,73.063 62.874,73.264 C62.812,73.446 62.668,73.607 62.446,73.743 L61.696,74.205 C61.463,74.348 61.223,74.512 61.073,74.787 C61.061,74.811 61.036,74.826 61.009,74.826 C61.009,74.826 61.008,74.826 61.007,74.826 Z M59.376,73.247 L61.72,77.055 L62.168,76.779 L61.298,75.366 C61.283,75.343 61.283,75.313 61.297,75.289 C61.477,74.981 61.752,74.787 61.972,74.652 L62.431,74.369 C62.456,74.354 62.487,74.355 62.511,74.37 L63.611,75.083 C63.836,75.226 64.046,75.296 64.253,75.296 C64.554,75.296 64.81,75.152 65.075,74.99 L64.794,74.535 L64.736,74.574 C64.713,74.589 64.697,74.599 64.674,74.612 C64.372,74.799 64.22,74.751 63.741,74.537 L63.04,74.092 C63.021,74.08 63.008,74.06 63.005,74.037 C63.002,74.015 63.01,73.993 63.026,73.976 C63.502,73.49 63.573,72.94 63.231,72.386 C62.98,71.976 62.622,71.759 62.197,71.759 C61.933,71.759 61.651,71.847 61.38,72.013 L59.376,73.247 Z M61.696,77.233 C61.69,77.233 61.684,77.232 61.678,77.231 C61.659,77.226 61.643,77.214 61.632,77.197 L59.209,73.261 C59.199,73.244 59.195,73.224 59.2,73.205 C59.205,73.185 59.217,73.169 59.233,73.158 L61.302,71.885 C61.596,71.704 61.905,71.609 62.197,71.609 C62.669,71.609 63.082,71.857 63.359,72.307 C63.72,72.892 63.661,73.495 63.196,74.014 L63.812,74.405 C64.054,74.512 64.214,74.573 64.338,74.573 C64.419,74.573 64.492,74.548 64.597,74.484 C64.619,74.471 64.634,74.462 64.653,74.449 L64.775,74.367 C64.793,74.355 64.815,74.351 64.833,74.355 C64.853,74.36 64.871,74.372 64.881,74.39 L65.242,74.975 C65.252,74.992 65.256,75.013 65.251,75.032 C65.247,75.051 65.234,75.068 65.217,75.078 C64.923,75.259 64.62,75.446 64.253,75.446 C64.017,75.446 63.78,75.368 63.53,75.209 L62.469,74.522 L62.05,74.779 C61.843,74.907 61.611,75.071 61.45,75.327 L62.335,76.764 C62.356,76.8 62.346,76.846 62.311,76.868 L61.735,77.222 C61.723,77.229 61.71,77.233 61.696,77.233 Z" id="Fill-24"></path>
            <path d="M66.526,70.912 C66.627,70.606 66.831,70.398 67.059,70.195 L67.716,69.608 C68.063,69.298 68.163,68.926 67.833,68.556 C67.51,68.195 67.14,68.301 66.811,68.594 L65.501,69.764 L66.526,70.912 Z M67.912,70.34 L67.509,70.7 C67.288,70.898 67.085,71.12 66.976,71.416 L68.133,72.713 L67.629,73.163 L64.546,69.71 L66.361,68.09 C66.991,67.528 67.775,67.485 68.358,68.137 C68.825,68.661 68.83,69.263 68.442,69.834 L69.202,70.145 C69.705,70.27 69.845,70.27 70.068,70.071 C70.086,70.055 70.1,70.043 70.119,70.026 L70.225,69.922 L70.684,70.436 C70.281,70.795 69.875,71.159 69.123,70.848 L67.912,70.34 Z" id="Fill-25"></path>
            <path d="M65.607,69.77 L66.5,70.771 C66.62,70.501 66.816,70.311 67.009,70.139 L67.666,69.552 C67.909,69.336 68.124,68.996 67.777,68.606 C67.521,68.317 67.21,68.34 66.861,68.65 L65.607,69.77 Z M66.526,70.987 C66.505,70.987 66.484,70.978 66.47,70.962 L65.445,69.814 C65.418,69.783 65.42,69.735 65.451,69.708 L66.761,68.539 C67.174,68.169 67.578,68.158 67.889,68.506 C68.22,68.877 68.175,69.299 67.766,69.664 L67.109,70.251 C66.904,70.434 66.696,70.637 66.597,70.936 C66.589,70.961 66.567,70.98 66.541,70.986 C66.536,70.986 66.531,70.987 66.526,70.987 Z M64.652,69.716 L67.635,73.057 L68.027,72.707 L66.92,71.466 C66.902,71.446 66.896,71.417 66.906,71.391 C67.027,71.061 67.254,70.828 67.46,70.644 L67.862,70.284 C67.883,70.265 67.913,70.26 67.94,70.271 L69.151,70.779 C69.334,70.854 69.498,70.891 69.655,70.891 C70.036,70.891 70.304,70.673 70.578,70.429 L70.222,70.03 L70.118,70.127 C69.994,70.238 69.88,70.306 69.694,70.306 C69.564,70.306 69.402,70.272 69.184,70.218 L68.414,69.903 C68.393,69.895 68.377,69.877 68.37,69.855 C68.364,69.834 68.367,69.811 68.38,69.792 C68.763,69.229 68.736,68.674 68.302,68.187 C68.037,67.89 67.716,67.733 67.375,67.733 C67.047,67.733 66.713,67.876 66.411,68.146 L64.652,69.716 Z M67.629,73.238 C67.627,73.238 67.626,73.238 67.625,73.238 C67.605,73.237 67.586,73.228 67.573,73.213 L64.49,69.76 C64.463,69.729 64.465,69.682 64.497,69.654 L66.311,68.034 C66.642,67.739 67.009,67.583 67.375,67.583 C67.76,67.583 68.119,67.758 68.414,68.088 C68.872,68.601 68.92,69.206 68.554,69.799 L69.23,70.076 C69.428,70.124 69.58,70.156 69.694,70.156 C69.818,70.156 69.9,70.121 70.018,70.015 L70.173,69.868 C70.187,69.854 70.207,69.845 70.228,69.847 C70.248,69.848 70.268,69.857 70.281,69.872 L70.74,70.386 C70.753,70.4 70.76,70.42 70.759,70.44 C70.758,70.46 70.749,70.478 70.734,70.491 C70.431,70.762 70.119,71.041 69.655,71.041 C69.478,71.041 69.294,71 69.094,70.918 L67.926,70.428 L67.559,70.756 C67.377,70.919 67.176,71.123 67.063,71.401 L68.189,72.663 C68.217,72.694 68.214,72.741 68.183,72.769 L67.679,73.219 C67.665,73.232 67.647,73.238 67.629,73.238 Z" id="Fill-26"></path>
            <path d="M72.639,67.265 L74.425,65.041 L74.952,65.464 L72.742,68.215 L69.136,65.317 L71.175,62.78 L71.706,63.206 L70.091,65.218 L71.184,66.096 C71.233,65.777 71.401,65.538 71.591,65.302 L72.224,64.513 L72.761,64.944 L72.128,65.733 C71.941,65.964 71.779,66.216 71.72,66.526 L72.639,67.265" id="Fill-27"></path>
            <path d="M69.242,65.306 L72.73,68.11 L74.846,65.476 L74.437,65.146 L72.697,67.312 C72.685,67.327 72.667,67.337 72.647,67.339 C72.626,67.341 72.607,67.336 72.592,67.323 L71.673,66.585 C71.652,66.567 71.642,66.54 71.646,66.512 C71.712,66.162 71.907,65.886 72.069,65.686 L72.655,64.956 L72.236,64.619 L71.65,65.349 C71.478,65.562 71.306,65.797 71.258,66.107 C71.253,66.134 71.236,66.156 71.211,66.166 C71.187,66.176 71.158,66.171 71.137,66.154 L70.044,65.276 C70.012,65.25 70.007,65.203 70.033,65.171 L71.601,63.218 L71.187,62.885 L69.242,65.306 Z M72.742,68.29 C72.725,68.29 72.709,68.284 72.695,68.274 L69.089,65.376 C69.057,65.35 69.052,65.303 69.078,65.27 L71.117,62.733 C71.143,62.701 71.19,62.695 71.222,62.721 L71.753,63.148 C71.786,63.174 71.791,63.221 71.765,63.254 L70.197,65.206 L71.135,65.961 C71.209,65.675 71.371,65.456 71.533,65.255 L72.165,64.466 C72.178,64.451 72.196,64.441 72.216,64.439 C72.236,64.437 72.256,64.442 72.271,64.455 L72.808,64.886 C72.84,64.912 72.845,64.959 72.819,64.992 L72.187,65.78 C72.033,65.969 71.87,66.202 71.803,66.497 L72.627,67.159 L74.367,64.994 C74.379,64.979 74.397,64.969 74.417,64.966 C74.438,64.965 74.456,64.97 74.472,64.982 L74.998,65.406 C75.031,65.432 75.036,65.479 75.01,65.511 L72.801,68.262 C72.788,68.277 72.77,68.287 72.751,68.29 C72.748,68.29 72.745,68.29 72.742,68.29 Z" id="Fill-28"></path>
            <polyline id="Fill-29" points="72.399 61.093 72.821 60.327 77.346 59.432 74.252 57.728 74.581 57.13 78.629 59.36 78.307 59.947 74.244 60.736 77.028 62.269 76.708 62.85 73.229 60.934 72.399 61.093"></polyline>
            <path d="M73.229,60.859 C73.242,60.859 73.254,60.863 73.265,60.869 L76.678,62.748 L76.926,62.299 L74.207,60.802 C74.18,60.786 74.165,60.756 74.169,60.724 C74.174,60.693 74.198,60.668 74.23,60.662 L78.258,59.88 L78.528,59.39 L74.61,57.232 L74.354,57.698 L77.382,59.366 C77.41,59.381 77.425,59.412 77.42,59.443 C77.415,59.474 77.392,59.499 77.361,59.505 L72.87,60.394 L72.541,60.989 L73.215,60.861 C73.22,60.86 73.224,60.859 73.229,60.859 Z M76.708,62.925 C76.695,62.925 76.683,62.922 76.671,62.916 L73.216,61.013 L72.413,61.166 C72.385,61.172 72.355,61.16 72.338,61.136 C72.321,61.113 72.319,61.082 72.333,61.056 L72.755,60.291 C72.766,60.271 72.785,60.258 72.806,60.254 L77.13,59.398 L74.216,57.793 C74.18,57.773 74.167,57.728 74.187,57.691 L74.515,57.094 C74.524,57.077 74.54,57.064 74.56,57.058 C74.579,57.053 74.6,57.055 74.617,57.065 L78.665,59.294 C78.702,59.314 78.715,59.36 78.695,59.396 L78.373,59.983 C78.362,60.003 78.343,60.016 78.321,60.021 L74.461,60.77 L77.064,62.204 C77.081,62.213 77.094,62.229 77.1,62.248 C77.105,62.268 77.103,62.288 77.093,62.305 L76.773,62.886 C76.76,62.911 76.734,62.925 76.708,62.925 Z" id="Fill-30"></path>
            <path d="M77.758,51.841 C77.323,52.046 76.966,52.442 76.797,52.941 C76.468,53.916 76.913,54.903 77.898,55.237 C78.843,55.556 79.812,54.975 80.122,54.059 C80.314,53.49 80.221,52.895 79.905,52.436 L80.573,52.223 C80.916,52.83 80.998,53.577 80.759,54.281 C80.311,55.608 78.93,56.286 77.61,55.839 C76.319,55.402 75.729,53.973 76.154,52.717 C76.377,52.06 76.842,51.55 77.416,51.267 L77.758,51.841" id="Fill-31"></path>
            <path d="M77.388,51.366 C76.839,51.656 76.428,52.142 76.225,52.741 C75.798,54.003 76.43,55.361 77.634,55.768 C77.895,55.856 78.164,55.901 78.432,55.901 C79.465,55.901 80.351,55.256 80.688,54.257 C80.908,53.609 80.852,52.904 80.537,52.314 L80.021,52.477 C80.315,52.956 80.377,53.536 80.193,54.083 C79.93,54.859 79.206,55.4 78.431,55.4 C78.43,55.4 78.431,55.4 78.43,55.4 C78.243,55.4 78.055,55.369 77.874,55.308 C76.873,54.969 76.38,53.942 76.726,52.917 C76.89,52.436 77.225,52.036 77.652,51.81 L77.388,51.366 Z M78.432,56.051 C78.147,56.051 77.863,56.004 77.586,55.91 C76.304,55.476 75.629,54.033 76.082,52.693 C76.306,52.034 76.768,51.504 77.383,51.2 C77.418,51.183 77.46,51.195 77.48,51.228 L77.823,51.802 C77.834,51.82 77.836,51.842 77.83,51.862 C77.824,51.883 77.81,51.899 77.79,51.908 C77.364,52.109 77.028,52.495 76.868,52.965 C76.544,53.924 76.988,54.85 77.922,55.166 C78.088,55.222 78.259,55.25 78.43,55.25 C79.142,55.25 79.809,54.751 80.05,54.035 C80.231,53.5 80.156,52.933 79.843,52.478 C79.83,52.459 79.827,52.434 79.835,52.411 C79.842,52.389 79.86,52.371 79.882,52.364 L80.55,52.152 C80.585,52.141 80.621,52.156 80.638,52.186 C81,52.825 81.07,53.597 80.83,54.305 C80.472,55.366 79.531,56.051 78.432,56.051 Z" id="Fill-32"></path>
            <path d="M77.802,46.097 L77.928,45.332 C78.873,45.934 79.608,46.657 80.236,47.458 L82.212,47.782 L82.104,48.442 L80.128,48.118 C79.276,48.676 78.348,49.127 77.261,49.395 L77.387,48.63 C78.133,48.488 78.936,48.149 79.601,47.692 C79.116,47.047 78.463,46.469 77.802,46.097" id="Fill-33"></path>
            <path d="M77.453,48.693 L77.354,49.294 C78.295,49.048 79.191,48.642 80.087,48.055 C80.103,48.045 80.121,48.041 80.141,48.044 L82.042,48.356 L82.127,47.844 L80.224,47.531 C80.205,47.528 80.189,47.519 80.177,47.504 C79.516,46.661 78.797,45.991 77.983,45.457 L77.885,46.058 C78.538,46.435 79.183,47.011 79.661,47.647 C79.673,47.664 79.678,47.684 79.675,47.704 C79.672,47.725 79.66,47.743 79.644,47.754 C78.989,48.204 78.193,48.545 77.453,48.693 Z M77.261,49.47 C77.243,49.47 77.224,49.463 77.21,49.45 C77.192,49.433 77.183,49.408 77.187,49.383 L77.313,48.618 C77.318,48.587 77.342,48.562 77.373,48.556 C78.085,48.421 78.853,48.101 79.493,47.675 C79.021,47.065 78.395,46.517 77.766,46.163 C77.738,46.147 77.723,46.116 77.728,46.085 L77.854,45.32 C77.858,45.295 77.874,45.274 77.897,45.264 C77.92,45.253 77.947,45.255 77.968,45.269 C78.829,45.817 79.585,46.51 80.277,47.388 L82.225,47.708 C82.244,47.711 82.262,47.722 82.273,47.738 C82.285,47.754 82.29,47.774 82.287,47.794 L82.178,48.454 C82.175,48.474 82.164,48.492 82.148,48.503 C82.131,48.515 82.11,48.52 82.092,48.516 L80.145,48.197 C79.207,48.808 78.27,49.223 77.279,49.468 C77.273,49.469 77.267,49.47 77.261,49.47 Z" id="Fill-34"></path>
            <path d="M7.787,26.437 L8.539,24.866 C8.702,24.526 8.715,24.009 8.296,23.809 C7.81,23.576 7.484,23.942 7.291,24.344 L6.948,25.06 C6.82,25.328 6.723,25.618 6.736,25.934 L7.787,26.437 Z M6.116,25.637 C6.091,25.316 6.197,25.037 6.328,24.763 L6.671,24.047 C6.85,23.673 6.778,23.336 6.392,23.151 C5.995,22.961 5.738,23.155 5.563,23.518 L4.842,25.027 L6.116,25.637 Z M9.119,25.219 L8.107,27.332 L3.938,25.336 L4.949,23.224 C5.287,22.519 5.946,22.189 6.678,22.54 C7.036,22.711 7.281,22.986 7.32,23.308 C7.594,23.081 8.088,22.967 8.664,23.243 C9.49,23.639 9.45,24.526 9.119,25.219 Z" id="Fill-35"></path>
            <path d="M4.942,24.992 L6.038,25.516 C6.044,25.226 6.147,24.968 6.26,24.73 L6.603,24.015 C6.702,23.808 6.801,23.43 6.359,23.219 C6.043,23.067 5.814,23.171 5.631,23.55 L4.942,24.992 Z M6.116,25.712 C6.105,25.712 6.094,25.71 6.084,25.704 L4.81,25.094 C4.772,25.077 4.756,25.032 4.774,24.994 L5.496,23.485 C5.713,23.034 6.032,22.896 6.424,23.084 C6.827,23.276 6.944,23.649 6.739,24.08 L6.396,24.795 C6.256,25.087 6.168,25.341 6.191,25.631 C6.193,25.658 6.181,25.684 6.159,25.699 C6.146,25.708 6.131,25.712 6.116,25.712 Z M6.81,25.886 L7.752,26.337 L8.471,24.834 C8.552,24.665 8.586,24.464 8.562,24.296 C8.542,24.16 8.474,23.977 8.264,23.877 C8.173,23.833 8.085,23.811 8.002,23.811 C7.694,23.811 7.482,24.119 7.358,24.377 L7.016,25.092 C6.874,25.39 6.808,25.644 6.81,25.886 Z M7.787,26.512 C7.776,26.512 7.765,26.509 7.755,26.504 L6.704,26.001 C6.679,25.989 6.663,25.965 6.662,25.937 C6.646,25.568 6.779,25.241 6.88,25.028 L7.223,24.312 C7.498,23.739 7.896,23.534 8.329,23.742 C8.543,23.844 8.674,24.028 8.71,24.274 C8.739,24.473 8.702,24.701 8.607,24.899 L7.855,26.469 C7.842,26.496 7.815,26.512 7.787,26.512 Z M4.038,25.301 L8.072,27.232 L9.051,25.187 C9.366,24.528 9.421,23.689 8.631,23.311 C8.163,23.086 7.669,23.117 7.368,23.365 C7.347,23.383 7.32,23.388 7.292,23.377 C7.267,23.367 7.249,23.344 7.246,23.317 C7.211,23.032 6.993,22.773 6.646,22.607 C5.995,22.296 5.35,22.56 5.017,23.256 L4.038,25.301 Z M8.107,27.407 C8.096,27.407 8.085,27.405 8.075,27.4 L3.905,25.404 C3.887,25.395 3.874,25.38 3.867,25.361 C3.86,25.342 3.861,25.322 3.87,25.304 L4.881,23.191 C5.146,22.64 5.589,22.324 6.097,22.324 C6.298,22.324 6.505,22.374 6.71,22.472 C7.057,22.638 7.292,22.891 7.371,23.178 C7.72,22.958 8.224,22.949 8.696,23.175 C9.587,23.602 9.517,24.561 9.187,25.252 L8.175,27.365 C8.167,27.383 8.151,27.396 8.132,27.403 C8.125,27.406 8.116,27.407 8.107,27.407 Z" id="Fill-36"></path>
            <path d="M9.531,20.733 L7.239,19.08 L7.63,18.537 L9.923,20.19 C10.566,20.654 11.216,20.496 11.742,19.767 C12.268,19.038 12.213,18.372 11.569,17.908 L9.276,16.254 L9.668,15.712 L11.961,17.365 C12.936,18.068 13.055,19.101 12.29,20.162 C11.524,21.223 10.507,21.437 9.531,20.733" id="Fill-37"></path>
            <path d="M7.344,19.063 L9.575,20.673 C10.506,21.344 11.496,21.135 12.229,20.118 C12.973,19.086 12.859,18.105 11.917,17.425 L9.685,15.816 L9.381,16.237 L11.613,17.847 C12.284,18.331 12.354,19.046 11.803,19.811 C11.255,20.569 10.546,20.731 9.879,20.251 L7.647,18.642 L7.344,19.063 Z M10.672,21.217 C10.275,21.217 9.876,21.075 9.487,20.794 L7.195,19.141 C7.162,19.117 7.154,19.07 7.178,19.036 L7.569,18.493 C7.581,18.477 7.598,18.466 7.618,18.463 C7.64,18.46 7.657,18.465 7.674,18.476 L9.967,20.129 C10.567,20.562 11.183,20.414 11.681,19.723 C12.184,19.026 12.128,18.403 11.525,17.968 L9.232,16.315 C9.216,16.303 9.206,16.286 9.202,16.266 C9.199,16.246 9.204,16.226 9.215,16.21 L9.607,15.668 C9.632,15.634 9.678,15.626 9.712,15.651 L12.005,17.304 C13.009,18.028 13.138,19.113 12.351,20.206 C11.874,20.867 11.293,21.217 10.672,21.217 Z" id="Fill-38"></path>
            <path d="M13.93,11.189 L14.487,10.651 C14.885,11.696 15.043,12.716 15.069,13.733 L16.46,15.172 L15.979,15.637 L14.588,14.198 C13.572,14.137 12.559,13.943 11.528,13.51 L12.085,12.972 C12.768,13.303 13.614,13.51 14.419,13.542 C14.416,12.736 14.238,11.882 13.93,11.189" id="Fill-39"></path>
            <path d="M11.663,13.484 C12.565,13.85 13.524,14.059 14.592,14.123 C14.611,14.124 14.629,14.132 14.642,14.146 L15.98,15.531 L16.354,15.171 L15.016,13.785 C15.002,13.771 14.995,13.754 14.994,13.735 C14.967,12.665 14.791,11.698 14.457,10.785 L14.02,11.207 C14.318,11.9 14.491,12.747 14.495,13.541 C14.495,13.562 14.486,13.582 14.472,13.596 C14.457,13.61 14.437,13.615 14.417,13.617 C13.623,13.586 12.782,13.384 12.1,13.062 L11.663,13.484 Z M15.979,15.712 C15.959,15.712 15.94,15.704 15.925,15.689 L14.554,14.271 C13.439,14.201 12.44,13.975 11.499,13.579 C11.476,13.569 11.46,13.549 11.455,13.524 C11.45,13.499 11.458,13.474 11.476,13.456 L12.033,12.918 C12.056,12.896 12.089,12.891 12.118,12.904 C12.769,13.22 13.575,13.422 14.344,13.463 C14.329,12.694 14.155,11.881 13.861,11.22 C13.848,11.191 13.855,11.157 13.877,11.135 L14.435,10.597 C14.453,10.58 14.478,10.573 14.503,10.578 C14.528,10.583 14.548,10.601 14.557,10.624 C14.92,11.577 15.112,12.584 15.144,13.702 L16.514,15.12 C16.528,15.134 16.535,15.154 16.535,15.174 C16.535,15.193 16.526,15.213 16.512,15.226 L16.031,15.691 C16.016,15.705 15.997,15.712 15.979,15.712 Z" id="Fill-40"></path>
            <path d="M21.013,8.469 C21.17,8.187 21.411,8.022 21.672,7.867 L22.429,7.416 C22.829,7.178 22.998,6.832 22.744,6.406 C22.497,5.99 22.113,6.024 21.734,6.249 L20.226,7.147 L21.013,8.469 Z M22.481,8.172 L22.018,8.447 C21.762,8.6 21.522,8.779 21.358,9.05 L22.246,10.542 L21.666,10.888 L19.299,6.912 L21.389,5.668 C22.114,5.237 22.892,5.344 23.339,6.096 C23.697,6.697 23.588,7.29 23.098,7.776 L23.784,8.227 C24.254,8.445 24.393,8.471 24.648,8.319 C24.669,8.306 24.685,8.297 24.707,8.284 L24.832,8.203 L25.184,8.794 C24.72,9.07 24.251,9.349 23.572,8.901 L22.481,8.172 Z" id="Fill-41"></path>
            <path d="M20.329,7.173 L21.014,8.325 C21.183,8.083 21.412,7.935 21.634,7.803 L22.39,7.352 C22.584,7.237 22.709,7.104 22.761,6.956 C22.817,6.801 22.79,6.628 22.68,6.444 C22.481,6.111 22.174,6.074 21.773,6.314 L20.329,7.173 Z M21.013,8.544 C20.986,8.544 20.962,8.53 20.948,8.507 L20.161,7.185 C20.151,7.168 20.148,7.147 20.153,7.128 C20.158,7.109 20.17,7.092 20.187,7.082 L21.696,6.185 C22.175,5.901 22.57,5.967 22.809,6.367 C22.942,6.592 22.974,6.807 22.902,7.007 C22.837,7.188 22.691,7.348 22.467,7.481 L21.71,7.932 C21.475,8.072 21.231,8.231 21.078,8.506 C21.065,8.529 21.041,8.542 21.013,8.544 Z M19.402,6.938 L21.692,10.785 L22.144,10.516 L21.294,9.088 C21.28,9.064 21.28,9.035 21.294,9.011 C21.478,8.706 21.757,8.515 21.979,8.383 L22.443,8.107 C22.468,8.092 22.5,8.093 22.523,8.109 L23.614,8.839 C23.841,8.989 24.055,9.062 24.268,9.062 C24.563,9.062 24.817,8.924 25.081,8.768 L24.807,8.308 L24.686,8.384 C24.379,8.567 24.225,8.514 23.752,8.295 L23.057,7.839 C23.038,7.827 23.025,7.806 23.023,7.784 C23.021,7.761 23.029,7.739 23.045,7.723 C23.521,7.25 23.603,6.686 23.274,6.134 C23.024,5.713 22.663,5.491 22.23,5.491 C21.971,5.491 21.693,5.574 21.427,5.733 L19.402,6.938 Z M21.666,10.963 C21.66,10.963 21.654,10.962 21.648,10.961 C21.628,10.956 21.612,10.943 21.602,10.926 L19.235,6.95 C19.214,6.915 19.226,6.869 19.261,6.847 L21.35,5.604 C21.64,5.432 21.944,5.34 22.23,5.34 C22.711,5.34 23.128,5.595 23.403,6.057 C23.755,6.648 23.687,7.251 23.214,7.763 L23.825,8.164 C24.069,8.276 24.23,8.34 24.355,8.34 C24.434,8.34 24.507,8.316 24.609,8.255 L24.791,8.14 C24.809,8.129 24.829,8.125 24.849,8.13 C24.869,8.134 24.886,8.147 24.896,8.164 L25.248,8.756 C25.258,8.773 25.261,8.794 25.256,8.813 C25.251,8.832 25.239,8.849 25.222,8.859 C24.929,9.033 24.627,9.212 24.268,9.212 C24.024,9.212 23.784,9.131 23.531,8.964 L22.479,8.26 L22.056,8.512 C21.846,8.637 21.611,8.798 21.446,9.051 L22.31,10.504 C22.332,10.539 22.32,10.585 22.285,10.606 L21.705,10.953 C21.693,10.96 21.679,10.963 21.666,10.963 Z" id="Fill-42"></path>
            <path d="M27.733,6.929 L30.394,5.907 L30.636,6.537 L27.346,7.802 L25.687,3.488 L28.724,2.321 L28.968,2.957 L26.562,3.882 L27.064,5.189 C27.267,4.938 27.532,4.817 27.816,4.708 L28.758,4.345 L29.005,4.987 L28.062,5.349 C27.784,5.456 27.518,5.592 27.311,5.831 L27.733,6.929" id="Fill-43"></path>
            <path d="M25.784,3.531 L27.389,7.705 L30.539,6.494 L30.351,6.004 L27.76,6.999 C27.722,7.014 27.678,6.995 27.664,6.956 L27.241,5.858 C27.231,5.832 27.236,5.803 27.254,5.782 C27.485,5.515 27.779,5.378 28.035,5.279 L28.908,4.944 L28.715,4.442 L27.843,4.778 C27.586,4.876 27.319,4.993 27.123,5.236 C27.106,5.257 27.079,5.267 27.053,5.263 C27.026,5.259 27.004,5.241 26.995,5.215 L26.493,3.909 C26.478,3.87 26.497,3.827 26.536,3.812 L28.871,2.914 L28.681,2.418 L25.784,3.531 Z M27.346,7.877 C27.335,7.877 27.325,7.875 27.315,7.87 C27.297,7.862 27.283,7.848 27.276,7.829 L25.618,3.515 C25.603,3.476 25.622,3.433 25.661,3.418 L28.697,2.251 C28.715,2.244 28.736,2.244 28.754,2.252 C28.772,2.26 28.787,2.275 28.793,2.294 L29.038,2.93 C29.053,2.969 29.033,3.012 28.995,3.027 L26.659,3.925 L27.09,5.047 C27.297,4.839 27.547,4.73 27.789,4.638 L28.731,4.275 C28.75,4.268 28.771,4.269 28.789,4.277 C28.807,4.285 28.821,4.3 28.828,4.318 L29.075,4.96 C29.082,4.979 29.082,5 29.073,5.018 C29.065,5.036 29.05,5.05 29.032,5.057 L28.089,5.419 C27.861,5.507 27.603,5.626 27.397,5.847 L27.776,6.832 L30.367,5.837 C30.406,5.822 30.449,5.842 30.463,5.88 L30.706,6.51 C30.721,6.549 30.701,6.592 30.663,6.607 L27.373,7.872 C27.364,7.875 27.355,7.877 27.346,7.877 Z" id="Fill-44"></path>
            <path d="M34.707,2.808 C35.138,2.718 35.332,2.463 35.241,2.026 C35.146,1.57 34.879,1.442 34.441,1.532 L32.777,1.878 L33.08,3.336 C33.32,3.121 33.607,3.037 33.905,2.975 L34.707,2.808 Z M32.919,5.885 L31.978,1.354 L34.304,0.87 C35.106,0.704 35.729,1.081 35.897,1.889 C36.064,2.691 35.647,3.31 34.846,3.476 L34.044,3.643 C33.752,3.704 33.462,3.802 33.219,4.005 L33.582,5.748 L32.919,5.885 Z" id="Fill-45"></path>
            <path d="M32.866,1.936 L33.128,3.201 C33.363,3.029 33.632,2.955 33.89,2.901 L34.692,2.735 C35.092,2.651 35.248,2.424 35.168,2.041 C35.085,1.644 34.874,1.518 34.457,1.606 L32.866,1.936 Z M33.08,3.411 C33.072,3.411 33.064,3.41 33.057,3.407 C33.031,3.399 33.012,3.378 33.007,3.351 L32.704,1.893 C32.695,1.853 32.722,1.813 32.762,1.805 L34.426,1.459 C34.935,1.352 35.215,1.532 35.314,2.01 C35.412,2.479 35.207,2.781 34.722,2.882 L33.92,3.048 C33.603,3.114 33.347,3.198 33.13,3.392 C33.116,3.404 33.098,3.411 33.08,3.411 Z M32.066,1.412 L32.978,5.797 L33.493,5.69 L33.146,4.02 C33.14,3.993 33.15,3.965 33.171,3.947 C33.455,3.71 33.796,3.618 34.029,3.57 L34.831,3.403 C35.205,3.325 35.496,3.144 35.672,2.879 C35.849,2.614 35.901,2.277 35.824,1.904 C35.692,1.27 35.27,0.906 34.664,0.906 C34.554,0.906 34.437,0.919 34.319,0.944 L32.066,1.412 Z M32.919,5.96 C32.905,5.96 32.891,5.956 32.878,5.948 C32.862,5.937 32.85,5.92 32.846,5.901 L31.904,1.369 C31.896,1.328 31.922,1.289 31.962,1.28 L34.289,0.797 C34.417,0.77 34.544,0.756 34.664,0.756 C35.337,0.756 35.825,1.174 35.971,1.874 C36.057,2.286 35.997,2.663 35.797,2.963 C35.599,3.261 35.275,3.464 34.861,3.549 L34.059,3.716 C33.735,3.784 33.493,3.885 33.302,4.034 L33.655,5.732 C33.664,5.773 33.637,5.813 33.597,5.821 L32.935,5.959 C32.93,5.96 32.924,5.96 32.919,5.96 Z" id="Fill-46"></path>
            <path d="M40.918,3.419 L39.8,1.524 L38.901,3.792 C39.061,3.641 39.432,3.502 40.064,3.466 L40.918,3.419 Z M39.128,0.164 L39.871,0.122 L42.356,4.699 L41.601,4.741 L41.26,4.083 L39.854,4.161 C39.012,4.208 38.574,4.5 38.48,4.698 L38.375,4.922 L37.643,4.962 L39.414,0.719 L39.128,0.164 Z" id="Fill-47"></path>
            <path d="M39.813,1.694 L39.059,3.6 C39.291,3.488 39.635,3.415 40.06,3.392 L40.791,3.351 L39.813,1.694 Z M38.901,3.867 C38.887,3.867 38.872,3.863 38.859,3.854 C38.83,3.835 38.819,3.797 38.832,3.765 L39.73,1.497 C39.741,1.47 39.766,1.452 39.794,1.449 C39.819,1.445 39.85,1.461 39.865,1.486 L40.982,3.381 C40.996,3.403 40.997,3.431 40.984,3.454 C40.972,3.477 40.948,3.492 40.922,3.494 L40.068,3.541 C39.306,3.584 39.035,3.769 38.953,3.846 C38.939,3.86 38.92,3.867 38.901,3.867 Z M39.248,0.232 L39.48,0.685 C39.49,0.705 39.491,0.728 39.483,0.748 L37.758,4.88 L38.326,4.849 L38.412,4.666 C38.53,4.419 39.03,4.132 39.849,4.087 L41.255,4.008 C41.285,4.007 41.313,4.023 41.326,4.049 L41.645,4.664 L42.234,4.631 L39.828,0.2 L39.248,0.232 Z M37.643,5.037 C37.619,5.037 37.596,5.025 37.582,5.005 C37.567,4.984 37.564,4.956 37.574,4.933 L39.331,0.723 L39.061,0.198 C39.05,0.176 39.05,0.149 39.063,0.127 C39.076,0.105 39.098,0.09 39.124,0.089 L39.867,0.047 C39.901,0.046 39.923,0.061 39.937,0.087 L42.422,4.663 C42.435,4.686 42.435,4.713 42.422,4.736 C42.409,4.758 42.386,4.773 42.361,4.774 L41.605,4.816 C41.578,4.82 41.547,4.802 41.534,4.776 L41.215,4.161 L39.858,4.236 C39.047,4.281 38.63,4.556 38.548,4.73 L38.442,4.954 C38.431,4.979 38.406,4.995 38.378,4.997 L37.647,5.037 C37.646,5.037 37.645,5.037 37.643,5.037 Z" id="Fill-48"></path>
            <polyline id="Fill-49" points="44.49 4.852 44.836 0.24 45.498 0.29 45.151 4.902 44.49 4.852"></polyline>
            <path d="M44.571,4.783 L45.082,4.821 L45.417,0.359 L44.905,0.32 L44.571,4.783 Z M45.151,4.977 C45.149,4.977 45.148,4.977 45.146,4.976 L44.485,4.927 C44.443,4.924 44.412,4.888 44.416,4.846 L44.761,0.234 C44.763,0.214 44.772,0.196 44.787,0.183 C44.802,0.17 44.821,0.163 44.842,0.165 L45.503,0.215 C45.544,0.218 45.576,0.254 45.572,0.295 L45.226,4.907 C45.223,4.947 45.19,4.977 45.151,4.977 Z" id="Fill-50"></path>
            <path d="M48.903,2.943 C49.209,2.843 49.498,2.884 49.795,2.947 L50.656,3.127 C51.111,3.223 51.469,3.083 51.571,2.598 C51.67,2.125 51.365,1.89 50.935,1.8 L49.219,1.439 L48.903,2.943 Z M50.184,3.719 L49.656,3.608 C49.365,3.546 49.067,3.516 48.765,3.604 L48.408,5.301 L47.747,5.163 L48.696,0.64 L51.073,1.139 C51.898,1.312 52.398,1.917 52.219,2.772 C52.074,3.457 51.594,3.818 50.904,3.845 L51.104,4.64 C51.302,5.118 51.386,5.231 51.677,5.291 C51.701,5.297 51.719,5.3 51.743,5.306 L51.89,5.33 L51.749,6.003 C51.222,5.893 50.687,5.78 50.492,4.992 L50.184,3.719 Z" id="Fill-51"></path>
            <path d="M49.294,2.808 C49.474,2.808 49.648,2.839 49.811,2.873 L50.672,3.054 C51.125,3.149 51.412,2.989 51.498,2.583 C51.54,2.383 51.506,2.227 51.396,2.106 C51.297,1.997 51.136,1.919 50.919,1.873 L49.277,1.528 L49.001,2.838 C49.095,2.818 49.191,2.808 49.294,2.808 Z M50.909,3.231 C50.825,3.231 50.735,3.221 50.641,3.201 L49.779,3.02 C49.504,2.962 49.189,2.928 48.926,3.014 C48.9,3.023 48.873,3.017 48.853,2.999 C48.833,2.981 48.824,2.954 48.83,2.928 L49.146,1.424 C49.154,1.384 49.19,1.357 49.234,1.366 L50.95,1.726 C51.199,1.778 51.386,1.872 51.507,2.005 C51.65,2.162 51.696,2.366 51.645,2.614 C51.561,3.012 51.299,3.231 50.909,3.231 Z M49.165,3.474 C49.315,3.474 49.477,3.493 49.672,3.534 L50.199,3.645 C50.228,3.651 50.25,3.673 50.256,3.701 L50.565,4.975 C50.74,5.682 51.197,5.809 51.691,5.915 L51.8,5.391 L51.66,5.365 C51.336,5.297 51.236,5.156 51.035,4.668 L50.832,3.863 C50.826,3.841 50.831,3.818 50.844,3.8 C50.858,3.782 50.879,3.771 50.901,3.77 C51.581,3.744 52.011,3.394 52.146,2.756 C52.308,1.979 51.892,1.387 51.058,1.212 L48.754,0.729 L47.836,5.105 L48.35,5.213 L48.691,3.589 C48.697,3.562 48.717,3.54 48.744,3.532 C48.877,3.493 49.015,3.474 49.165,3.474 Z M51.749,6.078 C51.744,6.078 51.739,6.078 51.733,6.077 C51.214,5.968 50.626,5.844 50.419,5.01 L50.122,3.782 L49.641,3.681 C49.298,3.609 49.06,3.605 48.829,3.664 L48.481,5.317 C48.472,5.357 48.431,5.384 48.393,5.375 L47.732,5.237 C47.712,5.233 47.695,5.221 47.684,5.204 C47.673,5.188 47.669,5.167 47.674,5.148 L48.623,0.624 C48.627,0.605 48.639,0.588 48.655,0.577 C48.672,0.566 48.692,0.562 48.712,0.566 L51.089,1.065 C51.999,1.256 52.471,1.932 52.292,2.787 C52.15,3.46 51.693,3.857 50.999,3.914 L51.177,4.622 C51.367,5.08 51.44,5.165 51.692,5.218 L51.902,5.256 C51.922,5.259 51.94,5.271 51.952,5.288 C51.963,5.305 51.967,5.325 51.963,5.345 L51.822,6.019 C51.818,6.038 51.807,6.055 51.79,6.066 C51.778,6.074 51.764,6.078 51.749,6.078 Z" id="Fill-52"></path>
            <polyline id="Fill-53" points="60.103 5.036 58.38 8.584 57.789 8.297 59.511 4.749 58.027 4.029 58.325 3.415 61.867 5.135 61.57 5.749 60.103 5.036"></polyline>
            <path d="M57.889,8.262 L58.345,8.484 L60.035,5.003 C60.044,4.985 60.059,4.972 60.078,4.965 C60.096,4.959 60.117,4.96 60.135,4.969 L61.535,5.648 L61.767,5.17 L58.359,3.515 L58.127,3.994 L59.544,4.681 C59.562,4.69 59.576,4.705 59.582,4.724 C59.588,4.743 59.587,4.764 59.579,4.781 L57.889,8.262 Z M58.38,8.659 C58.369,8.659 58.357,8.656 58.347,8.651 L57.756,8.364 C57.719,8.346 57.703,8.301 57.721,8.264 L59.411,4.784 L57.995,4.096 C57.957,4.078 57.942,4.033 57.96,3.996 L58.257,3.382 C58.266,3.364 58.281,3.35 58.3,3.344 C58.318,3.337 58.339,3.339 58.357,3.347 L61.9,5.067 C61.937,5.085 61.953,5.13 61.935,5.167 L61.637,5.781 C61.628,5.799 61.613,5.813 61.594,5.82 C61.576,5.826 61.555,5.825 61.537,5.816 L60.137,5.136 L58.447,8.617 C58.438,8.635 58.423,8.648 58.404,8.655 C58.396,8.658 58.388,8.659 58.38,8.659 Z" id="Fill-54"></path>
            <path d="M65.851,8.327 C65.015,7.727 63.94,7.863 63.332,8.711 C62.75,9.521 63.024,10.618 63.81,11.182 C64.616,11.761 65.735,11.617 66.32,10.8 C66.913,9.974 66.652,8.901 65.851,8.327 Z M63.411,11.728 C62.273,10.911 62.026,9.391 62.84,8.258 C63.635,7.149 65.175,7.003 66.254,7.776 C67.367,8.575 67.649,10.097 66.843,11.221 C66.048,12.329 64.499,12.508 63.411,11.728 Z" id="Fill-55"></path>
            <path d="M64.75,8.034 C64.216,8.034 63.722,8.296 63.394,8.754 C63.129,9.122 63.037,9.572 63.132,10.024 C63.223,10.458 63.486,10.858 63.854,11.121 C64.161,11.341 64.519,11.458 64.89,11.458 C65.441,11.458 65.94,11.202 66.259,10.756 C66.529,10.381 66.627,9.929 66.535,9.484 C66.445,9.049 66.187,8.66 65.807,8.388 C65.484,8.156 65.119,8.034 64.75,8.034 Z M64.89,11.608 C64.487,11.608 64.099,11.482 63.766,11.243 C63.369,10.958 63.084,10.525 62.985,10.054 C62.881,9.562 62.983,9.069 63.271,8.667 C63.628,8.169 64.167,7.883 64.75,7.883 C65.15,7.883 65.546,8.016 65.895,8.266 C66.305,8.56 66.585,8.982 66.682,9.454 C66.782,9.94 66.675,10.434 66.381,10.844 C66.033,11.329 65.49,11.608 64.89,11.608 Z M64.754,7.367 C64.002,7.367 63.327,7.707 62.901,8.302 C62.519,8.834 62.365,9.473 62.467,10.1 C62.57,10.727 62.921,11.284 63.455,11.667 C63.878,11.97 64.377,12.131 64.896,12.131 C65.66,12.131 66.347,11.783 66.782,11.177 C67.56,10.093 67.309,8.626 66.21,7.837 C65.787,7.534 65.27,7.367 64.754,7.367 Z M64.896,12.281 C64.345,12.281 63.816,12.111 63.367,11.789 C62.801,11.382 62.429,10.791 62.319,10.124 C62.21,9.458 62.373,8.779 62.779,8.214 C63.233,7.58 63.954,7.216 64.754,7.216 C65.301,7.216 65.849,7.394 66.298,7.715 C67.464,8.553 67.731,10.112 66.904,11.265 C66.44,11.911 65.709,12.281 64.896,12.281 Z" id="Fill-56"></path>
            <path d="M71.694,13.434 C70.986,12.687 69.905,12.619 69.149,13.334 C68.425,14.021 68.486,15.149 69.151,15.851 C69.833,16.571 70.958,16.641 71.687,15.95 C72.425,15.251 72.371,14.149 71.694,13.434 Z M68.657,16.311 C67.693,15.294 67.739,13.757 68.752,12.798 C69.742,11.86 71.28,12.007 72.193,12.97 C73.135,13.964 73.123,15.511 72.12,16.462 C71.131,17.4 69.577,17.283 68.657,16.311 Z" id="Fill-57"></path>
            <path d="M70.361,12.909 C69.934,12.909 69.533,13.075 69.201,13.389 C68.873,13.7 68.696,14.125 68.704,14.586 C68.712,15.029 68.895,15.471 69.206,15.799 C69.541,16.153 70.007,16.356 70.484,16.356 C70.913,16.356 71.322,16.193 71.635,15.896 C71.97,15.578 72.152,15.153 72.146,14.699 C72.14,14.256 71.96,13.825 71.639,13.486 C71.287,13.114 70.833,12.909 70.361,12.909 Z M70.484,16.506 C69.966,16.506 69.46,16.286 69.097,15.902 C68.76,15.547 68.562,15.068 68.554,14.588 C68.545,14.085 68.739,13.62 69.098,13.28 C69.457,12.939 69.895,12.759 70.361,12.759 C70.874,12.759 71.367,12.98 71.748,13.383 C72.095,13.749 72.29,14.216 72.296,14.697 C72.302,15.194 72.104,15.658 71.738,16.005 C71.397,16.328 70.952,16.506 70.484,16.506 Z M70.345,12.241 C69.767,12.241 69.219,12.458 68.803,12.852 C67.822,13.782 67.782,15.278 68.711,16.26 C69.176,16.75 69.825,17.031 70.494,17.031 C71.085,17.031 71.644,16.81 72.068,16.407 C73.037,15.49 73.068,14.003 72.139,13.022 C71.669,12.526 71.015,12.241 70.345,12.241 Z M70.494,17.181 C69.784,17.181 69.095,16.883 68.602,16.363 C67.615,15.321 67.658,13.73 68.7,12.743 C69.144,12.323 69.729,12.091 70.345,12.091 C71.056,12.091 71.749,12.393 72.248,12.919 C73.235,13.961 73.201,15.541 72.172,16.516 C71.719,16.945 71.124,17.181 70.494,17.181 Z" id="Fill-58"></path>
            <polyline id="Fill-59" points="71.823 19.905 75.663 17.321 76.04 17.882 72.761 20.088 74.195 22.219 73.635 22.596 71.823 19.905"></polyline>
            <path d="M71.927,19.925 L73.655,22.492 L74.091,22.198 L72.699,20.13 C72.688,20.113 72.684,20.093 72.687,20.073 C72.691,20.054 72.703,20.036 72.719,20.025 L75.936,17.861 L75.642,17.425 L71.927,19.925 Z M73.635,22.671 C73.63,22.671 73.625,22.671 73.621,22.67 C73.601,22.666 73.584,22.655 73.573,22.638 L71.761,19.946 C71.75,19.93 71.746,19.91 71.749,19.89 C71.753,19.87 71.765,19.853 71.781,19.842 L75.621,17.259 C75.656,17.236 75.702,17.245 75.725,17.279 L76.102,17.84 C76.113,17.856 76.118,17.877 76.114,17.896 C76.11,17.916 76.099,17.933 76.082,17.944 L72.865,20.108 L74.257,22.177 C74.281,22.211 74.271,22.258 74.237,22.281 L73.677,22.658 C73.664,22.667 73.649,22.671 73.635,22.671 Z" id="Fill-60"></path>
            <path d="M75.198,25.845 C74.898,25.205 74.901,24.396 75.248,23.72 L75.863,23.965 C75.702,24.308 75.502,24.902 75.81,25.558 C76.1,26.175 76.627,26.687 77.149,26.443 C77.789,26.142 77.491,25.508 77.207,24.903 C76.738,23.904 76.854,23.186 77.565,22.852 C78.245,22.533 79.182,22.881 79.603,23.778 C79.9,24.413 79.979,25.047 79.73,25.772 L79.103,25.601 C79.257,24.981 79.235,24.601 78.985,24.068 C78.765,23.597 78.255,23.357 77.89,23.528 C77.638,23.646 77.492,23.934 77.826,24.646 C78.513,26.11 78.235,26.7 77.444,27.071 C76.603,27.466 75.696,26.906 75.198,25.845" id="Fill-61"></path>
            <path d="M75.285,23.815 C74.987,24.441 74.979,25.2 75.266,25.813 C75.646,26.621 76.268,27.123 76.889,27.123 C77.067,27.123 77.243,27.083 77.412,27.003 C78.119,26.671 78.448,26.149 77.758,24.678 C77.566,24.269 77.512,23.963 77.592,23.743 C77.637,23.616 77.727,23.521 77.858,23.46 C77.946,23.419 78.043,23.398 78.146,23.398 C78.51,23.398 78.874,23.654 79.053,24.036 C79.296,24.553 79.334,24.943 79.192,25.548 L79.682,25.681 C79.882,25.046 79.835,24.45 79.535,23.81 C79.25,23.203 78.686,22.811 78.098,22.811 C77.919,22.811 77.751,22.847 77.597,22.92 C76.759,23.313 76.959,24.198 77.275,24.871 C77.562,25.484 77.888,26.178 77.181,26.511 C77.083,26.557 76.98,26.58 76.877,26.58 C76.383,26.58 75.967,26.069 75.742,25.59 C75.511,25.098 75.519,24.566 75.763,24.006 L75.285,23.815 Z M76.889,27.273 C76.209,27.273 75.535,26.738 75.13,25.877 C74.814,25.203 74.834,24.363 75.181,23.686 C75.199,23.651 75.238,23.636 75.276,23.65 L75.891,23.895 C75.91,23.903 75.925,23.918 75.933,23.937 C75.94,23.957 75.94,23.978 75.931,23.997 C75.675,24.541 75.657,25.056 75.877,25.526 C76.136,26.075 76.528,26.43 76.877,26.43 C76.958,26.43 77.039,26.412 77.118,26.375 C77.649,26.125 77.471,25.642 77.139,24.934 C76.652,23.896 76.792,23.132 77.534,22.784 C77.707,22.702 77.898,22.661 78.098,22.661 C78.744,22.661 79.361,23.087 79.67,23.746 C79.999,24.446 80.04,25.097 79.801,25.797 C79.789,25.834 79.749,25.855 79.711,25.845 L79.083,25.673 C79.044,25.663 79.02,25.623 79.03,25.583 C79.183,24.968 79.156,24.607 78.918,24.099 C78.765,23.775 78.448,23.548 78.146,23.548 C78.065,23.548 77.99,23.564 77.922,23.596 C77.827,23.64 77.765,23.705 77.733,23.794 C77.668,23.972 77.722,24.248 77.894,24.615 C78.53,25.97 78.409,26.701 77.476,27.139 C77.287,27.228 77.089,27.273 76.889,27.273 Z" id="Fill-62"></path>
            <path d="M27.117,55.315 C26.957,55.266 26.863,55.099 26.908,54.94 C26.943,54.817 27.053,54.73 27.247,54.73 C27.258,54.73 27.27,54.73 27.281,54.731 C27.441,54.778 27.535,54.946 27.488,55.107 C27.452,55.236 27.332,55.325 27.197,55.325 L27.117,55.315 Z M27.489,54.011 C27.438,53.995 27.387,54.006 27.335,54 C26.862,53.943 26.396,54.214 26.225,54.661 C26.215,54.687 26.195,54.705 26.187,54.732 C26.148,54.868 26.14,55.007 26.155,55.139 C26.203,55.548 26.488,55.91 26.909,56.035 C26.918,56.037 26.928,56.036 26.937,56.038 C27.023,56.06 27.109,56.075 27.197,56.075 C27.286,56.075 27.37,56.054 27.453,56.032 C27.81,55.941 28.106,55.677 28.209,55.314 C28.212,55.303 28.209,55.292 28.212,55.281 C28.248,55.137 28.251,54.994 28.229,54.856 C28.183,54.575 28.023,54.33 27.787,54.167 C27.696,54.104 27.602,54.044 27.489,54.011 Z" id="Fill-63"></path>
            <path d="M45.415,67.64 L43.956,67.824 L42.788,64.504 L45.723,64.134 L45.415,67.64 Z M29.695,34.239 L29.695,33.864 C29.561,33.864 29.442,33.76 29.426,33.628 L29.386,33.31 L29.339,32.938 L29.293,32.566 L29.252,32.245 L29.206,31.874 L29.159,31.501 L29.119,31.183 C29.101,31.035 29.206,30.899 29.388,30.879 C29.494,30.879 29.573,30.95 29.616,31.042 C29.629,31.069 29.651,31.087 29.655,31.117 L29.695,31.433 L29.789,32.179 L29.877,32.87 L29.964,33.56 C29.968,33.589 29.947,33.613 29.941,33.64 C29.934,33.68 29.936,33.723 29.909,33.758 C29.864,33.816 29.8,33.853 29.729,33.862 L29.696,34.228 L29.695,34.239 Z M27.316,32.815 L26.993,32.856 L26.979,33.136 L26.974,33.223 L26.974,33.232 L26.974,32.857 C26.962,32.857 26.953,32.847 26.942,32.844 C26.876,32.83 26.82,32.783 26.812,32.715 C26.803,32.648 26.847,32.591 26.906,32.561 C26.922,32.553 26.933,32.537 26.951,32.535 L27.276,32.494 L27.648,32.447 L28.508,32.34 L28.548,32.659 L27.688,32.767 L27.316,32.815 Z M27.242,36.773 C27.134,36.912 26.98,37.002 26.807,37.024 C26.69,37.038 26.58,37.024 26.44,36.963 L18.673,34.161 C18.662,34.157 18.65,34.154 18.639,34.151 C18.318,34.016 18.153,33.646 18.27,33.31 C18.324,33.157 18.425,33.035 18.585,32.94 L25.394,28.319 C25.415,28.307 25.434,28.294 25.451,28.279 C25.74,28.108 26.134,28.202 26.322,28.486 C26.382,28.575 26.419,28.677 26.432,28.79 L26.812,31.807 C26.339,31.892 26.006,32.327 26.067,32.81 C26.125,33.264 26.515,33.607 26.974,33.607 C26.982,33.607 27.01,33.605 27.037,33.604 L27.374,36.278 C27.396,36.456 27.35,36.632 27.242,36.773 Z M46.25,16.031 C46.425,14.757 47.246,13.699 48.397,13.206 L48.007,16.042 C47.99,16.165 48.036,16.288 48.128,16.371 L49.468,17.577 C49.582,17.68 49.748,17.702 49.885,17.635 L51.499,16.834 C51.61,16.779 51.687,16.673 51.704,16.549 L52.094,13.714 C53.071,14.5 53.575,15.74 53.4,17.013 C53.234,18.213 52.483,19.245 51.39,19.774 C51.245,19.843 51.161,19.998 51.181,20.158 L51.387,21.799 L49.485,22.037 L49.272,20.348 C49.253,20.194 49.139,20.067 48.987,20.031 C47.173,19.6 45.997,17.881 46.25,16.031 Z M31.433,33.052 C31.173,32.98 30.903,32.94 30.639,32.917 L30.621,32.777 L30.574,32.405 L30.533,32.085 L30.469,31.572 C30.719,31.485 30.974,31.381 31.213,31.243 C31.36,31.158 31.496,31.061 31.622,30.96 L31.65,31.188 L31.745,31.933 L31.908,33.228 C31.759,33.159 31.601,33.098 31.433,33.052 Z M39.646,18.575 L40.229,23.21 C40.202,23.212 40.176,23.209 40.148,23.212 L38.093,23.471 C38.05,23.476 38.015,23.502 37.973,23.511 L37.387,18.859 L39.646,18.575 Z M36.872,14.768 L36.844,14.547 L39.103,14.263 L39.13,14.485 L36.872,14.768 Z M33.62,18.577 L33.41,16.906 L36.224,15.626 L36.282,15.599 L36.593,15.56 L36.965,15.513 L39.968,15.135 L42.896,14.766 L43.223,17.369 L40.296,17.738 L39.924,17.784 L39.552,17.83 L37.293,18.115 L36.921,18.161 L36.549,18.209 L33.62,18.577 Z M35.208,28.273 C35.496,28.273 35.77,28.367 35.997,28.544 C36.202,28.702 36.322,28.92 36.401,29.148 C36.411,29.177 36.422,29.204 36.43,29.235 C36.455,29.328 36.474,29.42 36.478,29.516 C36.479,29.547 36.473,29.576 36.472,29.607 C36.468,29.704 36.478,29.802 36.452,29.897 C36.443,29.931 36.417,29.96 36.404,29.993 C36.36,30.119 36.312,30.244 36.226,30.356 C35.802,30.899 34.961,31.007 34.415,30.584 C34.304,30.498 34.226,30.387 34.151,30.277 C34.132,30.248 34.098,30.225 34.081,30.195 C34.033,30.109 34.018,30.012 33.99,29.92 C33.982,29.89 33.969,29.862 33.962,29.832 C33.941,29.738 33.938,29.645 33.938,29.548 C33.938,29.518 33.942,29.487 33.944,29.456 C33.964,29.215 34.028,28.976 34.187,28.772 C34.433,28.454 34.806,28.273 35.208,28.273 Z M28.7,53.622 L29.266,53.285 C29.339,53.605 29.42,53.958 29.483,54.24 L29.135,54.411 C29.047,54.118 28.901,53.848 28.7,53.622 Z M24.034,57.254 L19.688,55.36 L19.752,55.17 L21.553,55.314 C21.812,55.84 22.271,56.199 22.817,56.293 C23.463,56.405 24.121,56.109 24.54,55.554 L25.198,55.607 C25.262,55.812 25.349,56.01 25.477,56.19 C25.659,56.449 25.897,56.65 26.167,56.799 L24.034,57.254 Z M33.712,61.825 C33.16,61.465 32.543,60.941 31.947,60.433 C30.99,59.62 30.382,59.119 29.933,59.035 C29.81,59.012 29.693,59.002 29.583,59.002 C29.227,59.002 28.943,59.1 28.759,59.19 L28.513,59.043 L28.703,58.584 L28.789,58.376 C28.813,58.338 28.843,58.29 28.869,58.249 C28.88,58.233 28.891,58.217 28.901,58.199 C29.196,57.735 29.573,57.14 29.807,56.764 C29.87,56.802 29.957,56.854 30.035,56.901 C31.033,57.5 33.199,58.779 34.701,59.522 C36.383,60.353 39.148,60.882 40.134,61.052 C39.8,63.495 38.843,63.787 38.137,63.787 C37.15,63.787 35.786,63.182 33.712,61.825 Z M28.46,55.221 C28.446,55.304 28.423,55.383 28.395,55.461 C28.377,55.511 28.381,55.563 28.384,55.614 C28.39,55.702 28.415,55.786 28.48,55.852 L29.098,56.483 C28.955,56.712 28.769,57.007 28.578,57.312 L27.823,56.406 C27.79,56.366 27.749,56.337 27.704,56.314 C27.651,56.286 27.595,56.271 27.535,56.271 C27.507,56.271 27.479,56.274 27.452,56.281 C27.376,56.297 27.296,56.283 27.22,56.286 C27.127,56.29 27.037,56.31 26.94,56.293 C26.877,56.283 26.825,56.245 26.765,56.226 C26.497,56.14 26.255,55.991 26.089,55.757 C25.99,55.617 25.924,55.462 25.885,55.301 C25.853,55.162 25.856,55.018 25.87,54.874 C25.873,54.839 25.861,54.806 25.867,54.772 C25.883,54.67 25.912,54.572 25.952,54.48 C25.966,54.447 25.961,54.412 25.966,54.379 C25.979,54.277 25.965,54.173 25.897,54.091 L25.739,53.9 C25.689,53.84 25.622,53.797 25.546,53.777 L24.875,53.599 C24.664,52.927 24.143,52.44 23.495,52.327 C22.948,52.233 22.394,52.425 21.978,52.83 L20.233,52.367 L20.236,52.166 L24.963,51.828 L26.902,53.015 L27.1,53.476 C27.126,53.538 27.171,53.59 27.225,53.629 C27.272,53.664 27.327,53.689 27.385,53.699 C27.486,53.717 27.569,53.767 27.66,53.806 C27.794,53.863 27.912,53.934 28.019,54.029 C28.233,54.219 28.39,54.463 28.446,54.749 C28.472,54.881 28.476,55.02 28.458,55.16 C28.456,55.181 28.464,55.2 28.46,55.221 Z M30.505,54.158 C30.414,54.177 30.317,54.197 30.245,54.211 C30.144,53.759 29.976,53.031 29.879,52.619 C29.869,52.575 29.859,52.536 29.851,52.5 C29.844,52.471 29.836,52.438 29.831,52.414 L29.814,52.129 L29.786,51.631 L30.066,51.574 C30.256,51.764 30.603,52.03 31.119,52.11 C31.569,52.181 32.449,51.859 33.486,51.464 C33.713,51.377 33.942,51.292 34.17,51.206 L34.45,53.431 C32.984,53.663 31.368,53.982 30.505,54.158 Z M36.922,54.815 L36.676,54.211 L36.383,53.492 L36.372,53.465 L37.266,52.312 L38.711,52.51 L38.98,53.165 L39.126,53.525 L39.264,53.862 L39.244,53.888 L38.368,55.015 L36.922,54.815 Z M42.77,63.75 L43.181,62.011 L43.953,61.914 L44.724,61.816 L45.554,63.399 L42.77,63.75 Z M43.859,61.169 L43.201,61.252 L42.624,56.662 L43.938,56.497 L44.517,61.086 L43.859,61.169 Z M44.749,55.045 C44.79,55.367 44.56,55.662 44.238,55.703 L42.108,55.967 C41.979,55.967 41.851,55.923 41.748,55.843 C41.623,55.746 41.544,55.607 41.524,55.451 L41.498,55.246 L44.724,54.841 L44.749,55.045 Z M56.072,51.013 C55.973,51.026 55.883,51.076 55.822,51.155 C55.761,51.234 55.734,51.334 55.746,51.432 L56.096,54.211 L52.871,54.617 L52.521,51.839 C52.509,51.74 52.458,51.65 52.379,51.589 C52.313,51.537 52.232,51.511 52.149,51.511 C52.134,51.511 52.118,51.511 52.103,51.513 L44.799,52.432 C44.593,52.459 44.448,52.646 44.474,52.851 L44.63,54.097 L41.405,54.503 L41.248,53.257 C41.236,53.159 41.185,53.069 41.106,53.008 C41.027,52.947 40.928,52.92 40.829,52.932 L39.75,53.068 L39.324,52.026 C39.273,51.902 39.16,51.814 39.027,51.797 L37.153,51.538 C37.025,51.521 36.889,51.575 36.806,51.68 L35.646,53.177 C35.564,53.282 35.544,53.424 35.595,53.548 L35.612,53.589 L35.231,53.637 L34.895,50.954 L34.846,50.573 L34.826,50.412 L35.75,50.297 L37.542,50.07 C37.601,50.063 37.652,50.04 37.698,50.01 C37.711,50.011 37.719,50.022 37.732,50.022 C37.748,50.022 37.763,50.021 37.779,50.02 L39.583,49.792 C39.789,49.765 39.934,49.578 39.908,49.372 C39.882,49.168 39.7,49.022 39.489,49.048 L37.818,49.259 L37.743,48.669 L38.576,48.564 C38.782,48.537 38.927,48.35 38.901,48.145 C38.876,47.94 38.691,47.794 38.482,47.82 L37.65,47.924 L37.576,47.335 L38.409,47.23 C38.615,47.203 38.76,47.016 38.734,46.81 C38.709,46.605 38.527,46.46 38.315,46.486 L37.482,46.59 L37.408,46.001 L39.08,45.792 C39.285,45.766 39.431,45.578 39.405,45.374 C39.379,45.168 39.189,45.023 38.987,45.048 L37.314,45.257 L37.24,44.668 L38.074,44.564 C38.279,44.538 38.425,44.35 38.399,44.145 C38.374,43.94 38.185,43.795 37.981,43.82 L37.146,43.924 L37.072,43.334 L37.906,43.23 C38.111,43.204 38.257,43.016 38.231,42.812 C38.207,42.606 38.014,42.46 37.813,42.486 L36.978,42.59 L36.904,42.001 L38.576,41.79 C38.782,41.764 38.927,41.576 38.901,41.37 C38.876,41.165 38.685,41.02 38.482,41.046 L36.811,41.257 L36.736,40.668 L37.57,40.564 C37.775,40.538 37.921,40.35 37.896,40.145 C37.871,39.94 37.679,39.795 37.477,39.82 L36.643,39.924 L36.568,39.333 L37.402,39.228 C37.608,39.202 37.753,39.015 37.728,38.808 C37.702,38.604 37.519,38.458 37.309,38.484 L36.475,38.589 L36.4,38 L38.073,37.79 C38.279,37.763 38.424,37.576 38.398,37.37 C38.373,37.164 38.187,37.02 37.979,37.045 L36.307,37.256 L36.232,36.666 L37.066,36.561 C37.272,36.536 37.417,36.348 37.392,36.142 C37.367,35.937 37.18,35.792 36.973,35.817 L36.139,35.922 L36.064,35.333 L36.899,35.228 C37.105,35.201 37.25,35.014 37.225,34.808 C37.199,34.603 37.009,34.458 36.806,34.483 L35.971,34.589 L35.896,33.998 L37.569,33.787 C37.692,33.772 37.788,33.696 37.844,33.595 C37.882,33.528 37.905,33.451 37.895,33.369 C37.888,33.313 37.867,33.263 37.839,33.218 C37.764,33.099 37.626,33.025 37.476,33.044 L35.672,33.271 C35.628,33.277 35.59,33.292 35.553,33.31 C35.513,33.303 35.473,33.297 35.431,33.302 L32.716,33.642 L32.696,33.487 L32.591,32.651 L32.428,31.353 L32.321,30.507 L32.31,30.418 L33.309,30.292 C33.32,30.322 33.334,30.349 33.347,30.379 C33.479,30.681 33.676,30.96 33.955,31.175 C34.315,31.456 34.748,31.604 35.204,31.604 C35.84,31.604 36.428,31.316 36.818,30.816 C37.034,30.536 37.156,30.218 37.209,29.891 C37.214,29.862 37.221,29.832 37.224,29.801 L37.907,29.715 C38.006,29.703 38.096,29.651 38.157,29.573 C38.173,29.552 38.18,29.527 38.191,29.504 C38.209,29.466 38.221,29.427 38.226,29.386 C38.23,29.356 38.236,29.326 38.232,29.296 L38.197,29.011 L37.676,24.874 C37.663,24.767 37.688,24.667 37.729,24.572 C37.748,24.526 37.764,24.479 37.795,24.438 C37.865,24.348 37.961,24.292 38.066,24.255 C38.106,24.241 38.144,24.22 38.187,24.215 L40.317,23.951 C40.318,23.951 40.32,23.952 40.322,23.952 C40.477,23.953 40.616,24.018 40.721,24.118 C40.815,24.209 40.883,24.328 40.901,24.467 L41.458,28.888 C41.467,28.962 41.502,29.024 41.547,29.077 C41.626,29.172 41.746,29.23 41.877,29.214 L49.181,28.295 C49.279,28.283 49.369,28.232 49.43,28.153 C49.491,28.075 49.518,27.974 49.506,27.876 L48.949,23.456 C48.93,23.299 48.972,23.144 49.068,23.02 C49.109,22.967 49.161,22.928 49.215,22.892 C49.289,22.844 49.371,22.807 49.461,22.797 L49.579,22.782 L51.481,22.547 L51.59,22.533 C51.691,22.533 51.783,22.567 51.868,22.613 C52.028,22.702 52.149,22.856 52.173,23.049 L52.756,27.675 C52.777,27.847 52.914,27.982 53.085,28.001 C56.147,28.351 58.554,30.729 58.939,33.781 C59.105,35.105 58.874,36.432 58.27,37.621 C58.223,37.716 58.216,37.824 58.253,37.923 C58.29,38.021 58.366,38.099 58.463,38.139 C60.7,39.049 62.276,41.095 62.577,43.478 C63.036,47.124 60.443,50.464 56.799,50.924 L56.072,51.013 Z M56.757,60.779 L56.549,60.805 L56.174,60.852 L54.598,61.051 L54.223,61.098 L54.016,61.124 L52.995,58.869 L53.26,58.836 L53.635,58.788 L54.01,58.741 L56.171,58.469 L56.546,58.423 L56.921,58.375 L57.187,58.341 L56.923,59.84 L56.757,60.779 Z M56.176,62.582 L55.601,62.655 L55.025,62.728 L54.784,61.783 L56.175,61.608 L56.176,62.582 Z M57.364,54.807 L57.51,55.971 L57.704,57.52 L57.323,57.568 L56.919,57.619 L56.545,57.666 L56.169,57.714 L53.823,58.009 L53.448,58.056 L53.073,58.104 L52.671,58.153 L52.288,58.202 L51.948,55.489 L52.22,55.454 L52.592,55.408 L52.737,55.39 L52.884,56.552 L52.894,56.635 L52.905,56.723 C52.915,56.801 52.959,56.86 53.007,56.914 C53.054,56.969 53.113,56.996 53.183,57.016 C53.216,57.026 53.241,57.052 53.277,57.052 C53.292,57.052 53.308,57.051 53.324,57.049 C53.454,57.032 53.554,56.948 53.608,56.839 L53.608,56.838 C53.618,56.819 53.631,56.802 53.637,56.781 C53.651,56.734 53.656,56.682 53.649,56.63 L53.628,56.458 L53.628,56.457 L53.481,55.297 L54.271,55.197 L54.417,56.358 L54.417,56.359 L54.438,56.531 C54.445,56.587 54.484,56.626 54.514,56.671 C54.523,56.688 54.527,56.706 54.54,56.72 L54.54,56.721 C54.609,56.801 54.7,56.859 54.81,56.859 C54.826,56.859 54.841,56.858 54.857,56.856 C54.987,56.84 55.087,56.755 55.141,56.646 L55.142,56.645 C55.151,56.626 55.164,56.609 55.17,56.589 C55.184,56.541 55.189,56.489 55.183,56.437 L55.161,56.265 L55.161,56.264 L55.015,55.104 L55.804,55.004 L55.95,56.164 L55.95,56.166 L55.972,56.337 C55.979,56.393 56.018,56.433 56.047,56.479 C56.057,56.495 56.061,56.513 56.073,56.527 L56.073,56.528 C56.144,56.608 56.233,56.664 56.343,56.664 C56.359,56.664 56.375,56.663 56.391,56.661 C56.447,56.655 56.498,56.633 56.543,56.604 C56.601,56.568 56.644,56.515 56.674,56.453 C56.705,56.389 56.726,56.319 56.716,56.243 L56.703,56.137 L56.694,56.073 L56.548,54.91 L56.563,54.908 L56.934,54.861 L57.364,54.807 Z M59.109,37.604 C59.654,36.375 59.852,35.029 59.684,33.688 C59.267,30.389 56.729,27.8 53.464,27.296 L52.917,22.954 C52.858,22.489 52.561,22.104 52.158,21.913 L51.958,20.323 C53.146,19.655 53.956,18.474 54.143,17.115 C54.387,15.345 53.543,13.628 51.991,12.739 C51.882,12.677 51.751,12.673 51.639,12.728 C51.527,12.782 51.45,12.889 51.433,13.012 L50.988,16.25 L49.78,16.849 L48.777,15.947 L49.223,12.71 C49.24,12.586 49.195,12.462 49.102,12.379 C49.009,12.296 48.881,12.264 48.76,12.295 C47.027,12.732 45.751,14.157 45.507,15.928 C45.213,18.076 46.513,20.077 48.56,20.693 L48.764,22.31 C48.661,22.385 48.556,22.456 48.476,22.56 C48.257,22.843 48.161,23.194 48.205,23.549 L48.715,27.598 L42.155,28.423 L41.645,24.374 C41.592,23.956 41.347,23.608 41.009,23.403 L40.39,18.482 L43.688,18.067 C43.894,18.041 44.04,17.853 44.014,17.648 L43.593,14.301 C43.581,14.202 43.529,14.113 43.451,14.051 C43.372,13.99 43.274,13.963 43.174,13.976 L39.875,14.39 L39.8,13.797 C39.774,13.591 39.592,13.447 39.381,13.472 L36.378,13.849 C36.279,13.862 36.189,13.912 36.128,13.991 C36.067,14.07 36.041,14.17 36.053,14.268 L36.128,14.863 C36.092,14.868 36.056,14.878 36.023,14.892 L32.848,16.338 C32.698,16.406 32.61,16.564 32.631,16.725 L32.923,19.043 C32.947,19.232 33.108,19.37 33.294,19.37 C33.31,19.37 33.326,19.37 33.342,19.368 L36.643,18.952 L37.269,23.921 C37.249,23.943 37.221,23.954 37.203,23.978 C36.983,24.261 36.887,24.613 36.932,24.967 L37.441,29.018 L37.171,29.052 C37.062,28.631 36.826,28.239 36.458,27.952 C35.594,27.281 34.265,27.451 33.594,28.312 C33.308,28.681 33.177,29.119 33.175,29.553 L31.844,29.72 C31.745,29.733 31.655,29.784 31.594,29.863 C31.589,29.87 31.587,29.879 31.582,29.887 C31.517,29.927 31.461,29.982 31.43,30.056 C31.325,30.312 30.859,30.624 30.337,30.827 C30.2,30.422 29.831,30.129 29.388,30.129 C29.373,30.129 29.276,30.135 29.261,30.136 C28.703,30.206 28.305,30.718 28.375,31.277 L28.415,31.595 L27.554,31.702 L27.176,28.7 C27.15,28.474 27.071,28.257 26.947,28.07 C26.684,27.675 26.246,27.44 25.776,27.44 C25.502,27.44 25.237,27.52 25.038,27.655 C25.01,27.669 24.984,27.686 24.961,27.705 L18.187,32.305 C17.897,32.473 17.676,32.741 17.562,33.062 C17.306,33.798 17.69,34.609 18.419,34.87 C18.432,34.875 18.446,34.879 18.46,34.882 L26.161,37.659 C26.342,37.739 26.532,37.779 26.728,37.779 C26.785,37.779 26.842,37.775 26.9,37.767 C27.274,37.721 27.607,37.53 27.837,37.229 C28.066,36.931 28.166,36.56 28.118,36.184 L27.782,33.512 L28.642,33.403 L28.682,33.72 C28.745,34.23 29.181,34.614 29.695,34.614 C29.711,34.614 29.808,34.608 29.823,34.606 C30.093,34.572 30.334,34.433 30.502,34.217 C30.625,34.057 30.678,33.867 30.693,33.673 C31.25,33.743 31.784,33.929 31.945,34.145 C31.977,34.189 32.02,34.221 32.065,34.246 C32.138,34.374 32.282,34.452 32.438,34.433 L35.152,34.093 L37.076,49.372 L34.36,49.715 C34.155,49.741 34.009,49.929 34.035,50.135 L34.074,50.445 C33.79,50.549 33.503,50.655 33.22,50.763 C32.433,51.062 31.622,51.378 31.236,51.369 C30.757,51.295 30.527,50.968 30.52,50.958 C30.436,50.828 30.281,50.765 30.131,50.796 L29.318,50.961 C29.135,50.998 29.007,51.164 29.018,51.349 L29.091,52.516 L28.055,53.134 C27.946,53.081 27.833,53.037 27.713,53.005 L27.544,52.611 C27.513,52.538 27.461,52.479 27.395,52.438 L25.252,51.126 C25.186,51.086 25.112,51.066 25.03,51.072 L19.838,51.443 C19.644,51.455 19.493,51.616 19.49,51.812 L19.48,52.65 C19.478,52.822 19.592,52.973 19.758,53.016 L22.005,53.614 C22.148,53.652 22.301,53.602 22.394,53.486 C22.651,53.167 23.01,53.005 23.368,53.067 C23.778,53.137 24.104,53.495 24.198,53.976 C24.226,54.117 24.332,54.23 24.47,54.268 L25.169,54.452 C25.152,54.518 25.138,54.583 25.127,54.648 C25.116,54.715 25.118,54.781 25.113,54.847 L24.381,54.788 C24.236,54.778 24.102,54.848 24.029,54.972 C23.782,55.389 23.364,55.625 22.944,55.553 C22.593,55.493 22.301,55.223 22.163,54.834 C22.114,54.694 21.987,54.596 21.839,54.585 L19.52,54.399 C19.357,54.384 19.19,54.489 19.135,54.653 L18.867,55.447 C18.805,55.631 18.895,55.832 19.073,55.91 L23.844,57.989 C23.892,58.01 23.943,58.02 23.994,58.02 C24.021,58.02 24.046,58.018 24.072,58.012 L26.529,57.488 C26.606,57.471 26.674,57.432 26.727,57.375 L27.036,57.04 C27.152,57.047 27.27,57.064 27.384,57.051 L28.158,57.98 C28.148,57.996 28.137,58.014 28.127,58.03 L27.697,59.054 C27.625,59.226 27.69,59.426 27.851,59.521 L28.564,59.947 C28.694,60.025 28.861,60.015 28.983,59.923 C28.985,59.921 29.332,59.686 29.796,59.772 C30.07,59.823 30.841,60.478 31.461,61.005 C32.075,61.527 32.71,62.067 33.301,62.453 C35.504,63.895 36.996,64.537 38.137,64.537 C39.748,64.537 40.659,63.308 40.922,60.779 C40.942,60.58 40.803,60.4 40.606,60.37 C40.57,60.365 36.961,59.801 35.033,58.849 C33.071,57.879 29.909,55.949 29.877,55.93 C29.79,55.877 29.684,55.865 29.583,55.89 C29.58,55.891 29.577,55.895 29.573,55.896 L29.171,55.486 C29.182,55.44 29.192,55.392 29.2,55.345 C29.208,55.299 29.205,55.255 29.21,55.209 L29.733,54.952 C29.737,54.954 29.739,54.96 29.744,54.963 C29.807,55.007 29.881,55.029 29.957,55.029 C29.983,55.029 30.009,55.027 30.035,55.021 C30.064,55.015 32.455,54.508 34.558,54.174 C34.581,54.243 34.618,54.307 34.676,54.352 C34.754,54.412 34.856,54.44 34.953,54.428 L35.905,54.308 L36.309,55.299 C36.359,55.423 36.472,55.509 36.605,55.528 L38.48,55.787 C38.497,55.79 38.514,55.792 38.531,55.792 C38.646,55.792 38.756,55.739 38.827,55.646 L39.989,54.151 C40.07,54.047 40.088,53.91 40.042,53.787 L40.551,53.723 L40.78,55.545 C40.825,55.9 41.005,56.216 41.288,56.435 C41.457,56.568 41.66,56.639 41.87,56.677 L42.496,61.651 L41.916,64.103 C41.914,64.11 41.917,64.118 41.916,64.126 C41.91,64.16 41.913,64.194 41.917,64.228 C41.919,64.25 41.918,64.274 41.925,64.297 C41.926,64.303 41.925,64.308 41.927,64.315 L43.348,68.358 C43.402,68.509 43.544,68.609 43.702,68.609 C43.717,68.609 43.733,68.608 43.749,68.606 L45.809,68.347 C45.984,68.325 46.12,68.183 46.135,68.008 L46.51,63.737 C46.511,63.731 46.508,63.726 46.508,63.719 C46.509,63.697 46.502,63.673 46.499,63.651 C46.494,63.617 46.488,63.584 46.474,63.551 C46.471,63.545 46.472,63.536 46.469,63.53 L45.299,61.299 L44.676,56.35 C45.218,56.124 45.569,55.562 45.493,54.951 L45.265,53.131 L51.824,52.304 L52.127,54.711 L51.482,54.792 C51.277,54.818 51.131,55.005 51.157,55.211 L51.591,58.668 C51.603,58.766 51.654,58.856 51.733,58.917 C51.799,58.969 51.88,58.995 51.963,58.995 C51.979,58.995 51.994,58.994 52.01,58.993 L52.216,58.967 L53.446,61.686 C53.508,61.821 53.642,61.906 53.788,61.906 C53.804,61.906 53.819,61.905 53.835,61.902 L54.034,61.878 L54.38,63.235 C54.422,63.402 54.574,63.516 54.743,63.516 C54.758,63.516 54.774,63.515 54.79,63.513 L55.322,63.446 L55.735,66.719 C55.759,66.909 55.921,67.048 56.107,67.048 C56.123,67.048 56.139,67.047 56.154,67.045 C56.36,67.018 56.505,66.832 56.479,66.626 L56.066,63.352 L56.599,63.285 C56.787,63.261 56.927,63.102 56.927,62.912 L56.925,61.514 L57.125,61.489 C57.288,61.468 57.419,61.343 57.447,61.182 L57.966,58.243 L58.17,58.217 C58.376,58.192 58.521,58.004 58.495,57.799 L58.062,54.341 C58.049,54.243 57.998,54.153 57.919,54.093 C57.841,54.031 57.742,54.004 57.643,54.016 L56.84,54.117 L56.537,51.712 L56.892,51.668 C60.947,51.156 63.831,47.44 63.321,43.384 C63.003,40.863 61.403,38.682 59.109,37.604 Z" id="Fill-64"></path>
            <path d="M55.578,30.211 C56.043,30.572 56.178,31.181 55.979,31.706 L54.02,30.183 C54.238,30.028 54.498,29.936 54.776,29.936 C55.069,29.936 55.346,30.031 55.578,30.211 Z M53.572,30.785 L55.517,32.296 C55.359,32.403 55.188,32.48 55.001,32.512 C54.834,32.541 54.667,32.54 54.501,32.507 C54.312,32.469 54.13,32.401 53.973,32.279 C53.828,32.166 53.715,32.028 53.632,31.877 C53.553,31.733 53.502,31.577 53.481,31.417 C53.453,31.204 53.494,30.991 53.572,30.785 Z M40.531,38.782 L39.866,33.5 L52,31.972 C52.303,31.933 52.597,31.96 52.879,32.02 C53.01,32.344 53.218,32.641 53.513,32.87 C53.838,33.124 54.225,33.252 54.632,33.281 C54.807,33.58 54.926,33.918 54.972,34.281 C55.155,35.738 54.118,37.072 52.661,37.256 L40.531,38.782 Z M55.716,34.188 C55.671,33.832 55.558,33.502 55.413,33.19 C55.798,33.065 56.146,32.839 56.402,32.508 C57.097,31.611 56.934,30.315 56.038,29.619 C55.167,28.943 53.827,29.113 53.151,29.98 C53.151,29.981 53.149,29.981 53.149,29.982 C53.148,29.983 53.148,29.984 53.147,29.985 C52.86,30.356 52.728,30.797 52.726,31.235 C52.459,31.203 52.186,31.193 51.906,31.228 L41.386,32.552 L40.629,32.648 L39.4,32.802 C39.251,32.821 39.136,32.926 39.092,33.06 C39.076,33.111 39.068,33.164 39.075,33.221 L39.103,33.437 L39.834,39.247 C39.858,39.437 40.02,39.576 40.206,39.576 C40.221,39.576 40.237,39.575 40.253,39.573 L52.755,38 C54.622,37.764 55.951,36.055 55.716,34.188 Z" id="Fill-65"></path>
            <path d="M58.077,46.076 C58.212,45.902 58.41,45.807 58.623,45.768 C58.677,45.759 58.725,45.732 58.781,45.732 C58.847,45.732 58.908,45.75 58.971,45.763 L57.993,47.024 C57.933,46.905 57.907,46.777 57.903,46.644 C57.898,46.446 57.946,46.244 58.077,46.076 Z M55.611,47.041 C55.598,47.041 55.585,47.042 55.572,47.044 L51.604,47.543 C51.589,47.545 51.576,47.547 51.562,47.551 L41.788,48.779 L41.124,43.496 L55.635,41.669 C57.103,41.483 58.427,42.541 58.609,43.98 C58.654,44.333 58.628,44.684 58.536,45.018 C58.129,45.08 57.744,45.281 57.484,45.616 C57.237,45.933 57.133,46.314 57.149,46.688 C56.885,46.82 56.602,46.917 56.301,46.954 L55.611,47.041 Z M59.482,47.167 C59.273,47.437 58.914,47.544 58.589,47.478 L59.566,46.22 C59.717,46.518 59.7,46.887 59.482,47.167 Z M59.787,45.328 C59.787,45.328 59.786,45.327 59.785,45.327 C59.783,45.325 59.782,45.325 59.781,45.324 C59.63,45.208 59.461,45.129 59.284,45.075 C59.373,44.689 59.404,44.29 59.354,43.886 C59.121,42.042 57.433,40.687 55.541,40.924 L40.658,42.799 C40.453,42.825 40.307,43.012 40.333,43.218 L41.091,49.244 C41.115,49.433 41.276,49.573 41.462,49.573 C41.478,49.573 41.494,49.571 41.509,49.569 L51.697,48.29 C51.711,48.287 51.725,48.285 51.739,48.281 L55.628,47.793 C55.641,47.792 55.653,47.792 55.666,47.79 L56.395,47.699 C56.73,47.656 57.046,47.552 57.347,47.418 C57.451,47.606 57.594,47.777 57.774,47.917 C58.064,48.142 58.411,48.261 58.778,48.261 C59.289,48.261 59.761,48.03 60.075,47.627 C60.628,46.913 60.498,45.884 59.787,45.328 Z" id="Fill-66"></path>
            <path d="M34.493,29.478 C34.499,29.484 34.502,29.491 34.508,29.496 L34.68,29.63 L34.583,29.754 L34.546,29.802 C34.534,29.818 34.53,29.836 34.521,29.852 C34.47,29.945 34.46,30.048 34.491,30.143 C34.5,30.174 34.51,30.202 34.526,30.23 C34.549,30.265 34.576,30.301 34.611,30.328 C34.68,30.382 34.761,30.407 34.841,30.407 C34.953,30.407 35.064,30.358 35.138,30.263 L35.232,30.14 L35.272,30.09 L35.324,30.13 L35.445,30.223 C35.513,30.277 35.594,30.302 35.674,30.302 C35.787,30.302 35.897,30.252 35.971,30.157 C35.999,30.122 36.016,30.082 36.029,30.041 C36.039,30.011 36.041,29.98 36.043,29.949 C36.048,29.848 36.014,29.75 35.941,29.674 C35.929,29.66 35.92,29.642 35.905,29.631 L35.857,29.594 L35.733,29.497 L35.866,29.327 C35.872,29.32 35.873,29.312 35.878,29.303 C35.898,29.273 35.915,29.241 35.926,29.208 C35.971,29.063 35.928,28.899 35.801,28.801 C35.637,28.673 35.401,28.703 35.274,28.866 L35.141,29.037 L34.968,28.905 C34.804,28.777 34.569,28.807 34.442,28.97 C34.343,29.097 34.342,29.266 34.422,29.397 C34.441,29.427 34.465,29.453 34.493,29.478" id="Fill-67"></path>
            <path d="M79.351,37.606 C78.463,36.916 78.301,35.631 78.991,34.743 C79.381,34.241 79.969,33.953 80.605,33.953 C81.062,33.953 81.494,34.102 81.854,34.382 C82.741,35.073 82.903,36.358 82.215,37.245 C81.546,38.106 80.215,38.277 79.351,37.606 Z M82.314,33.79 C81.134,32.872 79.314,33.104 78.398,34.283 C77.455,35.497 77.676,37.254 78.891,38.198 C79.385,38.582 79.976,38.784 80.601,38.784 C81.47,38.784 82.274,38.391 82.807,37.705 C83.748,36.491 83.528,34.735 82.314,33.79 Z" id="Fill-68"></path>
            <path d="M81.13,35.928 L81.427,35.547 C81.554,35.383 81.524,35.148 81.361,35.021 C81.197,34.894 80.962,34.924 80.835,35.086 L80.538,35.469 L80.154,35.171 C79.99,35.043 79.755,35.073 79.628,35.236 C79.501,35.4 79.531,35.636 79.694,35.763 L80.077,36.06 L79.778,36.444 C79.651,36.607 79.681,36.843 79.844,36.97 C79.912,37.024 79.994,37.049 80.074,37.049 C80.186,37.049 80.296,37 80.37,36.905 L80.669,36.52 L81.053,36.818 C81.121,36.87 81.202,36.896 81.282,36.896 C81.395,36.896 81.505,36.847 81.579,36.752 C81.706,36.588 81.676,36.352 81.513,36.226 L81.13,35.928" id="Fill-69"></path>
            <path d="M2.285,37.606 C1.397,36.916 1.235,35.631 1.925,34.743 C2.315,34.241 2.903,33.953 3.54,33.953 C3.996,33.953 4.428,34.102 4.788,34.382 C5.675,35.073 5.837,36.358 5.149,37.245 C4.479,38.106 3.148,38.277 2.285,37.606 Z M5.249,33.79 C4.067,32.872 2.249,33.104 1.333,34.283 C0.389,35.497 0.61,37.254 1.825,38.198 C2.319,38.582 2.91,38.784 3.535,38.784 C4.404,38.784 5.208,38.391 5.741,37.705 C6.683,36.491 6.462,34.735 5.249,33.79 Z" id="Fill-70"></path>
            <path d="M4.064,35.928 L4.361,35.547 C4.488,35.383 4.459,35.148 4.295,35.021 C4.132,34.894 3.896,34.924 3.769,35.086 L3.472,35.469 L3.088,35.171 C2.924,35.043 2.689,35.073 2.562,35.236 C2.435,35.4 2.465,35.636 2.628,35.763 L3.011,36.06 L2.712,36.444 C2.585,36.607 2.615,36.843 2.778,36.97 C2.846,37.024 2.928,37.049 3.008,37.049 C3.12,37.049 3.231,37 3.304,36.905 L3.604,36.52 L3.987,36.818 C4.055,36.87 4.136,36.896 4.216,36.896 C4.329,36.896 4.439,36.847 4.513,36.752 C4.64,36.588 4.61,36.352 4.447,36.226 L4.064,35.928" id="Fill-71"></path>
        </g>
    </g>
</svg>