<?xml version="1.0" encoding="UTF-8"?>
<svg width="64px" height="68px" viewBox="0 0 64 68" version="1.1" xmlns="http://www.w3.org/2000/svg" xmlns:xlink="http://www.w3.org/1999/xlink">
    <!-- Generator: Sketch 49 (51002) - http://www.bohemiancoding.com/sketch -->
    <title>bitcoin-grey-8</title>
    <desc>Created with Sketch.</desc>
    <defs></defs>
    <g id="Page-1" stroke="none" stroke-width="1" fill="none" fill-rule="evenodd">
        <g id="bitcoin-grey-8" fill="#000000">
            <path d="M22.847,23.395 L24.953,23.395 C25.32,23.395 25.619,23.694 25.619,24.061 C25.619,24.428 25.32,24.728 24.952,24.728 L22.847,24.728 L22.847,23.395 Z M23.238,21.312 L24.457,21.312 C24.824,21.312 25.123,21.611 25.123,21.978 C25.123,22.345 24.824,22.644 24.457,22.644 L22.847,22.644 L22.847,21.312 L23.238,21.312 Z M25.599,22.808 C25.77,22.574 25.873,22.288 25.873,21.978 C25.873,21.302 25.397,20.737 24.763,20.596 L24.763,19.837 C24.763,19.766 24.738,19.704 24.704,19.649 C24.639,19.54 24.524,19.462 24.388,19.462 C24.181,19.462 24.013,19.631 24.013,19.837 L24.013,20.561 L23.613,20.561 L23.613,19.837 C23.613,19.631 23.445,19.462 23.238,19.462 C23.031,19.462 22.863,19.631 22.863,19.837 L22.863,20.561 L21.828,20.561 C21.621,20.561 21.453,20.729 21.453,20.936 C21.453,21.144 21.621,21.312 21.828,21.312 L22.097,21.312 L22.097,24.728 L21.828,24.728 C21.621,24.728 21.453,24.896 21.453,25.102 C21.453,25.31 21.621,25.478 21.828,25.478 L22.459,25.478 C22.464,25.478 22.467,25.48 22.472,25.48 C22.476,25.48 22.479,25.478 22.483,25.478 L22.863,25.478 L22.863,26.203 C22.863,26.411 23.031,26.578 23.238,26.578 C23.445,26.578 23.613,26.411 23.613,26.203 L23.613,25.478 L24.013,25.478 L24.013,26.203 C24.013,26.411 24.181,26.578 24.388,26.578 C24.595,26.578 24.763,26.411 24.763,26.203 L24.763,25.478 L24.952,25.478 C25.733,25.478 26.369,24.841 26.369,24.061 C26.369,23.514 26.054,23.044 25.599,22.808 Z" id="Fill-1"></path>
            <path d="M19.656,38.261 L19.656,38.259 L22.427,38.259 C22.948,38.259 23.372,38.683 23.372,39.204 C23.372,39.726 22.947,40.151 22.426,40.151 L19.656,40.151 L19.656,38.261 Z M20.255,35.62 L21.8,35.62 C21.872,35.62 21.936,35.646 22.002,35.661 C22.265,35.72 22.479,35.88 22.609,36.107 C22.688,36.244 22.745,36.396 22.745,36.565 C22.745,37.005 22.437,37.359 22.029,37.465 C21.956,37.483 21.886,37.509 21.807,37.51 L19.656,37.51 L19.656,35.62 L20.255,35.62 Z M23.094,37.648 C23.34,37.353 23.495,36.978 23.495,36.565 C23.495,36.153 23.34,35.778 23.094,35.483 C22.933,35.291 22.733,35.133 22.503,35.027 C22.372,34.967 22.232,34.924 22.086,34.899 L22.086,33.852 C22.086,33.644 21.918,33.476 21.711,33.476 C21.504,33.476 21.336,33.644 21.336,33.852 L21.336,34.87 L20.63,34.87 L20.63,33.852 C20.63,33.644 20.462,33.476 20.255,33.476 C20.048,33.476 19.88,33.644 19.88,33.852 L19.88,34.87 L18.466,34.87 C18.259,34.87 18.091,35.037 18.091,35.244 C18.091,35.452 18.259,35.62 18.466,35.62 L18.906,35.62 L18.906,40.151 L18.467,40.151 C18.26,40.151 18.092,40.319 18.092,40.526 C18.092,40.733 18.26,40.901 18.467,40.901 L19.274,40.901 C19.276,40.901 19.279,40.903 19.281,40.903 C19.284,40.903 19.286,40.901 19.289,40.901 L19.88,40.901 L19.88,41.92 C19.88,42.128 20.048,42.295 20.255,42.295 C20.462,42.295 20.63,42.128 20.63,41.92 L20.63,40.901 L21.336,40.901 L21.336,41.92 C21.336,42.128 21.504,42.295 21.711,42.295 C21.918,42.295 22.086,42.128 22.086,41.92 L22.086,40.901 L22.426,40.901 C23.361,40.901 24.122,40.14 24.122,39.204 C24.122,38.507 23.697,37.907 23.094,37.648 Z" id="Fill-2"></path>
            <path d="M43.515,28.54 C46.716,28.54 49.32,31.144 49.32,34.345 C49.32,37.547 46.716,40.151 43.515,40.151 C40.313,40.151 37.708,37.547 37.708,34.345 C37.708,32.894 38.246,31.569 39.13,30.55 C39.331,30.319 39.547,30.102 39.782,29.905 C40.792,29.054 42.094,28.54 43.515,28.54 Z M32.135,67.108 L23.891,67.109 L20.02,52.622 L44.25,52.622 L40.379,67.109 L32.135,67.108 Z M47.101,48.072 L47.101,51.248 C47.101,51.592 46.82,51.872 46.476,51.872 L17.795,51.872 C17.45,51.872 17.17,51.592 17.17,51.248 L17.17,48.072 C17.17,47.728 17.45,47.447 17.795,47.447 L46.476,47.447 C46.82,47.447 47.101,47.728 47.101,48.072 Z M21.107,43.691 C17.905,43.691 15.301,41.087 15.301,37.885 C15.301,34.684 17.905,32.079 21.107,32.079 C22.55,32.079 23.868,32.611 24.884,33.485 C25.098,33.669 25.297,33.868 25.482,34.081 C26.37,35.102 26.913,36.43 26.913,37.885 C26.913,41.087 24.309,43.691 21.107,43.691 Z M23.911,27.521 C21.43,27.521 19.41,25.503 19.41,23.021 C19.41,20.538 21.43,18.52 23.911,18.52 C24.009,18.52 24.1,18.542 24.195,18.549 C24.454,18.565 24.708,18.595 24.953,18.654 C26.932,19.127 28.412,20.899 28.412,23.021 C28.412,25.503 26.393,27.521 23.911,27.521 Z M44.908,19.365 C44.908,21.799 42.929,23.779 40.495,23.779 C38.061,23.779 36.08,21.799 36.08,19.365 C36.08,17.122 37.768,15.286 39.937,15.008 C40.121,14.985 40.304,14.951 40.495,14.951 C40.567,14.951 40.636,14.969 40.707,14.973 C43.04,15.087 44.908,17.004 44.908,19.365 Z M43.515,40.901 C47.129,40.901 50.07,37.96 50.07,34.345 C50.07,30.73 47.129,27.79 43.515,27.79 C41.69,27.79 40.038,28.54 38.849,29.746 C38.683,29.732 38.516,29.721 38.347,29.721 L37.634,29.721 C35.447,29.721 33.538,30.914 32.51,32.679 L32.51,16.08 C32.51,14.12 34.104,12.527 36.064,12.527 L36.566,12.527 C37.871,12.527 39,13.24 39.618,14.29 C37.189,14.709 35.33,16.818 35.33,19.365 C35.33,22.212 37.646,24.529 40.495,24.529 C43.342,24.529 45.658,22.212 45.658,19.365 C45.658,16.517 43.342,14.201 40.495,14.201 C40.471,14.201 40.448,14.208 40.424,14.209 C39.725,12.775 38.267,11.777 36.566,11.777 L36.064,11.777 C33.69,11.777 31.76,13.707 31.76,16.08 L31.76,17.646 C31.023,16.606 29.817,15.921 28.45,15.921 L27.979,15.921 C26.531,15.921 25.268,16.69 24.549,17.834 C24.338,17.808 24.13,17.77 23.911,17.77 C21.016,17.77 18.66,20.126 18.66,23.021 C18.66,25.916 21.016,28.272 23.911,28.272 C26.807,28.272 29.162,25.916 29.162,23.021 C29.162,20.628 27.543,18.626 25.35,17.995 C25.954,17.197 26.903,16.671 27.979,16.671 L28.45,16.671 C30.275,16.671 31.76,18.157 31.76,19.983 L31.76,34.871 C31.726,35.129 31.702,35.388 31.702,35.654 L31.702,35.784 C30.756,34.246 29.072,33.21 27.139,33.21 L26.5,33.21 C26.25,33.21 26.011,33.25 25.77,33.283 C24.58,32.078 22.931,31.329 21.107,31.329 C17.492,31.329 14.551,34.27 14.551,37.885 C14.551,41.5 17.492,44.441 21.107,44.441 C24.723,44.441 27.663,41.5 27.663,37.885 C27.663,36.419 27.173,35.068 26.356,33.974 C26.405,33.973 26.45,33.96 26.5,33.96 L27.139,33.96 C29.491,33.96 31.417,35.735 31.702,38.011 L31.702,46.697 L17.795,46.697 C17.036,46.697 16.42,47.313 16.42,48.072 L16.42,51.248 C16.42,52.006 17.036,52.622 17.795,52.622 L19.243,52.622 L23.24,67.581 C23.284,67.744 23.433,67.859 23.603,67.859 L40.667,67.859 C40.837,67.859 40.985,67.744 41.029,67.581 L45.026,52.622 L46.476,52.622 C47.233,52.622 47.851,52.006 47.851,51.248 L47.851,48.072 C47.851,47.313 47.233,46.697 46.476,46.697 L32.51,46.697 L32.51,35.084 C32.798,32.496 34.972,30.471 37.634,30.471 L38.237,30.471 C37.437,31.557 36.958,32.895 36.958,34.345 C36.958,37.96 39.899,40.901 43.515,40.901 Z" id="Fill-3"></path>
            <path d="M42.065,34.72 L44.834,34.72 C45.355,34.72 45.779,35.144 45.779,35.666 C45.779,36.188 45.355,36.612 44.834,36.612 L42.065,36.612 L42.065,34.72 Z M42.082,32.079 L44.207,32.079 C44.728,32.079 45.151,32.504 45.151,33.025 C45.151,33.546 44.728,33.97 44.206,33.97 L42.065,33.97 L42.065,32.079 L42.082,32.079 Z M40.873,32.079 L41.315,32.079 L41.315,36.612 L40.875,36.612 C40.668,36.612 40.5,36.78 40.5,36.987 C40.5,37.194 40.668,37.362 40.875,37.362 L41.687,37.362 C41.688,37.362 41.689,37.362 41.69,37.362 C41.69,37.362 41.69,37.362 41.691,37.362 L42.286,37.362 L42.286,38.381 C42.286,38.588 42.454,38.756 42.661,38.756 C42.868,38.756 43.036,38.588 43.036,38.381 L43.036,37.362 L43.743,37.362 L43.743,38.381 C43.743,38.588 43.911,38.756 44.118,38.756 C44.325,38.756 44.493,38.588 44.493,38.381 L44.493,37.362 L44.834,37.362 C45.769,37.362 46.529,36.602 46.529,35.666 C46.529,34.967 46.104,34.367 45.5,34.107 C45.747,33.813 45.901,33.438 45.901,33.025 C45.901,32.188 45.291,31.495 44.493,31.358 L44.493,30.312 C44.493,30.104 44.325,29.936 44.118,29.936 C43.911,29.936 43.743,30.104 43.743,30.312 L43.743,31.329 L43.036,31.329 L43.036,30.312 C43.036,30.104 42.868,29.936 42.661,29.936 C42.454,29.936 42.286,30.104 42.286,30.312 L42.286,31.329 L40.873,31.329 C40.666,31.329 40.498,31.498 40.498,31.704 C40.498,31.911 40.666,32.079 40.873,32.079 Z" id="Fill-4"></path>
            <path d="M39.456,19.739 L41.518,19.739 C41.875,19.739 42.165,20.029 42.165,20.387 C42.165,20.744 41.875,21.035 41.518,21.035 L39.456,21.035 L39.456,19.739 Z M39.833,17.693 L41.03,17.693 C41.387,17.693 41.678,17.983 41.678,18.34 C41.678,18.698 41.387,18.989 41.029,18.989 L39.456,18.989 L39.456,17.693 L39.833,17.693 Z M40.208,16.312 L40.208,16.239 C40.208,16.144 40.169,16.06 40.111,15.994 C40.042,15.916 39.944,15.865 39.833,15.865 C39.626,15.865 39.458,16.032 39.458,16.239 L39.458,16.943 L38.448,16.943 C38.241,16.943 38.073,17.111 38.073,17.318 C38.073,17.525 38.241,17.693 38.448,17.693 L38.706,17.693 L38.706,21.035 L38.45,21.035 C38.243,21.035 38.075,21.202 38.075,21.41 C38.075,21.617 38.243,21.785 38.45,21.785 L39.071,21.785 C39.075,21.785 39.078,21.786 39.081,21.786 C39.085,21.786 39.088,21.785 39.091,21.785 L39.458,21.785 L39.458,22.491 C39.458,22.699 39.626,22.867 39.833,22.867 C40.04,22.867 40.208,22.699 40.208,22.491 L40.208,21.785 L40.588,21.785 L40.588,22.491 C40.588,22.699 40.756,22.867 40.963,22.867 C41.17,22.867 41.338,22.699 41.338,22.491 L41.338,21.785 L41.518,21.785 C42.288,21.785 42.915,21.158 42.915,20.387 C42.915,19.85 42.607,19.388 42.162,19.154 C42.327,18.924 42.428,18.645 42.428,18.34 C42.428,17.676 41.96,17.12 41.338,16.98 L41.338,16.239 C41.338,16.032 41.17,15.865 40.963,15.865 C40.923,15.865 40.887,15.876 40.851,15.887 C40.699,15.936 40.588,16.073 40.588,16.239 L40.588,16.943 L40.208,16.943 L40.208,16.312 Z" id="Fill-5"></path>
            <path d="M5.069,46.218 C5.203,46.47 5.367,46.683 5.559,46.855 C5.75,47.028 5.957,47.156 6.179,47.239 C6.401,47.322 6.635,47.356 6.878,47.342 C7.121,47.327 7.358,47.257 7.591,47.133 C7.823,47.01 8.014,46.851 8.161,46.657 C8.31,46.463 8.411,46.25 8.466,46.02 C8.521,45.789 8.529,45.546 8.493,45.29 C8.456,45.035 8.37,44.781 8.236,44.529 C8.094,44.263 7.931,44.045 7.744,43.872 C7.558,43.699 7.356,43.571 7.139,43.488 L6.399,43.883 L7.394,45.747 L6.66,46.138 L5.274,43.54 L6.986,42.627 C7.397,42.69 7.775,42.855 8.121,43.121 C8.467,43.387 8.75,43.725 8.969,44.137 C9.143,44.463 9.257,44.807 9.311,45.168 C9.365,45.529 9.353,45.88 9.275,46.22 C9.197,46.56 9.053,46.875 8.841,47.166 C8.63,47.456 8.347,47.697 7.992,47.885 C7.63,48.079 7.268,48.183 6.906,48.198 C6.545,48.212 6.204,48.156 5.882,48.03 C5.56,47.902 5.266,47.716 4.998,47.469 C4.731,47.222 4.509,46.935 4.335,46.609 C4.192,46.34 4.084,46.096 4.012,45.878 C3.94,45.66 3.891,45.462 3.865,45.285 C3.839,45.108 3.829,44.951 3.837,44.813 C3.845,44.676 3.854,44.552 3.862,44.442 L4.651,44.021 L5.01,44.694 L4.708,44.894 C4.703,44.991 4.702,45.086 4.706,45.178 C4.711,45.27 4.727,45.367 4.753,45.471 C4.779,45.575 4.818,45.687 4.869,45.806 C4.92,45.926 4.986,46.062 5.069,46.218" id="Fill-6"></path>
            <path d="M3.05,37.134 C2.914,37.164 2.793,37.219 2.685,37.298 C2.578,37.377 2.49,37.47 2.422,37.578 C2.354,37.686 2.308,37.806 2.284,37.94 C2.26,38.073 2.263,38.207 2.293,38.342 L2.704,40.154 L4.67,39.708 L4.25,37.856 C4.221,37.725 4.167,37.609 4.089,37.505 C4.012,37.402 3.918,37.318 3.809,37.253 C3.699,37.188 3.579,37.144 3.448,37.121 C3.317,37.099 3.185,37.103 3.05,37.134 Z M6.786,38.667 L7.21,40.539 L6.399,40.723 L6.279,40.195 L2.887,40.964 L3.007,41.491 L2.196,41.675 L1.472,38.479 C1.419,38.249 1.416,38.019 1.46,37.788 C1.506,37.558 1.593,37.341 1.721,37.136 C1.854,36.926 2.017,36.752 2.21,36.614 C2.404,36.475 2.623,36.378 2.865,36.323 C3.109,36.268 3.349,36.26 3.586,36.302 C3.822,36.343 4.046,36.43 4.255,36.562 C4.543,36.743 4.762,36.978 4.913,37.266 L5.149,37.091 C5.405,36.901 5.506,36.689 5.453,36.454 C5.425,36.328 5.374,36.225 5.301,36.144 C5.229,36.063 5.137,35.988 5.026,35.919 L5.499,35.279 C5.704,35.407 5.869,35.545 5.994,35.692 C6.12,35.839 6.209,36.031 6.264,36.271 C6.339,36.599 6.315,36.891 6.192,37.146 C6.07,37.401 5.87,37.634 5.59,37.844 L5.172,38.159 L5.481,39.524 L6.096,39.385 L5.975,38.851 L6.786,38.667 Z" id="Fill-7"></path>
            <path d="M1.622,30.888 C1.611,31.174 1.646,31.44 1.723,31.686 C1.802,31.932 1.916,32.146 2.066,32.33 C2.216,32.514 2.4,32.661 2.617,32.771 C2.835,32.881 3.075,32.941 3.338,32.952 C3.602,32.962 3.845,32.92 4.071,32.827 C4.297,32.734 4.491,32.602 4.655,32.43 C4.819,32.259 4.95,32.054 5.047,31.814 C5.144,31.576 5.198,31.313 5.208,31.027 C5.221,30.722 5.187,30.446 5.109,30.198 C5.031,29.95 4.917,29.736 4.766,29.557 C4.616,29.378 4.432,29.237 4.214,29.133 C3.996,29.03 3.756,28.973 3.492,28.963 C3.229,28.953 2.986,28.991 2.76,29.077 C2.535,29.163 2.341,29.29 2.177,29.457 C2.014,29.624 1.883,29.828 1.786,30.069 C1.689,30.31 1.634,30.583 1.622,30.888 Z M3.305,33.803 C2.895,33.787 2.529,33.694 2.21,33.525 C1.891,33.355 1.625,33.135 1.411,32.863 C1.197,32.591 1.037,32.281 0.931,31.933 C0.823,31.584 0.777,31.225 0.792,30.856 C0.807,30.468 0.881,30.104 1.014,29.766 C1.147,29.427 1.331,29.132 1.565,28.882 C1.799,28.632 2.081,28.437 2.413,28.298 C2.744,28.158 3.115,28.096 3.525,28.112 C3.923,28.127 4.28,28.217 4.597,28.382 C4.914,28.547 5.182,28.763 5.401,29.03 C5.619,29.298 5.784,29.606 5.895,29.954 C6.006,30.303 6.054,30.671 6.039,31.059 C6.025,31.428 5.95,31.782 5.815,32.121 C5.679,32.461 5.492,32.757 5.253,33.012 C5.015,33.266 4.731,33.465 4.401,33.61 C4.072,33.754 3.707,33.819 3.305,33.803 Z" id="Fill-8"></path>
            <polyline id="Fill-9" points="3.736 22.568 4.264 21.115 7.267 21.41 7.357 21.163 4.396 19.128 4.223 19.604 3.441 19.32 4.097 17.516 4.879 17.8 4.692 18.315 8.352 20.861 7.838 22.274 4.825 22.005 4.737 22.245 7.22 23.974 6.707 25.387 2.266 24.989 2.079 25.504 1.298 25.22 1.953 23.416 2.734 23.7 2.562 24.176 6.139 24.516 6.229 24.269 3.736 22.568"></polyline>
            <polyline id="Fill-10" points="10.433 10.638 10.149 10.904 11.968 11.489 12.924 10.594 12.462 8.74 12.179 9.006 11.61 8.398 13.012 7.087 13.58 7.693 13.139 8.106 13.867 10.851 13.315 11.367 13.983 12.08 14.388 11.702 14.956 12.308 13.55 13.625 12.981 13.017 13.376 12.648 12.709 11.935 12.162 12.446 9.467 11.543 9.031 11.95 8.463 11.343 9.865 10.031 10.433 10.638"></polyline>
            <path d="M17.892,5.072 C17.639,5.205 17.426,5.367 17.252,5.558 C17.078,5.748 16.949,5.955 16.865,6.177 C16.781,6.399 16.746,6.631 16.759,6.875 C16.773,7.118 16.84,7.357 16.963,7.59 C17.086,7.822 17.243,8.013 17.437,8.162 C17.63,8.311 17.842,8.413 18.072,8.469 C18.303,8.525 18.546,8.536 18.802,8.501 C19.057,8.465 19.311,8.381 19.564,8.248 C19.835,8.106 20.057,7.939 20.233,7.747 C20.409,7.556 20.537,7.35 20.617,7.13 C20.697,6.91 20.727,6.68 20.707,6.44 C20.687,6.2 20.617,5.963 20.494,5.73 C20.372,5.497 20.217,5.304 20.03,5.153 C19.843,5.001 19.636,4.895 19.41,4.837 C19.183,4.779 18.941,4.768 18.683,4.804 C18.426,4.84 18.162,4.93 17.892,5.072 Z M16.209,7.986 C16.018,7.623 15.915,7.26 15.902,6.899 C15.889,6.537 15.947,6.196 16.076,5.876 C16.205,5.555 16.394,5.261 16.642,4.994 C16.891,4.728 17.178,4.508 17.505,4.336 C17.849,4.155 18.2,4.038 18.561,3.984 C18.921,3.93 19.268,3.942 19.602,4.02 C19.935,4.097 20.245,4.244 20.531,4.462 C20.817,4.678 21.057,4.969 21.248,5.333 C21.434,5.685 21.534,6.039 21.55,6.396 C21.565,6.753 21.512,7.093 21.39,7.416 C21.268,7.739 21.083,8.035 20.837,8.306 C20.59,8.577 20.295,8.803 19.952,8.983 C19.625,9.156 19.281,9.268 18.919,9.32 C18.558,9.372 18.207,9.358 17.868,9.278 C17.528,9.199 17.213,9.052 16.924,8.839 C16.634,8.626 16.396,8.342 16.209,7.986 Z" id="Fill-11"></path>
            <path d="M28.407,1.74 L28.757,3.458 C28.837,3.847 28.854,4.211 28.811,4.55 C28.766,4.889 28.664,5.191 28.503,5.457 C28.343,5.723 28.126,5.947 27.852,6.127 C27.577,6.308 27.252,6.437 26.877,6.514 C26.515,6.588 26.173,6.594 25.853,6.535 C25.532,6.476 25.242,6.355 24.987,6.174 C24.73,5.993 24.513,5.756 24.333,5.462 C24.153,5.169 24.022,4.826 23.942,4.432 L23.594,2.721 L23.063,2.829 L22.898,2.014 L24.778,1.631 L24.945,2.445 L24.408,2.555 L24.757,4.266 C24.81,4.523 24.888,4.755 24.994,4.96 C25.099,5.164 25.233,5.331 25.396,5.458 C25.559,5.585 25.748,5.672 25.965,5.716 C26.182,5.762 26.43,5.756 26.711,5.699 C27.009,5.638 27.251,5.544 27.435,5.417 C27.619,5.29 27.757,5.137 27.85,4.957 C27.943,4.779 27.995,4.574 28.005,4.346 C28.015,4.118 27.994,3.875 27.941,3.616 L27.593,1.906 L27.056,2.015 L26.89,1.2 L28.777,0.816 L28.943,1.631 L28.407,1.74" id="Fill-12"></path>
            <path d="M35.898,2.825 C35.909,2.687 35.893,2.555 35.849,2.429 C35.806,2.303 35.742,2.191 35.659,2.094 C35.577,1.998 35.476,1.918 35.355,1.855 C35.234,1.792 35.106,1.756 34.967,1.745 L33.116,1.601 L32.96,3.612 L34.853,3.759 C34.986,3.769 35.114,3.753 35.235,3.709 C35.357,3.665 35.465,3.6 35.56,3.515 C35.654,3.43 35.732,3.328 35.792,3.21 C35.853,3.092 35.888,2.964 35.898,2.825 Z M33.328,5.941 L31.415,5.792 L31.479,4.963 L32.018,5.005 L32.287,1.537 L31.749,1.495 L31.813,0.666 L35.081,0.92 C35.315,0.938 35.536,1.004 35.743,1.114 C35.949,1.225 36.131,1.372 36.289,1.556 C36.45,1.745 36.568,1.952 36.644,2.178 C36.719,2.404 36.747,2.641 36.727,2.89 C36.708,3.138 36.644,3.37 36.534,3.583 C36.425,3.797 36.276,3.985 36.087,4.147 C35.829,4.368 35.541,4.507 35.221,4.566 L35.317,4.844 C35.424,5.145 35.597,5.304 35.836,5.322 C35.965,5.332 36.079,5.315 36.177,5.269 C36.276,5.224 36.375,5.158 36.475,5.073 L36.945,5.714 C36.762,5.872 36.582,5.988 36.404,6.065 C36.227,6.141 36.016,6.17 35.772,6.152 C35.436,6.125 35.164,6.016 34.957,5.824 C34.749,5.632 34.586,5.371 34.468,5.042 L34.291,4.549 L32.896,4.441 L32.847,5.07 L33.393,5.112 L33.328,5.941 Z" id="Fill-13"></path>
            <path d="M47.188,6.247 C47.263,6.103 47.275,5.954 47.227,5.798 C47.177,5.642 47.081,5.527 46.938,5.452 L45.095,4.49 L44.547,5.541 L46.39,6.502 C46.464,6.541 46.54,6.562 46.618,6.567 C46.697,6.572 46.771,6.562 46.843,6.539 C46.915,6.517 46.98,6.481 47.041,6.432 C47.101,6.382 47.149,6.32 47.188,6.247 Z M46.221,7.352 L44.163,6.279 L43.486,7.575 L45.526,8.638 C45.616,8.686 45.709,8.712 45.806,8.718 C45.901,8.723 45.994,8.713 46.083,8.687 C46.172,8.66 46.255,8.616 46.332,8.555 C46.408,8.493 46.47,8.417 46.518,8.327 C46.562,8.241 46.588,8.15 46.596,8.055 C46.604,7.96 46.593,7.869 46.563,7.781 C46.534,7.692 46.49,7.611 46.433,7.537 C46.375,7.462 46.305,7.401 46.221,7.352 Z M45.142,9.376 L41.886,7.677 L42.27,6.94 L42.749,7.19 L44.358,4.106 L43.879,3.856 L44.264,3.119 L47.322,4.715 C47.495,4.805 47.64,4.922 47.76,5.068 C47.879,5.214 47.967,5.374 48.021,5.548 C48.076,5.723 48.096,5.904 48.081,6.091 C48.067,6.279 48.015,6.459 47.925,6.631 C47.848,6.779 47.75,6.906 47.632,7.013 C47.514,7.121 47.386,7.207 47.248,7.27 C47.374,7.487 47.436,7.728 47.431,7.991 C47.426,8.254 47.368,8.494 47.254,8.711 C47.153,8.904 47.023,9.065 46.862,9.195 C46.7,9.324 46.523,9.419 46.33,9.479 C46.136,9.54 45.937,9.563 45.732,9.547 C45.526,9.531 45.33,9.474 45.142,9.376 Z" id="Fill-14"></path>
            <polyline id="Fill-15" points="49.205 12.268 47.697 11.058 48.218 10.41 48.645 10.752 50.822 8.04 50.395 7.697 50.915 7.048 52.418 8.254 51.897 8.903 51.47 8.56 49.294 11.273 49.725 11.619 49.205 12.268"></polyline>
            <polyline id="Fill-16" points="53.773 11.458 53.287 10.873 54.4 9.947 57.966 14.236 56.853 15.162 56.365 14.575 56.795 14.128 55.808 12.94 53.133 15.164 53.482 15.584 52.844 16.116 51.612 14.635 52.251 14.103 52.602 14.524 55.275 12.3 54.292 11.118 53.773 11.458"></polyline>
            <path d="M59.916,19.521 C59.795,19.261 59.645,19.04 59.463,18.857 C59.281,18.673 59.081,18.534 58.864,18.439 C58.647,18.344 58.416,18.297 58.172,18.298 C57.929,18.299 57.687,18.355 57.449,18.466 C57.209,18.577 57.011,18.725 56.853,18.91 C56.694,19.096 56.581,19.302 56.514,19.53 C56.446,19.757 56.423,19.999 56.446,20.256 C56.468,20.513 56.54,20.771 56.661,21.031 C56.82,21.375 57.019,21.648 57.258,21.85 C57.497,22.052 57.759,22.181 58.045,22.237 L57.795,23.033 C57.391,22.93 57.024,22.735 56.695,22.447 C56.365,22.16 56.103,21.804 55.906,21.381 C55.751,21.046 55.656,20.697 55.622,20.333 C55.588,19.969 55.62,19.62 55.716,19.284 C55.813,18.95 55.975,18.643 56.202,18.364 C56.429,18.085 56.726,17.862 57.09,17.693 C57.462,17.52 57.83,17.436 58.191,17.441 C58.553,17.447 58.891,17.522 59.205,17.666 C59.519,17.811 59.802,18.014 60.056,18.276 C60.311,18.537 60.515,18.836 60.67,19.17 C60.798,19.447 60.893,19.697 60.952,19.918 C61.012,20.14 61.05,20.34 61.066,20.518 C61.083,20.697 61.084,20.855 61.068,20.991 C61.053,21.128 61.037,21.251 61.021,21.36 L60.211,21.737 L59.89,21.045 L60.202,20.862 C60.214,20.766 60.219,20.671 60.22,20.579 C60.221,20.487 60.211,20.389 60.189,20.284 C60.169,20.178 60.137,20.065 60.093,19.943 C60.048,19.821 59.99,19.68 59.916,19.521" id="Fill-17"></path>
            <path d="M62.134,26.699 C62.083,26.416 61.994,26.164 61.865,25.941 C61.736,25.717 61.579,25.532 61.393,25.384 C61.207,25.237 60.996,25.132 60.76,25.071 C60.524,25.01 60.276,25.002 60.018,25.049 C59.758,25.095 59.528,25.187 59.328,25.326 C59.127,25.465 58.965,25.636 58.842,25.839 C58.718,26.041 58.635,26.27 58.591,26.524 C58.547,26.778 58.55,27.046 58.601,27.328 C58.654,27.628 58.745,27.891 58.874,28.116 C59.004,28.343 59.161,28.526 59.346,28.669 C59.531,28.813 59.741,28.911 59.976,28.965 C60.211,29.02 60.458,29.024 60.717,28.978 C60.976,28.932 61.207,28.843 61.408,28.71 C61.61,28.578 61.773,28.413 61.898,28.215 C62.021,28.017 62.105,27.79 62.148,27.534 C62.192,27.277 62.188,26.999 62.134,26.699 Z M59.867,24.209 C60.272,24.138 60.649,24.15 60.997,24.248 C61.345,24.345 61.653,24.504 61.919,24.724 C62.187,24.944 62.409,25.213 62.587,25.531 C62.766,25.848 62.888,26.189 62.953,26.553 C63.021,26.935 63.026,27.306 62.968,27.666 C62.91,28.026 62.793,28.352 62.618,28.646 C62.443,28.941 62.208,29.191 61.915,29.398 C61.62,29.605 61.271,29.745 60.866,29.817 C60.476,29.887 60.107,29.875 59.762,29.781 C59.417,29.688 59.109,29.534 58.839,29.319 C58.568,29.105 58.342,28.839 58.158,28.522 C57.976,28.205 57.85,27.856 57.782,27.474 C57.717,27.11 57.715,26.748 57.775,26.388 C57.835,26.028 57.955,25.698 58.134,25.398 C58.313,25.099 58.548,24.844 58.838,24.632 C59.129,24.421 59.472,24.281 59.867,24.209 Z" id="Fill-18"></path>
            <polyline id="Fill-19" points="58.213 33.786 58.268 31.854 59.099 31.877 59.082 32.424 62.56 32.523 62.575 31.975 63.406 31.999 63.352 33.925 62.521 33.901 62.536 33.354 59.06 33.256 59.043 33.809 58.213 33.786"></polyline>
            <polyline id="Fill-20" points="57.761 37.194 58.196 35.324 59.006 35.513 58.884 36.039 62.271 36.828 62.394 36.302 63.204 36.49 62.731 38.522 58.105 39.379 58.061 39.575 61.447 40.364 61.572 39.831 62.382 40.019 61.945 41.895 61.135 41.707 61.259 41.174 57.872 40.385 57.748 40.918 56.937 40.729 57.411 38.698 62.036 37.84 62.083 37.638 58.695 36.849 58.571 37.382 57.761 37.194"></polyline>
            <path d="M59.737,46.894 C59.615,47.122 59.498,47.321 59.386,47.492 C59.274,47.662 59.159,47.818 59.041,47.959 C58.924,48.101 58.798,48.233 58.665,48.355 C58.531,48.478 58.382,48.605 58.218,48.737 L57.301,48.247 L57.66,47.575 L58.043,47.741 C58.195,47.622 58.353,47.462 58.517,47.259 C58.68,47.055 58.852,46.787 59.029,46.453 C59.162,46.204 59.257,45.988 59.314,45.803 C59.371,45.619 59.401,45.464 59.406,45.338 C59.41,45.212 59.393,45.111 59.355,45.036 C59.316,44.96 59.269,44.907 59.212,44.877 C59.15,44.844 59.088,44.827 59.022,44.827 C58.958,44.826 58.879,44.86 58.787,44.929 C58.695,44.998 58.587,45.11 58.462,45.266 C58.337,45.422 58.186,45.64 58.009,45.923 C57.758,46.323 57.524,46.65 57.308,46.904 C57.091,47.157 56.879,47.343 56.671,47.463 C56.463,47.582 56.255,47.638 56.046,47.632 C55.838,47.625 55.619,47.561 55.391,47.439 C55.192,47.332 55.031,47.178 54.908,46.976 C54.786,46.775 54.71,46.538 54.683,46.267 C54.655,45.995 54.679,45.693 54.754,45.362 C54.829,45.03 54.965,44.679 55.163,44.308 C55.301,44.051 55.457,43.822 55.633,43.62 C55.809,43.418 55.99,43.242 56.176,43.09 C56.362,42.937 56.545,42.812 56.727,42.712 C56.909,42.613 57.074,42.541 57.225,42.495 L57.504,43.265 C57.354,43.331 57.205,43.406 57.058,43.49 C56.911,43.574 56.769,43.673 56.632,43.789 C56.494,43.903 56.362,44.037 56.238,44.187 C56.113,44.338 55.999,44.508 55.897,44.7 C55.744,44.985 55.637,45.241 55.574,45.467 C55.511,45.692 55.481,45.887 55.485,46.051 C55.489,46.216 55.52,46.351 55.578,46.458 C55.636,46.565 55.708,46.642 55.794,46.688 C55.879,46.733 55.969,46.752 56.064,46.746 C56.159,46.739 56.266,46.693 56.381,46.609 C56.497,46.524 56.626,46.394 56.767,46.218 C56.908,46.042 57.071,45.81 57.257,45.521 C57.512,45.123 57.743,44.804 57.949,44.564 C58.157,44.323 58.354,44.149 58.544,44.04 C58.732,43.932 58.914,43.882 59.09,43.892 C59.265,43.903 59.449,43.959 59.64,44.061 C59.827,44.161 59.973,44.302 60.075,44.482 C60.177,44.662 60.235,44.874 60.247,45.116 C60.259,45.358 60.223,45.629 60.138,45.929 C60.054,46.23 59.92,46.552 59.737,46.894" id="Fill-21"></path>
            <path d="M27.072,56.688 C26.903,56.688 26.747,56.714 26.604,56.766 C26.46,56.818 26.336,56.89 26.231,56.983 C26.126,57.075 26.044,57.187 25.983,57.318 C25.923,57.449 25.894,57.593 25.894,57.748 C25.894,57.904 25.923,58.047 25.983,58.178 C26.044,58.309 26.126,58.421 26.231,58.514 C26.336,58.607 26.46,58.679 26.604,58.731 C26.747,58.783 26.903,58.809 27.072,58.809 C27.296,58.809 27.492,58.77 27.66,58.692 C27.828,58.614 27.962,58.506 28.063,58.366 L28.428,58.698 C28.272,58.889 28.076,59.037 27.84,59.142 C27.604,59.248 27.348,59.3 27.072,59.3 C26.854,59.3 26.643,59.264 26.44,59.192 C26.237,59.119 26.057,59.015 25.901,58.88 C25.746,58.745 25.622,58.582 25.529,58.391 C25.436,58.2 25.39,57.986 25.39,57.748 C25.39,57.505 25.436,57.288 25.529,57.095 C25.622,56.903 25.746,56.74 25.901,56.608 C26.057,56.476 26.237,56.374 26.44,56.303 C26.643,56.232 26.854,56.197 27.072,56.197 C27.252,56.197 27.41,56.208 27.544,56.231 C27.677,56.255 27.794,56.284 27.894,56.319 C27.993,56.355 28.078,56.394 28.147,56.436 C28.217,56.479 28.279,56.517 28.334,56.553 L28.334,57.081 L27.883,57.081 L27.863,56.868 C27.814,56.838 27.765,56.812 27.715,56.788 C27.666,56.765 27.611,56.746 27.549,56.731 C27.488,56.716 27.419,56.705 27.343,56.698 C27.266,56.691 27.176,56.688 27.072,56.688" id="Fill-22"></path>
            <path d="M27.072,56.247 C26.86,56.247 26.653,56.282 26.457,56.35 C26.26,56.419 26.084,56.518 25.934,56.646 C25.784,56.774 25.663,56.932 25.574,57.117 C25.485,57.302 25.439,57.514 25.439,57.748 C25.439,57.977 25.485,58.186 25.574,58.369 C25.663,58.553 25.784,58.712 25.934,58.843 C26.084,58.973 26.26,59.074 26.457,59.145 C26.653,59.215 26.86,59.25 27.072,59.25 C27.34,59.25 27.591,59.198 27.82,59.097 C28.032,59.002 28.213,58.87 28.358,58.703 L28.07,58.44 C27.969,58.564 27.838,58.665 27.681,58.738 C27.507,58.818 27.302,58.859 27.072,58.859 C26.899,58.859 26.735,58.832 26.586,58.778 C26.439,58.725 26.308,58.648 26.198,58.552 C26.088,58.454 26,58.336 25.938,58.199 C25.876,58.062 25.844,57.911 25.844,57.748 C25.844,57.586 25.876,57.434 25.938,57.298 C26.001,57.161 26.088,57.042 26.198,56.945 C26.308,56.849 26.438,56.772 26.586,56.719 C26.735,56.665 26.898,56.638 27.072,56.638 C27.177,56.638 27.27,56.642 27.347,56.648 C27.426,56.656 27.498,56.667 27.561,56.682 C27.625,56.698 27.685,56.719 27.737,56.743 C27.787,56.767 27.836,56.793 27.889,56.825 L27.91,56.838 L27.929,57.031 L28.284,57.031 L28.284,56.58 C28.235,56.549 28.181,56.515 28.122,56.479 C28.055,56.438 27.973,56.401 27.877,56.367 C27.781,56.332 27.666,56.303 27.535,56.281 C27.405,56.258 27.25,56.247 27.072,56.247 Z M27.072,59.35 C26.849,59.35 26.631,59.312 26.423,59.239 C26.215,59.164 26.028,59.056 25.869,58.918 C25.709,58.779 25.579,58.609 25.484,58.413 C25.388,58.216 25.34,57.992 25.34,57.748 C25.34,57.499 25.388,57.272 25.484,57.073 C25.579,56.876 25.709,56.707 25.869,56.57 C26.029,56.434 26.215,56.328 26.423,56.256 C26.631,56.184 26.849,56.147 27.072,56.147 C27.255,56.147 27.417,56.159 27.552,56.182 C27.688,56.206 27.809,56.236 27.911,56.272 C28.013,56.309 28.101,56.35 28.173,56.394 C28.243,56.436 28.306,56.475 28.361,56.511 L28.383,56.526 L28.383,57.131 L27.838,57.131 L27.815,56.898 C27.774,56.873 27.734,56.852 27.694,56.833 C27.648,56.812 27.595,56.794 27.538,56.78 C27.479,56.765 27.412,56.755 27.338,56.748 C27.264,56.741 27.174,56.738 27.072,56.738 C26.91,56.738 26.758,56.763 26.621,56.813 C26.484,56.862 26.364,56.932 26.264,57.02 C26.165,57.108 26.086,57.215 26.029,57.339 C25.972,57.463 25.943,57.6 25.943,57.748 C25.943,57.896 25.972,58.034 26.029,58.157 C26.085,58.281 26.165,58.389 26.264,58.477 C26.365,58.565 26.484,58.635 26.621,58.684 C26.758,58.734 26.91,58.759 27.072,58.759 C27.288,58.759 27.478,58.721 27.639,58.647 C27.799,58.572 27.928,58.468 28.023,58.337 L28.056,58.292 L28.497,58.693 L28.466,58.73 C28.306,58.926 28.103,59.08 27.861,59.188 C27.619,59.295 27.354,59.35 27.072,59.35 Z" id="Fill-23"></path>
            <path d="M30.77,56.688 C30.601,56.688 30.444,56.714 30.301,56.766 C30.158,56.818 30.034,56.89 29.928,56.983 C29.823,57.075 29.741,57.187 29.681,57.318 C29.621,57.449 29.591,57.593 29.591,57.748 C29.591,57.904 29.621,58.047 29.681,58.178 C29.741,58.309 29.823,58.421 29.928,58.514 C30.034,58.607 30.158,58.679 30.301,58.731 C30.444,58.783 30.601,58.809 30.77,58.809 C30.95,58.809 31.112,58.783 31.257,58.731 C31.402,58.679 31.525,58.607 31.627,58.514 C31.73,58.421 31.809,58.309 31.865,58.178 C31.921,58.047 31.949,57.904 31.949,57.748 C31.949,57.593 31.921,57.449 31.865,57.318 C31.809,57.187 31.73,57.075 31.627,56.983 C31.525,56.89 31.402,56.818 31.257,56.766 C31.112,56.714 30.95,56.688 30.77,56.688 Z M29.087,57.748 C29.087,57.505 29.133,57.288 29.226,57.095 C29.319,56.903 29.443,56.74 29.599,56.608 C29.754,56.476 29.934,56.374 30.137,56.303 C30.34,56.232 30.551,56.197 30.77,56.197 C30.999,56.197 31.215,56.232 31.418,56.303 C31.622,56.374 31.8,56.476 31.953,56.608 C32.106,56.74 32.227,56.903 32.317,57.095 C32.407,57.288 32.453,57.505 32.453,57.748 C32.453,57.983 32.407,58.196 32.317,58.387 C32.227,58.578 32.106,58.741 31.953,58.876 C31.8,59.011 31.622,59.116 31.418,59.189 C31.215,59.263 30.999,59.3 30.77,59.3 C30.551,59.3 30.34,59.264 30.137,59.192 C29.934,59.119 29.754,59.015 29.599,58.88 C29.443,58.745 29.319,58.582 29.226,58.391 C29.133,58.2 29.087,57.986 29.087,57.748 Z" id="Fill-24"></path>
            <path d="M30.77,56.738 C30.607,56.738 30.455,56.763 30.318,56.813 C30.182,56.862 30.062,56.932 29.961,57.02 C29.862,57.108 29.783,57.215 29.726,57.339 C29.669,57.463 29.641,57.6 29.641,57.748 C29.641,57.896 29.669,58.034 29.726,58.157 C29.783,58.281 29.862,58.389 29.961,58.477 C30.062,58.565 30.182,58.635 30.318,58.684 C30.456,58.734 30.607,58.759 30.77,58.759 C30.943,58.759 31.101,58.734 31.24,58.684 C31.377,58.635 31.496,58.565 31.594,58.477 C31.69,58.389 31.766,58.282 31.819,58.159 C31.872,58.035 31.899,57.897 31.899,57.748 C31.899,57.6 31.872,57.462 31.819,57.338 C31.766,57.214 31.69,57.107 31.594,57.02 C31.497,56.932 31.377,56.862 31.24,56.813 C31.102,56.763 30.943,56.738 30.77,56.738 Z M30.77,58.859 C30.596,58.859 30.433,58.832 30.284,58.778 C30.136,58.725 30.005,58.648 29.895,58.552 C29.785,58.454 29.698,58.336 29.635,58.199 C29.573,58.062 29.541,57.911 29.541,57.748 C29.541,57.586 29.573,57.434 29.635,57.298 C29.698,57.161 29.786,57.042 29.895,56.945 C30.005,56.849 30.136,56.772 30.284,56.719 C30.432,56.665 30.596,56.638 30.77,56.638 C30.955,56.638 31.125,56.665 31.273,56.718 C31.424,56.772 31.554,56.849 31.661,56.946 C31.769,57.043 31.853,57.162 31.911,57.299 C31.969,57.435 31.999,57.586 31.999,57.748 C31.999,57.91 31.969,58.061 31.911,58.198 C31.853,58.335 31.769,58.454 31.661,58.551 C31.553,58.648 31.423,58.725 31.273,58.778 C31.124,58.832 30.954,58.859 30.77,58.859 Z M30.77,56.247 C30.558,56.247 30.35,56.282 30.154,56.35 C29.958,56.419 29.782,56.518 29.631,56.646 C29.481,56.774 29.36,56.932 29.271,57.117 C29.182,57.302 29.137,57.514 29.137,57.748 C29.137,57.977 29.182,58.186 29.271,58.369 C29.36,58.553 29.481,58.712 29.631,58.843 C29.782,58.973 29.958,59.074 30.154,59.145 C30.558,59.288 31.018,59.282 31.401,59.142 C31.599,59.071 31.773,58.969 31.92,58.839 C32.066,58.709 32.185,58.55 32.272,58.366 C32.359,58.182 32.403,57.974 32.403,57.748 C32.403,57.515 32.359,57.302 32.272,57.116 C32.185,56.931 32.066,56.772 31.92,56.646 C31.773,56.518 31.598,56.419 31.402,56.35 C31.205,56.282 30.993,56.247 30.77,56.247 Z M30.77,59.35 C30.546,59.35 30.328,59.312 30.121,59.239 C29.912,59.164 29.726,59.056 29.566,58.918 C29.406,58.779 29.276,58.609 29.181,58.413 C29.085,58.216 29.037,57.992 29.037,57.748 C29.037,57.499 29.085,57.272 29.181,57.073 C29.276,56.876 29.406,56.707 29.566,56.57 C29.726,56.434 29.913,56.328 30.121,56.256 C30.546,56.108 31.03,56.115 31.435,56.256 C31.643,56.328 31.829,56.434 31.986,56.57 C32.143,56.706 32.27,56.876 32.363,57.074 C32.456,57.273 32.502,57.5 32.502,57.748 C32.502,57.989 32.456,58.211 32.363,58.408 C32.27,58.605 32.143,58.775 31.986,58.914 C31.83,59.052 31.645,59.161 31.436,59.237 C31.228,59.312 31.004,59.35 30.77,59.35 Z" id="Fill-25"></path>
            <polyline id="Fill-26" points="34.463 59.263 33.32 59.263 33.32 58.772 33.644 58.772 33.644 56.717 33.32 56.717 33.32 56.225 34.459 56.225 34.459 56.717 34.135 56.717 34.135 58.772 34.463 58.772 34.463 59.263"></polyline>
            <path d="M33.37,59.213 L34.413,59.213 L34.413,58.822 L34.085,58.822 L34.085,56.666 L34.409,56.666 L34.409,56.275 L33.37,56.275 L33.37,56.666 L33.694,56.666 L33.694,58.822 L33.37,58.822 L33.37,59.213 Z M34.513,59.313 L33.271,59.313 L33.271,58.722 L33.594,58.722 L33.594,56.767 L33.271,56.767 L33.271,56.175 L34.508,56.175 L34.508,56.767 L34.185,56.767 L34.185,58.722 L34.513,58.722 L34.513,59.313 Z" id="Fill-27"></path>
            <polyline id="Fill-28" points="36.444 59.263 35.31 59.263 35.31 58.772 35.629 58.772 35.629 56.717 35.31 56.717 35.31 56.225 36.543 56.225 37.656 58.772 37.775 58.772 37.775 56.717 37.451 56.717 37.451 56.225 38.589 56.225 38.589 56.717 38.266 56.717 38.266 58.772 38.589 58.772 38.589 59.263 37.357 59.263 36.244 56.717 36.121 56.717 36.121 58.772 36.444 58.772 36.444 59.263"></polyline>
            <path d="M37.39,59.213 L38.54,59.213 L38.54,58.822 L38.216,58.822 L38.216,56.666 L38.54,56.666 L38.54,56.275 L37.501,56.275 L37.501,56.666 L37.825,56.666 L37.825,58.822 L37.624,58.822 L36.51,56.275 L35.36,56.275 L35.36,56.666 L35.679,56.666 L35.679,58.822 L35.36,58.822 L35.36,59.213 L36.395,59.213 L36.395,58.822 L36.071,58.822 L36.071,56.666 L36.276,56.666 L37.39,59.213 Z M38.639,59.313 L37.325,59.313 L36.211,56.767 L36.17,56.767 L36.17,58.722 L36.494,58.722 L36.494,59.313 L35.26,59.313 L35.26,58.722 L35.58,58.722 L35.58,56.767 L35.26,56.767 L35.26,56.175 L36.575,56.175 L37.689,58.722 L37.725,58.722 L37.725,56.767 L37.401,56.767 L37.401,56.175 L38.639,56.175 L38.639,56.767 L38.316,56.767 L38.316,58.722 L38.639,58.722 L38.639,59.313 Z" id="Fill-29"></path>
            <polyline id="Fill-30" points="25.013 61.28 24.563 61.28 24.563 60.425 27.858 60.425 27.858 61.28 27.408 61.28 27.367 60.916 26.454 60.916 26.454 62.971 26.778 62.971 26.778 63.462 25.64 63.462 25.64 62.971 25.963 62.971 25.963 60.916 25.054 60.916 25.013 61.28"></polyline>
            <path d="M25.689,63.412 L26.728,63.412 L26.728,63.021 L26.404,63.021 L26.404,60.866 L27.412,60.866 L27.453,61.23 L27.809,61.23 L27.809,60.475 L24.613,60.475 L24.613,61.23 L24.968,61.23 L25.009,60.866 L26.013,60.866 L26.013,63.021 L25.689,63.021 L25.689,63.412 Z M26.828,63.512 L25.59,63.512 L25.59,62.921 L25.913,62.921 L25.913,60.966 L25.099,60.966 L25.058,61.33 L24.513,61.33 L24.513,60.375 L27.908,60.375 L27.908,61.33 L27.363,61.33 L27.322,60.966 L26.504,60.966 L26.504,62.921 L26.828,62.921 L26.828,63.512 Z" id="Fill-31"></path>
            <path d="M31.22,61.51 C31.22,61.427 31.204,61.351 31.173,61.278 C31.141,61.206 31.099,61.143 31.046,61.09 C30.993,61.037 30.929,60.994 30.855,60.963 C30.782,60.932 30.704,60.916 30.622,60.916 L29.525,60.916 L29.525,62.107 L30.647,62.107 C30.726,62.107 30.8,62.092 30.87,62.06 C30.939,62.029 31,61.986 31.052,61.931 C31.104,61.877 31.145,61.813 31.175,61.741 C31.205,61.668 31.22,61.591 31.22,61.51 Z M29.848,63.462 L28.714,63.462 L28.714,62.971 L29.034,62.971 L29.034,60.916 L28.714,60.916 L28.714,60.425 L30.651,60.425 C30.79,60.425 30.923,60.453 31.05,60.508 C31.177,60.564 31.291,60.643 31.392,60.744 C31.496,60.848 31.575,60.964 31.629,61.094 C31.684,61.224 31.711,61.362 31.711,61.51 C31.711,61.657 31.684,61.796 31.629,61.927 C31.575,62.058 31.496,62.175 31.392,62.279 C31.25,62.421 31.086,62.517 30.9,62.566 L30.97,62.725 C31.046,62.897 31.156,62.983 31.297,62.983 C31.374,62.983 31.44,62.968 31.496,62.936 C31.552,62.905 31.607,62.862 31.662,62.807 L31.969,63.163 C31.868,63.265 31.767,63.341 31.666,63.395 C31.565,63.448 31.442,63.475 31.297,63.475 C31.098,63.475 30.933,63.423 30.802,63.319 C30.671,63.215 30.563,63.069 30.479,62.881 L30.352,62.599 L29.525,62.599 L29.525,62.971 L29.848,62.971 L29.848,63.462 Z" id="Fill-32"></path>
            <path d="M29.575,62.057 L30.647,62.057 C30.719,62.057 30.787,62.043 30.849,62.015 C30.913,61.986 30.968,61.947 31.016,61.897 C31.063,61.847 31.101,61.788 31.129,61.721 C31.156,61.656 31.17,61.584 31.17,61.51 C31.17,61.434 31.156,61.365 31.127,61.298 C31.098,61.231 31.059,61.173 31.011,61.125 C30.962,61.077 30.903,61.038 30.836,61.009 C30.769,60.98 30.696,60.966 30.622,60.966 L29.575,60.966 L29.575,62.057 Z M30.647,62.157 L29.475,62.157 L29.475,60.866 L30.622,60.866 C30.71,60.866 30.795,60.883 30.875,60.917 C30.955,60.951 31.024,60.997 31.081,61.054 C31.138,61.111 31.184,61.18 31.219,61.258 C31.252,61.337 31.27,61.421 31.27,61.51 C31.27,61.597 31.253,61.681 31.221,61.76 C31.189,61.838 31.144,61.907 31.088,61.965 C31.032,62.025 30.965,62.072 30.89,62.106 C30.815,62.14 30.733,62.157 30.647,62.157 Z M29.475,62.548 L30.384,62.548 L30.524,62.86 C30.606,63.041 30.71,63.182 30.833,63.28 C30.955,63.376 31.11,63.425 31.297,63.425 C31.433,63.425 31.549,63.4 31.643,63.351 C31.729,63.305 31.815,63.242 31.9,63.161 L31.658,62.88 C31.613,62.921 31.567,62.954 31.521,62.98 C31.457,63.015 31.382,63.033 31.297,63.033 C31.134,63.033 31.009,62.936 30.924,62.745 L30.831,62.532 L30.888,62.517 C31.064,62.471 31.222,62.379 31.356,62.244 C31.455,62.145 31.531,62.032 31.583,61.908 C31.635,61.783 31.661,61.649 31.661,61.51 C31.661,61.37 31.635,61.236 31.583,61.113 C31.531,60.99 31.455,60.878 31.356,60.779 C31.26,60.683 31.15,60.607 31.03,60.554 C30.91,60.501 30.782,60.475 30.651,60.475 L28.764,60.475 L28.764,60.866 L29.084,60.866 L29.084,63.021 L28.764,63.021 L28.764,63.412 L29.798,63.412 L29.798,63.021 L29.475,63.021 L29.475,62.548 Z M31.297,63.525 C31.087,63.525 30.91,63.469 30.771,63.358 C30.635,63.251 30.521,63.097 30.433,62.902 L30.319,62.649 L29.575,62.649 L29.575,62.921 L29.898,62.921 L29.898,63.512 L28.665,63.512 L28.665,62.921 L28.984,62.921 L28.984,60.966 L28.665,60.966 L28.665,60.375 L30.651,60.375 C30.796,60.375 30.937,60.404 31.07,60.463 C31.202,60.521 31.322,60.604 31.427,60.708 C31.535,60.816 31.618,60.939 31.675,61.074 C31.732,61.21 31.761,61.356 31.761,61.51 C31.761,61.663 31.732,61.809 31.676,61.946 C31.619,62.083 31.535,62.207 31.427,62.315 C31.294,62.448 31.14,62.543 30.969,62.598 L31.016,62.705 C31.084,62.859 31.176,62.933 31.297,62.933 C31.366,62.933 31.423,62.92 31.472,62.893 C31.523,62.864 31.575,62.823 31.627,62.772 L31.665,62.734 L32.037,63.166 L32.004,63.199 C31.901,63.302 31.795,63.383 31.689,63.439 C31.582,63.496 31.45,63.525 31.297,63.525 Z" id="Fill-33"></path>
            <polyline id="Fill-34" points="35.65 61.28 35.2 61.28 35.159 60.916 33.615 60.916 33.615 61.616 34.905 61.616 34.905 62.107 33.615 62.107 33.615 62.971 35.2 62.971 35.241 62.607 35.691 62.607 35.691 63.462 32.805 63.462 32.805 62.971 33.124 62.971 33.124 60.916 32.805 60.916 32.805 60.425 35.65 60.425 35.65 61.28"></polyline>
            <path d="M32.854,63.412 L35.641,63.412 L35.641,62.657 L35.286,62.657 L35.245,63.021 L33.565,63.021 L33.565,62.057 L34.855,62.057 L34.855,61.666 L33.565,61.666 L33.565,60.866 L35.204,60.866 L35.245,61.23 L35.6,61.23 L35.6,60.475 L32.854,60.475 L32.854,60.866 L33.174,60.866 L33.174,63.021 L32.854,63.021 L32.854,63.412 Z M35.741,63.512 L32.755,63.512 L32.755,62.921 L33.074,62.921 L33.074,60.966 L32.755,60.966 L32.755,60.375 L35.7,60.375 L35.7,61.33 L35.155,61.33 L35.114,60.966 L33.665,60.966 L33.665,61.566 L34.955,61.566 L34.955,62.157 L33.665,62.157 L33.665,62.921 L35.155,62.921 L35.196,62.557 L35.741,62.557 L35.741,63.512 Z" id="Fill-35"></path>
            <polyline id="Fill-36" points="39.359 61.28 38.909 61.28 38.868 60.916 37.324 60.916 37.324 61.616 38.614 61.616 38.614 62.107 37.324 62.107 37.324 62.971 38.909 62.971 38.95 62.607 39.4 62.607 39.4 63.462 36.514 63.462 36.514 62.971 36.833 62.971 36.833 60.916 36.514 60.916 36.514 60.425 39.359 60.425 39.359 61.28"></polyline>
            <path d="M36.563,63.412 L39.35,63.412 L39.35,62.657 L38.995,62.657 L38.954,63.021 L37.274,63.021 L37.274,62.057 L38.564,62.057 L38.564,61.666 L37.274,61.666 L37.274,60.866 L38.913,60.866 L38.954,61.23 L39.309,61.23 L39.309,60.475 L36.563,60.475 L36.563,60.866 L36.883,60.866 L36.883,63.021 L36.563,63.021 L36.563,63.412 Z M39.45,63.512 L36.464,63.512 L36.464,62.921 L36.783,62.921 L36.783,60.966 L36.464,60.966 L36.464,60.375 L39.409,60.375 L39.409,61.33 L38.864,61.33 L38.823,60.966 L37.374,60.966 L37.374,61.566 L38.664,61.566 L38.664,62.157 L37.374,62.157 L37.374,62.921 L38.864,62.921 L38.905,62.557 L39.45,62.557 L39.45,63.512 Z" id="Fill-37"></path>
            <path d="M50.111,61.427 L47.908,61.427 L47.908,61.041 C47.908,60.931 47.928,60.83 47.969,60.737 C48.01,60.643 48.075,60.556 48.164,60.475 C48.252,60.393 48.366,60.316 48.503,60.245 C48.64,60.173 48.805,60.105 48.998,60.04 C49.15,59.989 49.27,59.949 49.355,59.92 C49.441,59.891 49.505,59.864 49.546,59.841 C49.588,59.817 49.613,59.794 49.622,59.77 C49.63,59.747 49.635,59.716 49.635,59.677 C49.635,59.623 49.619,59.579 49.588,59.545 C49.557,59.511 49.514,59.485 49.46,59.468 C49.405,59.451 49.342,59.439 49.27,59.433 C49.198,59.426 49.12,59.423 49.037,59.423 C48.949,59.423 48.861,59.432 48.774,59.45 C48.687,59.468 48.605,59.494 48.527,59.526 C48.449,59.558 48.378,59.596 48.315,59.64 C48.252,59.684 48.201,59.732 48.162,59.783 L47.876,59.522 C47.936,59.447 48.01,59.38 48.099,59.32 C48.188,59.26 48.284,59.209 48.387,59.167 C48.49,59.125 48.597,59.093 48.709,59.071 C48.82,59.048 48.93,59.037 49.037,59.037 C49.185,59.037 49.322,59.047 49.448,59.067 C49.575,59.088 49.684,59.123 49.776,59.173 C49.869,59.224 49.94,59.29 49.992,59.373 C50.044,59.456 50.069,59.558 50.069,59.68 C50.069,59.781 50.046,59.865 50.002,59.933 C49.956,60 49.895,60.06 49.815,60.111 C49.736,60.163 49.64,60.209 49.529,60.251 C49.418,60.293 49.296,60.336 49.165,60.381 C48.996,60.441 48.855,60.501 48.742,60.561 C48.63,60.621 48.54,60.68 48.474,60.737 C48.407,60.793 48.361,60.848 48.334,60.901 C48.307,60.953 48.294,61 48.294,61.041 L49.725,61.041 L49.757,60.754 L50.111,60.754 L50.111,61.427" id="Fill-38"></path>
            <path d="M47.957,61.376 L50.061,61.376 L50.061,60.804 L49.802,60.804 L49.77,61.091 L48.244,61.091 L48.244,61.041 C48.244,60.992 48.259,60.937 48.29,60.878 C48.319,60.819 48.37,60.759 48.441,60.698 C48.511,60.639 48.604,60.578 48.719,60.517 C48.834,60.456 48.979,60.395 49.149,60.334 C49.279,60.289 49.4,60.246 49.511,60.204 C49.62,60.163 49.712,60.118 49.788,60.069 C49.861,60.022 49.919,59.966 49.96,59.905 C49.999,59.846 50.019,59.77 50.019,59.68 C50.019,59.568 49.996,59.473 49.949,59.4 C49.903,59.325 49.836,59.264 49.752,59.218 C49.665,59.17 49.561,59.136 49.44,59.117 C49.228,59.083 48.976,59.067 48.718,59.12 C48.609,59.142 48.504,59.173 48.406,59.214 C48.307,59.254 48.213,59.303 48.127,59.361 C48.057,59.409 47.996,59.461 47.945,59.518 L48.157,59.711 C48.193,59.671 48.236,59.634 48.286,59.599 C48.353,59.553 48.427,59.513 48.508,59.479 C48.588,59.447 48.674,59.42 48.764,59.401 C48.938,59.364 49.127,59.369 49.274,59.383 C49.349,59.389 49.416,59.402 49.475,59.42 C49.538,59.44 49.588,59.471 49.626,59.511 C49.665,59.555 49.685,59.611 49.685,59.677 C49.685,59.72 49.68,59.758 49.669,59.787 C49.656,59.823 49.623,59.855 49.571,59.884 C49.526,59.91 49.459,59.937 49.371,59.967 L49.014,60.088 C48.824,60.151 48.66,60.219 48.526,60.289 C48.393,60.359 48.282,60.433 48.197,60.511 C48.114,60.588 48.052,60.67 48.015,60.757 C47.977,60.843 47.957,60.939 47.957,61.041 L47.957,61.376 Z M50.161,61.477 L47.858,61.477 L47.858,61.041 C47.858,60.925 47.88,60.816 47.923,60.716 C47.966,60.617 48.036,60.524 48.13,60.438 C48.221,60.354 48.339,60.274 48.48,60.2 C48.619,60.128 48.788,60.058 48.982,59.993 L49.339,59.872 C49.421,59.845 49.483,59.819 49.522,59.798 C49.566,59.772 49.574,59.756 49.575,59.753 C49.581,59.735 49.585,59.709 49.585,59.677 C49.585,59.636 49.574,59.604 49.551,59.579 C49.526,59.551 49.491,59.53 49.444,59.515 C49.394,59.5 49.334,59.489 49.266,59.482 C49.126,59.47 48.949,59.465 48.785,59.499 C48.701,59.517 48.621,59.541 48.546,59.572 C48.472,59.603 48.403,59.639 48.343,59.681 C48.285,59.721 48.237,59.766 48.202,59.813 L48.169,59.857 L47.807,59.528 L47.836,59.491 C47.899,59.413 47.979,59.341 48.071,59.278 C48.163,59.216 48.263,59.164 48.369,59.121 C48.472,59.078 48.584,59.045 48.699,59.022 C48.966,58.967 49.232,58.982 49.456,59.018 C49.588,59.039 49.704,59.077 49.8,59.13 C49.9,59.184 49.979,59.257 50.034,59.347 C50.09,59.436 50.119,59.548 50.119,59.68 C50.119,59.79 50.093,59.884 50.043,59.96 C49.995,60.033 49.927,60.098 49.842,60.153 C49.761,60.206 49.661,60.255 49.546,60.298 C49.435,60.34 49.312,60.383 49.182,60.429 C49.017,60.487 48.876,60.547 48.766,60.605 C48.658,60.663 48.571,60.72 48.506,60.775 C48.445,60.827 48.402,60.877 48.378,60.923 C48.366,60.947 48.357,60.97 48.352,60.99 L49.68,60.99 L49.712,60.704 L50.161,60.704 L50.161,61.477 Z" id="Fill-39"></path>
            <path d="M52.034,59.404 C51.901,59.404 51.782,59.424 51.676,59.465 C51.57,59.505 51.48,59.562 51.406,59.635 C51.331,59.708 51.274,59.796 51.233,59.899 C51.193,60.002 51.172,60.114 51.172,60.236 C51.172,60.359 51.193,60.471 51.233,60.574 C51.274,60.677 51.331,60.765 51.406,60.838 C51.48,60.911 51.57,60.968 51.676,61.008 C51.782,61.049 51.901,61.069 52.034,61.069 C52.176,61.069 52.3,61.049 52.407,61.008 C52.515,60.968 52.604,60.911 52.676,60.838 C52.748,60.765 52.802,60.677 52.84,60.574 C52.877,60.471 52.896,60.359 52.896,60.236 C52.896,60.114 52.877,60.002 52.84,59.899 C52.802,59.796 52.748,59.708 52.676,59.635 C52.604,59.562 52.515,59.505 52.407,59.465 C52.3,59.424 52.176,59.404 52.034,59.404 Z M50.777,60.236 C50.777,60.046 50.81,59.875 50.877,59.724 C50.943,59.572 51.033,59.445 51.146,59.341 C51.26,59.237 51.394,59.157 51.547,59.101 C51.7,59.045 51.863,59.018 52.034,59.018 C52.214,59.018 52.381,59.045 52.535,59.101 C52.688,59.157 52.821,59.237 52.933,59.341 C53.046,59.445 53.134,59.572 53.197,59.724 C53.26,59.875 53.292,60.046 53.292,60.236 C53.292,60.421 53.26,60.588 53.197,60.738 C53.134,60.888 53.046,61.016 52.933,61.123 C52.821,61.229 52.688,61.311 52.535,61.369 C52.381,61.427 52.214,61.455 52.034,61.455 C51.863,61.455 51.7,61.427 51.547,61.37 C51.394,61.313 51.26,61.232 51.146,61.126 C51.033,61.02 50.943,60.892 50.877,60.741 C50.81,60.591 50.777,60.423 50.777,60.236 Z" id="Fill-40"></path>
            <path d="M52.034,59.454 C51.908,59.454 51.794,59.473 51.694,59.511 C51.594,59.55 51.509,59.603 51.441,59.671 C51.373,59.738 51.318,59.821 51.28,59.917 C51.242,60.014 51.222,60.122 51.222,60.236 C51.222,60.352 51.242,60.459 51.28,60.556 C51.318,60.652 51.373,60.735 51.441,60.802 C51.509,60.87 51.594,60.924 51.694,60.962 C51.794,61 51.908,61.02 52.034,61.02 C52.169,61.02 52.289,61 52.39,60.962 C52.489,60.924 52.574,60.87 52.64,60.803 C52.706,60.735 52.758,60.653 52.793,60.557 C52.829,60.46 52.847,60.352 52.847,60.236 C52.847,60.121 52.829,60.013 52.793,59.916 C52.758,59.82 52.706,59.738 52.64,59.67 C52.574,59.603 52.489,59.549 52.39,59.511 C52.288,59.473 52.169,59.454 52.034,59.454 Z M52.034,61.12 C51.896,61.12 51.769,61.098 51.658,61.055 C51.545,61.012 51.449,60.951 51.371,60.874 C51.293,60.797 51.23,60.702 51.187,60.593 C51.144,60.484 51.123,60.364 51.123,60.236 C51.123,60.109 51.144,59.989 51.187,59.881 C51.23,59.771 51.293,59.677 51.371,59.599 C51.449,59.522 51.545,59.461 51.658,59.418 C51.77,59.375 51.896,59.354 52.034,59.354 C52.181,59.354 52.312,59.375 52.425,59.418 C52.538,59.461 52.635,59.522 52.711,59.6 C52.788,59.678 52.847,59.773 52.887,59.882 C52.926,59.99 52.946,60.109 52.946,60.236 C52.946,60.364 52.926,60.483 52.887,60.591 C52.847,60.701 52.788,60.795 52.711,60.873 C52.635,60.951 52.538,61.012 52.425,61.055 C52.312,61.098 52.181,61.12 52.034,61.12 Z M52.034,59.068 C51.869,59.068 51.711,59.095 51.564,59.148 C51.418,59.201 51.289,59.278 51.18,59.378 C51.072,59.477 50.985,59.6 50.922,59.744 C50.859,59.888 50.827,60.053 50.827,60.236 C50.827,60.415 50.859,60.578 50.922,60.721 C50.985,60.864 51.072,60.988 51.181,61.089 C51.289,61.191 51.419,61.269 51.564,61.323 C51.866,61.436 52.23,61.43 52.517,61.322 C52.664,61.266 52.792,61.187 52.899,61.086 C53.006,60.985 53.091,60.861 53.151,60.719 C53.211,60.575 53.242,60.413 53.242,60.236 C53.242,60.053 53.211,59.887 53.151,59.743 C53.091,59.599 53.006,59.476 52.899,59.378 C52.793,59.279 52.664,59.202 52.518,59.148 C52.371,59.095 52.208,59.068 52.034,59.068 Z M52.034,61.506 C51.858,61.506 51.688,61.476 51.529,61.417 C51.371,61.358 51.231,61.273 51.112,61.162 C50.994,61.052 50.899,60.917 50.831,60.762 C50.762,60.606 50.727,60.429 50.727,60.236 C50.727,60.039 50.762,59.86 50.831,59.704 C50.899,59.547 50.994,59.413 51.113,59.304 C51.231,59.196 51.371,59.112 51.53,59.054 C51.854,58.937 52.244,58.942 52.552,59.054 C52.711,59.112 52.851,59.196 52.967,59.304 C53.085,59.412 53.177,59.547 53.243,59.704 C53.309,59.861 53.342,60.04 53.342,60.236 C53.342,60.427 53.309,60.602 53.243,60.758 C53.178,60.913 53.085,61.048 52.967,61.159 C52.851,61.269 52.711,61.355 52.552,61.416 C52.394,61.475 52.22,61.506 52.034,61.506 Z" id="Fill-41"></path>
            <polyline id="Fill-42" points="54.935 59.04 55.231 59.04 55.231 61.041 55.967 61.041 55.967 61.427 54.044 61.427 54.044 61.041 54.845 61.041 54.845 59.648 54.25 60.246 53.999 59.992 54.935 59.04"></polyline>
            <path d="M54.094,61.376 L55.918,61.376 L55.918,61.091 L55.181,61.091 L55.181,59.09 L54.956,59.09 L54.069,59.992 L54.25,60.175 L54.895,59.527 L54.895,61.091 L54.094,61.091 L54.094,61.376 Z M56.017,61.477 L53.995,61.477 L53.995,60.99 L54.795,60.99 L54.795,59.769 L54.25,60.317 L53.929,59.992 L54.914,58.99 L55.281,58.99 L55.281,60.99 L56.017,60.99 L56.017,61.477 Z" id="Fill-43"></path>
            <path d="M58.898,61.427 L56.694,61.427 L56.694,61.041 C56.694,60.931 56.715,60.83 56.755,60.737 C56.796,60.643 56.861,60.556 56.95,60.475 C57.039,60.393 57.152,60.316 57.29,60.245 C57.427,60.173 57.592,60.105 57.785,60.04 C57.937,59.989 58.056,59.949 58.142,59.92 C58.228,59.891 58.291,59.864 58.333,59.841 C58.375,59.817 58.4,59.794 58.409,59.77 C58.417,59.747 58.421,59.716 58.421,59.677 C58.421,59.623 58.406,59.579 58.375,59.545 C58.344,59.511 58.301,59.485 58.246,59.468 C58.191,59.451 58.128,59.439 58.057,59.433 C57.985,59.426 57.907,59.423 57.823,59.423 C57.735,59.423 57.648,59.432 57.561,59.45 C57.474,59.468 57.392,59.494 57.313,59.526 C57.235,59.558 57.165,59.596 57.101,59.64 C57.038,59.684 56.987,59.732 56.949,59.783 L56.662,59.522 C56.722,59.447 56.797,59.38 56.886,59.32 C56.975,59.26 57.071,59.209 57.174,59.167 C57.276,59.125 57.384,59.093 57.495,59.071 C57.607,59.048 57.716,59.037 57.823,59.037 C57.971,59.037 58.108,59.047 58.235,59.067 C58.361,59.088 58.471,59.123 58.563,59.173 C58.655,59.224 58.727,59.29 58.778,59.373 C58.83,59.456 58.855,59.558 58.855,59.68 C58.855,59.781 58.833,59.865 58.788,59.933 C58.743,60 58.681,60.06 58.602,60.111 C58.523,60.163 58.427,60.209 58.315,60.251 C58.204,60.293 58.082,60.336 57.952,60.381 C57.783,60.441 57.642,60.501 57.529,60.561 C57.417,60.621 57.327,60.68 57.26,60.737 C57.194,60.793 57.147,60.848 57.121,60.901 C57.094,60.953 57.081,61 57.081,61.041 L58.512,61.041 L58.544,60.754 L58.898,60.754 L58.898,61.427" id="Fill-44"></path>
            <path d="M56.744,61.376 L58.848,61.376 L58.848,60.804 L58.589,60.804 L58.556,61.091 L57.031,61.091 L57.031,61.041 C57.031,60.992 57.046,60.937 57.076,60.878 C57.106,60.819 57.157,60.759 57.228,60.698 C57.298,60.639 57.391,60.578 57.505,60.517 C57.62,60.456 57.765,60.395 57.936,60.334 C58.066,60.289 58.187,60.246 58.298,60.204 C58.406,60.163 58.499,60.118 58.574,60.069 C58.648,60.022 58.706,59.966 58.747,59.905 C58.786,59.846 58.806,59.77 58.806,59.68 C58.806,59.568 58.782,59.473 58.736,59.4 C58.689,59.325 58.623,59.264 58.539,59.218 C58.452,59.17 58.347,59.136 58.227,59.117 C58.014,59.083 57.763,59.067 57.505,59.12 C57.396,59.142 57.291,59.173 57.193,59.214 C57.093,59.254 56.999,59.303 56.914,59.361 C56.844,59.409 56.783,59.461 56.731,59.518 L56.944,59.711 C56.979,59.671 57.023,59.634 57.072,59.599 C57.139,59.553 57.214,59.513 57.294,59.479 C57.374,59.447 57.461,59.42 57.551,59.401 C57.725,59.364 57.914,59.369 58.061,59.383 C58.136,59.389 58.203,59.402 58.261,59.42 C58.324,59.44 58.375,59.471 58.412,59.511 C58.452,59.555 58.471,59.611 58.471,59.677 C58.471,59.72 58.466,59.758 58.456,59.787 C58.442,59.823 58.41,59.855 58.357,59.884 C58.313,59.91 58.246,59.937 58.158,59.967 L57.801,60.088 C57.611,60.151 57.447,60.219 57.312,60.289 C57.18,60.359 57.069,60.433 56.984,60.511 C56.9,60.588 56.839,60.67 56.801,60.757 C56.764,60.843 56.744,60.939 56.744,61.041 L56.744,61.376 Z M58.947,61.477 L56.645,61.477 L56.645,61.041 C56.645,60.925 56.667,60.816 56.71,60.716 C56.753,60.617 56.823,60.524 56.916,60.438 C57.008,60.354 57.126,60.274 57.267,60.2 C57.405,60.128 57.574,60.058 57.769,59.993 L58.126,59.872 C58.208,59.845 58.27,59.819 58.309,59.798 C58.353,59.772 58.361,59.756 58.362,59.753 C58.368,59.735 58.372,59.709 58.372,59.677 C58.372,59.636 58.36,59.604 58.338,59.579 C58.313,59.551 58.278,59.53 58.231,59.515 C58.18,59.5 58.12,59.489 58.052,59.482 C57.912,59.47 57.736,59.465 57.571,59.499 C57.487,59.517 57.407,59.541 57.332,59.572 C57.258,59.603 57.19,59.639 57.129,59.681 C57.072,59.721 57.024,59.766 56.989,59.813 L56.956,59.857 L56.594,59.528 L56.623,59.491 C56.686,59.413 56.765,59.341 56.858,59.278 C56.95,59.216 57.049,59.164 57.155,59.121 C57.259,59.078 57.37,59.045 57.485,59.022 C57.753,58.967 58.019,58.982 58.243,59.018 C58.375,59.039 58.49,59.077 58.587,59.13 C58.687,59.184 58.765,59.257 58.821,59.347 C58.877,59.436 58.905,59.548 58.905,59.68 C58.905,59.79 58.88,59.884 58.83,59.96 C58.781,60.033 58.714,60.098 58.629,60.153 C58.547,60.206 58.448,60.255 58.333,60.298 C58.221,60.34 58.099,60.383 57.969,60.429 C57.803,60.487 57.663,60.547 57.552,60.605 C57.445,60.663 57.357,60.72 57.293,60.775 C57.232,60.827 57.189,60.877 57.165,60.923 C57.153,60.947 57.144,60.97 57.138,60.99 L58.467,60.99 L58.499,60.704 L58.947,60.704 L58.947,61.477 Z" id="Fill-45"></path>
            <polyline id="Fill-46" points="6.945 59.712 6.592 59.712 6.56 59.426 5.347 59.426 5.347 59.976 6.36 59.976 6.36 60.362 5.347 60.362 5.347 61.041 6.592 61.041 6.624 60.754 6.978 60.754 6.978 61.427 4.71 61.427 4.71 61.041 4.961 61.041 4.961 59.426 4.71 59.426 4.71 59.04 6.945 59.04 6.945 59.712"></polyline>
            <path d="M4.76,61.376 L6.928,61.376 L6.928,60.804 L6.669,60.804 L6.637,61.091 L5.297,61.091 L5.297,60.312 L6.31,60.312 L6.31,60.026 L5.297,60.026 L5.297,59.376 L6.604,59.376 L6.637,59.662 L6.895,59.662 L6.895,59.09 L4.76,59.09 L4.76,59.376 L5.011,59.376 L5.011,61.091 L4.76,61.091 L4.76,61.376 Z M7.027,61.477 L4.661,61.477 L4.661,60.99 L4.911,60.99 L4.911,59.476 L4.661,59.476 L4.661,58.99 L6.995,58.99 L6.995,59.762 L6.547,59.762 L6.515,59.476 L5.397,59.476 L5.397,59.926 L6.41,59.926 L6.41,60.412 L5.397,60.412 L5.397,60.99 L6.547,60.99 L6.579,60.704 L7.027,60.704 L7.027,61.477 Z" id="Fill-47"></path>
            <path d="M8.888,59.011 C9.008,59.011 9.115,59.016 9.209,59.024 C9.304,59.033 9.393,59.045 9.477,59.063 C9.56,59.08 9.642,59.102 9.721,59.13 C9.8,59.158 9.885,59.191 9.975,59.23 L9.975,59.712 L9.621,59.712 L9.605,59.519 C9.523,59.483 9.423,59.453 9.304,59.431 C9.186,59.408 9.038,59.397 8.862,59.397 C8.731,59.397 8.622,59.406 8.534,59.423 C8.446,59.44 8.376,59.461 8.323,59.487 C8.271,59.513 8.233,59.542 8.211,59.574 C8.188,59.606 8.177,59.637 8.177,59.667 C8.177,59.699 8.184,59.729 8.198,59.756 C8.212,59.782 8.243,59.807 8.291,59.83 C8.339,59.852 8.409,59.872 8.5,59.889 C8.591,59.906 8.714,59.92 8.869,59.931 C9.087,59.946 9.272,59.97 9.423,60.003 C9.575,60.037 9.697,60.083 9.791,60.142 C9.886,60.201 9.955,60.273 9.998,60.36 C10.04,60.447 10.062,60.551 10.062,60.671 C10.062,60.776 10.034,60.875 9.978,60.97 C9.922,61.064 9.842,61.147 9.737,61.217 C9.632,61.288 9.503,61.344 9.351,61.386 C9.199,61.428 9.025,61.449 8.83,61.449 C8.695,61.449 8.567,61.435 8.446,61.407 C8.324,61.379 8.212,61.344 8.109,61.301 C8.007,61.258 7.915,61.21 7.835,61.158 C7.754,61.105 7.688,61.053 7.637,61.002 L7.891,60.719 C7.951,60.766 8.014,60.811 8.081,60.853 C8.147,60.894 8.219,60.931 8.296,60.962 C8.373,60.993 8.456,61.018 8.545,61.036 C8.634,61.054 8.729,61.063 8.83,61.063 C8.98,61.063 9.108,61.051 9.214,61.028 C9.32,61.004 9.407,60.974 9.473,60.936 C9.54,60.899 9.588,60.856 9.62,60.809 C9.65,60.762 9.666,60.716 9.666,60.671 C9.666,60.626 9.654,60.584 9.631,60.547 C9.607,60.51 9.565,60.476 9.505,60.447 C9.445,60.418 9.364,60.394 9.261,60.375 C9.158,60.355 9.027,60.339 8.869,60.327 C8.65,60.31 8.469,60.285 8.325,60.253 C8.181,60.22 8.066,60.177 7.981,60.124 C7.895,60.07 7.835,60.007 7.801,59.933 C7.767,59.859 7.75,59.771 7.75,59.67 C7.75,59.572 7.775,59.482 7.827,59.4 C7.878,59.319 7.952,59.249 8.048,59.191 C8.145,59.133 8.264,59.089 8.405,59.058 C8.547,59.027 8.708,59.011 8.888,59.011" id="Fill-48"></path>
            <path d="M7.706,60.999 C7.75,61.037 7.802,61.077 7.862,61.116 C7.94,61.167 8.03,61.214 8.128,61.255 C8.229,61.297 8.339,61.331 8.457,61.358 C8.574,61.385 8.699,61.399 8.83,61.399 C9.02,61.399 9.191,61.378 9.338,61.338 C9.484,61.298 9.609,61.243 9.709,61.176 C9.808,61.11 9.883,61.031 9.935,60.944 C9.986,60.858 10.012,60.766 10.012,60.671 C10.012,60.559 9.992,60.462 9.953,60.382 C9.915,60.305 9.851,60.238 9.765,60.184 C9.676,60.128 9.557,60.084 9.413,60.052 C9.264,60.02 9.08,59.996 8.865,59.981 C8.709,59.97 8.584,59.956 8.491,59.938 C8.394,59.92 8.322,59.899 8.27,59.875 C8.211,59.847 8.173,59.816 8.153,59.779 C8.136,59.745 8.127,59.708 8.127,59.667 C8.127,59.627 8.142,59.586 8.17,59.545 C8.197,59.506 8.24,59.472 8.301,59.442 C8.358,59.415 8.433,59.392 8.524,59.374 C8.615,59.356 8.729,59.347 8.862,59.347 C9.04,59.347 9.192,59.359 9.313,59.382 C9.435,59.405 9.54,59.436 9.625,59.474 L9.652,59.485 L9.667,59.662 L9.925,59.662 L9.925,59.263 C9.844,59.229 9.771,59.201 9.704,59.177 C9.628,59.15 9.548,59.128 9.466,59.112 C9.386,59.095 9.298,59.082 9.205,59.074 C9.112,59.065 9.005,59.061 8.888,59.061 C8.712,59.061 8.554,59.076 8.416,59.107 C8.281,59.136 8.166,59.179 8.074,59.234 C7.984,59.288 7.916,59.353 7.869,59.427 C7.822,59.501 7.799,59.58 7.799,59.67 C7.799,59.763 7.815,59.845 7.846,59.912 C7.876,59.976 7.93,60.033 8.007,60.081 C8.088,60.132 8.198,60.173 8.336,60.204 C8.479,60.235 8.659,60.26 8.873,60.277 C9.032,60.289 9.166,60.306 9.27,60.326 C9.377,60.346 9.463,60.371 9.527,60.402 C9.595,60.435 9.644,60.474 9.673,60.52 C9.702,60.566 9.716,60.616 9.716,60.671 C9.716,60.725 9.698,60.781 9.662,60.836 C9.625,60.891 9.57,60.939 9.498,60.98 C9.428,61.019 9.336,61.052 9.225,61.077 C9.116,61.101 8.983,61.113 8.83,61.113 C8.726,61.113 8.627,61.104 8.535,61.085 C8.443,61.066 8.356,61.04 8.277,61.008 C8.198,60.976 8.123,60.938 8.054,60.895 C7.999,60.86 7.946,60.824 7.897,60.787 L7.706,60.999 Z M8.83,61.499 C8.692,61.499 8.559,61.485 8.435,61.456 C8.312,61.428 8.196,61.391 8.09,61.347 C7.985,61.304 7.89,61.254 7.807,61.2 C7.724,61.146 7.655,61.091 7.601,61.037 L7.568,61.004 L7.885,60.651 L7.921,60.68 C7.979,60.725 8.041,60.769 8.107,60.81 C8.171,60.85 8.241,60.885 8.315,60.915 C8.388,60.945 8.469,60.969 8.555,60.986 C8.64,61.004 8.732,61.013 8.83,61.013 C8.976,61.013 9.101,61.001 9.204,60.979 C9.305,60.956 9.387,60.927 9.449,60.893 C9.508,60.859 9.551,60.822 9.578,60.781 C9.603,60.743 9.616,60.705 9.616,60.671 C9.616,60.635 9.607,60.603 9.588,60.573 C9.57,60.544 9.534,60.517 9.484,60.492 C9.428,60.465 9.35,60.442 9.251,60.424 C9.15,60.405 9.021,60.389 8.865,60.376 C8.646,60.359 8.461,60.334 8.315,60.302 C8.166,60.268 8.044,60.223 7.955,60.166 C7.86,60.108 7.793,60.036 7.755,59.954 C7.718,59.873 7.7,59.778 7.7,59.67 C7.7,59.562 7.728,59.462 7.785,59.374 C7.839,59.286 7.919,59.211 8.022,59.148 C8.123,59.088 8.249,59.041 8.394,59.009 C8.54,58.977 8.705,58.961 8.888,58.961 C9.008,58.961 9.118,58.966 9.214,58.974 C9.31,58.983 9.402,58.996 9.487,59.014 C9.572,59.031 9.657,59.055 9.737,59.083 C9.815,59.11 9.899,59.143 9.995,59.184 L10.025,59.197 L10.025,59.762 L9.575,59.762 L9.558,59.553 C9.484,59.524 9.396,59.499 9.295,59.48 C9.18,59.458 9.034,59.447 8.862,59.447 C8.735,59.447 8.628,59.456 8.544,59.472 C8.461,59.488 8.394,59.508 8.345,59.532 C8.301,59.554 8.269,59.578 8.252,59.603 C8.235,59.626 8.227,59.648 8.227,59.667 C8.227,59.692 8.232,59.713 8.242,59.733 C8.247,59.742 8.263,59.761 8.313,59.784 C8.356,59.805 8.423,59.824 8.51,59.84 C8.598,59.857 8.72,59.871 8.872,59.881 C9.092,59.896 9.281,59.921 9.434,59.955 C9.59,59.989 9.719,60.037 9.818,60.099 C9.92,60.163 9.996,60.244 10.042,60.338 C10.088,60.432 10.111,60.544 10.111,60.671 C10.111,60.784 10.081,60.894 10.021,60.995 C9.962,61.095 9.876,61.184 9.765,61.259 C9.656,61.332 9.521,61.392 9.364,61.435 C9.209,61.477 9.029,61.499 8.83,61.499 Z" id="Fill-49"></path>
            <polyline id="Fill-50" points="10.969 59.712 10.615 59.712 10.615 59.04 13.204 59.04 13.204 59.712 12.85 59.712 12.818 59.426 12.101 59.426 12.101 61.041 12.355 61.041 12.355 61.427 11.461 61.427 11.461 61.041 11.715 61.041 11.715 59.426 11.001 59.426 10.969 59.712"></polyline>
            <path d="M11.511,61.376 L12.305,61.376 L12.305,61.091 L12.051,61.091 L12.051,59.376 L12.863,59.376 L12.895,59.662 L13.154,59.662 L13.154,59.09 L10.665,59.09 L10.665,59.662 L10.924,59.662 L10.956,59.376 L11.765,59.376 L11.765,61.091 L11.511,61.091 L11.511,61.376 Z M12.405,61.477 L11.411,61.477 L11.411,60.99 L11.665,60.99 L11.665,59.476 L11.046,59.476 L11.014,59.762 L10.565,59.762 L10.565,58.99 L13.254,58.99 L13.254,59.762 L12.805,59.762 L12.773,59.476 L12.151,59.476 L12.151,60.99 L12.405,60.99 L12.405,61.477 Z" id="Fill-51"></path>
            <path d="M15.288,61.041 C15.402,61.041 15.508,61.02 15.608,60.978 C15.708,60.936 15.795,60.879 15.869,60.806 C15.943,60.733 16.001,60.647 16.044,60.549 C16.087,60.45 16.108,60.344 16.108,60.23 C16.108,60.119 16.087,60.014 16.044,59.915 C16.001,59.816 15.943,59.731 15.869,59.659 C15.795,59.587 15.708,59.531 15.608,59.489 C15.508,59.447 15.402,59.426 15.288,59.426 L14.513,59.426 L14.513,61.041 L15.288,61.041 Z M13.877,59.04 L15.288,59.04 C15.449,59.04 15.602,59.069 15.747,59.129 C15.891,59.187 16.019,59.27 16.131,59.376 C16.242,59.482 16.331,59.608 16.396,59.754 C16.461,59.9 16.494,60.059 16.494,60.23 C16.494,60.391 16.464,60.544 16.402,60.688 C16.341,60.833 16.257,60.96 16.15,61.069 C16.043,61.179 15.916,61.266 15.769,61.33 C15.622,61.394 15.462,61.427 15.288,61.427 L13.877,61.427 L13.877,61.041 L14.127,61.041 L14.127,59.426 L13.877,59.426 L13.877,59.04 Z" id="Fill-52"></path>
            <path d="M14.563,60.99 L15.288,60.99 C15.396,60.99 15.495,60.971 15.589,60.932 C15.683,60.893 15.765,60.838 15.833,60.77 C15.902,60.703 15.958,60.621 15.998,60.529 C16.038,60.437 16.059,60.336 16.059,60.23 C16.059,60.126 16.038,60.027 15.998,59.935 C15.958,59.843 15.902,59.762 15.834,59.695 C15.765,59.628 15.683,59.574 15.589,59.535 C15.496,59.496 15.394,59.476 15.288,59.476 L14.563,59.476 L14.563,60.99 Z M15.288,61.091 L14.463,61.091 L14.463,59.376 L15.288,59.376 C15.407,59.376 15.521,59.398 15.627,59.443 C15.733,59.486 15.826,59.548 15.903,59.623 C15.981,59.699 16.044,59.79 16.09,59.895 C16.135,60 16.158,60.112 16.158,60.23 C16.158,60.35 16.135,60.464 16.09,60.568 C16.044,60.673 15.981,60.765 15.904,60.842 C15.826,60.918 15.733,60.98 15.628,61.024 C15.522,61.068 15.408,61.091 15.288,61.091 Z M13.926,61.376 L15.288,61.376 C15.454,61.376 15.609,61.345 15.749,61.284 C15.89,61.223 16.013,61.139 16.114,61.035 C16.216,60.93 16.298,60.807 16.356,60.669 C16.415,60.532 16.444,60.384 16.444,60.23 C16.444,60.066 16.413,59.913 16.351,59.775 C16.288,59.635 16.203,59.514 16.096,59.412 C15.99,59.311 15.866,59.231 15.728,59.175 C15.589,59.119 15.441,59.09 15.288,59.09 L13.926,59.09 L13.926,59.376 L14.177,59.376 L14.177,61.091 L13.926,61.091 L13.926,61.376 Z M15.288,61.477 L13.827,61.477 L13.827,60.99 L14.077,60.99 L14.077,59.476 L13.827,59.476 L13.827,58.99 L15.288,58.99 C15.455,58.99 15.615,59.021 15.766,59.082 C15.915,59.143 16.049,59.23 16.166,59.34 C16.281,59.45 16.374,59.583 16.441,59.734 C16.51,59.885 16.544,60.052 16.544,60.23 C16.544,60.398 16.512,60.559 16.448,60.708 C16.385,60.858 16.297,60.991 16.186,61.105 C16.075,61.218 15.941,61.309 15.789,61.376 C15.636,61.443 15.468,61.477 15.288,61.477 Z" id="Fill-53"></path>
        </g>
    </g>
</svg>