<?xml version="1.0" encoding="UTF-8"?>
<svg width="77px" height="74px" viewBox="0 0 77 74" version="1.1" xmlns="http://www.w3.org/2000/svg" xmlns:xlink="http://www.w3.org/1999/xlink">
    <!-- Generator: Sketch 49 (51002) - http://www.bohemiancoding.com/sketch -->
    <title>bitcoin-grey-11</title>
    <desc>Created with Sketch.</desc>
    <defs></defs>
    <g id="Page-1" stroke="none" stroke-width="1" fill="none" fill-rule="evenodd">
        <g id="bitcoin-grey-11" transform="translate(-1.000000, 0.000000)" fill="#000000">
            <path d="M71.248,41.9 L65.478,40.803 C65.275,40.764 65.078,40.898 65.04,41.102 C65.001,41.304 65.134,41.501 65.338,41.54 L71.108,42.636 C71.131,42.64 71.155,42.642 71.178,42.642 C71.354,42.642 71.512,42.517 71.546,42.339 C71.585,42.135 71.451,41.938 71.248,41.9" id="Fill-1"></path>
            <path d="M63.71,45.679 C63.636,45.871 63.731,46.089 63.924,46.163 L68.863,48.078 C68.908,48.096 68.953,48.104 68.998,48.104 C69.149,48.104 69.29,48.013 69.348,47.865 C69.423,47.671 69.327,47.453 69.134,47.379 L64.196,45.465 C64.002,45.39 63.785,45.485 63.71,45.679" id="Fill-2"></path>
            <path d="M69.597,54.787 L61.976,50.016 C61.8,49.907 61.569,49.96 61.459,50.135 C61.349,50.311 61.402,50.542 61.578,50.652 L69.198,55.423 C69.26,55.462 69.329,55.48 69.397,55.48 C69.522,55.48 69.644,55.418 69.715,55.304 C69.825,55.129 69.772,54.897 69.597,54.787" id="Fill-3"></path>
            <path d="M15.872,49.538 L8.042,54.219 C7.865,54.324 7.807,54.555 7.913,54.733 C7.983,54.85 8.107,54.916 8.235,54.916 C8.301,54.916 8.367,54.898 8.427,54.862 L16.257,50.182 C16.435,50.076 16.493,49.845 16.386,49.668 C16.28,49.491 16.05,49.432 15.872,49.538" id="Fill-4"></path>
            <path d="M13.757,44.972 L8.687,46.824 C8.492,46.895 8.392,47.111 8.463,47.305 C8.519,47.457 8.663,47.551 8.815,47.551 C8.858,47.551 8.902,47.544 8.944,47.529 L14.015,45.677 C14.209,45.605 14.309,45.39 14.238,45.196 C14.167,45.001 13.951,44.901 13.757,44.972" id="Fill-5"></path>
            <path d="M13.012,40.608 C12.977,40.405 12.788,40.266 12.58,40.302 L6.717,41.302 C6.513,41.337 6.376,41.531 6.411,41.735 C6.442,41.918 6.601,42.047 6.78,42.047 C6.801,42.047 6.822,42.045 6.843,42.041 L12.706,41.041 C12.91,41.007 13.047,40.812 13.012,40.608" id="Fill-6"></path>
            <path d="M14.083,26.254 L9.157,24.382 C8.964,24.308 8.748,24.405 8.673,24.598 C8.6,24.793 8.697,25.009 8.891,25.083 L13.816,26.956 C13.86,26.972 13.905,26.98 13.949,26.98 C14.1,26.98 14.243,26.888 14.3,26.738 C14.373,26.545 14.276,26.327 14.083,26.254" id="Fill-7"></path>
            <path d="M12.238,36.346 C12.444,36.346 12.612,36.179 12.613,35.973 C12.615,35.766 12.448,35.597 12.241,35.596 L1.344,35.53 C1.343,35.53 1.343,35.53 1.342,35.53 C1.136,35.53 0.968,35.697 0.967,35.903 C0.965,36.11 1.132,36.279 1.339,36.28 L12.236,36.346 C12.237,36.346 12.237,36.346 12.238,36.346" id="Fill-8"></path>
            <path d="M6.821,30.575 L12.602,31.637 C12.625,31.64 12.647,31.642 12.67,31.642 C12.847,31.642 13.005,31.516 13.038,31.336 C13.076,31.133 12.941,30.936 12.737,30.899 L6.957,29.839 C6.752,29.801 6.557,29.936 6.52,30.139 C6.482,30.343 6.617,30.538 6.821,30.575" id="Fill-9"></path>
            <path d="M16.574,21.421 L9.096,16.668 C8.921,16.556 8.689,16.608 8.578,16.783 C8.467,16.957 8.519,17.189 8.693,17.301 L16.172,22.054 C16.234,22.094 16.304,22.113 16.373,22.113 C16.497,22.113 16.618,22.051 16.69,21.939 C16.801,21.764 16.749,21.532 16.574,21.421" id="Fill-10"></path>
            <path d="M65.13,31.496 C65.163,31.679 65.321,31.807 65.499,31.807 C65.521,31.807 65.543,31.804 65.565,31.8 L71.362,30.774 C71.566,30.737 71.702,30.544 71.666,30.339 C71.63,30.135 71.432,30 71.231,30.035 L65.434,31.062 C65.23,31.099 65.094,31.293 65.13,31.496" id="Fill-11"></path>
            <path d="M62.06,22.578 C62.127,22.578 62.193,22.561 62.254,22.524 L69.922,17.868 C70.099,17.761 70.156,17.53 70.048,17.353 C69.941,17.176 69.71,17.119 69.533,17.228 L61.865,21.883 C61.688,21.991 61.631,22.221 61.739,22.398 C61.81,22.515 61.933,22.578 62.06,22.578" id="Fill-12"></path>
            <path d="M76.797,35.763 L65.9,35.763 C65.693,35.763 65.525,35.931 65.525,36.137 C65.525,36.344 65.693,36.512 65.9,36.512 L76.797,36.512 C77.004,36.512 77.172,36.344 77.172,36.137 C77.172,35.931 77.004,35.763 76.797,35.763" id="Fill-13"></path>
            <path d="M69.559,24.784 C69.487,24.591 69.271,24.491 69.077,24.564 L64.122,26.411 C63.928,26.484 63.829,26.699 63.901,26.894 C63.958,27.044 64.101,27.137 64.253,27.137 C64.296,27.137 64.341,27.131 64.384,27.114 L69.338,25.266 C69.533,25.195 69.631,24.978 69.559,24.784" id="Fill-14"></path>
            <path d="M33.001,73.361 L30.317,73.361 L30.317,72.419 L32.315,69.502 C32.383,69.404 32.398,69.246 32.398,69.148 L32.398,68.439 C32.398,68.19 32.202,67.994 31.953,67.994 L31.365,67.994 C31.116,67.994 30.92,68.19 30.92,68.439 L30.92,69.374 L30.317,69.374 L30.317,68.439 C30.317,67.859 30.785,67.391 31.365,67.391 L31.953,67.391 C32.533,67.391 33.001,67.859 33.001,68.439 L33.001,69.223 C33.001,69.426 32.948,69.6 32.865,69.728 L30.92,72.57 L30.92,72.758 L33.001,72.758 L33.001,73.361" id="Fill-15"></path>
            <path d="M36.961,69.803 L36.886,69.803 L35.484,71.906 L35.484,72.351 C35.484,72.6 35.687,72.796 35.929,72.796 L36.517,72.796 C36.765,72.796 36.961,72.6 36.961,72.351 L36.961,69.803 Z M35.484,70.859 L35.559,70.859 L36.961,68.756 L36.961,68.439 C36.961,68.19 36.765,67.994 36.517,67.994 L35.929,67.994 C35.687,67.994 35.484,68.19 35.484,68.439 L35.484,70.859 Z M37.564,68.439 L37.564,72.351 C37.564,72.932 37.097,73.399 36.517,73.399 L35.929,73.399 C35.355,73.399 34.881,72.932 34.881,72.351 L34.881,68.439 C34.881,67.859 35.355,67.391 35.929,67.391 L36.517,67.391 C37.097,67.391 37.564,67.859 37.564,68.439 Z" id="Fill-16"></path>
            <path d="M41.525,69.803 L41.45,69.803 L40.048,71.906 L40.048,72.351 C40.048,72.6 40.251,72.796 40.493,72.796 L41.081,72.796 C41.329,72.796 41.525,72.6 41.525,72.351 L41.525,69.803 Z M40.048,70.859 L40.123,70.859 L41.525,68.756 L41.525,68.439 C41.525,68.19 41.329,67.994 41.081,67.994 L40.493,67.994 C40.251,67.994 40.048,68.19 40.048,68.439 L40.048,70.859 Z M42.128,68.439 L42.128,72.351 C42.128,72.932 41.661,73.399 41.081,73.399 L40.493,73.399 C39.919,73.399 39.445,72.932 39.445,72.351 L39.445,68.439 C39.445,67.859 39.919,67.391 40.493,67.391 L41.081,67.391 C41.661,67.391 42.128,67.859 42.128,68.439 Z" id="Fill-17"></path>
            <path d="M45.644,69.841 C45.87,69.826 46.051,69.638 46.051,69.396 L46.051,68.439 C46.051,68.19 45.855,67.994 45.606,67.994 L45.094,67.994 C44.845,67.994 44.649,68.19 44.649,68.439 L44.649,69.396 C44.649,69.638 44.83,69.826 45.056,69.841 L45.644,69.841 Z M45.644,72.796 C45.893,72.796 46.089,72.6 46.089,72.351 L46.089,70.889 C46.089,70.64 45.893,70.444 45.644,70.444 L45.056,70.444 C44.807,70.444 44.611,70.64 44.611,70.889 L44.611,72.351 C44.611,72.6 44.807,72.796 45.056,72.796 L45.644,72.796 Z M45.606,67.391 C46.187,67.391 46.654,67.859 46.654,68.439 L46.654,69.396 C46.654,69.683 46.39,70.052 46.209,70.128 C46.413,70.203 46.692,70.587 46.692,70.889 L46.692,72.351 C46.692,72.932 46.225,73.399 45.644,73.399 L45.056,73.399 C44.476,73.399 44.008,72.932 44.008,72.351 L44.008,70.889 C44.008,70.587 44.287,70.203 44.491,70.128 C44.31,70.052 44.046,69.683 44.046,69.396 L44.046,68.439 C44.046,67.859 44.513,67.391 45.094,67.391 L45.606,67.391 Z" id="Fill-18"></path>
            <path d="M12.666,63.734 C12.759,63.734 12.833,63.66 12.833,63.567 L12.833,63.033 C12.833,62.94 12.759,62.867 12.666,62.867 L12.336,62.867 L12.336,63.734 L12.666,63.734 Z M12.336,62.641 L12.666,62.641 C12.751,62.635 12.818,62.565 12.818,62.475 L12.818,62.13 C12.818,62.037 12.745,61.964 12.652,61.964 L12.336,61.964 L12.336,62.641 Z M12.11,63.959 L12.11,61.738 L12.652,61.738 C12.869,61.738 13.044,61.913 13.044,62.13 L13.044,62.475 C13.044,62.562 12.979,62.666 12.92,62.72 L12.92,62.774 C12.988,62.827 13.059,62.94 13.059,63.033 L13.059,63.567 C13.059,63.784 12.883,63.959 12.666,63.959 L12.11,63.959 Z" id="Fill-19"></path>
            <path d="M12.386,62.591 L12.666,62.591 C12.723,62.587 12.769,62.537 12.769,62.475 L12.769,62.13 C12.769,62.065 12.717,62.014 12.652,62.014 L12.386,62.014 L12.386,62.591 Z M12.336,62.691 L12.286,62.691 L12.286,61.914 L12.652,61.914 C12.773,61.914 12.868,62.009 12.868,62.13 L12.868,62.475 C12.868,62.591 12.783,62.684 12.669,62.691 L12.336,62.691 Z M12.386,63.684 L12.666,63.684 C12.731,63.684 12.783,63.633 12.783,63.567 L12.783,63.033 C12.783,62.968 12.731,62.917 12.666,62.917 L12.386,62.917 L12.386,63.684 Z M12.666,63.784 L12.286,63.784 L12.286,62.817 L12.666,62.817 C12.788,62.817 12.882,62.912 12.882,63.033 L12.882,63.567 C12.882,63.688 12.788,63.784 12.666,63.784 Z M12.16,63.909 L12.666,63.909 C12.855,63.909 13.009,63.756 13.009,63.567 L13.009,63.033 C13.009,62.958 12.947,62.859 12.889,62.813 L12.87,62.798 L12.87,62.698 L12.886,62.683 C12.94,62.635 12.995,62.544 12.995,62.475 L12.995,62.13 C12.995,61.941 12.841,61.788 12.652,61.788 L12.16,61.788 L12.16,63.909 Z M12.666,64.009 L12.06,64.009 L12.06,61.688 L12.652,61.688 C12.896,61.688 13.094,61.886 13.094,62.13 L13.094,62.475 C13.094,62.569 13.034,62.676 12.97,62.741 L12.97,62.751 C13.04,62.816 13.108,62.929 13.108,63.033 L13.108,63.567 C13.108,63.811 12.91,64.009 12.666,64.009 Z" id="Fill-20"></path>
            <polyline id="Fill-21" points="14.626 63.959 14.4 63.959 14.4 63.053 14.231 63.053 13.94 61.738 14.166 61.738 14.406 62.83 14.618 62.83 14.86 61.738 15.086 61.738 14.795 63.053 14.626 63.053 14.626 63.959"></polyline>
            <path d="M14.45,63.909 L14.576,63.909 L14.576,63.003 L14.755,63.003 L15.024,61.788 L14.9,61.788 L14.658,62.88 L14.366,62.88 L14.126,61.788 L14.002,61.788 L14.271,63.003 L14.45,63.003 L14.45,63.909 Z M14.676,64.009 L14.351,64.009 L14.351,63.103 L14.191,63.103 L13.877,61.688 L14.206,61.688 L14.446,62.78 L14.578,62.78 L14.82,61.688 L15.148,61.688 L14.835,63.103 L14.676,63.103 L14.676,64.009 Z" id="Fill-22"></path>
            <path d="M18.9,60.37 L19.19,60.37 C19.54,60.37 19.821,60.651 19.821,61 L19.821,61.431 L19.458,61.431 L19.458,61 C19.458,60.851 19.34,60.733 19.19,60.733 L18.9,60.733 C18.755,60.733 18.633,60.851 18.633,61 L18.633,61.576 C18.633,61.725 18.755,61.843 18.9,61.843 L19.209,61.843 C19.553,61.843 19.839,62.124 19.839,62.473 L19.839,63.352 C19.839,63.701 19.553,63.982 19.209,63.982 L18.882,63.982 C18.534,63.982 18.252,63.701 18.252,63.352 L18.252,62.7 L18.615,62.7 L18.615,63.352 C18.615,63.502 18.733,63.62 18.882,63.62 L19.209,63.62 C19.354,63.62 19.476,63.502 19.476,63.352 L19.476,62.473 C19.476,62.323 19.354,62.205 19.209,62.205 L18.9,62.205 C18.556,62.205 18.271,61.925 18.271,61.576 L18.271,61 C18.271,60.651 18.556,60.37 18.9,60.37" id="Fill-23"></path>
            <path d="M18.302,62.75 L18.302,63.352 C18.302,63.672 18.562,63.932 18.882,63.932 L19.209,63.932 C19.529,63.932 19.789,63.672 19.789,63.352 L19.789,62.473 C19.789,62.153 19.529,61.893 19.209,61.893 L18.9,61.893 C18.726,61.893 18.584,61.751 18.584,61.576 L18.584,61 C18.584,60.825 18.726,60.683 18.9,60.683 L19.19,60.683 C19.369,60.683 19.508,60.822 19.508,61 L19.508,61.381 L19.771,61.381 L19.771,61 C19.771,60.68 19.51,60.42 19.19,60.42 L18.9,60.42 C18.581,60.42 18.32,60.68 18.32,61 L18.32,61.576 C18.32,61.895 18.581,62.156 18.9,62.156 L19.209,62.156 C19.384,62.156 19.526,62.298 19.526,62.473 L19.526,63.352 C19.526,63.527 19.384,63.67 19.209,63.67 L18.882,63.67 C18.705,63.67 18.565,63.53 18.565,63.352 L18.565,62.75 L18.302,62.75 Z M19.209,64.032 L18.882,64.032 C18.507,64.032 18.203,63.727 18.203,63.352 L18.203,62.65 L18.665,62.65 L18.665,63.352 C18.665,63.474 18.761,63.569 18.882,63.569 L19.209,63.569 C19.329,63.569 19.426,63.472 19.426,63.352 L19.426,62.473 C19.426,62.353 19.329,62.256 19.209,62.256 L18.9,62.256 C18.525,62.256 18.221,61.951 18.221,61.576 L18.221,61 C18.221,60.625 18.525,60.32 18.9,60.32 L19.19,60.32 C19.565,60.32 19.871,60.625 19.871,61 L19.871,61.481 L19.408,61.481 L19.408,61 C19.408,60.878 19.313,60.783 19.19,60.783 L18.9,60.783 C18.781,60.783 18.683,60.88 18.683,61 L18.683,61.576 C18.683,61.696 18.781,61.793 18.9,61.793 L19.209,61.793 C19.584,61.793 19.889,62.098 19.889,62.473 L19.889,63.352 C19.889,63.727 19.584,64.032 19.209,64.032 Z" id="Fill-24"></path>
            <path d="M21.851,62.296 L22.535,62.296 L22.381,60.755 L22.009,60.755 L21.851,62.296 Z M23.07,63.959 L22.708,63.959 L22.571,62.659 L21.814,62.659 L21.683,63.959 L21.321,63.959 L21.647,60.755 L21.511,60.71 L21.511,60.393 L22.708,60.393 L23.07,63.959 Z" id="Fill-25"></path>
            <path d="M21.906,62.246 L22.48,62.246 L22.335,60.805 L22.054,60.805 L21.906,62.246 Z M22.59,62.346 L21.796,62.346 L21.801,62.291 L21.964,60.705 L22.426,60.705 L22.59,62.346 Z M22.752,63.909 L23.015,63.909 L22.662,60.443 L21.561,60.443 L21.561,60.674 L21.701,60.72 L21.697,60.76 L21.376,63.909 L21.638,63.909 L21.769,62.609 L22.616,62.609 L22.752,63.909 Z M23.125,64.009 L22.663,64.009 L22.526,62.709 L21.86,62.709 L21.729,64.009 L21.266,64.009 L21.271,63.954 L21.593,60.79 L21.461,60.746 L21.461,60.343 L22.753,60.343 L22.757,60.388 L23.125,64.009 Z" id="Fill-26"></path>
            <polyline id="Fill-27" points="25.231 63.959 24.868 63.959 24.868 60.755 24.266 60.755 24.266 60.393 25.833 60.393 25.833 60.755 25.231 60.755 25.231 63.959"></polyline>
            <path d="M24.918,63.909 L25.181,63.909 L25.181,60.705 L25.784,60.705 L25.784,60.443 L24.315,60.443 L24.315,60.705 L24.918,60.705 L24.918,63.909 Z M25.281,64.009 L24.818,64.009 L24.818,60.805 L24.216,60.805 L24.216,60.343 L25.883,60.343 L25.883,60.805 L25.281,60.805 L25.281,64.009 Z" id="Fill-28"></path>
            <path d="M28.467,61 C28.467,60.851 28.349,60.733 28.2,60.733 L27.805,60.733 C27.66,60.733 27.538,60.851 27.538,61 L27.538,63.352 C27.538,63.502 27.66,63.62 27.805,63.62 L28.2,63.62 C28.349,63.62 28.467,63.502 28.467,63.352 L28.467,61 Z M28.83,61 L28.83,63.352 C28.83,63.701 28.548,63.982 28.2,63.982 L27.805,63.982 C27.461,63.982 27.175,63.701 27.175,63.352 L27.175,61 C27.175,60.651 27.461,60.37 27.805,60.37 L28.2,60.37 C28.548,60.37 28.83,60.651 28.83,61 Z" id="Fill-29"></path>
            <path d="M27.805,60.783 C27.686,60.783 27.588,60.88 27.588,61 L27.588,63.352 C27.588,63.472 27.686,63.569 27.805,63.569 L28.2,63.569 C28.321,63.569 28.417,63.474 28.417,63.352 L28.417,61 C28.417,60.878 28.321,60.783 28.2,60.783 L27.805,60.783 Z M28.2,63.67 L27.805,63.67 C27.63,63.67 27.488,63.527 27.488,63.352 L27.488,61 C27.488,60.825 27.63,60.683 27.805,60.683 L28.2,60.683 C28.377,60.683 28.517,60.822 28.517,61 L28.517,63.352 C28.517,63.53 28.377,63.67 28.2,63.67 Z M27.805,60.42 C27.485,60.42 27.225,60.68 27.225,61 L27.225,63.352 C27.225,63.672 27.485,63.932 27.805,63.932 L28.2,63.932 C28.52,63.932 28.78,63.672 28.78,63.352 L28.78,61 C28.78,60.68 28.52,60.42 28.2,60.42 L27.805,60.42 Z M28.2,64.032 L27.805,64.032 C27.43,64.032 27.125,63.727 27.125,63.352 L27.125,61 C27.125,60.625 27.43,60.32 27.805,60.32 L28.2,60.32 C28.575,60.32 28.879,60.625 28.879,61 L28.879,63.352 C28.879,63.727 28.575,64.032 28.2,64.032 Z" id="Fill-30"></path>
            <path d="M30.968,60.37 L31.258,60.37 C31.607,60.37 31.889,60.651 31.889,61 L31.889,61.431 L31.526,61.431 L31.526,61 C31.526,60.851 31.408,60.733 31.258,60.733 L30.968,60.733 C30.823,60.733 30.701,60.851 30.701,61 L30.701,61.576 C30.701,61.725 30.823,61.843 30.968,61.843 L31.277,61.843 C31.621,61.843 31.907,62.124 31.907,62.473 L31.907,63.352 C31.907,63.701 31.621,63.982 31.277,63.982 L30.95,63.982 C30.602,63.982 30.32,63.701 30.32,63.352 L30.32,62.7 L30.683,62.7 L30.683,63.352 C30.683,63.502 30.801,63.62 30.95,63.62 L31.277,63.62 C31.422,63.62 31.544,63.502 31.544,63.352 L31.544,62.473 C31.544,62.323 31.422,62.205 31.277,62.205 L30.968,62.205 C30.624,62.205 30.338,61.925 30.338,61.576 L30.338,61 C30.338,60.651 30.624,60.37 30.968,60.37" id="Fill-31"></path>
            <path d="M30.37,62.75 L30.37,63.352 C30.37,63.672 30.63,63.932 30.95,63.932 L31.277,63.932 C31.597,63.932 31.857,63.672 31.857,63.352 L31.857,62.473 C31.857,62.153 31.597,61.893 31.277,61.893 L30.968,61.893 C30.794,61.893 30.651,61.751 30.651,61.576 L30.651,61 C30.651,60.825 30.794,60.683 30.968,60.683 L31.258,60.683 C31.437,60.683 31.576,60.822 31.576,61 L31.576,61.381 L31.839,61.381 L31.839,61 C31.839,60.68 31.578,60.42 31.258,60.42 L30.968,60.42 C30.648,60.42 30.388,60.68 30.388,61 L30.388,61.576 C30.388,61.895 30.648,62.156 30.968,62.156 L31.277,62.156 C31.452,62.156 31.594,62.298 31.594,62.473 L31.594,63.352 C31.594,63.527 31.452,63.67 31.277,63.67 L30.95,63.67 C30.772,63.67 30.633,63.53 30.633,63.352 L30.633,62.75 L30.37,62.75 Z M31.277,64.032 L30.95,64.032 C30.575,64.032 30.271,63.727 30.271,63.352 L30.271,62.65 L30.733,62.65 L30.733,63.352 C30.733,63.474 30.829,63.569 30.95,63.569 L31.277,63.569 C31.396,63.569 31.494,63.472 31.494,63.352 L31.494,62.473 C31.494,62.353 31.396,62.256 31.277,62.256 L30.968,62.256 C30.593,62.256 30.289,61.951 30.289,61.576 L30.289,61 C30.289,60.625 30.593,60.32 30.968,60.32 L31.258,60.32 C31.633,60.32 31.938,60.625 31.938,61 L31.938,61.481 L31.476,61.481 L31.476,61 C31.476,60.878 31.38,60.783 31.258,60.783 L30.968,60.783 C30.849,60.783 30.751,60.88 30.751,61 L30.751,61.576 C30.751,61.696 30.849,61.793 30.968,61.793 L31.277,61.793 C31.652,61.793 31.957,62.098 31.957,62.473 L31.957,63.352 C31.957,63.727 31.652,64.032 31.277,64.032 Z" id="Fill-32"></path>
            <polyline id="Fill-33" points="35.011 63.959 34.648 63.959 34.648 62.205 33.76 62.205 33.76 63.959 33.397 63.959 33.397 60.393 33.76 60.393 33.76 61.843 34.648 61.843 34.648 60.393 35.011 60.393 35.011 63.959"></polyline>
            <path d="M34.698,63.909 L34.961,63.909 L34.961,60.443 L34.698,60.443 L34.698,61.893 L33.71,61.893 L33.71,60.443 L33.447,60.443 L33.447,63.909 L33.71,63.909 L33.71,62.156 L34.698,62.156 L34.698,63.909 Z M35.061,64.009 L34.599,64.009 L34.599,62.256 L33.81,62.256 L33.81,64.009 L33.348,64.009 L33.348,60.343 L33.81,60.343 L33.81,61.793 L34.599,61.793 L34.599,60.343 L35.061,60.343 L35.061,64.009 Z" id="Fill-34"></path>
            <polyline id="Fill-35" points="36.637 60.755 36.456 60.71 36.456 60.393 37.181 60.393 37.181 60.71 37 60.755 37 63.597 37.181 63.642 37.181 63.959 36.456 63.959 36.456 63.642 36.637 63.597 36.637 60.755"></polyline>
            <path d="M36.505,63.909 L37.131,63.909 L37.131,63.681 L36.95,63.636 L36.95,60.716 L37.131,60.671 L37.131,60.443 L36.505,60.443 L36.505,60.671 L36.687,60.716 L36.687,63.636 L36.505,63.681 L36.505,63.909 Z M37.231,64.009 L36.406,64.009 L36.406,63.603 L36.587,63.558 L36.587,60.794 L36.406,60.749 L36.406,60.343 L37.231,60.343 L37.231,60.749 L37.049,60.794 L37.049,63.558 L37.231,63.603 L37.231,64.009 Z" id="Fill-36"></path>
            <polyline id="Fill-37" points="41.208 63.959 40.845 63.959 40.845 60.393 41.557 60.393 42.046 63.597 42.119 63.597 42.119 60.393 42.481 60.393 42.481 63.959 41.752 63.959 41.267 60.755 41.208 60.755 41.208 63.959"></polyline>
            <path d="M41.795,63.909 L42.432,63.909 L42.432,60.443 L42.168,60.443 L42.168,63.647 L42.003,63.647 L41.997,63.604 L41.514,60.443 L40.895,60.443 L40.895,63.909 L41.158,63.909 L41.158,60.705 L41.31,60.705 L41.316,60.748 L41.795,63.909 Z M42.531,64.009 L41.709,64.009 L41.703,63.967 L41.258,61.032 L41.258,64.009 L40.795,64.009 L40.795,60.343 L41.6,60.343 L41.606,60.385 L42.069,63.412 L42.069,60.343 L42.531,60.343 L42.531,64.009 Z" id="Fill-38"></path>
            <path d="M44.494,62.296 L45.178,62.296 L45.023,60.755 L44.652,60.755 L44.494,62.296 Z M45.712,63.959 L45.35,63.959 L45.214,62.659 L44.457,62.659 L44.326,63.959 L43.963,63.959 L44.29,60.755 L44.153,60.71 L44.153,60.393 L45.35,60.393 L45.712,63.959 Z" id="Fill-39"></path>
            <path d="M44.549,62.246 L45.123,62.246 L44.978,60.805 L44.697,60.805 L44.549,62.246 Z M45.233,62.346 L44.438,62.346 L44.444,62.291 L44.607,60.705 L45.069,60.705 L45.233,62.346 Z M45.395,63.909 L45.657,63.909 L45.305,60.443 L44.203,60.443 L44.203,60.674 L44.343,60.72 L44.339,60.76 L44.019,63.909 L44.28,63.909 L44.412,62.609 L45.259,62.609 L45.395,63.909 Z M45.768,64.009 L45.305,64.009 L45.169,62.709 L44.502,62.709 L44.371,64.009 L43.908,64.009 L43.914,63.954 L44.236,60.79 L44.104,60.746 L44.104,60.343 L45.396,60.343 L45.4,60.388 L45.768,64.009 Z" id="Fill-40"></path>
            <polyline id="Fill-41" points="48.744 60.71 48.608 60.755 48.3 62.006 48.69 63.597 48.825 63.642 48.825 63.959 48.418 63.959 47.987 62.205 47.557 62.205 47.557 63.959 47.194 63.959 47.194 60.393 47.557 60.393 47.557 61.843 47.978 61.843 48.336 60.393 48.744 60.393 48.744 60.71"></polyline>
            <path d="M48.457,63.909 L48.775,63.909 L48.775,63.678 L48.647,63.635 L48.641,63.609 L48.249,62.006 L48.566,60.716 L48.694,60.674 L48.694,60.443 L48.375,60.443 L48.017,61.893 L47.507,61.893 L47.507,60.443 L47.244,60.443 L47.244,63.909 L47.507,63.909 L47.507,62.156 L48.026,62.156 L48.457,63.909 Z M48.875,64.009 L48.378,64.009 L47.948,62.256 L47.606,62.256 L47.606,64.009 L47.144,64.009 L47.144,60.343 L47.606,60.343 L47.606,61.793 L47.939,61.793 L48.297,60.343 L48.793,60.343 L48.793,60.746 L48.65,60.794 L48.351,62.006 L48.731,63.558 L48.875,63.606 L48.875,64.009 Z" id="Fill-42"></path>
            <path d="M50.724,62.296 L51.408,62.296 L51.254,60.755 L50.882,60.755 L50.724,62.296 Z M51.942,63.959 L51.58,63.959 L51.444,62.659 L50.687,62.659 L50.556,63.959 L50.193,63.959 L50.52,60.755 L50.384,60.71 L50.384,60.393 L51.58,60.393 L51.942,63.959 Z" id="Fill-43"></path>
            <path d="M50.779,62.246 L51.353,62.246 L51.209,60.805 L50.927,60.805 L50.779,62.246 Z M51.463,62.346 L50.669,62.346 L50.674,62.291 L50.837,60.705 L51.299,60.705 L51.463,62.346 Z M51.625,63.909 L51.887,63.909 L51.535,60.443 L50.434,60.443 L50.434,60.674 L50.573,60.721 L50.569,60.76 L50.249,63.909 L50.51,63.909 L50.642,62.609 L51.489,62.609 L51.625,63.909 Z M51.998,64.009 L51.535,64.009 L51.399,62.709 L50.732,62.709 L50.601,64.009 L50.138,64.009 L50.144,63.954 L50.466,60.79 L50.334,60.746 L50.334,60.343 L51.625,60.343 L51.63,60.388 L51.998,64.009 Z" id="Fill-44"></path>
            <polyline id="Fill-45" points="53.787 63.959 53.424 63.959 53.424 60.393 54.158 60.393 54.453 61.843 54.544 61.843 54.838 60.393 55.572 60.393 55.572 63.959 55.21 63.959 55.21 60.755 55.132 60.755 54.842 62.205 54.154 62.205 53.864 60.755 53.787 60.755 53.787 63.959"></polyline>
            <path d="M55.259,63.909 L55.523,63.909 L55.523,60.443 L54.879,60.443 L54.585,61.893 L54.412,61.893 L54.404,61.853 L54.117,60.443 L53.474,60.443 L53.474,63.909 L53.737,63.909 L53.737,60.705 L53.905,60.705 L53.913,60.746 L54.195,62.156 L54.801,62.156 L55.091,60.705 L55.259,60.705 L55.259,63.909 Z M55.622,64.009 L55.16,64.009 L55.16,60.874 L54.883,62.256 L54.113,62.256 L54.105,62.215 L53.836,60.874 L53.836,64.009 L53.374,64.009 L53.374,60.343 L54.199,60.343 L54.207,60.383 L54.494,61.793 L54.502,61.793 L54.797,60.343 L55.622,60.343 L55.622,64.009 Z" id="Fill-46"></path>
            <path d="M58.354,61 C58.354,60.851 58.236,60.733 58.086,60.733 L57.692,60.733 C57.547,60.733 57.425,60.851 57.425,61 L57.425,63.352 C57.425,63.502 57.547,63.62 57.692,63.62 L58.086,63.62 C58.236,63.62 58.354,63.502 58.354,63.352 L58.354,61 Z M58.716,61 L58.716,63.352 C58.716,63.701 58.435,63.982 58.086,63.982 L57.692,63.982 C57.348,63.982 57.062,63.701 57.062,63.352 L57.062,61 C57.062,60.651 57.348,60.37 57.692,60.37 L58.086,60.37 C58.435,60.37 58.716,60.651 58.716,61 Z" id="Fill-47"></path>
            <path d="M57.692,60.783 C57.572,60.783 57.475,60.88 57.475,61 L57.475,63.352 C57.475,63.472 57.572,63.569 57.692,63.569 L58.086,63.569 C58.208,63.569 58.304,63.474 58.304,63.352 L58.304,61 C58.304,60.878 58.208,60.783 58.086,60.783 L57.692,60.783 Z M58.086,63.67 L57.692,63.67 C57.517,63.67 57.375,63.527 57.375,63.352 L57.375,61 C57.375,60.825 57.517,60.683 57.692,60.683 L58.086,60.683 C58.264,60.683 58.403,60.822 58.403,61 L58.403,63.352 C58.403,63.53 58.264,63.67 58.086,63.67 Z M57.692,60.42 C57.372,60.42 57.112,60.68 57.112,61 L57.112,63.352 C57.112,63.672 57.372,63.932 57.692,63.932 L58.086,63.932 C58.406,63.932 58.666,63.672 58.666,63.352 L58.666,61 C58.666,60.68 58.406,60.42 58.086,60.42 L57.692,60.42 Z M58.086,64.032 L57.692,64.032 C57.317,64.032 57.012,63.727 57.012,63.352 L57.012,61 C57.012,60.625 57.317,60.32 57.692,60.32 L58.086,60.32 C58.461,60.32 58.766,60.625 58.766,61 L58.766,63.352 C58.766,63.727 58.461,64.032 58.086,64.032 Z" id="Fill-48"></path>
            <polyline id="Fill-49" points="61.023 63.959 60.661 63.959 60.661 60.755 60.058 60.755 60.058 60.393 61.626 60.393 61.626 60.755 61.023 60.755 61.023 63.959"></polyline>
            <path d="M60.71,63.909 L60.974,63.909 L60.974,60.705 L61.576,60.705 L61.576,60.443 L60.108,60.443 L60.108,60.705 L60.71,60.705 L60.71,63.909 Z M61.073,64.009 L60.611,64.009 L60.611,60.805 L60.008,60.805 L60.008,60.343 L61.676,60.343 L61.676,60.805 L61.073,60.805 L61.073,64.009 Z" id="Fill-50"></path>
            <path d="M64.258,61 C64.258,60.851 64.141,60.733 63.991,60.733 L63.597,60.733 C63.452,60.733 63.33,60.851 63.33,61 L63.33,63.352 C63.33,63.502 63.452,63.62 63.597,63.62 L63.991,63.62 C64.141,63.62 64.258,63.502 64.258,63.352 L64.258,61 Z M64.621,61 L64.621,63.352 C64.621,63.701 64.34,63.982 63.991,63.982 L63.597,63.982 C63.252,63.982 62.967,63.701 62.967,63.352 L62.967,61 C62.967,60.651 63.252,60.37 63.597,60.37 L63.991,60.37 C64.34,60.37 64.621,60.651 64.621,61 Z" id="Fill-51"></path>
            <path d="M63.597,60.783 C63.477,60.783 63.379,60.88 63.379,61 L63.379,63.352 C63.379,63.472 63.477,63.569 63.597,63.569 L63.991,63.569 C64.113,63.569 64.209,63.474 64.209,63.352 L64.209,61 C64.209,60.878 64.113,60.783 63.991,60.783 L63.597,60.783 Z M63.991,63.67 L63.597,63.67 C63.422,63.67 63.28,63.527 63.28,63.352 L63.28,61 C63.28,60.825 63.422,60.683 63.597,60.683 L63.991,60.683 C64.169,60.683 64.308,60.822 64.308,61 L64.308,63.352 C64.308,63.53 64.169,63.67 63.991,63.67 Z M63.597,60.42 C63.277,60.42 63.017,60.68 63.017,61 L63.017,63.352 C63.017,63.672 63.277,63.932 63.597,63.932 L63.991,63.932 C64.311,63.932 64.571,63.672 64.571,63.352 L64.571,61 C64.571,60.68 64.311,60.42 63.991,60.42 L63.597,60.42 Z M63.991,64.032 L63.597,64.032 C63.222,64.032 62.917,63.727 62.917,63.352 L62.917,61 C62.917,60.625 63.222,60.32 63.597,60.32 L63.991,60.32 C64.366,60.32 64.671,60.625 64.671,61 L64.671,63.352 C64.671,63.727 64.366,64.032 63.991,64.032 Z" id="Fill-52"></path>
            <path d="M40.387,28.507 C40.18,28.507 40.012,28.675 40.012,28.882 C40.012,29.089 40.18,29.257 40.387,29.257 L47.485,29.257 C48.995,29.257 50.234,30.29 50.436,31.621 L49.168,31.621 C48.961,31.621 48.793,31.79 48.793,31.996 C48.793,32.203 48.961,32.371 49.168,32.371 L52.535,32.371 C52.742,32.371 52.91,32.203 52.91,31.996 C52.91,31.79 52.742,31.621 52.535,31.621 L51.187,31.621 C50.983,29.876 49.411,28.507 47.485,28.507 L40.387,28.507" id="Fill-53"></path>
            <path d="M38.093,41.339 C38.093,41.131 37.925,40.963 37.718,40.963 L28.968,40.963 C27.319,40.963 25.978,39.735 25.978,38.224 L25.978,31.996 C25.978,30.486 27.319,29.257 28.968,29.257 L37.689,29.257 C37.897,29.257 38.064,29.089 38.064,28.882 C38.064,28.675 37.896,28.507 37.689,28.507 L28.968,28.507 C26.906,28.507 25.228,30.073 25.228,31.996 L25.228,38.224 C25.228,40.148 26.906,41.713 28.968,41.713 L37.718,41.713 C37.925,41.713 38.093,41.545 38.093,41.339" id="Fill-54"></path>
            <path d="M52.535,37.849 L49.168,37.849 C48.961,37.849 48.793,38.018 48.793,38.224 C48.793,38.431 48.961,38.599 49.168,38.599 L50.436,38.599 C50.234,39.931 48.995,40.963 47.485,40.963 L40.413,40.963 C40.206,40.963 40.038,41.131 40.038,41.339 C40.038,41.545 40.206,41.713 40.413,41.713 L47.485,41.713 C49.411,41.713 50.983,40.345 51.187,38.599 L52.535,38.599 C52.742,38.599 52.91,38.431 52.91,38.224 C52.91,38.018 52.742,37.849 52.535,37.849" id="Fill-55"></path>
            <path d="M45.428,39.934 L45.428,40.093 C45.428,40.301 45.596,40.468 45.803,40.468 C46.01,40.468 46.178,40.301 46.178,40.093 L46.178,38.224 C46.178,36.473 44.782,35.033 42.977,34.786 C43.893,34.15 44.495,33.141 44.495,31.996 L44.495,30.128 C44.495,30.119 44.49,30.112 44.489,30.103 C44.476,29.908 44.317,29.753 44.12,29.753 C43.998,29.753 43.895,29.816 43.826,29.906 C43.778,29.969 43.745,30.044 43.745,30.128 L43.745,31.996 C43.745,33.507 42.402,34.737 40.752,34.737 L34.393,34.737 L34.393,30.128 C34.393,29.921 34.225,29.753 34.018,29.753 C33.811,29.753 33.643,29.921 33.643,30.128 L33.643,40.093 C33.643,40.301 33.811,40.468 34.018,40.468 C34.225,40.468 34.393,40.301 34.393,40.093 L34.393,35.486 L42.437,35.486 C44.086,35.486 45.428,36.715 45.428,38.224 L45.428,39.934" id="Fill-56"></path>
            <path d="M45.803,42.209 C45.596,42.209 45.428,42.377 45.428,42.584 L45.428,44.452 C45.428,45.963 44.086,47.191 42.437,47.191 L34.393,47.191 L34.393,42.584 C34.393,42.377 34.225,42.209 34.018,42.209 C33.811,42.209 33.643,42.377 33.643,42.584 L33.643,47.191 L32.335,47.191 C32.128,47.191 31.96,47.359 31.96,47.566 C31.96,47.773 32.128,47.941 32.335,47.941 L42.437,47.941 C44.5,47.941 46.178,46.376 46.178,44.452 L46.178,42.584 C46.178,42.377 46.01,42.209 45.803,42.209" id="Fill-57"></path>
            <path d="M33.643,27.637 C33.643,27.844 33.811,28.012 34.018,28.012 C34.225,28.012 34.393,27.844 34.393,27.637 L34.393,23.029 L40.752,23.029 C42.402,23.029 43.745,24.257 43.745,25.767 L43.745,27.637 C43.745,27.844 43.913,28.012 44.12,28.012 C44.327,28.012 44.495,27.844 44.495,27.637 L44.495,25.767 C44.495,23.843 42.816,22.278 40.752,22.278 L32.335,22.278 C32.128,22.278 31.96,22.446 31.96,22.653 C31.96,22.861 32.128,23.029 32.335,23.029 L33.643,23.029 L33.643,27.637" id="Fill-58"></path>
            <path d="M39.04,34.24 C39.247,34.24 39.415,34.072 39.415,33.865 L39.415,23.9 C39.415,23.693 39.247,23.525 39.04,23.525 C38.833,23.525 38.665,23.693 38.665,23.9 L38.665,33.865 C38.665,34.072 38.833,34.24 39.04,34.24" id="Fill-59"></path>
            <path d="M38.665,36.356 L38.665,46.321 C38.665,46.528 38.833,46.696 39.04,46.696 C39.247,46.696 39.415,46.528 39.415,46.321 L39.415,36.356 C39.415,36.149 39.247,35.981 39.04,35.981 C38.833,35.981 38.665,36.149 38.665,36.356" id="Fill-60"></path>
            <path d="M30.244,18.772 C30.451,18.772 30.619,18.604 30.619,18.396 L30.619,17.203 L38.665,17.203 L38.665,21.409 C38.665,21.616 38.833,21.784 39.04,21.784 C39.247,21.784 39.415,21.616 39.415,21.409 L39.415,17.203 L47.518,17.203 L47.518,18.396 C47.518,18.604 47.686,18.772 47.893,18.772 C48.1,18.772 48.268,18.604 48.268,18.396 L48.268,15.257 C48.268,15.05 48.1,14.882 47.893,14.882 C47.686,14.882 47.518,15.05 47.518,15.257 L47.518,16.453 L39.045,16.453 C39.043,16.453 39.042,16.452 39.04,16.452 C39.038,16.452 39.037,16.453 39.035,16.453 L30.619,16.453 L30.619,15.257 C30.619,15.05 30.451,14.882 30.244,14.882 C30.037,14.882 29.869,15.05 29.869,15.257 L29.869,18.396 C29.869,18.604 30.037,18.772 30.244,18.772" id="Fill-61"></path>
            <path d="M40.752,54.562 L39.415,54.562 L39.415,48.812 C39.415,48.605 39.247,48.437 39.04,48.437 C38.833,48.437 38.665,48.605 38.665,48.812 L38.665,54.562 L37.385,54.562 C37.178,54.562 37.01,54.73 37.01,54.937 C37.01,55.144 37.178,55.312 37.385,55.312 L40.752,55.312 C40.959,55.312 41.127,55.144 41.127,54.937 C41.127,54.73 40.959,54.562 40.752,54.562" id="Fill-62"></path>
            <path d="M19.95,12.062 L22.121,10.849 C22.592,10.586 23.033,9.995 22.709,9.416 C22.334,8.744 21.651,8.902 21.095,9.212 L20.106,9.765 C19.735,9.972 19.383,10.23 19.139,10.609 L19.95,12.062 Z M18.66,9.752 C18.896,9.357 19.249,9.119 19.627,8.907 L20.616,8.355 C21.134,8.066 21.327,7.614 21.029,7.08 C20.723,6.532 20.264,6.545 19.762,6.825 L17.676,7.991 L18.66,9.752 Z M22.506,11.739 L19.586,13.37 L16.367,7.607 L19.287,5.976 C20.26,5.432 21.301,5.59 21.867,6.602 C22.144,7.097 22.203,7.621 21.984,8.027 C22.489,7.988 23.159,8.262 23.604,9.058 C24.243,10.201 23.465,11.204 22.506,11.739 Z" id="Fill-63"></path>
            <polyline id="Fill-64" points="26.187 10.049 23.861 3.876 24.746 3.542 27.072 9.715 26.187 10.049"></polyline>
            <polyline id="Fill-65" points="30.393 2.923 31.648 8.406 30.734 8.614 29.479 3.132 27.186 3.657 26.968 2.709 32.442 1.455 32.659 2.403 30.393 2.923"></polyline>
            <path d="M40.159,2.539 C39.665,2.06 38.957,1.783 38.206,1.807 C36.739,1.856 35.643,2.945 35.691,4.429 C35.739,5.852 37.002,6.854 38.38,6.809 C39.237,6.78 39.984,6.358 40.44,5.705 L41.059,6.49 C40.421,7.255 39.463,7.738 38.403,7.772 C36.406,7.838 34.808,6.334 34.743,4.346 C34.678,2.402 36.292,0.897 38.183,0.835 C39.173,0.802 40.087,1.17 40.753,1.794 L40.159,2.539" id="Fill-66"></path>
            <path d="M46.764,2.51 C45.32,2.238 44.012,3.063 43.736,4.524 C43.472,5.925 44.487,7.179 45.844,7.434 C47.235,7.697 48.596,6.837 48.861,5.428 C49.13,4.002 48.146,2.772 46.764,2.51 Z M45.656,8.381 C43.691,8.01 42.458,6.193 42.827,4.236 C43.187,2.323 45.092,1.205 46.953,1.556 C48.875,1.918 50.156,3.718 49.791,5.657 C49.43,7.571 47.535,8.735 45.656,8.381 Z" id="Fill-67"></path>
            <polyline id="Fill-68" points="50.744 9.583 53.006 3.377 53.896 3.701 51.635 9.907 50.744 9.583"></polyline>
            <polyline id="Fill-69" points="56.381 4.569 57.471 5.176 58.723 11.648 61.177 7.238 62.027 7.711 58.816 13.483 57.98 13.018 56.878 7.207 54.67 11.175 53.842 10.715 56.602 5.756 56.381 4.569"></polyline>
        </g>
    </g>
</svg>