<?xml version="1.0" encoding="UTF-8"?>
<svg width="78px" height="81px" viewBox="0 0 78 81" version="1.1" xmlns="http://www.w3.org/2000/svg" xmlns:xlink="http://www.w3.org/1999/xlink">
    <!-- Generator: Sketch 49 (51002) - http://www.bohemiancoding.com/sketch -->
    <title>bitcoin-grey-16</title>
    <desc>Created with Sketch.</desc>
    <defs></defs>
    <g id="Page-1" stroke="none" stroke-width="1" fill="none" fill-rule="evenodd">
        <g id="bitcoin-grey-16" fill="#000000">
            <path d="M5.72,19.117 L6.2,19.424 L5.839,19.988 L5.329,19.661 C4.849,19.354 4.438,19.359 4.159,19.793 C3.887,20.22 4.049,20.603 4.529,20.91 L7.347,22.715 C7.827,23.022 8.243,23.009 8.517,22.583 C8.795,22.149 8.627,21.773 8.147,21.466 L7.454,21.022 L7.815,20.458 L8.477,20.883 C9.285,21.399 9.574,22.122 9.048,22.945 C8.526,23.759 7.749,23.799 6.941,23.282 L4.184,21.517 C3.376,21 3.087,20.277 3.609,19.463 C4.136,18.64 4.913,18.6 5.72,19.117" id="Fill-1"></path>
            <path d="M9.677,16.452 C10.049,16.032 10.136,15.661 9.621,15.205 L9.167,14.803 C8.74,14.425 8.378,14.383 8.03,14.776 L7.574,15.291 L9.329,16.845 L9.677,16.452 Z M7.561,14.337 C8.221,13.591 8.877,13.616 9.581,14.239 L9.967,14.582 C10.489,15.043 10.652,15.514 10.421,16.035 C10.934,15.715 11.43,15.864 11.939,16.314 L12.677,16.968 C12.887,17.154 13.089,17.322 13.33,17.377 L12.856,17.913 C12.666,17.854 12.521,17.773 12.202,17.491 L11.457,16.831 C10.922,16.357 10.53,16.458 10.14,16.898 L9.81,17.271 L11.836,19.065 L11.368,19.593 L6.625,15.394 L7.561,14.337 Z" id="Fill-2"></path>
            <polyline id="Fill-3" points="14.574 13.148 10.952 10.877 11.516 10.409 14.26 12.174 13.04 9.145 13.555 8.718 15.109 12.703 16.559 14.45 16.022 14.895 14.574 13.148"></polyline>
            <path d="M19.22,8.779 C19.671,8.511 19.764,8.171 19.454,7.65 L19.023,6.926 C18.727,6.428 18.4,6.286 17.957,6.549 L17.373,6.897 L18.683,9.098 L19.22,8.779 Z M17.628,5.997 C18.483,5.488 19.15,5.777 19.641,6.601 L20.03,7.255 C20.543,8.118 20.407,8.81 19.544,9.324 L19.007,9.643 L20.284,11.79 L19.678,12.151 L16.438,6.706 L17.628,5.997 Z" id="Fill-4"></path>
            <polyline id="Fill-5" points="25.232 9.242 23.081 3.969 22 4.41 21.757 3.815 24.565 2.669 24.808 3.264 23.727 3.705 25.878 8.979 25.232 9.242"></polyline>
            <path d="M29.616,6.177 C29.752,6.74 30.068,7.009 30.561,6.89 C31.063,6.77 31.213,6.389 31.078,5.826 L30.295,2.568 C30.163,2.014 29.853,1.734 29.351,1.855 C28.858,1.973 28.701,2.364 28.834,2.919 L29.616,6.177 Z M28.165,3.117 C27.939,2.175 28.259,1.455 29.201,1.229 C30.152,1.001 30.765,1.497 30.991,2.439 L31.756,5.626 C31.98,6.559 31.662,7.287 30.711,7.516 C29.769,7.742 29.154,7.238 28.93,6.304 L28.165,3.117 Z" id="Fill-6"></path>
            <path d="M37.172,1.68 L37.219,2.249 L36.551,2.303 L36.502,1.698 C36.456,1.13 36.202,0.805 35.688,0.847 C35.183,0.889 34.977,1.25 35.023,1.819 L35.294,5.156 C35.34,5.724 35.603,6.048 36.108,6.007 C36.622,5.965 36.819,5.604 36.773,5.036 L36.707,4.215 L37.374,4.161 L37.438,4.945 C37.516,5.902 37.116,6.57 36.142,6.649 C35.177,6.728 34.674,6.133 34.597,5.176 L34.331,1.912 C34.253,0.955 34.653,0.287 35.618,0.209 C36.592,0.13 37.095,0.724 37.172,1.68" id="Fill-7"></path>
            <path d="M40.999,5.013 C40.959,5.582 41.161,5.942 41.675,5.978 C42.181,6.013 42.431,5.686 42.471,5.117 L42.812,0.286 L43.471,0.332 L43.133,5.128 C43.065,6.085 42.578,6.695 41.603,6.626 C40.636,6.558 40.239,5.885 40.307,4.929 L40.645,0.133 L41.34,0.182 L40.999,5.013" id="Fill-8"></path>
            <path d="M47.665,4.067 C48.212,4.193 48.579,4.091 48.733,3.42 L48.869,2.829 C48.997,2.273 48.861,1.935 48.349,1.818 L47.678,1.663 L47.153,3.949 L47.665,4.067 Z M48.511,1.195 C49.481,1.418 49.774,2.006 49.563,2.923 L49.447,3.426 C49.291,4.106 48.956,4.475 48.387,4.521 C48.914,4.818 49.021,5.326 48.868,5.988 L48.647,6.95 C48.584,7.224 48.534,7.481 48.6,7.72 L47.903,7.56 C47.864,7.365 47.865,7.198 47.96,6.783 L48.184,5.812 C48.344,5.114 48.068,4.819 47.495,4.687 L47.009,4.576 L46.402,7.215 L45.714,7.057 L47.134,0.878 L48.511,1.195 Z" id="Fill-9"></path>
            <path d="M53.473,5.86 C53.993,6.069 54.372,6.026 54.627,5.388 L54.853,4.825 C55.064,4.296 54.982,3.942 54.496,3.747 L53.858,3.491 L52.986,5.665 L53.473,5.86 Z M54.752,3.157 C55.675,3.528 55.873,4.153 55.523,5.026 L55.331,5.504 C55.072,6.151 54.683,6.463 54.116,6.42 C54.589,6.795 54.615,7.312 54.363,7.942 L53.996,8.857 C53.892,9.117 53.802,9.364 53.831,9.609 L53.168,9.343 C53.159,9.145 53.187,8.98 53.345,8.586 L53.715,7.663 C53.981,7 53.754,6.665 53.209,6.446 L52.747,6.261 L51.741,8.771 L51.086,8.508 L53.442,2.632 L54.752,3.157 Z" id="Fill-10"></path>
            <polyline id="Fill-11" points="59.936 8.921 59.611 9.466 58.281 8.674 57.128 10.611 58.762 11.583 58.433 12.136 56.193 10.803 59.433 5.357 61.673 6.69 61.345 7.243 59.711 6.27 58.605 8.13 59.936 8.921"></polyline>
            <polyline id="Fill-12" points="61.09 14.045 60.601 13.643 64.627 8.756 65.318 9.325 63.539 13.79 66.448 10.257 66.93 10.654 62.904 15.54 62.339 15.075 64.345 10.094 61.09 14.045"></polyline>
            <path d="M70.318,16.35 L69.892,16.729 L69.447,16.228 L69.901,15.826 C70.327,15.447 70.434,15.05 70.091,14.664 C69.755,14.285 69.341,14.338 68.915,14.716 L66.412,16.94 C65.985,17.318 65.885,17.723 66.222,18.102 C66.564,18.487 66.971,18.428 67.398,18.049 L68.013,17.502 L68.458,18.003 L67.869,18.526 C67.152,19.163 66.378,19.245 65.729,18.515 C65.086,17.791 65.259,17.032 65.976,16.395 L68.425,14.219 C69.143,13.583 69.916,13.5 70.56,14.224 C71.209,14.954 71.035,15.713 70.318,16.35" id="Fill-13"></path>
            <polyline id="Fill-14" points="70.806 21.297 73.494 17.966 73.892 18.583 71.81 21.101 74.967 20.249 75.33 20.812 71.184 21.882 69.274 23.115 68.896 22.529 70.806 21.297"></polyline>
            <polyline id="Fill-15" points="4.773 55.361 4.19 55.609 3.585 54.184 1.511 55.066 2.254 56.815 1.663 57.066 0.644 54.667 6.474 52.19 7.494 54.589 6.902 54.84 6.159 53.091 4.168 53.937 4.773 55.361"></polyline>
            <polyline id="Fill-16" points="6.599 60.366 3.726 60.943 3.366 60.379 6.806 59.697 8.749 57.041 9.144 57.659 7.533 59.846 10.2 59.314 10.555 59.871 7.331 60.521 5.259 63.346 4.86 62.721 6.599 60.366"></polyline>
            <path d="M12.966,65.131 L12.542,65.513 L12.095,65.015 L12.545,64.61 C12.969,64.229 13.073,63.83 12.728,63.447 C12.389,63.071 11.976,63.126 11.552,63.508 L9.065,65.747 C8.642,66.128 8.544,66.533 8.883,66.91 C9.227,67.293 9.634,67.231 10.058,66.849 L10.669,66.298 L11.118,66.796 L10.533,67.322 C9.82,67.965 9.047,68.052 8.394,67.326 C7.746,66.607 7.914,65.847 8.626,65.205 L11.059,63.014 C11.772,62.372 12.545,62.285 13.192,63.004 C13.846,63.73 13.679,64.49 12.966,65.131" id="Fill-17"></path>
            <polyline id="Fill-18" points="14.533 69.214 12.755 71.44 12.204 70.999 16.154 66.052 16.706 66.492 14.928 68.719 16.144 69.689 17.921 67.463 18.472 67.903 14.522 72.851 13.971 72.41 15.749 70.184 14.533 69.214"></polyline>
            <path d="M19.441,73.81 L20.678,74.491 L21.817,70.942 L19.441,73.81 Z M19.069,74.297 L18.239,75.298 L17.668,74.983 L21.79,70.017 L22.686,70.511 L20.689,76.648 L20.07,76.307 L20.473,75.071 L19.069,74.297 Z" id="Fill-19"></path>
            <polyline id="Fill-20" points="24.806 78.396 24.207 78.189 26.269 72.2 27.115 72.492 27.011 77.299 28.502 72.968 29.092 73.172 27.03 79.161 26.337 78.923 26.473 73.553 24.806 78.396"></polyline>
            <path d="M34.415,75.852 L34.325,76.387 L33.665,76.276 L33.761,75.705 C33.855,75.143 33.689,74.766 33.18,74.681 C32.681,74.597 32.392,74.897 32.297,75.459 L31.742,78.761 C31.648,79.323 31.823,79.701 32.322,79.785 C32.831,79.87 33.111,79.568 33.206,79.007 L33.416,77.758 L32.773,77.649 L32.878,77.025 L34.181,77.243 L33.872,79.082 C33.713,80.028 33.162,80.577 32.198,80.416 C31.243,80.255 30.902,79.555 31.061,78.609 L31.604,75.379 C31.763,74.433 32.314,73.884 33.269,74.044 C34.233,74.207 34.574,74.906 34.415,75.852" id="Fill-21"></path>
            <polyline id="Fill-22" points="39.747 77.402 39.742 78.036 38.194 78.023 38.175 80.277 40.076 80.293 40.071 80.936 37.463 80.914 37.517 74.577 40.124 74.599 40.118 75.241 38.217 75.226 38.199 77.389 39.747 77.402"></polyline>
            <path d="M49.584,74.595 L49.626,74.761 L48.979,74.929 L48.926,74.727 C48.783,74.175 48.489,73.906 47.999,74.032 C47.508,74.159 47.382,74.538 47.522,75.081 C47.878,76.457 49.971,76.055 50.418,77.782 C50.658,78.71 50.367,79.43 49.429,79.673 C48.492,79.915 47.898,79.424 47.657,78.495 L47.567,78.145 L48.207,77.979 L48.306,78.365 C48.449,78.917 48.76,79.182 49.251,79.055 C49.742,78.928 49.886,78.545 49.743,77.993 C49.389,76.626 47.305,77.025 46.859,75.3 C46.614,74.353 46.9,73.652 47.82,73.415 C48.749,73.175 49.344,73.666 49.584,74.595" id="Fill-23"></path>
            <polyline id="Fill-24" points="55.05 73.864 55.303 74.446 53.884 75.064 54.784 77.13 56.527 76.37 56.783 76.96 54.394 78 51.864 72.193 54.253 71.152 54.51 71.741 52.768 72.5 53.631 74.483 55.05 73.864"></polyline>
            <path d="M59.394,71.666 C59.865,71.361 60.049,71.027 59.676,70.449 L59.347,69.94 C59.038,69.461 58.701,69.322 58.259,69.607 L57.681,69.98 L58.953,71.951 L59.394,71.666 Z M57.926,69.057 C58.763,68.518 59.388,68.717 59.898,69.509 L60.178,69.942 C60.556,70.528 60.586,71.026 60.223,71.465 C60.803,71.295 61.241,71.572 61.609,72.143 L62.145,72.972 C62.296,73.208 62.447,73.424 62.664,73.543 L62.062,73.93 C61.896,73.822 61.777,73.705 61.546,73.348 L61.006,72.511 C60.619,71.91 60.214,71.901 59.72,72.22 L59.302,72.491 L60.77,74.765 L60.176,75.148 L56.739,69.823 L57.926,69.057 Z" id="Fill-25"></path>
            <polyline id="Fill-26" points="61.84 66.158 66.314 69.53 63.355 64.774 63.836 64.335 67.229 69.809 66.46 70.51 61.312 66.64 61.84 66.158"></polyline>
            <polyline id="Fill-27" points="66.111 61.735 70.982 65.791 70.53 66.334 65.659 62.278 66.111 61.735"></polyline>
            <path d="M70.679,57.846 L71.161,58.149 L70.805,58.716 L70.292,58.394 C69.809,58.091 69.398,58.099 69.123,58.536 C68.854,58.965 69.021,59.347 69.503,59.65 L72.337,61.431 C72.82,61.734 73.236,61.718 73.505,61.288 C73.78,60.852 73.609,60.477 73.126,60.174 L72.429,59.736 L72.785,59.17 L73.452,59.588 C74.264,60.098 74.56,60.818 74.04,61.646 C73.525,62.465 72.748,62.511 71.936,62.001 L69.163,60.259 C68.351,59.749 68.055,59.029 68.57,58.21 C69.09,57.382 69.867,57.336 70.679,57.846" id="Fill-28"></path>
            <polyline id="Fill-29" points="74.139 53.546 74.722 53.794 74.117 55.218 76.191 56.099 76.934 54.35 77.525 54.601 76.506 57 70.676 54.523 71.695 52.124 72.286 52.375 71.543 54.124 73.534 54.97 74.139 53.546"></polyline>
            <path d="M34.658,42.555 L46.253,42.555 C47.392,42.555 48.317,43.483 48.317,44.624 C48.317,45.341 47.95,45.972 47.395,46.343 C47.491,46.06 47.555,45.762 47.555,45.447 C47.555,43.892 46.289,42.629 44.74,42.629 L34.658,42.629 L34.658,42.555 Z M34.658,43.379 L44.74,43.379 C45.879,43.379 46.805,44.307 46.805,45.447 C46.805,45.909 46.647,46.331 46.39,46.677 C46.344,46.679 46.3,46.69 46.253,46.69 L44.525,46.69 L42.137,46.689 L36.759,46.69 L34.658,46.689 L34.658,43.379 Z M34.37,47.44 L46.253,47.44 C46.43,47.44 46.601,47.42 46.769,47.388 C48.073,47.143 49.067,46 49.067,44.624 C49.067,43.069 47.802,41.805 46.253,41.805 L33.908,41.805 L33.908,47.44 L34.37,47.44 Z" id="Fill-30"></path>
            <path d="M34.658,34.533 L44.346,34.533 C45.482,34.533 46.408,35.46 46.408,36.6 C46.408,37.316 46.041,37.946 45.486,38.317 C45.582,38.035 45.645,37.737 45.645,37.423 C45.645,35.869 44.384,34.606 42.833,34.606 L34.658,34.606 L34.658,34.533 Z M34.658,35.356 L42.833,35.356 C43.97,35.356 44.895,36.283 44.895,37.423 C44.895,37.885 44.737,38.307 44.479,38.652 C44.432,38.655 44.387,38.666 44.338,38.666 L34.658,38.666 L34.658,35.356 Z M44.229,39.416 L44.338,39.416 C44.517,39.416 44.691,39.395 44.861,39.363 C46.169,39.117 47.158,37.973 47.158,36.6 C47.158,35.046 45.897,33.783 44.346,33.783 L33.908,33.783 L33.908,39.416 L44.229,39.416 Z" id="Fill-31"></path>
            <path d="M60.093,56.443 C59.522,56.639 58.913,56.749 58.277,56.753 C58.264,56.753 58.252,56.755 58.238,56.755 C58.165,56.755 58.094,56.746 58.021,56.744 C56.589,56.691 55.291,56.116 54.309,55.201 C54.289,55.182 54.267,55.164 54.246,55.144 C53.533,54.46 52.995,53.598 52.705,52.628 C52.648,52.437 52.602,52.243 52.565,52.045 C52.525,51.829 52.499,51.61 52.483,51.387 C52.474,51.252 52.463,51.119 52.463,50.982 C52.463,50.932 52.469,50.885 52.47,50.836 C52.518,48.94 53.481,47.27 54.937,46.251 C55.081,46.15 55.231,46.056 55.385,45.968 C55.546,45.876 55.712,45.792 55.883,45.715 C55.979,45.672 56.077,45.633 56.176,45.595 C56.233,45.573 56.291,45.552 56.35,45.531 C56.751,45.391 57.169,45.292 57.604,45.244 C57.813,45.221 58.024,45.208 58.238,45.208 C58.43,45.208 58.62,45.218 58.808,45.237 C59.06,45.261 59.306,45.307 59.547,45.363 C60.314,45.542 61.021,45.874 61.637,46.324 C61.752,46.409 61.867,46.495 61.976,46.589 C62.088,46.684 62.198,46.783 62.302,46.886 C63.357,47.932 64.012,49.382 64.012,50.982 C64.012,52.471 63.439,53.827 62.51,54.852 C62.165,55.232 61.772,55.567 61.338,55.844 C60.952,56.092 60.535,56.293 60.093,56.443 Z M52.91,55.971 C51.751,54.914 51.02,53.399 51.02,51.711 C51.02,50.221 51.592,48.867 52.522,47.841 C52.007,48.774 51.713,49.844 51.713,50.982 C51.713,51.209 51.725,51.433 51.748,51.655 C51.757,51.744 51.775,51.829 51.788,51.917 C51.991,53.322 52.638,54.584 53.588,55.551 C53.685,55.649 53.788,55.74 53.89,55.831 C54.855,56.697 56.075,57.281 57.426,57.449 C57.218,57.471 57.008,57.485 56.795,57.485 C55.565,57.485 54.425,57.095 53.487,56.437 C53.284,56.295 53.092,56.137 52.91,55.971 Z M45.483,58.555 C44.944,58.627 44.378,58.693 43.888,58.693 L43.737,58.691 L43.199,58.699 C43.021,58.703 42.861,58.706 42.721,58.706 L41.556,58.62 L41.856,60.088 L41.122,60.16 L40.949,60.166 C40.641,60.176 40.286,60.188 39.891,60.188 C39.253,60.188 38.668,60.156 38.09,60.091 C35.931,59.92 32.617,59.064 29.782,57.171 C28.71,56.489 27.672,55.621 26.729,54.653 C27.37,53.715 27.766,52.6 27.843,51.401 L32.107,51.401 L32.107,54.967 C32.107,55.381 32.443,55.717 32.857,55.717 L35.246,55.717 C35.66,55.717 35.996,55.381 35.996,54.967 L35.996,54.896 L36.759,54.896 C37.173,54.896 37.509,54.56 37.509,54.145 L37.509,51.401 L39.872,51.401 L39.872,54.967 C39.872,55.381 40.207,55.717 40.622,55.717 L43.013,55.717 C43.427,55.717 43.763,55.381 43.763,54.967 L43.763,54.896 L44.525,54.896 C44.94,54.896 45.275,54.56 45.275,54.145 L45.275,51.374 C46.405,51.272 47.442,50.852 48.302,50.205 C50.577,49.367 52.206,47.184 52.206,44.622 C52.206,42.586 51.156,40.706 49.471,39.618 C50.007,38.708 50.296,37.662 50.296,36.6 C50.296,33.624 48.143,31.168 45.275,30.721 L45.275,27.077 C45.275,26.662 44.94,26.327 44.525,26.327 L42.137,26.327 C41.723,26.327 41.387,26.662 41.387,27.077 L41.387,27.149 L40.622,27.149 C40.207,27.149 39.872,27.485 39.872,27.899 L39.872,30.644 L37.509,30.644 L37.509,27.077 C37.509,26.662 37.173,26.327 36.759,26.327 L34.37,26.327 C33.956,26.327 33.62,26.662 33.62,27.077 L33.62,27.149 L32.857,27.149 C32.443,27.149 32.107,27.485 32.107,27.899 L32.107,30.644 L29.043,30.644 C28.629,30.644 28.293,30.98 28.293,31.394 L28.293,31.467 L27.527,31.467 C27.113,31.467 26.777,31.803 26.777,32.217 L26.777,34.606 C26.777,35.02 27.113,35.356 27.527,35.356 L29.252,35.356 L29.252,46.69 L29.043,46.69 C28.629,46.69 28.293,47.027 28.293,47.44 L28.293,47.513 L27.527,47.513 C27.318,47.513 27.129,47.6 26.993,47.739 C25.866,45.781 23.757,44.458 21.341,44.458 C20.186,44.458 19.102,44.763 18.159,45.292 L18.198,44.355 C18.196,43.928 18.279,43.424 18.367,42.89 L18.433,42.48 C18.508,41.839 18.701,41.152 18.905,40.423 C19.237,39.226 19.76,37.936 20.35,36.862 C20.551,36.447 20.76,36.085 20.951,35.825 L21.478,35.025 L20.055,34.551 C20.309,33.968 20.907,32.73 21.947,31.286 C23.5,29.023 26.065,26.817 28.649,25.529 C30.289,24.659 31.937,24.183 33.332,23.924 C34.529,25.363 36.332,26.281 38.346,26.281 C39.702,26.281 40.962,25.864 42.007,25.153 C43.581,24.58 44.872,23.424 45.616,21.941 C45.901,22.107 46.202,22.354 46.52,22.619 C46.696,22.766 46.877,22.917 47.068,23.065 C47.624,23.478 48.15,24.025 48.602,24.507 L49.316,25.252 L49.996,26.144 C50.383,26.647 50.717,27.08 50.948,27.525 L51.587,28.613 C51.716,28.816 51.768,28.952 51.768,28.952 L51.955,29.476 L53.106,28.453 L53.544,29.1 C53.866,29.507 54.195,30.144 54.577,30.882 C54.715,31.151 54.861,31.432 55.007,31.702 C56.178,34.263 56.781,37.512 56.617,40.399 C56.539,42.116 56.181,43.654 55.752,44.952 C55.337,45.124 54.943,45.336 54.577,45.585 C52.069,46.495 50.27,48.894 50.27,51.711 C50.27,53.529 51.019,55.174 52.223,56.358 C51.24,56.885 49.397,57.775 47.463,58.194 C46.776,58.353 46.128,58.503 45.483,58.555 Z M17.507,46.677 C17.677,46.525 17.854,46.382 18.042,46.251 C18.069,46.232 18.094,46.21 18.122,46.192 C18.481,45.949 18.87,45.752 19.28,45.595 C19.732,45.421 20.209,45.299 20.708,45.244 C20.916,45.221 21.127,45.208 21.341,45.208 C23.849,45.208 25.982,46.819 26.777,49.057 C26.992,49.66 27.114,50.306 27.114,50.982 C27.114,51.073 27.105,51.161 27.101,51.251 C27.052,52.291 26.731,53.259 26.202,54.085 C26.131,54.195 26.055,54.302 25.978,54.407 C25.903,54.507 25.829,54.607 25.749,54.703 C25.705,54.754 25.658,54.803 25.612,54.852 C25.267,55.233 24.874,55.568 24.439,55.845 C24.27,55.953 24.095,56.052 23.915,56.142 C23.683,56.258 23.444,56.36 23.196,56.445 C23.184,56.448 23.173,56.452 23.162,56.456 C22.588,56.648 21.978,56.755 21.341,56.755 C20.852,56.755 20.379,56.688 19.925,56.572 C19.67,56.508 19.42,56.429 19.18,56.332 C18.859,56.201 18.554,56.042 18.266,55.859 C16.996,55.055 16.061,53.774 15.717,52.266 C15.64,51.93 15.595,51.583 15.581,51.226 C15.577,51.145 15.568,51.064 15.568,50.982 C15.568,50.783 15.578,50.587 15.598,50.393 C15.613,50.248 15.638,50.105 15.664,49.962 C15.896,48.664 16.562,47.52 17.507,46.677 Z M29.043,50.577 L33.62,50.577 L33.62,54.145 C33.62,54.56 33.956,54.896 34.37,54.896 L35.246,54.896 L35.246,54.967 L32.857,54.967 L32.857,50.651 L27.847,50.651 C27.817,50.051 27.709,49.473 27.527,48.926 L27.527,48.263 L28.293,48.263 L28.293,49.827 C28.293,50.241 28.629,50.577 29.043,50.577 Z M37.509,50.651 L37.509,50.577 L41.387,50.577 L41.387,54.145 C41.387,54.56 41.723,54.896 42.137,54.896 L43.013,54.896 L43.013,54.967 L40.622,54.967 L40.622,50.651 L37.509,50.651 Z M45.275,50.577 L45.469,50.577 C45.405,50.586 45.34,50.59 45.275,50.596 L45.275,50.577 Z M40.622,30.644 L41.387,30.644 L41.387,27.899 L40.622,27.899 L40.622,30.644 Z M32.857,30.644 L33.62,30.644 L33.62,27.899 L32.857,27.899 L32.857,30.644 Z M27.527,34.606 L27.527,32.217 L28.293,32.217 L28.293,33.783 C28.293,34.197 28.629,34.533 29.043,34.533 L30.765,34.533 L30.765,46.69 L30.002,46.69 L30.002,34.606 L27.527,34.606 Z M29.043,47.888 L29.043,47.44 L31.515,47.44 L31.515,33.783 L29.043,33.783 L29.043,31.394 L34.37,31.394 L34.37,27.077 L36.759,27.077 L36.759,31.394 L42.137,31.394 L42.137,27.077 L44.525,27.077 L44.525,31.402 C47.309,31.5 49.546,33.79 49.546,36.6 C49.546,37.841 49.11,38.98 48.381,39.876 C50.19,40.693 51.456,42.511 51.456,44.622 C51.456,46.011 50.902,47.266 50.013,48.201 C49.719,48.509 49.39,48.779 49.029,49.008 C48.69,49.223 48.321,49.39 47.934,49.524 C47.404,49.706 46.844,49.827 46.253,49.827 L44.525,49.827 L44.525,54.145 L42.137,54.145 L42.137,49.827 L36.759,49.827 L36.759,54.145 L34.37,54.145 L34.37,49.827 L29.043,49.827 L29.043,47.888 Z M46.057,21.125 C46.431,21.144 46.851,21.243 47.294,21.347 C47.526,21.402 47.767,21.459 48.023,21.51 C48.719,21.639 49.422,21.87 50.265,22.18 L51.406,22.595 L52.495,23.12 C53.162,23.442 53.853,23.774 54.378,24.144 L55.709,25.002 C55.741,25.022 55.772,25.042 55.801,25.06 L54.8,25.947 L56.009,27.233 C56.499,27.698 57.062,28.465 57.713,29.352 L58.187,29.996 C60.091,32.856 61.445,36.7 61.81,40.282 C62,41.932 61.968,43.715 61.752,45.494 C61.127,45.092 60.43,44.794 59.683,44.625 C60.04,42.512 60.085,40.357 59.797,38.188 C59.586,36.575 59.19,34.981 58.621,33.45 C58.549,33.257 58.336,33.157 58.139,33.229 C57.945,33.301 57.846,33.518 57.918,33.712 C58.468,35.189 58.85,36.728 59.054,38.286 C59.331,40.381 59.289,42.459 58.945,44.497 C58.712,44.472 58.477,44.458 58.238,44.458 C57.684,44.458 57.148,44.535 56.634,44.665 C57.004,43.427 57.295,42 57.366,40.437 C57.536,37.439 56.909,34.057 55.678,31.37 C55.524,31.082 55.38,30.803 55.243,30.537 C54.843,29.765 54.498,29.098 54.148,28.659 L53.247,27.325 L52.231,28.228 C52.23,28.225 52.229,28.224 52.228,28.223 L51.604,27.162 C51.352,26.676 50.982,26.195 50.545,25.628 L49.886,24.766 L49.147,23.992 C48.675,23.489 48.121,22.912 47.521,22.467 C47.342,22.328 47.169,22.184 47,22.044 C46.638,21.741 46.297,21.455 45.955,21.268 L45.916,21.243 C45.932,21.2 45.948,21.159 45.963,21.115 L46.057,21.125 Z M39.155,13.29 C39.363,13.266 39.574,13.253 39.789,13.253 C42.972,13.253 45.562,15.843 45.562,19.027 C45.562,19.467 45.508,19.894 45.414,20.307 C45.386,20.431 45.355,20.553 45.319,20.674 C45.267,20.852 45.205,21.024 45.136,21.195 C45.088,21.312 45.034,21.424 44.979,21.537 C44.738,22.033 44.429,22.489 44.063,22.893 C43.718,23.274 43.326,23.609 42.892,23.887 C42.506,24.134 42.089,24.336 41.647,24.487 C41.063,24.685 40.44,24.799 39.789,24.799 C38.483,24.799 37.282,24.359 36.314,23.625 C36.163,23.511 36.018,23.389 35.878,23.261 C35.755,23.148 35.638,23.029 35.525,22.905 C34.923,22.244 34.474,21.446 34.229,20.56 C34.163,20.322 34.113,20.077 34.078,19.827 C34.041,19.565 34.016,19.299 34.016,19.027 C34.016,18.414 34.113,17.825 34.291,17.27 C34.336,17.128 34.388,16.989 34.445,16.852 C34.505,16.702 34.574,16.558 34.646,16.417 C35.079,15.567 35.713,14.839 36.489,14.296 C36.871,14.029 37.286,13.81 37.727,13.64 C38.179,13.466 38.657,13.344 39.155,13.29 Z M33.459,16.698 C33.64,16.409 33.846,16.139 34.074,15.887 C33.942,16.127 33.828,16.377 33.726,16.635 C33.67,16.777 33.615,16.918 33.568,17.064 C33.526,17.199 33.494,17.339 33.459,17.476 C33.337,17.974 33.266,18.492 33.266,19.027 C33.266,19.349 33.297,19.664 33.342,19.973 C33.379,20.223 33.429,20.469 33.494,20.709 C33.717,21.545 34.102,22.314 34.614,22.983 C34.705,23.1 34.798,23.215 34.896,23.326 C35,23.445 35.107,23.564 35.22,23.674 C36.216,24.654 37.525,25.313 38.981,25.494 C38.772,25.516 38.561,25.531 38.346,25.531 C36.727,25.531 35.264,24.859 34.215,23.783 C34.109,23.674 34.006,23.563 33.909,23.446 C33.82,23.339 33.738,23.226 33.657,23.113 C33.196,22.471 32.86,21.734 32.693,20.933 C32.643,20.689 32.613,20.437 32.594,20.182 C32.583,20.042 32.572,19.901 32.572,19.757 C32.572,19.002 32.722,18.282 32.987,17.62 C33.048,17.467 33.117,17.319 33.19,17.174 C33.272,17.01 33.362,16.851 33.459,16.698 Z M17.435,44.681 L17.278,44.333 C17.067,43.907 16.903,43.378 16.73,42.817 L16.611,42.435 C16.354,41.713 16.196,40.885 16.057,40.153 C15.778,38.725 15.646,37.069 15.694,35.59 C15.687,34.842 15.743,34.317 15.778,34.062 L15.794,33.925 L17.085,34.353 L17.261,33.629 C17.283,33.555 17.304,33.469 17.327,33.37 C17.371,33.186 17.424,32.953 17.532,32.68 C17.794,31.908 18.19,30.742 18.875,29.392 C19.559,28.011 20.513,26.538 21.626,25.146 C23.137,23.386 24.507,22.1 25.946,21.091 C27.706,19.768 29.854,18.668 32.095,17.899 C31.92,18.489 31.822,19.111 31.822,19.757 C31.822,19.971 31.834,20.182 31.855,20.39 C27.831,21.652 24.252,24.051 21.55,27.378 C21.419,27.538 21.444,27.775 21.605,27.905 C21.674,27.962 21.758,27.989 21.841,27.989 C21.95,27.989 22.058,27.943 22.132,27.85 C24.717,24.668 28.131,22.362 31.972,21.135 C32.138,21.903 32.441,22.619 32.852,23.26 C31.47,23.544 29.887,24.024 28.306,24.861 C25.582,26.22 22.974,28.464 21.333,30.856 C19.832,32.938 19.228,34.584 19.203,34.653 L19.072,35.015 L20.313,35.428 C20.111,35.708 19.891,36.09 19.684,36.518 C19.077,37.622 18.529,38.972 18.164,40.285 C17.971,40.976 17.77,41.693 17.689,42.378 L17.627,42.768 C17.534,43.335 17.446,43.869 17.449,44.342 L17.435,44.681 Z M19.757,57.478 C16.64,57.402 14.125,54.848 14.125,51.711 C14.125,50.222 14.697,48.867 15.626,47.842 C15.217,48.584 14.948,49.412 14.855,50.294 C14.844,50.396 14.843,50.5 14.837,50.602 C14.83,50.728 14.818,50.854 14.818,50.982 C14.818,53.951 16.814,56.458 19.532,57.244 C19.762,57.312 19.998,57.363 20.237,57.405 C20.334,57.421 20.431,57.437 20.529,57.449 C20.454,57.457 20.376,57.46 20.301,57.465 C20.167,57.473 20.034,57.485 19.898,57.485 C19.851,57.485 19.805,57.48 19.757,57.478 Z M51.73,57.635 C51.204,58.308 50.112,59.613 48.704,60.784 C48.083,61.301 47.441,61.834 46.774,62.243 C46.172,62.652 45.534,63.071 44.943,63.356 L44.453,63.614 C44.1,63.8 43.797,63.96 43.573,64.064 L43.44,64.118 L43.169,62.791 L41.501,63.222 L41.379,63.245 C40.542,63.408 39.396,63.632 37.984,63.699 C37.553,63.733 37.098,63.75 36.623,63.75 C33.51,63.75 30.109,63.013 27.286,61.724 C25.28,60.86 23.265,59.564 21.479,58.033 C22.23,57.845 22.932,57.533 23.555,57.111 C23.628,57.084 23.703,57.058 23.775,57.03 C26.555,59.561 29.987,61.367 33.801,62.185 C33.828,62.192 33.854,62.194 33.88,62.194 C34.053,62.194 34.209,62.074 34.247,61.898 C34.29,61.696 34.161,61.495 33.959,61.452 C30.38,60.683 27.149,59.018 24.506,56.681 C25.174,56.308 25.767,55.821 26.265,55.248 C27.229,56.228 28.285,57.107 29.373,57.799 C31.876,59.471 35.112,60.607 38.019,60.837 C38.612,60.905 39.224,60.937 39.891,60.937 C40.295,60.937 40.658,60.926 40.973,60.916 L42.757,60.753 L42.492,59.452 C42.686,59.46 42.926,59.456 43.214,59.449 L43.73,59.441 L43.888,59.443 C44.421,59.443 45.017,59.374 45.563,59.301 C46.244,59.245 46.918,59.09 47.687,58.912 C49.334,58.555 50.905,57.871 51.973,57.336 C51.9,57.433 51.819,57.533 51.73,57.635 Z M62.45,46.007 C62.723,44.031 62.767,42.036 62.556,40.201 C62.179,36.509 60.779,32.537 58.801,29.565 L58.317,28.909 C57.645,27.992 57.064,27.2 56.54,26.703 L55.876,25.996 L56.952,25.04 L56.648,24.757 C56.648,24.757 56.471,24.594 56.111,24.369 L54.797,23.521 C54.233,23.125 53.515,22.779 52.822,22.446 L51.697,21.905 L50.523,21.475 C49.645,21.154 48.907,20.911 48.165,20.774 C47.922,20.726 47.69,20.671 47.467,20.618 C47.008,20.509 46.576,20.411 46.168,20.385 C46.261,19.946 46.312,19.492 46.312,19.027 C46.312,15.429 43.386,12.503 39.789,12.503 C38.433,12.503 37.173,12.92 36.129,13.63 C34.498,14.221 33.17,15.443 32.44,17.004 C29.914,17.8 27.472,19.007 25.505,20.485 C24.024,21.522 22.61,22.848 21.048,24.668 C19.894,26.112 18.91,27.631 18.204,29.057 C17.497,30.451 17.074,31.695 16.828,32.422 C16.711,32.719 16.648,32.985 16.597,33.199 C16.581,33.264 16.567,33.324 16.551,33.385 L15.15,32.92 L15.034,33.968 C14.97,34.428 14.938,35.007 14.944,35.582 C14.894,37.098 15.031,38.817 15.32,40.294 C15.464,41.052 15.627,41.911 15.9,42.674 L16.014,43.038 C16.196,43.629 16.369,44.185 16.6,44.653 L17.122,45.818 C14.912,46.863 13.375,49.108 13.375,51.711 C13.375,55.308 16.301,58.235 19.898,58.235 C20.116,58.235 20.331,58.223 20.543,58.203 C22.493,59.956 24.742,61.444 26.982,62.411 C29.893,63.739 33.406,64.5 36.623,64.5 C37.118,64.5 37.593,64.482 38.031,64.448 C39.486,64.379 40.663,64.149 41.522,63.982 L42.592,63.715 L42.886,65.157 L43.873,64.751 C44.121,64.636 44.436,64.471 44.803,64.277 L45.279,64.027 C45.904,63.724 46.57,63.288 47.181,62.872 C47.878,62.446 48.542,61.894 49.183,61.361 C50.646,60.145 51.777,58.794 52.306,58.115 C52.588,57.797 52.794,57.48 52.96,57.224 C52.998,57.166 53.035,57.115 53.071,57.06 C54.128,57.799 55.411,58.235 56.795,58.235 C58.15,58.235 59.409,57.819 60.453,57.11 C62.961,56.2 64.762,53.801 64.762,50.982 C64.762,48.989 63.862,47.206 62.45,46.007 Z" id="Fill-32"></path>
            <path d="M22.655,52.722 L18.986,52.722 C18.779,52.722 18.611,52.89 18.611,53.097 C18.611,53.268 18.73,53.407 18.887,53.452 C18.919,53.461 18.951,53.472 18.986,53.472 L20.966,53.472 L20.966,54.219 C20.966,54.427 21.134,54.595 21.341,54.595 C21.382,54.595 21.42,54.584 21.457,54.571 C21.607,54.522 21.716,54.385 21.716,54.219 L21.716,53.472 L22.655,53.472 C23.29,53.472 23.821,53.049 24.001,52.473 C24.043,52.34 24.071,52.2 24.071,52.053 C24.071,51.988 24.061,51.924 24.052,51.861 C24,51.487 23.804,51.16 23.519,50.939 C23.354,50.81 23.164,50.714 22.952,50.669 C22.856,50.648 22.757,50.636 22.655,50.636 L20.027,50.636 C19.938,50.636 19.854,50.617 19.776,50.585 C19.553,50.493 19.398,50.281 19.374,50.031 C19.372,50.01 19.361,49.991 19.361,49.969 C19.361,49.914 19.38,49.863 19.393,49.812 C19.418,49.712 19.459,49.622 19.523,49.547 C19.645,49.4 19.822,49.301 20.027,49.301 L21.336,49.301 C21.338,49.301 21.339,49.302 21.341,49.302 C21.343,49.302 21.344,49.301 21.346,49.301 L23.548,49.301 C23.755,49.301 23.923,49.133 23.923,48.926 C23.923,48.719 23.755,48.551 23.548,48.551 L21.716,48.551 L21.716,47.805 C21.716,47.694 21.665,47.596 21.587,47.527 C21.521,47.469 21.436,47.431 21.341,47.431 C21.143,47.431 20.985,47.586 20.971,47.781 C20.971,47.788 20.966,47.797 20.966,47.805 L20.966,48.551 L20.027,48.551 C19.849,48.551 19.68,48.587 19.523,48.648 C19.337,48.719 19.169,48.825 19.031,48.963 C19.022,48.971 19.015,48.982 19.006,48.991 C18.923,49.077 18.855,49.177 18.796,49.281 C18.752,49.361 18.716,49.443 18.688,49.53 C18.648,49.651 18.623,49.779 18.617,49.912 C18.616,49.932 18.611,49.95 18.611,49.969 C18.611,49.991 18.617,50.011 18.618,50.031 C18.637,50.478 18.862,50.869 19.202,51.115 C19.389,51.251 19.61,51.337 19.849,51.368 C19.908,51.376 19.966,51.386 20.027,51.386 L22.655,51.386 C23.022,51.386 23.321,51.686 23.321,52.053 C23.321,52.423 23.022,52.722 22.655,52.722" id="Fill-33"></path>
            <path d="M38.584,17.104 L41.505,17.104 C41.531,17.104 41.553,17.115 41.578,17.118 C41.713,17.132 41.833,17.18 41.938,17.254 C42.137,17.394 42.276,17.615 42.276,17.876 C42.276,18.213 42.058,18.492 41.757,18.599 C41.701,18.618 41.641,18.628 41.58,18.635 C41.554,18.637 41.532,18.65 41.505,18.65 L38.584,18.65 L38.584,17.104 Z M37.834,17.835 L37.834,20.33 L36.929,20.33 C36.722,20.33 36.554,20.499 36.554,20.705 C36.554,20.878 36.672,21.016 36.83,21.06 C36.862,21.07 36.894,21.08 36.929,21.08 L37.834,21.08 L37.834,21.319 C37.834,21.526 38.002,21.694 38.209,21.694 C38.254,21.694 38.296,21.682 38.336,21.668 C38.48,21.615 38.584,21.481 38.584,21.319 L38.584,21.08 L39.492,21.08 C39.699,21.08 39.867,20.912 39.867,20.705 C39.867,20.499 39.699,20.33 39.492,20.33 L38.584,20.33 L38.584,19.4 L41.505,19.4 C41.555,19.4 41.603,19.389 41.651,19.385 C42.421,19.31 43.026,18.666 43.026,17.876 C43.026,17.228 42.618,16.677 42.045,16.457 C41.93,16.412 41.806,16.385 41.679,16.37 C41.621,16.364 41.565,16.353 41.505,16.353 L36.929,16.353 C36.829,16.353 36.739,16.393 36.671,16.458 C36.6,16.527 36.554,16.622 36.554,16.728 C36.554,16.77 36.565,16.81 36.578,16.847 C36.618,16.965 36.714,17.053 36.837,17.085 C36.867,17.093 36.896,17.104 36.929,17.104 L37.834,17.104 L37.834,17.835 Z" id="Fill-34"></path>
            <path d="M61.224,51.885 C61.114,51.828 60.993,51.839 60.891,51.89 C60.821,51.925 60.758,51.976 60.72,52.052 C60.56,52.37 60.325,52.625 60.06,52.837 C60.032,52.859 60.006,52.885 59.978,52.906 C59.822,53.018 59.655,53.106 59.477,53.177 C59.295,53.249 59.107,53.295 58.91,53.319 C58.815,53.332 58.725,53.359 58.629,53.359 C57.855,53.359 57.174,52.978 56.746,52.4 C56.706,52.345 56.669,52.288 56.633,52.231 L57.689,52.231 C57.896,52.231 58.064,52.063 58.064,51.856 C58.064,51.649 57.896,51.481 57.689,51.481 L56.33,51.481 C56.315,51.41 56.315,51.334 56.307,51.261 C56.298,51.179 56.282,51.098 56.282,51.013 C56.282,50.852 56.299,50.696 56.33,50.544 L57.689,50.544 C57.722,50.544 57.752,50.533 57.782,50.525 C57.943,50.482 58.064,50.343 58.064,50.169 C58.064,50.107 58.045,50.051 58.018,50 C57.956,49.879 57.834,49.794 57.689,49.794 L56.633,49.794 C56.715,49.661 56.807,49.537 56.913,49.424 C57.136,49.182 57.405,48.985 57.712,48.853 C57.806,48.813 57.908,48.787 58.008,48.76 C58.191,48.71 58.381,48.675 58.579,48.671 C58.596,48.671 58.612,48.666 58.629,48.666 C59.515,48.666 60.316,49.168 60.721,49.973 C60.733,49.998 60.752,50.014 60.768,50.035 C60.852,50.14 60.982,50.191 61.114,50.17 C61.151,50.164 61.188,50.158 61.224,50.14 C61.409,50.047 61.484,49.822 61.391,49.637 C61.368,49.591 61.339,49.552 61.315,49.507 C61.233,49.363 61.142,49.228 61.042,49.1 C60.504,48.416 59.713,47.991 58.84,47.931 C58.77,47.927 58.7,47.916 58.629,47.916 C58.423,47.916 58.224,47.939 58.03,47.976 C57.478,48.086 56.986,48.348 56.581,48.708 C56.244,49.008 55.965,49.372 55.784,49.794 L54.809,49.794 C54.805,49.794 54.802,49.796 54.798,49.796 C54.597,49.802 54.434,49.966 54.434,50.169 C54.434,50.216 54.445,50.261 54.461,50.303 C54.503,50.412 54.596,50.491 54.71,50.524 C54.742,50.533 54.774,50.544 54.809,50.544 L55.58,50.544 C55.556,50.698 55.532,50.852 55.532,51.013 C55.532,51.102 55.551,51.186 55.559,51.274 C55.564,51.343 55.569,51.412 55.58,51.481 L54.809,51.481 C54.602,51.481 54.434,51.649 54.434,51.856 C54.434,52.03 54.556,52.17 54.717,52.212 C54.748,52.22 54.776,52.231 54.809,52.231 L55.783,52.231 C55.808,52.286 55.843,52.337 55.871,52.39 C55.974,52.596 56.099,52.786 56.243,52.962 C56.269,52.995 56.294,53.027 56.322,53.058 C56.72,53.507 57.242,53.836 57.837,53.994 C58.092,54.061 58.354,54.109 58.629,54.109 C58.766,54.109 58.901,54.099 59.035,54.08 C59.105,54.072 59.172,54.055 59.241,54.04 C59.328,54.023 59.415,54.007 59.499,53.982 C59.682,53.928 59.856,53.852 60.025,53.765 C60.601,53.47 61.085,52.998 61.391,52.387 C61.484,52.203 61.409,51.978 61.224,51.885" id="Fill-35"></path>
        </g>
    </g>
</svg>