<?xml version="1.0" encoding="UTF-8"?>
<svg width="81px" height="79px" viewBox="0 0 81 79" version="1.1" xmlns="http://www.w3.org/2000/svg" xmlns:xlink="http://www.w3.org/1999/xlink">
    <!-- Generator: Sketch 49 (51002) - http://www.bohemiancoding.com/sketch -->
    <title>bitcoin-grey-35</title>
    <desc>Created with Sketch.</desc>
    <defs></defs>
    <g id="Page-1" stroke="none" stroke-width="1" fill="none" fill-rule="evenodd">
        <g id="bitcoin-grey-35" transform="translate(-1.000000, 0.000000)">
            <path d="M11.602,31.774 L18.461,34.99 C18.512,35.015 18.566,35.026 18.619,35.026 C18.761,35.026 18.896,34.946 18.959,34.81 C19.047,34.622 18.967,34.399 18.779,34.312 L11.921,31.095 C11.734,31.007 11.51,31.088 11.422,31.276 C11.334,31.463 11.415,31.686 11.602,31.774" id="Fill-1" fill="#000000"></path>
            <path d="M34.286,17.65 L35.799,24.165 C35.839,24.338 35.993,24.456 36.164,24.456 C36.192,24.456 36.221,24.452 36.249,24.446 C36.451,24.399 36.576,24.197 36.529,23.995 L35.017,17.481 C34.971,17.279 34.769,17.154 34.566,17.2 C34.365,17.246 34.239,17.448 34.286,17.65" id="Fill-2" fill="#000000"></path>
            <path d="M33.604,14.714 C33.645,14.887 33.799,15.004 33.97,15.004 C33.998,15.004 34.026,15.001 34.055,14.995 C34.257,14.947 34.382,14.746 34.335,14.545 L33.504,10.965 C33.457,10.763 33.254,10.637 33.054,10.684 C32.853,10.732 32.727,10.933 32.773,11.135 L33.604,14.714" id="Fill-3" fill="#000000"></path>
            <path d="M30.72,32.849 C30.794,32.942 30.902,32.989 31.012,32.989 C31.095,32.989 31.178,32.963 31.247,32.907 C31.408,32.778 31.434,32.541 31.305,32.38 L29.183,29.738 C29.053,29.575 28.816,29.55 28.655,29.68 C28.493,29.81 28.468,30.046 28.598,30.208 L30.72,32.849" id="Fill-4" fill="#000000"></path>
            <path d="M25.975,26.942 C26.049,27.034 26.157,27.082 26.267,27.082 C26.35,27.082 26.433,27.055 26.502,27 C26.663,26.869 26.688,26.634 26.56,26.472 L21.98,20.767 C21.849,20.606 21.613,20.58 21.452,20.71 C21.29,20.84 21.265,21.076 21.395,21.238 L25.975,26.942" id="Fill-5" fill="#000000"></path>
            <path d="M46.518,20.636 C46.545,20.641 46.572,20.645 46.6,20.645 C46.772,20.645 46.926,20.526 46.965,20.35 L49.027,11.049 C49.072,10.847 48.944,10.648 48.742,10.602 C48.54,10.557 48.341,10.686 48.295,10.887 L46.232,20.189 C46.188,20.39 46.315,20.591 46.518,20.636" id="Fill-6" fill="#000000"></path>
            <path d="M55.568,27.082 C55.68,27.082 55.79,27.033 55.863,26.939 L61.473,19.824 C61.602,19.662 61.573,19.426 61.411,19.299 C61.247,19.169 61.012,19.199 60.884,19.361 L55.274,26.474 C55.146,26.637 55.174,26.874 55.337,27.001 C55.405,27.055 55.487,27.082 55.568,27.082" id="Fill-7" fill="#000000"></path>
            <path d="M48.632,35.513 C48.7,35.567 48.782,35.593 48.863,35.593 C48.975,35.593 49.084,35.545 49.158,35.451 L52.736,30.911 C52.864,30.748 52.837,30.512 52.674,30.385 C52.512,30.257 52.274,30.284 52.147,30.447 L48.569,34.987 C48.44,35.149 48.469,35.385 48.632,35.513" id="Fill-8" fill="#000000"></path>
            <path d="M66.891,32.885 C66.946,32.885 67.003,32.872 67.056,32.846 L70.452,31.173 C70.639,31.082 70.715,30.856 70.623,30.67 C70.532,30.485 70.307,30.408 70.121,30.5 L66.725,32.173 C66.539,32.265 66.463,32.489 66.554,32.675 C66.619,32.807 66.752,32.885 66.891,32.885" id="Fill-9" fill="#000000"></path>
            <path d="M60.666,35.515 C60.73,35.647 60.864,35.723 61.003,35.723 C61.058,35.723 61.114,35.712 61.168,35.686 L65.782,33.415 L65.689,33.043 L65.451,32.742 L60.837,35.012 C60.65,35.104 60.574,35.328 60.666,35.515" id="Fill-10" fill="#000000"></path>
            <path d="M58.384,53.525 C56.669,53.035 54.935,52.595 53.186,52.202 C54.168,51.032 55.146,49.709 56.037,48.219 C56.802,46.862 57.416,45.148 57.881,43.119 C62.177,41.972 66.604,41.182 71.16,40.802 C65.769,47.065 61.577,51.019 58.384,53.525 Z M65.062,56.503 C64.889,56.569 64.686,56.648 64.448,56.739 C61.653,57.821 55.837,60.072 51.449,60.486 C51.415,60.492 51.378,60.495 51.344,60.501 C51.517,59.92 51.609,59.307 51.609,58.676 C51.609,58.565 51.595,58.458 51.589,58.348 C52.192,58.119 52.796,57.885 53.392,57.624 C54.934,56.907 56.662,55.804 58.545,54.35 C60.75,54.989 62.926,55.704 65.062,56.503 Z M30.671,60.484 C26.303,60.072 20.484,57.821 17.688,56.738 C17.452,56.647 17.251,56.569 17.079,56.503 C19.215,55.703 21.392,54.989 23.597,54.349 C25.481,55.804 27.212,56.909 28.757,57.628 C30.135,58.23 31.538,58.743 32.957,59.174 L32.957,60.785 C32.174,60.697 31.407,60.598 30.671,60.484 Z M10.981,40.802 C15.537,41.182 19.965,41.972 24.26,43.119 C24.726,45.149 25.342,46.867 26.109,48.227 C26.998,49.714 27.974,51.035 28.954,52.202 C27.205,52.595 25.472,53.035 23.757,53.524 C20.562,51.018 16.371,47.065 10.981,40.802 Z M24.007,29.135 C28.176,32.615 31.749,36.321 34.745,40.204 C34.748,41.136 34.78,42.044 34.837,42.92 L31.916,42.92 C31.124,42.92 30.429,43.432 30.143,44.136 C28.419,43.524 26.661,42.995 24.889,42.511 C24.227,39.42 23.806,35.117 24.007,29.135 Z M35.491,39.606 C35.581,36.558 36.626,31.116 41.07,22.453 C45.515,31.113 46.56,36.556 46.649,39.598 C46.65,39.713 46.647,39.823 46.647,39.937 C46.278,40.42 45.921,40.907 45.569,41.397 C45.349,40.584 44.611,39.982 43.729,39.982 C42.675,39.982 41.816,40.839 41.816,41.892 L41.816,42.92 L38.973,42.92 L38.973,41.892 C38.973,40.839 38.115,39.982 37.062,39.982 C36.607,39.982 36.196,40.148 35.867,40.411 C35.747,40.252 35.615,40.096 35.493,39.937 C35.493,39.825 35.49,39.718 35.491,39.606 Z M50.368,51.617 C50.63,50.96 50.779,50.245 50.779,49.509 C50.779,48.174 50.344,46.917 49.628,45.856 C52.054,44.887 54.531,44.049 57.06,43.342 C56.562,45.377 55.96,46.828 55.389,47.842 C54.445,49.42 53.402,50.814 52.364,52.023 C51.7,51.881 51.035,51.745 50.368,51.617 Z M50.384,55.162 C51.101,54.493 51.862,53.719 52.633,52.847 C54.319,53.217 55.991,53.632 57.646,54.094 C55.758,55.513 54.248,56.399 53.083,56.941 C52.558,57.171 52.024,57.374 51.491,57.579 C51.318,56.697 50.942,55.877 50.384,55.162 Z M32.957,56.235 L32.957,58.384 C31.643,57.974 30.341,57.502 29.065,56.944 C27.897,56.401 26.386,55.515 24.494,54.093 C26.149,53.632 27.821,53.218 29.507,52.847 C30.728,54.228 31.93,55.36 32.957,56.235 Z M32.957,55.245 C32.151,54.535 31.26,53.672 30.35,52.668 C31.215,52.486 32.084,52.316 32.957,52.158 L32.957,55.245 Z M48.841,53.752 C49.321,53.356 49.722,52.865 50.035,52.316 C50.622,52.427 51.207,52.545 51.79,52.668 C51.138,53.387 50.496,54.035 49.888,54.605 C49.574,54.292 49.229,54.003 48.841,53.752 Z M46.634,41.196 C46.614,41.937 46.576,42.66 46.522,43.362 C46.236,43.252 45.946,43.149 45.643,43.081 L45.643,42.595 C45.968,42.127 46.292,41.659 46.634,41.196 Z M30.008,44.888 C30.038,45.917 30.88,46.746 31.916,46.746 L32.957,46.746 L32.957,51.391 C31.892,51.583 30.832,51.796 29.776,52.023 C28.739,50.816 27.698,49.424 26.758,47.85 C26.184,46.833 25.581,45.378 25.081,43.342 C26.742,43.807 28.39,44.31 30.008,44.888 Z M50.151,61.414 C49.193,63.161 47.358,64.382 45.255,64.445 C45.052,64.451 44.891,64.617 44.891,64.821 L44.891,66.295 C44.891,66.936 44.369,67.457 43.729,67.457 C43.088,67.457 42.565,66.936 42.565,66.295 L42.565,64.828 C42.565,64.621 42.397,64.453 42.19,64.453 L38.598,64.453 C38.391,64.453 38.223,64.621 38.223,64.828 L38.223,66.295 C38.223,66.936 37.701,67.457 37.059,67.457 C36.418,67.457 35.897,66.936 35.897,66.295 L35.897,64.828 C35.897,64.621 35.729,64.453 35.522,64.453 L31.916,64.453 C31.296,64.453 30.752,63.911 30.752,63.292 C30.752,62.644 31.285,62.097 31.916,62.097 L33.332,62.097 C33.539,62.097 33.707,61.929 33.707,61.723 L33.707,46.371 C33.707,46.353 33.699,46.338 33.697,46.321 C33.671,46.139 33.521,45.996 33.332,45.996 L31.916,45.996 C31.402,45.996 30.979,45.657 30.825,45.194 C30.787,45.079 30.752,44.961 30.752,44.833 C30.752,44.683 30.787,44.54 30.844,44.406 C31.021,43.985 31.445,43.67 31.916,43.67 L35.523,43.67 C35.563,43.67 35.601,43.659 35.638,43.647 C35.787,43.597 35.898,43.461 35.898,43.295 L35.898,41.892 C35.898,41.845 35.919,41.804 35.925,41.757 C35.961,41.465 36.097,41.208 36.31,41.025 C36.514,40.848 36.771,40.732 37.062,40.732 C37.702,40.732 38.223,41.253 38.223,41.892 L38.223,43.295 C38.223,43.502 38.391,43.67 38.598,43.67 L42.191,43.67 C42.398,43.67 42.566,43.502 42.566,43.295 L42.566,41.892 C42.566,41.253 43.089,40.732 43.729,40.732 C44.371,40.732 44.893,41.253 44.893,41.892 L44.893,43.389 C44.893,43.463 44.927,43.527 44.965,43.585 C45.02,43.671 45.098,43.74 45.204,43.758 C45.643,43.834 46.056,43.975 46.453,44.146 C46.7,44.252 46.944,44.363 47.172,44.5 C47.633,44.778 48.043,45.129 48.41,45.52 C48.593,45.714 48.759,45.92 48.914,46.136 C49.605,47.104 50.029,48.267 50.029,49.509 C50.029,50.201 49.879,50.868 49.616,51.473 C49.511,51.717 49.389,51.95 49.246,52.169 C48.907,52.691 48.475,53.139 47.957,53.469 C47.845,53.541 47.778,53.668 47.784,53.801 C47.789,53.933 47.864,54.054 47.982,54.117 C48.497,54.391 48.944,54.732 49.332,55.115 C49.512,55.292 49.676,55.479 49.825,55.675 C50.318,56.321 50.649,57.06 50.783,57.854 C50.826,58.105 50.853,58.36 50.856,58.619 C50.856,58.639 50.859,58.657 50.859,58.676 C50.859,59.352 50.732,60.003 50.512,60.61 C50.41,60.888 50.293,61.157 50.151,61.414 Z M58.134,29.135 C58.333,35.119 57.913,39.421 57.252,42.511 C54.496,43.264 51.796,44.168 49.16,45.23 C48.626,44.608 47.978,44.093 47.249,43.703 C47.341,42.589 47.392,41.414 47.396,40.203 C50.392,36.321 53.965,32.615 58.134,29.135 Z M72.02,39.983 C67.226,40.327 62.57,41.119 58.057,42.299 C58.783,38.687 59.065,34.158 58.875,28.856 C58.866,28.624 58.86,28.471 58.861,28.406 C58.875,28.303 58.847,28.195 58.774,28.111 C58.641,27.956 58.41,27.936 58.252,28.065 C54.043,31.512 50.417,35.184 47.357,39.036 C47.09,34.567 45.122,28.657 41.609,21.863 C41.51,21.67 41.444,21.545 41.441,21.545 C41.427,21.471 41.391,21.406 41.34,21.356 C41.26,21.263 41.145,21.203 41.021,21.222 C40.864,21.245 40.749,21.339 40.718,21.495 C40.696,21.544 40.63,21.672 40.527,21.869 C37.019,28.66 35.053,34.567 34.784,39.036 C31.724,35.184 28.099,31.512 23.89,28.065 C23.73,27.934 23.498,27.956 23.366,28.111 C23.295,28.196 23.267,28.303 23.28,28.405 C23.28,28.469 23.274,28.62 23.267,28.848 C23.074,34.153 23.355,38.683 24.084,42.299 C19.57,41.119 14.915,40.327 10.122,39.983 C9.922,39.971 9.742,40.118 9.722,40.319 C9.709,40.446 9.762,40.566 9.852,40.642 C9.903,40.697 10.04,40.857 10.251,41.104 C14.913,46.536 19.176,50.81 22.87,53.779 C20.485,54.485 18.138,55.282 15.837,56.174 C15.835,56.174 15.832,56.175 15.832,56.175 C15.812,56.183 15.791,56.194 15.772,56.204 C15.607,56.306 15.548,56.515 15.634,56.69 C15.697,56.819 15.828,56.896 15.965,56.899 C16.126,56.938 16.754,57.18 17.417,57.437 C20.245,58.531 26.129,60.808 30.578,61.228 C30.931,61.283 31.312,61.324 31.676,61.373 C30.748,61.498 30.002,62.321 30.002,63.292 C30.002,64.327 30.879,65.203 31.916,65.203 L35.147,65.203 L35.147,66.295 C35.147,67.349 36.005,68.208 37.059,68.208 C38.114,68.208 38.973,67.349 38.973,66.295 L38.973,65.203 L41.815,65.203 L41.815,66.295 C41.815,67.349 42.674,68.208 43.729,68.208 C44.783,68.208 45.641,67.349 45.641,66.295 L45.641,65.173 C48.047,64.965 50.093,63.414 51.041,61.297 C51.204,61.273 51.381,61.256 51.542,61.231 C56.011,60.808 61.893,58.532 64.719,57.439 C65.375,57.184 65.997,56.944 66.17,56.9 C66.171,56.9 66.172,56.9 66.173,56.9 C66.312,56.9 66.444,56.823 66.51,56.691 C66.596,56.516 66.534,56.305 66.367,56.204 C66.349,56.193 66.326,56.182 66.304,56.174 C64.003,55.282 61.655,54.486 59.271,53.779 C62.964,50.812 67.227,46.536 71.89,41.104 C72.102,40.857 72.237,40.697 72.289,40.642 C72.381,40.565 72.433,40.445 72.419,40.317 C72.398,40.115 72.225,39.971 72.02,39.983 Z" id="Fill-11" fill="#000000"></path>
            <path d="M47.58,59.612 C47.348,60.24 46.889,60.745 46.293,61.045 C45.921,61.232 45.504,61.347 45.051,61.347 L36.813,61.347 L36.813,56.007 L45.082,56.007 C45.889,56.007 46.604,56.374 47.095,56.94 C47.259,57.129 47.399,57.337 47.505,57.567 C47.661,57.906 47.754,58.279 47.754,58.676 C47.754,58.717 47.744,58.753 47.742,58.793 C47.73,59.082 47.674,59.356 47.58,59.612 Z M48.106,57.111 C47.989,56.887 47.851,56.679 47.69,56.488 C47.061,55.741 46.132,55.257 45.082,55.257 L36.437,55.257 C36.23,55.257 36.063,55.425 36.063,55.632 L36.063,61.723 C36.063,61.753 36.073,61.781 36.08,61.808 C36.12,61.973 36.261,62.097 36.437,62.097 L45.051,62.097 C45.571,62.097 46.058,61.982 46.496,61.785 C46.944,61.585 47.332,61.291 47.649,60.93 C48.029,60.498 48.31,59.978 48.431,59.387 C48.479,59.158 48.504,58.92 48.504,58.676 C48.504,58.648 48.497,58.623 48.496,58.596 C48.483,58.058 48.34,57.558 48.106,57.111 Z" id="Fill-12" fill="#000000"></path>
            <path d="M36.813,46.902 L36.813,46.746 L44.251,46.746 C44.594,46.746 44.923,46.821 45.228,46.947 C45.509,47.062 45.762,47.229 45.989,47.428 C46.001,47.439 46.014,47.449 46.025,47.46 C46.279,47.69 46.489,47.966 46.646,48.276 C46.836,48.651 46.954,49.067 46.954,49.509 C46.954,50.042 46.792,50.535 46.52,50.952 C46.36,51.196 46.159,51.405 45.932,51.585 C45.925,51.59 45.918,51.596 45.911,51.602 C45.652,51.803 45.357,51.956 45.034,52.053 C44.785,52.128 44.525,52.18 44.251,52.18 L36.813,52.18 L36.813,46.902 Z M36.437,52.931 L44.251,52.931 C44.439,52.931 44.621,52.905 44.802,52.876 C45.1,52.827 45.386,52.748 45.653,52.629 C46.107,52.428 46.503,52.129 46.828,51.764 C47.014,51.556 47.171,51.327 47.301,51.079 C47.55,50.607 47.704,50.078 47.704,49.509 C47.704,48.639 47.363,47.839 46.825,47.217 C46.79,47.177 46.761,47.132 46.725,47.093 C46.552,46.911 46.365,46.744 46.159,46.602 C46.136,46.586 46.108,46.576 46.085,46.561 C45.549,46.209 44.921,45.996 44.251,45.996 L36.437,45.996 C36.23,45.996 36.063,46.164 36.063,46.371 L36.063,52.555 C36.063,52.763 36.23,52.931 36.437,52.931 Z" id="Fill-13" fill="#000000"></path>
            <polyline id="Fill-14" fill="#000000" points="7.494 49.359 7.362 48.979 6.046 50.457 6.493 51.738 8.442 52.076 8.31 51.697 9.123 51.413 9.777 53.289 8.965 53.573 8.759 52.984 5.855 52.522 5.598 51.784 4.642 52.117 4.831 52.659 4.018 52.943 3.361 51.06 4.174 50.776 4.358 51.304 5.313 50.971 5.059 50.239 7.044 48.066 6.84 47.483 7.652 47.199 8.308 49.076 7.494 49.359"></polyline>
            <path d="M10.792,56.661 C10.642,56.405 10.464,56.192 10.259,56.021 C10.053,55.851 9.834,55.727 9.601,55.65 C9.367,55.573 9.125,55.548 8.873,55.574 C8.622,55.599 8.379,55.68 8.144,55.818 C7.908,55.956 7.718,56.129 7.574,56.336 C7.429,56.543 7.333,56.767 7.286,57.008 C7.238,57.249 7.239,57.501 7.288,57.764 C7.337,58.026 7.436,58.285 7.586,58.541 C7.746,58.814 7.929,59.036 8.136,59.209 C8.342,59.381 8.561,59.504 8.792,59.577 C9.023,59.649 9.262,59.669 9.511,59.638 C9.758,59.606 9.999,59.522 10.234,59.383 C10.47,59.246 10.662,59.076 10.81,58.875 C10.958,58.675 11.058,58.456 11.106,58.218 C11.156,57.982 11.156,57.73 11.106,57.466 C11.056,57.201 10.952,56.933 10.792,56.661 Z M7.697,55.058 C8.065,54.842 8.435,54.719 8.808,54.689 C9.181,54.659 9.536,54.702 9.875,54.82 C10.212,54.938 10.525,55.119 10.813,55.364 C11.101,55.608 11.341,55.895 11.534,56.225 C11.738,56.572 11.876,56.93 11.949,57.3 C12.022,57.671 12.026,58.03 11.962,58.379 C11.898,58.728 11.76,59.055 11.548,59.361 C11.337,59.668 11.048,59.93 10.681,60.145 C10.326,60.353 9.964,60.474 9.596,60.507 C9.227,60.54 8.873,60.501 8.533,60.39 C8.193,60.279 7.877,60.102 7.586,59.86 C7.294,59.618 7.047,59.323 6.843,58.977 C6.65,58.647 6.518,58.296 6.446,57.924 C6.375,57.553 6.373,57.19 6.44,56.835 C6.506,56.48 6.643,56.147 6.849,55.838 C7.055,55.528 7.338,55.268 7.697,55.058 Z" id="Fill-15" fill="#000000"></path>
            <path d="M14.979,62.381 C14.782,62.159 14.566,61.985 14.331,61.857 C14.097,61.73 13.857,61.652 13.613,61.622 C13.37,61.592 13.127,61.614 12.885,61.688 C12.644,61.761 12.421,61.889 12.217,62.07 C12.013,62.251 11.86,62.457 11.758,62.688 C11.657,62.919 11.605,63.158 11.606,63.403 C11.607,63.649 11.657,63.896 11.756,64.144 C11.854,64.392 12.002,64.627 12.199,64.849 C12.406,65.082 12.624,65.262 12.854,65.391 C13.083,65.52 13.317,65.6 13.556,65.631 L14.205,65.055 L12.752,63.418 L13.396,62.846 L15.421,65.127 L13.918,66.461 C13.489,66.496 13.068,66.422 12.655,66.238 C12.243,66.054 11.876,65.782 11.556,65.421 C11.302,65.135 11.104,64.816 10.962,64.466 C10.819,64.115 10.747,63.759 10.743,63.398 C10.739,63.037 10.808,62.684 10.95,62.34 C11.093,61.997 11.319,61.686 11.631,61.41 C11.949,61.127 12.289,60.935 12.648,60.833 C13.009,60.73 13.366,60.704 13.721,60.754 C14.075,60.804 14.417,60.921 14.747,61.104 C15.076,61.288 15.368,61.523 15.623,61.81 C15.832,62.046 16,62.265 16.125,62.467 C16.25,62.669 16.347,62.857 16.417,63.028 C16.486,63.2 16.534,63.357 16.559,63.496 C16.585,63.638 16.606,63.764 16.623,63.877 L15.931,64.491 L15.406,63.901 L15.662,63.627 C15.644,63.527 15.622,63.432 15.595,63.34 C15.568,63.249 15.529,63.154 15.478,63.056 C15.425,62.958 15.359,62.855 15.279,62.747 C15.199,62.639 15.1,62.518 14.979,62.381" id="Fill-16" fill="#000000"></path>
            <path d="M17.508,67.764 L19.217,69.083 L20.005,67.054 L19.278,66.492 L17.508,67.764 Z M19.282,72.134 L17.704,70.915 L18.229,70.233 L18.645,70.554 L18.896,69.923 L16.777,68.288 L16.225,68.686 L16.64,69.006 L16.113,69.687 L14.54,68.473 L15.066,67.791 L15.515,68.138 L18.562,65.94 L18.204,65.664 L18.73,64.982 L21.043,66.767 L19.36,71.106 L19.809,71.453 L19.282,72.134 Z" id="Fill-17" fill="#000000"></path>
            <polyline id="Fill-18" fill="#000000" points="26.144 75.618 24.29 74.899 24.602 74.096 25.123 74.298 26.426 70.94 25.904 70.738 26.216 69.936 31.199 71.868 30.657 73.266 29.921 72.981 30.085 72.359 27.229 71.252 26.785 72.395 29.16 73.317 28.848 74.119 26.474 73.198 25.926 74.61 26.455 74.815 26.144 75.618"></polyline>
            <path d="M34.654,73.423 C34.362,73.369 34.085,73.364 33.821,73.407 C33.558,73.451 33.321,73.536 33.109,73.663 C32.899,73.789 32.721,73.955 32.576,74.162 C32.431,74.369 32.333,74.606 32.284,74.874 C32.233,75.142 32.24,75.399 32.302,75.644 C32.364,75.889 32.47,76.108 32.622,76.301 C32.773,76.494 32.964,76.659 33.194,76.794 C33.425,76.929 33.686,77.024 33.978,77.078 C34.288,77.135 34.576,77.142 34.842,77.099 C35.108,77.056 35.344,76.97 35.55,76.843 C35.756,76.716 35.928,76.548 36.065,76.34 C36.204,76.132 36.298,75.894 36.348,75.626 C36.397,75.358 36.395,75.102 36.34,74.859 C36.285,74.615 36.185,74.397 36.038,74.205 C35.891,74.012 35.701,73.848 35.469,73.712 C35.235,73.577 34.964,73.48 34.654,73.423 Z M31.416,74.714 C31.493,74.295 31.643,73.934 31.864,73.633 C32.085,73.331 32.351,73.09 32.661,72.912 C32.972,72.733 33.313,72.615 33.687,72.558 C34.06,72.501 34.434,72.506 34.811,72.576 C35.205,72.649 35.567,72.78 35.895,72.967 C36.223,73.154 36.497,73.386 36.718,73.663 C36.939,73.94 37.097,74.258 37.19,74.619 C37.285,74.979 37.293,75.368 37.215,75.787 C37.141,76.191 36.995,76.544 36.779,76.845 C36.562,77.145 36.301,77.387 35.995,77.571 C35.689,77.756 35.348,77.878 34.975,77.94 C34.601,78.003 34.216,77.998 33.82,77.924 C33.444,77.854 33.093,77.725 32.765,77.535 C32.438,77.346 32.161,77.11 31.937,76.828 C31.712,76.545 31.55,76.225 31.451,75.866 C31.352,75.507 31.34,75.123 31.416,74.714 Z" id="Fill-19" fill="#000000"></path>
            <path d="M43.174,75.075 C43.172,74.932 43.142,74.797 43.085,74.671 C43.028,74.545 42.952,74.436 42.857,74.344 C42.763,74.252 42.65,74.179 42.521,74.126 C42.391,74.074 42.254,74.048 42.11,74.05 L40.188,74.079 L40.219,76.166 L42.185,76.137 C42.323,76.135 42.453,76.106 42.575,76.049 C42.696,75.992 42.801,75.915 42.891,75.818 C42.979,75.721 43.05,75.609 43.101,75.481 C43.151,75.354 43.176,75.218 43.174,75.075 Z M40.821,78.533 L38.834,78.562 L38.821,77.702 L39.381,77.693 L39.327,74.092 L38.767,74.1 L38.755,73.239 L42.148,73.189 C42.392,73.185 42.626,73.23 42.85,73.325 C43.073,73.42 43.275,73.555 43.455,73.729 C43.639,73.908 43.781,74.11 43.88,74.336 C43.979,74.562 44.03,74.803 44.034,75.062 C44.038,75.32 43.994,75.565 43.902,75.796 C43.81,76.027 43.674,76.235 43.495,76.419 C43.25,76.672 42.965,76.843 42.642,76.934 L42.768,77.212 C42.906,77.512 43.1,77.659 43.348,77.656 C43.482,77.653 43.598,77.624 43.695,77.568 C43.792,77.511 43.888,77.435 43.982,77.338 L44.53,77.954 C44.355,78.133 44.18,78.271 44.005,78.367 C43.829,78.463 43.615,78.513 43.361,78.516 C43.012,78.522 42.721,78.435 42.489,78.257 C42.257,78.079 42.064,77.825 41.911,77.498 L41.681,77.006 L40.231,77.028 L40.241,77.68 L40.809,77.672 L40.821,78.533 Z" id="Fill-20" fill="#000000"></path>
            <path d="M53.148,74.162 L50.852,74.87 L51.298,76.317 L53.574,75.615 C53.675,75.584 53.763,75.535 53.837,75.469 C53.912,75.404 53.973,75.33 54.02,75.245 C54.066,75.16 54.095,75.068 54.106,74.966 C54.118,74.865 54.108,74.765 54.077,74.664 C54.047,74.568 54.001,74.482 53.938,74.406 C53.874,74.331 53.799,74.272 53.713,74.228 C53.627,74.185 53.536,74.156 53.439,74.143 C53.343,74.131 53.246,74.137 53.148,74.162 Z M53.056,72.644 C53.006,72.484 52.907,72.364 52.758,72.285 C52.608,72.206 52.453,72.191 52.293,72.241 L50.236,72.875 L50.598,74.047 L52.654,73.412 C52.737,73.388 52.809,73.348 52.87,73.294 C52.931,73.241 52.979,73.179 53.016,73.11 C53.052,73.041 53.074,72.967 53.082,72.887 C53.09,72.807 53.081,72.726 53.056,72.644 Z M53.828,76.437 L50.194,77.559 L49.94,76.735 L50.475,76.571 L49.414,73.129 L48.879,73.294 L48.625,72.471 L52.04,71.418 C52.231,71.358 52.424,71.339 52.619,71.36 C52.813,71.38 52.993,71.434 53.161,71.523 C53.328,71.611 53.475,71.73 53.601,71.878 C53.727,72.027 53.819,72.198 53.878,72.39 C53.93,72.555 53.95,72.719 53.941,72.885 C53.932,73.05 53.9,73.207 53.845,73.354 C54.096,73.421 54.316,73.554 54.505,73.751 C54.693,73.948 54.825,74.168 54.899,74.41 C54.966,74.625 54.987,74.839 54.962,75.052 C54.938,75.265 54.876,75.463 54.778,75.649 C54.68,75.834 54.551,75.996 54.388,76.134 C54.225,76.271 54.038,76.373 53.828,76.437 Z" id="Fill-21" fill="#000000"></path>
            <polyline id="Fill-22" fill="#000000" points="58.788 74.364 56.976 75.213 56.61 74.434 57.123 74.193 55.595 70.931 55.081 71.172 54.716 70.392 56.521 69.545 56.888 70.326 56.374 70.566 57.903 73.827 58.423 73.584 58.788 74.364"></polyline>
            <polyline id="Fill-23" fill="#000000" points="58.981 69.973 58.322 70.407 57.497 69.155 62.319 65.977 63.145 67.229 62.485 67.663 62.074 67.169 60.738 68.05 62.721 71.057 63.194 70.745 63.668 71.464 62.002 72.562 61.528 71.843 62.002 71.531 60.02 68.523 58.689 69.4 58.981 69.973"></polyline>
            <path d="M65.692,63.921 C65.479,64.127 65.314,64.35 65.197,64.591 C65.08,64.83 65.011,65.072 64.992,65.317 C64.973,65.562 65.005,65.804 65.089,66.042 C65.173,66.281 65.31,66.497 65.5,66.694 C65.689,66.889 65.902,67.033 66.137,67.125 C66.372,67.217 66.612,67.257 66.858,67.246 C67.103,67.235 67.348,67.175 67.592,67.065 C67.835,66.956 68.063,66.799 68.277,66.592 C68.559,66.319 68.758,66.032 68.875,65.729 C68.992,65.427 69.028,65.126 68.986,64.828 L69.849,64.802 C69.886,65.232 69.82,65.657 69.65,66.077 C69.481,66.497 69.223,66.875 68.876,67.211 C68.601,67.477 68.291,67.688 67.946,67.845 C67.603,68.002 67.25,68.09 66.889,68.109 C66.528,68.129 66.174,68.075 65.824,67.947 C65.474,67.819 65.154,67.606 64.865,67.307 C64.569,67.001 64.362,66.67 64.245,66.315 C64.127,65.959 64.086,65.604 64.121,65.247 C64.155,64.891 64.257,64.544 64.427,64.207 C64.597,63.87 64.819,63.568 65.094,63.302 C65.321,63.083 65.533,62.906 65.73,62.772 C65.926,62.638 66.109,62.533 66.277,62.456 C66.446,62.38 66.601,62.326 66.74,62.294 C66.879,62.263 67.005,62.236 67.116,62.214 L67.76,62.879 L67.192,63.428 L66.907,63.185 C66.809,63.207 66.715,63.233 66.625,63.264 C66.534,63.295 66.441,63.338 66.346,63.394 C66.251,63.45 66.15,63.52 66.045,63.605 C65.94,63.689 65.823,63.795 65.692,63.921" id="Fill-24" fill="#000000"></path>
            <path d="M69.67,59.254 C69.498,59.496 69.376,59.745 69.304,60.002 C69.233,60.26 69.21,60.511 69.236,60.755 C69.261,61 69.337,61.231 69.463,61.45 C69.589,61.669 69.763,61.857 69.985,62.016 C70.207,62.173 70.442,62.276 70.69,62.324 C70.939,62.372 71.182,62.368 71.421,62.312 C71.661,62.256 71.89,62.153 72.109,62 C72.329,61.848 72.525,61.652 72.697,61.41 C72.881,61.153 73.009,60.895 73.082,60.636 C73.155,60.377 73.177,60.126 73.148,59.886 C73.12,59.645 73.041,59.419 72.911,59.206 C72.78,58.993 72.604,58.807 72.382,58.649 C72.16,58.491 71.927,58.385 71.684,58.332 C71.439,58.278 71.199,58.277 70.963,58.33 C70.726,58.381 70.497,58.484 70.276,58.638 C70.056,58.792 69.854,58.997 69.67,59.254 Z M69.473,62.734 C69.127,62.488 68.862,62.2 68.683,61.872 C68.502,61.544 68.396,61.201 68.365,60.844 C68.335,60.488 68.372,60.128 68.478,59.766 C68.583,59.403 68.747,59.067 68.969,58.755 C69.201,58.427 69.472,58.155 69.78,57.936 C70.089,57.719 70.415,57.568 70.759,57.484 C71.104,57.4 71.458,57.392 71.825,57.459 C72.191,57.526 72.548,57.683 72.895,57.93 C73.23,58.169 73.487,58.45 73.669,58.772 C73.85,59.095 73.959,59.434 73.997,59.79 C74.034,60.146 74.002,60.506 73.901,60.871 C73.799,61.236 73.632,61.583 73.398,61.91 C73.177,62.222 72.91,62.486 72.601,62.703 C72.291,62.919 71.96,63.07 71.609,63.155 C71.258,63.239 70.899,63.251 70.532,63.189 C70.165,63.127 69.812,62.976 69.473,62.734 Z" id="Fill-25" fill="#000000"></path>
            <polyline id="Fill-26" fill="#000000" points="76.812 56.018 75.902 57.801 75.135 57.41 75.393 56.905 72.184 55.269 71.926 55.774 71.159 55.383 72.064 53.606 72.832 53.997 72.574 54.502 75.783 56.138 76.044 55.627 76.812 56.018"></polyline>
            <polyline id="Fill-27" fill="#000000" points="78.276 52.524 77.638 54.406 76.822 54.129 77.002 53.599 73.591 52.441 73.411 52.971 72.596 52.695 73.29 50.649 78.144 50.236 78.21 50.039 74.799 48.881 74.617 49.418 73.802 49.141 74.443 47.252 75.259 47.529 75.076 48.065 78.487 49.224 78.669 48.687 79.484 48.964 78.791 51.009 73.937 51.422 73.868 51.626 77.278 52.784 77.461 52.247 78.276 52.524"></polyline>
            <polyline id="Fill-28" fill="#000000" points="5.267 28.668 5.739 27.139 8.86 27.293 8.941 27.033 5.776 25.078 5.621 25.578 4.799 25.324 5.386 23.425 6.208 23.679 6.041 24.221 9.955 26.671 9.495 28.158 6.364 28.031 6.286 28.285 8.942 29.947 8.482 31.435 3.868 31.247 3.7 31.788 2.878 31.534 3.465 29.636 4.288 29.89 4.133 30.39 7.85 30.563 7.93 30.303 5.267 28.668"></polyline>
            <polyline id="Fill-29" fill="#000000" points="10.202 18.073 9.804 18.755 9.216 18.495 7.851 20.831 8.91 21.45 10.051 19.498 10.794 19.933 9.654 21.884 10.96 22.648 12.362 20.251 11.847 19.867 12.245 19.185 13.54 19.941 10.987 24.309 10.244 23.874 10.526 23.391 7.416 21.574 7.134 22.057 6.391 21.622 8.907 17.317 10.202 18.073"></polyline>
            <polyline id="Fill-30" fill="#000000" points="11.999 14.752 11.629 15.182 14.358 17.532 16.264 15.319 15.826 14.848 16.342 14.251 17.478 15.229 14.083 19.171 13.431 18.609 13.796 18.185 11.066 15.834 10.702 16.258 10.049 15.696 11.347 14.19 11.999 14.752"></polyline>
            <polyline id="Fill-31" fill="#000000" points="16.91 9.844 16.469 10.2 18.728 13.005 21.003 11.174 20.658 10.631 21.273 10.136 22.213 11.304 18.161 14.567 17.621 13.896 18.057 13.545 15.798 10.74 15.362 11.091 14.822 10.42 16.37 9.174 16.91 9.844"></polyline>
            <polyline id="Fill-32" fill="#000000" points="24.735 9.841 22.977 10.768 22.575 10.007 23.07 9.745 21.39 6.56 20.895 6.821 20.493 6.059 22.403 5.051 26.211 8.088 26.396 7.991 24.715 4.805 24.214 5.07 23.812 4.308 25.576 3.377 25.978 4.139 25.477 4.404 27.157 7.589 27.658 7.325 28.061 8.087 26.15 9.094 22.342 6.058 22.151 6.158 23.832 9.343 24.333 9.079 24.735 9.841"></polyline>
            <polyline id="Fill-33" fill="#000000" points="32.597 2.654 31.842 2.883 31.588 2.293 28.999 3.079 29.356 4.253 31.519 3.597 31.769 4.421 29.605 5.077 30.045 6.526 32.702 5.719 32.585 5.087 33.341 4.858 33.776 6.294 28.936 7.762 28.686 6.938 29.221 6.776 28.176 3.329 27.64 3.491 27.39 2.667 32.162 1.22 32.597 2.654"></polyline>
            <path d="M36.84,0.43 C37.106,0.401 37.345,0.384 37.557,0.38 C37.768,0.376 37.968,0.382 38.158,0.4 C38.347,0.417 38.534,0.447 38.716,0.489 C38.899,0.532 39.095,0.584 39.304,0.648 L39.423,1.718 L38.638,1.805 L38.555,1.381 C38.366,1.321 38.136,1.28 37.866,1.258 C37.597,1.238 37.268,1.249 36.877,1.292 C36.588,1.325 36.347,1.37 36.156,1.43 C35.966,1.49 35.816,1.555 35.705,1.624 C35.595,1.695 35.519,1.768 35.478,1.845 C35.435,1.921 35.418,1.993 35.425,2.06 C35.433,2.131 35.456,2.195 35.493,2.251 C35.531,2.307 35.605,2.354 35.718,2.392 C35.831,2.43 35.99,2.457 36.196,2.472 C36.403,2.489 36.679,2.489 37.023,2.475 C37.512,2.454 37.928,2.462 38.271,2.499 C38.614,2.536 38.898,2.607 39.122,2.715 C39.346,2.823 39.516,2.967 39.632,3.15 C39.748,3.331 39.821,3.555 39.851,3.822 C39.877,4.055 39.839,4.283 39.739,4.506 C39.639,4.729 39.48,4.931 39.265,5.114 C39.05,5.297 38.778,5.453 38.451,5.583 C38.123,5.713 37.743,5.802 37.311,5.85 C37.011,5.883 36.724,5.884 36.448,5.852 C36.173,5.82 35.916,5.769 35.677,5.699 C35.438,5.629 35.223,5.546 35.032,5.449 C34.841,5.353 34.682,5.254 34.555,5.152 L35.049,4.462 C35.193,4.552 35.345,4.635 35.502,4.711 C35.66,4.788 35.828,4.851 36.007,4.901 C36.186,4.951 36.377,4.986 36.578,5.004 C36.78,5.023 36.992,5.019 37.216,4.995 C37.548,4.957 37.83,4.9 38.059,4.822 C38.289,4.743 38.473,4.655 38.611,4.555 C38.749,4.455 38.847,4.349 38.904,4.237 C38.962,4.125 38.985,4.019 38.974,3.919 C38.963,3.819 38.926,3.731 38.864,3.653 C38.803,3.575 38.702,3.512 38.562,3.463 C38.422,3.414 38.235,3.38 38.002,3.363 C37.77,3.345 37.476,3.342 37.12,3.352 C36.632,3.368 36.224,3.357 35.897,3.322 C35.571,3.285 35.306,3.218 35.103,3.121 C34.899,3.023 34.75,2.896 34.656,2.74 C34.562,2.585 34.502,2.396 34.478,2.172 C34.453,1.953 34.488,1.748 34.582,1.554 C34.676,1.361 34.823,1.188 35.023,1.036 C35.223,0.884 35.476,0.756 35.782,0.652 C36.088,0.549 36.441,0.475 36.84,0.43" id="Fill-34" fill="#000000"></path>
            <path d="M44.056,0.315 C44.322,0.334 44.561,0.362 44.769,0.397 C44.977,0.432 45.173,0.475 45.356,0.528 C45.54,0.58 45.717,0.644 45.889,0.719 C46.061,0.794 46.243,0.882 46.437,0.983 L46.356,2.056 L45.569,1.997 L45.566,1.565 C45.391,1.47 45.173,1.388 44.912,1.318 C44.65,1.248 44.325,1.198 43.934,1.169 C43.643,1.147 43.398,1.147 43.2,1.171 C43.001,1.195 42.841,1.23 42.72,1.279 C42.599,1.327 42.511,1.385 42.455,1.453 C42.399,1.521 42.37,1.588 42.364,1.655 C42.359,1.727 42.37,1.793 42.396,1.855 C42.422,1.917 42.487,1.977 42.591,2.035 C42.694,2.093 42.847,2.149 43.046,2.203 C43.246,2.257 43.517,2.308 43.858,2.357 C44.343,2.428 44.75,2.512 45.081,2.612 C45.411,2.711 45.677,2.834 45.877,2.981 C46.076,3.128 46.217,3.301 46.298,3.502 C46.378,3.702 46.409,3.936 46.389,4.204 C46.371,4.437 46.292,4.654 46.153,4.855 C46.013,5.055 45.82,5.225 45.574,5.365 C45.329,5.505 45.033,5.609 44.688,5.676 C44.342,5.744 43.952,5.761 43.518,5.728 C43.217,5.705 42.935,5.653 42.67,5.57 C42.405,5.488 42.162,5.391 41.94,5.278 C41.718,5.165 41.523,5.044 41.353,4.914 C41.183,4.783 41.044,4.656 40.939,4.533 L41.551,3.947 C41.677,4.061 41.81,4.171 41.951,4.275 C42.092,4.379 42.245,4.472 42.412,4.554 C42.578,4.636 42.759,4.706 42.954,4.761 C43.149,4.816 43.359,4.853 43.583,4.869 C43.917,4.895 44.203,4.89 44.443,4.855 C44.684,4.821 44.88,4.767 45.035,4.695 C45.189,4.623 45.304,4.536 45.382,4.437 C45.459,4.337 45.501,4.237 45.509,4.137 C45.516,4.036 45.497,3.943 45.451,3.855 C45.404,3.768 45.316,3.687 45.188,3.613 C45.06,3.538 44.883,3.471 44.657,3.41 C44.431,3.351 44.143,3.292 43.792,3.238 C43.309,3.163 42.91,3.077 42.595,2.982 C42.281,2.886 42.033,2.771 41.852,2.638 C41.669,2.504 41.547,2.353 41.483,2.182 C41.419,2.011 41.396,1.814 41.412,1.59 C41.429,1.371 41.501,1.174 41.629,1.002 C41.757,0.829 41.934,0.687 42.158,0.574 C42.383,0.462 42.654,0.382 42.975,0.337 C43.295,0.292 43.655,0.284 44.056,0.315" id="Fill-35" fill="#000000"></path>
            <path d="M54.66,3.588 C54.382,3.484 54.109,3.431 53.843,3.428 C53.576,3.425 53.327,3.468 53.098,3.556 C52.869,3.644 52.665,3.777 52.485,3.955 C52.307,4.133 52.169,4.35 52.074,4.605 C51.978,4.861 51.939,5.114 51.958,5.366 C51.976,5.618 52.043,5.853 52.158,6.069 C52.274,6.286 52.434,6.481 52.637,6.654 C52.84,6.827 53.081,6.966 53.358,7.07 C53.726,7.207 54.071,7.263 54.395,7.239 C54.718,7.214 55.005,7.118 55.257,6.952 L55.651,7.72 C55.278,7.938 54.866,8.061 54.414,8.089 C53.962,8.116 53.51,8.045 53.057,7.876 C52.698,7.742 52.375,7.553 52.085,7.31 C51.796,7.066 51.565,6.786 51.393,6.469 C51.22,6.151 51.116,5.807 51.081,5.437 C51.046,5.066 51.101,4.686 51.247,4.296 C51.396,3.898 51.606,3.569 51.876,3.31 C52.146,3.051 52.45,2.86 52.787,2.739 C53.123,2.617 53.481,2.56 53.857,2.568 C54.235,2.577 54.603,2.648 54.961,2.781 C55.257,2.892 55.508,3.008 55.713,3.128 C55.918,3.247 56.092,3.368 56.234,3.488 C56.376,3.607 56.49,3.722 56.579,3.834 C56.667,3.947 56.745,4.049 56.813,4.14 L56.489,5.007 L55.75,4.731 L55.847,4.369 C55.784,4.29 55.721,4.216 55.654,4.148 C55.587,4.079 55.508,4.014 55.416,3.951 C55.325,3.889 55.218,3.829 55.097,3.771 C54.977,3.713 54.83,3.652 54.66,3.588" id="Fill-36" fill="#000000"></path>
            <polyline id="Fill-37" fill="#000000" points="62.309 8.323 61.632 7.917 61.899 7.333 59.581 5.938 58.949 6.989 60.886 8.155 60.442 8.893 58.505 7.728 57.725 9.025 60.105 10.456 60.495 9.946 61.172 10.353 60.399 11.638 56.063 9.031 56.508 8.293 56.987 8.581 58.843 5.495 58.364 5.206 58.807 4.468 63.081 7.038 62.309 8.323"></polyline>
            <polyline id="Fill-38" fill="#000000" points="62.665 13.508 61.187 12.181 61.761 11.54 62.178 11.914 64.584 9.234 64.168 8.86 64.743 8.219 66.351 9.662 64.821 14.287 64.976 14.426 67.382 11.746 66.96 11.367 67.536 10.727 69.02 12.059 68.444 12.7 68.022 12.321 65.616 15.001 66.038 15.38 65.463 16.02 63.855 14.578 65.386 9.953 65.226 9.81 62.819 12.489 63.24 12.868 62.665 13.508"></polyline>
            <polyline id="Fill-39" fill="#000000" points="69.62 15.039 69.147 14.407 70.349 13.509 73.806 18.136 72.604 19.034 72.132 18.402 72.602 17.962 71.643 16.68 68.758 18.836 69.098 19.29 68.407 19.805 67.213 18.207 67.903 17.692 68.243 18.147 71.128 15.99 70.175 14.715 69.62 15.039"></polyline>
            <polyline id="Fill-40" fill="#000000" points="75.605 24.951 75.262 24.24 75.806 23.897 74.627 21.462 73.523 21.996 74.507 24.031 73.731 24.406 72.748 22.372 71.385 23.031 72.594 25.531 73.2 25.317 73.544 26.027 72.194 26.681 69.991 22.127 70.766 21.752 71.01 22.256 74.252 20.687 74.009 20.184 74.783 19.808 76.955 24.297 75.605 24.951"></polyline>
            <path d="M76.988,30.909 C77.127,30.872 77.25,30.811 77.359,30.725 C77.467,30.639 77.554,30.539 77.619,30.424 C77.686,30.311 77.729,30.183 77.749,30.045 C77.768,29.906 77.76,29.767 77.723,29.628 L77.226,27.771 L75.209,28.31 L75.717,30.21 C75.753,30.344 75.813,30.462 75.897,30.566 C75.981,30.669 76.082,30.753 76.198,30.816 C76.314,30.879 76.44,30.92 76.576,30.937 C76.712,30.956 76.85,30.946 76.988,30.909 Z M73.061,29.471 L72.547,27.551 L73.379,27.329 L73.524,27.869 L77.003,26.939 L76.859,26.399 L77.69,26.175 L78.567,29.455 C78.63,29.69 78.643,29.928 78.606,30.168 C78.569,30.408 78.487,30.637 78.362,30.854 C78.234,31.076 78.071,31.263 77.877,31.414 C77.683,31.565 77.46,31.674 77.211,31.741 C76.961,31.807 76.713,31.824 76.467,31.792 C76.22,31.758 75.985,31.677 75.763,31.549 C75.458,31.373 75.223,31.139 75.055,30.847 L74.816,31.037 C74.56,31.244 74.464,31.468 74.528,31.708 C74.563,31.838 74.619,31.942 74.697,32.023 C74.776,32.104 74.874,32.178 74.991,32.245 L74.527,32.927 C74.31,32.801 74.134,32.665 73.998,32.518 C73.862,32.371 73.762,32.175 73.696,31.931 C73.606,31.593 73.619,31.29 73.735,31.021 C73.852,30.753 74.05,30.504 74.331,30.276 L74.752,29.933 L74.377,28.532 L73.746,28.701 L73.893,29.249 L73.061,29.471 Z" id="Fill-41" fill="#000000"></path>
            <path d="M4.222,37.313 C4.935,38.02 5.364,39.02 5.325,40.119 C5.285,41.217 4.784,42.186 4.021,42.838 C3.31,42.133 2.879,41.132 2.917,40.031 C2.957,38.934 3.458,37.966 4.222,37.313" id="Fill-42" fill="#FFFFFF"></path>
            <path d="M78.12,37.313 C78.833,38.02 79.263,39.02 79.225,40.119 C79.184,41.217 78.684,42.186 77.921,42.838 C77.208,42.133 76.777,41.132 76.816,40.031 C76.856,38.934 77.357,37.966 78.12,37.313" id="Fill-43" fill="#FFFFFF"></path>
            <path d="M5.637,40.584 C5.659,40.433 5.694,40.286 5.7,40.133 C5.706,39.98 5.681,39.831 5.67,39.68 C5.911,39.814 6.143,39.966 6.346,40.156 C6.129,40.332 5.888,40.469 5.637,40.584 Z M4.041,42.301 C3.866,42.085 3.731,41.843 3.615,41.591 C3.765,41.613 3.911,41.649 4.064,41.655 L4.209,41.657 C4.314,41.657 4.413,41.635 4.516,41.628 C4.382,41.868 4.23,42.098 4.041,42.301 Z M1.895,39.994 C2.112,39.818 2.354,39.681 2.606,39.565 C2.584,39.717 2.548,39.865 2.542,40.018 C2.537,40.171 2.562,40.32 2.573,40.471 C2.33,40.338 2.098,40.186 1.895,39.994 Z M4.951,40.105 C4.941,40.36 4.895,40.607 4.831,40.848 C4.628,40.885 4.421,40.907 4.209,40.907 L4.09,40.905 C3.839,40.896 3.595,40.85 3.356,40.787 C3.311,40.544 3.283,40.297 3.292,40.045 C3.301,39.792 3.348,39.544 3.412,39.302 C3.612,39.265 3.817,39.244 4.026,39.244 L4.149,39.248 C4.401,39.257 4.647,39.302 4.887,39.365 C4.932,39.608 4.96,39.854 4.951,40.105 Z M4.202,37.85 C4.377,38.066 4.512,38.308 4.628,38.561 C4.478,38.538 4.329,38.503 4.176,38.498 L4.026,38.494 C3.924,38.494 3.827,38.516 3.727,38.524 C3.86,38.283 4.013,38.052 4.202,37.85 Z M5.505,38.788 C5.309,38.136 4.974,37.531 4.485,37.046 C4.348,36.909 4.126,36.901 3.978,37.028 C3.456,37.474 3.078,38.053 2.835,38.687 C2.183,38.882 1.581,39.217 1.091,39.713 C0.954,39.852 0.946,40.073 1.073,40.22 C1.521,40.743 2.101,41.12 2.737,41.363 C2.935,42.015 3.27,42.62 3.758,43.104 C3.831,43.176 3.926,43.213 4.021,43.213 C4.108,43.213 4.195,43.182 4.266,43.123 C4.787,42.677 5.165,42.098 5.408,41.463 C6.06,41.267 6.66,40.932 7.148,40.438 C7.286,40.299 7.294,40.078 7.167,39.93 C6.72,39.408 6.141,39.031 5.505,38.788 Z" id="Fill-44" fill="#000000"></path>
            <path d="M79.535,40.584 C79.558,40.433 79.594,40.286 79.6,40.133 C79.605,39.98 79.58,39.831 79.568,39.68 C79.811,39.814 80.042,39.966 80.245,40.156 C80.028,40.332 79.786,40.469 79.535,40.584 Z M77.94,42.301 C77.766,42.085 77.63,41.843 77.514,41.591 C77.663,41.613 77.81,41.649 77.962,41.655 L78.108,41.657 C78.212,41.657 78.312,41.635 78.415,41.628 C78.281,41.868 78.129,42.098 77.94,42.301 Z M75.793,39.994 C76.011,39.818 76.253,39.681 76.505,39.565 C76.482,39.717 76.446,39.865 76.441,40.018 C76.436,40.171 76.461,40.32 76.472,40.471 C76.23,40.338 75.997,40.186 75.793,39.994 Z M78.85,40.105 C78.84,40.36 78.794,40.607 78.73,40.848 C78.527,40.885 78.319,40.907 78.108,40.907 L77.989,40.905 C77.738,40.896 77.494,40.85 77.255,40.787 C77.21,40.544 77.182,40.297 77.19,40.045 C77.2,39.792 77.247,39.544 77.311,39.302 C77.511,39.265 77.716,39.244 77.925,39.244 L78.049,39.248 C78.301,39.257 78.546,39.302 78.786,39.365 C78.831,39.608 78.858,39.854 78.85,40.105 Z M78.101,37.85 C78.275,38.066 78.411,38.308 78.527,38.561 C78.376,38.538 78.229,38.503 78.075,38.498 L77.925,38.494 C77.823,38.494 77.727,38.516 77.626,38.524 C77.76,38.283 77.911,38.052 78.101,37.85 Z M81.065,39.93 C80.618,39.408 80.039,39.031 79.404,38.788 C79.208,38.136 78.873,37.531 78.385,37.046 C78.246,36.909 78.024,36.901 77.877,37.028 C77.355,37.474 76.978,38.053 76.734,38.687 C76.081,38.882 75.48,39.217 74.99,39.713 C74.853,39.852 74.845,40.073 74.972,40.22 C75.42,40.743 76,41.12 76.637,41.363 C76.833,42.015 77.168,42.62 77.657,43.104 C77.73,43.176 77.825,43.213 77.921,43.213 C78.007,43.213 78.094,43.182 78.164,43.123 C78.686,42.677 79.063,42.098 79.307,41.463 C79.958,41.267 80.56,40.932 81.048,40.438 C81.185,40.299 81.192,40.078 81.065,39.93 Z" id="Fill-45" fill="#000000"></path>
        </g>
    </g>
</svg>