<?xml version="1.0" encoding="UTF-8"?>
<svg width="62px" height="78px" viewBox="0 0 62 78" version="1.1" xmlns="http://www.w3.org/2000/svg" xmlns:xlink="http://www.w3.org/1999/xlink">
    <!-- Generator: Sketch 49 (51002) - http://www.bohemiancoding.com/sketch -->
    <title>bitcoin-grey-2</title>
    <desc>Created with Sketch.</desc>
    <defs></defs>
    <g id="Page-1" stroke="none" stroke-width="1" fill="none" fill-rule="evenodd">
        <g id="bitcoin-grey-2">
            <polyline id="Fill-1" fill="#FFFFFF" points="31.071 77.139 31.071 68.726 31.071 77.139"></polyline>
            <path d="M56.144,26.308 L55.801,26.477 L55.469,26.639 L53.161,27.768 L52.815,27.938 L50.873,28.888 L50.54,29.051 L50.198,29.219 L48.217,30.188 L47.899,30.343 L47.544,30.517 L45.6,31.469 L45.268,31.631 L44.927,31.798 L43.106,32.689 C43.105,32.685 43.105,32.68 43.104,32.677 C43.099,32.55 43.03,32.435 42.921,32.37 C42.841,32.323 42.791,32.264 42.764,32.186 C42.697,31.996 42.641,31.825 42.581,31.648 C42.637,31.166 42.638,30.681 42.568,30.201 C42.37,28.825 41.669,27.609 40.627,26.648 C40.06,26.125 39.394,25.677 38.644,25.325 C37.629,24.848 36.471,24.541 35.225,24.451 L35.147,23.913 L35.088,23.509 L35.031,23.111 L35.026,23.076 L34.972,22.701 L34.917,22.326 L34.913,22.29 L33.75,14.241 C33.732,14.119 33.656,14.013 33.545,13.959 C33.435,13.905 33.303,13.907 33.196,13.968 L23.292,19.507 C23.156,19.584 23.081,19.735 23.104,19.888 L23.749,24.356 L23.804,24.739 L23.861,25.133 L23.96,25.821 L22.298,26.061 L21.51,26.175 L20.75,26.285 L17.108,26.811 L16.536,26.894 L16.006,26.97 L15.246,27.08 C15.245,27.08 15.244,27.081 15.243,27.081 C15.242,27.081 15.241,27.081 15.24,27.081 C15.232,27.082 15.226,27.088 15.217,27.09 C15.175,27.099 15.135,27.114 15.099,27.136 C15.084,27.146 15.072,27.161 15.058,27.174 C15.038,27.191 15.015,27.204 14.999,27.226 C14.995,27.232 14.994,27.239 14.99,27.244 C14.987,27.25 14.981,27.252 14.978,27.258 L13.782,29.249 C13.749,29.304 13.74,29.378 13.749,29.453 C13.742,29.493 13.741,29.533 13.747,29.574 L13.829,30.14 L11.944,29.218 L11.602,29.051 L11.27,28.888 L9.327,27.937 L8.981,27.768 L8.652,27.607 L6.673,26.639 L6.341,26.476 L5.998,26.308 L1.751,24.231 L31.071,9.883 L60.391,24.231 L56.144,26.308 Z M58.409,38.972 C58.409,43.07 57.498,47.024 55.781,50.644 L53.818,49.683 C55.385,46.361 56.229,42.715 56.229,38.972 C56.229,35.245 55.393,31.598 53.83,28.277 L55.787,27.319 C57.502,30.94 58.409,34.888 58.409,38.972 Z M28.905,60.062 C29.053,61.084 28.342,62.035 27.322,62.182 C26.295,62.33 25.348,61.6 25.203,60.596 C25.056,59.576 25.767,58.627 26.787,58.48 C26.878,58.466 26.968,58.46 27.057,58.46 C27.979,58.46 28.773,59.149 28.905,60.062 Z M60.391,53.735 L31.072,68.081 L1.751,53.735 L6.009,51.652 L6.679,51.324 L8.651,50.359 L8.981,50.197 L9.328,50.028 L11.281,49.072 L11.616,48.908 L13.914,47.784 L14.242,47.624 L14.589,47.453 L16.551,46.493 L16.883,46.331 L17.224,46.164 L19.018,45.286 L19.361,47.666 L18.238,47.828 C18.234,47.828 18.231,47.832 18.227,47.832 C18.133,47.848 18.049,47.899 17.992,47.974 C17.967,48.008 17.952,48.046 17.939,48.084 C17.929,48.115 17.926,48.148 17.925,48.18 L17.758,48.457 L16.789,50.071 C16.758,50.12 16.742,50.177 16.738,50.233 C16.735,50.263 16.735,50.293 16.74,50.323 L16.91,51.503 L17.004,52.159 L17.135,53.06 C17.149,53.157 17.202,53.246 17.281,53.306 C17.347,53.355 17.425,53.381 17.506,53.381 C17.524,53.381 17.542,53.38 17.56,53.377 L18.16,53.29 L18.642,53.22 L19.132,53.15 L22.202,52.706 L22.775,52.624 L23.367,52.537 L27.728,51.908 L28.128,54.68 L28.184,55.067 L28.197,55.159 L28.644,58.255 C28.106,57.842 27.41,57.632 26.68,57.737 C25.25,57.943 24.255,59.274 24.461,60.703 C24.646,61.985 25.76,62.951 27.052,62.951 C27.176,62.951 27.302,62.942 27.429,62.925 C28.859,62.717 29.854,61.385 29.648,59.954 L29.063,55.909 L29.009,55.535 L28.959,55.186 L28.955,55.159 L28.847,54.411 L28.47,51.801 L38.213,50.394 L38.542,52.668 C38.003,52.253 37.306,52.042 36.577,52.148 C35.454,52.31 34.608,53.17 34.393,54.223 C34.366,54.356 34.343,54.489 34.337,54.627 C34.332,54.752 34.34,54.879 34.353,55.007 C34.357,55.044 34.353,55.079 34.358,55.116 C34.36,55.131 34.366,55.145 34.368,55.159 C34.389,55.287 34.419,55.412 34.458,55.535 C34.5,55.665 34.555,55.789 34.615,55.909 C35.051,56.773 35.943,57.362 36.949,57.362 C37.073,57.362 37.2,57.353 37.327,57.335 C38.019,57.235 38.631,56.87 39.05,56.311 C39.145,56.183 39.224,56.049 39.294,55.909 C39.354,55.788 39.399,55.662 39.439,55.535 C39.479,55.411 39.506,55.286 39.527,55.159 C39.564,54.934 39.574,54.704 39.55,54.472 C39.55,54.454 39.555,54.438 39.553,54.42 L38.954,50.269 C40.825,49.919 42.521,49.115 43.828,47.95 C44.002,47.794 44.173,47.635 44.333,47.466 C44.681,47.102 44.98,46.717 45.236,46.321 L45.259,46.331 L45.591,46.493 L47.553,47.453 L47.9,47.624 L48.228,47.784 L50.189,48.743 L50.526,48.908 L50.861,49.072 L52.814,50.028 L53.161,50.197 L53.491,50.359 L55.463,51.324 L56.133,51.652 L60.391,53.735 Z M30.696,76.739 L1.273,62.342 L1.273,54.336 L30.696,68.732 L30.696,76.739 Z M60.869,62.342 L31.446,76.739 L31.446,68.733 L60.869,54.336 L60.869,62.342 Z M8.844,38.972 C8.844,42.271 9.581,45.482 10.95,48.399 L8.995,49.356 C7.478,46.134 6.664,42.598 6.664,38.972 C6.664,35.361 7.47,31.825 8.983,28.604 L10.946,29.565 C9.582,32.482 8.844,35.689 8.844,38.972 Z M11.774,38.972 C11.774,41.833 12.419,44.598 13.589,47.108 L11.625,48.069 C10.305,45.253 9.594,42.155 9.594,38.972 C9.594,35.804 10.305,32.71 11.62,29.894 L13.594,30.861 C12.42,33.371 11.774,36.134 11.774,38.972 Z M14.567,32.628 L16.089,32.407 C15.204,34.42 14.705,36.637 14.705,38.972 C14.705,41.418 15.259,43.732 16.225,45.819 L14.263,46.778 C13.142,44.37 12.524,41.716 12.524,38.972 C12.524,36.43 13.065,33.951 14.05,31.672 L14.137,32.269 L14.142,32.303 L14.143,32.31 C14.172,32.515 14.367,32.657 14.567,32.628 Z M14.97,30.699 L14.776,31.021 L14.726,31.105 L14.71,30.989 L14.632,30.452 L14.538,29.799 L14.498,29.523 C14.498,29.52 14.498,29.516 14.498,29.513 L15.079,28.546 L15.119,28.827 L15.207,29.43 L15.308,30.136 L14.97,30.699 Z M18.905,44.507 L16.898,45.489 C15.981,43.502 15.455,41.299 15.455,38.972 C15.455,36.651 15.978,34.454 16.889,32.473 L17.189,32.619 L18.905,44.507 Z M15.948,30.529 L17.186,30.349 L17.659,30.281 L18.153,30.21 L18.315,30.186 L18.714,32.948 L18.779,33.397 L20.286,43.831 L20.342,44.221 L20.398,44.611 L20.805,47.424 L20.81,47.457 L20.805,47.458 L20.43,47.512 L20.104,47.56 L20.055,47.221 L19.669,44.55 L19.613,44.16 L17.825,31.778 C17.811,31.679 17.758,31.59 17.678,31.531 C17.598,31.471 17.499,31.445 17.4,31.46 L17.386,31.462 L16.923,31.529 L16.726,31.557 L16.482,31.592 L16.067,31.653 L15.408,31.748 L15.196,31.779 L15.258,31.675 L15.948,30.529 Z M25.402,35.803 L25.458,36.193 L25.371,36.204 L24.712,36.3 L22.789,36.577 L22.6,35.266 L22.535,34.817 L22.47,34.368 L22.062,31.545 L24.731,31.159 L25.224,34.569 C25.224,34.57 25.224,34.57 25.224,34.57 L25.402,35.803 Z M33.256,29.256 C32.863,29.256 32.464,29.284 32.072,29.341 L25.367,30.31 L24.624,30.417 L21.956,30.803 L21.794,29.683 L24.462,29.299 L25.205,29.191 L33.359,28.013 C33.716,27.962 34.079,27.936 34.436,27.936 C34.62,27.936 34.796,27.956 34.975,27.969 L35.196,29.498 C34.595,29.343 33.943,29.256 33.256,29.256 Z M35.611,32.371 L35.919,34.507 C35.43,34.69 34.905,34.828 34.352,34.908 L26.201,36.085 L25.474,31.051 L32.179,30.084 C32.536,30.032 32.898,30.006 33.256,30.006 C33.999,30.006 34.691,30.128 35.316,30.327 L35.611,32.371 Z M37.915,33.327 C37.552,33.654 37.118,33.945 36.631,34.193 L36.121,30.656 C37.104,31.156 37.785,31.9 37.911,32.773 C37.937,32.957 37.934,33.142 37.915,33.327 Z M35.992,29.763 L35.747,28.07 C37.546,28.411 38.906,29.424 39.091,30.703 C39.18,31.323 38.997,31.949 38.614,32.524 C38.376,31.314 37.395,30.325 35.992,29.763 Z M23.453,41.175 L23.292,40.056 L25.96,39.671 L26.122,40.79 L23.453,41.175 Z M24.462,41.787 L25.673,41.612 L26.229,41.532 L26.259,41.743 L26.565,43.859 C26.565,43.86 26.565,43.86 26.565,43.86 L26.957,46.569 L24.288,46.954 L23.659,42.599 L23.56,41.918 L24.462,41.787 Z M37.355,39.201 C37.199,39.215 37.043,39.213 36.888,39.235 L36.608,39.276 L33.472,39.728 L32.813,39.824 L32.154,39.919 L29.081,40.363 L27.871,40.537 L26.864,40.682 L26.855,40.617 L26.703,39.564 L29.972,39.091 L30.315,39.042 L30.974,38.946 L31.251,38.907 L31.669,38.847 L32.462,38.732 L36.446,38.157 L37.188,38.05 L38.175,37.907 C38.533,37.856 38.896,37.828 39.255,37.828 C40.203,37.828 41.081,38.015 41.819,38.33 C42.014,38.413 42.202,38.504 42.376,38.605 C42.679,38.783 42.934,38.991 43.158,39.215 C43.562,39.619 43.84,40.085 43.914,40.6 C43.954,40.872 43.923,41.149 43.86,41.426 C43.792,41.722 43.664,42.015 43.485,42.303 C43.466,42.335 43.45,42.366 43.429,42.397 C43.368,42.099 43.257,41.817 43.11,41.549 C42.323,40.117 40.4,39.149 38.074,39.149 C37.835,39.149 37.595,39.18 37.355,39.201 Z M37.442,45.055 L27.699,46.462 L26.972,41.425 L33.35,40.504 L34.008,40.409 L34.667,40.314 L36.715,40.017 L36.917,41.414 L36.982,41.864 L37.046,42.313 L37.232,43.596 L37.232,43.598 L37.442,45.055 Z M37.862,42.712 L37.462,39.944 C37.667,39.927 37.871,39.899 38.074,39.899 C40.502,39.899 42.505,41.091 42.733,42.67 C42.759,42.85 42.748,43.033 42.729,43.216 C42.475,43.445 42.184,43.651 41.874,43.84 C41.745,43.919 41.606,43.988 41.468,44.058 C41.329,44.131 41.194,44.207 41.046,44.27 C40.46,44.524 39.826,44.711 39.171,44.805 L38.185,44.948 L37.862,42.712 Z M17.72,51.822 L17.715,51.832 L17.712,51.814 L17.5,50.343 L18.083,49.374 L18.297,50.861 L17.72,51.822 Z M18.266,52.37 L18.921,51.281 L20.127,51.106 L20.599,51.037 L21.087,50.967 L27.459,50.047 L28.201,49.94 L37.608,48.582 L37.945,48.532 L37.952,48.582 L38.106,49.652 L28.363,51.058 L27.621,51.166 L22.36,51.926 L21.825,52.003 L21.31,52.077 L18.404,52.496 L18.169,52.531 L18.266,52.37 Z M38.772,55.159 C38.743,55.288 38.702,55.414 38.645,55.535 C38.591,55.649 38.527,55.758 38.45,55.862 C38.437,55.879 38.419,55.892 38.406,55.909 C38.109,56.281 37.692,56.524 37.219,56.593 C36.54,56.69 35.902,56.402 35.502,55.909 C35.41,55.795 35.333,55.669 35.268,55.535 C35.211,55.416 35.169,55.291 35.138,55.159 C35.126,55.109 35.108,55.061 35.1,55.009 C35.091,54.945 35.094,54.881 35.092,54.817 C35.086,54.683 35.095,54.553 35.117,54.426 C35.142,54.281 35.181,54.139 35.239,54.006 C35.488,53.428 36.017,52.986 36.685,52.889 C36.775,52.876 36.865,52.87 36.955,52.87 C37.241,52.87 37.512,52.943 37.758,53.062 C37.893,53.128 38.021,53.206 38.136,53.301 C38.237,53.385 38.33,53.475 38.412,53.578 C38.614,53.832 38.754,54.137 38.803,54.474 C38.836,54.707 38.823,54.937 38.772,55.159 Z M38.71,48.582 L38.687,48.425 L39.674,48.283 C39.814,48.263 39.949,48.232 40.086,48.206 C40.598,48.112 41.093,47.989 41.567,47.832 C41.716,47.782 41.862,47.728 42.007,47.673 C42.203,47.599 42.393,47.517 42.581,47.432 C42.72,47.369 42.863,47.31 42.998,47.241 C43.397,47.038 43.77,46.807 44.125,46.562 C44.017,46.693 43.91,46.823 43.79,46.949 C43.502,47.252 43.183,47.527 42.845,47.785 C42.456,48.082 42.037,48.348 41.591,48.582 C40.754,49.02 39.828,49.34 38.846,49.527 L38.71,48.582 Z M49.617,38.972 C49.617,41.716 48.999,44.37 47.879,46.778 L45.917,45.819 C46.236,45.128 46.518,44.419 46.74,43.681 C47.319,42.567 47.571,41.341 47.392,40.097 C47.39,40.084 47.384,40.072 47.382,40.06 C47.406,39.698 47.438,39.339 47.438,38.972 C47.438,36.533 46.886,34.225 45.926,32.144 L47.876,31.19 C48.998,33.599 49.617,36.25 49.617,38.972 Z M51.196,29.565 L53.159,28.604 C54.672,31.825 55.479,35.361 55.479,38.972 C55.479,42.599 54.665,46.135 53.147,49.356 L51.192,48.399 C52.561,45.482 53.297,42.271 53.297,38.972 C53.297,35.689 52.561,32.482 51.196,29.565 Z M52.547,38.972 C52.547,42.155 51.837,45.253 50.518,48.069 L48.552,47.107 C49.722,44.598 50.367,41.833 50.367,38.972 C50.367,36.134 49.721,33.371 48.548,30.861 L50.523,29.895 C51.837,32.71 52.547,35.804 52.547,38.972 Z M43.161,33.496 L45.253,32.473 C46.04,34.183 46.521,36.057 46.64,38.032 C45.837,36.68 44.48,35.592 42.779,34.952 C42.868,34.61 42.958,34.266 43.028,33.914 C43.038,33.865 43.056,33.825 43.086,33.785 C43.145,33.71 43.171,33.615 43.162,33.521 C43.162,33.513 43.161,33.505 43.161,33.496 Z M41.979,33.657 C42.065,33.482 42.143,33.305 42.212,33.126 C42.249,33.03 42.285,32.932 42.317,32.836 C42.333,32.852 42.346,32.873 42.364,32.888 C42.367,32.941 42.372,32.994 42.375,33.046 C42.383,33.181 42.391,33.316 42.403,33.45 C42.403,33.454 42.403,33.458 42.404,33.463 C42.352,33.557 42.314,33.659 42.292,33.766 C42.281,33.826 42.263,33.883 42.251,33.942 C42.193,34.206 42.129,34.467 42.062,34.725 C41.86,34.668 41.665,34.599 41.455,34.554 C41.528,34.448 41.592,34.34 41.659,34.232 C41.775,34.044 41.882,33.852 41.979,33.657 Z M41.813,31.722 C41.746,32.171 41.625,32.616 41.437,33.051 C41.349,33.256 41.245,33.456 41.131,33.655 C41.091,33.726 41.045,33.797 41.001,33.867 C40.916,34.003 40.825,34.137 40.728,34.27 C40.653,34.371 40.582,34.474 40.5,34.574 C40.438,34.648 40.422,34.741 40.427,34.834 C40.43,34.871 40.425,34.91 40.439,34.946 C40.476,35.043 40.556,35.107 40.649,35.146 C40.677,35.158 40.702,35.179 40.732,35.182 C40.829,35.197 40.917,35.226 41.012,35.244 C41.308,35.299 41.604,35.354 41.883,35.435 C42.007,35.471 42.119,35.523 42.239,35.564 C42.361,35.604 42.481,35.648 42.6,35.694 C44.773,36.536 46.311,38.169 46.629,40.124 C46.634,40.151 46.646,40.177 46.649,40.204 C46.785,41.142 46.634,42.07 46.265,42.937 C46.195,43.102 46.118,43.265 46.032,43.427 C45.965,43.55 45.896,43.674 45.82,43.795 C45.654,44.057 45.463,44.311 45.256,44.556 C45.068,44.778 44.863,44.991 44.644,45.195 C44.545,45.286 44.447,45.378 44.343,45.465 C44.238,45.554 44.128,45.639 44.017,45.723 C43.963,45.763 43.915,45.807 43.86,45.846 C43.74,45.932 43.611,46.012 43.485,46.094 C43.396,46.152 43.309,46.211 43.217,46.266 C43.072,46.353 42.919,46.433 42.767,46.513 C42.605,46.598 42.437,46.677 42.267,46.754 C41.442,47.125 40.537,47.401 39.566,47.541 L38.58,47.683 L38.556,47.519 L38.504,47.162 L38.292,45.69 L39.279,45.548 C40.223,45.411 41.105,45.104 41.892,44.683 C42.005,44.624 42.12,44.567 42.228,44.501 C42.25,44.489 42.274,44.478 42.296,44.465 C42.42,44.387 42.534,44.303 42.651,44.22 C42.744,44.154 42.831,44.084 42.919,44.013 C42.982,43.964 43.049,43.918 43.11,43.867 C43.158,43.825 43.215,43.792 43.261,43.75 C43.326,43.691 43.381,43.629 43.442,43.569 C43.456,43.555 43.471,43.54 43.485,43.525 C43.621,43.387 43.747,43.244 43.86,43.099 C44.501,42.281 44.785,41.379 44.656,40.492 C44.636,40.352 44.584,40.219 44.544,40.084 C44.347,39.422 43.927,38.836 43.331,38.36 C43.06,38.144 42.756,37.952 42.422,37.786 C42.291,37.72 42.163,37.654 42.022,37.597 C42.014,37.594 42.004,37.591 41.996,37.588 C41.873,37.538 41.742,37.499 41.613,37.456 C40.915,37.226 40.141,37.088 39.307,37.082 C39.29,37.082 39.273,37.078 39.255,37.078 C38.861,37.078 38.461,37.108 38.068,37.165 L37.082,37.307 L36.339,37.414 L34.659,37.657 L33.448,37.832 L32.237,38.007 L30.438,38.266 L29.779,38.362 L29.12,38.457 L26.595,38.821 L26.576,38.687 L26.468,37.945 L26.347,37.1 L26.307,36.827 L26.308,36.827 L26.567,36.79 L27.226,36.695 L34.459,35.651 C35.009,35.571 35.533,35.436 36.028,35.259 C36.274,35.171 36.514,35.075 36.743,34.967 C36.986,34.852 37.215,34.723 37.436,34.588 C37.666,34.448 37.886,34.301 38.088,34.14 C38.279,33.99 38.452,33.83 38.616,33.665 C39.508,32.767 39.989,31.678 39.833,30.596 C39.809,30.43 39.751,30.274 39.7,30.116 C39.465,29.39 38.958,28.757 38.248,28.267 C38.144,28.199 38.042,28.13 37.934,28.067 C37.794,27.985 37.648,27.909 37.498,27.838 C37.451,27.816 37.41,27.788 37.362,27.767 C37.346,27.76 37.332,27.751 37.315,27.743 C37.06,27.633 36.786,27.542 36.503,27.463 C36.225,27.385 35.933,27.328 35.633,27.283 L35.614,27.15 L35.606,27.088 L35.335,25.216 C37.851,25.442 39.958,26.603 41.056,28.291 C41.182,28.485 41.291,28.688 41.39,28.895 C41.429,28.978 41.468,29.06 41.502,29.144 C41.655,29.515 41.768,29.903 41.826,30.308 C41.839,30.397 41.841,30.486 41.849,30.574 C41.882,30.956 41.871,31.34 41.813,31.722 Z M24.81,26.456 L32.964,25.279 C33.455,25.208 33.95,25.173 34.438,25.173 C34.483,25.173 34.527,25.176 34.572,25.177 L34.777,26.599 L34.834,26.994 L34.848,27.088 L34.866,27.213 C34.722,27.206 34.584,27.186 34.436,27.186 C34.137,27.186 33.836,27.218 33.537,27.251 C33.441,27.261 33.346,27.258 33.252,27.272 L31.923,27.463 L29.326,27.838 L25.098,28.449 L24.355,28.556 L21.315,28.994 C21.11,29.024 20.968,29.215 20.998,29.42 L21.213,30.909 L21.267,31.281 L21.32,31.652 L22.101,37.056 C22.115,37.155 22.167,37.243 22.247,37.303 C22.313,37.352 22.391,37.378 22.472,37.378 C22.489,37.378 22.507,37.377 22.525,37.374 L25.565,36.935 L25.834,38.794 L25.853,38.928 L22.813,39.367 C22.715,39.382 22.626,39.434 22.566,39.514 C22.507,39.593 22.481,39.694 22.496,39.792 L22.711,41.283 L22.764,41.654 L22.951,42.944 L23.007,43.335 L23.599,47.432 C23.626,47.619 23.786,47.754 23.97,47.754 C23.988,47.754 24.006,47.753 24.024,47.75 L27.064,47.312 L27.806,47.204 L37.549,45.797 L37.711,46.916 L37.765,47.286 L37.818,47.658 L37.837,47.79 L37.554,47.832 L34.958,48.206 L32.361,48.582 L28.094,49.197 L27.352,49.304 L20.368,50.313 L19.879,50.383 L19.422,50.449 L19.004,50.51 L18.915,49.891 L18.822,49.243 L18.817,49.209 L18.735,48.642 L18.717,48.516 L18.737,48.514 L19.098,48.462 L19.468,48.408 L19.839,48.355 L20.078,48.32 L20.21,48.302 L20.869,48.206 L21.288,48.146 C21.386,48.132 21.475,48.078 21.535,48 C21.572,47.95 21.59,47.891 21.6,47.832 C21.605,47.795 21.611,47.758 21.606,47.721 L21.106,44.264 L21.05,43.875 L20.994,43.485 L19.594,33.796 L19.53,33.347 L19.464,32.898 L19.004,29.708 C18.983,29.564 18.88,29.453 18.751,29.41 C18.697,29.391 18.64,29.382 18.579,29.39 L18.254,29.437 L17.74,29.511 L16.012,29.761 L15.826,28.471 L15.814,28.391 L15.745,27.911 L15.732,27.825 L15.724,27.768 L15.862,27.748 L16.167,27.704 L16.407,27.67 L19.741,27.188 L20.39,27.095 L20.419,27.09 L20.434,27.088 L21.065,26.996 L24.067,26.564 L24.81,26.456 Z M33.58,18.308 L34.16,22.326 L34.17,22.398 L34.214,22.701 L34.246,22.92 L34.268,23.076 L34.302,23.307 L34.36,23.711 L34.463,24.423 C34.455,24.423 34.447,24.423 34.438,24.423 C33.915,24.423 33.383,24.461 32.857,24.536 L24.703,25.715 L24.569,24.792 L24.513,24.398 L24.457,24.013 L24.376,23.454 L25.725,22.701 L26.396,22.326 L33.58,18.308 Z M24.859,22.326 L24.262,22.66 L23.883,20.036 L33.086,14.889 L33.465,17.514 L24.859,22.326 Z M3.733,38.972 C3.733,34.888 4.641,30.94 6.356,27.319 L8.313,28.277 C6.75,31.599 5.914,35.244 5.914,38.972 C5.914,42.715 6.757,46.361 8.324,49.683 L6.362,50.644 C4.645,47.024 3.733,43.071 3.733,38.972 Z M31.446,1.124 L60.869,15.522 L60.869,23.63 L31.446,9.232 L31.446,1.124 Z M1.273,15.522 L30.696,1.124 L30.696,9.232 L1.273,23.63 L1.273,15.522 Z M61.619,15.367 C61.619,15.355 61.613,15.344 61.612,15.333 C61.631,15.179 61.557,15.023 61.409,14.951 L31.236,0.186 C31.131,0.135 31.01,0.135 30.906,0.186 L0.733,14.951 C0.573,15.029 0.501,15.207 0.541,15.374 C0.534,15.402 0.523,15.43 0.523,15.461 L0.524,24.232 C0.524,24.297 0.545,24.354 0.574,24.407 C0.583,24.423 0.591,24.435 0.602,24.449 C0.632,24.489 0.669,24.524 0.712,24.549 C0.721,24.554 0.725,24.564 0.733,24.568 L5.684,26.99 C3.919,30.713 2.983,34.773 2.983,38.972 C2.983,43.187 3.922,47.25 5.689,50.973 L0.733,53.398 C0.726,53.402 0.722,53.411 0.715,53.415 C0.669,53.441 0.632,53.475 0.601,53.517 C0.591,53.531 0.583,53.543 0.574,53.557 C0.544,53.611 0.523,53.67 0.523,53.735 L0.523,62.505 C0.523,62.515 0.529,62.524 0.53,62.535 C0.512,62.688 0.587,62.843 0.733,62.914 L30.907,77.677 C30.959,77.703 31.015,77.715 31.072,77.715 C31.128,77.715 31.185,77.703 31.237,77.677 L61.409,62.914 C61.556,62.843 61.63,62.688 61.613,62.535 C61.614,62.524 61.619,62.515 61.619,62.505 L61.619,53.735 C61.619,53.67 61.598,53.611 61.568,53.557 C61.56,53.543 61.551,53.531 61.541,53.517 C61.511,53.475 61.473,53.441 61.428,53.415 C61.42,53.411 61.417,53.402 61.409,53.398 L56.453,50.973 C58.22,47.25 59.159,43.187 59.159,38.972 C59.159,34.773 58.223,30.713 56.459,26.99 L61.409,24.568 C61.538,24.505 61.619,24.374 61.619,24.231 C61.619,24.216 61.609,24.206 61.608,24.192 C61.611,24.173 61.619,24.156 61.619,24.136 L61.619,15.367 Z" id="Fill-2" fill="#000000"></path>
            <path d="M4.736,17.667 L5.565,17.26 L5.565,18.592 C5.565,19.263 5.264,19.795 4.682,20.08 C4.101,20.365 3.799,20.129 3.799,19.457 L3.799,17.275 C3.799,16.603 4.101,16.071 4.682,15.786 C5.264,15.501 5.565,15.737 5.565,16.409 L5.565,16.816 L5.005,17.091 L5.005,16.641 C5.005,16.341 4.887,16.286 4.698,16.378 C4.51,16.47 4.391,16.642 4.391,16.942 L4.391,19.209 C4.391,19.509 4.51,19.559 4.698,19.466 C4.887,19.374 5.005,19.208 5.005,18.908 L5.005,18.134 L4.736,18.266 L4.736,17.667" id="Fill-3" fill="#000000"></path>
            <polyline id="Fill-4" fill="#000000" points="8.152 15.906 8.965 15.507 8.965 16.107 8.152 16.505 8.152 17.735 9.175 17.233 9.175 17.833 7.559 18.625 7.559 14.427 9.175 13.635 9.175 14.235 8.152 14.736 8.152 15.906"></polyline>
            <polyline id="Fill-5" fill="#000000" points="10.98 12.753 12.812 11.855 12.812 12.455 12.192 12.758 12.192 16.356 11.6 16.647 11.6 13.049 10.98 13.352 10.98 12.753"></polyline>
            <path d="M17.702,12.695 C17.702,12.995 17.821,13.051 18.009,12.958 C18.198,12.866 18.316,12.694 18.316,12.394 L18.316,10.127 C18.316,9.827 18.198,9.772 18.009,9.864 C17.821,9.956 17.702,10.128 17.702,10.428 L17.702,12.695 Z M17.11,10.761 C17.11,10.089 17.428,9.549 18.009,9.264 C18.591,8.979 18.909,9.207 18.909,9.879 L18.909,12.062 C18.909,12.733 18.591,13.273 18.009,13.558 C17.428,13.843 17.11,13.615 17.11,12.943 L17.11,10.761 Z" id="Fill-6" fill="#000000"></path>
            <path d="M21.464,7.622 L21.464,10.86 C21.464,11.16 21.583,11.21 21.771,11.118 C21.959,11.025 22.078,10.859 22.078,10.56 L22.078,7.321 L22.638,7.047 L22.638,10.243 C22.638,10.915 22.337,11.446 21.755,11.731 C21.173,12.016 20.872,11.781 20.872,11.109 L20.872,7.913 L21.464,7.622" id="Fill-7" fill="#000000"></path>
            <path d="M25.268,6.361 L25.268,7.65 L25.5,7.537 C25.72,7.428 25.855,7.254 25.855,6.918 L25.855,6.505 C25.855,6.205 25.764,6.118 25.553,6.221 L25.268,6.361 Z M25.914,9.642 C25.882,9.55 25.86,9.494 25.86,9.153 L25.86,8.493 C25.86,8.103 25.742,8.017 25.473,8.149 L25.268,8.25 L25.268,9.959 L24.675,10.249 L24.675,6.051 L25.569,5.613 C26.184,5.312 26.448,5.501 26.448,6.148 L26.448,6.478 C26.448,6.91 26.324,7.253 26.06,7.52 C26.356,7.513 26.453,7.783 26.453,8.221 L26.453,8.868 C26.453,9.072 26.458,9.219 26.518,9.346 L25.914,9.642 Z" id="Fill-8" fill="#000000"></path>
            <path d="M38.827,9.585 L39.397,9.865 L39.112,7.603 L38.827,9.585 Z M40.178,11.579 L39.581,11.286 L39.478,10.475 L38.751,10.118 L38.648,10.829 L38.104,10.563 L38.708,6.661 L39.575,7.086 L40.178,11.579 Z" id="Fill-9" fill="#000000"></path>
            <polyline id="Fill-10" fill="#000000" points="42.066 8.304 42.659 8.594 42.659 12.193 43.634 12.67 43.634 13.27 42.066 12.502 42.066 8.304"></polyline>
            <path d="M46.111,12.593 L46.111,13.882 L46.45,14.049 C46.649,14.146 46.757,14.097 46.757,13.785 L46.757,13.419 C46.757,13.03 46.644,12.854 46.374,12.722 L46.111,12.593 Z M46.111,10.884 L46.111,11.993 L46.342,12.107 C46.563,12.215 46.698,12.173 46.698,11.837 L46.698,11.603 C46.698,11.303 46.606,11.127 46.396,11.024 L46.111,10.884 Z M47.29,11.828 L47.29,11.978 C47.29,12.409 47.172,12.627 46.908,12.636 C47.226,12.929 47.35,13.308 47.35,13.752 L47.35,14.093 C47.35,14.741 47.043,14.938 46.45,14.648 L45.518,14.192 L45.518,9.994 L46.412,10.432 C47.026,10.733 47.29,11.18 47.29,11.828 Z" id="Fill-11" fill="#000000"></path>
            <path d="M49.884,12.13 L49.884,15.368 C49.884,15.668 50.002,15.834 50.19,15.926 C50.379,16.019 50.498,15.969 50.498,15.669 L50.498,12.431 L51.058,12.705 L51.058,15.901 C51.058,16.573 50.756,16.809 50.174,16.524 C49.593,16.239 49.291,15.707 49.291,15.035 L49.291,11.839 L49.884,12.13" id="Fill-12" fill="#000000"></path>
            <polyline id="Fill-13" fill="#000000" points="54.343 17.293 54.747 14.511 55.571 14.914 55.571 19.112 55.011 18.838 55.011 15.827 54.602 18.637 54.041 18.363 53.6 15.178 53.6 18.146 53.082 17.893 53.082 13.695 53.907 14.099 54.343 17.293"></polyline>
            <polyline id="Fill-14" fill="#000000" points="11.115 62.968 11.88 63.343 11.88 63.943 11.115 63.568 11.115 65.301 10.523 65.01 10.523 60.813 12.09 61.581 12.09 62.181 11.115 61.703 11.115 62.968"></polyline>
            <path d="M14.523,66.003 C14.523,66.303 14.642,66.475 14.83,66.567 C15.019,66.66 15.137,66.604 15.137,66.304 L15.137,64.037 C15.137,63.738 15.019,63.565 14.83,63.473 C14.642,63.381 14.523,63.437 14.523,63.736 L14.523,66.003 Z M13.931,63.488 C13.931,62.816 14.249,62.588 14.83,62.873 C15.412,63.158 15.729,63.698 15.729,64.37 L15.729,66.552 C15.729,67.224 15.412,67.452 14.83,67.167 C14.249,66.882 13.931,66.343 13.931,65.671 L13.931,63.488 Z" id="Fill-15" fill="#000000"></path>
            <path d="M18.32,65.228 L18.32,66.518 L18.551,66.631 C18.772,66.739 18.907,66.697 18.907,66.362 L18.907,65.948 C18.907,65.648 18.815,65.471 18.605,65.368 L18.32,65.228 Z M18.966,69.143 C18.934,69.019 18.912,68.943 18.912,68.601 L18.912,67.941 C18.912,67.552 18.793,67.35 18.524,67.217 L18.32,67.117 L18.32,68.826 L17.727,68.536 L17.727,64.338 L18.621,64.777 C19.235,65.077 19.5,65.525 19.5,66.172 L19.5,66.502 C19.5,66.934 19.375,67.155 19.111,67.164 C19.408,67.447 19.505,67.812 19.505,68.25 L19.505,68.897 C19.505,69.101 19.51,69.254 19.569,69.439 L18.966,69.143 Z" id="Fill-16" fill="#000000"></path>
            <path d="M40.403,68.931 L40.403,69.489 C40.403,70.16 40.101,70.692 39.52,70.977 C38.938,71.262 38.636,71.026 38.636,70.354 L38.636,68.172 C38.636,67.5 38.938,66.968 39.52,66.683 C40.101,66.398 40.403,66.634 40.403,67.306 L40.403,67.714 L39.843,67.988 L39.843,67.539 C39.843,67.239 39.724,67.183 39.536,67.275 C39.347,67.368 39.229,67.539 39.229,67.839 L39.229,70.106 C39.229,70.406 39.347,70.456 39.536,70.364 C39.724,70.271 39.843,70.105 39.843,69.805 L39.843,69.206 L40.403,68.931" id="Fill-17" fill="#000000"></path>
            <path d="M42.924,68.298 C42.924,68.598 43.043,68.654 43.231,68.561 C43.42,68.469 43.539,68.297 43.539,67.997 L43.539,65.73 C43.539,65.43 43.42,65.375 43.231,65.467 C43.043,65.56 42.924,65.731 42.924,66.031 L42.924,68.298 Z M42.332,66.364 C42.332,65.692 42.65,65.153 43.231,64.867 C43.813,64.582 44.131,64.81 44.131,65.482 L44.131,67.665 C44.131,68.336 43.813,68.876 43.231,69.161 C42.65,69.446 42.332,69.218 42.332,68.546 L42.332,66.364 Z" id="Fill-18" fill="#000000"></path>
            <polyline id="Fill-19" fill="#000000" points="46.147 63.489 46.74 63.199 46.74 67.397 46.147 67.687 46.147 63.489"></polyline>
            <polyline id="Fill-20" fill="#000000" points="49.299 63.104 49.299 66.144 48.766 66.405 48.766 62.208 49.509 61.843 50.118 64.058 50.118 61.545 50.646 61.286 50.646 65.484 50.037 65.782 49.299 63.104"></polyline>
            <path d="M53.479,59.853 C54.055,59.571 54.351,59.809 54.351,60.481 L54.351,60.613 L53.791,60.887 L53.791,60.713 C53.791,60.414 53.683,60.352 53.495,60.445 C53.306,60.537 53.198,60.704 53.198,61.004 C53.198,61.867 54.356,61.462 54.356,62.661 C54.356,63.332 54.055,63.864 53.473,64.149 C52.891,64.434 52.59,64.198 52.59,63.527 L52.59,63.269 L53.15,62.994 L53.15,63.294 C53.15,63.594 53.269,63.644 53.457,63.551 C53.646,63.459 53.764,63.293 53.764,62.993 C53.764,62.13 52.606,62.535 52.606,61.336 C52.606,60.664 52.902,60.135 53.479,59.853" id="Fill-21" fill="#000000"></path>
        </g>
    </g>
</svg>