<?xml version="1.0" encoding="UTF-8"?>
<svg width="84px" height="83px" viewBox="0 0 84 83" version="1.1" xmlns="http://www.w3.org/2000/svg" xmlns:xlink="http://www.w3.org/1999/xlink">
    <!-- Generator: Sketch 49 (51002) - http://www.bohemiancoding.com/sketch -->
    <title>bitcoin-grey-23</title>
    <desc>Created with Sketch.</desc>
    <defs></defs>
    <g id="Page-1" stroke="none" stroke-width="1" fill="none" fill-rule="evenodd">
        <g id="bitcoin-grey-23" fill="#000000">
            <path d="M6.1,30.711 L5.571,32.761 L7.183,33.176 L7.707,31.146 C7.73,31.055 7.73,30.966 7.707,30.877 C7.683,30.788 7.643,30.706 7.587,30.628 C7.532,30.551 7.458,30.482 7.368,30.421 C7.277,30.361 7.176,30.317 7.064,30.288 C6.957,30.26 6.851,30.25 6.746,30.258 C6.641,30.266 6.545,30.29 6.458,30.331 C6.372,30.371 6.297,30.424 6.234,30.488 C6.172,30.552 6.127,30.627 6.1,30.711 Z M4.605,30 C4.427,29.954 4.261,29.965 4.107,30.034 C3.954,30.103 3.858,30.209 3.821,30.352 L3.348,32.188 L4.654,32.525 L5.127,30.689 C5.146,30.615 5.146,30.543 5.127,30.47 C5.108,30.398 5.075,30.331 5.029,30.268 C4.982,30.207 4.923,30.152 4.85,30.105 C4.779,30.058 4.696,30.023 4.605,30 Z M8.624,31.382 L7.787,34.624 L6.87,34.388 L6.994,33.911 L3.159,32.922 L3.036,33.399 L2.119,33.163 L2.905,30.115 C2.949,29.944 3.032,29.793 3.152,29.66 C3.273,29.529 3.42,29.424 3.592,29.346 C3.764,29.269 3.954,29.222 4.162,29.206 C4.37,29.191 4.581,29.21 4.794,29.265 C4.978,29.312 5.146,29.382 5.298,29.473 C5.452,29.565 5.584,29.669 5.695,29.784 C5.891,29.635 6.132,29.542 6.419,29.505 C6.706,29.468 6.984,29.484 7.254,29.554 C7.493,29.615 7.708,29.71 7.898,29.837 C8.087,29.964 8.245,30.111 8.37,30.279 C8.496,30.446 8.581,30.625 8.626,30.815 C8.673,31.005 8.671,31.194 8.624,31.382 Z" id="Fill-1"></path>
            <polyline id="Fill-2" points="10.972 25.417 10.216 27.01 9.361 26.604 9.575 26.154 5.996 24.457 5.783 24.908 4.927 24.502 5.68 22.915 6.535 23.321 6.321 23.772 9.899 25.468 10.116 25.012 10.972 25.417"></polyline>
            <polyline id="Fill-3" points="9.554 19.468 9.139 20.026 7.815 19.043 10.848 14.959 12.172 15.943 11.758 16.5 11.156 16.132 10.316 17.264 13.495 19.625 13.793 19.224 14.552 19.788 13.505 21.198 12.745 20.634 13.043 20.234 9.864 17.873 9.028 18.998 9.554 19.468"></polyline>
            <path d="M16.468,10.74 C16.269,10.909 16.118,11.103 16.013,11.322 C15.909,11.541 15.853,11.772 15.845,12.013 C15.836,12.254 15.879,12.501 15.972,12.753 C16.064,13.006 16.207,13.246 16.401,13.475 C16.595,13.704 16.808,13.885 17.042,14.017 C17.276,14.15 17.513,14.232 17.752,14.263 C17.991,14.296 18.228,14.278 18.461,14.211 C18.695,14.144 18.911,14.027 19.11,13.858 C19.374,13.634 19.556,13.382 19.657,13.1 C19.757,12.818 19.781,12.524 19.726,12.219 L20.568,12.343 C20.623,12.779 20.577,13.192 20.43,13.582 C20.282,13.972 20.046,14.304 19.722,14.58 C19.465,14.798 19.171,14.955 18.842,15.051 C18.513,15.148 18.172,15.174 17.821,15.131 C17.469,15.088 17.12,14.972 16.772,14.783 C16.425,14.596 16.104,14.327 15.808,13.978 C15.505,13.62 15.289,13.255 15.159,12.879 C15.028,12.503 14.972,12.141 14.99,11.791 C15.009,11.441 15.093,11.113 15.244,10.805 C15.395,10.498 15.599,10.236 15.857,10.018 C16.069,9.838 16.268,9.699 16.455,9.599 C16.641,9.5 16.815,9.427 16.977,9.379 C17.138,9.332 17.286,9.304 17.42,9.298 C17.555,9.29 17.677,9.286 17.785,9.283 L18.443,10.06 L17.913,10.508 L17.624,10.217 C17.528,10.221 17.437,10.231 17.35,10.246 C17.264,10.261 17.174,10.288 17.084,10.327 C16.993,10.366 16.898,10.419 16.799,10.485 C16.701,10.552 16.591,10.636 16.468,10.74" id="Fill-4"></path>
            <path d="M23.744,5.93 C23.511,6.049 23.319,6.203 23.168,6.393 C23.016,6.582 22.909,6.794 22.846,7.027 C22.783,7.26 22.768,7.51 22.8,7.777 C22.833,8.044 22.917,8.311 23.053,8.578 C23.189,8.844 23.356,9.07 23.554,9.252 C23.751,9.435 23.963,9.568 24.189,9.654 C24.415,9.739 24.649,9.777 24.891,9.765 C25.134,9.753 25.371,9.687 25.603,9.568 C25.851,9.442 26.051,9.283 26.205,9.093 C26.358,8.903 26.465,8.692 26.523,8.46 C26.583,8.229 26.594,7.982 26.556,7.717 C26.518,7.454 26.43,7.188 26.294,6.921 C26.158,6.655 25.994,6.428 25.802,6.243 C25.61,6.057 25.403,5.92 25.181,5.833 C24.959,5.746 24.726,5.709 24.482,5.722 C24.237,5.734 23.992,5.804 23.744,5.93 Z M22.361,8.931 C22.148,8.515 22.021,8.109 21.98,7.714 C21.938,7.318 21.967,6.952 22.065,6.616 C22.163,6.28 22.32,5.979 22.537,5.714 C22.754,5.449 23.013,5.241 23.313,5.087 C23.628,4.926 23.957,4.835 24.298,4.814 C24.64,4.793 24.974,4.842 25.3,4.962 C25.626,5.082 25.935,5.275 26.228,5.542 C26.521,5.809 26.773,6.151 26.986,6.568 C27.192,6.97 27.317,7.367 27.361,7.758 C27.404,8.149 27.38,8.514 27.289,8.854 C27.197,9.193 27.044,9.497 26.83,9.766 C26.614,10.036 26.349,10.251 26.035,10.412 C25.734,10.565 25.413,10.651 25.07,10.67 C24.727,10.688 24.389,10.636 24.057,10.514 C23.725,10.391 23.411,10.199 23.116,9.936 C22.821,9.674 22.569,9.339 22.361,8.931 Z" id="Fill-5"></path>
            <polyline id="Fill-6" points="33.13 7.649 31.433 8.127 31.176 7.216 31.657 7.081 30.583 3.269 30.102 3.404 29.845 2.493 31.536 2.017 31.793 2.928 31.312 3.063 32.386 6.875 32.873 6.738 33.13 7.649"></polyline>
            <polyline id="Fill-7" points="38.053 6.775 36.309 6.916 36.232 5.973 36.723 5.933 36.403 1.986 35.913 2.026 35.836 1.082 37.731 0.929 39.841 5.68 40.024 5.665 39.704 1.719 39.206 1.759 39.13 0.815 40.881 0.673 40.958 1.617 40.459 1.657 40.78 5.604 41.277 5.564 41.353 6.507 39.458 6.661 37.348 1.909 37.159 1.924 37.479 5.872 37.977 5.832 38.053 6.775"></polyline>
            <polyline id="Fill-8" points="57.584 4.92 57.112 4.758 55.822 8.502 56.294 8.664 55.985 9.559 54.325 8.987 54.633 8.092 55.105 8.255 56.395 4.51 56.138 4.422 53.458 8.688 52.221 8.262 52.745 3.253 52.482 3.162 51.191 6.906 51.664 7.068 51.355 7.963 49.7 7.394 50.009 6.498 50.475 6.659 51.765 2.915 51.299 2.755 51.607 1.86 53.591 2.543 53.068 7.552 53.229 7.608 55.909 3.342 57.892 4.026 57.584 4.92"></polyline>
            <polyline id="Fill-9" points="60.297 12.098 58.794 11.177 59.288 10.37 59.713 10.631 61.782 7.254 61.356 6.993 61.851 6.186 63.349 7.104 62.854 7.911 62.429 7.65 60.36 11.027 60.791 11.291 60.297 12.098"></polyline>
            <polyline id="Fill-10" points="64.271 15.113 62.983 13.928 63.624 13.232 63.986 13.565 66.667 10.65 66.304 10.317 66.945 9.62 68.345 10.907 66.289 15.683 66.423 15.807 69.104 12.892 68.737 12.554 69.377 11.857 70.67 13.047 70.029 13.743 69.663 13.405 66.982 16.32 67.349 16.657 66.707 17.355 65.308 16.067 67.365 11.292 67.225 11.163 64.544 14.078 64.912 14.417 64.271 15.113"></polyline>
            <polyline id="Fill-11" points="69.819 21.31 68.773 19.891 69.535 19.329 69.831 19.731 73.019 17.382 72.723 16.98 73.485 16.418 74.527 17.832 73.765 18.394 73.469 17.992 70.282 20.341 70.581 20.748 69.819 21.31"></polyline>
            <polyline id="Fill-12" points="72.368 25.604 71.623 24.021 72.479 23.617 72.689 24.063 76.271 22.376 76.062 21.931 76.919 21.527 77.728 23.248 74.021 26.893 74.099 27.059 77.682 25.372 77.469 24.921 78.326 24.518 79.074 26.107 78.218 26.51 78.005 26.058 74.422 27.745 74.635 28.197 73.778 28.6 72.968 26.879 76.675 23.234 76.594 23.063 73.011 24.749 73.224 25.201 72.368 25.604"></polyline>
            <path d="M80.134,33.074 C80.081,32.819 79.982,32.593 79.839,32.397 C79.696,32.201 79.52,32.042 79.313,31.92 C79.104,31.798 78.867,31.717 78.601,31.678 C78.335,31.639 78.055,31.65 77.762,31.712 C77.468,31.772 77.207,31.874 76.979,32.017 C76.752,32.159 76.566,32.328 76.424,32.524 C76.283,32.719 76.186,32.935 76.133,33.172 C76.08,33.409 76.081,33.655 76.134,33.911 C76.19,34.179 76.287,34.41 76.424,34.605 C76.562,34.801 76.732,34.958 76.935,35.079 L77.869,34.884 L77.475,32.998 L78.401,32.804 L78.95,35.433 L76.789,35.885 C76.372,35.739 76.025,35.511 75.751,35.198 C75.475,34.885 75.294,34.521 75.208,34.104 C75.139,33.774 75.14,33.442 75.212,33.106 C75.285,32.77 75.423,32.458 75.629,32.17 C75.835,31.882 76.104,31.63 76.435,31.414 C76.765,31.198 77.155,31.044 77.603,30.951 C78.061,30.855 78.486,30.839 78.878,30.903 C79.271,30.968 79.616,31.091 79.915,31.274 C80.214,31.457 80.462,31.688 80.66,31.968 C80.858,32.247 80.992,32.551 81.061,32.881 C81.118,33.153 81.145,33.395 81.144,33.606 C81.142,33.817 81.123,34.006 81.088,34.17 C81.053,34.334 81.006,34.477 80.948,34.599 C80.891,34.721 80.836,34.83 80.787,34.927 L79.79,35.135 L79.649,34.454 L80.044,34.339 C80.085,34.254 80.12,34.169 80.148,34.085 C80.176,34.002 80.195,33.911 80.204,33.813 C80.212,33.714 80.211,33.605 80.2,33.487 C80.189,33.369 80.166,33.231 80.134,33.074" id="Fill-13"></path>
            <path d="M10.443,59.353 C10.312,59.127 10.148,58.944 9.951,58.802 C9.753,58.661 9.536,58.565 9.3,58.515 C9.064,58.464 8.813,58.462 8.549,58.508 C8.284,58.555 8.021,58.653 7.763,58.803 C7.503,58.954 7.288,59.132 7.116,59.339 C6.943,59.546 6.821,59.764 6.748,59.994 C6.674,60.224 6.65,60.46 6.674,60.701 C6.699,60.943 6.776,61.177 6.907,61.402 C7.081,61.701 7.297,61.925 7.557,62.074 C7.816,62.223 8.101,62.298 8.412,62.298 L8.141,63.106 C7.702,63.082 7.303,62.964 6.945,62.75 C6.587,62.536 6.302,62.245 6.088,61.877 C5.919,61.586 5.816,61.269 5.779,60.927 C5.743,60.586 5.777,60.246 5.881,59.908 C5.987,59.57 6.162,59.246 6.409,58.938 C6.656,58.629 6.977,58.36 7.373,58.131 C7.778,57.896 8.177,57.748 8.569,57.686 C8.961,57.624 9.329,57.633 9.669,57.713 C10.011,57.792 10.319,57.934 10.595,58.137 C10.871,58.34 11.093,58.587 11.262,58.879 C11.401,59.119 11.503,59.34 11.568,59.541 C11.633,59.742 11.674,59.926 11.692,60.094 C11.71,60.261 11.711,60.411 11.694,60.545 C11.678,60.679 11.661,60.8 11.644,60.907 L10.764,61.417 L10.415,60.816 L10.754,60.583 C10.766,60.488 10.772,60.397 10.773,60.309 C10.774,60.221 10.763,60.129 10.741,60.032 C10.717,59.936 10.682,59.833 10.635,59.724 C10.587,59.615 10.523,59.492 10.443,59.353" id="Fill-14"></path>
            <path d="M15.209,65.708 C15.031,65.517 14.829,65.375 14.605,65.282 C14.38,65.189 14.148,65.144 13.907,65.148 C13.665,65.152 13.421,65.206 13.173,65.311 C12.925,65.416 12.692,65.571 12.474,65.776 C12.255,65.981 12.085,66.203 11.964,66.443 C11.843,66.683 11.773,66.924 11.753,67.165 C11.733,67.406 11.763,67.641 11.841,67.87 C11.919,68.1 12.048,68.31 12.227,68.501 C12.417,68.704 12.625,68.852 12.85,68.947 C13.075,69.042 13.307,69.086 13.545,69.079 C13.785,69.072 14.025,69.013 14.269,68.904 C14.512,68.794 14.743,68.637 14.962,68.432 C15.18,68.227 15.353,68.007 15.478,67.772 C15.603,67.536 15.677,67.3 15.699,67.062 C15.722,66.824 15.693,66.59 15.613,66.359 C15.534,66.128 15.399,65.91 15.209,65.708 Z M11.942,65.209 C12.284,64.889 12.639,64.654 13.007,64.505 C13.376,64.356 13.736,64.282 14.086,64.283 C14.436,64.284 14.768,64.352 15.083,64.488 C15.397,64.623 15.669,64.814 15.9,65.06 C16.142,65.319 16.32,65.609 16.435,65.932 C16.55,66.254 16.594,66.588 16.57,66.935 C16.544,67.282 16.444,67.632 16.269,67.987 C16.093,68.342 15.834,68.679 15.493,69 C15.163,69.309 14.816,69.539 14.452,69.689 C14.088,69.839 13.731,69.917 13.379,69.922 C13.028,69.928 12.694,69.865 12.375,69.733 C12.058,69.601 11.777,69.406 11.536,69.148 C11.305,68.902 11.133,68.616 11.021,68.292 C10.908,67.968 10.864,67.629 10.89,67.276 C10.917,66.923 11.014,66.568 11.186,66.212 C11.356,65.856 11.608,65.521 11.942,65.209 Z" id="Fill-15"></path>
            <polyline id="Fill-16" points="18.485 75.023 17.02 74.064 17.538 73.272 17.951 73.542 20.119 70.228 19.706 69.958 20.225 69.166 21.816 70.207 20.568 75.255 20.722 75.355 22.889 72.041 22.472 71.768 22.99 70.976 24.46 71.937 23.942 72.73 23.525 72.456 21.356 75.77 21.774 76.044 21.255 76.836 19.664 75.794 20.912 70.748 20.753 70.644 18.585 73.957 19.003 74.231 18.485 75.023"></polyline>
            <polyline id="Fill-17" points="27.133 79.512 25.487 78.918 25.808 78.028 26.272 78.196 27.616 74.47 27.153 74.303 27.474 73.413 31.902 75.011 31.342 76.562 30.689 76.326 30.868 75.644 28.33 74.728 27.872 75.997 29.982 76.758 29.661 77.649 27.55 76.887 26.985 78.453 27.455 78.622 27.133 79.512"></polyline>
            <polyline id="Fill-18" points="39.242 77.929 38.552 77.844 38.576 77.139 36.212 76.846 36.045 78.184 38.021 78.43 37.904 79.369 35.929 79.124 35.724 80.776 38.151 81.077 38.3 80.388 38.99 80.473 38.787 82.11 34.366 81.561 34.483 80.622 34.972 80.682 35.459 76.753 34.97 76.692 35.086 75.752 39.445 76.293 39.242 77.929"></polyline>
            <path d="M46.982,78.039 C46.965,77.882 46.925,77.736 46.863,77.603 C46.8,77.469 46.723,77.356 46.63,77.263 C46.538,77.169 46.432,77.098 46.312,77.05 C46.193,77.002 46.07,76.984 45.945,76.997 L44.26,77.174 L44.501,79.458 L46.223,79.277 C46.344,79.263 46.455,79.222 46.555,79.15 C46.656,79.079 46.741,78.986 46.81,78.874 C46.877,78.761 46.928,78.633 46.959,78.489 C46.991,78.346 46.998,78.195 46.982,78.039 Z M45.271,82.002 L43.529,82.185 L43.431,81.244 L43.92,81.192 L43.506,77.254 L43.017,77.306 L42.917,76.364 L45.89,76.051 C46.104,76.03 46.313,76.061 46.519,76.148 C46.726,76.234 46.916,76.366 47.091,76.544 C47.271,76.726 47.417,76.937 47.526,77.176 C47.637,77.416 47.707,77.677 47.736,77.96 C47.766,78.241 47.751,78.513 47.694,78.773 C47.637,79.033 47.539,79.27 47.401,79.485 C47.211,79.781 46.98,79.99 46.705,80.114 L46.843,80.409 C46.996,80.726 47.18,80.873 47.398,80.85 C47.515,80.838 47.614,80.797 47.694,80.728 C47.773,80.659 47.85,80.568 47.922,80.454 L48.465,81.087 C48.331,81.297 48.191,81.461 48.047,81.579 C47.903,81.697 47.719,81.769 47.498,81.792 C47.191,81.823 46.927,81.751 46.706,81.573 C46.484,81.396 46.289,81.134 46.121,80.786 L45.869,80.266 L44.6,80.399 L44.675,81.113 L45.171,81.061 L45.271,82.002 Z" id="Fill-19"></path>
            <polyline id="Fill-20" points="55.846 75.204 55.189 75.431 54.9 74.789 52.648 75.568 53.09 76.843 54.97 76.192 55.28 77.086 53.399 77.737 53.943 79.31 56.254 78.51 56.085 77.826 56.742 77.599 57.281 79.157 53.071 80.614 52.761 79.719 53.227 79.558 51.931 75.816 51.466 75.977 51.156 75.083 55.307 73.646 55.846 75.204"></polyline>
            <polyline id="Fill-21" points="63.029 76.204 61.55 77.141 61.044 76.34 61.46 76.077 59.343 72.731 58.926 72.995 58.419 72.194 60.027 71.177 64.103 74.404 64.258 74.306 62.14 70.96 61.719 71.227 61.212 70.427 62.697 69.488 63.203 70.288 62.781 70.554 64.899 73.901 65.321 73.634 65.827 74.434 64.22 75.451 60.144 72.224 59.983 72.325 62.101 75.671 62.523 75.405 63.029 76.204"></polyline>
            <path d="M67.614,66.261 C67.43,66.447 67.296,66.654 67.211,66.881 C67.127,67.108 67.09,67.343 67.103,67.584 C67.115,67.825 67.179,68.067 67.292,68.31 C67.406,68.554 67.569,68.781 67.783,68.992 C67.996,69.204 68.224,69.365 68.468,69.478 C68.712,69.59 68.956,69.651 69.197,69.662 C69.438,69.673 69.671,69.635 69.898,69.548 C70.125,69.462 70.331,69.325 70.514,69.14 C70.758,68.895 70.918,68.628 70.994,68.339 C71.07,68.049 71.068,67.755 70.987,67.455 L71.837,67.506 C71.929,67.936 71.919,68.351 71.806,68.752 C71.692,69.154 71.486,69.506 71.186,69.807 C70.949,70.047 70.67,70.228 70.35,70.353 C70.031,70.478 69.693,70.533 69.339,70.52 C68.986,70.508 68.627,70.422 68.265,70.265 C67.903,70.107 67.56,69.866 67.235,69.544 C66.902,69.214 66.655,68.868 66.493,68.505 C66.331,68.143 66.244,67.786 66.232,67.436 C66.22,67.085 66.276,66.752 66.4,66.432 C66.524,66.113 66.705,65.834 66.942,65.595 C67.139,65.397 67.325,65.241 67.502,65.126 C67.679,65.011 67.846,64.923 68.003,64.863 C68.16,64.801 68.305,64.762 68.438,64.743 C68.572,64.724 68.693,64.709 68.8,64.697 L69.523,65.414 L69.033,65.907 L68.72,65.64 C68.626,65.654 68.536,65.672 68.451,65.694 C68.366,65.716 68.279,65.751 68.191,65.798 C68.105,65.845 68.014,65.905 67.922,65.98 C67.83,66.054 67.727,66.148 67.614,66.261" id="Fill-22"></path>
            <polyline id="Fill-23" points="74.226 58.693 73.857 59.282 73.229 58.964 71.967 60.985 73.111 61.699 74.165 60.011 74.968 60.512 73.914 62.201 75.326 63.082 76.622 61.008 76.059 60.583 76.427 59.993 77.826 60.866 75.466 64.645 74.663 64.144 74.924 63.725 71.565 61.628 71.304 62.046 70.501 61.544 72.828 57.819 74.226 58.693"></polyline>
            <path d="M37.478,29.325 C37.494,29.352 37.508,29.378 37.53,29.401 C37.597,29.471 37.691,29.504 37.788,29.504 C37.899,29.504 38.014,29.462 38.094,29.386 C38.248,29.246 38.259,29.01 38.12,28.856 C38.097,28.83 38.061,28.833 38.033,28.815 C38.386,28.527 38.773,28.281 39.183,28.071 C39.19,28.104 39.179,28.133 39.193,28.164 C39.253,28.299 39.404,28.37 39.554,28.37 C39.615,28.37 39.676,28.358 39.731,28.334 C39.921,28.252 40.009,28.031 39.928,27.841 C39.916,27.814 39.896,27.794 39.879,27.771 C40.293,27.619 40.726,27.51 41.174,27.447 C41.171,27.476 41.166,27.505 41.168,27.536 C41.186,27.73 41.391,27.872 41.586,27.872 C41.599,27.872 41.61,27.872 41.623,27.872 C41.829,27.856 41.984,27.675 41.968,27.469 C41.966,27.438 41.953,27.411 41.944,27.383 C41.986,27.382 42.027,27.377 42.069,27.377 C42.482,27.377 42.885,27.42 43.276,27.495 C43.264,27.522 43.249,27.549 43.241,27.58 C43.192,27.781 43.36,27.995 43.561,28.044 C43.593,28.053 43.625,28.056 43.657,28.056 C43.823,28.056 43.975,27.945 44.02,27.777 C44.028,27.745 44.024,27.715 44.025,27.684 C44.454,27.823 44.862,28.007 45.247,28.228 C45.227,28.249 45.205,28.268 45.188,28.295 C45.076,28.469 45.166,28.726 45.34,28.839 C45.404,28.881 45.477,28.901 45.548,28.901 C45.669,28.901 45.788,28.843 45.86,28.735 C45.877,28.71 45.883,28.682 45.893,28.655 C46.25,28.923 46.578,29.224 46.873,29.56 C46.848,29.573 46.821,29.584 46.797,29.602 C46.635,29.732 46.637,30.004 46.765,30.166 C46.839,30.262 46.951,30.313 47.063,30.313 C47.143,30.313 47.223,30.287 47.291,30.235 C47.316,30.215 47.333,30.19 47.352,30.166 C47.606,30.536 47.821,30.936 47.995,31.358 C47.96,31.362 47.93,31.348 47.896,31.361 C47.701,31.431 47.616,31.69 47.686,31.885 C47.74,32.04 47.885,32.139 48.041,32.139 C48.081,32.139 48.122,32.132 48.163,32.118 C48.19,32.108 48.212,32.09 48.236,32.075 C48.353,32.495 48.426,32.932 48.454,33.383 C48.426,33.378 48.4,33.37 48.371,33.37 C48.167,33.37 48,33.57 47.996,33.774 C47.996,33.777 47.995,33.872 47.995,33.875 C47.994,33.902 48.004,33.925 48.009,33.951 C48.042,34.12 48.184,34.253 48.364,34.256 C48.366,34.256 48.368,34.256 48.37,34.256 C48.398,34.256 48.424,34.245 48.451,34.239 C48.446,34.306 48.447,34.374 48.44,34.44 C48.427,34.566 48.403,34.688 48.383,34.812 C48.345,35.051 48.294,35.285 48.229,35.514 C48.205,35.498 48.183,35.48 48.153,35.469 C47.955,35.403 47.745,35.507 47.677,35.702 L48.014,35.874 L47.645,35.796 C47.577,35.991 47.688,36.182 47.883,36.251 C47.913,36.261 47.942,36.263 47.972,36.265 C47.8,36.674 47.584,37.057 47.335,37.418 C47.317,37.395 47.302,37.37 47.278,37.352 C47.115,37.223 46.879,37.252 46.751,37.414 L46.691,37.49 C46.563,37.653 46.589,37.888 46.751,38.018 C46.775,38.036 46.807,38.033 46.833,38.046 C46.533,38.381 46.199,38.683 45.835,38.949 C45.824,38.923 45.815,38.895 45.798,38.869 C45.685,38.696 45.413,38.674 45.24,38.787 C45.065,38.899 45.014,39.131 45.125,39.305 C45.142,39.332 45.169,39.347 45.191,39.367 C44.798,39.588 44.381,39.77 43.942,39.903 C43.941,39.869 43.958,39.841 43.949,39.805 C43.897,39.604 43.65,39.495 43.447,39.546 C43.246,39.593 43.122,39.796 43.169,39.998 C43.177,40.029 43.205,40.048 43.22,40.075 C42.846,40.144 42.462,40.184 42.069,40.184 C42.012,40.184 41.957,40.177 41.9,40.175 C41.911,40.145 41.939,40.125 41.941,40.091 C41.958,39.885 41.803,39.703 41.597,39.688 L41.502,39.679 C41.295,39.66 41.114,39.812 41.095,40.018 C41.092,40.049 41.1,40.075 41.104,40.104 C40.668,40.037 40.247,39.927 39.845,39.778 C39.862,39.754 39.889,39.739 39.901,39.711 C39.984,39.521 39.898,39.301 39.708,39.217 L39.621,39.179 C39.434,39.094 39.21,39.177 39.125,39.366 C39.112,39.393 39.11,39.423 39.105,39.452 C38.707,39.243 38.332,38.996 37.989,38.713 C38.015,38.695 38.042,38.679 38.064,38.655 C38.204,38.502 38.159,38.233 38.006,38.093 C37.856,37.951 37.619,37.958 37.476,38.108 C37.452,38.133 37.457,38.168 37.442,38.196 C37.139,37.879 36.87,37.531 36.637,37.157 C36.664,37.149 36.693,37.15 36.719,37.135 C36.901,37.036 36.969,36.81 36.87,36.628 L36.824,36.541 C36.726,36.359 36.498,36.29 36.316,36.388 C36.291,36.403 36.272,36.424 36.251,36.443 C36.067,36.041 35.922,35.62 35.823,35.179 C35.826,35.179 35.828,35.182 35.831,35.182 C35.858,35.182 35.885,35.179 35.913,35.175 C36.115,35.141 36.246,34.905 36.214,34.702 C36.214,34.7 36.215,34.699 36.214,34.698 C36.19,34.535 36.063,34.418 35.911,34.389 C35.871,34.382 35.83,34.376 35.788,34.382 C35.754,34.387 35.726,34.403 35.697,34.416 C35.685,34.299 35.684,34.178 35.679,34.058 C35.675,33.966 35.665,33.876 35.665,33.781 C35.665,33.543 35.68,33.307 35.706,33.075 C35.734,33.086 35.762,33.098 35.794,33.104 C35.811,33.107 35.827,33.108 35.843,33.108 C36.029,33.108 36.202,32.937 36.233,32.749 C36.27,32.546 36.134,32.35 35.93,32.314 C35.899,32.308 35.87,32.314 35.84,32.316 C35.944,31.876 36.093,31.454 36.282,31.055 C36.305,31.073 36.325,31.093 36.353,31.107 C36.399,31.132 36.451,31.143 36.503,31.143 C36.653,31.143 36.81,31.049 36.882,30.912 C36.983,30.732 36.918,30.504 36.737,30.403 C36.711,30.388 36.683,30.384 36.654,30.376 C36.894,29.997 37.168,29.645 37.478,29.325 Z M34.967,34.615 C34.982,34.74 35.003,34.864 35.024,34.987 C35.601,38.358 38.536,40.934 42.069,40.934 C45.603,40.934 48.539,38.358 49.114,34.987 C49.136,34.864 49.157,34.74 49.171,34.615 C49.186,34.49 49.193,34.363 49.201,34.236 C49.211,34.085 49.224,33.936 49.224,33.781 C49.224,29.837 46.015,26.627 42.069,26.627 C38.124,26.627 34.915,29.837 34.915,33.781 C34.915,33.936 34.928,34.086 34.937,34.236 C34.946,34.364 34.953,34.49 34.967,34.615 Z" id="Fill-24"></path>
            <path d="M42.069,28.911 C44.724,28.911 46.882,31.049 46.931,33.693 C46.932,33.723 46.94,33.751 46.94,33.781 C46.94,33.881 46.917,33.974 46.91,34.073 C46.903,34.2 46.89,34.325 46.872,34.449 C46.543,36.816 44.526,38.65 42.069,38.65 C39.612,38.65 37.596,36.816 37.267,34.449 C37.25,34.325 37.236,34.2 37.229,34.073 C37.223,33.974 37.199,33.881 37.199,33.781 C37.199,33.751 37.208,33.723 37.208,33.693 C37.257,31.049 39.414,28.911 42.069,28.911 Z M36.454,33.874 C36.456,34.001 36.463,34.128 36.473,34.254 C36.483,34.381 36.501,34.505 36.52,34.629 C36.931,37.325 39.259,39.4 42.069,39.4 C44.88,39.4 47.208,37.325 47.619,34.629 C47.638,34.505 47.655,34.381 47.666,34.254 C47.677,34.128 47.683,34.001 47.686,33.872 C47.686,33.842 47.69,33.812 47.69,33.781 C47.69,30.682 45.168,28.161 42.069,28.161 C38.97,28.161 36.449,30.682 36.449,33.781 C36.449,33.812 36.453,33.843 36.454,33.874 Z" id="Fill-25"></path>
            <path d="M30.595,49.671 L34.12,49.671 C34.816,49.671 35.382,50.238 35.382,50.934 C35.382,51.631 34.816,52.197 34.12,52.197 L33.235,52.197 C33.233,52.197 33.232,52.195 33.23,52.195 C33.229,52.195 33.228,52.197 33.226,52.197 L31.431,52.197 C31.43,52.197 31.428,52.195 31.426,52.195 C31.425,52.195 31.423,52.197 31.421,52.197 L30.595,52.197 L30.595,49.671 Z M31.426,46.397 L33.341,46.397 C33.606,46.397 33.839,46.497 34.043,46.639 C34.211,46.755 34.351,46.901 34.446,47.084 C34.537,47.258 34.602,47.448 34.602,47.659 C34.602,47.792 34.564,47.912 34.526,48.033 C34.364,48.544 33.903,48.92 33.34,48.92 L30.595,48.92 L30.595,46.397 L31.426,46.397 Z M34.791,49.045 C35.054,48.77 35.24,48.423 35.314,48.033 C35.337,47.911 35.352,47.786 35.352,47.659 C35.352,47.53 35.337,47.405 35.314,47.283 C35.238,46.883 35.046,46.526 34.771,46.246 C34.654,46.129 34.52,46.029 34.377,45.943 C34.255,45.869 34.126,45.811 33.99,45.764 C33.866,45.721 33.738,45.691 33.605,45.674 L33.605,44.295 C33.605,44.089 33.438,43.92 33.23,43.92 C33.023,43.92 32.855,44.089 32.855,44.295 L32.855,45.647 L31.801,45.647 L31.801,44.295 C31.801,44.089 31.633,43.92 31.426,43.92 C31.219,43.92 31.051,44.089 31.051,44.295 L31.051,45.647 L29.208,45.647 C29.001,45.647 28.833,45.815 28.833,46.022 C28.833,46.229 29.001,46.397 29.208,46.397 L29.845,46.397 L29.845,49.057 C29.79,49.121 29.753,49.203 29.753,49.295 C29.753,49.387 29.79,49.469 29.845,49.533 L29.845,52.197 L29.208,52.197 C29.001,52.197 28.833,52.365 28.833,52.572 C28.833,52.778 29.001,52.947 29.208,52.947 L31.051,52.947 L31.051,54.298 C31.051,54.505 31.219,54.673 31.426,54.673 C31.633,54.673 31.801,54.505 31.801,54.298 L31.801,52.947 L32.855,52.947 L32.855,54.298 C32.855,54.505 33.023,54.673 33.23,54.673 C33.438,54.673 33.605,54.505 33.605,54.298 L33.605,52.947 L34.12,52.947 C35.23,52.947 36.132,52.044 36.132,50.934 C36.132,50.061 35.57,49.323 34.791,49.045 Z" id="Fill-26"></path>
            <path d="M51.656,55.049 C48.483,55.049 45.903,52.469 45.903,49.297 C45.903,48.862 45.955,48.441 46.047,48.033 C46.075,47.907 46.107,47.781 46.144,47.659 C46.182,47.531 46.227,47.407 46.273,47.283 C46.516,46.637 46.869,46.046 47.313,45.533 C47.427,45.403 47.544,45.278 47.668,45.159 C47.805,45.027 47.949,44.902 48.099,44.783 C48.532,44.441 49.016,44.159 49.537,43.952 C49.664,43.902 49.791,43.852 49.922,43.812 C50.047,43.772 50.175,43.741 50.304,43.71 C50.738,43.605 51.189,43.543 51.656,43.543 C52.999,43.543 54.233,44.009 55.214,44.783 C55.363,44.902 55.507,45.027 55.644,45.159 C55.768,45.278 55.886,45.403 55.998,45.533 C56.875,46.544 57.41,47.858 57.41,49.297 C57.41,52.469 54.829,55.049 51.656,55.049 Z M56.951,45.533 C56.86,45.406 56.769,45.278 56.669,45.159 C56.562,45.029 56.446,44.905 56.329,44.783 C55.145,43.558 53.489,42.793 51.656,42.793 C51.209,42.793 50.773,42.839 50.351,42.924 C50.222,42.951 50.096,42.988 49.969,43.022 C49.84,43.057 49.712,43.093 49.587,43.136 C48.589,43.472 47.7,44.042 46.983,44.783 C46.866,44.905 46.751,45.029 46.643,45.159 C46.544,45.278 46.453,45.406 46.362,45.533 C45.983,46.064 45.682,46.652 45.476,47.283 C45.436,47.407 45.403,47.532 45.37,47.659 C45.337,47.783 45.303,47.907 45.278,48.033 C45.197,48.443 45.153,48.865 45.153,49.297 C45.153,52.883 48.07,55.799 51.656,55.799 C55.242,55.799 58.16,52.883 58.16,49.297 C58.16,47.893 57.709,46.597 56.951,45.533 Z" id="Fill-27"></path>
            <path d="M32.482,55.049 C29.309,55.049 26.728,52.469 26.728,49.297 C26.728,47.858 27.263,46.544 28.139,45.533 C28.252,45.403 28.37,45.278 28.494,45.159 C28.631,45.027 28.774,44.902 28.924,44.783 C29.904,44.009 31.139,43.543 32.482,43.543 C32.96,43.543 33.422,43.608 33.866,43.718 C33.995,43.75 34.123,43.783 34.249,43.823 C34.379,43.865 34.507,43.912 34.633,43.964 C35.143,44.17 35.615,44.447 36.04,44.783 C36.189,44.902 36.333,45.027 36.47,45.159 C36.594,45.278 36.712,45.403 36.825,45.533 C37.27,46.046 37.623,46.637 37.865,47.283 C37.912,47.407 37.957,47.531 37.995,47.659 C38.032,47.781 38.063,47.907 38.092,48.033 C38.184,48.441 38.236,48.862 38.236,49.297 C38.236,52.469 35.655,55.049 32.482,55.049 Z M38.86,48.033 C38.835,47.907 38.801,47.783 38.769,47.659 C38.736,47.532 38.703,47.407 38.663,47.283 C38.457,46.652 38.155,46.064 37.777,45.533 C37.686,45.406 37.595,45.278 37.496,45.159 C37.388,45.029 37.273,44.905 37.155,44.783 C36.446,44.05 35.568,43.485 34.584,43.148 C34.458,43.105 34.33,43.066 34.201,43.031 C34.074,42.995 33.948,42.96 33.819,42.932 C33.387,42.842 32.94,42.793 32.482,42.793 C30.648,42.793 28.993,43.558 27.809,44.783 C27.691,44.905 27.576,45.029 27.468,45.159 C27.369,45.278 27.278,45.406 27.187,45.533 C26.429,46.597 25.978,47.893 25.978,49.297 C25.978,52.883 28.896,55.799 32.482,55.799 C36.068,55.799 38.986,52.883 38.986,49.297 C38.986,48.865 38.941,48.443 38.86,48.033 Z" id="Fill-28"></path>
            <path d="M49.768,49.671 L53.293,49.671 C53.989,49.671 54.555,50.238 54.555,50.934 C54.555,51.631 53.989,52.197 53.293,52.197 L52.409,52.197 C52.407,52.197 52.406,52.195 52.404,52.195 C52.402,52.195 52.401,52.197 52.399,52.197 L50.605,52.197 C50.604,52.197 50.602,52.195 50.6,52.195 C50.599,52.195 50.597,52.197 50.595,52.197 L49.768,52.197 L49.768,49.671 Z M49.768,48.018 L49.768,46.397 L52.515,46.397 C53.21,46.397 53.776,46.963 53.776,47.659 C53.776,48.354 53.21,48.92 52.514,48.92 L49.768,48.92 L49.768,48.018 Z M53.965,49.045 C54.311,48.683 54.526,48.197 54.526,47.659 C54.526,46.64 53.762,45.804 52.779,45.674 L52.779,44.295 C52.779,44.089 52.611,43.92 52.404,43.92 C52.197,43.92 52.029,44.089 52.029,44.295 L52.029,45.647 L50.975,45.647 L50.975,44.295 C50.975,44.089 50.807,43.92 50.6,43.92 C50.461,43.92 50.344,44 50.279,44.113 C50.248,44.168 50.225,44.228 50.225,44.295 L50.225,45.647 L48.382,45.647 C48.175,45.647 48.007,45.815 48.007,46.022 C48.007,46.229 48.175,46.397 48.382,46.397 L49.018,46.397 L49.018,49.058 C48.964,49.124 48.927,49.203 48.927,49.295 C48.927,49.387 48.964,49.467 49.018,49.532 L49.018,52.197 L48.381,52.197 C48.174,52.197 48.006,52.365 48.006,52.572 C48.006,52.778 48.174,52.947 48.381,52.947 L50.225,52.947 L50.225,54.298 C50.225,54.505 50.393,54.673 50.6,54.673 C50.807,54.673 50.975,54.505 50.975,54.298 L50.975,52.947 L52.029,52.947 L52.029,54.298 C52.029,54.505 52.197,54.673 52.404,54.673 C52.611,54.673 52.779,54.505 52.779,54.298 L52.779,52.947 L53.293,52.947 C54.402,52.947 55.305,52.044 55.305,50.934 C55.305,50.061 54.743,49.323 53.965,49.045 Z" id="Fill-29"></path>
            <path d="M39.716,33.259 C39.649,33.326 39.622,33.414 39.616,33.5 C39.608,33.605 39.636,33.71 39.716,33.79 C39.747,33.821 39.79,33.818 39.827,33.836 C39.878,33.861 39.925,33.899 39.981,33.899 C40.077,33.899 40.173,33.862 40.246,33.79 L40.317,33.718 L43.591,30.444 C43.738,30.297 43.738,30.06 43.591,29.914 C43.445,29.766 43.208,29.766 43.061,29.914 L39.937,33.037 L39.716,33.259" id="Fill-30"></path>
            <path d="M40.826,34.453 L38.974,36.305 C38.828,36.452 38.828,36.689 38.974,36.836 C39.047,36.909 39.143,36.946 39.239,36.946 C39.335,36.946 39.431,36.909 39.504,36.836 L41.356,34.984 C41.502,34.837 41.502,34.6 41.356,34.453 C41.209,34.307 40.972,34.307 40.826,34.453" id="Fill-31"></path>
            <path d="M45.099,34.787 L42.489,37.397 C42.343,37.544 42.343,37.781 42.489,37.927 C42.562,38.001 42.658,38.037 42.754,38.037 C42.851,38.037 42.946,38.001 43.02,37.927 L45.629,35.319 C45.776,35.172 45.776,34.934 45.629,34.787 C45.483,34.641 45.246,34.641 45.099,34.787" id="Fill-32"></path>
            <path d="M42.685,35.429 C42.758,35.503 42.854,35.54 42.95,35.54 C43.046,35.54 43.142,35.503 43.215,35.429 L44.712,33.931 L45.334,33.308 L45.823,32.821 C45.97,32.674 45.97,32.436 45.823,32.29 C45.677,32.144 45.439,32.144 45.293,32.29 L44.479,33.104 L44.168,33.414 L43.857,33.726 L42.685,34.899 C42.538,35.046 42.538,35.283 42.685,35.429" id="Fill-33"></path>
            <path d="M38.29,33.285 C38.386,33.285 38.482,33.248 38.555,33.175 L40.731,31 C40.877,30.853 40.877,30.615 40.731,30.469 C40.584,30.323 40.347,30.323 40.201,30.469 L38.025,32.645 C37.878,32.792 37.878,33.029 38.025,33.175 C38.098,33.248 38.194,33.285 38.29,33.285" id="Fill-34"></path>
            <path d="M19.846,50.199 C19.66,49.461 19.745,48.876 20.107,48.41 C20.513,47.888 21.198,47.602 21.841,47.434 L21.841,48 C21.841,48.112 21.891,48.219 21.979,48.29 C22.046,48.345 22.13,48.375 22.216,48.375 C22.241,48.375 22.266,48.372 22.291,48.367 C22.316,48.362 22.342,48.358 22.367,48.353 C22.362,48.425 22.357,48.498 22.355,48.57 C22.095,48.586 21.823,48.628 21.571,48.726 C21.378,48.802 21.283,49.02 21.358,49.213 C21.416,49.361 21.558,49.451 21.708,49.451 C21.753,49.451 21.799,49.443 21.844,49.425 C22.007,49.362 22.188,49.33 22.367,49.317 C22.449,50.635 22.862,51.869 23.538,52.951 L23.71,55.462 C23.57,55.365 23.391,55.236 23.148,55.05 C23.147,55.049 23.146,55.049 23.146,55.049 C22.993,54.932 22.845,54.822 22.699,54.715 C21.476,53.81 20.592,53.155 19.846,50.199 Z M22.591,45.533 L22.591,44.372 C22.709,44.348 22.827,44.327 22.946,44.304 C23.069,44.28 23.193,44.257 23.316,44.234 C23.44,44.21 23.564,44.186 23.688,44.162 C23.778,44.146 23.869,44.128 23.959,44.111 C23.871,44.228 23.79,44.347 23.709,44.467 C23.638,44.572 23.566,44.677 23.5,44.783 C23.456,44.856 23.412,44.929 23.369,45.004 C23.341,45.055 23.316,45.107 23.289,45.159 C23.221,45.283 23.153,45.406 23.092,45.533 C23.075,45.571 23.055,45.606 23.038,45.643 C22.91,45.924 22.803,46.214 22.709,46.508 C22.665,46.648 22.627,46.788 22.591,46.931 L22.591,45.533 Z M43.884,47.283 C43.852,47.408 43.814,47.531 43.788,47.659 C43.762,47.781 43.748,47.908 43.728,48.033 C43.668,48.41 43.63,48.794 43.624,49.186 C42.618,48.851 41.52,48.856 40.516,49.195 C40.511,48.8 40.472,48.414 40.412,48.033 C40.392,47.908 40.378,47.781 40.352,47.659 C40.326,47.531 40.288,47.408 40.255,47.283 C40.197,47.058 40.13,46.839 40.054,46.622 L40.054,46.541 C41.291,45.839 42.878,45.839 44.116,46.541 C44.027,46.783 43.95,47.031 43.884,47.283 Z M32.483,56.584 C31.835,56.584 31.211,56.49 30.613,56.33 C27.499,55.503 25.195,52.668 25.195,49.297 C25.195,47.919 25.586,46.634 26.254,45.533 C26.331,45.407 26.407,45.28 26.491,45.159 C26.58,45.03 26.675,44.906 26.772,44.783 C28.108,43.097 30.169,42.009 32.483,42.009 C32.923,42.009 33.352,42.055 33.771,42.131 C33.898,42.153 34.025,42.18 34.151,42.21 C34.279,42.24 34.407,42.272 34.533,42.307 C35.997,42.738 37.269,43.616 38.194,44.783 C38.291,44.906 38.386,45.03 38.475,45.159 C38.479,45.166 38.485,45.173 38.491,45.18 C38.569,45.295 38.64,45.414 38.712,45.533 C38.946,45.919 39.144,46.326 39.304,46.753 C39.369,46.927 39.43,47.104 39.481,47.283 C39.518,47.407 39.549,47.532 39.579,47.659 C39.607,47.783 39.632,47.907 39.654,48.033 C39.663,48.087 39.67,48.141 39.679,48.197 C39.733,48.556 39.771,48.922 39.771,49.297 C39.771,49.515 39.757,49.732 39.738,49.947 C39.726,50.084 39.705,50.217 39.686,50.351 C39.641,50.661 39.578,50.965 39.494,51.261 C38.694,54.113 36.202,56.263 33.171,56.549 C32.944,56.57 32.715,56.584 32.483,56.584 Z M46.158,55.901 C46.019,56.033 45.872,56.156 45.723,56.274 C45.494,56.453 45.252,56.614 45.002,56.757 C44.573,57.005 44.115,57.194 43.639,57.327 C43.379,57.4 43.115,57.457 42.847,57.493 C42.674,57.516 42.5,57.529 42.324,57.536 C42.239,57.541 42.155,57.551 42.069,57.551 C41.995,57.551 41.921,57.542 41.847,57.538 C41.673,57.532 41.5,57.521 41.329,57.5 C41.064,57.465 40.804,57.41 40.548,57.341 C40.04,57.203 39.552,57.004 39.097,56.737 C38.86,56.598 38.631,56.443 38.413,56.272 C38.266,56.155 38.12,56.034 37.982,55.903 C37.903,55.827 37.831,55.742 37.755,55.661 C37.702,55.606 37.648,55.552 37.596,55.493 C38.262,54.943 38.831,54.283 39.292,53.548 L40.053,53.803 C40.092,53.816 40.132,53.821 40.172,53.821 C40.329,53.821 40.475,53.723 40.527,53.566 C40.593,53.369 40.487,53.157 40.291,53.091 L39.666,52.883 C40.11,51.996 40.397,51.021 40.486,49.986 C41.49,49.57 42.646,49.568 43.653,49.975 C43.74,51.014 44.028,51.993 44.474,52.883 L43.849,53.091 C43.652,53.157 43.546,53.369 43.612,53.565 C43.664,53.723 43.811,53.821 43.967,53.821 C44.007,53.821 44.047,53.816 44.086,53.803 L44.848,53.548 C45.308,54.283 45.877,54.943 46.543,55.493 C46.492,55.552 46.437,55.606 46.384,55.661 C46.309,55.741 46.237,55.826 46.158,55.901 Z M34.143,62.52 C29.952,62.018 27.8,60.307 26.789,59.109 C27.4,59.34 28.216,59.529 29.253,59.529 C31.48,59.527 34.028,58.671 36.829,56.981 C37.084,56.827 37.407,56.743 37.754,56.693 C38.802,57.585 40.086,58.137 41.448,58.266 C41.567,58.468 41.649,58.68 41.699,58.901 C41.665,59.106 41.652,59.316 41.662,59.531 C41.668,59.644 41.687,59.753 41.705,59.862 C41.691,59.92 41.669,59.974 41.65,60.03 C41.602,60.176 41.541,60.317 41.462,60.451 C41.371,60.609 41.259,60.759 41.132,60.902 C40.137,62.018 38.153,62.667 36.635,62.667 C36.064,62.667 35.532,62.641 35.019,62.604 C34.871,62.593 34.716,62.586 34.573,62.572 C34.424,62.557 34.286,62.536 34.143,62.52 Z M44.157,64.427 L39.982,64.427 C39.775,64.427 39.607,64.595 39.607,64.803 C39.607,65.742 38.988,66.577 38.03,66.929 C37.536,67.11 36.936,66.899 36.708,66.471 L35.054,63.363 C35.557,63.396 36.081,63.417 36.635,63.417 C38.548,63.417 41.091,62.545 42.085,60.89 C43.079,62.545 45.622,63.417 47.535,63.417 C48.078,63.417 48.591,63.396 49.085,63.364 L47.486,66.369 C47.227,66.854 46.554,67.093 45.995,66.886 C45.106,66.561 44.532,65.787 44.532,64.916 L44.532,64.803 C44.532,64.595 44.364,64.427 44.157,64.427 Z M49.999,62.524 C49.855,62.54 49.716,62.56 49.567,62.574 C49.424,62.588 49.27,62.595 49.122,62.605 C48.617,62.641 48.094,62.667 47.535,62.667 C46.02,62.667 44.042,62.021 43.045,60.91 C42.916,60.766 42.804,60.617 42.711,60.459 C42.632,60.323 42.57,60.182 42.522,60.036 C42.502,59.979 42.479,59.922 42.464,59.862 C42.436,59.743 42.417,59.62 42.411,59.495 C42.401,59.288 42.428,59.093 42.471,58.901 C42.52,58.679 42.603,58.467 42.723,58.265 C44.075,58.131 45.348,57.577 46.389,56.69 C46.746,56.738 47.079,56.823 47.341,56.981 C50.142,58.671 52.691,59.529 54.916,59.529 C55.954,59.529 56.77,59.34 57.381,59.109 C56.367,60.31 54.207,62.027 49.999,62.524 Z M51.656,56.584 C51.424,56.584 51.195,56.57 50.968,56.549 C47.941,56.264 45.453,54.119 44.648,51.273 C44.563,50.971 44.499,50.659 44.453,50.342 C44.433,50.206 44.413,50.069 44.401,49.93 C44.383,49.721 44.369,49.511 44.369,49.297 C44.369,48.865 44.414,48.445 44.486,48.033 C44.488,48.023 44.489,48.012 44.491,48.001 C44.512,47.886 44.535,47.772 44.561,47.659 C44.59,47.532 44.622,47.407 44.658,47.283 C44.718,47.075 44.788,46.871 44.866,46.672 C45.02,46.274 45.209,45.894 45.428,45.533 C45.495,45.422 45.561,45.307 45.634,45.199 C45.644,45.186 45.655,45.173 45.665,45.159 C45.754,45.03 45.849,44.906 45.945,44.783 C46.877,43.608 48.16,42.726 49.637,42.301 C49.763,42.263 49.891,42.232 50.019,42.202 C50.145,42.173 50.271,42.148 50.399,42.126 C50.809,42.054 51.227,42.009 51.656,42.009 C53.97,42.009 56.031,43.097 57.367,44.783 C57.464,44.906 57.559,45.03 57.647,45.159 C57.731,45.28 57.808,45.407 57.885,45.533 C58.552,46.634 58.944,47.919 58.944,49.297 C58.944,52.668 56.64,55.503 53.525,56.332 C52.928,56.49 52.303,56.584 51.656,56.584 Z M59.302,44.219 C59.432,44.37 59.56,44.525 59.677,44.687 C59.699,44.718 59.719,44.752 59.741,44.783 C59.827,44.907 59.912,45.031 59.99,45.159 C60.065,45.281 60.133,45.407 60.201,45.533 C60.248,45.62 60.296,45.706 60.339,45.795 C60.448,46.02 60.545,46.249 60.63,46.485 C60.64,46.511 60.653,46.536 60.662,46.564 C60.693,46.654 60.716,46.746 60.744,46.837 C60.782,46.963 60.819,47.088 60.85,47.215 C60.867,47.283 60.883,47.35 60.897,47.42 C60.921,47.535 60.937,47.653 60.956,47.77 C60.958,47.786 60.961,47.801 60.963,47.819 C60.983,47.947 61.002,48.077 61.014,48.209 C61.025,48.336 61.03,48.465 61.035,48.593 C61.038,48.675 61.048,48.756 61.048,48.839 C61.048,49.012 61.033,49.181 61.02,49.351 C60.982,49.862 60.889,50.358 60.745,50.836 C60.644,51.173 60.523,51.501 60.374,51.817 C60.349,51.87 60.318,51.921 60.292,51.973 C60.164,52.226 60.021,52.471 59.865,52.708 C59.145,53.802 58.132,54.715 56.921,55.355 C58.616,53.881 59.694,51.715 59.694,49.297 C59.694,48.832 59.646,48.379 59.569,47.936 C59.547,47.803 59.523,47.67 59.494,47.54 C59.44,47.299 59.377,47.06 59.302,46.827 C59.197,46.506 59.069,46.195 58.927,45.892 C58.87,45.772 58.816,45.651 58.753,45.533 C58.685,45.405 58.608,45.283 58.533,45.159 C58.458,45.032 58.385,44.905 58.302,44.783 C57.026,42.911 54.98,41.608 52.624,41.323 C52.692,41.322 52.758,41.314 52.827,41.314 C55.248,41.314 57.421,42.283 58.927,43.812 C59.057,43.944 59.182,44.078 59.302,44.219 Z M23.09,48.839 C23.09,48.756 23.101,48.675 23.104,48.593 C23.108,48.465 23.114,48.336 23.125,48.209 C23.137,48.077 23.156,47.948 23.175,47.819 C23.178,47.802 23.181,47.786 23.183,47.771 C23.201,47.653 23.218,47.535 23.242,47.42 C23.256,47.35 23.272,47.283 23.289,47.216 C23.342,46.994 23.402,46.778 23.477,46.565 C23.486,46.537 23.499,46.511 23.509,46.485 C23.594,46.249 23.69,46.02 23.8,45.795 C23.843,45.706 23.891,45.62 23.938,45.533 C24.006,45.407 24.073,45.281 24.148,45.159 C24.228,45.031 24.312,44.907 24.397,44.783 C24.42,44.752 24.439,44.719 24.462,44.687 C24.579,44.525 24.707,44.37 24.837,44.219 C24.957,44.078 25.082,43.945 25.212,43.812 C26.718,42.283 28.891,41.314 31.313,41.314 C31.381,41.314 31.447,41.322 31.515,41.323 C29.159,41.608 27.112,42.911 25.836,44.783 C25.754,44.905 25.681,45.032 25.605,45.159 C25.53,45.283 25.454,45.405 25.385,45.533 C25.323,45.651 25.269,45.772 25.212,45.892 C25.069,46.195 24.941,46.506 24.837,46.827 C24.762,47.06 24.698,47.299 24.645,47.54 C24.615,47.67 24.592,47.803 24.569,47.936 C24.493,48.379 24.445,48.832 24.445,49.297 C24.445,51.714 25.522,53.88 27.217,55.354 C26.007,54.715 24.994,53.801 24.272,52.706 C24.117,52.469 23.974,52.226 23.847,51.972 C23.663,51.607 23.511,51.226 23.393,50.833 C23.249,50.356 23.156,49.862 23.119,49.351 C23.106,49.181 23.09,49.012 23.09,48.839 Z M33.459,24.557 C33.438,24.201 33.565,23.848 33.809,23.589 C34.054,23.328 34.398,23.179 34.754,23.179 L49.415,23.179 C49.771,23.179 50.116,23.327 50.361,23.588 C50.604,23.847 50.732,24.2 50.71,24.557 L50.657,25.444 L50.632,25.85 L49.71,41.089 C47.727,41.77 46.074,43.075 45.036,44.749 C45.027,44.761 45.018,44.772 45.01,44.783 C44.928,44.905 44.855,45.032 44.779,45.159 C44.704,45.283 44.627,45.405 44.559,45.533 C44.503,45.639 44.454,45.749 44.403,45.857 C44.163,45.728 43.914,45.619 43.657,45.533 C42.642,45.195 41.527,45.195 40.513,45.533 C40.247,45.621 39.99,45.735 39.743,45.87 C39.69,45.757 39.639,45.644 39.581,45.533 C39.512,45.405 39.436,45.283 39.36,45.159 C39.285,45.032 39.212,44.905 39.129,44.783 C39.117,44.765 39.103,44.749 39.09,44.732 C38.058,43.074 36.422,41.781 34.459,41.1 L33.537,25.85 L33.513,25.444 L33.459,24.557 Z M21.139,44.281 C21.155,44.243 21.164,44.202 21.166,44.159 C21.247,42.464 21.554,40.836 22.018,39.277 L22.591,39.125 L22.96,39.027 L23.33,38.929 L27.903,37.721 C28.104,37.668 28.223,37.463 28.17,37.263 C28.118,37.064 27.916,36.943 27.712,36.996 L23.277,38.168 L22.908,38.265 L22.539,38.362 L22.273,38.432 C22.344,38.228 22.425,38.027 22.502,37.824 C22.588,37.597 22.684,37.376 22.778,37.153 C23.302,35.912 23.941,34.738 24.687,33.636 L27.307,33.683 C27.31,33.683 27.312,33.683 27.314,33.683 C27.518,33.683 27.685,33.52 27.689,33.316 C27.693,33.108 27.528,32.937 27.321,32.933 L25.197,32.895 C26.005,31.807 26.92,30.807 27.922,29.898 C28.063,29.878 28.191,29.788 28.233,29.642 C28.234,29.639 28.233,29.635 28.234,29.631 C29.618,28.423 31.158,27.394 32.83,26.58 L33.694,40.869 C32.934,40.676 32.138,40.564 31.313,40.564 C28.729,40.564 26.403,41.583 24.765,43.2 C24.388,43.266 24.013,43.343 23.637,43.413 C23.513,43.437 23.389,43.461 23.266,43.485 C23.142,43.507 23.018,43.531 22.895,43.555 C22.644,43.604 22.392,43.646 22.141,43.697 C21.966,43.733 21.841,43.887 21.841,44.065 L21.841,44.783 L21.139,44.783 L21.139,44.281 Z M44.745,70.569 L39.394,70.569 C37.238,70.569 35.138,69.837 33.479,68.506 L27.523,63.725 C25.846,62.381 24.801,60.403 24.656,58.301 L24.366,54.068 C25.851,55.743 28.033,56.87 30.5,57.075 C31.135,57.238 31.797,57.333 32.483,57.333 C34.153,57.333 35.706,56.821 36.993,55.944 C37.026,55.985 37.064,56.018 37.099,56.057 C36.862,56.13 36.639,56.219 36.441,56.339 C33.759,57.957 31.341,58.778 29.253,58.778 C26.974,58.778 25.918,57.761 25.909,57.753 C25.786,57.628 25.589,57.605 25.441,57.7 C25.292,57.795 25.229,57.981 25.291,58.146 C25.362,58.341 27,62.471 34.155,63.272 L36.046,66.824 C36.35,67.393 36.96,67.747 37.64,67.747 C37.862,67.747 38.08,67.709 38.289,67.633 C39.419,67.218 40.189,66.277 40.333,65.177 L43.794,65.177 C43.897,66.258 44.637,67.188 45.736,67.591 C45.96,67.673 46.196,67.715 46.436,67.715 C47.165,67.715 47.82,67.335 48.147,66.723 L49.981,63.275 C57.164,62.483 58.808,58.341 58.879,58.146 C58.94,57.982 58.878,57.798 58.73,57.702 C58.583,57.607 58.389,57.628 58.263,57.752 C58.252,57.761 57.196,58.778 54.916,58.778 C52.829,58.778 50.411,57.957 47.729,56.339 C47.524,56.215 47.293,56.122 47.047,56.049 C47.08,56.013 47.114,55.981 47.146,55.944 C48.433,56.821 49.985,57.333 51.656,57.333 C52.341,57.333 53.003,57.238 53.639,57.075 C56.105,56.87 58.287,55.743 59.772,54.069 L59.482,58.301 C59.338,60.402 58.294,62.379 56.616,63.725 L50.66,68.506 C49.001,69.837 46.901,70.569 44.745,70.569 Z M64.293,50.199 C63.547,53.155 62.663,53.81 61.439,54.715 C61.294,54.822 61.144,54.932 60.991,55.05 C60.751,55.234 60.573,55.367 60.427,55.473 L60.6,52.952 C61.276,51.87 61.69,50.635 61.772,49.317 C61.951,49.33 62.132,49.362 62.296,49.426 C62.34,49.443 62.387,49.451 62.432,49.451 C62.582,49.451 62.724,49.361 62.781,49.213 C62.857,49.02 62.761,48.802 62.568,48.726 C62.315,48.628 62.044,48.586 61.784,48.57 C61.781,48.498 61.776,48.425 61.771,48.353 C61.797,48.358 61.823,48.362 61.849,48.367 C61.873,48.372 61.898,48.375 61.923,48.375 C62.009,48.375 62.093,48.345 62.161,48.29 C62.248,48.219 62.298,48.112 62.298,48 L62.298,47.433 C62.939,47.599 63.624,47.887 64.03,48.408 C64.394,48.876 64.48,49.461 64.293,50.199 Z M61.548,45.533 L61.548,46.932 C61.546,46.923 61.543,46.911 61.54,46.902 C61.505,46.77 61.471,46.638 61.43,46.508 C61.336,46.214 61.229,45.924 61.101,45.643 C61.084,45.606 61.064,45.571 61.046,45.533 C60.986,45.406 60.918,45.283 60.85,45.159 C60.822,45.107 60.798,45.055 60.77,45.004 C60.727,44.929 60.683,44.856 60.639,44.783 C60.572,44.677 60.501,44.572 60.43,44.467 C60.349,44.347 60.267,44.226 60.179,44.111 C60.27,44.128 60.36,44.145 60.451,44.162 C60.575,44.186 60.698,44.209 60.822,44.233 C60.946,44.257 61.069,44.28 61.193,44.304 C61.312,44.327 61.43,44.347 61.548,44.372 L61.548,45.533 Z M61.642,37.761 C61.782,38.124 61.908,38.493 62.028,38.867 L61.574,38.737 L61.206,38.633 L60.837,38.528 L56.369,37.26 C56.169,37.202 55.962,37.319 55.906,37.517 C55.849,37.717 55.965,37.924 56.164,37.981 L60.785,39.293 L61.153,39.398 L61.522,39.503 L62.286,39.719 C62.675,41.144 62.931,42.625 63.004,44.159 C63.006,44.198 63.015,44.237 63.03,44.272 L63.03,44.783 L62.298,44.783 L62.298,44.065 C62.298,43.887 62.173,43.733 61.998,43.697 C61.748,43.646 61.496,43.604 61.244,43.555 C61.121,43.531 60.997,43.508 60.873,43.485 C60.75,43.461 60.626,43.437 60.502,43.414 C60.126,43.344 59.751,43.266 59.374,43.2 C57.736,41.583 55.411,40.564 52.827,40.564 C52.012,40.564 51.227,40.674 50.476,40.862 L51.34,26.58 C53.031,27.405 54.589,28.447 55.985,29.674 C55.96,29.743 55.948,29.819 55.968,29.897 C56.013,30.065 56.165,30.176 56.331,30.176 C56.362,30.176 56.395,30.173 56.427,30.163 L56.526,30.137 C57.608,31.155 58.566,32.297 59.409,33.524 L56.832,33.476 C56.604,33.473 56.454,33.639 56.45,33.845 C56.446,34.052 56.611,34.223 56.818,34.226 L59.908,34.283 C60.48,35.201 60.977,36.168 61.401,37.175 C61.482,37.37 61.565,37.564 61.642,37.761 Z M67.716,33.673 L62.545,33.58 L60.317,33.54 C59.462,32.226 58.473,31.011 57.357,29.918 L63.384,28.327 C63.585,28.274 63.704,28.069 63.651,27.868 C63.599,27.668 63.394,27.549 63.193,27.601 L56.717,29.312 C55.137,27.884 53.342,26.695 51.388,25.778 L51.459,24.602 C51.493,24.04 51.292,23.483 50.907,23.074 C50.521,22.663 49.978,22.429 49.415,22.429 L34.754,22.429 C34.192,22.429 33.649,22.664 33.263,23.075 C32.878,23.485 32.676,24.041 32.71,24.601 L32.781,25.778 C30.926,26.649 29.219,27.767 27.699,29.1 L21.053,27.215 C20.853,27.157 20.646,27.274 20.59,27.472 C20.533,27.672 20.649,27.879 20.848,27.935 L27.032,29.691 C26.016,30.659 25.101,31.729 24.291,32.879 L16.436,32.736 C16.434,32.736 16.431,32.736 16.429,32.736 C16.225,32.736 16.058,32.9 16.054,33.104 C16.05,33.312 16.215,33.482 16.422,33.486 L21.609,33.58 L23.799,33.62 C22.798,35.173 21.998,36.861 21.424,38.657 L20.755,38.834 C20.555,38.887 20.435,39.092 20.488,39.292 C20.533,39.46 20.685,39.571 20.851,39.571 C20.882,39.571 20.915,39.567 20.947,39.558 L21.163,39.502 C20.77,40.941 20.508,42.436 20.424,43.982 C20.401,44.031 20.389,44.086 20.389,44.14 L20.39,45.159 C20.39,45.366 20.558,45.533 20.765,45.533 L21.841,45.533 L21.841,46.656 C21.027,46.844 20.086,47.216 19.517,47.948 C19.009,48.6 18.875,49.419 19.119,50.382 C19.93,53.598 21.007,54.396 22.253,55.317 L22.692,55.646 C23.202,56.036 23.53,56.26 23.772,56.37 L23.908,58.352 C24.067,60.662 25.214,62.834 27.053,64.311 L33.01,69.091 C34.801,70.528 37.068,71.319 39.394,71.319 L44.745,71.319 C47.071,71.319 49.338,70.528 51.129,69.091 L57.085,64.311 C58.926,62.833 60.072,60.661 60.23,58.352 L60.362,56.431 C60.594,56.294 60.917,56.052 61.447,55.646 L61.886,55.317 C63.132,54.396 64.209,53.598 65.021,50.382 C65.263,49.419 65.129,48.6 64.622,47.948 C64.053,47.216 63.112,46.844 62.298,46.656 L62.298,45.533 L63.405,45.533 C63.612,45.533 63.78,45.365 63.78,45.159 L63.78,44.14 C63.78,44.089 63.768,44.04 63.747,43.994 C63.672,42.606 63.461,41.257 63.135,39.953 C63.152,39.955 63.17,39.961 63.188,39.961 C63.352,39.961 63.502,39.853 63.549,39.688 C63.605,39.489 63.49,39.281 63.29,39.224 L62.886,39.111 C62.384,37.41 61.696,35.792 60.812,34.299 L67.703,34.423 C67.705,34.423 67.707,34.423 67.71,34.423 C67.914,34.423 68.081,34.26 68.085,34.055 C68.088,33.848 67.923,33.677 67.716,33.673 Z" id="Fill-35"></path>
            <path d="M23.005,22.695 L29.189,26.374 C29.25,26.409 29.316,26.427 29.381,26.427 C29.509,26.427 29.633,26.361 29.704,26.243 C29.81,26.065 29.751,25.836 29.573,25.729 L23.389,22.051 C23.211,21.945 22.981,22.003 22.875,22.181 C22.769,22.359 22.828,22.589 23.005,22.695" id="Fill-36"></path>
            <path d="M37.927,19.414 C37.972,19.582 38.124,19.693 38.29,19.693 C38.321,19.693 38.354,19.689 38.386,19.68 C38.586,19.628 38.706,19.423 38.653,19.222 L36.816,12.265 C36.764,12.066 36.56,11.947 36.358,12 C36.158,12.052 36.038,12.257 36.091,12.457 L37.927,19.414" id="Fill-37"></path>
            <path d="M31.457,23.307 C31.53,23.382 31.627,23.42 31.725,23.42 C31.819,23.42 31.915,23.383 31.987,23.312 C32.135,23.167 32.137,22.929 31.992,22.781 L24.365,15.013 C24.221,14.866 23.982,14.864 23.835,15.008 C23.687,15.154 23.685,15.391 23.83,15.538 L31.457,23.307" id="Fill-38"></path>
            <path d="M34.446,20.936 C34.515,21.056 34.642,21.124 34.772,21.124 C34.835,21.124 34.898,21.109 34.958,21.075 C35.137,20.972 35.2,20.743 35.097,20.564 L31.532,14.314 C31.429,14.134 31.201,14.072 31.021,14.174 C30.841,14.277 30.778,14.506 30.881,14.685 L34.446,20.936" id="Fill-39"></path>
            <path d="M42.334,19.199 C42.337,19.199 42.339,19.199 42.341,19.199 C42.545,19.199 42.712,19.035 42.716,18.83 L42.888,9.327 C42.892,9.12 42.727,8.949 42.52,8.946 C42.517,8.946 42.515,8.946 42.513,8.946 C42.309,8.946 42.142,9.109 42.138,9.314 L41.966,18.817 C41.962,19.024 42.127,19.195 42.334,19.199" id="Fill-40"></path>
            <path d="M46.007,19.744 C46.042,19.755 46.076,19.759 46.11,19.759 C46.273,19.759 46.424,19.652 46.471,19.487 L48.436,12.565 C48.492,12.366 48.377,12.159 48.177,12.101 C47.978,12.045 47.771,12.161 47.714,12.361 L45.749,19.281 C45.692,19.481 45.808,19.688 46.007,19.744" id="Fill-41"></path>
            <path d="M49.405,21.214 C49.465,21.249 49.532,21.266 49.597,21.266 C49.725,21.266 49.849,21.201 49.919,21.084 L53.599,14.9 C53.705,14.721 53.646,14.491 53.468,14.385 C53.29,14.28 53.06,14.339 52.954,14.515 L49.275,20.699 C49.169,20.878 49.228,21.108 49.405,21.214" id="Fill-42"></path>
            <path d="M52.338,23.497 C52.411,23.573 52.508,23.611 52.606,23.611 C52.7,23.611 52.795,23.575 52.868,23.503 L60.636,15.876 C60.784,15.731 60.786,15.493 60.641,15.345 C60.497,15.198 60.259,15.196 60.111,15.34 L52.343,22.967 C52.195,23.113 52.193,23.35 52.338,23.497" id="Fill-43"></path>
            <path d="M54.576,26.468 C54.645,26.589 54.771,26.657 54.902,26.657 C54.965,26.657 55.028,26.641 55.087,26.608 L61.337,23.043 C61.517,22.94 61.579,22.711 61.477,22.531 C61.373,22.352 61.146,22.288 60.965,22.391 L54.715,25.956 C54.536,26.058 54.473,26.287 54.576,26.468" id="Fill-44"></path>
            <path d="M83.292,47.951 C83.121,47.228 82.777,46.582 82.317,46.038 L82.558,45.799 C82.704,45.653 82.704,45.414 82.558,45.268 C82.411,45.121 82.174,45.121 82.027,45.268 L81.787,45.509 C81.245,45.049 80.599,44.706 79.874,44.533 C79.673,44.485 79.471,44.61 79.422,44.812 C79.374,45.012 79.499,45.215 79.7,45.263 C80.286,45.402 80.812,45.674 81.257,46.038 L78.602,48.693 L75.947,46.04 C76.392,45.674 76.917,45.402 77.502,45.263 C77.704,45.215 77.828,45.012 77.78,44.812 C77.732,44.609 77.529,44.485 77.329,44.533 C76.605,44.704 75.959,45.049 75.416,45.509 L75.176,45.268 C75.03,45.121 74.793,45.121 74.646,45.268 C74.499,45.414 74.499,45.653 74.646,45.799 L74.886,46.038 C74.426,46.582 74.083,47.228 73.91,47.951 C73.862,48.153 73.986,48.356 74.188,48.403 C74.217,48.41 74.247,48.414 74.275,48.414 C74.445,48.414 74.599,48.298 74.64,48.125 C74.779,47.54 75.052,47.015 75.417,46.57 L78.072,49.223 L76.706,50.589 C76.56,50.736 76.56,50.973 76.706,51.119 C76.779,51.193 76.875,51.229 76.971,51.229 C77.067,51.229 77.163,51.193 77.236,51.119 L78.602,49.754 L79.968,51.119 C80.041,51.193 80.137,51.229 80.233,51.229 C80.329,51.229 80.425,51.193 80.498,51.119 C80.645,50.973 80.645,50.736 80.498,50.589 L79.132,49.223 L81.787,46.569 C82.152,47.014 82.424,47.538 82.562,48.124 C82.603,48.297 82.757,48.412 82.927,48.412 C82.956,48.412 82.984,48.41 83.014,48.403 C83.215,48.356 83.34,48.153 83.292,47.951" id="Fill-45"></path>
            <path d="M9.253,46.038 L9.493,45.799 C9.64,45.653 9.64,45.414 9.493,45.268 C9.347,45.121 9.109,45.121 8.963,45.268 L8.723,45.509 C8.181,45.049 7.534,44.706 6.81,44.533 C6.609,44.485 6.407,44.609 6.358,44.812 C6.311,45.012 6.435,45.215 6.636,45.263 C7.222,45.402 7.747,45.674 8.192,46.04 L5.537,48.694 L2.883,46.04 C3.327,45.674 3.853,45.402 4.438,45.263 C4.64,45.215 4.764,45.012 4.716,44.812 C4.668,44.609 4.465,44.485 4.265,44.533 C3.54,44.704 2.895,45.049 2.352,45.509 L2.111,45.268 C1.965,45.121 1.728,45.121 1.581,45.268 C1.435,45.414 1.435,45.653 1.581,45.799 L1.821,46.038 C1.362,46.582 1.019,47.228 0.847,47.952 C0.799,48.153 0.923,48.356 1.125,48.403 C1.154,48.41 1.183,48.414 1.212,48.414 C1.381,48.414 1.535,48.298 1.576,48.125 C1.715,47.54 1.987,47.015 2.353,46.57 L5.007,49.223 L3.642,50.589 C3.495,50.736 3.495,50.973 3.642,51.119 C3.715,51.193 3.811,51.229 3.907,51.229 C4.003,51.229 4.099,51.193 4.172,51.119 L5.537,49.754 L6.903,51.119 C6.976,51.193 7.072,51.229 7.168,51.229 C7.264,51.229 7.36,51.193 7.433,51.119 C7.58,50.973 7.58,50.736 7.433,50.589 L6.067,49.223 L8.722,46.57 C9.087,47.015 9.359,47.54 9.499,48.125 C9.54,48.297 9.693,48.412 9.863,48.412 C9.892,48.412 9.921,48.41 9.95,48.403 C10.151,48.355 10.276,48.153 10.228,47.951 C10.056,47.228 9.713,46.582 9.253,46.038" id="Fill-46"></path>
        </g>
    </g>
</svg>