<?xml version="1.0" encoding="UTF-8"?>
<svg width="74px" height="75px" viewBox="0 0 74 75" version="1.1" xmlns="http://www.w3.org/2000/svg" xmlns:xlink="http://www.w3.org/1999/xlink">
    <!-- Generator: Sketch 49 (51002) - http://www.bohemiancoding.com/sketch -->
    <title>bitcoin-grey-24</title>
    <desc>Created with Sketch.</desc>
    <defs></defs>
    <g id="Page-1" stroke="none" stroke-width="1" fill="none" fill-rule="evenodd">
        <g id="bitcoin-grey-24" transform="translate(0.000000, -1.000000)">
            <polyline id="Fill-1" fill="#FFFFFF" points="4.044 75.624 66.366 75.624 70.094 70.018 66.366 64.413 4.044 64.413 7.284 70.018 4.044 75.624"></polyline>
            <path d="M4.694,75.249 L66.165,75.249 L69.644,70.018 L66.165,64.788 L4.694,64.788 L7.608,69.832 C7.675,69.947 7.675,70.09 7.608,70.206 L4.694,75.249 Z M66.366,76 L4.044,76 C3.911,76 3.787,75.928 3.72,75.812 C3.653,75.696 3.653,75.553 3.72,75.437 L6.851,70.018 L3.72,64.602 C3.653,64.486 3.653,64.343 3.72,64.226 C3.787,64.11 3.911,64.038 4.044,64.038 L66.366,64.038 C66.491,64.038 66.608,64.101 66.678,64.206 L70.406,69.812 C70.49,69.937 70.49,70.1 70.406,70.226 L66.678,75.832 C66.608,75.937 66.491,76 66.366,76 Z" id="Fill-2" fill="#000000"></path>
            <path d="M34.683,16.807 L39.683,16.807 C39.882,16.807 40.041,16.65 40.054,16.454 C40.054,16.447 40.058,16.44 40.058,16.432 C40.058,16.264 39.946,16.128 39.794,16.08 C39.759,16.068 39.723,16.057 39.683,16.057 L34.683,16.057 C34.644,16.057 34.607,16.068 34.572,16.08 C34.42,16.128 34.308,16.264 34.308,16.432 C34.308,16.44 34.312,16.447 34.312,16.454 C34.325,16.65 34.484,16.807 34.683,16.807" id="Fill-3" fill="#000000"></path>
            <path d="M41.069,16.807 L41.514,16.807 C41.713,16.807 41.872,16.65 41.885,16.454 C41.885,16.447 41.889,16.44 41.889,16.432 C41.889,16.264 41.777,16.128 41.625,16.08 C41.59,16.068 41.554,16.057 41.514,16.057 L41.069,16.057 C41.029,16.057 40.993,16.068 40.958,16.08 C40.806,16.128 40.694,16.264 40.694,16.432 C40.694,16.44 40.698,16.447 40.698,16.454 C40.711,16.65 40.87,16.807 41.069,16.807" id="Fill-4" fill="#000000"></path>
            <path d="M46.391,52.12 L42.087,52.12 C41.88,52.12 41.712,52.288 41.712,52.495 C41.712,52.702 41.88,52.87 42.087,52.87 L46.391,52.87 C46.598,52.87 46.766,52.702 46.766,52.495 C46.766,52.288 46.598,52.12 46.391,52.12" id="Fill-5" fill="#000000"></path>
            <path d="M33.927,52.12 L29.624,52.12 C29.603,52.12 29.585,52.13 29.564,52.133 C29.387,52.162 29.249,52.31 29.249,52.495 C29.249,52.584 29.283,52.66 29.333,52.723 C29.402,52.81 29.504,52.87 29.624,52.87 L33.927,52.87 C34.134,52.87 34.302,52.702 34.302,52.495 C34.302,52.288 34.134,52.12 33.927,52.12" id="Fill-6" fill="#000000"></path>
            <path d="M38.099,54.203 C37.157,54.203 36.39,53.437 36.39,52.495 C36.39,51.554 37.157,50.787 38.099,50.787 C39.041,50.787 39.806,51.554 39.806,52.495 C39.806,53.437 39.041,54.203 38.099,54.203 Z M38.099,50.037 C36.743,50.037 35.64,51.14 35.64,52.495 C35.64,53.85 36.743,54.953 38.099,54.953 C39.454,54.953 40.556,53.85 40.556,52.495 C40.556,51.14 39.454,50.037 38.099,50.037 Z" id="Fill-7" fill="#000000"></path>
            <path d="M19.968,31.372 L19.653,29.55 L19.613,29.321 L19.773,29.292 L19.939,29.263 L21.222,29.042 L22.492,28.821 L22.524,28.816 L23.297,28.682 C23.44,28.657 23.581,28.662 23.718,28.682 C23.994,28.723 24.246,28.844 24.446,29.031 C24.502,29.083 24.552,29.14 24.599,29.201 C24.71,29.347 24.792,29.515 24.836,29.701 C24.844,29.73 24.855,29.757 24.86,29.786 C24.922,30.142 24.841,30.501 24.633,30.797 C24.624,30.81 24.608,30.816 24.599,30.828 C24.394,31.098 24.094,31.292 23.758,31.35 L23.068,31.469 L22.844,31.508 C22.841,31.508 22.838,31.507 22.835,31.507 C22.833,31.508 22.83,31.51 22.827,31.511 L21.787,31.691 L20.965,31.832 C20.963,31.833 20.96,31.831 20.958,31.832 C20.956,31.833 20.954,31.834 20.952,31.835 L20.485,31.916 L20.074,31.986 L19.968,31.372 Z M19.024,25.916 L19.906,25.764 C19.907,25.763 19.908,25.763 19.909,25.763 C19.91,25.763 19.91,25.763 19.91,25.763 L20.291,25.697 L21.593,25.472 L21.898,25.42 C22.14,25.378 22.382,25.427 22.61,25.515 C22.712,25.555 22.818,25.584 22.908,25.647 C23.036,25.737 23.136,25.854 23.224,25.979 C23.339,26.14 23.426,26.321 23.461,26.522 C23.478,26.619 23.458,26.713 23.454,26.81 C23.443,27.066 23.385,27.316 23.234,27.531 C23.026,27.825 22.717,28.021 22.362,28.083 L22.143,28.12 L21.128,28.297 L20.859,28.343 L19.646,28.553 L19.558,28.569 L19.485,28.58 L19.179,26.808 L19.024,25.916 Z M17.604,26.161 L17.707,26.143 L17.708,26.143 L18.286,26.044 L18.374,26.553 L18.53,27.458 L18.688,28.376 L18.769,28.838 C18.723,28.912 18.7,29.002 18.716,29.095 C18.73,29.177 18.776,29.241 18.831,29.294 C18.84,29.303 18.843,29.314 18.852,29.321 L19.319,32.021 L19.335,32.114 L19.203,32.137 L18.766,32.212 L18.651,32.232 C18.447,32.268 18.311,32.462 18.346,32.666 C18.36,32.751 18.407,32.821 18.466,32.874 C18.534,32.936 18.619,32.976 18.715,32.976 C18.736,32.976 18.758,32.974 18.779,32.971 L19.565,32.836 L20.717,32.637 L20.735,32.742 L20.892,33.646 L20.964,34.06 C20.991,34.218 21.119,34.319 21.267,34.348 C21.291,34.352 21.309,34.371 21.333,34.371 C21.354,34.371 21.376,34.37 21.397,34.367 C21.602,34.33 21.738,34.137 21.703,33.932 L21.7,33.914 L21.541,32.996 L21.456,32.509 L22.148,32.389 L22.593,32.313 L22.697,32.917 L22.839,33.737 C22.843,33.763 22.866,33.777 22.875,33.799 C22.932,33.943 23.054,34.048 23.208,34.048 C23.229,34.048 23.25,34.047 23.272,34.042 C23.476,34.007 23.613,33.813 23.578,33.609 L23.347,32.267 L23.333,32.184 L23.45,32.164 L23.886,32.089 C24.14,32.045 24.38,31.949 24.599,31.819 C24.733,31.739 24.86,31.649 24.974,31.542 C25.075,31.447 25.166,31.343 25.247,31.229 C25.287,31.171 25.315,31.109 25.349,31.049 C25.533,30.723 25.629,30.363 25.624,29.991 C25.622,29.88 25.618,29.768 25.599,29.657 C25.566,29.464 25.499,29.286 25.419,29.119 C25.397,29.072 25.374,29.027 25.349,28.982 C25.247,28.803 25.123,28.641 24.976,28.501 L24.974,28.5 C24.86,28.391 24.734,28.299 24.599,28.218 C24.511,28.165 24.42,28.115 24.325,28.076 C24.175,28.015 24.018,27.973 23.856,27.947 C24.024,27.704 24.134,27.433 24.188,27.152 C24.236,26.905 24.244,26.65 24.2,26.394 C24.185,26.304 24.155,26.22 24.129,26.135 C24.051,25.88 23.926,25.647 23.761,25.442 C23.64,25.29 23.503,25.149 23.34,25.033 C23.29,24.998 23.234,24.974 23.182,24.944 C22.936,24.8 22.668,24.71 22.39,24.675 C22.271,24.66 22.153,24.655 22.032,24.661 L21.781,23.209 C21.778,23.193 21.769,23.18 21.764,23.163 C21.708,22.988 21.532,22.872 21.348,22.904 C21.144,22.94 21.007,23.133 21.042,23.337 L21.279,24.709 L21.289,24.763 L21.211,24.777 L20.151,24.96 L20.124,24.803 L19.965,23.885 L19.904,23.533 C19.875,23.361 19.726,23.243 19.56,23.231 C19.53,23.228 19.501,23.223 19.471,23.228 C19.279,23.261 19.153,23.434 19.166,23.624 C19.167,23.637 19.163,23.649 19.165,23.661 L19.412,25.089 L18.627,25.223 L17.476,25.423 C17.272,25.458 17.135,25.653 17.17,25.856 C17.206,26.06 17.402,26.197 17.604,26.161 Z" id="Fill-8" fill="#000000"></path>
            <path d="M63.245,47.902 C62.954,48.451 62.595,48.958 62.185,49.42 C61.573,50.109 60.843,50.69 60.022,51.124 C59.486,51.408 58.911,51.625 58.31,51.777 C57.892,51.882 57.462,51.954 57.021,51.989 C56.825,52.003 56.629,52.017 56.429,52.017 C56.269,52.017 56.112,52.004 55.954,51.994 C55.628,51.973 55.306,51.938 54.992,51.879 C54.702,51.823 54.417,51.757 54.14,51.671 C53.872,51.587 53.612,51.486 53.357,51.376 C53.115,51.27 52.88,51.151 52.651,51.022 C52.424,50.894 52.205,50.753 51.993,50.604 C51.787,50.457 51.589,50.302 51.398,50.137 C51.206,49.971 51.022,49.795 50.848,49.611 C50.675,49.429 50.511,49.239 50.356,49.041 C50.198,48.839 50.05,48.628 49.912,48.409 C49.774,48.19 49.647,47.963 49.531,47.729 C49.409,47.486 49.302,47.235 49.206,46.978 C49.108,46.714 49.024,46.444 48.956,46.168 C48.882,45.87 48.823,45.57 48.785,45.261 C48.747,44.949 48.72,44.632 48.72,44.31 C48.72,44.297 48.722,44.283 48.722,44.27 C48.722,44.267 48.723,44.265 48.723,44.263 C48.725,43.861 48.766,43.468 48.828,43.081 C48.908,42.584 49.035,42.104 49.206,41.642 C49.264,41.487 49.323,41.332 49.39,41.181 C49.502,40.931 49.628,40.688 49.765,40.452 C49.803,40.387 49.842,40.324 49.882,40.26 C49.965,40.127 50.049,39.994 50.14,39.867 C50.477,39.391 50.866,38.96 51.299,38.572 C51.916,38.02 52.618,37.56 53.389,37.228 C54.322,36.826 55.35,36.6 56.429,36.6 C60.68,36.6 64.138,40.06 64.138,44.31 C64.138,44.608 64.117,44.902 64.084,45.191 C63.988,46.028 63.754,46.823 63.411,47.557 C63.356,47.673 63.304,47.79 63.245,47.902 Z M56.25,52.759 C56.31,52.76 56.369,52.767 56.429,52.767 C56.749,52.767 57.063,52.746 57.374,52.712 L57.153,52.932 C56.76,53.011 56.353,53.053 55.94,53.068 L56.25,52.759 Z M54.367,52.503 C54.662,52.577 54.963,52.636 55.269,52.679 L54.9,53.047 C54.585,53.018 54.275,52.966 53.972,52.899 L54.367,52.503 Z M52.797,51.937 C53.044,52.055 53.296,52.16 53.556,52.255 L53.146,52.664 C52.883,52.575 52.628,52.471 52.379,52.354 L52.797,51.937 Z M51.458,51.139 C51.667,51.291 51.883,51.433 52.106,51.567 L51.687,51.986 C51.464,51.852 51.25,51.708 51.043,51.554 L51.458,51.139 Z M49.923,50.536 L50.317,50.14 C50.493,50.325 50.677,50.5 50.868,50.668 L50.46,51.075 C50.272,50.905 50.093,50.724 49.923,50.536 Z M49.39,52.885 C49.39,53.297 49.306,53.688 49.16,54.049 C49.103,54.19 49.029,54.322 48.952,54.452 C48.881,54.574 48.802,54.689 48.715,54.8 C48.143,55.528 47.265,56.005 46.27,56.005 L29.928,56.005 C29.088,56.005 28.329,55.668 27.767,55.128 C27.746,55.107 27.724,55.089 27.704,55.068 C27.636,54.998 27.579,54.918 27.518,54.842 C27.515,54.839 27.513,54.837 27.511,54.834 C27.497,54.817 27.481,54.799 27.468,54.781 C27.467,54.781 27.465,54.779 27.464,54.778 C27.4,54.695 27.339,54.613 27.284,54.524 C27.272,54.504 27.263,54.483 27.252,54.464 C27.211,54.395 27.172,54.325 27.137,54.253 C27.015,54.005 26.919,53.743 26.866,53.464 C26.83,53.276 26.807,53.083 26.807,52.885 L26.807,35.956 C27.215,35.535 27.576,35.071 27.89,34.573 C28.036,34.406 28.174,34.234 28.306,34.056 L28.306,48.839 C28.306,48.953 28.36,49.053 28.442,49.122 C28.507,49.177 28.589,49.214 28.681,49.214 L47.515,49.214 C47.722,49.214 47.89,49.046 47.89,48.839 L47.89,48.768 C47.903,48.799 47.919,48.827 47.932,48.856 C48.046,49.106 48.171,49.349 48.307,49.586 C48.425,49.79 48.548,49.991 48.682,50.183 C48.897,50.494 49.137,50.785 49.39,51.064 L49.39,52.885 Z M21.352,37.461 C21.412,37.463 21.471,37.471 21.532,37.471 C21.851,37.471 22.165,37.449 22.475,37.414 L22.255,37.635 C21.861,37.714 21.455,37.755 21.042,37.771 L21.352,37.461 Z M19.47,37.206 C19.765,37.281 20.065,37.339 20.371,37.381 L20.003,37.749 C19.687,37.719 19.378,37.668 19.074,37.602 L19.47,37.206 Z M17.899,36.639 C18.146,36.757 18.398,36.862 18.658,36.956 L18.248,37.367 C17.985,37.277 17.73,37.173 17.481,37.056 L17.899,36.639 Z M16.56,35.84 C16.77,35.993 16.985,36.135 17.209,36.268 L16.79,36.688 C16.567,36.555 16.352,36.411 16.145,36.257 L16.56,35.84 Z M15.42,34.843 C15.595,35.027 15.779,35.202 15.971,35.369 L15.563,35.777 C15.375,35.606 15.195,35.427 15.025,35.238 L15.42,34.843 Z M14.47,33.656 C14.611,33.87 14.764,34.077 14.924,34.278 L14.547,34.655 C14.393,34.447 14.25,34.232 14.116,34.009 L14.47,33.656 Z M13.725,32.263 C13.829,32.513 13.945,32.757 14.072,32.993 L13.749,33.316 C13.633,33.067 13.529,32.81 13.44,32.549 L13.725,32.263 Z M13.082,29.193 C13.085,29.357 13.094,29.521 13.107,29.683 L13.044,29.746 C13.052,29.56 13.061,29.375 13.082,29.193 Z M49.445,49.952 C49.291,49.745 49.147,49.53 49.014,49.307 L49.367,48.953 C49.509,49.169 49.661,49.376 49.821,49.576 L49.445,49.952 Z M29.056,20.14 L47.14,20.14 L47.14,18.839 L29.056,18.839 L29.056,20.14 Z M29.056,48.07 L29.056,32.858 C29.649,31.702 29.991,30.398 29.991,29.012 C29.991,27.626 29.649,26.321 29.056,25.166 L29.056,20.889 L47.14,20.889 L47.14,48.464 L29.056,48.464 L29.056,48.07 Z M47.979,44.49 C47.983,44.655 47.991,44.819 48.004,44.982 L47.941,45.045 C47.949,44.859 47.958,44.673 47.979,44.49 Z M48.138,46.985 L48.129,46.993 L48.128,46.994 L48.104,47.018 C48.038,46.714 47.989,46.403 47.96,46.086 L48.128,45.919 C48.137,45.965 48.145,46.013 48.155,46.06 C48.155,46.061 48.155,46.063 48.156,46.064 C48.16,46.084 48.167,46.104 48.171,46.124 C48.22,46.347 48.275,46.567 48.341,46.782 L48.138,46.985 Z M48.646,48.614 C48.531,48.364 48.427,48.109 48.337,47.846 L48.622,47.561 C48.727,47.81 48.843,48.054 48.97,48.29 L48.646,48.614 Z M28.201,15.438 C28.696,15.107 29.289,14.912 29.928,14.912 L46.27,14.912 C47.99,14.912 49.39,16.313 49.39,18.033 L49.39,39.628 C49.351,39.687 49.317,39.75 49.279,39.81 C49.067,40.052 48.866,40.303 48.682,40.569 C48.548,40.761 48.425,40.962 48.307,41.166 C48.171,41.403 48.046,41.646 47.932,41.896 C47.919,41.925 47.903,41.953 47.89,41.983 L47.89,18.463 C47.89,18.257 47.722,18.089 47.515,18.089 L28.681,18.089 C28.474,18.089 28.306,18.257 28.306,18.463 L28.306,23.968 C27.873,23.388 27.372,22.863 26.807,22.411 L26.807,18.033 C26.807,17.512 26.948,17.029 27.175,16.596 C27.359,16.244 27.606,15.934 27.904,15.677 C28.001,15.595 28.095,15.509 28.201,15.438 Z M25.349,19.95 C25.349,19.306 25.55,18.683 25.929,18.149 C25.936,18.139 25.942,18.129 25.948,18.119 L26.063,17.976 C26.062,17.995 26.057,18.014 26.057,18.033 L26.057,21.878 C25.828,21.732 25.592,21.597 25.349,21.473 L25.349,19.95 Z M18.491,21.931 C19.425,21.529 20.452,21.303 21.532,21.303 C22.622,21.303 23.658,21.533 24.599,21.943 C24.727,21.999 24.85,22.062 24.974,22.124 C25.101,22.188 25.227,22.253 25.349,22.323 C25.595,22.465 25.83,22.619 26.057,22.784 C26.184,22.877 26.312,22.966 26.432,23.065 C26.563,23.173 26.684,23.29 26.807,23.406 C27.401,23.966 27.913,24.614 28.306,25.336 C28.447,25.595 28.57,25.867 28.681,26.142 C28.838,26.532 28.964,26.935 29.056,27.353 C29.174,27.888 29.241,28.443 29.241,29.012 C29.241,29.31 29.22,29.604 29.187,29.894 C29.156,30.157 29.112,30.416 29.056,30.671 C28.964,31.089 28.838,31.492 28.681,31.881 C28.63,32.009 28.572,32.133 28.514,32.259 C28.46,32.374 28.408,32.489 28.349,32.601 C28.333,32.63 28.321,32.66 28.306,32.688 C28.023,33.208 27.677,33.684 27.287,34.124 C27.134,34.295 26.975,34.46 26.807,34.617 C26.684,34.734 26.563,34.85 26.432,34.958 C26.312,35.057 26.184,35.147 26.057,35.239 C25.83,35.405 25.595,35.56 25.349,35.7 C25.273,35.743 25.199,35.787 25.122,35.827 C25.074,35.853 25.023,35.875 24.974,35.899 C24.85,35.962 24.727,36.025 24.599,36.08 C24.218,36.246 23.82,36.376 23.41,36.48 C22.993,36.584 22.564,36.657 22.123,36.691 C21.927,36.706 21.731,36.72 21.532,36.72 C21.371,36.72 21.214,36.706 21.056,36.697 C20.73,36.677 20.408,36.64 20.094,36.582 C19.804,36.527 19.519,36.46 19.241,36.374 C18.974,36.29 18.714,36.189 18.46,36.077 C18.217,35.972 17.982,35.853 17.753,35.723 C17.526,35.595 17.308,35.456 17.095,35.305 C16.889,35.16 16.691,35.004 16.5,34.84 C16.308,34.673 16.125,34.497 15.95,34.313 C15.777,34.132 15.613,33.942 15.459,33.743 C15.3,33.541 15.152,33.33 15.015,33.111 C14.876,32.891 14.75,32.665 14.633,32.432 C14.512,32.188 14.404,31.937 14.309,31.679 C14.211,31.416 14.127,31.145 14.059,30.869 C13.984,30.573 13.926,30.272 13.888,29.963 C13.849,29.651 13.823,29.335 13.823,29.012 C13.823,28.996 13.825,28.981 13.825,28.965 C13.828,28.562 13.868,28.169 13.93,27.783 C14.011,27.285 14.138,26.804 14.309,26.343 C14.489,25.858 14.715,25.396 14.984,24.962 C15.375,24.334 15.852,23.766 16.4,23.275 C17.018,22.723 17.72,22.263 18.491,21.931 Z M13.062,30.787 L13.23,30.62 C13.287,30.914 13.357,31.202 13.443,31.484 L13.207,31.72 C13.141,31.416 13.092,31.105 13.062,30.787 Z M22.237,57.239 C22.286,57.24 22.333,57.246 22.382,57.246 C22.631,57.246 22.877,57.233 23.119,57.209 L23.012,57.317 C22.697,57.38 22.373,57.414 22.045,57.431 L22.237,57.239 Z M20.549,57.015 C20.782,57.073 21.02,57.119 21.261,57.155 L20.999,57.416 C20.748,57.391 20.502,57.354 20.26,57.303 L20.549,57.015 Z M19.139,56.511 C19.334,56.604 19.534,56.688 19.738,56.764 L19.434,57.069 C19.226,56.996 19.023,56.916 18.825,56.825 L19.139,56.511 Z M16.91,54.914 C17.05,55.058 17.196,55.195 17.347,55.328 L17.039,55.637 C16.891,55.501 16.749,55.359 16.613,55.21 L16.91,54.914 Z M14.842,51.241 L14.924,51.159 C14.972,51.39 15.031,51.615 15.099,51.838 L14.952,51.985 C14.901,51.741 14.866,51.493 14.842,51.241 Z M19.488,48.509 L19.301,48.278 L19.89,47.799 C19.892,47.798 19.893,47.799 19.895,47.797 C19.896,47.795 19.897,47.793 19.9,47.791 L21.296,46.654 C21.326,46.63 21.364,46.622 21.396,46.602 C21.62,46.451 21.88,46.369 22.155,46.397 C22.236,46.405 22.307,46.443 22.383,46.467 C22.598,46.535 22.798,46.643 22.943,46.823 C22.966,46.851 22.973,46.887 22.993,46.917 C23.125,47.113 23.192,47.337 23.19,47.573 C23.189,47.611 23.204,47.645 23.2,47.682 C23.169,47.993 23.017,48.274 22.774,48.471 L20.779,50.095 L20.729,50.033 L20.347,49.564 L19.871,48.98 L19.488,48.509 Z M22.446,52.142 L21.588,51.089 L21.253,50.677 L23.819,48.589 C23.967,48.468 24.137,48.403 24.311,48.365 C24.406,48.344 24.502,48.336 24.599,48.339 L24.599,50.973 L22.732,52.493 L22.446,52.142 Z M24.114,52.388 L24.088,52.356 L24.398,52.104 L24.599,51.94 L24.599,52.983 L24.591,52.972 L24.114,52.388 Z M18.132,56.456 C17.956,56.35 17.786,56.237 17.621,56.115 L17.936,55.801 C18.102,55.921 18.273,56.033 18.449,56.14 L18.132,56.456 Z M20.26,43.115 C20.929,42.897 21.642,42.776 22.382,42.776 C23.159,42.776 23.902,42.911 24.599,43.15 L24.599,47.585 C24.468,47.582 24.337,47.593 24.207,47.617 C24.119,47.633 24.032,47.653 23.947,47.681 C23.963,47.42 23.926,47.163 23.84,46.923 C23.771,46.725 23.672,46.538 23.54,46.37 C23.534,46.365 23.531,46.357 23.525,46.35 C23.368,46.157 23.178,46.001 22.967,45.884 C22.77,45.774 22.554,45.706 22.326,45.67 C22.294,45.665 22.264,45.655 22.231,45.651 C21.814,45.608 21.404,45.708 21.048,45.923 L21.033,45.903 L20.65,45.433 L20.238,44.929 C20.216,44.902 20.187,44.884 20.159,44.864 C20.025,44.77 19.843,44.768 19.711,44.876 C19.558,45 19.533,45.219 19.645,45.379 C19.65,45.386 19.651,45.396 19.657,45.403 L20.117,45.966 L20.45,46.376 L19.71,46.978 L19.439,46.645 L18.963,46.06 L18.917,46.004 C18.787,45.843 18.55,45.82 18.39,45.951 C18.229,46.082 18.205,46.317 18.336,46.478 L18.43,46.593 L18.906,47.177 L19.129,47.451 L17.795,48.536 C17.634,48.668 17.61,48.903 17.741,49.064 C17.761,49.089 17.788,49.105 17.813,49.124 C17.947,49.223 18.133,49.228 18.269,49.119 L18.351,49.052 L18.719,48.752 L18.955,49.042 L19.784,50.061 L19.813,50.097 L20.196,50.567 L20.29,50.682 C20.291,50.763 20.312,50.845 20.368,50.913 C20.422,50.981 20.498,51.015 20.576,51.033 L20.672,51.152 L21.055,51.622 L21.53,52.205 L21.913,52.677 L22.15,52.968 L21.791,53.26 L21.701,53.333 C21.541,53.464 21.517,53.7 21.647,53.861 C21.669,53.888 21.699,53.904 21.727,53.923 C21.791,53.967 21.862,53.999 21.938,53.999 C22.021,53.999 22.105,53.971 22.175,53.914 L22.913,53.314 C22.913,53.313 22.914,53.313 22.915,53.313 C22.916,53.312 22.917,53.31 22.918,53.31 L23.507,52.829 L23.582,52.921 L24.058,53.505 L24.301,53.803 C24.352,53.867 24.422,53.901 24.495,53.921 C24.527,53.929 24.558,53.942 24.591,53.942 C24.594,53.942 24.597,53.939 24.599,53.939 L24.599,54.801 C24.599,54.825 24.606,54.847 24.606,54.87 C24.611,55.133 24.641,55.387 24.695,55.634 C24.726,55.775 24.775,55.907 24.821,56.041 C24.569,56.137 24.31,56.219 24.044,56.285 C23.708,56.369 23.365,56.432 23.012,56.465 C22.804,56.485 22.595,56.496 22.382,56.496 C22.233,56.496 22.087,56.484 21.941,56.474 C21.683,56.458 21.428,56.429 21.179,56.385 C20.887,56.332 20.6,56.268 20.322,56.18 C20.11,56.113 19.902,56.036 19.7,55.95 C19.456,55.846 19.223,55.724 18.995,55.595 C18.815,55.492 18.64,55.383 18.471,55.265 C18.264,55.122 18.067,54.965 17.877,54.799 C17.726,54.666 17.58,54.528 17.44,54.383 C17.267,54.203 17.104,54.011 16.951,53.812 C16.826,53.651 16.708,53.485 16.599,53.312 C16.459,53.093 16.333,52.866 16.219,52.631 C16.124,52.437 16.038,52.238 15.962,52.035 C15.863,51.771 15.779,51.5 15.713,51.223 C15.657,50.986 15.613,50.746 15.582,50.502 C15.546,50.218 15.521,49.931 15.521,49.637 C15.521,49.589 15.527,49.543 15.528,49.494 C15.535,49.175 15.566,48.863 15.615,48.555 C15.696,48.049 15.829,47.558 16.015,47.095 C16.164,46.724 16.345,46.371 16.553,46.036 C16.938,45.416 17.414,44.859 17.97,44.39 C17.982,44.381 17.992,44.369 18.004,44.359 C18.664,43.812 19.428,43.387 20.26,43.115 Z M15.185,52.812 L15.38,52.616 C15.464,52.813 15.558,53.005 15.658,53.193 L15.428,53.423 C15.337,53.223 15.257,53.02 15.185,52.812 Z M15.795,54.115 L16.053,53.857 C16.167,54.027 16.29,54.188 16.416,54.347 L16.135,54.628 C16.015,54.462 15.901,54.292 15.795,54.115 Z M46.756,57.223 C46.751,57.226 46.743,57.235 46.733,57.243 L46.708,57.261 C46.149,57.693 45.494,57.922 44.812,57.922 L28.469,57.922 C27.505,57.922 26.652,57.472 26.079,56.783 C26,56.687 25.92,56.593 25.853,56.489 C25.85,56.486 25.849,56.482 25.847,56.479 C25.836,56.461 25.828,56.443 25.817,56.425 C25.816,56.423 25.816,56.421 25.815,56.42 C25.762,56.334 25.714,56.244 25.67,56.153 C25.66,56.132 25.646,56.114 25.637,56.093 C25.601,56.013 25.572,55.93 25.542,55.847 C25.529,55.81 25.52,55.773 25.508,55.736 C25.43,55.489 25.38,55.232 25.365,54.964 C25.363,54.908 25.349,54.857 25.349,54.801 L25.349,37.159 C25.594,37 25.831,36.828 26.057,36.645 L26.057,52.885 C26.057,53.051 26.086,53.209 26.106,53.37 C26.137,53.611 26.188,53.843 26.262,54.068 C26.345,54.327 26.453,54.572 26.586,54.803 C26.619,54.86 26.645,54.921 26.681,54.976 C26.716,55.031 26.755,55.084 26.794,55.138 C26.829,55.187 26.871,55.23 26.909,55.277 C26.917,55.287 26.926,55.298 26.935,55.307 C26.966,55.347 26.998,55.387 27.031,55.425 C27.033,55.427 27.035,55.43 27.037,55.432 C27.075,55.474 27.106,55.523 27.146,55.564 C27.192,55.613 27.243,55.657 27.292,55.702 C27.984,56.35 28.907,56.755 29.928,56.755 L46.27,56.755 C46.641,56.755 46.994,56.685 47.334,56.588 C47.168,56.821 46.983,57.04 46.756,57.223 Z M56.429,35.85 C53.932,35.85 51.69,36.946 50.14,38.673 L50.14,18.033 C50.14,15.899 48.404,14.162 46.27,14.162 L29.928,14.162 C29.039,14.162 28.229,14.475 27.575,14.981 C27.517,15.005 27.463,15.042 27.422,15.093 L27.386,15.138 C27.054,15.429 26.777,15.775 26.56,16.163 L25.33,17.692 C25.312,17.713 25.298,17.735 25.287,17.759 C24.837,18.411 24.599,19.168 24.599,19.95 L24.599,21.137 C23.646,20.765 22.614,20.553 21.532,20.553 C18.522,20.553 15.881,22.138 14.382,24.512 C13.076,26.002 12.277,27.947 12.277,30.078 C12.277,34.743 16.072,38.536 20.736,38.536 C22.128,38.536 23.439,38.193 24.599,37.594 L24.599,42.357 C23.897,42.142 23.153,42.026 22.382,42.026 C19.675,42.026 17.299,43.451 15.95,45.587 C14.776,46.926 14.059,48.674 14.059,50.591 C14.059,54.786 17.474,58.2 21.67,58.2 C23.045,58.2 24.333,57.828 25.447,57.189 C26.156,58.085 27.24,58.672 28.469,58.672 L44.812,58.672 C45.633,58.672 46.422,58.407 47.099,57.907 C47.146,57.885 47.189,57.852 47.226,57.807 C47.655,57.461 48,57.038 48.206,56.616 L49.456,55.08 C49.458,55.077 49.458,55.073 49.46,55.07 C49.888,54.447 50.14,53.695 50.14,52.885 L50.14,51.795 C51.62,53.064 53.537,53.834 55.633,53.834 C58.646,53.834 61.289,52.246 62.788,49.87 C64.091,48.381 64.888,46.44 64.888,44.31 C64.888,39.646 61.093,35.85 56.429,35.85 Z" id="Fill-9" fill="#000000"></path>
            <path d="M54.392,43.708 L54.564,43.757 L55.399,43.999 L56.223,44.237 L57.058,44.478 L57.882,44.715 L57.984,44.744 C58.212,44.81 58.398,44.948 58.56,45.114 C58.644,45.199 58.733,45.282 58.793,45.39 C58.865,45.522 58.9,45.664 58.926,45.807 C58.963,46.01 58.967,46.217 58.908,46.42 C58.808,46.766 58.579,47.055 58.262,47.229 C57.99,47.381 57.681,47.411 57.377,47.357 C57.329,47.348 57.281,47.358 57.234,47.344 L56.531,47.141 L56.343,47.087 C56.34,47.086 56.338,47.084 56.335,47.084 C56.332,47.082 56.329,47.084 56.326,47.082 L55.696,46.901 L54.872,46.662 L54.509,46.558 C54.508,46.557 54.507,46.556 54.505,46.556 C54.503,46.555 54.502,46.556 54.5,46.555 L54.037,46.423 L53.641,46.307 L54.302,44.02 L54.392,43.708 Z M55.35,40.389 L55.695,40.489 L56.212,40.638 L56.214,40.638 L56.531,40.73 L57.354,40.967 L58.154,41.198 C58.165,41.201 58.176,41.208 58.187,41.211 C58.444,41.293 58.661,41.443 58.821,41.638 C59,41.856 59.105,42.128 59.123,42.412 C59.132,42.564 59.122,42.718 59.078,42.871 C58.978,43.219 58.748,43.507 58.432,43.681 C58.209,43.804 57.961,43.836 57.713,43.823 C57.61,43.818 57.507,43.825 57.405,43.797 L56.829,43.631 L56.006,43.392 L55.17,43.152 L54.6,42.987 L54.732,42.529 L55.35,40.389 Z M59.35,41.109 C59.185,40.921 58.988,40.759 58.76,40.639 C58.711,40.612 58.655,40.596 58.603,40.575 L59.012,39.159 C59.07,38.96 58.955,38.752 58.756,38.695 C58.691,38.675 58.627,38.68 58.565,38.696 C58.439,38.725 58.33,38.817 58.292,38.951 L58.284,38.978 L57.89,40.341 L57.137,40.124 L56.781,40.021 L57.182,38.631 C57.237,38.44 57.131,38.243 56.946,38.177 C56.939,38.175 56.934,38.169 56.926,38.166 C56.725,38.109 56.519,38.223 56.461,38.423 L56.364,38.759 L56.061,39.813 L55.479,39.645 L54.643,39.405 L54.173,39.268 C53.972,39.211 53.766,39.326 53.709,39.525 C53.651,39.723 53.766,39.931 53.965,39.989 L54.037,40.01 L54.066,40.018 L54.629,40.181 L54.071,42.112 L54.052,42.182 L53.843,42.906 C53.77,42.953 53.71,43.023 53.684,43.113 C53.658,43.203 53.672,43.293 53.708,43.372 L53.635,43.626 L52.92,46.1 L52.378,45.943 L52.367,45.94 L52.256,45.908 C52.055,45.85 51.849,45.965 51.791,46.164 C51.76,46.276 51.785,46.387 51.846,46.475 C51.893,46.546 51.96,46.604 52.048,46.629 L52.608,46.79 L53.431,47.028 L53.937,47.174 L53.536,48.563 C53.494,48.706 53.545,48.854 53.65,48.947 C53.69,48.982 53.737,49.011 53.792,49.027 C53.827,49.037 53.862,49.042 53.896,49.042 C54.059,49.042 54.209,48.934 54.256,48.771 L54.431,48.165 L54.657,47.382 L55.09,47.507 L55.766,47.701 L55.683,47.991 L55.365,49.09 C55.339,49.179 55.352,49.268 55.387,49.347 C55.431,49.443 55.511,49.524 55.621,49.555 C55.656,49.565 55.691,49.57 55.725,49.57 C55.888,49.57 56.038,49.463 56.085,49.299 L56.487,47.909 L56.749,47.985 L57.026,48.065 C57.22,48.12 57.416,48.149 57.612,48.149 C57.632,48.149 57.65,48.141 57.669,48.141 C58.001,48.133 58.327,48.05 58.625,47.885 C59.117,47.614 59.474,47.167 59.629,46.627 C59.679,46.456 59.698,46.281 59.703,46.108 C59.713,45.799 59.652,45.494 59.526,45.208 C59.501,45.148 59.481,45.085 59.449,45.028 C59.355,44.857 59.233,44.709 59.1,44.573 C59.01,44.483 58.914,44.4 58.81,44.327 C59.293,44.055 59.645,43.613 59.798,43.079 C59.831,42.965 59.848,42.85 59.861,42.736 C59.898,42.407 59.858,42.084 59.75,41.785 C59.66,41.537 59.525,41.307 59.35,41.109 Z" id="Fill-10" fill="#000000"></path>
            <path d="M33.995,27.695 C34.2,27.67 34.346,27.482 34.32,27.277 L34.21,26.403 C34.168,26.077 34.399,25.781 34.797,25.735 C35.09,25.735 35.349,25.963 35.385,26.253 L35.496,27.129 C35.508,27.228 35.559,27.317 35.638,27.378 C35.717,27.44 35.817,27.466 35.915,27.453 L38.159,27.17 C38.364,27.143 38.51,26.956 38.484,26.751 L38.374,25.876 C38.354,25.72 38.397,25.564 38.495,25.438 C38.592,25.313 38.731,25.235 38.964,25.21 C39.261,25.21 39.512,25.432 39.549,25.726 L39.668,26.661 C39.69,26.842 39.84,26.98 40.022,26.989 C41.711,27.064 43.146,28.392 43.358,30.077 C43.481,31.048 43.124,32.01 42.426,32.589 C42.323,32.674 42.274,32.807 42.295,32.94 C42.317,33.071 42.407,33.18 42.532,33.228 C43.684,33.668 44.457,34.605 44.599,35.736 C44.833,37.592 43.519,39.337 41.67,39.626 C41.47,39.657 41.331,39.843 41.356,40.044 L41.473,40.963 C41.514,41.287 41.283,41.586 40.884,41.632 C40.591,41.632 40.333,41.404 40.296,41.113 L40.181,40.197 C40.169,40.098 40.118,40.009 40.039,39.948 C39.96,39.887 39.861,39.861 39.762,39.872 L37.518,40.156 C37.313,40.181 37.167,40.369 37.193,40.575 L37.308,41.489 C37.349,41.814 37.119,42.111 36.794,42.153 C36.472,42.195 36.172,41.954 36.132,41.639 L36.017,40.723 C36.005,40.624 35.954,40.535 35.875,40.473 C35.809,40.423 35.728,40.395 35.645,40.395 C35.629,40.395 35.614,40.396 35.598,40.398 L33.278,40.687 C32.986,40.687 32.72,40.454 32.684,40.168 C32.664,40.007 32.709,39.844 32.811,39.712 C32.909,39.585 33.045,39.505 33.195,39.486 L34.079,39.376 C34.177,39.363 34.267,39.312 34.328,39.233 C34.389,39.155 34.416,39.055 34.404,38.956 L33.193,29.37 C33.167,29.165 32.98,29.02 32.774,29.046 L31.818,29.161 C31.519,29.161 31.266,28.939 31.228,28.642 C31.209,28.494 31.255,28.336 31.353,28.209 C31.451,28.083 31.593,28 31.742,27.981 L33.995,27.695 Z M31.984,29.901 L32.496,29.837 L33.613,38.678 L33.102,38.743 C32.753,38.786 32.44,38.967 32.218,39.252 C31.993,39.544 31.894,39.903 31.94,40.263 C32.03,40.973 32.714,41.52 33.44,41.427 L35.32,41.189 L35.388,41.733 C35.473,42.403 36.045,42.907 36.719,42.907 C36.775,42.907 36.832,42.905 36.889,42.897 C37.623,42.803 38.145,42.131 38.052,41.396 L37.984,40.853 L39.484,40.664 L39.552,41.206 C39.644,41.932 40.303,42.465 41.054,42.37 C41.787,42.278 42.309,41.605 42.217,40.869 L42.144,40.295 C44.199,39.786 45.612,37.774 45.343,35.641 C45.188,34.41 44.442,33.365 43.312,32.761 C43.933,32.021 44.231,31.003 44.102,29.984 C43.858,28.048 42.282,26.5 40.374,26.265 L40.293,25.633 C40.202,24.907 39.525,24.378 38.794,24.471 C38.44,24.515 38.123,24.695 37.903,24.978 C37.682,25.263 37.585,25.615 37.629,25.969 L37.693,26.473 L36.193,26.662 L36.129,26.159 C36.038,25.436 35.388,24.9 34.629,24.995 C33.895,25.089 33.373,25.762 33.465,26.495 L33.529,26.999 L31.648,27.237 C31.298,27.281 30.983,27.462 30.761,27.749 C30.538,28.036 30.439,28.387 30.484,28.737 C30.576,29.461 31.249,29.993 31.984,29.901 Z" id="Fill-11" fill="#000000"></path>
            <path d="M41.304,37.706 L36.297,38.341 L35.911,35.281 L40.936,34.645 C41.799,34.537 42.555,35.149 42.661,35.981 C42.769,36.839 42.173,37.597 41.304,37.706 Z M40.842,33.901 L35.445,34.583 C35.239,34.609 35.094,34.797 35.12,35.002 L35.6,38.806 C35.613,38.905 35.664,38.995 35.742,39.055 C35.809,39.107 35.889,39.134 35.972,39.134 C35.988,39.134 36.003,39.133 36.019,39.131 L41.398,38.451 C42.684,38.288 43.565,37.162 43.405,35.887 C43.249,34.65 42.116,33.74 40.842,33.901 Z" id="Fill-12" fill="#000000"></path>
            <path d="M41.438,30.32 C41.544,31.164 40.936,31.938 40.081,32.046 L35.575,32.615 L35.181,29.498 L39.687,28.927 C40.545,28.82 41.331,29.471 41.438,30.32 Z M35.02,33.33 C35.086,33.381 35.167,33.408 35.25,33.408 C35.265,33.408 35.281,33.407 35.296,33.406 L40.174,32.79 C41.44,32.63 42.34,31.48 42.182,30.226 C42.024,28.979 40.863,28.025 39.593,28.183 L34.715,28.801 C34.51,28.827 34.364,29.014 34.39,29.219 L34.877,33.08 C34.89,33.179 34.941,33.268 35.02,33.33 Z" id="Fill-13" fill="#000000"></path>
            <polyline id="Fill-14" fill="#000000" points="7.41 59.217 6.405 57.764 6.833 57.469 7.173 57.96 9.736 56.186 10.061 56.656 7.497 58.429 7.838 58.921 7.41 59.217"></polyline>
            <path d="M7.505,54.164 C7.732,54.039 7.765,53.891 7.678,53.732 C7.591,53.573 7.449,53.52 7.221,53.644 L5.496,54.586 C5.268,54.711 5.235,54.859 5.322,55.018 C5.41,55.178 5.551,55.231 5.779,55.106 L7.505,54.164 Z M6.086,55.591 C5.574,55.87 5.135,55.76 4.866,55.267 C4.598,54.775 4.742,54.346 5.254,54.067 L6.914,53.159 C7.426,52.88 7.865,52.99 8.134,53.482 C8.402,53.976 8.258,54.405 7.747,54.684 L6.086,55.591 Z" id="Fill-15" fill="#000000"></path>
            <path d="M3.783,51.742 L4.921,51.269 L4.817,51.019 C4.748,50.851 4.633,50.792 4.394,50.893 L3.889,51.101 C3.648,51.201 3.609,51.324 3.68,51.493 L3.783,51.742 Z M3.703,50.559 L4.14,50.378 C4.677,50.154 5.078,50.292 5.298,50.82 L5.401,51.069 L6.665,50.545 L6.884,51.073 L3.523,52.47 L3.199,51.693 C2.98,51.164 3.166,50.783 3.703,50.559 Z" id="Fill-16" fill="#000000"></path>
            <polyline id="Fill-17" fill="#000000" points="3.684 48.502 3.376 47.509 3.873 47.356 4.179 48.348 3.684 48.502"></polyline>
            <path d="M1.207,45.256 L3.958,44.697 C4.212,44.645 4.281,44.514 4.245,44.336 C4.209,44.157 4.095,44.064 3.84,44.116 L1.089,44.675 L0.981,44.146 L3.696,43.594 C4.267,43.478 4.65,43.697 4.762,44.246 C4.875,44.797 4.606,45.148 4.035,45.264 L1.321,45.816 L1.207,45.256" id="Fill-18" fill="#000000"></path>
            <path d="M1.117,41.319 L2.345,41.202 L2.318,40.932 C2.302,40.751 2.209,40.661 1.949,40.685 L1.406,40.737 C1.147,40.762 1.074,40.869 1.092,41.05 L1.117,41.319 Z M1.389,40.164 L1.859,40.119 C2.44,40.063 2.781,40.313 2.837,40.882 L2.862,41.152 L4.225,41.022 L4.279,41.591 L0.654,41.938 L0.573,41.099 C0.519,40.529 0.808,40.219 1.389,40.164 Z" id="Fill-19" fill="#000000"></path>
            <polyline id="Fill-20" fill="#000000" points="2.935 35.228 0.453 35.755 0.501 35.16 2.188 34.855 0.569 34.29 0.613 33.746 2.979 34.657 4.181 34.753 4.137 35.322 2.935 35.228"></polyline>
            <path d="M3.734,31.735 C3.99,31.782 4.109,31.688 4.143,31.509 C4.175,31.329 4.1,31.199 3.844,31.152 L1.91,30.792 C1.654,30.745 1.537,30.84 1.503,31.019 C1.47,31.198 1.546,31.329 1.802,31.375 L3.734,31.735 Z M1.733,31.945 C1.16,31.839 0.889,31.476 0.991,30.923 C1.095,30.372 1.478,30.131 2.051,30.237 L3.912,30.583 C4.484,30.688 4.756,31.051 4.654,31.604 C4.551,32.156 4.168,32.397 3.595,32.291 L1.733,31.945 Z" id="Fill-21" fill="#000000"></path>
            <path d="M1.873,27.389 L4.565,28.193 C4.814,28.267 4.937,28.184 4.988,28.01 C5.041,27.836 4.983,27.7 4.733,27.625 L2.043,26.821 L2.197,26.302 L4.854,27.096 C5.412,27.262 5.648,27.637 5.486,28.175 C5.326,28.714 4.924,28.898 4.366,28.731 L1.709,27.937 L1.873,27.389" id="Fill-22" fill="#000000"></path>
            <path d="M3.669,23.844 L4.698,24.279 L4.785,24.073 C4.869,23.877 4.833,23.72 4.565,23.607 L4.234,23.467 C3.994,23.365 3.856,23.403 3.776,23.59 L3.669,23.844 Z M6.786,24.485 C6.687,24.478 6.627,24.475 6.354,24.358 L5.827,24.136 C5.516,24.004 5.356,24.061 5.254,24.3 L5.178,24.482 L6.543,25.06 L6.319,25.587 L2.966,24.167 L3.303,23.372 C3.534,22.826 3.887,22.698 4.405,22.918 L4.668,23.029 C5.014,23.176 5.191,23.381 5.202,23.662 C5.424,23.446 5.715,23.467 6.065,23.615 L6.581,23.834 C6.744,23.903 6.867,23.949 7.014,23.948 L6.786,24.485 Z" id="Fill-23" fill="#000000"></path>
            <polyline id="Fill-24" fill="#000000" points="8.725 18.745 6.797 16.985 7.239 16.324 10.261 18.349 9.96 18.798 7.793 17.346 9.74 19.126 9.44 19.574 7.065 18.497 9.202 19.928 8.925 20.343 5.904 18.318 6.346 17.658 8.725 18.745"></polyline>
            <path d="M11.114,15.916 C11.312,16.085 11.461,16.062 11.58,15.924 C11.698,15.785 11.697,15.633 11.499,15.465 L10.003,14.188 C9.805,14.019 9.655,14.043 9.536,14.18 C9.419,14.319 9.419,14.47 9.617,14.639 L11.114,15.916 Z M9.273,15.099 C8.83,14.721 8.776,14.271 9.141,13.843 C9.506,13.416 9.958,13.398 10.402,13.777 L11.844,15.006 C12.287,15.384 12.34,15.833 11.976,16.261 C11.611,16.689 11.158,16.706 10.715,16.328 L9.273,15.099 Z" id="Fill-25" fill="#000000"></path>
            <path d="M13.064,12.661 L13.834,13.472 L14.072,13.247 C14.212,13.114 14.227,12.979 14.04,12.783 L13.822,12.552 C13.589,12.306 13.438,12.307 13.249,12.486 L13.064,12.661 Z M12.043,11.585 L12.706,12.283 L12.868,12.129 C13.023,11.982 13.053,11.824 12.852,11.613 L12.713,11.466 C12.533,11.278 12.391,11.255 12.243,11.395 L12.043,11.585 Z M13.089,11.03 L13.178,11.125 C13.436,11.397 13.518,11.649 13.415,11.912 C13.72,11.787 13.997,11.905 14.262,12.184 L14.467,12.4 C14.853,12.807 14.846,13.23 14.431,13.625 L13.777,14.245 L11.27,11.601 L11.896,11.006 C12.327,10.598 12.702,10.623 13.089,11.03 Z" id="Fill-26" fill="#000000"></path>
            <polyline id="Fill-27" fill="#000000" points="14.233 8.985 14.683 8.632 16.926 11.495 16.477 11.848 14.233 8.985"></polyline>
            <polyline id="Fill-28" fill="#000000" points="16.476 7.314 16.955 7.001 18.664 9.616 19.453 9.101 19.738 9.536 18.47 10.366 16.476 7.314"></polyline>
            <polyline id="Fill-29" fill="#000000" points="20.77 6.536 21.467 6.174 21.706 6.636 21.009 6.998 21.5 7.944 22.377 7.489 22.616 7.951 21.23 8.669 19.555 5.437 20.94 4.719 21.18 5.18 20.303 5.636 20.77 6.536"></polyline>
            <path d="M26.045,3.236 L26.412,4.412 L26.671,4.333 C26.845,4.277 26.914,4.169 26.837,3.921 L26.674,3.4 C26.596,3.151 26.477,3.102 26.303,3.155 L26.045,3.236 Z M27.231,3.264 L27.371,3.715 C27.546,4.271 27.372,4.658 26.826,4.829 L26.568,4.909 L26.977,6.214 L26.432,6.386 L25.344,2.912 L26.147,2.66 C26.693,2.489 27.056,2.708 27.231,3.264 Z" id="Fill-30" fill="#000000"></path>
            <polyline id="Fill-31" fill="#000000" points="30.294 5.34 29.732 5.451 29.029 1.878 29.592 1.768 29.893 3.299 30.531 3.174 30.23 1.643 30.801 1.531 31.504 5.103 30.932 5.215 30.631 3.684 29.993 3.81 30.294 5.34"></polyline>
            <path d="M33.832,3.958 C33.855,4.217 33.978,4.305 34.158,4.289 C34.34,4.273 34.445,4.165 34.423,3.906 L34.251,1.948 C34.229,1.69 34.106,1.601 33.925,1.617 C33.743,1.632 33.638,1.741 33.661,2 L33.832,3.958 Z M33.095,2.087 C33.044,1.507 33.32,1.148 33.879,1.099 C34.439,1.05 34.773,1.355 34.824,1.935 L34.989,3.82 C35.04,4.4 34.764,4.758 34.204,4.807 C33.646,4.856 33.311,4.552 33.26,3.972 L33.095,2.087 Z" id="Fill-32" fill="#000000"></path>
            <polyline id="Fill-33" fill="#000000" points="37.475 2.004 37.419 4.64 36.904 4.63 36.98 0.989 37.697 1.004 38.24 3.196 38.285 1.016 38.795 1.027 38.719 4.667 38.132 4.655 37.475 2.004"></polyline>
            <polyline id="Fill-34" fill="#000000" points="41.438 2.807 42.217 2.908 42.15 3.424 41.371 3.323 41.234 4.38 42.214 4.507 42.146 5.022 40.6 4.822 41.068 1.212 42.615 1.412 42.548 1.928 41.568 1.801 41.438 2.807"></polyline>
            <polyline id="Fill-35" fill="#000000" points="47.989 4.444 47.188 6.223 46.442 5.979 47.189 2.393 47.719 2.566 47.117 5.39 48.271 2.747 48.796 2.92 48.168 5.756 49.35 3.101 49.824 3.256 48.305 6.588 47.584 6.353 47.989 4.444"></polyline>
            <polyline id="Fill-36" fill="#000000" points="51.807 4.091 52.328 4.325 50.84 7.64 50.319 7.407 51.807 4.091"></polyline>
            <polyline id="Fill-37" fill="#000000" points="54.186 5.221 55.73 6.083 55.477 6.538 54.953 6.245 53.433 8.971 52.933 8.692 54.454 5.966 53.932 5.675 54.186 5.221"></polyline>
            <polyline id="Fill-38" fill="#000000" points="55.859 10.503 55.393 10.171 57.5 7.203 57.966 7.534 57.063 8.806 57.594 9.183 58.496 7.91 58.971 8.247 56.864 11.216 56.389 10.878 57.293 9.607 56.762 9.23 55.859 10.503"></polyline>
            <path d="M62.197,14.199 L61.85,14.536 C61.43,14.941 60.988,14.963 60.598,14.558 C60.207,14.154 60.244,13.712 60.664,13.308 L62.026,11.992 C62.446,11.588 62.889,11.566 63.278,11.97 C63.668,12.374 63.631,12.815 63.212,13.22 L62.957,13.465 L62.581,13.077 L62.862,12.805 C63.05,12.625 63.041,12.473 62.915,12.343 C62.787,12.211 62.637,12.197 62.45,12.378 L61.034,13.745 C60.848,13.926 60.859,14.073 60.986,14.204 C61.113,14.335 61.26,14.352 61.447,14.172 L61.821,13.81 L62.197,14.199" id="Fill-39" fill="#000000"></path>
            <path d="M65.241,15.015 L64.364,15.711 L64.504,15.887 C64.637,16.054 64.79,16.097 65.02,15.917 L65.301,15.693 C65.504,15.531 65.539,15.39 65.413,15.232 L65.241,15.015 Z M63.183,17.447 C63.236,17.364 63.27,17.313 63.501,17.128 L63.95,16.772 C64.215,16.562 64.241,16.394 64.079,16.19 L63.957,16.035 L62.795,16.958 L62.439,16.509 L65.293,14.243 L65.83,14.92 C66.2,15.386 66.143,15.757 65.701,16.106 L65.477,16.284 C65.184,16.517 64.917,16.576 64.665,16.451 C64.75,16.749 64.592,16.994 64.293,17.23 L63.854,17.58 C63.715,17.69 63.615,17.775 63.545,17.904 L63.183,17.447 Z" id="Fill-40" fill="#000000"></path>
            <polyline id="Fill-41" fill="#000000" points="65.848 19.122 67.521 17.207 67.841 17.714 66.671 18.972 68.31 18.454 68.602 18.916 66.154 19.606 65.133 20.252 64.826 19.768 65.848 19.122"></polyline>
            <path d="M69.396,21.483 L68.291,22.031 L68.411,22.273 C68.491,22.436 68.609,22.487 68.843,22.373 L69.332,22.13 C69.565,22.014 69.596,21.889 69.515,21.725 L69.396,21.483 Z M69.554,22.659 L69.13,22.869 C68.607,23.127 68.199,23.017 67.944,22.504 L67.824,22.261 L66.599,22.869 L66.345,22.356 L69.607,20.739 L69.981,21.495 C70.235,22.007 70.075,22.4 69.554,22.659 Z" id="Fill-42" fill="#000000"></path>
            <polyline id="Fill-43" fill="#000000" points="71.129 24.049 71.745 25.708 71.258 25.889 71.049 25.328 68.123 26.416 67.924 25.879 70.85 24.791 70.641 24.23 71.129 24.049"></polyline>
            <path d="M69.779,28.914 C69.528,28.979 69.461,29.114 69.507,29.29 C69.552,29.466 69.676,29.552 69.928,29.488 L71.827,28.998 C72.08,28.934 72.146,28.798 72.102,28.622 C72.056,28.446 71.932,28.36 71.68,28.424 L69.779,28.914 Z M71.503,27.881 C72.065,27.736 72.464,27.95 72.604,28.492 C72.744,29.035 72.498,29.415 71.936,29.56 L70.104,30.031 C69.541,30.176 69.143,29.962 69.004,29.42 C68.863,28.876 69.109,28.497 69.672,28.352 L71.503,27.881 Z" id="Fill-44" fill="#000000"></path>
            <path d="M71.203,33.528 L70.725,33.598 C70.147,33.681 69.777,33.441 69.696,32.885 C69.616,32.329 69.904,31.993 70.479,31.91 L72.354,31.639 C72.93,31.555 73.301,31.796 73.381,32.352 C73.461,32.907 73.174,33.243 72.598,33.326 L72.248,33.377 L72.17,32.842 L72.557,32.786 C72.813,32.749 72.895,32.621 72.869,32.442 C72.842,32.261 72.729,32.163 72.472,32.2 L70.526,32.481 C70.268,32.518 70.192,32.645 70.218,32.825 C70.244,33.005 70.354,33.105 70.611,33.068 L71.125,32.993 L71.203,33.528" id="Fill-45" fill="#000000"></path>
            <path d="M73.682,35.945 L70.88,36.056 C70.62,36.066 70.531,36.184 70.539,36.366 C70.546,36.548 70.645,36.658 70.903,36.647 L73.705,36.537 L73.728,37.077 L70.961,37.186 C70.38,37.209 70.036,36.932 70.014,36.371 C69.992,35.811 70.313,35.507 70.893,35.484 L73.659,35.375 L73.682,35.945" id="Fill-46" fill="#000000"></path>
            <path d="M73.139,39.858 L72.023,39.781 L72.009,40.005 C71.993,40.217 72.078,40.354 72.369,40.373 L72.727,40.398 C72.986,40.416 73.106,40.335 73.12,40.133 L73.139,39.858 Z M69.982,40.267 C70.078,40.242 70.137,40.225 70.432,40.245 L71.003,40.285 C71.34,40.308 71.473,40.202 71.49,39.943 L71.504,39.745 L70.025,39.644 L70.064,39.073 L73.697,39.323 L73.638,40.184 C73.598,40.776 73.306,41.012 72.744,40.973 L72.459,40.953 C72.086,40.928 71.85,40.791 71.748,40.529 C71.608,40.806 71.327,40.881 70.949,40.855 L70.388,40.816 C70.212,40.804 70.082,40.801 69.942,40.848 L69.982,40.267 Z" id="Fill-47" fill="#000000"></path>
            <path d="M72.69,43.732 L71.591,43.537 L71.551,43.757 C71.515,43.967 71.584,44.111 71.87,44.162 L72.224,44.225 C72.479,44.27 72.606,44.203 72.643,44.003 L72.69,43.732 Z M69.513,43.802 C69.61,43.788 69.67,43.778 69.962,43.829 L70.524,43.929 C70.856,43.988 71,43.897 71.045,43.641 L71.079,43.446 L69.621,43.189 L69.721,42.626 L73.301,43.26 L73.15,44.109 C73.048,44.693 72.732,44.895 72.18,44.797 L71.898,44.747 C71.53,44.682 71.311,44.521 71.237,44.25 C71.07,44.511 70.783,44.555 70.409,44.489 L69.857,44.391 C69.684,44.36 69.555,44.343 69.412,44.375 L69.513,43.802 Z" id="Fill-48" fill="#000000"></path>
            <polyline id="Fill-49" fill="#000000" points="70.86 47.252 70.645 48.007 70.144 47.863 70.361 47.109 69.336 46.815 69.064 47.764 68.564 47.62 68.995 46.122 72.492 47.126 72.062 48.625 71.562 48.481 71.834 47.532 70.86 47.252"></polyline>
            <polyline id="Fill-50" fill="#000000" points="70.217 50.806 67.778 49.811 67.972 49.333 71.341 50.708 71.069 51.372 68.832 51.094 70.848 51.916 70.655 52.388 67.287 51.013 67.509 50.469 70.217 50.806"></polyline>
            <path d="M66.873,54.822 L66.447,54.591 C65.936,54.313 65.781,53.898 66.05,53.405 C66.318,52.91 66.75,52.813 67.262,53.091 L68.927,53.994 C69.439,54.271 69.593,54.687 69.325,55.181 C69.058,55.675 68.625,55.773 68.113,55.494 L67.802,55.326 L68.06,54.85 L68.403,55.036 C68.632,55.161 68.773,55.107 68.86,54.947 C68.947,54.787 68.915,54.639 68.687,54.515 L66.957,53.576 C66.729,53.452 66.591,53.508 66.504,53.668 C66.417,53.829 66.445,53.974 66.674,54.098 L67.131,54.346 L66.873,54.822" id="Fill-51" fill="#000000"></path>
            <polyline id="Fill-52" fill="#000000" points="65.441 56.805 67.855 57.588 67.517 58.081 65.903 57.501 67.022 58.801 66.713 59.25 65.117 57.276 64.124 56.592 64.448 56.122 65.441 56.805"></polyline>
            <path d="M12.619,68.228 L12.619,70.014 L13.01,70.014 C13.274,70.014 13.418,69.893 13.418,69.517 L13.418,68.725 C13.418,68.348 13.274,68.228 13.01,68.228 L12.619,68.228 Z M14.247,68.778 L14.247,69.464 C14.247,70.308 13.839,70.768 13.01,70.768 L12.619,70.768 L12.619,72.75 L11.79,72.75 L11.79,67.474 L13.01,67.474 C13.839,67.474 14.247,67.934 14.247,68.778 Z" id="Fill-53" fill="#000000"></path>
            <path d="M16.119,71.077 L16.919,71.077 L16.519,68.408 L16.119,71.077 Z M18.011,72.75 L17.175,72.75 L17.031,71.793 L16.014,71.793 L15.871,72.75 L15.109,72.75 L15.954,67.474 L17.167,67.474 L18.011,72.75 Z" id="Fill-54" fill="#000000"></path>
            <polyline id="Fill-55" fill="#000000" points="19.56 71.001 18.512 67.474 19.378 67.474 20.012 69.878 20.645 67.474 21.436 67.474 20.389 71.001 20.389 72.75 19.56 72.75 19.56 71.001"></polyline>
            <polyline id="Fill-56" fill="#000000" points="26.288 69.939 25.987 72.75 24.849 72.75 24.261 67.474 25.067 67.474 25.512 71.634 25.911 67.474 26.71 67.474 27.125 71.665 27.555 67.474 28.278 67.474 27.69 72.75 26.59 72.75 26.288 69.939"></polyline>
            <polygon id="Fill-57" fill="#000000" points="29.451 72.75 30.281 72.75 30.281 67.474 29.451 67.474"></polygon>
            <polyline id="Fill-58" fill="#000000" points="31.398 67.474 33.96 67.474 33.96 68.228 33.094 68.228 33.094 72.75 32.265 72.75 32.265 68.228 31.398 68.228 31.398 67.474"></polyline>
            <polyline id="Fill-59" fill="#000000" points="35.909 72.75 35.08 72.75 35.08 67.474 35.909 67.474 35.909 69.735 36.851 69.735 36.851 67.474 37.695 67.474 37.695 72.75 36.851 72.75 36.851 70.489 35.909 70.489 35.909 72.75"></polyline>
            <path d="M41.808,70.376 L41.808,71.996 L42.283,71.996 C42.562,71.996 42.712,71.868 42.712,71.476 L42.712,71.017 C42.712,70.527 42.554,70.376 42.177,70.376 L41.808,70.376 Z M41.808,68.228 L41.808,69.622 L42.132,69.622 C42.441,69.622 42.629,69.486 42.629,69.064 L42.629,68.77 C42.629,68.393 42.501,68.228 42.208,68.228 L41.808,68.228 Z M43.458,68.687 L43.458,68.876 C43.458,69.418 43.293,69.765 42.923,69.939 C43.368,70.112 43.542,70.511 43.542,71.069 L43.542,71.499 C43.542,72.313 43.112,72.75 42.283,72.75 L40.979,72.75 L40.979,67.474 L42.23,67.474 C43.089,67.474 43.458,67.873 43.458,68.687 Z" id="Fill-60" fill="#000000"></path>
            <polygon id="Fill-61" fill="#000000" points="44.796 72.75 45.626 72.75 45.626 67.474 44.796 67.474"></polygon>
            <polyline id="Fill-62" fill="#000000" points="46.743 67.474 49.306 67.474 49.306 68.228 48.439 68.228 48.439 72.75 47.61 72.75 47.61 68.228 46.743 68.228 46.743 67.474"></polyline>
            <path d="M52.829,70.783 L52.829,71.484 C52.829,72.328 52.407,72.811 51.593,72.811 C50.779,72.811 50.357,72.328 50.357,71.484 L50.357,68.74 C50.357,67.896 50.779,67.413 51.593,67.413 C52.407,67.413 52.829,67.896 52.829,68.74 L52.829,69.253 L52.045,69.253 L52.045,68.687 C52.045,68.311 51.879,68.167 51.616,68.167 C51.352,68.167 51.186,68.311 51.186,68.687 L51.186,71.537 C51.186,71.913 51.352,72.049 51.616,72.049 C51.879,72.049 52.045,71.913 52.045,71.537 L52.045,70.783 L52.829,70.783" id="Fill-63" fill="#000000"></path>
            <path d="M54.853,71.537 C54.853,71.913 55.018,72.057 55.282,72.057 C55.546,72.057 55.712,71.913 55.712,71.537 L55.712,68.687 C55.712,68.311 55.546,68.167 55.282,68.167 C55.018,68.167 54.853,68.311 54.853,68.687 L54.853,71.537 Z M54.023,68.74 C54.023,67.896 54.468,67.413 55.282,67.413 C56.096,67.413 56.541,67.896 56.541,68.74 L56.541,71.484 C56.541,72.328 56.096,72.811 55.282,72.811 C54.468,72.811 54.023,72.328 54.023,71.484 L54.023,68.74 Z" id="Fill-64" fill="#000000"></path>
            <polygon id="Fill-65" fill="#000000" points="57.834 72.75 58.663 72.75 58.663 67.474 57.834 67.474"></polygon>
            <polyline id="Fill-66" fill="#000000" points="60.76 68.928 60.76 72.75 60.014 72.75 60.014 67.474 61.054 67.474 61.906 70.632 61.906 67.474 62.645 67.474 62.645 72.75 61.793 72.75 60.76 68.928"></polyline>
        </g>
    </g>
</svg>