<?xml version="1.0" encoding="UTF-8"?>
<svg width="80px" height="80px" viewBox="0 0 80 80" version="1.1" xmlns="http://www.w3.org/2000/svg" xmlns:xlink="http://www.w3.org/1999/xlink">
    <!-- Generator: Sketch 49 (51002) - http://www.bohemiancoding.com/sketch -->
    <title>bitcoin-grey-5</title>
    <desc>Created with Sketch.</desc>
    <defs></defs>
    <g id="Page-1" stroke="none" stroke-width="1" fill="none" fill-rule="evenodd">
        <g id="bitcoin-grey-5">
            <path d="M67.35,69.179 C51.44,82.036 28.699,82.037 12.79,69.179 C14.166,67.475 15.542,65.771 16.918,64.068 C30.42,74.98 49.72,74.979 63.222,64.068 C64.598,65.771 65.974,67.475 67.35,69.179" id="Fill-1" fill="#FFFFFF"></path>
            <path d="M13.415,69.198 C29.036,81.531 51.104,81.531 66.725,69.198 C65.524,67.676 64.322,66.152 63.121,64.629 C49.611,75.293 30.528,75.293 17.019,64.629 C15.817,66.152 14.616,67.675 13.415,69.198 Z M67.586,69.47 C51.539,82.439 28.601,82.44 12.554,69.47 C12.336,69.29 12.266,69.021 12.399,68.86 C13.795,67.173 15.191,65.485 16.587,63.798 C16.719,63.637 16.973,63.633 17.154,63.776 C30.518,74.577 49.622,74.577 62.986,63.776 C63.167,63.634 63.421,63.637 63.553,63.798 C64.948,65.485 66.345,67.173 67.74,68.86 C67.873,69.021 67.804,69.291 67.586,69.47 Z" id="Fill-2" fill="#000000"></path>
            <path d="M18.154,69.842 C18.461,70.037 18.77,70.229 19.081,70.415 C19.284,70.537 19.592,70.596 19.71,70.389 C19.847,70.157 19.633,69.949 19.398,69.806 C19.259,69.722 19.12,69.637 18.981,69.551 C18.824,69.454 18.657,69.376 18.472,69.343 C18.366,69.509 18.26,69.674 18.154,69.842 Z M18.659,69.048 C18.847,69.076 19.007,69.158 19.165,69.255 C19.302,69.34 19.44,69.424 19.578,69.507 C19.794,69.635 19.992,69.628 20.102,69.441 C20.214,69.246 20.105,69.098 19.898,68.973 C19.612,68.801 19.327,68.624 19.044,68.443 C18.915,68.645 18.787,68.845 18.659,69.048 Z M18.869,70.687 C18.447,70.432 18.028,70.172 17.613,69.9 C18.04,69.246 18.466,68.59 18.893,67.934 C19.284,68.189 19.679,68.437 20.077,68.677 C20.473,68.915 20.66,69.286 20.456,69.644 C20.354,69.816 20.195,69.929 20.006,69.917 C20.139,70.083 20.208,70.351 20.047,70.634 C19.819,71.039 19.284,70.938 18.869,70.687 Z" id="Fill-3" fill="#000000"></path>
            <path d="M20.684,71.717 C21.052,71.027 21.42,70.338 21.788,69.648 C21.903,69.71 22.019,69.771 22.134,69.831 C21.772,70.525 21.411,71.217 21.05,71.911 C20.928,71.846 20.806,71.782 20.684,71.717" id="Fill-4" fill="#000000"></path>
            <path d="M23.998,71.12 C23.724,71.728 23.451,72.336 23.177,72.944 C23.053,72.888 22.929,72.832 22.806,72.774 C23.085,72.168 23.365,71.564 23.645,70.959 C23.35,70.823 23.056,70.682 22.763,70.538 C22.813,70.434 22.864,70.331 22.916,70.227 C23.608,70.569 24.308,70.888 25.015,71.185 C24.97,71.292 24.925,71.398 24.88,71.505 C24.585,71.38 24.291,71.253 23.998,71.12" id="Fill-5" fill="#000000"></path>
            <path d="M27.571,72.747 C27.439,72.519 27.203,72.323 26.912,72.22 C26.347,72.019 25.777,72.194 25.584,72.688 C25.397,73.155 25.755,73.7 26.316,73.897 C26.663,74.018 27.02,73.994 27.283,73.841 C27.333,73.959 27.383,74.076 27.434,74.192 C27.083,74.358 26.631,74.372 26.198,74.218 C25.378,73.927 24.96,73.156 25.228,72.504 C25.489,71.863 26.31,71.638 27.032,71.896 C27.412,72.029 27.713,72.282 27.894,72.582 C27.786,72.638 27.679,72.692 27.571,72.747" id="Fill-6" fill="#000000"></path>
            <path d="M30.08,73.201 C29.503,73.05 28.954,73.28 28.802,73.782 C28.656,74.268 29.057,74.769 29.629,74.923 C30.215,75.079 30.794,74.811 30.908,74.316 C31.023,73.814 30.633,73.351 30.08,73.201 Z M29.538,75.253 C28.7,75.033 28.224,74.303 28.434,73.63 C28.64,72.972 29.435,72.676 30.172,72.868 C30.933,73.071 31.441,73.735 31.292,74.423 C31.145,75.095 30.338,75.465 29.538,75.253 Z" id="Fill-7" fill="#000000"></path>
            <path d="M32.038,75.776 C32.19,75.01 32.343,74.242 32.495,73.476 C32.62,73.5 32.745,73.524 32.871,73.548 C32.726,74.316 32.581,75.085 32.436,75.853 C32.303,75.828 32.17,75.802 32.038,75.776" id="Fill-8" fill="#000000"></path>
            <path d="M33.768,73.706 C33.934,73.733 34.1,73.759 34.266,73.784 C34.74,74.459 35.241,75.127 35.77,75.784 C35.833,75.19 35.896,74.595 35.96,74.002 C36.09,74.016 36.221,74.029 36.351,74.042 C36.276,74.82 36.201,75.598 36.126,76.376 C35.99,76.363 35.855,76.349 35.72,76.335 C35.24,75.744 34.782,75.144 34.346,74.537 C34.268,75.068 34.19,75.601 34.112,76.132 C33.98,76.114 33.846,76.093 33.712,76.072 C33.816,75.409 33.92,74.746 34.024,74.082 C33.938,73.957 33.853,73.832 33.768,73.706" id="Fill-9" fill="#000000"></path>
            <path d="M40.428,75.875 C40.224,75.547 40.023,75.218 39.828,74.886 C39.627,75.259 39.42,75.63 39.207,76 C39.309,75.926 39.537,75.873 39.916,75.876 C40.087,75.877 40.257,75.876 40.428,75.875 Z M39.491,74.175 C39.633,74.177 39.775,74.179 39.918,74.179 C40.341,74.975 40.79,75.765 41.265,76.548 C41.111,76.552 40.958,76.556 40.804,76.559 C40.74,76.446 40.677,76.332 40.614,76.219 C40.331,76.223 40.047,76.224 39.764,76.221 C39.256,76.217 38.977,76.343 38.911,76.439 C38.886,76.475 38.861,76.511 38.836,76.547 C38.687,76.542 38.539,76.537 38.39,76.531 C38.825,75.848 39.24,75.16 39.634,74.465 C39.586,74.369 39.538,74.272 39.491,74.175 Z" id="Fill-10" fill="#000000"></path>
            <path d="M43.99,74.584 C43.778,74.424 43.485,74.349 43.182,74.373 C42.591,74.423 42.151,74.814 42.177,75.343 C42.201,75.848 42.742,76.194 43.327,76.147 C43.69,76.119 43.998,75.943 44.176,75.7 C44.269,75.787 44.361,75.873 44.455,75.959 C44.204,76.251 43.804,76.452 43.351,76.488 C42.493,76.557 41.809,76.024 41.782,75.321 C41.757,74.634 42.403,74.085 43.158,74.028 C43.556,73.995 43.929,74.099 44.214,74.302 C44.14,74.396 44.065,74.49 43.99,74.584" id="Fill-11" fill="#000000"></path>
            <path d="M47.272,74.117 C47.047,73.981 46.749,73.926 46.447,73.974 C45.86,74.069 45.456,74.502 45.525,75.026 C45.592,75.526 46.16,75.825 46.741,75.73 C47.102,75.666 47.396,75.477 47.552,75.213 C47.651,75.292 47.751,75.37 47.852,75.447 C47.626,75.759 47.243,75.995 46.794,76.067 C45.943,76.209 45.215,75.746 45.13,75.037 C45.047,74.353 45.646,73.755 46.395,73.633 C46.789,73.565 47.17,73.636 47.473,73.817 C47.406,73.917 47.339,74.017 47.272,74.117" id="Fill-12" fill="#000000"></path>
            <path d="M49.215,75.188 C49.778,75.059 50.339,74.918 50.897,74.764 C50.927,74.874 50.958,74.984 50.988,75.094 C50.292,75.285 49.591,75.458 48.888,75.612 C48.72,74.849 48.553,74.084 48.385,73.321 C48.997,73.187 49.606,73.038 50.213,72.875 C50.243,72.986 50.273,73.097 50.303,73.209 C49.819,73.34 49.332,73.461 48.844,73.573 C48.897,73.804 48.95,74.035 49.003,74.266 C49.146,74.149 49.312,74.1 49.486,74.057 C49.68,74.01 49.874,73.962 50.066,73.912 C50.096,74.025 50.125,74.137 50.154,74.25 C49.96,74.301 49.765,74.349 49.569,74.397 C49.395,74.442 49.228,74.495 49.081,74.605 C49.126,74.799 49.17,74.993 49.215,75.188" id="Fill-13" fill="#000000"></path>
            <path d="M52.951,73.086 C53.198,73.001 53.3,72.848 53.225,72.638 C53.146,72.415 52.986,72.379 52.737,72.461 C52.423,72.569 52.108,72.672 51.792,72.771 C51.867,73.01 51.942,73.251 52.018,73.491 C52.152,73.363 52.316,73.3 52.488,73.241 C52.643,73.19 52.797,73.138 52.951,73.086 Z M51.994,74.804 C51.768,74.055 51.541,73.307 51.314,72.559 C51.754,72.426 52.191,72.285 52.627,72.136 C53.076,71.982 53.453,72.111 53.598,72.505 C53.741,72.89 53.53,73.257 53.063,73.413 C52.908,73.466 52.752,73.519 52.596,73.569 C52.426,73.628 52.259,73.699 52.121,73.821 C52.211,74.108 52.301,74.395 52.392,74.682 C52.259,74.722 52.127,74.764 51.994,74.804 Z" id="Fill-14" fill="#000000"></path>
            <path d="M55.36,71.462 C55.62,72.075 55.881,72.689 56.141,73.302 C56.016,73.356 55.891,73.408 55.765,73.46 C55.511,72.844 55.257,72.229 55.003,71.612 C54.703,71.735 54.403,71.855 54.101,71.97 C54.06,71.863 54.018,71.756 53.977,71.647 C54.691,71.374 55.398,71.078 56.099,70.76 C56.146,70.865 56.194,70.97 56.241,71.075 C55.949,71.209 55.655,71.337 55.36,71.462" id="Fill-15" fill="#000000"></path>
            <path d="M58.133,72.013 C58.66,71.752 59.183,71.48 59.701,71.195 C59.756,71.296 59.811,71.395 59.866,71.495 C59.22,71.85 58.565,72.187 57.905,72.505 C57.566,71.8 57.228,71.096 56.889,70.391 C57.463,70.113 58.032,69.823 58.596,69.516 C58.651,69.618 58.706,69.719 58.761,69.821 C58.311,70.066 57.857,70.301 57.399,70.527 C57.504,70.739 57.609,70.952 57.714,71.164 C57.828,71.015 57.981,70.926 58.145,70.845 C58.326,70.753 58.506,70.659 58.686,70.564 C58.74,70.667 58.795,70.77 58.85,70.873 C58.668,70.969 58.486,71.064 58.304,71.156 C58.142,71.239 57.987,71.335 57.868,71.477 C57.956,71.656 58.044,71.834 58.133,72.013" id="Fill-16" fill="#000000"></path>
            <path d="M61.122,70.377 C61.309,70.264 61.495,70.15 61.681,70.034 C62.158,69.735 62.257,69.214 62.016,68.852 C61.764,68.478 61.282,68.329 60.796,68.632 C60.621,68.743 60.444,68.851 60.267,68.958 C60.552,69.43 60.837,69.903 61.122,70.377 Z M59.41,69.061 C59.814,68.828 60.213,68.589 60.61,68.341 C61.243,67.944 61.995,68.072 62.352,68.598 C62.53,68.863 62.577,69.22 62.477,69.56 C62.381,69.899 62.19,70.117 61.862,70.324 C61.556,70.514 61.248,70.703 60.939,70.885 C60.601,70.311 60.263,69.736 59.925,69.162 C59.862,69.199 59.799,69.236 59.736,69.273 C59.627,69.202 59.518,69.132 59.41,69.061 Z" id="Fill-17" fill="#000000"></path>
            <path d="M6.435,58.288 C6.292,58.844 6.385,59.471 6.715,60.005 C7.358,61.046 8.601,61.387 9.654,60.736 C10.664,60.112 10.865,58.783 10.261,57.805 C9.97,57.334 9.533,57.006 9.049,56.854 L8.196,57.382 L8.568,57.984 L8.073,58.697 L7.101,57.123 L8.919,55.999 C9.736,56.144 10.482,56.636 10.948,57.388 C11.824,58.806 11.398,60.585 9.987,61.457 C8.607,62.31 6.851,61.767 6.021,60.425 C5.587,59.722 5.474,58.908 5.648,58.167 L6.435,58.288" id="Fill-18" fill="#000000"></path>
            <path d="M7.493,52.532 L6.356,49.331 L7.114,49.062 L8.521,53.021 L3.33,54.865 L2.032,51.212 L2.798,50.94 L3.826,53.834 L5.398,53.276 C5.106,53.027 4.97,52.707 4.849,52.366 L4.445,51.232 L5.218,50.958 L5.621,52.092 C5.739,52.426 5.893,52.747 6.171,53.001 L7.493,52.532" id="Fill-19" fill="#000000"></path>
            <polyline id="Fill-20" fill="#000000" points="1.075 47.599 0.948 46.566 4.691 42.545 0.517 43.058 0.418 42.252 5.882 41.581 5.979 42.372 2.606 45.968 6.364 45.506 6.46 46.29 1.766 46.867 1.075 47.599"></polyline>
            <polyline id="Fill-21" fill="#000000" points="1.398 36.026 6.076 36.424 6.01 37.204 1.332 36.806 1.165 38.762 0.356 38.694 0.754 34.023 1.563 34.092 1.398 36.026"></polyline>
            <polyline id="Fill-22" fill="#000000" points="6.735 32.145 1.432 30.665 1.647 29.89 6.177 31.153 6.998 28.21 7.773 28.426 6.735 32.145"></polyline>
            <path d="M8.292,25.155 L9.815,22.123 L10.533,22.484 L8.649,26.235 L3.731,23.764 L5.471,20.304 L6.195,20.668 L4.818,23.41 L6.308,24.158 C6.285,23.776 6.421,23.456 6.583,23.133 L7.123,22.059 L7.854,22.426 L7.315,23.501 C7.156,23.817 7.03,24.15 7.039,24.526 L8.292,25.155" id="Fill-23" fill="#000000"></path>
            <polyline id="Fill-24" fill="#000000" points="12.557 17.037 9.632 17.044 12.552 19.455 12.049 20.064 8.4 17.051 7.395 17.053 8.057 16.251 11.573 16.235 10.942 12.756 11.606 11.954 11.794 12.942 15.442 15.955 14.94 16.564 12.02 14.153 12.557 17.037"></polyline>
            <path d="M17.922,12.707 L20.617,10.644 L21.106,11.282 L17.772,13.835 L14.426,9.464 L17.502,7.109 L17.995,7.753 L15.558,9.619 L16.572,10.943 C16.719,10.589 16.98,10.361 17.268,10.141 L18.223,9.41 L18.721,10.06 L17.766,10.791 C17.484,11.007 17.226,11.251 17.069,11.594 L17.922,12.707" id="Fill-25" fill="#000000"></path>
            <polyline id="Fill-26" fill="#000000" points="20.644 5.071 21.586 4.629 26.57 6.941 24.788 3.131 25.523 2.787 27.856 7.773 27.135 8.111 22.669 6.021 24.274 9.449 23.559 9.784 21.554 5.5 20.644 5.071"></polyline>
            <path d="M29.257,1.516 C29.569,1.428 29.78,1.63 29.854,1.893 C29.97,2.305 29.814,2.955 29.389,3.351 L29.166,3.183 C29.421,2.835 29.497,2.614 29.431,2.38 C29.217,2.409 29.018,2.274 28.957,2.06 C28.892,1.826 29.022,1.582 29.257,1.516" id="Fill-27" fill="#000000"></path>
            <path d="M35.591,6.04 C34.756,6.148 33.839,5.85 33.197,5.21 L33.7,4.602 C34.03,4.909 34.631,5.353 35.487,5.242 C36.293,5.138 37.066,4.725 36.979,4.044 C36.871,3.209 36.043,3.316 35.252,3.418 C33.948,3.586 33.176,3.195 33.056,2.265 C32.94,1.378 33.676,0.442 34.848,0.291 C35.676,0.184 36.424,0.325 37.157,0.871 L36.734,1.521 C36.087,1.121 35.648,1.007 34.952,1.096 C34.337,1.176 33.879,1.667 33.94,2.143 C33.983,2.472 34.257,2.742 35.187,2.622 C37.099,2.375 37.666,2.905 37.799,3.938 C37.94,5.037 36.975,5.861 35.591,6.04" id="Fill-28" fill="#000000"></path>
            <path d="M45.24,2.946 C45.601,2.815 45.955,2.848 46.311,2.912 L47.24,3.078 C47.728,3.165 48.091,2.975 48.181,2.474 C48.272,1.958 47.97,1.724 47.497,1.64 L45.536,1.29 L45.24,2.946 Z M44.853,5.117 L46.894,5.482 C47.337,5.561 47.933,5.412 48.03,4.868 C48.143,4.236 47.619,3.978 47.097,3.884 L46.167,3.718 C45.818,3.656 45.454,3.636 45.097,3.752 L44.853,5.117 Z M46.672,6.259 L43.927,5.769 L44.895,0.351 L47.64,0.841 C48.555,1.004 49.144,1.656 48.974,2.608 C48.891,3.073 48.651,3.442 48.296,3.589 C48.643,3.83 48.93,4.361 48.796,5.11 C48.604,6.184 47.573,6.42 46.672,6.259 Z" id="Fill-29" fill="#000000"></path>
            <path d="M54.827,7.161 L54.605,4.553 L52.472,6.522 C52.721,6.441 53.19,6.484 53.886,6.772 L54.827,7.161 Z M54.585,2.747 L55.403,3.086 L55.71,9.276 L54.878,8.932 L54.852,8.05 L53.303,7.409 C52.375,7.025 51.756,7.113 51.553,7.276 L51.324,7.461 L50.52,7.128 L54.605,3.49 L54.585,2.747 Z" id="Fill-30" fill="#000000"></path>
            <path d="M60.109,8.605 C60.491,8.639 60.788,8.82 61.084,9.028 L61.942,9.631 C62.396,9.949 62.854,9.964 63.193,9.48 C63.524,9.009 63.3,8.608 62.871,8.307 L61.161,7.107 L60.109,8.605 Z M61.147,10.056 L60.622,9.687 C60.332,9.483 60.021,9.31 59.646,9.264 L58.459,10.956 L57.801,10.493 L60.965,5.986 L63.334,7.649 C64.155,8.226 64.418,9.123 63.82,9.975 C63.341,10.658 62.645,10.827 61.878,10.532 L61.723,11.497 C61.715,12.114 61.754,12.276 62.044,12.48 C62.067,12.497 62.086,12.51 62.11,12.527 L62.26,12.622 L61.788,13.293 C61.263,12.924 60.731,12.551 60.887,11.596 L61.147,10.056 Z" id="Fill-31" fill="#000000"></path>
            <path d="M66.559,13.679 C66.925,13.795 67.185,14.037 67.429,14.303 L68.065,15.001 C68.398,15.366 68.803,15.436 69.179,15.093 C69.565,14.74 69.468,14.37 69.144,14.016 L67.801,12.545 L66.559,13.679 Z M64.93,15.166 L66.328,16.697 C66.632,17.029 67.194,17.274 67.604,16.901 C68.077,16.468 67.819,15.945 67.461,15.553 L66.824,14.856 C66.585,14.594 66.309,14.357 65.954,14.231 L64.93,15.166 Z M65.68,17.179 L63.799,15.12 L67.863,11.41 L69.743,13.469 C70.37,14.155 70.439,15.03 69.727,15.682 C69.378,16 68.964,16.148 68.592,16.048 C68.72,16.451 68.625,17.047 68.064,17.559 C67.258,18.296 66.296,17.855 65.68,17.179 Z" id="Fill-32" fill="#000000"></path>
            <path d="M69.636,21.084 L71.362,24.011 L70.669,24.42 L68.533,20.799 L73.279,17.999 L75.25,21.34 L74.551,21.752 L72.989,19.105 L71.551,19.954 C71.886,20.143 72.081,20.43 72.265,20.742 L72.877,21.779 L72.17,22.196 L71.559,21.159 C71.378,20.853 71.166,20.567 70.845,20.37 L69.636,21.084" id="Fill-33" fill="#000000"></path>
            <path d="M74.75,26.712 C75.036,26.966 75.166,27.289 75.28,27.632 L75.609,28.626 C75.783,29.152 76.143,29.437 76.702,29.251 C77.249,29.07 77.308,28.616 77.144,28.119 L76.487,26.136 L74.75,26.712 Z M74.719,28.494 L74.517,27.885 C74.405,27.549 74.259,27.224 73.986,26.965 L72.025,27.614 L71.773,26.851 L76.997,25.12 L77.906,27.866 C78.222,28.818 77.898,29.695 76.911,30.022 C76.119,30.284 75.46,30.005 75.021,29.311 L74.321,29.993 C73.947,30.483 73.882,30.636 73.993,30.973 C74.002,31.001 74.009,31.022 74.019,31.05 L74.081,31.215 L73.304,31.473 C73.102,30.864 72.898,30.247 73.592,29.574 L74.719,28.494 Z" id="Fill-34" fill="#000000"></path>
            <path d="M73.889,35.99 C73.799,35.153 74.116,34.243 74.769,33.615 L75.366,34.13 C75.052,34.454 74.596,35.045 74.689,35.904 C74.776,36.711 75.173,37.492 75.855,37.418 C76.691,37.328 76.603,36.499 76.517,35.706 C76.375,34.4 76.782,33.635 77.715,33.535 C78.603,33.438 79.523,34.193 79.65,35.367 C79.74,36.196 79.583,36.941 79.022,37.663 L78.381,37.227 C78.795,36.588 78.919,36.152 78.843,35.455 C78.776,34.838 78.295,34.37 77.818,34.422 C77.488,34.458 77.212,34.725 77.313,35.657 C77.52,37.573 76.979,38.129 75.944,38.24 C74.843,38.36 74.039,37.377 73.889,35.99" id="Fill-35" fill="#000000"></path>
            <path d="M74.204,41.757 L74.286,40.965 L79.762,41.534 L79.679,42.327 L77.434,42.093 C77.52,42.325 77.532,42.571 77.508,42.806 C77.474,43.129 77.213,44.073 77.16,44.572 C77.137,44.8 77.145,45.083 77.223,45.328 L79.344,45.549 L79.261,46.349 L73.786,45.78 L73.869,44.979 L76.416,45.244 C76.337,44.999 76.33,44.716 76.354,44.489 C76.405,43.989 76.667,43.045 76.7,42.722 C76.725,42.487 76.713,42.241 76.626,42.009 L74.204,41.757" id="Fill-36" fill="#000000"></path>
            <path d="M76.84,52.822 C77.251,51.667 76.739,50.483 75.57,50.067 C74.45,49.669 73.285,50.345 72.899,51.43 C72.504,52.544 73.038,53.776 74.165,54.176 C75.307,54.581 76.447,53.929 76.84,52.822 Z M72.144,51.154 C72.702,49.581 74.359,48.799 75.925,49.355 C77.456,49.899 78.132,51.612 77.604,53.101 C77.057,54.639 75.408,55.464 73.856,54.913 C72.326,54.369 71.609,52.657 72.144,51.154 Z" id="Fill-37" fill="#000000"></path>
            <path d="M71.169,60.401 C70.888,60.844 70.946,61.222 71.396,61.507 C71.863,61.803 72.194,61.681 72.479,61.231 L73.563,59.521 L72.064,58.573 C72.049,58.956 71.884,59.272 71.69,59.578 L71.169,60.401 Z M70.018,56.324 L74.673,59.272 L73.159,61.662 C72.638,62.486 71.799,62.706 70.969,62.181 C70.145,61.659 69.961,60.79 70.482,59.967 L71.004,59.143 C71.193,58.843 71.35,58.514 71.378,58.138 L69.587,57.004 L70.018,56.324 Z" id="Fill-38" fill="#000000"></path>
            <path d="M63.525,61.697 C63.249,61.474 62.906,61.35 62.541,61.35 C62.19,61.35 61.856,61.465 61.577,61.679 C60.992,62.131 60.816,62.916 61.104,63.565 L63.525,61.697" id="Fill-39" fill="#FFFFFF"></path>
            <path d="M69.492,69.438 L67.075,71.301 C67.627,71.728 68.446,71.763 69.015,71.324 C69.601,70.872 69.776,70.087 69.492,69.438" id="Fill-40" fill="#FFFFFF"></path>
            <path d="M69.341,68.608 L69.485,68.495 C69.525,68.465 69.535,68.427 69.538,68.406 C69.537,68.405 69.514,68.315 69.513,68.314 C69.48,68.272 69.434,68.267 69.414,68.267 L68.832,68.711 L66.524,70.465 L66.212,70.702 L66.006,70.86 C65.968,70.889 65.957,70.929 65.954,70.949 C65.952,70.969 65.952,71.007 65.979,71.041 C66.047,71.131 66.102,71.104 66.159,71.061 L66.307,70.947 L69.037,68.842 L69.341,68.608" id="Fill-41" fill="#FFFFFF"></path>
            <path d="M64.589,62.142 C64.645,62.099 64.657,62.016 64.615,61.963 C64.582,61.92 64.534,61.916 64.515,61.916 L64.3,62.08 L61.568,64.159 L61.256,64.396 L61.109,64.507 C61.069,64.537 61.059,64.577 61.057,64.599 C61.173,64.876 61.207,64.75 61.264,64.708 L61.469,64.55 L61.788,64.303 L64.069,62.544 L64.124,62.501 L64.125,62.5 L64.382,62.302 L64.589,62.142" id="Fill-42" fill="#FFFFFF"></path>
            <polyline id="Fill-43" fill="#FFFFFF" points="65.733 64.699 65.209 68.756 65.628 69.298 66.152 65.242 65.733 64.699"></polyline>
            <polyline id="Fill-44" fill="#FFFFFF" points="63.291 64.31 63.235 64.744 63.182 65.161 63.074 65.989 63.492 66.531 63.697 64.945 63.761 64.45 63.844 63.807 63.859 63.688 63.317 64.106 63.291 64.31"></polyline>
            <polyline id="Fill-45" fill="#FFFFFF" points="64.664 63.312 64.141 67.37 64.561 67.916 65.085 63.858 64.664 63.312"></polyline>
            <polyline id="Fill-46" fill="#FFFFFF" points="62.254 64.925 62.427 65.148 62.462 64.87 62.478 64.753 62.33 64.867 62.254 64.925"></polyline>
            <polyline id="Fill-47" fill="#FFFFFF" points="66.883 69.239 66.883 69.237 66.914 68.991 66.983 68.452 67.219 66.624 66.801 66.082 66.507 68.349 66.421 69.018 66.338 69.657 66.338 69.659 66.613 69.446 66.883 69.239"></polyline>
            <polyline id="Fill-48" fill="#FFFFFF" points="68.307 68.139 68.356 68.1 68.108 67.778 67.867 67.465 67.826 67.781 67.779 68.15 67.728 68.55 67.723 68.59 67.723 68.591 67.786 68.541 68.307 68.139"></polyline>
            <path d="M17.533,61.35 C17.168,61.35 16.825,61.474 16.549,61.697 L18.972,63.565 C19.258,62.917 19.083,62.131 18.497,61.679 C18.218,61.465 17.885,61.35 17.533,61.35" id="Fill-49" fill="#FFFFFF"></path>
            <path d="M11.06,71.324 C11.338,71.538 11.671,71.652 12.021,71.652 C12.386,71.652 12.729,71.528 13.006,71.306 L10.583,69.438 C10.298,70.086 10.474,70.871 11.06,71.324" id="Fill-50" fill="#FFFFFF"></path>
            <path d="M13.863,70.701 L13.851,70.692 C13.85,70.691 13.848,70.692 13.847,70.691 L13.551,70.462 L11.264,68.697 L10.991,68.487 L10.948,68.453 L10.743,68.296 C10.7,68.284 10.667,68.278 10.641,68.278 C10.604,68.278 10.58,68.29 10.563,68.314 L10.537,68.406 C10.539,68.427 10.55,68.465 10.588,68.495 L10.734,68.607 L11.041,68.84 L13.471,70.688 L13.781,70.924 L13.997,71.088 C14.017,71.088 14.064,71.084 14.096,71.042 C14.139,70.987 14.125,70.903 14.068,70.86 L13.863,70.701" id="Fill-51" fill="#FFFFFF"></path>
            <path d="M18.82,64.396 L16.095,62.293 L15.788,62.056 L15.642,61.943 C15.6,61.932 15.567,61.926 15.541,61.926 C15.503,61.926 15.479,61.938 15.46,61.963 C15.418,62.016 15.43,62.099 15.486,62.142 L15.693,62.301 L16.006,62.538 L18.312,64.292 L18.629,64.533 L18.894,64.735 C18.913,64.735 18.963,64.73 18.995,64.688 C19.016,64.577 19.005,64.537 18.966,64.507 L18.82,64.396" id="Fill-52" fill="#FFFFFF"></path>
            <polyline id="Fill-53" fill="#FFFFFF" points="13.922 65.242 14.447 69.298 14.866 68.756 14.342 64.699 13.922 65.242"></polyline>
            <polyline id="Fill-54" fill="#FFFFFF" points="16.84 64.744 16.781 64.293 16.757 64.106 16.216 63.688 16.23 63.807 16.314 64.45 16.378 64.945 16.582 66.531 17.001 65.989 16.894 65.161 16.84 64.744"></polyline>
            <polyline id="Fill-55" fill="#FFFFFF" points="15.41 63.312 15.283 63.478 14.989 63.858 15.514 67.916 15.935 67.37 15.51 64.077 15.41 63.312"></polyline>
            <polyline id="Fill-56" fill="#FFFFFF" points="17.598 64.753 17.612 64.87 17.648 65.148 17.82 64.925 17.744 64.867 17.598 64.753"></polyline>
            <polyline id="Fill-57" fill="#FFFFFF" points="13.092 68.452 13.161 68.991 13.192 69.237 13.192 69.239 13.462 69.446 13.737 69.659 13.737 69.657 13.567 68.349 13.274 66.082 12.856 66.624 13.031 67.985 13.092 68.452"></polyline>
            <polyline id="Fill-58" fill="#FFFFFF" points="11.86 68.21 12.289 68.541 12.353 68.591 12.353 68.59 12.348 68.55 12.296 68.15 12.249 67.781 12.208 67.465 11.967 67.778 11.718 68.1 11.769 68.139 11.86 68.21"></polyline>
            <path d="M65.979,71.041 C65.952,71.007 65.952,70.969 65.954,70.949 C65.957,70.929 65.968,70.889 66.006,70.86 L66.212,70.702 L66.524,70.465 L68.832,68.711 L69.414,68.267 C69.434,68.267 69.48,68.272 69.513,68.314 C69.514,68.315 69.537,68.405 69.538,68.406 C69.535,68.427 69.525,68.465 69.485,68.495 L69.341,68.608 L69.037,68.842 L66.307,70.947 L66.159,71.061 C66.102,71.104 66.047,71.131 65.979,71.041 Z M67.219,66.624 L66.914,68.991 L66.883,69.237 L66.883,69.239 L66.613,69.446 L66.338,69.659 L66.338,69.657 L66.421,69.018 L66.507,68.349 L66.801,66.082 L67.219,66.624 Z M68.108,67.778 L68.356,68.1 L68.307,68.139 L67.786,68.541 L67.723,68.591 L67.723,68.59 L67.728,68.55 L67.779,68.15 L67.826,67.781 L67.867,67.465 L68.108,67.778 Z M65.733,64.699 L66.152,65.242 L65.628,69.298 L65.209,68.756 L65.733,64.699 Z M64.141,67.37 L64.664,63.312 L65.085,63.858 L64.561,67.916 L64.141,67.37 Z M63.074,65.989 L63.182,65.161 L63.235,64.744 L63.291,64.31 L63.317,64.106 L63.859,63.688 L63.844,63.807 L63.761,64.45 L63.697,64.945 L63.492,66.531 L63.074,65.989 Z M62.33,64.867 L62.478,64.753 L62.462,64.87 L62.427,65.148 L62.254,64.925 L62.33,64.867 Z M64.615,61.963 C64.657,62.016 64.645,62.099 64.589,62.142 L64.382,62.302 L64.125,62.5 L64.124,62.501 L64.069,62.544 L61.788,64.303 L61.469,64.55 L61.264,64.708 C61.207,64.75 61.173,64.876 61.057,64.599 C61.059,64.577 61.069,64.537 61.109,64.507 L61.256,64.396 L61.568,64.159 L64.3,62.08 L64.515,61.916 C64.534,61.916 64.582,61.92 64.615,61.963 Z M62.541,61.35 C62.906,61.35 63.249,61.474 63.525,61.697 L61.104,63.565 C60.816,62.916 60.992,62.131 61.577,61.679 C61.856,61.465 62.19,61.35 62.541,61.35 Z M67.075,71.301 L69.492,69.438 C69.776,70.087 69.601,70.872 69.015,71.324 C68.446,71.763 67.627,71.728 67.075,71.301 Z M70.075,68.94 C70.18,68.812 70.261,68.668 70.282,68.501 C70.312,68.267 70.249,68.038 70.108,67.858 C69.847,67.516 69.337,67.44 68.964,67.659 L66.844,64.91 L66.839,64.905 L65.776,63.527 L65.771,63.52 L65.11,62.664 C65.429,62.356 65.483,61.859 65.209,61.504 C64.966,61.189 64.513,61.107 64.153,61.264 C63.348,60.5 62.022,60.391 61.119,61.085 C60.195,61.798 59.965,63.073 60.52,64.064 C60.415,64.19 60.334,64.334 60.312,64.502 C60.282,64.735 60.344,64.963 60.486,65.148 C60.652,65.361 60.906,65.485 61.181,65.485 C61.343,65.485 61.496,65.431 61.634,65.348 L65.483,70.34 C65.34,70.478 65.236,70.652 65.211,70.854 C65.181,71.086 65.242,71.316 65.384,71.499 C65.55,71.715 65.803,71.838 66.077,71.838 C66.208,71.838 66.333,71.799 66.45,71.744 C66.881,72.159 67.443,72.402 68.054,72.402 C68.57,72.402 69.062,72.235 69.473,71.918 C70.396,71.206 70.629,69.932 70.075,68.94 Z" id="Fill-59" fill="#000000"></path>
            <path d="M17.648,65.148 L17.612,64.87 L17.598,64.753 L17.744,64.867 L17.82,64.925 L17.648,65.148 Z M16.095,62.293 L18.82,64.396 L18.966,64.507 C19.005,64.537 19.016,64.577 18.995,64.688 C18.963,64.73 18.913,64.735 18.894,64.735 L18.629,64.533 L18.312,64.292 L16.006,62.538 L15.693,62.301 L15.486,62.142 C15.43,62.099 15.418,62.016 15.46,61.963 C15.479,61.938 15.503,61.926 15.541,61.926 C15.567,61.926 15.6,61.932 15.642,61.943 L15.788,62.056 L16.095,62.293 Z M18.497,61.679 C19.083,62.131 19.258,62.917 18.972,63.565 L16.549,61.697 C16.825,61.474 17.168,61.35 17.533,61.35 C17.885,61.35 18.218,61.465 18.497,61.679 Z M14.447,69.298 L13.922,65.242 L14.342,64.699 L14.866,68.756 L14.447,69.298 Z M13.471,70.688 L11.041,68.84 L10.734,68.607 L10.588,68.495 C10.55,68.465 10.539,68.427 10.537,68.406 L10.563,68.314 C10.58,68.29 10.604,68.278 10.641,68.278 C10.667,68.278 10.7,68.284 10.743,68.296 L10.948,68.453 L10.991,68.487 L11.264,68.697 L13.551,70.462 L13.847,70.691 C13.848,70.692 13.85,70.691 13.851,70.692 L13.863,70.701 L14.068,70.86 C14.125,70.903 14.139,70.987 14.096,71.042 C14.064,71.084 14.017,71.088 13.997,71.088 L13.781,70.924 L13.471,70.688 Z M13.274,66.082 L13.567,68.349 L13.737,69.657 L13.737,69.659 L13.462,69.446 L13.192,69.239 L13.192,69.237 L13.161,68.991 L13.092,68.452 L13.031,67.985 L12.856,66.624 L13.274,66.082 Z M12.208,67.465 L12.249,67.781 L12.296,68.15 L12.348,68.55 L12.353,68.59 L12.353,68.591 L12.289,68.541 L11.86,68.21 L11.769,68.139 L11.718,68.1 L11.967,67.778 L12.208,67.465 Z M11.06,71.324 C10.474,70.871 10.298,70.086 10.583,69.438 L13.006,71.306 C12.729,71.528 12.386,71.652 12.021,71.652 C11.671,71.652 11.338,71.538 11.06,71.324 Z M15.514,67.916 L14.989,63.858 L15.283,63.478 L15.41,63.312 L15.51,64.077 L15.935,67.37 L15.514,67.916 Z M16.582,66.531 L16.378,64.945 L16.314,64.45 L16.23,63.807 L16.216,63.688 L16.757,64.106 L16.781,64.293 L16.84,64.744 L16.894,65.161 L17.001,65.989 L16.582,66.531 Z M18.955,61.084 C18.055,60.392 16.727,60.501 15.922,61.264 C15.563,61.107 15.109,61.19 14.866,61.504 C14.592,61.859 14.647,62.354 14.964,62.662 L14.304,63.52 L14.299,63.527 L13.235,64.905 L13.231,64.91 L11.111,67.659 C10.739,67.441 10.227,67.517 9.969,67.856 C9.825,68.038 9.763,68.267 9.793,68.501 C9.815,68.669 9.895,68.813 9.999,68.94 C9.445,69.931 9.678,71.206 10.602,71.918 C11.013,72.235 11.504,72.402 12.021,72.402 C12.631,72.402 13.193,72.159 13.625,71.744 C13.742,71.799 13.866,71.838 13.997,71.838 C14.273,71.838 14.525,71.715 14.69,71.5 C14.965,71.144 14.909,70.649 14.591,70.341 L18.441,65.348 C18.578,65.431 18.732,65.485 18.894,65.485 C19.169,65.485 19.422,65.361 19.588,65.148 C19.731,64.965 19.792,64.735 19.762,64.503 C19.74,64.336 19.66,64.191 19.555,64.064 C20.11,63.073 19.88,61.798 18.955,61.084 Z" id="Fill-60" fill="#000000"></path>
            <path d="M45.07,62.808 C43.601,62.956 41.83,62.407 40.885,61.453 C41.933,61.877 43.369,62.114 44.527,62.114 C44.655,62.114 44.781,62.111 44.906,62.105 C47.955,61.96 50.094,60.9 51.511,59.807 C50.105,61.176 48.012,62.52 45.07,62.808 Z M35.067,62.808 C32.362,62.542 30.376,61.383 28.98,60.134 C30.384,61.095 32.366,61.953 35.071,62.092 C35.202,62.098 35.336,62.102 35.471,62.102 C36.728,62.102 38.313,61.822 39.369,61.328 C38.464,62.36 36.609,62.963 35.067,62.808 Z M30.905,58.422 C32.457,58.422 34.073,58.101 35.708,57.47 C35.992,57.359 36.334,57.3 36.697,57.3 C37.654,57.3 38.627,57.686 39.236,58.307 C39.415,58.491 39.548,58.692 39.657,58.903 C39.657,58.905 39.656,58.907 39.656,58.908 C38.601,58.286 36.735,58.035 35.102,58.383 C33.984,58.596 32.934,58.703 31.977,58.703 C30.621,58.703 29.601,58.491 28.836,58.212 C29.452,58.334 30.134,58.422 30.905,58.422 Z M40.9,58.308 C41.511,57.687 42.484,57.3 43.442,57.3 C43.806,57.3 44.147,57.359 44.433,57.47 C46.066,58.101 47.683,58.422 49.234,58.422 C49.599,58.422 49.947,58.405 50.277,58.373 C50.288,58.416 50.322,58.445 50.347,58.482 C49.714,58.629 48.957,58.726 48.048,58.726 C47.08,58.726 46.017,58.615 44.893,58.398 C43.34,58.064 41.613,58.262 40.535,58.797 C40.636,58.625 40.752,58.46 40.9,58.308 Z M51.018,58.286 C51.018,58.283 51.018,58.28 51.018,58.277 C51.053,58.27 51.083,58.262 51.118,58.256 C51.084,58.267 51.051,58.28 51.017,58.292 C51.017,58.29 51.018,58.287 51.018,58.286 Z M43.939,60.577 C45.171,60.637 46.443,60.7 47.887,60.496 C48.322,60.441 49.117,60.225 49.937,59.958 C48.687,60.668 47.031,61.253 44.871,61.356 C44.759,61.361 44.644,61.364 44.527,61.364 C42.997,61.364 41.592,60.98 40.823,60.604 C41.877,60.483 42.886,60.525 43.939,60.577 Z M32.091,60.473 C33.536,60.681 34.808,60.621 36.037,60.565 C37.092,60.515 38.101,60.476 39.154,60.6 C38.387,60.972 36.991,61.352 35.471,61.352 C35.348,61.352 35.227,61.348 35.108,61.343 C32.974,61.234 31.326,60.644 30.078,59.932 C30.896,60.203 31.683,60.42 32.091,60.473 Z M39.475,59.891 C38.279,59.724 37.165,59.762 36.003,59.816 C34.808,59.871 33.572,59.928 32.193,59.73 C31.787,59.677 31.299,59.55 30.798,59.394 C31.166,59.429 31.553,59.453 31.977,59.453 C32.98,59.453 34.079,59.341 35.25,59.118 C35.73,59.015 36.226,58.964 36.721,58.964 C38.037,58.964 39.03,59.321 39.49,59.69 C39.484,59.757 39.477,59.823 39.475,59.891 Z M40.66,59.87 C40.657,59.776 40.649,59.682 40.639,59.59 C41.143,59.263 42.061,58.973 43.244,58.973 C43.746,58.973 44.248,59.027 44.742,59.133 C45.921,59.361 47.032,59.476 48.048,59.476 C48.456,59.476 48.831,59.453 49.188,59.42 C48.686,59.575 48.194,59.701 47.786,59.754 C46.409,59.947 45.172,59.887 43.977,59.827 C42.864,59.773 41.797,59.731 40.66,59.87 Z M54.577,56.516 C54.528,56.385 54.44,56.255 54.3,56.239 C54.163,56.222 54.057,56.249 53.979,56.363 C53.974,56.367 53.968,56.371 53.963,56.377 C53.805,56.494 52.127,57.672 49.234,57.672 C47.775,57.672 46.251,57.368 44.704,56.772 C44.329,56.625 43.904,56.55 43.442,56.55 C42.29,56.55 41.111,57.023 40.365,57.783 C40.252,57.898 40.16,58.024 40.068,58.15 C39.977,58.024 39.885,57.898 39.772,57.783 C39.026,57.023 37.849,56.55 36.697,56.55 C36.235,56.55 35.811,56.625 35.437,56.771 C33.89,57.368 32.364,57.672 30.904,57.672 C28.154,57.673 26.502,56.607 26.255,56.453 C26.189,56.344 26.07,56.272 25.934,56.272 L25.932,56.272 C25.903,56.27 25.873,56.272 25.845,56.277 C25.716,56.301 25.606,56.391 25.561,56.516 C25.557,56.529 25.55,56.546 25.547,56.572 C25.542,56.595 25.539,56.62 25.539,56.646 C25.539,56.71 25.556,56.771 25.584,56.823 C25.65,57.04 25.82,57.408 26.221,58.047 C27.379,59.896 30.058,63.069 34.994,63.555 C35.176,63.573 35.364,63.582 35.555,63.582 C37.293,63.582 39.142,62.883 40.068,61.682 C40.995,62.883 42.845,63.582 44.583,63.582 C44.774,63.582 44.962,63.573 45.144,63.555 C50.081,63.069 52.761,59.895 53.918,58.046 C54.317,57.408 54.487,57.04 54.555,56.823 C54.583,56.771 54.6,56.71 54.6,56.646 C54.6,56.62 54.597,56.595 54.592,56.571 C54.588,56.546 54.582,56.528 54.577,56.516 Z" id="Fill-61" fill="#000000"></path>
            <path d="M42.91,45.579 L42.91,46.642 C42.91,47.049 42.58,47.378 42.175,47.378 C41.771,47.378 41.442,47.049 41.442,46.642 L41.442,45.585 C41.442,45.378 41.274,45.21 41.067,45.21 L38.476,45.21 C38.269,45.21 38.101,45.378 38.101,45.585 L38.101,46.642 C38.101,47.049 37.771,47.378 37.366,47.378 C36.962,47.378 36.633,47.049 36.633,46.642 L36.633,45.585 C36.633,45.378 36.465,45.21 36.258,45.21 L33.654,45.21 C33.264,45.21 32.922,44.867 32.922,44.475 C32.922,44.066 33.257,43.719 33.654,43.719 L34.676,43.719 C34.883,43.719 35.051,43.551 35.051,43.344 L35.051,32.27 C35.051,32.064 34.883,31.896 34.676,31.896 L33.654,31.896 C33.25,31.896 32.922,31.566 32.922,31.161 C32.922,30.77 33.264,30.426 33.654,30.426 L36.258,30.426 C36.465,30.426 36.633,30.258 36.633,30.051 L36.633,29.042 C36.633,28.636 36.962,28.307 37.366,28.307 C37.771,28.307 38.101,28.636 38.101,29.042 L38.101,30.051 C38.101,30.258 38.269,30.426 38.476,30.426 L41.067,30.426 C41.274,30.426 41.442,30.258 41.442,30.051 L41.442,29.042 C41.442,28.636 41.772,28.307 42.178,28.307 C42.582,28.307 42.912,28.636 42.912,29.042 L42.912,30.119 C42.912,30.301 43.043,30.457 43.223,30.489 C45.158,30.823 46.617,32.562 46.617,34.535 C46.617,35.674 46.062,36.735 45.171,37.302 C45.058,37.374 44.992,37.5 44.997,37.632 C45.002,37.765 45.077,37.887 45.195,37.949 C46.461,38.625 47.217,39.821 47.217,41.148 C47.217,43.319 45.447,45.139 43.273,45.204 C43.071,45.211 42.91,45.377 42.91,45.579 Z M46.036,37.584 C46.868,36.843 47.367,35.721 47.367,34.535 C47.367,32.308 45.795,30.334 43.662,29.814 L43.662,29.042 C43.662,28.223 42.996,27.556 42.178,27.556 C41.358,27.556 40.692,28.223 40.692,29.042 L40.692,29.676 L38.851,29.676 L38.851,29.042 C38.851,28.223 38.185,27.556 37.366,27.556 C36.548,27.556 35.883,28.223 35.883,29.042 L35.883,29.676 L33.654,29.676 C32.851,29.676 32.172,30.356 32.172,31.161 C32.172,31.98 32.837,32.645 33.654,32.645 L34.301,32.645 L34.301,42.969 L33.654,42.969 C32.837,42.969 32.172,43.645 32.172,44.475 C32.172,45.281 32.851,45.96 33.654,45.96 L35.883,45.96 L35.883,46.642 C35.883,47.462 36.548,48.128 37.366,48.128 C38.185,48.128 38.851,47.462 38.851,46.642 L38.851,45.96 L40.692,45.96 L40.692,46.642 C40.692,47.462 41.357,48.128 42.175,48.128 C42.993,48.128 43.66,47.462 43.66,46.642 L43.66,45.929 C46.065,45.671 47.967,43.599 47.967,41.148 C47.967,39.721 47.255,38.424 46.036,37.584 Z" id="Fill-62" fill="#000000"></path>
            <path d="M37.291,32.645 L42.555,32.645 C43.555,32.645 44.399,33.511 44.399,34.535 C44.399,35.523 43.555,36.358 42.555,36.358 L37.291,36.358 L37.291,32.645 Z M36.916,37.108 L42.555,37.108 C43.985,37.108 45.149,35.953 45.149,34.535 C45.149,33.104 43.961,31.896 42.555,31.896 L36.916,31.896 C36.709,31.896 36.541,32.064 36.541,32.27 L36.541,36.733 C36.541,36.94 36.709,37.108 36.916,37.108 Z" id="Fill-63" fill="#000000"></path>
            <path d="M43.133,42.969 L37.291,42.969 L37.291,39.325 L43.153,39.325 C44.158,39.325 44.977,40.144 44.977,41.148 C44.977,42.169 44.166,42.969 43.133,42.969 Z M43.153,38.575 L36.916,38.575 C36.709,38.575 36.541,38.743 36.541,38.951 L36.541,43.344 C36.541,43.551 36.709,43.719 36.916,43.719 L43.133,43.719 C44.587,43.719 45.727,42.591 45.727,41.148 C45.727,39.73 44.572,38.575 43.153,38.575 Z" id="Fill-64" fill="#000000"></path>
            <path d="M30.937,50.182 C30.797,50.164 30.656,50.14 30.516,50.12 L26.803,25.285 C30.784,24.535 35.367,24.139 40.079,24.139 C44.783,24.139 49.359,24.534 53.337,25.282 L49.623,50.12 C49.481,50.14 49.338,50.163 49.195,50.183 C43.14,51.004 36.993,51.003 30.937,50.182 Z M57.014,45.066 C56.15,45.275 55.617,46.148 55.823,47.012 C55.872,47.215 56.078,47.338 56.275,47.29 C56.477,47.241 56.602,47.04 56.553,46.839 C56.442,46.375 56.729,45.907 57.189,45.795 C57.819,45.644 58.454,46.031 58.605,46.659 C58.704,47.064 58.638,47.483 58.421,47.839 C58.203,48.194 57.861,48.443 57.457,48.541 C57.455,48.541 57.455,48.542 57.453,48.542 C57.452,48.543 57.45,48.542 57.448,48.543 C55.122,49.159 52.769,49.642 50.398,50.007 L54.133,25.031 C54.148,24.923 54.137,24.817 54.065,24.735 C53.994,24.652 53.91,24.607 53.801,24.607 C49.703,23.81 44.958,23.389 40.079,23.389 C35.2,23.389 30.455,23.81 26.377,24.6 C26.268,24.6 26.164,24.648 26.093,24.731 C26.021,24.813 25.989,24.923 26.006,25.031 L29.74,50.007 C27.37,49.642 25.016,49.159 22.689,48.543 C22.688,48.542 22.687,48.543 22.686,48.542 C22.684,48.542 22.683,48.541 22.682,48.541 C21.847,48.339 21.332,47.494 21.533,46.659 C21.686,46.031 22.323,45.644 22.949,45.794 C23.173,45.848 23.362,45.987 23.482,46.183 C23.603,46.381 23.639,46.613 23.584,46.836 C23.534,47.037 23.658,47.24 23.859,47.29 C24.059,47.339 24.264,47.216 24.312,47.014 C24.414,46.595 24.347,46.161 24.122,45.793 C23.898,45.425 23.545,45.168 23.125,45.065 C22.1,44.819 21.055,45.452 20.804,46.483 C20.508,47.715 21.264,48.959 22.49,49.264 C22.493,49.265 22.495,49.268 22.497,49.267 C28.246,50.792 34.158,51.553 40.069,51.553 C45.981,51.553 51.894,50.792 57.641,49.267 C57.644,49.268 57.645,49.265 57.648,49.265 C58.24,49.117 58.742,48.752 59.061,48.229 C59.383,47.702 59.48,47.083 59.335,46.483 C59.087,45.453 58.046,44.819 57.014,45.066 Z" id="Fill-65" fill="#000000"></path>
            <path d="M38.172,16.74 C38.181,16.74 38.188,16.744 38.196,16.744 C38.481,16.757 38.708,16.963 38.765,17.234 C38.773,17.275 38.79,17.313 38.79,17.357 C38.79,17.697 38.513,17.974 38.172,17.974 C37.831,17.974 37.555,17.697 37.555,17.357 C37.555,17.016 37.831,16.74 38.172,16.74 Z M42.111,16.74 C42.451,16.74 42.729,17.016 42.729,17.357 C42.729,17.697 42.451,17.974 42.111,17.974 C41.771,17.974 41.494,17.697 41.494,17.357 C41.494,17.313 41.51,17.276 41.519,17.235 C41.575,16.963 41.802,16.757 42.087,16.744 C42.096,16.744 42.103,16.74 42.111,16.74 Z M38.172,18.724 C38.926,18.724 39.54,18.111 39.54,17.357 C39.54,17.073 39.453,16.81 39.305,16.591 L40.142,15.596 L40.979,16.592 C40.831,16.81 40.744,17.073 40.744,17.357 C40.744,18.111 41.357,18.724 42.111,18.724 C42.865,18.724 43.479,18.111 43.479,17.357 C43.479,16.604 42.865,15.99 42.111,15.99 C41.912,15.99 41.725,16.035 41.555,16.111 L40.632,15.013 L42.398,12.911 C42.531,12.754 42.511,12.516 42.353,12.383 C42.194,12.251 41.957,12.271 41.824,12.429 L40.142,14.431 L38.46,12.429 C38.326,12.271 38.09,12.251 37.932,12.383 C37.772,12.516 37.752,12.753 37.886,12.911 L39.651,15.013 L38.729,16.111 C38.559,16.035 38.37,15.99 38.172,15.99 C37.418,15.99 36.805,16.604 36.805,17.357 C36.805,18.111 37.418,18.724 38.172,18.724 Z" id="Fill-66" fill="#000000"></path>
            <path d="M65.176,37.73 L62.782,37.73 L62.782,37.347 L64.808,37.347 C65.003,37.347 65.157,37.196 65.176,37.005 C65.177,36.993 65.183,36.984 65.183,36.971 C65.183,36.96 65.177,36.949 65.176,36.938 C65.157,36.748 65.003,36.596 64.808,36.596 L62.782,36.596 L62.782,36.196 L64.808,36.196 C65.003,36.196 65.157,36.045 65.176,35.855 C65.177,35.843 65.183,35.833 65.183,35.821 C65.183,35.808 65.177,35.799 65.176,35.787 C65.157,35.597 65.003,35.446 64.808,35.446 L62.782,35.446 L62.782,35.046 L64.808,35.046 C65.003,35.046 65.157,34.895 65.176,34.704 C65.177,34.693 65.183,34.682 65.183,34.671 C65.183,34.659 65.177,34.649 65.176,34.637 C65.157,34.447 65.003,34.296 64.808,34.296 L62.782,34.296 L62.782,33.896 L64.808,33.896 C65.003,33.896 65.157,33.744 65.176,33.554 C65.177,33.542 65.183,33.532 65.183,33.52 C65.183,33.508 65.177,33.498 65.176,33.487 C65.157,33.296 65.003,33.145 64.808,33.145 L62.782,33.145 L62.782,32.761 L65.176,32.761 C65.383,32.761 65.551,32.593 65.551,32.385 C65.551,32.179 65.383,32.011 65.176,32.011 L62.407,32.011 C62.2,32.011 62.032,32.179 62.032,32.385 L62.032,38.105 C62.032,38.312 62.2,38.48 62.407,38.48 L65.176,38.48 C65.383,38.48 65.551,38.312 65.551,38.105 C65.551,37.898 65.383,37.73 65.176,37.73" id="Fill-67" fill="#000000"></path>
            <path d="M17.731,32.011 L14.964,32.011 C14.757,32.011 14.589,32.179 14.589,32.385 C14.589,32.593 14.757,32.761 14.964,32.761 L17.356,32.761 L17.356,33.144 L15.331,33.144 C15.138,33.144 14.984,33.293 14.964,33.481 C14.962,33.494 14.956,33.506 14.956,33.52 C14.956,33.533 14.962,33.545 14.964,33.557 C14.984,33.745 15.138,33.894 15.331,33.894 L17.356,33.894 L17.356,34.295 L15.331,34.295 C15.138,34.295 14.984,34.443 14.964,34.631 C14.962,34.644 14.956,34.656 14.956,34.67 C14.956,34.683 14.962,34.695 14.964,34.708 C14.984,34.896 15.138,35.045 15.331,35.045 L17.356,35.045 L17.356,35.445 L15.331,35.445 C15.138,35.445 14.984,35.593 14.964,35.781 C14.962,35.795 14.956,35.807 14.956,35.82 C14.956,35.834 14.962,35.845 14.964,35.859 C14.984,36.047 15.138,36.195 15.331,36.195 L17.356,36.195 L17.356,36.595 L15.331,36.595 C15.138,36.595 14.984,36.744 14.964,36.932 C14.962,36.945 14.956,36.957 14.956,36.971 C14.956,36.985 14.962,36.995 14.964,37.009 C14.984,37.197 15.138,37.345 15.331,37.345 L17.356,37.345 L17.356,37.73 L14.964,37.73 C14.757,37.73 14.589,37.898 14.589,38.105 C14.589,38.312 14.757,38.48 14.964,38.48 L17.731,38.48 C17.938,38.48 18.106,38.312 18.106,38.105 L18.106,32.385 C18.106,32.179 17.938,32.011 17.731,32.011" id="Fill-68" fill="#000000"></path>
        </g>
    </g>
</svg>