<?xml version="1.0" encoding="UTF-8"?>
<svg width="68px" height="70px" viewBox="0 0 68 70" version="1.1" xmlns="http://www.w3.org/2000/svg" xmlns:xlink="http://www.w3.org/1999/xlink">
    <!-- Generator: Sketch 49 (51002) - http://www.bohemiancoding.com/sketch -->
    <title>bitcoin-grey-26</title>
    <desc>Created with Sketch.</desc>
    <defs></defs>
    <g id="Page-1" stroke="none" stroke-width="1" fill="none" fill-rule="evenodd">
        <g id="bitcoin-grey-26" fill="#000000">
            <path d="M20.398,63.17 C21.331,63.601 22.36,63.265 22.797,62.321 C23.216,61.416 22.742,60.391 21.865,59.985 C20.965,59.569 19.896,59.921 19.474,60.831 C19.047,61.753 19.504,62.756 20.398,63.17 Z M22.154,59.375 C23.424,59.963 23.95,61.407 23.365,62.672 C22.793,63.909 21.31,64.342 20.106,63.786 C18.864,63.211 18.303,61.77 18.882,60.516 C19.454,59.28 20.939,58.813 22.154,59.375 Z" id="Fill-1"></path>
            <path d="M16.981,58.706 L15.234,60.925 L14.709,60.511 L16.455,58.292 C16.945,57.669 16.815,57.015 16.109,56.459 C15.403,55.904 14.736,55.93 14.246,56.553 L12.5,58.772 L11.974,58.359 L13.721,56.139 C14.463,55.196 15.5,55.121 16.526,55.928 C17.553,56.737 17.724,57.762 16.981,58.706" id="Fill-2"></path>
            <path d="M10.838,54.031 C10.537,53.916 10.339,53.702 10.148,53.465 L9.593,52.783 C9.3,52.421 8.933,52.304 8.548,52.616 C8.173,52.921 8.262,53.296 8.539,53.637 L9.644,55 L10.838,54.031 Z M10.332,52.622 L10.672,53.04 C10.859,53.271 11.071,53.482 11.362,53.605 L12.71,52.512 L13.136,53.036 L9.546,55.95 L8.015,54.063 C7.483,53.409 7.477,52.624 8.155,52.073 C8.699,51.632 9.3,51.655 9.852,52.069 L10.198,51.325 C10.347,50.83 10.353,50.689 10.165,50.458 C10.149,50.439 10.138,50.424 10.122,50.405 L10.023,50.294 L10.558,49.86 C10.898,50.279 11.241,50.702 10.897,51.437 L10.332,52.622 Z" id="Fill-3"></path>
            <polyline id="Fill-4" points="6.053 43.766 4.811 45.885 7.8 44.8 8.026 45.423 4.291 46.779 3.863 47.508 3.565 46.686 5.052 44.135 2.267 43.108 1.969 42.287 2.765 42.572 6.499 41.217 6.725 41.84 3.736 42.925 6.053 43.766"></polyline>
            <path d="M4.157,38.91 L1.349,39.21 L1.277,38.544 L4.087,38.244 C4.875,38.16 5.252,37.609 5.157,36.715 C5.062,35.822 4.576,35.363 3.788,35.447 L0.978,35.747 L0.907,35.082 L3.716,34.782 C4.912,34.654 5.69,35.344 5.829,36.644 C5.967,37.944 5.352,38.782 4.157,38.91" id="Fill-5"></path>
            <path d="M5.809,30.682 C5.735,31.385 5.313,32.077 4.666,32.478 L4.266,31.949 C4.581,31.738 5.06,31.333 5.136,30.611 C5.207,29.932 5.02,29.22 4.445,29.16 C3.743,29.086 3.669,29.783 3.6,30.45 C3.484,31.549 3.014,32.105 2.23,32.022 C1.483,31.944 0.86,31.161 0.964,30.173 C1.037,29.476 1.298,28.892 1.887,28.398 L2.336,28.87 C1.883,29.322 1.705,29.658 1.643,30.245 C1.588,30.763 1.901,31.233 2.302,31.275 C2.58,31.304 2.854,31.133 2.936,30.349 C3.105,28.739 3.648,28.378 4.519,28.468 C5.444,28.566 5.932,29.516 5.809,30.682" id="Fill-6"></path>
            <polyline id="Fill-7" points="6.413 26.614 1.938 25.438 2.106 24.796 6.582 25.972 6.413 26.614"></polyline>
            <path d="M5.508,18.954 C5.054,19.118 4.66,19.479 4.445,19.961 C4.024,20.901 4.374,21.928 5.325,22.354 C6.237,22.762 7.258,22.274 7.653,21.39 C7.9,20.841 7.863,20.239 7.592,19.751 L8.277,19.602 C8.563,20.24 8.573,20.992 8.269,21.672 C7.695,22.953 6.255,23.498 4.98,22.927 C3.734,22.369 3.282,20.889 3.825,19.676 C4.108,19.042 4.622,18.578 5.221,18.35 L5.508,18.954" id="Fill-8"></path>
            <path d="M12.743,14.815 C12.273,15.344 11.526,15.661 10.768,15.609 L10.75,14.946 C11.129,14.958 11.755,14.909 12.237,14.366 C12.691,13.856 12.953,13.167 12.521,12.784 C11.993,12.314 11.527,12.839 11.082,13.34 C10.349,14.165 9.643,14.343 9.053,13.82 C8.491,13.321 8.441,12.322 9.101,11.579 C9.566,11.055 10.119,10.732 10.885,10.674 L10.976,11.319 C10.345,11.423 10.003,11.592 9.611,12.033 C9.265,12.423 9.246,12.987 9.547,13.254 C9.756,13.44 10.078,13.46 10.602,12.871 C11.677,11.66 12.329,11.683 12.983,12.264 C13.68,12.883 13.522,13.938 12.743,14.815" id="Fill-9"></path>
            <polyline id="Fill-10" points="14.609 7.595 17.011 10.724 16.489 11.124 14.087 7.995 12.778 9 12.363 8.459 15.487 6.06 15.903 6.602 14.609 7.595"></polyline>
            <path d="M20.21,4.075 C19.278,4.513 18.873,5.517 19.315,6.46 C19.739,7.363 20.83,7.659 21.705,7.248 C22.603,6.827 23.022,5.781 22.596,4.872 C22.165,3.952 21.102,3.657 20.21,4.075 Z M21.986,7.863 C20.718,8.457 19.273,7.931 18.681,6.668 C18.102,5.434 18.725,4.019 19.925,3.455 C21.165,2.874 22.631,3.371 23.218,4.621 C23.797,5.856 23.198,7.294 21.986,7.863 Z" id="Fill-11"></path>
            <path d="M26.447,3.581 C26.687,3.366 26.968,3.288 27.266,3.226 L28.126,3.045 C28.581,2.95 28.854,2.677 28.751,2.192 C28.652,1.719 28.278,1.626 27.848,1.717 L26.132,2.077 L26.447,3.581 Z M27.932,3.776 L27.404,3.887 C27.113,3.947 26.829,4.039 26.586,4.242 L26.942,5.939 L26.281,6.079 L25.332,1.555 L27.709,1.056 C28.533,0.882 29.234,1.235 29.414,2.091 C29.558,2.776 29.263,3.3 28.642,3.601 L29.146,4.249 C29.518,4.608 29.64,4.677 29.931,4.615 C29.956,4.611 29.974,4.607 29.998,4.602 L30.142,4.565 L30.284,5.238 C29.756,5.349 29.223,5.461 28.727,4.818 L27.932,3.776 Z" id="Fill-12"></path>
            <path d="M33.166,4.389 L36.02,4.394 L36.019,5.07 L32.488,5.064 L32.497,0.436 L35.754,0.441 L35.753,1.124 L33.172,1.12 L33.169,2.522 C33.449,2.361 33.741,2.343 34.044,2.343 L35.056,2.345 L35.054,3.033 L34.044,3.031 C33.746,3.031 33.448,3.062 33.168,3.21 L33.166,4.389" id="Fill-13"></path>
            <path d="M43.945,5.367 L43.565,3.202 L41.927,5.006 C42.13,4.921 42.526,4.922 43.129,5.111 L43.945,5.367 Z M43.416,1.693 L44.125,1.916 L44.839,7.07 L44.118,6.844 L44.03,6.108 L42.688,5.687 C41.884,5.434 41.373,5.554 41.214,5.705 L41.038,5.877 L40.34,5.658 L43.487,2.313 L43.416,1.693 Z" id="Fill-14"></path>
            <path d="M51.213,6.456 C51.091,5.99 50.767,5.567 50.307,5.309 C49.41,4.806 48.357,5.061 47.848,5.969 C47.359,6.839 47.753,7.899 48.596,8.371 C49.121,8.665 49.722,8.683 50.232,8.457 L50.319,9.153 C49.659,9.379 48.909,9.322 48.26,8.957 C47.039,8.272 46.627,6.79 47.309,5.574 C47.976,4.385 49.489,4.068 50.646,4.717 C51.252,5.057 51.667,5.609 51.839,6.225 L51.213,6.456" id="Fill-15"></path>
            <path d="M56.602,10.739 C56.582,10.256 56.356,9.773 55.961,9.422 C55.191,8.738 54.107,8.763 53.415,9.542 C52.751,10.289 52.909,11.41 53.633,12.053 C54.083,12.452 54.668,12.598 55.215,12.487 L55.15,13.185 C54.457,13.266 53.736,13.049 53.179,12.554 C52.13,11.622 52.044,10.084 52.972,9.041 C53.878,8.02 55.427,8.034 56.419,8.916 C56.939,9.378 57.227,10.007 57.265,10.646 L56.602,10.739" id="Fill-16"></path>
            <path d="M56.968,15.445 L58.67,17.734 L58.128,18.137 L56.022,15.307 L59.732,12.545 L61.676,15.157 L61.129,15.564 L59.589,13.495 L58.465,14.332 C58.761,14.459 58.95,14.682 59.131,14.925 L59.734,15.736 L59.182,16.147 L58.579,15.336 C58.401,15.097 58.199,14.877 57.913,14.742 L56.968,15.445" id="Fill-17"></path>
            <path d="M62.631,21.067 C62.817,21.467 63.11,21.596 63.515,21.408 C63.937,21.211 64,20.922 63.811,20.517 L63.093,18.976 L61.744,19.606 C62.008,19.791 62.156,20.05 62.285,20.325 L62.631,21.067 Z M59.226,20.034 L63.42,18.078 L64.424,20.231 C64.77,20.973 64.546,21.666 63.798,22.015 C63.056,22.361 62.358,22.097 62.012,21.356 L61.666,20.614 C61.54,20.343 61.378,20.084 61.125,19.894 L59.512,20.646 L59.226,20.034 Z" id="Fill-18"></path>
            <polyline id="Fill-19" points="65.692 26.24 61.856 27.166 61.702 26.527 65.537 25.6 65.15 23.996 65.814 23.836 66.738 27.666 66.075 27.826 65.692 26.24"></polyline>
            <path d="M65.129,34.249 C65.274,34.537 65.281,34.836 65.263,35.139 L65.216,35.932 C65.191,36.347 65.386,36.632 65.814,36.657 C66.253,36.683 66.419,36.407 66.442,36.005 L66.542,34.332 L65.129,34.249 Z M63.277,34.139 L63.175,35.88 C63.152,36.257 63.335,36.74 63.799,36.768 C64.338,36.8 64.502,36.337 64.528,35.891 L64.576,35.099 C64.593,34.801 64.574,34.496 64.442,34.208 L63.277,34.139 Z M62.504,35.771 L62.642,33.43 L67.263,33.704 L67.124,36.045 C67.078,36.825 66.591,37.381 65.779,37.333 C65.383,37.309 65.051,37.146 64.894,36.864 C64.726,37.177 64.311,37.469 63.673,37.432 C62.757,37.378 62.458,36.54 62.504,35.771 Z" id="Fill-20"></path>
            <polyline id="Fill-21" points="61.968 39.5 66.483 40.506 66.339 41.155 61.823 40.148 61.968 39.5"></polyline>
            <polyline id="Fill-22" points="64.217 45.629 60.539 44.202 60.777 43.589 64.455 45.016 65.052 43.478 65.688 43.725 64.263 47.397 63.627 47.15 64.217 45.629"></polyline>
            <path d="M60.106,52.33 C60.58,52.236 61.022,51.939 61.307,51.495 C61.864,50.631 61.674,49.564 60.798,49 C59.959,48.46 58.878,48.789 58.355,49.602 C58.029,50.107 57.975,50.706 58.168,51.229 L57.47,51.273 C57.283,50.6 57.387,49.856 57.79,49.231 C58.548,48.053 60.053,47.731 61.225,48.486 C62.372,49.225 62.595,50.754 61.878,51.87 C61.501,52.454 60.925,52.834 60.299,52.97 L60.106,52.33" id="Fill-23"></path>
            <path d="M56.801,56.934 C57.541,56.219 57.599,55.137 56.876,54.389 C56.183,53.672 55.055,53.744 54.36,54.415 C53.647,55.104 53.588,56.229 54.286,56.951 C54.991,57.682 56.093,57.618 56.801,56.934 Z M53.895,53.925 C54.902,52.953 56.44,52.984 57.408,53.986 C58.355,54.967 58.224,56.507 57.271,57.428 C56.285,58.379 54.738,58.383 53.778,57.389 C52.831,56.409 52.933,54.855 53.895,53.925 Z" id="Fill-24"></path>
            <polyline id="Fill-25" points="50.404 56.961 53.012 60.777 52.465 61.15 49.857 57.335 50.404 56.961"></polyline>
            <polyline id="Fill-26" points="50.083 62.711 49.288 63.076 45.115 61.094 46.585 64.311 45.964 64.594 44.041 60.385 44.649 60.106 48.388 61.897 47.065 59.002 47.669 58.726 49.322 62.344 50.083 62.711"></polyline>
            <path d="M36.132,36.416 C36.393,36.416 36.641,36.37 36.882,36.307 L36.882,25.971 C36.882,24.635 35.796,23.549 34.46,23.549 L33.994,23.549 C32.658,23.549 31.572,24.635 31.572,25.971 L31.572,28.441 L32.322,28.441 L32.322,25.971 C32.322,25.049 33.072,24.299 33.994,24.299 L34.46,24.299 C35.382,24.299 36.132,25.049 36.132,25.971 L36.132,35.684 C36.132,35.718 36.143,35.748 36.151,35.779 C36.145,35.781 36.139,35.783 36.132,35.784 L36.132,36.416" id="Fill-27"></path>
            <polyline id="Fill-28" points="31.572 33.158 31.572 44.398 32.322 44.398 32.322 30.441 31.572 30.441 31.572 33.158"></polyline>
            <path d="M28.137,45.023 L26.302,45.023 C26.095,45.023 25.927,45.191 25.927,45.398 C25.927,45.605 26.095,45.773 26.302,45.773 L35.507,45.773 L35.507,45.023 L28.887,45.023 L28.887,37.793 L30.947,37.793 L30.947,37.043 L28.887,37.043 L28.887,29.816 L35.507,29.816 L35.507,29.066 L26.308,29.066 C26.101,29.066 25.933,29.235 25.933,29.441 C25.933,29.648 26.101,29.816 26.308,29.816 L28.137,29.816 L28.137,45.023" id="Fill-29"></path>
            <path d="M45.992,19.568 C46.119,19.325 46.197,19.064 46.229,18.799 C48.031,20.274 49.493,22.105 50.491,24.235 C50.53,24.317 50.55,24.408 50.55,24.5 L50.55,29.016 C50.171,28.936 49.778,28.892 49.375,28.892 L49.3,28.892 L49.3,24.726 C49.3,24.67 49.287,24.614 49.262,24.562 C48.401,22.799 47.18,21.263 45.696,19.992 C45.809,19.867 45.909,19.724 45.992,19.568 Z M19.192,24.562 C19.167,24.614 19.154,24.67 19.154,24.726 L19.154,28.892 L19.079,28.892 C18.676,28.892 18.283,28.936 17.904,29.016 L17.904,24.5 C17.904,24.408 17.924,24.317 17.963,24.235 C18.961,22.105 20.423,20.274 22.225,18.799 C22.257,19.064 22.335,19.325 22.462,19.568 C22.545,19.725 22.652,19.861 22.768,19.985 C21.28,21.257 20.055,22.794 19.192,24.562 Z M15.29,43.299 L15.29,31.458 C15.793,30.846 16.425,30.343 17.166,30.03 C17.282,29.98 17.409,29.956 17.53,29.916 C17.653,29.875 17.776,29.832 17.904,29.8 C18.283,29.706 18.672,29.642 19.079,29.642 L19.894,29.642 L19.894,45.199 L19.079,45.199 C18.715,45.199 18.363,45.153 18.022,45.078 C16.919,44.836 15.967,44.213 15.276,43.367 C15.28,43.343 15.29,43.323 15.29,43.299 Z M14.15,40.27 L14.15,34.572 C14.15,33.89 14.289,33.242 14.54,32.652 L14.54,42.19 C14.289,41.599 14.15,40.951 14.15,40.27 Z M19.449,46.882 C19.449,46.949 19.425,47.008 19.392,47.062 C19.33,47.164 19.222,47.236 19.094,47.236 L18.94,47.236 C18.812,47.236 18.705,47.164 18.642,47.062 C18.609,47.008 18.585,46.949 18.585,46.882 L18.585,45.924 C18.604,45.926 18.624,45.926 18.642,45.927 C18.787,45.938 18.932,45.949 19.079,45.949 L19.449,45.949 L19.449,46.882 Z M20.644,28.892 L20.644,28.496 L22.275,28.496 C23.071,28.496 23.734,29.069 23.877,29.824 L22.866,29.824 C22.852,29.824 22.841,29.83 22.828,29.832 C22.639,29.851 22.491,30.006 22.491,30.199 C22.491,30.392 22.639,30.546 22.828,30.566 C22.841,30.568 22.852,30.574 22.866,30.574 L23.909,30.574 L23.909,32.784 L22.866,32.784 C22.852,32.784 22.841,32.79 22.828,32.792 C22.639,32.812 22.491,32.966 22.491,33.159 C22.491,33.352 22.639,33.507 22.828,33.527 C22.841,33.528 22.852,33.534 22.866,33.534 L23.909,33.534 L23.909,37.046 L22.866,37.046 C22.852,37.046 22.841,37.053 22.828,37.054 C22.639,37.074 22.491,37.228 22.491,37.421 C22.491,37.615 22.639,37.768 22.828,37.788 C22.841,37.79 22.852,37.796 22.866,37.796 L23.909,37.796 L23.909,41.307 L22.866,41.307 C22.852,41.307 22.841,41.314 22.828,41.316 C22.639,41.336 22.491,41.489 22.491,41.682 C22.491,41.876 22.639,42.03 22.828,42.05 C22.841,42.051 22.852,42.057 22.866,42.057 L23.909,42.057 L23.909,44.442 L22.866,44.442 C22.852,44.442 22.841,44.449 22.828,44.45 C22.639,44.47 22.491,44.624 22.491,44.817 C22.491,45.011 22.639,45.164 22.828,45.184 C22.841,45.186 22.852,45.192 22.866,45.192 L23.827,45.192 C23.619,45.856 23.006,46.342 22.275,46.342 L20.644,46.342 L20.644,28.892 Z M43.814,19.671 C42.155,18.516 40.319,17.692 38.384,17.203 C37.038,16.861 35.646,16.677 34.227,16.677 C32.808,16.677 31.416,16.861 30.07,17.203 C28.135,17.692 26.299,18.516 24.64,19.671 C24.495,19.772 24.336,19.817 24.175,19.83 C24.001,19.845 23.833,19.803 23.67,19.726 C23.554,19.671 23.447,19.598 23.351,19.501 C23.269,19.417 23.186,19.332 23.127,19.219 C22.962,18.907 22.924,18.549 22.983,18.219 C23.033,17.938 23.169,17.693 23.361,17.495 C23.414,17.44 23.454,17.372 23.518,17.328 C26.66,15.141 30.363,13.986 34.227,13.986 C38.091,13.986 41.794,15.141 44.937,17.327 C45.001,17.372 45.041,17.441 45.094,17.495 C45.285,17.694 45.421,17.938 45.471,18.219 C45.53,18.549 45.492,18.906 45.328,19.219 C45.269,19.332 45.186,19.417 45.103,19.501 C45.007,19.598 44.9,19.671 44.784,19.726 C44.622,19.803 44.453,19.845 44.279,19.83 C44.118,19.817 43.959,19.772 43.814,19.671 Z M47.81,45.949 L47.81,46.343 L46.179,46.343 C45.383,46.343 44.721,45.77 44.577,45.015 L45.588,45.015 C45.602,45.015 45.613,45.009 45.626,45.007 C45.815,44.988 45.963,44.834 45.963,44.64 C45.963,44.447 45.815,44.293 45.626,44.273 C45.613,44.272 45.602,44.265 45.588,44.265 L44.545,44.265 L44.545,42.057 L45.588,42.057 C45.602,42.057 45.613,42.051 45.626,42.05 C45.815,42.03 45.963,41.876 45.963,41.682 C45.963,41.489 45.815,41.336 45.626,41.316 C45.613,41.314 45.602,41.307 45.588,41.307 L44.545,41.307 L44.545,37.795 L45.588,37.795 C45.602,37.795 45.613,37.788 45.626,37.786 C45.815,37.766 45.963,37.613 45.963,37.42 C45.963,37.226 45.815,37.073 45.626,37.053 C45.613,37.051 45.602,37.045 45.588,37.045 L44.545,37.045 L44.545,33.533 L45.588,33.533 C45.602,33.533 45.613,33.527 45.626,33.525 C45.815,33.505 45.963,33.352 45.963,33.158 C45.963,32.965 45.815,32.811 45.626,32.791 C45.613,32.79 45.602,32.783 45.588,32.783 L44.545,32.783 L44.545,30.399 L45.588,30.399 C45.602,30.399 45.613,30.392 45.626,30.39 C45.815,30.37 45.963,30.217 45.963,30.024 C45.963,29.83 45.815,29.677 45.626,29.657 C45.613,29.655 45.602,29.649 45.588,29.649 L44.626,29.649 C44.834,28.985 45.448,28.498 46.179,28.498 L47.81,28.498 L47.81,45.949 Z M49.375,45.199 L48.56,45.199 L48.56,29.642 L49.375,29.642 C49.782,29.642 50.171,29.706 50.55,29.8 C50.678,29.832 50.801,29.875 50.925,29.916 C51.049,29.958 51.181,29.985 51.3,30.035 C52.036,30.348 52.664,30.849 53.165,31.458 L53.165,43.299 C53.165,43.323 53.174,43.343 53.178,43.367 C52.274,44.475 50.914,45.199 49.375,45.199 Z M54.304,40.27 C54.304,40.951 54.165,41.599 53.915,42.19 L53.915,32.652 C54.165,33.242 54.304,33.89 54.304,34.572 L54.304,40.27 Z M51.3,29.236 L51.3,24.5 C51.3,24.299 51.255,24.097 51.17,23.916 C50.018,21.457 48.274,19.381 46.12,17.765 C45.979,17.343 45.727,16.965 45.365,16.713 C42.096,14.438 38.245,13.237 34.227,13.237 C30.209,13.237 26.358,14.438 23.089,16.713 C22.727,16.965 22.475,17.343 22.334,17.765 C20.18,19.381 18.437,21.457 17.284,23.916 C17.199,24.097 17.154,24.299 17.154,24.5 L17.154,29.236 C14.968,30.027 13.4,32.117 13.4,34.572 L13.4,40.27 C13.4,42.973 15.301,45.238 17.835,45.807 L17.835,46.882 C17.835,47.405 18.208,47.823 18.696,47.937 C18.962,50.073 20.768,51.737 22.975,51.737 L27.989,51.737 C30.378,51.737 32.322,49.793 32.322,47.403 L32.322,46.398 L31.572,46.398 L31.572,47.403 C31.572,49.379 29.965,50.986 27.989,50.986 L22.975,50.986 C21.174,50.986 19.695,49.648 19.444,47.916 C19.82,47.787 20.089,47.468 20.161,47.07 C20.196,47.08 20.23,47.092 20.269,47.092 L22.275,47.092 C23.589,47.092 24.659,46.022 24.659,44.708 L24.659,30.131 C24.659,28.816 23.589,27.746 22.275,27.746 L20.269,27.746 C20.079,27.746 19.928,27.89 19.904,28.073 L19.904,24.814 C20.748,23.115 21.947,21.641 23.405,20.429 C23.942,20.657 24.566,20.635 25.068,20.286 C27.756,18.416 30.923,17.427 34.227,17.427 C37.531,17.427 40.698,18.416 43.385,20.286 C43.682,20.493 44.024,20.604 44.375,20.604 C44.615,20.604 44.843,20.535 45.061,20.438 C46.513,21.649 47.709,23.119 48.55,24.814 L48.55,28.075 C48.526,27.891 48.375,27.748 48.185,27.748 L46.179,27.748 C44.865,27.748 43.795,28.817 43.795,30.132 L43.795,44.709 C43.795,46.024 44.865,47.093 46.179,47.093 L48.185,47.093 C48.392,47.093 48.56,46.925 48.56,46.717 L48.56,45.949 L49.375,45.949 C52.506,45.949 55.054,43.401 55.054,40.27 L55.054,34.572 C55.054,32.117 53.486,30.027 51.3,29.236 Z" id="Fill-30"></path>
            <path d="M50.031,50.174 L50.469,50.174 L50.469,49.925 L50.031,49.925 L50.031,50.174 Z M48.623,50.174 L49.281,50.174 L49.281,49.925 L48.623,49.925 L48.623,50.174 Z M51.559,50.174 L51.218,50.174 L51.218,49.925 L51.548,49.925 L51.678,50.055 L51.559,50.174 Z M42.977,50.986 C42.806,50.986 42.669,50.861 42.636,50.699 C42.632,50.677 42.623,50.656 42.623,50.632 L42.623,49.465 C42.623,49.442 42.632,49.421 42.636,49.398 C42.669,49.236 42.806,49.111 42.977,49.111 L43.312,49.111 L43.312,50.986 L42.977,50.986 Z M41.151,50.481 C41.083,50.481 41.024,50.457 40.971,50.424 C40.869,50.361 40.796,50.254 40.796,50.126 L40.796,49.971 C40.796,49.843 40.868,49.736 40.97,49.674 C41.024,49.64 41.083,49.617 41.151,49.617 L41.873,49.617 L41.873,50.481 L41.151,50.481 Z M47.873,50.924 L47.873,50.986 L44.062,50.986 L44.062,49.111 L47.873,49.111 L47.873,50.924 Z M51.968,49.284 C51.898,49.214 51.803,49.174 51.703,49.174 L48.623,49.174 L48.623,48.737 C48.623,48.529 48.455,48.361 48.248,48.361 L42.977,48.361 C42.594,48.361 42.272,48.57 42.074,48.867 L41.151,48.867 C40.66,48.867 40.257,49.194 40.114,49.639 C38.322,49.461 36.915,47.974 36.888,46.144 L36.882,46.144 L36.882,38.418 L36.132,38.418 L36.132,46.252 C36.132,46.304 36.144,46.355 36.164,46.4 C36.316,48.52 37.987,50.207 40.099,50.387 C40.219,50.867 40.634,51.231 41.151,51.231 L42.074,51.231 C42.272,51.529 42.594,51.737 42.977,51.737 L48.248,51.737 C48.455,51.737 48.623,51.568 48.623,51.361 L48.623,50.924 L51.714,50.924 C51.813,50.924 51.909,50.885 51.979,50.814 L52.474,50.319 C52.62,50.173 52.62,49.936 52.474,49.79 L51.968,49.284 Z" id="Fill-31"></path>
            <path d="M36.882,37.793 L38.015,37.793 C38.264,37.793 38.507,37.819 38.743,37.867 C40.388,38.204 41.629,39.664 41.629,41.408 L41.629,41.409 C41.629,43.402 40.007,45.023 38.015,45.023 L37.507,45.023 L37.507,45.773 L38.015,45.773 C40.421,45.773 42.379,43.816 42.379,41.409 L42.379,41.408 C42.379,39.904 41.615,38.575 40.454,37.79 C39.879,37.401 39.202,37.168 38.478,37.09 C39.68,36.312 40.482,34.966 40.482,33.431 L40.482,33.426 C40.481,31.572 39.314,29.995 37.679,29.367 C37.624,29.345 37.564,29.332 37.507,29.313 L37.507,30.095 C37.559,30.116 37.604,30.147 37.654,30.17 C38.877,30.749 39.731,31.986 39.732,33.429 L39.732,33.431 C39.732,34.775 38.986,35.936 37.894,36.557 C37.581,36.736 37.245,36.88 36.882,36.958 C36.64,37.011 36.39,37.04 36.132,37.041 C36.128,37.041 36.124,37.043 36.12,37.043 L32.947,37.043 L32.947,37.793 L36.882,37.793" id="Fill-32"></path>
            <path d="M34.099,57.931 C34.243,57.931 34.36,58.048 34.36,58.193 C34.36,58.337 34.243,58.454 34.099,58.454 C33.954,58.454 33.836,58.337 33.836,58.193 C33.836,58.048 33.954,57.931 34.099,57.931 Z M34.473,61.784 L34.473,59.129 C34.845,58.98 35.11,58.618 35.11,58.193 C35.11,57.635 34.657,57.181 34.099,57.181 C33.54,57.181 33.086,57.635 33.086,58.193 C33.086,58.618 33.351,58.98 33.723,59.129 L33.723,61.76 C33.033,61.911 32.514,62.526 32.514,63.261 L32.514,68.878 C32.514,69.085 32.682,69.253 32.889,69.253 C33.096,69.253 33.264,69.085 33.264,68.878 L33.264,63.261 C33.264,62.827 33.617,62.473 34.088,62.473 C34.523,62.473 34.876,62.827 34.876,63.261 L34.876,68.878 C34.876,69.085 35.044,69.253 35.251,69.253 C35.458,69.253 35.626,69.085 35.626,68.878 L35.626,63.261 C35.626,62.555 35.144,61.965 34.473,61.784 Z" id="Fill-33"></path>
        </g>
    </g>
</svg>