<?xml version="1.0" encoding="UTF-8"?>
<svg width="85px" height="76px" viewBox="0 0 85 76" version="1.1" xmlns="http://www.w3.org/2000/svg" xmlns:xlink="http://www.w3.org/1999/xlink">
    <!-- Generator: Sketch 49 (51002) - http://www.bohemiancoding.com/sketch -->
    <title>bitcoin-grey-30</title>
    <desc>Created with Sketch.</desc>
    <defs></defs>
    <g id="Page-1" stroke="none" stroke-width="1" fill="none" fill-rule="evenodd">
        <g id="bitcoin-grey-30" fill="#000000">
            <path d="M19.102,65.766 C19.102,65.613 19.072,65.469 19.014,65.335 C18.956,65.2 18.877,65.083 18.778,64.984 C18.679,64.885 18.561,64.806 18.423,64.748 C18.286,64.689 18.141,64.66 17.989,64.66 L15.945,64.66 L15.945,66.879 L18.034,66.879 C18.182,66.879 18.32,66.85 18.45,66.791 C18.58,66.733 18.692,66.653 18.789,66.551 C18.886,66.449 18.962,66.331 19.018,66.196 C19.074,66.062 19.102,65.918 19.102,65.766 Z M16.548,69.402 L14.436,69.402 L14.436,68.488 L15.03,68.488 L15.03,64.66 L14.436,64.66 L14.436,63.745 L18.042,63.745 C18.301,63.745 18.549,63.797 18.785,63.901 C19.022,64.006 19.234,64.152 19.422,64.34 C19.615,64.533 19.763,64.75 19.864,64.992 C19.966,65.233 20.017,65.491 20.017,65.766 C20.017,66.04 19.966,66.299 19.864,66.543 C19.763,66.787 19.615,67.006 19.422,67.199 C19.239,67.382 19.029,67.527 18.793,67.633 C18.557,67.74 18.309,67.794 18.05,67.794 L15.945,67.794 L15.945,68.488 L16.548,68.488 L16.548,69.402 Z" id="Fill-1"></path>
            <polyline id="Fill-2" points="22.571 69.402 20.444 69.402 20.444 68.488 21.046 68.488 21.046 64.66 20.444 64.66 20.444 63.745 22.564 63.745 22.564 64.66 21.961 64.66 21.961 68.488 22.571 68.488 22.571 69.402"></polyline>
            <path d="M26.162,64.607 C25.847,64.607 25.556,64.655 25.289,64.751 C25.022,64.848 24.791,64.983 24.595,65.156 C24.399,65.328 24.246,65.537 24.134,65.781 C24.022,66.025 23.966,66.292 23.966,66.581 C23.966,66.871 24.022,67.138 24.134,67.382 C24.246,67.626 24.399,67.834 24.595,68.007 C24.791,68.18 25.022,68.315 25.289,68.411 C25.556,68.508 25.847,68.556 26.162,68.556 C26.492,68.556 26.79,68.51 27.054,68.419 C27.318,68.327 27.547,68.198 27.74,68.03 L27.74,67.107 L25.415,67.107 L25.415,66.193 L28.655,66.193 L28.655,68.327 C28.38,68.693 28.024,68.975 27.587,69.174 C27.15,69.372 26.675,69.471 26.162,69.471 C25.755,69.471 25.362,69.403 24.984,69.269 C24.605,69.134 24.271,68.941 23.981,68.689 C23.691,68.438 23.46,68.134 23.288,67.778 C23.115,67.423 23.028,67.024 23.028,66.581 C23.028,66.129 23.115,65.724 23.288,65.365 C23.46,65.007 23.691,64.705 23.981,64.458 C24.271,64.211 24.605,64.022 24.984,63.89 C25.362,63.758 25.755,63.692 26.162,63.692 C26.497,63.692 26.79,63.713 27.039,63.757 C27.288,63.8 27.505,63.854 27.69,63.92 C27.876,63.986 28.034,64.059 28.163,64.138 C28.293,64.217 28.408,64.289 28.51,64.355 L28.51,65.339 L27.671,65.339 L27.633,64.942 C27.542,64.886 27.45,64.837 27.359,64.793 C27.267,64.75 27.165,64.715 27.05,64.687 C26.936,64.659 26.807,64.638 26.665,64.626 C26.522,64.613 26.355,64.607 26.162,64.607" id="Fill-3"></path>
            <path d="M32.246,64.607 C31.931,64.607 31.64,64.655 31.373,64.751 C31.106,64.848 30.875,64.983 30.679,65.156 C30.484,65.328 30.33,65.537 30.218,65.781 C30.106,66.025 30.05,66.292 30.05,66.581 C30.05,66.871 30.106,67.138 30.218,67.382 C30.33,67.626 30.484,67.834 30.679,68.007 C30.875,68.18 31.106,68.315 31.373,68.411 C31.64,68.508 31.931,68.556 32.246,68.556 C32.577,68.556 32.874,68.51 33.138,68.419 C33.402,68.327 33.631,68.198 33.824,68.03 L33.824,67.107 L31.499,67.107 L31.499,66.193 L34.739,66.193 L34.739,68.327 C34.465,68.693 34.109,68.975 33.672,69.174 C33.235,69.372 32.76,69.471 32.246,69.471 C31.839,69.471 31.447,69.403 31.068,69.269 C30.689,69.134 30.355,68.941 30.065,68.689 C29.776,68.438 29.544,68.134 29.372,67.778 C29.199,67.423 29.113,67.024 29.113,66.581 C29.113,66.129 29.199,65.724 29.372,65.365 C29.544,65.007 29.776,64.705 30.065,64.458 C30.355,64.211 30.689,64.022 31.068,63.89 C31.447,63.758 31.839,63.692 32.246,63.692 C32.582,63.692 32.874,63.713 33.123,63.757 C33.372,63.8 33.589,63.854 33.775,63.92 C33.96,63.986 34.118,64.059 34.248,64.138 C34.377,64.217 34.493,64.289 34.594,64.355 L34.594,65.339 L33.756,65.339 L33.718,64.942 C33.626,64.886 33.535,64.837 33.443,64.793 C33.352,64.75 33.249,64.715 33.134,64.687 C33.02,64.659 32.892,64.638 32.75,64.626 C32.607,64.613 32.439,64.607 32.246,64.607" id="Fill-4"></path>
            <polyline id="Fill-5" points="37.294 64.66 36.867 64.66 37.888 66.497 39.33 66.497 40.351 64.66 39.924 64.66 39.924 63.745 42.036 63.745 42.036 64.66 41.373 64.66 39.894 67.412 39.063 67.412 39.063 68.488 39.672 68.488 39.672 69.402 37.553 69.402 37.553 68.488 38.148 68.488 38.148 67.412 37.324 67.412 35.837 64.66 35.182 64.66 35.182 63.745 37.294 63.745 37.294 64.66"></polyline>
            <path d="M49.21,66.879 L46.656,66.879 L46.656,68.488 L49.188,68.488 C49.299,68.488 49.403,68.466 49.5,68.423 C49.597,68.379 49.682,68.322 49.756,68.251 C49.829,68.18 49.888,68.095 49.931,67.995 C49.974,67.896 49.996,67.791 49.996,67.679 C49.996,67.572 49.976,67.471 49.935,67.374 C49.894,67.278 49.837,67.194 49.764,67.123 C49.689,67.052 49.605,66.994 49.512,66.951 C49.417,66.908 49.317,66.884 49.21,66.879 Z M49.592,65.308 C49.592,65.13 49.528,64.978 49.401,64.851 C49.273,64.724 49.121,64.66 48.943,64.66 L46.656,64.66 L46.656,65.964 L48.943,65.964 C49.035,65.964 49.12,65.946 49.199,65.91 C49.277,65.875 49.347,65.828 49.405,65.769 C49.463,65.711 49.509,65.642 49.542,65.563 C49.575,65.485 49.592,65.4 49.592,65.308 Z M49.188,69.402 L45.146,69.402 L45.146,68.488 L45.741,68.488 L45.741,64.66 L45.146,64.66 L45.146,63.745 L48.943,63.745 C49.157,63.745 49.359,63.786 49.55,63.867 C49.74,63.948 49.906,64.06 50.049,64.203 C50.191,64.345 50.303,64.511 50.385,64.702 C50.466,64.893 50.507,65.095 50.507,65.308 C50.507,65.491 50.476,65.665 50.415,65.83 C50.354,65.996 50.272,66.144 50.171,66.276 C50.405,66.424 50.587,66.627 50.716,66.886 C50.846,67.145 50.91,67.41 50.91,67.679 C50.91,67.918 50.865,68.142 50.773,68.35 C50.682,68.559 50.558,68.742 50.399,68.899 C50.242,69.057 50.06,69.18 49.851,69.269 C49.643,69.358 49.421,69.402 49.188,69.402 Z" id="Fill-6"></path>
            <path d="M53.214,66.879 L55.509,66.879 L54.853,64.66 L53.877,64.66 L53.214,66.879 Z M57.544,69.402 L55.425,69.402 L55.425,68.488 L55.981,68.488 L55.783,67.794 L52.94,67.794 L52.733,68.488 L53.29,68.488 L53.29,69.402 L51.178,69.402 L51.178,68.488 L51.78,68.488 L52.916,64.66 L52.436,64.66 L52.436,63.745 L55.539,63.745 L56.941,68.488 L57.544,68.488 L57.544,69.402 Z" id="Fill-7"></path>
            <polyline id="Fill-8" points="60.021 69.402 57.909 69.402 57.909 68.488 58.504 68.488 58.504 64.66 57.909 64.66 57.909 63.745 60.204 63.745 62.278 68.488 62.499 68.488 62.499 64.66 61.897 64.66 61.897 63.745 64.017 63.745 64.017 64.66 63.414 64.66 63.414 68.488 64.017 68.488 64.017 69.402 61.722 69.402 59.647 64.66 59.419 64.66 59.419 68.488 60.021 68.488 60.021 69.402"></polyline>
            <path d="M65.976,65.964 L66.814,65.964 C66.946,65.964 67.069,65.932 67.184,65.868 C67.299,65.805 67.389,65.71 67.455,65.582 L68.012,64.507 C68.128,64.279 68.292,64.091 68.503,63.943 C68.714,63.796 68.957,63.722 69.231,63.722 C69.424,63.722 69.615,63.776 69.803,63.882 C69.991,63.989 70.151,64.144 70.283,64.347 L69.688,64.935 C69.511,64.736 69.358,64.637 69.231,64.637 C69.155,64.637 69.081,64.659 69.01,64.702 C68.938,64.745 68.886,64.802 68.85,64.873 L68.309,65.926 C68.283,65.971 68.249,66.022 68.206,66.078 C68.162,66.134 68.117,66.186 68.068,66.234 C68.021,66.283 67.972,66.325 67.924,66.36 C67.875,66.396 67.833,66.419 67.798,66.429 C67.828,66.434 67.867,66.451 67.916,66.479 C67.964,66.506 68.012,66.541 68.057,66.581 C68.103,66.622 68.145,66.665 68.183,66.711 C68.221,66.757 68.25,66.8 68.271,66.841 L68.819,68.045 C68.886,68.193 68.959,68.31 69.041,68.396 C69.122,68.482 69.251,68.526 69.43,68.526 C69.571,68.526 69.683,68.499 69.761,68.446 C69.84,68.392 69.93,68.315 70.032,68.213 L70.604,68.861 C70.512,68.952 70.425,69.035 70.341,69.109 C70.257,69.183 70.169,69.244 70.077,69.292 C69.986,69.34 69.888,69.377 69.784,69.402 C69.68,69.428 69.562,69.44 69.43,69.44 C69.059,69.44 68.756,69.341 68.522,69.143 C68.288,68.945 68.093,68.676 67.936,68.335 L67.462,67.306 C67.406,67.174 67.317,67.069 67.195,66.993 C67.073,66.917 66.946,66.879 66.814,66.879 L65.976,66.879 L65.976,68.488 L66.578,68.488 L66.578,69.402 L64.466,69.402 L64.466,68.488 L65.061,68.488 L65.061,64.66 L64.466,64.66 L64.466,63.745 L66.578,63.745 L66.578,64.66 L65.976,64.66 L65.976,65.964" id="Fill-9"></path>
            <path d="M2.144,36.182 C1.855,36.458 1.716,36.861 1.663,37.319 C1.619,37.701 1.769,38.144 1.998,38.171 C2.235,38.198 2.406,38.125 2.496,37.354 C2.691,35.665 3.294,35.472 3.936,35.546 C4.883,35.656 5.24,36.58 5.109,37.71 C5.029,38.398 4.623,39.032 4.061,39.408 L3.554,38.776 C3.833,38.569 4.264,38.325 4.346,37.622 C4.429,36.904 4.258,36.373 3.845,36.325 C3.486,36.284 3.364,36.672 3.269,37.497 C3.159,38.444 2.766,39.095 1.902,38.996 C1.185,38.912 0.798,38.101 0.9,37.223 C0.967,36.65 1.129,36.119 1.594,35.585 L2.144,36.182" id="Fill-10"></path>
            <path d="M5.667,28.857 L4.021,29.126 L5.449,30.601 C5.405,30.318 5.372,29.739 5.633,28.959 L5.667,28.857 Z M2.598,29.355 L2.868,28.546 L7.416,27.795 L7.142,28.62 L6.472,28.729 L6.321,29.181 C6.009,30.115 6.049,31.207 6.168,31.384 L6.205,31.421 L5.941,32.208 L3.154,29.266 L2.598,29.355 Z" id="Fill-11"></path>
            <polyline id="Fill-12" points="10.201 22.374 9.682 23.255 5.372 22.722 5.824 21.954 9.244 22.407 7.207 19.608 7.664 18.833 10.201 22.374"></polyline>
            <path d="M13.706,16.288 L15.404,14.45 L15.992,14.993 L13.762,17.408 L10.833,14.703 L12.964,12.396 L13.546,12.934 L11.948,14.664 L12.661,15.322 C12.749,14.932 13.023,14.589 13.337,14.25 L13.733,13.82 L14.316,14.357 L13.919,14.787 C13.423,15.324 13.343,15.48 13.243,15.86 L13.706,16.288" id="Fill-13"></path>
            <polyline id="Fill-14" points="24.619 6.851 25.365 8.274 24.671 8.638 23.925 7.216 21.337 5.891 22.222 5.426 23.89 6.322 24.128 4.426 24.973 3.983 24.619 6.851"></polyline>
            <path d="M31.731,2.309 C30.989,2.51 30.367,3.1 30.603,3.968 C30.837,4.837 31.687,5.03 32.421,4.831 C33.148,4.634 33.759,3.976 33.534,3.144 C33.302,2.283 32.459,2.113 31.731,2.309 Z M32.617,5.615 C31.451,5.929 30.148,5.47 29.797,4.171 C29.443,2.864 30.368,1.833 31.519,1.522 C32.677,1.21 33.973,1.584 34.334,2.92 C34.688,4.227 33.782,5.299 32.617,5.615 Z" id="Fill-15"></path>
            <path d="M41.106,4.317 C39.999,4.359 39.171,3.874 39.127,2.705 L39.035,0.282 L39.828,0.252 L39.919,2.675 C39.945,3.352 40.407,3.543 41.084,3.517 C41.761,3.491 42.207,3.266 42.181,2.589 L42.09,0.166 L42.882,0.136 L42.974,2.559 C43.018,3.729 42.229,4.275 41.122,4.316 L41.106,4.317" id="Fill-16"></path>
            <path d="M50.739,2.589 C50.973,2.633 51.201,2.544 51.25,2.295 C51.316,1.947 51.02,1.86 50.748,1.808 L49.154,1.503 L48.967,2.485 C49.3,2.376 49.696,2.389 50.104,2.467 L50.739,2.589 Z M51.084,3.892 C51.213,4.245 51.479,4.328 51.676,4.365 L51.947,4.417 L51.786,5.255 L51.447,5.191 C51.039,5.112 50.675,5.011 50.425,4.353 L50.009,3.256 L49.956,3.245 C49.344,3.128 49.166,3.157 48.816,3.262 L48.555,4.637 L47.761,4.485 L48.51,0.573 L51.032,1.055 C51.75,1.193 52.168,1.79 52.038,2.469 C51.924,3.066 51.521,3.372 50.921,3.438 L51.084,3.892 Z" id="Fill-17"></path>
            <polyline id="Fill-18" points="66.457 8.42 64.665 11.246 63.931 10.78 65.18 8.812 62.985 9.643 62.803 7.304 61.554 9.271 60.819 8.806 62.612 5.98 62.623 5.231 63.441 5.75 63.67 8.564 66.312 7.572 67.131 8.092 66.457 8.42"></polyline>
            <path d="M72.078,13.421 C71.543,12.867 70.727,12.608 70.078,13.233 C69.432,13.858 69.672,14.695 70.201,15.242 C70.724,15.785 71.596,16.001 72.216,15.403 C72.857,14.783 72.601,13.963 72.078,13.421 Z M69.609,15.792 C68.771,14.923 68.545,13.559 69.514,12.624 C70.487,11.684 71.836,11.996 72.664,12.854 C73.497,13.718 73.795,15.034 72.799,15.996 C71.824,16.936 70.447,16.661 69.609,15.792 Z" id="Fill-19"></path>
            <polyline id="Fill-20" points="77.76 19.469 76.611 22.956 78.992 21.539 79.397 22.22 75.972 24.26 75.566 23.579 76.66 20.347 74.432 21.674 74.026 20.993 76.943 19.256 77.252 18.615 77.76 19.469"></polyline>
            <path d="M78.978,29.282 L79.756,31.659 L78.995,31.908 L77.973,28.784 L81.762,27.544 L82.738,30.529 L81.985,30.775 L81.253,28.537 L80.331,28.839 C80.629,29.105 80.795,29.513 80.938,29.952 L81.121,30.508 L80.367,30.755 L80.185,30.199 C79.957,29.503 79.86,29.357 79.577,29.085 L78.978,29.282" id="Fill-21"></path>
            <polyline id="Fill-22" points="81.7 37.873 80.102 38.055 80.012 37.275 81.611 37.092 83.785 35.155 83.898 36.149 82.458 37.383 84.143 38.291 84.251 39.239 81.7 37.873"></polyline>
            <path d="M39.422,54.718 C39.215,54.718 39.047,54.886 39.047,55.093 C39.047,55.301 39.215,55.468 39.422,55.468 L42.754,55.468 C42.961,55.468 43.129,55.301 43.129,55.093 C43.129,54.886 42.961,54.718 42.754,54.718 L39.422,54.718" id="Fill-23"></path>
            <path d="M4.592,74.573 L80.379,74.573 L80.379,58.471 L4.592,58.471 L4.592,74.573 Z M83.922,54.718 L54.588,54.718 C54.381,54.718 54.213,54.886 54.213,55.093 C54.213,55.301 54.381,55.468 54.588,55.468 L83.547,55.468 L83.547,71.783 L81.129,74.075 L81.129,58.096 C81.129,57.889 80.961,57.721 80.754,57.721 L5.157,57.721 L7.534,55.468 L26.254,55.468 C26.461,55.468 26.629,55.301 26.629,55.093 C26.629,54.886 26.461,54.718 26.254,54.718 L7.385,54.718 C7.289,54.718 7.196,54.755 7.127,54.821 L3.959,57.824 C3.958,57.825 3.958,57.827 3.957,57.827 C3.915,57.869 3.885,57.92 3.867,57.973 C3.861,57.989 3.86,58.007 3.857,58.023 C3.852,58.047 3.842,58.07 3.842,58.096 L3.842,74.947 C3.842,75.155 4.01,75.323 4.217,75.323 L80.754,75.323 C80.851,75.323 80.937,75.283 81.003,75.223 C81.005,75.221 81.009,75.222 81.012,75.22 L84.18,72.217 C84.254,72.146 84.297,72.048 84.297,71.944 L84.297,55.093 C84.297,54.886 84.129,54.718 83.922,54.718 Z" id="Fill-24"></path>
            <path d="M19.06,27.181 C19.324,26.876 19.671,26.715 20.062,26.715 C20.172,26.715 20.285,26.728 20.4,26.754 C21.06,26.899 21.539,27.413 21.621,28.064 C21.704,28.716 21.355,29.307 20.689,29.646 C20.317,29.834 19.834,30.025 19.301,30.161 C19.101,29.881 18.926,29.557 18.782,29.187 C18.51,28.482 18.62,27.695 19.06,27.181 Z M37.486,54.652 C37.496,54.995 37.38,55.316 37.169,55.533 C37.059,55.647 36.872,55.782 36.609,55.782 L35.456,55.782 C35.487,55.622 35.505,55.46 35.499,55.291 L35.434,53.821 C35.419,53.466 35.537,53.14 35.759,52.927 C35.964,52.73 36.241,52.656 36.505,52.72 C36.808,52.795 37.124,52.859 37.437,52.924 L37.486,54.652 Z M51.522,55.782 L50.655,55.782 C51.039,54.472 51.433,53.165 51.833,51.856 C52.3,51.732 52.751,51.571 53.195,51.394 C53.456,51.307 53.718,51.221 53.979,51.135 C53.467,52.44 52.967,53.732 52.496,54.986 C52.32,55.454 51.92,55.782 51.522,55.782 Z M61.137,48.136 C61.001,48.206 60.876,48.244 60.765,48.244 L60.705,48.237 L60.672,48.233 C60.569,48.207 60.477,48.118 60.392,47.989 C60.377,47.966 60.359,47.952 60.344,47.925 C60.024,47.344 59.941,46.042 60.213,44.348 C60.345,43.524 60.555,42.613 60.875,41.633 C61.061,41.061 61.272,40.535 61.491,40.03 C62.512,37.677 63.801,36.131 64.666,35.913 C64.735,35.896 64.81,35.861 64.873,35.861 C64.915,35.861 64.955,35.865 64.994,35.874 C65.021,35.881 65.043,35.902 65.068,35.912 C65.181,35.961 65.281,36.048 65.365,36.194 C65.368,36.199 65.372,36.202 65.374,36.208 C65.919,37.203 65.624,39.774 64.655,42.46 C63.53,45.577 62.067,47.656 61.137,48.136 Z M56.367,26.248 C57.992,26.312 61.753,28.775 62.797,30.235 C63.017,30.541 63.039,30.703 63.027,30.737 C62.835,31.119 61.884,31.697 60.665,32.204 C60.117,30.944 59.37,29.741 58.41,28.622 C57.669,27.758 56.824,26.971 55.897,26.26 C56.051,26.252 56.202,26.24 56.367,26.248 Z M42.831,15.044 L42.199,15.349 C42.038,15.173 41.872,15.005 41.697,14.844 L42.276,14.564 C42.469,14.715 42.654,14.874 42.831,15.044 Z M44.861,21.972 L44.767,22.017 C44.576,21.995 44.385,21.971 44.192,21.952 C44.214,21.81 44.229,21.666 44.244,21.522 L45.008,21.152 C44.974,21.426 44.927,21.7 44.861,21.972 Z M44.037,23.952 L44.022,23.96 C43.886,23.942 43.75,23.928 43.614,23.912 C43.703,23.71 43.783,23.504 43.854,23.292 L44.521,22.97 C44.382,23.313 44.222,23.64 44.037,23.952 Z M42.766,25.403 L43.039,25.27 C42.854,25.462 42.658,25.638 42.454,25.808 C42.453,25.807 42.452,25.808 42.451,25.808 C42.561,25.676 42.666,25.541 42.766,25.403 Z M44.814,25.706 C44.723,25.864 44.565,25.966 44.377,25.993 C44.313,26.003 44.248,26.012 44.177,26 C44.174,26 44.171,26 44.168,26 C44.16,25.998 44.151,25.998 44.143,25.996 C43.917,25.961 43.691,25.945 43.464,25.917 C43.814,25.569 44.122,25.179 44.403,24.767 C44.554,24.801 44.689,24.88 44.781,25.005 C44.881,25.141 44.921,25.308 44.895,25.477 C44.882,25.56 44.854,25.637 44.814,25.706 Z M44.135,19.159 C44.09,18.933 44.034,18.712 43.969,18.491 L44.731,18.121 C44.8,18.34 44.858,18.562 44.905,18.785 L44.135,19.159 Z M44.25,19.937 L45.025,19.561 C45.049,19.804 45.061,20.049 45.06,20.293 L44.288,20.668 C44.287,20.423 44.273,20.179 44.25,19.937 Z M44.34,17.112 C44.388,17.211 44.426,17.314 44.469,17.414 L43.723,17.776 C43.64,17.568 43.548,17.363 43.447,17.161 L44.175,16.808 C44.23,16.909 44.29,17.007 44.34,17.112 Z M43.782,16.166 L43.077,16.507 C42.957,16.314 42.835,16.121 42.701,15.941 L43.367,15.619 C43.513,15.793 43.651,15.975 43.782,16.166 Z M41.569,14.073 L41.069,14.316 C40.859,14.159 40.643,14.015 40.419,13.881 L40.829,13.682 C41.084,13.799 41.331,13.929 41.569,14.073 Z M39.83,13.333 L39.59,13.449 C39.309,13.322 39.021,13.214 38.725,13.119 L38.757,13.104 C39.12,13.151 39.476,13.231 39.83,13.333 Z M29.312,18.814 C29.48,18.197 29.731,17.616 30.044,17.076 C30.495,16.299 31.087,15.615 31.797,15.053 C32.083,14.827 32.381,14.615 32.704,14.43 C33.439,14.009 34.244,13.735 35.07,13.591 C35.467,13.523 35.867,13.475 36.271,13.474 C36.278,13.474 36.286,13.473 36.293,13.473 C36.766,13.473 37.229,13.535 37.683,13.624 C38.021,13.691 38.352,13.781 38.674,13.892 C38.988,14.002 39.292,14.132 39.587,14.283 C39.829,14.407 40.062,14.544 40.289,14.693 C40.523,14.848 40.75,15.016 40.965,15.199 C41.15,15.355 41.332,15.513 41.5,15.688 C41.68,15.874 41.853,16.068 42.013,16.274 C42.152,16.451 42.274,16.644 42.397,16.836 C42.458,16.932 42.529,17.021 42.585,17.12 C42.654,17.24 42.711,17.365 42.772,17.488 C42.874,17.69 42.965,17.895 43.046,18.104 C43.138,18.34 43.218,18.579 43.284,18.823 C43.345,19.046 43.395,19.271 43.434,19.498 C43.479,19.76 43.509,20.023 43.525,20.287 C43.54,20.536 43.542,20.784 43.53,21.034 C43.517,21.322 43.492,21.609 43.444,21.896 C43.443,21.901 43.443,21.905 43.442,21.91 C43.422,22.029 43.391,22.146 43.365,22.264 C43.338,22.382 43.318,22.5 43.287,22.617 C43.284,22.629 43.279,22.639 43.276,22.651 C43.266,22.687 43.252,22.721 43.241,22.757 C43.138,23.109 43.008,23.449 42.856,23.777 C42.849,23.792 42.843,23.807 42.836,23.823 C42.779,23.944 42.716,24.061 42.652,24.179 C42.585,24.303 42.52,24.427 42.446,24.547 C42.39,24.638 42.325,24.723 42.265,24.812 C42.031,25.153 41.77,25.474 41.479,25.772 C41.478,25.774 41.475,25.776 41.473,25.778 C41.473,25.778 41.472,25.779 41.471,25.78 C41.266,25.773 41.06,25.757 40.855,25.756 C37.674,25.776 34.583,26.531 31.975,27.969 C31.883,28.02 31.783,28.046 31.677,28.047 L31.675,28.421 L31.675,28.047 C31.664,28.047 31.655,28.038 31.644,28.038 C31.625,28.037 31.611,28.027 31.593,28.024 C31.396,27.998 31.217,27.896 31.12,27.72 C30.969,27.446 31.054,27.115 31.292,26.927 C31.634,27.203 31.996,27.453 32.378,27.669 C32.403,27.682 32.431,27.694 32.456,27.708 C32.589,27.639 32.724,27.573 32.86,27.508 C33.008,27.437 33.15,27.357 33.3,27.291 C33.274,27.28 33.25,27.265 33.225,27.254 C32.798,27.053 32.391,26.816 32.011,26.536 C31.902,26.457 31.798,26.37 31.694,26.284 C31.589,26.199 31.488,26.109 31.389,26.017 C31.036,25.691 30.713,25.33 30.428,24.933 C30.353,24.829 30.284,24.72 30.214,24.612 C30.149,24.511 30.075,24.417 30.015,24.312 C30.014,24.31 30.013,24.307 30.012,24.306 C29.053,22.628 28.805,20.678 29.312,18.814 Z M24.1,31.527 C24.706,30.114 25.544,28.821 26.635,27.696 C26.766,27.561 26.919,27.445 27.056,27.315 C27.128,27.245 27.205,27.179 27.279,27.113 C28.028,26.432 28.854,25.821 29.766,25.29 C30.053,25.698 30.367,26.082 30.719,26.424 C30.452,26.682 30.304,27.034 30.298,27.398 C30.298,27.448 30.294,27.498 30.299,27.548 C30.316,27.73 30.369,27.911 30.463,28.082 C30.707,28.523 31.171,28.797 31.675,28.797 C31.676,28.797 31.679,28.797 31.68,28.797 C31.912,28.795 32.14,28.736 32.338,28.625 C35.704,26.771 39.927,26.094 44.059,26.741 C44.826,26.864 45.52,26.341 45.636,25.592 C45.648,25.515 45.628,25.441 45.627,25.364 C45.627,25.353 45.626,25.343 45.625,25.332 C45.617,25.057 45.552,24.79 45.386,24.563 C45.239,24.361 45.034,24.228 44.81,24.132 C45.028,23.738 45.22,23.327 45.372,22.89 C45.374,22.885 45.375,22.879 45.377,22.872 C46.318,23.007 47.234,23.182 48.12,23.411 C48.241,23.442 48.368,23.463 48.488,23.496 C50.531,24.057 52.391,24.88 54.042,25.913 C54.175,25.996 54.315,26.073 54.446,26.159 C54.581,26.248 54.72,26.333 54.852,26.425 C55.972,27.214 56.98,28.108 57.84,29.111 C58.743,30.162 59.446,31.292 59.963,32.477 C60.014,32.591 60.064,32.706 60.11,32.821 C60.127,32.864 60.14,32.908 60.156,32.951 C60.127,33.036 60.127,33.126 60.16,33.206 C60.188,33.277 60.24,33.336 60.307,33.379 C60.314,33.398 60.321,33.417 60.328,33.436 L60.342,33.405 C60.343,33.406 60.344,33.407 60.345,33.407 C60.497,33.479 60.641,33.55 60.792,33.621 C60.949,33.697 61.1,33.77 61.256,33.844 C62.254,34.319 63.246,34.795 64.225,35.27 C63.418,35.626 62.53,36.581 61.729,37.911 C61.584,38.153 61.441,38.404 61.303,38.669 C61.117,39.025 60.939,39.402 60.77,39.795 C60.55,40.304 60.345,40.84 60.162,41.4 C59.854,42.341 59.635,43.261 59.49,44.124 C59.424,44.514 59.373,44.89 59.342,45.25 C59.317,45.544 59.303,45.824 59.3,46.093 C59.292,47.019 59.413,47.79 59.688,48.287 C59.724,48.353 59.763,48.4 59.802,48.453 C58.616,48.833 57.438,49.214 56.27,49.594 C55.934,49.703 55.6,49.812 55.266,49.922 C55.217,49.938 55.168,49.953 55.12,49.97 C55.016,50.004 54.916,50.037 54.812,50.071 C54.653,50.124 54.497,50.175 54.338,50.227 C53.876,50.379 53.416,50.531 52.956,50.682 C52.56,50.813 52.158,50.944 51.764,51.075 C51.65,51.112 51.532,51.15 51.418,51.188 C51.366,51.206 51.322,51.234 51.284,51.269 C51.277,51.276 51.273,51.285 51.266,51.292 C51.233,51.327 51.208,51.368 51.191,51.413 C51.187,51.421 51.18,51.426 51.178,51.434 C50.752,52.822 50.335,54.206 49.928,55.593 C49.908,55.661 49.874,55.719 49.845,55.782 C49.779,55.927 49.697,56.055 49.595,56.157 C49.419,56.336 49.206,56.447 48.981,56.447 L45.63,56.447 C45.377,56.447 45.195,56.317 45.087,56.206 C44.875,55.989 44.757,55.664 44.764,55.316 L44.784,54.458 C44.796,53.939 44.617,53.438 44.294,53.085 C43.986,52.744 43.573,52.557 43.131,52.557 C43.088,52.557 43.045,52.558 43.002,52.562 C42.406,52.613 41.807,52.648 41.487,52.648 C40.563,52.648 39.359,52.515 38.17,52.302 C38.043,52.279 37.919,52.258 37.792,52.233 C37.665,52.208 37.542,52.178 37.415,52.151 C37.17,52.098 36.92,52.05 36.685,51.992 C36.171,51.866 35.625,52.015 35.24,52.386 C34.862,52.748 34.66,53.283 34.685,53.854 L34.75,55.323 C34.756,55.485 34.73,55.639 34.686,55.782 C34.64,55.925 34.568,56.049 34.477,56.157 C34.464,56.173 34.46,56.194 34.446,56.208 C34.342,56.317 34.165,56.447 33.913,56.447 L30.207,56.447 C29.924,56.447 29.634,56.277 29.437,55.998 L29.367,55.895 C27.856,53.646 23.257,46.803 23.001,37.573 C22.943,35.715 23.209,33.968 23.767,32.365 C23.866,32.079 23.981,31.803 24.1,31.527 Z M19.011,30.989 C19.958,32.032 21.28,32.474 22.628,32.474 C22.737,32.474 22.846,32.454 22.955,32.449 C22.443,34.047 22.194,35.77 22.251,37.595 C22.514,47.041 27.204,54.02 28.745,56.313 L28.819,56.424 C29.163,56.908 29.681,57.197 30.207,57.197 L33.914,57.197 C34.315,57.197 34.697,57.031 34.988,56.728 C35.044,56.669 35.09,56.598 35.138,56.532 L36.609,56.532 C37.019,56.532 37.409,56.363 37.708,56.056 C38.059,55.695 38.252,55.175 38.236,54.631 L38.192,53.067 C39.374,53.272 40.555,53.397 41.512,53.397 C41.831,53.397 42.441,53.362 43.131,53.307 C43.358,53.307 43.574,53.407 43.74,53.591 C43.935,53.803 44.042,54.112 44.034,54.44 L44.014,55.301 C44.003,55.85 44.199,56.371 44.552,56.732 C44.847,57.032 45.229,57.197 45.63,57.197 L48.981,57.197 C49.467,57.197 49.917,56.934 50.246,56.532 L51.522,56.532 C52.237,56.532 52.911,56.016 53.198,55.249 C53.738,53.815 54.315,52.329 54.907,50.83 C56.792,50.212 58.691,49.594 60.623,48.977 C60.671,48.983 60.717,48.994 60.765,48.994 C62.365,48.994 64.269,45.739 65.36,42.715 C66.43,39.75 66.693,37.054 66.032,35.847 C65.921,35.644 65.78,35.483 65.62,35.362 C65.62,35.221 65.567,35.085 65.434,35.021 C63.975,34.308 62.491,33.596 60.99,32.885 C62.33,32.325 63.407,31.65 63.695,31.079 C63.843,30.795 63.799,30.446 63.563,30.04 C62.627,28.423 58.4,25.577 56.398,25.498 C55.886,25.476 55.424,25.53 55.005,25.617 C53.066,24.307 50.802,23.314 48.313,22.673 C48.18,22.638 48.049,22.602 47.916,22.569 C47.162,22.388 46.387,22.24 45.596,22.124 C46.028,20.333 45.829,18.465 45.015,16.784 C44.084,14.864 42.461,13.42 40.444,12.72 C39.595,12.424 38.712,12.275 37.82,12.275 C36.78,12.275 35.784,12.498 34.856,12.87 C33.975,13.034 33.117,13.329 32.332,13.779 C30.478,14.84 29.149,16.557 28.588,18.617 C28.03,20.669 28.303,22.816 29.353,24.662 C28.489,25.168 27.699,25.743 26.974,26.377 C26.882,26.457 26.793,26.54 26.703,26.623 C26.502,26.807 26.286,26.978 26.097,27.173 C24.821,28.489 23.859,30.014 23.211,31.694 C22.041,31.82 20.796,31.604 19.86,30.781 C20.303,30.644 20.703,30.48 21.028,30.315 C21.975,29.834 22.487,28.936 22.365,27.969 C22.242,27.001 21.535,26.237 20.562,26.021 C19.765,25.845 19.01,26.09 18.492,26.693 C17.873,27.413 17.712,28.498 18.083,29.457 C18.203,29.769 18.344,30.054 18.504,30.313 C17.23,30.47 15.858,30.207 15.112,28.863 C15.011,28.682 14.783,28.616 14.602,28.717 C14.421,28.818 14.356,29.046 14.456,29.227 C15.48,31.07 17.384,31.291 19.011,30.989 Z" id="Fill-25"></path>
            <path d="M52.592,31.136 C52.596,31.139 52.97,31.382 53.411,32.168 C53.838,32.928 53.93,33.507 53.944,33.615 C53.964,33.771 54.079,33.903 54.231,33.938 L54.316,33.573 L54.688,33.52 C54.664,33.334 54.548,32.659 54.065,31.8 C53.522,30.833 53.033,30.526 52.979,30.493 C52.803,30.39 52.578,30.448 52.471,30.622 C52.364,30.797 52.419,31.027 52.592,31.136" id="Fill-26"></path>
            <path d="M55.47,29.759 C55.474,29.762 55.845,30.003 56.275,30.786 C56.726,31.606 56.786,32.217 56.786,32.223 L57.16,32.195 L57.355,32.515 C57.877,32.198 56.942,30.442 56.932,30.425 C56.399,29.453 55.909,29.148 55.855,29.115 C55.679,29.013 55.454,29.07 55.348,29.245 C55.241,29.42 55.297,29.65 55.47,29.759" id="Fill-27"></path>
            <path d="M48.306,41.995 C48.356,41.998 48.406,42 48.454,42 C48.81,42 49.074,41.9 49.237,41.706 C50.187,40.622 49.953,34.989 48.215,32.535 C48.096,32.365 47.862,32.325 47.692,32.445 C47.581,32.525 47.531,32.654 47.542,32.782 C47.547,32.847 47.563,32.911 47.603,32.968 C49.208,35.235 49.379,40.407 48.671,41.215 C48.67,41.215 48.557,41.292 48.127,41.217 C46.312,40.899 41.998,38.381 41.061,36.882 C40.001,35.119 40.421,33.538 40.425,33.523 L40.069,33.406 L40.069,33.407 L39.743,33.221 C39.642,33.401 39.213,35.264 40.421,37.274 C41.571,39.113 46.437,41.863 48.306,41.995" id="Fill-28"></path>
            <path d="M62.256,41.465 C62.061,41.394 61.847,41.494 61.775,41.689 L61.41,42.703 C61.34,42.898 61.441,43.112 61.636,43.182 C61.678,43.197 61.721,43.204 61.763,43.204 C61.917,43.204 62.061,43.11 62.116,42.956 L62.438,42.063 L62.48,41.946 C62.482,41.943 62.481,41.94 62.482,41.937 C62.546,41.744 62.448,41.535 62.256,41.465" id="Fill-29"></path>
            <path d="M64.339,40.657 C64.149,40.584 63.929,40.682 63.857,40.876 L63.476,41.888 C63.403,42.082 63.502,42.299 63.695,42.37 C63.739,42.387 63.783,42.395 63.827,42.395 C63.979,42.395 64.122,42.302 64.178,42.152 L64.559,41.139 C64.632,40.945 64.534,40.729 64.339,40.657" id="Fill-30"></path>
            <path d="M34.8,22.931 L34.799,22.931 L34.71,22.558 L34.456,21.515 L34.377,21.193 L35.201,20.993 L35.874,20.828 L37.78,20.365 C37.969,20.318 38.165,20.332 38.354,20.376 C38.483,20.407 38.612,20.443 38.727,20.512 C38.873,20.6 38.995,20.717 39.092,20.853 C39.185,20.982 39.254,21.128 39.293,21.287 C39.311,21.359 39.297,21.428 39.301,21.5 C39.311,21.637 39.305,21.767 39.271,21.896 C39.235,22.032 39.185,22.161 39.107,22.277 C39.039,22.378 38.957,22.469 38.862,22.547 C38.776,22.616 38.674,22.662 38.57,22.708 C38.502,22.738 38.446,22.783 38.373,22.8 L38.301,22.818 L37.523,23.007 C37.52,23.008 37.517,23.007 37.514,23.007 C37.51,23.008 37.508,23.011 37.505,23.011 L35.781,23.431 C35.778,23.432 35.774,23.431 35.771,23.431 C35.767,23.432 35.764,23.435 35.761,23.436 L34.969,23.629 L34.962,23.602 L34.886,23.285 L34.8,22.931 Z M34.175,17.892 L36.258,17.385 C36.329,17.368 36.399,17.381 36.47,17.376 C36.727,17.358 36.983,17.396 37.206,17.532 C37.272,17.573 37.317,17.636 37.374,17.687 C37.561,17.854 37.71,18.057 37.772,18.307 C37.773,18.314 37.771,18.321 37.772,18.327 C37.835,18.608 37.785,18.882 37.671,19.125 C37.516,19.457 37.234,19.725 36.852,19.818 L35.619,20.119 L35.184,20.224 L34.2,20.465 L33.608,18.031 L34.175,17.892 Z M32.269,18.357 L32.371,18.332 L32.879,18.208 L33.504,20.779 C33.468,20.854 33.452,20.94 33.474,21.027 C33.495,21.116 33.548,21.188 33.617,21.238 L33.986,22.757 L34.076,23.126 L34.163,23.487 L34.241,23.806 L33.743,23.927 L33.63,23.954 C33.429,24.003 33.306,24.206 33.354,24.407 C33.396,24.578 33.549,24.694 33.718,24.694 C33.748,24.694 33.778,24.69 33.808,24.682 L34.175,24.593 L35.099,24.368 L35.585,24.251 L35.623,24.407 L35.71,24.765 L35.722,24.816 L35.902,25.553 C35.903,25.556 35.906,25.557 35.907,25.56 C35.952,25.726 36.1,25.839 36.266,25.839 C36.296,25.839 36.326,25.836 36.355,25.828 C36.557,25.78 36.68,25.576 36.631,25.376 L36.594,25.226 L36.53,24.963 L36.413,24.481 L36.356,24.248 L36.313,24.073 L37.328,23.827 L37.374,24.015 L37.379,24.038 L37.466,24.396 L37.555,24.761 L37.557,24.769 L37.645,25.129 C37.672,25.244 37.758,25.317 37.858,25.364 C37.907,25.386 37.953,25.416 38.008,25.416 C38.038,25.416 38.068,25.411 38.098,25.405 C38.244,25.369 38.346,25.252 38.374,25.113 C38.385,25.061 38.387,25.007 38.373,24.951 L38.246,24.427 L38.127,23.943 L38.056,23.649 L38.205,23.613 L38.55,23.529 C38.922,23.439 39.24,23.244 39.492,22.99 C39.601,22.879 39.702,22.76 39.783,22.628 C39.857,22.507 39.916,22.377 39.962,22.243 C39.993,22.158 40.014,22.069 40.032,21.98 C40.04,21.942 40.049,21.906 40.054,21.868 C40.088,21.635 40.081,21.391 40.027,21.149 C40.024,21.135 40.025,21.121 40.022,21.109 C39.97,20.898 39.879,20.704 39.767,20.526 C39.628,20.302 39.446,20.109 39.227,19.953 C39.189,19.927 39.157,19.896 39.117,19.871 C38.896,19.737 38.649,19.649 38.396,19.608 C38.359,19.602 38.322,19.602 38.286,19.599 C38.441,19.327 38.528,19.022 38.544,18.702 C38.554,18.513 38.546,18.323 38.5,18.131 C38.489,18.084 38.468,18.042 38.454,17.998 C38.376,17.753 38.256,17.531 38.097,17.337 C37.956,17.164 37.791,17.011 37.596,16.891 C37.576,16.88 37.553,16.873 37.533,16.861 C37.167,16.656 36.757,16.575 36.345,16.619 L36.342,16.604 L36.022,15.29 C36.014,15.256 35.996,15.228 35.979,15.198 C35.899,15.055 35.736,14.973 35.57,15.014 C35.369,15.063 35.245,15.265 35.294,15.466 L35.308,15.524 L35.489,16.269 L35.611,16.771 L34.596,17.017 L34.527,16.735 L34.279,15.715 C34.23,15.513 34.026,15.389 33.827,15.438 C33.625,15.487 33.502,15.69 33.551,15.89 L33.868,17.196 L33.067,17.39 L33.066,17.39 L32.091,17.628 C31.89,17.677 31.766,17.881 31.815,18.082 C31.864,18.283 32.069,18.405 32.269,18.357 Z" id="Fill-31"></path>
            <path d="M77.767,60.711 L76.265,62.213 C76.064,61.79 76.127,61.272 76.476,60.923 C76.69,60.708 76.976,60.59 77.28,60.59 C77.453,60.59 77.616,60.637 77.767,60.711 Z M76.798,62.74 L78.297,61.24 C78.371,61.391 78.418,61.553 78.418,61.726 C78.419,62.031 78.3,62.316 78.084,62.532 C77.748,62.869 77.22,62.932 76.798,62.74 Z M78.615,60.394 C77.903,59.679 76.658,59.679 75.945,60.391 C75.21,61.129 75.21,62.327 75.946,63.062 C76.303,63.419 76.777,63.615 77.281,63.615 C77.786,63.615 78.259,63.418 78.615,63.062 C78.972,62.704 79.169,62.231 79.168,61.725 C79.168,61.222 78.971,60.748 78.615,60.394 Z" id="Fill-32"></path>
            <path d="M76.154,71.477 C76.111,71.177 76.187,70.877 76.37,70.633 C76.474,70.494 76.609,70.394 76.758,70.316 L77.061,72.42 C76.598,72.325 76.224,71.958 76.154,71.477 Z M77.803,72.313 L77.502,70.218 C77.962,70.313 78.337,70.674 78.406,71.155 C78.477,71.642 78.217,72.095 77.803,72.313 Z M77.012,69.447 C76.513,69.518 76.072,69.781 75.77,70.183 C75.467,70.588 75.34,71.085 75.412,71.584 C75.545,72.507 76.349,73.203 77.28,73.203 C77.351,73.203 77.423,73.197 77.496,73.188 C77.503,73.188 77.51,73.188 77.518,73.187 C77.529,73.186 77.54,73.186 77.55,73.184 C78.58,73.035 79.297,72.076 79.148,71.048 C79.003,70.036 78.056,69.298 77.012,69.447 Z" id="Fill-33"></path>
            <path d="M6.885,70.512 C7.024,70.374 7.197,70.293 7.379,70.24 C7.481,70.211 7.582,70.179 7.689,70.179 C7.863,70.179 8.025,70.227 8.177,70.299 L6.913,71.564 L6.672,71.803 C6.6,71.652 6.552,71.489 6.552,71.317 C6.552,71.11 6.625,70.923 6.727,70.749 C6.775,70.668 6.816,70.581 6.885,70.512 Z M8.14,72.35 C7.842,72.473 7.5,72.463 7.207,72.33 L7.259,72.277 L7.944,71.593 L8.706,70.831 C8.826,71.082 8.842,71.361 8.767,71.626 C8.715,71.807 8.636,71.98 8.495,72.12 C8.393,72.223 8.27,72.297 8.14,72.35 Z M7.213,69.512 C6.962,69.575 6.727,69.687 6.521,69.848 C6.464,69.891 6.406,69.931 6.355,69.982 C5.999,70.338 5.802,70.812 5.802,71.317 C5.802,71.821 5.999,72.295 6.354,72.651 C6.711,73.008 7.185,73.203 7.689,73.203 C8.194,73.203 8.669,73.008 9.025,72.651 C9.104,72.571 9.171,72.484 9.233,72.396 C9.391,72.17 9.496,71.919 9.543,71.658 C9.651,71.068 9.479,70.436 9.025,69.982 C8.55,69.508 7.844,69.356 7.213,69.512 Z" id="Fill-34"></path>
            <path d="M6.564,61.889 C6.494,61.4 6.753,60.948 7.168,60.73 L7.47,62.832 C7.008,62.738 6.634,62.371 6.564,61.889 Z M8.212,62.725 L7.911,60.631 C8.371,60.725 8.747,61.086 8.816,61.566 C8.886,62.055 8.626,62.508 8.212,62.725 Z M7.421,59.859 C6.391,60.009 5.674,60.967 5.822,61.995 C5.955,62.92 6.757,63.615 7.688,63.615 C7.759,63.615 7.832,63.608 7.905,63.6 C7.922,63.6 7.94,63.598 7.959,63.596 C8.988,63.448 9.706,62.489 9.559,61.46 C9.412,60.447 8.462,59.71 7.421,59.859 Z" id="Fill-35"></path>
        </g>
    </g>
</svg>