<?xml version="1.0" encoding="UTF-8"?>
<svg width="67px" height="84px" viewBox="0 0 67 84" version="1.1" xmlns="http://www.w3.org/2000/svg" xmlns:xlink="http://www.w3.org/1999/xlink">
    <!-- Generator: Sketch 49 (51002) - http://www.bohemiancoding.com/sketch -->
    <title>bitcoin-grey-9</title>
    <desc>Created with Sketch.</desc>
    <defs></defs>
    <g id="Page-1" stroke="none" stroke-width="1" fill="none" fill-rule="evenodd">
        <g id="bitcoin-grey-9" fill="#000000">
            <path d="M19.349,55.494 L19.349,52.389 C19.674,52.888 20.096,53.316 20.582,53.664 C21.39,54.244 22.378,54.595 23.443,54.614 L23.443,59.465 C21.179,59.419 19.349,57.66 19.349,55.494 Z M43.788,25.146 L31.338,25.146 L31.338,24.505 L45.748,24.505 L46.486,25.146 L43.788,25.146 Z M47.953,26.54 L23.958,26.54 L23.214,25.896 L47.35,25.896 L48.107,26.555 C48.056,26.553 48.006,26.54 47.953,26.54 Z M21.573,52.447 C22.152,52.689 22.781,52.834 23.443,52.845 L23.443,53.864 C22.556,53.845 21.732,53.558 21.055,53.083 C20.268,52.53 19.688,51.723 19.461,50.77 C19.985,51.509 20.717,52.089 21.573,52.447 Z M31.338,23.755 L35.681,23.755 L35.681,23.08 L31.338,23.08 L31.338,23.755 Z M21.605,24.505 L25.569,24.505 L25.569,25.146 L22.346,25.146 L21.605,24.505 Z M19.484,23.664 L22.92,26.633 C21.259,26.4 19.896,25.235 19.484,23.664 Z M19.349,48.716 L19.349,32.416 C20.214,33.744 21.737,34.611 23.443,34.64 L23.443,52.095 C22.961,52.086 22.495,52.001 22.062,51.846 C20.728,51.369 19.699,50.263 19.421,48.869 C19.409,48.81 19.383,48.761 19.349,48.716 Z M23.443,33.89 C21.523,33.852 19.883,32.572 19.461,30.797 C20.341,32.037 21.804,32.844 23.443,32.872 L23.443,33.89 Z M23.443,27.427 L23.443,32.122 C21.474,32.083 19.789,30.742 19.421,28.896 C19.409,28.838 19.383,28.787 19.349,28.743 L19.349,25.203 C20.214,26.531 21.737,27.398 23.443,27.427 Z M44.703,23.585 C44.714,23.597 44.721,23.613 44.733,23.624 L44.885,23.755 L41.449,23.755 L41.449,23.08 L43.108,23.08 C43.681,23.08 44.233,23.264 44.703,23.585 Z M36.431,22.33 L36.431,19.715 L38.3,21.585 C38.446,21.732 38.684,21.732 38.83,21.585 L40.699,19.715 L40.699,23.755 L36.431,23.755 L36.431,22.33 Z M26.319,22.33 L26.319,19.715 L28.188,21.585 C28.335,21.732 28.572,21.732 28.719,21.585 L30.588,19.715 L30.588,25.146 L26.319,25.146 L26.319,22.33 Z M20.076,23.08 L25.569,23.08 L25.569,23.755 L20.736,23.755 L19.979,23.1 C20.012,23.096 20.042,23.08 20.076,23.08 Z M30.588,62.836 L28.719,60.967 C28.646,60.893 28.55,60.857 28.453,60.857 C28.357,60.857 28.262,60.893 28.188,60.967 L26.319,62.836 L26.319,60.223 L30.588,60.223 L30.588,62.836 Z M40.699,62.836 L38.83,60.967 C38.757,60.893 38.661,60.857 38.564,60.857 C38.469,60.857 38.373,60.893 38.3,60.967 L36.431,62.836 L36.431,60.223 L40.699,60.223 L40.699,62.836 Z M48.497,43.013 C48.321,43.048 48.194,43.201 48.194,43.381 C48.194,43.56 48.321,43.715 48.497,43.749 C49.826,44.009 50.79,45.179 50.79,46.532 L50.79,56.635 C50.79,58.2 49.518,59.473 47.953,59.473 L24.193,59.473 L24.193,27.29 L47.953,27.29 C48.512,27.29 49.029,27.456 49.469,27.737 L49.513,27.775 C49.526,27.786 49.545,27.783 49.561,27.793 C50.302,28.305 50.79,29.16 50.79,30.128 L50.79,40.23 C50.79,41.584 49.826,42.755 48.497,43.013 Z M51.54,40.23 L51.54,30.128 C51.54,28.874 50.891,27.77 49.912,27.129 L45.506,23.301 C45.483,23.25 45.452,23.202 45.406,23.163 C44.763,22.627 43.946,22.33 43.108,22.33 L41.449,22.33 L41.449,18.81 C41.449,18.659 41.357,18.522 41.218,18.465 C41.077,18.406 40.916,18.438 40.809,18.545 L38.564,20.79 L36.32,18.545 C36.214,18.438 36.052,18.406 35.912,18.465 C35.771,18.522 35.681,18.659 35.681,18.81 L35.681,22.33 L31.338,22.33 L31.338,18.81 C31.338,18.659 31.246,18.522 31.106,18.465 C30.967,18.406 30.805,18.438 30.697,18.545 L28.453,20.79 L26.209,18.545 C26.102,18.438 25.94,18.406 25.801,18.465 C25.66,18.522 25.569,18.659 25.569,18.81 L25.569,22.33 L20.076,22.33 C19.262,22.33 18.599,22.993 18.599,23.807 L18.599,55.64 C18.599,55.693 18.61,55.743 18.63,55.788 C18.792,58.257 20.917,60.223 23.532,60.223 C23.583,60.223 23.631,60.213 23.676,60.194 C23.72,60.213 23.768,60.223 23.818,60.223 L25.569,60.223 L25.569,63.741 C25.569,63.892 25.66,64.03 25.801,64.088 C25.94,64.145 26.102,64.114 26.209,64.006 L28.453,61.763 L30.697,64.006 C30.77,64.077 30.865,64.116 30.963,64.116 C31.011,64.116 31.06,64.107 31.106,64.088 C31.246,64.03 31.338,63.892 31.338,63.741 L31.338,60.223 L35.681,60.223 L35.681,63.741 C35.681,63.892 35.771,64.03 35.912,64.088 C36.052,64.145 36.214,64.114 36.32,64.006 L38.564,61.763 L40.809,64.006 C40.881,64.077 40.977,64.116 41.074,64.116 C41.122,64.116 41.171,64.107 41.218,64.088 C41.357,64.03 41.449,63.892 41.449,63.741 L41.449,60.223 L47.953,60.223 C49.931,60.223 51.54,58.614 51.54,56.635 L51.54,46.532 C51.54,45.193 50.794,43.995 49.665,43.381 C50.794,42.766 51.54,41.569 51.54,40.23 Z" id="Fill-1"></path>
            <path d="M41.063,35.911 C40.914,35.787 40.698,35.797 40.561,35.931 L38.399,38.042 C38.382,38.06 38.386,38.086 38.372,38.106 L34.756,34.542 C34.613,34.402 34.386,34.398 34.238,34.534 L29.709,38.709 L29.709,32.616 L45.275,32.616 L45.275,39.4 L41.063,35.911 Z M38.924,38.578 L39.087,38.42 L40.844,36.702 L44.647,39.853 L44.88,40.047 L40.341,40.047 L38.873,38.599 C38.889,38.589 38.91,38.593 38.924,38.578 Z M37.215,40.047 L29.709,40.047 L29.709,39.634 C29.77,39.619 29.833,39.615 29.882,39.57 L30.128,39.343 L34.484,35.327 L35.05,35.885 L39.272,40.047 L39.503,40.273 L37.215,40.047 Z M45.65,31.866 L29.334,31.866 C29.127,31.866 28.959,32.034 28.959,32.241 L28.959,40.421 C28.959,40.628 29.127,40.797 29.334,40.797 L45.65,40.797 C45.857,40.797 46.025,40.628 46.025,40.421 L46.025,32.241 C46.025,32.034 45.857,31.866 45.65,31.866 Z" id="Fill-2"></path>
            <path d="M45.65,46.327 L29.334,46.327 C29.127,46.327 28.959,46.495 28.959,46.703 C28.959,46.909 29.127,47.077 29.334,47.077 L45.65,47.077 C45.857,47.077 46.025,46.909 46.025,46.703 C46.025,46.495 45.857,46.327 45.65,46.327" id="Fill-3"></path>
            <path d="M45.65,48.774 L29.334,48.774 C29.127,48.774 28.959,48.942 28.959,49.149 C28.959,49.356 29.127,49.524 29.334,49.524 L45.65,49.524 C45.857,49.524 46.025,49.356 46.025,49.149 C46.025,48.942 45.857,48.774 45.65,48.774" id="Fill-4"></path>
            <path d="M45.65,51.219 L29.334,51.219 C29.127,51.219 28.959,51.387 28.959,51.594 C28.959,51.801 29.127,51.969 29.334,51.969 L45.65,51.969 C45.857,51.969 46.025,51.801 46.025,51.594 C46.025,51.387 45.857,51.219 45.65,51.219" id="Fill-5"></path>
            <path d="M45.65,53.664 L29.334,53.664 C29.127,53.664 28.959,53.833 28.959,54.04 C28.959,54.246 29.127,54.414 29.334,54.414 L45.65,54.414 C45.857,54.414 46.025,54.246 46.025,54.04 C46.025,53.833 45.857,53.664 45.65,53.664" id="Fill-6"></path>
            <path d="M42.727,35.099 C42.421,35.099 42.172,34.852 42.172,34.547 C42.172,34.24 42.421,33.991 42.727,33.991 C43.031,33.991 43.279,34.24 43.279,34.547 C43.279,34.852 43.031,35.099 42.727,35.099 Z M42.727,33.241 C42.007,33.241 41.422,33.827 41.422,34.547 C41.422,35.265 42.007,35.849 42.727,35.849 C43.445,35.849 44.029,35.265 44.029,34.547 C44.029,33.827 43.445,33.241 42.727,33.241 Z" id="Fill-7"></path>
            <path d="M6.684,23.909 L8.066,21.411 C8.367,20.868 8.439,20.025 7.771,19.656 C6.998,19.228 6.429,19.796 6.074,20.436 L5.444,21.574 C5.208,22 5.021,22.466 5.013,22.984 L6.684,23.909 Z M4.026,22.438 C4.016,21.91 4.217,21.463 4.458,21.028 L5.087,19.89 C5.417,19.294 5.332,18.736 4.718,18.396 C4.087,18.047 3.646,18.337 3.327,18.915 L1.999,21.316 L4.026,22.438 Z M8.981,22.045 L7.122,25.405 L0.489,21.735 L2.349,18.374 C2.969,17.254 4.081,16.778 5.245,17.422 C5.815,17.737 6.19,18.212 6.223,18.741 C6.691,18.397 7.512,18.258 8.427,18.765 C9.743,19.493 9.592,20.942 8.981,22.045 Z" id="Fill-8"></path>
            <path d="M9.239,16.271 L6.016,12.94 L6.805,12.177 L10.028,15.508 C10.933,16.443 12.026,16.375 13.085,15.35 C14.145,14.325 14.249,13.235 13.344,12.299 L10.121,8.968 L10.911,8.205 L14.133,11.536 C15.504,12.953 15.397,14.655 13.856,16.146 C12.314,17.637 10.61,17.688 9.239,16.271" id="Fill-9"></path>
            <path d="M18.457,3.579 L19.574,2.975 C19.742,4.801 19.542,6.48 19.135,8.097 L20.696,10.983 L19.731,11.505 L18.17,8.619 C16.593,8.075 15.078,7.324 13.642,6.184 L14.758,5.58 C15.689,6.404 16.935,7.105 18.193,7.51 C18.543,6.235 18.638,4.809 18.457,3.579" id="Fill-10"></path>
            <path d="M28.457,7.096 L31.292,6.747 C31.907,6.672 32.632,6.235 32.539,5.478 C32.431,4.6 31.637,4.472 30.91,4.562 L29.619,4.721 C29.135,4.781 28.648,4.902 28.224,5.199 L28.457,7.096 Z M28.086,4.08 C28.508,3.762 28.987,3.662 29.481,3.601 L30.773,3.442 C31.448,3.359 31.85,2.962 31.765,2.265 C31.676,1.549 31.183,1.364 30.527,1.445 L27.803,1.78 L28.086,4.08 Z M31.316,7.861 L27.502,8.33 L26.577,0.804 L30.391,0.335 C31.662,0.179 32.7,0.799 32.863,2.12 C32.942,2.766 32.778,3.349 32.369,3.686 C32.924,3.864 33.518,4.446 33.646,5.486 C33.829,6.979 32.567,7.707 31.316,7.861 Z" id="Fill-11"></path>
            <path d="M40.426,1.625 C38.766,1.326 37.271,2.285 36.968,3.965 C36.678,5.576 37.856,7.007 39.416,7.288 C41.017,7.576 42.57,6.576 42.862,4.955 C43.158,3.315 42.016,1.911 40.426,1.625 Z M39.21,8.376 C36.949,7.969 35.516,5.894 35.922,3.643 C36.318,1.443 38.494,0.141 40.634,0.526 C42.845,0.924 44.333,2.979 43.931,5.21 C43.535,7.41 41.37,8.765 39.21,8.376 Z" id="Fill-12"></path>
            <path d="M51.171,5.408 C49.692,4.602 47.974,5.041 47.158,6.538 C46.376,7.973 47.042,9.699 48.432,10.457 C49.858,11.234 51.646,10.775 52.432,9.331 C53.229,7.869 52.588,6.18 51.171,5.408 Z M47.894,11.424 C45.88,10.326 45.175,7.908 46.267,5.903 C47.335,3.942 49.807,3.393 51.714,4.432 C53.684,5.505 54.448,7.921 53.365,9.909 C52.297,11.869 49.819,12.472 47.894,11.424 Z" id="Fill-13"></path>
            <path d="M53.62,15.195 L52.85,14.399 L58.299,9.127 L59.069,9.923 L55.001,13.86 L61.747,12.691 L62.673,13.649 L58.378,14.34 L57.856,16.739 C57.67,17.57 57.837,17.946 58.062,18.18 C58.077,18.195 58.098,18.216 58.112,18.231 L58.29,18.399 L57.479,19.184 C56.864,18.548 56.331,18.173 56.701,16.655 L57.225,14.55 L53.62,15.195" id="Fill-14"></path>
            <path d="M59.47,22.97 C58.919,21.951 58.849,20.627 59.353,19.488 L60.382,19.831 C60.151,20.407 59.878,21.398 60.444,22.443 C60.976,23.426 61.887,24.214 62.718,23.765 C63.737,23.214 63.19,22.204 62.669,21.239 C61.808,19.649 61.929,18.463 63.063,17.849 C64.145,17.265 65.71,17.746 66.483,19.175 C67.029,20.185 67.218,21.215 66.879,22.426 L65.836,22.205 C66.03,21.176 65.96,20.556 65.501,19.707 C65.095,18.956 64.238,18.612 63.657,18.926 C63.255,19.143 63.044,19.627 63.657,20.762 C64.919,23.094 64.52,24.084 63.26,24.765 C61.919,25.49 60.384,24.658 59.47,22.97" id="Fill-15"></path>
            <path d="M11.196,82.58 L14.051,82.58 C14.671,82.58 15.444,82.235 15.444,81.472 C15.444,80.588 14.671,80.365 13.94,80.365 L12.639,80.365 C12.151,80.365 11.653,80.426 11.196,80.669 L11.196,82.58 Z M11.196,79.541 C11.653,79.277 12.141,79.236 12.639,79.236 L13.94,79.236 C14.621,79.236 15.068,78.891 15.068,78.19 C15.068,77.468 14.6,77.224 13.94,77.224 L11.196,77.224 L11.196,79.541 Z M13.94,83.688 L10.098,83.688 L10.098,76.107 L13.94,76.107 C15.22,76.107 16.175,76.848 16.175,78.18 C16.175,78.83 15.942,79.389 15.495,79.674 C16.023,79.917 16.541,80.568 16.541,81.614 C16.541,83.119 15.2,83.688 13.94,83.688 Z" id="Fill-16"></path>
            <polygon id="Fill-17" points="18.875 83.688 19.962 83.688 19.962 76.107 18.875 76.107"></polygon>
            <polyline id="Fill-18" points="25.671 77.224 25.671 83.688 24.594 83.688 24.594 77.224 21.891 77.224 21.891 76.107 28.344 76.107 28.344 77.224 25.671 77.224"></polyline>
            <path d="M36.054,77.915 C35.505,77.346 34.702,77.001 33.838,77.001 C32.151,77.001 30.851,78.21 30.851,79.917 C30.851,81.554 32.263,82.753 33.848,82.753 C34.834,82.753 35.708,82.295 36.257,81.564 L36.938,82.489 C36.175,83.342 35.058,83.861 33.838,83.861 C31.542,83.861 29.763,82.072 29.763,79.785 C29.763,77.549 31.674,75.883 33.848,75.883 C34.986,75.883 36.023,76.34 36.765,77.082 L36.054,77.915" id="Fill-19"></path>
            <path d="M42.635,77.001 C40.948,77.001 39.647,78.21 39.647,79.917 C39.647,81.554 41.06,82.753 42.645,82.753 C44.271,82.753 45.622,81.493 45.622,79.846 C45.622,78.18 44.25,77.001 42.635,77.001 Z M42.635,83.861 C40.338,83.861 38.56,82.072 38.56,79.785 C38.56,77.549 40.47,75.883 42.645,75.883 C44.891,75.883 46.72,77.641 46.72,79.907 C46.72,82.143 44.83,83.861 42.635,83.861 Z" id="Fill-20"></path>
            <polygon id="Fill-21" points="48.951 83.688 50.038 83.688 50.038 76.107 48.951 76.107"></polygon>
            <polyline id="Fill-22" points="52.12 76.107 53.553 76.107 58.42 81.899 58.42 76.107 59.539 76.107 59.539 83.688 58.441 83.688 54.091 78.474 54.091 83.688 53.004 83.688 53.004 77.174 52.12 76.107"></polyline>
            <polyline id="Fill-23" points="26.74 69.214 27.365 69.214 27.996 71.244 28.738 69.214 29.325 69.214 28.353 71.981 27.611 71.981 27.264 70.886 26.98 71.981 26.249 71.981 25.293 69.214 25.886 69.214 26.602 71.244 26.965 69.935 26.74 69.214"></polyline>
            <path d="M27.647,71.931 L28.317,71.931 L29.254,69.264 L28.773,69.264 L28.043,71.261 C28.035,71.281 28.017,71.294 27.996,71.294 C27.973,71.294 27.954,71.279 27.948,71.259 L27.329,69.264 L26.808,69.264 L27.013,69.92 C27.016,69.93 27.016,69.939 27.013,69.949 L26.65,71.257 C26.644,71.278 26.625,71.293 26.604,71.294 C26.603,71.294 26.602,71.294 26.602,71.294 C26.581,71.294 26.562,71.28 26.554,71.26 L25.851,69.264 L25.363,69.264 L26.285,71.931 L26.942,71.931 L27.215,70.873 C27.221,70.851 27.247,70.838 27.264,70.836 C27.286,70.836 27.305,70.85 27.312,70.871 L27.647,71.931 Z M28.353,72.031 L27.611,72.031 C27.589,72.031 27.57,72.017 27.563,71.996 L27.269,71.067 L27.029,71.993 C27.023,72.015 27.003,72.031 26.98,72.031 L26.249,72.031 C26.228,72.031 26.209,72.017 26.202,71.997 L25.246,69.231 C25.24,69.215 25.243,69.198 25.252,69.185 C25.262,69.172 25.277,69.164 25.293,69.164 L25.886,69.164 C25.907,69.164 25.926,69.178 25.933,69.198 L26.596,71.077 L26.913,69.936 L26.692,69.229 C26.688,69.214 26.69,69.197 26.7,69.185 C26.71,69.172 26.724,69.164 26.74,69.164 L27.365,69.164 C27.387,69.164 27.406,69.178 27.413,69.2 L28,71.088 L28.691,69.197 C28.698,69.177 28.717,69.164 28.738,69.164 L29.325,69.164 C29.341,69.164 29.356,69.172 29.366,69.185 C29.376,69.199 29.378,69.216 29.373,69.231 L28.4,71.997 C28.393,72.017 28.374,72.031 28.353,72.031 Z" id="Fill-24"></path>
            <polygon id="Fill-25" points="31.281 71.98 31.826 71.98 31.826 69.214 31.281 69.214"></polygon>
            <path d="M31.331,71.931 L31.776,71.931 L31.776,69.265 L31.331,69.265 L31.331,71.931 Z M31.826,72.031 L31.281,72.031 C31.253,72.031 31.231,72.008 31.231,71.981 L31.231,69.214 C31.231,69.187 31.253,69.164 31.281,69.164 L31.826,69.164 C31.854,69.164 31.876,69.187 31.876,69.214 L31.876,71.981 C31.876,72.008 31.854,72.031 31.826,72.031 Z" id="Fill-26"></path>
            <polyline id="Fill-27" points="35.307 69.764 35.307 71.981 34.757 71.981 34.757 69.764 33.753 69.764 33.753 69.214 36.348 69.214 36.348 69.764 35.307 69.764"></polyline>
            <path d="M34.807,71.931 L35.257,71.931 L35.257,69.764 C35.257,69.737 35.279,69.714 35.307,69.714 L36.298,69.714 L36.298,69.264 L33.803,69.264 L33.803,69.714 L34.757,69.714 C34.785,69.714 34.807,69.737 34.807,69.764 L34.807,71.931 Z M35.307,72.031 L34.757,72.031 C34.729,72.031 34.707,72.008 34.707,71.981 L34.707,69.814 L33.753,69.814 C33.725,69.814 33.703,69.792 33.703,69.764 L33.703,69.214 C33.703,69.187 33.725,69.164 33.753,69.164 L36.348,69.164 C36.376,69.164 36.398,69.187 36.398,69.214 L36.398,69.764 C36.398,69.792 36.376,69.814 36.348,69.814 L35.356,69.814 L35.356,71.981 C35.356,72.008 35.335,72.031 35.307,72.031 Z" id="Fill-28"></path>
            <path d="M38.821,71.981 L38.276,71.981 L38.276,69.214 L38.821,69.214 L38.821,70.32 C38.922,70.272 39.035,70.25 39.146,70.25 C39.376,70.25 39.702,70.331 39.98,70.331 C40.097,70.331 40.215,70.314 40.327,70.261 L40.327,69.214 L40.872,69.214 L40.872,71.981 L40.327,71.981 L40.327,70.822 C40.22,70.875 40.113,70.891 40.001,70.891 C39.713,70.891 39.44,70.816 39.168,70.816 C39.045,70.816 38.933,70.832 38.821,70.881 L38.821,71.981" id="Fill-29"></path>
            <path d="M40.377,71.931 L40.822,71.931 L40.822,69.264 L40.377,69.264 L40.377,70.261 C40.377,70.28 40.366,70.298 40.349,70.306 C40.242,70.357 40.125,70.381 39.98,70.381 C39.831,70.381 39.672,70.359 39.518,70.337 C39.381,70.318 39.252,70.3 39.146,70.3 C39.037,70.3 38.932,70.323 38.842,70.365 C38.827,70.372 38.809,70.371 38.794,70.362 C38.78,70.353 38.771,70.337 38.771,70.32 L38.771,69.264 L38.326,69.264 L38.326,71.931 L38.771,71.931 L38.771,70.881 C38.771,70.86 38.783,70.843 38.801,70.835 C38.91,70.788 39.026,70.766 39.168,70.766 C39.306,70.766 39.445,70.785 39.58,70.803 C39.717,70.822 39.858,70.841 40.001,70.841 C40.122,70.841 40.216,70.822 40.305,70.777 C40.32,70.769 40.338,70.77 40.354,70.779 C40.368,70.788 40.377,70.804 40.377,70.822 L40.377,71.931 Z M40.872,72.031 L40.327,72.031 C40.299,72.031 40.277,72.008 40.277,71.981 L40.277,70.897 C40.195,70.927 40.106,70.941 40.001,70.941 C39.852,70.941 39.707,70.922 39.566,70.903 C39.429,70.884 39.299,70.866 39.168,70.866 C39.052,70.866 38.959,70.881 38.871,70.914 L38.871,71.981 C38.871,72.008 38.849,72.031 38.821,72.031 L38.276,72.031 C38.249,72.031 38.227,72.008 38.227,71.981 L38.227,69.214 C38.227,69.187 38.249,69.164 38.276,69.164 L38.821,69.164 C38.849,69.164 38.871,69.187 38.871,69.214 L38.871,70.245 C39.055,70.181 39.271,70.202 39.532,70.238 C39.682,70.259 39.838,70.281 39.98,70.281 C40.096,70.281 40.192,70.264 40.277,70.229 L40.277,69.214 C40.277,69.187 40.299,69.164 40.327,69.164 L40.872,69.164 C40.899,69.164 40.921,69.187 40.921,69.214 L40.921,71.981 C40.921,72.008 40.899,72.031 40.872,72.031 Z" id="Fill-30"></path>
        </g>
    </g>
</svg>