<?xml version="1.0" encoding="UTF-8"?>
<svg width="79px" height="66px" viewBox="0 0 79 66" version="1.1" xmlns="http://www.w3.org/2000/svg" xmlns:xlink="http://www.w3.org/1999/xlink">
    <!-- Generator: Sketch 49 (51002) - http://www.bohemiancoding.com/sketch -->
    <title>bitcoin-grey-18</title>
    <desc>Created with Sketch.</desc>
    <defs></defs>
    <g id="Page-1" stroke="none" stroke-width="1" fill="none" fill-rule="evenodd">
        <g id="bitcoin-grey-18">
            <path d="M39.505,65.14 C37.41,65.14 35.444,64.327 33.969,62.85 L14.146,43.027 C11.093,39.974 11.092,35.009 14.145,31.955 L24.057,22.044 C24.058,22.044 24.058,22.044 24.058,22.044 L24.058,22.043 L33.97,12.131 C35.445,10.655 37.412,9.842 39.506,9.842 C41.6,9.842 43.565,10.655 45.042,12.131 L59.195,26.284 L59.195,26.285 L64.865,31.954 C66.342,33.431 67.154,35.397 67.154,37.491 C67.154,39.585 66.342,41.551 64.865,43.027 L45.041,62.85 C43.564,64.327 41.599,65.14 39.505,65.14 Z M16.51,23.826 C16.293,23.826 16.089,23.741 15.935,23.588 C15.781,23.434 15.697,23.231 15.697,23.013 C15.697,22.797 15.781,22.593 15.935,22.44 C16.088,22.285 16.292,22.201 16.51,22.201 C16.727,22.201 16.931,22.286 17.084,22.44 C17.401,22.756 17.4,23.272 17.084,23.589 C16.931,23.741 16.727,23.826 16.51,23.826 Z M19.664,18.462 C19.447,18.462 19.243,18.377 19.089,18.223 C18.935,18.071 18.852,17.867 18.852,17.65 C18.852,17.432 18.935,17.229 19.089,17.075 C19.243,16.923 19.447,16.838 19.664,16.838 C19.881,16.838 20.085,16.923 20.238,17.075 C20.392,17.229 20.477,17.432 20.477,17.65 C20.477,17.867 20.392,18.071 20.238,18.223 C20.085,18.378 19.881,18.462 19.664,18.462 Z M25.028,15.307 C24.812,15.307 24.607,15.223 24.453,15.069 C24.3,14.916 24.216,14.712 24.216,14.495 C24.216,14.278 24.3,14.075 24.454,13.921 C24.606,13.768 24.811,13.682 25.027,13.682 C25.245,13.682 25.449,13.768 25.603,13.921 C25.919,14.238 25.919,14.753 25.603,15.07 C25.449,15.223 25.245,15.307 25.028,15.307 Z M53.391,13.904 C53.544,13.75 53.748,13.665 53.966,13.665 C54.183,13.665 54.387,13.75 54.54,13.904 C54.694,14.056 54.778,14.261 54.778,14.478 C54.778,14.695 54.693,14.899 54.54,15.053 C54.387,15.205 54.183,15.29 53.966,15.29 C53.749,15.29 53.545,15.205 53.392,15.053 C53.074,14.736 53.074,14.219 53.391,13.904 Z M58.755,17.057 C58.909,16.905 59.113,16.821 59.33,16.821 C59.547,16.821 59.751,16.905 59.904,17.057 C60.058,17.211 60.143,17.416 60.143,17.632 C60.143,17.849 60.058,18.053 59.904,18.206 C59.751,18.361 59.547,18.445 59.33,18.445 C59.113,18.445 58.909,18.36 58.755,18.205 C58.602,18.053 58.518,17.849 58.518,17.632 C58.518,17.416 58.602,17.212 58.755,17.057 Z M61.909,22.423 C62.062,22.268 62.268,22.183 62.484,22.183 C62.701,22.183 62.905,22.268 63.059,22.423 C63.213,22.575 63.297,22.779 63.297,22.995 C63.297,23.213 63.213,23.417 63.059,23.571 C62.905,23.723 62.701,23.808 62.484,23.808 C62.268,23.808 62.063,23.723 61.909,23.57 C61.756,23.417 61.672,23.213 61.672,22.995 C61.672,22.779 61.756,22.575 61.909,22.423 Z M65.396,31.424 L59.99,26.02 L61.645,24.366 C61.656,24.354 61.652,24.335 61.663,24.322 C61.914,24.476 62.198,24.558 62.484,24.558 C62.884,24.558 63.284,24.406 63.589,24.1 C64.199,23.491 64.199,22.501 63.589,21.891 C63.284,21.586 62.885,21.433 62.484,21.433 C62.085,21.433 61.685,21.587 61.379,21.891 C60.856,22.414 60.785,23.215 61.158,23.817 C61.146,23.827 61.126,23.823 61.114,23.836 L59.46,25.489 L55.731,21.761 L58.49,19.002 C58.502,18.989 58.498,18.971 58.509,18.957 C58.76,19.113 59.044,19.195 59.33,19.195 C59.729,19.195 60.13,19.042 60.435,18.737 C61.045,18.128 61.044,17.137 60.435,16.528 C60.13,16.223 59.729,16.07 59.33,16.07 C58.93,16.07 58.53,16.223 58.225,16.528 C57.702,17.051 57.631,17.85 58.004,18.452 C57.991,18.463 57.972,18.46 57.96,18.471 L55.201,21.23 L51.473,17.502 L53.126,15.848 C53.138,15.836 53.134,15.817 53.145,15.803 C53.396,15.96 53.68,16.04 53.966,16.04 C54.365,16.04 54.766,15.888 55.07,15.583 C55.681,14.972 55.681,13.983 55.07,13.373 C54.766,13.068 54.365,12.916 53.966,12.916 C53.565,12.916 53.166,13.068 52.86,13.373 C52.338,13.896 52.267,14.697 52.641,15.299 C52.627,15.31 52.608,15.305 52.596,15.318 L50.942,16.971 L45.572,11.6 C43.954,9.983 41.8,9.092 39.506,9.092 C37.211,9.092 35.057,9.983 33.439,11.6 L28.052,16.989 L26.398,15.334 C26.386,15.322 26.367,15.326 26.354,15.316 C26.727,14.714 26.655,13.914 26.133,13.39 C25.828,13.086 25.428,12.932 25.027,12.932 C24.628,12.932 24.228,13.086 23.923,13.39 C23.312,14 23.312,14.99 23.923,15.599 C24.229,15.905 24.628,16.057 25.028,16.057 C25.314,16.057 25.599,15.976 25.85,15.821 C25.859,15.834 25.856,15.852 25.868,15.865 L27.521,17.519 L23.792,21.248 L21.034,18.489 C21.021,18.478 21.003,18.481 20.989,18.471 C21.363,17.868 21.291,17.068 20.769,16.545 C20.464,16.24 20.064,16.088 19.664,16.088 C19.264,16.088 18.864,16.24 18.559,16.545 C17.948,17.156 17.948,18.145 18.559,18.754 C18.864,19.06 19.264,19.212 19.664,19.212 C19.949,19.212 20.234,19.131 20.485,18.974 C20.495,18.989 20.491,19.008 20.504,19.02 L23.262,21.778 L19.532,25.507 L17.88,23.853 C17.867,23.841 17.849,23.845 17.835,23.835 C18.208,23.232 18.138,22.432 17.614,21.909 C17.31,21.604 16.909,21.451 16.51,21.451 C16.109,21.451 15.71,21.604 15.404,21.908 C14.794,22.519 14.794,23.508 15.404,24.119 C15.71,24.424 16.109,24.576 16.51,24.576 C16.795,24.576 17.08,24.495 17.331,24.339 C17.341,24.352 17.337,24.371 17.35,24.384 L19.002,26.037 L13.614,31.425 C10.27,34.77 10.27,40.212 13.615,43.557 L33.438,63.381 C35.056,65 37.21,65.89 39.505,65.89 C41.799,65.89 43.953,65 45.571,63.381 L65.396,43.557 C67.014,41.94 67.904,39.785 67.904,37.491 C67.904,35.197 67.014,33.042 65.396,31.424 Z" id="Fill-1" fill="#000000"></path>
            <path d="M35.42,61.401 L15.596,41.577 C14.509,40.491 13.911,39.04 13.91,37.492 C13.91,35.944 14.509,34.492 15.596,33.406 L35.42,13.582 C36.506,12.494 37.957,11.897 39.505,11.897 C41.054,11.897 42.505,12.494 43.592,13.582 L63.415,33.406 C64.502,34.492 65.1,35.943 65.1,37.491 C65.1,39.04 64.501,40.491 63.415,41.577 L43.592,61.401 C42.505,62.487 41.053,63.086 39.505,63.086 C37.957,63.086 36.506,62.487 35.42,61.401 Z M63.945,32.876 L44.122,13.051 C42.894,11.823 41.254,11.147 39.505,11.147 C37.757,11.147 36.117,11.823 34.89,13.051 L15.065,32.876 C13.837,34.104 13.16,35.743 13.16,37.492 C13.161,39.24 13.837,40.88 15.065,42.107 L34.89,61.931 C36.117,63.159 37.756,63.836 39.505,63.836 C41.253,63.836 42.894,63.159 44.122,61.931 L63.945,42.107 C65.173,40.879 65.85,39.239 65.85,37.491 C65.85,35.743 65.174,34.104 63.945,32.876 Z" id="Fill-2" fill="#000000"></path>
            <path d="M27.404,49.594 C24.163,46.353 22.51,42.124 22.417,37.867 L24.577,37.867 C24.672,41.724 26.2,45.336 28.932,48.066 C31.662,50.798 35.273,52.327 39.13,52.422 L39.13,54.579 C34.695,54.485 30.542,52.732 27.404,49.594 Z M27.403,25.39 C30.542,22.252 34.695,20.5 39.13,20.404 L39.13,22.563 C35.273,22.658 31.662,24.188 28.932,26.918 C26.2,29.65 24.671,33.26 24.577,37.117 L22.417,37.117 C22.509,32.861 24.162,28.632 27.403,25.39 Z M39.504,14.887 C39.822,14.887 40.122,15.011 40.348,15.236 C40.812,15.699 40.812,16.455 40.348,16.921 C40.216,17.052 40.053,17.133 39.88,17.188 C39.637,17.265 39.374,17.265 39.13,17.188 C38.958,17.133 38.795,17.052 38.663,16.92 C38.198,16.455 38.197,15.7 38.662,15.236 C38.887,15.011 39.187,14.887 39.504,14.887 Z M51.607,25.39 C54.746,28.529 56.499,32.682 56.594,37.118 L54.435,37.118 C54.343,33.413 52.9,29.738 50.081,26.917 C47.35,24.186 43.738,22.657 39.88,22.563 L39.88,20.404 C44.316,20.5 48.469,22.252 51.607,25.39 Z M60.919,36.301 C61.237,36.301 61.537,36.425 61.763,36.65 C62.227,37.114 62.226,37.869 61.762,38.334 C61.312,38.784 60.526,38.784 60.077,38.336 C59.942,38.2 59.858,38.037 59.802,37.868 C59.721,37.624 59.721,37.363 59.802,37.118 C59.857,36.947 59.941,36.784 60.077,36.649 C60.302,36.424 60.601,36.301 60.919,36.301 Z M51.606,49.593 C48.468,52.732 44.315,54.485 39.88,54.579 L39.88,52.422 C43.737,52.327 47.348,50.798 50.079,48.066 C52.898,45.246 54.342,41.571 54.435,37.868 L56.594,37.868 C56.498,42.303 54.744,46.456 51.606,49.593 Z M27.484,37.867 C27.576,40.825 28.736,43.757 30.989,46.008 C33.172,48.192 36.052,49.42 39.13,49.514 L39.13,51.672 C35.474,51.577 32.051,50.126 29.462,47.536 C26.872,44.947 25.422,41.525 25.327,37.867 L27.484,37.867 Z M39.13,25.471 C36.051,25.565 33.171,26.793 30.988,28.975 C28.735,31.228 27.575,34.159 27.484,37.117 L25.327,37.117 C25.421,33.461 26.872,30.038 29.462,27.449 C32.051,24.859 35.474,23.408 39.13,23.313 L39.13,25.471 Z M51.525,37.118 C51.435,34.16 50.274,31.229 48.022,28.975 C45.84,26.793 42.959,25.566 39.88,25.471 L39.88,23.313 C43.538,23.407 46.961,24.858 49.551,27.447 C52.224,30.121 53.594,33.606 53.685,37.118 L51.525,37.118 Z M39.88,49.514 C42.959,49.42 45.839,48.192 48.021,46.008 C50.273,43.757 51.434,40.825 51.525,37.868 L53.685,37.868 C53.592,41.379 52.222,44.862 49.549,47.536 C46.959,50.126 43.537,51.577 39.88,51.672 L39.88,49.514 Z M30.389,37.867 C30.481,40.166 31.41,42.316 33.047,43.951 C34.683,45.589 36.832,46.516 39.13,46.609 L39.13,48.764 C36.252,48.67 33.561,47.52 31.52,45.478 C29.413,43.371 28.325,40.633 28.234,37.867 L30.389,37.867 Z M39.13,28.376 C36.832,28.469 34.683,29.397 33.046,31.033 C31.409,32.67 30.48,34.82 30.389,37.117 L28.234,37.117 C28.325,34.352 29.412,31.613 31.519,29.506 C33.56,27.465 36.251,26.315 39.13,26.221 L39.13,28.376 Z M48.622,37.118 C48.529,34.82 47.6,32.671 45.964,31.035 C44.327,29.398 42.178,28.469 39.88,28.376 L39.88,26.221 C42.759,26.316 45.451,27.465 47.492,29.506 C49.598,31.613 50.685,34.351 50.775,37.118 L48.622,37.118 Z M39.88,46.609 C42.178,46.515 44.327,45.588 45.964,43.951 C47.601,42.315 48.529,40.165 48.622,37.868 L50.775,37.868 C50.685,40.634 49.597,43.372 47.491,45.478 C45.45,47.52 42.759,48.67 39.88,48.764 L39.88,46.609 Z M36.969,42.755 L41.731,42.755 L41.731,45.572 C41.132,45.736 40.513,45.83 39.88,45.859 C39.755,45.865 39.631,45.877 39.505,45.877 C39.379,45.877 39.255,45.865 39.13,45.859 C38.388,45.827 37.663,45.703 36.97,45.485 L36.969,42.755 Z M35.56,37.867 L43.429,37.867 C43.434,37.867 43.438,37.868 43.442,37.868 C43.989,37.871 44.504,38.085 44.891,38.472 C45.282,38.864 45.497,39.384 45.497,39.936 C45.497,41.076 44.569,42.005 43.429,42.005 L42.238,42.005 C42.197,41.989 42.153,41.978 42.106,41.978 C42.059,41.978 42.015,41.989 41.974,42.005 L36.728,42.005 C36.686,41.989 36.642,41.978 36.594,41.978 C36.547,41.978 36.502,41.989 36.461,42.005 L35.561,42.005 L35.56,37.867 Z M39.13,32.982 L42.268,32.982 C43.407,32.982 44.334,33.909 44.334,35.049 C44.334,36.188 43.409,37.113 42.271,37.116 L35.56,37.116 L35.559,32.982 L39.13,32.982 Z M47.89,37.493 C47.89,37.619 47.877,37.743 47.872,37.868 C47.779,39.965 46.929,41.926 45.434,43.421 C44.581,44.273 43.575,44.911 42.481,45.327 L42.481,42.755 L43.429,42.755 C44.983,42.755 46.247,41.49 46.247,39.936 C46.247,39.183 45.954,38.475 45.422,37.942 C45.394,37.913 45.36,37.894 45.332,37.868 C44.97,37.535 44.539,37.305 44.068,37.197 C44.101,37.17 44.134,37.146 44.164,37.118 C44.726,36.601 45.084,35.869 45.084,35.049 C45.084,33.569 43.933,32.365 42.481,32.254 L42.481,29.659 C43.574,30.073 44.581,30.712 45.434,31.565 C46.928,33.06 47.779,35.02 47.872,37.118 C47.877,37.243 47.89,37.367 47.89,37.493 Z M39.13,29.126 C39.255,29.12 39.379,29.108 39.504,29.108 C39.631,29.108 39.755,29.12 39.88,29.126 C40.513,29.154 41.133,29.249 41.731,29.414 L41.731,32.232 L36.97,32.232 L36.97,29.5 C37.663,29.281 38.389,29.159 39.13,29.126 Z M31.12,37.492 C31.12,37.367 31.133,37.243 31.139,37.117 C31.23,35.02 32.082,33.058 33.576,31.564 C34.348,30.792 35.245,30.192 36.22,29.777 L36.22,32.232 L33.954,32.232 C33.747,32.232 33.579,32.4 33.579,32.607 C33.579,32.814 33.747,32.982 33.954,32.982 L34.809,32.982 L34.81,36.002 L34.81,37.486 C34.81,37.489 34.809,37.489 34.809,37.491 C34.809,37.493 34.81,37.495 34.81,37.496 L34.81,37.867 L34.811,38.976 L34.811,42.005 L33.953,42.005 C33.746,42.005 33.578,42.173 33.578,42.38 C33.578,42.587 33.746,42.755 33.953,42.755 L36.219,42.755 L36.22,45.208 C35.245,44.792 34.349,44.193 33.577,43.421 C32.082,41.927 31.231,39.965 31.139,37.867 C31.133,37.743 31.12,37.619 31.12,37.492 Z M38.663,59.75 C38.438,59.525 38.313,59.225 38.313,58.907 C38.313,58.588 38.438,58.29 38.662,58.065 C38.795,57.932 38.957,57.847 39.13,57.79 C39.25,57.749 39.374,57.716 39.504,57.716 C39.635,57.716 39.76,57.749 39.88,57.79 C40.053,57.848 40.215,57.932 40.348,58.065 C40.812,58.529 40.811,59.284 40.347,59.749 C39.897,60.199 39.111,60.199 38.663,59.75 Z M19.282,37.493 C19.282,37.624 19.248,37.746 19.208,37.867 C19.15,38.04 19.065,38.202 18.933,38.334 C18.483,38.784 17.697,38.784 17.248,38.334 C17.023,38.111 16.899,37.812 16.899,37.492 C16.899,37.173 17.023,36.874 17.247,36.65 C17.472,36.424 17.772,36.3 18.089,36.3 C18.408,36.3 18.707,36.424 18.933,36.651 C19.065,36.783 19.15,36.945 19.208,37.117 C19.248,37.238 19.282,37.362 19.282,37.493 Z M39.88,57.019 L39.88,55.329 C44.516,55.235 48.856,53.404 52.137,50.124 C55.416,46.844 57.247,42.503 57.343,37.868 L59.016,37.868 C59.088,38.234 59.265,38.583 59.547,38.866 C59.914,39.232 60.4,39.433 60.919,39.433 C61.437,39.433 61.925,39.232 62.292,38.864 C63.049,38.107 63.049,36.876 62.293,36.12 C61.558,35.387 60.28,35.386 59.547,36.119 C59.264,36.403 59.087,36.752 59.016,37.118 L57.343,37.118 C57.249,32.482 55.418,28.14 52.138,24.861 C48.857,21.58 44.516,19.749 39.88,19.654 L39.88,17.982 C40.256,17.909 40.602,17.728 40.878,17.451 C41.635,16.693 41.635,15.461 40.878,14.706 C40.144,13.972 38.866,13.971 38.132,14.704 C37.375,15.462 37.375,16.695 38.133,17.451 C38.409,17.728 38.754,17.909 39.13,17.982 L39.13,19.654 C34.495,19.749 30.153,21.58 26.873,24.861 C23.485,28.248 21.76,32.669 21.667,37.117 L19.995,37.117 C19.922,36.742 19.74,36.397 19.463,36.12 C18.731,35.387 17.452,35.385 16.717,36.119 C16.351,36.485 16.149,36.973 16.149,37.492 C16.15,38.012 16.352,38.5 16.718,38.865 C17.084,39.232 17.571,39.432 18.09,39.432 C18.609,39.432 19.097,39.232 19.462,38.865 C19.739,38.589 19.922,38.243 19.995,37.867 L21.667,37.867 C21.761,42.316 23.486,46.736 26.874,50.124 C30.153,53.404 34.495,55.235 39.13,55.329 L39.13,57.018 C38.759,57.087 38.407,57.259 38.132,57.535 C37.766,57.901 37.563,58.388 37.563,58.907 C37.563,59.426 37.766,59.914 38.133,60.281 C38.498,60.646 38.985,60.848 39.504,60.848 C40.022,60.848 40.51,60.646 40.877,60.28 C41.634,59.522 41.634,58.292 40.878,57.535 C40.603,57.259 40.251,57.088 39.88,57.019 Z" id="Fill-3" fill="#000000"></path>
            <path d="M39.069,16.451 L39.131,16.451 L39.131,16.512 C39.131,16.719 39.299,16.887 39.506,16.887 C39.712,16.887 39.877,16.721 39.88,16.516 C39.88,16.515 39.881,16.514 39.881,16.512 L39.881,16.451 L39.94,16.451 C40.147,16.451 40.315,16.283 40.315,16.076 C40.315,15.869 40.147,15.701 39.94,15.701 L39.881,15.701 L39.881,15.64 C39.881,15.433 39.713,15.265 39.506,15.265 C39.299,15.265 39.131,15.433 39.131,15.64 L39.131,15.701 L39.069,15.701 C38.862,15.701 38.694,15.869 38.694,16.076 C38.694,16.283 38.862,16.451 39.069,16.451" id="Fill-4" fill="#000000"></path>
            <path d="M18.53,37.117 C18.529,37.117 18.527,37.116 18.525,37.116 L18.465,37.116 L18.465,37.057 C18.465,36.85 18.297,36.682 18.09,36.682 C17.883,36.682 17.715,36.85 17.715,37.057 L17.715,37.117 L17.654,37.117 C17.447,37.118 17.279,37.286 17.279,37.493 C17.279,37.7 17.447,37.867 17.654,37.867 L17.715,37.867 L17.715,37.928 C17.715,38.135 17.883,38.303 18.09,38.303 C18.297,38.303 18.465,38.135 18.465,37.928 L18.465,37.867 L18.526,37.867 C18.733,37.867 18.9,37.698 18.9,37.491 C18.9,37.285 18.735,37.12 18.53,37.117" id="Fill-5" fill="#000000"></path>
            <path d="M60.484,37.866 L60.544,37.866 L60.544,37.925 C60.544,38.133 60.727,38.303 60.919,38.301 C61.126,38.301 61.294,38.133 61.294,37.927 L61.294,37.866 L61.355,37.866 C61.563,37.866 61.73,37.698 61.73,37.491 C61.73,37.284 61.563,37.116 61.355,37.116 L61.296,37.116 L61.296,37.057 C61.297,36.85 61.142,36.695 60.921,36.681 C60.715,36.681 60.547,36.848 60.546,37.055 L60.546,37.116 L60.484,37.116 C60.481,37.116 60.479,37.118 60.475,37.118 C60.272,37.124 60.109,37.287 60.109,37.491 C60.109,37.698 60.277,37.866 60.484,37.866" id="Fill-6" fill="#000000"></path>
            <path d="M39.939,58.531 L39.879,58.531 L39.879,58.473 C39.879,58.265 39.712,58.098 39.505,58.097 L39.504,58.097 C39.299,58.097 39.133,58.263 39.13,58.467 C39.13,58.469 39.129,58.47 39.129,58.472 L39.129,58.532 L39.068,58.532 C38.861,58.532 38.693,58.7 38.693,58.907 C38.693,59.115 38.861,59.282 39.068,59.282 L39.128,59.282 L39.128,59.342 C39.128,59.548 39.296,59.717 39.503,59.717 C39.71,59.717 39.878,59.55 39.878,59.343 L39.878,59.281 L39.94,59.281 C40.147,59.281 40.314,59.113 40.314,58.906 C40.314,58.699 40.146,58.531 39.939,58.531" id="Fill-7" fill="#000000"></path>
            <path d="M62.513,47.692 C61.072,51.211 59.631,54.73 58.19,58.25 C62.583,60.049 66.772,62.507 70.609,65.627 C70.343,62.96 69.855,60.252 69.139,57.535 C71.903,57.047 74.801,56.782 77.805,56.774 C73.08,52.932 67.922,49.906 62.513,47.692" id="Fill-8" fill="#FFFFFF"></path>
            <path d="M58.679,58.047 C62.778,59.761 66.628,62.02 70.139,64.771 C69.858,62.396 69.401,59.998 68.776,57.631 C68.75,57.53 68.767,57.422 68.823,57.333 C68.88,57.245 68.971,57.184 69.074,57.166 C71.572,56.724 74.15,56.471 76.752,56.413 C72.455,53.04 67.74,50.274 62.718,48.182 L58.679,58.047 Z M70.609,66.002 C70.525,66.002 70.441,65.973 70.373,65.918 C66.633,62.877 62.487,60.414 58.048,58.597 C57.856,58.519 57.765,58.3 57.843,58.108 L62.166,47.549 C62.245,47.358 62.463,47.267 62.655,47.344 C68.197,49.613 73.374,52.687 78.041,56.483 C78.164,56.583 78.211,56.75 78.158,56.899 C78.105,57.049 77.964,57.149 77.806,57.149 C75.029,57.156 72.273,57.387 69.604,57.836 C70.262,60.409 70.726,63.016 70.982,65.59 C70.998,65.74 70.92,65.885 70.787,65.957 C70.731,65.987 70.67,66.002 70.609,66.002 Z" id="Fill-9" fill="#000000"></path>
            <path d="M8.401,65.627 C12.238,62.507 16.427,60.049 20.819,58.251 C19.378,54.731 17.938,51.212 16.497,47.692 C11.088,49.906 5.93,52.932 1.206,56.774 C4.21,56.783 7.107,57.047 9.872,57.535 C9.155,60.25 8.668,62.96 8.401,65.627" id="Fill-10" fill="#FFFFFF"></path>
            <path d="M2.259,56.413 C4.863,56.472 7.44,56.725 9.937,57.166 C10.04,57.184 10.131,57.245 10.187,57.333 C10.244,57.422 10.261,57.53 10.234,57.631 C9.61,59.996 9.153,62.394 8.872,64.771 C12.383,62.02 16.232,59.761 20.331,58.047 L16.292,48.182 C11.269,50.275 6.555,53.04 2.259,56.413 Z M8.401,66.002 C8.34,66.002 8.279,65.987 8.224,65.957 C8.09,65.885 8.013,65.74 8.028,65.59 C8.285,63.014 8.749,60.407 9.406,57.836 C6.74,57.388 3.983,57.157 1.205,57.149 C1.046,57.149 0.905,57.049 0.853,56.899 C0.8,56.75 0.847,56.583 0.969,56.483 C5.636,52.688 10.813,49.613 16.354,47.344 C16.446,47.307 16.55,47.308 16.642,47.346 C16.733,47.384 16.806,47.458 16.844,47.549 L21.167,58.109 C21.245,58.3 21.153,58.519 20.961,58.598 C16.523,60.415 12.377,62.877 8.638,65.918 C8.57,65.973 8.486,66.002 8.401,66.002 Z" id="Fill-11" fill="#000000"></path>
            <path d="M67.779,52.455 C67.688,52.455 67.597,52.422 67.525,52.355 C67.428,52.266 67.389,52.138 67.41,52.017 C67.336,51.884 66.935,51.347 64.878,50.144 C62.315,48.645 62.186,48.061 62.143,47.869 C62.099,47.671 62.163,47.539 62.205,47.479 C62.323,47.308 62.555,47.265 62.727,47.383 C62.843,47.464 62.9,47.598 62.887,47.729 C62.95,47.848 63.314,48.361 65.257,49.497 C67.756,50.958 68.113,51.585 68.165,51.929 C68.198,52.151 68.099,52.286 68.055,52.334 C67.981,52.414 67.88,52.455 67.779,52.455" id="Fill-12" fill="#000000"></path>
            <path d="M11.248,52.455 C11.147,52.455 11.046,52.414 10.972,52.334 C10.928,52.286 10.83,52.151 10.863,51.929 C10.914,51.585 11.271,50.958 13.771,49.497 C15.713,48.361 16.077,47.848 16.141,47.729 C16.127,47.598 16.184,47.464 16.3,47.383 C16.472,47.265 16.705,47.308 16.822,47.479 C16.864,47.539 16.928,47.671 16.884,47.869 C16.841,48.061 16.712,48.645 14.149,50.144 C12.093,51.347 11.691,51.884 11.618,52.017 C11.638,52.138 11.599,52.266 11.502,52.355 C11.43,52.422 11.339,52.455 11.248,52.455" id="Fill-13" fill="#000000"></path>
            <path d="M11.156,51.918 C29.272,44.222 49.739,44.222 67.855,51.918 C66.025,56.225 64.196,60.531 62.367,64.837 C47.758,58.631 31.253,58.631 16.644,64.837 C14.814,60.531 12.985,56.225 11.156,51.918" id="Fill-14" fill="#FFFFFF"></path>
            <path d="M11.648,52.118 L16.843,64.346 C24.058,61.335 31.681,59.808 39.505,59.808 C47.33,59.808 54.953,61.335 62.168,64.346 L67.362,52.118 C58.495,48.404 49.126,46.521 39.505,46.521 C29.885,46.521 20.515,48.404 11.648,52.118 Z M16.644,65.212 C16.498,65.212 16.359,65.126 16.298,64.984 L10.81,52.065 C10.772,51.973 10.771,51.87 10.808,51.778 C10.845,51.686 10.918,51.612 11.009,51.573 C20.072,47.723 29.659,45.771 39.505,45.771 C49.352,45.771 58.939,47.723 68.001,51.573 C68.192,51.654 68.281,51.874 68.2,52.065 L62.712,64.984 C62.673,65.075 62.6,65.148 62.508,65.185 C62.415,65.222 62.313,65.221 62.221,65.182 C54.997,62.114 47.354,60.558 39.505,60.558 C31.657,60.558 24.014,62.114 16.79,65.182 C16.742,65.203 16.692,65.212 16.644,65.212 Z" id="Fill-15" fill="#000000"></path>
            <path d="M21.133,57.552 C21.002,57.592 20.871,57.632 20.74,57.672 C20.39,56.536 20.04,55.399 19.691,54.263 C19.971,54.176 20.252,54.093 20.532,54.01 C20.781,54.441 21.027,54.872 21.271,55.305 C21.306,55.296 21.34,55.286 21.374,55.276 C21.351,54.78 21.331,54.282 21.313,53.786 C21.596,53.707 21.877,53.63 22.16,53.554 C22.466,54.703 22.772,55.852 23.078,57.001 C22.946,57.036 22.813,57.072 22.682,57.107 C22.4,56.077 22.119,55.047 21.837,54.017 C21.808,54.025 21.778,54.033 21.749,54.041 C21.766,54.537 21.786,55.033 21.808,55.53 C21.551,55.601 21.294,55.676 21.038,55.75 C20.794,55.318 20.547,54.887 20.299,54.457 C20.27,54.466 20.24,54.475 20.21,54.484 C20.518,55.507 20.826,56.53 21.133,57.552" id="Fill-16" fill="#000000"></path>
            <path d="M19.753,54.296 C20.093,55.4 20.433,56.505 20.773,57.609 C20.872,57.579 20.971,57.549 21.071,57.519 L20.148,54.45 L20.196,54.436 C20.226,54.427 20.255,54.418 20.284,54.409 L20.322,54.397 L20.342,54.432 C20.584,54.851 20.824,55.27 21.062,55.691 C21.293,55.624 21.524,55.557 21.756,55.492 C21.735,55.009 21.715,54.526 21.699,54.042 L21.697,54.003 L21.872,53.955 L22.717,57.046 L23.017,56.965 L22.125,53.616 C21.871,53.683 21.618,53.753 21.365,53.823 C21.382,54.306 21.402,54.791 21.424,55.274 L21.426,55.313 L21.388,55.324 C21.352,55.334 21.318,55.344 21.285,55.353 L21.247,55.363 L21.228,55.33 C20.99,54.908 20.751,54.489 20.509,54.069 C20.257,54.144 20.005,54.218 19.753,54.296 Z M20.707,57.734 L20.692,57.686 C20.342,56.55 19.992,55.414 19.643,54.278 L19.628,54.23 L19.676,54.215 C19.956,54.128 20.237,54.045 20.518,53.962 L20.556,53.951 L20.576,53.985 C20.818,54.405 21.058,54.824 21.296,55.246 C21.305,55.244 21.313,55.241 21.322,55.239 C21.3,54.756 21.281,54.271 21.264,53.788 L21.262,53.748 L21.3,53.738 C21.583,53.659 21.864,53.581 22.147,53.506 L22.196,53.493 L22.209,53.541 L23.139,57.036 L22.646,57.168 L21.802,54.078 L21.8,54.079 C21.817,54.562 21.836,55.045 21.857,55.527 L21.859,55.567 L21.821,55.578 C21.564,55.649 21.308,55.724 21.052,55.798 L21.014,55.809 L20.995,55.775 C20.757,55.354 20.517,54.935 20.275,54.516 C20.274,54.517 20.273,54.517 20.273,54.517 L21.195,57.585 L21.147,57.6 C21.017,57.639 20.885,57.679 20.754,57.719 L20.707,57.734 Z" id="Fill-17" fill="#000000"></path>
            <path d="M23.342,53.624 C23.269,53.626 23.195,53.63 23.122,53.632 C23.096,53.53 23.07,53.427 23.044,53.325 C23.324,53.255 23.604,53.186 23.885,53.119 C23.909,53.222 23.934,53.325 23.958,53.428 C23.892,53.458 23.826,53.49 23.76,53.522 C23.982,54.442 24.205,55.363 24.427,56.284 C24.498,56.282 24.568,56.281 24.638,56.28 C24.663,56.383 24.687,56.485 24.711,56.588 C24.446,56.651 24.181,56.717 23.916,56.783 C23.89,56.681 23.864,56.578 23.838,56.476 C23.901,56.443 23.964,56.413 24.027,56.382 C23.799,55.462 23.57,54.543 23.342,53.624" id="Fill-18" fill="#000000"></path>
            <path d="M23.896,56.503 L23.952,56.723 L23.978,56.717 C24.202,56.661 24.426,56.605 24.651,56.551 L24.598,56.33 C24.542,56.331 24.485,56.332 24.429,56.334 L24.388,56.335 L24.378,56.296 L23.702,53.494 L23.758,53.467 C23.805,53.444 23.853,53.421 23.9,53.4 L23.848,53.179 C23.6,53.239 23.353,53.299 23.105,53.361 L23.161,53.581 L23.192,53.58 C23.242,53.577 23.292,53.575 23.341,53.574 L23.381,53.573 L23.391,53.612 L24.085,56.409 L23.995,56.454 C23.962,56.47 23.93,56.486 23.896,56.503 Z M23.88,56.844 L23.78,56.45 L23.815,56.432 C23.86,56.408 23.906,56.386 23.951,56.364 L23.969,56.355 L23.304,53.675 C23.268,53.676 23.232,53.678 23.197,53.679 L23.084,53.684 L22.984,53.289 L23.032,53.276 C23.312,53.206 23.592,53.138 23.873,53.07 L23.922,53.059 L24.016,53.456 L23.979,53.474 C23.925,53.498 23.872,53.523 23.818,53.549 L24.466,56.233 C24.523,56.232 24.581,56.231 24.637,56.23 L24.677,56.229 L24.77,56.617 L24.723,56.637 C24.482,56.694 24.242,56.754 24.002,56.813 L23.88,56.844 Z" id="Fill-19" fill="#000000"></path>
            <path d="M25.956,56.305 C25.822,56.333 25.689,56.363 25.556,56.393 C25.296,55.233 25.036,54.073 24.776,52.913 C25.052,52.851 25.328,52.791 25.604,52.733 C26.015,53.737 26.417,54.745 26.809,55.756 C26.836,55.75 26.863,55.745 26.89,55.74 C26.68,54.694 26.47,53.646 26.26,52.598 C26.401,52.571 26.542,52.542 26.683,52.514 C26.909,53.681 27.136,54.848 27.362,56.016 C27.092,56.068 26.824,56.122 26.555,56.177 C26.16,55.169 25.756,54.162 25.343,53.159 C25.321,53.165 25.298,53.169 25.275,53.174 C25.502,54.217 25.729,55.261 25.956,56.305" id="Fill-20" fill="#000000"></path>
            <path d="M24.836,52.951 L24.84,52.97 C25.091,54.091 25.342,55.212 25.594,56.333 C25.695,56.31 25.795,56.288 25.896,56.267 L25.216,53.135 L25.289,53.12 C25.303,53.117 25.317,53.114 25.331,53.11 L25.373,53.1 L25.39,53.14 C25.786,54.105 26.189,55.107 26.586,56.12 C26.825,56.071 27.064,56.023 27.303,55.976 L26.644,52.573 L26.319,52.638 L26.949,55.779 L26.778,55.813 L26.763,55.774 C26.382,54.793 25.982,53.79 25.574,52.79 C25.328,52.842 25.082,52.896 24.836,52.951 Z M25.519,56.453 L25.507,56.404 C25.252,55.267 24.998,54.129 24.743,52.992 L24.717,52.875 L24.766,52.864 C25.042,52.802 25.318,52.742 25.594,52.684 L25.635,52.675 L25.651,52.714 C26.052,53.695 26.444,54.681 26.819,55.644 L26.201,52.559 L26.723,52.455 L26.732,52.505 L27.42,56.055 L27.371,56.065 C27.102,56.117 26.834,56.171 26.565,56.227 L26.524,56.235 L26.509,56.196 C26.128,55.225 25.742,54.264 25.362,53.335 L26.015,56.343 L25.966,56.354 C25.833,56.382 25.7,56.411 25.567,56.442 L25.519,56.453 Z" id="Fill-21" fill="#000000"></path>
            <path d="M27.854,52.666 C27.781,52.664 27.708,52.661 27.635,52.659 C27.616,52.556 27.598,52.451 27.579,52.347 C27.861,52.296 28.145,52.248 28.428,52.2 C28.445,52.304 28.463,52.41 28.48,52.513 C28.412,52.54 28.344,52.567 28.276,52.593 C28.435,53.527 28.594,54.461 28.752,55.395 C28.822,55.398 28.893,55.403 28.962,55.406 C28.979,55.51 28.997,55.614 29.014,55.718 C28.746,55.762 28.478,55.809 28.21,55.857 C28.191,55.753 28.172,55.649 28.154,55.545 C28.219,55.518 28.284,55.491 28.348,55.465 C28.184,54.531 28.019,53.599 27.854,52.666" id="Fill-22" fill="#000000"></path>
            <path d="M28.21,55.576 L28.25,55.799 C28.486,55.757 28.721,55.716 28.957,55.677 L28.919,55.454 C28.898,55.452 28.877,55.451 28.856,55.45 C28.82,55.448 28.785,55.446 28.751,55.445 L28.71,55.443 L28.22,52.561 L28.258,52.546 C28.313,52.525 28.369,52.503 28.424,52.482 L28.387,52.258 C28.137,52.3 27.886,52.342 27.637,52.387 L27.677,52.611 L27.896,52.617 L27.904,52.657 L28.404,55.496 L28.21,55.576 Z M28.169,55.915 L28.098,55.514 L28.292,55.434 L27.813,52.715 L27.593,52.708 L27.521,52.307 L27.57,52.298 C27.853,52.246 28.136,52.198 28.419,52.151 L28.469,52.142 L28.536,52.545 L28.499,52.56 C28.443,52.582 28.388,52.603 28.333,52.625 L28.795,55.347 C28.817,55.348 28.839,55.349 28.861,55.35 C28.896,55.352 28.93,55.354 28.964,55.355 L29.004,55.357 L29.072,55.759 L29.023,55.767 C28.754,55.812 28.487,55.859 28.219,55.906 L28.169,55.915 Z" id="Fill-23" fill="#000000"></path>
            <path d="M30.271,55.521 C30.137,55.541 30.002,55.562 29.868,55.582 C29.688,54.407 29.509,53.231 29.33,52.056 C29.608,52.014 29.886,51.973 30.165,51.934 C30.505,52.965 30.836,53.998 31.158,55.033 C31.186,55.03 31.212,55.025 31.239,55.022 C31.102,53.963 30.964,52.903 30.826,51.844 C30.969,51.826 31.111,51.808 31.254,51.79 C31.399,52.97 31.545,54.15 31.69,55.33 C31.419,55.364 31.148,55.399 30.877,55.436 C30.552,54.402 30.219,53.37 29.877,52.341 C29.854,52.344 29.831,52.347 29.808,52.351 C29.963,53.407 30.117,54.464 30.271,55.521" id="Fill-24" fill="#000000"></path>
            <path d="M29.387,52.098 C29.561,53.24 29.735,54.383 29.91,55.525 L30.215,55.479 C30.063,54.438 29.911,53.398 29.759,52.358 L29.751,52.309 L29.911,52.285 L29.924,52.325 C30.249,53.301 30.581,54.329 30.912,55.381 C31.153,55.348 31.394,55.316 31.635,55.286 L31.21,51.846 L31.12,51.858 C31.041,51.867 30.961,51.877 30.882,51.888 L31.295,55.066 L31.245,55.072 C31.23,55.073 31.215,55.075 31.201,55.077 L31.123,55.088 L31.11,55.048 C30.794,54.028 30.464,52.999 30.131,51.989 C29.882,52.025 29.634,52.061 29.387,52.098 Z M29.826,55.639 L29.819,55.589 C29.639,54.414 29.46,53.239 29.28,52.064 L29.272,52.014 L29.322,52.007 C29.601,51.965 29.879,51.924 30.158,51.884 L30.199,51.878 L30.212,51.918 C30.54,52.909 30.864,53.919 31.176,54.921 L30.77,51.801 L30.82,51.795 C30.916,51.782 31.011,51.77 31.107,51.758 L31.297,51.734 L31.311,51.844 L31.746,55.373 L31.697,55.379 C31.426,55.413 31.154,55.448 30.884,55.485 L30.842,55.491 L30.829,55.451 C30.513,54.444 30.195,53.459 29.883,52.521 C30.03,53.518 30.175,54.516 30.321,55.514 L30.328,55.563 L29.826,55.639 Z" id="Fill-25" fill="#000000"></path>
            <path d="M33.312,53.563 C33.301,53.442 33.289,53.322 33.278,53.201 C33.606,53.17 33.936,53.14 34.266,53.115 C34.301,53.559 34.336,54.004 34.372,54.448 C34.399,54.797 34.107,55.101 33.717,55.136 C33.579,55.148 33.44,55.161 33.302,55.176 C32.918,55.215 32.568,54.965 32.53,54.622 C32.445,53.842 32.361,53.063 32.275,52.283 C32.237,51.937 32.543,51.618 32.951,51.581 C33.097,51.566 33.243,51.552 33.39,51.539 C33.804,51.502 34.157,51.756 34.185,52.103 C34.196,52.247 34.208,52.389 34.219,52.532 C34.078,52.543 33.938,52.555 33.797,52.568 C33.785,52.425 33.772,52.282 33.76,52.138 C33.747,51.988 33.598,51.883 33.422,51.9 C33.277,51.913 33.132,51.926 32.986,51.941 C32.815,51.955 32.685,52.092 32.7,52.239 C32.78,53.018 32.859,53.799 32.94,54.578 C32.954,54.728 33.104,54.831 33.267,54.814 C33.406,54.801 33.545,54.788 33.685,54.775 C33.854,54.758 33.975,54.63 33.962,54.482 C33.935,54.158 33.906,53.835 33.878,53.511 C33.69,53.528 33.501,53.545 33.312,53.563" id="Fill-26" fill="#000000"></path>
            <path d="M33.47,51.586 C33.445,51.586 33.419,51.587 33.394,51.589 C33.248,51.602 33.102,51.616 32.956,51.631 C32.752,51.649 32.567,51.743 32.448,51.889 C32.354,52.004 32.31,52.142 32.325,52.278 C32.384,52.817 32.443,53.357 32.502,53.896 L32.58,54.616 C32.614,54.926 32.94,55.162 33.297,55.126 C33.436,55.112 33.575,55.098 33.713,55.086 C34.08,55.053 34.348,54.774 34.322,54.452 L34.32,54.421 C34.286,54.004 34.253,53.586 34.22,53.169 C33.946,53.19 33.654,53.216 33.333,53.246 L33.357,53.508 C33.529,53.492 33.702,53.477 33.874,53.462 L33.924,53.457 L34.012,54.477 C34.027,54.653 33.885,54.805 33.69,54.824 L33.547,54.838 C33.455,54.846 33.363,54.855 33.271,54.864 C33.082,54.885 32.906,54.757 32.89,54.583 L32.65,52.244 C32.642,52.167 32.667,52.089 32.72,52.024 C32.784,51.948 32.879,51.9 32.982,51.891 C33.127,51.877 33.273,51.863 33.418,51.85 C33.615,51.833 33.795,51.959 33.81,52.134 C33.821,52.261 33.832,52.387 33.842,52.513 C33.95,52.504 34.058,52.495 34.165,52.487 C34.155,52.36 34.145,52.234 34.135,52.107 C34.111,51.81 33.826,51.586 33.47,51.586 Z M33.223,55.229 C32.838,55.229 32.519,54.971 32.48,54.627 L32.402,53.907 C32.343,53.367 32.285,52.828 32.226,52.289 C32.208,52.126 32.259,51.962 32.371,51.826 C32.507,51.659 32.716,51.552 32.946,51.531 C33.092,51.516 33.238,51.503 33.385,51.489 C33.831,51.452 34.205,51.726 34.234,52.099 C34.246,52.243 34.257,52.385 34.269,52.528 L34.273,52.579 L34.223,52.582 C34.082,52.593 33.942,52.605 33.801,52.617 L33.752,52.622 L33.747,52.572 C33.735,52.429 33.723,52.286 33.71,52.143 C33.699,52.021 33.573,51.937 33.427,51.95 C33.282,51.963 33.137,51.976 32.991,51.991 C32.914,51.997 32.843,52.033 32.797,52.088 C32.761,52.132 32.744,52.184 32.75,52.234 L32.989,54.573 C33.001,54.692 33.125,54.783 33.261,54.764 C33.354,54.755 33.445,54.747 33.538,54.738 L33.68,54.725 C33.82,54.711 33.922,54.606 33.913,54.486 L33.833,53.566 C33.661,53.581 33.489,53.596 33.317,53.613 L33.267,53.617 L33.224,53.156 L33.273,53.152 C33.635,53.117 33.959,53.089 34.262,53.066 L34.312,53.062 L34.315,53.111 C34.35,53.545 34.385,53.979 34.419,54.414 L34.422,54.444 C34.452,54.822 34.144,55.148 33.722,55.186 C33.584,55.197 33.445,55.211 33.307,55.225 C33.279,55.228 33.251,55.229 33.223,55.229 Z" id="Fill-27" fill="#000000"></path>
            <path d="M38.862,54.853 C38.727,54.854 38.591,54.856 38.456,54.859 C38.446,54.274 38.437,53.689 38.427,53.105 C38.086,53.11 37.745,53.119 37.403,53.13 C37.422,53.714 37.441,54.298 37.46,54.883 C37.325,54.887 37.189,54.892 37.053,54.897 C37.007,53.709 36.961,52.521 36.916,51.333 C37.059,51.328 37.202,51.323 37.346,51.318 C37.361,51.801 37.377,52.284 37.392,52.767 C37.735,52.758 38.078,52.749 38.421,52.742 C38.413,52.259 38.405,51.776 38.398,51.293 C38.541,51.29 38.683,51.288 38.826,51.287 C38.839,52.476 38.851,53.665 38.862,54.853" id="Fill-28" fill="#000000"></path>
            <path d="M36.968,51.382 L37.101,54.845 L37.408,54.834 C37.391,54.277 37.373,53.721 37.354,53.164 L37.352,53.081 L37.402,53.08 C37.744,53.069 38.085,53.061 38.426,53.055 L38.477,53.054 L38.505,54.808 C38.607,54.806 38.709,54.805 38.812,54.804 C38.8,53.648 38.789,52.493 38.777,51.338 C38.667,51.339 38.558,51.34 38.448,51.342 L38.472,52.791 L38.422,52.792 C38.079,52.799 37.736,52.808 37.394,52.817 L37.344,52.819 L37.342,52.769 C37.327,52.303 37.312,51.836 37.297,51.37 C37.188,51.374 37.078,51.378 36.968,51.382 Z M37.005,54.949 L36.864,51.285 L36.915,51.283 C37.064,51.278 37.204,51.273 37.344,51.268 L37.394,51.266 L37.396,51.317 C37.41,51.783 37.425,52.249 37.44,52.716 C37.75,52.707 38.061,52.699 38.37,52.693 L38.347,51.244 L38.397,51.243 C38.54,51.24 38.683,51.238 38.826,51.237 L38.876,51.237 L38.876,51.287 C38.889,52.476 38.9,53.664 38.912,54.853 L38.913,54.903 L38.863,54.903 C38.728,54.904 38.592,54.906 38.457,54.909 L38.407,54.909 L38.378,53.156 C38.07,53.161 37.763,53.169 37.455,53.178 C37.474,53.745 37.492,54.313 37.51,54.881 L37.512,54.931 L37.005,54.949 Z" id="Fill-29" fill="#000000"></path>
            <path d="M40.38,53.193 C40.643,53.196 40.905,53.201 41.168,53.208 C41.122,52.692 41.074,52.178 41.025,51.663 C40.879,51.66 40.733,51.656 40.587,51.655 C40.517,52.167 40.448,52.679 40.38,53.193 Z M41.725,54.888 C41.59,54.884 41.454,54.88 41.319,54.876 C41.28,54.44 41.24,54.007 41.2,53.572 C40.911,53.565 40.623,53.558 40.334,53.555 C40.278,53.988 40.223,54.421 40.17,54.853 C40.034,54.852 39.898,54.85 39.763,54.85 C39.89,53.782 40.022,52.716 40.161,51.649 C40.107,51.634 40.054,51.618 40.001,51.603 C40.002,51.496 40.002,51.392 40.003,51.285 C40.476,51.289 40.948,51.298 41.42,51.311 C41.529,52.504 41.631,53.696 41.725,54.888 Z" id="Fill-30" fill="#000000"></path>
            <path d="M40.438,53.143 C40.663,53.146 40.888,53.151 41.113,53.157 C41.07,52.674 41.025,52.194 40.98,51.712 L40.878,51.71 C40.796,51.708 40.713,51.707 40.631,51.705 C40.565,52.184 40.5,52.663 40.438,53.143 Z M41.223,53.26 L41.167,53.258 C40.904,53.251 40.642,53.246 40.38,53.243 L40.323,53.242 L40.331,53.186 C40.398,52.673 40.467,52.16 40.538,51.648 L40.544,51.604 L40.588,51.604 C40.686,51.606 40.783,51.608 40.88,51.61 L41.071,51.614 L41.075,51.659 C41.124,52.174 41.171,52.687 41.218,53.204 L41.223,53.26 Z M41.365,54.828 C41.468,54.83 41.57,54.833 41.671,54.837 C41.579,53.677 41.479,52.507 41.374,51.36 C40.929,51.347 40.485,51.339 40.053,51.336 L40.051,51.565 C40.093,51.578 40.134,51.59 40.174,51.601 L40.216,51.613 L40.21,51.656 C40.076,52.691 39.944,53.749 39.819,54.8 C39.914,54.8 40.009,54.802 40.104,54.802 L40.126,54.803 C40.176,54.398 40.227,53.993 40.279,53.588 L40.29,53.504 L40.334,53.505 C40.588,53.508 40.841,53.514 41.094,53.519 L41.245,53.522 L41.25,53.567 C41.289,53.987 41.327,54.406 41.365,54.828 Z M41.779,54.94 L41.724,54.938 C41.589,54.934 41.455,54.93 41.321,54.926 L41.276,54.925 L41.269,54.881 C41.232,54.459 41.193,54.04 41.154,53.621 L41.092,53.619 C40.854,53.614 40.616,53.609 40.377,53.605 C40.324,54.024 40.271,54.442 40.22,54.859 L40.214,54.904 L40.102,54.902 C40.004,54.901 39.905,54.9 39.807,54.9 L39.707,54.901 L39.713,54.844 C39.838,53.789 39.97,52.726 40.105,51.685 C40.067,51.674 40.029,51.663 39.99,51.652 L39.954,51.641 L39.951,51.602 L39.954,51.235 L40.004,51.235 C40.467,51.239 40.943,51.247 41.421,51.261 L41.466,51.263 L41.47,51.307 C41.578,52.487 41.681,53.691 41.775,54.885 L41.779,54.94 Z" id="Fill-31" fill="#000000"></path>
            <path d="M43.123,53.287 C43.326,53.297 43.53,53.31 43.733,53.323 C43.905,53.335 44.047,53.226 44.059,53.077 C44.082,52.742 44.105,52.407 44.128,52.073 C44.139,51.927 44.008,51.802 43.833,51.786 C43.625,51.773 43.417,51.759 43.208,51.748 C43.18,52.261 43.152,52.774 43.123,53.287 Z M43.031,54.947 C42.896,54.941 42.761,54.933 42.625,54.926 C42.683,53.739 42.741,52.551 42.799,51.364 C43.151,51.382 43.503,51.401 43.856,51.424 C44.269,51.45 44.58,51.758 44.553,52.104 C44.527,52.439 44.502,52.772 44.477,53.107 C44.46,53.339 44.304,53.523 44.089,53.62 C44.161,53.969 44.232,54.318 44.302,54.667 C44.352,54.686 44.402,54.705 44.451,54.724 C44.443,54.83 44.435,54.935 44.427,55.04 C44.275,55.028 44.123,55.017 43.971,55.007 C43.881,54.565 43.789,54.125 43.694,53.685 C43.497,53.673 43.3,53.66 43.104,53.649 C43.079,54.082 43.056,54.515 43.031,54.947 Z" id="Fill-32" fill="#000000"></path>
            <path d="M43.176,53.239 C43.362,53.249 43.55,53.261 43.736,53.274 C43.881,53.284 43.999,53.194 44.009,53.073 L44.078,52.07 C44.087,51.953 43.977,51.85 43.828,51.836 L43.739,51.83 C43.578,51.82 43.417,51.81 43.256,51.801 C43.229,52.28 43.203,52.76 43.176,53.239 Z M43.758,53.374 C43.749,53.374 43.739,53.374 43.729,53.373 C43.527,53.36 43.323,53.347 43.121,53.337 L43.07,53.334 L43.073,53.284 C43.102,52.771 43.13,52.258 43.159,51.746 L43.161,51.696 L43.211,51.698 C43.389,51.707 43.567,51.719 43.745,51.73 L43.835,51.736 C44.041,51.755 44.19,51.905 44.178,52.077 L44.108,53.08 C44.095,53.248 43.945,53.374 43.758,53.374 Z M44.012,54.959 C44.135,54.968 44.258,54.976 44.381,54.986 C44.387,54.91 44.393,54.834 44.398,54.757 C44.375,54.748 44.352,54.739 44.329,54.731 L44.259,54.704 L44.253,54.677 C44.184,54.328 44.112,53.979 44.04,53.631 L44.032,53.591 L44.068,53.575 C44.278,53.479 44.412,53.303 44.427,53.104 L44.503,52.101 C44.514,51.965 44.466,51.829 44.37,51.718 C44.247,51.576 44.059,51.487 43.853,51.474 C43.517,51.452 43.182,51.434 42.847,51.416 L42.677,54.879 L42.984,54.895 L43.057,53.596 L43.106,53.599 C43.264,53.608 43.421,53.618 43.579,53.627 L43.735,53.637 L43.743,53.674 C43.835,54.102 43.925,54.53 44.012,54.959 Z M44.473,55.094 L44.422,55.09 C44.271,55.077 44.12,55.067 43.967,55.056 L43.929,55.054 L43.922,55.017 C43.834,54.588 43.745,54.16 43.653,53.732 L43.573,53.727 C43.432,53.718 43.292,53.71 43.151,53.702 L43.078,55 L42.573,54.973 L42.752,51.312 L42.802,51.314 C43.154,51.333 43.506,51.351 43.859,51.374 C44.091,51.389 44.305,51.49 44.445,51.652 C44.56,51.784 44.615,51.946 44.603,52.108 L44.526,53.111 C44.51,53.336 44.369,53.534 44.146,53.648 C44.213,53.975 44.28,54.302 44.346,54.63 L44.364,54.637 C44.399,54.651 44.435,54.664 44.47,54.678 L44.504,54.691 L44.501,54.728 C44.493,54.834 44.485,54.939 44.477,55.044 L44.473,55.094 Z" id="Fill-33" fill="#000000"></path>
            <path d="M45.68,54.785 C45.887,54.805 46.094,54.826 46.301,54.848 C46.464,54.866 46.614,54.761 46.631,54.615 C46.716,53.851 46.801,53.087 46.886,52.323 C46.903,52.172 46.771,52.04 46.602,52.022 C46.386,52 46.169,51.977 45.953,51.957 C45.862,52.9 45.771,53.843 45.68,54.785 Z M45.399,51.542 C45.813,51.578 46.227,51.618 46.64,51.662 C47.047,51.704 47.351,52.022 47.309,52.371 C47.219,53.135 47.129,53.899 47.04,54.662 C46.998,55.009 46.647,55.253 46.263,55.209 C45.922,55.172 45.581,55.138 45.239,55.108 C45.335,54.044 45.431,52.981 45.527,51.917 C45.476,51.898 45.424,51.877 45.372,51.858 C45.381,51.753 45.39,51.647 45.399,51.542 Z" id="Fill-34" fill="#000000"></path>
            <path d="M45.734,54.74 C45.925,54.759 46.115,54.778 46.306,54.799 C46.445,54.817 46.568,54.725 46.581,54.61 L46.836,52.317 C46.842,52.267 46.827,52.217 46.792,52.174 C46.747,52.117 46.676,52.08 46.596,52.072 C46.397,52.051 46.198,52.031 45.998,52.011 L45.734,54.74 Z M46.336,54.9 C46.323,54.9 46.309,54.9 46.295,54.898 C46.089,54.876 45.882,54.855 45.675,54.835 L45.625,54.83 L45.908,51.902 L45.958,51.907 C46.174,51.927 46.391,51.95 46.607,51.972 C46.712,51.984 46.808,52.034 46.87,52.111 C46.921,52.175 46.944,52.252 46.936,52.329 L46.681,54.621 C46.663,54.78 46.515,54.9 46.336,54.9 Z M45.293,55.062 C45.644,55.094 45.963,55.126 46.268,55.159 C46.631,55.204 46.953,54.97 46.99,54.656 L47.259,52.365 C47.275,52.229 47.233,52.091 47.141,51.975 C47.023,51.829 46.839,51.733 46.635,51.712 C46.248,51.67 45.848,51.631 45.445,51.596 L45.425,51.824 C45.44,51.83 45.457,51.836 45.472,51.842 L45.581,51.883 L45.293,55.062 Z M46.352,55.264 C46.321,55.264 46.289,55.262 46.257,55.258 C45.938,55.224 45.604,55.191 45.235,55.157 L45.185,55.153 L45.474,51.95 L45.437,51.936 C45.409,51.926 45.382,51.915 45.354,51.905 L45.318,51.892 L45.354,51.488 L45.404,51.492 C45.824,51.529 46.242,51.569 46.646,51.613 C46.876,51.636 47.085,51.746 47.219,51.913 C47.329,52.05 47.378,52.215 47.359,52.377 L47.089,54.668 C47.048,55.008 46.731,55.264 46.352,55.264 Z" id="Fill-35" fill="#000000"></path>
            <path d="M49.972,53.569 C49.947,54.159 49.92,54.746 49.891,55.333 C49.917,55.338 49.942,55.341 49.967,55.346 C50.263,54.313 50.564,53.28 50.872,52.249 C51.014,52.273 51.154,52.298 51.296,52.323 C50.947,53.468 50.605,54.616 50.27,55.764 C50.003,55.719 49.737,55.675 49.47,55.633 C49.496,55.045 49.52,54.457 49.542,53.868 C49.513,53.864 49.483,53.86 49.454,53.855 C49.298,54.423 49.144,54.99 48.991,55.559 C48.724,55.519 48.457,55.48 48.189,55.443 C48.217,54.248 48.236,53.051 48.248,51.853 C48.391,51.871 48.533,51.891 48.675,51.91 C48.657,52.986 48.634,54.061 48.604,55.136 C48.629,55.139 48.655,55.143 48.68,55.147 C48.83,54.578 48.981,54.009 49.134,53.44 C49.413,53.481 49.692,53.524 49.972,53.569" id="Fill-36" fill="#000000"></path>
            <path d="M49.521,55.59 C49.76,55.628 49.997,55.667 50.234,55.708 C50.56,54.591 50.895,53.467 51.231,52.362 C51.124,52.343 51.016,52.324 50.907,52.306 C50.608,53.309 50.308,54.336 50.015,55.36 L50.003,55.404 L49.958,55.395 C49.945,55.393 49.933,55.391 49.921,55.389 C49.908,55.387 49.895,55.385 49.881,55.382 L49.838,55.374 L49.841,55.331 C49.869,54.758 49.896,54.186 49.92,53.612 C49.67,53.572 49.42,53.533 49.17,53.496 C49.021,54.051 48.874,54.605 48.728,55.159 L48.716,55.203 L48.672,55.196 C48.647,55.192 48.623,55.188 48.598,55.186 L48.553,55.18 L48.554,55.134 C48.583,54.093 48.606,53.023 48.624,51.954 L48.5,51.937 C48.432,51.928 48.365,51.918 48.297,51.91 C48.286,53.07 48.267,54.243 48.24,55.4 C48.479,55.433 48.717,55.468 48.955,55.503 C49.103,54.949 49.253,54.395 49.406,53.842 L49.417,53.799 L49.49,53.81 C49.51,53.813 49.53,53.816 49.55,53.819 L49.594,53.826 L49.592,53.87 C49.57,54.444 49.547,55.018 49.521,55.59 Z M50.306,55.821 L50.262,55.814 C49.995,55.768 49.729,55.724 49.462,55.682 L49.418,55.675 L49.42,55.63 C49.445,55.058 49.468,54.486 49.49,53.912 C49.338,54.465 49.188,55.018 49.04,55.572 L49.028,55.615 L48.984,55.608 C48.717,55.569 48.45,55.53 48.183,55.493 L48.139,55.487 L48.14,55.442 C48.167,54.253 48.187,53.045 48.198,51.853 L48.199,51.797 L48.254,51.804 C48.34,51.814 48.427,51.826 48.513,51.838 L48.726,51.866 L48.725,51.911 C48.708,52.961 48.685,54.013 48.657,55.038 C48.798,54.501 48.941,53.964 49.085,53.427 L49.097,53.384 L49.141,53.391 C49.42,53.432 49.7,53.475 49.979,53.52 L50.023,53.527 L50.022,53.572 C49.998,54.13 49.973,54.685 49.945,55.241 C50.234,54.233 50.529,53.222 50.824,52.235 L50.837,52.193 L50.88,52.2 C51.022,52.224 51.163,52.248 51.305,52.274 L51.36,52.284 L51.344,52.338 C50.998,53.473 50.652,54.63 50.318,55.778 L50.306,55.821 Z" id="Fill-37" fill="#000000"></path>
            <path d="M52.439,54.477 C52.698,54.529 52.956,54.583 53.214,54.637 C53.264,54.122 53.312,53.608 53.358,53.093 C53.215,53.063 53.071,53.032 52.928,53.004 C52.764,53.495 52.601,53.985 52.439,54.477 Z M53.455,56.393 C53.322,56.364 53.189,56.334 53.056,56.305 C53.098,55.87 53.139,55.436 53.179,55.001 C52.895,54.941 52.611,54.881 52.327,54.824 C52.192,55.239 52.058,55.655 51.925,56.07 C51.792,56.044 51.658,56.018 51.524,55.992 C51.846,54.966 52.174,53.942 52.507,52.919 C52.457,52.894 52.408,52.869 52.357,52.844 C52.378,52.74 52.398,52.636 52.419,52.532 C52.884,52.624 53.349,52.719 53.813,52.82 C53.702,54.012 53.582,55.204 53.455,56.393 Z" id="Fill-38" fill="#000000"></path>
            <path d="M52.504,54.439 C52.727,54.484 52.948,54.53 53.17,54.577 C53.216,54.095 53.261,53.614 53.305,53.133 C53.19,53.109 53.076,53.085 52.961,53.062 C52.808,53.521 52.655,53.979 52.504,54.439 Z M53.259,54.698 L53.204,54.686 C52.946,54.632 52.688,54.578 52.43,54.526 L52.374,54.515 L52.392,54.461 C52.553,53.969 52.716,53.479 52.88,52.988 L52.895,52.946 L52.938,52.954 C53.081,52.983 53.225,53.014 53.369,53.044 L53.412,53.053 L53.408,53.098 C53.361,53.612 53.313,54.127 53.264,54.642 L53.259,54.698 Z M53.11,56.266 C53.211,56.288 53.311,56.31 53.411,56.332 C53.535,55.172 53.652,54.005 53.76,52.86 C53.334,52.768 52.896,52.677 52.458,52.591 L52.414,52.816 L52.439,52.829 C52.469,52.844 52.499,52.859 52.529,52.874 L52.568,52.893 L52.555,52.934 C52.229,53.934 51.904,54.949 51.589,55.954 L51.891,56.012 C52.02,55.611 52.149,55.21 52.279,54.809 L52.293,54.767 L52.336,54.775 C52.621,54.832 52.905,54.892 53.189,54.952 L53.233,54.962 L53.229,55.006 C53.19,55.426 53.151,55.845 53.11,56.266 Z M53.499,56.454 L53.444,56.442 C53.312,56.412 53.179,56.383 53.045,56.354 L53.002,56.344 L53.006,56.3 C53.047,55.88 53.086,55.461 53.126,55.041 C52.871,54.986 52.615,54.933 52.36,54.882 C52.23,55.283 52.101,55.684 51.973,56.085 L51.959,56.128 L51.46,56.031 L51.477,55.977 C51.793,54.969 52.119,53.949 52.446,52.944 C52.429,52.936 52.412,52.927 52.395,52.918 L52.301,52.872 L52.379,52.474 L52.428,52.483 C52.898,52.576 53.368,52.672 53.824,52.771 L53.867,52.781 L53.863,52.825 C53.753,54.003 53.632,55.205 53.505,56.399 L53.499,56.454 Z" id="Fill-39" fill="#000000"></path>
            <path d="M55.133,55.079 C55.332,55.129 55.531,55.178 55.729,55.229 C55.897,55.276 56.059,55.194 56.097,55.047 C56.182,54.723 56.266,54.399 56.351,54.074 C56.389,53.932 56.283,53.781 56.111,53.736 C55.908,53.684 55.705,53.632 55.501,53.582 C55.378,54.082 55.256,54.58 55.133,55.079 Z M54.736,56.694 C54.604,56.661 54.471,56.629 54.338,56.597 C54.614,55.441 54.891,54.285 55.167,53.129 C55.512,53.212 55.857,53.297 56.201,53.385 C56.605,53.489 56.856,53.844 56.766,54.183 C56.679,54.508 56.592,54.831 56.506,55.155 C56.446,55.377 56.257,55.531 56.027,55.586 C56.035,55.943 56.04,56.299 56.045,56.656 C56.091,56.682 56.137,56.711 56.183,56.739 C56.155,56.841 56.128,56.944 56.101,57.045 C55.952,57.006 55.803,56.966 55.654,56.927 C55.647,56.477 55.637,56.027 55.624,55.576 C55.432,55.527 55.239,55.479 55.046,55.431 C54.943,55.852 54.839,56.274 54.736,56.694 Z" id="Fill-40" fill="#000000"></path>
            <path d="M55.194,55.042 C55.382,55.09 55.562,55.135 55.742,55.18 C55.883,55.22 56.018,55.152 56.048,55.035 C56.133,54.71 56.218,54.386 56.302,54.061 C56.315,54.013 56.308,53.962 56.28,53.914 C56.244,53.852 56.178,53.805 56.099,53.784 C55.912,53.736 55.725,53.689 55.538,53.643 L55.194,55.042 Z M55.825,55.292 C55.789,55.292 55.752,55.287 55.716,55.277 C55.523,55.228 55.328,55.179 55.133,55.13 L55.085,55.118 L55.085,55.067 L55.464,53.522 L55.513,53.534 C55.717,53.583 55.92,53.635 56.124,53.687 C56.229,53.715 56.317,53.779 56.366,53.864 C56.407,53.934 56.419,54.013 56.399,54.087 C56.314,54.411 56.23,54.735 56.145,55.06 C56.109,55.199 55.981,55.292 55.825,55.292 Z M55.704,56.888 L56.065,56.984 L56.124,56.762 C56.09,56.74 56.055,56.719 56.02,56.699 L55.996,56.684 L55.996,56.656 C55.991,56.3 55.985,55.943 55.977,55.587 L55.976,55.547 L56.015,55.538 C56.24,55.484 56.405,55.336 56.457,55.142 L56.717,54.17 C56.752,54.039 56.731,53.897 56.658,53.771 C56.563,53.609 56.392,53.485 56.189,53.433 C55.861,53.349 55.533,53.268 55.204,53.189 L54.398,56.561 C54.498,56.584 54.599,56.609 54.7,56.634 L55.01,55.371 L55.058,55.383 C55.206,55.419 55.354,55.456 55.501,55.493 L55.673,55.537 L55.674,55.574 C55.687,56.013 55.696,56.451 55.704,56.888 Z M56.136,57.106 L55.605,56.966 L55.604,56.928 C55.597,56.49 55.587,56.053 55.575,55.615 L55.477,55.59 C55.345,55.557 55.214,55.524 55.083,55.492 L54.773,56.755 L54.725,56.743 C54.592,56.71 54.459,56.678 54.326,56.646 L54.278,56.635 L54.289,56.586 L55.13,53.068 L55.179,53.08 C55.524,53.163 55.869,53.248 56.213,53.336 C56.443,53.395 56.636,53.536 56.744,53.721 C56.831,53.87 56.856,54.039 56.814,54.196 L56.554,55.168 C56.495,55.386 56.318,55.554 56.078,55.624 C56.085,55.958 56.09,56.293 56.095,56.627 C56.133,56.649 56.171,56.673 56.209,56.697 L56.241,56.717 L56.136,57.106 Z" id="Fill-41" fill="#000000"></path>
            <path d="M59.26,54.623 C58.9,54.511 58.54,54.405 58.18,54.3 C58.079,54.648 57.978,54.996 57.877,55.345 C58.181,55.433 58.484,55.523 58.787,55.616 C58.752,55.732 58.716,55.847 58.681,55.963 C58.38,55.87 58.078,55.781 57.776,55.693 C57.646,56.138 57.518,56.584 57.388,57.03 C57.742,57.131 58.094,57.236 58.447,57.347 C58.411,57.463 58.376,57.578 58.34,57.693 C57.858,57.544 57.376,57.401 56.892,57.264 C57.216,56.12 57.54,54.977 57.864,53.833 C58.366,53.974 58.867,54.123 59.367,54.277 C59.331,54.392 59.295,54.508 59.26,54.623" id="Fill-42" fill="#000000"></path>
            <path d="M56.954,57.229 C57.419,57.362 57.873,57.496 58.307,57.631 L58.384,57.38 C58.057,57.278 57.718,57.176 57.374,57.078 L57.326,57.064 L57.742,55.631 L57.79,55.645 C58.076,55.729 58.362,55.812 58.647,55.9 L58.725,55.649 C58.463,55.569 58.18,55.485 57.863,55.393 L57.815,55.379 L58.146,54.238 L58.194,54.252 C58.477,54.334 58.848,54.443 59.227,54.561 L59.304,54.31 C58.792,54.152 58.331,54.016 57.899,53.895 L56.954,57.229 Z M58.373,57.756 L58.325,57.741 C57.863,57.597 57.376,57.453 56.878,57.312 L56.831,57.298 L57.83,53.771 L57.878,53.785 C58.338,53.914 58.83,54.059 59.381,54.229 L59.429,54.244 L59.293,54.686 L59.245,54.671 C58.871,54.555 58.502,54.446 58.214,54.362 L57.939,55.311 C58.256,55.403 58.539,55.488 58.802,55.568 L58.85,55.583 L58.714,56.025 L58.666,56.01 C58.381,55.923 58.096,55.838 57.81,55.755 L57.45,56.995 C57.794,57.095 58.135,57.197 58.462,57.299 L58.509,57.314 L58.373,57.756 Z" id="Fill-43" fill="#000000"></path>
            <path d="M5.963,43.519 L5.727,42.14 C5.68,41.871 5.574,41.633 5.253,41.687 C5.01,41.729 4.908,41.905 4.971,42.27 L5.028,42.61 C5.133,43.219 5.196,43.354 5.4,43.615 L5.963,43.519 Z M4.727,43.731 C4.51,43.471 4.422,43.11 4.356,42.726 L4.297,42.386 C4.258,42.155 4.144,42.07 3.952,42.102 C3.773,42.133 3.699,42.284 3.733,42.483 L3.971,43.861 L4.727,43.731 Z M6.394,42.026 L6.743,44.064 L3.424,44.635 L3.073,42.596 C2.979,42.051 3.279,41.525 3.837,41.43 C4.054,41.392 4.269,41.414 4.444,41.549 C4.549,41.274 4.826,41.081 5.152,41.025 C5.806,40.912 6.268,41.296 6.394,42.026 Z" id="Fill-44" fill="#000000"></path>
            <polyline id="Fill-45" fill="#000000" points="6.058 38.874 2.699 39.036 2.667 38.375 6.026 38.213 6.058 38.874"></polyline>
            <polyline id="Fill-46" fill="#000000" points="3.394 34.449 6.084 34.615 6.043 35.282 3.353 35.117 3.277 36.336 2.609 36.295 2.803 33.144 3.471 33.185 3.394 34.449"></polyline>
            <path d="M6.639,28.57 C6.877,28.996 6.937,29.519 6.835,30.022 C6.632,31.021 5.791,31.831 4.676,31.605 C3.556,31.377 3.128,30.289 3.329,29.302 C3.427,28.818 3.664,28.369 4.011,28.062 L4.431,28.605 C4.209,28.818 4.054,29.125 3.99,29.437 C3.861,30.073 4.085,30.762 4.83,30.914 C5.575,31.065 6.047,30.505 6.175,29.875 C6.245,29.531 6.191,29.142 6.014,28.841 L6.639,28.57" id="Fill-47" fill="#000000"></path>
            <path d="M5.496,24.328 C5.267,24.937 5.366,25.654 6.078,25.922 C6.79,26.19 7.341,25.702 7.567,25.1 C7.792,24.503 7.641,23.759 6.959,23.503 C6.253,23.237 5.72,23.732 5.496,24.328 Z M8.202,25.352 C7.843,26.307 6.883,26.975 5.818,26.575 C4.748,26.172 4.497,25.03 4.851,24.086 C5.208,23.136 6.105,22.432 7.2,22.843 C8.271,23.246 8.561,24.397 8.202,25.352 Z" id="Fill-48" fill="#000000"></path>
            <polyline id="Fill-49" fill="#000000" points="9.632 21.847 6.647 20.281 6.956 19.694 9.94 21.259 9.632 21.847"></polyline>
            <polyline id="Fill-50" fill="#000000" points="8.499 17.069 11.579 16.737 9.661 15.401 10.042 14.852 12.804 16.775 12.421 17.323 9.556 17.608 11.353 18.858 10.97 19.407 8.62 17.771 8.02 17.757 8.499 17.069"></polyline>
            <polyline id="Fill-51" fill="#000000" points="16.877 8.651 18.741 10.778 18.188 11.262 16.891 9.781 17.041 11.757 15.102 11.348 16.399 12.83 15.847 13.314 13.983 11.187 13.379 11 13.995 10.46 16.33 10.946 16.155 8.567 16.771 8.028 16.877 8.651"></polyline>
            <polyline id="Fill-52" fill="#000000" points="20.511 9.555 18.645 6.749 19.197 6.381 21.063 9.187 20.511 9.555"></polyline>
            <polyline id="Fill-53" fill="#000000" points="21.848 4.793 24.712 5.985 23.671 3.888 24.271 3.59 25.769 6.608 25.169 6.906 22.517 5.775 23.491 7.738 22.891 8.036 21.616 5.467 21.096 5.165 21.848 4.793"></polyline>
            <polyline id="Fill-54" fill="#000000" points="27.842 5.82 26.729 2.639 27.356 2.42 28.468 5.6 27.842 5.82"></polyline>
            <polyline id="Fill-55" fill="#000000" points="30.296 1.553 32.772 3.411 32.282 1.128 32.936 0.987 33.64 4.273 32.986 4.414 30.701 2.667 31.159 4.805 30.506 4.945 29.906 2.147 29.478 1.728 30.296 1.553"></polyline>
            <path d="M38.769,3.447 C38.418,3.787 37.928,3.978 37.416,4.008 C36.397,4.067 35.399,3.462 35.334,2.326 C35.267,1.185 36.209,0.493 37.214,0.435 C37.707,0.406 38.202,0.52 38.587,0.777 L38.17,1.322 C37.907,1.162 37.571,1.09 37.253,1.109 C36.605,1.147 35.997,1.54 36.041,2.299 C36.085,3.057 36.747,3.37 37.39,3.333 C37.629,3.318 37.872,3.246 38.086,3.116 L38.055,2.578 L37.711,2.598 L37.389,1.986 L38.68,1.911 L38.769,3.447" id="Fill-56" fill="#000000"></path>
            <polyline id="Fill-57" fill="#000000" points="45.016 1.663 44.591 4.328 43.929 4.222 44.355 1.558 43.147 1.365 43.253 0.704 46.373 1.202 46.268 1.863 45.016 1.663"></polyline>
            <path d="M48.342,4.476 L50.365,5.09 L50.169,5.738 L47.511,4.931 L48.488,1.706 L51.029,2.477 L50.834,3.118 L48.929,2.54 L48.691,3.325 C49.021,3.248 49.383,3.33 49.756,3.443 L50.23,3.588 L50.035,4.228 L49.562,4.085 C48.971,3.906 48.822,3.901 48.497,3.966 L48.342,4.476" id="Fill-58" fill="#000000"></path>
            <path d="M54.891,7.408 C54.419,7.538 53.897,7.472 53.433,7.253 C52.51,6.817 51.922,5.807 52.407,4.778 C52.896,3.743 54.055,3.585 54.966,4.015 C55.413,4.226 55.793,4.563 56.009,4.974 L55.382,5.254 C55.228,4.986 54.966,4.762 54.678,4.627 C54.09,4.349 53.367,4.404 53.043,5.092 C52.718,5.779 53.151,6.372 53.732,6.646 C54.05,6.796 54.441,6.836 54.776,6.736 L54.891,7.408" id="Fill-59" fill="#000000"></path>
            <path d="M56.891,9.058 L56.344,8.685 L58.239,5.907 L58.786,6.281 L58.028,7.39 C58.164,7.411 58.29,7.466 58.403,7.544 C58.634,7.701 58.906,8.004 59.185,8.195 C59.303,8.275 59.432,8.34 59.581,8.363 L60.298,7.312 L60.845,7.685 L58.95,10.463 L58.403,10.09 L59.197,8.926 C59.053,8.906 58.935,8.849 58.822,8.772 C58.533,8.575 58.311,8.313 58.037,8.127 C57.914,8.042 57.79,7.981 57.645,7.953 L56.891,9.058" id="Fill-60" fill="#000000"></path>
            <polyline id="Fill-61" fill="#000000" points="63.332 9.726 63.196 12.824 64.808 11.127 65.293 11.588 62.974 14.031 62.488 13.569 62.639 10.691 61.13 12.28 60.645 11.819 62.62 9.739 62.724 9.148 63.332 9.726"></polyline>
            <path d="M67.65,15.279 C67.257,14.761 66.599,14.462 65.992,14.922 C65.386,15.381 65.504,16.107 65.893,16.619 C66.278,17.127 66.988,17.396 67.568,16.956 C68.169,16.501 68.035,15.786 67.65,15.279 Z M65.342,17.021 C64.725,16.208 64.672,15.042 65.578,14.354 C66.49,13.663 67.59,14.06 68.199,14.863 C68.812,15.671 68.93,16.805 67.998,17.512 C67.086,18.203 65.958,17.834 65.342,17.021 Z" id="Fill-62" fill="#000000"></path>
            <polyline id="Fill-63" fill="#000000" points="67.553 20.097 70.498 18.47 70.835 19.078 68.48 20.379 69.344 21.942 68.752 22.269 67.553 20.097"></polyline>
            <path d="M72.659,24.36 C72.431,23.75 71.885,23.273 71.172,23.54 C70.458,23.806 70.363,24.536 70.588,25.139 C70.812,25.737 71.415,26.199 72.097,25.945 C72.805,25.68 72.882,24.957 72.659,24.36 Z M69.944,25.366 C69.586,24.41 69.871,23.275 70.937,22.876 C72.011,22.476 72.952,23.174 73.305,24.118 C73.66,25.069 73.446,26.191 72.349,26.601 C71.276,27.002 70.301,26.324 69.944,25.366 Z" id="Fill-64" fill="#000000"></path>
            <path d="M72.182,31.978 C71.798,31.677 71.541,31.217 71.441,30.714 C71.243,29.712 71.707,28.64 72.822,28.418 C73.945,28.197 74.76,29.035 74.956,30.024 C75.052,30.509 75.007,31.015 74.804,31.432 L74.207,31.093 C74.33,30.811 74.355,30.468 74.293,30.156 C74.167,29.518 73.693,28.968 72.947,29.116 C72.202,29.264 71.982,29.963 72.107,30.595 C72.154,30.83 72.259,31.062 72.417,31.256 L72.946,31.151 L72.879,30.813 L73.442,30.41 L73.693,31.679 L72.182,31.978" id="Fill-65" fill="#000000"></path>
            <polyline id="Fill-66" fill="#000000" points="72.012 34.049 75.366 33.792 75.416 34.452 72.063 34.71 72.012 34.049"></polyline>
            <path d="M72.811,37.618 L72.734,39.729 L72.058,39.704 L72.159,36.93 L75.524,37.053 L75.427,39.703 L74.758,39.679 L74.831,37.691 L74.013,37.662 C74.17,37.96 74.183,38.331 74.169,38.721 L74.15,39.215 L73.482,39.191 L73.499,38.697 C73.522,38.079 73.488,37.935 73.343,37.637 L72.811,37.618" id="Fill-67" fill="#000000"></path>
            <path d="M73.939,44.199 C74.196,43.981 74.336,43.649 74.405,43.265 C74.463,42.946 74.36,42.564 74.168,42.529 C73.97,42.493 73.821,42.546 73.705,43.192 C73.45,44.606 72.931,44.737 72.393,44.64 C71.6,44.497 71.348,43.698 71.519,42.751 C71.622,42.175 71.999,41.662 72.493,41.375 L72.888,41.934 C72.641,42.094 72.264,42.278 72.158,42.867 C72.05,43.468 72.165,43.925 72.511,43.987 C72.812,44.042 72.936,43.72 73.061,43.029 C73.203,42.236 73.57,41.707 74.293,41.838 C74.894,41.946 75.177,42.651 75.044,43.387 C74.957,43.867 74.792,44.306 74.372,44.733 L73.939,44.199" id="Fill-68" fill="#000000"></path>
            <path d="M61.192,61.683 C61.129,61.843 60.978,61.946 60.807,61.946 C60.755,61.946 60.703,61.936 60.654,61.917 C60.441,61.832 60.337,61.59 60.421,61.376 C60.484,61.217 60.636,61.115 60.807,61.115 C60.859,61.115 60.91,61.125 60.961,61.144 C61.064,61.184 61.144,61.263 61.187,61.365 C61.231,61.468 61.233,61.58 61.192,61.683 Z M61.236,60.447 C61.096,60.39 60.95,60.365 60.807,60.365 C60.468,60.365 60.144,60.516 59.922,60.777 L58.181,60.085 C57.99,60.009 57.771,60.102 57.693,60.295 C57.617,60.488 57.711,60.706 57.904,60.782 L59.656,61.478 C59.634,61.96 59.902,62.425 60.377,62.614 C60.519,62.67 60.664,62.697 60.807,62.697 C61.271,62.697 61.708,62.417 61.89,61.96 C62.127,61.361 61.834,60.683 61.236,60.447 Z" id="Fill-69" fill="#000000"></path>
            <path d="M64.418,53.55 C64.355,53.709 64.203,53.812 64.032,53.812 C63.98,53.812 63.929,53.802 63.879,53.782 C63.775,53.741 63.694,53.662 63.65,53.561 C63.606,53.46 63.604,53.347 63.646,53.243 C63.709,53.084 63.86,52.982 64.031,52.982 C64.084,52.982 64.136,52.991 64.186,53.011 C64.288,53.052 64.369,53.131 64.413,53.233 C64.457,53.335 64.459,53.447 64.418,53.55 Z M64.462,52.315 C64.32,52.258 64.175,52.232 64.031,52.232 C63.692,52.232 63.369,52.383 63.147,52.642 L61.406,51.951 C61.214,51.876 60.996,51.969 60.919,52.161 C60.843,52.354 60.938,52.573 61.13,52.649 L62.881,53.343 C62.858,53.826 63.128,54.291 63.603,54.48 C63.744,54.535 63.889,54.562 64.032,54.562 C64.495,54.562 64.935,54.283 65.115,53.826 C65.353,53.228 65.059,52.552 64.462,52.315 Z" id="Fill-70" fill="#000000"></path>
            <path d="M18.356,61.916 C18.307,61.936 18.256,61.946 18.203,61.946 C18.032,61.946 17.881,61.843 17.817,61.683 C17.776,61.58 17.778,61.468 17.822,61.365 C17.866,61.263 17.947,61.184 18.05,61.144 C18.1,61.125 18.151,61.115 18.203,61.115 C18.375,61.115 18.526,61.217 18.589,61.377 C18.674,61.59 18.569,61.832 18.356,61.916 Z M20.83,60.085 L19.088,60.777 C18.867,60.516 18.543,60.365 18.203,60.365 C18.061,60.365 17.915,60.39 17.773,60.447 C17.176,60.683 16.883,61.361 17.12,61.96 C17.302,62.417 17.74,62.697 18.203,62.697 C18.347,62.697 18.492,62.67 18.633,62.614 C19.108,62.425 19.377,61.96 19.354,61.478 L21.106,60.782 C21.299,60.706 21.393,60.488 21.316,60.295 C21.24,60.103 21.021,60.009 20.83,60.085 Z" id="Fill-71" fill="#000000"></path>
            <path d="M15.359,53.561 C15.315,53.662 15.234,53.741 15.131,53.782 C15.081,53.802 15.03,53.812 14.978,53.812 C14.807,53.812 14.655,53.709 14.592,53.549 C14.551,53.447 14.553,53.335 14.597,53.233 C14.641,53.131 14.722,53.052 14.824,53.011 C14.875,52.991 14.927,52.982 14.979,52.982 C15.15,52.982 15.302,53.084 15.364,53.243 C15.405,53.347 15.403,53.46 15.359,53.561 Z M18.091,52.161 C18.015,51.969 17.797,51.876 17.605,51.951 L15.862,52.642 C15.642,52.383 15.318,52.232 14.979,52.232 C14.835,52.232 14.689,52.258 14.548,52.315 C13.951,52.552 13.657,53.228 13.894,53.826 C14.076,54.283 14.515,54.562 14.978,54.562 C15.121,54.562 15.267,54.535 15.407,54.48 C15.883,54.291 16.151,53.826 16.13,53.343 L17.881,52.649 C18.073,52.573 18.167,52.354 18.091,52.161 Z" id="Fill-72" fill="#000000"></path>
        </g>
    </g>
</svg>