<?xml version="1.0" encoding="UTF-8"?>
<svg width="71px" height="77px" viewBox="0 0 71 77" version="1.1" xmlns="http://www.w3.org/2000/svg" xmlns:xlink="http://www.w3.org/1999/xlink">
    <!-- Generator: Sketch 49 (51002) - http://www.bohemiancoding.com/sketch -->
    <title>bitcoin-grey-36</title>
    <desc>Created with Sketch.</desc>
    <defs></defs>
    <g id="Page-1" stroke="none" stroke-width="1" fill="none" fill-rule="evenodd">
        <g id="bitcoin-grey-36" fill="#000000">
            <path d="M27.242,47.642 L26.553,44.904 L34.235,42.982 C35.409,42.688 36.634,43.419 36.922,44.565 C36.961,44.721 36.979,44.878 36.983,45.035 C36.752,45.204 36.488,45.33 36.2,45.403 L27.242,47.642 Z M26.175,43.399 L35.135,41.159 C36.31,40.865 37.532,41.595 37.82,42.743 C37.953,43.269 37.876,43.814 37.619,44.293 C37.259,43.036 36.109,42.165 34.781,42.165 C34.537,42.165 34.292,42.195 34.054,42.255 L26.37,44.177 L26.175,43.399 Z M25.643,44.358 L25.734,44.722 L25.826,45.086 L26.605,48.188 C26.648,48.359 26.801,48.472 26.969,48.472 C26.999,48.472 27.03,48.469 27.06,48.461 L36.382,46.131 C36.521,46.095 36.651,46.041 36.782,45.988 C36.953,45.918 37.114,45.834 37.267,45.736 C37.427,45.632 37.576,45.515 37.713,45.383 C37.905,45.201 38.081,45.001 38.22,44.769 C38.552,44.213 38.677,43.578 38.606,42.949 C38.592,42.819 38.581,42.689 38.548,42.56 C38.488,42.322 38.392,42.104 38.28,41.895 C37.776,40.957 36.792,40.341 35.68,40.341 C35.503,40.341 35.328,40.375 35.153,40.406 C35.087,40.418 35.019,40.414 34.953,40.431 L33.565,40.778 L31.973,41.177 L25.628,42.763 C25.532,42.787 25.449,42.848 25.398,42.934 C25.347,43.02 25.332,43.121 25.356,43.218 L25.643,44.358 Z" id="Fill-1"></path>
            <path d="M38.188,52.43 C38.175,52.432 38.161,52.434 38.147,52.438 L36.013,52.97 C35.999,52.973 35.985,52.978 35.972,52.983 L29.022,54.72 L28.333,51.98 L37.722,49.632 C38.897,49.338 40.121,50.069 40.411,51.219 C40.45,51.374 40.467,51.53 40.472,51.686 C40.24,51.856 39.976,51.981 39.688,52.053 L38.188,52.43 Z M41.31,49.394 C41.442,49.92 41.365,50.466 41.107,50.945 C40.746,49.688 39.596,48.815 38.27,48.815 C38.024,48.815 37.779,48.845 37.54,48.905 L28.15,51.253 L27.955,50.478 L38.621,47.81 C39.795,47.516 41.021,48.246 41.31,49.394 Z M36.25,47.631 L27.409,49.84 C27.312,49.865 27.229,49.927 27.178,50.011 C27.174,50.017 27.174,50.025 27.17,50.031 C27.128,50.113 27.113,50.206 27.136,50.296 L27.422,51.434 L27.514,51.799 L28.386,55.266 C28.411,55.363 28.472,55.446 28.558,55.496 C28.617,55.531 28.683,55.549 28.75,55.549 C28.781,55.549 28.812,55.546 28.842,55.537 L36.195,53.7 C36.209,53.697 36.223,53.692 36.236,53.688 L38.288,53.176 C38.302,53.174 38.316,53.171 38.33,53.168 L39.87,52.781 C40.01,52.745 40.14,52.691 40.271,52.638 C40.441,52.569 40.602,52.485 40.755,52.387 C40.916,52.284 41.065,52.166 41.202,52.035 C41.392,51.852 41.568,51.654 41.707,51.423 C42.044,50.859 42.168,50.217 42.092,49.579 C42.078,49.456 42.068,49.333 42.037,49.211 C41.975,48.963 41.873,48.735 41.753,48.518 C41.245,47.596 40.269,46.992 39.167,46.992 C39.159,46.992 39.152,46.995 39.144,46.995 C39.01,46.996 38.877,47.026 38.745,47.045 C38.643,47.06 38.54,47.057 38.44,47.082 L36.25,47.631 Z" id="Fill-2"></path>
            <path d="M59.575,36.312 C59.591,36.398 59.593,36.525 59.509,36.646 C59.363,36.861 59.008,36.905 58.756,36.737 L44.045,26.911 C44.227,26.64 44.412,26.374 44.601,26.108 L59.315,35.934 C59.452,36.026 59.546,36.163 59.575,36.312 Z M42.952,24.105 C45.176,21.249 47.849,19.564 49.935,18.98 C47.882,20.827 46.045,22.881 44.419,25.085 C44.345,25.186 44.27,25.286 44.197,25.387 C44.124,25.489 44.047,25.588 43.974,25.69 C43.786,25.956 43.602,26.223 43.42,26.493 C43.351,26.596 43.285,26.702 43.216,26.807 C43.147,26.911 43.08,27.016 43.011,27.121 C41.536,29.402 40.276,31.819 39.285,34.357 C39.141,32.181 39.825,29.102 41.559,26.152 C41.621,26.045 41.692,25.94 41.758,25.833 C41.823,25.728 41.889,25.621 41.958,25.515 C42.046,25.378 42.124,25.237 42.217,25.1 C42.31,24.963 42.411,24.843 42.506,24.709 C42.58,24.607 42.654,24.507 42.729,24.407 C42.804,24.307 42.876,24.203 42.952,24.105 Z M41.176,24.412 C41.261,24.288 41.409,24.217 41.58,24.217 C41.684,24.217 41.783,24.257 41.876,24.308 C41.785,24.436 41.686,24.547 41.597,24.679 C41.502,24.817 41.431,24.957 41.341,25.095 C41.224,25.007 41.138,24.883 41.112,24.748 C41.088,24.626 41.111,24.507 41.176,24.412 Z M38.791,35.907 C38.837,36.064 38.979,36.172 39.141,36.175 C39.145,36.175 39.147,36.175 39.15,36.175 C39.31,36.175 39.452,36.075 39.504,35.925 C40.542,32.966 41.945,30.16 43.639,27.541 L58.339,37.36 C58.568,37.512 58.832,37.593 59.104,37.593 C59.521,37.593 59.904,37.397 60.127,37.07 C60.307,36.81 60.373,36.491 60.312,36.173 C60.246,35.827 60.035,35.514 59.732,35.311 L45.048,25.505 C46.899,23 49.03,20.692 51.438,18.665 C51.562,18.561 51.605,18.389 51.545,18.239 C51.485,18.089 51.334,17.993 51.175,18.004 C48.835,18.141 45.204,20 42.336,23.697 C41.755,23.317 40.926,23.451 40.557,23.989 C40.378,24.25 40.314,24.57 40.375,24.89 C40.441,25.23 40.65,25.538 40.945,25.739 C38.593,29.704 38.137,33.708 38.791,35.907 Z" id="Fill-3"></path>
            <path d="M33,30.897 L32.962,30.502 L33.487,30.091 C33.633,30.049 33.975,29.951 34.23,29.878 C34.235,30.09 34.231,30.371 34.221,30.633 L33.574,31.402 L33,30.897 Z M34.592,31.357 L34.877,31.019 C34.93,30.955 34.961,30.877 34.965,30.795 C35.03,29.385 34.924,29.273 34.821,29.165 C34.75,29.091 34.583,29.047 34.48,29.047 C34.354,29.065 33.63,29.27 33.21,29.39 C33.164,29.403 33.12,29.425 33.083,29.456 L32.338,30.038 C32.237,30.117 32.183,30.243 32.196,30.37 L32.269,31.117 C32.278,31.212 32.322,31.299 32.394,31.362 L33.367,32.218 C33.435,32.278 33.523,32.312 33.614,32.312 C33.624,32.312 33.633,32.311 33.642,32.31 C33.743,32.303 33.836,32.255 33.901,32.178 L34.328,31.671 C34.317,31.763 34.338,31.858 34.398,31.938 L36.319,34.505 C36.393,34.604 36.505,34.656 36.62,34.656 C36.698,34.656 36.776,34.631 36.844,34.58 C37.01,34.457 37.044,34.222 36.919,34.056 L34.999,31.489 C34.902,31.36 34.739,31.313 34.592,31.357 Z" id="Fill-4"></path>
            <path d="M57.723,46.786 C57.859,46.786 57.991,46.712 58.057,46.582 C58.151,46.398 58.078,46.173 57.894,46.077 L46.584,40.288 C46.398,40.194 46.173,40.267 46.079,40.451 C45.984,40.636 46.058,40.862 46.242,40.956 L57.552,46.745 C57.607,46.773 57.665,46.786 57.723,46.786" id="Fill-5"></path>
            <path d="M51.658,37.876 C51.668,37.876 51.678,37.877 51.688,37.877 C51.882,37.877 52.046,37.728 52.062,37.531 C52.078,37.325 51.923,37.144 51.717,37.128 L44.759,36.58 C44.55,36.563 44.372,36.719 44.356,36.925 C44.34,37.132 44.494,37.312 44.701,37.328 L51.658,37.876" id="Fill-6"></path>
            <path d="M41.316,39.5 C41.169,39.644 41.167,39.882 41.312,40.029 L50.163,49.024 C50.236,49.099 50.332,49.136 50.43,49.136 C50.525,49.136 50.62,49.1 50.693,49.028 C50.84,48.883 50.842,48.646 50.697,48.498 L41.846,39.504 C41.701,39.356 41.464,39.354 41.316,39.5" id="Fill-7"></path>
            <path d="M31.248,32.219 L22.586,28.174 C22.4,28.087 22.176,28.168 22.088,28.356 C22,28.543 22.082,28.766 22.269,28.854 L30.93,32.899 C30.981,32.923 31.036,32.933 31.089,32.933 C31.23,32.933 31.365,32.854 31.429,32.718 C31.516,32.53 31.435,32.307 31.248,32.219" id="Fill-8"></path>
            <path d="M18.8,27.456 L19.569,28.515 C19.554,28.836 19.525,29.397 19.495,29.712 C19.482,29.712 19.469,29.712 19.455,29.712 C19.165,29.712 18.795,29.606 18.678,29.542 C18.514,29.276 17.978,28.6 17.529,28.047 L18.8,27.456 Z M18.031,29.918 C18.229,30.367 19.26,30.462 19.455,30.462 C20.075,30.462 20.195,30.126 20.217,29.981 C20.273,29.621 20.319,28.537 20.324,28.416 C20.327,28.33 20.302,28.248 20.252,28.179 L19.225,26.765 C19.12,26.62 18.926,26.57 18.764,26.645 L16.775,27.57 C16.67,27.619 16.594,27.714 16.568,27.827 C16.542,27.94 16.57,28.058 16.644,28.148 C17.264,28.905 17.955,29.777 18.031,29.918 Z" id="Fill-9"></path>
            <path d="M21.763,16.773 C21.717,16.512 21.64,16.15 21.526,15.641 L22.627,15.661 L22.641,16.604 C22.391,16.652 22.036,16.72 21.763,16.773 Z M21.057,17.258 C21.077,17.449 21.238,17.595 21.43,17.595 C21.457,17.595 21.485,17.592 21.512,17.586 C21.589,17.57 22.591,17.377 22.953,17.307 C22.937,17.408 22.959,17.513 23.027,17.599 L30.876,27.44 C30.95,27.532 31.059,27.58 31.169,27.58 C31.251,27.58 31.333,27.554 31.403,27.499 C31.564,27.37 31.591,27.134 31.462,26.972 L23.613,17.132 C23.55,17.051 23.459,17.005 23.366,16.994 C23.373,16.964 23.396,16.94 23.396,16.907 L23.372,15.286 C23.369,15.084 23.206,14.921 23.003,14.917 L21.061,14.883 C20.957,14.881 20.836,14.932 20.764,15.022 C20.691,15.111 20.664,15.23 20.689,15.342 C20.854,16.067 21.035,16.928 21.061,17.156 C21.055,17.189 21.054,17.223 21.057,17.258 Z" id="Fill-10"></path>
            <path d="M32.088,13.003 L32.022,13.105 L31.91,13.083 L31.256,12.954 L31.332,12.77 C31.335,12.76 31.339,12.75 31.343,12.739 L32.003,12.378 L32.286,12.695 L32.088,13.003 Z M30.664,13.603 L31.883,13.841 L35.351,27.37 C35.394,27.54 35.546,27.653 35.713,27.653 C35.745,27.653 35.776,27.648 35.807,27.64 C36.008,27.589 36.128,27.385 36.077,27.183 L32.595,13.6 L33.071,12.86 C33.162,12.717 33.147,12.533 33.035,12.407 L32.364,11.656 C32.247,11.527 32.057,11.494 31.904,11.577 L30.784,12.19 C30.641,12.267 30.565,12.429 30.595,12.589 L30.389,13.093 C30.346,13.197 30.353,13.314 30.406,13.412 C30.459,13.511 30.554,13.582 30.664,13.603 Z" id="Fill-11"></path>
            <path d="M54.216,53.853 L52.321,52.916 L51.737,52.44 L52.585,51.257 L54.359,50.916 C54.643,51.407 55.3,52.549 55.555,52.995 C55.383,53.188 54.82,53.549 54.216,53.853 Z M54.48,50.128 L52.296,50.549 C52.202,50.567 52.118,50.62 52.063,50.699 L50.922,52.29 C50.806,52.45 50.836,52.673 50.99,52.799 L51.917,53.542 L54.047,54.606 C54.1,54.632 54.157,54.646 54.215,54.646 C54.27,54.646 54.325,54.633 54.377,54.609 C55.028,54.299 56.145,53.697 56.311,53.169 C56.358,53.019 56.343,52.865 56.27,52.736 C56.036,52.323 54.876,50.31 54.876,50.31 C54.796,50.171 54.636,50.098 54.48,50.128 Z" id="Fill-12"></path>
            <path d="M61.295,46.862 L62.568,48.089 L62.338,49.857 C61.978,49.921 61.356,50.033 61.078,50.102 C60.953,50.073 60.63,49.899 59.815,49.268 C59.806,49.26 59.796,49.253 59.787,49.245 C59.937,48.816 60.456,47.749 60.723,47.2 C60.827,46.987 60.905,46.827 60.963,46.704 L61.295,46.862 Z M59.179,49.725 C59.209,49.745 59.271,49.795 59.356,49.861 C60.169,50.491 60.713,50.856 61.087,50.856 C61.12,50.856 61.2,50.845 61.231,50.837 C61.5,50.765 62.41,50.604 62.738,50.549 C62.9,50.52 63.025,50.39 63.047,50.226 L63.337,47.998 C63.352,47.881 63.311,47.763 63.225,47.68 L61.772,46.28 C61.743,46.252 61.71,46.228 61.673,46.211 L60.937,45.861 C60.828,45.81 60.707,45.788 60.604,45.845 C60.499,45.902 60.432,45.98 60.415,46.099 C60.384,46.189 60.235,46.491 60.049,46.871 C58.905,49.221 58.824,49.488 59.179,49.725 Z" id="Fill-13"></path>
            <path d="M55.713,38.953 L56.505,39.469 C56.738,39.811 56.981,40.171 57.145,40.417 C56.864,40.522 56.423,40.661 56.018,40.778 L54.665,40.252 L55.129,39.208 L55.713,38.953 Z M55.863,41.524 C55.907,41.54 55.953,41.549 55.999,41.549 C56.033,41.549 56.067,41.544 56.1,41.535 C57.873,41.037 57.948,40.868 58.015,40.717 C58.061,40.614 58.058,40.476 58.006,40.376 C57.933,40.232 57.335,39.354 57.081,38.984 C57.054,38.943 57.018,38.908 56.977,38.881 L55.953,38.215 C55.848,38.147 55.715,38.135 55.599,38.186 L54.696,38.578 C54.61,38.616 54.541,38.684 54.503,38.77 L53.821,40.307 C53.779,40.401 53.778,40.507 53.817,40.602 C53.856,40.697 53.932,40.772 54.027,40.808 L55.863,41.524 Z" id="Fill-14"></path>
            <path d="M39.224,55.182 L40.402,54.888 C40.916,54.759 41.385,54.536 41.825,54.271 C41.234,55.088 40.402,55.679 39.417,55.949 L39.224,55.182 Z M32.285,56.917 L36.361,55.898 L36.615,56.906 L36.327,56.874 C36.25,56.865 36.171,56.881 36.103,56.919 L35.976,56.989 C35.886,56.911 35.765,56.871 35.644,56.902 L32.481,57.695 L32.285,56.917 Z M32.664,58.422 L33.999,58.088 L32.753,58.779 L32.664,58.422 Z M42.851,59.65 L45.856,63.211 L47.093,66.167 L44.947,66.167 L42.053,62.81 L41.312,58.573 L42.851,59.65 Z M40.465,58.088 L41.332,63.04 C41.333,63.046 41.338,63.048 41.339,63.054 C41.353,63.113 41.375,63.171 41.417,63.22 L43.957,66.167 L38.792,66.167 L38.307,64.66 L38.55,61.483 C38.566,61.277 38.412,61.097 38.207,61.08 C38.206,61.08 38.206,61.08 38.205,61.08 C38.125,61.075 38.055,61.099 37.993,61.134 C37.888,61.194 37.812,61.297 37.802,61.426 L37.554,64.677 C37.55,64.724 37.556,64.773 37.571,64.819 L38.004,66.167 L32.112,66.167 L31.357,65.381 L31.329,62.416 L31.325,62.03 L31.315,60.951 L31.314,60.821 L31.31,60.434 L31.309,60.387 L31.309,60.381 C31.361,60.376 31.414,60.381 31.462,60.353 L31.606,60.273 L31.931,60.093 L32.264,59.908 L32.272,59.904 L32.603,59.719 L32.613,59.715 L32.943,59.531 L35.553,58.082 L35.893,57.894 L36.232,57.706 L36.363,57.633 L36.81,57.682 L37.209,57.726 L37.606,57.771 L37.748,57.786 L38.146,57.83 L38.686,57.89 L39.006,57.926 L39.145,57.942 L39.543,57.986 L39.604,57.992 L39.941,58.03 L40.465,58.088 Z M31.486,36.522 L32.086,38.908 L31.538,39.045 L31.1,37.304 L31.486,36.522 Z M24.419,41.599 L24.783,41.507 L25.695,41.279 C25.792,41.255 25.874,41.193 25.925,41.108 C25.977,41.023 25.992,40.92 25.967,40.824 L25.197,37.765 L25.101,37.382 L25.196,37.358 L25.8,37.206 L26.509,37.029 L27.375,40.473 C27.426,40.674 27.634,40.796 27.83,40.745 L30.993,39.954 L31.356,39.863 L31.72,39.772 L32.632,39.544 C32.729,39.52 32.812,39.459 32.863,39.374 C32.915,39.287 32.93,39.186 32.905,39.089 L32.039,35.646 L32.217,35.602 L32.822,35.451 L33.448,35.294 L33.567,35.765 L33.743,36.465 L34.317,38.745 C34.367,38.942 34.567,39.063 34.759,39.021 C35.066,38.954 35.381,38.922 35.693,38.922 C37.717,38.922 39.47,40.273 39.956,42.208 C40.148,42.974 40.122,43.753 39.896,44.494 C39.834,44.701 39.761,44.907 39.666,45.108 C39.615,45.214 39.617,45.337 39.671,45.441 C39.717,45.53 39.799,45.589 39.894,45.619 C39.91,45.624 39.922,45.635 39.94,45.639 C41.65,45.937 43.026,47.201 43.444,48.859 C43.638,49.628 43.6,50.416 43.373,51.16 C43.285,51.447 43.169,51.726 43.021,51.994 C42.996,52.04 42.981,52.09 42.955,52.135 C42.837,52.332 42.695,52.507 42.551,52.68 C41.953,53.403 41.151,53.927 40.22,54.16 L39.742,54.28 L38.678,54.545 C38.581,54.569 38.498,54.631 38.447,54.717 C38.443,54.723 38.442,54.732 38.439,54.739 C38.397,54.819 38.382,54.911 38.405,55.001 L38.692,56.14 L38.783,56.505 L38.875,56.868 L38.95,57.165 L38.349,57.099 L37.951,57.055 L37.553,57.01 L37.411,56.995 L36.998,55.352 C36.974,55.26 36.916,55.188 36.842,55.137 C36.756,55.078 36.649,55.053 36.543,55.08 L31.739,56.281 C31.643,56.304 31.56,56.366 31.508,56.451 C31.504,56.458 31.504,56.466 31.5,56.473 C31.459,56.555 31.444,56.648 31.466,56.735 L31.845,58.239 L31.936,58.604 L32.075,59.156 L32.042,59.174 L31.356,59.555 L31.149,59.332 L30.618,58.756 L30.427,58.55 L30.059,57.087 C30.036,56.993 29.976,56.924 29.901,56.874 C29.84,56.833 29.771,56.803 29.696,56.803 C29.666,56.803 29.635,56.807 29.604,56.815 L28.971,56.973 L28.779,56.765 L28.49,56.452 L27.955,55.874 L27.697,55.594 L27.452,55.411 L26.976,55.056 L26.806,54.929 L23.948,43.571 C23.925,43.478 23.866,43.404 23.792,43.354 C23.706,43.297 23.6,43.272 23.494,43.299 L22.085,43.65 L21.644,43.76 L21.388,42.746 L21.296,42.381 L21.415,42.35 L22.019,42.199 L24.055,41.69 L24.419,41.599 Z M24.523,38.16 L25.148,40.642 L24.6,40.78 L24.138,38.942 L24.523,38.16 Z M23.049,45.392 C22.999,45.192 22.792,45.07 22.595,45.12 L20.744,45.584 L20.34,43.973 L20.726,43.19 L21.007,44.307 C21.058,44.507 21.264,44.629 21.462,44.578 L23.312,44.117 L25.854,54.218 L25.837,54.205 L24.869,52.621 L23.049,45.392 Z M16.523,55.237 L16.942,48.236 L19.097,47.303 L22.603,50.354 L24.168,52.916 L25.235,54.659 C25.26,54.699 25.292,54.735 25.331,54.764 L25.425,54.834 L26.143,55.366 L26.607,55.711 L26.9,55.928 L26.952,55.967 L27.111,57.439 L27.151,57.816 L27.192,58.191 L27.319,59.371 L27.36,59.748 L27.395,60.076 C27.416,60.267 27.579,60.411 27.768,60.411 C27.781,60.411 27.794,60.41 27.808,60.408 C28.014,60.386 28.163,60.201 28.141,59.995 L28.094,59.564 L28.054,59.188 L28.013,58.812 L27.886,57.631 L27.858,57.374 L27.846,57.255 L27.796,56.8 L27.804,56.807 L27.957,56.973 L28.147,57.179 L28.247,57.287 L28.436,57.493 L28.726,57.807 L29.746,58.914 L30.277,59.492 L30.554,59.792 L30.577,62.217 L30.584,62.988 L30.609,65.536 C30.61,65.632 30.647,65.723 30.713,65.792 L31.073,66.167 L26.494,66.167 L26.34,62.082 C26.337,62.015 26.318,61.951 26.282,61.896 L25.257,60.274 L25.046,59.94 L24.835,59.607 L24.465,59.021 L23.969,58.237 L23.961,58.043 L23.933,57.253 L23.813,53.945 C23.806,53.739 23.647,53.576 23.425,53.584 C23.218,53.592 23.056,53.765 23.064,53.972 L23.223,58.365 C23.225,58.431 23.245,58.495 23.281,58.552 L23.844,59.443 L24.28,60.132 L24.491,60.466 L25.594,62.211 L25.744,66.167 L20.442,66.167 L20.114,63.265 L21.861,59.226 C21.891,59.157 21.899,59.08 21.885,59.007 L20.225,50.387 C20.186,50.183 19.987,50.05 19.786,50.09 C19.582,50.129 19.449,50.325 19.488,50.528 L21.127,59.035 L19.386,63.06 C19.36,63.12 19.351,63.186 19.358,63.251 L19.687,66.167 L11.951,66.167 L14.597,59.11 L16.483,55.385 C16.506,55.339 16.52,55.288 16.523,55.237 Z M4.236,66.917 L69.902,66.917 L69.903,76.044 L4.236,76.044 L4.236,66.917 Z M70.652,66.542 C70.652,66.335 70.484,66.167 70.277,66.167 L47.906,66.167 L46.526,62.868 C46.511,62.833 46.491,62.8 46.467,62.771 L43.392,59.129 C43.371,59.104 43.347,59.082 43.321,59.064 L41.001,57.44 C40.998,57.436 40.993,57.437 40.989,57.434 C40.945,57.406 40.896,57.388 40.845,57.381 C40.839,57.38 40.834,57.374 40.828,57.374 L39.746,57.254 L39.6,56.677 C40.905,56.323 42.006,55.503 42.7,54.344 C42.953,53.921 43.118,53.467 43.24,53.004 C43.362,52.845 43.494,52.694 43.598,52.52 C44.297,51.352 44.501,49.986 44.171,48.675 C43.718,46.881 42.312,45.48 40.523,45 C40.872,44.049 40.931,43.01 40.684,42.025 C40.113,39.757 38.062,38.172 35.693,38.172 C35.448,38.172 35.203,38.189 34.959,38.223 L34.084,34.748 C34.034,34.548 33.828,34.426 33.63,34.475 L31.493,35.009 C31.467,35.015 31.454,35.044 31.43,35.056 C31.413,35.065 31.4,35.078 31.383,35.09 C31.342,35.12 31.289,35.135 31.262,35.18 C31.227,35.239 31.215,35.307 31.216,35.376 L30.469,36.89 C30.427,36.92 30.392,36.958 30.365,37.003 C30.313,37.089 30.298,37.191 30.322,37.287 L30.81,39.228 L28.012,39.927 L27.145,36.483 C27.094,36.281 26.89,36.16 26.689,36.21 L24.554,36.745 C24.549,36.746 24.547,36.753 24.542,36.754 C24.435,36.778 24.337,36.843 24.285,36.949 L23.386,38.772 C23.336,38.873 23.354,39.007 23.408,39.117 L23.873,40.962 L20.75,41.744 C20.746,41.744 20.744,41.75 20.74,41.752 C20.655,41.777 20.583,41.83 20.533,41.904 C20.53,41.909 20.522,41.91 20.519,41.915 C20.516,41.92 20.516,41.925 20.514,41.93 C20.511,41.934 20.507,41.937 20.504,41.942 L19.607,43.765 C19.568,43.844 19.558,43.936 19.58,44.022 L20.108,46.13 C20.158,46.33 20.366,46.452 20.562,46.403 L22.414,45.939 L23.554,50.473 L23.212,49.914 C23.192,49.881 23.167,49.852 23.138,49.827 L19.411,46.582 C19.302,46.487 19.149,46.463 19.016,46.52 L16.405,47.651 C16.259,47.715 16.168,47.863 16.18,48.022 L16.196,48.206 L15.779,55.115 L13.912,58.808 L11.15,66.167 L3.861,66.167 C3.654,66.167 3.486,66.335 3.486,66.542 L3.486,76.42 C3.486,76.626 3.654,76.794 3.861,76.794 L70.278,76.794 C70.377,76.794 70.473,76.755 70.543,76.684 C70.613,76.614 70.653,76.519 70.653,76.42 L70.652,66.542 Z" id="Fill-15"></path>
            <path d="M7.227,18.307 C7.036,18.479 6.847,18.653 6.658,18.828 C4.684,17.373 2.657,15.977 0.58,14.642 C0.731,14.492 0.883,14.344 1.035,14.197 C2.918,15.431 4.758,16.717 6.555,18.052 C5.388,16.156 4.27,14.225 3.202,12.257 C3.374,12.109 3.548,11.961 3.722,11.815 C5.47,13.193 7.176,14.614 8.839,16.078 C7.796,14.109 6.803,12.107 5.862,10.075 C6.012,9.962 6.163,9.85 6.315,9.739 C7.324,11.989 8.396,14.201 9.529,16.376 C9.342,16.521 9.157,16.669 8.972,16.818 C7.443,15.516 5.877,14.252 4.275,13.024 C5.215,14.814 6.2,16.578 7.227,18.307" id="Fill-16"></path>
            <path d="M6.018,10.114 C6.939,12.1 7.925,14.086 8.949,16.019 L9.194,16.48 C9.252,16.434 9.312,16.387 9.371,16.341 C8.279,14.243 7.234,12.088 6.264,9.931 C6.182,9.992 6.1,10.053 6.018,10.114 Z M3.36,12.286 C4.403,14.205 5.514,16.122 6.661,17.987 L6.924,18.414 C6.971,18.37 7.019,18.327 7.067,18.283 C6.069,16.6 5.093,14.85 4.164,13.082 L3.9,12.579 L4.351,12.925 C5.925,14.131 7.48,15.386 8.974,16.656 C9.032,16.609 9.09,16.563 9.148,16.517 L8.756,16.172 C7.133,14.742 5.44,13.331 3.724,11.976 C3.603,12.079 3.481,12.182 3.36,12.286 Z M0.779,14.622 C2.775,15.909 4.749,17.269 6.649,18.666 C6.727,18.594 6.804,18.523 6.882,18.452 L6.48,18.153 C4.712,16.839 2.885,15.562 1.05,14.356 C0.96,14.444 0.869,14.533 0.779,14.622 Z M6.668,18.99 L6.584,18.929 C4.621,17.482 2.579,16.075 0.513,14.747 L0.381,14.663 L0.492,14.553 C0.644,14.403 0.795,14.254 0.948,14.107 L1.02,14.037 L1.104,14.092 C2.793,15.2 4.476,16.368 6.114,17.571 C5.065,15.847 4.05,14.082 3.092,12.317 L3.044,12.228 L3.12,12.162 C3.293,12.014 3.467,11.865 3.641,11.719 L3.719,11.654 L3.799,11.716 C5.368,12.953 6.919,14.238 8.415,15.54 C7.485,13.762 6.59,11.944 5.749,10.127 L5.706,10.036 L5.787,9.975 C5.938,9.862 6.089,9.749 6.241,9.638 L6.366,9.547 L6.429,9.688 C7.429,11.919 8.509,14.149 9.64,16.318 L9.688,16.41 L9.606,16.474 C9.42,16.619 9.235,16.766 9.05,16.916 L8.97,16.981 L8.891,16.914 C7.52,15.745 6.097,14.59 4.654,13.474 C5.516,15.096 6.417,16.698 7.334,18.244 L7.386,18.331 L7.311,18.4 C7.12,18.572 6.931,18.745 6.743,18.92 L6.668,18.99 Z" id="Fill-17"></path>
            <path d="M13.771,11.437 C14.165,12.119 14.755,12.443 15.542,12.015 C16.341,11.588 16.41,10.918 16.062,10.213 C15.503,9.09 14.944,7.968 14.386,6.845 C14.038,6.143 13.408,5.798 12.483,6.293 C11.571,6.785 11.513,7.495 11.904,8.172 C12.526,9.261 13.149,10.35 13.771,11.437 Z M11.399,8.501 C10.862,7.6 11.011,6.591 12.278,5.91 C13.573,5.223 14.484,5.66 14.935,6.611 C15.471,7.721 16.007,8.832 16.542,9.943 C16.996,10.896 16.841,11.815 15.746,12.398 C14.675,12.975 13.816,12.596 13.276,11.69 C12.65,10.627 12.025,9.564 11.399,8.501 Z" id="Fill-18"></path>
            <path d="M13.292,6.185 C13.065,6.185 12.812,6.258 12.542,6.403 C12.156,6.611 11.918,6.867 11.834,7.163 C11.753,7.447 11.814,7.766 12.012,8.11 L13.88,11.375 C14.15,11.845 14.483,12.083 14.868,12.083 C15.059,12.083 15.266,12.023 15.482,11.906 C16.152,11.547 16.31,10.996 15.949,10.268 L14.274,6.901 C14.112,6.574 13.811,6.185 13.292,6.185 Z M14.868,12.333 C14.394,12.333 13.978,12.045 13.663,11.5 L11.795,8.234 C11.565,7.836 11.495,7.441 11.593,7.095 C11.696,6.731 11.976,6.424 12.423,6.183 C13.318,5.705 14.077,5.937 14.498,6.79 L16.173,10.157 C16.592,11.005 16.389,11.704 15.601,12.125 C15.348,12.263 15.101,12.333 14.868,12.333 Z M13.451,5.7 C13.112,5.7 12.737,5.808 12.337,6.02 C11.76,6.33 11.404,6.716 11.279,7.168 C11.169,7.564 11.248,8.003 11.507,8.437 L13.384,11.626 C13.634,12.046 14.078,12.547 14.771,12.547 C15.059,12.547 15.367,12.46 15.687,12.287 C16.896,11.645 16.758,10.687 16.43,9.996 L14.822,6.665 C14.613,6.225 14.206,5.7 13.451,5.7 Z M14.771,12.797 C14.13,12.797 13.576,12.436 13.168,11.754 L11.292,8.565 C10.998,8.072 10.91,7.565 11.038,7.101 C11.182,6.581 11.58,6.144 12.219,5.8 C13.451,5.146 14.523,5.45 15.048,6.558 L16.655,9.888 C17.178,10.988 16.868,11.943 15.805,12.508 C15.449,12.7 15.101,12.797 14.771,12.797 Z" id="Fill-19"></path>
            <path d="M21.414,5.931 C22.375,5.62 22.876,5.233 22.606,4.297 C22.543,4.078 22.479,3.861 22.416,3.642 C22.201,2.897 21.704,2.549 20.748,2.856 C20.334,2.988 19.921,3.127 19.511,3.271 C19.856,4.256 20.202,5.241 20.548,6.225 C20.836,6.124 21.125,6.027 21.414,5.931 Z M20.627,2.44 C21.987,2.012 22.702,2.457 22.971,3.441 C23.027,3.644 23.084,3.846 23.141,4.049 C23.367,4.867 23.113,5.436 22.354,5.839 C23.25,5.74 23.73,6.159 23.939,6.915 C24.041,7.277 24.141,7.638 24.242,8 C24.322,8.286 24.435,8.6 24.661,8.785 C24.486,8.832 24.311,8.881 24.137,8.931 C23.945,8.761 23.84,8.518 23.729,8.145 C23.624,7.781 23.517,7.418 23.411,7.054 C23.146,6.129 22.47,6.039 21.538,6.347 C21.255,6.441 20.974,6.536 20.692,6.635 C21.049,7.652 21.406,8.669 21.764,9.687 C21.599,9.744 21.435,9.803 21.27,9.863 C20.443,7.598 19.617,5.333 18.791,3.068 C19.4,2.846 20.012,2.636 20.627,2.44 Z" id="Fill-20"></path>
            <path d="M19.67,3.348 L20.625,6.066 C20.874,5.979 21.125,5.895 21.375,5.813 C22.427,5.472 22.707,5.098 22.486,4.331 L22.295,3.677 C22.08,2.925 21.602,2.713 20.786,2.975 C20.413,3.094 20.041,3.219 19.67,3.348 Z M20.471,6.385 L19.352,3.195 L19.469,3.153 C19.881,3.009 20.295,2.87 20.71,2.737 C21.668,2.43 22.283,2.73 22.536,3.608 L22.727,4.262 C23.027,5.306 22.435,5.732 21.453,6.05 C21.165,6.145 20.877,6.242 20.589,6.343 L20.471,6.385 Z M18.951,3.143 L21.345,9.703 C21.431,9.672 21.518,9.641 21.605,9.61 L20.533,6.558 L20.65,6.517 C20.933,6.418 21.215,6.322 21.499,6.229 C21.836,6.117 22.12,6.063 22.367,6.063 C22.958,6.063 23.35,6.385 23.531,7.02 L23.85,8.11 C23.939,8.412 24.026,8.636 24.172,8.791 C24.256,8.767 24.341,8.743 24.426,8.72 C24.274,8.52 24.187,8.267 24.122,8.033 L23.819,6.948 C23.611,6.197 23.144,5.877 22.367,5.963 L21.717,6.034 L22.295,5.728 C23.007,5.351 23.23,4.843 23.02,4.082 L22.851,3.475 C22.577,2.476 21.858,2.183 20.665,2.559 C20.103,2.739 19.526,2.935 18.951,3.143 Z M21.195,10.022 L18.631,2.993 L18.748,2.951 C19.365,2.726 19.985,2.513 20.589,2.321 C21.937,1.897 22.782,2.276 23.092,3.408 L23.261,4.015 C23.46,4.735 23.305,5.293 22.785,5.708 C23.433,5.769 23.861,6.163 24.06,6.882 L24.363,7.966 C24.437,8.231 24.54,8.525 24.74,8.688 L24.929,8.842 L24.694,8.906 C24.52,8.953 24.345,9.001 24.171,9.051 L24.105,9.071 L24.054,9.025 C23.834,8.83 23.721,8.557 23.61,8.181 L23.291,7.089 C23.071,6.316 22.566,6.139 21.578,6.466 C21.335,6.546 21.093,6.628 20.852,6.712 L21.923,9.764 L21.805,9.805 C21.672,9.851 21.54,9.898 21.407,9.946 L21.195,10.022 Z" id="Fill-21"></path>
            <path d="M29.333,4.346 C29.178,4.633 29.026,4.919 28.878,5.209 C29.015,6.07 29.151,6.93 29.288,7.791 C29.117,7.817 28.946,7.845 28.776,7.875 C28.369,5.499 27.961,3.123 27.554,0.747 C27.754,0.714 27.953,0.679 28.153,0.649 C28.353,1.907 28.553,3.166 28.753,4.424 C29.468,3.021 30.261,1.632 31.132,0.268 C31.341,0.247 31.551,0.227 31.761,0.21 C30.982,1.403 30.264,2.613 29.606,3.837 C30.648,4.994 31.622,6.185 32.525,7.403 C32.345,7.417 32.166,7.434 31.986,7.45 C31.157,6.39 30.272,5.354 29.333,4.346" id="Fill-22"></path>
            <path d="M27.699,0.85 L28.878,7.73 C28.967,7.715 29.056,7.701 29.145,7.687 L28.748,5.189 L28.767,5.152 C28.915,4.862 29.067,4.574 29.223,4.286 L29.306,4.133 L29.424,4.261 C30.342,5.247 31.223,6.275 32.042,7.32 C32.125,7.312 32.208,7.304 32.291,7.297 C31.426,6.144 30.493,5.009 29.514,3.921 L29.455,3.855 L29.496,3.778 C30.116,2.625 30.795,1.475 31.517,0.357 C31.413,0.366 31.309,0.376 31.205,0.386 C30.36,1.713 29.573,3.09 28.864,4.481 L28.69,4.823 L28.049,0.791 C27.932,0.81 27.815,0.83 27.699,0.85 Z M28.674,8.019 L27.41,0.645 L27.618,0.61 C27.79,0.581 27.961,0.552 28.134,0.525 L28.257,0.506 L28.816,4.027 C29.492,2.727 30.234,1.441 31.026,0.201 L31.059,0.149 L31.119,0.144 C31.33,0.122 31.541,0.103 31.751,0.086 L32.005,0.065 L31.866,0.279 C31.112,1.433 30.403,2.624 29.758,3.819 C30.773,4.95 31.737,6.13 32.625,7.328 L32.759,7.509 L32.535,7.527 C32.356,7.542 32.177,7.558 31.998,7.575 L31.93,7.581 L31.887,7.527 C31.096,6.515 30.246,5.518 29.36,4.559 C29.241,4.782 29.123,5.005 29.008,5.23 L29.431,7.895 L29.307,7.914 C29.137,7.941 28.967,7.969 28.797,7.998 L28.674,8.019 Z" id="Fill-23"></path>
            <path d="M42.786,4.344 C42.622,5.465 42.459,6.586 42.295,7.707 C42.124,7.682 41.952,7.66 41.781,7.636 C42.1,5.247 42.419,2.858 42.738,0.468 C42.939,0.494 43.139,0.523 43.339,0.552 C43.175,1.673 43.012,2.794 42.848,3.915 C43.732,4.042 44.612,4.197 45.489,4.375 C45.717,3.264 45.944,2.155 46.171,1.045 C46.374,1.086 46.577,1.13 46.779,1.173 C46.267,3.529 45.754,5.885 45.241,8.24 C45.068,8.202 44.895,8.165 44.721,8.13 C44.948,7.02 45.175,5.91 45.402,4.8 C44.534,4.624 43.662,4.47 42.786,4.344" id="Fill-24"></path>
            <path d="M44.868,8.032 C44.961,8.051 45.053,8.071 45.146,8.091 L46.63,1.269 C46.51,1.243 46.389,1.217 46.269,1.192 L45.586,4.522 L45.464,4.497 C44.577,4.317 43.691,4.163 42.83,4.038 L42.707,4.021 L43.197,0.658 C43.08,0.641 42.963,0.624 42.846,0.609 L41.921,7.529 L42.189,7.566 L42.68,4.202 L42.804,4.22 C43.655,4.343 44.538,4.497 45.427,4.677 L45.55,4.702 L44.868,8.032 Z M45.337,8.389 L45.214,8.362 C45.043,8.324 44.869,8.287 44.696,8.253 L44.573,8.228 L45.255,4.898 C44.455,4.738 43.661,4.599 42.891,4.486 L42.4,7.849 L41.641,7.743 L41.657,7.619 L42.631,0.329 L42.754,0.344 C42.955,0.37 43.156,0.399 43.357,0.428 L43.481,0.446 L42.99,3.809 C43.777,3.925 44.583,4.065 45.392,4.228 L46.073,0.898 L46.195,0.923 C46.359,0.955 46.522,0.99 46.685,1.025 L46.928,1.076 L45.337,8.389 Z" id="Fill-25"></path>
            <path d="M50.855,7.722 C51.621,7.987 52.381,8.273 53.135,8.581 C53.344,6.98 53.512,5.371 53.638,3.751 C52.672,5.055 51.744,6.38 50.855,7.722 Z M50.641,8.087 C50.337,8.546 50.037,9.008 49.742,9.473 C49.591,9.422 49.439,9.373 49.288,9.324 C50.58,7.203 51.961,5.123 53.431,3.09 C53.71,3.192 53.989,3.298 54.267,3.404 C54.041,5.906 53.72,8.385 53.302,10.837 C53.141,10.766 52.979,10.698 52.817,10.63 C52.901,10.087 52.981,9.542 53.056,8.995 C52.258,8.668 51.453,8.365 50.641,8.087 Z" id="Fill-26"></path>
            <path d="M51.048,7.657 C51.712,7.889 52.378,8.14 53.032,8.404 C53.212,7.003 53.362,5.585 53.478,4.179 C52.645,5.315 51.829,6.483 51.048,7.657 Z M52.956,10.553 C53.039,10.588 53.122,10.623 53.205,10.659 C53.603,8.302 53.915,5.891 54.134,3.487 C54.021,3.444 53.907,3.401 53.794,3.358 L53.762,3.761 C53.637,5.368 53.468,6.995 53.259,8.597 L53.238,8.758 L53.087,8.697 C52.34,8.391 51.575,8.104 50.813,7.84 L50.661,7.788 L50.751,7.653 C51.642,6.308 52.58,4.97 53.537,3.677 L53.778,3.352 C53.678,3.314 53.577,3.277 53.477,3.24 C52.073,5.186 50.728,7.208 49.477,9.254 C49.548,9.277 49.618,9.3 49.689,9.323 C49.967,8.886 50.251,8.451 50.537,8.018 L50.59,7.937 L50.682,7.968 C51.494,8.247 52.309,8.554 53.103,8.879 L53.192,8.916 L53.18,9.012 C53.109,9.527 53.034,10.04 52.956,10.553 Z M53.398,11.016 L53.252,10.952 C53.091,10.881 52.93,10.813 52.769,10.745 L52.679,10.708 L52.694,10.611 C52.773,10.1 52.848,9.588 52.919,9.074 C52.187,8.776 51.438,8.495 50.692,8.236 C50.406,8.669 50.125,9.103 49.847,9.54 L49.794,9.622 L49.702,9.591 C49.58,9.55 49.458,9.51 49.335,9.471 L49.099,9.394 L49.181,9.259 C50.476,7.135 51.871,5.035 53.33,3.017 L53.385,2.94 L53.474,2.973 C53.754,3.075 54.033,3.181 54.312,3.288 L54.399,3.322 L54.391,3.416 C54.167,5.911 53.841,8.415 53.425,10.858 L53.398,11.016 Z" id="Fill-27"></path>
            <path d="M60.209,10.282 C61.094,10.813 61.729,10.961 62.261,10.143 C62.385,9.952 62.509,9.761 62.633,9.571 C63.057,8.924 62.986,8.311 62.111,7.775 C61.731,7.542 61.35,7.316 60.965,7.094 C60.445,7.998 59.925,8.904 59.405,9.809 C59.674,9.964 59.942,10.122 60.209,10.282 Z M62.348,7.412 C63.592,8.178 63.733,9.027 63.163,9.872 C63.046,10.046 62.93,10.222 62.813,10.396 C62.34,11.098 61.731,11.268 60.911,10.946 C61.591,11.575 61.596,12.221 61.159,12.87 C60.951,13.182 60.742,13.494 60.533,13.806 C60.367,14.055 60.204,14.343 60.216,14.639 C60.061,14.534 59.905,14.43 59.749,14.327 C59.751,14.067 59.861,13.832 60.075,13.504 C60.282,13.186 60.488,12.868 60.695,12.55 C61.222,11.746 60.832,11.166 59.975,10.648 C59.714,10.491 59.452,10.336 59.188,10.185 C58.651,11.12 58.114,12.055 57.577,12.989 C57.423,12.901 57.269,12.813 57.113,12.726 C58.289,10.622 59.464,8.516 60.64,6.411 C61.215,6.734 61.784,7.066 62.348,7.412 Z" id="Fill-28"></path>
            <path d="M59.576,9.763 C59.809,9.898 60.041,10.036 60.273,10.175 C60.755,10.464 61.094,10.593 61.37,10.593 C61.676,10.593 61.926,10.428 62.156,10.075 L62.528,9.503 C62.728,9.198 62.797,8.928 62.741,8.676 C62.677,8.393 62.443,8.125 62.045,7.881 C61.703,7.671 61.358,7.466 61.011,7.265 L59.576,9.763 Z M61.37,10.843 C61.041,10.843 60.675,10.708 60.145,10.39 C59.878,10.229 59.611,10.072 59.343,9.917 L59.234,9.855 L60.919,6.924 L61.028,6.986 C61.413,7.208 61.796,7.435 62.176,7.668 C62.634,7.948 62.906,8.27 62.985,8.622 C63.056,8.938 62.973,9.281 62.737,9.64 L62.366,10.211 C62.089,10.636 61.763,10.843 61.37,10.843 Z M59.877,14.262 C59.955,14.313 60.032,14.365 60.109,14.417 C60.159,14.169 60.295,13.938 60.429,13.737 L61.055,12.8 C61.488,12.157 61.414,11.581 60.826,11.038 L60.338,10.587 L60.957,10.829 C61.724,11.131 62.271,10.977 62.71,10.326 L63.059,9.802 C63.315,9.424 63.408,9.06 63.335,8.722 C63.243,8.297 62.889,7.892 62.283,7.518 C61.775,7.207 61.252,6.9 60.688,6.582 L57.283,12.678 C57.366,12.725 57.448,12.772 57.531,12.819 L59.142,10.015 L59.251,10.077 C59.515,10.228 59.777,10.383 60.039,10.54 C60.629,10.897 60.945,11.245 61.034,11.637 C61.104,11.944 61.025,12.275 60.799,12.619 L60.18,13.572 C59.981,13.876 59.895,14.072 59.877,14.262 Z M60.351,14.881 L60.146,14.742 C59.991,14.638 59.836,14.534 59.68,14.432 L59.623,14.394 L59.624,14.326 C59.627,14.022 59.758,13.76 59.971,13.435 L60.59,12.482 C60.78,12.193 60.845,11.934 60.79,11.693 C60.718,11.376 60.43,11.069 59.91,10.755 C59.686,10.62 59.46,10.486 59.234,10.356 L57.623,13.16 L57.515,13.098 C57.361,13.01 57.207,12.922 57.052,12.835 L56.943,12.774 L60.592,6.241 L60.701,6.302 C61.311,6.644 61.871,6.972 62.414,7.305 C63.081,7.716 63.473,8.175 63.579,8.669 C63.667,9.077 63.562,9.505 63.267,9.942 L62.917,10.466 C62.498,11.089 61.969,11.324 61.301,11.193 C61.692,11.734 61.68,12.32 61.263,12.94 L60.637,13.876 C60.484,14.104 60.33,14.373 60.341,14.634 L60.351,14.881 Z" id="Fill-29"></path>
            <path d="M65.402,18.173 C66.099,18.81 66.757,18.7 67.314,18.126 C68.166,17.245 69.019,16.364 69.871,15.483 C70.424,14.915 70.479,14.191 69.685,13.466 C69.318,13.132 68.947,12.804 68.572,12.482 C67.192,14.092 65.812,15.703 64.432,17.314 C64.758,17.595 65.082,17.882 65.402,18.173 Z M69.987,13.155 C71.111,14.187 71.058,15.191 70.306,15.939 C69.451,16.799 68.597,17.659 67.743,18.519 C66.987,19.273 66.072,19.378 65.119,18.502 C64.663,18.086 64.2,17.683 63.73,17.288 C65.275,15.438 66.82,13.589 68.366,11.738 C68.914,12.196 69.454,12.669 69.987,13.155 Z" id="Fill-30"></path>
            <path d="M64.607,17.301 C64.903,17.556 65.196,17.817 65.486,18.08 C66.083,18.626 66.671,18.61 67.224,18.039 L69.781,15.396 C70.04,15.13 70.168,14.847 70.159,14.556 C70.149,14.224 69.961,13.888 69.601,13.559 C69.263,13.251 68.922,12.948 68.585,12.659 L64.607,17.301 Z M66.349,18.731 C66.002,18.731 65.656,18.574 65.318,18.265 C64.999,17.975 64.676,17.689 64.35,17.409 L64.255,17.328 L68.559,12.306 L68.654,12.387 C69.022,12.703 69.397,13.035 69.769,13.374 C70.182,13.751 70.397,14.146 70.409,14.549 C70.419,14.905 70.265,15.258 69.96,15.57 L67.403,18.213 C67.071,18.557 66.716,18.731 66.349,18.731 Z M63.906,17.273 C64.357,17.654 64.793,18.036 65.203,18.41 C66.045,19.183 66.895,19.188 67.655,18.43 L70.217,15.851 C70.564,15.505 70.736,15.128 70.728,14.728 C70.718,14.239 70.44,13.741 69.903,13.247 C69.39,12.78 68.878,12.331 68.381,11.914 L63.906,17.273 Z M66.469,19.247 C65.989,19.247 65.506,19.028 65.035,18.594 C64.598,18.197 64.132,17.789 63.649,17.384 L63.554,17.304 L68.35,11.562 L68.446,11.642 C68.976,12.084 69.523,12.562 70.071,13.063 C70.662,13.605 70.967,14.163 70.978,14.723 C70.987,15.187 70.785,15.638 70.394,16.027 L67.832,18.607 C67.406,19.032 66.948,19.247 66.469,19.247 Z" id="Fill-31"></path>
            <path d="M10.87,72.864 C11.057,72.864 11.182,72.767 11.193,72.518 L11.193,71.598 L10.955,71.598 C10.671,71.598 10.546,71.734 10.546,72.103 L10.546,72.472 C10.546,72.756 10.671,72.864 10.87,72.864 Z M10.353,71.286 C10.058,71.161 9.922,70.894 9.922,70.468 L9.922,70.395 C9.922,69.759 10.228,69.412 10.853,69.412 L11.568,69.412 L11.568,69.98 L10.864,69.98 C10.665,69.98 10.546,70.082 10.546,70.366 L10.546,70.61 C10.546,70.928 10.688,71.03 10.921,71.03 L11.193,71.03 L11.193,70.588 L11.817,70.588 L11.817,71.03 L11.982,71.03 L11.982,71.598 L11.817,71.598 L11.817,72.903 C11.817,73.096 11.823,73.239 11.886,73.386 L11.25,73.386 C11.222,73.306 11.205,73.25 11.193,73.074 C11.085,73.306 10.893,73.431 10.614,73.431 C10.154,73.431 9.922,73.108 9.922,72.523 L9.922,72.12 C9.922,71.717 10.046,71.422 10.353,71.286 Z" id="Fill-32"></path>
            <polyline id="Fill-33" points="17.875 72.234 18.301 69.412 19.169 69.412 19.169 73.386 18.579 73.386 18.579 70.536 18.147 73.386 17.557 73.386 17.091 70.576 17.091 73.386 16.546 73.386 16.546 69.412 17.415 69.412 17.875 72.234"></polyline>
            <polygon id="Fill-34" points="21.327 73.385 21.952 73.385 21.952 69.412 21.327 69.412"></polygon>
            <polyline id="Fill-35" points="24.665 70.508 24.665 73.386 24.103 73.386 24.103 69.412 24.886 69.412 25.527 71.791 25.527 69.412 26.084 69.412 26.084 73.386 25.442 73.386 24.665 70.508"></polyline>
            <polyline id="Fill-36" points="28.86 71.087 29.717 71.087 29.717 71.655 28.86 71.655 28.86 72.818 29.938 72.818 29.938 73.386 28.235 73.386 28.235 69.412 29.938 69.412 29.938 69.98 28.86 69.98 28.86 71.087"></polyline>
            <polyline id="Fill-37" points="34.429 69.412 36.359 69.412 36.359 69.98 35.707 69.98 35.707 73.386 35.082 73.386 35.082 69.98 34.429 69.98 34.429 69.412"></polyline>
            <polyline id="Fill-38" points="38.959 73.386 38.335 73.386 38.335 69.412 38.959 69.412 38.959 71.115 39.669 71.115 39.669 69.412 40.305 69.412 40.305 73.386 39.669 73.386 39.669 71.683 38.959 71.683 38.959 73.386"></polyline>
            <polyline id="Fill-39" points="43.086 71.087 43.943 71.087 43.943 71.655 43.086 71.655 43.086 72.818 44.165 72.818 44.165 73.386 42.462 73.386 42.462 69.412 44.165 69.412 44.165 69.98 43.086 69.98 43.086 71.087"></polyline>
            <polyline id="Fill-40" points="47.577 72.234 48.003 69.412 48.871 69.412 48.871 73.386 48.281 73.386 48.281 70.536 47.85 73.386 47.259 73.386 46.793 70.576 46.793 73.386 46.249 73.386 46.249 69.412 47.117 69.412 47.577 72.234"></polyline>
            <path d="M54.208,72.126 L54.81,72.126 L54.509,70.116 L54.208,72.126 Z M55.633,73.386 L55.002,73.386 L54.895,72.665 L54.128,72.665 L54.021,73.386 L53.447,73.386 L54.083,69.412 L54.997,69.412 L55.633,73.386 Z" id="Fill-41"></path>
            <polyline id="Fill-42" points="57.626 69.412 58.25 69.412 58.25 72.818 59.277 72.818 59.277 73.386 57.626 73.386 57.626 69.412"></polyline>
            <polyline id="Fill-43" points="61.253 69.412 61.877 69.412 61.877 72.818 62.905 72.818 62.905 73.386 61.253 73.386 61.253 69.412"></polyline>
            <path d="M64.892,73.386 L65.494,73.386 L65.494,72.784 L64.892,72.784 L64.892,73.386 Z M64.96,72.506 L64.88,71.07 L64.88,69.412 L65.505,69.412 L65.505,71.07 L65.425,72.506 L64.96,72.506 Z" id="Fill-44"></path>
        </g>
    </g>
</svg>