<?xml version="1.0" encoding="UTF-8"?>
<svg width="76px" height="76px" viewBox="0 0 76 76" version="1.1" xmlns="http://www.w3.org/2000/svg" xmlns:xlink="http://www.w3.org/1999/xlink">
    <!-- Generator: Sketch 49 (51002) - http://www.bohemiancoding.com/sketch -->
    <title>bitcoin-grey-19</title>
    <desc>Created with Sketch.</desc>
    <defs></defs>
    <g id="Page-1" stroke="none" stroke-width="1" fill="none" fill-rule="evenodd">
        <g id="bitcoin-grey-19" fill="#000000">
            <path d="M32.463,59.174 L31.913,61.763 C31.87,61.965 31.999,62.164 32.201,62.208 C32.228,62.213 32.254,62.215 32.28,62.215 C32.453,62.215 32.608,62.095 32.646,61.919 L33.109,59.74 C33.048,59.65 32.979,59.565 32.922,59.471 C32.762,59.382 32.615,59.275 32.463,59.174" id="Fill-1"></path>
            <path d="M43.348,59.384 C43.302,59.411 43.26,59.445 43.213,59.471 C43.076,59.7 42.922,59.917 42.756,60.124 L42.805,60.322 C42.846,60.493 43,60.608 43.168,60.608 C43.198,60.608 43.228,60.605 43.258,60.597 C43.459,60.549 43.583,60.345 43.533,60.144 L43.348,59.384" id="Fill-2"></path>
            <path d="M28.104,49.319 C27.939,49.193 27.704,49.223 27.578,49.388 L21.792,56.906 C21.666,57.07 21.696,57.305 21.86,57.432 C21.928,57.484 22.009,57.509 22.088,57.509 C22.201,57.509 22.312,57.46 22.386,57.364 L28.172,49.845 C28.298,49.681 28.268,49.446 28.104,49.319" id="Fill-3"></path>
            <path d="M22.517,44.647 C22.423,44.462 22.199,44.387 22.013,44.48 L13.57,48.723 C13.385,48.816 13.31,49.041 13.403,49.225 C13.469,49.357 13.601,49.432 13.739,49.432 C13.795,49.432 13.852,49.42 13.907,49.392 L22.35,45.15 C22.535,45.057 22.61,44.832 22.517,44.647" id="Fill-4"></path>
            <path d="M12.928,37.18 C12.721,37.183 12.557,37.355 12.561,37.562 C12.565,37.766 12.731,37.93 12.936,37.93 C12.938,37.93 12.94,37.93 12.943,37.93 L15.681,37.878 C15.888,37.874 16.053,37.703 16.049,37.496 C16.044,37.288 15.853,37.114 15.667,37.128 L12.928,37.18" id="Fill-5"></path>
            <path d="M24.018,36.963 L17.697,37.087 C17.49,37.091 17.325,37.262 17.329,37.469 C17.333,37.674 17.5,37.837 17.704,37.837 C17.707,37.837 17.709,37.837 17.711,37.837 L24.06,37.713 C24.044,37.463 24.021,37.215 24.018,36.963" id="Fill-6"></path>
            <path d="M25.013,22.632 C25.087,22.721 25.193,22.767 25.301,22.767 C25.386,22.767 25.471,22.739 25.541,22.68 C25.7,22.549 25.722,22.312 25.589,22.153 L22.083,17.943 C21.95,17.784 21.713,17.763 21.555,17.896 C21.396,18.029 21.374,18.265 21.507,18.424 L25.013,22.632" id="Fill-7"></path>
            <path d="M25.249,31.057 L16.381,26.994 C16.193,26.909 15.97,26.991 15.884,27.179 C15.797,27.368 15.88,27.59 16.068,27.677 L24.962,31.752 C25.053,31.517 25.146,31.285 25.249,31.057" id="Fill-8"></path>
            <path d="M40.694,22.161 C40.721,22.168 40.747,22.17 40.773,22.17 C40.946,22.17 41.102,22.049 41.139,21.873 L43.151,12.413 C43.194,12.211 43.065,12.012 42.862,11.969 C42.659,11.925 42.46,12.055 42.417,12.257 L40.406,21.716 C40.363,21.92 40.492,22.119 40.694,22.161" id="Fill-9"></path>
            <path d="M33.814,23.405 C34.051,23.328 34.295,23.272 34.538,23.209 L32.259,13.853 C32.21,13.652 32.003,13.53 31.806,13.577 C31.605,13.627 31.481,13.83 31.53,14.031 L33.814,23.405" id="Fill-10"></path>
            <path d="M46.738,25.757 L47.561,24.687 C47.687,24.523 47.657,24.287 47.492,24.161 C47.328,24.035 47.093,24.066 46.966,24.23 L46.138,25.307 C46.342,25.451 46.542,25.602 46.738,25.757" id="Fill-11"></path>
            <path d="M48.544,22.796 C48.612,22.848 48.692,22.874 48.772,22.874 C48.885,22.874 48.996,22.823 49.07,22.728 L53.272,17.27 C53.398,17.106 53.368,16.87 53.204,16.744 C53.038,16.617 52.804,16.649 52.677,16.813 L48.475,22.27 C48.349,22.433 48.379,22.67 48.544,22.796" id="Fill-12"></path>
            <path d="M52.545,29.529 C52.61,29.659 52.743,29.735 52.88,29.735 C52.937,29.735 52.994,29.723 53.048,29.695 L61.495,25.453 C61.68,25.361 61.754,25.136 61.661,24.951 C61.569,24.766 61.346,24.69 61.158,24.784 L52.711,29.025 C52.526,29.118 52.452,29.343 52.545,29.529" id="Fill-13"></path>
            <path d="M62.502,36.612 C62.498,36.405 62.32,36.238 62.12,36.244 L59.383,36.299 C59.176,36.303 59.012,36.473 59.016,36.681 C59.02,36.885 59.187,37.049 59.391,37.049 C59.393,37.049 59.396,37.049 59.398,37.049 L62.134,36.994 C62.341,36.989 62.506,36.819 62.502,36.612" id="Fill-14"></path>
            <path d="M57.366,37.087 C57.573,37.082 57.737,36.911 57.733,36.704 C57.729,36.498 57.54,36.33 57.351,36.337 L52.109,36.44 C52.113,36.561 52.128,36.679 52.128,36.802 C52.128,36.932 52.11,37.06 52.106,37.19 L57.366,37.087" id="Fill-15"></path>
            <path d="M50.052,51.544 C49.918,51.385 49.682,51.364 49.523,51.496 C49.365,51.629 49.343,51.865 49.476,52.025 L52.98,56.232 C53.055,56.321 53.161,56.367 53.269,56.367 C53.354,56.367 53.438,56.339 53.509,56.281 C53.668,56.148 53.689,55.911 53.557,55.752 L50.052,51.544" id="Fill-16"></path>
            <path d="M50.804,42.746 C50.698,42.973 50.573,43.191 50.456,43.411 L53.484,44.799 C53.535,44.823 53.588,44.834 53.641,44.834 C53.783,44.834 53.919,44.753 53.981,44.615 C54.068,44.427 53.985,44.204 53.797,44.118 L50.804,42.746" id="Fill-17"></path>
            <path d="M53.158,48.324 C52.992,48.199 52.756,48.234 52.633,48.399 C52.508,48.565 52.542,48.8 52.707,48.925 L60.654,54.887 C60.721,54.937 60.8,54.962 60.878,54.962 C60.993,54.962 61.105,54.91 61.179,54.812 C61.303,54.646 61.27,54.411 61.104,54.286 L53.158,48.324" id="Fill-18"></path>
            <path d="M60.057,41.916 C60.232,41.916 60.389,41.793 60.424,41.614 C60.465,41.411 60.332,41.214 60.129,41.173 L51.844,39.536 C51.795,39.783 51.741,40.027 51.68,40.267 L59.984,41.909 C60.008,41.913 60.033,41.916 60.057,41.916" id="Fill-19"></path>
            <path d="M66.372,42.407 L62.294,41.602 C62.097,41.563 61.895,41.694 61.854,41.897 C61.813,42.1 61.946,42.297 62.149,42.337 L66.226,43.142 C66.251,43.148 66.275,43.15 66.299,43.15 C66.475,43.15 66.631,43.027 66.666,42.848 C66.707,42.645 66.575,42.447 66.372,42.407" id="Fill-20"></path>
            <path d="M48.337,57.022 C48.242,56.838 48.016,56.766 47.832,56.863 C47.648,56.958 47.577,57.185 47.672,57.368 L50.877,63.514 C50.944,63.642 51.075,63.715 51.21,63.715 C51.269,63.715 51.328,63.702 51.383,63.673 C51.567,63.577 51.638,63.35 51.543,63.168 L48.337,57.022" id="Fill-21"></path>
            <path d="M38.068,62.376 C38.058,62.376 38.047,62.374 38.036,62.374 L38.205,67.726 C38.211,67.929 38.378,68.09 38.58,68.09 C38.584,68.09 38.588,68.09 38.592,68.089 C38.799,68.083 38.961,67.91 38.955,67.702 L38.786,62.327 C38.55,62.356 38.311,62.376 38.068,62.376" id="Fill-22"></path>
            <path d="M26.831,61.37 C26.642,61.286 26.42,61.372 26.336,61.562 L24.977,64.645 C24.894,64.835 24.979,65.056 25.169,65.14 C25.218,65.161 25.27,65.172 25.32,65.172 C25.464,65.172 25.602,65.088 25.664,64.948 L27.023,61.865 C27.106,61.675 27.021,61.453 26.831,61.37" id="Fill-23"></path>
            <path d="M27.34,59.273 C27.257,59.463 27.343,59.683 27.533,59.767 C27.582,59.789 27.633,59.799 27.684,59.799 C27.828,59.799 27.965,59.716 28.027,59.575 L29.693,55.79 C29.552,55.434 29.444,55.065 29.359,54.687 L27.34,59.273" id="Fill-24"></path>
            <path d="M15.151,43.042 C15.099,42.843 14.898,42.723 14.692,42.777 L9.468,44.169 C9.268,44.222 9.149,44.427 9.202,44.628 C9.247,44.795 9.398,44.906 9.565,44.906 C9.596,44.906 9.628,44.903 9.661,44.894 L14.886,43.501 C15.085,43.448 15.205,43.243 15.151,43.042" id="Fill-25"></path>
            <path d="M21.288,41.812 C21.32,41.812 21.353,41.808 21.385,41.799 L24.646,40.929 C24.573,40.69 24.5,40.451 24.44,40.208 L21.191,41.075 C20.991,41.128 20.873,41.334 20.926,41.534 C20.971,41.701 21.122,41.812 21.288,41.812" id="Fill-26"></path>
            <path d="M27.068,45.551 L20.718,50.974 C20.561,51.109 20.542,51.345 20.677,51.503 C20.751,51.591 20.856,51.635 20.962,51.635 C21.048,51.635 21.135,51.605 21.206,51.545 L27.562,46.115 C27.396,45.928 27.223,45.746 27.068,45.551" id="Fill-27"></path>
            <path d="M21.907,25.85 C21.974,25.901 22.053,25.925 22.131,25.925 C22.246,25.925 22.358,25.874 22.432,25.776 C22.556,25.61 22.522,25.375 22.357,25.251 L15.892,20.402 C15.726,20.278 15.49,20.312 15.367,20.477 C15.243,20.642 15.276,20.878 15.442,21.002 L21.907,25.85" id="Fill-28"></path>
            <path d="M10.489,32.124 L19.568,33.917 C19.592,33.923 19.617,33.925 19.641,33.925 C19.816,33.925 19.973,33.801 20.008,33.622 C20.049,33.42 19.917,33.222 19.713,33.182 L10.634,31.387 C10.437,31.348 10.234,31.479 10.194,31.682 C10.153,31.885 10.286,32.083 10.489,32.124" id="Fill-29"></path>
            <path d="M30.73,24.832 C30.944,24.7 31.152,24.561 31.373,24.441 L28.8,19.507 C28.705,19.323 28.479,19.252 28.294,19.347 C28.111,19.443 28.04,19.67 28.135,19.853 L30.73,24.832" id="Fill-30"></path>
            <path d="M26.728,17.154 C26.795,17.283 26.925,17.356 27.061,17.356 C27.119,17.356 27.179,17.342 27.234,17.314 C27.417,17.218 27.489,16.991 27.393,16.807 L24.904,12.035 C24.808,11.852 24.582,11.78 24.398,11.876 C24.214,11.971 24.143,12.198 24.239,12.382 L26.728,17.154" id="Fill-31"></path>
            <path d="M36.849,16.322 C36.853,16.322 36.856,16.322 36.86,16.322 C37.067,16.315 37.23,16.141 37.224,15.935 L37.002,8.843 C36.996,8.636 36.815,8.472 36.615,8.48 C36.408,8.487 36.246,8.659 36.252,8.867 L36.474,15.958 C36.48,16.161 36.647,16.322 36.849,16.322" id="Fill-32"></path>
            <path d="M36.624,20.738 L36.689,22.812 C36.936,22.787 37.189,22.785 37.439,22.774 L37.374,20.715 C37.368,20.507 37.192,20.347 36.987,20.352 C36.78,20.358 36.618,20.531 36.624,20.738" id="Fill-33"></path>
            <path d="M47.672,14.221 C47.722,14.243 47.772,14.253 47.823,14.253 C47.967,14.253 48.105,14.169 48.167,14.029 L49.522,10.945 C49.605,10.755 49.519,10.533 49.33,10.451 C49.14,10.367 48.919,10.452 48.835,10.642 L47.48,13.727 C47.396,13.916 47.483,14.138 47.672,14.221" id="Fill-34"></path>
            <path d="M43.741,23.947 L46.679,17.271 C46.763,17.082 46.677,16.861 46.487,16.777 C46.3,16.694 46.077,16.779 45.993,16.969 L43.044,23.668 C43.279,23.757 43.513,23.847 43.741,23.947" id="Fill-35"></path>
            <path d="M59.916,31.132 C59.961,31.3 60.112,31.411 60.278,31.411 C60.31,31.411 60.343,31.407 60.375,31.398 L65.116,30.135 C65.316,30.082 65.435,29.876 65.382,29.675 C65.328,29.475 65.12,29.357 64.923,29.41 L60.182,30.674 C59.981,30.727 59.863,30.932 59.916,31.132" id="Fill-36"></path>
            <path d="M54.946,32.069 L51.582,32.966 C51.651,33.206 51.714,33.447 51.77,33.693 L55.14,32.794 C55.34,32.74 55.459,32.535 55.405,32.335 C55.352,32.135 55.148,32.015 54.946,32.069" id="Fill-37"></path>
            <path d="M48.903,27.852 L54.348,23.199 C54.505,23.065 54.524,22.828 54.39,22.671 C54.255,22.513 54.019,22.494 53.861,22.629 L48.398,27.297 C48.567,27.481 48.743,27.659 48.903,27.852" id="Fill-38"></path>
            <path d="M43.273,46.09 C43.167,46.382 43.095,46.687 43.095,47.003 L43.095,47.369 L39.476,47.369 L39.476,42.822 L40.325,42.822 C40.768,42.822 41.179,42.702 41.545,42.508 C41.77,42.389 41.979,42.248 42.159,42.072 C42.362,41.874 42.525,41.639 42.656,41.385 C42.776,41.153 42.865,40.904 42.911,40.638 C42.936,40.492 42.956,40.344 42.956,40.191 C42.956,38.965 42.11,37.94 40.974,37.649 C41.159,37.487 41.324,37.305 41.458,37.097 C41.546,36.962 41.622,36.821 41.684,36.67 C41.81,36.363 41.882,36.028 41.882,35.677 C41.882,34.303 40.82,33.184 39.476,33.069 L39.476,31.041 C39.476,30.892 39.387,30.766 39.262,30.706 C39.213,30.682 39.159,30.666 39.101,30.666 C38.894,30.666 38.726,30.834 38.726,31.041 L38.726,33.046 L36.987,33.046 L36.987,31.041 C36.987,30.834 36.819,30.666 36.612,30.666 C36.521,30.666 36.442,30.702 36.377,30.756 C36.294,30.824 36.237,30.925 36.237,31.041 L36.237,33.046 L33.557,33.046 C33.355,33.046 33.195,33.204 33.185,33.404 C33.185,33.409 33.182,33.414 33.182,33.421 C33.182,33.492 33.207,33.556 33.242,33.613 C33.308,33.72 33.421,33.796 33.557,33.796 L34.575,33.796 L34.575,42.072 L33.557,42.072 C33.509,42.072 33.464,42.083 33.423,42.098 C33.282,42.154 33.182,42.287 33.182,42.447 C33.182,42.654 33.35,42.822 33.557,42.822 L36.237,42.822 L36.237,47.369 L33.042,47.369 L33.042,47.003 C33.042,46.821 33.015,46.641 32.979,46.465 C32.952,46.336 32.908,46.213 32.864,46.09 C32.847,46.041 32.831,45.992 32.812,45.945 C32.626,45.508 32.34,45.114 31.953,44.823 C31.443,44.439 30.989,44.006 30.567,43.549 C30.397,43.363 30.23,43.177 30.076,42.982 C28.861,41.452 28.119,39.612 27.938,37.637 C27.916,37.389 27.9,37.139 27.895,36.888 C27.894,36.822 27.884,36.758 27.884,36.692 C27.884,36.314 27.908,35.941 27.948,35.573 C27.976,35.323 28.017,35.076 28.062,34.832 C28.156,34.324 28.291,33.832 28.458,33.353 C28.54,33.115 28.625,32.879 28.725,32.651 C28.907,32.23 29.124,31.828 29.359,31.44 C29.489,31.224 29.624,31.014 29.769,30.81 C30.08,30.372 30.422,29.958 30.796,29.575 C30.972,29.396 31.157,29.228 31.345,29.062 C32.843,27.74 34.728,26.852 36.809,26.594 C37.056,26.564 37.306,26.546 37.558,26.533 C37.728,26.525 37.896,26.507 38.068,26.507 C38.633,26.507 39.183,26.566 39.723,26.655 C39.731,26.656 39.74,26.657 39.749,26.659 C40.361,26.761 40.953,26.917 41.523,27.124 C41.76,27.21 41.993,27.299 42.221,27.402 C42.786,27.655 43.326,27.956 43.831,28.304 C44.038,28.446 44.237,28.596 44.432,28.753 C44.817,29.062 45.175,29.403 45.511,29.763 C45.682,29.946 45.849,30.132 46.006,30.327 C46.395,30.81 46.743,31.327 47.039,31.877 C47.157,32.096 47.263,32.323 47.365,32.552 C47.567,33.004 47.734,33.473 47.869,33.957 C47.936,34.197 48.002,34.437 48.052,34.684 C48.171,35.278 48.233,35.89 48.244,36.515 C48.245,36.575 48.253,36.632 48.253,36.692 C48.253,36.885 48.231,37.075 48.22,37.265 C48.191,37.781 48.13,38.286 48.027,38.782 C47.977,39.029 47.912,39.27 47.843,39.51 C47.685,40.062 47.489,40.6 47.241,41.114 C47.131,41.341 47.005,41.556 46.879,41.773 C46.633,42.198 46.36,42.607 46.052,42.995 C45.896,43.19 45.729,43.376 45.558,43.561 C45.185,43.964 44.783,44.343 44.341,44.689 C44.287,44.732 44.239,44.781 44.184,44.823 C44.037,44.932 43.91,45.064 43.79,45.199 C43.594,45.421 43.441,45.673 43.326,45.945 C43.306,45.992 43.291,46.041 43.273,46.09 Z M34.091,56.035 C34.034,55.98 33.986,55.918 33.934,55.859 C33.847,55.763 33.762,55.665 33.686,55.558 L34.011,55.495 L34.166,55.466 L34.741,55.356 L35.398,55.229 L36.455,55.025 L38.877,54.557 L41.287,54.093 L42.024,53.951 L42.531,53.853 L43.007,53.761 L43.076,53.748 C43.062,54.028 43.011,54.296 42.933,54.555 C42.879,54.734 42.815,54.907 42.734,55.072 L42.372,55.141 L42.316,55.153 L41.58,55.294 L41.47,55.316 L40.155,55.569 L39.755,55.646 L39.337,55.727 L38.969,55.798 L36.459,56.281 L36.042,56.362 L35.639,56.44 L34.957,56.572 L34.865,56.589 C34.583,56.437 34.319,56.257 34.091,56.035 Z M36.612,33.796 L39.251,33.796 C40.288,33.796 41.132,34.639 41.132,35.677 C41.132,36.713 40.288,37.557 39.251,37.557 L35.325,37.557 L35.325,33.796 L36.612,33.796 Z M35.325,41.551 L35.325,38.308 L40.325,38.308 C41.362,38.308 42.206,39.153 42.206,40.191 C42.206,40.195 42.205,40.197 42.205,40.2 C42.204,40.46 42.149,40.707 42.053,40.931 C41.962,41.141 41.833,41.331 41.677,41.493 C41.502,41.675 41.293,41.823 41.058,41.923 C40.833,42.019 40.585,42.072 40.325,42.072 L39.103,42.072 C39.102,42.072 39.102,42.071 39.101,42.071 C39.1,42.071 39.099,42.072 39.098,42.072 L36.615,42.072 C36.614,42.072 36.613,42.071 36.612,42.071 C36.611,42.071 36.611,42.072 36.61,42.072 L35.325,42.072 L35.325,41.551 Z M38.25,47.369 L36.987,47.369 L36.987,42.822 L38.726,42.822 L38.726,47.369 L38.25,47.369 Z M36.854,48.119 L36.167,48.252 L33.042,48.855 L33.042,48.119 L36.854,48.119 Z M40.905,49.36 L40.168,49.502 L39.97,49.54 L38.327,49.857 L37.581,50.001 L36.167,50.273 L33.042,50.876 L33.042,49.619 L36.167,49.015 L37.542,48.75 L38.288,48.606 L39.915,48.293 L39.97,48.282 L40.587,48.162 L40.813,48.119 L43.095,48.119 L43.095,48.938 L40.905,49.36 Z M43.095,51.974 L43.095,52.981 L42.917,53.015 L41.846,53.221 L41.109,53.364 L38.682,53.832 L37.729,54.015 L34.36,54.665 L34.181,54.699 L33.883,54.757 L33.441,54.842 L33.381,54.854 L33.302,54.869 C33.26,54.768 33.235,54.66 33.204,54.555 C33.117,54.269 33.06,53.971 33.051,53.659 L33.072,53.656 L33.458,53.581 L33.66,53.542 L34.459,53.388 L36.167,53.058 L37.667,52.77 L38.413,52.625 L39.97,52.325 L40.816,52.161 L41.554,52.02 L43.095,51.723 L43.095,51.974 Z M43.095,50.96 L41.376,51.29 L40.639,51.432 L39.97,51.562 L38.39,51.867 L37.644,52.01 L36.167,52.295 L34.628,52.591 L33.829,52.745 L33.175,52.871 L33.042,52.898 L33.042,51.64 L36.167,51.036 L37.605,50.76 L38.351,50.616 L39.97,50.304 L40.346,50.232 L41.083,50.089 L43.095,49.701 L43.095,50.96 Z M38.068,58.61 C37.439,58.61 36.894,58.269 36.593,57.765 L39.544,57.765 C39.243,58.269 38.697,58.61 38.068,58.61 Z M40.542,56.882 C40.532,56.885 40.522,56.888 40.512,56.891 C40.397,56.921 40.28,56.945 40.16,56.963 C40.036,56.982 39.91,56.996 39.781,57.001 C39.735,57.003 39.692,57.015 39.646,57.015 L36.618,57.015 L39.72,56.417 L40.089,56.345 L40.458,56.274 L41.757,56.024 L42.126,55.952 C42.102,55.978 42.079,56.004 42.054,56.028 C41.978,56.103 41.891,56.164 41.808,56.232 C41.439,56.531 41.013,56.754 40.542,56.882 Z M48.604,39.582 C48.656,39.39 48.707,39.2 48.749,39.007 C48.871,38.433 48.941,37.847 48.971,37.252 C48.981,37.065 49.003,36.881 49.003,36.692 C49.003,36.628 48.994,36.565 48.993,36.501 C48.981,35.814 48.914,35.14 48.78,34.49 C48.729,34.243 48.66,34.004 48.593,33.764 C48.444,33.23 48.258,32.713 48.034,32.216 C47.931,31.987 47.826,31.76 47.708,31.54 C47.384,30.937 47.004,30.368 46.577,29.839 C46.419,29.644 46.251,29.46 46.081,29.277 C45.71,28.876 45.314,28.501 44.889,28.159 C44.693,28.003 44.494,27.853 44.288,27.71 C43.735,27.326 43.144,26.995 42.522,26.715 C42.295,26.614 42.062,26.524 41.826,26.437 C40.652,26.005 39.39,25.757 38.068,25.757 C37.888,25.757 37.712,25.777 37.534,25.784 C37.282,25.797 37.032,25.811 36.785,25.84 C35.336,26.01 33.974,26.462 32.754,27.144 C32.556,27.255 32.364,27.375 32.173,27.498 C30.999,28.253 29.98,29.225 29.17,30.361 C29.024,30.565 28.889,30.775 28.757,30.989 C28.491,31.421 28.248,31.869 28.043,32.338 C27.943,32.567 27.859,32.803 27.774,33.04 C27.585,33.572 27.432,34.12 27.326,34.686 C27.281,34.931 27.242,35.178 27.213,35.428 C27.165,35.843 27.134,36.264 27.134,36.692 C27.134,36.763 27.145,36.832 27.146,36.903 C27.15,37.154 27.168,37.403 27.189,37.652 C27.24,38.245 27.334,38.828 27.478,39.397 C27.54,39.64 27.614,39.879 27.692,40.116 C28.092,41.332 28.702,42.464 29.504,43.47 C29.66,43.665 29.828,43.85 29.997,44.035 C30.454,44.533 30.947,45.005 31.502,45.423 C31.997,45.794 32.292,46.385 32.292,47.003 L32.292,53.566 C32.292,54.5 32.609,55.355 33.126,56.053 C33.309,56.299 33.52,56.52 33.751,56.721 C34.308,57.206 34.984,57.552 35.739,57.689 C36.075,58.658 36.987,59.36 38.068,59.36 C39.15,59.36 40.062,58.658 40.398,57.689 C40.984,57.582 41.529,57.36 42.004,57.036 C42.236,56.879 42.449,56.697 42.645,56.496 C43.385,55.739 43.845,54.706 43.845,53.566 L43.845,47.003 C43.845,46.385 44.14,45.794 44.635,45.423 C45.198,44.999 45.698,44.52 46.16,44.013 C46.33,43.827 46.496,43.64 46.651,43.444 C46.992,43.015 47.293,42.56 47.563,42.087 C47.688,41.869 47.813,41.653 47.922,41.427 C48.207,40.836 48.43,40.218 48.604,39.582 Z" id="Fill-39"></path>
            <path d="M44.257,43.879 C44.522,43.651 44.771,43.405 45.01,43.15 C45.18,42.966 45.334,42.769 45.489,42.573 C45.765,42.225 46.02,41.864 46.244,41.483 C46.371,41.266 46.483,41.043 46.592,40.817 C46.669,40.659 46.757,40.504 46.825,40.341 C46.957,40.024 47.066,39.701 47.163,39.376 C47.228,39.153 47.282,38.929 47.331,38.704 C47.335,38.686 47.342,38.666 47.346,38.648 C47.44,38.198 47.495,37.741 47.523,37.28 C47.535,37.084 47.552,36.889 47.552,36.692 C47.552,36.633 47.535,36.579 47.511,36.53 C47.45,36.405 47.325,36.317 47.177,36.317 C47.023,36.317 46.892,36.411 46.834,36.543 C46.813,36.589 46.802,36.639 46.802,36.692 C46.802,36.894 46.786,37.094 46.772,37.294 C46.765,37.404 46.761,37.515 46.75,37.624 C46.718,37.92 46.671,38.212 46.61,38.501 C46.608,38.51 46.605,38.517 46.604,38.526 C46.553,38.762 46.497,38.998 46.427,39.229 C46.343,39.507 46.245,39.781 46.132,40.052 C46.067,40.207 45.985,40.354 45.911,40.505 C45.801,40.731 45.686,40.952 45.557,41.168 C45.356,41.501 45.133,41.819 44.89,42.123 C44.745,42.304 44.602,42.486 44.442,42.657 C44.43,42.67 44.416,42.681 44.403,42.694 C44.2,42.909 43.991,43.118 43.768,43.31 C43.611,43.445 43.593,43.682 43.729,43.839 C43.803,43.925 43.908,43.969 44.013,43.969 C44.1,43.969 44.187,43.94 44.257,43.879" id="Fill-40"></path>
            <path d="M38.068,27.209 C37.904,27.209 37.742,27.222 37.58,27.23 C37.328,27.243 37.079,27.265 36.831,27.299 C36.154,27.387 35.489,27.54 34.845,27.772 C34.65,27.842 34.55,28.057 34.62,28.252 C34.675,28.404 34.819,28.5 34.973,28.5 C34.999,28.5 35.025,28.491 35.051,28.486 C35.067,28.482 35.084,28.483 35.1,28.477 C35.32,28.397 35.544,28.328 35.77,28.267 C36.156,28.162 36.55,28.091 36.947,28.038 C37.142,28.014 37.338,27.994 37.535,27.982 C37.712,27.971 37.89,27.96 38.068,27.96 C38.275,27.96 38.443,27.792 38.443,27.584 C38.443,27.377 38.275,27.209 38.068,27.209" id="Fill-41"></path>
            <path d="M32.117,29.788 C32.116,29.788 32.116,29.788 32.116,29.787 C32.045,29.712 31.949,29.673 31.853,29.671 C31.758,29.668 31.661,29.7 31.586,29.771 C31.468,29.882 31.358,30 31.247,30.115 C30.909,30.465 30.602,30.836 30.324,31.226 C30.179,31.431 30.042,31.64 29.914,31.856 C29.706,32.206 29.519,32.567 29.358,32.941 C29.259,33.17 29.169,33.405 29.089,33.641 C28.943,34.072 28.825,34.513 28.742,34.966 C28.74,34.973 28.738,34.98 28.737,34.986 C28.737,34.986 28.737,34.987 28.737,34.989 C28.735,34.999 28.739,35.009 28.738,35.018 C28.734,35.058 28.732,35.099 28.74,35.136 C28.772,35.279 28.886,35.397 29.04,35.424 C29.062,35.428 29.085,35.431 29.107,35.431 C29.285,35.431 29.442,35.303 29.476,35.122 C29.476,35.119 29.478,35.115 29.479,35.113 C29.551,34.717 29.66,34.336 29.783,33.96 C29.834,33.807 29.892,33.66 29.95,33.511 C29.95,33.511 29.95,33.51 29.951,33.509 C29.952,33.507 29.953,33.505 29.954,33.503 L29.952,33.506 C29.984,33.423 30.025,33.344 30.061,33.263 C30.199,32.938 30.348,32.619 30.525,32.314 C30.651,32.098 30.792,31.89 30.937,31.686 C30.957,31.657 30.974,31.626 30.994,31.598 L30.992,31.602 C30.993,31.6 30.994,31.598 30.996,31.596 C31.221,31.284 31.474,30.992 31.742,30.71 C31.864,30.582 31.969,30.441 32.099,30.319 C32.165,30.257 32.192,30.174 32.203,30.09 C32.204,30.078 32.217,30.069 32.217,30.056 C32.22,29.991 32.181,29.932 32.148,29.873 C32.134,29.845 32.139,29.813 32.117,29.788" id="Fill-42"></path>
            <polyline id="Fill-43" points="32.34 71.523 33.637 71.719 33.553 72.277 33.186 72.222 32.833 74.556 33.2 74.612 33.116 75.17 31.823 74.974 31.908 74.416 32.275 74.472 32.628 72.137 32.256 72.081 32.34 71.523"></polyline>
            <polyline id="Fill-44" points="29.554 73.53 30.053 73.669 29.788 74.616 26.142 73.597 26.406 72.65 26.904 72.789 26.837 73.205 27.847 73.487 28.482 71.214 28.125 71.114 28.276 70.57 29.535 70.922 29.384 71.465 29.025 71.365 28.391 73.639 29.396 73.92 29.554 73.53"></polyline>
            <polyline id="Fill-45" points="21.662 67.79 22.822 68.402 22.56 68.901 22.23 68.728 21.131 70.817 21.46 70.99 21.197 71.489 20.04 70.88 20.303 70.381 20.632 70.554 21.731 68.465 21.398 68.289 21.662 67.79"></polyline>
            <path d="M16.854,68.962 C16.709,68.863 16.583,68.769 16.476,68.68 C16.369,68.592 16.272,68.503 16.185,68.413 C16.1,68.323 16.02,68.229 15.946,68.129 C15.874,68.03 15.799,67.92 15.723,67.799 L16.121,67.217 L16.548,67.509 L16.408,67.756 C16.477,67.867 16.572,67.985 16.698,68.111 C16.822,68.236 16.991,68.372 17.203,68.517 C17.361,68.625 17.5,68.705 17.62,68.757 C17.74,68.809 17.843,68.842 17.928,68.853 C18.013,68.866 18.081,68.862 18.135,68.842 C18.188,68.822 18.229,68.794 18.253,68.757 C18.279,68.718 18.296,68.678 18.301,68.634 C18.306,68.589 18.289,68.534 18.25,68.467 C18.21,68.4 18.143,68.319 18.046,68.222 C17.951,68.127 17.815,68.009 17.637,67.868 C17.386,67.669 17.183,67.487 17.027,67.322 C16.872,67.157 16.763,67 16.697,66.851 C16.632,66.702 16.609,66.557 16.63,66.417 C16.65,66.277 16.709,66.134 16.809,65.989 C16.896,65.862 17.012,65.765 17.156,65.698 C17.303,65.63 17.467,65.597 17.652,65.598 C17.838,65.6 18.039,65.638 18.258,65.714 C18.476,65.789 18.703,65.907 18.937,66.069 C19.101,66.18 19.244,66.303 19.367,66.436 C19.49,66.57 19.596,66.706 19.685,66.843 C19.773,66.979 19.845,67.112 19.898,67.242 C19.952,67.372 19.988,67.49 20.008,67.594 L19.468,67.726 C19.434,67.619 19.395,67.513 19.349,67.408 C19.303,67.302 19.246,67.198 19.18,67.098 C19.111,66.996 19.032,66.897 18.94,66.802 C18.848,66.707 18.74,66.618 18.619,66.534 C18.438,66.41 18.273,66.318 18.126,66.259 C17.979,66.2 17.85,66.165 17.738,66.156 C17.627,66.146 17.533,66.156 17.456,66.188 C17.38,66.219 17.323,66.262 17.286,66.316 C17.248,66.371 17.229,66.43 17.227,66.495 C17.225,66.56 17.246,66.634 17.295,66.719 C17.344,66.803 17.422,66.9 17.529,67.008 C17.639,67.116 17.783,67.244 17.964,67.391 C18.213,67.592 18.412,67.772 18.559,67.929 C18.705,68.087 18.808,68.233 18.867,68.368 C18.926,68.504 18.946,68.631 18.926,68.748 C18.906,68.866 18.856,68.985 18.771,69.107 C18.69,69.226 18.584,69.313 18.455,69.37 C18.326,69.425 18.179,69.448 18.015,69.438 C17.85,69.428 17.67,69.383 17.474,69.304 C17.277,69.224 17.07,69.11 16.854,68.962" id="Fill-46"></path>
            <path d="M11.94,62.121 L10.998,61.063 L10.244,62.274 L10.645,62.724 L11.94,62.121 Z M11.327,59.09 L12.196,60.067 L11.774,60.442 L11.547,60.186 L11.308,60.561 L12.473,61.872 L12.877,61.683 L12.649,61.426 L13.07,61.051 L13.937,62.025 L13.515,62.4 L13.268,62.122 L11.038,63.167 L11.235,63.389 L10.813,63.764 L9.541,62.333 L11.152,59.743 L10.905,59.465 L11.327,59.09 Z" id="Fill-47"></path>
            <path d="M5.212,54.946 C5.303,55.118 5.412,55.264 5.541,55.382 C5.67,55.5 5.81,55.588 5.96,55.645 C6.11,55.703 6.268,55.728 6.434,55.719 C6.599,55.711 6.761,55.665 6.919,55.582 C7.077,55.499 7.207,55.392 7.309,55.261 C7.41,55.131 7.481,54.987 7.52,54.831 C7.558,54.675 7.565,54.509 7.541,54.336 C7.518,54.162 7.462,53.99 7.371,53.818 C7.277,53.637 7.167,53.488 7.041,53.369 C6.916,53.251 6.78,53.163 6.633,53.105 L6.129,53.368 L6.793,54.64 L6.293,54.901 L5.367,53.13 L6.533,52.52 C6.813,52.565 7.068,52.679 7.302,52.862 C7.535,53.044 7.725,53.276 7.872,53.557 C7.988,53.778 8.063,54.013 8.098,54.258 C8.132,54.503 8.122,54.742 8.067,54.972 C8.013,55.202 7.912,55.415 7.767,55.611 C7.622,55.807 7.429,55.968 7.187,56.094 C6.94,56.224 6.693,56.293 6.448,56.301 C6.202,56.308 5.971,56.268 5.754,56.181 C5.536,56.092 5.337,55.963 5.157,55.795 C4.977,55.625 4.828,55.429 4.712,55.207 C4.616,55.023 4.545,54.858 4.496,54.709 C4.449,54.561 4.417,54.426 4.4,54.306 C4.383,54.186 4.378,54.079 4.385,53.985 C4.391,53.892 4.396,53.808 4.404,53.734 L4.941,53.453 L5.182,53.911 L4.976,54.046 C4.971,54.111 4.971,54.176 4.972,54.238 C4.975,54.3 4.984,54.367 5.002,54.437 C5.02,54.508 5.045,54.584 5.078,54.665 C5.112,54.747 5.156,54.84 5.212,54.946" id="Fill-48"></path>
            <path d="M3.037,49.82 C3.1,50.004 3.185,50.165 3.294,50.302 C3.402,50.439 3.527,50.547 3.667,50.628 C3.807,50.708 3.959,50.757 4.123,50.774 C4.288,50.791 4.455,50.771 4.625,50.714 C4.793,50.656 4.938,50.572 5.06,50.458 C5.18,50.344 5.272,50.213 5.334,50.065 C5.396,49.916 5.429,49.754 5.433,49.58 C5.436,49.405 5.407,49.225 5.345,49.041 C5.279,48.845 5.191,48.678 5.081,48.539 C4.972,48.4 4.848,48.293 4.709,48.215 C4.57,48.138 4.42,48.093 4.256,48.081 C4.093,48.068 3.928,48.09 3.758,48.147 C3.588,48.204 3.442,48.288 3.32,48.396 C3.199,48.506 3.106,48.633 3.043,48.779 C2.979,48.924 2.945,49.084 2.942,49.261 C2.94,49.438 2.971,49.624 3.037,49.82 Z M4.81,51.262 C4.545,51.351 4.291,51.381 4.047,51.35 C3.804,51.32 3.582,51.245 3.38,51.123 C3.179,51.003 3.003,50.846 2.851,50.65 C2.698,50.455 2.582,50.238 2.502,50.001 C2.418,49.751 2.377,49.503 2.379,49.255 C2.383,49.008 2.427,48.777 2.516,48.562 C2.604,48.347 2.735,48.155 2.912,47.987 C3.088,47.818 3.309,47.688 3.572,47.599 C3.828,47.513 4.076,47.484 4.317,47.511 C4.559,47.539 4.781,47.612 4.983,47.728 C5.188,47.845 5.366,48.001 5.521,48.195 C5.676,48.389 5.795,48.611 5.88,48.86 C5.96,49.098 5.998,49.341 5.994,49.589 C5.99,49.836 5.943,50.069 5.854,50.289 C5.764,50.508 5.632,50.703 5.458,50.874 C5.283,51.045 5.067,51.174 4.81,51.262 Z" id="Fill-49"></path>
            <path d="M1.586,44.002 C1.617,44.194 1.676,44.366 1.762,44.519 C1.847,44.672 1.952,44.799 2.076,44.901 C2.201,45.002 2.344,45.075 2.504,45.118 C2.663,45.162 2.831,45.169 3.008,45.14 C3.185,45.111 3.341,45.05 3.478,44.958 C3.615,44.865 3.727,44.751 3.813,44.614 C3.898,44.478 3.957,44.323 3.988,44.152 C4.021,43.979 4.021,43.797 3.989,43.605 C3.955,43.402 3.896,43.222 3.81,43.068 C3.725,42.914 3.619,42.787 3.494,42.689 C3.37,42.59 3.229,42.521 3.069,42.482 C2.911,42.443 2.743,42.438 2.566,42.467 C2.391,42.496 2.232,42.555 2.096,42.643 C1.957,42.731 1.845,42.841 1.76,42.975 C1.673,43.108 1.614,43.261 1.583,43.436 C1.551,43.609 1.552,43.798 1.586,44.002 Z M3.102,45.711 C2.826,45.756 2.57,45.744 2.336,45.675 C2.101,45.606 1.893,45.496 1.714,45.344 C1.535,45.193 1.386,45.008 1.268,44.791 C1.149,44.574 1.069,44.342 1.029,44.094 C0.986,43.834 0.985,43.583 1.027,43.338 C1.07,43.095 1.152,42.874 1.273,42.676 C1.395,42.478 1.557,42.31 1.758,42.172 C1.959,42.034 2.197,41.942 2.473,41.897 C2.738,41.853 2.988,41.864 3.222,41.93 C3.455,41.997 3.662,42.104 3.844,42.252 C4.026,42.4 4.178,42.583 4.299,42.799 C4.421,43.016 4.503,43.254 4.547,43.514 C4.586,43.761 4.585,44.007 4.541,44.251 C4.497,44.495 4.413,44.718 4.289,44.919 C4.165,45.121 4.004,45.292 3.805,45.433 C3.605,45.574 3.371,45.667 3.102,45.711 Z" id="Fill-50"></path>
            <path d="M3.482,37.907 C3.481,37.741 3.45,37.585 3.389,37.439 C3.327,37.294 3.242,37.167 3.136,37.06 C3.028,36.952 2.902,36.867 2.758,36.805 C2.613,36.743 2.459,36.712 2.292,36.713 C2.129,36.714 1.976,36.746 1.832,36.809 C1.688,36.873 1.563,36.958 1.459,37.067 C1.354,37.176 1.272,37.303 1.211,37.449 C1.15,37.595 1.121,37.751 1.121,37.917 L1.127,39.051 L3.488,39.04 L3.482,37.907 Z M0.566,39.984 L0.558,37.92 C0.557,37.685 0.599,37.461 0.684,37.249 C0.77,37.037 0.889,36.849 1.043,36.686 C1.197,36.522 1.381,36.392 1.594,36.295 C1.807,36.198 2.039,36.15 2.289,36.149 C2.524,36.147 2.748,36.191 2.961,36.279 C3.172,36.368 3.358,36.49 3.52,36.646 C3.68,36.802 3.808,36.988 3.903,37.202 C3.998,37.416 4.046,37.65 4.047,37.904 L4.057,39.969 L3.491,39.971 L3.49,39.604 L1.129,39.615 L1.131,39.982 L0.566,39.984 Z" id="Fill-51"></path>
            <polyline id="Fill-52" points="4.895 30.344 4.628 31.629 4.075 31.514 4.15 31.151 1.839 30.67 1.764 31.035 1.212 30.92 1.478 29.64 2.029 29.754 1.954 30.118 4.266 30.598 4.342 30.23 4.895 30.344"></polyline>
            <path d="M5.376,26.631 C5.429,26.473 5.45,26.315 5.439,26.158 C5.428,26 5.389,25.853 5.322,25.716 C5.256,25.579 5.165,25.459 5.049,25.353 C4.932,25.247 4.795,25.168 4.638,25.115 C4.483,25.062 4.328,25.043 4.171,25.056 C4.014,25.069 3.869,25.11 3.734,25.179 C3.6,25.247 3.481,25.341 3.376,25.459 C3.271,25.578 3.193,25.716 3.139,25.873 L2.775,26.947 L5.012,27.704 L5.376,26.631 Z M1.942,27.648 L2.606,25.693 C2.68,25.469 2.793,25.272 2.941,25.099 C3.092,24.926 3.266,24.787 3.465,24.683 C3.664,24.578 3.881,24.515 4.113,24.493 C4.346,24.471 4.581,24.5 4.818,24.58 C5.041,24.655 5.238,24.769 5.41,24.922 C5.582,25.074 5.719,25.251 5.82,25.45 C5.921,25.65 5.981,25.867 6.002,26.1 C6.022,26.333 5.991,26.571 5.91,26.812 L5.248,28.767 L4.713,28.586 L4.831,28.239 L2.595,27.481 L2.478,27.829 L1.942,27.648 Z" id="Fill-53"></path>
            <polyline id="Fill-54" points="6.389 19.662 6.15 20.12 5.757 19.969 4.94 21.543 5.653 21.913 6.336 20.599 6.838 20.86 6.154 22.174 7.035 22.631 7.874 21.016 7.523 20.781 7.763 20.322 8.635 20.776 7.106 23.718 6.605 23.458 6.774 23.132 4.68 22.044 4.511 22.369 4.01 22.109 5.517 19.209 6.389 19.662"></polyline>
            <path d="M8.945,17.474 L9.783,16.333 L8.44,15.85 L8.084,16.335 L8.945,17.474 Z M11.78,16.242 L11.007,17.295 L10.553,16.962 L10.755,16.685 L10.338,16.53 L9.3,17.945 L9.57,18.3 L9.773,18.023 L10.229,18.357 L9.458,19.408 L9.003,19.074 L9.223,18.774 L7.733,16.813 L7.559,17.052 L7.104,16.718 L8.235,15.174 L11.106,16.207 L11.325,15.908 L11.78,16.242 Z" id="Fill-55"></path>
            <polyline id="Fill-56" points="13.743 10.641 13.345 10.972 12.717 10.215 15.633 7.799 16.26 8.556 15.861 8.886 15.558 8.593 14.75 9.263 16.257 11.081 16.543 10.843 16.902 11.278 15.896 12.112 15.536 11.678 15.822 11.441 14.316 9.623 13.512 10.29 13.743 10.641"></polyline>
            <path d="M19.243,6.084 C19.076,6.183 18.937,6.301 18.826,6.436 C18.714,6.571 18.635,6.715 18.584,6.868 C18.535,7.021 18.52,7.181 18.536,7.345 C18.554,7.509 18.608,7.669 18.699,7.823 C18.791,7.977 18.904,8.101 19.04,8.195 C19.176,8.289 19.323,8.351 19.481,8.382 C19.64,8.412 19.805,8.411 19.977,8.377 C20.148,8.345 20.318,8.279 20.485,8.18 C20.664,8.074 20.809,7.954 20.922,7.818 C21.034,7.682 21.114,7.538 21.16,7.386 C21.207,7.235 21.22,7.078 21.198,6.915 C21.178,6.753 21.121,6.595 21.029,6.441 C20.937,6.287 20.826,6.162 20.695,6.066 C20.563,5.969 20.419,5.905 20.264,5.873 C20.108,5.842 19.943,5.842 19.77,5.875 C19.597,5.91 19.422,5.979 19.243,6.084 Z M18.202,8.118 C18.06,7.878 17.978,7.635 17.957,7.391 C17.935,7.146 17.963,6.913 18.04,6.691 C18.115,6.469 18.233,6.264 18.393,6.074 C18.552,5.885 18.74,5.727 18.955,5.599 C19.182,5.464 19.417,5.373 19.659,5.324 C19.901,5.275 20.137,5.271 20.366,5.312 C20.594,5.354 20.809,5.443 21.012,5.58 C21.213,5.717 21.385,5.907 21.527,6.146 C21.664,6.378 21.744,6.615 21.768,6.856 C21.791,7.098 21.766,7.33 21.694,7.553 C21.623,7.777 21.507,7.984 21.35,8.176 C21.191,8.367 21,8.531 20.773,8.665 C20.558,8.793 20.328,8.881 20.085,8.929 C19.842,8.977 19.604,8.979 19.371,8.937 C19.138,8.894 18.92,8.806 18.716,8.671 C18.512,8.537 18.341,8.352 18.202,8.118 Z" id="Fill-57"></path>
            <path d="M27.445,1.89 C27.613,1.84 27.766,1.802 27.901,1.774 C28.037,1.747 28.168,1.729 28.292,1.718 C28.416,1.707 28.54,1.705 28.662,1.711 C28.785,1.717 28.918,1.729 29.061,1.745 L29.26,2.422 L28.764,2.569 L28.662,2.305 C28.532,2.288 28.38,2.288 28.203,2.306 C28.027,2.323 27.815,2.369 27.569,2.442 C27.387,2.496 27.236,2.554 27.12,2.614 C27.004,2.674 26.914,2.734 26.852,2.792 C26.788,2.849 26.748,2.906 26.73,2.96 C26.711,3.015 26.709,3.063 26.721,3.105 C26.734,3.15 26.756,3.188 26.787,3.22 C26.817,3.252 26.871,3.274 26.948,3.286 C27.025,3.297 27.132,3.296 27.266,3.282 C27.401,3.268 27.579,3.237 27.8,3.188 C28.113,3.118 28.383,3.075 28.607,3.059 C28.834,3.043 29.025,3.057 29.182,3.1 C29.338,3.144 29.465,3.217 29.561,3.321 C29.656,3.425 29.731,3.562 29.779,3.73 C29.823,3.877 29.826,4.029 29.787,4.184 C29.748,4.339 29.669,4.488 29.551,4.631 C29.434,4.774 29.276,4.906 29.08,5.028 C28.884,5.15 28.648,5.251 28.376,5.332 C28.187,5.388 28.001,5.422 27.819,5.433 C27.638,5.444 27.466,5.441 27.305,5.424 C27.143,5.406 26.994,5.378 26.859,5.337 C26.725,5.297 26.61,5.251 26.518,5.2 L26.756,4.699 C26.859,4.74 26.967,4.776 27.078,4.807 C27.187,4.837 27.304,4.859 27.425,4.87 C27.546,4.882 27.673,4.883 27.805,4.871 C27.937,4.859 28.074,4.833 28.216,4.791 C28.426,4.729 28.601,4.659 28.74,4.582 C28.879,4.505 28.987,4.426 29.064,4.346 C29.143,4.266 29.193,4.187 29.218,4.107 C29.241,4.028 29.244,3.957 29.226,3.894 C29.206,3.831 29.173,3.778 29.124,3.735 C29.076,3.692 29.003,3.663 28.906,3.647 C28.811,3.632 28.687,3.632 28.534,3.647 C28.382,3.663 28.191,3.695 27.964,3.743 C27.65,3.809 27.387,3.85 27.171,3.864 C26.956,3.878 26.777,3.866 26.636,3.827 C26.492,3.787 26.382,3.722 26.303,3.633 C26.225,3.544 26.164,3.428 26.122,3.287 C26.082,3.149 26.08,3.012 26.119,2.876 C26.156,2.74 26.231,2.612 26.343,2.491 C26.454,2.37 26.603,2.258 26.788,2.156 C26.974,2.053 27.192,1.965 27.445,1.89" id="Fill-58"></path>
            <polyline id="Fill-59" points="31.663 1.92 31.151 1.992 31.016 1.019 34.765 0.495 34.9 1.468 34.389 1.54 34.284 1.132 33.245 1.277 33.572 3.615 33.939 3.564 34.018 4.122 32.723 4.303 32.645 3.745 33.013 3.693 32.687 1.355 31.652 1.499 31.663 1.92"></polyline>
            <path d="M37.456,2.327 L38.872,2.329 L38.469,0.959 L37.867,0.959 L37.456,2.327 Z M40.125,3.887 L38.818,3.886 L38.818,3.322 L39.162,3.322 L39.04,2.894 L37.285,2.891 L37.158,3.319 L37.502,3.319 L37.501,3.884 L36.198,3.882 L36.199,3.317 L36.57,3.318 L37.275,0.958 L36.979,0.958 L36.979,0.393 L38.894,0.396 L39.754,3.323 L40.126,3.323 L40.125,3.887 Z" id="Fill-60"></path>
            <path d="M44.92,2.268 C44.935,2.175 44.931,2.085 44.908,1.997 C44.887,1.909 44.85,1.831 44.799,1.76 C44.748,1.69 44.685,1.631 44.606,1.582 C44.528,1.532 44.443,1.5 44.351,1.485 L43.106,1.285 L42.889,2.636 L44.16,2.841 C44.25,2.855 44.337,2.851 44.422,2.829 C44.507,2.806 44.583,2.768 44.652,2.715 C44.721,2.663 44.779,2.599 44.826,2.522 C44.873,2.445 44.904,2.361 44.92,2.268 Z M43.008,4.232 L41.721,4.025 L41.811,3.467 L42.173,3.526 L42.549,1.195 L42.187,1.137 L42.276,0.58 L44.473,0.934 C44.631,0.959 44.776,1.015 44.91,1.102 C45.044,1.188 45.158,1.298 45.254,1.431 C45.354,1.568 45.422,1.714 45.46,1.872 C45.498,2.029 45.504,2.191 45.477,2.358 C45.45,2.525 45.394,2.677 45.308,2.816 C45.222,2.955 45.11,3.074 44.975,3.172 C44.787,3.307 44.584,3.385 44.365,3.407 L44.414,3.601 C44.469,3.81 44.578,3.928 44.738,3.954 C44.825,3.967 44.903,3.962 44.973,3.937 C45.042,3.911 45.111,3.872 45.184,3.821 L45.467,4.281 C45.334,4.377 45.205,4.446 45.082,4.488 C44.957,4.529 44.812,4.537 44.648,4.51 C44.423,4.474 44.245,4.385 44.115,4.244 C43.986,4.103 43.891,3.917 43.828,3.688 L43.736,3.344 L42.799,3.193 L42.73,3.616 L43.098,3.675 L43.008,4.232 Z" id="Fill-61"></path>
            <polyline id="Fill-62" points="47.947 2.693 47.455 2.536 47.754 1.6 51.36 2.751 51.062 3.687 50.568 3.53 50.651 3.117 49.652 2.798 48.934 5.047 49.287 5.16 49.116 5.698 47.871 5.301 48.043 4.763 48.396 4.876 49.114 2.627 48.12 2.31 47.947 2.693"></polyline>
            <path d="M56.364,7.345 L57.564,8.095 L57.947,6.72 L57.437,6.401 L56.364,7.345 Z M57.805,10.081 L56.696,9.388 L56.996,8.909 L57.286,9.091 L57.409,8.663 L55.922,7.734 L55.588,8.029 L55.879,8.211 L55.579,8.69 L54.476,8 L54.774,7.521 L55.089,7.718 L56.935,6.088 L56.684,5.931 L56.982,5.452 L58.605,6.466 L57.789,9.406 L58.104,9.603 L57.805,10.081 Z" id="Fill-63"></path>
            <path d="M62.319,9.938 C62.172,9.812 62.016,9.717 61.852,9.656 C61.688,9.594 61.525,9.565 61.364,9.567 C61.203,9.57 61.049,9.606 60.898,9.675 C60.748,9.744 60.614,9.847 60.498,9.983 C60.382,10.119 60.301,10.266 60.256,10.425 C60.21,10.584 60.199,10.744 60.221,10.904 C60.244,11.063 60.298,11.218 60.384,11.37 C60.471,11.523 60.588,11.662 60.735,11.789 C60.931,11.956 61.131,12.068 61.336,12.126 C61.54,12.184 61.738,12.189 61.93,12.143 L62,12.704 C61.722,12.755 61.44,12.738 61.156,12.654 C60.871,12.569 60.609,12.424 60.369,12.218 C60.178,12.054 60.021,11.866 59.897,11.65 C59.773,11.436 59.695,11.211 59.66,10.977 C59.625,10.743 59.639,10.508 59.7,10.272 C59.762,10.036 59.882,9.814 60.059,9.607 C60.24,9.395 60.443,9.239 60.668,9.141 C60.893,9.042 61.123,8.993 61.357,8.994 C61.592,8.995 61.824,9.04 62.055,9.13 C62.285,9.22 62.495,9.346 62.686,9.509 C62.844,9.644 62.972,9.771 63.071,9.891 C63.171,10.012 63.25,10.124 63.311,10.23 C63.371,10.335 63.416,10.432 63.445,10.521 C63.475,10.61 63.5,10.69 63.521,10.762 L63.126,11.223 L62.733,10.887 L62.875,10.686 C62.854,10.622 62.831,10.562 62.806,10.506 C62.779,10.449 62.746,10.391 62.703,10.332 C62.66,10.273 62.609,10.212 62.547,10.149 C62.486,10.086 62.41,10.016 62.319,9.938" id="Fill-64"></path>
            <path d="M66.093,13.708 C65.965,13.562 65.824,13.447 65.67,13.363 C65.518,13.279 65.36,13.226 65.201,13.205 C65.041,13.185 64.882,13.198 64.724,13.246 C64.564,13.294 64.418,13.376 64.284,13.494 C64.15,13.613 64.049,13.747 63.981,13.898 C63.914,14.049 63.88,14.205 63.879,14.366 C63.879,14.527 63.91,14.689 63.974,14.852 C64.038,15.015 64.134,15.17 64.262,15.316 C64.432,15.508 64.614,15.648 64.809,15.734 C65.003,15.82 65.198,15.854 65.395,15.835 L65.385,16.402 C65.102,16.412 64.826,16.356 64.556,16.231 C64.286,16.107 64.047,15.926 63.838,15.688 C63.673,15.5 63.545,15.29 63.452,15.06 C63.36,14.829 63.315,14.596 63.312,14.36 C63.312,14.123 63.358,13.892 63.453,13.667 C63.547,13.442 63.697,13.24 63.902,13.06 C64.111,12.875 64.335,12.751 64.571,12.685 C64.809,12.619 65.042,12.603 65.274,12.637 C65.506,12.671 65.73,12.749 65.945,12.87 C66.161,12.992 66.352,13.147 66.518,13.336 C66.653,13.492 66.763,13.636 66.844,13.769 C66.925,13.902 66.988,14.025 67.033,14.138 C67.078,14.251 67.108,14.353 67.125,14.445 C67.141,14.537 67.154,14.62 67.165,14.694 L66.709,15.095 L66.368,14.706 L66.536,14.527 C66.525,14.462 66.511,14.399 66.493,14.339 C66.477,14.279 66.451,14.217 66.417,14.153 C66.384,14.089 66.341,14.02 66.289,13.949 C66.236,13.878 66.172,13.798 66.093,13.708" id="Fill-65"></path>
            <polyline id="Fill-66" points="69.724 19.482 69.443 19.048 69.77 18.781 68.807 17.291 68.132 17.728 68.936 18.972 68.461 19.279 67.658 18.034 66.824 18.572 67.812 20.101 68.188 19.914 68.469 20.348 67.644 20.882 65.845 18.096 66.319 17.79 66.518 18.098 68.502 16.818 68.303 16.509 68.776 16.203 70.55 18.949 69.724 19.482"></polyline>
            <path d="M71.666,24.022 C71.752,23.983 71.825,23.93 71.886,23.863 C71.947,23.796 71.992,23.722 72.023,23.641 C72.054,23.56 72.067,23.473 72.065,23.382 C72.064,23.29 72.043,23.201 72.004,23.115 L71.484,21.967 L70.238,22.531 L70.77,23.706 C70.807,23.788 70.858,23.858 70.924,23.916 C70.99,23.975 71.063,24.018 71.146,24.046 C71.227,24.074 71.313,24.087 71.402,24.084 C71.492,24.081 71.58,24.061 71.666,24.022 Z M68.973,23.512 L68.436,22.325 L68.95,22.093 L69.102,22.427 L71.252,21.453 L71.101,21.119 L71.615,20.886 L72.531,22.912 C72.598,23.058 72.632,23.211 72.634,23.37 C72.635,23.529 72.607,23.686 72.549,23.839 C72.49,23.997 72.404,24.135 72.295,24.253 C72.186,24.372 72.053,24.466 71.899,24.536 C71.744,24.606 71.586,24.643 71.424,24.649 C71.261,24.653 71.1,24.626 70.942,24.566 C70.793,24.51 70.658,24.429 70.538,24.324 C70.418,24.218 70.325,24.092 70.259,23.947 L69.724,22.764 L69.334,22.941 L69.487,23.279 L68.973,23.512 Z" id="Fill-67"></path>
            <polyline id="Fill-68" points="72.979 26.825 72.841 26.327 73.788 26.064 74.799 29.713 73.852 29.975 73.713 29.477 74.104 29.319 73.824 28.309 71.549 28.939 71.648 29.297 71.104 29.448 70.755 28.188 71.299 28.037 71.398 28.395 73.674 27.765 73.395 26.759 72.979 26.825"></polyline>
            <polyline id="Fill-69" points="71.891 33.531 71.696 32.233 72.254 32.15 72.309 32.517 74.644 32.167 74.589 31.8 75.147 31.717 75.341 33.01 74.782 33.093 74.728 32.725 72.393 33.075 72.448 33.447 71.891 33.531"></polyline>
            <polyline id="Fill-70" points="72.141 36.446 72.106 35.143 72.67 35.128 72.681 35.495 75.041 35.432 75.03 35.065 75.595 35.05 75.633 36.465 72.743 37.822 72.746 37.958 75.106 37.895 75.096 37.524 75.661 37.509 75.695 38.815 75.131 38.83 75.121 38.459 72.762 38.522 72.771 38.894 72.207 38.909 72.17 37.494 75.06 36.137 75.056 35.996 72.695 36.059 72.705 36.43 72.141 36.446"></polyline>
            <path d="M74.819,42.727 C74.844,42.534 74.836,42.352 74.798,42.182 C74.759,42.011 74.693,41.859 74.604,41.726 C74.513,41.593 74.396,41.483 74.256,41.396 C74.115,41.308 73.957,41.254 73.779,41.231 C73.602,41.21 73.434,41.223 73.275,41.273 C73.118,41.323 72.979,41.401 72.858,41.507 C72.737,41.614 72.637,41.745 72.558,41.901 C72.478,42.057 72.426,42.232 72.402,42.425 C72.377,42.627 72.382,42.812 72.418,42.981 C72.453,43.15 72.516,43.299 72.604,43.431 L73.168,43.501 L73.346,42.078 L73.906,42.148 L73.657,44.131 L72.352,43.968 C72.148,43.772 72.003,43.532 71.915,43.25 C71.827,42.967 71.803,42.668 71.843,42.354 C71.873,42.105 71.945,41.87 72.057,41.649 C72.167,41.427 72.312,41.237 72.487,41.079 C72.664,40.921 72.867,40.803 73.099,40.725 C73.329,40.646 73.58,40.624 73.851,40.658 C74.128,40.692 74.369,40.776 74.575,40.91 C74.781,41.043 74.949,41.208 75.077,41.404 C75.206,41.6 75.297,41.819 75.348,42.061 C75.4,42.303 75.41,42.548 75.379,42.797 C75.354,43.002 75.318,43.18 75.272,43.329 C75.227,43.478 75.177,43.606 75.122,43.715 C75.067,43.824 75.011,43.915 74.953,43.988 C74.895,44.061 74.842,44.126 74.793,44.183 L74.191,44.108 L74.256,43.595 L74.501,43.602 C74.543,43.55 74.58,43.498 74.613,43.445 C74.646,43.393 74.676,43.332 74.703,43.265 C74.729,43.196 74.75,43.12 74.77,43.033 C74.787,42.947 74.805,42.845 74.819,42.727" id="Fill-71"></path>
            <path d="M71.933,51.95 C72.035,51.989 72.137,51.986 72.238,51.941 C72.339,51.896 72.409,51.822 72.448,51.719 L72.953,50.402 L72.201,50.114 L71.697,51.432 C71.677,51.485 71.669,51.538 71.672,51.591 C71.675,51.644 71.687,51.694 71.708,51.741 C71.729,51.787 71.758,51.829 71.796,51.865 C71.834,51.902 71.88,51.93 71.933,51.95 Z M71.111,51.384 L71.674,49.912 L70.748,49.559 L70.189,51.017 C70.166,51.081 70.154,51.146 70.158,51.211 C70.162,51.276 70.176,51.338 70.201,51.396 C70.226,51.454 70.262,51.507 70.309,51.553 C70.357,51.6 70.413,51.636 70.478,51.661 C70.539,51.684 70.602,51.694 70.667,51.692 C70.73,51.69 70.792,51.676 70.85,51.649 C70.906,51.622 70.958,51.587 71.004,51.542 C71.049,51.497 71.085,51.444 71.111,51.384 Z M69.663,50.815 L70.553,48.487 L71.08,48.688 L70.949,49.032 L73.154,49.875 L73.285,49.532 L73.813,49.733 L72.976,51.921 C72.929,52.044 72.861,52.152 72.771,52.243 C72.683,52.335 72.582,52.406 72.469,52.457 C72.355,52.508 72.234,52.535 72.107,52.54 C71.979,52.545 71.854,52.524 71.73,52.477 C71.625,52.437 71.532,52.381 71.45,52.309 C71.368,52.238 71.301,52.158 71.247,52.07 C71.11,52.173 70.953,52.233 70.775,52.25 C70.598,52.268 70.431,52.246 70.275,52.188 C70.138,52.135 70.02,52.059 69.919,51.96 C69.819,51.862 69.742,51.75 69.686,51.624 C69.63,51.499 69.599,51.366 69.594,51.227 C69.588,51.087 69.611,50.949 69.663,50.815 Z" id="Fill-72"></path>
            <polyline id="Fill-73" points="67.941 54.416 68.553 53.255 69.053 53.519 68.879 53.847 70.967 54.949 71.141 54.62 71.64 54.884 71.029 56.039 70.53 55.776 70.703 55.448 68.615 54.346 68.439 54.679 67.941 54.416"></polyline>
            <polyline id="Fill-74" points="68.937 57.676 69.232 57.252 70.039 57.813 67.878 60.921 67.07 60.36 67.366 59.935 67.736 60.135 68.336 59.274 66.398 57.927 66.185 58.231 65.722 57.909 66.469 56.836 66.932 57.158 66.72 57.463 68.657 58.811 69.254 57.954 68.937 57.676"></polyline>
            <path d="M64.842,63.557 C64.976,63.416 65.078,63.265 65.147,63.104 C65.218,62.944 65.256,62.783 65.261,62.622 C65.267,62.462 65.238,62.304 65.176,62.151 C65.115,61.997 65.02,61.859 64.89,61.736 C64.76,61.613 64.616,61.525 64.46,61.472 C64.303,61.418 64.145,61.398 63.984,61.413 C63.824,61.427 63.666,61.474 63.509,61.552 C63.353,61.631 63.207,61.74 63.074,61.882 C62.896,62.068 62.774,62.262 62.707,62.463 C62.639,62.665 62.623,62.863 62.659,63.057 L62.096,63.099 C62.059,62.818 62.09,62.538 62.19,62.258 C62.288,61.978 62.446,61.723 62.664,61.493 C62.837,61.312 63.033,61.164 63.254,61.051 C63.475,60.939 63.703,60.871 63.939,60.849 C64.174,60.825 64.408,60.851 64.642,60.925 C64.874,60.998 65.089,61.128 65.287,61.316 C65.49,61.508 65.635,61.719 65.722,61.948 C65.81,62.178 65.846,62.409 65.834,62.644 C65.821,62.878 65.764,63.108 65.663,63.334 C65.562,63.559 65.424,63.763 65.252,63.945 C65.109,64.095 64.976,64.216 64.851,64.31 C64.726,64.403 64.609,64.478 64.501,64.533 C64.393,64.588 64.293,64.627 64.203,64.652 C64.112,64.676 64.031,64.698 63.958,64.715 L63.518,64.298 L63.874,63.923 L64.067,64.074 C64.132,64.056 64.192,64.036 64.25,64.014 C64.309,63.991 64.369,63.96 64.43,63.921 C64.49,63.881 64.554,63.832 64.62,63.774 C64.686,63.716 64.76,63.644 64.842,63.557" id="Fill-75"></path>
            <path d="M60.885,67.135 C61.038,67.015 61.161,66.881 61.254,66.732 C61.347,66.584 61.408,66.431 61.437,66.272 C61.467,66.114 61.463,65.954 61.424,65.793 C61.386,65.633 61.312,65.481 61.201,65.341 C61.092,65.2 60.963,65.092 60.815,65.015 C60.669,64.939 60.515,64.896 60.354,64.887 C60.193,64.877 60.029,64.9 59.863,64.954 C59.697,65.009 59.537,65.095 59.384,65.215 C59.221,65.343 59.092,65.481 58.998,65.631 C58.904,65.78 58.844,65.933 58.816,66.089 C58.789,66.245 58.797,66.403 58.84,66.561 C58.881,66.719 58.957,66.868 59.067,67.01 C59.178,67.15 59.305,67.26 59.447,67.339 C59.591,67.418 59.742,67.463 59.9,67.475 C60.058,67.486 60.221,67.464 60.389,67.409 C60.557,67.353 60.722,67.262 60.885,67.135 Z M61.657,64.984 C61.829,65.204 61.941,65.434 61.993,65.673 C62.045,65.913 62.048,66.148 62,66.378 C61.954,66.608 61.863,66.827 61.729,67.035 C61.596,67.243 61.43,67.425 61.232,67.579 C61.025,67.741 60.805,67.863 60.569,67.942 C60.336,68.022 60.103,68.056 59.87,68.044 C59.639,68.032 59.413,67.971 59.195,67.86 C58.979,67.75 58.783,67.585 58.611,67.366 C58.445,67.153 58.336,66.929 58.282,66.692 C58.229,66.456 58.223,66.222 58.266,65.992 C58.309,65.761 58.396,65.541 58.527,65.33 C58.659,65.12 58.829,64.933 59.037,64.771 C59.234,64.616 59.451,64.5 59.686,64.421 C59.921,64.343 60.156,64.31 60.393,64.322 C60.629,64.334 60.857,64.394 61.076,64.501 C61.296,64.608 61.489,64.769 61.657,64.984 Z" id="Fill-76"></path>
            <polyline id="Fill-77" points="55.033 67.522 56.158 66.847 56.448 67.331 56.13 67.522 57.344 69.548 57.661 69.357 57.951 69.841 56.83 70.513 56.54 70.029 56.859 69.838 55.646 67.813 55.322 68.006 55.033 67.522"></polyline>
            <polyline id="Fill-78" points="52.436 68.863 53.627 68.335 53.855 68.851 53.521 69 54.476 71.159 54.811 71.01 55.039 71.526 53.744 72.099 51.391 69.942 51.267 69.997 52.222 72.156 52.562 72.006 52.79 72.521 51.594 73.05 51.365 72.534 51.706 72.384 50.75 70.225 50.41 70.375 50.182 69.86 51.477 69.287 53.83 71.444 53.959 71.387 53.004 69.228 52.664 69.378 52.436 68.863"></polyline>
            <path d="M47.897,74.248 C47.727,74.294 47.573,74.329 47.438,74.353 C47.301,74.376 47.17,74.392 47.046,74.399 C46.921,74.407 46.798,74.406 46.675,74.397 C46.552,74.388 46.42,74.374 46.278,74.354 L46.094,73.672 L46.594,73.537 L46.69,73.804 C46.819,73.824 46.972,73.828 47.148,73.814 C47.325,73.801 47.537,73.76 47.785,73.693 C47.971,73.644 48.121,73.59 48.239,73.532 C48.356,73.474 48.447,73.417 48.512,73.361 C48.576,73.305 48.618,73.25 48.638,73.196 C48.657,73.142 48.661,73.093 48.65,73.051 C48.638,73.006 48.617,72.967 48.586,72.934 C48.557,72.902 48.504,72.879 48.427,72.865 C48.35,72.852 48.244,72.85 48.108,72.861 C47.975,72.871 47.795,72.898 47.573,72.942 C47.259,73.005 46.988,73.041 46.762,73.051 C46.536,73.062 46.346,73.044 46.19,72.996 C46.034,72.949 45.91,72.872 45.816,72.766 C45.723,72.66 45.652,72.522 45.606,72.352 C45.567,72.204 45.568,72.052 45.611,71.898 C45.653,71.744 45.736,71.597 45.857,71.457 C45.979,71.317 46.139,71.188 46.338,71.071 C46.537,70.954 46.773,70.859 47.049,70.784 C47.24,70.733 47.426,70.704 47.607,70.697 C47.789,70.69 47.961,70.697 48.123,70.719 C48.284,70.74 48.433,70.772 48.565,70.816 C48.699,70.859 48.812,70.908 48.904,70.961 L48.653,71.457 C48.551,71.413 48.444,71.375 48.334,71.341 C48.226,71.308 48.109,71.283 47.988,71.269 C47.868,71.255 47.742,71.251 47.608,71.259 C47.477,71.268 47.339,71.291 47.197,71.329 C46.984,71.386 46.808,71.452 46.668,71.526 C46.526,71.599 46.416,71.675 46.336,71.753 C46.257,71.831 46.205,71.91 46.179,71.989 C46.152,72.067 46.148,72.138 46.166,72.201 C46.183,72.265 46.215,72.319 46.262,72.363 C46.31,72.407 46.382,72.438 46.478,72.456 C46.573,72.474 46.697,72.477 46.85,72.465 C47.003,72.453 47.193,72.426 47.423,72.384 C47.738,72.324 48.003,72.29 48.219,72.281 C48.434,72.272 48.611,72.288 48.752,72.331 C48.895,72.375 49.004,72.442 49.08,72.533 C49.156,72.624 49.214,72.742 49.252,72.883 C49.29,73.022 49.288,73.16 49.246,73.294 C49.205,73.429 49.127,73.556 49.013,73.674 C48.898,73.792 48.748,73.901 48.559,73.998 C48.372,74.097 48.15,74.179 47.897,74.248" id="Fill-79"></path>
            <path d="M43.13,72.73 L43.411,75.123 L44.076,75.023 L43.637,72.654 L43.13,72.73 Z M43.599,72.181 C43.539,72.265 43.457,72.315 43.356,72.33 C43.25,72.346 43.154,72.323 43.07,72.261 C42.987,72.199 42.937,72.118 42.922,72.015 C42.906,71.909 42.93,71.816 42.991,71.733 C43.053,71.651 43.137,71.602 43.242,71.586 C43.345,71.571 43.437,71.593 43.52,71.653 C43.602,71.714 43.65,71.797 43.666,71.903 C43.682,72.005 43.659,72.097 43.599,72.181 Z" id="Fill-80"></path>
        </g>
    </g>
</svg>