<?xml version="1.0" encoding="UTF-8"?>
<svg width="92px" height="83px" viewBox="0 0 92 83" version="1.1" xmlns="http://www.w3.org/2000/svg" xmlns:xlink="http://www.w3.org/1999/xlink">
    <!-- Generator: Sketch 49 (51002) - http://www.bohemiancoding.com/sketch -->
    <title>bitcoin-grey-21</title>
    <desc>Created with Sketch.</desc>
    <defs></defs>
    <g id="Page-1" stroke="none" stroke-width="1" fill="none" fill-rule="evenodd">
        <g id="bitcoin-grey-21">
            <polyline id="Fill-1" fill="#000000" points="15.001 63.19 12.515 64.511 11.879 63.572 15.901 60.142 16.351 60.807 13.169 63.496 16.823 61.503 17.269 62.161 14.044 64.843 17.74 62.858 18.144 63.455 13.465 65.915 12.851 65.008 15.001 63.19"></polyline>
            <polyline id="Fill-2" fill="#000000" points="18.506 67.27 19.271 68.105 18.719 68.612 17.954 67.778 16.821 68.817 17.785 69.867 17.232 70.374 15.711 68.717 19.578 65.167 21.099 66.824 20.547 67.331 19.583 66.281 18.506 67.27"></polyline>
            <path d="M23.683,73.724 L24.333,74.18 L25.532,71.778 L23.683,73.724 Z M24.268,76.167 L23.587,75.69 L24.017,74.828 L23.188,74.247 L22.524,74.944 L21.904,74.51 L25.605,70.694 L26.594,71.388 L24.268,76.167 Z" id="Fill-3" fill="#000000"></path>
            <path d="M29.793,77.012 L29.474,77.632 C29.089,78.379 28.496,78.614 27.776,78.243 C27.056,77.873 26.902,77.254 27.287,76.507 L28.536,74.08 C28.919,73.333 29.512,73.098 30.232,73.469 C30.953,73.839 31.106,74.458 30.723,75.205 L30.489,75.658 L29.795,75.301 L30.053,74.802 C30.225,74.468 30.143,74.266 29.91,74.146 C29.676,74.026 29.464,74.077 29.293,74.41 L27.996,76.931 C27.825,77.264 27.909,77.46 28.143,77.58 C28.377,77.7 28.584,77.656 28.756,77.322 L29.099,76.655 L29.793,77.012" id="Fill-4" fill="#000000"></path>
            <path d="M34.557,78.906 L34.322,79.563 C34.04,80.353 33.483,80.664 32.721,80.391 C31.959,80.118 31.725,79.525 32.007,78.735 L32.927,76.166 C33.209,75.376 33.766,75.066 34.528,75.338 C35.291,75.611 35.524,76.204 35.241,76.994 L35.07,77.474 L34.335,77.212 L34.525,76.682 C34.651,76.329 34.544,76.14 34.297,76.052 C34.05,75.964 33.847,76.042 33.721,76.395 L32.766,79.062 C32.64,79.415 32.75,79.597 32.997,79.686 C33.244,79.774 33.445,79.703 33.571,79.35 L33.823,78.644 L34.557,78.906" id="Fill-5" fill="#000000"></path>
            <polyline id="Fill-6" fill="#000000" points="38.241 78.764 39.348 79.001 39.191 79.735 38.083 79.497 37.76 81.001 39.154 81.301 38.997 82.034 36.795 81.561 37.898 76.426 40.099 76.898 39.941 77.632 38.547 77.332 38.241 78.764"></polyline>
            <path d="M43.144,78.06 L42.996,79.83 L43.384,79.863 C43.645,79.884 43.797,79.777 43.829,79.403 L43.894,78.62 C43.925,78.247 43.794,78.115 43.532,78.093 L43.144,78.06 Z M44.711,78.74 L44.654,79.42 C44.584,80.256 44.143,80.678 43.322,80.609 L42.933,80.576 L42.769,82.54 L41.948,82.472 L42.385,77.245 L43.595,77.347 C44.416,77.415 44.781,77.905 44.711,78.74 Z" id="Fill-7" fill="#000000"></path>
            <polyline id="Fill-8" fill="#000000" points="46.799 77.474 49.348 77.36 49.381 78.11 48.52 78.149 48.72 82.648 47.896 82.685 47.695 78.185 46.832 78.224 46.799 77.474"></polyline>
            <path d="M55.992,79.155 L56.405,80.714 L56.862,80.593 C57.13,80.522 57.243,80.36 57.143,79.983 L57.025,79.541 C56.9,79.069 56.71,78.965 56.348,79.061 L55.992,79.155 Z M55.445,77.089 L55.8,78.43 L56.112,78.347 C56.409,78.269 56.556,78.09 56.449,77.684 L56.374,77.401 C56.278,77.039 56.112,76.912 55.829,76.986 L55.445,77.089 Z M57.15,77.11 L57.198,77.292 C57.336,77.814 57.265,78.189 56.954,78.45 C57.426,78.504 57.694,78.844 57.836,79.381 L57.946,79.794 C58.154,80.577 57.852,81.107 57.054,81.318 L55.8,81.651 L54.456,76.575 L55.659,76.256 C56.485,76.037 56.942,76.327 57.15,77.11 Z" id="Fill-9" fill="#000000"></path>
            <polyline id="Fill-10" fill="#000000" points="59.102 75.146 59.87 74.843 61.795 79.73 61.027 80.032 59.102 75.146"></polyline>
            <polyline id="Fill-11" fill="#000000" points="61.87 73.987 64.126 72.802 64.475 73.466 63.711 73.866 65.802 77.848 65.072 78.232 62.981 74.25 62.218 74.651 61.87 73.987"></polyline>
            <path d="M69.832,72.969 L70.233,73.539 C70.716,74.225 70.65,74.859 69.988,75.325 C69.326,75.791 68.706,75.641 68.223,74.954 L66.652,72.724 C66.169,72.037 66.236,71.403 66.897,70.937 C67.56,70.471 68.179,70.622 68.663,71.308 L68.956,71.724 L68.318,72.173 L67.995,71.714 C67.779,71.408 67.562,71.386 67.348,71.537 C67.133,71.688 67.081,71.899 67.296,72.206 L68.927,74.523 C69.143,74.829 69.356,74.844 69.57,74.694 C69.785,74.543 69.842,74.337 69.626,74.031 L69.195,73.418 L69.832,72.969" id="Fill-12" fill="#000000"></path>
            <path d="M73.04,71.259 C73.295,71.535 73.513,71.527 73.706,71.349 C73.899,71.171 73.923,70.954 73.669,70.679 L71.743,68.599 C71.489,68.324 71.271,68.331 71.079,68.51 C70.886,68.688 70.861,68.904 71.116,69.179 L73.04,71.259 Z M70.546,69.778 C69.976,69.162 69.975,68.509 70.569,67.959 C71.163,67.409 71.814,67.461 72.384,68.077 L74.238,70.08 C74.808,70.696 74.81,71.349 74.215,71.899 C73.621,72.449 72.97,72.397 72.4,71.781 L70.546,69.778 Z" id="Fill-13" fill="#000000"></path>
            <polyline id="Fill-14" fill="#000000" points="73.13 65.424 73.669 64.8 77.641 68.228 77.103 68.853 73.13 65.424"></polyline>
            <polyline id="Fill-15" fill="#000000" points="76.781 63.126 79.926 65.265 79.508 65.879 75.165 62.926 75.748 62.07 78.824 63.136 76.225 61.369 76.638 60.761 80.981 63.714 80.504 64.415 76.781 63.126"></polyline>
            <path d="M7.521,31.807 L11.141,32.783 L11.262,32.335 C11.33,32.081 11.241,31.894 10.879,31.796 L8.244,31.086 C7.882,30.988 7.71,31.104 7.642,31.358 L7.521,31.807 Z M6.583,32.408 L6.922,31.148 C7.137,30.352 7.684,30.08 8.495,30.299 L11.058,30.99 C11.869,31.209 12.205,31.718 11.99,32.515 L11.65,33.775 L6.583,32.408 Z" id="Fill-16" fill="#000000"></path>
            <path d="M9.261,26.575 L10.748,27.204 L10.874,26.907 C10.993,26.623 10.942,26.398 10.554,26.234 L10.077,26.032 C9.731,25.886 9.53,25.939 9.416,26.209 L9.261,26.575 Z M13.761,27.5 C13.619,27.489 13.532,27.484 13.137,27.317 L12.376,26.996 C11.927,26.806 11.696,26.888 11.55,27.234 L11.439,27.496 L13.411,28.33 L13.089,29.091 L8.248,27.044 L8.732,25.896 C9.066,25.107 9.576,24.923 10.323,25.239 L10.704,25.4 C11.201,25.611 11.459,25.907 11.475,26.313 C11.795,26 12.214,26.031 12.719,26.244 L13.466,26.56 C13.701,26.659 13.877,26.726 14.089,26.726 L13.761,27.5 Z" id="Fill-17" fill="#000000"></path>
            <polyline id="Fill-18" fill="#000000" points="13.989 23.215 10.439 22.324 10.878 21.582 13.257 22.258 11.52 20.498 11.921 19.82 14.41 22.505 15.906 23.391 15.486 24.101 13.989 23.215"></polyline>
            <path d="M19.784,15.283 L20.293,15.76 C20.906,16.334 20.969,16.968 20.415,17.559 C19.862,18.15 19.225,18.128 18.612,17.554 L16.621,15.689 C16.008,15.114 15.945,14.48 16.498,13.889 C17.052,13.299 17.689,13.32 18.302,13.895 L18.674,14.243 L18.141,14.812 L17.73,14.427 C17.457,14.171 17.241,14.194 17.061,14.385 C16.881,14.577 16.873,14.795 17.146,15.051 L19.214,16.988 C19.487,17.244 19.699,17.216 19.878,17.025 C20.058,16.834 20.072,16.621 19.798,16.365 L19.252,15.852 L19.784,15.283" id="Fill-19" fill="#000000"></path>
            <polyline id="Fill-20" fill="#000000" points="19.573 10.992 20.207 10.465 23.082 13.922 24.124 13.055 24.603 13.631 22.926 15.025 19.573 10.992"></polyline>
            <polyline id="Fill-21" fill="#000000" points="25.448 9.338 26.403 8.729 26.806 9.36 25.852 9.97 26.679 11.266 27.88 10.499 28.283 11.131 26.386 12.342 23.562 7.916 25.458 6.706 25.862 7.338 24.661 8.105 25.448 9.338"></polyline>
            <path d="M30.379,8.153 L31.1,7.82 L29.628,5.576 L30.379,8.153 Z M32.785,8.876 L32.029,9.224 L31.501,8.42 L30.582,8.843 L30.851,9.768 L30.164,10.085 L28.728,4.967 L29.824,4.462 L32.785,8.876 Z" id="Fill-22" fill="#000000"></path>
            <polyline id="Fill-23" fill="#000000" points="34.451 4.25 35.55 7.887 34.84 8.103 33.322 3.08 34.312 2.78 36.032 5.542 35.123 2.536 35.826 2.323 37.344 7.345 36.534 7.591 34.451 4.25"></polyline>
            <polyline id="Fill-24" fill="#000000" points="38.825 1.657 39.636 1.512 40.558 6.678 39.746 6.823 38.825 1.657"></polyline>
            <polyline id="Fill-25" fill="#000000" points="43.485 2.496 43.714 6.292 42.973 6.337 42.656 1.095 43.689 1.033 44.725 4.12 44.535 0.982 45.27 0.938 45.586 6.179 44.741 6.23 43.485 2.496"></polyline>
            <path d="M49.477,3.383 L50.628,3.47 L50.502,5.131 C50.438,5.968 49.982,6.414 49.174,6.352 C48.367,6.291 47.985,5.78 48.049,4.943 L48.257,2.221 C48.321,1.383 48.776,0.937 49.584,0.999 C50.392,1.061 50.773,1.572 50.71,2.409 L50.671,2.917 L49.893,2.857 L49.936,2.297 C49.964,1.923 49.811,1.768 49.549,1.748 C49.288,1.728 49.112,1.858 49.083,2.232 L48.868,5.058 C48.839,5.432 48.993,5.579 49.254,5.599 C49.517,5.619 49.691,5.497 49.72,5.123 L49.794,4.159 L49.42,4.13 L49.477,3.383" id="Fill-26" fill="#000000"></path>
            <path d="M57.118,7.083 C57.355,7.155 57.55,7.081 57.661,6.77 L58.016,5.608 L57.714,5.516 C57.355,5.406 57.145,5.53 57.002,5.997 L56.86,6.463 C56.75,6.822 56.867,7.006 57.118,7.083 Z M57.074,4.889 C56.749,4.617 56.68,4.227 56.844,3.689 L56.873,3.596 C57.118,2.792 57.639,2.473 58.428,2.714 L59.332,2.989 L59.113,3.707 L58.224,3.436 C57.972,3.359 57.783,3.442 57.673,3.801 L57.579,4.109 C57.456,4.511 57.596,4.695 57.89,4.785 L58.234,4.89 L58.405,4.33 L59.195,4.571 L59.024,5.131 L59.232,5.194 L59.012,5.912 L58.805,5.849 L58.301,7.498 C58.226,7.743 58.179,7.924 58.201,8.135 L57.397,7.89 C57.392,7.778 57.392,7.7 57.446,7.473 C57.22,7.726 56.928,7.809 56.576,7.702 C55.995,7.525 55.826,7.025 56.051,6.287 L56.207,5.777 C56.362,5.268 56.634,4.943 57.074,4.889 Z" id="Fill-27" fill="#000000"></path>
            <polyline id="Fill-28" fill="#000000" points="65.665 5.687 66.384 6.091 64.183 10.015 65.366 10.678 64.999 11.332 63.096 10.264 65.665 5.687"></polyline>
            <path d="M68.48,11.675 L69.115,12.151 L70.386,9.789 L68.48,11.675 Z M68.988,14.133 L68.322,13.635 L68.779,12.788 L67.969,12.182 L67.285,12.858 L66.679,12.405 L70.493,8.709 L71.459,9.431 L68.988,14.133 Z" id="Fill-29" fill="#000000"></path>
            <path d="M74.872,12.377 L72.058,15.284 C71.797,15.554 71.821,15.765 72.01,15.947 C72.199,16.13 72.411,16.148 72.671,15.879 L75.485,12.971 L76.045,13.513 L73.268,16.383 C72.684,16.986 72.049,17.039 71.468,16.476 C70.886,15.913 70.918,15.277 71.502,14.674 L74.28,11.804 L74.872,12.377" id="Fill-30" fill="#000000"></path>
            <polyline id="Fill-31" fill="#000000" points="77.466 17.352 74.451 19.676 73.997 19.088 78.159 15.878 78.792 16.698 76.819 19.292 79.31 17.37 79.759 17.953 75.597 21.163 75.08 20.491 77.466 17.352"></polyline>
            <path d="M81.254,21.668 L77.996,23.524 L78.226,23.928 C78.356,24.156 78.551,24.226 78.877,24.041 L81.249,22.69 C81.575,22.504 81.614,22.3 81.484,22.072 L81.254,21.668 Z M81.498,20.58 L82.144,21.714 C82.552,22.431 82.355,23.009 81.625,23.425 L79.318,24.739 C78.588,25.155 77.99,25.029 77.581,24.312 L76.936,23.178 L81.498,20.58 Z" id="Fill-32" fill="#000000"></path>
            <path d="M83.7,26.609 L82.202,27.208 L82.321,27.507 C82.435,27.793 82.63,27.918 83.02,27.761 L83.502,27.569 C83.85,27.43 83.956,27.25 83.848,26.979 L83.7,26.609 Z M79.852,29.116 C79.96,29.024 80.026,28.965 80.423,28.806 L81.19,28.5 C81.644,28.32 81.749,28.1 81.61,27.751 L81.504,27.486 L79.518,28.28 L79.211,27.512 L84.09,25.564 L84.553,26.721 C84.87,27.516 84.637,28.005 83.884,28.305 L83.501,28.458 C82.999,28.659 82.607,28.629 82.311,28.352 C82.304,28.799 81.984,29.072 81.475,29.275 L80.723,29.576 C80.486,29.671 80.314,29.748 80.164,29.896 L79.852,29.116 Z" id="Fill-33" fill="#000000"></path>
            <polyline id="Fill-34" fill="#000000" points="82.715 32.336 85.864 30.466 86.075 31.303 83.909 32.498 86.383 32.524 86.576 33.288 82.918 33.135 81.23 33.561 81.028 32.761 82.715 32.336"></polyline>
            <path d="M71.39,46.392 C71.203,46.392 71.085,46.494 71.085,46.761 L71.085,47.161 L70.53,47.161 L70.53,46.798 C70.53,46.2 70.829,45.858 71.406,45.858 C71.983,45.858 72.282,46.2 72.282,46.798 C72.282,47.973 71.112,48.411 71.112,49.025 C71.112,49.052 71.112,49.079 71.118,49.105 L72.229,49.105 L72.229,49.639 L70.53,49.639 L70.53,49.18 C70.53,48.08 71.694,47.898 71.694,46.819 C71.694,46.483 71.577,46.392 71.39,46.392" id="Fill-35" fill="#000000"></path>
            <path d="M73.452,48.78 C73.452,49.047 73.569,49.148 73.756,49.148 C73.943,49.148 74.061,49.047 74.061,48.78 L74.061,46.761 C74.061,46.494 73.943,46.392 73.756,46.392 C73.569,46.392 73.452,46.494 73.452,46.761 L73.452,48.78 Z M72.864,46.798 C72.864,46.2 73.179,45.858 73.756,45.858 C74.333,45.858 74.648,46.2 74.648,46.798 L74.648,48.742 C74.648,49.34 74.333,49.682 73.756,49.682 C73.179,49.682 72.864,49.34 72.864,48.742 L72.864,46.798 Z" id="Fill-36" fill="#000000"></path>
            <path d="M75.657,46.371 C76.111,46.371 76.213,46.152 76.304,45.901 L76.699,45.901 L76.699,49.639 L76.111,49.639 L76.111,46.788 L75.657,46.788 L75.657,46.371" id="Fill-37" fill="#000000"></path>
            <path d="M78.227,48.107 L78.227,48.78 C78.227,49.047 78.344,49.143 78.531,49.143 C78.718,49.143 78.835,49.047 78.835,48.78 L78.835,48.107 C78.835,47.84 78.718,47.738 78.531,47.738 C78.344,47.738 78.227,47.84 78.227,48.107 Z M77.639,46.83 C77.639,46.2 77.928,45.858 78.536,45.858 C79.113,45.858 79.412,46.2 79.412,46.798 L79.412,46.894 L78.857,46.894 L78.857,46.761 C78.857,46.494 78.739,46.392 78.552,46.392 C78.344,46.392 78.227,46.494 78.227,46.852 L78.227,47.535 C78.328,47.321 78.51,47.204 78.771,47.204 C79.204,47.204 79.423,47.509 79.423,48.058 L79.423,48.742 C79.423,49.34 79.108,49.682 78.531,49.682 C77.954,49.682 77.639,49.34 77.639,48.742 L77.639,46.83 Z" id="Fill-38" fill="#000000"></path>
            <path d="M13.229,45.858 C13.8,45.858 14.094,46.2 14.094,46.798 L14.094,46.916 L13.539,46.916 L13.539,46.761 C13.539,46.494 13.432,46.392 13.245,46.392 C13.058,46.392 12.951,46.494 12.951,46.761 C12.951,47.53 14.099,47.674 14.099,48.742 C14.099,49.34 13.8,49.682 13.223,49.682 C12.646,49.682 12.348,49.34 12.348,48.742 L12.348,48.512 L12.903,48.512 L12.903,48.78 C12.903,49.047 13.021,49.143 13.208,49.143 C13.394,49.143 13.512,49.047 13.512,48.78 C13.512,48.01 12.363,47.866 12.363,46.798 C12.363,46.2 12.657,45.858 13.229,45.858" id="Fill-39" fill="#000000"></path>
            <polygon id="Fill-40" fill="#000000" points="14.703 49.639 15.291 49.639 15.291 45.901 14.703 45.901"></polygon>
            <polyline id="Fill-41" fill="#000000" points="16.508 46.932 16.508 49.639 15.98 49.639 15.98 45.901 16.716 45.901 17.32 48.139 17.32 45.901 17.843 45.901 17.843 49.639 17.24 49.639 16.508 46.932"></polyline>
            <path d="M20.236,48.246 L20.236,48.742 C20.236,49.34 19.937,49.682 19.36,49.682 C18.783,49.682 18.484,49.34 18.484,48.742 L18.484,46.798 C18.484,46.2 18.783,45.858 19.36,45.858 C19.937,45.858 20.236,46.2 20.236,46.798 L20.236,47.161 L19.68,47.161 L19.68,46.761 C19.68,46.494 19.562,46.392 19.376,46.392 C19.189,46.392 19.071,46.494 19.071,46.761 L19.071,48.78 C19.071,49.047 19.189,49.143 19.376,49.143 C19.562,49.143 19.68,49.047 19.68,48.78 L19.68,48.246 L20.236,48.246" id="Fill-42" fill="#000000"></path>
            <polyline id="Fill-43" fill="#000000" points="21.449 47.476 22.255 47.476 22.255 48.01 21.449 48.01 21.449 49.105 22.463 49.105 22.463 49.639 20.861 49.639 20.861 45.901 22.463 45.901 22.463 46.435 21.449 46.435 21.449 47.476"></polyline>
            <path d="M29.015,28.906 C29.015,28.905 29.015,28.905 29.015,28.904 C29.015,28.903 29.015,28.903 29.015,28.901 L29.015,23.305 C29.015,21.614 30.391,20.238 32.083,20.238 L62.286,20.238 L61.669,19.983 C61.276,19.82 60.476,19.668 60.021,19.668 L28.402,19.668 C27.125,19.668 26.085,20.708 26.085,21.985 L26.085,27.372 C26.125,27.379 26.169,27.374 26.204,27.391 L28.096,28.053 C28.292,28.12 28.395,28.335 28.327,28.53 C28.272,28.684 28.127,28.781 27.973,28.781 C27.932,28.781 27.89,28.775 27.849,28.761 L26.085,28.144 L26.085,61.31 C26.085,62.264 26.689,63.132 27.588,63.472 C27.604,63.478 27.621,63.486 27.636,63.494 L29.415,64.115 C29.168,63.674 29.015,63.173 29.015,62.631 L29.015,28.906" id="Fill-44" fill="#FFFFFF"></path>
            <path d="M63.089,26.447 C62.968,26.476 62.844,26.496 62.714,26.496 C62.584,26.496 62.46,26.476 62.339,26.447 C61.644,26.277 61.124,25.654 61.124,24.907 C61.124,24.031 61.837,23.319 62.714,23.319 C62.801,23.319 62.885,23.33 62.968,23.344 C63.097,23.365 63.222,23.397 63.338,23.447 C63.455,23.496 63.561,23.564 63.661,23.639 C64.048,23.929 64.303,24.387 64.303,24.907 C64.303,25.654 63.784,26.277 63.089,26.447 Z M58.878,26.496 C58.002,26.496 57.29,25.783 57.29,24.907 C57.29,24.031 58.002,23.319 58.878,23.319 C59.755,23.319 60.468,24.031 60.468,24.907 C60.468,25.783 59.755,26.496 58.878,26.496 Z M55.043,26.496 C54.167,26.496 53.455,25.783 53.455,24.907 C53.455,24.031 54.167,23.319 55.043,23.319 C55.919,23.319 56.632,24.031 56.632,24.907 C56.632,25.783 55.919,26.496 55.043,26.496 Z M64.899,21.332 C64.793,21.266 64.683,21.206 64.566,21.159 C64.449,21.112 64.327,21.073 64.201,21.046 C64.04,21.01 63.874,20.989 63.701,20.989 L32.083,20.989 C30.805,20.989 29.765,22.028 29.765,23.305 L29.765,28.529 L66.019,28.529 L66.019,23.305 C66.019,22.467 65.567,21.739 64.899,21.332 Z" id="Fill-45" fill="#FFFFFF"></path>
            <path d="M58.878,24.069 C58.416,24.069 58.04,24.445 58.04,24.907 C58.04,25.37 58.416,25.746 58.878,25.746 C59.341,25.746 59.718,25.37 59.718,24.907 C59.718,24.445 59.341,24.069 58.878,24.069" id="Fill-46" fill="#FFFFFF"></path>
            <path d="M55.043,24.069 C54.581,24.069 54.205,24.445 54.205,24.907 C54.205,25.37 54.581,25.746 55.043,25.746 C55.506,25.746 55.882,25.37 55.882,24.907 C55.882,24.445 55.506,24.069 55.043,24.069" id="Fill-47" fill="#FFFFFF"></path>
            <path d="M55.884,49.751 C55.884,50.52 56.35,51.18 57.014,51.469 C57.652,50.411 58.116,49.237 58.355,47.982 C58.166,47.918 57.968,47.876 57.759,47.876 C56.725,47.876 55.884,48.717 55.884,49.751" id="Fill-48" fill="#FFFFFF"></path>
            <path d="M54.495,38.527 C54.763,38.527 54.999,38.405 55.166,38.219 C54.729,37.81 54.262,37.432 53.761,37.1 C53.657,37.247 53.582,37.418 53.582,37.613 C53.582,38.116 53.991,38.527 54.495,38.527" id="Fill-49" fill="#FFFFFF"></path>
            <path d="M47.891,34.578 C54.181,34.578 59.299,39.696 59.299,45.987 C59.299,52.278 54.181,57.396 47.891,57.396 C41.601,57.396 36.483,52.278 36.483,45.987 C36.483,39.696 41.601,34.578 47.891,34.578 Z M47.891,60.286 C55.776,60.286 62.19,53.872 62.19,45.987 C62.19,38.102 55.776,31.688 47.891,31.688 C40.006,31.688 33.592,38.102 33.592,45.987 C33.592,53.872 40.006,60.286 47.891,60.286 Z" id="Fill-50" fill="#FFFFFF"></path>
            <path d="M40.325,43.257 C39.879,43.257 39.517,43.62 39.517,44.066 C39.517,44.511 39.879,44.874 40.325,44.874 C40.771,44.874 41.134,44.511 41.134,44.066 C41.134,43.62 40.771,43.257 40.325,43.257" id="Fill-51" fill="#FFFFFF"></path>
            <path d="M44.718,54.538 C44.718,54.119 44.378,53.778 43.96,53.778 C43.54,53.778 43.198,54.119 43.198,54.538 C43.198,54.958 43.54,55.299 43.96,55.299 C44.378,55.299 44.718,54.958 44.718,54.538" id="Fill-52" fill="#FFFFFF"></path>
            <path d="M53.498,53.319 C52.805,53.319 52.242,53.881 52.242,54.573 C52.242,54.945 52.412,55.271 52.669,55.501 C53.386,55.139 54.062,54.708 54.675,54.2 C54.515,53.694 54.057,53.319 53.498,53.319" id="Fill-53" fill="#FFFFFF"></path>
            <path d="M40.325,45.624 C39.465,45.624 38.767,44.925 38.767,44.066 C38.767,43.206 39.465,42.507 40.325,42.507 C41.185,42.507 41.884,43.206 41.884,44.066 C41.884,44.925 41.185,45.624 40.325,45.624 Z M44.977,50.037 L44.977,46.259 C44.903,46.19 44.855,46.094 44.855,45.985 C44.855,45.876 44.903,45.781 44.977,45.711 L44.977,41.936 L43.986,41.936 C43.779,41.936 43.611,41.768 43.611,41.561 C43.611,41.354 43.779,41.186 43.986,41.186 L46.606,41.186 L46.606,39.229 C46.606,39.022 46.774,38.854 46.981,38.854 C47.188,38.854 47.356,39.022 47.356,39.229 L47.356,41.186 L49.046,41.186 L49.046,39.229 C49.046,39.022 49.214,38.854 49.421,38.854 C49.628,38.854 49.796,39.022 49.796,39.229 L49.796,41.209 C51.116,41.325 52.157,42.424 52.157,43.773 C52.157,44.544 51.811,45.23 51.274,45.704 C52.384,45.994 53.21,46.997 53.21,48.198 C53.21,49.627 52.05,50.787 50.624,50.787 L49.796,50.787 L49.796,52.744 C49.796,52.952 49.628,53.12 49.421,53.12 C49.214,53.12 49.046,52.952 49.046,52.744 L49.046,50.787 L47.356,50.787 L47.356,52.744 C47.356,52.952 47.188,53.12 46.981,53.12 C46.774,53.12 46.606,52.952 46.606,52.744 L46.606,50.787 L43.986,50.787 C43.779,50.787 43.611,50.619 43.611,50.412 C43.611,50.206 43.779,50.037 43.986,50.037 L44.977,50.037 Z M42.632,55.246 C42.519,55.034 42.448,54.796 42.448,54.538 C42.448,53.705 43.126,53.028 43.96,53.028 C44.792,53.028 45.468,53.705 45.468,54.538 C45.468,55.255 44.966,55.854 44.296,56.009 C45.421,56.414 46.628,56.646 47.891,56.646 C49.33,56.646 50.7,56.356 51.953,55.837 C51.669,55.491 51.492,55.054 51.492,54.573 C51.492,53.468 52.392,52.569 53.498,52.569 C54.272,52.569 54.937,53.015 55.27,53.659 C55.765,53.183 56.213,52.661 56.609,52.099 C55.739,51.671 55.134,50.784 55.134,49.751 C55.134,48.303 56.312,47.126 57.759,47.126 C58.006,47.126 58.242,47.171 58.469,47.236 C58.517,46.825 58.549,46.41 58.549,45.987 C58.549,45.534 58.511,45.091 58.456,44.653 C58.204,44.802 57.914,44.894 57.6,44.894 C56.663,44.894 55.9,44.131 55.9,43.195 C55.9,42.276 56.634,41.529 57.545,41.5 C57.073,40.489 56.448,39.564 55.697,38.755 C55.394,39.074 54.969,39.277 54.495,39.277 C53.578,39.277 52.832,38.53 52.832,37.613 C52.832,37.277 52.934,36.964 53.107,36.702 C51.563,35.832 49.786,35.328 47.891,35.328 C47.73,35.328 47.574,35.345 47.416,35.352 C47.603,35.575 47.729,35.851 47.729,36.164 C47.729,36.869 47.156,37.443 46.453,37.443 C45.749,37.443 45.176,36.869 45.176,36.164 C45.176,35.988 45.213,35.819 45.278,35.666 C44.339,35.904 43.449,36.262 42.627,36.732 C43.131,37.07 43.463,37.646 43.463,38.298 C43.463,39.341 42.616,40.188 41.574,40.188 C40.793,40.188 40.12,39.711 39.833,39.032 C38.218,40.901 37.233,43.328 37.233,45.987 C37.233,46.803 37.334,47.595 37.509,48.36 C37.908,47.902 38.488,47.606 39.142,47.606 C40.34,47.606 41.316,48.582 41.316,49.781 C41.316,50.978 40.34,51.953 39.142,51.953 C39.113,51.953 39.086,51.946 39.058,51.945 C39.977,53.303 41.204,54.431 42.632,55.246 Z" id="Fill-54" fill="#FFFFFF"></path>
            <path d="M40.566,49.781 C40.566,48.994 39.927,48.356 39.142,48.356 C38.504,48.356 37.97,48.78 37.789,49.358 C37.985,49.947 38.225,50.515 38.517,51.053 C38.706,51.146 38.917,51.203 39.142,51.203 C39.927,51.203 40.566,50.565 40.566,49.781" id="Fill-55" fill="#FFFFFF"></path>
            <path d="M46.453,36.693 C46.743,36.693 46.979,36.456 46.979,36.164 C46.979,35.874 46.743,35.638 46.453,35.638 C46.163,35.638 45.926,35.874 45.926,36.164 C45.926,36.456 46.163,36.693 46.453,36.693" id="Fill-56" fill="#FFFFFF"></path>
            <path d="M41.574,39.438 C42.202,39.438 42.713,38.927 42.713,38.298 C42.713,37.767 42.341,37.342 41.85,37.215 C41.35,37.561 40.882,37.948 40.449,38.372 C40.489,38.965 40.971,39.438 41.574,39.438" id="Fill-57" fill="#FFFFFF"></path>
            <path d="M56.65,43.195 C56.65,43.717 57.076,44.144 57.6,44.144 C57.893,44.144 58.145,44.002 58.319,43.793 C58.211,43.28 58.057,42.784 57.878,42.301 C57.789,42.273 57.698,42.244 57.6,42.244 C57.076,42.244 56.65,42.671 56.65,43.195" id="Fill-58" fill="#FFFFFF"></path>
            <path d="M47.891,30.938 C54.74,30.938 60.523,35.541 62.339,41.812 C62.496,42.356 62.618,42.911 62.714,43.478 C62.852,44.296 62.94,45.131 62.94,45.987 C62.94,46.843 62.852,47.677 62.714,48.494 C62.618,49.061 62.496,49.618 62.339,50.161 C60.523,56.432 54.74,61.036 47.891,61.036 C39.593,61.036 32.842,54.285 32.842,45.987 C32.842,37.689 39.593,30.938 47.891,30.938 Z M62.714,29.279 L29.765,29.279 L29.765,62.631 C29.765,63.403 30.148,64.083 30.729,64.504 C30.832,64.578 30.941,64.64 31.054,64.697 C31.171,64.756 31.292,64.802 31.419,64.84 C31.631,64.905 31.851,64.949 32.083,64.949 L63.701,64.949 C64.979,64.949 66.019,63.909 66.019,62.631 L66.019,29.279 L62.714,29.279 Z" id="Fill-59" fill="#FFFFFF"></path>
            <path d="M62.977,24.122 C62.893,24.093 62.807,24.069 62.714,24.069 C62.661,24.069 62.614,24.089 62.563,24.098 C62.174,24.173 61.874,24.498 61.874,24.907 C61.874,25.233 62.066,25.508 62.339,25.648 C62.453,25.705 62.577,25.746 62.714,25.746 C62.851,25.746 62.975,25.705 63.089,25.648 C63.361,25.508 63.553,25.233 63.553,24.907 C63.553,24.674 63.456,24.463 63.301,24.31 C63.211,24.222 63.098,24.162 62.977,24.122" id="Fill-60" fill="#FFFFFF"></path>
            <path d="M51.407,43.773 C51.407,42.76 50.583,41.936 49.571,41.936 L45.727,41.936 L45.727,45.611 L49.57,45.611 C50.583,45.611 51.407,44.786 51.407,43.773" id="Fill-61" fill="#FFFFFF"></path>
            <path d="M46.981,50.036 C46.983,50.036 46.985,50.037 46.986,50.037 L49.417,50.037 C49.419,50.037 49.419,50.036 49.421,50.036 C49.423,50.036 49.424,50.037 49.426,50.037 L50.624,50.037 C51.636,50.037 52.46,49.213 52.46,48.2 C52.46,47.186 51.636,46.361 50.624,46.361 L45.727,46.361 L45.727,50.037 L46.977,50.037 C46.978,50.037 46.98,50.036 46.981,50.036" id="Fill-62" fill="#FFFFFF"></path>
            <path d="M63.089,28.529 L29.765,28.529 L29.765,23.305 C29.765,22.028 30.805,20.989 32.083,20.989 L63.701,20.989 C63.874,20.989 64.04,21.01 64.201,21.046 C64.327,21.073 64.449,21.112 64.566,21.159 C64.683,21.206 64.793,21.266 64.899,21.332 C65.567,21.739 66.019,22.467 66.019,23.305 L66.019,28.529 L63.089,28.529 Z M27.636,63.494 C27.621,63.486 27.604,63.478 27.588,63.472 C26.689,63.132 26.085,62.264 26.085,61.31 L26.085,28.144 L27.849,28.761 C27.89,28.775 27.932,28.781 27.973,28.781 C28.127,28.781 28.272,28.684 28.327,28.53 C28.395,28.335 28.292,28.12 28.096,28.053 L26.204,27.391 C26.169,27.374 26.125,27.379 26.085,27.372 L26.085,21.985 C26.085,20.708 27.125,19.668 28.402,19.668 L60.021,19.668 C60.476,19.668 61.276,19.82 61.669,19.983 L62.286,20.238 L32.083,20.238 C30.391,20.238 29.015,21.614 29.015,23.305 L29.015,28.901 C29.015,28.903 29.015,28.903 29.015,28.904 C29.015,28.905 29.015,28.905 29.015,28.906 L29.015,62.631 C29.015,63.173 29.168,63.674 29.415,64.115 L27.636,63.494 Z M66.019,62.631 C66.019,63.909 64.979,64.949 63.701,64.949 L32.083,64.949 C31.851,64.949 31.631,64.905 31.419,64.84 C31.292,64.802 31.171,64.756 31.054,64.697 C30.941,64.64 30.832,64.578 30.729,64.504 C30.148,64.083 29.765,63.403 29.765,62.631 L29.765,29.279 L66.019,29.279 L66.019,62.631 Z M64.878,20.5 C64.878,20.499 64.878,20.498 64.878,20.498 L64.643,20.402 L61.956,19.29 C61.475,19.091 60.571,18.917 60.021,18.917 L28.402,18.917 C26.711,18.917 25.335,20.294 25.335,21.985 L25.335,61.31 C25.335,62.553 26.108,63.687 27.265,64.151 C27.286,64.164 27.309,64.174 27.333,64.182 L30.69,65.356 C30.697,65.358 30.703,65.357 30.709,65.359 C31.124,65.569 31.586,65.699 32.083,65.699 L63.701,65.699 C65.393,65.699 66.769,64.323 66.769,62.631 L66.769,23.305 C66.769,22.035 65.983,20.963 64.878,20.5 Z" id="Fill-63" fill="#000000"></path>
            <path d="M55.043,25.746 C54.581,25.746 54.205,25.37 54.205,24.907 C54.205,24.445 54.581,24.069 55.043,24.069 C55.506,24.069 55.882,24.445 55.882,24.907 C55.882,25.37 55.506,25.746 55.043,25.746 Z M55.043,23.319 C54.167,23.319 53.455,24.031 53.455,24.907 C53.455,25.783 54.167,26.496 55.043,26.496 C55.919,26.496 56.632,25.783 56.632,24.907 C56.632,24.031 55.919,23.319 55.043,23.319 Z" id="Fill-64" fill="#000000"></path>
            <path d="M58.878,25.746 C58.416,25.746 58.04,25.37 58.04,24.907 C58.04,24.445 58.416,24.069 58.878,24.069 C59.341,24.069 59.718,24.445 59.718,24.907 C59.718,25.37 59.341,25.746 58.878,25.746 Z M58.878,23.319 C58.002,23.319 57.29,24.031 57.29,24.907 C57.29,25.783 58.002,26.496 58.878,26.496 C59.755,26.496 60.468,25.783 60.468,24.907 C60.468,24.031 59.755,23.319 58.878,23.319 Z" id="Fill-65" fill="#000000"></path>
            <path d="M63.089,25.648 C62.975,25.705 62.851,25.746 62.714,25.746 C62.577,25.746 62.453,25.705 62.339,25.648 C62.066,25.508 61.874,25.233 61.874,24.907 C61.874,24.498 62.174,24.173 62.563,24.098 C62.614,24.089 62.661,24.069 62.714,24.069 C62.807,24.069 62.893,24.093 62.977,24.122 C63.098,24.162 63.211,24.222 63.301,24.31 C63.456,24.463 63.553,24.674 63.553,24.907 C63.553,25.233 63.361,25.508 63.089,25.648 Z M63.661,23.639 C63.561,23.564 63.455,23.496 63.338,23.447 C63.222,23.397 63.097,23.365 62.968,23.344 C62.885,23.33 62.801,23.319 62.714,23.319 C61.837,23.319 61.124,24.031 61.124,24.907 C61.124,25.654 61.644,26.277 62.339,26.447 C62.46,26.476 62.584,26.496 62.714,26.496 C62.844,26.496 62.968,26.476 63.089,26.447 C63.784,26.277 64.303,25.654 64.303,24.907 C64.303,24.387 64.048,23.929 63.661,23.639 Z" id="Fill-66" fill="#000000"></path>
            <path d="M47.891,60.286 C40.006,60.286 33.592,53.872 33.592,45.987 C33.592,38.102 40.006,31.688 47.891,31.688 C55.776,31.688 62.19,38.102 62.19,45.987 C62.19,53.872 55.776,60.286 47.891,60.286 Z M62.339,41.812 C60.523,35.541 54.74,30.938 47.891,30.938 C39.593,30.938 32.842,37.689 32.842,45.987 C32.842,54.285 39.593,61.036 47.891,61.036 C54.74,61.036 60.523,56.432 62.339,50.161 C62.496,49.618 62.618,49.061 62.714,48.494 C62.852,47.677 62.94,46.843 62.94,45.987 C62.94,45.131 62.852,44.296 62.714,43.478 C62.618,42.911 62.496,42.356 62.339,41.812 Z" id="Fill-67" fill="#000000"></path>
            <path d="M53.761,37.1 C54.262,37.432 54.729,37.81 55.166,38.219 C54.999,38.405 54.763,38.527 54.495,38.527 C53.991,38.527 53.582,38.116 53.582,37.613 C53.582,37.418 53.657,37.247 53.761,37.1 Z M46.979,36.164 C46.979,36.456 46.743,36.693 46.453,36.693 C46.163,36.693 45.926,36.456 45.926,36.164 C45.926,35.874 46.163,35.638 46.453,35.638 C46.743,35.638 46.979,35.874 46.979,36.164 Z M41.85,37.215 C42.341,37.342 42.713,37.767 42.713,38.298 C42.713,38.927 42.202,39.438 41.574,39.438 C40.971,39.438 40.489,38.965 40.449,38.372 C40.882,37.948 41.35,37.561 41.85,37.215 Z M37.789,49.358 C37.97,48.78 38.504,48.356 39.142,48.356 C39.927,48.356 40.566,48.994 40.566,49.781 C40.566,50.565 39.927,51.203 39.142,51.203 C38.917,51.203 38.706,51.146 38.517,51.053 C38.225,50.515 37.985,49.947 37.789,49.358 Z M43.198,54.538 C43.198,54.119 43.54,53.778 43.96,53.778 C44.378,53.778 44.718,54.119 44.718,54.538 C44.718,54.958 44.378,55.299 43.96,55.299 C43.54,55.299 43.198,54.958 43.198,54.538 Z M52.242,54.573 C52.242,53.881 52.805,53.319 53.498,53.319 C54.057,53.319 54.515,53.694 54.675,54.2 C54.062,54.708 53.386,55.139 52.669,55.501 C52.412,55.271 52.242,54.945 52.242,54.573 Z M58.355,47.982 C58.116,49.237 57.652,50.411 57.014,51.469 C56.35,51.18 55.884,50.52 55.884,49.751 C55.884,48.717 56.725,47.876 57.759,47.876 C57.968,47.876 58.166,47.918 58.355,47.982 Z M58.549,45.987 C58.549,46.41 58.517,46.825 58.469,47.236 C58.242,47.171 58.006,47.126 57.759,47.126 C56.312,47.126 55.134,48.303 55.134,49.751 C55.134,50.784 55.739,51.671 56.609,52.099 C56.213,52.661 55.765,53.183 55.27,53.659 C54.937,53.015 54.272,52.569 53.498,52.569 C52.392,52.569 51.492,53.468 51.492,54.573 C51.492,55.054 51.669,55.491 51.953,55.837 C50.7,56.356 49.33,56.646 47.891,56.646 C46.628,56.646 45.421,56.414 44.296,56.009 C44.966,55.854 45.468,55.255 45.468,54.538 C45.468,53.705 44.792,53.028 43.96,53.028 C43.126,53.028 42.448,53.705 42.448,54.538 C42.448,54.796 42.519,55.034 42.632,55.246 C41.204,54.431 39.977,53.303 39.058,51.945 C39.086,51.946 39.113,51.953 39.142,51.953 C40.34,51.953 41.316,50.978 41.316,49.781 C41.316,48.582 40.34,47.606 39.142,47.606 C38.488,47.606 37.908,47.902 37.509,48.36 C37.334,47.595 37.233,46.803 37.233,45.987 C37.233,43.328 38.218,40.901 39.833,39.032 C40.12,39.711 40.793,40.188 41.574,40.188 C42.616,40.188 43.463,39.341 43.463,38.298 C43.463,37.646 43.131,37.07 42.627,36.732 C43.449,36.262 44.339,35.904 45.278,35.666 C45.213,35.819 45.176,35.988 45.176,36.164 C45.176,36.869 45.749,37.443 46.453,37.443 C47.156,37.443 47.729,36.869 47.729,36.164 C47.729,35.851 47.603,35.575 47.416,35.352 C47.574,35.345 47.73,35.328 47.891,35.328 C49.786,35.328 51.563,35.832 53.107,36.702 C52.934,36.964 52.832,37.277 52.832,37.613 C52.832,38.53 53.578,39.277 54.495,39.277 C54.969,39.277 55.394,39.074 55.697,38.755 C56.448,39.564 57.073,40.489 57.545,41.5 C56.634,41.529 55.9,42.276 55.9,43.195 C55.9,44.131 56.663,44.894 57.6,44.894 C57.914,44.894 58.204,44.802 58.456,44.653 C58.511,45.091 58.549,45.534 58.549,45.987 Z M58.319,43.793 C58.145,44.002 57.893,44.144 57.6,44.144 C57.076,44.144 56.65,43.717 56.65,43.195 C56.65,42.671 57.076,42.244 57.6,42.244 C57.698,42.244 57.789,42.273 57.878,42.301 C58.057,42.784 58.211,43.28 58.319,43.793 Z M47.891,34.578 C41.601,34.578 36.483,39.696 36.483,45.987 C36.483,52.278 41.601,57.396 47.891,57.396 C54.181,57.396 59.299,52.278 59.299,45.987 C59.299,39.696 54.181,34.578 47.891,34.578 Z" id="Fill-68" fill="#000000"></path>
            <path d="M40.325,44.874 C39.879,44.874 39.517,44.511 39.517,44.066 C39.517,43.62 39.879,43.257 40.325,43.257 C40.771,43.257 41.134,43.62 41.134,44.066 C41.134,44.511 40.771,44.874 40.325,44.874 Z M40.325,42.507 C39.465,42.507 38.767,43.206 38.767,44.066 C38.767,44.925 39.465,45.624 40.325,45.624 C41.185,45.624 41.884,44.925 41.884,44.066 C41.884,43.206 41.185,42.507 40.325,42.507 Z" id="Fill-69" fill="#000000"></path>
            <path d="M45.727,46.361 L50.624,46.361 C51.636,46.361 52.46,47.186 52.46,48.2 C52.46,49.213 51.636,50.037 50.624,50.037 L49.426,50.037 C49.424,50.037 49.423,50.036 49.421,50.036 C49.419,50.036 49.419,50.037 49.417,50.037 L46.986,50.037 C46.985,50.037 46.983,50.036 46.981,50.036 C46.98,50.036 46.978,50.037 46.977,50.037 L45.727,50.037 L45.727,46.361 Z M46.981,41.936 L49.571,41.936 C50.583,41.936 51.407,42.76 51.407,43.773 C51.407,44.786 50.583,45.611 49.57,45.611 L45.727,45.611 L45.727,41.936 L46.981,41.936 Z M51.274,45.704 C51.811,45.23 52.157,44.544 52.157,43.773 C52.157,42.424 51.116,41.325 49.796,41.209 L49.796,39.229 C49.796,39.022 49.628,38.854 49.421,38.854 C49.214,38.854 49.046,39.022 49.046,39.229 L49.046,41.186 L47.356,41.186 L47.356,39.229 C47.356,39.022 47.188,38.854 46.981,38.854 C46.774,38.854 46.606,39.022 46.606,39.229 L46.606,41.186 L43.986,41.186 C43.779,41.186 43.611,41.354 43.611,41.561 C43.611,41.768 43.779,41.936 43.986,41.936 L44.977,41.936 L44.977,45.711 C44.903,45.781 44.855,45.876 44.855,45.985 C44.855,46.094 44.903,46.19 44.977,46.259 L44.977,50.037 L43.986,50.037 C43.779,50.037 43.611,50.206 43.611,50.412 C43.611,50.619 43.779,50.787 43.986,50.787 L46.606,50.787 L46.606,52.744 C46.606,52.952 46.774,53.12 46.981,53.12 C47.188,53.12 47.356,52.952 47.356,52.744 L47.356,50.787 L49.046,50.787 L49.046,52.744 C49.046,52.952 49.214,53.12 49.421,53.12 C49.628,53.12 49.796,52.952 49.796,52.744 L49.796,50.787 L50.624,50.787 C52.05,50.787 53.21,49.627 53.21,48.198 C53.21,46.997 52.384,45.994 51.274,45.704 Z" id="Fill-70" fill="#000000"></path>
            <path d="M6.109,52.703 L1.3,47.718 L6.109,42.733 L8.176,42.733 L4.769,47.5 C4.676,47.631 4.676,47.807 4.769,47.937 L8.176,52.703 L6.109,52.703 Z M9.634,53.453 L5.535,47.719 L9.099,42.733 L9.367,42.358 L9.634,41.983 L10.438,40.859 L25.746,40.859 L25.746,40.109 L10.245,40.109 C10.124,40.109 10.01,40.168 9.939,40.265 L8.712,41.983 L5.95,41.983 C5.848,41.983 5.75,42.024 5.68,42.097 L0.509,47.458 C0.369,47.603 0.369,47.833 0.509,47.978 L5.68,53.339 C5.75,53.411 5.848,53.453 5.95,53.453 L8.712,53.453 L9.939,55.171 C10.01,55.268 10.124,55.327 10.245,55.327 L25.746,55.327 L25.746,54.577 L10.438,54.577 L9.634,53.453 Z" id="Fill-71" fill="#000000"></path>
            <path d="M86.03,52.702 L83.963,52.702 L87.37,47.936 C87.463,47.805 87.463,47.63 87.37,47.5 L83.962,42.732 L86.03,42.732 L90.838,47.717 L86.03,52.702 Z M91.629,47.457 L86.459,42.096 C86.388,42.024 86.29,41.982 86.189,41.982 L83.427,41.982 L82.2,40.265 C82.129,40.167 82.016,40.108 81.895,40.108 L66.394,40.108 L66.394,40.858 L81.702,40.858 L82.504,41.982 L82.773,42.357 L83.04,42.732 L86.604,47.717 L83.041,52.702 L82.505,53.452 L81.702,54.576 L66.394,54.576 L66.394,55.326 L81.895,55.326 C82.016,55.326 82.129,55.268 82.2,55.169 L83.427,53.452 L86.189,53.452 C86.29,53.452 86.388,53.411 86.459,53.337 L91.629,47.978 C91.77,47.832 91.77,47.601 91.629,47.457 Z" id="Fill-72" fill="#000000"></path>
            <path d="M7.88,47.342 C7.673,47.342 7.505,47.51 7.505,47.717 C7.505,47.925 7.673,48.093 7.88,48.093 L10.676,48.093 C10.883,48.093 11.051,47.925 11.051,47.717 C11.051,47.51 10.883,47.342 10.676,47.342 L7.88,47.342" id="Fill-73" fill="#000000"></path>
            <path d="M25.746,47.342 L23.467,47.342 C23.26,47.342 23.092,47.51 23.092,47.717 C23.092,47.925 23.26,48.093 23.467,48.093 L25.746,48.093 C25.953,48.093 26.121,47.925 26.121,47.717 C26.121,47.51 25.953,47.342 25.746,47.342" id="Fill-74" fill="#000000"></path>
            <path d="M84.259,48.093 C84.466,48.093 84.634,47.925 84.634,47.718 C84.634,47.511 84.466,47.343 84.259,47.343 L81.463,47.343 C81.256,47.343 81.088,47.511 81.088,47.718 C81.088,47.925 81.256,48.093 81.463,48.093 L84.259,48.093" id="Fill-75" fill="#000000"></path>
            <path d="M68.672,48.093 C68.879,48.093 69.047,47.925 69.047,47.718 C69.047,47.511 68.879,47.343 68.672,47.343 L66.394,47.343 C66.187,47.343 66.019,47.511 66.019,47.718 C66.019,47.925 66.187,48.093 66.394,48.093 L68.672,48.093" id="Fill-76" fill="#000000"></path>
        </g>
    </g>
</svg>