<?xml version="1.0" encoding="UTF-8"?>
<svg width="77px" height="78px" viewBox="0 0 77 78" version="1.1" xmlns="http://www.w3.org/2000/svg" xmlns:xlink="http://www.w3.org/1999/xlink">
    <!-- Generator: Sketch 49 (51002) - http://www.bohemiancoding.com/sketch -->
    <title>bitcoin-grey-3</title>
    <desc>Created with Sketch.</desc>
    <defs></defs>
    <g id="Page-1" stroke="none" stroke-width="1" fill="none" fill-rule="evenodd">
        <g id="bitcoin-grey-3">
            <path d="M61.77,5.642 C46.622,-0.775 29.517,-0.775 14.369,5.642 C16.445,6.447 18.428,7.361 20.308,8.368 C19.41,10.303 18.641,12.255 18,14.212 C30.827,8.777 45.312,8.777 58.139,14.212 C57.498,12.256 56.729,10.303 55.831,8.368 C57.711,7.361 59.693,6.448 61.77,5.642" id="Fill-1" fill="#FFFFFF"></path>
            <path d="M18.634,13.544 C31.099,8.501 45.04,8.5 57.505,13.544 C56.915,11.853 56.229,10.167 55.445,8.493 C55.364,8.321 55.425,8.128 55.594,8.037 C57.226,7.155 58.934,6.343 60.714,5.613 C46.191,-0.266 29.948,-0.265 15.424,5.613 C17.205,6.343 18.913,7.155 20.544,8.037 C20.714,8.127 20.774,8.322 20.694,8.493 C19.91,10.167 19.224,11.853 18.634,13.544 Z M57.993,14.557 C45.259,9.161 30.88,9.161 18.146,14.557 C18.006,14.616 17.848,14.596 17.735,14.498 C17.624,14.402 17.58,14.255 17.626,14.112 C18.23,12.249 18.948,10.39 19.783,8.546 C17.989,7.609 16.104,6.757 14.135,6.004 C13.985,5.947 13.9,5.816 13.919,5.662 C13.937,5.512 14.055,5.368 14.223,5.298 C29.464,-1.16 46.674,-1.16 61.915,5.298 C62.082,5.37 62.202,5.513 62.22,5.662 C62.238,5.815 62.153,5.942 62.004,6.004 C60.034,6.757 58.15,7.609 56.356,8.546 C57.191,10.39 57.909,12.249 58.513,14.112 C58.559,14.254 58.515,14.403 58.403,14.498 C58.293,14.594 58.132,14.618 57.993,14.557 Z" id="Fill-2" fill="#000000"></path>
            <path d="M27.41,7.701 C27.815,7.621 28.22,7.546 28.626,7.475 C28.254,6.558 27.871,5.644 27.478,4.733 C27.444,5.724 27.422,6.713 27.41,7.701 Z M27.427,8.189 C27.423,8.534 27.421,8.881 27.42,9.225 C27.239,9.261 27.058,9.3 26.876,9.338 C26.862,7.627 26.88,5.91 26.931,4.192 C27.243,4.132 27.556,4.074 27.868,4.018 C28.532,5.604 29.164,7.199 29.765,8.802 C29.566,8.833 29.369,8.865 29.171,8.899 C29.047,8.578 28.921,8.257 28.794,7.935 C28.337,8.014 27.881,8.099 27.427,8.189 Z" id="Fill-3" fill="#000000"></path>
            <path d="M32.152,8.482 C31.985,6.984 31.818,5.486 31.651,3.989 C31.294,4.028 30.938,4.071 30.582,4.118 C30.561,3.949 30.538,3.781 30.517,3.612 C31.452,3.489 32.389,3.391 33.328,3.314 C33.342,3.484 33.355,3.654 33.369,3.823 C33.012,3.852 32.655,3.885 32.298,3.921 C32.448,5.421 32.598,6.919 32.748,8.419 C32.549,8.438 32.351,8.459 32.152,8.482" id="Fill-4" fill="#000000"></path>
            <path d="M35.795,7.014 C35.815,7.477 36.034,7.731 36.468,7.717 C36.908,7.703 37.105,7.438 37.098,6.975 C37.082,6.09 37.066,5.203 37.05,4.317 C37.042,3.867 36.821,3.593 36.345,3.607 C35.878,3.621 35.665,3.903 35.685,4.357 C35.721,5.242 35.758,6.128 35.795,7.014 Z M35.052,4.416 C35.01,3.651 35.428,3.126 36.33,3.098 C37.24,3.072 37.69,3.567 37.692,4.338 C37.698,5.205 37.704,6.072 37.709,6.939 C37.712,7.697 37.309,8.202 36.482,8.226 C35.666,8.254 35.232,7.777 35.189,7.014 C35.144,6.148 35.098,5.281 35.052,4.416 Z" id="Fill-5" fill="#000000"></path>
            <path d="M41.418,8.251 C41.226,8.238 41.034,8.228 40.843,8.217 C40.615,6.869 40.365,5.522 40.094,4.178 C40.046,5.514 40,6.85 39.952,8.186 C39.778,8.18 39.604,8.175 39.43,8.171 C39.473,6.494 39.516,4.817 39.558,3.141 C39.863,3.149 40.169,3.159 40.474,3.171 C40.741,4.522 40.985,5.875 41.208,7.23 C41.574,5.909 41.962,4.593 42.371,3.28 C42.675,3.302 42.979,3.328 43.284,3.355 C43.134,5.025 42.985,6.696 42.835,8.365 C42.647,8.348 42.457,8.333 42.269,8.318 C42.375,6.974 42.48,5.629 42.586,4.284 C42.176,5.603 41.786,6.925 41.418,8.251" id="Fill-6" fill="#000000"></path>
            <path d="M45.86,3.643 C45.637,5.304 45.413,6.966 45.189,8.629 C44.991,8.602 44.793,8.578 44.594,8.552 C44.799,6.888 45.004,5.223 45.208,3.559 C45.426,3.586 45.643,3.614 45.86,3.643" id="Fill-7" fill="#000000"></path>
            <path d="M50.082,5.611 C50.05,5.758 50.018,5.906 49.987,6.053 C49.789,6.01 49.591,5.969 49.393,5.929 C49.424,5.772 49.457,5.614 49.488,5.457 C49.581,5.013 49.429,4.703 48.96,4.613 C48.498,4.524 48.236,4.758 48.157,5.203 C48,6.075 47.845,6.947 47.689,7.82 C47.609,8.268 47.761,8.567 48.188,8.651 C48.622,8.736 48.867,8.507 48.958,8.063 C49.002,7.85 49.045,7.636 49.089,7.423 C49.281,7.462 49.475,7.503 49.667,7.544 C49.623,7.747 49.58,7.951 49.536,8.155 C49.373,8.895 48.892,9.307 48.077,9.149 C47.269,8.996 46.971,8.441 47.095,7.688 C47.238,6.833 47.381,5.978 47.525,5.122 C47.648,4.373 48.148,3.94 49.039,4.11 C49.937,4.278 50.243,4.865 50.082,5.611" id="Fill-8" fill="#000000"></path>
            <path d="M58.139,63.651 C45.312,69.086 30.827,69.086 18,63.651 C18.641,65.607 19.41,67.56 20.308,69.495 C18.428,70.502 16.446,71.416 14.37,72.22 C29.517,78.638 46.622,78.638 61.769,72.22 C59.693,71.415 57.711,70.501 55.831,69.495 C56.729,67.56 57.498,65.607 58.139,63.651" id="Fill-9" fill="#FFFFFF"></path>
            <path d="M15.425,72.251 C29.948,78.128 46.19,78.128 60.714,72.251 C58.934,71.52 57.225,70.709 55.594,69.826 C55.426,69.735 55.364,69.537 55.445,69.37 C56.229,67.698 56.915,66.01 57.505,64.32 C45.04,69.364 31.099,69.364 18.634,64.32 C19.224,66.01 19.91,67.698 20.694,69.37 C20.774,69.542 20.713,69.734 20.545,69.826 C18.914,70.708 17.205,71.52 15.425,72.251 Z M61.915,72.566 C46.674,79.023 29.464,79.023 14.223,72.566 C14.056,72.493 13.938,72.354 13.92,72.2 C13.9,72.047 13.985,71.914 14.135,71.859 C16.104,71.106 17.989,70.255 19.783,69.317 C18.948,67.473 18.23,65.614 17.626,63.752 C17.581,63.609 17.624,63.457 17.735,63.365 C17.847,63.268 18.006,63.247 18.146,63.306 C30.88,68.703 45.259,68.703 57.993,63.306 C58.132,63.249 58.292,63.27 58.403,63.365 C58.516,63.461 58.558,63.61 58.512,63.752 C57.909,65.614 57.19,67.472 56.355,69.317 C58.15,70.255 60.034,71.106 62.003,71.859 C62.153,71.915 62.238,72.051 62.219,72.2 C62.201,72.355 62.082,72.491 61.915,72.566 Z" id="Fill-10" fill="#000000"></path>
            <path d="M26.692,73.419 C27.162,73.512 27.418,73.34 27.503,72.881 C27.531,72.735 27.558,72.588 27.585,72.442 C27.687,71.892 27.473,71.662 26.939,71.556 C26.758,71.519 26.578,71.481 26.397,71.444 C26.268,72.055 26.138,72.667 26.009,73.279 C26.236,73.327 26.464,73.374 26.692,73.419 Z M26.977,71.043 C27.468,71.143 27.748,71.046 27.845,70.531 C27.863,70.435 27.881,70.338 27.9,70.241 C27.982,69.8 27.859,69.56 27.43,69.477 C27.232,69.437 27.035,69.396 26.839,69.355 C26.727,69.885 26.615,70.415 26.503,70.944 C26.661,70.977 26.818,71.01 26.977,71.043 Z M27.545,68.98 C28.373,69.143 28.637,69.563 28.51,70.295 C28.496,70.373 28.482,70.45 28.468,70.528 C28.376,71.051 28.152,71.351 27.642,71.392 C28.157,71.632 28.298,72.045 28.204,72.59 C28.179,72.73 28.155,72.869 28.13,73.008 C28.002,73.749 27.502,74.096 26.593,73.919 C26.146,73.831 25.701,73.737 25.256,73.637 C25.621,72.001 25.987,70.364 26.353,68.728 C26.75,68.817 27.147,68.901 27.545,68.98 Z" id="Fill-11" fill="#000000"></path>
            <path d="M31.084,69.565 C30.866,71.228 30.648,72.889 30.431,74.552 C30.212,74.523 29.994,74.494 29.776,74.463 C30.013,72.802 30.249,71.142 30.486,69.483 C30.686,69.511 30.885,69.539 31.084,69.565" id="Fill-12" fill="#000000"></path>
            <path d="M33.213,74.85 C33.338,73.349 33.462,71.846 33.587,70.345 C33.253,70.317 32.919,70.286 32.585,70.253 C32.602,70.084 32.619,69.914 32.636,69.745 C33.496,69.832 34.356,69.899 35.218,69.944 C35.209,70.114 35.199,70.284 35.19,70.454 C34.855,70.436 34.521,70.415 34.187,70.391 C34.079,71.894 33.971,73.396 33.863,74.9 C33.647,74.885 33.43,74.867 33.213,74.85" id="Fill-13" fill="#000000"></path>
            <path d="M39.197,71.223 C39.2,71.373 39.203,71.525 39.206,71.676 C39.01,71.68 38.813,71.683 38.617,71.685 C38.615,71.524 38.614,71.364 38.612,71.203 C38.606,70.749 38.41,70.479 37.966,70.48 C37.53,70.476 37.324,70.747 37.317,71.2 C37.305,72.087 37.293,72.974 37.281,73.86 C37.274,74.309 37.487,74.586 37.958,74.591 C38.437,74.591 38.644,74.313 38.639,73.863 C38.636,73.645 38.634,73.427 38.632,73.208 C38.834,73.206 39.035,73.203 39.237,73.198 C39.242,73.406 39.246,73.615 39.25,73.824 C39.268,74.588 38.856,75.101 37.94,75.101 C37.032,75.098 36.624,74.576 36.644,73.819 C36.666,72.952 36.687,72.084 36.709,71.218 C36.729,70.456 37.128,69.965 37.951,69.969 C38.782,69.967 39.18,70.461 39.197,71.223" id="Fill-14" fill="#000000"></path>
            <path d="M41.666,73.753 C41.694,74.21 41.936,74.463 42.405,74.429 C42.881,74.396 43.076,74.105 43.036,73.651 C42.96,72.768 42.883,71.884 42.807,71.001 C42.768,70.553 42.541,70.297 42.099,70.33 C41.665,70.362 41.472,70.645 41.5,71.099 C41.555,71.984 41.61,72.868 41.666,73.753 Z M40.894,71.162 C40.856,70.397 41.24,69.88 42.062,69.821 C42.891,69.757 43.346,70.207 43.423,70.973 C43.508,71.836 43.593,72.7 43.677,73.563 C43.753,74.32 43.356,74.869 42.443,74.939 C41.538,75.003 41.063,74.519 41.027,73.76 C40.982,72.894 40.938,72.028 40.894,71.162 Z" id="Fill-15" fill="#000000"></path>
            <path d="M45.625,69.486 C45.861,71.147 46.097,72.807 46.333,74.467 C46.114,74.498 45.896,74.528 45.678,74.556 C45.461,72.894 45.244,71.231 45.027,69.568 C45.226,69.543 45.426,69.515 45.625,69.486" id="Fill-16" fill="#000000"></path>
            <path d="M48.832,74.057 C48.637,74.092 48.443,74.129 48.248,74.163 C47.958,72.512 47.667,70.86 47.377,69.209 C47.629,69.165 47.881,69.117 48.132,69.07 C48.771,70.182 49.436,71.284 50.129,72.375 C49.874,71.191 49.619,70.005 49.364,68.82 C49.539,68.782 49.713,68.745 49.888,68.705 C50.256,70.34 50.625,71.977 50.994,73.612 C50.77,73.662 50.546,73.711 50.322,73.759 C49.544,72.539 48.799,71.305 48.087,70.058 C48.335,71.391 48.583,72.724 48.832,74.057" id="Fill-17" fill="#000000"></path>
            <path d="M75.744,38.352 L65.932,38.257 C65.71,38.261 65.556,38.421 65.554,38.628 C65.552,38.836 65.718,39.005 65.925,39.007 L75.737,39.102 C75.738,39.102 75.74,39.102 75.741,39.102 C75.946,39.102 76.114,38.936 76.116,38.73 C76.118,38.523 75.952,38.353 75.744,38.352" id="Fill-18" fill="#000000"></path>
            <path d="M72.066,43.797 C72.249,43.797 72.409,43.664 72.437,43.476 C72.467,43.272 72.326,43.082 72.121,43.051 L65.696,42.1 C65.49,42.071 65.301,42.212 65.271,42.417 C65.24,42.621 65.382,42.813 65.587,42.843 L72.011,43.793 C72.03,43.796 72.048,43.797 72.066,43.797" id="Fill-19" fill="#000000"></path>
            <path d="M64.816,46.598 L71.071,48.429 C71.106,48.44 71.142,48.445 71.176,48.445 C71.339,48.445 71.488,48.339 71.536,48.175 C71.594,47.975 71.48,47.768 71.282,47.709 L65.027,45.878 C64.827,45.82 64.619,45.934 64.562,46.133 C64.503,46.332 64.617,46.54 64.816,46.598" id="Fill-20" fill="#000000"></path>
            <path d="M60.372,56.212 C60.212,56.08 59.976,56.103 59.844,56.263 C59.713,56.423 59.735,56.659 59.896,56.791 L65.032,61.022 C65.102,61.079 65.187,61.107 65.271,61.107 C65.378,61.107 65.486,61.061 65.56,60.971 C65.691,60.811 65.669,60.575 65.509,60.443 L60.372,56.212" id="Fill-21" fill="#000000"></path>
            <path d="M72.979,53.6 L63.932,49.54 C63.743,49.456 63.521,49.538 63.436,49.728 C63.351,49.917 63.436,50.139 63.624,50.223 L72.671,54.285 C72.721,54.307 72.773,54.319 72.825,54.319 C72.968,54.319 73.105,54.235 73.167,54.097 C73.252,53.908 73.167,53.686 72.979,53.6" id="Fill-22" fill="#000000"></path>
            <path d="M67.947,56.48 L62.344,52.991 C62.168,52.882 61.937,52.936 61.827,53.111 C61.718,53.287 61.771,53.518 61.947,53.628 L67.55,57.116 C67.612,57.155 67.681,57.173 67.748,57.173 C67.874,57.173 67.996,57.111 68.067,56.996 C68.176,56.821 68.123,56.589 67.947,56.48" id="Fill-23" fill="#000000"></path>
            <path d="M15.617,55.991 L10.444,60.171 C10.283,60.301 10.258,60.537 10.389,60.699 C10.462,60.79 10.571,60.838 10.68,60.838 C10.763,60.838 10.847,60.81 10.916,60.754 L16.089,56.573 C16.25,56.443 16.275,56.208 16.145,56.046 C16.015,55.885 15.778,55.86 15.617,55.991" id="Fill-24" fill="#000000"></path>
            <path d="M14.18,52.882 C14.072,52.706 13.841,52.649 13.664,52.757 L8.031,56.19 C7.854,56.298 7.798,56.528 7.906,56.706 C7.977,56.821 8.1,56.885 8.227,56.885 C8.293,56.885 8.36,56.867 8.421,56.83 L14.055,53.397 C14.231,53.29 14.288,53.058 14.18,52.882" id="Fill-25" fill="#000000"></path>
            <path d="M3.974,42.718 C3.769,42.745 3.625,42.936 3.653,43.14 C3.679,43.328 3.84,43.465 4.024,43.465 C4.042,43.465 4.059,43.463 4.076,43.461 L10.509,42.575 C10.714,42.547 10.858,42.358 10.83,42.153 C10.801,41.947 10.616,41.804 10.407,41.832 L3.974,42.718" id="Fill-26" fill="#000000"></path>
            <path d="M12.619,49.474 C12.535,49.285 12.315,49.199 12.125,49.281 L3.044,53.254 C2.854,53.337 2.767,53.557 2.85,53.747 C2.912,53.888 3.049,53.972 3.194,53.972 C3.244,53.972 3.295,53.962 3.344,53.941 L12.425,49.969 C12.615,49.886 12.702,49.664 12.619,49.474" id="Fill-27" fill="#000000"></path>
            <path d="M4.885,48.119 C4.919,48.119 4.953,48.114 4.987,48.104 L11.256,46.335 C11.456,46.278 11.571,46.071 11.515,45.872 C11.459,45.673 11.255,45.556 11.052,45.613 L4.783,47.382 C4.584,47.439 4.468,47.646 4.524,47.845 C4.57,48.011 4.721,48.119 4.885,48.119" id="Fill-28" fill="#000000"></path>
            <path d="M10.21,38.46 C10.416,38.46 10.583,38.294 10.585,38.089 C10.587,37.881 10.421,37.712 10.213,37.71 L0.401,37.615 C0.235,37.615 0.025,37.781 0.023,37.987 C0.021,38.195 0.187,38.364 0.395,38.365 L10.206,38.46 C10.208,38.46 10.209,38.46 10.21,38.46" id="Fill-29" fill="#000000"></path>
            <path d="M10.552,33.874 L4.127,32.924 C3.918,32.893 3.732,33.036 3.702,33.241 C3.671,33.446 3.813,33.636 4.018,33.667 L10.443,34.616 C10.461,34.619 10.48,34.62 10.498,34.62 C10.681,34.62 10.841,34.486 10.869,34.3 C10.899,34.095 10.757,33.904 10.552,33.874" id="Fill-30" fill="#000000"></path>
            <path d="M11.323,30.119 L5.068,28.287 C4.869,28.229 4.661,28.343 4.603,28.542 C4.544,28.74 4.658,28.949 4.857,29.007 L11.112,30.839 C11.147,30.848 11.183,30.854 11.217,30.854 C11.38,30.854 11.529,30.747 11.577,30.584 C11.635,30.385 11.522,30.177 11.323,30.119" id="Fill-31" fill="#000000"></path>
            <path d="M15.767,20.505 C15.836,20.563 15.921,20.59 16.005,20.59 C16.113,20.59 16.22,20.544 16.294,20.454 C16.426,20.294 16.403,20.057 16.243,19.926 L11.107,15.695 C10.947,15.564 10.711,15.586 10.579,15.745 C10.448,15.906 10.47,16.141 10.63,16.274 L15.767,20.505" id="Fill-32" fill="#000000"></path>
            <path d="M3.161,23.116 L12.208,27.177 C12.258,27.199 12.31,27.21 12.361,27.21 C12.504,27.21 12.641,27.128 12.704,26.989 C12.788,26.799 12.704,26.577 12.515,26.492 L3.468,22.432 C3.281,22.348 3.057,22.431 2.972,22.62 C2.888,22.81 2.972,23.031 3.161,23.116" id="Fill-33" fill="#000000"></path>
            <path d="M8.192,20.238 L13.795,23.725 C13.857,23.764 13.926,23.783 13.993,23.783 C14.119,23.783 14.241,23.72 14.312,23.606 C14.421,23.43 14.368,23.199 14.192,23.089 L8.588,19.6 C8.413,19.491 8.182,19.546 8.072,19.721 C7.962,19.897 8.016,20.128 8.192,20.238" id="Fill-34" fill="#000000"></path>
            <path d="M60.286,20.81 C60.369,20.81 60.452,20.783 60.521,20.726 L65.694,16.547 C65.855,16.416 65.88,16.18 65.75,16.018 C65.62,15.858 65.383,15.833 65.223,15.963 L60.05,20.143 C59.889,20.274 59.864,20.51 59.994,20.671 C60.068,20.763 60.176,20.81 60.286,20.81" id="Fill-35" fill="#000000"></path>
            <path d="M61.959,23.836 C62.03,23.952 62.153,24.015 62.28,24.015 C62.346,24.015 62.414,23.998 62.475,23.961 L68.108,20.527 C68.285,20.419 68.341,20.188 68.233,20.011 C68.125,19.834 67.894,19.778 67.717,19.886 L62.084,23.321 C61.907,23.428 61.851,23.659 61.959,23.836" id="Fill-36" fill="#000000"></path>
            <path d="M65.733,34.885 L72.165,34 C72.371,33.971 72.514,33.781 72.486,33.576 C72.457,33.372 72.272,33.228 72.063,33.257 L65.631,34.142 C65.426,34.171 65.282,34.361 65.311,34.565 C65.336,34.753 65.497,34.889 65.682,34.889 C65.699,34.889 65.716,34.888 65.733,34.885" id="Fill-37" fill="#000000"></path>
            <path d="M63.52,27.243 C63.581,27.383 63.719,27.467 63.863,27.467 C63.914,27.467 63.965,27.457 64.014,27.435 L73.096,23.465 C73.285,23.381 73.372,23.16 73.289,22.97 C73.206,22.781 72.984,22.695 72.795,22.777 L63.713,26.748 C63.523,26.832 63.437,27.053 63.52,27.243" id="Fill-38" fill="#000000"></path>
            <path d="M64.984,31.118 C65.018,31.118 65.052,31.113 65.086,31.104 L71.356,29.335 C71.556,29.278 71.671,29.071 71.615,28.872 C71.56,28.673 71.355,28.557 71.152,28.613 L64.882,30.382 C64.683,30.438 64.567,30.646 64.623,30.845 C64.67,31.01 64.82,31.118 64.984,31.118" id="Fill-39" fill="#000000"></path>
            <path d="M43.228,54.637 C43.085,54.766 42.936,54.889 42.773,54.993 C41.561,60.405 39.781,63.576 38.069,63.576 C36.414,63.576 34.694,60.607 33.485,55.513 C33.349,55.493 33.217,55.462 33.086,55.427 C32.95,55.39 32.813,55.356 32.685,55.304 C33.88,60.631 35.719,64.327 38.069,64.327 C40.581,64.327 42.508,60.107 43.69,54.186 C43.646,54.226 43.597,54.259 43.551,54.297 C43.448,54.416 43.345,54.532 43.228,54.637" id="Fill-40" fill="#000000"></path>
            <path d="M34.506,17.79 C34.571,17.778 34.63,17.75 34.698,17.75 C34.777,17.75 34.846,17.781 34.92,17.795 C35.049,17.82 35.167,17.862 35.277,17.926 C35.623,18.129 35.867,18.489 35.867,18.919 C35.867,19.564 35.343,20.088 34.698,20.088 C34.596,20.088 34.504,20.054 34.41,20.03 C34.284,19.996 34.171,19.946 34.065,19.876 C33.95,19.799 33.853,19.707 33.771,19.595 C33.629,19.402 33.529,19.176 33.529,18.919 C33.529,18.343 33.956,17.885 34.506,17.79 Z M33.112,23.215 C33.246,23.158 33.385,23.115 33.525,23.075 C33.727,22.242 33.942,21.467 34.168,20.754 C34.338,20.803 34.513,20.838 34.698,20.838 C35.756,20.838 36.617,19.976 36.617,18.919 C36.617,18.203 36.219,17.586 35.637,17.257 C36.417,15.908 37.251,15.179 38.069,15.179 C39.719,15.179 41.432,18.128 42.64,23.185 C42.79,23.245 42.93,23.323 43.07,23.401 C43.223,23.488 43.368,23.582 43.506,23.689 C42.312,18.236 40.454,14.429 38.069,14.429 C36.876,14.429 35.815,15.386 34.902,17.021 C34.835,17.013 34.768,17 34.698,17 C33.64,17 32.779,17.861 32.779,18.919 C32.779,19.521 33.064,20.052 33.499,20.405 C33.204,21.33 32.935,22.34 32.692,23.418 C32.826,23.339 32.968,23.275 33.112,23.215 Z" id="Fill-41" fill="#000000"></path>
            <path d="M15.604,42.481 C15.434,42.577 15.248,42.648 15.04,42.648 C14.395,42.648 13.871,42.122 13.871,41.478 C13.871,41.381 13.904,41.293 13.927,41.202 C13.962,41.064 14.018,40.939 14.098,40.824 C14.172,40.719 14.257,40.631 14.36,40.554 C14.554,40.411 14.781,40.31 15.04,40.31 C15.684,40.31 16.208,40.834 16.208,41.478 C16.208,41.631 16.174,41.776 16.121,41.91 C16.073,42.03 15.998,42.133 15.916,42.23 C15.828,42.333 15.722,42.414 15.604,42.481 Z M22.492,56.995 C21.811,56.995 21.295,56.825 20.959,56.489 C19.862,55.392 20.539,52.503 22.815,48.56 C23.42,47.513 24.12,46.423 24.901,45.302 C25.583,45.417 26.281,45.523 26.994,45.619 C27.134,45.507 27.281,45.405 27.437,45.315 C27.637,45.199 27.848,45.1 28.07,45.024 C27.133,44.911 26.236,44.784 25.378,44.643 C26.23,43.458 27.169,42.245 28.185,41.017 L28.185,39.84 C26.845,41.422 25.631,42.985 24.555,44.503 C21.263,43.914 18.624,43.129 16.792,42.252 C16.897,42.015 16.958,41.754 16.958,41.478 C16.958,40.421 16.098,39.56 15.04,39.56 C14.644,39.56 14.274,39.681 13.968,39.888 C13.906,39.718 13.871,39.548 13.871,39.378 C13.871,37.456 17.872,35.447 24.555,34.253 C25.631,35.77 26.845,37.334 28.185,38.916 L28.185,37.738 C27.169,36.51 26.229,35.297 25.377,34.111 C26.271,33.966 27.205,33.832 28.185,33.717 L28.185,33.52 C28.027,33.494 27.877,33.449 27.727,33.405 C27.488,33.335 27.258,33.246 27.042,33.131 C26.312,33.228 25.598,33.336 24.901,33.453 C24.12,32.333 23.42,31.242 22.815,30.195 C20.539,26.253 19.862,23.363 20.959,22.266 C21.295,21.93 21.812,21.759 22.492,21.759 C24.437,21.759 27.406,23.073 30.842,25.324 C30.956,25.106 31.085,24.897 31.24,24.708 C27.662,22.371 24.551,21.009 22.492,21.009 C21.605,21.009 20.911,21.254 20.428,21.737 C18.666,23.498 20.4,27.513 22.166,30.57 C22.729,31.545 23.379,32.558 24.093,33.596 C17.739,34.762 13.121,36.75 13.121,39.378 C13.121,39.759 13.224,40.126 13.409,40.48 C13.23,40.772 13.121,41.112 13.121,41.478 C13.121,42.536 13.982,43.397 15.04,43.397 C15.546,43.397 16.003,43.197 16.346,42.876 C18.286,43.82 20.98,44.589 24.093,45.159 C23.379,46.197 22.729,47.211 22.166,48.186 C20.4,51.243 18.666,55.257 20.428,57.018 C20.911,57.501 21.605,57.745 22.492,57.745 C24.531,57.745 27.605,56.406 31.142,54.109 C30.996,53.912 30.874,53.7 30.771,53.476 C27.365,55.699 24.424,56.995 22.492,56.995 Z" id="Fill-42" fill="#000000"></path>
            <path d="M56.048,57.061 C56.048,57.706 55.523,58.231 54.878,58.231 C54.485,58.231 54.154,58.024 53.942,57.724 C53.807,57.534 53.71,57.313 53.71,57.061 C53.71,57.036 53.723,57.015 53.724,56.991 C53.763,56.381 54.259,55.892 54.878,55.892 C55.094,55.892 55.285,55.967 55.459,56.07 C55.7,56.211 55.884,56.427 55.974,56.697 C56.013,56.812 56.048,56.932 56.048,57.061 Z M54.931,26.929 C54.935,26.929 54.937,26.927 54.94,26.927 C55.21,26.927 55.448,27.035 55.646,27.189 C55.921,27.403 56.11,27.722 56.11,28.097 C56.11,28.74 55.585,29.264 54.94,29.264 C54.859,29.264 54.788,29.235 54.712,29.218 C54.452,29.164 54.227,29.037 54.061,28.842 C53.888,28.639 53.773,28.384 53.773,28.097 C53.773,27.455 54.291,26.934 54.931,26.929 Z M53.973,48.186 C53.41,47.211 52.76,46.197 52.045,45.159 C58.399,43.993 63.018,42.005 63.018,39.378 C63.018,36.75 58.4,34.762 52.046,33.597 C52.76,32.56 53.41,31.545 53.973,30.57 C54.097,30.356 54.221,30.134 54.344,29.91 C54.533,29.972 54.731,30.015 54.94,30.015 C55.999,30.015 56.86,29.155 56.86,28.097 C56.86,27.398 56.48,26.79 55.919,26.454 C56.575,24.542 56.733,22.759 55.71,21.737 C55.228,21.254 54.534,21.01 53.647,21.01 C51.52,21.01 48.265,22.469 44.534,24.952 C44.644,25.177 44.732,25.412 44.793,25.661 C48.441,23.206 51.607,21.76 53.647,21.76 C54.328,21.76 54.843,21.931 55.18,22.266 C55.86,22.947 55.855,24.321 55.211,26.204 C55.122,26.193 55.033,26.177 54.94,26.177 C53.883,26.177 53.023,27.038 53.023,28.097 C53.023,28.673 53.282,29.182 53.684,29.534 C53.562,29.755 53.455,29.967 53.323,30.195 C52.719,31.242 52.019,32.333 51.237,33.453 C50.86,33.39 50.477,33.329 50.088,33.272 C50.104,33.392 50.107,33.518 50.117,33.64 C50.128,33.764 50.142,33.887 50.147,34.013 C50.355,34.045 50.558,34.078 50.762,34.111 C50.548,34.408 50.341,34.702 50.117,35.003 C50.063,35.577 49.953,36.139 49.773,36.677 C50.414,35.858 51.02,35.049 51.585,34.253 C58.267,35.447 62.268,37.456 62.268,39.378 C62.268,41.3 58.267,43.307 51.584,44.503 C51.401,44.244 51.213,43.986 51.021,43.724 C51.021,44.024 50.999,44.319 50.966,44.611 C50.956,44.7 50.944,44.79 50.932,44.879 C50.926,44.916 50.923,44.953 50.917,44.991 C50.897,45.116 50.871,45.241 50.845,45.365 C50.976,45.344 51.107,45.324 51.237,45.302 C52.019,46.423 52.719,47.513 53.323,48.56 C55.022,51.504 55.828,53.858 55.673,55.32 C55.43,55.208 55.162,55.142 54.878,55.142 C53.861,55.142 53.035,55.941 52.972,56.943 C50.9,56.675 47.945,55.237 44.592,52.957 C44.492,53.183 44.374,53.4 44.231,53.599 C47.773,55.991 50.898,57.476 53.078,57.703 C53.343,58.445 54.046,58.981 54.878,58.981 C55.937,58.981 56.798,58.12 56.798,57.061 C56.798,56.595 56.624,56.173 56.347,55.84 C56.833,53.816 55.414,50.682 53.973,48.186 Z" id="Fill-43" fill="#000000"></path>
            <path d="M43.707,50.159 C43.803,50.15 43.897,50.133 43.992,50.12 C43.897,50.159 43.804,50.199 43.707,50.233 L43.707,50.159 Z M39.759,26.432 C39.775,26.423 39.79,26.41 39.807,26.401 L39.807,27.362 L39.19,27.362 C39.199,27.226 39.218,27.094 39.269,26.974 C39.366,26.742 39.546,26.564 39.759,26.432 Z M32.834,26.492 C32.862,26.471 32.892,26.452 32.921,26.433 C32.938,26.424 32.952,26.411 32.969,26.402 L32.969,27.362 L32.352,27.362 C32.361,27.228 32.381,27.095 32.431,26.976 C32.491,26.832 32.579,26.702 32.687,26.593 C32.73,26.551 32.787,26.528 32.834,26.492 Z M30.091,45.971 L30.091,32.028 C30.091,31.821 29.923,31.653 29.716,31.653 L28.267,31.653 C27.602,31.653 27.062,31.114 27.062,30.451 C27.062,30.295 27.097,30.143 27.157,30.004 C27.256,29.774 27.435,29.593 27.645,29.458 C27.665,29.444 27.683,29.429 27.704,29.417 C27.739,30.082 28.104,30.656 28.643,30.981 C28.937,31.159 29.279,31.268 29.647,31.268 L30.723,31.268 L30.723,46.255 L30.091,46.255 L30.091,45.971 Z M33.996,53.56 C33.855,53.619 33.7,53.653 33.537,53.653 C33.37,53.653 33.211,53.618 33.066,53.556 C32.891,53.481 32.749,53.356 32.628,53.212 C32.609,53.19 32.597,53.164 32.58,53.14 C32.438,52.943 32.336,52.715 32.336,52.452 L32.336,50.949 C32.336,50.845 32.293,50.752 32.224,50.682 C32.156,50.616 32.063,50.575 31.961,50.575 L28.267,50.575 C27.625,50.575 27.062,50.013 27.062,49.374 C27.062,49.21 27.097,49.054 27.156,48.911 C27.254,48.671 27.435,48.485 27.648,48.347 C27.666,48.336 27.682,48.321 27.701,48.31 C27.728,48.981 28.11,49.571 28.662,49.905 C28.954,50.08 29.29,50.189 29.647,50.189 L32.968,50.189 L32.968,51.316 C32.968,51.516 33.007,51.705 33.064,51.888 C33.138,52.131 33.257,52.35 33.414,52.544 C33.555,52.717 33.722,52.865 33.914,52.981 C34.079,53.08 34.258,53.157 34.451,53.206 C34.326,53.356 34.179,53.485 33.996,53.56 Z M42.957,51.316 C42.957,51.436 42.921,51.545 42.889,51.655 C42.88,51.682 42.881,51.713 42.871,51.739 C42.78,51.98 42.609,52.168 42.397,52.306 C42.392,52.31 42.388,52.313 42.383,52.316 C42.363,52.327 42.346,52.343 42.326,52.354 C42.21,52.418 42.084,52.456 41.948,52.48 C41.883,52.491 41.824,52.518 41.756,52.518 C41.69,52.518 41.633,52.491 41.57,52.481 C40.999,52.388 40.554,51.912 40.554,51.316 L40.554,49.814 C40.554,49.607 40.386,49.439 40.179,49.439 L36.496,49.439 C36.289,49.439 36.121,49.607 36.121,49.814 L36.121,51.316 C36.121,51.319 36.119,51.322 36.119,51.324 C36.118,51.444 36.084,51.555 36.051,51.663 C35.965,51.941 35.786,52.164 35.545,52.316 C35.526,52.328 35.509,52.343 35.488,52.355 C35.372,52.419 35.246,52.456 35.11,52.48 C35.045,52.491 34.986,52.518 34.918,52.518 C34.853,52.518 34.795,52.491 34.732,52.481 C34.452,52.434 34.206,52.305 34.026,52.1 C33.858,51.909 33.754,51.668 33.734,51.399 C33.732,51.369 33.718,51.345 33.718,51.316 L33.718,49.814 C33.718,49.607 33.55,49.439 33.343,49.439 L29.647,49.439 C29.006,49.439 28.443,48.877 28.443,48.237 C28.443,48.203 28.46,48.174 28.463,48.14 C28.474,48.011 28.49,47.882 28.539,47.765 C28.598,47.626 28.685,47.5 28.787,47.39 C28.822,47.354 28.865,47.33 28.904,47.299 C29.033,47.191 29.179,47.116 29.341,47.07 C29.441,47.041 29.54,47.005 29.647,47.005 L31.098,47.005 C31.243,47.005 31.365,46.92 31.428,46.799 C31.454,46.746 31.473,46.691 31.473,46.63 L31.473,30.892 C31.473,30.686 31.305,30.518 31.098,30.518 L29.647,30.518 C28.983,30.518 28.443,29.978 28.443,29.316 C28.443,29.292 28.456,29.272 28.458,29.248 C28.466,29.119 28.488,28.991 28.538,28.874 C28.597,28.734 28.683,28.608 28.788,28.498 C28.822,28.462 28.864,28.438 28.902,28.407 C29.112,28.233 29.367,28.112 29.647,28.112 L33.344,28.112 C33.551,28.112 33.719,27.944 33.719,27.737 L33.719,26.301 C33.719,26.292 33.724,26.284 33.724,26.275 C33.727,26.139 33.757,26.011 33.802,25.889 C33.85,25.763 33.921,25.653 34.006,25.55 C34.048,25.5 34.089,25.452 34.139,25.408 C34.35,25.224 34.619,25.102 34.921,25.102 C35.075,25.102 35.22,25.137 35.355,25.19 C35.802,25.365 36.121,25.794 36.121,26.301 L36.121,27.737 C36.121,27.813 36.149,27.881 36.188,27.94 C36.256,28.041 36.365,28.112 36.496,28.112 L40.182,28.112 C40.203,28.112 40.221,28.104 40.241,28.1 C40.375,28.077 40.484,27.991 40.53,27.867 C40.546,27.825 40.557,27.783 40.557,27.737 L40.557,26.301 C40.557,26.292 40.562,26.284 40.562,26.275 C40.565,26.139 40.595,26.011 40.64,25.89 C40.687,25.763 40.759,25.653 40.843,25.551 C40.885,25.5 40.926,25.452 40.976,25.408 C41.187,25.224 41.455,25.102 41.757,25.102 C41.911,25.102 42.055,25.137 42.19,25.19 C42.568,25.337 42.833,25.671 42.913,26.076 C42.928,26.152 42.959,26.221 42.959,26.301 L42.959,27.836 C42.959,27.926 42.992,28.009 43.046,28.075 C43.102,28.141 43.18,28.19 43.271,28.206 C43.376,28.223 43.473,28.263 43.576,28.287 C43.705,28.317 43.833,28.351 43.958,28.39 C44.084,28.428 44.214,28.453 44.336,28.5 C44.579,28.591 44.808,28.709 45.035,28.832 C46.613,29.682 47.772,31.219 48.116,33.005 C48.139,33.126 48.142,33.252 48.157,33.374 C48.173,33.497 48.184,33.621 48.191,33.746 C48.199,33.868 48.225,33.986 48.225,34.109 C48.225,34.558 48.162,34.998 48.05,35.419 C47.898,35.991 47.652,36.527 47.321,36.995 C47.236,37.116 47.144,37.23 47.048,37.341 C46.899,37.515 46.741,37.679 46.568,37.827 C46.497,37.888 46.419,37.938 46.344,37.993 C46.262,38.055 46.183,38.122 46.096,38.177 C45.984,38.248 45.918,38.374 45.923,38.507 C45.925,38.55 45.944,38.587 45.96,38.626 C45.968,38.647 45.968,38.671 45.979,38.69 C45.981,38.693 45.984,38.695 45.986,38.697 C46.02,38.749 46.065,38.794 46.121,38.824 C46.174,38.852 46.22,38.887 46.272,38.917 C46.426,39.005 46.578,39.095 46.721,39.193 C46.931,39.337 47.127,39.492 47.312,39.657 C48.085,40.348 48.627,41.212 48.892,42.167 C49.011,42.598 49.077,43.046 49.077,43.507 C49.077,43.966 49.017,44.413 48.914,44.846 C48.908,44.87 48.901,44.896 48.896,44.92 C48.863,45.049 48.829,45.177 48.788,45.303 C48.747,45.432 48.701,45.558 48.65,45.682 C48.498,46.06 48.311,46.42 48.087,46.757 C47.979,46.918 47.864,47.073 47.741,47.223 C47.581,47.421 47.404,47.605 47.22,47.781 C46.896,48.09 46.538,48.365 46.151,48.595 C45.631,48.906 45.063,49.141 44.458,49.282 C44.336,49.31 44.211,49.329 44.087,49.35 C43.963,49.37 43.839,49.386 43.713,49.398 C43.583,49.411 43.453,49.426 43.321,49.43 C43.118,49.436 42.957,49.601 42.957,49.804 L42.957,51.316 Z M40.834,53.56 C40.692,53.619 40.538,53.653 40.375,53.653 C39.712,53.653 39.173,53.115 39.173,52.452 L39.173,50.949 C39.173,50.743 39.005,50.575 38.798,50.575 L36.871,50.575 L36.871,50.189 L39.804,50.189 L39.804,51.316 C39.804,52.024 40.186,52.639 40.751,52.981 C40.916,53.082 41.096,53.157 41.289,53.206 C41.164,53.356 41.017,53.485 40.834,53.56 Z M46.634,49.182 C47.965,48.356 48.986,47.075 49.486,45.572 C49.527,45.447 49.565,45.32 49.6,45.193 C49.634,45.065 49.668,44.938 49.695,44.807 C49.78,44.386 49.827,43.951 49.827,43.507 C49.827,43.457 49.819,43.411 49.818,43.362 C49.805,42.827 49.717,42.308 49.564,41.812 C49.248,40.778 48.644,39.847 47.802,39.096 C47.617,38.931 47.421,38.777 47.214,38.631 C47.135,38.574 47.063,38.512 46.981,38.46 C48.223,37.44 48.975,35.824 48.975,34.109 C48.975,34.018 48.955,33.932 48.951,33.843 C48.946,33.717 48.93,33.594 48.918,33.469 C48.906,33.348 48.904,33.223 48.886,33.103 C48.494,30.576 46.66,28.451 44.224,27.691 C44.097,27.652 43.975,27.602 43.844,27.57 C43.798,27.558 43.756,27.537 43.709,27.528 L43.709,26.301 C43.709,26.055 43.658,25.821 43.574,25.604 C43.549,25.54 43.519,25.479 43.487,25.418 C43.365,25.181 43.198,24.974 42.995,24.807 C42.657,24.527 42.229,24.352 41.757,24.352 C40.955,24.352 40.266,24.839 39.966,25.532 C39.111,25.715 38.468,26.462 38.433,27.362 L36.871,27.362 L36.871,26.301 C36.871,25.226 35.996,24.352 34.921,24.352 C34.118,24.352 33.428,24.84 33.128,25.533 C33.083,25.543 33.041,25.56 32.996,25.574 C32.891,25.605 32.788,25.642 32.691,25.69 C32.657,25.706 32.625,25.724 32.592,25.743 C32.439,25.828 32.296,25.927 32.172,26.049 C32.137,26.084 32.108,26.124 32.076,26.16 C31.791,26.486 31.612,26.902 31.595,27.362 L29.647,27.362 C28.861,27.362 28.166,27.857 27.86,28.545 C26.988,28.738 26.312,29.531 26.312,30.451 C26.312,31.528 27.188,32.403 28.267,32.403 L29.341,32.403 L29.341,46.287 C28.692,46.397 28.141,46.84 27.871,47.434 C26.994,47.626 26.312,48.436 26.312,49.374 C26.312,50.431 27.207,51.324 28.267,51.324 L31.586,51.324 L31.586,52.452 C31.586,52.605 31.607,52.751 31.641,52.892 C31.698,53.14 31.802,53.37 31.944,53.573 C32.075,53.757 32.235,53.918 32.42,54.048 C32.548,54.137 32.686,54.209 32.833,54.266 C32.959,54.316 33.092,54.35 33.229,54.371 C33.33,54.388 33.432,54.403 33.537,54.403 C34.339,54.403 35.028,53.916 35.328,53.223 C36.206,53.035 36.866,52.257 36.87,51.324 L38.423,51.324 L38.423,52.452 C38.423,53.528 39.298,54.403 40.375,54.403 C41.177,54.403 41.866,53.916 42.166,53.223 C42.499,53.152 42.796,52.991 43.042,52.773 C43.12,52.703 43.19,52.629 43.256,52.549 C43.347,52.439 43.425,52.32 43.49,52.191 C43.625,51.927 43.707,51.633 43.707,51.316 L43.707,51.02 C43.764,51.002 43.82,50.982 43.876,50.963 C44.005,50.919 44.134,50.874 44.259,50.823 C45.165,50.451 45.974,49.888 46.634,49.182 Z" id="Fill-44" fill="#000000"></path>
            <path d="M34.656,40.76 L43.144,40.76 C43.543,40.76 43.92,40.85 44.263,41.004 C44.392,41.061 44.516,41.129 44.633,41.204 C44.692,41.243 44.745,41.287 44.801,41.33 C44.87,41.382 44.938,41.437 45.002,41.495 C45.123,41.607 45.231,41.73 45.331,41.861 C45.679,42.321 45.893,42.887 45.893,43.507 C45.893,44.204 45.632,44.827 45.213,45.307 C45.206,45.315 45.2,45.323 45.194,45.33 C45.195,45.323 45.194,45.316 45.196,45.308 C45.236,45.093 45.262,44.87 45.262,44.641 C45.262,44.128 45.144,43.644 44.943,43.203 C44.852,43.002 44.742,42.81 44.615,42.631 C44.609,42.622 44.601,42.615 44.595,42.607 C44.485,42.454 44.369,42.305 44.237,42.173 C44.199,42.135 44.153,42.107 44.114,42.071 C43.491,41.502 42.67,41.146 41.762,41.146 L34.656,41.146 L34.656,40.76 Z M34.656,45.897 L34.656,41.896 L41.762,41.896 C42.467,41.896 43.104,42.17 43.591,42.608 C43.779,42.777 43.945,42.966 44.081,43.18 C44.123,43.245 44.157,43.317 44.193,43.387 C44.379,43.744 44.494,44.143 44.505,44.572 C44.505,44.596 44.512,44.618 44.512,44.641 C44.512,44.748 44.492,44.847 44.481,44.949 C44.466,45.093 44.441,45.234 44.405,45.37 C44.37,45.5 44.334,45.628 44.282,45.749 C44.232,45.862 44.17,45.967 44.107,46.071 C44.083,46.08 44.057,46.085 44.033,46.093 C43.977,46.112 43.92,46.129 43.863,46.145 C43.623,46.209 43.375,46.255 43.112,46.255 L34.656,46.255 L34.656,45.897 Z M43.159,47 C43.415,46.996 43.661,46.966 43.9,46.914 C43.924,46.909 43.946,46.899 43.97,46.894 C44.1,46.862 44.226,46.823 44.349,46.779 C44.44,46.746 44.529,46.712 44.616,46.672 C44.654,46.654 44.69,46.632 44.727,46.613 C45.047,46.452 45.344,46.256 45.597,46.01 C45.72,45.889 45.827,45.753 45.932,45.615 C46.025,45.491 46.107,45.36 46.184,45.223 C46.327,44.968 46.44,44.695 46.516,44.403 C46.59,44.115 46.643,43.819 46.643,43.507 C46.643,42.669 46.334,41.911 45.842,41.307 C45.683,41.114 45.505,40.937 45.308,40.781 C45.214,40.705 45.122,40.631 45.02,40.565 C44.901,40.489 44.775,40.424 44.646,40.363 C44.525,40.304 44.4,40.257 44.272,40.213 C44.061,40.14 43.842,40.089 43.614,40.057 C43.459,40.036 43.305,40.01 43.144,40.01 L34.281,40.01 C34.074,40.01 33.906,40.178 33.906,40.385 L33.906,46.63 C33.906,46.837 34.074,47.005 34.281,47.005 L43.112,47.005 C43.128,47.005 43.143,47 43.159,47 Z" id="Fill-45" fill="#000000"></path>
            <path d="M34.656,31.268 L42.291,31.268 C42.919,31.268 43.499,31.502 43.971,31.876 C44.117,31.992 44.251,32.122 44.372,32.265 C44.48,32.39 44.578,32.525 44.663,32.669 C44.707,32.743 44.749,32.819 44.787,32.898 C44.811,32.949 44.839,32.997 44.861,33.051 C44.91,33.173 44.946,33.301 44.979,33.429 C45.034,33.649 45.072,33.875 45.072,34.109 C45.072,34.413 45.01,34.703 44.917,34.976 C44.833,35.223 44.725,35.456 44.579,35.666 C44.522,35.748 44.454,35.819 44.389,35.894 C44.383,35.9 44.378,35.907 44.372,35.912 C44.375,35.903 44.374,35.89 44.376,35.881 C44.414,35.674 44.44,35.463 44.44,35.245 C44.44,34.723 44.316,34.224 44.108,33.772 C44.042,33.626 43.966,33.487 43.881,33.351 C43.795,33.215 43.694,33.088 43.591,32.963 C43.475,32.823 43.353,32.693 43.218,32.572 C42.592,32.01 41.787,31.653 40.909,31.653 L34.656,31.653 L34.656,31.268 Z M34.656,34.032 L34.656,32.403 L40.909,32.403 C41.126,32.403 41.336,32.437 41.54,32.488 C41.87,32.57 42.182,32.708 42.457,32.901 C42.62,33.015 42.768,33.149 42.904,33.295 C43.369,33.79 43.662,34.451 43.683,35.169 C43.684,35.195 43.69,35.219 43.69,35.245 C43.69,35.545 43.63,35.827 43.54,36.097 C43.473,36.299 43.386,36.491 43.275,36.67 C42.968,36.786 42.639,36.857 42.291,36.857 L34.656,36.857 L34.656,34.032 Z M34.281,37.607 L42.291,37.607 C42.298,37.607 42.304,37.605 42.311,37.605 C42.563,37.604 42.807,37.574 43.044,37.523 C43.301,37.467 43.544,37.379 43.777,37.271 C43.94,37.196 44.1,37.115 44.248,37.018 C44.284,36.993 44.315,36.964 44.35,36.939 C44.442,36.872 44.528,36.797 44.614,36.722 C44.718,36.632 44.815,36.538 44.907,36.437 C44.931,36.411 44.952,36.383 44.975,36.356 C45.274,36.005 45.503,35.598 45.645,35.149 C45.75,34.819 45.822,34.473 45.822,34.109 C45.822,33.899 45.795,33.695 45.759,33.492 C45.736,33.363 45.698,33.24 45.661,33.115 C45.624,32.989 45.595,32.861 45.544,32.741 C45.345,32.265 45.041,31.845 44.671,31.496 C44.545,31.377 44.416,31.262 44.275,31.161 C44.152,31.075 44.017,31.007 43.884,30.935 C43.4,30.678 42.863,30.518 42.291,30.518 L34.281,30.518 C34.074,30.518 33.906,30.686 33.906,30.892 L33.906,37.232 C33.906,37.439 34.074,37.607 34.281,37.607 Z" id="Fill-46" fill="#000000"></path>
        </g>
    </g>
</svg>