<?xml version="1.0" encoding="UTF-8"?>
<svg width="136px" height="108px" viewBox="0 0 136 108" version="1.1" xmlns="http://www.w3.org/2000/svg" xmlns:xlink="http://www.w3.org/1999/xlink">
    <!-- Generator: Sketch 49 (51002) - http://www.bohemiancoding.com/sketch -->
    <title>vintage-logo-16</title>
    <desc>Created with Sketch.</desc>
    <defs></defs>
    <g id="Page-1" stroke="none" stroke-width="1" fill="none" fill-rule="evenodd">
        <g id="vintage-logo-16" transform="translate(0.000000, -1.000000)">
            <path d="M16.1117,26.5311 L17.0797,26.7511 L17.5077,26.1721 L13.2527,25.2101 L12.8237,25.7881 L14.9857,29.5781 L15.4137,29.0001 L14.9217,28.1371 L16.1117,26.5311 Z M14.5847,27.5471 L13.6947,25.9851 L15.4477,26.3811 L14.5847,27.5471 Z" id="Fill-1" fill="#414042"></path>
            <g id="Group-98" transform="translate(0.000000, 0.672000)">
                <path d="M17.9848,22.283 L16.3878,20.755 L15.9218,21.241 L17.5398,22.79 C17.9568,23.189 18.3838,23.378 18.8248,23.364 C19.2688,23.354 19.6608,23.169 20.0048,22.809 C20.3478,22.451 20.5168,22.051 20.5078,21.607 C20.5028,21.167 20.2958,20.747 19.8788,20.347 L18.2608,18.799 L17.7958,19.286 L19.3918,20.815 C19.6558,21.067 19.8028,21.335 19.8298,21.613 C19.8548,21.891 19.7638,22.144 19.5468,22.371 C19.3298,22.597 19.0808,22.7 18.8018,22.686 C18.5228,22.672 18.2498,22.536 17.9848,22.283" id="Fill-2" fill="#414042"></path>
                <polygon id="Fill-4" fill="#414042" points="23.0434 15.4275 22.6474 14.9525 20.2704 16.9375 20.6654 17.4105 21.5954 16.6355 23.7594 19.2275 24.2764 18.7955 22.1124 16.2025"></polygon>
                <polygon id="Fill-6" fill="#414042" points="27.6449 16.2175 26.7309 14.8635 28.3739 13.7535 29.2879 15.1085 29.8469 14.7315 27.6129 11.4205 27.0539 11.7975 28.0219 13.2335 26.3789 14.3415 25.4109 12.9065 24.8519 13.2835 27.0849 16.5945"></polygon>
                <polygon id="Fill-8" fill="#414042" points="30.2621 9.8308 32.1711 13.3338 34.6931 11.9608 34.3891 11.4038 32.4591 12.4558 31.9491 11.5178 33.6281 10.6028 33.3411 10.0768 31.6621 10.9918 31.1571 10.0648 33.0271 9.0468 32.7231 8.4898"></polygon>
                <polygon id="Fill-10" fill="#414042" points="39.2875 8.7361 35.9745 6.9191 35.3565 7.1861 36.9405 10.8511 37.5585 10.5841 36.4035 7.9101 39.6365 9.6871 40.3075 9.3971 38.7235 5.7311 38.1045 5.9991"></polygon>
                <polygon id="Fill-12" fill="#414042" points="44.4076 4.3914 44.2136 3.8064 41.2766 4.7824 41.4706 5.3684 42.6196 4.9864 43.6836 8.1884 44.3236 7.9754 43.2596 4.7734"></polygon>
                <polygon id="Fill-14" fill="#414042" points="47.7494 6.95 48.4004 6.776 47.3754 2.918 46.7244 3.092"></polygon>
                <path d="M51.7192,4.9402 C51.3982,4.7302 51.1962,4.4202 51.1162,4.0222 C51.0372,3.6252 51.1072,3.2722 51.3242,2.9612 C51.5432,2.6552 51.8492,2.4602 52.2462,2.3802 C52.4712,2.3362 52.6742,2.3302 52.8572,2.3702 C53.0332,2.4102 53.2382,2.4982 53.4582,2.6402 L53.7872,2.0962 C53.2882,1.7292 52.7402,1.6062 52.1342,1.7262 C51.5232,1.8482 51.0632,2.1442 50.7412,2.6102 C50.4212,3.0772 50.3172,3.6052 50.4332,4.1882 C50.5492,4.7712 50.8412,5.2142 51.3102,5.5172 C51.7732,5.8212 52.3042,5.9142 52.8992,5.7942 C53.4882,5.6772 53.9472,5.3472 54.2702,4.8042 L53.7562,4.4522 C53.6112,4.6562 53.4612,4.8142 53.3132,4.9192 C53.1662,5.0302 52.9782,5.1092 52.7472,5.1552 C52.3832,5.2272 52.0362,5.1572 51.7192,4.9402" id="Fill-16" fill="#414042"></path>
                <path d="M62.7319,3.6375 C62.4879,3.8225 62.1809,3.9255 61.8049,3.9535 C61.4229,3.9835 61.0939,3.8765 60.8069,3.6415 C60.5199,3.4055 60.3639,3.0795 60.3309,2.6525 C60.2979,2.2315 60.4089,1.8785 60.6629,1.5965 C60.9159,1.3195 61.2419,1.1615 61.6459,1.1315 C61.8569,1.1155 62.0409,1.1235 62.2049,1.1625 C62.3619,1.2025 62.5289,1.2865 62.6929,1.4065 L63.0119,0.8665 C62.6049,0.5595 62.1199,0.4305 61.5449,0.4745 C60.9689,0.5185 60.5009,0.7545 60.1269,1.1785 C59.7529,1.6025 59.5859,2.1145 59.6299,2.7055 C59.6749,3.2985 59.9129,3.7725 60.3399,4.1295 C60.7629,4.4865 61.2739,4.6425 61.8599,4.5975 C62.5599,4.5435 63.0799,4.2975 63.4239,3.8535 L63.3199,2.4915 L62.6479,2.5435 L62.7319,3.6375 Z" id="Fill-18" fill="#414042"></path>
                <polygon id="Fill-20" fill="#414042" points="65.9643 0.364 66.0153 4.354 68.8873 4.318 68.8783 3.684 66.6813 3.713 66.6673 2.644 68.5793 2.621 68.5713 2.021 66.6593 2.046 66.6463 0.989 68.7763 0.962 68.7673 0.329"></polygon>
                <polygon id="Fill-22" fill="#414042" points="74.4418 3.614 72.3418 0.476 71.6708 0.428 71.3858 4.409 72.0578 4.457 72.2648 1.552 74.3128 4.618 75.0418 4.67 75.3258 0.689 74.6538 0.641"></polygon>
                <path d="M78.6557,3.3172 L78.9927,1.1302 L78.3267,1.0272 L77.9847,3.2432 C77.8967,3.8132 77.9877,4.2722 78.2517,4.6262 C78.5137,4.9842 78.8917,5.1992 79.3837,5.2752 C79.8757,5.3502 80.3007,5.2592 80.6587,4.9972 C81.0157,4.7402 81.2417,4.3292 81.3297,3.7582 L81.6717,1.5442 L81.0047,1.4402 L80.6677,3.6282 C80.6117,3.9892 80.4767,4.2632 80.2627,4.4442 C80.0507,4.6262 79.7917,4.6952 79.4797,4.6472 C79.1697,4.5992 78.9427,4.4552 78.7947,4.2172 C78.6457,3.9812 78.5997,3.6782 78.6557,3.3172" id="Fill-24" fill="#414042"></path>
                <polygon id="Fill-26" fill="#414042" points="83.727 6.0349 84.385 6.1809 85.248 2.2819 84.59 2.1369"></polygon>
                <polygon id="Fill-28" fill="#414042" points="90.2172 6.6892 88.8352 3.1752 88.1892 2.9852 87.0622 6.8132 87.7082 7.0032 88.5302 4.2102 89.8772 7.6422 90.5782 7.8482 91.7052 4.0202 91.0592 3.8302"></polygon>
                <polygon id="Fill-30" fill="#414042" points="94.6108 5.0193 93.1688 8.7463 95.8498 9.7833 96.0798 9.1913 94.0268 8.3973 94.4128 7.4003 96.1988 8.0913 96.4148 7.5323 94.6298 6.8403 95.0098 5.8543 96.9998 6.6233 97.2278 6.0323"></polygon>
                <polygon id="Fill-32" fill="#414042" points="103.2358 13.4343 103.5438 12.8723 101.9448 11.9973 103.5558 9.0553 102.9648 8.7313 101.0468 12.2343"></polygon>
                <path d="M107.891,15.3181 L107.717,16.2971 L108.316,16.6971 L109.077,12.3971 L108.478,11.9961 L104.791,14.3371 L105.39,14.7381 L106.228,14.2051 L107.891,15.3181 Z M106.803,13.8391 L108.323,12.8761 L108.009,14.6481 L106.803,13.8391 Z" id="Fill-34" fill="#414042"></path>
                <path d="M112.5004,19.5984 C112.7804,19.5564 113.0124,19.4304 113.1914,19.2154 C113.3534,19.0224 113.4314,18.8124 113.4324,18.5894 C113.4234,18.3674 113.3434,18.1514 113.1874,17.9534 L113.3414,17.9934 C113.3704,18.0024 113.4274,18.0054 113.5184,18.0134 C113.7704,18.0234 113.9904,17.9104 114.1914,17.6684 C114.3564,17.4714 114.4374,17.2334 114.4284,16.9574 C114.4234,16.8124 114.3724,16.6504 114.2634,16.4784 C114.1494,16.3014 113.9924,16.1244 113.7854,15.9524 L112.5934,14.9574 L110.0334,18.0244 L111.3764,19.1444 C111.7934,19.4924 112.1724,19.6444 112.5004,19.5984 Z M112.7114,15.8684 L113.3734,16.4204 C113.5624,16.5774 113.6774,16.7254 113.7144,16.8684 C113.7514,17.0104 113.7074,17.1534 113.5864,17.2974 C113.3744,17.5514 113.0794,17.5224 112.7064,17.2104 L112.0484,16.6614 L112.7114,15.8684 Z M111.6494,17.1394 L112.3964,17.7624 C112.8294,18.1244 112.9364,18.4434 112.7084,18.7154 C112.5694,18.8824 112.4264,18.9554 112.2774,18.9284 C112.1254,18.9064 111.9504,18.8124 111.7624,18.6554 L110.9504,17.9774 L111.6494,17.1394 Z" id="Fill-36" fill="#414042"></path>
                <polygon id="Fill-38" fill="#414042" points="117.141 18.9802 114.268 21.7522 116.262 23.8202 116.718 23.3802 115.192 21.7972 115.96 21.0562 117.289 22.4332 117.721 22.0162 116.392 20.6392 117.153 19.9062 118.632 21.4392 119.088 20.9992"></polygon>
                <polygon id="Fill-40" fill="#414042" points="119.3696 27.6951 119.8776 27.3061 118.7696 25.8611 121.4306 23.8231 121.0206 23.2881 117.8526 25.7151"></polygon>
                <path d="M8.7944,72.5603 L8.7944,57.2223 C7.1744,57.1913 5.5564,57.1593 3.9404,57.1253 L3.9404,71.5103 C2.6254,71.2123 1.3124,70.9083 0.0004,70.5933 L0.0004,40.7443 C1.3124,40.4293 2.6254,40.1243 3.9404,39.8283 L3.9404,53.2863 C5.5564,53.2313 7.1744,53.1783 8.7944,53.1273 L8.7944,38.7773 C10.1134,38.5033 11.4334,38.2393 12.7564,37.9843 L12.7564,73.3533 C11.4334,73.0993 10.1134,72.8343 8.7944,72.5603" id="Fill-42" fill="#414042"></path>
                <path d="M22.0248,70.3054 C22.7028,70.3874 23.3788,70.4674 24.0578,70.5454 C25.1088,70.6684 25.6348,69.9514 25.6348,68.4004 L25.6348,42.9374 C25.6348,41.3854 25.0398,40.6764 23.8498,40.8164 C23.2278,40.8884 22.6038,40.9624 21.9828,41.0374 C20.8208,41.1804 20.2418,41.9964 20.2428,43.4774 L20.2428,67.8604 C20.2428,69.3404 20.8368,70.1594 22.0248,70.3054 M21.0718,74.8334 C17.8658,74.2854 16.2688,71.9074 16.2678,67.7774 L16.2678,43.6134 C16.2688,39.4494 17.8518,37.0544 21.0298,36.5114 C22.2998,36.3044 23.5738,36.1054 24.8458,35.9144 C28.0298,35.4244 29.6248,37.5604 29.6248,42.2404 L29.6248,69.1554 C29.6248,73.7954 28.0148,75.9094 24.8038,75.4154 C23.5588,75.2304 22.3148,75.0344 21.0718,74.8334" id="Fill-44" fill="#414042"></path>
                <path d="M46.1772,33.53 L46.1772,69.421 C46.1772,75.019 44.5602,77.709 41.3322,77.406 C40.2062,77.303 39.0802,77.192 37.9542,77.077 C34.7572,76.728 33.1612,73.867 33.1612,68.577 L33.1612,34.796 C34.4942,34.635 35.8272,34.485 37.1612,34.344 L37.1612,69.034 C37.1622,70.894 37.7452,71.873 38.9132,71.964 C39.4552,72.005 39.9972,72.044 40.5392,72.082 C41.6262,72.161 42.1662,71.246 42.1672,69.339 L42.1672,33.856 C43.5022,33.739 44.8402,33.63 46.1772,33.53" id="Fill-46" fill="#414042"></path>
                <path d="M57.6322,45.1423 L57.6322,41.1483 C57.6322,39.3303 57.0462,38.4343 55.8752,38.4703 C55.6662,38.4773 55.4562,38.4843 55.2472,38.4913 C54.1032,38.5293 53.5322,39.4543 53.5322,41.2573 L53.5322,48.7463 C53.5322,49.5853 53.6442,50.1503 53.8672,50.4413 C54.0892,50.7333 54.4532,51.1083 54.9552,51.5653 C56.2242,52.5863 57.4932,53.6163 58.7622,54.6523 C59.6002,55.3713 60.1922,55.9323 60.5412,56.3353 C60.8892,56.7413 61.1622,57.2293 61.3572,57.8033 C61.5512,58.3763 61.6512,59.4713 61.6512,61.0843 L61.6512,70.8333 C61.6512,75.9753 60.0312,78.5243 56.7952,78.4023 C55.9732,78.3713 55.1512,78.3363 54.3272,78.2983 C51.1192,78.1393 49.5192,75.2833 49.5182,69.8103 L49.5182,67.5703 C50.8562,67.6143 52.1952,67.6543 53.5322,67.6893 L53.5322,70.1433 C53.5322,71.9043 54.1322,72.8093 55.3312,72.8493 C55.5682,72.8573 55.8052,72.8643 56.0422,72.8713 C57.1022,72.9043 57.6322,72.0293 57.6322,70.2533 L57.6322,62.5163 C57.6322,61.6713 57.5212,61.1003 57.2982,60.8013 C57.0732,60.5043 56.7112,60.1213 56.2092,59.6543 C54.9412,58.5693 53.6722,57.4913 52.4032,56.4203 C51.5672,55.7513 50.9602,55.1903 50.5842,54.7313 C50.2072,54.2743 49.9362,53.6833 49.7692,52.9563 C49.6022,52.2323 49.5182,51.2863 49.5182,50.1233 L49.5182,40.9653 C49.5182,35.8663 51.1192,33.1973 54.3272,33.0383 C55.1632,32.9993 56.0002,32.9643 56.8372,32.9333 C60.0442,32.8123 61.6512,35.4053 61.6512,40.6293 L61.6512,45.0913 C60.3112,45.1033 58.9722,45.1213 57.6322,45.1423" id="Fill-48" fill="#414042"></path>
                <path d="M64.9994,78.5955 L64.9994,32.7415 C68.3194,32.7115 71.6424,32.7375 74.9624,32.8205 L74.9624,38.3565 C72.9804,38.3185 70.9994,38.2965 69.0184,38.2895 L69.0184,52.2175 C70.7764,52.2195 72.5344,52.2235 74.2924,52.2295 L74.2924,57.7715 C72.5344,57.7745 70.7764,57.7775 69.0184,57.7775 L69.0184,73.0475 C70.9994,73.0405 72.9804,73.0195 74.9624,72.9815 L74.9624,78.5175 C71.6424,78.6005 68.3194,78.6265 64.9994,78.5955" id="Fill-50" fill="#414042"></path>
                <path d="M86.7983,77.9802 L86.7983,57.7202 C85.1543,57.7302 83.5103,57.7392 81.8643,57.7472 L81.8643,78.2622 C80.5273,78.3292 79.1873,78.3842 77.8493,78.4312 L77.8493,32.9062 C79.1883,32.9532 80.5273,33.0082 81.8643,33.0752 L81.8643,52.2702 C83.5103,52.2822 85.1533,52.2952 86.7983,52.3132 L86.7983,33.3572 C88.1353,33.4452 89.4733,33.5432 90.8093,33.6502 L90.8093,77.6872 C89.4733,77.7942 88.1353,77.8922 86.7983,77.9802" id="Fill-52" fill="#414042"></path>
                <path d="M100.1528,71.6707 C100.8348,71.6127 101.5148,71.5527 102.1948,71.4917 C103.2498,71.3947 103.7768,70.5357 103.7768,68.9247 L103.7768,42.4127 C103.7768,40.8017 103.1798,39.9377 101.9868,39.8267 C101.3618,39.7707 100.7368,39.7167 100.1118,39.6617 C98.9448,39.5627 98.3608,40.3477 98.3608,42.0117 L98.3608,69.3257 C98.3608,70.9897 98.9588,71.7747 100.1528,71.6707 M99.1948,76.8957 C95.9718,77.2567 94.3578,74.9317 94.3578,70.0037 L94.3578,41.3947 C94.3578,36.4257 95.9578,34.0797 99.1538,34.4377 C100.4308,34.5767 101.7088,34.7247 102.9858,34.8807 C106.1758,35.2907 107.7678,37.8297 107.7678,42.4147 L107.7678,68.9787 C107.7678,73.5257 106.1628,76.0487 102.9438,76.4627 C101.6948,76.6147 100.4458,76.7587 99.1948,76.8957" id="Fill-54" fill="#414042"></path>
                <path d="M120.7436,73.7215 C117.6016,74.3055 114.4546,74.8375 111.2996,75.3165 L111.2996,36.0215 C112.6276,36.2235 113.9546,36.4345 115.2806,36.6545 L115.2806,70.0755 C117.1036,69.8465 118.9246,69.6035 120.7436,69.3465 L120.7436,73.7215" id="Fill-56" fill="#414042"></path>
                <path d="M126.974,68.4158 C127.962,68.2588 128.951,68.0998 129.938,67.9358 C130.979,67.7588 131.499,67.1978 131.499,66.2588 L131.499,45.9618 C131.499,44.4368 130.911,43.5688 129.732,43.3688 C128.813,43.2168 127.894,43.0678 126.974,42.9218 L126.974,68.4158 Z M123.014,73.2908 L123.014,38.0478 C125.313,38.4938 127.607,38.9688 129.896,39.4708 C133.597,40.3248 135.439,42.6998 135.44,46.4818 L135.44,66.2698 C135.439,69.1248 133.87,70.9568 130.719,71.6858 C128.156,72.2558 125.587,72.7898 123.014,73.2908 Z" id="Fill-58" fill="#414042"></path>
                <path d="M0.3549,96.5994 L0.3549,76.6384 C2.5469,76.9864 4.7409,77.3164 6.9359,77.6284 C6.9379,78.3954 6.9389,79.1614 6.9409,79.9264 C5.6299,79.7634 4.3199,79.5934 3.0099,79.4184 C3.0119,81.3964 3.0139,83.3754 3.0149,85.3554 C4.1789,85.4554 5.3429,85.5544 6.5089,85.6514 C6.5099,86.4194 6.5109,87.1884 6.5119,87.9574 C5.3459,87.8814 4.1819,87.8034 3.0169,87.7234 C3.0189,89.8924 3.0209,92.0614 3.0229,94.2304 C4.3369,94.2544 5.6529,94.2784 6.9669,94.2994 C6.9679,95.0664 6.9689,95.8324 6.9709,96.5994 L0.3549,96.5994" id="Fill-60" fill="#414042"></path>
                <path d="M13.9604,83.4148 C13.9584,82.8888 13.9574,82.3608 13.9554,81.8338 C13.9524,81.1138 13.5634,80.7118 12.7884,80.6238 C12.6484,80.6068 12.5114,80.5928 12.3714,80.5758 C11.6134,80.4888 11.2364,80.8118 11.2384,81.5468 C11.2414,82.5618 11.2434,83.5778 11.2464,84.5938 C11.2474,84.9348 11.3214,85.1718 11.4704,85.3028 C11.6194,85.4348 11.8584,85.6048 12.1934,85.8178 C13.0364,86.2978 13.8794,86.7688 14.7234,87.2298 C15.2784,87.5508 15.6734,87.7928 15.9054,87.9638 C16.1364,88.1338 16.3184,88.3328 16.4484,88.5628 C16.5784,88.7928 16.6474,89.2188 16.6484,89.8428 C16.6534,91.1018 16.6574,92.3588 16.6624,93.6158 C16.6704,95.5998 15.6004,96.5948 13.4484,96.5998 L11.8094,96.5998 C9.6774,96.6058 8.6084,95.4568 8.6044,93.1538 C8.6034,92.8408 8.6024,92.5268 8.6014,92.2148 C9.4904,92.2428 10.3794,92.2698 11.2694,92.2978 C11.2704,92.6318 11.2714,92.9648 11.2724,93.2968 C11.2734,94.0148 11.6724,94.3778 12.4694,94.3908 C12.6264,94.3938 12.7844,94.3958 12.9414,94.3978 C13.6454,94.4078 13.9964,94.0628 13.9934,93.3598 C13.9904,92.3378 13.9874,91.3168 13.9834,90.2958 C13.9814,89.9618 13.9084,89.7318 13.7594,89.6058 C13.6104,89.4828 13.3694,89.3198 13.0354,89.1168 C12.1914,88.6438 11.3504,88.1608 10.5064,87.6688 C9.9514,87.3578 9.5474,87.0968 9.2974,86.8878 C9.0484,86.6808 8.8664,86.4198 8.7544,86.1068 C8.6434,85.7938 8.5864,85.3938 8.5864,84.9068 C8.5834,83.6268 8.5804,82.3478 8.5764,81.0688 C8.5714,78.9228 9.6304,78.0038 11.7554,78.2878 C12.3094,78.3608 12.8634,78.4328 13.4184,78.5028 C15.5434,78.7768 16.6094,79.9108 16.6184,81.9288 C16.6194,82.5038 16.6224,83.0788 16.6244,83.6538 C15.7364,83.5768 14.8484,83.4968 13.9604,83.4148" id="Fill-62" fill="#414042"></path>
                <path d="M23.0824,81.6756 C23.1044,86.6516 23.1274,91.6236 23.1504,96.5996 L20.4814,96.5996 C20.4604,91.5406 20.4384,86.4826 20.4164,81.4256 C19.5654,81.3426 18.7134,81.2576 17.8634,81.1696 C17.8604,80.4606 17.8574,79.7526 17.8544,79.0436 C20.4434,79.3456 23.0354,79.6226 25.6294,79.8776 C25.6324,80.5536 25.6364,81.2286 25.6394,81.9046 C24.7864,81.8296 23.9344,81.7536 23.0824,81.6756" id="Fill-64" fill="#414042"></path>
                <path d="M29.8959,94.6199 C30.5639,94.6279 31.2309,94.6349 31.8989,94.6409 C32.6019,94.6469 32.9539,94.4199 32.9509,93.9579 C32.9459,92.7709 32.9399,91.5849 32.9329,90.3989 C32.9299,89.6389 32.3999,89.2389 31.3429,89.1969 C30.8509,89.1789 30.3609,89.1589 29.8699,89.1399 C29.8779,90.9669 29.8879,92.7929 29.8959,94.6199 M29.8599,87.1599 C30.2779,87.1819 30.6939,87.2019 31.1109,87.2219 C32.1289,87.2719 32.6379,86.9069 32.6339,86.1309 C32.6299,85.2939 32.6269,84.4579 32.6229,83.6199 C32.6199,82.8439 32.2169,82.4269 31.4199,82.3679 C30.8909,82.3279 30.3639,82.2879 29.8349,82.2469 C29.8439,83.8859 29.8519,85.5209 29.8599,87.1599 M33.3959,88.3589 C34.8619,88.7469 35.5979,89.3749 35.6029,90.2579 C35.6089,91.5839 35.6159,92.9089 35.6219,94.2349 C35.6289,95.8089 34.6229,96.5969 32.6029,96.5989 L27.2379,96.5989 C27.2099,91.0739 27.1839,85.5509 27.1579,80.0249 C28.6759,80.1679 30.1969,80.3039 31.7169,80.4319 C34.0909,80.6339 35.2829,81.6769 35.2919,83.5899 C35.2969,84.6079 35.3019,85.6269 35.3069,86.6439 C35.3119,87.5579 34.6729,88.0919 33.3949,88.2469 L33.3959,88.3589" id="Fill-66" fill="#414042"></path>
                <path d="M44.1947,96.5994 L37.8557,96.5994 C37.8307,91.3654 37.8067,86.1304 37.7817,80.8964 C38.6737,80.9574 39.5647,81.0174 40.4557,81.0734 C40.4767,85.6214 40.4977,90.1694 40.5177,94.7164 C41.7407,94.7264 42.9637,94.7364 44.1867,94.7444 C44.1887,95.3624 44.1917,95.9814 44.1947,96.5994" id="Fill-68" fill="#414042"></path>
                <path d="M45.7231,96.5994 C45.7021,91.5234 45.6831,86.4474 45.6621,81.3714 C46.5551,81.4174 47.4471,81.4604 48.3381,81.5004 C48.3571,86.5334 48.3741,91.5664 48.3931,96.5994 L45.7231,96.5994" id="Fill-70" fill="#414042"></path>
                <path d="M55.9838,85.7586 C55.9818,85.3256 55.9818,84.8926 55.9808,84.4576 C55.9798,83.8666 55.5888,83.5626 54.8068,83.5416 C54.6688,83.5376 54.5298,83.5336 54.3908,83.5306 C53.6288,83.5096 53.2498,83.7956 53.2518,84.3906 C53.2538,85.2146 53.2558,86.0376 53.2568,86.8626 C53.2578,87.1406 53.3318,87.3276 53.4818,87.4266 C53.6298,87.5266 53.8728,87.6556 54.2068,87.8146 C55.0508,88.1676 55.8978,88.5186 56.7438,88.8656 C57.3008,89.1096 57.6948,89.2946 57.9268,89.4276 C58.1598,89.5616 58.3398,89.7186 58.4708,89.9066 C58.6008,90.0926 58.6678,90.4456 58.6688,90.9666 C58.6698,92.0156 58.6718,93.0636 58.6728,94.1126 C58.6758,95.7696 57.6018,96.5986 55.4528,96.5996 L53.8138,96.5996 C51.6808,96.6016 50.6128,95.6816 50.6068,93.8416 C50.6058,93.5896 50.6058,93.3386 50.6048,93.0876 C51.4948,93.0956 52.3858,93.1036 53.2748,93.1116 C53.2758,93.3806 53.2768,93.6516 53.2778,93.9206 C53.2798,94.5026 53.6768,94.7946 54.4758,94.7966 C54.6328,94.7966 54.7918,94.7976 54.9488,94.7986 C55.6528,94.8006 56.0048,94.5146 56.0028,93.9356 C56.0008,93.0956 55.9988,92.2566 55.9968,91.4166 C55.9968,91.1426 55.9218,90.9546 55.7728,90.8566 C55.6248,90.7586 55.3818,90.6316 55.0478,90.4766 C54.2038,90.1146 53.3578,89.7506 52.5118,89.3816 C51.9558,89.1516 51.5508,88.9566 51.2998,88.7976 C51.0478,88.6396 50.8678,88.4376 50.7548,88.1916 C50.6428,87.9456 50.5878,87.6266 50.5858,87.2376 C50.5818,86.2126 50.5788,85.1896 50.5748,84.1646 C50.5688,82.4486 51.6338,81.6376 53.7728,81.7086 C54.3308,81.7276 54.8858,81.7446 55.4448,81.7606 C57.5828,81.8206 58.6528,82.6816 58.6558,84.3666 C58.6568,84.8466 58.6578,85.3266 58.6588,85.8066 C57.7668,85.7916 56.8748,85.7786 55.9838,85.7586" id="Fill-72" fill="#414042"></path>
                <path d="M66.851,96.5994 C66.851,94.3784 66.85,92.1594 66.85,89.9404 C65.754,89.9394 64.661,89.9364 63.566,89.9314 C63.568,92.1534 63.57,94.3754 63.572,96.5994 L60.902,96.5994 C60.895,91.6924 60.887,86.7864 60.88,81.8794 C61.773,81.8934 62.665,81.9054 63.559,81.9124 C63.56,83.9934 63.562,86.0724 63.564,88.1514 C64.659,88.1584 65.754,88.1614 66.849,88.1624 C66.849,86.0844 66.849,84.0074 66.848,81.9314 C67.741,81.9334 68.633,81.9324 69.525,81.9274 C69.523,86.8194 69.522,91.7084 69.52,96.5994 L66.851,96.5994" id="Fill-74" fill="#414042"></path>
                <path d="M72.0219,96.5994 C72.0269,91.7034 72.0309,86.8054 72.0359,81.9094 C74.2479,81.8864 76.4589,81.8464 78.6709,81.7894 C78.6689,82.3874 78.6679,82.9854 78.6669,83.5844 C77.3479,83.6144 76.0289,83.6384 74.7099,83.6584 C74.7079,85.1484 74.7059,86.6384 74.7029,88.1284 C75.8729,88.1184 77.0429,88.1034 78.2109,88.0874 C78.2089,88.6854 78.2089,89.2834 78.2089,89.8794 C77.0389,89.8934 75.8699,89.9054 74.7009,89.9134 C74.6979,91.5464 74.6949,93.1804 74.6929,94.8144 C76.0089,94.8124 77.3259,94.8084 78.6419,94.8044 C78.6409,95.4024 78.6399,96.0004 78.6379,96.5994 L72.0219,96.5994" id="Fill-76" fill="#414042"></path>
                <path d="M83.2309,94.7879 C83.8979,94.7849 84.5639,94.7809 85.2319,94.7779 C85.9369,94.7739 86.2919,94.5499 86.2939,94.1009 C86.3029,90.8819 86.3149,87.6619 86.3269,84.4429 C86.3299,83.7149 85.9299,83.3659 85.1319,83.3949 C84.5099,83.4169 83.8869,83.4379 83.2649,83.4589 C83.2529,87.2339 83.2419,91.0109 83.2309,94.7879 M80.5559,96.5999 C80.5699,91.6449 80.5829,86.6899 80.5949,81.7359 C82.1459,81.6899 83.6969,81.6339 85.2489,81.5709 C87.7579,81.4649 89.0069,82.3699 88.9999,84.3209 C88.9869,87.6799 88.9729,91.0389 88.9599,94.3979 C88.9549,95.8679 87.8869,96.5999 85.7529,96.5999 L80.5559,96.5999" id="Fill-78" fill="#414042"></path>
                <path d="M95.7621,96.5994 C95.7861,91.4014 95.8111,86.2034 95.8341,81.0054 C96.7251,80.9474 97.6161,80.8854 98.5061,80.8224 C98.4811,86.0804 98.4551,91.3404 98.4311,96.5994 L95.7621,96.5994" id="Fill-80" fill="#414042"></path>
                <path d="M106.5072,88.1082 C106.5192,85.4612 106.5312,82.8142 106.5452,80.1662 C107.4352,80.0852 108.3232,80.0012 109.2132,79.9162 C109.1872,85.4762 109.1602,91.0382 109.1332,96.5992 L106.4652,96.5992 C106.4712,95.5092 106.4752,94.4172 106.4812,93.3272 C105.5392,90.8492 104.5962,88.4102 103.6532,86.0062 C103.6362,89.5372 103.6192,93.0682 103.6012,96.5992 L100.9342,96.5992 C100.9592,91.2772 100.9862,85.9552 101.0122,80.6342 C101.9012,80.5632 102.7912,80.4922 103.6812,80.4172 C104.6232,82.9432 105.5652,85.5052 106.5072,88.1082" id="Fill-82" fill="#414042"></path>
                <path d="M118.8617,82.324 C118.8577,83.303 118.8537,84.283 118.8507,85.262 C118.8467,86.118 119.2447,86.52 120.0397,86.466 C120.1407,86.459 120.2447,86.451 120.3447,86.444 C121.1407,86.271 121.5417,85.815 121.5437,85.076 C121.5477,84.07 121.5497,83.062 121.5537,82.056 C121.5567,81.184 121.1597,80.793 120.3657,80.879 C120.2627,80.89 120.1617,80.9 120.0587,80.912 C119.2647,80.998 118.8647,81.469 118.8617,82.324 M119.8177,94.435 C120.0487,94.432 120.2807,94.428 120.5107,94.425 C121.3087,94.413 121.7077,93.97 121.7107,93.097 C121.7147,91.972 121.7177,90.847 121.7217,89.72 C121.7247,88.863 121.2157,88.465 120.1997,88.523 C119.1627,88.597 118.6417,89.036 118.6397,89.841 C118.6347,90.951 118.6307,92.06 118.6277,93.17 C118.6237,94.025 119.0197,94.446 119.8177,94.435 M118.0927,87.605 C116.8157,87.434 116.1797,86.77 116.1847,85.607 C116.1897,84.458 116.1947,83.31 116.1997,82.162 C116.2077,80.177 117.2757,79.064 119.4007,78.803 C119.9477,78.736 120.4937,78.669 121.0397,78.6 C123.1637,78.328 124.2227,79.234 124.2167,81.344 C124.2137,82.565 124.2097,83.787 124.2067,85.01 C124.2027,86.241 123.6187,87.028 122.4507,87.356 C123.7467,87.608 124.3907,88.303 124.3877,89.435 C124.3837,90.779 124.3817,92.123 124.3777,93.467 C124.3727,95.56 123.3017,96.605 121.1707,96.599 L119.1427,96.599 C117.0087,96.595 115.9477,95.609 115.9567,93.643 C115.9627,92.367 115.9677,91.09 115.9727,89.813 C115.9767,88.749 116.6847,88.018 118.0927,87.605" id="Fill-84" fill="#414042"></path>
                <path d="M132.2133,87.0691 C132.2153,84.9111 132.2173,82.7501 132.2193,80.5901 C132.2193,79.8071 131.7873,79.4761 130.9213,79.5901 C130.8183,79.6041 130.7173,79.6171 130.6153,79.6311 C129.8233,79.7341 129.4243,80.1671 129.4223,80.9301 C129.4203,82.5821 129.4183,84.2341 129.4153,85.8861 C129.4133,86.8091 129.8133,87.2431 130.6073,87.1861 C131.1423,87.1481 131.6793,87.1091 132.2133,87.0691 M129.5723,92.1161 C129.5723,92.3751 129.5713,92.6321 129.5713,92.8911 C129.5703,93.8131 129.9673,94.2691 130.7653,94.2561 C130.8933,94.2541 131.0243,94.2521 131.1523,94.2491 C131.8573,94.2371 132.2093,93.8491 132.2093,93.0881 C132.2103,91.5071 132.2113,89.9281 132.2123,88.3491 C131.6573,88.7481 131.1033,89.1411 130.5473,89.5291 C130.3443,89.5411 130.1403,89.5521 129.9373,89.5631 C127.8093,89.6711 126.7483,88.6091 126.7533,86.3861 C126.7573,84.6351 126.7613,82.8851 126.7643,81.1341 C126.7693,78.9451 127.8323,77.7041 129.9533,77.3881 C130.5343,77.3031 131.1153,77.2181 131.6963,77.1311 C133.8173,76.8031 134.8763,77.7981 134.8763,80.1421 L134.8763,93.0411 C134.8763,95.4211 133.8123,96.6071 131.6793,96.5991 L130.0933,96.5991 C127.9633,96.5921 126.9013,95.4761 126.9053,93.2511 C126.9063,92.9021 126.9063,92.5531 126.9073,92.2051 C127.7953,92.1761 128.6853,92.1451 129.5723,92.1161" id="Fill-86" fill="#414042"></path>
                <polygon id="Fill-88" fill="#414042" points="67.6166 12.3611 69.1206 15.4101 72.4846 15.8991 70.0506 18.2721 70.6266 21.6231 67.6166 20.0401 64.6066 21.6231 65.1806 18.2721 62.7466 15.8991 66.1116 15.4101"></polygon>
                <path d="M17.2358,104.5125 L17.2258,106.3375 C17.2238,106.5445 17.1678,106.7005 17.0608,106.8065 C16.9498,106.9115 16.8178,106.9615 16.6608,106.9615 C16.4438,106.9595 16.2158,106.8475 15.9908,106.6285 L15.6488,107.0975 C15.9348,107.3865 16.2888,107.5345 16.6978,107.5375 C17.0268,107.5395 17.2958,107.4405 17.5038,107.2345 C17.7128,107.0285 17.8198,106.7205 17.8228,106.3105 L17.8358,103.9805 L16.1168,103.9705 L16.1138,104.5065 L17.2358,104.5125 Z M20.2988,103.9895 L20.2788,107.5225 L22.8218,107.5365 L22.8248,106.9765 L20.8788,106.9645 L20.8838,106.0195 L22.5778,106.0295 L22.5808,105.4985 L20.8868,105.4895 L20.8928,104.5535 L22.7778,104.5645 L22.7818,104.0035 L20.2988,103.9895 Z M27.4658,104.5795 L27.4738,104.0245 L25.1188,104.0105 L25.0978,107.5435 L25.6948,107.5475 L25.7028,106.0915 L27.2698,106.1005 L27.2728,105.5495 L25.7068,105.5405 L25.7118,104.5705 L27.4658,104.5795 Z M32.0328,104.6005 L32.0408,104.0445 L29.6848,104.0315 L29.6648,107.5645 L30.2608,107.5685 L30.2698,106.1125 L31.8368,106.1205 L31.8398,105.5705 L30.2728,105.5615 L30.2778,104.5905 L32.0328,104.6005 Z M34.2518,104.0515 L34.2308,107.5845 L36.7738,107.5995 L36.7768,107.0385 L34.8308,107.0275 L34.8368,106.0815 L36.5298,106.0915 L36.5328,105.5615 L34.8398,105.5515 L34.8448,104.6165 L36.7298,104.6265 L36.7338,104.0665 L34.2518,104.0515 Z" id="Fill-90" fill="#010202"></path>
                <path d="M41.5434,104.3611 C41.3124,104.1781 40.9284,104.0851 40.3874,104.0821 L39.0724,104.0741 L39.0524,107.6081 L39.6484,107.6111 L39.6554,106.4241 L40.4394,106.4271 L41.2764,107.6211 L42.0344,107.6251 L41.1164,106.3361 C41.6284,106.1871 41.8834,105.8191 41.8874,105.2381 C41.8894,104.8391 41.7744,104.5451 41.5434,104.3611 M40.4014,105.8861 L39.6584,105.8821 L39.6654,104.6191 L40.4244,104.6231 C40.7424,104.6251 40.9654,104.6671 41.0914,104.7531 C41.2164,104.8401 41.2764,105.0021 41.2744,105.2291 C41.2734,105.4621 41.2124,105.6291 41.0904,105.7341 C40.9684,105.8401 40.7404,105.8881 40.4014,105.8861 M45.8594,104.6631 C46.0364,104.7241 46.1784,104.8011 46.2834,104.8971 L46.6054,104.4501 C46.4434,104.3121 46.2524,104.2101 46.0294,104.1321 C45.8084,104.0551 45.5854,104.0191 45.3584,104.0171 C45.0094,104.0151 44.7164,104.1001 44.4774,104.2751 C44.2384,104.4511 44.1154,104.7031 44.1134,105.0321 C44.1114,105.3601 44.2174,105.6031 44.4234,105.7611 C44.5284,105.8481 44.6454,105.9151 44.7804,105.9651 C44.9174,106.0221 45.1134,106.0791 45.3714,106.1411 C45.6284,106.2091 45.8154,106.2751 45.9214,106.3511 C46.0264,106.4281 46.0764,106.5351 46.0764,106.6711 C46.0754,106.8071 46.0194,106.9191 45.9074,106.9991 C45.7904,107.0841 45.6394,107.1241 45.4464,107.1221 C45.0634,107.1201 44.6944,106.9621 44.3374,106.6511 L43.9604,107.0981 C44.3884,107.4801 44.8774,107.6751 45.4284,107.6781 C45.8074,107.6801 46.1114,107.5861 46.3454,107.3951 C46.5784,107.2051 46.6964,106.9531 46.6974,106.6441 C46.6994,106.3361 46.6094,106.1021 46.4294,105.9451 C46.2424,105.7871 45.9714,105.6591 45.6124,105.5711 C45.2484,105.4831 45.0124,105.3961 44.9004,105.3191 C44.7904,105.2431 44.7344,105.1361 44.7354,104.9901 C44.7364,104.8481 44.7934,104.7431 44.9044,104.6731 C45.0164,104.6021 45.1574,104.5681 45.3354,104.5691 C45.5074,104.5701 45.6844,104.6011 45.8594,104.6631" id="Fill-92" fill="#010202"></path>
                <path d="M51.8354,105.8738 C51.8334,106.2318 51.7104,106.5348 51.4714,106.7808 C51.2284,107.0278 50.9284,107.1518 50.5794,107.1498 C50.2314,107.1478 49.9334,107.0198 49.6974,106.7708 C49.4564,106.5218 49.3364,106.2188 49.3384,105.8588 C49.3404,105.5058 49.4634,105.2028 49.7074,104.9568 C49.9464,104.7098 50.2454,104.5858 50.5944,104.5878 C50.9424,104.5898 51.2404,104.7178 51.4814,104.9668 C51.7184,105.2158 51.8374,105.5198 51.8354,105.8738 Z M52.4474,105.8768 C52.4504,105.3558 52.2754,104.9208 51.9194,104.5698 C51.5624,104.2188 51.1234,104.0448 50.5984,104.0418 C50.0714,104.0388 49.6314,104.2078 49.2704,104.5548 C48.9094,104.9008 48.7304,105.3348 48.7274,105.8548 C48.7244,106.3768 48.8974,106.8118 49.2554,107.1628 C49.6114,107.5138 50.0514,107.6928 50.5764,107.6958 C51.1024,107.6988 51.5434,107.5248 51.9034,107.1788 C52.2654,106.8318 52.4444,106.3978 52.4474,105.8768 Z M57.3564,106.7978 L55.3194,104.1468 L54.7234,104.1448 L54.7034,107.6778 L55.2994,107.6808 L55.3144,105.1028 L57.3014,107.6918 L57.9484,107.6958 L57.9694,104.1628 L57.3724,104.1588 L57.3564,106.7978 Z M65.6164,106.9258 L65.9654,107.7308 L66.6034,107.7348 L65.0654,104.1918 L64.4294,104.1888 L62.8524,107.7138 L63.4884,107.7168 L63.8474,106.9148 L65.6164,106.9258 Z M64.0934,106.3658 L64.7434,104.9138 L65.3774,106.3728 L64.0934,106.3658 Z M71.2604,106.8598 L69.2234,104.2098 L68.6264,104.2058 L68.6064,107.7398 L69.2024,107.7428 L69.2174,105.1648 L71.2044,107.7548 L71.8524,107.7588 L71.8724,104.2258 L71.2754,104.2218 L71.2604,106.8598 Z M75.5784,104.2388 L74.3654,104.2318 L74.3454,107.7658 L75.5184,107.7718 C76.2004,107.7758 76.7074,107.6168 77.0374,107.3008 C77.3674,106.9838 77.5374,106.5508 77.5404,105.9998 C77.5434,105.4478 77.3744,105.0178 77.0374,104.7078 C76.7004,104.3968 76.2104,104.2428 75.5784,104.2388 Z M76.5954,106.9088 C76.3664,107.1148 76.0364,107.2138 75.6064,107.2118 L74.9444,107.2078 L74.9594,104.7868 L75.5554,104.7898 C76.4814,104.7948 76.9434,105.2018 76.9394,106.0118 C76.9364,106.4108 76.8234,106.7078 76.5954,106.9088 Z M84.3254,104.8348 C84.5024,104.8958 84.6444,104.9738 84.7494,105.0698 L85.0704,104.6218 C84.9094,104.4838 84.7184,104.3818 84.4954,104.3048 C84.2734,104.2278 84.0514,104.1908 83.8234,104.1898 C83.4754,104.1878 83.1824,104.2718 82.9424,104.4478 C82.7044,104.6228 82.5814,104.8758 82.5794,105.2038 C82.5774,105.5318 82.6834,105.7758 82.8894,105.9338 C82.9944,106.0198 83.1104,106.0868 83.2464,106.1378 C83.3834,106.1938 83.5794,106.2508 83.8374,106.3128 C84.0944,106.3808 84.2814,106.4468 84.3874,106.5228 C84.4924,106.6008 84.5424,106.7068 84.5414,106.8428 C84.5414,106.9788 84.4844,107.0908 84.3734,107.1708 C84.2564,107.2558 84.1054,107.2958 83.9124,107.2948 C83.5274,107.2918 83.1594,107.1338 82.8034,106.8228 L82.4264,107.2698 C82.8544,107.6518 83.3434,107.8478 83.8944,107.8508 C84.2734,107.8528 84.5764,107.7588 84.8114,107.5668 C85.0444,107.3768 85.1624,107.1248 85.1634,106.8158 C85.1654,106.5078 85.0754,106.2748 84.8954,106.1168 C84.7084,105.9588 84.4374,105.8308 84.0774,105.7428 C83.7144,105.6548 83.4774,105.5678 83.3664,105.4918 C83.2564,105.4148 83.2004,105.3088 83.2014,105.1618 C83.2024,105.0198 83.2594,104.9148 83.3704,104.8448 C83.4814,104.7738 83.6234,104.7398 83.8014,104.7408 C83.9734,104.7418 84.1494,104.7728 84.3254,104.8348 Z M90.3014,106.0458 C90.2994,106.4048 90.1764,106.7078 89.9374,106.9538 C89.6924,107.1998 89.3944,107.3248 89.0454,107.3228 C88.6964,107.3208 88.3984,107.1928 88.1624,106.9438 C87.9214,106.6948 87.8024,106.3908 87.8044,106.0318 C87.8064,105.6778 87.9294,105.3758 88.1734,105.1288 C88.4124,104.8828 88.7114,104.7578 89.0604,104.7598 C89.4084,104.7618 89.7064,104.8908 89.9474,105.1398 C90.1844,105.3888 90.3034,105.6918 90.3014,106.0458 Z M90.9134,106.0498 C90.9164,105.5288 90.7414,105.0938 90.3854,104.7418 C90.0274,104.3918 89.5894,104.2168 89.0634,104.2138 C88.5374,104.2108 88.0974,104.3808 87.7354,104.7278 C87.3754,105.0738 87.1954,105.5078 87.1924,106.0278 C87.1894,106.5488 87.3634,106.9848 87.7214,107.3358 C88.0774,107.6858 88.5174,107.8658 89.0424,107.8688 C89.5674,107.8718 90.0094,107.6968 90.3694,107.3508 C90.7314,107.0038 90.9104,106.5698 90.9134,106.0498 Z" id="Fill-94" fill="#010202"></path>
                <path d="M95.8217,106.9705 L93.7847,104.3205 L93.1877,104.3165 L93.1677,107.8505 L93.7637,107.8535 L93.7787,105.2755 L95.7657,107.8655 L96.4127,107.8685 L96.4327,104.3345 L95.8367,104.3315 L95.8217,106.9705 Z M100.5207,104.9075 C100.6977,104.9695 100.8387,105.0455 100.9447,105.1425 L101.2647,104.6945 C101.1037,104.5565 100.9127,104.4545 100.6907,104.3775 C100.4687,104.3005 100.2467,104.2635 100.0187,104.2625 C99.6707,104.2605 99.3767,104.3445 99.1377,104.5205 C98.8997,104.6965 98.7767,104.9485 98.7747,105.2765 C98.7727,105.6055 98.8777,105.8485 99.0847,106.0065 C99.1897,106.0925 99.3047,106.1585 99.4417,106.2105 C99.5777,106.2675 99.7747,106.3245 100.0327,106.3855 C100.2897,106.4525 100.4757,106.5195 100.5827,106.5965 C100.6877,106.6725 100.7377,106.7795 100.7367,106.9155 C100.7357,107.0525 100.6797,107.1625 100.5677,107.2425 C100.4517,107.3285 100.2997,107.3675 100.1077,107.3665 C99.7227,107.3655 99.3547,107.2055 98.9987,106.8955 L98.6217,107.3435 C99.0497,107.7245 99.5387,107.9195 100.0897,107.9225 C100.4677,107.9255 100.7717,107.8305 101.0057,107.6405 C101.2397,107.4495 101.3567,107.1975 101.3587,106.8885 C101.3607,106.5805 101.2707,106.3475 101.0907,106.1895 C100.9037,106.0325 100.6317,105.9045 100.2727,105.8165 C99.9097,105.7285 99.6727,105.6405 99.5617,105.5645 C99.4507,105.4885 99.3957,105.3815 99.3967,105.2345 C99.3977,105.0925 99.4537,104.9875 99.5657,104.9165 C99.6767,104.8465 99.8187,104.8125 99.9957,104.8135 C100.1677,104.8145 100.3437,104.8455 100.5207,104.9075 Z M107.2677,107.0095 C107.0267,106.7705 106.9077,106.4665 106.9097,106.1075 C106.9117,105.7485 107.0347,105.4555 107.2787,105.2245 C107.5217,104.9985 107.8217,104.8845 108.1797,104.8865 C108.3827,104.8875 108.5587,104.9185 108.7107,104.9855 C108.8567,105.0515 109.0177,105.1635 109.1837,105.3265 L109.5647,104.9145 C109.1987,104.5075 108.7447,104.3035 108.1987,104.2995 C107.6477,104.2965 107.1967,104.4715 106.8357,104.8185 C106.4747,105.1645 106.2907,105.6035 106.2877,106.1285 C106.2847,106.6555 106.4587,107.0905 106.8107,107.4365 C107.1577,107.7825 107.6007,107.9565 108.1367,107.9595 C108.6687,107.9625 109.1247,107.7575 109.5007,107.3455 L109.1187,106.9495 C108.9567,107.0995 108.7997,107.2095 108.6517,107.2755 C108.5047,107.3445 108.3277,107.3795 108.1207,107.3775 C107.7917,107.3765 107.5047,107.2535 107.2677,107.0095 Z M114.5537,106.1555 C114.5517,106.5135 114.4287,106.8165 114.1897,107.0625 C113.9467,107.3095 113.6467,107.4335 113.2987,107.4315 C112.9497,107.4295 112.6517,107.3015 112.4167,107.0525 C112.1747,106.8035 112.0547,106.4995 112.0567,106.1405 C112.0587,105.7865 112.1817,105.4845 112.4257,105.2385 C112.6657,104.9915 112.9647,104.8665 113.3127,104.8685 C113.6617,104.8705 113.9597,104.9985 114.2007,105.2475 C114.4367,105.4965 114.5557,105.8005 114.5537,106.1555 Z M115.1667,106.1585 C115.1697,105.6375 114.9947,105.2015 114.6377,104.8515 C114.2807,104.4995 113.8427,104.3255 113.3157,104.3235 C112.7907,104.3205 112.3497,104.4895 111.9887,104.8355 C111.6287,105.1825 111.4487,105.6165 111.4457,106.1375 C111.4427,106.6585 111.6167,107.0935 111.9737,107.4445 C112.3307,107.7955 112.7697,107.9745 113.2957,107.9775 C113.8207,107.9805 114.2617,107.8065 114.6227,107.4595 C114.9837,107.1135 115.1637,106.6795 115.1667,106.1585 Z M117.5437,107.9995 C117.6487,108.0005 117.7357,107.9655 117.8117,107.8905 C117.8877,107.8155 117.9247,107.7295 117.9247,107.6225 C117.9257,107.5175 117.8897,107.4305 117.8147,107.3545 C117.7397,107.2825 117.6537,107.2475 117.5477,107.2465 C117.4407,107.2455 117.3547,107.2815 117.2837,107.3515 C117.2077,107.4265 117.1717,107.5125 117.1717,107.6185 C117.1707,107.7245 117.2057,107.8115 117.2807,107.8875 C117.3507,107.9635 117.4367,107.9995 117.5437,107.9995 Z" id="Fill-96" fill="#010202"></path>
            </g>
        </g>
    </g>
</svg>