<?xml version="1.0" encoding="UTF-8"?>
<svg width="129px" height="97px" viewBox="0 0 129 97" version="1.1" xmlns="http://www.w3.org/2000/svg" xmlns:xlink="http://www.w3.org/1999/xlink">
    <!-- Generator: Sketch 49 (51002) - http://www.bohemiancoding.com/sketch -->
    <title>vitage-logo-11</title>
    <desc>Created with Sketch.</desc>
    <defs>
        <polygon id="path-1" points="0.0002 0.7177 128.83 0.7177 128.83 11.5557 0.0002 11.5557"></polygon>
        <polygon id="path-3" points="0.827 0.045 3.91 0.045 3.91 4.1182 0.827 4.1182"></polygon>
    </defs>
    <g id="Page-1" stroke="none" stroke-width="1" fill="none" fill-rule="evenodd">
        <g id="vitage-logo-11" transform="translate(0.000000, -1.000000)">
            <g id="Group-3" transform="translate(0.000000, 48.955500)">
                <mask id="mask-2" fill="white">
                    <use xlink:href="#path-1"></use>
                </mask>
                <g id="Clip-2"></g>
                <path d="M7.0682,1.1467 L4.6122,1.1467 C4.2132,1.1467 3.8982,1.4747 3.8982,1.8607 C3.8982,2.2597 4.2132,2.5747 4.6122,2.5747 L6.3542,2.5747 L6.3542,7.3727 C6.3542,10.6137 1.4422,10.6137 1.4422,7.3727 C1.4422,6.9867 1.1142,6.6587 0.7142,6.6587 C0.3292,6.6587 0.0002,6.9867 0.0002,7.3727 C0.0002,12.4987 7.7822,12.4987 7.7822,7.3727 L7.7822,1.8607 C7.7822,1.4747 7.4682,1.1467 7.0682,1.1467 M14.5652,11.5557 C21.6902,11.5557 21.6902,0.7177 14.5652,0.7177 C7.4392,0.7177 7.4392,11.5557 14.5652,11.5557 M14.5652,2.1457 C19.8052,2.1457 19.8052,10.1277 14.5652,10.1277 C9.3252,10.1277 9.3252,2.1457 14.5652,2.1457 M30.6302,9.7137 L29.8732,9.7137 L29.8732,6.8297 L30.5442,6.8297 C30.9442,6.8297 31.2572,6.5147 31.2572,6.1157 C31.2572,5.7157 30.9442,5.4017 30.5442,5.4017 L29.8732,5.4017 L29.8732,2.5747 L30.5302,2.5747 C30.9292,2.5747 31.2442,2.2597 31.2442,1.8607 C31.2442,1.4747 30.9292,1.1467 30.5302,1.1467 L27.7882,1.1467 C27.3882,1.1467 27.0742,1.4747 27.0742,1.8607 C27.0742,2.2597 27.3882,2.5747 27.7882,2.5747 L28.4452,2.5747 L28.4452,5.4017 L23.6752,5.4017 L23.6752,2.5747 L24.3322,2.5747 C24.7322,2.5747 25.0472,2.2597 25.0472,1.8607 C25.0472,1.4747 24.7322,1.1467 24.3322,1.1467 L21.5902,1.1467 C21.1912,1.1467 20.8772,1.4747 20.8772,1.8607 C20.8772,2.2597 21.1912,2.5747 21.5902,2.5747 L22.2482,2.5747 L22.2482,5.4017 L21.5902,5.4017 C21.1912,5.4017 20.8772,5.7157 20.8772,6.1157 C20.8772,6.5147 21.1912,6.8297 21.5902,6.8297 L22.2482,6.8297 L22.2482,9.7137 L21.5902,9.7137 C21.1912,9.7137 20.8772,10.0277 20.8772,10.4277 C20.8772,10.8137 21.1912,11.1417 21.5902,11.1417 L24.3322,11.1417 C24.7322,11.1417 25.0472,10.8137 25.0472,10.4277 C25.0472,10.0277 24.7322,9.7137 24.3322,9.7137 L23.6752,9.7137 L23.6752,6.8297 L28.4452,6.8297 L28.4452,9.7137 L27.8742,9.7137 C27.4882,9.7137 27.1602,10.0277 27.1602,10.4277 C27.1602,10.8137 27.4882,11.1417 27.8742,11.1417 L30.6302,11.1417 C31.0152,11.1417 31.3432,10.8137 31.3432,10.4277 C31.3432,10.0277 31.0152,9.7137 30.6302,9.7137 M42.8242,1.1467 L40.1972,1.1467 C39.7972,1.1467 39.4832,1.4597 39.4832,1.8607 C39.4832,2.2457 39.7972,2.5747 40.1972,2.5747 L40.7972,2.5747 L40.7972,8.3577 L35.2142,1.4317 C35.0562,1.2317 34.8562,1.1467 34.5992,1.1467 L33.3292,1.1467 C32.9282,1.1467 32.6002,1.4597 32.6002,1.8607 C32.6002,2.2457 32.9282,2.5747 33.3292,2.5747 L33.9282,2.5747 L33.9282,9.7137 L33.3292,9.7137 C32.9282,9.7137 32.6002,10.0277 32.6002,10.4277 C32.6002,10.8277 32.9282,11.1417 33.3292,11.1417 L35.9562,11.1417 C36.3562,11.1417 36.6702,10.8277 36.6702,10.4277 C36.6702,10.0277 36.3562,9.7137 35.9562,9.7137 L35.3562,9.7137 L35.3562,3.8877 L40.9392,10.8137 C41.3822,11.3707 42.2242,11.0707 42.2242,10.3567 L42.2242,2.5747 L42.8242,2.5747 C43.2242,2.5747 43.5392,2.2457 43.5392,1.8607 C43.5392,1.4597 43.2242,1.1467 42.8242,1.1467 M58.1612,1.1467 L50.1642,1.1467 C49.7642,1.1467 49.4502,1.4597 49.4502,1.8607 L49.4502,3.3747 C49.4502,3.7737 49.7642,4.0877 50.1642,4.0877 C50.5492,4.0877 50.8782,3.7737 50.8782,3.3747 L50.8782,2.5747 L53.4482,2.5747 L53.4482,9.7137 L52.7922,9.7137 C52.3912,9.7137 52.0782,10.0427 52.0782,10.4277 C52.0782,10.8277 52.3912,11.1417 52.7922,11.1417 L55.5332,11.1417 C55.9332,11.1417 56.2472,10.8277 56.2472,10.4277 C56.2472,10.0427 55.9332,9.7137 55.5332,9.7137 L54.8772,9.7137 L54.8772,2.5747 L57.4472,2.5747 L57.4472,3.3747 C57.4472,3.7737 57.7752,4.0877 58.1612,4.0877 C58.5602,4.0877 58.8752,3.7737 58.8752,3.3747 L58.8752,1.8607 C58.8752,1.4597 58.5602,1.1467 58.1612,1.1467 M69.4562,9.7137 L68.6992,9.7137 L68.6992,6.8297 L69.3702,6.8297 C69.7702,6.8297 70.0842,6.5147 70.0842,6.1157 C70.0842,5.7157 69.7702,5.4017 69.3702,5.4017 L68.6992,5.4017 L68.6992,2.5747 L69.3562,2.5747 C69.7562,2.5747 70.0702,2.2597 70.0702,1.8607 C70.0702,1.4747 69.7562,1.1467 69.3562,1.1467 L66.6142,1.1467 C66.2142,1.1467 65.9002,1.4747 65.9002,1.8607 C65.9002,2.2597 66.2142,2.5747 66.6142,2.5747 L67.2712,2.5747 L67.2712,5.4017 L62.5022,5.4017 L62.5022,2.5747 L63.1592,2.5747 C63.5582,2.5747 63.8732,2.2597 63.8732,1.8607 C63.8732,1.4747 63.5582,1.1467 63.1592,1.1467 L60.4172,1.1467 C60.0172,1.1467 59.7032,1.4747 59.7032,1.8607 C59.7032,2.2597 60.0172,2.5747 60.4172,2.5747 L61.0742,2.5747 L61.0742,5.4017 L60.4172,5.4017 C60.0172,5.4017 59.7032,5.7157 59.7032,6.1157 C59.7032,6.5147 60.0172,6.8297 60.4172,6.8297 L61.0742,6.8297 L61.0742,9.7137 L60.4172,9.7137 C60.0172,9.7137 59.7032,10.0277 59.7032,10.4277 C59.7032,10.8137 60.0172,11.1417 60.4172,11.1417 L63.1592,11.1417 C63.5582,11.1417 63.8732,10.8137 63.8732,10.4277 C63.8732,10.0277 63.5582,9.7137 63.1592,9.7137 L62.5022,9.7137 L62.5022,6.8297 L67.2712,6.8297 L67.2712,9.7137 L66.7002,9.7137 C66.3142,9.7137 65.9862,10.0277 65.9862,10.4277 C65.9862,10.8137 66.3142,11.1417 66.7002,11.1417 L69.4562,11.1417 C69.8412,11.1417 70.1702,10.8137 70.1702,10.4277 C70.1702,10.0277 69.8412,9.7137 69.4562,9.7137 M76.4382,11.5557 C83.5642,11.5557 83.5642,0.7177 76.4382,0.7177 C69.3132,0.7177 69.3132,11.5557 76.4382,11.5557 M76.4382,2.1457 C81.6792,2.1457 81.6792,10.1277 76.4382,10.1277 C71.1982,10.1277 71.1982,2.1457 76.4382,2.1457 M93.2592,9.7137 L92.6882,9.7137 L92.6882,2.6307 L93.2592,2.6307 C93.6452,2.6307 93.9732,2.3177 93.9732,1.9177 C93.9732,1.5177 93.6452,1.2037 93.2592,1.2037 L91.9892,1.2037 C91.7322,1.2037 91.5472,1.3177 91.3892,1.5177 L88.4912,5.3867 L85.2202,1.4597 C85.0912,1.2897 84.8782,1.2037 84.6642,1.2037 L83.4352,1.2037 C83.0362,1.2037 82.7212,1.5177 82.7212,1.9177 C82.7212,2.3177 83.0362,2.6307 83.4352,2.6307 L83.9642,2.6307 L83.9642,9.7137 L83.4352,9.7137 C83.0362,9.7137 82.7212,10.0277 82.7212,10.4277 C82.7212,10.8277 83.0362,11.1417 83.4352,11.1417 L85.9212,11.1417 C86.3202,11.1417 86.6342,10.8277 86.6342,10.4277 C86.6342,10.0277 86.3202,9.7137 85.9212,9.7137 L85.3922,9.7137 L85.3922,3.9027 L87.9632,6.9867 C88.2482,7.3437 88.8192,7.3297 89.1042,6.9587 L91.2602,4.0587 L91.2602,9.7137 L90.7472,9.7137 C90.3612,9.7137 90.0332,10.0277 90.0332,10.4277 C90.0332,10.8277 90.3612,11.1417 90.7472,11.1417 L93.2592,11.1417 C93.6452,11.1417 93.9732,10.8277 93.9732,10.4277 C93.9732,10.0277 93.6452,9.7137 93.2592,9.7137 M102.7842,5.4167 L98.3582,5.4167 C96.5022,5.4167 96.4872,2.5597 98.3582,2.5597 L101.9422,2.5597 C102.6282,2.5597 103.3552,2.8597 103.3552,3.7027 C103.3552,4.0877 103.6842,4.4167 104.0842,4.4167 C104.4692,4.4167 104.7972,4.0877 104.7972,3.7027 L104.7972,1.7317 C104.7972,1.3327 104.4692,1.0027 104.0842,1.0027 C103.7842,1.0027 103.5272,1.1887 103.4132,1.4597 C102.9992,1.2467 102.4992,1.1317 101.9422,1.1317 L98.3582,1.1317 C94.6022,1.1317 94.6172,6.8577 98.3582,6.8577 L102.7842,6.8577 C104.6272,6.8577 104.6552,9.7137 102.7842,9.7137 L98.2572,9.7137 C97.5152,9.7137 96.7582,9.3287 96.7582,8.4577 C96.7582,8.0577 96.4302,7.7437 96.0452,7.7437 C95.6442,7.7437 95.3162,8.0577 95.3162,8.4577 C95.3162,10.0137 96.5582,11.1417 98.2572,11.1417 L102.7842,11.1417 C106.5402,11.1417 106.5112,5.4167 102.7842,5.4167 M111.9522,11.5557 C119.0772,11.5557 119.0772,0.7177 111.9522,0.7177 C104.8272,0.7177 104.8272,11.5557 111.9522,11.5557 M111.9522,2.1457 C117.1922,2.1457 117.1922,10.1277 111.9522,10.1277 C106.7122,10.1277 106.7122,2.1457 111.9522,2.1457 M128.1162,1.1467 L125.4892,1.1467 C125.0892,1.1467 124.7752,1.4597 124.7752,1.8607 C124.7752,2.2457 125.0892,2.5747 125.4892,2.5747 L126.0892,2.5747 L126.0892,8.3577 L120.5062,1.4317 C120.3482,1.2317 120.1482,1.1467 119.8912,1.1467 L118.6212,1.1467 C118.2202,1.1467 117.8922,1.4597 117.8922,1.8607 C117.8922,2.2457 118.2202,2.5747 118.6212,2.5747 L119.2202,2.5747 L119.2202,9.7137 L118.6212,9.7137 C118.2202,9.7137 117.8922,10.0277 117.8922,10.4277 C117.8922,10.8277 118.2202,11.1417 118.6212,11.1417 L121.2482,11.1417 C121.6482,11.1417 121.9622,10.8277 121.9622,10.4277 C121.9622,10.0277 121.6482,9.7137 121.2482,9.7137 L120.6482,9.7137 L120.6482,3.8877 L126.2312,10.8137 C126.6742,11.3707 127.5162,11.0707 127.5162,10.3567 L127.5162,2.5747 L128.1162,2.5747 C128.5162,2.5747 128.8302,2.2457 128.8302,1.8607 C128.8302,1.4597 128.5162,1.1467 128.1162,1.1467" id="Fill-1" fill="#414042" mask="url(#mask-2)"></path>
            </g>
            <path d="M56.2117,96.8932 L55.7067,96.8932 L53.7617,94.2432 L55.7067,91.6562 L56.2427,91.6562 C56.5267,91.6562 56.7697,91.4142 56.7697,91.1202 C56.7697,90.8252 56.5267,90.5932 56.2427,90.5932 L54.2757,90.5932 C53.9827,90.5932 53.7507,90.8252 53.7507,91.1202 C53.7507,91.4142 53.9827,91.6562 54.2757,91.6562 L54.3817,91.6562 L53.1087,93.3492 L51.2267,90.8042 C51.1317,90.6672 50.9747,90.5932 50.8057,90.5932 L49.9847,90.5932 C49.7017,90.5932 49.4597,90.8252 49.4597,91.1202 C49.4597,91.4142 49.7017,91.6562 49.9847,91.6562 L50.5427,91.6562 L52.4457,94.2322 L50.4387,96.8932 L49.9427,96.8932 C49.6497,96.8932 49.4177,97.1242 49.4177,97.4292 C49.4177,97.7132 49.6497,97.9552 49.9427,97.9552 L51.9097,97.9552 C52.2047,97.9552 52.4367,97.7132 52.4367,97.4292 C52.4367,97.1242 52.2047,96.8932 51.9097,96.8932 L51.7627,96.8932 L53.0987,95.1262 L55.0237,97.7352 C55.1287,97.8722 55.2747,97.9552 55.4437,97.9552 L56.2117,97.9552 C56.5067,97.9552 56.7367,97.7132 56.7367,97.4292 C56.7367,97.1242 56.5067,96.8932 56.2117,96.8932 M65.7847,96.8932 L65.2797,96.8932 L63.3347,94.2432 L65.2797,91.6562 L65.8157,91.6562 C66.1007,91.6562 66.3427,91.4142 66.3427,91.1202 C66.3427,90.8252 66.1007,90.5932 65.8157,90.5932 L63.8507,90.5932 C63.5557,90.5932 63.3237,90.8252 63.3237,91.1202 C63.3237,91.4142 63.5557,91.6562 63.8507,91.6562 L63.9547,91.6562 L62.6827,93.3492 L60.7997,90.8042 C60.7047,90.6672 60.5477,90.5932 60.3797,90.5932 L59.5597,90.5932 C59.2747,90.5932 59.0327,90.8252 59.0327,91.1202 C59.0327,91.4142 59.2747,91.6562 59.5597,91.6562 L60.1157,91.6562 L62.0207,94.2322 L60.0117,96.8932 L59.5177,96.8932 C59.2227,96.8932 58.9907,97.1242 58.9907,97.4292 C58.9907,97.7132 59.2227,97.9552 59.5177,97.9552 L61.4827,97.9552 C61.7777,97.9552 62.0097,97.7132 62.0097,97.4292 C62.0097,97.1242 61.7777,96.8932 61.4827,96.8932 L61.3367,96.8932 L62.6717,95.1262 L64.5967,97.7352 C64.7017,97.8722 64.8497,97.9552 65.0177,97.9552 L65.7847,97.9552 C66.0797,97.9552 66.3117,97.7132 66.3117,97.4292 C66.3117,97.1242 66.0797,96.8932 65.7847,96.8932 M71.5097,96.9042 L71.0247,96.9042 L71.0247,91.6342 L71.5097,91.6342 C71.7937,91.6342 72.0347,91.4032 72.0347,91.1092 C72.0347,90.8252 71.7937,90.5822 71.5097,90.5822 L69.4797,90.5822 C69.1957,90.5822 68.9537,90.8252 68.9537,91.1092 C68.9537,91.4032 69.1957,91.6342 69.4797,91.6342 L69.9637,91.6342 L69.9637,96.9042 L69.4797,96.9042 C69.1957,96.9042 68.9537,97.1352 68.9537,97.4292 C68.9537,97.7132 69.1957,97.9552 69.4797,97.9552 L71.5097,97.9552 C71.7937,97.9552 72.0347,97.7132 72.0347,97.4292 C72.0347,97.1352 71.7937,96.9042 71.5097,96.9042 M77.2957,96.9042 L76.8117,96.9042 L76.8117,91.6342 L77.2957,91.6342 C77.5787,91.6342 77.8207,91.4032 77.8207,91.1092 C77.8207,90.8252 77.5787,90.5822 77.2957,90.5822 L75.2657,90.5822 C74.9817,90.5822 74.7397,90.8252 74.7397,91.1092 C74.7397,91.4032 74.9817,91.6342 75.2657,91.6342 L75.7497,91.6342 L75.7497,96.9042 L75.2657,96.9042 C74.9817,96.9042 74.7397,97.1352 74.7397,97.4292 C74.7397,97.7132 74.9817,97.9552 75.2657,97.9552 L77.2957,97.9552 C77.5787,97.9552 77.8207,97.7132 77.8207,97.4292 C77.8207,97.1352 77.5787,96.9042 77.2957,96.9042" id="Fill-4" fill="#414042"></path>
            <path d="M32.6375,72.1032 C32.4725,72.2082 32.2715,72.2602 32.0305,72.2602 C31.7845,72.2602 31.5795,72.1762 31.4075,72.0112 C31.2355,71.8462 31.1515,71.6302 31.1515,71.3562 C31.1515,71.0852 31.2395,70.8662 31.4145,70.6972 C31.5905,70.5332 31.8065,70.4482 32.0665,70.4482 C32.2015,70.4482 32.3195,70.4622 32.4215,70.4962 C32.5205,70.5292 32.6225,70.5912 32.7215,70.6752 L32.9515,70.3452 C32.7065,70.1292 32.4035,70.0242 32.0335,70.0242 C31.6635,70.0242 31.3525,70.1522 31.0925,70.4042 C30.8325,70.6572 30.7005,70.9752 30.7005,71.3562 C30.7005,71.7372 30.8285,72.0512 31.0855,72.3002 C31.3375,72.5492 31.6565,72.6732 32.0335,72.6732 C32.4845,72.6732 32.8275,72.5422 33.0695,72.2752 L33.0695,71.4002 L32.6375,71.4002 L32.6375,72.1032 Z M34.3655,70.0852 L34.3655,72.6442 L36.2055,72.6442 L36.2055,72.2382 L34.7965,72.2382 L34.7965,71.5532 L36.0235,71.5532 L36.0235,71.1692 L34.7965,71.1692 L34.7965,70.4922 L36.1615,70.4922 L36.1615,70.0852 L34.3655,70.0852 Z M39.4055,71.9972 L37.9185,70.0852 L37.4875,70.0852 L37.4875,72.6442 L37.9185,72.6442 L37.9185,70.7782 L39.3685,72.6442 L39.8375,72.6442 L39.8375,70.0852 L39.4055,70.0852 L39.4055,71.9972 Z M41.6745,71.5022 L41.6745,70.0852 L41.2415,70.0852 L41.2415,71.5212 C41.2415,71.8902 41.3445,72.1722 41.5455,72.3702 C41.7465,72.5722 42.0075,72.6702 42.3255,72.6702 C42.6445,72.6702 42.9045,72.5722 43.1055,72.3702 C43.3065,72.1722 43.4085,71.8902 43.4085,71.5212 L43.4085,70.0852 L42.9775,70.0852 L42.9775,71.5022 C42.9775,71.7372 42.9185,71.9232 42.8015,72.0592 C42.6845,72.1942 42.5275,72.2642 42.3255,72.2642 C42.1245,72.2642 41.9665,72.1942 41.8495,72.0592 C41.7325,71.9232 41.6745,71.7372 41.6745,71.5022 Z M44.8145,72.6442 L45.2465,72.6442 L45.2465,70.0852 L44.8145,70.0852 L44.8145,72.6442 Z M48.6045,71.9972 L47.1175,70.0852 L46.6865,70.0852 L46.6865,72.6442 L47.1175,72.6442 L47.1175,70.7782 L48.5685,72.6442 L49.0365,72.6442 L49.0365,70.0852 L48.6045,70.0852 L48.6045,71.9972 Z M50.4745,70.0852 L50.4745,72.6442 L52.3155,72.6442 L52.3155,72.2382 L50.9065,72.2382 L50.9065,71.5532 L52.1325,71.5532 L52.1325,71.1692 L50.9065,71.1692 L50.9065,70.4922 L52.2715,70.4922 L52.2715,70.0852 L50.4745,70.0852 Z M57.4165,71.3452 C57.4165,71.6052 57.3285,71.8252 57.1565,72.0042 C56.9805,72.1832 56.7645,72.2752 56.5125,72.2752 C56.2595,72.2752 56.0435,72.1832 55.8715,72.0042 C55.6965,71.8252 55.6085,71.6052 55.6085,71.3452 C55.6085,71.0882 55.6965,70.8692 55.8715,70.6902 C56.0435,70.5102 56.2595,70.4182 56.5125,70.4182 C56.7645,70.4182 56.9805,70.5102 57.1565,70.6902 C57.3285,70.8692 57.4165,71.0882 57.4165,71.3452 Z M57.8595,71.3452 C57.8595,70.9682 57.7315,70.6532 57.4715,70.4012 C57.2115,70.1482 56.8935,70.0242 56.5125,70.0242 C56.1315,70.0242 55.8135,70.1482 55.5535,70.4012 C55.2925,70.6532 55.1645,70.9682 55.1645,71.3452 C55.1645,71.7222 55.2925,72.0372 55.5535,72.2902 C55.8135,72.5422 56.1315,72.6702 56.5125,72.6702 C56.8935,72.6702 57.2115,72.5422 57.4715,72.2902 C57.7315,72.0372 57.8595,71.7222 57.8595,71.3452 Z M60.9225,70.2842 C60.7535,70.1522 60.4755,70.0852 60.0835,70.0852 L59.1325,70.0852 L59.1325,72.6442 L59.5645,72.6442 L59.5645,71.7852 L60.1315,71.7852 L60.7425,72.6442 L61.2915,72.6442 L60.6215,71.7142 C60.9915,71.6052 61.1745,71.3372 61.1745,70.9162 C61.1745,70.6272 61.0905,70.4162 60.9225,70.2842 Z M60.1025,71.3932 L59.5645,71.3932 L59.5645,70.4772 L60.1135,70.4772 C60.3435,70.4772 60.5045,70.5062 60.5965,70.5692 C60.6885,70.6312 60.7325,70.7492 60.7325,70.9132 C60.7325,71.0822 60.6885,71.2032 60.6005,71.2792 C60.5125,71.3562 60.3475,71.3932 60.1025,71.3932 Z M62.5255,72.6442 L62.9575,72.6442 L62.9575,70.0852 L62.5255,70.0852 L62.5255,72.6442 Z M66.1685,72.1032 C66.0045,72.2082 65.8025,72.2602 65.5615,72.2602 C65.3165,72.2602 65.1115,72.1762 64.9395,72.0112 C64.7675,71.8462 64.6825,71.6302 64.6825,71.3562 C64.6825,71.0852 64.7705,70.8662 64.9465,70.6972 C65.1215,70.5332 65.3375,70.4482 65.5975,70.4482 C65.7335,70.4482 65.8505,70.4622 65.9525,70.4962 C66.0515,70.5292 66.1545,70.5912 66.2525,70.6752 L66.4845,70.3452 C66.2385,70.1292 65.9345,70.0242 65.5655,70.0242 C65.1955,70.0242 64.8845,70.1522 64.6235,70.4042 C64.3645,70.6572 64.2325,70.9752 64.2325,71.3562 C64.2325,71.7372 64.3605,72.0512 64.6165,72.3002 C64.8695,72.5492 65.1885,72.6732 65.5655,72.6732 C66.0155,72.6732 66.3595,72.5422 66.6015,72.2752 L66.6015,71.4002 L66.1685,71.4002 L66.1685,72.1032 Z M67.8965,72.6442 L68.3285,72.6442 L68.3285,70.0852 L67.8965,70.0852 L67.8965,72.6442 Z M71.6865,71.9972 L70.2005,70.0852 L69.7685,70.0852 L69.7685,72.6442 L70.2005,72.6442 L70.2005,70.7782 L71.6505,72.6442 L72.1175,72.6442 L72.1175,70.0852 L71.6865,70.0852 L71.6865,71.9972 Z M75.2005,72.0622 L75.4555,72.6442 L75.9165,72.6442 L74.7895,70.0852 L74.3285,70.0852 L73.2005,72.6442 L73.6615,72.6442 L73.9185,72.0622 L75.2005,72.0622 Z M74.0945,71.6642 L74.5595,70.6092 L75.0245,71.6642 L74.0945,71.6642 Z M78.6005,72.6442 L78.6005,72.2352 L77.4325,72.2352 L77.4325,70.0852 L77.0005,70.0852 L77.0005,72.6442 L78.6005,72.6442 Z M83.3055,72.1032 C83.1415,72.2082 82.9405,72.2602 82.6985,72.2602 C82.4525,72.2602 82.2475,72.1762 82.0755,72.0112 C81.9045,71.8462 81.8205,71.6302 81.8205,71.3562 C81.8205,71.0852 81.9075,70.8662 82.0825,70.6972 C82.2585,70.5332 82.4745,70.4482 82.7355,70.4482 C82.8695,70.4482 82.9875,70.4622 83.0895,70.4962 C83.1885,70.5292 83.2905,70.5912 83.3905,70.6752 L83.6205,70.3452 C83.3755,70.1292 83.0715,70.0242 82.7015,70.0242 C82.3315,70.0242 82.0215,70.1522 81.7615,70.4042 C81.5005,70.6572 81.3685,70.9752 81.3685,71.3562 C81.3685,71.7372 81.4975,72.0512 81.7535,72.3002 C82.0065,72.5492 82.3255,72.6732 82.7015,72.6732 C83.1525,72.6732 83.4955,72.5422 83.7385,72.2752 L83.7385,71.4002 L83.3055,71.4002 L83.3055,72.1032 Z M87.1195,71.3452 C87.1195,71.6052 87.0325,71.8252 86.8605,72.0042 C86.6845,72.1832 86.4685,72.2752 86.2155,72.2752 C85.9625,72.2752 85.7465,72.1832 85.5755,72.0042 C85.3995,71.8252 85.3115,71.6052 85.3115,71.3452 C85.3115,71.0882 85.3995,70.8692 85.5755,70.6902 C85.7465,70.5102 85.9625,70.4182 86.2155,70.4182 C86.4685,70.4182 86.6845,70.5102 86.8605,70.6902 C87.0325,70.8692 87.1195,71.0882 87.1195,71.3452 Z M87.5625,71.3452 C87.5625,70.9682 87.4345,70.6532 87.1745,70.4012 C86.9145,70.1482 86.5965,70.0242 86.2155,70.0242 C85.8345,70.0242 85.5165,70.1482 85.2565,70.4012 C84.9965,70.6532 84.8675,70.9682 84.8675,71.3452 C84.8675,71.7222 84.9965,72.0372 85.2565,72.2902 C85.5165,72.5422 85.8345,72.6702 86.2155,72.6702 C86.5965,72.6702 86.9145,72.5422 87.1745,72.2902 C87.4345,72.0372 87.5625,71.7222 87.5625,71.3452 Z M90.9225,71.3452 C90.9225,71.6052 90.8345,71.8252 90.6615,72.0042 C90.4865,72.1832 90.2705,72.2752 90.0185,72.2752 C89.7655,72.2752 89.5495,72.1832 89.3775,72.0042 C89.2015,71.8252 89.1145,71.6052 89.1145,71.3452 C89.1145,71.0882 89.2015,70.8692 89.3775,70.6902 C89.5495,70.5102 89.7655,70.4182 90.0185,70.4182 C90.2705,70.4182 90.4865,70.5102 90.6615,70.6902 C90.8345,70.8692 90.9225,71.0882 90.9225,71.3452 Z M91.3655,71.3452 C91.3655,70.9682 91.2375,70.6532 90.9775,70.4012 C90.7175,70.1482 90.3995,70.0242 90.0185,70.0242 C89.6375,70.0242 89.3195,70.1482 89.0595,70.4012 C88.7985,70.6532 88.6705,70.9682 88.6705,71.3452 C88.6705,71.7222 88.7985,72.0372 89.0595,72.2902 C89.3195,72.5422 89.6375,72.6702 90.0185,72.6702 C90.3995,72.6702 90.7175,72.5422 90.9775,72.2902 C91.2375,72.0372 91.3655,71.7222 91.3655,71.3452 Z M93.5165,70.0852 L92.6385,70.0852 L92.6385,72.6442 L93.4875,72.6442 C93.9815,72.6442 94.3475,72.5282 94.5855,72.2962 C94.8235,72.0662 94.9445,71.7512 94.9445,71.3522 C94.9445,70.9542 94.8205,70.6422 94.5755,70.4182 C94.3285,70.1962 93.9745,70.0852 93.5165,70.0852 Z M94.2635,72.0152 C94.0985,72.1652 93.8615,72.2382 93.5495,72.2382 L93.0705,72.2382 L93.0705,70.4852 L93.5015,70.4852 C94.1715,70.4852 94.5085,70.7782 94.5085,71.3642 C94.5085,71.6532 94.4285,71.8692 94.2635,72.0152 Z M97.3855,70.4892 C97.5135,70.5332 97.6165,70.5872 97.6935,70.6572 L97.9235,70.3312 C97.8065,70.2322 97.6665,70.1592 97.5055,70.1042 C97.3455,70.0492 97.1845,70.0242 97.0195,70.0242 C96.7665,70.0242 96.5545,70.0852 96.3825,70.2132 C96.2105,70.3422 96.1225,70.5252 96.1225,70.7632 C96.1225,71.0002 96.1995,71.1762 96.3495,71.2912 C96.4265,71.3522 96.5105,71.4002 96.6095,71.4362 C96.7075,71.4772 96.8515,71.5172 97.0375,71.5612 C97.2245,71.6092 97.3605,71.6562 97.4365,71.7112 C97.5135,71.7662 97.5495,71.8432 97.5495,71.9422 C97.5495,72.0412 97.5095,72.1212 97.4295,72.1792 C97.3455,72.2422 97.2355,72.2712 97.0965,72.2712 C96.8185,72.2712 96.5505,72.1582 96.2905,71.9342 L96.0205,72.2602 C96.3305,72.5352 96.6865,72.6732 97.0845,72.6732 C97.3605,72.6732 97.5785,72.6042 97.7475,72.4652 C97.9155,72.3262 98.0005,72.1432 98.0005,71.9192 C98.0005,71.6972 97.9345,71.5282 97.8025,71.4152 C97.6665,71.3012 97.4695,71.2092 97.2095,71.1472 C96.9465,71.0852 96.7745,71.0232 96.6935,70.9682 C96.6135,70.9132 96.5735,70.8362 96.5735,70.7302 C96.5735,70.6272 96.6135,70.5502 96.6935,70.4992 C96.7745,70.4482 96.8765,70.4222 97.0045,70.4222 C97.1285,70.4222 97.2575,70.4452 97.3855,70.4892 Z" id="Fill-6" fill="#414042"></path>
            <path d="M29.5936,80.8454 C29.3666,80.6194 29.2506,80.3124 29.2506,79.9364 C29.2506,79.5594 29.3726,79.2634 29.6156,79.0374 C29.8546,78.8174 30.1436,78.7064 30.4866,78.7064 C30.9086,78.7064 31.2686,78.8864 31.5526,79.2404 L32.1146,78.6034 C31.6676,78.0984 31.1126,77.8434 30.4456,77.8434 C29.8486,77.8434 29.3496,78.0464 28.9386,78.4464 C28.5276,78.8464 28.3186,79.3504 28.3186,79.9474 C28.3186,80.5504 28.5216,81.0484 28.9266,81.4434 C29.3266,81.8364 29.8426,82.0334 30.4686,82.0334 C31.0886,82.0334 31.6336,81.7734 32.0916,81.2574 L31.5116,80.6604 C31.2276,81.0144 30.8676,81.1884 30.4216,81.1884 C30.0976,81.1884 29.8196,81.0724 29.5936,80.8454 Z M38.3856,81.9884 L36.6356,77.9364 L35.7606,77.9364 L34.0096,81.9884 L34.9726,81.9884 L35.3486,81.1124 L37.0466,81.1124 L37.4236,81.9884 L38.3856,81.9884 Z M36.7046,80.3184 L35.6916,80.3184 L36.2006,79.1424 L36.7046,80.3184 Z M43.2196,81.9884 L43.2196,81.1824 L41.4926,81.1824 L41.4926,77.9364 L40.5886,77.9364 L40.5886,81.9884 L43.2196,81.9884 Z M45.6146,81.9884 L46.5186,81.9884 L46.5186,77.9364 L45.6146,77.9364 L45.6146,81.9884 Z M49.2486,77.9364 L49.2486,81.9884 L50.1536,81.9884 L50.1536,80.3994 L51.9386,80.3994 L51.9386,79.6054 L50.1536,79.6054 L50.1536,78.7304 L52.0306,78.7304 L52.0306,77.9364 L49.2486,77.9364 Z M57.2816,80.8574 C57.0506,81.1124 56.7666,81.2404 56.4306,81.2404 C56.0886,81.2404 55.8046,81.1124 55.5726,80.8574 C55.3406,80.6084 55.2246,80.3014 55.2246,79.9364 C55.2246,79.5764 55.3406,79.2694 55.5726,79.0144 C55.8046,78.7594 56.0886,78.6314 56.4306,78.6314 C56.7666,78.6314 57.0506,78.7594 57.2816,79.0144 C57.5146,79.2694 57.6306,79.5764 57.6306,79.9364 C57.6306,80.3014 57.5146,80.6084 57.2816,80.8574 Z M58.5516,79.9364 C58.5516,79.3384 58.3486,78.8404 57.9376,78.4404 C57.5266,78.0404 57.0216,77.8434 56.4246,77.8434 C55.8276,77.8434 55.3226,78.0404 54.9116,78.4404 C54.5006,78.8404 54.2976,79.3384 54.2976,79.9364 C54.2976,80.5334 54.5006,81.0254 54.9116,81.4254 C55.3226,81.8244 55.8276,82.0284 56.4246,82.0284 C57.0216,82.0284 57.5266,81.8244 57.9376,81.4254 C58.3486,81.0254 58.5516,80.5334 58.5516,79.9364 Z M63.9366,78.2544 C63.6636,78.0404 63.2176,77.9364 62.5856,77.9364 L61.0496,77.9364 L61.0496,81.9884 L61.9536,81.9884 L61.9536,80.6954 L62.5796,80.6954 L63.4786,81.9884 L64.5916,81.9884 L63.5656,80.5384 C64.0806,80.3474 64.3366,79.9304 64.3366,79.2814 C64.3366,78.8114 64.2026,78.4694 63.9366,78.2544 Z M62.6146,79.9124 L61.9536,79.9124 L61.9536,78.7124 L62.6326,78.7124 C62.9216,78.7124 63.1246,78.7534 63.2406,78.8344 C63.3576,78.9154 63.4146,79.0664 63.4146,79.2814 C63.4146,79.5004 63.3576,79.6634 63.2466,79.7624 C63.1366,79.8604 62.9216,79.9124 62.6146,79.9124 Z M69.8306,80.5444 L67.8436,77.9364 L66.9966,77.9364 L66.9966,81.9884 L67.9016,81.9884 L67.9016,79.4494 L69.8306,81.9884 L70.7356,81.9884 L70.7356,77.9364 L69.8306,77.9364 L69.8306,80.5444 Z M73.4656,81.9884 L74.3696,81.9884 L74.3696,77.9364 L73.4656,77.9364 L73.4656,81.9884 Z M80.9486,81.9884 L79.1976,77.9364 L78.3226,77.9364 L76.5726,81.9884 L77.5346,81.9884 L77.9116,81.1124 L79.6106,81.1124 L79.9866,81.9884 L80.9486,81.9884 Z M79.2686,80.3184 L78.2536,80.3184 L78.7636,79.1424 L79.2686,80.3184 Z M87.4526,80.8454 C87.2266,80.6194 87.1116,80.3124 87.1116,79.9364 C87.1116,79.5594 87.2326,79.2634 87.4766,79.0374 C87.7136,78.8174 88.0036,78.7064 88.3456,78.7064 C88.7686,78.7064 89.1276,78.8864 89.4116,79.2404 L89.9746,78.6034 C89.5286,78.0984 88.9716,77.8434 88.3046,77.8434 C87.7076,77.8434 87.2096,78.0464 86.7976,78.4464 C86.3866,78.8464 86.1776,79.3504 86.1776,79.9474 C86.1776,80.5504 86.3806,81.0484 86.7856,81.4434 C87.1866,81.8364 87.7016,82.0334 88.3276,82.0334 C88.9476,82.0334 89.4926,81.7734 89.9506,81.2574 L89.3706,80.6604 C89.0876,81.0144 88.7286,81.1884 88.2816,81.1884 C87.9566,81.1884 87.6786,81.0724 87.4526,80.8454 Z M96.2456,81.9884 L94.4946,77.9364 L93.6196,77.9364 L91.8696,81.9884 L92.8316,81.9884 L93.2086,81.1124 L94.9066,81.1124 L95.2826,81.9884 L96.2456,81.9884 Z M94.5646,80.3184 L93.5506,80.3184 L94.0606,79.1424 L94.5646,80.3184 Z M98.7836,82.0334 C98.9296,82.0334 99.0506,81.9824 99.1496,81.8834 C99.2476,81.7844 99.2946,81.6684 99.2946,81.5244 C99.2946,81.3784 99.2476,81.2574 99.1496,81.1584 C99.0506,81.0604 98.9296,81.0144 98.7836,81.0144 C98.6396,81.0144 98.5236,81.0604 98.4246,81.1584 C98.3266,81.2574 98.2746,81.3784 98.2746,81.5244 C98.2746,81.6684 98.3266,81.7844 98.4246,81.8834 C98.5236,81.9824 98.6396,82.0334 98.7836,82.0334 Z" id="Fill-8" fill="#414042"></path>
            <path d="M13.0232,14.4401 C13.1272,14.6231 13.2332,14.8071 13.3372,14.9911 C12.6522,15.3811 11.9692,15.7831 11.2912,16.1911 C11.4722,16.4941 11.6552,16.7941 11.8362,17.0971 C12.4402,16.7341 13.0452,16.3771 13.6532,16.0271 C13.7542,16.2011 13.8532,16.3741 13.9542,16.5471 C13.3482,16.8951 12.7452,17.2501 12.1462,17.6111 C12.3302,17.9161 12.5132,18.2201 12.6982,18.5261 C13.3782,18.1151 14.0642,17.7131 14.7522,17.3201 C14.8582,17.5031 14.9622,17.6871 15.0672,17.8711 C14.1722,18.3801 13.2852,18.9061 12.4032,19.4461 C11.7082,18.3121 11.0112,17.1771 10.3172,16.0421 C11.2122,15.4931 12.1152,14.9591 13.0232,14.4401" id="Fill-10" fill="#414042"></path>
            <path d="M17.6033,12.5651 C17.4103,12.6631 17.2693,12.7801 17.1833,12.9151 C17.0953,13.0491 17.0903,13.1881 17.1663,13.3331 C17.2403,13.4761 17.3583,13.5551 17.5183,13.5671 C17.6803,13.5801 17.9843,13.5281 18.4273,13.4141 C18.8733,13.2991 19.2373,13.2771 19.5183,13.3361 C19.7993,13.3991 20.0153,13.5861 20.1673,13.9001 C20.3203,14.2111 20.3173,14.5291 20.1623,14.8481 C20.0053,15.1681 19.7243,15.4271 19.3203,15.6321 C18.7243,15.9351 18.1013,16.0181 17.4393,15.8801 C17.4953,15.6611 17.5493,15.4391 17.6053,15.2191 C18.1563,15.3261 18.6353,15.2751 19.0503,15.0651 C19.2593,14.9591 19.4043,14.8351 19.4843,14.6901 C19.5653,14.5451 19.5723,14.4031 19.5033,14.2651 C19.4353,14.1271 19.3243,14.0491 19.1683,14.0311 C19.0133,14.0111 18.7793,14.0441 18.4623,14.1241 C18.1463,14.2061 17.9013,14.2581 17.7273,14.2821 C17.5523,14.3071 17.3863,14.3061 17.2273,14.2821 C16.9163,14.2431 16.6733,14.0601 16.5013,13.7341 C16.3293,13.4091 16.3273,13.0871 16.4993,12.7711 C16.6713,12.4571 16.9543,12.1971 17.3463,11.9971 C17.5993,11.8681 17.8703,11.7801 18.1573,11.7291 C18.4453,11.6791 18.7123,11.6791 18.9613,11.7271 C18.9163,11.9371 18.8743,12.1481 18.8303,12.3581 C18.6653,12.3201 18.4683,12.3201 18.2383,12.3591 C18.0083,12.3971 17.7963,12.4661 17.6033,12.5651" id="Fill-12" fill="#414042"></path>
            <path d="M23.8094,9.7633 C24.2514,10.7983 24.6944,11.8333 25.1354,12.8683 C24.9174,12.9613 24.6984,13.0563 24.4804,13.1513 C24.0304,12.1203 23.5804,11.0883 23.1314,10.0563 C22.7254,10.2343 22.3204,10.4133 21.9144,10.5963 C21.8304,10.4093 21.7464,10.2223 21.6614,10.0343 C22.7014,9.5633 23.7474,9.1133 24.8004,8.6803 C24.8784,8.8683 24.9564,9.0593 25.0364,9.2493 C24.6264,9.4183 24.2164,9.5893 23.8094,9.7633" id="Fill-14" fill="#414042"></path>
            <path d="M30.743,9.0504 C30.316,8.6174 29.888,8.1884 29.454,7.7624 C29.392,8.3674 29.333,8.9714 29.28,9.5754 C29.766,9.3974 30.254,9.2214 30.743,9.0504 M29.221,10.2614 C29.193,10.5944 29.166,10.9274 29.14,11.2604 C28.904,11.3494 28.667,11.4404 28.43,11.5304 C28.53,10.0664 28.656,8.5984 28.806,7.1274 C29.055,7.0364 29.302,6.9474 29.55,6.8614 C30.601,7.8994 31.631,8.9534 32.638,10.0214 C32.398,10.1014 32.159,10.1814 31.92,10.2634 C31.689,10.0224 31.457,9.7814 31.224,9.5424 C30.554,9.7754 29.887,10.0144 29.221,10.2614" id="Fill-16" fill="#414042"></path>
            <path d="M35.9861,8.3229 C36.3441,8.2179 36.7031,8.1149 37.0601,8.0139 C37.3121,7.9449 37.4951,7.8549 37.6081,7.7419 C37.7211,7.6309 37.7501,7.4689 37.6921,7.2609 C37.6001,6.9179 37.2611,6.8249 36.6771,6.9889 C36.3441,7.0829 36.0131,7.1769 35.6811,7.2749 C35.7841,7.6229 35.8851,7.9729 35.9861,8.3229 M35.5071,6.6759 C35.8001,6.5909 36.0971,6.5069 36.3921,6.4229 C36.8951,6.2799 37.1041,6.0529 37.0171,5.7329 C36.9661,5.5499 36.8681,5.4349 36.7231,5.3859 C36.5791,5.3409 36.3761,5.3529 36.1171,5.4259 C35.8171,5.5099 35.5161,5.5959 35.2171,5.6839 C35.3121,6.0149 35.4101,6.3459 35.5071,6.6759 M37.2451,8.6089 C36.6571,8.7739 36.0681,8.9439 35.4831,9.1209 C35.1011,7.8449 34.7171,6.5699 34.3361,5.2959 C34.8781,5.1329 35.4221,4.9739 35.9651,4.8209 C36.2501,4.7409 36.5041,4.7039 36.7281,4.7109 C36.9511,4.7169 37.1261,4.7599 37.2561,4.8409 C37.5001,4.9869 37.6551,5.1859 37.7231,5.4359 C37.8021,5.7379 37.7591,5.9909 37.5931,6.1909 L37.4651,6.3309 L37.3351,6.4319 C37.6061,6.4159 37.8391,6.4689 38.0321,6.5929 C38.2261,6.7149 38.3561,6.8989 38.4201,7.1419 C38.4901,7.4119 38.4561,7.6749 38.3171,7.9319 C38.1511,8.2319 37.7961,8.4549 37.2451,8.6089" id="Fill-18" fill="#414042"></path>
            <path d="M41.8855,7.4333 C41.5885,6.1363 41.2935,4.8383 40.9975,3.5393 C41.2375,3.4873 41.4745,3.4323 41.7135,3.3803 C41.9545,4.4723 42.1945,5.5633 42.4355,6.6553 C43.0605,6.5183 43.6845,6.3863 44.3115,6.2613 C44.3535,6.4703 44.3955,6.6793 44.4365,6.8883 C43.5845,7.0593 42.7335,7.2403 41.8855,7.4333" id="Fill-20" fill="#414042"></path>
            <path d="M46.8836,2.3825 C47.1236,2.3425 47.3646,2.3025 47.6056,2.2635 C47.8146,3.5775 48.0246,4.8935 48.2346,6.2075 C48.0026,6.2435 47.7706,6.2815 47.5386,6.3205 C47.3206,5.0075 47.1026,3.6945 46.8836,2.3825" id="Fill-22" fill="#414042"></path>
            <path d="M52.6082,2.1237 C52.3992,2.1457 52.2302,2.2047 52.1052,2.2997 C51.9802,2.3947 51.9272,2.5217 51.9472,2.6847 C51.9652,2.8447 52.0462,2.9597 52.1882,3.0287 C52.3322,3.0987 52.6282,3.1577 53.0712,3.2107 C53.5162,3.2627 53.8572,3.3697 54.0932,3.5267 C54.3302,3.6837 54.4632,3.9357 54.4962,4.2837 C54.5272,4.6307 54.4162,4.9237 54.1642,5.1657 C53.9132,5.4097 53.5652,5.5527 53.1252,5.6007 C52.4792,5.6707 51.8822,5.5247 51.3252,5.1597 C51.4512,4.9747 51.5762,4.7877 51.7032,4.6027 C52.1692,4.8977 52.6232,5.0217 53.0752,4.9737 C53.3012,4.9487 53.4762,4.8847 53.5982,4.7787 C53.7222,4.6727 53.7772,4.5417 53.7622,4.3887 C53.7472,4.2337 53.6712,4.1227 53.5372,4.0497 C53.4012,3.9777 53.1762,3.9227 52.8612,3.8867 C52.5442,3.8497 52.3012,3.8107 52.1332,3.7697 C51.9662,3.7307 51.8142,3.6717 51.6792,3.5927 C51.4092,3.4447 51.2492,3.1877 51.2032,2.8207 C51.1582,2.4567 51.2652,2.1557 51.5312,1.9217 C51.7962,1.6887 52.1412,1.5477 52.5682,1.5017 C52.8442,1.4707 53.1232,1.4837 53.4002,1.5397 C53.6812,1.5957 53.9262,1.6907 54.1372,1.8247 C54.0242,2.0047 53.9132,2.1857 53.7992,2.3667 C53.6642,2.2727 53.4832,2.2037 53.2592,2.1567 C53.0362,2.1107 52.8202,2.1007 52.6082,2.1237" id="Fill-24" fill="#414042"></path>
            <path d="M57.8367,5.1598 C57.7577,3.8318 57.6777,2.5028 57.5987,1.1748 C57.8427,1.1588 58.0847,1.1468 58.3267,1.1338 C58.3577,1.7098 58.3887,2.2858 58.4187,2.8608 C59.1197,2.8248 59.8237,2.7958 60.5257,2.7738 C60.5087,2.1968 60.4897,1.6208 60.4727,1.0438 C60.7147,1.0348 60.9587,1.0298 61.2007,1.0238 C61.2327,2.3538 61.2667,3.6838 61.2977,5.0138 C61.0647,5.0208 60.8307,5.0268 60.5967,5.0348 C60.5797,4.4898 60.5637,3.9458 60.5457,3.4018 C59.8477,3.4238 59.1487,3.4538 58.4507,3.4908 C58.4797,4.0328 58.5077,4.5768 58.5367,5.1198 C58.3037,5.1328 58.0697,5.1458 57.8367,5.1598" id="Fill-26" fill="#414042"></path>
            <g id="Group-30" transform="translate(64.000000, 0.955500)">
                <mask id="mask-4" fill="white">
                    <use xlink:href="#path-3"></use>
                </mask>
                <g id="Clip-29"></g>
                <path d="M3.91,0.1252 C3.9,0.3372 3.891,0.5482 3.883,0.7592 C3.12,0.7272 2.355,0.7052 1.591,0.6892 C1.585,1.0422 1.578,1.3952 1.572,1.7462 C2.251,1.7602 2.929,1.7802 3.607,1.8062 C3.6,2.0062 3.592,2.2052 3.585,2.4052 C2.909,2.3792 2.235,2.3582 1.56,2.3472 C1.553,2.7022 1.546,3.0592 1.54,3.4132 C2.306,3.4292 3.074,3.4512 3.841,3.4842 C3.833,3.6952 3.823,3.9062 3.814,4.1182 C2.819,4.0762 1.822,4.0492 0.827,4.0382 C0.843,2.7062 0.859,1.3762 0.873,0.0442 C1.886,0.0572 2.898,0.0832 3.91,0.1252" id="Fill-28" fill="#414042" mask="url(#mask-4)"></path>
            </g>
            <path d="M74.324,3.5543 C74.423,2.6473 73.91,2.1283 72.785,2.0253 C72.545,2.0033 72.303,1.9833 72.062,1.9623 C71.986,2.8713 71.912,3.7813 71.836,4.6893 C72.096,4.7113 72.357,4.7343 72.618,4.7573 C73.121,4.8033 73.518,4.7273 73.811,4.5263 C74.104,4.3253 74.275,4.0013 74.324,3.5543 M74.59,2.1033 C74.966,2.4953 75.115,2.9993 75.045,3.6163 C74.973,4.2343 74.72,4.6983 74.294,5.0163 C73.866,5.3333 73.257,5.4513 72.459,5.3803 C72.002,5.3393 71.543,5.3013 71.085,5.2663 C71.185,3.9393 71.286,2.6123 71.386,1.2843 C71.88,1.3223 72.373,1.3633 72.867,1.4083 C73.639,1.4773 74.215,1.7123 74.59,2.1033" id="Fill-31" fill="#414042"></path>
            <path d="M82.7801,2.7946 C83.0201,2.8406 83.2591,2.8876 83.5001,2.9346 C83.2411,4.2406 82.9831,5.5456 82.7241,6.8516 C82.4951,6.8056 82.2641,6.7606 82.0341,6.7166 C82.2821,5.4096 82.5321,4.1016 82.7801,2.7946" id="Fill-33" fill="#414042"></path>
            <path d="M90.2713,4.5153 C90.5073,4.5783 90.7453,4.6433 90.9813,4.7083 C90.6253,5.9913 90.2683,7.2743 89.9133,8.5573 C89.6673,8.4893 89.4203,8.4203 89.1733,8.3543 C88.6643,7.2113 88.1273,6.0713 87.5673,4.9363 C87.3373,5.8793 87.1083,6.8243 86.8783,7.7673 C86.6493,7.7103 86.4203,7.6573 86.1923,7.6023 C86.4983,6.3073 86.8023,5.0103 87.1093,3.7163 C87.3473,3.7713 87.5843,3.8283 87.8233,3.8873 C88.4063,5.0513 88.9623,6.2213 89.4953,7.3933 C89.7533,6.4343 90.0123,5.4753 90.2713,4.5153" id="Fill-35" fill="#414042"></path>
            <path d="M98.1297,6.9782 C98.6287,7.1582 99.1277,7.3402 99.6257,7.5282 C99.1567,8.7732 98.6897,10.0192 98.2207,11.2652 C98.0097,11.1862 97.7977,11.1072 97.5877,11.0292 C97.9787,9.9672 98.3687,8.9072 98.7597,7.8452 C98.4827,7.7442 98.2047,7.6432 97.9267,7.5432 C97.9937,7.3542 98.0627,7.1662 98.1297,6.9782" id="Fill-37" fill="#414042"></path>
            <path d="M103.2918,10.5866 C103.3898,10.7556 103.5338,10.8806 103.7288,10.9646 C103.9218,11.0496 104.1118,11.0686 104.3018,11.0246 C104.4898,10.9826 104.6188,10.8836 104.6878,10.7286 C104.7568,10.5736 104.7428,10.4126 104.6458,10.2436 C104.5488,10.0776 104.4008,9.9496 104.2058,9.8646 C104.0098,9.7786 103.8158,9.7596 103.6268,9.8016 C103.4378,9.8456 103.3118,9.9456 103.2458,10.1026 C103.1798,10.2576 103.1938,10.4196 103.2918,10.5866 M102.5238,12.2336 C102.6508,12.4106 102.8128,12.5406 103.0058,12.6256 C103.1998,12.7106 103.4028,12.7366 103.6208,12.7106 C103.8368,12.6856 103.9898,12.5766 104.0748,12.3846 C104.1588,12.1936 104.1428,12.0086 104.0228,11.8296 C103.9038,11.6526 103.7378,11.5166 103.5268,11.4256 C103.3148,11.3326 103.1038,11.3056 102.8928,11.3386 C102.6808,11.3726 102.5348,11.4856 102.4538,11.6796 C102.3728,11.8716 102.3948,12.0576 102.5238,12.2336 M103.3228,9.2446 C103.6598,9.1676 104.0248,9.2126 104.4148,9.3826 C104.8048,9.5516 105.0888,9.7886 105.2628,10.0866 C105.4378,10.3856 105.4598,10.6756 105.3328,10.9546 C105.2068,11.2346 104.9528,11.4176 104.5728,11.5066 C104.8548,11.8986 104.9018,12.2976 104.7198,12.6986 C104.5778,13.0126 104.3258,13.2126 103.9638,13.3056 C103.6028,13.3986 103.2058,13.3476 102.7738,13.1596 C102.3408,12.9716 102.0338,12.7166 101.8558,12.3896 C101.6778,12.0616 101.6528,11.7396 101.7838,11.4236 C101.9528,11.0156 102.2758,10.7776 102.7548,10.7156 C102.5628,10.3786 102.5228,10.0676 102.6408,9.7836 C102.7588,9.5016 102.9848,9.3206 103.3228,9.2446" id="Fill-39" fill="#414042"></path>
            <path d="M108.2586,12.5172 C108.4286,12.1742 108.5976,11.8302 108.7676,11.4862 C109.6996,11.9452 110.6266,12.4202 111.5486,12.9102 C111.4556,13.0862 111.3616,13.2622 111.2686,13.4412 C110.1856,14.1462 109.1206,14.8682 108.0716,15.6042 C107.8366,15.4842 107.6006,15.3652 107.3636,15.2472 C108.3926,14.5002 109.4366,13.7662 110.4956,13.0472 C110.0316,12.8062 109.5676,12.5702 109.1006,12.3352 C109.0206,12.4962 108.9406,12.6552 108.8606,12.8152 C108.6596,12.7162 108.4596,12.6162 108.2586,12.5172" id="Fill-41" fill="#414042"></path>
            <path d="M114.5447,16.82 C114.7637,16.949 114.9777,17.003 115.1897,16.979 C115.3997,16.958 115.5597,16.86 115.6637,16.685 C115.7697,16.51 115.7887,16.318 115.7217,16.106 C115.6547,15.896 115.5147,15.727 115.3007,15.601 C115.0867,15.475 114.8757,15.428 114.6707,15.461 C114.4667,15.493 114.3127,15.598 114.2087,15.777 C114.1067,15.954 114.0827,16.14 114.1367,16.336 C114.1907,16.53 114.3277,16.692 114.5447,16.82 M113.6767,18.031 C114.0067,18.226 114.3117,18.268 114.5907,18.156 C114.8697,18.045 115.1177,17.815 115.3317,17.469 C115.1877,17.506 115.0067,17.514 114.7897,17.494 C114.5747,17.473 114.3657,17.403 114.1597,17.282 C113.8227,17.084 113.6007,16.818 113.4887,16.477 C113.3777,16.139 113.4177,15.799 113.6137,15.457 C113.8087,15.115 114.0907,14.912 114.4627,14.848 C114.8347,14.786 115.2137,14.867 115.5977,15.091 C116.2157,15.457 116.4927,15.961 116.4277,16.59 C116.3877,16.948 116.2597,17.304 116.0437,17.653 C115.8307,18.005 115.6087,18.272 115.3847,18.456 C115.1607,18.64 114.9367,18.757 114.7117,18.808 C114.2747,18.909 113.8577,18.841 113.4567,18.605 C113.0567,18.369 112.7607,18.042 112.5657,17.618 C112.7527,17.536 112.9407,17.454 113.1297,17.371 C113.1747,17.484 113.2497,17.607 113.3567,17.737 C113.4637,17.872 113.5697,17.969 113.6767,18.031" id="Fill-43" fill="#414042"></path>
            <path d="M64.7078,15.3737 C58.2498,15.3737 52.9978,20.6277 52.9978,27.0827 C52.9978,33.5407 58.2498,38.7947 64.7078,38.7947 C71.1668,38.7947 76.4188,33.5407 76.4188,27.0827 C76.4188,20.6277 71.1668,15.3737 64.7078,15.3737" id="Fill-45" fill="#414042"></path>
            <path d="M64.7078,39.1891 C58.0328,39.1891 52.6038,33.7581 52.6038,27.0831 C52.6038,20.4091 58.0328,14.9781 64.7078,14.9781 C71.3838,14.9781 76.8148,20.4091 76.8148,27.0831 C76.8148,33.7581 71.3838,39.1891 64.7078,39.1891 M64.7078,14.0531 C57.5148,14.0531 51.6778,19.8881 51.6778,27.0841 C51.6778,34.2801 57.5148,40.1151 64.7078,40.1151 C71.9038,40.1151 77.7388,34.2801 77.7388,27.0841 C77.7388,19.8881 71.9038,14.0531 64.7078,14.0531" id="Fill-47" fill="#414042"></path>
            <path d="M70.9607,21.2379 L61.2317,21.2379 C60.7457,21.2379 60.3627,21.6199 60.3627,22.1069 L60.3627,23.9479 C60.3627,24.4339 60.7457,24.8169 61.2317,24.8169 C61.7007,24.8169 62.1007,24.4339 62.1007,23.9479 L62.1007,22.9749 L65.2277,22.9749 L65.2277,31.6619 L64.4287,31.6619 C63.9417,31.6619 63.5607,32.0609 63.5607,32.5309 C63.5607,33.0169 63.9417,33.3989 64.4287,33.3989 L67.7647,33.3989 C68.2507,33.3989 68.6327,33.0169 68.6327,32.5309 C68.6327,32.0609 68.2507,31.6619 67.7647,31.6619 L66.9657,31.6619 L66.9657,22.9749 L70.0927,22.9749 L70.0927,23.9479 C70.0927,24.4339 70.4917,24.8169 70.9607,24.8169 C71.4467,24.8169 71.8297,24.4339 71.8297,23.9479 L71.8297,22.1069 C71.8297,21.6199 71.4467,21.2379 70.9607,21.2379" id="Fill-49" fill="#FEFEFE"></path>
            <path d="M66.0828,21.2379 L63.0948,21.2379 C62.6078,21.2379 62.2258,21.6369 62.2258,22.1069 C62.2258,22.5929 62.6078,22.9749 63.0948,22.9749 L65.2138,22.9749 L65.2138,28.8129 C65.2138,32.7569 59.2368,32.7569 59.2368,28.8129 C59.2368,28.3429 58.8378,27.9439 58.3518,27.9439 C57.8828,27.9439 57.4818,28.3429 57.4818,28.8129 C57.4818,35.0499 66.9508,35.0499 66.9508,28.8129 L66.9508,22.1069 C66.9508,21.6369 66.5688,21.2379 66.0828,21.2379" id="Fill-51" fill="#FEFEFE"></path>
            <path d="M46.7928,93.9577 C46.7928,94.4847 46.3638,94.9107 45.8388,94.9107 C45.3108,94.9107 44.8848,94.4847 44.8848,93.9577 C44.8848,93.4317 45.3108,93.0047 45.8388,93.0047 C46.3638,93.0047 46.7928,93.4317 46.7928,93.9577" id="Fill-53" fill="#414042"></path>
            <path d="M84.532,93.9577 C84.532,94.4847 84.107,94.9107 83.579,94.9107 C83.053,94.9107 82.626,94.4847 82.626,93.9577 C82.626,93.4317 83.053,93.0047 83.579,93.0047 C84.107,93.0047 84.532,93.4317 84.532,93.9577" id="Fill-55" fill="#414042"></path>
        </g>
    </g>
</svg>