<?xml version="1.0" encoding="UTF-8"?>
<svg width="111px" height="111px" viewBox="0 0 111 111" version="1.1" xmlns="http://www.w3.org/2000/svg" xmlns:xlink="http://www.w3.org/1999/xlink">
    <!-- Generator: Sketch 49 (51002) - http://www.bohemiancoding.com/sketch -->
    <title>vintage-logo-15</title>
    <desc>Created with Sketch.</desc>
    <defs>
        <polygon id="path-1" points="0 0.39969975 2.18038628 0.39969975 2.18038628 2.135 0 2.135"></polygon>
        <polygon id="path-3" points="0.10623196 0.081 2.272 0.081 2.272 1.80807324 0.10623196 1.80807324"></polygon>
    </defs>
    <g id="Page-1" stroke="none" stroke-width="1" fill="none" fill-rule="evenodd">
        <g id="vintage-logo-15">
            <path d="M16.7213,33.5213 C16.6283,30.5793 13.9883,28.4283 13.9573,28.4383 C13.8753,28.3863 10.7263,33.4563 11.3123,36.5523 C11.7983,39.6053 13.3623,40.2783 14.6893,39.4103 C16.0493,38.5253 16.8383,36.4633 16.7213,33.5213 M12.7963,42.1093 C11.9673,39.3213 8.8913,37.8103 8.8703,37.8263 C8.7873,37.7853 7.0563,43.2333 8.3433,46.1033 C9.5363,48.9363 11.1953,49.2653 12.2753,48.1553 C13.3813,47.0153 13.6493,44.8843 12.7963,42.1093 M23.0123,25.7383 C23.7903,22.7463 21.7833,20.0423 21.7443,20.0473 C21.6583,19.9843 16.9853,24.4643 16.7353,27.6763 C16.3863,30.8243 17.7663,31.8143 19.3153,31.2293 C20.9133,30.6213 22.2623,28.7253 23.0123,25.7383 M25.5513,77.4473 C25.6243,74.8993 23.8413,71.4553 23.8723,71.4163 C23.8953,71.4293 20.8313,73.0413 20.5073,75.7523 C20.1993,78.4763 21.4603,80.4893 22.9263,80.8843 C24.4213,81.2943 25.4453,80.0283 25.5513,77.4473 M18.3673,73.5703 C19.7653,74.2843 21.0243,73.2693 21.6383,70.7883 C22.2043,68.3283 21.1113,64.6153 21.1463,64.5863 C21.1653,64.6013 17.8293,65.5223 16.9773,68.0873 C16.1433,70.6663 16.9943,72.8833 18.3673,73.5703 M11.7093,77.7013 C11.6353,77.7153 14.4943,82.6033 17.3813,83.6283 C20.1943,84.6793 21.5103,83.6653 21.4213,82.0863 C21.3343,80.4733 19.9733,78.8113 17.3963,77.6033 C14.8243,76.3763 11.7113,77.6753 11.7093,77.7013 M17.2713,86.3573 C17.2043,86.3863 20.9403,90.6233 23.9573,91.0173 C26.9063,91.4593 27.9873,90.1773 27.5853,88.6483 C27.1693,87.0743 25.5173,85.7233 22.7713,85.0673 C20.0353,84.3943 17.2713,86.3323 17.2713,86.3573 M30.6753,83.2013 C30.2333,80.6743 27.8253,77.6443 27.8463,77.6033 C27.8703,77.6093 25.2133,79.8413 25.4313,82.5943 C25.6643,85.3423 27.2943,87.0673 28.8063,87.1413 C30.3463,87.2273 31.0893,85.7673 30.6753,83.2013 M30.4113,25.4093 C32.8493,23.4523 33.7693,19.7023 33.7693,19.7023 C33.7693,19.7023 29.7313,19.4673 27.1303,21.3923 C23.8353,23.8243 23.9153,25.6473 24.8183,26.5363 C25.7863,27.4543 27.5983,27.6603 30.4113,25.4093 M32.8983,99.4353 C32.8393,99.4993 38.0063,101.8043 41.0063,100.8413 C43.9523,99.9603 44.4313,98.3283 43.3893,97.1183 C42.3253,95.8793 40.2103,95.3713 37.4153,95.9333 C34.6223,96.4773 32.8903,99.4123 32.8983,99.4353 M24.3973,93.7283 C24.3353,93.7723 28.8383,97.1423 31.8923,96.8733 C34.8883,96.6673 35.6813,95.1813 34.9603,93.7653 C34.2203,92.3213 32.3143,91.3503 29.5053,91.2923 C26.6913,91.2093 24.3933,93.7033 24.3973,93.7283 M42.5833,103.0973 C42.5263,103.1783 48.2523,104.2143 51.1213,102.5463 C53.9413,100.9733 54.0553,99.2733 52.7003,98.3713 C51.3193,97.4393 49.0383,97.4583 46.3443,98.6573 C43.6463,99.8313 42.5703,103.0793 42.5833,103.0973 M11.0673,51.1423 C9.6333,48.6253 6.3093,47.8023 6.2903,47.8233 C6.2083,47.7933 5.7883,53.4183 7.6513,55.9473 C9.4233,58.4583 11.0983,58.4323 11.9053,57.1253 C12.7353,55.7933 12.5273,53.6553 11.0673,51.1423 M36.8533,87.7693 C35.8863,85.3873 32.9233,82.9203 32.9363,82.8753 C32.9633,82.8753 30.8243,85.6333 31.5953,88.2923 C32.3883,90.9453 34.3423,92.2853 35.8453,92.0273 C37.3813,91.7813 37.7973,90.1933 36.8533,87.7693 M25.0533,33.8713 C27.6113,33.1303 30.9623,30.2063 31.0423,30.2193 C31.0433,30.2463 28.6393,27.7013 25.6513,28.2593 C22.6743,28.8383 20.9293,30.7493 20.9133,32.3463 C20.8983,33.9733 22.4123,34.5983 25.0533,33.8713 M7.8983,68.1403 C7.8243,68.1403 9.6973,73.4813 12.3513,75.0773 C14.9233,76.6853 16.4233,75.9773 16.6463,74.4273 C16.8743,72.8453 15.8573,70.9463 13.5393,69.2333 C11.2353,67.5033 7.9073,68.1163 7.8983,68.1403 M6.0293,58.0573 C5.9503,58.0403 6.7323,63.6263 9.0453,65.7213 C11.2773,67.8263 12.8993,67.4523 13.4193,65.9983 C13.9543,64.5043 13.3153,62.4523 11.3773,60.2983 C9.4473,58.1363 6.0383,58.0343 6.0293,58.0573 M52.7733,96.4213 C54.1673,95.4793 53.8433,93.8853 51.8273,92.1803 C49.7973,90.5373 45.9303,89.6233 45.9323,89.5663 C45.9563,89.5533 45.1273,92.9913 47.0183,95.0313 C48.9233,97.0623 51.4183,97.3503 52.7733,96.4213 M14.9943,59.9163 C13.6583,62.2383 14.0643,64.5703 15.2853,65.5223 C16.5313,66.5063 17.9743,65.7903 19.0643,63.5053 C20.1033,61.2433 19.7653,57.4023 19.8143,57.3783 C19.8323,57.4003 16.3473,57.5973 14.9943,59.9163 M13.8443,57.0653 C14.8663,58.2813 16.4363,57.8823 17.9763,55.8883 C19.4583,53.9043 19.9463,50.0833 20.0003,50.0683 C20.0163,50.0903 16.5383,49.5513 14.7153,51.5293 C12.9063,53.5223 12.8313,55.8753 13.8443,57.0653 M20.8253,40.7873 C23.0753,39.5793 25.4103,36.2133 25.4813,36.2213 C25.4863,36.2393 22.5343,34.3063 19.8893,35.3953 C17.2553,36.4963 16.1023,38.6413 16.4983,40.1513 C16.8963,41.7003 18.5103,41.9893 20.8253,40.7873 M21.8423,42.9263 C21.8523,42.9493 18.5543,41.6893 16.2983,43.2553 C14.0503,44.8303 13.4583,47.1253 14.1993,48.4993 C14.9413,49.9083 16.5653,49.8503 18.5153,48.2223 C20.4073,46.5953 21.7783,42.9303 21.8423,42.9263 M43.9493,90.8503 C42.4533,88.7643 39.0033,86.9993 39.0133,86.9473 C39.0333,86.9433 37.5103,90.1163 38.8403,92.5403 C40.1893,94.9583 42.4383,95.8203 43.8883,95.2323 C45.3723,94.6343 45.4353,92.9973 43.9493,90.8503" id="Fill-1" fill="#373A3C"></path>
            <path d="M95.5729,39.4099 C96.9019,40.2779 98.4639,39.6049 98.9519,36.5529 C99.5349,33.4559 96.3869,28.3869 96.3079,28.4379 C96.2759,28.4289 93.6369,30.5789 93.5429,33.5209 C93.4249,36.4639 94.2139,38.5249 95.5729,39.4099 M97.9889,48.1549 C99.0689,49.2649 100.7269,48.9359 101.9209,46.1029 C103.2029,43.2329 101.4729,37.7849 101.3919,37.8259 C101.3709,37.8099 98.2979,39.3209 97.4709,42.1089 C96.6189,44.8849 96.8809,47.0149 97.9889,48.1549 M90.9489,31.2289 C92.4969,31.8139 93.8769,30.8239 93.5309,27.6769 C93.2799,24.4649 88.6029,19.9839 88.5199,20.0479 C88.4819,20.0419 86.4729,22.7459 87.2519,25.7379 C87.9959,28.7249 89.3509,30.6209 90.9489,31.2289 M87.3419,80.8849 C88.8029,80.4889 90.0669,78.4759 89.7529,75.7529 C89.4329,73.0409 86.3689,71.4299 86.3909,71.4159 C86.4219,71.4549 84.6389,74.8989 84.7089,77.4469 C84.8169,80.0279 85.8429,81.2949 87.3419,80.8849 M93.2869,68.0879 C92.4359,65.5219 89.0959,64.6009 89.1179,64.5869 C89.1549,64.6149 88.0619,68.3279 88.6249,70.7879 C89.2379,73.2689 90.5009,74.2839 91.8959,73.5699 C93.2689,72.8839 94.1219,70.6659 93.2869,68.0879 M92.8669,77.6029 C90.2879,78.8109 88.9299,80.4729 88.8409,82.0869 C88.7509,83.6649 90.0709,84.6799 92.8849,83.6289 C95.7679,82.6029 98.6299,77.7159 98.5599,77.7009 C98.5539,77.6759 95.4359,76.3769 92.8669,77.6029 M87.4929,85.0669 C84.7489,85.7229 83.0979,87.0739 82.6769,88.6479 C82.2749,90.1779 83.3579,91.4589 86.3079,91.0169 C89.3249,90.6229 93.0619,86.3869 92.9939,86.3569 C92.9939,86.3319 90.2319,84.3939 87.4929,85.0669 M81.4629,87.1409 C82.9689,87.0669 84.5979,85.3429 84.8329,82.5949 C85.0459,79.8419 82.3959,77.6089 82.4179,77.6029 C82.4369,77.6439 80.0299,80.6749 79.5889,83.2009 C79.1769,85.7669 79.9179,87.2269 81.4629,87.1409 M85.4459,26.5359 C86.3479,25.6469 86.4299,23.8239 83.1329,21.3919 C80.5329,19.4679 76.4929,19.7019 76.4929,19.7019 C76.4929,19.7019 77.4119,23.4519 79.8529,25.4089 C82.6649,27.6599 84.4749,27.4539 85.4459,26.5359 M72.8479,95.9329 C70.0549,95.3709 67.9389,95.8799 66.8769,97.1179 C65.8339,98.3279 66.3089,99.9609 69.2589,100.8419 C72.2579,101.8049 77.4269,99.4989 77.3669,99.4349 C77.3749,99.4119 75.6429,96.4769 72.8479,95.9329 M80.7609,91.2929 C77.9499,91.3499 76.0429,92.3209 75.3039,93.7649 C74.5769,95.1809 75.3809,96.6679 78.3759,96.8729 C81.4229,97.1419 85.9269,93.7719 85.8679,93.7279 C85.8749,93.7029 83.5759,91.2089 80.7609,91.2929 M63.9179,98.6569 C61.2279,97.4579 58.9449,97.4389 57.5579,98.3709 C56.2069,99.2729 56.3239,100.9729 59.1429,102.5469 C62.0119,104.2149 67.7369,103.1789 67.6829,103.0979 C67.6969,103.0789 66.6229,99.8309 63.9179,98.6569 M98.3589,57.1249 C99.1679,58.4319 100.8439,58.4579 102.6139,55.9469 C104.4749,53.4189 104.0519,47.7939 103.9769,47.8229 C103.9549,47.8029 100.6329,48.6259 99.1969,51.1419 C97.7379,53.6549 97.5289,55.7939 98.3589,57.1249 M74.4199,92.0269 C75.9269,92.2849 77.8829,90.9449 78.6679,88.2919 C79.4389,85.6339 77.3039,82.8749 77.3259,82.8749 C77.3419,82.9209 74.3809,85.3879 73.4119,87.7689 C72.4669,90.1929 72.8829,91.7809 74.4199,92.0269 M89.3509,32.3469 C89.3349,30.7489 87.5939,28.8389 84.6109,28.2599 C81.6279,27.7009 79.2189,30.2459 79.2189,30.2199 C79.3029,30.2059 82.6569,33.1309 85.2099,33.8709 C87.8579,34.5979 89.3699,33.9729 89.3509,32.3469 M96.7269,69.2329 C94.4079,70.9459 93.3899,72.8459 93.6159,74.4279 C93.8389,75.9769 95.3429,76.6849 97.9169,75.0769 C100.5709,73.4809 102.4409,68.1399 102.3639,68.1399 C102.3569,68.1159 99.0299,67.5039 96.7269,69.2329 M98.8879,60.2989 C96.9449,62.4519 96.3079,64.5049 96.8439,65.9979 C97.3629,67.4519 98.9909,67.8259 101.2199,65.7219 C103.5339,63.6269 104.3119,58.0399 104.2279,58.0569 C104.2259,58.0339 100.8149,58.1369 98.8879,60.2989 M63.2479,95.0309 C65.1379,92.9909 64.3069,89.5539 64.3319,89.5659 C64.3319,89.6229 60.4669,90.5369 58.4349,92.1809 C56.4179,93.8859 56.0949,95.4789 57.4879,96.4219 C58.8439,97.3499 61.3399,97.0619 63.2479,95.0309 M90.4459,57.3789 C90.4969,57.4019 90.1599,61.2429 91.2009,63.5059 C92.2899,65.7899 93.7339,66.5069 94.9749,65.5219 C96.1969,64.5699 96.6029,62.2379 95.2699,59.9159 C93.9189,57.5969 90.4309,57.3999 90.4459,57.3789 M95.5519,51.5289 C93.7239,49.5519 90.2549,50.0909 90.2609,50.0679 C90.3209,50.0829 90.8069,53.9039 92.2869,55.8889 C93.8279,57.8829 95.3979,58.2809 96.4219,57.0649 C97.4329,55.8759 97.3569,53.5219 95.5519,51.5289 M93.7629,40.1509 C94.1609,38.6409 93.0119,36.4959 90.3719,35.3949 C87.7279,34.3059 84.7759,36.2389 84.7859,36.2219 C84.8599,36.2139 87.1919,39.5789 89.4399,40.7869 C91.7559,41.9889 93.3689,41.6999 93.7629,40.1509 M91.7479,48.2229 C93.6969,49.8499 95.3259,49.9079 96.0739,48.4989 C96.8049,47.1249 96.2159,44.8299 93.9659,43.2559 C91.7099,41.6889 88.4129,42.9489 88.4259,42.9269 C88.4819,42.9309 89.8629,46.5959 91.7479,48.2229 M66.3799,95.2319 C67.8259,95.8199 70.0729,94.9579 71.4249,92.5399 C72.7559,90.1159 71.2269,86.9429 71.2479,86.9469 C71.2599,86.9989 67.8059,88.7639 66.3099,90.8499 C64.8289,92.9969 64.8929,94.6349 66.3799,95.2319" id="Fill-3" fill="#373A3C"></path>
            <path d="M38.3092,51.4978 C38.2852,51.3268 38.1382,51.2538 37.9182,51.2538 L36.8432,51.2538 C36.6232,51.2538 36.3792,51.3268 36.1102,51.4738 C35.8412,51.6438 35.5972,51.8398 35.4022,52.0848 C35.3292,52.1578 35.1822,52.3528 34.9622,52.6708 C34.7422,52.9878 34.4492,53.3798 34.1312,53.8438 C33.8142,54.3078 33.4472,54.8458 33.0562,55.4068 C32.6652,55.9698 32.2742,56.5558 31.8592,57.1428 C31.4442,57.7528 31.0282,58.3398 30.6372,58.9008 C30.2222,59.4878 29.8552,60.0008 29.5382,60.4648 C28.8052,61.4908 28.2182,62.4438 27.7792,63.3238 C27.3142,64.2028 27.0452,64.9608 26.9722,65.5968 C26.8742,66.2558 26.9962,66.7448 27.3142,67.1108 C27.6322,67.4768 28.2182,67.6478 29.0492,67.6478 C29.9532,67.6478 30.8812,67.3548 31.8592,66.7938 C32.8122,66.2308 33.7892,65.4988 34.7902,64.5948 C35.7682,63.6898 36.7212,62.6638 37.6742,61.5158 C38.6272,60.3918 39.5062,59.2678 40.3622,58.1198 C41.2172,56.9718 41.9742,55.8958 42.6832,54.8458 C43.3672,53.8188 43.9542,52.9638 44.4172,52.2558 C44.5882,52.0118 44.6622,51.8148 44.6372,51.6438 C44.6132,51.4978 44.5642,51.3998 44.4422,51.3518 C44.3202,51.3268 44.1492,51.3518 43.9782,51.4248 C43.7832,51.4978 43.6122,51.6688 43.4402,51.8888 C42.8782,52.6948 42.2432,53.5998 41.5352,54.6018 C40.8262,55.6028 40.0692,56.6528 39.2872,57.7038 C38.4802,58.7548 37.6742,59.7808 36.8432,60.7828 C36.0122,61.7848 35.2062,62.6878 34.4002,63.4708 C33.5932,64.2768 32.8122,64.9118 32.0542,65.3758 C31.2972,65.8648 30.6132,66.1088 30.0022,66.1088 C29.6352,66.1088 29.4402,65.9628 29.3912,65.6938 C29.3422,65.4248 29.4152,65.0338 29.6112,64.5698 C29.7822,64.1048 30.0762,63.5438 30.4662,62.9078 C30.8572,62.2728 31.2972,61.5888 31.8102,60.8808 C32.0792,60.5138 32.4202,60.0248 32.8362,59.4388 C33.2512,58.8768 33.6662,58.2668 34.1312,57.6308 C34.5712,56.9958 35.0112,56.3598 35.4752,55.7258 C35.9392,55.0898 36.3552,54.5038 36.7212,53.9658 C37.0872,53.4528 37.4062,53.0128 37.6502,52.6708 C37.8942,52.3288 38.0402,52.1338 38.0892,52.0848 C38.2602,51.8638 38.3332,51.6688 38.3092,51.4978 M43.6592,59.2428 C43.6102,59.0968 43.4622,59.0228 43.2432,59.0228 L42.5352,59.0228 C42.3142,59.0228 42.0452,59.0968 41.7772,59.2428 C41.5082,59.3908 41.2642,59.5858 41.0932,59.8298 C40.9952,59.9518 40.7992,60.1958 40.5312,60.5628 C40.2622,60.9298 39.9452,61.3448 39.6262,61.8098 C39.3092,62.2728 38.9922,62.7618 38.6742,63.2268 C38.3562,63.7148 38.0872,64.1298 37.9162,64.4478 C37.6482,64.8878 37.4772,65.3028 37.3792,65.7188 C37.2812,66.1338 37.2812,66.4998 37.3542,66.8178 C37.4282,67.1358 37.5752,67.3548 37.8432,67.5018 C38.1122,67.6478 38.4782,67.6728 38.9432,67.5748 C39.3092,67.5018 39.7002,67.3308 40.1162,67.0618 C40.5312,66.7938 40.9702,66.4998 41.4352,66.1338 C41.8742,65.7678 42.3142,65.3758 42.7542,64.9608 C43.1942,64.5458 43.6102,64.1298 43.9762,63.7388 C44.3422,63.3488 44.6352,62.9808 44.9052,62.6638 C45.1732,62.3468 45.3442,62.1018 45.4662,61.9318 C45.5882,61.7348 45.6622,61.5638 45.6862,61.3938 C45.7102,61.2228 45.6862,61.1008 45.6132,61.0268 C45.5392,60.9538 45.4172,60.9538 45.2712,61.0268 C45.1002,61.1008 44.9292,61.2708 44.7082,61.5398 C44.3672,61.9558 43.9522,62.3948 43.4872,62.8838 C43.0232,63.3728 42.5592,63.8368 42.0942,64.2518 C41.6302,64.6678 41.1912,65.0098 40.8242,65.2778 C40.4332,65.5478 40.1642,65.6448 39.9942,65.5968 C39.8712,65.5718 39.8222,65.4248 39.8462,65.2048 C39.8712,64.9848 40.0422,64.6438 40.3602,64.1538 C40.6042,63.7638 40.8972,63.3238 41.2152,62.8588 C41.5332,62.3948 41.8502,61.9558 42.1672,61.5158 C42.4612,61.1008 42.7302,60.7338 42.9742,60.4158 C43.2182,60.0988 43.3652,59.9028 43.4382,59.8298 C43.6102,59.6098 43.6832,59.4148 43.6592,59.2428 M45.4662,55.1138 C45.1982,54.8698 44.8802,54.7478 44.5132,54.7478 C44.1472,54.7478 43.8302,54.8698 43.5612,55.1138 C43.2912,55.3828 43.1692,55.7008 43.1692,56.0668 C43.1692,56.4338 43.2912,56.7508 43.5612,57.0198 C43.8302,57.2888 44.1472,57.4108 44.5132,57.4108 C44.8802,57.4108 45.1982,57.2888 45.4662,57.0198 C45.7102,56.7508 45.8322,56.4338 45.8322,56.0668 C45.8322,55.7008 45.7102,55.3828 45.4662,55.1138 M49.2522,59.7318 C48.6422,60.0988 48.0062,60.5628 47.3962,61.0758 L48.2752,59.8298 C48.4462,59.6098 48.5192,59.4148 48.4952,59.2428 C48.4462,59.0968 48.2992,59.0228 48.0802,59.0228 L47.3722,59.0228 C47.1512,59.0228 46.8822,59.0968 46.6142,59.2428 C46.3452,59.3908 46.1012,59.5858 45.9292,59.8298 L41.0182,66.7938 C40.8472,67.0138 40.7742,67.2088 40.7982,67.3798 C40.8232,67.5508 40.9692,67.6238 41.1902,67.6238 L41.8982,67.6238 C42.1182,67.6238 42.3872,67.5508 42.6562,67.3798 C42.9242,67.2328 43.1682,67.0378 43.3642,66.7938 L43.9992,65.8898 L44.0972,65.7678 C44.4882,65.2048 44.9772,64.6188 45.5872,63.9828 C46.1742,63.3728 46.7602,62.7858 47.3472,62.2728 C47.9332,61.7598 48.4702,61.3688 48.9352,61.0518 C49.3992,60.7338 49.6922,60.6368 49.8392,60.7098 C50.0102,60.7828 49.9612,61.0268 49.6432,61.4178 C49.3262,61.8338 48.8132,62.4688 48.1282,63.3238 C47.5672,64.0568 47.1752,64.7168 46.9552,65.2778 C46.7362,65.8408 46.6382,66.3048 46.7112,66.6708 C46.7602,67.0378 46.9312,67.3068 47.2482,67.4768 C47.5672,67.6478 47.9572,67.6728 48.4462,67.5748 C48.7882,67.5018 49.1792,67.3308 49.6192,67.0618 C50.0352,66.7938 50.4742,66.4998 50.9132,66.1338 C51.3542,65.7678 51.7932,65.3758 52.2332,64.9608 C52.6492,64.5458 53.0642,64.1298 53.4302,63.7388 C53.7972,63.3488 54.1152,62.9808 54.3832,62.6638 C54.6522,62.3468 54.8242,62.1018 54.9462,61.9318 C55.0682,61.7348 55.1412,61.5638 55.1652,61.3938 C55.1902,61.2228 55.1652,61.1008 55.0922,61.0268 C55.0192,60.9538 54.8972,60.9538 54.7502,61.0268 C54.5792,61.1008 54.3832,61.2708 54.1632,61.5398 C53.8462,61.9558 53.4302,62.3948 52.9662,62.8838 C52.5022,63.3728 52.0382,63.8368 51.5742,64.2518 C51.1102,64.6678 50.6692,65.0098 50.3032,65.2778 C49.9132,65.5478 49.6432,65.6448 49.4722,65.5968 L49.3262,65.4738 C49.3012,65.3998 49.3012,65.2778 49.3742,65.1068 C49.4232,64.9358 49.5452,64.7168 49.7162,64.4238 C49.8882,64.1298 50.1572,63.7638 50.5232,63.3238 C51.2562,62.4198 51.7692,61.6618 52.0862,61.0758 C52.3802,60.5138 52.5272,60.0498 52.5022,59.7318 C52.4782,59.4148 52.3312,59.2188 52.0622,59.1208 C51.7932,59.0228 51.4272,58.9988 51.0112,59.0718 C50.4502,59.1448 49.8642,59.3658 49.2522,59.7318 M53.2332,55.2118 C52.8672,55.4558 52.5982,55.7008 52.4272,55.9698 C52.2552,56.2378 52.1822,56.5068 52.2312,56.7268 C52.2812,56.9468 52.5252,57.0688 52.9402,57.0448 C53.2082,57.0448 53.7472,57.0198 54.5772,56.9958 C55.3832,56.9718 56.3612,56.9228 57.4602,56.8738 C56.9472,57.6058 56.3852,58.3638 55.8232,59.1698 C55.2612,59.9768 54.7232,60.7338 54.2102,61.4418 C53.6982,62.1508 53.2822,62.7858 52.9152,63.3238 C52.5492,63.8858 52.3052,64.2518 52.1822,64.4478 C51.9382,64.8878 51.7672,65.3028 51.6692,65.7188 C51.5722,66.1338 51.5722,66.4998 51.6452,66.8178 C51.7182,67.1358 51.8652,67.3548 52.1332,67.5018 C52.4032,67.6478 52.7692,67.6728 53.2572,67.5748 C53.6242,67.5018 54.0152,67.3308 54.4302,67.0618 C54.8462,66.7938 55.2862,66.4998 55.7492,66.1338 C56.1902,65.7678 56.6292,65.3758 57.0692,64.9608 C57.4852,64.5458 57.9002,64.1298 58.2662,63.7388 C58.6332,63.3488 58.9512,62.9808 59.2192,62.6638 C59.4882,62.3468 59.6592,62.1018 59.7822,61.9318 C59.9042,61.7348 59.9772,61.5638 60.0012,61.3938 C60.0262,61.2228 60.0012,61.1008 59.9282,61.0268 C59.8552,60.9538 59.7332,60.9538 59.5612,61.0268 C59.3902,61.1008 59.1952,61.2708 58.9752,61.5398 C58.6582,61.9558 58.2422,62.3948 57.7782,62.8838 C57.3142,63.3728 56.8492,63.8368 56.3852,64.2518 C55.9202,64.6678 55.4812,65.0098 55.1152,65.2778 C54.7232,65.5478 54.4552,65.6448 54.2842,65.5968 C54.1622,65.5718 54.1372,65.4248 54.1622,65.2048 C54.1862,64.9848 54.3572,64.6438 54.6502,64.1538 C54.7972,63.9348 55.0662,63.5438 55.4322,63.0058 C55.7982,62.4688 56.2142,61.8578 56.7032,61.1488 C57.1912,60.4648 57.7052,59.7318 58.2662,58.9748 C58.8292,58.2178 59.3412,57.4838 59.8552,56.7748 C60.9792,56.7268 62.1022,56.6778 63.2502,56.6288 C64.3742,56.5798 65.4252,56.5308 66.4032,56.4818 C67.3562,56.4338 68.2102,56.3848 68.9192,56.3598 C69.6282,56.3358 70.0922,56.3108 70.3362,56.3108 C70.7512,56.3108 70.9722,56.2138 71.0212,56.0428 C71.0702,55.8718 70.9972,55.6768 70.8012,55.4558 C70.6052,55.2608 70.3362,55.0898 69.9702,54.9188 C69.6042,54.7478 69.2122,54.6748 68.7972,54.6988 L67.7222,54.6988 C67.2092,54.7238 66.6222,54.7238 65.9632,54.7238 C65.2792,54.7478 64.5452,54.7478 63.7402,54.7478 C62.9332,54.7718 62.1262,54.7718 61.3212,54.7718 C61.5892,54.4058 61.8332,54.0878 62.0292,53.8188 C62.2012,53.5748 62.3232,53.4288 62.3472,53.4038 C62.5182,53.1848 62.5912,52.9878 62.5672,52.8168 C62.5182,52.6708 62.3712,52.5978 62.1512,52.5978 L61.4432,52.5978 C61.2232,52.5978 60.9552,52.6708 60.6852,52.8168 C60.4162,52.9878 60.1722,53.1848 60.0012,53.4038 L58.9512,54.8208 C57.9002,54.8458 56.9712,54.8458 56.1412,54.8458 C55.3102,54.8698 54.6992,54.8698 54.3082,54.8698 C53.9422,54.8698 53.5762,54.9918 53.2332,55.2118 M56.8972,64.0318 C56.5062,64.7408 56.2872,65.3758 56.2382,65.8898 C56.1892,66.4268 56.2872,66.8428 56.5312,67.1598 C56.7752,67.4768 57.1182,67.6238 57.5812,67.6238 C57.8992,67.6238 58.2662,67.5508 58.6322,67.3798 C58.9982,67.2328 59.3402,67.0378 59.7072,66.7938 C60.0742,66.5728 60.4152,66.3048 60.7582,66.0118 C61.1002,65.7188 61.4172,65.4248 61.7102,65.1558 C61.5642,65.5228 61.4912,65.8898 61.4662,66.2068 C61.4422,66.5238 61.4662,66.8178 61.5882,67.0378 C61.6862,67.2578 61.8572,67.4288 62.1262,67.5258 C62.3712,67.6478 62.6882,67.6478 63.1032,67.5748 C63.4702,67.5018 63.8612,67.3308 64.2762,67.0618 C64.6922,66.7938 65.1312,66.4998 65.5962,66.1338 C66.0362,65.7678 66.4752,65.3758 66.9152,64.9608 C67.3552,64.5458 67.7702,64.1298 68.1372,63.7388 C68.5032,63.3488 68.7962,62.9808 69.0652,62.6638 C69.3342,62.3468 69.5052,62.1018 69.6272,61.9318 C69.7492,61.7348 69.8232,61.5638 69.8472,61.3938 C69.8712,61.2228 69.8472,61.1008 69.7742,61.0268 C69.7012,60.9538 69.5792,60.9538 69.4322,61.0268 C69.2612,61.1008 69.0892,61.2708 68.8702,61.5398 C68.5282,61.9558 68.1132,62.3948 67.6482,62.8838 C67.1842,63.3728 66.7192,63.8368 66.2552,64.2518 C65.7912,64.6678 65.3512,65.0098 64.9852,65.2778 C64.5942,65.5478 64.3262,65.6448 64.1542,65.5968 C64.0322,65.5718 63.9832,65.4248 64.0322,65.2048 C64.0562,64.9848 64.2272,64.6438 64.5452,64.1538 C64.7652,63.7638 65.0582,63.3238 65.3752,62.8588 C65.6942,62.3948 66.0112,61.9558 66.3292,61.5158 C66.6212,61.1008 66.8912,60.7338 67.1352,60.4158 C67.3792,60.0988 67.5262,59.9028 67.5992,59.8298 C67.7702,59.6098 67.8432,59.4148 67.8192,59.2428 C67.7702,59.0968 67.6232,59.0228 67.4042,59.0228 L66.6952,59.0228 C66.4992,59.0228 66.2802,59.0718 66.0602,59.1698 C65.8402,59.2678 65.6212,59.4148 65.4492,59.5858 C65.1562,59.3168 64.7892,59.1448 64.3262,59.0478 C63.8612,58.9748 63.3482,58.9988 62.7612,59.1448 C62.1752,59.3168 61.5392,59.6098 60.8562,60.0248 C60.1712,60.4398 59.4632,61.0268 58.7052,61.7598 C57.8992,62.5658 57.2882,63.3238 56.8972,64.0318 M60.9542,61.6128 C61.3692,61.2468 61.8322,60.9048 62.2972,60.6368 C62.7612,60.3668 63.2262,60.1718 63.6902,60.0738 C64.1542,59.9768 64.5702,60.0248 64.9362,60.2448 L64.6672,60.5878 C64.4482,60.8808 64.1542,61.2468 63.7882,61.6858 C63.4212,62.1268 63.0302,62.5658 62.6152,63.0058 C62.2002,63.4708 61.7592,63.8858 61.3442,64.2768 C60.9292,64.6918 60.5382,64.9848 60.1712,65.2048 C59.6592,65.5228 59.2912,65.6698 59.0722,65.6208 C58.8282,65.5718 58.7052,65.3998 58.7052,65.1068 C58.6812,64.8388 58.7792,64.4728 58.9982,64.0318 C59.1942,63.6168 59.4882,63.1778 59.8782,62.7368 C60.1712,62.3708 60.5382,62.0048 60.9542,61.6128 M66.7912,64.0318 C66.4002,64.7408 66.1802,65.3758 66.1312,65.8898 C66.0822,66.4268 66.1802,66.8428 66.4242,67.1598 C66.6682,67.4768 67.0112,67.6238 67.4752,67.6238 C67.8412,67.6238 68.2332,67.5258 68.6482,67.3308 C69.0632,67.1598 69.4552,66.9158 69.8702,66.6218 C70.2852,66.3528 70.6762,66.0358 71.0422,65.6938 C71.4092,65.3758 71.7272,65.0588 72.0202,64.7658 C71.4822,65.4248 70.9452,66.1338 70.3822,66.8428 C69.8212,67.5508 69.3082,68.2348 68.8432,68.8698 C68.3792,69.5058 67.9632,70.0668 67.6462,70.5318 C67.3292,70.9958 67.1092,71.3378 67.0362,71.5088 C66.8892,71.8028 66.8652,72.0958 66.9382,72.3888 C67.0112,72.7058 67.1332,72.9508 67.3042,73.1458 C67.4752,73.3418 67.6952,73.4638 67.9142,73.5128 C68.1352,73.5608 68.3062,73.4638 68.4282,73.2438 C69.1362,72.1198 69.8212,71.0198 70.5302,69.9208 C71.2382,68.8458 71.9222,67.8188 72.5812,66.8428 C73.2422,65.8648 73.8522,64.9608 74.4392,64.1048 C75.0002,63.2748 75.5142,62.5418 75.9542,61.9318 C76.3932,61.3198 76.7602,60.8078 77.0292,60.4398 C77.2972,60.0738 77.4442,59.8788 77.4932,59.8298 C77.6632,59.6098 77.7372,59.4148 77.7122,59.2428 C77.6632,59.0968 77.5172,59.0228 77.2972,59.0228 L76.5882,59.0228 C76.3932,59.0228 76.1732,59.0718 75.9542,59.1698 C75.7342,59.2678 75.5142,59.4148 75.3422,59.5858 C75.0492,59.3168 74.6832,59.1448 74.2192,59.0478 C73.7542,58.9748 73.2422,58.9988 72.6552,59.1448 C72.0692,59.3168 71.4332,59.6098 70.7492,60.0248 C70.0652,60.4398 69.3572,61.0268 68.5992,61.7598 C67.7922,62.5658 67.1822,63.3238 66.7912,64.0318 M70.8472,61.6128 C71.2622,61.2468 71.7272,60.9048 72.1912,60.6368 C72.6552,60.3668 73.1202,60.1718 73.5832,60.0738 C74.0472,59.9768 74.4632,60.0248 74.8302,60.2448 C74.6592,60.4888 74.3902,60.8318 74.0232,61.2708 C73.6572,61.7348 73.2422,62.1998 72.8012,62.7128 C72.3372,63.2268 71.8732,63.6898 71.3842,64.1538 C70.8962,64.6188 70.4562,64.9608 70.0652,65.2048 C69.5522,65.5228 69.1852,65.6698 68.9652,65.6208 C68.7212,65.5718 68.5992,65.3998 68.5992,65.1068 C68.5752,64.8388 68.6722,64.4728 68.8922,64.0318 C69.0872,63.6168 69.3812,63.1778 69.7722,62.7368 C70.0652,62.3708 70.4312,62.0048 70.8472,61.6128 M84.6992,60.4158 C84.7232,60.1228 84.6742,59.8788 84.5522,59.6588 C84.4062,59.4638 84.1862,59.2918 83.9172,59.1698 C83.6492,59.0478 83.3062,58.9988 82.9402,58.9988 C81.9872,58.9988 81.1082,59.2188 80.2772,59.6348 C79.4212,60.0498 78.6892,60.5878 78.0532,61.2228 C77.4182,61.8828 76.9052,62.5658 76.5142,63.2998 C76.1222,64.0568 75.9032,64.7408 75.8782,65.3758 C75.8302,66.0358 75.9762,66.5728 76.3432,66.9888 C76.7092,67.4038 77.2952,67.6238 78.1512,67.6238 C78.7382,67.6238 79.3972,67.4288 80.1552,67.0618 C80.9122,66.6948 81.6692,66.2068 82.4522,65.6448 C83.2332,65.0828 83.9912,64.4728 84.7232,63.8118 C85.4562,63.1528 86.0922,62.5178 86.6052,61.9318 C86.7512,61.7598 86.8492,61.5888 86.8732,61.4178 C86.8982,61.2708 86.8492,61.1738 86.7762,61.1008 C86.7032,61.0518 86.5802,61.0518 86.4102,61.1008 C86.2392,61.1488 86.0432,61.2958 85.8232,61.5398 C85.2612,62.1268 84.6502,62.6878 83.9662,63.2508 C83.2822,63.8118 82.5982,64.3258 81.9382,64.7408 C81.2792,65.1558 80.6432,65.4988 80.0812,65.7188 C79.5192,65.9378 79.0552,66.0118 78.7382,65.9138 C78.4192,65.8408 78.2002,65.6448 78.1262,65.3268 C78.0532,65.0338 78.0532,64.6918 78.1512,64.2768 C78.8112,64.2268 79.4702,64.1048 80.1062,63.9348 C80.7412,63.7638 81.3282,63.5438 81.8652,63.2748 C82.4032,63.0058 82.8912,62.7128 83.3062,62.3948 C83.7222,62.0778 84.0392,61.7348 84.2842,61.3688 C84.5282,61.0268 84.6742,60.7098 84.6992,60.4158 M82.3042,60.1228 C82.5252,60.1958 82.6472,60.3428 82.6712,60.5378 C82.6962,60.7338 82.6222,60.9778 82.4762,61.2468 C82.3042,61.5398 82.0602,61.8098 81.7182,62.0778 C81.3762,62.3468 80.9362,62.5908 80.3992,62.8108 C79.8622,63.0308 79.2262,63.2018 78.4932,63.2748 C78.6402,62.9568 78.8112,62.6148 79.0312,62.2978 C79.2502,61.9798 79.4702,61.6618 79.7392,61.3688 C79.9842,61.1008 80.2522,60.8558 80.5212,60.6368 C80.7892,60.4398 81.0822,60.2938 81.3522,60.1958 C81.7672,60.0738 82.0842,60.0498 82.3042,60.1228" id="Fill-5" fill="#414042"></path>
            <path d="M53.1666,37.9011 L54.4346,23.1931 L49.6316,23.1931 L39.4586,40.1351 L48.4976,40.1351 L47.9966,46.0051 L52.4336,46.0051 L52.9666,40.1351 L55.5346,40.1351 L55.7346,37.9011 L53.1666,37.9011 Z M48.6976,37.9011 L45.3956,37.9011 L49.2646,31.4981 L48.6976,37.9011 Z M67.5416,24.1601 C66.6066,23.5261 65.3736,23.1931 63.8726,23.1931 C62.3056,23.1931 61.0046,23.5931 59.9706,24.3601 C58.8026,25.1941 58.1356,26.3941 58.0026,27.9281 L57.9356,28.6631 L60.1706,28.6631 L60.2366,27.9281 C60.3036,27.2281 60.6036,26.6621 61.1036,26.1951 C61.6046,25.7611 62.1386,25.4941 62.7716,25.4271 C64.1396,25.2941 64.9396,25.8611 65.1406,27.1291 C65.3396,28.3961 64.8726,29.5961 63.7386,30.7631 L56.7346,37.9341 L56.5346,40.1351 L67.4406,40.1351 L67.6416,37.9011 L61.7706,37.9011 L66.7076,32.6981 C68.3416,30.9641 69.1756,29.1961 69.1756,27.3621 C69.1756,25.9611 68.6426,24.8941 67.5416,24.1601 Z" id="Fill-7" fill="#414042"></path>
            <polygon id="Fill-9" fill="#414042" points="1.1207 66.2576 3.2327 65.8516 2.9327 64.2956 2.5167 64.3756 2.7247 65.4606 2.2867 65.5446 2.1047 64.5986 1.7037 64.6766 1.8857 65.6216 1.4497 65.7056 1.2477 64.6536 0.8277 64.7356"></polygon>
            <path d="M0.8756,62.5545 C0.8496,62.3565 0.8946,62.1575 1.0096,61.9525 L0.6296,61.7575 C0.5556,61.8765 0.5016,62.0075 0.4716,62.1585 C0.4416,62.3075 0.4366,62.4505 0.4556,62.5945 C0.4836,62.8115 0.5636,62.9875 0.6916,63.1165 C0.8216,63.2465 0.9866,63.2995 1.1876,63.2735 C1.3936,63.2455 1.5316,63.1675 1.6106,63.0395 C1.6896,62.9135 1.7446,62.7205 1.7706,62.4655 C1.7886,62.3045 1.8116,62.1935 1.8416,62.1365 L1.9826,62.0365 L2.1456,62.0895 L2.2306,62.2895 C2.2566,62.4855 2.1856,62.7115 2.0146,62.9675 L2.3986,63.2045 C2.6126,62.9005 2.6976,62.5805 2.6526,62.2425 C2.6216,62.0075 2.5356,61.8265 2.3966,61.6995 C2.2596,61.5725 2.0976,61.5215 1.9046,61.5475 C1.7136,61.5735 1.5766,61.6475 1.4916,61.7735 C1.4056,61.8995 1.3536,62.0655 1.3286,62.2735 C1.3066,62.4845 1.2806,62.6175 1.2516,62.6775 L1.1136,62.7835 L0.9546,62.7335 L0.8756,62.5545 Z" id="Fill-11" fill="#414042"></path>
            <polygon id="Fill-13" fill="#414042" points="0.5348 58.7986 0.1218 58.8316 0.2578 60.5246 0.6718 60.4906 0.6228 59.8836 2.3508 59.7446 2.3128 59.2666 0.5838 59.4056"></polygon>
            <path d="M2.1432,55.53 L0.0172,56.52 L0.0312,56.986 L2.2092,57.855 L2.1952,57.343 L1.7242,57.157 L1.6992,56.255 L2.1582,56.041 L2.1432,55.53 Z M1.2822,56.448 L1.2972,56.987 L0.6642,56.733 L1.2822,56.448 Z" id="Fill-15" fill="#414042"></path>
            <g id="Group-19" transform="translate(0.000000, 52.257000)">
                <mask id="mask-2" fill="white">
                    <use xlink:href="#path-1"></use>
                </mask>
                <g id="Clip-18"></g>
                <path d="M1.9967,0.565 C1.8857,0.46 1.7547,0.404 1.6037,0.4 C1.4687,0.396 1.3527,0.432 1.2587,0.506 C1.1677,0.585 1.1017,0.69 1.0707,0.822 L1.0357,0.744 L0.9857,0.666 C0.9057,0.555 0.7847,0.497 0.6147,0.492 C0.4757,0.488 0.3487,0.534 0.2347,0.626 C0.1757,0.676 0.1237,0.755 0.0867,0.859 C0.0497,0.965 0.0277,1.091 0.0237,1.236 L-0.0003,2.074 L2.1527,2.135 L2.1797,1.193 C2.1877,0.897 2.1257,0.689 1.9967,0.565 Z M0.4207,1.605 L0.4267,1.374 C0.4307,1.232 0.4487,1.131 0.4807,1.074 C0.5147,1.016 0.5767,0.987 0.6717,0.99 C0.7677,0.993 0.8307,1.025 0.8567,1.09 C0.8827,1.156 0.8947,1.257 0.8917,1.39 L0.8857,1.618 L0.4207,1.605 Z M1.2647,1.628 L1.2717,1.345 C1.2757,1.185 1.2957,1.069 1.3277,0.996 C1.3637,0.926 1.4297,0.891 1.5277,0.893 C1.6297,0.896 1.6937,0.932 1.7257,1.001 C1.7577,1.073 1.7727,1.174 1.7687,1.313 L1.7597,1.643 L1.2647,1.628 Z" id="Fill-17" fill="#414042" mask="url(#mask-2)"></path>
            </g>
            <polygon id="Fill-20" fill="#414042" points="2.3941 49.9802 1.9671 49.9462 1.8941 50.8592 0.1771 50.7202 0.1391 51.1992 2.2821 51.3722"></polygon>
            <polygon id="Fill-22" fill="#414042" points="2.5338 48.7488 2.5928 48.2728 0.4608 48.0098 0.4008 48.4848"></polygon>
            <path d="M1.1559,45.866 C1.1899,45.669 1.2919,45.492 1.4639,45.331 L1.1589,45.032 C1.0519,45.123 0.9619,45.232 0.8879,45.366 C0.8149,45.501 0.7669,45.637 0.7429,45.779 C0.7049,45.994 0.7279,46.186 0.8129,46.347 C0.8969,46.512 1.0399,46.611 1.2399,46.646 C1.4429,46.681 1.5989,46.648 1.7139,46.55 C1.8269,46.453 1.9369,46.285 2.0369,46.049 C2.1029,45.901 2.1579,45.801 2.2029,45.756 L2.3689,45.703 L2.5079,45.802 L2.5299,46.018 C2.4969,46.213 2.3599,46.408 2.1199,46.6 L2.4179,46.943 C2.7129,46.716 2.8889,46.436 2.9469,46.099 C2.9879,45.865 2.9599,45.667 2.8659,45.504 C2.7709,45.341 2.6319,45.245 2.4409,45.212 C2.2499,45.179 2.0969,45.209 1.9769,45.304 C1.8579,45.399 1.7589,45.541 1.6729,45.733 C1.5889,45.928 1.5239,46.048 1.4779,46.096 L1.3149,46.156 L1.1779,46.06 L1.1559,45.866 Z" id="Fill-24" fill="#414042"></path>
            <polygon id="Fill-26" fill="#414042" points="2.3854 42.4646 2.1914 43.3006 1.3134 43.0976 1.2044 43.5666 3.3064 44.0536 3.4154 43.5846 2.5884 43.3936 2.7814 42.5576 3.6094 42.7486 3.7184 42.2796 1.6154 41.7926 1.5074 42.2616"></polygon>
            <polygon id="Fill-28" fill="#414042" points="2.0182 40.3035 4.0802 40.9125 4.5282 39.3935 4.1222 39.2735 3.8082 40.3315 3.3802 40.2055 3.6542 39.2825 3.2612 39.1665 2.9892 40.0895 2.5642 39.9645 2.8672 38.9385 2.4572 38.8175"></polygon>
            <path d="M3.1568,36.6882 L2.9018,37.4062 L4.9328,38.1262 L5.1788,37.4322 C5.3158,37.0452 5.3268,36.7222 5.2108,36.4682 C5.0938,36.2142 4.8778,36.0332 4.5608,35.9202 C4.2448,35.8082 3.9638,35.8162 3.7178,35.9482 C3.4708,36.0802 3.2858,36.3252 3.1568,36.6882 M4.7948,37.2442 L4.6928,37.5312 L3.4578,37.0922 L3.5478,36.8402 C3.6298,36.6112 3.7428,36.4582 3.8898,36.3822 C4.0368,36.3102 4.2108,36.3102 4.4108,36.3802 C4.6108,36.4522 4.7428,36.5612 4.8078,36.7092 C4.8728,36.8592 4.8678,37.0382 4.7948,37.2442" id="Fill-30" fill="#414042"></path>
            <polygon id="Fill-32" fill="#414042" points="6.7594 33.4968 6.9584 33.0598 4.9984 32.1658 4.7994 32.6028"></polygon>
            <polygon id="Fill-34" fill="#414042" points="7.568 30.0877 5.855 30.3907 5.65 30.7887 7.558 31.7747 7.778 31.3477 6.583 30.7307 8.248 30.4387 8.467 30.0127 6.558 29.0267 6.339 29.4537"></polygon>
            <polygon id="Fill-36" fill="#414042" points="8.4918 26.5007 8.7098 26.1547 10.1808 27.0837 10.4288 26.6937 8.6098 25.5467 8.1458 26.2827"></polygon>
            <polygon id="Fill-38" fill="#414042" points="10.192 24.3992 9.964 24.2412 10.273 23.7952 11.227 25.4712 11.526 25.0422 10.554 23.3052 10.256 23.0972 9.369 24.3742 9.935 24.7682"></polygon>
            <path d="M11.4693,22.3406 C11.5983,22.4416 11.7523,22.4786 11.9273,22.4496 C11.9273,22.6756 12.0143,22.8566 12.1923,22.9936 C12.3413,23.1096 12.5153,23.1466 12.7103,23.1066 C12.9063,23.0666 13.0793,22.9466 13.2283,22.7546 C13.3773,22.5616 13.4483,22.3626 13.4393,22.1636 C13.4293,21.9656 13.3493,21.8066 13.2003,21.6916 C13.0233,21.5536 12.8263,21.5146 12.6073,21.5706 C12.5893,21.3976 12.5163,21.2596 12.3843,21.1566 C12.2553,21.0576 12.1023,21.0286 11.9253,21.0706 C11.7473,21.1126 11.5943,21.2206 11.4643,21.3886 C11.3333,21.5576 11.2683,21.7336 11.2723,21.9146 C11.2733,22.0996 11.3393,22.2406 11.4693,22.3406 Z M12.4773,22.6066 L12.3723,22.3926 L12.4593,22.1586 L12.6633,22.0166 L12.8963,22.0646 L12.9963,22.2786 L12.9113,22.5086 L12.7093,22.6496 L12.4773,22.6066 Z M11.7823,22.0056 L11.6913,21.8256 L11.7593,21.6166 L11.9453,21.4986 L12.1413,21.5426 L12.2353,21.7246 L12.1663,21.9326 L11.9843,22.0486 L11.7823,22.0056 Z" id="Fill-40" fill="#414042"></path>
            <path d="M14.4869,20.4763 L14.3379,20.5263 L14.2639,20.5393 L14.3629,20.9433 L14.5549,20.8943 L14.7599,20.7943 L14.9849,20.6073 C15.1419,20.4253 15.2109,20.2153 15.1919,19.9743 C15.1809,19.8553 15.1349,19.7303 15.0529,19.5933 C14.9719,19.4613 14.8579,19.3303 14.7099,19.2013 C14.4789,19.0003 14.2459,18.8793 14.0139,18.8373 C13.8919,18.8173 13.7729,18.8283 13.6569,18.8733 C13.5379,18.9203 13.4299,19.0023 13.3309,19.1173 C13.1869,19.2823 13.1169,19.4613 13.1229,19.6573 C13.1279,19.8533 13.2119,20.0243 13.3769,20.1673 C13.5419,20.3113 13.7159,20.3723 13.9049,20.3573 C14.0909,20.3443 14.2539,20.2603 14.3849,20.1103 C14.4839,19.9963 14.5449,19.8613 14.5629,19.7023 C14.6699,19.8153 14.7299,19.9283 14.7509,20.0403 C14.7699,20.1553 14.7359,20.2643 14.6489,20.3643 L14.4869,20.4763 Z M13.8879,19.9113 L13.6639,19.8223 L13.5529,19.6073 L13.6349,19.3813 L13.8609,19.2713 L14.0979,19.3553 L14.2009,19.5713 L14.1079,19.8043 L13.8879,19.9113 Z" id="Fill-42" fill="#414042"></path>
            <polygon id="Fill-44" fill="#414042" points="17.6246 17.7175 17.9646 17.3795 16.4516 15.8575 16.1116 16.1955"></polygon>
            <polygon id="Fill-46" fill="#414042" points="19.6012 14.8045 17.8852 14.4785 17.5502 14.7805 18.9922 16.3845 19.3502 16.0625 18.4472 15.0575 20.1152 15.3755 20.4722 15.0535 19.0312 13.4495 18.6722 13.7715"></polygon>
            <polygon id="Fill-48" fill="#414042" points="23.6412 11.574 21.9702 11.091 21.6102 11.357 22.8892 13.084 23.2752 12.798 22.4732 11.717 24.0972 12.188 24.4822 11.903 23.2032 10.177 22.8182 10.463"></polygon>
            <path d="M26.5631,9.7937 C26.5341,9.9747 26.4441,10.1127 26.2931,10.2097 C26.1411,10.3087 25.9781,10.3337 25.8001,10.2867 C25.6261,10.2417 25.4851,10.1387 25.3791,9.9757 C25.2761,9.8147 25.2401,9.6457 25.2691,9.4647 C25.2991,9.2837 25.3891,9.1457 25.5421,9.0467 C25.6921,8.9497 25.8551,8.9247 26.0321,8.9717 C26.2091,9.0187 26.3491,9.1217 26.4531,9.2817 C26.5581,9.4447 26.5951,9.6157 26.5631,9.7937 M26.8641,9.0167 C26.6921,8.7507 26.4581,8.5867 26.1591,8.5267 C25.8601,8.4667 25.5791,8.5237 25.3121,8.6957 C25.0451,8.8687 24.8771,9.1017 24.8091,9.3987 C24.7411,9.6957 24.7941,9.9767 24.9661,10.2427 C25.1381,10.5097 25.3711,10.6707 25.6691,10.7307 C25.9681,10.7897 26.2511,10.7347 26.5181,10.5637 C26.7851,10.3917 26.9511,10.1547 27.0191,9.8577 C27.0871,9.5617 27.0371,9.2827 26.8641,9.0167" id="Fill-50" fill="#414042"></path>
            <path d="M28.9459,6.8015 C28.7639,6.7735 28.5309,6.8395 28.2379,7.0025 L27.5259,7.3995 L28.5719,9.2785 L28.9909,9.0445 L28.6569,8.4455 L28.9469,8.2825 L29.6979,8.6515 L30.2139,8.3635 L29.3639,7.9565 C29.5529,7.7355 29.5639,7.4755 29.3959,7.1745 C29.2749,6.9565 29.1259,6.8325 28.9459,6.8015 M28.7609,7.9115 L28.4549,8.0815 L28.1449,7.5265 L28.4599,7.3515 C28.5939,7.2765 28.6989,7.2425 28.7729,7.2495 C28.8479,7.2575 28.9139,7.3135 28.9689,7.4115 C29.0259,7.5145 29.0409,7.6045 29.0149,7.6785 C28.9899,7.7525 28.9039,7.8325 28.7609,7.9115" id="Fill-52" fill="#414042"></path>
            <polygon id="Fill-54" fill="#414042" points="31.8883 5.5847 31.7063 5.2127 30.1823 5.9577 30.3653 6.3307 30.9113 6.0637 31.6733 7.6197 32.1043 7.4087 31.3423 5.8527"></polygon>
            <polygon id="Fill-56" fill="#414042" points="34.527 4.9558 33.739 5.2868 33.391 4.4598 32.949 4.6458 33.782 6.6258 34.224 6.4398 33.896 5.6608 34.684 5.3298 35.011 6.1088 35.453 5.9238 34.621 3.9428 34.178 4.1288"></polygon>
            <path d="M38.7369,4.1033 C38.5859,4.0253 38.4779,3.8883 38.4179,3.6983 C38.3569,3.5063 38.3719,3.3373 38.4589,3.1843 C38.5439,3.0353 38.6729,2.9323 38.8449,2.8773 C39.0589,2.8093 39.2699,2.8433 39.4709,2.9763 L39.6529,2.5633 C39.3459,2.3793 39.0239,2.3393 38.6859,2.4473 C38.3839,2.5423 38.1649,2.7253 38.0199,2.9943 C37.8759,3.2623 37.8509,3.5513 37.9469,3.8533 C38.0439,4.1593 38.2259,4.3783 38.4949,4.5123 C38.7599,4.6483 39.0529,4.6653 39.3699,4.5653 C39.6839,4.4653 39.9189,4.2463 40.0669,3.9113 L39.6779,3.7023 C39.5909,3.9263 39.4369,4.0723 39.2109,4.1433 C39.0469,4.1963 38.8869,4.1813 38.7369,4.1033" id="Fill-58" fill="#414042"></path>
            <path d="M43.3785,3.4578 L41.9565,1.5898 L41.5055,1.7018 L41.1195,4.0178 L41.6155,3.8948 L41.6985,3.3948 L42.5755,3.1768 L42.8815,3.5808 L43.3785,3.4578 Z M42.2975,2.8108 L41.7745,2.9398 L41.8865,2.2678 L42.2975,2.8108 Z" id="Fill-60" fill="#414042"></path>
            <polygon id="Fill-62" fill="#414042" points="45.8736 2.9568 45.7926 2.5368 44.8926 2.7098 44.5666 1.0188 44.0956 1.1088 44.5016 3.2208"></polygon>
            <polygon id="Fill-64" fill="#414042" points="47.1129 2.7605 47.5889 2.6905 47.2739 0.5585 46.7979 0.6285"></polygon>
            <polygon id="Fill-66" fill="#414042" points="48.774 0.3621 48.998 2.5051 49.476 2.4551 49.388 1.6151 50.333 1.5161 50.289 1.0961 49.344 1.1951 49.296 0.7321 50.29 0.6291 50.246 0.2091"></polygon>
            <path d="M53.2164,1.5896 C53.0984,1.7306 52.9504,1.8046 52.7724,1.8126 C52.5904,1.8196 52.4364,1.7586 52.3074,1.6286 C52.1794,1.5006 52.1104,1.3406 52.1024,1.1466 C52.0944,0.9556 52.1494,0.7896 52.2664,0.6496 C52.3834,0.5086 52.5314,0.4346 52.7134,0.4266 C52.8924,0.4186 53.0454,0.4806 53.1744,0.6106 C53.3034,0.7406 53.3714,0.9016 53.3804,1.0926 C53.3884,1.2856 53.3334,1.4516 53.2164,1.5896 M53.8694,1.0706 C53.8564,0.7536 53.7374,0.4936 53.5094,0.2906 C53.2814,0.0876 53.0094,-0.0064 52.6924,0.0076 C52.3754,0.0216 52.1124,0.1376 51.9024,0.3596 C51.6924,0.5806 51.5964,0.8506 51.6094,1.1676 C51.6224,1.4846 51.7414,1.7416 51.9694,1.9446 C52.1964,2.1486 52.4694,2.2446 52.7864,2.2316 C53.1044,2.2176 53.3664,2.0986 53.5764,1.8766 C53.7864,1.6546 53.8834,1.3886 53.8694,1.0706" id="Fill-68" fill="#414042"></path>
            <path d="M56.7652,0.198 C56.6222,0.082 56.3872,0.021 56.0512,0.015 L55.2352,1.42108547e-14 L55.1952,2.152 L55.6752,2.162 L55.6882,1.474 L56.0202,1.481 L56.4852,2.177 L57.0762,2.188 L56.5452,1.408 C56.8222,1.311 56.9612,1.092 56.9672,0.747 C56.9722,0.498 56.9052,0.314 56.7652,0.198 M56.0462,1.065 L55.6962,1.059 L55.7072,0.422 L56.0682,0.428 C56.2222,0.431 56.3292,0.455 56.3902,0.499 C56.4512,0.544 56.4802,0.624 56.4782,0.738 C56.4762,0.855 56.4442,0.94 56.3842,0.992 C56.3252,1.043 56.2102,1.069 56.0462,1.065" id="Fill-70" fill="#414042"></path>
            <polygon id="Fill-72" fill="#414042" points="59.8805 1.6023 58.9405 0.1383 58.4925 0.1023 58.3195 2.2453 58.7975 2.2833 58.9055 0.9413 59.8185 2.3663 60.2965 2.4043 60.4695 0.2613 59.9905 0.2233"></polygon>
            <polygon id="Fill-74" fill="#414042" points="61.7203 2.5652 62.1963 2.6272 62.4703 0.4952 61.9933 0.4332"></polygon>
            <path d="M65.6139,3.1804 L65.0729,0.8964 L64.6139,0.8154 L63.3219,2.7754 L63.8259,2.8644 L64.1039,2.4404 L64.9939,2.5984 L65.1099,3.0914 L65.6139,3.1804 Z M64.8879,2.1504 L64.3569,2.0564 L64.7329,1.4874 L64.8879,2.1504 Z" id="Fill-76" fill="#414042"></path>
            <path d="M69.0934,3.3904 C69.0104,3.2434 68.9934,3.0694 69.0464,2.8764 C69.0994,2.6844 69.2024,2.5494 69.3594,2.4684 C69.5114,2.3894 69.6754,2.3734 69.8504,2.4214 C70.0674,2.4814 70.2254,2.6234 70.3214,2.8444 L70.6974,2.5974 C70.5404,2.2764 70.2914,2.0684 69.9504,1.9744 C69.6454,1.8904 69.3624,1.9244 69.0954,2.0714 C68.8284,2.2174 68.6524,2.4464 68.5684,2.7514 C68.4834,3.0604 68.5174,3.3434 68.6694,3.6014 C68.8184,3.8594 69.0544,4.0324 69.3744,4.1194 C69.6924,4.2074 70.0064,4.1504 70.3134,3.9514 L70.1004,3.5644 C69.9054,3.7044 69.6974,3.7444 69.4694,3.6814 C69.3034,3.6354 69.1774,3.5364 69.0934,3.3904" id="Fill-78" fill="#414042"></path>
            <path d="M73.3385,5.3523 L73.1475,3.0123 L72.7065,2.8643 L71.1345,4.6063 L71.6185,4.7703 L71.9575,4.3933 L72.8135,4.6833 L72.8545,5.1883 L73.3385,5.3523 Z M72.7765,4.2243 L72.2655,4.0513 L72.7235,3.5453 L72.7765,4.2243 Z" id="Fill-80" fill="#414042"></path>
            <polygon id="Fill-82" fill="#414042" points="74.5641 5.863 74.7741 5.86 74.9161 5.712 74.9161 5.503 74.7631 5.36 74.5581 5.361 74.4121 5.511 74.4171 5.718"></polygon>
            <path d="M79.1236,7.6629 C79.2646,7.6049 79.3696,7.5099 79.4356,7.3739 C79.4946,7.2529 79.5096,7.1339 79.4806,7.0169 C79.4476,6.9009 79.3786,6.7989 79.2716,6.7159 L79.3566,6.7169 L79.4486,6.7039 C79.5826,6.6769 79.6856,6.5909 79.7606,6.4379 C79.8206,6.3139 79.8326,6.1799 79.7956,6.0379 L79.6446,5.8079 C79.5626,5.7289 79.4586,5.6579 79.3286,5.5949 L78.5776,5.2259 L77.6336,7.1559 L78.4776,7.5689 C78.7426,7.6989 78.9576,7.7279 79.1236,7.6629 Z M78.8296,5.8019 L79.0366,5.9029 C79.1636,5.9659 79.2486,6.0229 79.2866,6.0769 L79.2846,6.2839 L79.1166,6.4109 C79.0466,6.4069 78.9486,6.3769 78.8296,6.3179 L78.6256,6.2189 L78.8296,5.8019 Z M78.4596,6.5589 L78.7136,6.6829 C78.8566,6.7529 78.9556,6.8169 79.0086,6.8779 L79.0186,7.1009 C78.9736,7.1919 78.9146,7.2359 78.8396,7.2359 C78.7616,7.2359 78.6616,7.2079 78.5376,7.1469 L78.2416,7.0029 L78.4596,6.5589 Z" id="Fill-84" fill="#414042"></path>
            <polygon id="Fill-86" fill="#414042" points="81.4938 8.197 82.7768 7.423 82.3228 7.17 81.5278 7.642 81.5118 6.718 81.0568 6.466 81.0748 7.964 80.6618 8.706 81.0808 8.939"></polygon>
            <polygon id="Fill-88" fill="#414042" points="86.3727 10.2029 86.6037 9.8579 85.1927 8.9119 84.9617 9.2569 85.4677 9.5969 84.5007 11.0379 84.8997 11.3059 85.8667 9.8629"></polygon>
            <path d="M87.902,12.741 C87.722,12.774 87.56,12.737 87.419,12.63 C87.273,12.52 87.194,12.375 87.177,12.192 C87.16,12.012 87.209,11.845 87.326,11.69 C87.441,11.539 87.589,11.445 87.769,11.412 C87.949,11.378 88.11,11.415 88.255,11.525 C88.397,11.633 88.477,11.778 88.493,11.961 C88.509,12.142 88.461,12.31 88.344,12.463 C88.228,12.617 88.08,12.71 87.902,12.741 M88.735,12.758 C88.926,12.505 89.001,12.228 88.955,11.928 C88.909,11.626 88.758,11.381 88.506,11.189 C88.253,10.998 87.976,10.92 87.673,10.957 C87.371,10.994 87.125,11.14 86.933,11.393 C86.742,11.646 86.67,11.92 86.715,12.221 C86.761,12.522 86.91,12.77 87.163,12.962 C87.416,13.153 87.694,13.229 87.997,13.192 C88.299,13.154 88.544,13.011 88.735,12.758" id="Fill-90" fill="#414042"></path>
            <polygon id="Fill-92" fill="#414042" points="90.527 15.7048 90.89 16.0198 92.301 14.3948 91.813 13.9718 90.617 14.4978 90.974 13.2418 90.484 12.8158 89.072 14.4408 89.435 14.7558 90.323 13.7328 89.989 15.0008 90.205 15.1878 91.416 14.6828"></polygon>
            <path d="M94.8824,17.5359 L94.1494,18.2319 L93.9304,18.3419 L93.7504,18.2689 C93.6534,18.1669 93.6114,18.0189 93.6234,17.8299 L93.2004,17.8869 C93.1894,18.1649 93.2724,18.3959 93.4504,18.5839 C93.5924,18.7339 93.7584,18.8139 93.9414,18.8239 C94.1244,18.8329 94.3094,18.7469 94.4954,18.5699 L95.5154,17.6029 L94.7434,16.7889 L94.4444,17.0729 L94.8824,17.5359 Z" id="Fill-94" fill="#414042"></path>
            <polygon id="Fill-96" fill="#414042" points="96.5338 18.7263 94.8988 20.1273 95.9308 21.3323 96.2538 21.0553 95.5338 20.2163 95.8738 19.9253 96.5008 20.6583 96.8118 20.3913 96.1838 19.6593 96.5208 19.3703 97.2188 20.1843 97.5438 19.9053"></polygon>
            <polygon id="Fill-98" fill="#414042" points="98.4645 21.0515 96.7595 22.3615 97.0515 22.7415 97.7205 22.2285 98.2975 22.9805 98.6315 22.7235 98.0545 21.9725 98.4225 21.6895 99.0295 22.4805 99.3645 22.2235"></polygon>
            <polygon id="Fill-100" fill="#414042" points="100.2037 23.3767 98.4277 24.5957 98.6987 24.9917 99.3947 24.5147 99.9327 25.2967 100.2807 25.0587 99.7437 24.2747 100.1277 24.0127 100.6917 24.8357 101.0407 24.5967"></polygon>
            <polygon id="Fill-102" fill="#414042" points="101.8033 25.7683 99.9653 26.8953 100.7963 28.2483 101.1583 28.0273 100.5793 27.0823 100.9613 26.8493 101.4663 27.6713 101.8163 27.4573 101.3113 26.6343 101.6903 26.4023 102.2503 27.3173 102.6153 27.0933"></polygon>
            <path d="M103.9225,29.8113 C103.9545,29.6293 103.8915,29.3943 103.7335,29.0983 L103.3485,28.3783 L101.4495,29.3943 L101.6765,29.8173 L102.2815,29.4943 L102.4395,29.7873 L102.0585,30.5323 L102.3365,31.0533 L102.7595,30.2093 C102.9785,30.4033 103.2375,30.4183 103.5415,30.2553 C103.7615,30.1383 103.8885,29.9903 103.9225,29.8113 M102.8145,29.6073 L102.6485,29.2973 L103.2105,28.9973 L103.3805,29.3153 C103.4535,29.4513 103.4855,29.5553 103.4765,29.6303 C103.4675,29.7053 103.4105,29.7703 103.3115,29.8243 C103.2075,29.8783 103.1165,29.8923 103.0435,29.8663 C102.9695,29.8383 102.8915,29.7513 102.8145,29.6073" id="Fill-104" fill="#414042"></path>
            <path d="M104.7906,32.0496 C104.8746,32.2316 104.8906,32.4336 104.8416,32.6636 L105.2616,32.7366 C105.2966,32.6016 105.3096,32.4596 105.2936,32.3086 C105.2766,32.1556 105.2396,32.0176 105.1796,31.8866 C105.0876,31.6886 104.9596,31.5446 104.7986,31.4596 C104.6356,31.3726 104.4626,31.3716 104.2786,31.4566 C104.0916,31.5436 103.9816,31.6586 103.9446,31.8046 C103.9066,31.9476 103.9116,32.1496 103.9636,32.3996 C103.9926,32.5586 104.0046,32.6716 103.9926,32.7346 L103.8876,32.8716 L103.7166,32.8696 L103.5756,32.7036 C103.4926,32.5266 103.4946,32.2876 103.5816,31.9936 L103.1436,31.8816 C103.0296,32.2366 103.0436,32.5656 103.1866,32.8746 C103.2866,33.0896 103.4226,33.2366 103.5926,33.3176 C103.7616,33.3976 103.9316,33.3976 104.1066,33.3156 C104.2816,33.2346 104.3906,33.1226 104.4346,32.9776 C104.4786,32.8316 104.4786,32.6576 104.4416,32.4516 C104.3996,32.2446 104.3846,32.1096 104.3946,32.0436 L104.4946,31.9026 L104.6616,31.9036 L104.7906,32.0496 Z" id="Fill-106" fill="#414042"></path>
            <path d="M105.1578,35.9109 C104.9868,35.8469 104.8688,35.7309 104.8028,35.5649 C104.7358,35.3959 104.7438,35.2309 104.8238,35.0669 C104.9018,34.9039 105.0308,34.7869 105.2108,34.7159 C105.3878,34.6449 105.5628,34.6419 105.7338,34.7069 C105.9048,34.7709 106.0238,34.8869 106.0908,35.0559 C106.1558,35.2219 106.1488,35.3869 106.0678,35.5509 C105.9878,35.7159 105.8578,35.8329 105.6808,35.9029 C105.5008,35.9739 105.3268,35.9769 105.1578,35.9109 M105.8608,36.3579 C106.1558,36.2409 106.3628,36.0439 106.4788,35.7629 C106.5958,35.4809 106.5948,35.1929 106.4778,34.8979 C106.3618,34.6029 106.1658,34.3929 105.8878,34.2679 C105.6098,34.1429 105.3248,34.1399 105.0298,34.2579 C104.7348,34.3739 104.5308,34.5699 104.4148,34.8519 C104.2978,35.1339 104.2958,35.4219 104.4128,35.7169 C104.5288,36.0119 104.7278,36.2209 105.0058,36.3459 C105.2838,36.4709 105.5668,36.4739 105.8608,36.3579" id="Fill-108" fill="#414042"></path>
            <polygon id="Fill-110" fill="#414042" points="106.4664 39.1697 107.4624 37.7387 107.3244 37.3107 105.2744 37.9707 105.4214 38.4277 106.7064 38.0147 105.7364 39.4047 105.8824 39.8627 107.9344 39.2027 107.7864 38.7447"></polygon>
            <polygon id="Fill-112" fill="#414042" points="108.7897 42.4207 106.6867 42.8877 107.0317 44.4367 107.4467 44.3447 107.2067 43.2647 107.6427 43.1677 107.8527 44.1087 108.2517 44.0207 108.0427 43.0787 108.4757 42.9827 108.7087 44.0287 109.1267 43.9367"></polygon>
            <path d="M109.1451,46.1414 C109.1771,46.3384 109.1371,46.5374 109.0281,46.7454 L109.4141,46.9294 C109.4841,46.8094 109.5341,46.6764 109.5591,46.5254 C109.5841,46.3744 109.5861,46.2314 109.5631,46.0884 C109.5281,45.8724 109.4441,45.7004 109.3111,45.5754 C109.1781,45.4474 109.0111,45.3994 108.8111,45.4314 C108.6081,45.4644 108.4711,45.5464 108.3961,45.6774 C108.3211,45.8044 108.2711,45.9994 108.2531,46.2544 C108.2391,46.4154 108.2201,46.5284 108.1921,46.5854 L108.0531,46.6894 L107.8891,46.6414 L107.7981,46.4444 C107.7661,46.2494 107.8321,46.0214 107.9961,45.7604 L107.6031,45.5354 C107.3981,45.8454 107.3231,46.1664 107.3771,46.5034 C107.4161,46.7374 107.5071,46.9154 107.6491,47.0384 C107.7911,47.1624 107.9541,47.2074 108.1451,47.1764 C108.3351,47.1454 108.4691,47.0674 108.5511,46.9394 C108.6331,46.8104 108.6811,46.6434 108.7001,46.4344 C108.7151,46.2234 108.7381,46.0884 108.7651,46.0284 L108.9001,45.9184 L109.0601,45.9644 L109.1451,46.1414 Z" id="Fill-114" fill="#414042"></path>
            <polygon id="Fill-116" fill="#414042" points="109.5983 49.8767 110.0113 49.8307 109.8273 48.1397 109.4133 48.1847 109.4793 48.7907 107.7503 48.9797 107.8033 49.4577 109.5323 49.2697"></polygon>
            <path d="M108.0807,53.1922 L110.1807,52.1402 L110.1537,51.6742 L107.9487,50.8672 L107.9767,51.3782 L108.4537,51.5512 L108.5057,52.4542 L108.0517,52.6802 L108.0807,53.1922 Z M108.9167,52.2492 L108.8867,51.7102 L109.5267,51.9452 L108.9167,52.2492 Z" id="Fill-118" fill="#414042"></path>
            <g id="Group-122" transform="translate(108.000000, 54.257000)">
                <mask id="mask-4" fill="white">
                    <use xlink:href="#path-3"></use>
                </mask>
                <g id="Clip-121"></g>
                <path d="M0.2975,1.648 C0.4095,1.752 0.5415,1.806 0.6925,1.808 C0.8275,1.81 0.9425,1.771 1.0355,1.696 C1.1255,1.617 1.1895,1.51 1.2185,1.377 L1.2545,1.456 L1.3065,1.533 C1.3875,1.642 1.5105,1.7 1.6795,1.702 C1.8185,1.704 1.9445,1.656 2.0575,1.562 C2.1155,1.511 2.1665,1.431 2.2015,1.328 C2.2375,1.22 2.2575,1.094 2.2595,0.949 L2.2725,0.112 L0.1185,0.081 L0.1065,1.023 C0.1015,1.319 0.1665,1.526 0.2975,1.648 Z M1.8585,0.586 L1.8555,0.817 C1.8535,0.959 1.8365,1.06 1.8045,1.119 C1.7735,1.176 1.7105,1.207 1.6155,1.205 C1.5205,1.204 1.4555,1.171 1.4295,1.107 C1.4015,1.042 1.3885,0.94 1.3905,0.807 L1.3935,0.58 L1.8585,0.586 Z M1.0145,0.574 L1.0105,0.858 C1.0085,1.018 0.9905,1.134 0.9595,1.208 C0.9245,1.278 0.8595,1.314 0.7605,1.313 C0.6585,1.311 0.5955,1.277 0.5625,1.209 C0.5285,1.137 0.5125,1.036 0.5145,0.897 L0.5195,0.567 L1.0145,0.574 Z" id="Fill-120" fill="#414042" mask="url(#mask-4)"></path>
            </g>
            <polygon id="Fill-123" fill="#414042" points="107.9918 58.7351 108.4198 58.7571 108.4678 57.8391 110.1918 57.9291 110.2168 57.4491 108.0638 57.3371"></polygon>
            <polygon id="Fill-125" fill="#414042" points="107.8863 59.9763 107.8413 60.4553 109.9843 60.6583 110.0293 60.1793"></polygon>
            <path d="M109.3492,62.8113 C109.3212,63.0093 109.2242,63.1893 109.0572,63.3553 L109.3702,63.6463 C109.4742,63.5513 109.5622,63.4393 109.6312,63.3033 C109.7012,63.1663 109.7452,63.0303 109.7652,62.8863 C109.7962,62.6693 109.7672,62.4793 109.6782,62.3203 C109.5892,62.1583 109.4442,62.0623 109.2432,62.0343 C109.0382,62.0043 108.8832,62.0413 108.7732,62.1443 C108.6622,62.2433 108.5562,62.4153 108.4632,62.6543 C108.4012,62.8033 108.3492,62.9053 108.3052,62.9523 L108.1412,63.0093 L107.9992,62.9153 L107.9712,62.6993 C107.9992,62.5033 108.1302,62.3043 108.3642,62.1043 L108.0572,61.7713 C107.7682,62.0063 107.6002,62.2903 107.5512,62.6293 C107.5182,62.8643 107.5522,63.0623 107.6512,63.2223 C107.7482,63.3823 107.8912,63.4753 108.0832,63.5023 C108.2762,63.5303 108.4272,63.4963 108.5432,63.3973 C108.6612,63.2983 108.7562,63.1533 108.8362,62.9593 C108.9142,62.7623 108.9762,62.6403 109.0202,62.5903 L109.1822,62.5263 L109.3212,62.6183 L109.3492,62.8113 Z" id="Fill-127" fill="#414042"></path>
            <polygon id="Fill-129" fill="#414042" points="108.2125 66.2771 108.3825 65.4371 109.2645 65.6151 109.3595 65.1441 107.2475 64.7171 107.1525 65.1891 107.9835 65.3561 107.8145 66.1971 106.9835 66.0291 106.8885 66.5001 108.9995 66.9261 109.0955 66.4551"></polygon>
            <polygon id="Fill-131" fill="#414042" points="108.6539 68.4021 106.5719 67.8531 106.1689 69.3871 106.5789 69.4951 106.8609 68.4261 107.2929 68.5401 107.0469 69.4721 107.4429 69.5761 107.6879 68.6441 108.1179 68.7571 107.8439 69.7941 108.2579 69.9031"></polygon>
            <path d="M107.6119,72.0672 L107.8479,71.3422 L105.7979,70.6722 L105.5679,71.3742 C105.4409,71.7642 105.4389,72.0882 105.5609,72.3392 C105.6839,72.5902 105.9059,72.7662 106.2249,72.8712 C106.5459,72.9752 106.8269,72.9612 107.0699,72.8222 C107.3129,72.6842 107.4919,72.4342 107.6119,72.0672 M105.9579,71.5522 L106.0519,71.2622 L107.2999,71.6702 L107.2159,71.9252 C107.1409,72.1572 107.0309,72.3132 106.8849,72.3912 C106.7409,72.4672 106.5669,72.4722 106.3639,72.4072 C106.1619,72.3402 106.0269,72.2352 105.9589,72.0882 C105.8899,71.9402 105.8899,71.7612 105.9579,71.5522" id="Fill-133" fill="#414042"></path>
            <polygon id="Fill-135" fill="#414042" points="104.1119 75.3484 103.9249 75.7924 105.9159 76.6254 106.1009 76.1814"></polygon>
            <polygon id="Fill-137" fill="#414042" points="103.3981 78.7869 105.1051 78.4359 105.3001 78.0309 103.3611 77.0979 103.1531 77.5299 104.3681 78.1149 102.7081 78.4539 102.4991 78.8869 104.4381 79.8209 104.6471 79.3879"></polygon>
            <polygon id="Fill-139" fill="#414042" points="102.5953 82.3797 102.3883 82.7337 100.8843 81.8537 100.6513 82.2527 102.5093 83.3387 102.9493 82.5867"></polygon>
            <polygon id="Fill-141" fill="#414042" points="100.942 84.5574 101.175 84.7084 100.879 85.1634 99.873 83.5134 99.587 83.9534 100.612 85.6634 100.917 85.8634 101.767 84.5574 101.188 84.1794"></polygon>
            <path d="M99.7272,86.6336 C99.5952,86.5366 99.4412,86.5036 99.2672,86.5376 C99.2612,86.3116 99.1692,86.1346 98.9892,86.0016 C98.8362,85.8916 98.6632,85.8596 98.4692,85.9046 C98.2762,85.9496 98.1052,86.0726 97.9622,86.2696 C97.8192,86.4656 97.7522,86.6646 97.7682,86.8626 C97.7842,87.0616 97.8672,87.2176 98.0192,87.3276 C98.2002,87.4606 98.3972,87.4936 98.6142,87.4316 C98.6362,87.6046 98.7122,87.7396 98.8462,87.8386 C98.9782,87.9346 99.1312,87.9586 99.3072,87.9116 C99.4832,87.8646 99.6322,87.7536 99.7582,87.5816 C99.8832,87.4106 99.9442,87.2346 99.9352,87.0526 C99.9292,86.8686 99.8592,86.7296 99.7272,86.6336 Z M98.7152,86.3966 L98.8252,86.6066 L98.7452,86.8416 L98.5452,86.9886 L98.3122,86.9476 L98.2062,86.7376 L98.2852,86.5056 L98.4832,86.3606 L98.7152,86.3966 Z M99.4232,86.9756 L99.5192,87.1526 L99.4572,87.3626 L99.2762,87.4856 L99.0792,87.4476 L98.9802,87.2696 L99.0422,87.0596 L99.2222,86.9386 L99.4232,86.9756 Z" id="Fill-143" fill="#414042"></path>
            <path d="M96.7701,88.5877 L96.9171,88.5327 L96.9901,88.5177 L96.8801,88.1167 L96.6891,88.1717 L96.4871,88.2767 L96.2681,88.4717 C96.1171,88.6567 96.0551,88.8687 96.0821,89.1087 C96.0951,89.2287 96.1451,89.3527 96.2311,89.4847 C96.3161,89.6147 96.4341,89.7427 96.5861,89.8667 C96.8221,90.0607 97.0591,90.1737 97.2911,90.2097 C97.4141,90.2257 97.5331,90.2117 97.6481,90.1627 C97.7651,90.1107 97.8711,90.0267 97.9651,89.9097 C98.1041,89.7407 98.1681,89.5597 98.1581,89.3637 C98.1471,89.1677 98.0581,88.9997 97.8881,88.8617 C97.7191,88.7237 97.5431,88.6667 97.3551,88.6887 C97.1691,88.7067 97.0091,88.7947 96.8831,88.9497 C96.7881,89.0667 96.7311,89.2027 96.7161,89.3617 C96.6071,89.2527 96.5431,89.1417 96.5191,89.0297 C96.4971,88.9167 96.5281,88.8067 96.6111,88.7037 L96.7701,88.5877 Z M97.3841,89.1337 L97.6121,89.2157 L97.7291,89.4267 L97.6541,89.6547 L97.4311,89.7717 L97.1921,89.6947 L97.0831,89.4837 L97.1681,89.2467 L97.3841,89.1337 Z" id="Fill-145" fill="#414042"></path>
            <polygon id="Fill-147" fill="#414042" points="93.6979 91.4548 93.3669 91.8038 94.9299 93.2858 95.2609 92.9368"></polygon>
            <polygon id="Fill-149" fill="#414042" points="91.8258 94.4002 93.5428 94.6722 93.8668 94.3632 92.3848 92.8092 92.0378 93.1402 92.9668 94.1142 91.2978 93.8462 90.9508 94.1772 92.4328 95.7312 92.7798 95.4002"></polygon>
            <polygon id="Fill-151" fill="#414042" points="87.857 97.7703 89.545 98.2083 89.9 97.9313 88.57 96.2353 88.191 96.5323 89.025 97.5943 87.383 97.1663 87.004 97.4623 88.335 99.1583 88.713 98.8613"></polygon>
            <path d="M85.0074,99.616 C85.0314,99.434 85.1184,99.293 85.2664,99.192 C85.4154,99.089 85.5784,99.059 85.7574,99.101 C85.9344,99.141 86.0764,99.241 86.1874,99.401 C86.2944,99.559 86.3364,99.728 86.3114,99.91 C86.2864,100.092 86.2004,100.233 86.0504,100.336 C85.9034,100.437 85.7394,100.467 85.5614,100.425 C85.3834,100.383 85.2394,100.282 85.1314,100.125 C85.0224,99.965 84.9804,99.795 85.0074,99.616 M84.7284,100.402 C84.9064,100.664 85.1464,100.821 85.4464,100.873 C85.7474,100.925 86.0284,100.859 86.2894,100.679 C86.5514,100.501 86.7134,100.262 86.7744,99.963 C86.8344,99.664 86.7734,99.385 86.5934,99.123 C86.4134,98.86 86.1774,98.706 85.8764,98.654 C85.5754,98.602 85.2934,98.665 85.0314,98.845 C84.7694,99.024 84.6094,99.264 84.5494,99.564 C84.4884,99.863 84.5484,100.14 84.7284,100.402" id="Fill-153" fill="#414042"></path>
            <path d="M82.7096,102.6892 C82.8926,102.7122 83.1246,102.6382 83.4126,102.4662 L84.1126,102.0462 L83.0066,100.1992 L82.5946,100.4452 L82.9466,101.0352 L82.6616,101.2062 L81.8986,100.8622 L81.3916,101.1662 L82.2546,101.5462 C82.0716,101.7752 82.0686,102.0352 82.2466,102.3312 C82.3746,102.5442 82.5286,102.6652 82.7096,102.6892 M82.8586,101.5732 L83.1606,101.3922 L83.4886,101.9392 L83.1796,102.1252 C83.0476,102.2042 82.9426,102.2412 82.8686,102.2352 C82.7936,102.2302 82.7256,102.1772 82.6666,102.0792 C82.6066,101.9782 82.5896,101.8882 82.6116,101.8142 C82.6356,101.7392 82.7196,101.6562 82.8586,101.5732" id="Fill-155" fill="#414042"></path>
            <polygon id="Fill-157" fill="#414042" points="79.7994 103.9939 79.9924 104.3629 81.5004 103.5689 81.3064 103.2009 80.7664 103.4849 79.9544 101.9449 79.5284 102.1699 80.3394 103.7099"></polygon>
            <polygon id="Fill-159" fill="#414042" points="77.1705 104.7009 77.9495 104.3469 78.3225 105.1649 78.7605 104.9659 77.8665 103.0059 77.4295 103.2049 77.7805 103.9759 77.0015 104.3319 76.6495 103.5599 76.2125 103.7599 77.1065 105.7199 77.5435 105.5199"></polygon>
            <path d="M72.9996,105.6629 C73.1516,105.7369 73.2636,105.8719 73.3286,106.0599 C73.3936,106.2489 73.3836,106.4189 73.3006,106.5739 C73.2196,106.7249 73.0936,106.8309 72.9216,106.8899 C72.7096,106.9629 72.4986,106.9349 72.2956,106.8069 L72.1236,107.2239 C72.4346,107.3989 72.7576,107.4309 73.0916,107.3149 C73.3916,107.2129 73.6056,107.0239 73.7426,106.7529 C73.8796,106.4809 73.8966,106.1919 73.7936,105.8929 C73.6896,105.5909 73.5016,105.3759 73.2296,105.2489 C72.9616,105.1199 72.6696,105.1109 72.3546,105.2189 C72.0446,105.3259 71.8156,105.5519 71.6766,105.8899 L72.0696,106.0879 C72.1506,105.8619 72.3016,105.7129 72.5246,105.6359 C72.6876,105.5789 72.8476,105.5889 72.9996,105.6629" id="Fill-161" fill="#414042"></path>
            <path d="M68.3766,106.45 L69.8506,108.271 L70.2976,108.146 L70.6136,105.825 L70.1216,105.962 L70.0546,106.464 L69.1866,106.706 L68.8676,106.312 L68.3766,106.45 Z M69.4746,107.063 L69.9926,106.918 L69.8996,107.593 L69.4746,107.063 Z" id="Fill-163" fill="#414042"></path>
            <polygon id="Fill-165" fill="#414042" points="65.902 107.0203 65.995 107.4383 66.891 107.2393 67.265 108.9233 67.734 108.8193 67.267 106.7173"></polygon>
            <polygon id="Fill-167" fill="#414042" points="64.6608 107.2556 64.1868 107.3396 64.5628 109.4616 65.0368 109.3776"></polygon>
            <polygon id="Fill-169" fill="#414042" points="63.0797 109.6961 62.7957 107.5641 62.3197 107.6281 62.4317 108.4641 61.4917 108.5891 61.5477 109.0071 62.4867 108.8821 62.5487 109.3421 61.5597 109.4731 61.6157 109.8911"></polygon>
            <path d="M58.6275,108.5974 C58.7405,108.4534 58.8865,108.3754 59.0645,108.3634 C59.2445,108.3504 59.3995,108.4074 59.5315,108.5334 C59.6635,108.6564 59.7365,108.8144 59.7505,109.0074 C59.7645,109.1974 59.7145,109.3644 59.6015,109.5074 C59.4875,109.6514 59.3425,109.7294 59.1615,109.7424 C58.9835,109.7544 58.8285,109.6984 58.6965,109.5724 C58.5655,109.4464 58.4915,109.2874 58.4785,109.0974 C58.4645,108.9054 58.5145,108.7384 58.6275,108.5974 M57.9905,109.1324 C58.0135,109.4484 58.1395,109.7034 58.3725,109.9004 C58.6055,110.0964 58.8785,110.1814 59.1945,110.1594 C59.5105,110.1364 59.7695,110.0134 59.9725,109.7854 C60.1745,109.5594 60.2635,109.2874 60.2405,108.9724 C60.2185,108.6574 60.0925,108.4044 59.8595,108.2074 C59.6275,108.0114 59.3535,107.9234 59.0375,107.9464 C58.7215,107.9684 58.4625,108.0944 58.2605,108.3214 C58.0575,108.5484 57.9685,108.8164 57.9905,109.1324" id="Fill-171" fill="#414042"></path>
            <path d="M55.0973,110.0974 C55.2433,110.2094 55.4823,110.2614 55.8183,110.2564 L56.6333,110.2444 L56.6033,108.0924 L56.1223,108.0994 L56.1323,108.7854 L55.7993,108.7904 L55.3133,108.1114 L54.7213,108.1184 L55.2783,108.8814 C55.0043,108.9874 54.8723,109.2104 54.8773,109.5554 C54.8803,109.8044 54.9543,109.9854 55.0973,110.0974 M55.7873,109.2064 L56.1383,109.2014 L56.1473,109.8394 L55.7863,109.8444 C55.6333,109.8464 55.5253,109.8264 55.4623,109.7844 C55.4013,109.7424 55.3683,109.6624 55.3673,109.5484 C55.3663,109.4314 55.3953,109.3444 55.4523,109.2914 C55.5103,109.2384 55.6233,109.2084 55.7873,109.2064" id="Fill-173" fill="#414042"></path>
            <polygon id="Fill-175" fill="#414042" points="51.9361 108.7908 52.9271 110.2268 53.3771 110.2478 53.4791 108.0958 52.9981 108.0728 52.9341 109.4218 51.9731 108.0238 51.4931 108.0018 51.3911 110.1538 51.8721 110.1768"></polygon>
            <polygon id="Fill-177" fill="#414042" points="50.0768 107.8718 49.5978 107.8248 49.3858 109.9668 49.8628 110.0148"></polygon>
            <path d="M46.1549,107.367 L46.7609,109.636 L47.2219,109.704 L48.4579,107.708 L47.9519,107.633 L47.6849,108.064 L46.7919,107.932 L46.6619,107.442 L46.1549,107.367 Z M46.9099,108.377 L47.4439,108.455 L47.0839,109.035 L46.9099,108.377 Z" id="Fill-179" fill="#414042"></path>
            <path d="M42.6871,107.2673 C42.7751,107.4123 42.7961,107.5843 42.7491,107.7803 C42.7021,107.9743 42.6021,108.1113 42.4481,108.1983 C42.2981,108.2823 42.1341,108.3023 41.9581,108.2593 C41.7401,108.2063 41.5771,108.0683 41.4741,107.8503 L41.1041,108.1093 C41.2711,108.4253 41.5271,108.6263 41.8711,108.7103 C42.1791,108.7853 42.4611,108.7433 42.7241,108.5873 C42.9871,108.4333 43.1581,108.1993 43.2331,107.8903 C43.3081,107.5793 43.2661,107.2963 43.1061,107.0423 C42.9491,106.7883 42.7071,106.6223 42.3841,106.5433 C42.0641,106.4663 41.7501,106.5333 41.4491,106.7423 L41.6731,107.1223 C41.8641,106.9753 42.0721,106.9303 42.3011,106.9873 C42.4691,107.0273 42.5981,107.1213 42.6871,107.2673" id="Fill-181" fill="#414042"></path>
            <path d="M38.3775,105.4265 L38.6385,107.7595 L39.0835,107.8955 L40.6035,106.1065 L40.1135,105.9565 L39.7865,106.3435 L38.9225,106.0795 L38.8665,105.5755 L38.3775,105.4265 Z M38.9735,106.5365 L39.4885,106.6945 L39.0465,107.2135 L38.9735,106.5365 Z" id="Fill-183" fill="#414042"></path>
            <polygon id="Fill-185" fill="#414042" points="37.152 104.9558 36.942 104.9658 36.805 105.1188 36.811 105.3268 36.967 105.4648 37.173 105.4578 37.314 105.3028 37.303 105.0968"></polygon>
            <path d="M32.5465,103.2996 C32.4075,103.3616 32.3055,103.4606 32.2435,103.5976 C32.1885,103.7216 32.1775,103.8416 32.2095,103.9566 C32.2455,104.0706 32.3185,104.1716 32.4285,104.2506 L32.3425,104.2526 L32.2515,104.2696 C32.1185,104.3006 32.0185,104.3896 31.9485,104.5436 C31.8915,104.6706 31.8845,104.8056 31.9265,104.9456 L32.0835,105.1716 C32.1675,105.2466 32.2755,105.3156 32.4065,105.3746 L33.1695,105.7186 L34.0535,103.7586 L33.1945,103.3716 C32.9265,103.2506 32.7105,103.2286 32.5465,103.2996 Z M32.8995,105.1516 L32.6895,105.0566 C32.5605,104.9986 32.4735,104.9436 32.4335,104.8906 L32.4295,104.6836 L32.5925,104.5516 C32.6625,104.5526 32.7625,104.5796 32.8825,104.6346 L33.0905,104.7286 L32.8995,105.1516 Z M33.2455,104.3836 L32.9875,104.2676 C32.8415,104.2006 32.7415,104.1396 32.6875,104.0806 L32.6695,103.8576 C32.7115,103.7646 32.7695,103.7196 32.8445,103.7166 C32.9225,103.7146 33.0235,103.7396 33.1495,103.7966 L33.4485,103.9316 L33.2455,104.3836 Z" id="Fill-187" fill="#414042"></path>
            <polygon id="Fill-189" fill="#414042" points="30.1568 102.8269 28.8938 103.6379 29.3548 103.8789 30.1378 103.3839 30.1798 104.3079 30.6408 104.5489 30.5828 103.0499 30.9758 102.2959 30.5498 102.0729"></polygon>
            <polygon id="Fill-191" fill="#414042" points="25.2193 100.9617 24.9973 101.3127 26.4333 102.2187 26.6553 101.8677 26.1393 101.5427 27.0653 100.0757 26.6593 99.8197 25.7343 101.2867"></polygon>
            <path d="M23.6158,98.4685 C23.7948,98.4305 23.9568,98.4625 24.1008,98.5665 C24.2488,98.6715 24.3318,98.8145 24.3528,98.9955 C24.3768,99.1745 24.3318,99.3425 24.2198,99.4995 C24.1078,99.6555 23.9638,99.7515 23.7848,99.7905 C23.6068,99.8285 23.4448,99.7965 23.2978,99.6915 C23.1528,99.5865 23.0688,99.4455 23.0488,99.2635 C23.0268,99.0815 23.0718,98.9135 23.1818,98.7585 C23.2948,98.6015 23.4388,98.5045 23.6158,98.4685 M22.7848,98.4745 C22.6008,98.7325 22.5348,99.0095 22.5888,99.3085 C22.6428,99.6085 22.7998,99.8485 23.0568,100.0315 C23.3138,100.2165 23.5928,100.2865 23.8928,100.2405 C24.1938,100.1965 24.4348,100.0435 24.6188,99.7855 C24.8028,99.5295 24.8678,99.2535 24.8128,98.9545 C24.7598,98.6555 24.6038,98.4125 24.3468,98.2285 C24.0898,98.0445 23.8088,97.9765 23.5098,98.0225 C23.2088,98.0675 22.9698,98.2175 22.7848,98.4745" id="Fill-193" fill="#414042"></path>
            <polygon id="Fill-195" fill="#414042" points="20.899 95.5769 20.527 95.2709 19.157 96.9359 19.657 97.3479 20.841 96.7879 20.517 98.0559 21.019 98.4699 22.39 96.8049 22.018 96.4989 21.156 97.5469 21.457 96.2679 21.235 96.0859 20.036 96.6249"></polygon>
            <path d="M16.5006,93.8767 L17.2106,93.1627 L17.4256,93.0467 L17.6056,93.1127 C17.7056,93.2127 17.7516,93.3577 17.7456,93.5477 L18.1646,93.4787 C18.1686,93.2007 18.0786,92.9727 17.8956,92.7907 C17.7496,92.6467 17.5816,92.5697 17.3996,92.5667 C17.2176,92.5637 17.0346,92.6547 16.8546,92.8357 L15.8686,93.8287 L16.6616,94.6167 L16.9516,94.3247 L16.5006,93.8767 Z" id="Fill-197" fill="#414042"></path>
            <polygon id="Fill-199" fill="#414042" points="14.8082 92.7302 16.4022 91.2892 15.3392 90.1142 15.0252 90.3992 15.7652 91.2172 15.4352 91.5162 14.7882 90.8022 14.4862 91.0772 15.1312 91.7912 14.8032 92.0872 14.0852 91.2942 13.7682 91.5812"></polygon>
            <polygon id="Fill-201" fill="#414042" points="12.8111 90.4714 14.4761 89.1104 14.1721 88.7394 13.5201 89.2724 12.9201 88.5374 12.5941 88.8054 13.1941 89.5384 12.8331 89.8324 12.2041 89.0604 11.8761 89.3274"></polygon>
            <polygon id="Fill-203" fill="#414042" points="11.0104 88.198 12.7464 86.928 12.4634 86.541 11.7824 87.038 11.2234 86.273 10.8834 86.522 11.4424 87.287 11.0674 87.561 10.4794 86.757 10.1384 87.006"></polygon>
            <polygon id="Fill-205" fill="#414042" points="9.3463 85.8562 11.1433 84.6772 10.2753 83.3532 9.9203 83.5862 10.5263 84.5092 10.1533 84.7532 9.6253 83.9492 9.2843 84.1722 9.8113 84.9772 9.4403 85.2202 8.8543 84.3262 8.4963 84.5602"></polygon>
            <path d="M7.0895,81.8699 C7.0635,82.0529 7.1335,82.2859 7.3015,82.5769 L7.7085,83.2859 L9.5775,82.2089 L9.3375,81.7919 L8.7405,82.1359 L8.5745,81.8469 L8.9325,81.0899 L8.6365,80.5759 L8.2405,81.4339 C8.0155,81.2469 7.7555,81.2399 7.4555,81.4129 C7.2395,81.5379 7.1165,81.6899 7.0895,81.8699 M8.2045,82.0389 L8.3805,82.3439 L7.8265,82.6619 L7.6475,82.3489 C7.5695,82.2159 7.5345,82.1109 7.5415,82.0369 C7.5475,81.9619 7.6025,81.8939 7.7005,81.8379 C7.8025,81.7789 7.8925,81.7629 7.9675,81.7879 C8.0415,81.8119 8.1225,81.8969 8.2045,82.0389" id="Fill-207" fill="#414042"></path>
            <path d="M6.1647,79.6619 C6.0747,79.4829 6.0527,79.2819 6.0947,79.0509 L5.6727,78.9909 C5.6417,79.1269 5.6337,79.2679 5.6547,79.4199 C5.6757,79.5709 5.7167,79.7089 5.7817,79.8379 C5.8797,80.0319 6.0127,80.1729 6.1757,80.2519 C6.3407,80.3339 6.5147,80.3289 6.6947,80.2379 C6.8787,80.1449 6.9847,80.0269 7.0177,79.8799 C7.0517,79.7359 7.0397,79.5349 6.9797,79.2869 C6.9457,79.1289 6.9307,79.0159 6.9397,78.9529 L7.0407,78.8119 L7.2117,78.8089 L7.3567,78.9699 C7.4457,79.1449 7.4517,79.3839 7.3737,79.6809 L7.8147,79.7779 C7.9177,79.4209 7.8937,79.0929 7.7407,78.7879 C7.6347,78.5759 7.4937,78.4329 7.3217,78.3579 C7.1497,78.2829 6.9807,78.2889 6.8087,78.3759 C6.6357,78.4629 6.5307,78.5769 6.4907,78.7249 C6.4517,78.8709 6.4557,79.0449 6.5007,79.2489 C6.5497,79.4549 6.5687,79.5899 6.5607,79.6559 L6.4647,79.8009 L6.2987,79.8049 L6.1647,79.6619 Z" id="Fill-209" fill="#414042"></path>
            <path d="M5.6832,75.8132 C5.8572,75.8732 5.9792,75.9842 6.0492,76.1492 C6.1212,76.3162 6.1202,76.4812 6.0432,76.6482 C5.9702,76.8142 5.8442,76.9352 5.6662,77.0122 C5.4912,77.0872 5.3162,77.0962 5.1422,77.0372 C4.9692,76.9772 4.8472,76.8652 4.7752,76.6982 C4.7042,76.5342 4.7062,76.3682 4.7832,76.2012 C4.8592,76.0342 4.9842,75.9132 5.1602,75.8362 C5.3382,75.7592 5.5132,75.7512 5.6832,75.8132 M4.9652,75.3862 C4.6742,75.5122 4.4732,75.7162 4.3652,76.0012 C4.2552,76.2872 4.2652,76.5752 4.3912,76.8672 C4.5172,77.1582 4.7192,77.3632 5.0012,77.4802 C5.2842,77.5972 5.5702,77.5912 5.8622,77.4652 C6.1532,77.3392 6.3512,77.1372 6.4602,76.8512 C6.5692,76.5662 6.5622,76.2772 6.4362,75.9852 C6.3102,75.6942 6.1052,75.4902 5.8232,75.3732 C5.5402,75.2562 5.2572,75.2602 4.9652,75.3862" id="Fill-211" fill="#414042"></path>
            <polygon id="Fill-213" fill="#414042" points="4.2789 72.5877 3.3249 74.0487 3.4759 74.4727 5.5069 73.7517 5.3449 73.2987 4.0729 73.7497 5.0029 72.3307 4.8409 71.8777 2.8099 72.5987 2.9709 73.0517"></polygon>
            <path d="M57.8111,79.6658 C57.8111,81.1468 56.6101,82.3478 55.1291,82.3478 C53.6471,82.3478 52.4461,81.1468 52.4461,79.6658 C52.4461,78.1838 53.6471,76.9828 55.1291,76.9828 C56.6101,76.9828 57.8111,78.1838 57.8111,79.6658" id="Fill-215" fill="#414042"></path>
        </g>
    </g>
</svg>