<?xml version="1.0" encoding="UTF-8"?>
<svg width="126px" height="94px" viewBox="0 0 126 94" version="1.1" xmlns="http://www.w3.org/2000/svg" xmlns:xlink="http://www.w3.org/1999/xlink">
    <!-- Generator: Sketch 49 (51002) - http://www.bohemiancoding.com/sketch -->
    <title>vintage-logo-7</title>
    <desc>Created with Sketch.</desc>
    <defs>
        <polygon id="path-1" points="0 0.137685723 125.167 0.137685723 125.167 28.584 0 28.584"></polygon>
        <polygon id="path-3" points="0.3309 0.4954 82.2919 0.4954 82.2919 7 0.3309 7"></polygon>
        <polygon id="path-5" points="0.313177416 0.141 8.35989309 0.141 8.35989309 7.361274 0.313177416 7.361274"></polygon>
    </defs>
    <g id="Page-1" stroke="none" stroke-width="1" fill="none" fill-rule="evenodd">
        <g id="vintage-logo-7" transform="translate(0.000000, -1.000000)">
            <path d="M6.3636,51.3464 C5.6436,51.4144 5.3276,51.0994 5.3846,50.3754 L6.9386,32.0214 L2.0496,32.4854 L1.8766,34.4294 L2.9406,34.3274 L1.5316,50.7414 C1.4446,51.7274 1.7036,52.4504 2.2506,52.8874 C2.7976,53.3534 3.5446,53.5414 4.4936,53.4504 L10.5336,52.8774 L10.6776,50.9364 L6.3636,51.3464 Z M23.4476,48.4324 L24.4256,36.9504 L17.7816,37.5804 C16.4866,37.7034 15.3076,38.1604 14.2726,38.9494 C13.1226,39.8354 12.4896,40.9304 12.3746,42.1784 L11.8276,48.6724 C11.7126,49.9494 12.1736,50.9124 13.1786,51.5934 C14.0996,52.1964 15.2216,52.4344 16.5156,52.3114 L17.1196,52.2544 C18.2416,52.1484 19.2486,51.6494 20.0826,50.7944 C20.6866,51.5134 21.6646,51.8234 23.0156,51.6944 L24.3676,51.5664 L24.5406,49.6224 C23.7346,49.6704 23.3616,49.2744 23.4476,48.4324 Z M19.6506,47.9294 C19.5926,48.5394 19.3346,49.0534 18.8746,49.5284 C18.4146,50.0034 17.8966,50.2534 17.2926,50.3114 C16.0846,50.4264 15.5386,49.8454 15.6526,48.5394 L16.2856,41.0874 C16.3726,40.1304 16.8026,39.6004 17.6376,39.5214 L20.3986,39.2594 L19.6506,47.9294 Z M35.2676,35.9234 L30.7236,40.8704 L31.7016,29.6754 L26.7546,30.1454 L26.5816,32.0884 L27.6756,31.9844 L26.0066,51.4134 L29.8316,51.0504 L30.4646,43.8004 C30.9256,43.4394 31.3556,43.2554 31.7596,43.2174 C32.3626,43.1594 32.8236,43.4034 33.1106,43.9224 C33.3416,44.3894 33.4266,44.9284 33.3986,45.5634 L33.2256,48.0534 C33.1686,48.9794 33.5126,49.6374 34.2326,50.0574 C34.8366,50.3744 35.6126,50.5014 36.6196,50.4064 L37.9426,50.2804 L38.0866,48.3394 C37.3676,48.3794 37.0506,47.9774 37.1086,47.1964 L37.2526,45.1974 C37.3396,44.0674 37.0226,43.1484 36.3606,42.4344 C35.7576,41.8024 34.9236,41.4204 33.8296,41.2654 L39.0926,35.5594 L35.2676,35.9234 Z M47.4626,35.7744 C46.6856,35.1874 45.6216,34.9434 44.2696,35.0714 C42.9746,35.1944 41.7966,35.6514 40.7606,36.4684 C39.6106,37.3544 38.9776,38.4214 38.8626,39.6694 C38.7756,40.8274 39.2366,41.8484 40.3006,42.7534 C39.0636,43.6764 38.4026,44.8034 38.3156,46.1634 C38.2296,47.3504 38.6896,48.2854 39.6966,48.9664 C40.6456,49.6524 41.7386,49.9224 43.0046,49.8024 C44.3276,49.6774 45.4486,49.2254 46.3696,48.4764 C47.3766,47.6334 47.9226,46.5454 48.0376,45.2404 L46.1106,45.4234 C46.0526,46.0614 45.8226,46.6014 45.3916,47.0164 C44.9606,47.4594 44.4706,47.7364 43.9536,47.8144 C43.3486,47.9004 42.8886,47.7714 42.5726,47.3984 C42.2566,47.0264 42.0836,46.5534 42.0836,45.9494 C42.0836,45.3164 42.2566,44.7254 42.5726,44.2064 C42.8886,43.6874 43.2916,43.4184 43.8096,43.3694 L47.3466,43.0334 L47.5196,41.1194 L43.9536,41.4574 C43.0616,41.5424 42.6016,40.9824 42.6016,39.7454 C42.6016,39.0264 42.8026,38.4034 43.2346,37.8154 C43.6366,37.2314 44.1836,36.9494 44.9026,36.9384 C45.4206,36.9464 45.8516,37.1364 46.2256,37.4744 C46.5996,37.8414 46.7436,38.3164 46.6856,38.9264 L48.6126,38.7434 C48.7276,37.4094 48.3536,36.4094 47.4626,35.7744 Z M67.2506,45.5754 L68.3726,32.7844 L64.5176,33.1514 L63.3956,45.9414 L61.8426,46.0894 C61.3836,46.1334 61.0096,45.9674 60.7206,45.5914 C60.4916,45.2684 60.4046,44.8734 60.4336,44.4394 L61.3836,33.4484 L57.5286,33.8144 L56.4356,46.6024 L54.8536,46.7524 C54.3936,46.7964 54.0196,46.6304 53.7316,46.2554 C53.5026,45.9314 53.4156,45.5374 53.4446,45.1034 L54.4226,34.1094 L49.3886,34.5874 L49.2456,36.5284 L50.3666,36.4214 L49.6186,45.0064 C49.5046,46.4264 49.9346,47.4504 50.9416,48.0734 C51.8336,48.6504 53.0706,48.8494 54.6806,48.6964 L68.5446,47.3794 L68.7176,45.4364 L67.2506,45.5754 Z M79.0416,32.8114 C78.1216,32.2094 76.9996,31.9704 75.7056,32.0934 L75.1006,32.1504 C73.7776,32.2764 72.5986,32.7334 71.5926,33.5194 C70.4416,34.4054 69.8086,35.4714 69.6936,36.7484 L69.1186,43.2454 C69.0036,44.5224 69.4636,45.4854 70.4696,46.1664 C71.3906,46.7684 72.5116,47.0074 73.8356,46.8824 L74.4106,46.8274 C75.8196,46.6934 77.0286,46.1764 78.0926,45.2694 C79.1566,44.3924 79.7316,43.3594 79.8176,42.2294 L80.3926,35.7324 C80.5086,34.4844 80.0486,33.4924 79.0416,32.8114 Z M75.9926,42.5934 C75.9346,43.3174 75.7336,43.8544 75.4176,44.2584 C75.0726,44.6644 74.6986,44.9014 74.2966,44.9114 C73.8926,44.9204 73.5486,44.7524 73.2896,44.4024 C73.0306,44.0534 72.9156,43.5464 72.9726,42.8794 L73.5186,36.3854 C73.5766,35.7184 73.7776,35.1524 74.1236,34.7174 C74.4396,34.3424 74.8136,34.1334 75.2166,34.0954 C75.6476,34.0544 75.9926,34.1944 76.2516,34.5434 C76.5096,34.8924 76.5966,35.4024 76.5396,36.0984 L75.9926,42.5934 Z M90.7176,31.7054 C89.7986,31.1024 88.6766,30.8644 87.3826,30.9874 L86.7776,31.0444 C85.4556,31.1704 84.2756,31.6274 83.2686,32.4124 C82.1186,33.2994 81.4856,34.3654 81.3706,35.6414 L80.7956,42.1394 C80.6796,43.4154 81.1406,44.3784 82.1476,45.0594 C83.0676,45.6624 84.1896,45.9014 85.5116,45.7754 L86.0886,45.7214 C87.4976,45.5874 88.7056,45.0704 89.7686,44.1634 C90.8336,43.2854 91.4086,42.2534 91.4956,41.1234 L92.0706,34.6264 C92.1846,33.3784 91.7246,32.3874 90.7176,31.7054 Z M87.6696,41.4864 C87.6116,42.2114 87.4106,42.7484 87.0936,43.1524 C86.7496,43.5584 86.3756,43.7954 85.9726,43.8044 C85.5696,43.8144 85.2246,43.6454 84.9666,43.2964 C84.7076,42.9474 84.5926,42.4404 84.6496,41.7734 L85.1956,35.2794 C85.2536,34.6124 85.4556,34.0464 85.8006,33.6104 C86.1166,33.2354 86.4906,33.0274 86.8926,32.9894 C87.3246,32.9484 87.6696,33.0884 87.9276,33.4374 C88.1876,33.7864 88.2736,34.2964 88.2166,34.9924 L87.6696,41.4864 Z M100.7566,23.1334 L100.5836,25.0764 L101.6766,24.9724 L101.2446,29.6734 L98.4836,29.9354 C97.1896,30.0584 96.0096,30.5154 94.9746,31.3044 C93.8246,32.1904 93.1916,33.2854 93.0766,34.5334 L92.5296,41.0274 C92.4146,42.3904 92.9036,43.4084 93.9966,44.0234 C94.9456,44.5664 96.0956,44.7734 97.5066,44.6394 C98.8286,44.5134 99.9226,44.0074 100.7566,43.1514 C101.4176,43.8654 102.3946,44.1754 103.7176,44.0494 L105.1566,43.9134 L105.3296,41.9694 C104.4376,42.0544 104.0346,41.6614 104.1216,40.7904 L105.7036,22.6634 L100.7566,23.1334 Z M100.3246,40.2874 C100.2666,40.8974 100.0086,41.4104 99.5486,41.8864 C99.0876,42.3614 98.5696,42.6114 97.9666,42.6684 C96.7866,42.7814 96.2406,42.2004 96.3546,40.8944 L96.9876,33.4424 C97.0746,32.4854 97.5066,31.9554 98.3106,31.8794 L101.1006,31.6144 L100.3246,40.2874 Z M113.9566,42.0744 C113.0076,42.8254 111.8566,43.2804 110.4766,43.4104 L105.9036,43.8454 L106.0756,41.9014 L109.1536,41.6094 C110.3326,41.4974 110.9366,40.8654 110.9366,39.7434 C110.9366,39.1104 110.7356,38.5834 110.3036,38.1354 L108.0036,35.7364 C107.2556,34.9444 106.8816,34.0594 106.8816,33.0534 C106.8816,31.7874 107.3986,30.7604 108.4636,29.9404 C109.3836,29.2204 110.5056,28.7974 111.7996,28.6744 L114.9636,28.3734 L114.7906,30.3174 L112.5186,30.5334 C111.5696,30.6234 111.0806,30.9574 111.0806,31.5324 C111.0806,31.8484 111.1956,32.1254 111.4546,32.4174 L114.2726,35.6304 C115.1356,36.6124 115.5676,37.6934 115.5676,38.8144 C115.5676,40.1094 115.0206,41.1964 113.9566,42.0744 Z" id="Fill-1" fill="#58595B"></path>
            <g id="Group-5" transform="translate(0.000000, 35.858600)">
                <mask id="mask-2" fill="white">
                    <use xlink:href="#path-1"></use>
                </mask>
                <g id="Clip-4"></g>
                <path d="M125.056,4.394 C124.021,1.03 116.158,-0.398 109.143,0.318 L109.201,0.417 C109.375,0.768 109.543,1.226 109.931,1.512 C112.226,1.272 114.612,1.297 117.098,1.764 C120.048,2.334 125.002,4.78 121.278,7.073 C113.102,12.044 96.192,12.451 86.025,13.583 C57.669,16.741 30.708,18.23 0.697,20.435 C0.398,23.352 0.298,25.667 0,28.584 C29.958,24.342 58.783,20.08 88.38,15.857 C100.117,14.184 127.113,11.03 125.056,4.394" id="Fill-3" fill="#58595B" mask="url(#mask-2)"></path>
            </g>
            <path d="M56.182,72.3385 L56.369,72.1515 C57.099,71.4215 57.536,70.4425 57.536,69.3595 C57.536,67.1935 55.766,65.4225 53.599,65.4225 L50.391,65.4225 C48.225,65.4225 46.454,67.1935 46.454,69.3595 C46.454,70.4425 46.892,71.4215 47.62,72.1515 L47.85,72.3805 C47.308,72.5675 46.829,72.8805 46.433,73.2965 C45.704,74.0055 45.267,75.0055 45.267,76.0885 C45.267,78.2545 47.037,80.0045 49.203,80.0045 L54.766,80.0045 C57.015,80.0045 58.828,78.3795 58.828,76.0885 C58.828,75.0055 58.39,74.0055 57.682,73.2965 C57.265,72.8595 56.744,72.5465 56.182,72.3385 Z M53.516,67.4845 C54.641,67.4845 55.578,68.4225 55.578,69.5675 C55.578,70.7135 54.641,71.6515 53.516,71.6515 L50.495,71.6515 C49.35,71.6515 48.433,70.7135 48.433,69.5675 C48.433,68.4015 49.37,67.4845 50.516,67.4845 L53.516,67.4845 Z M47.329,75.8385 C47.329,74.6925 48.245,73.7345 49.391,73.7345 L54.724,73.7345 C55.87,73.7345 56.786,74.6715 56.786,75.8175 C56.786,77.0055 55.828,77.9005 54.578,77.9005 L49.391,77.9005 C48.245,77.9005 47.329,76.9845 47.329,75.8385 Z M76.803,80.0045 C77.386,80.0045 77.844,79.5465 77.844,78.9635 L77.844,77.3595 C77.844,75.9845 75.761,75.9845 75.761,77.3595 L75.761,77.9215 L66.179,77.9215 L66.179,76.2755 C66.179,75.1095 66.367,74.8595 67.492,74.8595 L73.158,74.8595 C79.699,74.8595 79.199,65.6725 73.783,65.6725 L68.928,65.6725 C68.2,65.6725 67.283,65.8605 66.804,66.4435 C66.804,65.2145 64.762,65.1515 64.762,66.5265 L64.762,69.8175 C64.762,70.4015 65.242,70.8595 65.804,70.8595 C66.387,70.8595 66.845,70.4015 66.845,69.8175 C66.845,68.6725 67.783,67.7555 68.928,67.7555 L73.783,67.7555 C76.574,67.7555 76.803,72.7755 73.158,72.7755 L67.492,72.7755 C65.221,72.7755 64.096,73.8805 64.096,76.1305 L64.096,78.9635 C64.096,79.5465 64.575,80.0045 65.137,80.0045 L76.803,80.0045 Z" id="Fill-6" fill="#58595B"></path>
            <g id="Group-10" transform="translate(21.000000, 87.858600)">
                <mask id="mask-4" fill="white">
                    <use xlink:href="#path-3"></use>
                </mask>
                <g id="Clip-9"></g>
                <path d="M4.8129,3.3144 L2.1559,3.3144 C1.0419,3.3144 1.0339,1.6004 2.1559,1.6004 L4.3069,1.6004 C4.7189,1.6004 5.1559,1.7804 5.1559,2.2864 C5.1559,2.5174 5.3529,2.7144 5.5929,2.7144 C5.8249,2.7144 6.0219,2.5174 6.0219,2.2864 L6.0219,1.1034 C6.0219,0.8634 5.8249,0.6664 5.5929,0.6664 C5.4129,0.6664 5.2579,0.7774 5.1899,0.9404 C4.9419,0.8124 4.6419,0.7434 4.3069,0.7434 L2.1559,0.7434 C-0.0981,0.7434 -0.0891,4.1804 2.1559,4.1804 L4.8129,4.1804 C5.9179,4.1804 5.9359,5.8944 4.8129,5.8944 L2.0959,5.8944 C1.6509,5.8944 1.1969,5.6634 1.1969,5.1404 C1.1969,4.9004 0.9999,4.7114 0.7679,4.7114 C0.5279,4.7114 0.3309,4.9004 0.3309,5.1404 C0.3309,6.0744 1.0769,6.7514 2.0959,6.7514 L4.8129,6.7514 C7.0669,6.7514 7.0499,3.3144 4.8129,3.3144 Z M12.7689,0.7514 L9.2729,0.7514 C9.0329,0.7514 8.8439,0.9404 8.8439,1.1804 C8.8439,1.4204 9.0329,1.6094 9.2729,1.6094 L9.6669,1.6094 L9.6669,3.3064 L9.2729,3.3064 C9.0329,3.3064 8.8439,3.4944 8.8439,3.7344 C8.8439,3.9654 9.0329,4.1634 9.2729,4.1634 L9.6669,4.1634 L9.6669,5.8854 L9.2729,5.8854 C9.0329,5.8854 8.8439,6.0834 8.8439,6.3224 C8.8439,6.5544 9.0329,6.7514 9.2729,6.7514 L10.9179,6.7514 C11.1579,6.7514 11.3469,6.5544 11.3469,6.3224 C11.3469,6.0834 11.1579,5.8854 10.9179,5.8854 L10.5239,5.8854 L10.5239,4.1634 L12.7689,4.1634 C15.0149,4.1634 15.0149,0.7514 12.7689,0.7514 Z M12.7609,3.3064 L10.5239,3.3064 L10.5239,1.6094 L12.7689,1.6094 C13.8829,1.6094 13.8919,3.3064 12.7609,3.3064 Z M19.6889,7.0004 C23.9659,7.0004 23.9659,0.4954 19.6889,0.4954 C15.4129,0.4954 15.4129,7.0004 19.6889,7.0004 Z M19.6889,1.3524 C22.8339,1.3524 22.8339,6.1434 19.6889,6.1434 C16.5429,6.1434 16.5429,1.3524 19.6889,1.3524 Z M30.9879,5.8944 L30.4739,5.8944 L29.2399,4.1374 C31.3989,3.9834 31.2879,0.7264 29.1109,0.7264 L25.6139,0.7264 C25.3819,0.7264 25.1859,0.9154 25.1859,1.1544 C25.1859,1.3954 25.3819,1.5834 25.6139,1.5834 L26.0079,1.5834 L26.0079,3.2894 L25.6139,3.2894 C25.3819,3.2894 25.1859,3.4774 25.1859,3.7174 C25.1859,3.9484 25.3819,4.1464 25.6139,4.1464 L26.0079,4.1464 L26.0079,5.8854 L25.6139,5.8854 C25.3819,5.8854 25.1859,6.0834 25.1859,6.3224 C25.1859,6.5544 25.3819,6.7514 25.6139,6.7514 L27.2679,6.7514 C27.4999,6.7514 27.6969,6.5544 27.6969,6.3224 C27.6969,6.0834 27.4999,5.8854 27.2679,5.8854 L26.8749,5.8854 L26.8749,4.1464 L28.1849,4.1464 L29.4189,5.8944 L29.3419,5.8944 C29.1019,5.8944 28.9139,6.0914 28.9139,6.3224 C28.9139,6.5634 29.1019,6.7514 29.3419,6.7514 L30.9879,6.7514 C31.2279,6.7514 31.4169,6.5634 31.4169,6.3224 C31.4169,6.0914 31.2279,5.8944 30.9879,5.8944 Z M26.8749,3.2894 L26.8749,1.5834 L29.1109,1.5834 C30.2339,1.5834 30.2339,3.2894 29.1109,3.2894 L26.8749,3.2894 Z M38.2929,0.7514 L33.4939,0.7514 C33.2529,0.7514 33.0649,0.9404 33.0649,1.1804 L33.0649,2.0884 C33.0649,2.3294 33.2529,2.5174 33.4939,2.5174 C33.7249,2.5174 33.9219,2.3294 33.9219,2.0884 L33.9219,1.6094 L35.4639,1.6094 L35.4639,5.8944 L35.0709,5.8944 C34.8309,5.8944 34.6419,6.0914 34.6419,6.3224 C34.6419,6.5634 34.8309,6.7514 35.0709,6.7514 L36.7159,6.7514 C36.9559,6.7514 37.1449,6.5634 37.1449,6.3224 C37.1449,6.0914 36.9559,5.8944 36.7159,5.8944 L36.3219,5.8944 L36.3219,1.6094 L37.8649,1.6094 L37.8649,2.0884 C37.8649,2.3294 38.0619,2.5174 38.2929,2.5174 C38.5329,2.5174 38.7209,2.3294 38.7209,2.0884 L38.7209,1.1804 C38.7209,0.9404 38.5329,0.7514 38.2929,0.7514 Z M45.3069,3.3144 L42.6499,3.3144 C41.5359,3.3144 41.5279,1.6004 42.6499,1.6004 L44.8009,1.6004 C45.2119,1.6004 45.6499,1.7804 45.6499,2.2864 C45.6499,2.5174 45.8469,2.7144 46.0869,2.7144 C46.3189,2.7144 46.5149,2.5174 46.5149,2.2864 L46.5149,1.1034 C46.5149,0.8634 46.3189,0.6664 46.0869,0.6664 C45.9069,0.6664 45.7519,0.7774 45.6839,0.9404 C45.4359,0.8124 45.1349,0.7434 44.8009,0.7434 L42.6499,0.7434 C40.3959,0.7434 40.4049,4.1804 42.6499,4.1804 L45.3069,4.1804 C46.4129,4.1804 46.4299,5.8944 45.3069,5.8944 L42.5899,5.8944 C42.1449,5.8944 41.6899,5.6634 41.6899,5.1404 C41.6899,4.9004 41.4939,4.7114 41.2619,4.7114 C41.0219,4.7114 40.8249,4.9004 40.8249,5.1404 C40.8249,6.0744 41.5709,6.7514 42.5899,6.7514 L45.3069,6.7514 C47.5609,6.7514 47.5439,3.3144 45.3069,3.3144 Z M56.7689,0.7514 L55.2779,0.7514 C55.0289,0.7514 54.8399,0.9494 54.8399,1.1894 C54.8399,1.4294 55.0289,1.6264 55.2779,1.6264 L55.5179,1.6264 L54.5839,4.8484 L53.5029,1.1544 C53.3749,0.7264 52.7999,0.7174 52.6719,1.1634 L51.5919,4.8744 L50.6159,1.6264 L50.7869,1.6264 C51.0359,1.6264 51.2239,1.4294 51.2239,1.1894 C51.2239,0.9494 51.0359,0.7514 50.7869,0.7514 L49.2949,0.7514 C49.0549,0.7514 48.8669,0.9494 48.8669,1.1894 C48.8669,1.4294 49.0549,1.6264 49.2949,1.6264 L49.7149,1.6264 L51.1809,6.5024 C51.3089,6.9484 51.8829,6.9394 52.0119,6.4944 L53.0919,2.8094 L54.1639,6.4944 C54.2919,6.9484 54.8669,6.9394 54.9949,6.5024 L56.4169,1.6264 L56.7689,1.6264 C57.0089,1.6264 57.1979,1.4294 57.1979,1.1894 C57.1979,0.9494 57.0089,0.7514 56.7689,0.7514 Z M64.5359,5.0544 C64.2949,5.0544 64.1069,5.2434 64.1069,5.4824 L64.1069,5.8944 L61.0129,5.8944 L61.0129,4.1714 L62.9669,4.1714 C63.1989,4.1714 63.3959,3.9744 63.3959,3.7344 C63.3959,3.5034 63.1989,3.3064 62.9669,3.3064 L61.0129,3.3064 L61.0129,1.6094 L63.8839,1.6094 L63.8839,2.0714 C63.8839,2.3124 64.0819,2.5004 64.3219,2.5004 C64.5529,2.5004 64.7499,2.3124 64.7499,2.0714 L64.7499,1.1804 C64.7499,0.9404 64.5529,0.7514 64.3219,0.7514 L59.7619,0.7514 C59.5219,0.7514 59.3339,0.9404 59.3339,1.1804 C59.3339,1.4204 59.5219,1.6094 59.7619,1.6094 L60.1559,1.6094 L60.1559,3.3064 L59.7619,3.3064 C59.5219,3.3064 59.3339,3.5034 59.3339,3.7344 C59.3339,3.9744 59.5219,4.1714 59.7619,4.1714 L60.1559,4.1714 L60.1559,5.8944 L59.7619,5.8944 C59.5219,5.8944 59.3339,6.0914 59.3339,6.3224 C59.3339,6.5634 59.5219,6.7514 59.7619,6.7514 L64.4929,6.7514 L64.7329,6.6834 C64.8699,6.6064 64.9639,6.4684 64.9639,6.2974 L64.9639,5.4824 C64.9639,5.2434 64.7759,5.0544 64.5359,5.0544 Z M73.5119,5.8854 L73.1009,5.8854 L72.6459,4.8834 L72.6889,4.8834 C72.9289,4.8834 73.1179,4.6944 73.1179,4.4544 C73.1179,4.2234 72.9289,4.0254 72.6889,4.0254 L72.2609,4.0254 L71.1719,1.5834 L71.2659,1.5834 C71.5059,1.5834 71.6949,1.3954 71.6949,1.1544 C71.6949,0.9234 71.5059,0.7264 71.2659,0.7264 L69.7239,0.7264 C69.4839,0.7264 69.2949,0.9234 69.2949,1.1544 C69.2949,1.3954 69.4839,1.5834 69.7239,1.5834 L69.8179,1.5834 L68.7299,4.0254 L68.3009,4.0254 C68.0609,4.0254 67.8729,4.2234 67.8729,4.4544 C67.8729,4.6944 68.0609,4.8834 68.3009,4.8834 L68.3439,4.8834 L67.8899,5.8854 L67.4779,5.8854 C67.2389,5.8854 67.0499,6.0834 67.0499,6.3224 C67.0499,6.5544 67.2389,6.7514 67.4779,6.7514 L69.0209,6.7514 C69.2519,6.7514 69.4499,6.5544 69.4499,6.3224 C69.4499,6.0834 69.2519,5.8854 69.0209,5.8854 L68.8329,5.8854 L69.2869,4.8834 L71.7039,4.8834 L72.1579,5.8854 L71.9689,5.8854 C71.7379,5.8854 71.5409,6.0834 71.5409,6.3224 C71.5409,6.5544 71.7379,6.7514 71.9689,6.7514 L73.5119,6.7514 C73.7519,6.7514 73.9409,6.5544 73.9409,6.3224 C73.9409,6.0834 73.7519,5.8854 73.5119,5.8854 Z M69.6719,4.0254 L70.4959,2.1664 L71.3179,4.0254 L69.6719,4.0254 Z M81.8629,5.8944 L81.3479,5.8944 L80.1139,4.1374 C82.2739,3.9834 82.1629,0.7264 79.9859,0.7264 L76.4889,0.7264 C76.2569,0.7264 76.0599,0.9154 76.0599,1.1544 C76.0599,1.3954 76.2569,1.5834 76.4889,1.5834 L76.8829,1.5834 L76.8829,3.2894 L76.4889,3.2894 C76.2569,3.2894 76.0599,3.4774 76.0599,3.7174 C76.0599,3.9484 76.2569,4.1464 76.4889,4.1464 L76.8829,4.1464 L76.8829,5.8854 L76.4889,5.8854 C76.2569,5.8854 76.0599,6.0834 76.0599,6.3224 C76.0599,6.5544 76.2569,6.7514 76.4889,6.7514 L78.1429,6.7514 C78.3749,6.7514 78.5719,6.5544 78.5719,6.3224 C78.5719,6.0834 78.3749,5.8854 78.1429,5.8854 L77.7489,5.8854 L77.7489,4.1464 L79.0599,4.1464 L80.2939,5.8944 L80.2169,5.8944 C79.9769,5.8944 79.7889,6.0914 79.7889,6.3224 C79.7889,6.5634 79.9769,6.7514 80.2169,6.7514 L81.8629,6.7514 C82.1029,6.7514 82.2919,6.5634 82.2919,6.3224 C82.2919,6.0914 82.1029,5.8944 81.8629,5.8944 Z M77.7489,3.2894 L77.7489,1.5834 L79.9859,1.5834 C81.1079,1.5834 81.1079,3.2894 79.9859,3.2894 L77.7489,3.2894 Z" id="Fill-8" fill="#58595B" mask="url(#mask-4)"></path>
            </g>
            <path d="M20.4232,72.3493 L20.4232,71.6583 L17.7172,71.6583 L17.7172,75.1153 L20.4782,75.1153 L20.4782,74.4233 L18.5962,74.4233 L18.5962,73.7273 L20.2452,73.7273 L20.2452,73.0363 L18.5962,73.0363 L18.5962,72.3493 L20.4232,72.3493 Z M23.8592,71.6183 C23.0282,71.6183 22.4812,72.0233 22.4812,72.6603 C22.4812,73.8853 24.3082,73.5193 24.3082,74.1323 C24.3082,74.3293 24.1352,74.4333 23.8592,74.4333 C23.4972,74.4333 22.9642,74.2253 22.6092,73.9143 L22.2682,74.5913 C22.6782,74.9273 23.2712,75.1443 23.8482,75.1443 C24.6182,75.1443 25.2322,74.7793 25.2322,74.0873 C25.2322,72.8383 23.4032,73.1793 23.4032,72.5813 C23.4032,72.4133 23.5572,72.3293 23.7842,72.3293 C24.0662,72.3293 24.5252,72.4773 24.8912,72.6903 L25.2212,72.0033 C24.8652,71.7713 24.3572,71.6183 23.8592,71.6183 Z M29.8372,72.3643 L29.8372,71.6533 L26.8832,71.6533 L26.8832,72.3643 L27.9152,72.3643 L27.9152,75.1153 L28.7942,75.1153 L28.7942,72.3643 L29.8372,72.3643 Z M31.6952,71.6583 L31.6952,75.1153 L33.1482,75.1153 C34.2592,75.1153 35.0202,74.4093 35.0202,73.3863 C35.0202,72.3593 34.2692,71.6583 33.1832,71.6583 L31.6952,71.6583 Z M32.5752,72.3593 L33.1632,72.3593 C33.7212,72.3593 34.1262,72.7793 34.1262,73.3913 C34.1262,73.9983 33.7402,74.4133 33.2022,74.4133 L32.5752,74.4133 L32.5752,72.3593 Z M91.7632,72.3643 L91.7632,71.6533 L88.8102,71.6533 L88.8102,72.3643 L89.8422,72.3643 L89.8422,75.1153 L90.7212,75.1153 L90.7212,72.3643 L91.7632,72.3643 Z M95.7062,75.1153 L96.7042,75.1153 L95.9782,73.9743 C96.3832,73.7713 96.6062,73.3913 96.6062,72.8633 C96.6062,72.0923 96.0822,71.6583 95.1682,71.6583 L93.6222,71.6583 L93.6222,75.1153 L94.5012,75.1153 L94.5012,74.1423 L95.1682,74.1423 L95.1932,74.1423 L95.7062,75.1153 Z M94.5012,73.4503 L94.5012,72.3493 L95.1682,72.3493 C95.5482,72.3493 95.7712,72.5323 95.7712,72.8923 C95.7712,73.2583 95.5482,73.4503 95.1682,73.4503 L94.5012,73.4503 Z M98.6822,71.6583 L98.6822,75.1153 L100.1342,75.1153 C101.2452,75.1153 102.0062,74.4093 102.0062,73.3863 C102.0062,72.3593 101.2552,71.6583 100.1692,71.6583 L98.6822,71.6583 Z M99.5622,72.3593 L100.1502,72.3593 C100.7072,72.3593 101.1122,72.7793 101.1122,73.3913 C101.1122,73.9983 100.7272,74.4133 100.1892,74.4133 L99.5622,74.4133 L99.5622,72.3593 Z M107.7532,75.1153 L107.7532,71.6533 L106.7952,71.6533 L105.8572,73.7123 L104.9182,71.6533 L103.9542,71.6533 L103.9542,75.1153 L104.7402,75.1153 L104.7402,72.8683 L105.5692,74.7693 L106.1432,74.7693 L106.9732,72.8683 L106.9782,75.1153 L107.7532,75.1153 Z" id="Fill-11" fill="#58595B"></path>
            <path d="M18.9134,9.1139 C18.6924,9.6259 18.4754,10.1389 18.2624,10.6519 C17.6014,10.2879 16.7754,10.2119 16.1404,10.4509 C14.9944,10.8819 14.4644,12.0519 14.8944,13.1309 C15.3334,14.2299 16.4954,14.7359 17.5954,14.3219 C18.1804,14.1009 18.7444,13.5499 19.0674,12.8979 C19.5404,13.1229 20.0114,13.3489 20.4784,13.5789 C19.9854,14.5739 19.0694,15.4509 18.0604,15.8319 C16.0034,16.6069 13.8814,15.8009 13.0774,13.8889 C12.2854,12.0089 13.3524,9.8899 15.5784,9.0529 C16.6594,8.6459 17.9484,8.6789 18.9134,9.1139" id="Fill-13" fill="#58595B"></path>
            <path d="M26.2845,7.4821 C26.1655,8.4221 26.0555,9.3621 25.9515,10.3021 C26.6405,10.1011 27.3305,9.9071 28.0205,9.7181 C27.4485,8.9691 26.8715,8.2241 26.2845,7.4821 M25.8075,11.7671 C25.7595,12.2341 25.7135,12.7021 25.6695,13.1691 C25.0615,13.3531 24.4535,13.5421 23.8465,13.7351 C24.1305,11.1681 24.4765,8.5961 24.8875,6.0211 C25.5335,5.8331 26.1805,5.6501 26.8305,5.4731 C28.4965,7.4651 30.1065,9.4851 31.6615,11.5331 C31.0225,11.6891 30.3855,11.8521 29.7475,12.0181 C29.4705,11.6421 29.1895,11.2671 28.9085,10.8921 C27.8715,11.1701 26.8385,11.4611 25.8075,11.7671" id="Fill-15" fill="#58595B"></path>
            <path d="M39.9427,8.2809 C40.0267,8.7759 40.1117,9.2709 40.1957,9.7659 C38.5787,10.0389 36.9667,10.3469 35.3597,10.6869 C34.8707,8.3789 34.3817,6.0719 33.8927,3.7629 C34.5307,3.6289 35.1697,3.4979 35.8087,3.3729 C36.1667,5.1959 36.5227,7.0169 36.8797,8.8399 C37.8987,8.6409 38.9207,8.4539 39.9427,8.2809" id="Fill-17" fill="#58595B"></path>
            <path d="M44.1371,9.1672 C43.8231,6.8292 43.5061,4.4912 43.1921,2.1542 C43.8341,2.0662 44.4791,1.9842 45.1241,1.9072 C45.4051,4.2502 45.6841,6.5932 45.9631,8.9352 C45.3541,9.0072 44.7441,9.0852 44.1371,9.1672" id="Fill-19" fill="#58595B"></path>
            <path d="M51.9525,2.6994 C51.9875,3.2434 52.0225,3.7884 52.0585,4.3324 C53.1745,4.2604 54.2885,4.2024 55.4045,4.1604 C55.4225,4.6314 55.4405,5.1044 55.4575,5.5754 C54.3555,5.6174 53.2535,5.6744 52.1515,5.7454 C52.2075,6.6144 52.2645,7.4814 52.3205,8.3484 C51.7095,8.3884 51.0985,8.4334 50.4885,8.4824 C50.2985,6.1314 50.1075,3.7804 49.9185,1.4284 C51.8045,1.2764 53.6925,1.1654 55.5825,1.0984 C55.5995,1.5704 55.6155,2.0414 55.6335,2.5124 C54.4055,2.5574 53.1795,2.6194 51.9525,2.6994" id="Fill-21" fill="#58595B"></path>
            <g id="Group-25" transform="translate(59.000000, 0.858600)">
                <mask id="mask-6" fill="white">
                    <use xlink:href="#path-5"></use>
                </mask>
                <g id="Clip-24"></g>
                <path d="M2.2474,3.7036 C2.2414,4.8966 3.1834,5.8236 4.2964,5.8536 C5.4194,5.8826 6.3554,5.0046 6.4104,3.8126 C6.4664,2.6216 5.5764,1.6796 4.4074,1.6496 C3.2354,1.6176 2.2554,2.5106 2.2474,3.7036 M8.3524,3.9026 C8.2214,5.9626 6.4604,7.4176 4.2344,7.3596 C2.0194,7.3006 0.3394,5.7646 0.3134,3.6906 C0.2904,1.6306 2.0524,0.0806 4.4254,0.1426 C6.8094,0.2056 8.4864,1.8566 8.3524,3.9026" id="Fill-23" fill="#58595B" mask="url(#mask-6)"></path>
            </g>
            <path d="M74.8304,5.5763 C75.6424,5.6743 76.1674,5.3473 76.2674,4.6063 C76.3634,3.8753 75.9304,3.4383 75.1014,3.3383 C74.6174,3.2793 74.1344,3.2233 73.6494,3.1703 C73.5684,3.9173 73.4864,4.6653 73.4044,5.4113 C73.8814,5.4643 74.3554,5.5183 74.8304,5.5763 M74.7124,6.9873 L74.6604,6.9813 C74.1904,6.9243 73.7224,6.8693 73.2514,6.8183 C73.1804,7.4793 73.1064,8.1393 73.0354,8.7993 C72.4264,8.7333 71.8154,8.6713 71.2054,8.6143 C71.4264,6.2643 71.6454,3.9153 71.8654,1.5673 C73.0014,1.6743 74.1374,1.7953 75.2704,1.9323 C77.2864,2.1783 78.3064,3.2393 78.0724,4.7953 C77.9144,5.8663 77.3274,6.5653 76.4174,6.8593 C76.8244,7.7003 77.2214,8.5423 77.6074,9.3883 C76.9184,9.2853 76.2304,9.1893 75.5394,9.0983 C75.2694,8.3943 74.9944,7.6903 74.7124,6.9873" id="Fill-26" fill="#58595B"></path>
            <path d="M86.6634,11.091 C85.9004,9.427 85.0954,7.769 84.2484,6.12 C83.9644,7.544 83.6814,8.968 83.3964,10.392 C82.8304,10.28 82.2654,10.172 81.6974,10.068 C82.1244,7.748 82.5524,5.427 82.9784,3.107 C83.5434,3.211 84.1074,3.319 84.6734,3.43 C85.5484,5.089 86.3824,6.755 87.1744,8.428 C87.4964,7.009 87.8184,5.589 88.1424,4.169 C88.7354,4.304 89.3284,4.444 89.9214,4.588 C89.3644,6.881 88.8074,9.173 88.2514,11.465 C87.7224,11.337 87.1924,11.212 86.6634,11.091" id="Fill-28" fill="#58595B"></path>
            <path d="M92.68,12.6315 C93.325,10.3615 93.968,8.0925 94.614,5.8235 C95.243,6.0025 95.872,6.1855 96.499,6.3745 C95.82,8.6335 95.14,10.8935 94.46,13.1525 C93.868,12.9745 93.275,12.8005 92.68,12.6315" id="Fill-30" fill="#58595B"></path>
            <path d="M103.7738,10.715 C103.1198,11.402 102.4708,12.093 101.8308,12.789 C102.5078,13.036 103.1838,13.289 103.8588,13.548 C103.8378,12.606 103.8088,11.66 103.7738,10.715 M100.8458,13.884 C100.5308,14.233 100.2148,14.582 99.9028,14.932 C99.3008,14.72 98.6978,14.512 98.0928,14.309 C99.8418,12.408 101.6468,10.54 103.5058,8.708 C104.1418,8.941 104.7758,9.178 105.4098,9.421 C105.5838,12.015 105.6968,14.601 105.7498,17.176 C105.1328,16.922 104.5168,16.673 103.8988,16.428 C103.8948,15.96 103.8898,15.49 103.8828,15.021 C102.8748,14.629 101.8608,14.249 100.8458,13.884" id="Fill-32" fill="#58595B"></path>
            <polygon id="Fill-34" fill="#58595B" points="60.9701 15.779 62.4691 18.817 65.8231 19.303 63.3961 21.668 63.9691 25.007 60.9701 23.43 57.9721 25.007 58.5451 21.668 56.1181 19.303 59.4711 18.817"></polygon>
        </g>
    </g>
</svg>