<?xml version="1.0" encoding="UTF-8"?>
<svg width="132px" height="101px" viewBox="0 0 132 101" version="1.1" xmlns="http://www.w3.org/2000/svg" xmlns:xlink="http://www.w3.org/1999/xlink">
    <!-- Generator: Sketch 49 (51002) - http://www.bohemiancoding.com/sketch -->
    <title>vintage-logo-9</title>
    <desc>Created with Sketch.</desc>
    <defs>
        <polygon id="path-1" points="0 100.765 131.517 100.765 131.517 0 0 0"></polygon>
    </defs>
    <g id="Page-1" stroke="none" stroke-width="1" fill="none" fill-rule="evenodd">
        <g id="vintage-logo-9">
            <path d="M43.2913,45.5462 L46.0173,45.5462 L46.0173,38.1622 L48.2893,38.1622 C50.4763,38.1622 51.5553,36.9982 51.5553,34.6972 L51.5553,28.6492 C51.5553,26.3192 50.4473,25.1552 48.2613,25.1552 L43.2913,25.1552 L43.2913,45.5462 Z M46.0173,27.6262 L47.6073,27.6262 C48.4313,27.6262 48.8293,28.0242 48.8293,28.8182 L48.8293,34.4992 C48.8293,35.2942 48.4593,35.6922 47.7493,35.6922 L46.0173,35.6922 L46.0173,27.6262 Z M60.4723,45.5462 L60.4723,43.0752 L56.4393,43.0752 L56.4393,36.2882 L60.0183,36.2882 L60.0183,33.8172 L56.4393,33.8172 L56.4393,27.6262 L60.4723,27.6262 L60.4723,25.1552 L53.7133,25.1552 L53.7133,45.5462 L60.4723,45.5462 Z M69.3893,27.6262 L69.3893,25.1552 L61.4373,25.1552 L61.4373,27.6262 L64.0503,27.6262 L64.0503,45.5462 L66.7763,45.5462 L66.7763,27.6262 L69.3893,27.6262 Z M77.7093,45.5462 L77.7093,43.0752 L73.6763,43.0752 L73.6763,36.2882 L77.2553,36.2882 L77.2553,33.8172 L73.6763,33.8172 L73.6763,27.6262 L77.7093,27.6262 L77.7093,25.1552 L70.9503,25.1552 L70.9503,45.5462 L77.7093,45.5462 Z M79.6683,45.5462 L82.3953,45.5462 L82.3953,37.3112 L84.0423,37.3112 L85.8313,45.5462 L88.4153,45.5462 L86.5133,37.0552 C87.5923,36.5712 88.1313,35.4642 88.1313,33.6752 L88.1313,28.6492 C88.1313,26.3192 87.0813,25.1552 85.0073,25.1552 L79.6683,25.1552 L79.6683,45.5462 Z M82.3953,27.6262 L84.1843,27.6262 C85.0073,27.6262 85.4053,28.1092 85.4053,29.1032 L85.4053,33.5052 C85.4053,34.4992 85.0073,34.9822 84.1843,34.9822 L82.3953,34.9822 L82.3953,27.6262 Z" id="Fill-1" fill="#414042"></path>
            <path d="M50.7396,52.223 L50.7396,50.294 C50.7396,48.035 49.6926,46.905 47.5706,46.905 L45.9176,46.905 C43.7956,46.905 42.7476,48.035 42.7476,50.294 L42.7476,54.345 C42.7476,54.869 42.8026,55.282 42.9136,55.584 C43.0236,55.915 43.2166,56.191 43.4646,56.384 C43.7126,56.577 44.0986,56.825 44.6496,57.128 L47.1566,58.534 C47.4876,58.726 47.7356,58.892 47.8736,59.03 C48.0116,59.167 48.0936,59.415 48.0936,59.773 L48.0936,63.135 C48.0936,63.907 47.7356,64.292 47.0466,64.292 L46.5786,64.292 C45.7796,64.292 45.3936,63.907 45.3936,63.135 L45.3936,62.061 L42.7476,62.061 L42.7476,63.052 C42.7476,65.478 43.7956,66.69 45.9176,66.69 L47.5426,66.69 C49.6646,66.69 50.7396,65.587 50.7396,63.356 L50.7396,59.139 C50.7396,58.451 50.6846,57.954 50.5466,57.706 C50.4086,57.458 50.2436,57.266 50.0226,57.073 C49.7756,56.908 49.3886,56.66 48.8386,56.356 L46.3306,55.006 C45.9996,54.813 45.7516,54.648 45.6146,54.51 C45.4766,54.372 45.3936,54.124 45.3936,53.766 L45.3936,50.487 C45.3936,49.688 45.7796,49.302 46.5236,49.302 L46.9366,49.302 C47.7086,49.302 48.0936,49.688 48.0936,50.487 L48.0936,52.223 L50.7396,52.223 Z M55.8666,46.905 L52.9456,46.905 L52.9456,66.69 L55.5916,66.69 L55.3156,53.739 L57.2996,63.108 L59.3386,63.108 L61.3226,53.739 L61.0476,66.69 L63.6926,66.69 L63.6926,46.905 L60.7716,46.905 L58.3196,58.534 L55.8666,46.905 Z M66.1746,66.69 L68.8206,66.69 L68.8206,46.905 L66.1746,46.905 L66.1746,66.69 Z M78.0526,49.302 L78.0526,46.905 L70.3376,46.905 L70.3376,49.302 L72.8726,49.302 L72.8726,66.69 L75.5176,66.69 L75.5176,49.302 L78.0526,49.302 Z M88.1126,66.69 L88.1126,46.905 L85.4676,46.905 L85.4676,55.309 L82.2156,55.309 L82.2156,46.905 L79.5706,46.905 L79.5706,66.69 L82.2156,66.69 L82.2156,57.706 L85.4676,57.706 L85.4676,66.69 L88.1126,66.69 Z" id="Fill-3" fill="#414042"></path>
            <mask id="mask-2" fill="white">
                <use xlink:href="#path-1"></use>
            </mask>
            <g id="Clip-6"></g>
            <path d="M38.492,72.623 L92.643,72.623 L92.643,18.472 L38.492,18.472 L38.492,72.623 Z M37.596,73.519 L93.538,73.519 L93.538,17.577 L37.596,17.577 L37.596,73.519 Z" id="Fill-5" fill="#414042" mask="url(#mask-2)"></path>
            <path d="M-0.0002,42.9623 L-0.0002,49.0543 L4.4888,49.0543 L4.4888,47.8513 L1.3598,47.8513 L1.3598,46.5873 L4.0878,46.5873 L4.0878,45.4283 L1.3598,45.4283 L1.3598,44.1733 L4.3928,44.1733 L4.3928,42.9623 L-0.0002,42.9623 Z M10.2748,44.0163 C10.8408,44.0163 11.3818,44.2173 11.9138,44.6173 L12.6018,43.6243 C12.2968,43.3713 11.9478,43.1713 11.5388,43.0313 C11.1288,42.8923 10.7278,42.8223 10.3178,42.8223 C9.6998,42.8223 9.1768,42.9793 8.7668,43.2933 C8.3488,43.6073 8.1388,44.0513 8.1388,44.6263 C8.1388,45.2103 8.3048,45.6293 8.6358,45.8993 C8.9578,46.1693 9.4808,46.3963 10.1878,46.5623 C10.6318,46.6753 10.9368,46.7793 11.0848,46.8843 C11.2328,46.9973 11.3118,47.1373 11.3118,47.3193 C11.3118,47.5023 11.2418,47.6503 11.1028,47.7553 C10.9548,47.8683 10.7628,47.9213 10.5098,47.9213 C9.9518,47.9213 9.3418,47.6333 8.6878,47.0583 L7.8778,48.0523 C8.6538,48.7673 9.5168,49.1243 10.4838,49.1243 C11.1548,49.1243 11.6948,48.9493 12.1048,48.6093 C12.5148,48.2703 12.7148,47.8343 12.7148,47.2843 C12.7148,46.7353 12.5578,46.3263 12.2358,46.0383 C11.9138,45.7513 11.4688,45.5413 10.8938,45.3943 C10.3098,45.2543 9.9428,45.1323 9.7868,45.0273 C9.6208,44.9233 9.5418,44.7833 9.5418,44.6003 C9.5418,44.4263 9.6118,44.2863 9.7428,44.1733 C9.8738,44.0683 10.0478,44.0163 10.2748,44.0163 Z M20.7408,44.1383 L20.7408,42.9623 L15.9298,42.9623 L15.9298,44.1383 L17.6558,44.1383 L17.6558,49.0543 L19.0148,49.0543 L19.0148,44.1383 L20.7408,44.1383 Z M26.5008,42.9623 L24.3478,42.9623 L24.3478,49.0543 L26.4308,49.0543 C27.5898,49.0543 28.4618,48.7753 29.0278,48.2263 C29.5948,47.6773 29.8738,46.9273 29.8738,45.9783 C29.8738,45.0273 29.5858,44.2863 29.0018,43.7553 C28.4178,43.2233 27.5898,42.9623 26.5008,42.9623 Z M26.5708,47.8513 L25.7078,47.8513 L25.7078,44.1473 L26.4658,44.1473 C27.1548,44.1473 27.6688,44.3043 28.0088,44.6263 C28.3398,44.9483 28.5048,45.4103 28.5048,46.0123 C28.5048,46.6133 28.3398,47.0663 28.0088,47.3813 C27.6688,47.6943 27.1888,47.8513 26.5708,47.8513 Z M103.8668,46.2133 L102.0798,48.0433 L102.0798,49.0543 L106.3758,49.0543 L106.3758,47.8343 L103.9708,47.8343 L105.0688,46.6913 C105.4968,46.2473 105.7918,45.8733 105.9578,45.5853 C106.1148,45.2973 106.1938,45.0013 106.1938,44.6883 C106.1938,44.1123 105.9928,43.6593 105.6008,43.3183 C105.1998,42.9873 104.7378,42.8223 104.2148,42.8223 C103.6838,42.8223 103.2558,42.9363 102.9168,43.1623 C102.5768,43.3893 102.2628,43.7203 101.9748,44.1643 L103.0638,44.8103 C103.4048,44.2603 103.7708,43.9903 104.1538,43.9903 C104.3628,43.9903 104.5378,44.0603 104.6678,44.1913 C104.7988,44.3303 104.8688,44.5043 104.8688,44.7053 C104.8688,44.9053 104.7908,45.1143 104.6418,45.3323 C104.4848,45.5503 104.2238,45.8473 103.8668,46.2133 Z M112.4678,43.9463 C112.8768,43.9463 113.1738,44.1303 113.3648,44.5043 C113.5568,44.8793 113.6528,45.3673 113.6528,45.9783 C113.6528,46.5873 113.5568,47.0753 113.3648,47.4503 C113.1738,47.8253 112.8768,48.0083 112.4678,48.0083 C112.0578,48.0083 111.7618,47.8253 111.5698,47.4503 C111.3778,47.0753 111.2818,46.5873 111.2818,45.9783 C111.2818,45.3673 111.3778,44.8793 111.5698,44.5043 C111.7618,44.1303 112.0578,43.9463 112.4678,43.9463 Z M114.3588,48.2613 C114.7768,47.6943 114.9858,46.9273 114.9858,45.9693 C114.9858,45.0193 114.7768,44.2513 114.3588,43.6763 C113.9398,43.1093 113.3128,42.8223 112.4678,42.8223 C111.6218,42.8223 110.9948,43.1093 110.5758,43.6763 C110.1578,44.2513 109.9488,45.0193 109.9488,45.9693 C109.9488,46.9273 110.1578,47.6943 110.5758,48.2613 C110.9948,48.8363 111.6218,49.1243 112.4678,49.1243 C113.3128,49.1243 113.9398,48.8363 114.3588,48.2613 Z M121.0948,43.9463 C121.5038,43.9463 121.8008,44.1303 121.9928,44.5043 C122.1838,44.8793 122.2798,45.3673 122.2798,45.9783 C122.2798,46.5873 122.1838,47.0753 121.9928,47.4503 C121.8008,47.8253 121.5038,48.0083 121.0948,48.0083 C120.6848,48.0083 120.3888,47.8253 120.1968,47.4503 C120.0048,47.0753 119.9098,46.5873 119.9098,45.9783 C119.9098,45.3673 120.0048,44.8793 120.1968,44.5043 C120.3888,44.1303 120.6848,43.9463 121.0948,43.9463 Z M122.9858,48.2613 C123.4038,47.6943 123.6138,46.9273 123.6138,45.9693 C123.6138,45.0193 123.4038,44.2513 122.9858,43.6763 C122.5678,43.1093 121.9398,42.8223 121.0948,42.8223 C120.2498,42.8223 119.6218,43.1093 119.2038,43.6763 C118.7848,44.2513 118.5758,45.0193 118.5758,45.9693 C118.5758,46.9273 118.7848,47.6943 119.2038,48.2613 C119.6218,48.8363 120.2498,49.1243 121.0948,49.1243 C121.9398,49.1243 122.5678,48.8363 122.9858,48.2613 Z M129.0068,46.2133 L127.2208,48.0433 L127.2208,49.0543 L131.5178,49.0543 L131.5178,47.8343 L129.1118,47.8343 L130.2098,46.6913 C130.6368,46.2473 130.9338,45.8733 131.0988,45.5853 C131.2558,45.2973 131.3338,45.0013 131.3338,44.6883 C131.3338,44.1123 131.1338,43.6593 130.7418,43.3183 C130.3408,42.9873 129.8788,42.8223 129.3558,42.8223 C128.8238,42.8223 128.3968,42.9363 128.0568,43.1623 C127.7168,43.3893 127.4038,43.7203 127.1158,44.1643 L128.2058,44.8103 C128.5448,44.2603 128.9118,43.9903 129.2948,43.9903 C129.5038,43.9903 129.6778,44.0603 129.8088,44.1913 C129.9398,44.3303 130.0098,44.5043 130.0098,44.7053 C130.0098,44.9053 129.9308,45.1143 129.7828,45.3323 C129.6258,45.5503 129.3648,45.8473 129.0068,46.2133 Z" id="Fill-7" fill="#414042" mask="url(#mask-2)"></path>
            <path d="M28.3758,82.2464 L26.5118,79.8504 L25.9708,79.8504 L25.9708,83.0584 L26.5118,83.0584 L26.5118,80.7184 L28.3298,83.0584 L28.9178,83.0584 L28.9178,79.8504 L28.3758,79.8504 L28.3758,82.2464 Z M31.1768,79.8504 L31.1768,83.0584 L33.4858,83.0584 L33.4858,82.5494 L31.7188,82.5494 L31.7188,81.6904 L33.2568,81.6904 L33.2568,81.2094 L31.7188,81.2094 L31.7188,80.3594 L33.4308,80.3594 L33.4308,79.8504 L31.1768,79.8504 Z M35.7428,79.8504 L35.1598,79.8504 L36.2798,83.0584 L36.8168,83.0584 L37.4918,80.8594 L37.5278,80.8594 L38.2028,83.0584 L38.7398,83.0584 L39.8598,79.8504 L39.2768,79.8504 L38.4698,82.1594 L37.7528,79.8504 L37.2668,79.8504 L36.5508,82.1594 L35.7428,79.8504 Z M45.6218,81.7914 L46.8148,79.8504 L46.2228,79.8504 L45.3458,81.3094 L44.4698,79.8504 L43.8768,79.8504 L45.0708,81.7914 L45.0708,83.0584 L45.6218,83.0584 L45.6218,81.7914 Z M51.1048,81.4294 C51.1048,81.7554 50.9948,82.0304 50.7798,82.2554 C50.5588,82.4804 50.2888,82.5954 49.9718,82.5954 C49.6548,82.5954 49.3838,82.4804 49.1678,82.2554 C48.9478,82.0304 48.8378,81.7554 48.8378,81.4294 C48.8378,81.1074 48.9478,80.8324 49.1678,80.6074 C49.3838,80.3824 49.6548,80.2674 49.9718,80.2674 C50.2888,80.2674 50.5588,80.3824 50.7798,80.6074 C50.9948,80.8324 51.1048,81.1074 51.1048,81.4294 Z M51.6608,81.4294 C51.6608,80.9564 51.4998,80.5614 51.1738,80.2444 C50.8488,79.9284 50.4488,79.7714 49.9718,79.7714 C49.4938,79.7714 49.0948,79.9284 48.7688,80.2444 C48.4428,80.5614 48.2818,80.9564 48.2818,81.4294 C48.2818,81.9014 48.4428,82.2974 48.7688,82.6134 C49.0948,82.9304 49.4938,83.0914 49.9718,83.0914 C50.4488,83.0914 50.8488,82.9304 51.1738,82.6134 C51.4998,82.2974 51.6608,81.9014 51.6608,81.4294 Z M55.9588,80.0984 C55.7478,79.9334 55.3988,79.8504 54.9078,79.8504 L53.7138,79.8504 L53.7138,83.0584 L54.2558,83.0584 L54.2558,81.9794 L54.9668,81.9794 L55.7338,83.0584 L56.4218,83.0584 L55.5828,81.8924 C56.0458,81.7554 56.2748,81.4204 56.2748,80.8924 C56.2748,80.5294 56.1698,80.2634 55.9588,80.0984 Z M54.9308,81.4884 L54.2558,81.4884 L54.2558,80.3414 L54.9438,80.3414 C55.2328,80.3414 55.4358,80.3784 55.5498,80.4564 C55.6648,80.5344 55.7198,80.6814 55.7198,80.8874 C55.7198,81.0994 55.6648,81.2504 55.5548,81.3474 C55.4448,81.4424 55.2378,81.4884 54.9308,81.4884 Z M58.4258,83.0584 L58.9668,83.0584 L58.9668,82.1594 L59.4358,81.6534 L60.5008,83.0584 L61.1428,83.0584 L59.8348,81.2554 L61.1248,79.8504 L60.4368,79.8504 L58.9668,81.4154 L58.9668,79.8504 L58.4258,79.8504 L58.4258,83.0584 Z M66.3468,82.2364 C66.1258,82.0214 66.0168,81.7454 66.0168,81.4204 C66.0168,81.0944 66.1258,80.8274 66.3468,80.6164 C66.5668,80.4104 66.8378,80.3054 67.1638,80.3054 C67.3478,80.3054 67.5078,80.3324 67.6458,80.3924 C67.7788,80.4514 67.9258,80.5524 68.0778,80.6994 L68.4218,80.3224 C68.0858,79.9554 67.6728,79.7714 67.1778,79.7714 C66.6768,79.7714 66.2688,79.9334 65.9428,80.2494 C65.6168,80.5654 65.4518,80.9654 65.4518,81.4424 C65.4518,81.9204 65.6118,82.3144 65.9338,82.6274 C66.2508,82.9394 66.6538,83.0954 67.1408,83.0954 C67.6228,83.0954 68.0358,82.9074 68.3758,82.5304 L68.0268,82.1734 C67.8798,82.3104 67.7378,82.4114 67.6048,82.4714 C67.4718,82.5354 67.3108,82.5674 67.1228,82.5674 C66.8238,82.5674 66.5628,82.4574 66.3468,82.2364 Z M70.4068,83.0584 L70.9488,83.0584 L70.9488,79.8494 L70.4068,79.8494 L70.4068,83.0584 Z M75.3968,80.3464 L75.3968,79.8504 L72.9088,79.8504 L72.9088,80.3464 L73.8818,80.3464 L73.8818,83.0584 L74.4238,83.0584 L74.4238,80.3464 L75.3968,80.3464 Z M78.6178,81.7914 L79.8108,79.8504 L79.2188,79.8504 L78.3418,81.3094 L77.4648,79.8504 L76.8728,79.8504 L78.0668,81.7914 L78.0668,83.0584 L78.6178,83.0584 L78.6178,81.7914 Z M84.7218,81.6264 L84.7218,79.8504 L84.1798,79.8504 L84.1798,81.6494 C84.1798,82.1134 84.3078,82.4664 84.5608,82.7144 C84.8138,82.9674 85.1388,83.0914 85.5388,83.0914 C85.9378,83.0914 86.2638,82.9674 86.5158,82.7144 C86.7688,82.4664 86.8968,82.1134 86.8968,81.6494 L86.8968,79.8504 L86.3548,79.8504 L86.3548,81.6264 C86.3548,81.9204 86.2818,82.1544 86.1348,82.3244 C85.9878,82.4944 85.7908,82.5814 85.5388,82.5814 C85.2858,82.5814 85.0888,82.4944 84.9418,82.3244 C84.7948,82.1544 84.7218,81.9204 84.7218,81.6264 Z M89.2398,83.0954 C89.3358,83.0954 89.4148,83.0634 89.4828,82.9944 C89.5518,82.9264 89.5838,82.8484 89.5838,82.7514 C89.5838,82.6544 89.5518,82.5764 89.4828,82.5084 C89.4148,82.4434 89.3358,82.4114 89.2398,82.4114 C89.1438,82.4114 89.0658,82.4434 89.0008,82.5084 C88.9328,82.5764 88.8998,82.6544 88.8998,82.7514 C88.8998,82.8484 88.9328,82.9264 89.0008,82.9944 C89.0658,83.0634 89.1438,83.0954 89.2398,83.0954 Z M93.1518,80.3544 C93.3128,80.4104 93.4408,80.4784 93.5378,80.5654 L93.8268,80.1574 C93.6798,80.0334 93.5048,79.9414 93.3028,79.8734 C93.1008,79.8044 92.8988,79.7714 92.6928,79.7714 C92.3758,79.7714 92.1098,79.8504 91.8938,80.0114 C91.6778,80.1714 91.5678,80.4004 91.5678,80.6994 C91.5678,80.9974 91.6648,81.2184 91.8528,81.3604 C91.9488,81.4384 92.0548,81.4984 92.1788,81.5444 C92.3028,81.5944 92.4808,81.6444 92.7158,81.6994 C92.9498,81.7604 93.1198,81.8194 93.2158,81.8884 C93.3128,81.9574 93.3578,82.0534 93.3578,82.1774 C93.3578,82.3014 93.3078,82.4024 93.2068,82.4754 C93.1008,82.5544 92.9628,82.5904 92.7888,82.5904 C92.4398,82.5904 92.1048,82.4484 91.7788,82.1684 L91.4388,82.5764 C91.8298,82.9214 92.2748,83.0954 92.7748,83.0954 C93.1198,83.0954 93.3948,83.0084 93.6058,82.8334 C93.8168,82.6594 93.9228,82.4304 93.9228,82.1494 C93.9228,81.8694 93.8398,81.6584 93.6748,81.5164 C93.5048,81.3744 93.2568,81.2594 92.9318,81.1814 C92.6008,81.1024 92.3848,81.0254 92.2838,80.9564 C92.1828,80.8874 92.1328,80.7914 92.1328,80.6574 C92.1328,80.5294 92.1828,80.4334 92.2838,80.3684 C92.3848,80.3054 92.5138,80.2724 92.6738,80.2724 C92.8308,80.2724 92.9908,80.3004 93.1518,80.3544 Z M96.1608,83.0954 C96.2578,83.0954 96.3348,83.0634 96.4038,82.9944 C96.4728,82.9264 96.5048,82.8484 96.5048,82.7514 C96.5048,82.6544 96.4728,82.5764 96.4038,82.5084 C96.3348,82.4434 96.2578,82.4114 96.1608,82.4114 C96.0648,82.4114 95.9868,82.4434 95.9218,82.5084 C95.8538,82.5764 95.8208,82.6544 95.8208,82.7514 C95.8208,82.8484 95.8538,82.9264 95.9218,82.9944 C95.9868,83.0634 96.0648,83.0954 96.1608,83.0954 Z M100.6828,82.3284 L101.0038,83.0584 L101.5828,83.0584 L100.1688,79.8504 L99.5908,79.8504 L98.1768,83.0584 L98.7548,83.0584 L99.0768,82.3284 L100.6828,82.3284 Z M99.2968,81.8284 L99.8798,80.5064 L100.4628,81.8284 L99.2968,81.8284 Z M103.5958,83.0954 C103.6918,83.0954 103.7698,83.0634 103.8388,82.9944 C103.9078,82.9264 103.9398,82.8484 103.9398,82.7514 C103.9398,82.6544 103.9078,82.5764 103.8388,82.5084 C103.7698,82.4434 103.6918,82.4114 103.5958,82.4114 C103.4988,82.4114 103.4208,82.4434 103.3568,82.5084 C103.2878,82.5764 103.2558,82.6544 103.2558,82.7514 C103.2558,82.8484 103.2878,82.9264 103.3568,82.9944 C103.4208,83.0634 103.4988,83.0954 103.5958,83.0954 Z" id="Fill-8" fill="#414042" mask="url(#mask-2)"></path>
            <path d="M4.4388,25.6165 L3.5358,26.6835 L6.6428,29.3135 L7.0868,28.7895 L6.1758,28.0175 L6.6418,27.4675 C7.0298,27.0095 7.2268,26.5955 7.2418,26.2265 C7.2518,25.8625 7.0708,25.5175 6.6928,25.1975 C6.3148,24.8785 5.9498,24.7515 5.5828,24.8145 C5.2158,24.8795 4.8378,25.1455 4.4388,25.6165 M6.2148,27.0065 L5.6998,27.6155 L4.4558,26.5615 L4.9068,26.0285 C5.1478,25.7435 5.3688,25.5725 5.5708,25.5145 C5.7718,25.4565 5.9798,25.5175 6.1928,25.6985 C6.4108,25.8825 6.5258,26.0715 6.5508,26.2675 C6.5718,26.4685 6.4598,26.7175 6.2148,27.0065" id="Fill-9" fill="#414042" mask="url(#mask-2)"></path>
            <polygon id="Fill-10" fill="#414042" mask="url(#mask-2)" points="7.1204 22.6331 9.9834 25.5271 12.0664 23.4661 11.6114 23.0071 10.0174 24.5841 9.2514 23.8101 10.6384 22.4381 10.2084 22.0031 8.8214 23.3751 8.0634 22.6101 9.6074 21.0811 9.1534 20.6211"></polygon>
            <polygon id="Fill-11" fill="#414042" mask="url(#mask-2)" points="13.4402 17.7376 13.0352 17.2566 10.6182 19.2876 11.0232 19.7686 11.9682 18.9746 14.1842 21.6106 14.7102 21.1686 12.4952 18.5326"></polygon>
            <polygon id="Fill-12" fill="#414042" mask="url(#mask-2)" points="14.7318 15.9515 17.1078 19.2515 19.4828 17.5415 19.1058 17.0175 17.2878 18.3265 16.6518 17.4435 18.2338 16.3055 17.8768 15.8085 16.2948 16.9475 15.6668 16.0745 17.4278 14.8065 17.0498 14.2825"></polygon>
            <path d="M21.5955,11.7621 C21.2575,11.7231 20.8255,11.8641 20.2935,12.1891 L19.0025,12.9781 L21.1245,16.4501 L21.7105,16.0921 L20.9975,14.9251 L21.7675,14.4541 L23.3105,15.1151 L24.0555,14.6591 L22.3755,13.9531 C22.7855,13.4971 22.8125,12.9831 22.4635,12.4111 C22.2235,12.0191 21.9335,11.8011 21.5955,11.7621 M21.4025,13.9481 L20.6725,14.3941 L19.9135,13.1521 L20.6585,12.6961 C20.9715,12.5051 21.2145,12.4101 21.3905,12.4191 C21.5665,12.4281 21.7225,12.5501 21.8595,12.7741 C21.9985,13.0021 22.0395,13.2031 21.9845,13.3801 C21.9285,13.5581 21.7355,13.7431 21.4025,13.9481" id="Fill-13" fill="#414042" mask="url(#mask-2)"></path>
            <path d="M28.3431,8.6097 C28.5571,8.5857 28.7411,8.5947 28.8991,8.6427 L29.0091,8.0177 C28.7741,7.9557 28.5241,7.9447 28.2561,7.9747 C27.9871,8.0057 27.7381,8.0787 27.5021,8.1897 C27.1391,8.3617 26.8761,8.5947 26.7161,8.8957 C26.5551,9.1967 26.5531,9.5187 26.7151,9.8607 C26.8761,10.2027 27.1061,10.4027 27.3991,10.4637 C27.5511,10.5017 27.7041,10.5117 27.8711,10.4987 C28.0411,10.4887 28.2731,10.4497 28.5711,10.3857 C28.8711,10.3277 29.0981,10.3037 29.2461,10.3317 C29.3941,10.3577 29.4991,10.4437 29.5661,10.5857 C29.6331,10.7267 29.6301,10.8707 29.5531,11.0087 C29.4751,11.1557 29.3371,11.2717 29.1371,11.3667 C28.7381,11.5547 28.2771,11.5737 27.7521,11.4287 L27.5841,12.0817 C28.2171,12.2637 28.8221,12.2227 29.3951,11.9527 C29.7891,11.7657 30.0571,11.5167 30.2051,11.2037 C30.3521,10.8887 30.3491,10.5687 30.1971,10.2487 C30.0461,9.9267 29.8371,9.7297 29.5711,9.6567 C29.2991,9.5857 28.9531,9.5887 28.5371,9.6747 C28.1171,9.7647 27.8271,9.7927 27.6751,9.7677 C27.5211,9.7437 27.4111,9.6607 27.3401,9.5077 C27.2701,9.3607 27.2761,9.2227 27.3561,9.0947 C27.4371,8.9657 27.5671,8.8597 27.7511,8.7727 C27.9301,8.6887 28.1291,8.6327 28.3431,8.6097" id="Fill-14" fill="#414042" mask="url(#mask-2)"></path>
            <polygon id="Fill-15" fill="#414042" mask="url(#mask-2)" points="31.9686 7.2845 34.3026 9.4105 34.6616 9.2725 34.9726 6.1275 36.1146 9.0945 36.7556 8.8465 35.2936 5.0495 34.2996 5.4315 34.0716 8.2585 32.0066 6.3145 31.0076 6.6995 32.4696 10.4975 33.1106 10.2505"></polygon>
            <polygon id="Fill-16" fill="#414042" mask="url(#mask-2)" points="38.8846 8.1712 39.5396 7.9642 38.3106 4.0852 37.6556 4.2922"></polygon>
            <polygon id="Fill-17" fill="#414042" mask="url(#mask-2)" points="43.4954 3.2806 43.3334 2.6736 40.2874 3.4846 40.4484 4.0916 41.6404 3.7746 42.5244 7.0966 43.1874 6.9206 42.3034 3.5976"></polygon>
            <polygon id="Fill-18" fill="#414042" mask="url(#mask-2)" points="46.8401 6.0443 46.5071 4.4113 48.4881 4.0083 48.8211 5.6413 49.4941 5.5043 48.6821 1.5133 48.0081 1.6503 48.3611 3.3803 46.3801 3.7833 46.0281 2.0543 45.3541 2.1903 46.1661 6.1823"></polygon>
            <path d="M56.9085,3.5667 L57.4095,4.4427 L58.1385,4.3657 L55.9315,0.5127 L55.2025,0.5887 L53.8485,4.8187 L54.5765,4.7417 L54.8855,3.7797 L56.9085,3.5667 Z M55.0965,3.1207 L55.6545,1.3787 L56.5645,2.9647 L55.0965,3.1207 Z" id="Fill-19" fill="#414042" mask="url(#mask-2)"></path>
            <polygon id="Fill-20" fill="#414042" mask="url(#mask-2)" points="62.8196 3.0912 60.3316 0.1582 59.6456 0.1882 59.8186 4.2492 60.5046 4.2202 60.3786 1.2572 62.8046 4.1222 63.5486 4.0912 63.3766 0.0282 62.6906 0.0582"></polygon>
            <path d="M67.2571,0.0287 L65.8591,0.0007 L65.7781,4.0717 L67.1291,4.0987 C67.9151,4.1147 68.5021,3.9397 68.8871,3.5807 C69.2741,3.2207 69.4761,2.7237 69.4881,2.0897 C69.5011,1.4547 69.3131,0.9557 68.9301,0.5917 C68.5471,0.2287 67.9851,0.0427 67.2571,0.0287 M68.3841,3.1217 C68.1171,3.3557 67.7361,3.4647 67.2411,3.4547 L66.4781,3.4387 L66.5331,0.6487 L67.2211,0.6627 C68.2871,0.6837 68.8141,1.1607 68.7951,2.0927 C68.7861,2.5527 68.6511,2.8937 68.3841,3.1217" id="Fill-21" fill="#414042" mask="url(#mask-2)"></path>
            <path d="M76.3411,1.2728 C76.5361,1.3648 76.6881,1.4688 76.7981,1.5918 L77.2181,1.1168 C77.0491,0.9408 76.8421,0.8008 76.5971,0.6868 C76.3521,0.5728 76.1021,0.5038 75.8421,0.4768 C75.4431,0.4338 75.0971,0.4958 74.8041,0.6688 C74.5101,0.8408 74.3401,1.1158 74.2991,1.4918 C74.2591,1.8678 74.3501,2.1578 74.5681,2.3628 C74.6791,2.4738 74.8041,2.5638 74.9531,2.6378 C75.1031,2.7188 75.3211,2.8068 75.6091,2.9078 C75.8961,3.0148 76.1011,3.1138 76.2131,3.2128 C76.3251,3.3128 76.3701,3.4408 76.3531,3.5968 C76.3361,3.7518 76.2591,3.8738 76.1221,3.9518 C75.9781,4.0358 75.8001,4.0628 75.5801,4.0398 C75.1411,3.9928 74.7381,3.7668 74.3651,3.3708 L73.8821,3.8378 C74.3271,4.3258 74.8641,4.6058 75.4941,4.6728 C75.9271,4.7198 76.2861,4.6478 76.5761,4.4578 C76.8661,4.2658 77.0301,3.9918 77.0681,3.6388 C77.1061,3.2868 77.0311,3.0088 76.8421,2.8068 C76.6481,2.6048 76.3511,2.4258 75.9511,2.2838 C75.5461,2.1408 75.2841,2.0128 75.1671,1.9128 C75.0491,1.8118 74.9981,1.6838 75.0161,1.5158 C75.0341,1.3538 75.1111,1.2398 75.2461,1.1718 C75.3831,1.1058 75.5491,1.0828 75.7511,1.1038 C75.9471,1.1258 76.1461,1.1818 76.3411,1.2728" id="Fill-22" fill="#414042" mask="url(#mask-2)"></path>
            <path d="M82.5057,3.5746 C82.4357,3.9816 82.2387,4.3036 81.9207,4.5376 C81.5967,4.7706 81.2337,4.8566 80.8377,4.7886 C80.4417,4.7206 80.1277,4.5176 79.9067,4.1906 C79.6797,3.8626 79.6007,3.4946 79.6717,3.0876 C79.7407,2.6846 79.9377,2.3646 80.2607,2.1316 C80.5797,1.8956 80.9427,1.8106 81.3387,1.8796 C81.7347,1.9476 82.0477,2.1486 82.2757,2.4776 C82.4967,2.8046 82.5747,3.1736 82.5057,3.5746 M83.1997,3.6946 C83.3017,3.1026 83.1857,2.5756 82.8467,2.1086 C82.5067,1.6426 82.0417,1.3616 81.4447,1.2596 C80.8487,1.1566 80.3157,1.2656 79.8397,1.5916 C79.3647,1.9176 79.0787,2.3766 78.9767,2.9676 C78.8757,3.5576 78.9907,4.0866 79.3307,4.5526 C79.6697,5.0186 80.1337,5.3046 80.7307,5.4076 C81.3277,5.5116 81.8607,5.3956 82.3367,5.0696 C82.8127,4.7446 83.0987,4.2856 83.1997,3.6946" id="Fill-23" fill="#414042" mask="url(#mask-2)"></path>
            <polygon id="Fill-24" fill="#414042" mask="url(#mask-2)" points="87.9866 5.8597 86.4126 2.3497 85.7456 2.1867 84.7816 6.1367 85.4476 6.2987 86.1526 3.4177 87.6856 6.8457 88.4096 7.0227 89.3736 3.0727 88.7076 2.9107"></polygon>
            <path d="M93.3231,4.9173 C93.4961,5.0453 93.6251,5.1773 93.7091,5.3193 L94.2141,4.9353 C94.0831,4.7303 93.9071,4.5523 93.6891,4.3933 C93.4711,4.2323 93.2391,4.1173 92.9901,4.0383 C92.6061,3.9183 92.2551,3.9113 91.9331,4.0233 C91.6111,4.1363 91.3911,4.3713 91.2781,4.7323 C91.1641,5.0933 91.1971,5.3963 91.3711,5.6403 C91.4581,5.7713 91.5631,5.8833 91.6951,5.9853 C91.8251,6.0933 92.0231,6.2223 92.2851,6.3783 C92.5451,6.5393 92.7281,6.6763 92.8181,6.7953 C92.9081,6.9153 92.9271,7.0493 92.8811,7.1993 C92.8331,7.3493 92.7341,7.4513 92.5841,7.5023 C92.4271,7.5573 92.2461,7.5483 92.0351,7.4823 C91.6141,7.3503 91.2631,7.0503 90.9751,6.5883 L90.4091,6.9533 C90.7501,7.5183 91.2221,7.8973 91.8271,8.0873 C92.2431,8.2183 92.6101,8.2173 92.9311,8.0863 C93.2521,7.9563 93.4671,7.7193 93.5731,7.3803 C93.6801,7.0413 93.6601,6.7553 93.5141,6.5203 C93.3631,6.2833 93.1071,6.0513 92.7431,5.8323 C92.3731,5.6123 92.1421,5.4373 92.0461,5.3143 C91.9501,5.1933 91.9261,5.0583 91.9761,4.8963 C92.0251,4.7413 92.1221,4.6443 92.2691,4.6053 C92.4151,4.5653 92.5831,4.5753 92.7771,4.6363 C92.9661,4.6953 93.1501,4.7903 93.3231,4.9173" id="Fill-25" fill="#414042" mask="url(#mask-2)"></path>
            <path d="M98.8441,9.4759 C98.6941,9.1149 98.7021,8.7379 98.8641,8.3579 C99.0261,7.9769 99.2871,7.7209 99.6491,7.5829 C100.0091,7.4519 100.3781,7.4629 100.7591,7.6249 C100.9731,7.7159 101.1471,7.8289 101.2781,7.9659 C101.4041,8.1019 101.5251,8.2929 101.6291,8.5389 L102.2181,8.2709 C102.0091,7.6759 101.6181,7.2559 101.0391,7.0099 C100.4551,6.7609 99.8981,6.7469 99.3601,6.9549 C98.8221,7.1619 98.4311,7.5459 98.1941,8.1039 C97.9561,8.6619 97.9481,9.2019 98.1681,9.7259 C98.3831,10.2479 98.7771,10.6309 99.3451,10.8719 C99.9081,11.1119 100.4841,11.0979 101.0681,10.8269 L100.8381,10.2359 C100.5981,10.3239 100.3821,10.3709 100.1971,10.3739 C100.0091,10.3829 99.8051,10.3399 99.5861,10.2469 C99.2381,10.0989 98.9871,9.8399 98.8441,9.4759" id="Fill-26" fill="#414042" mask="url(#mask-2)"></path>
            <path d="M106.3826,11.9173 C106.1926,12.2843 105.9086,12.5303 105.5346,12.6573 C105.1546,12.7833 104.7826,12.7543 104.4256,12.5703 C104.0696,12.3863 103.8316,12.0993 103.7186,11.7203 C103.6016,11.3383 103.6376,10.9633 103.8276,10.5973 C104.0146,10.2343 104.2996,9.9883 104.6786,9.8633 C105.0526,9.7353 105.4246,9.7643 105.7816,9.9483 C106.1386,10.1333 106.3766,10.4203 106.4936,10.8013 C106.6056,11.1803 106.5696,11.5553 106.3826,11.9173 M107.0076,12.2403 C107.2836,11.7073 107.3326,11.1693 107.1496,10.6223 C106.9666,10.0763 106.6076,9.6683 106.0706,9.3903 C105.5326,9.1113 104.9916,9.0553 104.4396,9.2223 C103.8886,9.3893 103.4776,9.7403 103.2016,10.2723 C102.9266,10.8063 102.8776,11.3443 103.0606,11.8913 C103.2436,12.4373 103.5996,12.8513 104.1376,13.1293 C104.6756,13.4063 105.2186,13.4583 105.7706,13.2913 C106.3216,13.1243 106.7336,12.7723 107.0076,12.2403" id="Fill-27" fill="#414042" mask="url(#mask-2)"></path>
            <polygon id="Fill-28" fill="#414042" mask="url(#mask-2)" points="110.0355 12.722 109.7135 15.862 110.0375 16.068 112.7505 14.449 111.0455 17.129 111.6245 17.498 113.8075 14.066 112.9095 13.494 110.5025 14.991 110.8375 12.176 109.9335 11.602 107.7505 15.034 108.3305 15.403"></polygon>
            <path d="M117.0106,16.4203 L115.9016,15.5693 L113.4246,18.7993 L113.9696,19.2173 L114.6966,18.2703 L115.2686,18.7093 C115.7446,19.0743 116.1666,19.2513 116.5356,19.2483 C116.9006,19.2423 117.2356,19.0443 117.5366,18.6513 C117.8386,18.2593 117.9476,17.8883 117.8656,17.5243 C117.7846,17.1613 117.5006,16.7963 117.0106,16.4203 M115.7076,18.2613 L115.0746,17.7753 L116.0676,16.4823 L116.6216,16.9073 C116.9176,17.1353 117.0996,17.3473 117.1666,17.5463 C117.2346,17.7443 117.1836,17.9553 117.0136,18.1773 C116.8396,18.4033 116.6566,18.5263 116.4616,18.5613 C116.2616,18.5913 116.0086,18.4913 115.7076,18.2613" id="Fill-29" fill="#414042" mask="url(#mask-2)"></path>
            <path d="M119.7723,22.8734 L119.4533,23.8334 L119.9973,24.3254 L121.3993,20.1064 L120.8553,19.6144 L116.7953,21.4264 L117.3393,21.9184 L118.2623,21.5064 L119.7723,22.8734 Z M118.8953,21.2244 L120.5683,20.4774 L119.9913,22.2164 L118.8953,21.2244 Z" id="Fill-30" fill="#414042" mask="url(#mask-2)"></path>
            <polygon id="Fill-31" fill="#414042" mask="url(#mask-2)" points="123.9471 27.056 124.6131 23.265 124.1521 22.756 121.1361 25.487 121.5971 25.996 123.7971 24.003 123.1441 27.704 123.6441 28.257 126.6601 25.526 126.1991 25.016"></polygon>
            <polygon id="Fill-32" fill="#414042" mask="url(#mask-2)" points="127.2547 30.3109 130.1377 30.0679 129.6927 29.4619 127.5397 29.6659 128.3717 27.6699 127.9257 27.0649 126.8397 29.7479 125.5447 30.7019 125.9597 31.2649"></polygon>
            <path d="M50.817,95.332 L55.07,95.332 L55.07,93.785 L50.817,93.785 L50.817,95.332 Z M64.602,92.026 L64.602,89.261 C64.602,87.675 63.867,86.883 62.378,86.883 L61.296,86.883 C59.807,86.883 59.072,87.675 59.072,89.261 L59.072,90.808 L60.928,90.808 L60.928,89.396 C60.928,88.855 61.18,88.584 61.663,88.584 L61.914,88.584 C62.475,88.584 62.745,88.855 62.745,89.396 L62.745,92.026 C62.745,92.625 62.378,92.935 61.663,92.935 L61.392,92.935 L61.392,94.5 L61.895,94.5 C62.61,94.5 62.977,94.81 62.977,95.41 L62.977,98.271 C62.977,98.812 62.707,99.083 62.146,99.083 L61.721,99.083 C61.238,99.083 60.986,98.812 60.986,98.271 L60.986,97.517 L59.13,97.517 L59.13,98.407 C59.13,99.972 59.865,100.765 61.353,100.765 L62.61,100.765 C64.099,100.765 64.834,99.972 64.834,98.407 L64.834,95.39 C64.834,94.481 64.35,93.882 63.384,93.63 C64.196,93.437 64.602,92.896 64.602,92.026 Z M68.507,99.102 L68.507,97.091 C68.507,96.937 68.507,96.821 68.527,96.724 C68.527,96.627 68.546,96.55 68.585,96.453 C68.623,96.357 68.778,96.202 69.029,95.951 L71.079,93.979 C71.369,93.689 71.562,93.456 71.639,93.263 C71.698,93.07 71.736,92.838 71.736,92.586 L71.736,89.261 C71.736,87.675 71.001,86.883 69.513,86.883 L68.546,86.883 C67.057,86.883 66.323,87.675 66.323,89.261 L66.323,90.808 L68.179,90.808 L68.179,89.377 C68.179,88.835 68.449,88.565 68.971,88.565 L69.087,88.565 C69.609,88.565 69.88,88.835 69.88,89.377 L69.88,91.949 L69.88,92.258 L69.822,92.47 C69.784,92.548 69.725,92.645 69.648,92.742 C69.551,92.838 69.435,92.973 69.3,93.109 L67.425,94.907 C67.173,95.158 67.018,95.332 66.922,95.467 C66.825,95.603 66.748,95.757 66.709,95.912 C66.67,96.067 66.651,96.26 66.651,96.493 L66.651,100.765 L71.639,100.765 L71.639,99.102 L68.507,99.102 Z M76.068,95.332 L80.321,95.332 L80.321,93.785 L76.068,93.785 L76.068,95.332 Z" id="Fill-33" fill="#414042" mask="url(#mask-2)"></path>
        </g>
    </g>
</svg>