<svg xmlns="http://www.w3.org/2000/svg" xmlns:xlink="http://www.w3.org/1999/xlink" viewBox="0 0 129 97"><defs><path id="a" d="M0 .718h128.83v10.838H0z"/><path id="c" d="M.827.045H3.91v4.073H.827z"/></defs><g fill="none" fill-rule="evenodd"><g transform="translate(0 47.956)"><mask id="b" fill="#fff"><use xlink:href="#a"/></mask><path fill="#414042" d="M7.068 1.147H4.612a.716.716 0 00-.714.714c0 .399.315.714.714.714h1.742v4.798c0 3.24-4.912 3.24-4.912 0a.728.728 0 00-.728-.714.726.726 0 00-.714.714c0 5.126 7.782 5.126 7.782 0V1.86a.716.716 0 00-.714-.714m7.497 10.409c7.125 0 7.125-10.838 0-10.838-7.126 0-7.126 10.838 0 10.838m0-9.41c5.24 0 5.24 7.982 0 7.982s-5.24-7.982 0-7.982M30.63 9.714h-.757V6.83h.671c.4 0 .713-.315.713-.714 0-.4-.313-.714-.713-.714h-.67V2.575h.656a.708.708 0 00.714-.714.716.716 0 00-.714-.714h-2.742c-.4 0-.714.328-.714.714 0 .399.314.714.714.714h.657v2.827h-4.77V2.575h.657c.4 0 .715-.315.715-.714a.717.717 0 00-.715-.714H21.59a.715.715 0 00-.713.714c0 .399.314.714.713.714h.658v2.827h-.658a.707.707 0 00-.713.714c0 .399.314.714.713.714h.658v2.884h-.658a.707.707 0 00-.713.714c0 .386.314.714.713.714h2.742c.4 0 .715-.328.715-.714 0-.4-.315-.714-.715-.714h-.657V6.83h4.77v2.884h-.57a.716.716 0 00-.715.714c0 .386.328.714.714.714h2.756a.725.725 0 00.713-.714c0-.4-.328-.714-.713-.714m12.194-8.567h-2.627c-.4 0-.714.313-.714.714 0 .385.314.714.714.714h.6v5.783l-5.583-6.926c-.158-.2-.358-.285-.615-.285h-1.27a.718.718 0 00-.729.714c0 .385.328.714.73.714h.598v7.139h-.599a.719.719 0 00-.729.714c0 .4.328.714.73.714h2.626c.4 0 .714-.314.714-.714 0-.4-.314-.714-.714-.714h-.6V3.888l5.583 6.926c.443.557 1.285.257 1.285-.457V2.575h.6c.4 0 .715-.33.715-.714a.707.707 0 00-.715-.714m15.337 0h-7.997c-.4 0-.714.313-.714.714v1.514c0 .399.314.713.714.713a.716.716 0 00.714-.713v-.8h2.57v7.139h-.656a.716.716 0 00-.714.714c0 .4.313.714.714.714h2.741c.4 0 .714-.314.714-.714a.716.716 0 00-.714-.714h-.656v-7.14h2.57v.8c0 .4.328.714.714.714a.707.707 0 00.714-.713V1.86a.707.707 0 00-.714-.714m11.295 8.567H68.7V6.83h.671c.4 0 .714-.315.714-.714 0-.4-.314-.714-.714-.714h-.67V2.575h.656c.4 0 .714-.315.714-.714a.716.716 0 00-.714-.714h-2.742c-.4 0-.714.328-.714.714 0 .399.314.714.714.714h.657v2.827h-4.769V2.575h.657a.708.708 0 00.714-.714.716.716 0 00-.714-.714h-2.742c-.4 0-.714.328-.714.714 0 .399.314.714.714.714h.657v2.827h-.657c-.4 0-.714.314-.714.714 0 .399.314.714.714.714h.657v2.884h-.657c-.4 0-.714.314-.714.714 0 .386.314.714.714.714h2.742a.716.716 0 00.714-.714c0-.4-.315-.714-.714-.714h-.657V6.83h4.77v2.884H66.7a.716.716 0 00-.714.714c0 .386.328.714.714.714h2.756a.726.726 0 00.714-.714c0-.4-.329-.714-.714-.714m6.982 1.842c7.126 0 7.126-10.838 0-10.838-7.125 0-7.125 10.838 0 10.838m0-9.41c5.241 0 5.241 7.982 0 7.982-5.24 0-5.24-7.982 0-7.982M93.26 9.714h-.57V2.63h.57a.715.715 0 00.714-.713c0-.4-.328-.714-.714-.714h-1.27c-.257 0-.442.114-.6.314l-2.898 3.869-3.27-3.927a.693.693 0 00-.557-.256h-1.229a.707.707 0 00-.714.714c0 .4.315.713.714.713h.53v7.083h-.53a.707.707 0 00-.714.714c0 .4.315.714.714.714h2.486a.707.707 0 00.713-.714c0-.4-.314-.714-.713-.714h-.529V3.903l2.571 3.084c.285.357.856.343 1.141-.028l2.156-2.9v5.655h-.513a.716.716 0 00-.714.714c0 .4.328.714.714.714h2.512a.716.716 0 00.714-.714c0-.4-.328-.714-.714-.714m9.525-4.297h-4.426c-1.856 0-1.87-2.857 0-2.857h3.584c.686 0 1.413.3 1.413 1.143a.73.73 0 00.73.714.725.725 0 00.712-.714V1.732a.73.73 0 00-.713-.73.73.73 0 00-.67.458c-.415-.213-.915-.328-1.472-.328h-3.584c-3.756 0-3.74 5.726 0 5.726h4.426c1.843 0 1.871 2.856 0 2.856h-4.527c-.742 0-1.499-.385-1.499-1.256 0-.4-.328-.714-.713-.714a.719.719 0 00-.729.714c0 1.556 1.242 2.684 2.941 2.684h4.527c3.756 0 3.727-5.725 0-5.725m9.168 6.139c7.125 0 7.125-10.838 0-10.838s-7.125 10.838 0 10.838m0-9.41c5.24 0 5.24 7.982 0 7.982s-5.24-7.982 0-7.982m16.164-1h-2.627c-.4 0-.714.314-.714.715 0 .385.314.714.714.714h.6v5.783l-5.583-6.926c-.158-.2-.358-.285-.615-.285h-1.27a.718.718 0 00-.729.714c0 .385.328.714.73.714h.598v7.139h-.599a.719.719 0 00-.729.714c0 .4.328.714.73.714h2.626c.4 0 .714-.314.714-.714 0-.4-.314-.714-.714-.714h-.6V3.888l5.583 6.926c.443.557 1.285.257 1.285-.457V2.575h.6c.4 0 .714-.33.714-.714a.706.706 0 00-.714-.714" mask="url(#b)"/></g><path fill="#414042" d="M56.212 95.893h-.505l-1.945-2.65 1.945-2.587h.536a.537.537 0 00.527-.536.529.529 0 00-.527-.527h-1.967a.522.522 0 00-.525.527.53.53 0 00.525.536h.106l-1.273 1.693-1.882-2.545a.504.504 0 00-.421-.21h-.821a.528.528 0 00-.525.526c0 .294.242.536.525.536h.558l1.903 2.576-2.007 2.661h-.496a.523.523 0 00-.525.536c0 .284.232.526.525.526h1.967a.528.528 0 00.527-.526.524.524 0 00-.527-.536h-.147l1.336-1.767 1.925 2.61c.105.136.25.22.42.22h.768a.526.526 0 00.525-.527.522.522 0 00-.525-.536m9.573 0h-.505l-1.945-2.65 1.945-2.587h.536a.537.537 0 00.527-.536.528.528 0 00-.527-.527H63.85a.522.522 0 00-.527.527.53.53 0 00.527.536h.104l-1.272 1.693-1.883-2.545a.504.504 0 00-.42-.21h-.82a.528.528 0 00-.527.526c0 .294.242.536.527.536h.556l1.905 2.576-2.01 2.661h-.493a.524.524 0 00-.527.536c0 .284.232.526.527.526h1.965a.528.528 0 00.527-.526.524.524 0 00-.527-.536h-.146l1.335-1.767 1.925 2.61c.105.136.253.22.42.22h.768a.528.528 0 00.527-.527.524.524 0 00-.527-.536m5.725.011h-.485v-5.27h.485a.526.526 0 00.525-.525.535.535 0 00-.525-.527h-2.03a.535.535 0 00-.526.527c0 .294.242.525.526.525h.484v5.27h-.484a.527.527 0 00-.526.525c0 .284.242.526.526.526h2.03a.534.534 0 00.525-.526.526.526 0 00-.525-.525m5.786 0h-.484v-5.27h.484a.527.527 0 00.525-.525.535.535 0 00-.525-.527h-2.03a.535.535 0 00-.526.527c0 .294.242.525.526.525h.484v5.27h-.484a.527.527 0 00-.526.525c0 .284.242.526.526.526h2.03a.534.534 0 00.525-.526.527.527 0 00-.525-.525M32.638 71.103a1.105 1.105 0 01-.607.157.864.864 0 01-.623-.249c-.173-.165-.257-.38-.257-.655 0-.27.088-.49.264-.659a.92.92 0 01.651-.249c.136 0 .253.014.355.048a.934.934 0 01.3.18l.23-.33c-.245-.217-.547-.322-.918-.322a1.3 1.3 0 00-.94.38c-.26.253-.392.571-.392.952s.127.695.384.944c.252.25.572.373.948.373.451 0 .794-.13 1.036-.398V70.4h-.431v.703zm1.727-2.018v2.56h1.84v-.407h-1.408v-.685h1.227v-.384h-1.227v-.677h1.364v-.407h-1.796zm5.04 1.912l-1.486-1.912h-.431v2.56h.43v-1.867l1.45 1.866h.47v-2.559h-.432v1.912zm2.27-.495v-1.417h-.433v1.436c0 .37.102.651.303.85.201.201.462.3.78.3.32 0 .58-.099.78-.3.202-.199.303-.48.303-.85v-1.436h-.43v1.417c0 .235-.06.421-.177.557a.597.597 0 01-.476.205.598.598 0 01-.476-.205c-.116-.136-.174-.322-.174-.557zm3.14 1.142h.431v-2.559h-.431v2.56zm3.79-.647l-1.487-1.912h-.431v2.56h.43v-1.867l1.452 1.866h.467v-2.559h-.431v1.912zm1.87-1.912v2.56h1.84v-.407h-1.408v-.685h1.226v-.384h-1.227v-.677h1.366v-.407h-1.797zm6.941 1.26c0 .26-.087.48-.26.66a.873.873 0 01-.643.27.859.859 0 01-.642-.27.908.908 0 01-.263-.66c0-.257.089-.476.264-.655a.856.856 0 01.64-.272.87.87 0 01.645.272c.172.18.26.398.26.655zm.444 0a1.26 1.26 0 00-.389-.944 1.317 1.317 0 00-.958-.377c-.381 0-.7.124-.96.377a1.257 1.257 0 00-.389.944c0 .377.128.692.39.945.26.252.578.38.959.38.38 0 .699-.128.959-.38.26-.253.387-.568.387-.945zm3.063-1.06c-.17-.133-.448-.2-.84-.2h-.95v2.56h.431v-.86h.568l.61.86h.55l-.67-.93c.37-.11.553-.378.553-.799 0-.289-.084-.5-.252-.632zm-.82 1.108h-.538v-.916h.549c.23 0 .39.03.483.092.091.062.136.18.136.344 0 .17-.044.29-.133.366-.087.077-.253.114-.498.114zm2.422 1.251h.433v-2.559h-.432v2.56zm3.643-.54a1.103 1.103 0 01-.607.156.864.864 0 01-.879-.904c0-.27.088-.49.264-.659a.916.916 0 01.651-.249c.137 0 .254.014.356.048a.924.924 0 01.3.18l.231-.33c-.245-.217-.55-.322-.918-.322-.37 0-.681.128-.942.38a1.279 1.279 0 00-.391.952c0 .381.127.695.383.944.254.25.573.373.95.373.45 0 .793-.13 1.035-.398V70.4h-.433v.703zm1.728.54h.433v-2.559h-.432v2.56zm3.79-.647L70.2 69.085h-.431v2.56h.431v-1.867l1.45 1.866h.468v-2.559h-.431v1.912zm3.514.065l.255.582h.462l-1.127-2.559h-.462l-1.127 2.56h.46l.257-.583H75.2zm-1.106-.398l.466-1.055.465 1.055h-.93zm4.507.98v-.409h-1.168v-2.15H77v2.56h1.6zm4.704-.54a1.1 1.1 0 01-.607.156.864.864 0 01-.622-.249c-.171-.165-.255-.38-.255-.655 0-.27.087-.49.261-.659a.921.921 0 01.654-.249c.133 0 .251.014.353.048a.949.949 0 01.302.18l.23-.33c-.245-.217-.55-.322-.92-.322s-.68.128-.94.38a1.273 1.273 0 00-.392.952c0 .381.129.695.385.944.252.25.572.373.947.373.452 0 .795-.13 1.038-.398V70.4h-.434v.703zm3.814-.759c0 .26-.087.48-.258.66a.874.874 0 01-.645.27.855.855 0 01-.64-.27.904.904 0 01-.264-.66.9.9 0 01.264-.655.852.852 0 01.64-.272c.253 0 .469.092.645.272a.912.912 0 01.258.655zm.444 0a1.26 1.26 0 00-.389-.944 1.317 1.317 0 00-.959-.377c-.38 0-.699.124-.959.377a1.26 1.26 0 00-.388.944c0 .377.129.692.389.945.26.252.578.38.959.38.38 0 .699-.128.959-.38.26-.253.388-.568.388-.945zm3.36 0c0 .26-.088.48-.261.66a.87.87 0 01-.644.27.859.859 0 01-.64-.27.904.904 0 01-.263-.66.9.9 0 01.263-.655.856.856 0 01.64-.272c.252 0 .469.092.644.272a.91.91 0 01.26.655zm.442 0a1.26 1.26 0 00-.387-.944 1.317 1.317 0 00-.96-.377c-.38 0-.698.124-.959.377a1.257 1.257 0 00-.388.944c0 .377.127.692.388.945.26.252.579.38.96.38.38 0 .698-.128.959-.38.26-.253.388-.568.388-.945zm2.151-1.26h-.878v2.56h.85c.493 0 .86-.117 1.097-.349.239-.23.36-.545.36-.944 0-.398-.124-.71-.37-.934-.246-.222-.6-.333-1.059-.333zm.747 1.93c-.165.15-.401.223-.714.223h-.479v-1.753h.431c.67 0 1.007.293 1.007.88 0 .288-.08.504-.245.65zm3.122-1.526a.873.873 0 01.308.168l.23-.326a1.274 1.274 0 00-.418-.227 1.478 1.478 0 00-.486-.08c-.253 0-.465.061-.637.19a.648.648 0 00-.26.55c0 .236.078.412.228.527a.913.913 0 00.26.145c.097.041.242.081.427.125.188.048.323.095.4.15a.266.266 0 01.112.231c0 .1-.04.18-.12.237a.539.539 0 01-.332.092c-.278 0-.546-.113-.806-.337l-.27.326c.31.275.665.413 1.064.413.276 0 .494-.069.663-.208A.677.677 0 0098 70.92c0-.222-.066-.39-.198-.504-.136-.114-.333-.206-.593-.268-.263-.062-.434-.124-.516-.179a.268.268 0 01-.12-.238c0-.103.04-.18.12-.23a.57.57 0 01.311-.078c.124 0 .253.023.381.067zM29.594 79.845c-.227-.226-.343-.533-.343-.909 0-.377.122-.673.365-.899.239-.22.528-.33.87-.33.423 0 .783.18 1.067.533l.562-.637c-.447-.505-1.002-.76-1.67-.76-.596 0-1.095.203-1.506.603-.411.4-.62.904-.62 1.501 0 .603.203 1.101.608 1.496.4.393.916.59 1.542.59.62 0 1.165-.26 1.623-.776l-.58-.597a1.33 1.33 0 01-1.09.528 1.13 1.13 0 01-.828-.343zm8.792 1.143l-1.75-4.052h-.875l-1.751 4.052h.963l.376-.876h1.698l.377.876h.962zm-1.681-1.67h-1.013l.509-1.176.504 1.176zm6.515 1.67v-.806h-1.727v-3.246h-.904v4.052h2.63zm2.395 0h.904v-4.052h-.904v4.052zm3.634-4.052v4.052h.905V79.4h1.785v-.794h-1.785v-.875h1.877v-.794h-2.782zm8.033 2.921a1.105 1.105 0 01-.851.383c-.342 0-.626-.128-.858-.383a1.3 1.3 0 01-.348-.92c0-.36.116-.668.348-.923.232-.255.516-.383.858-.383.336 0 .62.128.85.383.234.255.35.562.35.922 0 .365-.116.672-.35.921zm1.27-.92c0-.599-.203-1.097-.614-1.497-.411-.4-.916-.597-1.513-.597-.597 0-1.102.197-1.513.597-.411.4-.614.898-.614 1.496 0 .597.203 1.09.614 1.49.41.398.916.602 1.513.602.597 0 1.102-.204 1.513-.603.41-.4.614-.892.614-1.489zm5.385-1.683c-.273-.214-.72-.318-1.351-.318H61.05v4.052h.904v-1.293h.626l.899 1.293h1.113l-1.026-1.45c.515-.19.77-.608.77-1.257 0-.47-.133-.812-.4-1.027zm-1.322 1.658h-.661v-1.2h.679c.289 0 .492.041.608.122.117.081.174.232.174.447 0 .22-.057.382-.168.481-.11.098-.325.15-.632.15zm7.216.632l-1.987-2.608h-.847v4.052h.905V78.45l1.929 2.54h.905v-4.053h-.905v2.608zm3.635 1.444h.904v-4.052h-.904v4.052zm7.483 0l-1.751-4.052h-.875l-1.75 4.052h.962l.377-.876h1.699l.376.876h.962zm-1.68-1.67h-1.015l.51-1.176.505 1.176zm8.184.527c-.226-.226-.341-.533-.341-.909 0-.377.12-.673.365-.899.237-.22.527-.33.869-.33.423 0 .782.18 1.066.533l.563-.637c-.446-.505-1.003-.76-1.67-.76-.597 0-1.095.203-1.507.603-.411.4-.62.904-.62 1.501 0 .603.203 1.101.608 1.496.4.393.916.59 1.542.59.62 0 1.165-.26 1.623-.776l-.58-.597a1.325 1.325 0 01-1.09.528 1.13 1.13 0 01-.828-.343zm8.793 1.143l-1.751-4.052h-.875l-1.75 4.052h.962l.377-.876h1.698l.376.876h.963zm-1.681-1.67H93.55l.51-1.176.504 1.176zm4.219 1.715a.497.497 0 00.366-.15.484.484 0 00.145-.359.497.497 0 00-.511-.51.5.5 0 00-.509.51c0 .144.052.26.15.36.099.098.215.15.359.15zM13.023 13.44l.314.551c-.685.39-1.368.792-2.046 1.2.181.303.364.603.545.906.604-.363 1.21-.72 1.817-1.07l.301.52c-.606.348-1.209.703-1.808 1.064l.552.915c.68-.41 1.366-.813 2.054-1.206.106.183.21.367.315.551a95.874 95.874 0 00-2.664 1.575c-.695-1.134-1.392-2.269-2.086-3.404.895-.549 1.798-1.083 2.706-1.602M17.603 11.565a1.04 1.04 0 00-.42.35.386.386 0 00-.017.418.41.41 0 00.352.234c.162.013.466-.039.91-.153.445-.115.81-.137 1.09-.078.281.063.497.25.65.564.152.311.15.63-.006.948-.157.32-.438.58-.842.784a2.775 2.775 0 01-1.88.248l.165-.66c.551.106 1.03.055 1.445-.155.21-.106.354-.23.434-.375a.431.431 0 00.02-.425.402.402 0 00-.336-.234c-.155-.02-.389.013-.706.093a6.86 6.86 0 01-.735.158 1.709 1.709 0 01-.5 0c-.31-.039-.554-.222-.726-.548a.963.963 0 01-.002-.963c.172-.314.455-.574.847-.774.253-.129.524-.217.811-.268.288-.05.555-.05.804-.002-.045.21-.087.421-.13.631a1.524 1.524 0 00-.593.001c-.23.038-.442.107-.635.206M23.81 8.763l1.325 3.105c-.218.093-.437.188-.655.283l-1.349-3.095c-.406.178-.81.357-1.217.54l-.253-.562a97.296 97.296 0 013.14-1.354c.077.188.155.38.235.57-.41.168-.82.34-1.227.513M30.743 8.05c-.427-.433-.855-.862-1.289-1.288-.062.605-.121 1.21-.174 1.813.486-.178.974-.354 1.463-.525m-1.522 1.211c-.028.333-.055.666-.081 1-.236.088-.473.18-.71.27.1-1.465.226-2.933.376-4.404.249-.09.496-.18.744-.266a124.105 124.105 0 013.088 3.16c-.24.08-.479.16-.718.242-.231-.24-.463-.482-.696-.72-.67.232-1.337.471-2.003.718M35.986 7.323c.358-.105.717-.208 1.074-.31.252-.068.435-.158.548-.271.113-.111.142-.273.084-.481-.092-.343-.43-.436-1.015-.272-.333.094-.664.188-.996.286.103.348.204.698.305 1.048m-.479-1.647c.293-.085.59-.17.885-.253.503-.143.712-.37.625-.69-.05-.183-.149-.298-.294-.347-.144-.045-.347-.033-.606.04-.3.084-.6.17-.9.258.095.33.193.662.29.992m1.738 1.933c-.588.165-1.177.335-1.762.512l-1.147-3.825a97.142 97.142 0 011.63-.475 2.56 2.56 0 01.762-.11c.223.006.398.049.528.13a.978.978 0 01.467.595c.08.302.036.555-.13.755l-.128.14-.13.1c.271-.015.504.038.697.162a.888.888 0 01.388.549c.07.27.036.533-.103.79-.166.3-.52.523-1.072.677M41.886 6.433l-.889-3.894c.24-.052.477-.107.717-.159l.721 3.275c.625-.137 1.25-.269 1.877-.394l.125.627c-.852.171-1.703.352-2.551.545M46.884 1.382c.24-.04.48-.08.722-.118l.629 3.943-.696.114-.655-3.938M52.608 1.124a.992.992 0 00-.503.176.39.39 0 00-.158.385c.018.16.1.275.241.344.144.07.44.129.883.182.445.052.786.159 1.022.316.237.157.37.409.403.757.031.347-.08.64-.332.882-.25.244-.599.387-1.039.435a2.663 2.663 0 01-1.8-.441c.126-.185.251-.372.378-.557.466.295.92.419 1.372.37.226-.024.401-.088.523-.194a.435.435 0 00.164-.39.409.409 0 00-.225-.34c-.136-.071-.36-.126-.676-.162a6.428 6.428 0 01-.728-.117 1.627 1.627 0 01-.454-.177c-.27-.148-.43-.405-.476-.772-.045-.364.062-.665.328-.9.265-.232.61-.373 1.037-.42.276-.03.555-.017.832.039.281.056.526.15.737.285l-.338.542a1.475 1.475 0 00-.54-.21 2.084 2.084 0 00-.65-.033M57.837 4.16c-.08-1.328-.16-2.657-.238-3.985.244-.016.486-.028.728-.041l.092 1.727c.7-.036 1.405-.065 2.107-.087l-.053-1.73c.242-.01.486-.014.728-.02.032 1.33.066 2.66.097 3.99l-.701.02-.051-1.632a97.8 97.8 0 00-2.095.089l.086 1.629-.7.04"/><g transform="translate(64 -.044)"><mask id="d" fill="#fff"><use xlink:href="#c"/></mask><path fill="#414042" d="M3.91.125L3.883.76A109.39 109.39 0 001.591.69l-.019 1.057c.679.014 1.357.034 2.035.06l-.022.6a91.414 91.414 0 00-2.025-.059l-.02 1.066c.766.016 1.534.038 2.301.071l-.027.634a96.046 96.046 0 00-2.987-.08C.843 2.706.859 1.376.873.044c1.013.013 2.025.04 3.037.081" mask="url(#d)"/></g><path fill="#414042" d="M74.324 2.554c.099-.907-.414-1.426-1.539-1.529-.24-.022-.482-.042-.723-.063l-.226 2.727.782.068c.503.046.9-.03 1.193-.23.293-.202.464-.526.513-.973m.266-1.45c.376.391.525.895.455 1.512-.072.618-.325 1.082-.751 1.4-.428.317-1.037.435-1.835.364-.457-.04-.916-.079-1.374-.114l.301-3.982c.494.038.987.08 1.481.124.772.07 1.348.304 1.723.695M82.78 1.795l.72.14-.776 3.917a76.47 76.47 0 00-.69-.135l.746-3.922M90.271 3.515c.236.063.474.128.71.193-.356 1.283-.713 2.566-1.068 3.85-.246-.069-.493-.138-.74-.204a95.931 95.931 0 00-1.606-3.418l-.689 2.831c-.229-.057-.458-.11-.686-.165.306-1.295.61-2.592.917-3.886.238.055.475.112.714.171a103.545 103.545 0 011.672 3.506l.776-2.878M98.13 5.978c.499.18.998.362 1.496.55-.47 1.245-.936 2.491-1.405 3.737l-.633-.236c.39-1.062.78-2.122 1.172-3.184l-.833-.302.203-.565M103.292 9.587a.895.895 0 00.437.378.888.888 0 00.573.06.516.516 0 00.386-.296c.069-.155.055-.316-.042-.485a.92.92 0 00-.44-.38.917.917 0 00-.58-.062.507.507 0 00-.334.785m-.768 1.647c.127.177.289.307.482.392.194.085.397.11.615.085a.53.53 0 00.454-.326.545.545 0 00-.052-.555 1.116 1.116 0 00-.496-.404 1.118 1.118 0 00-.634-.087.537.537 0 00-.44.34.533.533 0 00.07.555m.8-2.99c.337-.076.702-.031 1.092.139.39.169.674.406.848.704.175.299.197.589.07.868-.126.28-.38.463-.76.552.282.392.329.79.147 1.192-.142.314-.394.514-.756.607-.361.093-.758.042-1.19-.146-.433-.188-.74-.443-.918-.77-.178-.328-.203-.65-.072-.966.169-.408.492-.646.97-.708-.191-.337-.231-.648-.113-.932.118-.282.344-.463.682-.54M108.259 11.517l.509-1.03c.932.458 1.859.933 2.78 1.423l-.28.531a111.045 111.045 0 00-3.196 2.163c-.235-.12-.471-.239-.708-.357a121.611 121.611 0 013.132-2.2c-.464-.24-.928-.477-1.395-.712l-.24.48-.602-.298M114.545 15.82c.219.129.433.183.645.159a.59.59 0 00.474-.294.675.675 0 00.058-.579.895.895 0 00-.421-.505.932.932 0 00-.63-.14.62.62 0 00-.462.316.703.703 0 00-.072.559c.054.194.19.356.408.484m-.868 1.211c.33.195.635.237.914.125.279-.111.527-.341.74-.687a1.623 1.623 0 01-.541.025 1.526 1.526 0 01-.63-.212c-.337-.198-.56-.464-.671-.805-.111-.338-.071-.678.125-1.02.195-.342.477-.545.849-.609.372-.062.75.019 1.135.243.618.366.895.87.83 1.499-.04.358-.168.714-.384 1.063-.213.352-.435.619-.66.803a1.642 1.642 0 01-.672.352 1.655 1.655 0 01-1.255-.203 2.171 2.171 0 01-.891-.987l.564-.247c.045.113.12.236.227.366.107.135.213.232.32.294M64.708 14.374c-6.458 0-11.71 5.254-11.71 11.709 0 6.458 5.252 11.712 11.71 11.712 6.459 0 11.71-5.254 11.71-11.712 0-6.455-5.251-11.71-11.71-11.71"/><path fill="#414042" d="M64.708 38.19c-6.675 0-12.104-5.432-12.104-12.107 0-6.674 5.429-12.105 12.104-12.105 6.676 0 12.107 5.431 12.107 12.105 0 6.675-5.431 12.106-12.107 12.106m0-25.136c-7.193 0-13.03 5.835-13.03 13.031 0 7.196 5.837 13.031 13.03 13.031 7.196 0 13.03-5.835 13.03-13.03 0-7.197-5.834-13.032-13.03-13.032"/><path fill="#FEFEFE" d="M70.96 20.238h-9.728a.86.86 0 00-.87.869v1.84c0 .487.384.87.87.87a.872.872 0 00.869-.87v-.972h3.127v8.687h-.8a.87.87 0 00-.867.869c0 .486.38.868.868.868h3.336a.86.86 0 00.868-.868.87.87 0 00-.868-.87h-.8v-8.686h3.128v.973c0 .486.399.869.868.869a.861.861 0 00.869-.87v-1.84a.86.86 0 00-.87-.87"/><path fill="#FEFEFE" d="M66.083 20.238h-2.988a.87.87 0 00-.87.869.86.86 0 00.87.868h2.119v5.838c0 3.944-5.977 3.944-5.977 0a.885.885 0 00-.885-.87.884.884 0 00-.87.87c0 6.237 9.469 6.237 9.469 0v-6.706a.87.87 0 00-.868-.87"/><path fill="#414042" d="M46.793 92.958a.954.954 0 01-1.908 0 .953.953 0 111.908 0M84.532 92.958a.953.953 0 11-1.906 0 .953.953 0 011.906 0"/></g></svg>