<?xml version="1.0" encoding="UTF-8"?>
<svg width="125px" height="113px" viewBox="0 0 125 113" version="1.1" xmlns="http://www.w3.org/2000/svg" xmlns:xlink="http://www.w3.org/1999/xlink">
    <!-- Generator: Sketch 49 (51002) - http://www.bohemiancoding.com/sketch -->
    <title>vintage-logo-12</title>
    <desc>Created with Sketch.</desc>
    <defs>
        <polygon id="path-1" points="0 113 124.588 113 124.588 0.627 0 0.627"></polygon>
    </defs>
    <g id="Page-1" stroke="none" stroke-width="1" fill="none" fill-rule="evenodd">
        <g id="vintage-logo-12" transform="translate(0.000000, -1.000000)">
            <polygon id="Fill-1" fill="#414042" points="62.121 52.2682 45.26 69.1272 62.121 85.9882 78.978 69.1272"></polygon>
            <path d="M44.3309,69.1276 L62.1209,51.3396 L79.9069,69.1276 L62.1209,86.9166 L44.3309,69.1276 Z M62.1189,49.9296 L42.9189,69.1276 L62.1189,88.3276 L81.3179,69.1276 L62.1189,49.9296 Z" id="Fill-2" fill="#414042"></path>
            <g id="Group-35" transform="translate(0.000000, 0.373000)">
                <path d="M10.3036,23.1481 C15.7196,23.1481 21.1356,19.4631 21.1356,14.3591 C21.1356,11.2071 19.0046,8.7211 15.3646,8.7211 C6.9296,8.7211 1.1146,19.1981 1.1146,29.0081 C1.1146,38.5521 4.4886,42.0151 9.3266,42.0151 C12.4346,42.0151 15.0986,39.7951 16.4296,36.9991 C16.5636,40.5941 16.4746,41.7491 18.0286,41.7491 C19.0046,41.7491 20.2916,41.2601 20.2916,40.6831 C20.2916,40.5941 20.2476,40.5051 20.1586,40.3731 C19.9816,38.9521 19.7596,36.4661 19.7596,30.6511 C19.7596,27.1881 20.1156,24.5691 20.3366,23.4151 C20.5146,22.5711 19.6706,22.2601 18.9606,22.2601 C18.1166,22.2601 17.2296,22.5711 17.1406,23.1481 C16.2526,30.1181 14.9206,38.5521 9.7266,38.5521 C5.9086,38.5521 4.6656,34.4681 4.6656,28.9191 C4.6656,21.9501 8.2616,12.0941 15.1426,12.0941 C16.8296,12.0941 17.6286,13.3371 17.6286,14.5371 C17.6286,17.8661 13.7226,19.9521 10.5266,19.9521 C9.2386,19.9521 9.1496,19.5081 8.8386,19.5081 C8.5286,19.5081 8.3506,20.3071 8.3506,20.9291 C8.3506,22.3941 9.2386,23.1481 10.3036,23.1481 Z M35.4316,41.4831 C39.2496,41.4831 40.9816,37.4871 41.7806,34.5571 C41.8246,34.3791 41.8246,34.2911 41.8246,34.2471 C41.8246,33.4031 40.9816,32.4261 40.2706,32.4261 C39.8266,32.4261 39.3826,32.8261 39.2046,33.7581 C38.8056,35.7111 38.0066,38.5521 36.2316,38.5521 C35.0766,38.5521 35.0766,36.9101 35.0766,36.5101 L35.0766,25.2351 C35.0766,24.1691 34.1446,23.2821 32.6796,23.2821 C32.0586,23.2821 31.2586,23.4601 31.2586,23.7701 C31.2586,24.0811 31.7026,24.1691 31.7026,25.4571 L31.7026,32.6041 C31.1706,35.7111 29.8386,38.5971 28.0626,38.5971 C26.7756,38.5971 26.0206,37.3101 26.0206,34.9131 C26.0206,31.1831 26.5086,29.2301 27.3086,25.9451 C27.4856,25.2791 28.7736,23.5031 26.5976,23.5031 C24.2446,23.5031 24.5556,24.3911 24.2446,25.1461 C24.2446,25.1461 22.6476,30.4291 22.6476,35.1341 C22.6476,38.9971 24.3776,41.5271 27.3526,41.5271 C29.3056,41.5271 30.7266,40.1951 31.7916,38.3311 C32.1026,40.1061 33.4346,41.4831 35.4316,41.4831 Z M35.3886,19.3751 C34.1016,19.3751 34.9006,22.3491 36.3216,22.3491 C36.3216,22.3491 37.4306,22.4381 39.3846,22.4381 L39.3846,36.5551 C39.3846,40.0621 41.0716,41.4831 43.4686,41.4831 C47.2856,41.4831 49.0616,37.4871 49.8166,34.5571 C49.8616,34.3791 49.8616,34.2911 49.8616,34.2471 C49.8616,33.4031 49.0176,32.4261 48.3076,32.4261 C47.8636,32.4261 47.4186,32.8261 47.2416,33.7581 C46.8416,35.7111 46.0426,38.5521 44.2676,38.5521 C43.3346,38.5521 42.7576,37.9311 42.7576,36.5101 L42.7576,22.4381 C45.1116,22.4381 47.7306,22.4381 51.2816,22.3491 C52.4356,22.3051 52.8346,18.0441 51.5916,19.3751 C48.5736,19.5081 45.4656,19.5521 42.7576,19.5521 L42.7576,11.7841 C42.7576,10.7181 41.8256,9.8311 40.3616,9.8311 C39.7396,9.8311 38.9406,10.0081 38.9406,10.3191 C38.9406,10.6291 39.3846,10.7181 39.3846,12.0051 L39.3846,19.5081 C36.9876,19.4631 35.3886,19.3751 35.3886,19.3751 Z M47.4196,39.5291 C47.4196,41.1711 48.6626,41.4831 49.5506,41.4831 C50.8376,41.4831 50.7936,40.4181 50.7936,39.5741 L50.7936,33.0921 C51.1046,29.5851 53.8576,25.7671 55.1446,25.7671 C55.9876,25.7671 56.0756,26.9211 56.0756,28.2981 L56.0756,37.3101 C56.0756,39.5741 57.4526,41.4831 59.8056,41.4831 C63.6226,41.4831 65.3546,37.4871 66.1536,34.5571 C66.5086,33.1361 64.1116,31.0501 63.5786,33.7581 C63.1796,35.7111 62.3796,38.5521 60.6046,38.5521 C59.4496,38.5521 59.4496,36.9101 59.4496,36.5101 L59.4496,27.3211 C59.4496,25.2791 58.7406,22.8371 55.7656,22.8371 C53.5906,22.8371 51.9916,24.7471 50.7936,27.2331 L50.7936,12.6711 C50.7936,11.6061 49.8616,10.7181 48.3966,10.7181 C47.7756,10.7181 46.9766,10.8961 46.9766,11.2071 C46.9766,11.5171 47.4196,11.6061 47.4196,12.8941 L47.4196,39.5291 Z M73.9676,27.3211 C73.9676,24.6581 72.4586,22.8371 69.9726,22.8371 C66.5546,22.8371 63.1806,27.0551 63.1806,32.6931 C63.1806,38.2421 66.9976,41.4831 71.0376,41.4831 C77.5636,41.4831 79.3396,36.1111 79.6506,33.4031 C79.8276,31.8491 77.3416,30.9611 76.9426,32.9601 C76.4086,35.6681 74.9896,38.5521 71.5266,38.5521 C69.2176,38.5521 68.0196,37.3101 67.3976,35.8001 C71.7036,34.5131 73.9676,30.6061 73.9676,27.3211 Z M66.8206,32.5591 C66.7326,30.6951 67.3976,25.8121 69.5736,25.8121 C70.1506,25.8121 70.5046,26.3891 70.5046,27.3661 C70.5046,30.0291 69.0846,32.3371 66.8656,33.3591 C66.8656,33.0921 66.8206,32.8261 66.8206,32.5591 Z M76.9436,39.5291 C76.9436,41.1711 78.1866,41.4831 79.0746,41.4831 C80.3616,41.4831 80.3176,40.4181 80.3176,39.5741 L80.3176,33.0921 C80.6276,29.5851 83.3796,25.7671 84.6676,25.7671 C85.5106,25.7671 85.5996,26.9211 85.5996,28.2981 L85.5996,37.3101 C85.5996,39.5741 86.9756,41.4831 89.3286,41.4831 C93.1466,41.4831 94.9216,37.4871 95.6766,34.5571 C95.7216,34.3791 95.7216,34.2911 95.7216,34.2471 C95.7216,33.4031 94.8776,32.4261 94.1676,32.4261 C93.7236,32.4261 93.2796,32.8261 93.1026,33.7581 C92.7016,35.7111 91.9036,38.5521 90.1276,38.5521 C88.9736,38.5521 88.9736,36.9101 88.9736,36.5101 L88.9736,27.3211 C88.9736,25.2791 88.2636,22.8371 85.2886,22.8371 C83.1146,22.8371 81.5156,24.7471 80.3176,27.2331 L80.3176,25.2351 C80.3176,24.1691 79.3846,23.2821 77.9196,23.2821 C77.2986,23.2821 76.7656,23.5921 76.7656,24.0371 C76.7656,24.3471 76.9436,24.6141 76.9436,25.4571 L76.9436,39.5291 Z M88.9746,19.3751 C87.6876,19.3751 88.4866,22.3491 89.9076,22.3491 C89.9076,22.3491 91.0166,22.4381 92.9696,22.4381 L92.9696,36.5551 C92.9696,40.0621 94.6576,41.4831 97.0536,41.4831 C100.8716,41.4831 102.6476,37.4871 103.4026,34.5571 C103.4466,34.3791 103.4466,34.2911 103.4466,34.2471 C103.4466,33.4031 102.6036,32.4261 101.8926,32.4261 C101.4496,32.4261 101.0046,32.8261 100.8266,33.7581 C100.4276,35.7111 99.6286,38.5521 97.8536,38.5521 C96.9206,38.5521 96.3436,37.9311 96.3436,36.5101 L96.3436,22.4381 C98.6966,22.4381 101.3156,22.4381 104.8666,22.3491 C106.0216,22.3051 106.4206,18.0441 105.1776,19.3751 C102.1586,19.5081 99.0516,19.5521 96.3436,19.5521 L96.3436,11.7841 C96.3436,10.7181 95.4106,9.8311 93.9466,9.8311 C93.3246,9.8311 92.5266,10.0081 92.5266,10.3191 C92.5266,10.6291 92.9696,10.7181 92.9696,12.0051 L92.9696,19.5081 C90.5726,19.4631 88.9746,19.3751 88.9746,19.3751 Z M103.3586,18.8861 C104.9116,18.8861 106.0666,17.6441 106.0666,16.1791 C106.0666,14.6251 104.9116,13.4711 103.3586,13.4711 C101.8936,13.4711 100.6956,14.6251 100.6956,16.1791 C100.6956,17.6441 101.8936,18.8861 103.3586,18.8861 Z M104.3796,25.2351 C104.3796,24.1691 103.4476,23.2821 101.9826,23.2821 C101.3606,23.2821 100.8276,23.5921 100.8276,24.0371 C100.8276,24.3471 101.0056,24.6141 101.0056,25.4571 L101.0056,37.3101 C101.0056,39.5741 102.3816,41.4831 104.7346,41.4831 C108.5526,41.4831 110.2826,37.4871 111.0826,34.5571 C111.4376,33.1361 109.0406,31.0501 108.5076,33.7581 C108.1086,35.7111 107.3096,38.5521 105.5326,38.5521 C104.3796,38.5521 104.3796,36.9101 104.3796,36.5101 L104.3796,25.2351 Z M115.7886,41.4831 C122.3146,41.4831 124.2686,36.1111 124.5786,33.4031 C124.7566,31.8491 122.2706,30.9611 121.8706,32.9601 C121.3376,35.6681 119.7406,38.5521 116.2776,38.5521 C113.6576,38.5521 111.7486,36.5991 111.7486,33.0921 C111.7486,29.0971 113.3026,25.8121 114.9456,25.8121 C116.4546,25.8121 116.5436,27.4551 116.7656,28.2101 C116.4986,29.7631 119.5626,28.8751 119.5626,27.1881 C119.5626,25.6341 118.4076,22.8371 115.3456,22.8371 C111.1276,22.8371 108.1096,27.9871 108.1096,33.0921 C108.1096,38.5521 111.8376,41.4831 115.7886,41.4831 Z" id="Fill-3" fill="#414042"></path>
                <path d="M58.1083,62.945 C58.7913,62.945 59.2933,63.608 59.2933,64.252 C59.2933,64.372 59.4333,64.412 59.6153,64.412 C60.0563,64.412 60.7403,64.091 60.7403,63.769 C60.7403,62.945 59.5943,61.479 58.1083,61.479 C54.6123,61.479 54.6123,67.184 54.6123,69.052 C54.6123,70.841 54.7333,76.104 58.0683,76.104 C58.5893,76.104 61.2213,75.823 61.2213,70.58 C61.2213,68.149 60.3373,65.758 58.1883,65.758 C57.6663,65.758 57.0033,65.879 56.2593,66.702 C56.5013,63.91 57.2243,62.945 58.1083,62.945 Z M58.0683,67.205 C59.1723,67.205 59.6953,68.792 59.6953,70.58 C59.6953,73.734 58.7513,74.637 58.0683,74.637 C57.2243,74.637 56.2993,73.633 56.1993,69.877 C56.4213,68.068 57.1243,67.205 58.0683,67.205 Z M65.2213,74.236 C66.6693,72.488 69.0183,69.113 69.0183,65.658 C69.0183,63.629 68.0143,61.479 65.7243,61.479 C64.0163,61.479 62.2283,62.764 62.2283,65.597 C62.2283,67.064 62.9123,68.912 63.9163,68.912 C64.4383,68.912 64.8603,68.37 64.9003,68.028 C64.9203,67.908 64.8803,67.847 64.8393,67.847 C64.7803,67.847 64.7403,67.948 64.6393,67.948 C64.3373,67.948 63.7753,66.924 63.7753,65.597 C63.7753,63.669 64.7593,62.966 65.6843,62.966 C66.2873,62.966 67.4523,63.448 67.4523,65.597 C67.4523,69.997 63.0923,74.377 63.0523,74.417 C62.8913,74.557 62.8113,74.778 62.8113,75 C62.8113,75.441 63.1723,75.743 63.5543,75.743 L68.0753,75.743 C68.6173,75.743 68.8583,75.16 68.8583,74.537 C68.8583,74.276 68.8183,73.955 68.6373,73.955 C68.4573,73.955 68.4573,74.236 68.1343,74.236 L65.2213,74.236 Z" id="Fill-5" fill="#FEFEFE"></path>
                <path d="M2.3583,59.6169 L2.3583,65.1309 L6.3253,65.1309 L6.3253,64.2559 L3.2893,64.2559 L3.2893,62.7799 L5.9303,62.7799 L5.9303,61.9519 L3.2893,61.9519 L3.2893,60.4929 L6.2303,60.4929 L6.2303,59.6169 L2.3583,59.6169 Z M11.5863,60.4849 C11.8613,60.5799 12.0833,60.6979 12.2483,60.8469 L12.7453,60.1449 C12.4933,59.9319 12.1933,59.7749 11.8453,59.6569 C11.4993,59.5379 11.1513,59.4829 10.7963,59.4829 C10.2533,59.4829 9.7953,59.6169 9.4243,59.8929 C9.0533,60.1699 8.8643,60.5629 8.8643,61.0759 C8.8643,61.5889 9.0303,61.9679 9.3533,62.2129 C9.5183,62.3459 9.7003,62.4489 9.9133,62.5279 C10.1263,62.6139 10.4333,62.7009 10.8363,62.7959 C11.2383,62.8979 11.5303,63.0009 11.6963,63.1189 C11.8613,63.2379 11.9403,63.4029 11.9403,63.6159 C11.9403,63.8289 11.8533,64.0029 11.6803,64.1289 C11.4993,64.2629 11.2613,64.3259 10.9623,64.3259 C10.3633,64.3259 9.7873,64.0819 9.2273,63.5999 L8.6433,64.3029 C9.3133,64.8939 10.0793,65.1939 10.9383,65.1939 C11.5303,65.1939 12.0043,65.0439 12.3663,64.7439 C12.7293,64.4439 12.9113,64.0509 12.9113,63.5689 C12.9113,63.0879 12.7683,62.7249 12.4843,62.4799 C12.1933,62.2359 11.7663,62.0389 11.2073,61.9049 C10.6383,61.7699 10.2683,61.6369 10.0943,61.5179 C9.9203,61.3999 9.8353,61.2339 9.8353,61.0059 C9.8353,60.7849 9.9203,60.6189 10.0943,60.5089 C10.2683,60.3979 10.4893,60.3429 10.7653,60.3429 C11.0333,60.3429 11.3093,60.3899 11.5863,60.4849 Z M19.3933,60.4699 L19.3933,59.6169 L15.1183,59.6169 L15.1183,60.4699 L16.7903,60.4699 L16.7903,65.1309 L17.7213,65.1309 L17.7213,60.4699 L19.3933,60.4699 Z M23.8733,59.6169 L21.9793,59.6169 L21.9793,65.1309 L23.8093,65.1309 C24.8743,65.1309 25.6633,64.8789 26.1753,64.3819 C26.6883,63.8849 26.9493,63.2059 26.9493,62.3459 C26.9493,61.4859 26.6803,60.8159 26.1523,60.3349 C25.6243,59.8539 24.8583,59.6169 23.8733,59.6169 Z M25.4813,63.7739 C25.1273,64.0969 24.6143,64.2559 23.9433,64.2559 L22.9103,64.2559 L22.9103,60.4769 L23.8403,60.4769 C25.2843,60.4769 26.0093,61.1079 26.0093,62.3699 C26.0093,62.9929 25.8373,63.4589 25.4813,63.7739 Z M99.0853,60.4449 L100.2053,60.4449 L100.2053,65.1309 L101.0883,65.1309 L101.0883,59.6169 L99.0853,59.6169 L99.0853,60.4449 Z M104.0933,60.9729 C104.0933,61.3999 104.2913,61.7779 104.6843,62.1009 C104.1563,62.4409 103.8883,62.9139 103.8883,63.5209 C103.8883,63.9949 104.0773,64.3889 104.4563,64.7129 C104.8353,65.0359 105.3323,65.1939 105.9473,65.1939 C106.5623,65.1939 107.0593,65.0359 107.4373,64.7129 C107.8163,64.3889 108.0053,63.9949 108.0053,63.5209 C108.0053,62.9139 107.7373,62.4409 107.2093,62.1009 C107.6033,61.7779 107.8003,61.3999 107.8003,60.9729 C107.8003,60.5549 107.6273,60.2009 107.2723,59.9249 C106.9173,59.6489 106.4753,59.5069 105.9473,59.5069 C105.4193,59.5069 104.9763,59.6489 104.6223,59.9249 C104.2663,60.2009 104.0933,60.5549 104.0933,60.9729 Z M104.8113,63.4899 C104.8113,63.1979 104.9293,62.9769 105.1583,62.8199 C105.3863,62.6619 105.6553,62.5829 105.9473,62.5829 C106.2393,62.5829 106.5063,62.6619 106.7353,62.8199 C106.9643,62.9769 107.0833,63.1979 107.0833,63.4899 C107.0833,63.7819 106.9643,64.0029 106.7193,64.1529 C106.4753,64.3099 106.2223,64.3889 105.9473,64.3889 C105.6713,64.3889 105.4193,64.3099 105.1733,64.1529 C104.9293,64.0029 104.8113,63.7819 104.8113,63.4899 Z M104.9533,61.0529 C104.9533,60.8239 105.0553,60.6269 105.2533,60.4699 C105.4503,60.3109 105.6783,60.2319 105.9473,60.2319 C106.2143,60.2319 106.4523,60.3109 106.6493,60.4699 C106.8463,60.6269 106.9403,60.8239 106.9403,61.0529 C106.9403,61.2899 106.8463,61.4859 106.6493,61.6439 C106.4523,61.8099 106.2143,61.8879 105.9473,61.8879 C105.6783,61.8879 105.4503,61.8099 105.2533,61.6439 C105.0553,61.4859 104.9533,61.2899 104.9533,61.0529 Z M110.6943,59.6089 L110.6943,62.2599 L111.0883,62.6849 C111.4043,62.5119 111.7353,62.4259 112.0903,62.4259 C112.4373,62.4259 112.7293,62.5039 112.9583,62.6699 C113.1863,62.8359 113.2963,63.0719 113.2963,63.3719 C113.2963,63.6789 113.1863,63.9079 112.9733,64.0659 C112.7603,64.2229 112.5163,64.3029 112.2553,64.3029 C111.9963,64.3029 111.7513,64.2559 111.5303,64.1529 C111.3093,64.0579 111.1683,63.9789 111.0963,63.9239 L110.9223,63.7739 L110.4253,64.4519 C110.8683,64.9489 111.4593,65.1939 112.2013,65.1939 C112.7683,65.1939 113.2503,65.0199 113.6363,64.6659 C114.0233,64.3179 114.2193,63.8769 114.2193,63.3479 C114.2193,62.8199 114.0313,62.3929 113.6603,62.0859 C113.2893,61.7779 112.8393,61.6209 112.3273,61.6209 C112.0353,61.6209 111.7663,61.6829 111.5383,61.8099 L111.5383,60.4529 L113.8653,60.4529 L113.8653,59.6089 L110.6943,59.6089 Z M119.5113,60.4769 C119.7093,60.5629 119.8753,60.6579 119.9933,60.7609 L120.4583,60.0749 C119.9773,59.7039 119.4323,59.5139 118.8413,59.5139 C118.2423,59.5139 117.7373,59.7269 117.3273,60.1619 C117.1143,60.3829 116.9483,60.6819 116.8303,61.0599 C116.7123,61.4389 116.6483,61.9129 116.6483,62.4799 C116.6483,63.0489 116.7433,63.5609 116.9323,64.0109 C117.2713,64.7999 117.8793,65.1939 118.7623,65.1939 C119.3063,65.1939 119.7643,65.0279 120.1273,64.6969 C120.4823,64.3659 120.6633,63.9239 120.6633,63.3799 C120.6633,62.8359 120.4983,62.4009 120.1663,62.0699 C119.8273,61.7469 119.4173,61.5809 118.9203,61.5809 C118.6203,61.5809 118.3443,61.6439 118.0993,61.7699 C117.8553,61.9049 117.6663,62.0389 117.5323,62.1879 C117.5403,61.6289 117.6583,61.1789 117.8863,60.8469 C118.1163,60.5159 118.4783,60.3499 118.9673,60.3499 C119.1253,60.3499 119.3063,60.3899 119.5113,60.4769 Z M119.5593,62.6929 C119.7483,62.8899 119.8423,63.1359 119.8423,63.4109 C119.8423,63.6949 119.7403,63.9239 119.5353,64.1049 C119.3303,64.2869 119.0703,64.3819 118.7623,64.3819 C118.4553,64.3819 118.1943,64.2789 117.9893,64.0739 C117.7843,63.8769 117.6813,63.6319 117.6813,63.3479 C117.6813,63.0719 117.7923,62.8439 118.0043,62.6619 C118.2173,62.4879 118.4783,62.4009 118.8013,62.4009 C119.1173,62.4009 119.3703,62.4959 119.5593,62.6929 Z" id="Fill-7" fill="#414042"></path>
                <path d="M40.3671,2.0485 C40.3671,2.3275 40.2721,2.5645 40.0881,2.7565 C39.8981,2.9495 39.6661,3.0485 39.3941,3.0485 C39.1231,3.0485 38.8901,2.9495 38.7061,2.7565 C38.5161,2.5645 38.4221,2.3275 38.4221,2.0485 C38.4221,1.7735 38.5161,1.5365 38.7061,1.3435 C38.8901,1.1515 39.1231,1.0525 39.3941,1.0525 C39.6661,1.0525 39.8981,1.1515 40.0881,1.3435 C40.2721,1.5365 40.3671,1.7735 40.3671,2.0485 Z M40.8441,2.0485 C40.8441,1.6435 40.7051,1.3045 40.4261,1.0325 C40.1461,0.7615 39.8041,0.6275 39.3941,0.6275 C38.9851,0.6275 38.6421,0.7615 38.3631,1.0325 C38.0841,1.3045 37.9461,1.6435 37.9461,2.0485 C37.9461,2.4535 38.0841,2.7925 38.3631,3.0645 C38.6421,3.3355 38.9851,3.4735 39.3941,3.4735 C39.8041,3.4735 40.1461,3.3355 40.4261,3.0645 C40.7051,2.7925 40.8441,2.4535 40.8441,2.0485 Z M44.5431,0.9065 C44.3621,0.7655 44.0631,0.6945 43.6411,0.6945 L42.6181,0.6945 L42.6181,3.4455 L43.0831,3.4455 L43.0831,2.5215 L43.6931,2.5215 L44.3501,3.4455 L44.9401,3.4455 L44.2211,2.4455 C44.6181,2.3275 44.8141,2.0405 44.8141,1.5875 C44.8141,1.2775 44.7241,1.0485 44.5431,0.9065 Z M43.6611,2.0995 L43.0831,2.0995 L43.0831,1.1145 L43.6731,1.1145 C43.9211,1.1145 44.0951,1.1475 44.1931,1.2135 C44.2911,1.2805 44.3391,1.4065 44.3391,1.5835 C44.3391,1.7655 44.2911,1.8955 44.1971,1.9775 C44.1021,2.0605 43.9251,2.0995 43.6611,2.0995 Z M46.6721,3.4455 L47.1371,3.4455 L47.1371,0.6935 L46.6721,0.6935 L46.6721,3.4455 Z M50.9901,2.8625 C50.8131,2.9775 50.5961,3.0325 50.3371,3.0325 C50.0731,3.0325 49.8521,2.9425 49.6681,2.7645 C49.4821,2.5875 49.3921,2.3555 49.3921,2.0605 C49.3921,1.7695 49.4861,1.5325 49.6761,1.3515 C49.8641,1.1745 50.0961,1.0835 50.3761,1.0835 C50.5221,1.0835 50.6481,1.0995 50.7581,1.1355 C50.8641,1.1705 50.9741,1.2365 51.0811,1.3275 L51.3291,0.9735 C51.0651,0.7405 50.7381,0.6275 50.3411,0.6275 C49.9431,0.6275 49.6081,0.7655 49.3291,1.0365 C49.0501,1.3085 48.9081,1.6515 48.9081,2.0605 C48.9081,2.4695 49.0461,2.8085 49.3211,3.0755 C49.5931,3.3435 49.9351,3.4775 50.3411,3.4775 C50.8251,3.4775 51.1951,3.3355 51.4551,3.0485 L51.4551,2.1075 L50.9901,2.1075 L50.9901,2.8625 Z M53.2531,3.4455 L53.7181,3.4455 L53.7181,0.6935 L53.2531,0.6935 L53.2531,3.4455 Z M57.7291,2.7485 L56.1311,0.6945 L55.6661,0.6945 L55.6661,3.4455 L56.1311,3.4455 L56.1311,1.4385 L57.6891,3.4455 L58.1931,3.4455 L58.1931,0.6945 L57.7291,0.6945 L57.7291,2.7485 Z M61.9131,2.8195 L62.1881,3.4455 L62.6841,3.4455 L61.4721,0.6945 L60.9761,0.6945 L59.7631,3.4455 L60.2601,3.4455 L60.5351,2.8195 L61.9131,2.8195 Z M60.7241,2.3915 L61.2241,1.2575 L61.7241,2.3915 L60.7241,2.3915 Z M65.9741,3.4455 L65.9741,3.0045 L64.7191,3.0045 L64.7191,0.6945 L64.2551,0.6945 L64.2551,3.4455 L65.9741,3.4455 Z M71.8061,1.1185 L71.8061,0.6945 L69.6731,0.6945 L69.6731,1.1185 L70.5081,1.1185 L70.5081,3.4455 L70.9711,3.4455 L70.9711,1.1185 L71.8061,1.1185 Z M75.4231,0.9065 C75.2411,0.7655 74.9421,0.6945 74.5201,0.6945 L73.4971,0.6945 L73.4971,3.4455 L73.9621,3.4455 L73.9621,2.5215 L74.5721,2.5215 L75.2291,3.4455 L75.8201,3.4455 L75.0991,2.4455 C75.4971,2.3275 75.6941,2.0405 75.6941,1.5875 C75.6941,1.2775 75.6031,1.0485 75.4231,0.9065 Z M74.5411,2.0995 L73.9621,2.0995 L73.9621,1.1145 L74.5531,1.1145 C74.8011,1.1145 74.9731,1.1475 75.0721,1.2135 C75.1711,1.2805 75.2181,1.4065 75.2181,1.5835 C75.2181,1.7655 75.1711,1.8955 75.0761,1.9775 C74.9811,2.0605 74.8051,2.0995 74.5411,2.0995 Z M78.4961,0.6945 L77.5511,0.6945 L77.5511,3.4455 L78.4641,3.4455 C78.9961,3.4455 79.3891,3.3195 79.6451,3.0715 C79.9011,2.8235 80.0311,2.4855 80.0311,2.0565 C80.0311,1.6265 79.8971,1.2925 79.6341,1.0525 C79.3701,0.8125 78.9881,0.6945 78.4961,0.6945 Z M79.2991,2.7685 C79.1221,2.9305 78.8661,3.0085 78.5311,3.0085 L78.0151,3.0085 L78.0151,1.1225 L78.4801,1.1225 C79.2001,1.1225 79.5621,1.4385 79.5621,2.0685 C79.5621,2.3785 79.4751,2.6105 79.2991,2.7685 Z M82.2821,1.2965 L83.2381,3.2055 L83.4981,3.2055 L84.4591,1.2965 L84.4591,3.4455 L84.9241,3.4455 L84.9241,0.6945 L84.2031,0.6945 L83.3721,2.4225 L82.5421,0.6945 L81.8171,0.6945 L81.8171,3.4455 L82.2821,3.4455 L82.2821,1.2965 Z" id="Fill-9" fill="#414042"></path>
                <mask id="mask-2" fill="white">
                    <use xlink:href="#path-1"></use>
                </mask>
                <g id="Clip-12"></g>
                <polygon id="Fill-11" fill="#414042" mask="url(#mask-2)" points="1.984 67.65 27.286 67.65 27.286 66.774 1.984 66.774"></polygon>
                <polygon id="Fill-13" fill="#414042" mask="url(#mask-2)" points="96.951 67.65 122.253 67.65 122.253 66.774 96.951 66.774"></polygon>
                <path d="M118.7391,85.1882 C120.8991,79.9122 118.7391,76.0092 118.7391,76.0092 C117.5621,77.6152 114.6181,80.3692 111.2811,80.8282 C107.9451,81.2872 102.2541,81.2872 99.8981,82.8952 C98.7921,83.6492 98.8161,84.6552 99.1481,85.5122 C99.0621,85.4232 98.9821,85.3232 98.9171,85.1882 C98.9171,85.1882 99.8781,88.0652 100.6991,91.0472 C92.3581,93.7822 77.0351,96.2612 60.8431,96.4332 C45.6991,96.5972 31.4491,93.1962 23.7861,90.6242 C24.5401,87.9812 25.3181,85.6462 25.3181,85.6462 C25.2531,85.7822 25.1731,85.8822 25.0871,85.9702 C25.4201,85.1152 25.4431,84.1092 24.3371,83.3532 C21.9831,81.7472 16.2901,81.7472 12.9551,81.2872 C9.6171,80.8282 6.6751,78.0742 5.4961,76.4682 C5.4961,76.4682 3.3401,80.3692 5.4961,85.6462 C5.4961,85.6462 2.5531,88.4022 0.0001,88.4022 C0.0001,88.4022 2.5921,91.7342 5.1041,92.9912 C6.9501,93.9172 10.7421,95.8692 14.0461,96.2922 C13.6191,98.3612 13.3461,99.8762 13.3461,99.8762 C12.5601,105.1562 36.3101,112.2692 60.6451,112.9582 C84.9821,113.6442 104.4131,105.8432 107.7491,103.7772 C111.0861,101.7112 110.6931,99.4172 110.6931,99.4172 C110.5041,98.1132 110.3161,96.9282 110.1311,95.8412 C113.4491,95.4352 117.2741,93.4622 119.1341,92.5332 C121.6441,91.2722 124.2361,87.9432 124.2361,87.9432 C121.6841,87.9432 118.7391,85.1882 118.7391,85.1882" id="Fill-14" fill="#414042" mask="url(#mask-2)"></path>
                <path d="M23.7733,96.7976 C24.0023,96.8706 24.2323,96.9456 24.4603,97.0186 C24.1453,98.0186 23.8303,99.0196 23.5133,100.0206 C23.2783,99.9456 23.0433,99.8706 22.8093,99.7956 C22.5073,99.0076 22.2173,98.2206 21.9353,97.4316 C21.7253,98.0556 21.5163,98.6786 21.3073,99.3016 C21.0723,99.2236 20.8393,99.1446 20.6063,99.0646 C20.9473,98.0706 21.2863,97.0776 21.6273,96.0846 C21.8383,96.1566 22.0533,96.2306 22.2653,96.3026 C22.5513,97.1106 22.8473,97.9206 23.1523,98.7286 C23.3593,98.0846 23.5673,97.4416 23.7733,96.7976" id="Fill-15" fill="#F0F1F1" mask="url(#mask-2)"></path>
                <path d="M28.3348,98.1716 C28.2798,98.3736 28.2228,98.5736 28.1678,98.7746 C27.6498,98.6296 27.1328,98.4826 26.6158,98.3296 C26.5558,98.5366 26.4938,98.7446 26.4328,98.9526 C26.8998,99.0896 27.3678,99.2236 27.8358,99.3566 C27.7808,99.5486 27.7288,99.7406 27.6738,99.9326 C27.2028,99.8006 26.7328,99.6646 26.2648,99.5256 L26.0798,100.1526 C26.6208,100.3126 27.1628,100.4686 27.7048,100.6196 C27.6488,100.8186 27.5928,101.0186 27.5368,101.2186 C26.7558,100.9986 25.9768,100.7726 25.1958,100.5396 C25.4988,99.5336 25.8008,98.5286 26.1038,97.5236 C26.8468,97.7456 27.5898,97.9636 28.3348,98.1716" id="Fill-16" fill="#F0F1F1" mask="url(#mask-2)"></path>
                <path d="M30.4129,100.6052 C30.7499,100.0692 31.0849,99.5302 31.4179,98.9922 C31.6599,99.0532 31.9009,99.1142 32.1439,99.1732 C32.1839,99.8042 32.2249,100.4352 32.2699,101.0692 C32.6209,100.5322 32.9719,99.9952 33.3169,99.4562 C33.5679,99.5162 33.8209,99.5742 34.0739,99.6322 C33.4749,100.5722 32.8659,101.5062 32.2499,102.4382 C32.0719,102.3962 31.8949,102.3542 31.7179,102.3102 C31.6569,101.5452 31.5999,100.7792 31.5469,100.0142 C31.1419,100.6652 30.7329,101.3142 30.3209,101.9622 C30.1449,101.9172 29.9669,101.8712 29.7909,101.8262 C29.6829,100.7132 29.5849,99.6012 29.4959,98.4912 C29.7469,98.5582 29.9969,98.6252 30.2479,98.6902 C30.3009,99.3292 30.3539,99.9662 30.4129,100.6052" id="Fill-17" fill="#F0F1F1" mask="url(#mask-2)"></path>
                <path d="M38.202,103.7106 C37.962,103.6646 37.722,103.6176 37.48,103.5706 C37.56,103.1656 37.64,102.7586 37.719,102.3526 C37.471,101.6566 37.229,100.9606 36.993,100.2646 C37.246,100.3156 37.499,100.3656 37.753,100.4166 C37.904,100.8446 38.057,101.2716 38.214,101.6996 C38.516,101.3596 38.816,101.0196 39.115,100.6776 C39.368,100.7246 39.623,100.7706 39.877,100.8156 C39.4,101.3776 38.92,101.9346 38.432,102.4886 C38.355,102.8956 38.279,103.3036 38.202,103.7106" id="Fill-18" fill="#F0F1F1" mask="url(#mask-2)"></path>
                <path d="M43.1981,102.9392 C43.2411,102.6622 43.1831,102.4122 43.0301,102.1882 C42.8771,101.9642 42.6691,101.8322 42.4041,101.7912 C42.1381,101.7492 41.9001,101.8102 41.6861,101.9772 C41.4701,102.1412 41.3411,102.3632 41.2961,102.6402 C41.2491,102.9182 41.3021,103.1682 41.4561,103.3922 C41.6081,103.6162 41.8191,103.7512 42.0891,103.7932 C42.3591,103.8352 42.6011,103.7722 42.8141,103.6072 C43.0291,103.4402 43.1571,103.2172 43.1981,102.9392 M43.2721,104.1212 C42.8991,104.3802 42.4701,104.4732 41.9921,104.3982 C41.5111,104.3232 41.1331,104.1022 40.8571,103.7402 C40.5821,103.3802 40.4861,102.9702 40.5631,102.5142 C40.6411,102.0592 40.8671,101.7062 41.2401,101.4532 C41.6121,101.2002 42.0291,101.1112 42.4961,101.1862 C42.9651,101.2592 43.3351,101.4712 43.6101,101.8262 C43.8861,102.1812 43.9941,102.5862 43.9271,103.0442 C43.8621,103.5012 43.6441,103.8622 43.2721,104.1212" id="Fill-19" fill="#F0F1F1" mask="url(#mask-2)"></path>
                <path d="M47.2118,103.3356 C47.3098,103.2696 47.3698,103.1496 47.3878,102.9816 C47.4078,102.8136 47.3748,102.6926 47.2908,102.6186 C47.2078,102.5466 47.0518,102.4966 46.8218,102.4686 C46.6448,102.4466 46.4668,102.4256 46.2878,102.4026 C46.2498,102.7106 46.2108,103.0196 46.1718,103.3286 C46.3478,103.3496 46.5228,103.3716 46.6958,103.3926 C46.9418,103.4216 47.1138,103.4026 47.2118,103.3356 M48.1178,103.0616 C48.0638,103.5636 47.8228,103.8656 47.3968,103.9646 C47.6258,104.3676 47.8578,104.7726 48.0928,105.1746 C47.7948,105.1436 47.4958,105.1096 47.1978,105.0756 C46.9958,104.7146 46.7958,104.3546 46.5968,103.9926 C46.4298,103.9726 46.2628,103.9516 46.0968,103.9316 C46.0558,104.2636 46.0138,104.5956 45.9728,104.9276 C45.7308,104.8976 45.4878,104.8656 45.2468,104.8346 C45.3828,103.7946 45.5188,102.7536 45.6548,101.7126 C46.0568,101.7656 46.4578,101.8156 46.8578,101.8636 C47.3528,101.9236 47.6938,102.0466 47.8878,102.2336 C48.0808,102.4216 48.1578,102.6966 48.1178,103.0616" id="Fill-20" fill="#F0F1F1" mask="url(#mask-2)"></path>
                <path d="M49.87,102.1911 C50.106,102.2131 50.344,102.2361 50.58,102.2571 C50.542,102.6871 50.503,103.1171 50.464,103.5451 C50.907,103.1531 51.348,102.7571 51.782,102.3611 C52.076,102.3831 52.37,102.4071 52.664,102.4281 C52.208,102.8591 51.745,103.2901 51.279,103.7161 C51.378,103.8751 51.558,104.1701 51.826,104.6021 C52.094,105.0361 52.297,105.3561 52.433,105.5691 C52.148,105.5471 51.865,105.5261 51.581,105.5031 C51.296,105.0651 51.013,104.6261 50.733,104.1841 C50.614,104.2911 50.496,104.3991 50.377,104.5051 C50.349,104.8011 50.323,105.0971 50.296,105.3931 C50.054,105.3721 49.81,105.3491 49.568,105.3251 C49.67,104.2821 49.769,103.2361 49.87,102.1911" id="Fill-21" fill="#F0F1F1" mask="url(#mask-2)"></path>
                <path d="M57.5174,105.2175 C57.8724,105.2305 58.1694,105.1015 58.4034,104.8345 C58.5544,104.9935 58.7054,105.1525 58.8574,105.3115 C58.4784,105.7025 58.0354,105.8935 57.5284,105.8765 C57.0254,105.8595 56.6144,105.6905 56.3024,105.3695 C55.9914,105.0485 55.8484,104.6555 55.8694,104.1895 C55.8914,103.7235 56.0734,103.3425 56.4134,103.0435 C56.7504,102.7455 57.1534,102.6055 57.6214,102.6205 C58.1444,102.6385 58.5774,102.8475 58.9224,103.2485 C58.7704,103.4105 58.6184,103.5715 58.4654,103.7325 C58.2434,103.4505 57.9674,103.3045 57.6304,103.2925 C57.3634,103.2845 57.1284,103.3635 56.9294,103.5275 C56.7314,103.6915 56.6254,103.9205 56.6134,104.2125 C56.6034,104.5055 56.6844,104.7445 56.8604,104.9285 C57.0374,105.1135 57.2544,105.2085 57.5174,105.2175" id="Fill-22" fill="#F0F1F1" mask="url(#mask-2)"></path>
                <path d="M60.3924,102.7536 C60.6294,102.7566 60.8674,102.7586 61.1044,102.7596 C61.0994,103.8086 61.0944,104.8576 61.0884,105.9086 C60.8454,105.9076 60.6024,105.9056 60.3584,105.9026 C60.3704,104.8536 60.3804,103.8036 60.3924,102.7536" id="Fill-23" fill="#F0F1F1" mask="url(#mask-2)"></path>
                <path d="M64.1698,103.3454 C64.1868,104.1934 64.2018,105.0384 64.2198,105.8854 C63.9758,105.8904 63.7318,105.8944 63.4878,105.8984 C63.4758,105.0504 63.4648,104.2044 63.4528,103.3584 C63.1498,103.3634 62.8468,103.3664 62.5448,103.3674 C62.5428,103.1644 62.5418,102.9614 62.5398,102.7584 C63.3808,102.7524 64.2218,102.7384 65.0618,102.7164 C65.0658,102.9194 65.0718,103.1214 65.0778,103.3254 C64.7748,103.3324 64.4728,103.3404 64.1698,103.3454" id="Fill-24" fill="#F0F1F1" mask="url(#mask-2)"></path>
                <path d="M68.0262,105.7536 C67.7822,105.7666 67.5392,105.7766 67.2952,105.7886 C67.2772,105.3746 67.2582,104.9596 67.2412,104.5466 C66.8392,103.9276 66.4432,103.3076 66.0522,102.6866 C66.3092,102.6766 66.5662,102.6666 66.8242,102.6566 C67.0692,103.0376 67.3182,103.4176 67.5682,103.7966 C67.7822,103.3956 67.9942,102.9936 68.2032,102.5916 C68.4602,102.5786 68.7162,102.5646 68.9732,102.5496 C68.6432,103.2046 68.3072,103.8586 67.9642,104.5136 C67.9842,104.9266 68.0042,105.3406 68.0262,105.7536" id="Fill-25" fill="#F0F1F1" mask="url(#mask-2)"></path>
                <path d="M74.5712,102.0944 C74.8082,102.0694 75.0452,102.0444 75.2802,102.0194 C75.3952,103.0614 75.5102,104.1044 75.6252,105.1484 C75.3832,105.1744 75.1392,105.1994 74.8972,105.2264 C74.3102,104.6264 73.7322,104.0224 73.1612,103.4134 C73.2222,104.0684 73.2822,104.7234 73.3422,105.3784 C73.0992,105.4004 72.8562,105.4224 72.6142,105.4434 C72.5232,104.3984 72.4342,103.3514 72.3442,102.3054 C72.5652,102.2864 72.7882,102.2664 73.0092,102.2474 C73.5912,102.8724 74.1822,103.4934 74.7802,104.1114 C74.7112,103.4394 74.6402,102.7664 74.5712,102.0944" id="Fill-26" fill="#F0F1F1" mask="url(#mask-2)"></path>
                <path d="M78.7596,104.7634 C78.5186,104.7964 78.2756,104.8274 78.0326,104.8604 C77.9806,104.4484 77.9266,104.0374 77.8736,103.6264 C77.4206,103.0444 76.9726,102.4604 76.5306,101.8734 C76.7856,101.8434 77.0416,101.8124 77.2976,101.7804 C77.5756,102.1374 77.8556,102.4954 78.1376,102.8524 C78.3166,102.4344 78.4936,102.0174 78.6686,101.5984 C78.9246,101.5634 79.1806,101.5274 79.4346,101.4904 C79.1596,102.1704 78.8796,102.8534 78.5936,103.5324 C78.6486,103.9434 78.7046,104.3534 78.7596,104.7634" id="Fill-27" fill="#F0F1F1" mask="url(#mask-2)"></path>
                <path d="M80.8807,104.3786 C80.7887,104.3166 80.7347,104.2286 80.7197,104.1176 C80.7017,104.0086 80.7287,103.9096 80.7957,103.8226 C80.8617,103.7336 80.9517,103.6836 81.0667,103.6636 C81.1797,103.6466 81.2827,103.6696 81.3717,103.7326 C81.4627,103.7966 81.5167,103.8826 81.5337,103.9916 C81.5517,104.1026 81.5267,104.2016 81.4597,104.2886 C81.3937,104.3766 81.3027,104.4306 81.1887,104.4466 C81.0727,104.4666 80.9697,104.4416 80.8807,104.3786" id="Fill-28" fill="#F0F1F1" mask="url(#mask-2)"></path>
                <path d="M86.0223,102.738 C86.1693,102.855 86.3453,102.896 86.5473,102.855 C86.7503,102.815 86.8953,102.711 86.9843,102.546 C87.0733,102.379 87.0893,102.171 87.0403,101.925 C86.9223,101.356 86.8053,100.789 86.6893,100.22 C86.9223,100.173 87.1573,100.124 87.3903,100.075 C87.5123,100.649 87.6333,101.224 87.7553,101.798 C87.8493,102.245 87.7953,102.615 87.5873,102.908 C87.3803,103.201 87.0753,103.389 86.6703,103.469 C86.2663,103.55 85.9113,103.495 85.6053,103.302 C85.2993,103.111 85.1053,102.792 85.0203,102.345 C84.9123,101.768 84.8033,101.19 84.6953,100.615 C84.9283,100.57 85.1633,100.525 85.3973,100.479 C85.5083,101.049 85.6193,101.618 85.7293,102.186 C85.7783,102.433 85.8763,102.618 86.0223,102.738" id="Fill-29" fill="#F0F1F1" mask="url(#mask-2)"></path>
                <path d="M89.6122,102.7321 C89.5162,102.6741 89.4572,102.5911 89.4312,102.4831 C89.4082,102.3751 89.4252,102.2751 89.4882,102.1821 C89.5482,102.0901 89.6342,102.0311 89.7482,102.0051 C89.8602,101.9811 89.9652,101.9951 90.0582,102.0531 C90.1542,102.1091 90.2142,102.1911 90.2392,102.2991 C90.2632,102.4081 90.2482,102.5081 90.1842,102.6001 C90.1262,102.6941 90.0372,102.7531 89.9242,102.7781 C89.8102,102.8051 89.7062,102.7891 89.6122,102.7321" id="Fill-30" fill="#F0F1F1" mask="url(#mask-2)"></path>
                <path d="M92.0262,99.6472 L91.9792,99.8872 C92.0002,99.9752 92.0592,100.0372 92.1552,100.0682 C92.2522,100.0992 92.4582,100.1152 92.7742,100.1092 C93.0922,100.1032 93.3512,100.1492 93.5542,100.2482 C93.7562,100.3472 93.8942,100.5332 93.9672,100.8062 C94.0402,101.0782 93.9912,101.3282 93.8212,101.5532 C93.6522,101.7802 93.3902,101.9392 93.0402,102.0272 C92.5332,102.1572 92.0322,102.0912 91.5392,101.8302 C91.6392,101.6292 91.7412,101.4282 91.8402,101.2282 C92.2552,101.4312 92.6082,101.4962 92.9012,101.4212 C93.0302,101.3882 93.1272,101.3362 93.1862,101.2642 C93.2492,101.1892 93.2642,101.1082 93.2422,101.0162 C93.2182,100.9242 93.1602,100.8622 93.0672,100.8292 C92.9752,100.7942 92.8052,100.7802 92.5592,100.7842 C92.1692,100.7932 91.8732,100.7492 91.6692,100.6562 C91.4652,100.5612 91.3282,100.3692 91.2572,100.0792 C91.1872,99.7892 91.2402,99.5392 91.4142,99.3292 C91.5882,99.1192 91.8352,98.9742 92.1532,98.8932 C92.3602,98.8402 92.5772,98.8222 92.8022,98.8382 C93.0292,98.8532 93.2372,98.9062 93.4242,98.9922 C93.3512,99.1882 93.2772,99.3852 93.2032,99.5822 C92.8772,99.4512 92.5712,99.4232 92.2822,99.4972 C92.1652,99.5262 92.0792,99.5772 92.0262,99.6472" id="Fill-31" fill="#F0F1F1" mask="url(#mask-2)"></path>
                <path d="M95.6776,101.2077 C95.5786,101.1547 95.5166,101.0747 95.4856,100.9677 C95.4556,100.8607 95.4706,100.7607 95.5266,100.6657 C95.5826,100.5697 95.6676,100.5067 95.7806,100.4757 C95.8906,100.4437 95.9946,100.4547 96.0926,100.5067 C96.1916,100.5577 96.2546,100.6377 96.2846,100.7437 C96.3166,100.8517 96.3036,100.9527 96.2446,101.0477 C96.1906,101.1457 96.1056,101.2077 95.9936,101.2387 C95.8816,101.2697 95.7756,101.2617 95.6776,101.2077" id="Fill-32" fill="#F0F1F1" mask="url(#mask-2)"></path>
                <path d="M98.5848,98.1325 C98.5458,98.4625 98.5038,98.7955 98.4618,99.1265 C98.7238,99.0475 98.9838,98.9665 99.2458,98.8845 C99.0248,98.6345 98.8058,98.3835 98.5848,98.1325 M100.1928,99.9455 C100.0258,99.7615 99.8598,99.5745 99.6938,99.3905 C99.2558,99.5285 98.8158,99.6645 98.3758,99.7975 C98.3438,100.0445 98.3118,100.2905 98.2788,100.5375 C98.0268,100.6135 97.7768,100.6885 97.5248,100.7615 C97.6868,99.6195 97.8358,98.4795 97.9748,97.3405 C98.1958,97.2715 98.4178,97.2035 98.6398,97.1345 C99.3968,97.9965 100.1658,98.8535 100.9428,99.7055 C100.6928,99.7865 100.4428,99.8655 100.1928,99.9455" id="Fill-33" fill="#F0F1F1" mask="url(#mask-2)"></path>
                <path d="M102.1629,99.2185 C102.0619,99.1725 101.9929,99.0955 101.9579,98.9905 C101.9229,98.8855 101.9319,98.7835 101.9839,98.6865 C102.0349,98.5865 102.1159,98.5195 102.2269,98.4825 C102.3369,98.4455 102.4419,98.4495 102.5429,98.4965 C102.6429,98.5415 102.7119,98.6165 102.7479,98.7235 C102.7849,98.8275 102.7769,98.9295 102.7249,99.0295 C102.6729,99.1275 102.5919,99.1955 102.4809,99.2335 C102.3709,99.2705 102.2649,99.2665 102.1629,99.2185" id="Fill-34" fill="#F0F1F1" mask="url(#mask-2)"></path>
            </g>
        </g>
    </g>
</svg>