<?xml version="1.0" encoding="UTF-8"?>
<svg width="130px" height="108px" viewBox="0 0 130 108" version="1.1" xmlns="http://www.w3.org/2000/svg" xmlns:xlink="http://www.w3.org/1999/xlink">
    <!-- Generator: Sketch 49 (51002) - http://www.bohemiancoding.com/sketch -->
    <title>vintage-logo-14</title>
    <desc>Created with Sketch.</desc>
    <defs>
        <polygon id="path-1" points="0.000116006534 0.4755 129.287 0.4755 129.287 18.568556 0.000116006534 18.568556"></polygon>
        <polygon id="path-3" points="0.638 0.0214 88.362 0.0214 88.362 9 0.638 9"></polygon>
        <polygon id="path-5" points="0 107.506 129.287 107.506 129.287 0 0 0"></polygon>
    </defs>
    <g id="Page-1" stroke="none" stroke-width="1" fill="none" fill-rule="evenodd">
        <g id="vintage-logo-14">
            <path d="M64.3767,15.5426 C63.9017,15.5466 63.3587,15.6026 63.1717,16.0036 C62.9837,15.7416 62.8747,15.4216 62.8747,15.0746 C62.8747,14.1856 63.5967,13.4616 64.4857,13.4616 C65.3797,13.4616 66.1017,14.1856 66.1017,15.0746 C66.1017,15.4116 65.9937,15.7196 65.8167,15.9776 L65.7527,15.8446 C65.4747,15.5816 64.9367,15.5386 64.3767,15.5426 M73.6547,25.5316 C73.5887,25.3846 73.4877,25.2276 73.2757,25.1986 C72.9327,25.9286 72.7727,26.8276 72.2297,27.5296 C71.9937,27.8386 71.6957,28.0946 71.3387,28.3466 C71.1097,28.5066 70.7977,28.6436 70.5367,28.8166 L70.3247,29.0426 C70.3387,29.1306 70.6027,29.2056 70.7337,29.2266 C71.2407,29.3046 71.7757,29.3676 72.2757,29.3306 C72.0747,29.8616 71.8907,30.1366 71.4957,30.4706 C71.2297,30.7016 71.0637,30.7866 70.9207,30.8786 C70.6387,31.0646 70.3617,31.2046 70.0367,31.3306 C69.9057,31.3786 69.7457,31.4056 69.5967,31.4496 C69.2557,31.5546 68.9257,31.6766 68.5077,31.7226 C68.2777,31.7486 68.0287,31.8056 67.8117,31.7986 C67.3167,31.7846 66.5047,31.4716 66.3127,31.0566 C66.0277,30.4376 65.9527,29.7016 65.9207,28.8776 C65.9117,28.6306 65.9227,28.3546 65.9357,28.0896 C65.9477,27.8126 65.9457,27.5346 65.9667,27.2876 C66.0767,25.8926 65.9607,24.0926 66.0237,22.7306 C67.2097,22.5586 68.6977,22.6786 69.8407,22.2906 C69.9917,22.2406 70.1907,22.1726 70.2937,22.0976 C70.5027,21.9386 70.4837,21.6706 70.5207,21.3246 C70.5667,20.9026 70.5177,20.5226 70.2507,20.3246 C69.7367,20.1116 69.1007,19.9756 68.5217,19.8876 C67.7427,19.7646 66.9497,19.6346 66.1017,19.6306 C66.0617,19.0246 66.1437,18.5106 66.0887,17.8706 C66.9417,17.3826 67.5487,16.5186 67.6817,15.5036 C67.7037,15.3986 67.7197,15.2946 67.7197,15.1936 C67.7217,15.0876 67.7157,14.9826 67.7057,14.8776 C67.6627,14.1686 67.3937,13.5186 66.9627,13.0066 C66.8317,12.8326 66.6887,12.6876 66.5097,12.5446 L66.2997,12.4036 C65.7837,12.0526 65.1587,11.8466 64.4857,11.8466 C62.7057,11.8466 61.2597,13.2916 61.2597,15.0746 C61.2597,16.3266 61.9737,17.4056 63.0157,17.9406 C63.0247,18.5386 63.0407,19.0056 62.9997,19.6126 C62.0067,19.8036 60.7677,19.8036 59.8197,20.0386 C59.5417,20.1066 59.0947,20.1516 58.8817,20.2956 C58.5897,20.4846 58.5747,20.9376 58.5787,21.3996 C58.5797,21.5806 58.5697,21.8586 58.6227,22.0056 C58.6717,22.1386 58.8827,22.3006 59.0307,22.3546 C59.3337,22.4626 59.7497,22.4626 60.1367,22.4896 C61.1347,22.5586 62.1987,22.6496 63.0747,22.6706 C63.1397,24.3216 63.1167,25.4796 63.1327,27.1056 C63.1427,27.9796 63.1117,28.7846 62.9367,29.7186 C62.8077,30.3676 62.7437,31.2626 62.2577,31.5416 C61.9067,31.7396 61.5167,31.6926 61.0007,31.6626 C60.2917,31.6206 59.6687,31.4646 59.1087,31.2996 C58.8217,31.2156 58.5307,31.1276 58.2747,30.9816 C57.9757,30.8116 57.7017,30.5346 57.4577,30.2696 C57.2047,29.9966 57.0027,29.6426 56.8687,29.3476 C57.4107,29.4846 57.8387,29.4326 58.3497,29.3306 C58.5087,29.2996 58.6817,29.2426 58.6367,29.0746 C58.6127,28.9686 58.4337,28.9636 58.3047,28.9076 C57.9867,28.7676 57.6317,28.4856 57.3507,28.2276 C57.0717,27.9666 56.7687,27.6466 56.5807,27.3486 C56.2397,26.8106 56.0537,26.2226 55.8687,25.5926 C55.8167,25.4216 55.8747,25.0816 55.5967,25.0316 C55.4617,25.1496 55.4007,25.3456 55.3377,25.5156 C55.1407,26.0616 54.8747,26.6356 54.8407,27.2716 C54.7687,28.5556 55.0737,29.8026 55.4897,30.8596 C55.5447,30.9996 55.6077,31.2076 55.8057,31.1926 C56.0447,30.9676 55.7467,30.4156 55.9757,30.1626 C56.1157,30.5706 56.2537,30.8446 56.4747,31.1626 C56.5847,31.3246 56.7307,31.4746 56.8507,31.6016 C57.6607,32.4526 58.7187,33.0606 59.7437,33.6136 C60.5017,33.8966 61.3887,34.0486 62.0727,34.4006 C62.4367,34.7256 62.8067,35.0836 63.1327,35.4926 C63.2967,35.6946 63.4477,35.8886 63.6187,36.0816 C63.7927,36.2826 63.9137,36.5226 64.0867,36.7036 C64.2367,36.8566 64.4667,37.0346 64.7077,36.9596 C64.9097,36.8966 65.1717,36.6206 65.3127,36.4156 C65.4817,36.1746 65.6237,35.9226 65.7527,35.7036 C66.0237,35.2446 66.4157,34.7476 66.8287,34.4766 C67.3727,34.1206 68.0527,33.8226 68.7197,33.6436 C69.4477,33.4516 70.1587,33.2446 70.7777,32.9626 C71.1947,32.7746 71.5467,32.5226 71.9137,32.2676 C72.2147,31.9746 72.4227,31.6896 72.5947,31.3136 C72.7667,30.9426 72.8847,30.5246 73.0187,30.1346 C73.1727,30.4286 73.1557,30.8256 73.2007,31.1326 C73.3507,31.1516 73.4467,31.0096 73.5167,30.9056 C73.5897,30.7996 73.6787,30.6786 73.7307,30.5726 C73.9767,30.0636 74.0867,29.4006 74.1317,28.7486 C74.1607,28.3316 74.1767,27.8406 74.1687,27.4256 C74.1557,26.6756 73.8607,26.0906 73.6547,25.5316" id="Fill-1" fill="#414042"></path>
            <g id="Group-5" transform="translate(0.000000, 41.506000)">
                <mask id="mask-2" fill="white">
                    <use xlink:href="#path-1"></use>
                </mask>
                <g id="Clip-4"></g>
                <path d="M7.3254,5.7465 C7.1914,6.4695 7.1914,7.1645 7.2714,7.8605 C7.3524,8.5565 7.5124,9.2525 7.7534,9.9475 C7.9674,10.6425 8.1554,11.3115 8.3154,11.9805 C8.4494,12.6495 8.5294,13.3185 8.5024,13.9615 C8.4754,14.6305 8.2884,15.2455 7.9134,15.8605 C7.6464,16.2895 7.3524,16.6375 7.0314,16.8775 C6.7094,17.1185 6.3884,17.3065 6.0674,17.3865 C5.7204,17.4665 5.3984,17.4935 5.0514,17.4665 C4.7034,17.4395 4.3824,17.3865 4.0874,17.2525 C3.6334,17.0645 3.2584,16.7705 3.0174,16.3695 C2.7764,15.9685 2.6164,15.5405 2.5894,15.0855 C2.5624,14.6305 2.6164,14.1485 2.8034,13.6675 C2.9644,13.2125 3.2314,12.7835 3.6064,12.4355 C3.7664,12.3025 3.7934,12.1685 3.6864,12.0345 C3.5794,11.9005 3.3914,11.8205 3.1514,11.7405 C2.9104,11.6865 2.6164,11.6605 2.2954,11.6605 C1.9734,11.6865 1.6794,11.7405 1.4114,11.8745 C0.9834,12.0615 0.6624,12.3555 0.4224,12.7575 C0.1804,13.1585 0.0474,13.5865 0.0204,14.0685 C-0.0326,14.5505 0.0204,15.0315 0.1544,15.5405 C0.2884,16.0485 0.5024,16.5295 0.7964,16.9315 C1.0914,17.3595 1.4924,17.7075 1.9734,18.0015 C2.4294,18.2965 2.9904,18.4825 3.6064,18.5365 C4.9174,18.6435 6.1484,18.4825 7.2984,18.0555 C8.4224,17.6275 9.4124,16.7705 10.2954,15.4865 C10.8044,14.7105 11.1244,13.9345 11.2584,13.1585 C11.3924,12.3825 11.3924,11.6335 11.2854,10.9105 C11.1784,10.1885 11.0174,9.4925 10.7774,8.7975 C10.5364,8.1285 10.3224,7.4595 10.1354,6.8445 C9.9474,6.2275 9.8134,5.6665 9.7864,5.1045 C9.7604,4.5695 9.8674,4.0875 10.1614,3.6335 C10.3754,3.2845 10.6434,2.9645 10.9914,2.6695 C11.3124,2.3755 11.6864,2.1345 12.0884,1.9465 C12.4894,1.7605 12.9444,1.6525 13.3994,1.5725 C13.8544,1.5185 14.3354,1.5455 14.8444,1.6265 L14.8974,1.8405 C14.8444,1.9465 14.7634,2.0545 14.6834,2.1615 C14.6034,2.2955 14.4964,2.4015 14.3894,2.5095 C14.2554,2.6425 14.1754,2.7495 14.0954,2.8305 C13.9614,2.9905 13.9344,3.1245 14.0144,3.2045 C14.0954,3.3115 14.2014,3.3925 14.3894,3.4185 C14.5764,3.4455 14.7634,3.4455 15.0044,3.4185 C15.2454,3.3925 15.4594,3.3655 15.6474,3.3115 C16.0484,3.1785 16.4234,2.9365 16.7704,2.6155 C17.1184,2.2955 17.3594,2.0005 17.5194,1.7065 C17.7614,1.2255 17.7614,0.9035 17.4664,0.7425 C17.1724,0.5825 16.7974,0.5025 16.2894,0.5025 C14.3354,0.5025 12.7304,0.7425 11.4724,1.2515 C10.2154,1.7605 9.1714,2.5625 8.3424,3.6335 C7.7804,4.3545 7.4594,5.0515 7.3254,5.7465 Z M12.0344,14.5225 C11.6064,15.2995 11.3654,15.9945 11.3114,16.5575 C11.2584,17.1445 11.3654,17.6005 11.6334,17.9475 C11.9004,18.2965 12.2754,18.4565 12.7834,18.4565 C13.1314,18.4565 13.5324,18.3765 13.9334,18.1885 C14.3354,18.0285 14.7104,17.8135 15.1114,17.5465 C15.5134,17.3065 15.8874,17.0115 16.2624,16.6905 C16.6364,16.3695 16.9844,16.0485 17.3054,15.7545 C17.1444,16.1555 17.0644,16.5575 17.0374,16.9045 C17.0114,17.2525 17.0374,17.5735 17.1714,17.8135 C17.2784,18.0555 17.4664,18.2425 17.7604,18.3495 C18.0284,18.4825 18.3754,18.4825 18.8304,18.4025 C19.2324,18.3225 19.6594,18.1355 20.1154,17.8415 C20.5704,17.5465 21.0514,17.2255 21.5594,16.8245 C22.0414,16.4235 22.5234,15.9945 23.0044,15.5405 C23.4864,15.0855 23.9414,14.6305 24.3424,14.2025 C24.7434,13.7735 25.0654,13.3725 25.3594,13.0245 C25.6544,12.6775 25.8414,12.4095 25.9744,12.2225 C26.1084,12.0085 26.1894,11.8205 26.2154,11.6335 C26.2424,11.4455 26.2154,11.3115 26.1354,11.2315 C26.0554,11.1515 25.9214,11.1515 25.7614,11.2315 C25.5734,11.3115 25.3864,11.4995 25.1454,11.7945 C24.7704,12.2485 24.3164,12.7305 23.8074,13.2665 C23.2994,13.8015 22.7904,14.3095 22.2824,14.7645 C21.7744,15.2195 21.2924,15.5935 20.8904,15.8885 C20.4624,16.1825 20.1684,16.2895 19.9814,16.2355 C19.8474,16.2095 19.7934,16.0485 19.8474,15.8085 C19.8744,15.5665 20.0614,15.1915 20.4094,14.6565 C20.6504,14.2285 20.9714,13.7475 21.3194,13.2385 C21.6664,12.7305 22.0144,12.2485 22.3624,11.7675 C22.6834,11.3115 22.9784,10.9105 23.2454,10.5625 C23.5134,10.2155 23.6734,10.0015 23.7544,9.9215 C23.9414,9.6805 24.0214,9.4665 23.9944,9.2785 C23.9414,9.1185 23.7814,9.0375 23.5394,9.0375 L22.7634,9.0375 C22.5504,9.0375 22.3094,9.0915 22.0684,9.1985 C21.8274,9.3055 21.5864,9.4665 21.3994,9.6535 C21.0784,9.3585 20.6774,9.1715 20.1684,9.0645 C19.6594,8.9845 19.0984,9.0115 18.4554,9.1715 C17.8134,9.3585 17.1174,9.6805 16.3684,10.1355 C15.6194,10.5905 14.8444,11.2315 14.0144,12.0345 C13.1314,12.9175 12.4624,13.7475 12.0344,14.5225 Z M16.4754,11.8745 C16.9304,11.4735 17.4394,11.0985 17.9474,10.8045 C18.4554,10.5095 18.9644,10.2955 19.4724,10.1885 C19.9814,10.0815 20.4364,10.1355 20.8374,10.3755 L20.5434,10.7505 C20.3024,11.0715 19.9814,11.4735 19.5794,11.9545 C19.1784,12.4355 18.7504,12.9175 18.2954,13.3995 C17.8404,13.9075 17.3594,14.3625 16.9044,14.7905 C16.4494,15.2455 16.0214,15.5665 15.6194,15.8085 C15.0574,16.1555 14.6564,16.3155 14.4154,16.2625 C14.1484,16.2095 14.0144,16.0215 14.0144,15.7005 C13.9874,15.4065 14.0944,15.0055 14.3354,14.5225 C14.5494,14.0685 14.8704,13.5865 15.2984,13.1045 C15.6194,12.7035 16.0214,12.3025 16.4754,11.8745 Z M29.3464,9.2785 C29.2924,9.1185 29.1314,9.0375 28.8904,9.0375 L28.1154,9.0375 C27.8744,9.0375 27.5794,9.1185 27.2854,9.2785 C26.9914,9.4385 26.7234,9.6535 26.5364,9.9215 C26.4294,10.0555 26.2154,10.3225 25.9204,10.7245 C25.6264,11.1255 25.2784,11.5795 24.9304,12.0885 C24.5824,12.5975 24.2354,13.1325 23.8874,13.6405 C23.5394,14.1755 23.2444,14.6305 23.0574,14.9775 C22.7634,15.4595 22.5754,15.9145 22.4694,16.3695 C22.3624,16.8245 22.3624,17.2255 22.4424,17.5735 C22.5224,17.9215 22.6824,18.1625 22.9774,18.3225 C23.2714,18.4825 23.6734,18.5105 24.1814,18.4025 C24.5824,18.3225 25.0114,18.1355 25.4664,17.8415 C25.9204,17.5465 26.4024,17.2255 26.9104,16.8245 C27.3924,16.4235 27.8744,15.9945 28.3554,15.5405 C28.8374,15.0855 29.2924,14.6305 29.6934,14.2025 C30.0954,13.7735 30.4164,13.3725 30.7104,13.0245 C31.0044,12.6775 31.1924,12.4095 31.3254,12.2225 C31.4594,12.0085 31.5394,11.8205 31.5664,11.6335 C31.5934,11.4455 31.5664,11.3115 31.4864,11.2315 C31.4064,11.1515 31.2724,11.1515 31.1114,11.2315 C30.9244,11.3115 30.7374,11.4995 30.4964,11.7945 C30.1214,12.2485 29.6664,12.7305 29.1584,13.2665 C28.6504,13.8015 28.1414,14.3095 27.6334,14.7645 C27.1244,15.2195 26.6434,15.5935 26.2424,15.8885 C25.8134,16.1825 25.5194,16.2895 25.3324,16.2355 C25.1984,16.2095 25.1444,16.0485 25.1714,15.8085 C25.1984,15.5665 25.3854,15.1915 25.7334,14.6565 C26.0014,14.2285 26.3224,13.7475 26.6704,13.2385 C27.0174,12.7305 27.3654,12.2485 27.7134,11.7675 C28.0344,11.3115 28.3284,10.9105 28.5964,10.5625 C28.8644,10.2155 29.0244,10.0015 29.1044,9.9215 C29.2924,9.6805 29.3724,9.4665 29.3464,9.2785 Z M31.3254,4.7565 C31.0314,4.4885 30.6834,4.3545 30.2824,4.3545 C29.8814,4.3545 29.5334,4.4885 29.2384,4.7565 C28.9444,5.0515 28.8104,5.3985 28.8104,5.8005 C28.8104,6.2015 28.9444,6.5495 29.2384,6.8445 C29.5334,7.1385 29.8814,7.2715 30.2824,7.2715 C30.6834,7.2715 31.0314,7.1385 31.3254,6.8445 C31.5934,6.5495 31.7274,6.2015 31.7274,5.8005 C31.7274,5.3985 31.5934,5.0515 31.3254,4.7565 Z M40.6374,0.7425 C40.6104,0.5565 40.4504,0.4755 40.2084,0.4755 L39.4324,0.4755 C39.1924,0.4755 38.8974,0.5565 38.6034,0.7165 C38.3094,0.9035 38.0414,1.1175 37.8274,1.3855 C37.7744,1.4655 37.6134,1.6795 37.3464,2.0545 C37.0514,2.4555 36.7034,2.9365 36.3024,3.5255 C35.8744,4.1145 35.3924,4.7835 34.8844,5.5325 C34.3484,6.2815 33.8134,7.0585 33.2514,7.8335 C32.6904,8.6095 32.1554,9.3865 31.6194,10.1615 C31.0844,10.9375 30.6024,11.6605 30.1484,12.3025 C29.6934,12.9715 29.3184,13.5335 29.0244,13.9875 C28.7034,14.4705 28.4894,14.7905 28.3824,14.9775 C28.1144,15.4595 27.9274,15.9145 27.8204,16.3695 C27.6864,16.8245 27.6864,17.2255 27.7664,17.5735 C27.8464,17.9215 28.0344,18.1625 28.3284,18.3225 C28.6224,18.4825 29.0244,18.5105 29.5324,18.4025 C29.9334,18.3225 30.3624,18.1355 30.8174,17.8415 C31.2714,17.5465 31.7534,17.2255 32.2624,16.8245 C32.7434,16.4235 33.2254,15.9945 33.7064,15.5405 C34.1614,15.0855 34.6164,14.6305 35.0174,14.2025 C35.4194,13.7735 35.7674,13.3725 36.0614,13.0245 C36.3554,12.6775 36.5434,12.4095 36.6774,12.2225 C36.8104,12.0085 36.8644,11.8205 36.8904,11.6335 C36.9174,11.4455 36.8904,11.3115 36.8104,11.2315 C36.7304,11.1515 36.5964,11.1515 36.4364,11.2315 C36.2484,11.3115 36.0614,11.4995 35.8204,11.7945 C35.4724,12.2485 35.0174,12.7305 34.5094,13.2665 C34.0014,13.8015 33.4924,14.3095 32.9844,14.7645 C32.4754,15.2195 31.9944,15.5935 31.5664,15.8885 C31.1374,16.1825 30.8444,16.2895 30.6564,16.2355 C30.5224,16.2095 30.4694,16.0485 30.5224,15.8085 C30.5494,15.5665 30.7364,15.1915 31.0844,14.6565 C31.2454,14.3625 31.5934,13.8535 32.1014,13.1045 C32.6094,12.3555 33.2254,11.4995 33.8944,10.5365 C34.5634,9.5725 35.2854,8.5565 36.0344,7.4855 C36.7844,6.4425 37.4794,5.4525 38.1214,4.5695 C38.7374,3.6855 39.2724,2.9645 39.7004,2.3485 C40.1284,1.7605 40.3694,1.4385 40.3964,1.3855 C40.5834,1.1435 40.6634,0.9305 40.6374,0.7425 Z M41.4924,9.0375 C40.9844,8.9845 40.4494,9.0375 39.8614,9.1985 C39.2454,9.3865 38.6304,9.6535 37.9884,10.0275 C37.3194,10.4295 36.7034,10.9105 36.0884,11.4995 C35.4724,12.0615 34.9374,12.6775 34.5364,13.2925 C34.1084,13.9075 33.7864,14.5225 33.5734,15.1115 C33.3584,15.7005 33.2784,16.2355 33.3054,16.7175 C33.3324,17.2255 33.4924,17.6275 33.7864,17.9475 C34.0814,18.2685 34.4554,18.4565 34.9644,18.5105 C35.4724,18.5635 36.0084,18.5105 36.5964,18.3225 C37.1854,18.1625 37.8004,17.8945 38.4694,17.4935 C39.1114,17.1185 39.7274,16.6375 40.3424,16.0755 C40.9574,15.5135 41.4924,14.8975 41.9214,14.2825 C42.3494,13.6675 42.6704,13.0515 42.8844,12.4635 C43.0984,11.8745 43.1794,11.3395 43.1524,10.8305 C43.1254,10.3495 42.9644,9.9475 42.6704,9.6265 C42.3764,9.3055 41.9744,9.1185 41.4924,9.0375 Z M38.9244,15.5135 C38.5764,15.8605 38.2284,16.1285 37.9074,16.3155 C37.5594,16.5295 37.2654,16.6635 36.9974,16.7175 C36.7034,16.7705 36.4894,16.7435 36.3024,16.6095 C36.1414,16.4755 36.0614,16.2895 36.0344,15.9945 C36.0084,15.7265 36.0344,15.4065 36.1414,15.0315 C36.2484,14.6845 36.4094,14.2825 36.6504,13.8535 C36.8644,13.4265 37.1314,12.9985 37.4794,12.5435 C37.8274,12.0885 38.1754,11.7135 38.5494,11.3655 C38.8974,11.0175 39.2454,10.7505 39.5934,10.5365 C39.9144,10.3225 40.2084,10.1885 40.5034,10.1355 C40.7704,10.0815 40.9844,10.1075 41.1724,10.2415 C41.3324,10.3755 41.4394,10.5625 41.4664,10.8305 C41.4924,11.1255 41.4394,11.4455 41.3324,11.8205 C41.2254,12.1955 41.0654,12.5975 40.8244,13.0245 C40.5834,13.4525 40.3154,13.8815 39.9684,14.3365 C39.6194,14.7905 39.2724,15.1655 38.9244,15.5135 Z M51.5264,12.9175 C51.0984,13.2125 50.5904,13.4795 50.0284,13.6675 C50.1084,13.4795 50.3234,13.1585 50.6974,12.7575 C51.0724,12.3555 51.4464,11.9005 51.8214,11.4455 C52.1954,10.9915 52.4904,10.5365 52.7044,10.0815 C52.9184,9.6535 52.9184,9.3055 52.6774,9.0645 C52.5434,8.9315 52.3294,8.8775 52.0354,8.9035 C51.7144,8.9315 51.3394,9.0115 50.9114,9.1985 C50.4564,9.3865 49.9744,9.6265 49.4394,9.9475 C48.9044,10.2955 48.3694,10.6965 47.8074,11.1785 L48.7434,9.9215 C48.9314,9.6805 49.0114,9.4665 48.9854,9.2785 C48.9314,9.1185 48.7704,9.0375 48.5304,9.0375 L47.7544,9.0375 C47.5134,9.0375 47.2194,9.1185 46.9244,9.2785 C46.6304,9.4385 46.3624,9.6535 46.1754,9.9215 L40.7974,17.5465 C40.6094,17.7875 40.5294,18.0015 40.5564,18.1885 C40.5824,18.3765 40.7434,18.4565 40.9844,18.4565 L41.7604,18.4565 C42.0014,18.4565 42.2954,18.3765 42.5894,18.1885 C42.8844,18.0285 43.1514,17.8135 43.3664,17.5465 C43.4994,17.3325 43.6864,17.0925 43.8744,16.8245 C44.0344,16.5835 44.2214,16.3155 44.4364,15.9945 C44.6504,15.7005 44.8904,15.3525 45.1314,15.0055 C45.3724,14.6565 45.6934,14.2555 46.0954,13.8535 C46.4694,13.4525 46.8704,13.0515 47.2724,12.6775 C47.6734,12.3295 48.1014,12.0085 48.5034,11.7135 C48.9044,11.4455 49.2254,11.2855 49.5204,11.2055 C49.3324,11.4455 49.1184,11.7675 48.8244,12.1145 C48.5304,12.4635 48.2354,12.8375 47.9684,13.1845 C47.7004,13.5595 47.4864,13.9075 47.2994,14.2025 C47.1124,14.4965 47.0314,14.7375 47.0584,14.8715 C47.1124,15.1115 47.3794,15.2455 47.8344,15.2995 C48.2894,15.3525 48.8244,15.2725 49.4664,15.0855 C50.1084,14.8975 50.8044,14.5765 51.5534,14.1215 C52.3034,13.6675 52.9984,13.0245 53.6674,12.2225 C53.8544,11.9805 53.9344,11.7945 53.9614,11.6605 C53.9614,11.5265 53.9084,11.4195 53.8014,11.3925 C53.6944,11.3655 53.5604,11.3655 53.3734,11.4195 C53.1854,11.4995 52.9984,11.6065 52.8114,11.7945 C52.3564,12.2485 51.9284,12.6235 51.5264,12.9175 Z M56.5564,7.7535 C56.5304,7.8875 56.5834,7.9945 56.6904,8.0205 C56.7704,8.0485 56.9314,8.0205 57.1184,7.9405 C57.3054,7.8605 57.5734,7.6735 57.8674,7.3795 C58.4834,6.7905 59.0454,6.2555 59.5004,5.7465 C59.9554,5.2385 60.4094,4.7295 60.8654,4.2215 C61.2124,3.7935 61.3734,3.4185 61.2934,3.1245 C61.2124,2.8305 61.0524,2.6425 60.7844,2.5355 C60.4904,2.4295 60.1694,2.4295 59.8214,2.5355 C59.4734,2.6695 59.1794,2.9105 58.9924,3.3115 C58.6974,3.9275 58.3764,4.5425 58.0554,5.2115 C57.7344,5.8805 57.3054,6.5495 56.7704,7.2455 C56.6374,7.4325 56.5564,7.6195 56.5564,7.7535 Z M58.8304,12.1955 C58.7774,12.5435 58.8304,12.8645 58.9914,13.1045 C59.1254,13.3725 59.3394,13.6135 59.6334,13.8015 C59.9014,14.0155 60.1684,14.2285 60.4094,14.4165 C60.6504,14.6305 60.8374,14.8445 60.9714,15.0855 C61.1054,15.3255 61.1324,15.5935 60.9984,15.9145 C60.8644,16.2355 60.7034,16.5035 60.4634,16.6905 C60.2224,16.9045 59.9814,17.0645 59.7144,17.1725 C59.4464,17.3065 59.1794,17.3595 58.9114,17.3865 C58.6434,17.4125 58.4024,17.3595 58.2154,17.2785 C58.0284,17.1985 57.9214,17.0925 57.9214,16.9045 C57.9214,16.7435 57.9744,16.5575 58.0814,16.3435 C58.1614,16.1555 58.2954,15.9415 58.4564,15.7545 C58.6174,15.5665 58.7504,15.4335 58.8844,15.2995 C59.0454,15.1655 59.0714,15.0315 58.9644,14.9245 C58.8574,14.8175 58.6974,14.7375 58.4834,14.6845 C58.2684,14.6305 58.0284,14.6035 57.7604,14.6035 C57.4664,14.6035 57.2524,14.6565 57.0644,14.7375 C56.7174,14.8975 56.4494,15.1655 56.2354,15.5405 C55.9944,15.9145 55.8874,16.2895 55.9144,16.6905 C55.9144,17.0925 56.0754,17.4665 56.3954,17.8135 C56.6904,18.1625 57.1984,18.3495 57.9214,18.4025 C58.4294,18.4305 58.9374,18.4025 59.4464,18.3225 C59.9544,18.2425 60.4094,18.1085 60.8644,17.8945 C61.3194,17.7075 61.7204,17.4395 62.0954,17.0925 C62.4704,16.7705 62.7644,16.3955 63.0054,15.9685 C63.2994,15.4335 63.4064,14.9775 63.3794,14.6035 C63.3264,14.2285 63.1924,13.9075 62.9784,13.6405 C62.7644,13.3725 62.4964,13.1325 62.2024,12.9175 C61.8814,12.7305 61.5864,12.5435 61.3464,12.3555 C61.1054,12.1685 60.9184,11.9805 60.8104,11.7675 C60.6774,11.5795 60.7034,11.3395 60.8914,11.0715 C61.0784,10.7765 61.3724,10.5365 61.7204,10.3755 C62.0684,10.2155 62.3894,10.1615 62.6304,10.1885 L62.6574,10.4295 C62.6034,10.5365 62.5234,10.6425 62.4434,10.7765 C62.3634,10.9105 62.2554,11.0175 62.1484,11.1255 C62.0414,11.2595 61.9614,11.3655 61.8814,11.4455 C61.7474,11.6065 61.7204,11.7405 61.8014,11.8205 C61.8814,11.9005 61.9884,11.9805 62.1754,12.0085 C62.3634,12.0345 62.5504,12.0345 62.7904,12.0085 C63.0324,11.9805 63.2454,11.9545 63.4334,11.9005 C63.8344,11.7675 64.2094,11.5265 64.5564,11.2055 C64.8784,10.8845 65.1184,10.5905 65.2794,10.2955 C65.5474,9.8135 65.5474,9.4925 65.2524,9.3325 C64.9584,9.1715 64.5834,9.0915 64.0754,9.0915 C63.0324,9.0915 62.1214,9.2525 61.3464,9.5725 C60.5704,9.8935 59.9544,10.3495 59.4994,10.9105 C59.0984,11.4195 58.8844,11.8475 58.8304,12.1955 Z M77.4264,9.8135 C77.1054,9.8135 76.9184,9.8935 76.8644,10.0555 C76.8114,10.2155 76.8644,10.3755 76.9984,10.5625 C77.1324,10.7505 77.3724,10.9375 77.7214,11.0985 C78.0414,11.2595 78.4434,11.3395 78.8984,11.3395 L79.6204,11.3395 C79.0854,12.1685 78.5504,12.9445 78.0414,13.6675 C77.5064,14.4165 76.9714,15.0585 76.4364,15.6205 C75.8744,16.1825 75.3124,16.6095 74.7504,16.9315 C74.1614,17.2525 73.5464,17.4125 72.9044,17.4125 C72.6104,17.4125 72.3154,17.3865 72.0754,17.3065 C71.8074,17.2525 71.5664,17.1725 71.3794,17.0925 C71.1654,17.0115 70.9774,16.9585 70.8174,16.8775 C70.6574,16.7975 70.5234,16.7705 70.4424,16.7435 C70.3084,16.7175 70.2284,16.7975 70.2014,16.9845 C70.1754,17.1725 70.2554,17.3325 70.3894,17.4935 C70.6304,17.7875 70.9774,18.0285 71.3794,18.2155 C71.7804,18.4025 72.2354,18.5105 72.7434,18.5105 C73.7604,18.5105 74.6974,18.3765 75.5534,18.0815 C76.4094,17.7875 77.2394,17.3595 78.0144,16.7705 C78.7914,16.1825 79.5404,15.4335 80.2894,14.5225 C81.0384,13.6405 81.8414,12.5695 82.6714,11.3395 L87.0594,11.3395 C86.4434,12.2225 85.9084,12.9985 85.4804,13.6675 C85.0254,14.3365 84.7314,14.7905 84.5974,15.0055 C84.3294,15.5135 84.1424,15.9685 84.0354,16.4235 C83.9284,16.8775 83.9284,17.2785 84.0094,17.6005 C84.0894,17.9475 84.2494,18.1885 84.5444,18.3495 C84.8384,18.5105 85.2394,18.5365 85.7484,18.4305 C86.1494,18.3495 86.5774,18.1885 87.0594,17.8945 C87.5134,17.6005 87.9954,17.2525 88.5044,16.8505 C88.9854,16.4495 89.4674,16.0215 89.9494,15.5665 C90.4044,15.1115 90.8584,14.6565 91.2604,14.2025 C91.6614,13.7735 92.0094,13.3725 92.3034,13.0245 C92.5974,12.6775 92.7854,12.4095 92.9194,12.2225 C93.0534,12.0085 93.1334,11.8205 93.1594,11.6335 C93.1864,11.4455 93.1594,11.3115 93.0794,11.2315 C92.9994,11.1515 92.8654,11.1515 92.7044,11.2315 C92.5174,11.3115 92.3304,11.4995 92.0894,11.7945 C91.7154,12.2485 91.2604,12.7305 90.7514,13.2665 C90.2434,13.8275 89.7354,14.3365 89.2264,14.7905 C88.7184,15.2455 88.2364,15.6205 87.8084,15.9145 C87.3804,16.2095 87.0864,16.3435 86.8984,16.2895 C86.7644,16.2625 86.7114,16.1015 86.7384,15.8605 C86.7644,15.6205 86.9524,15.2455 87.3004,14.7105 C87.4874,14.4165 87.8354,13.9075 88.3434,13.1585 C88.8514,12.4095 89.4674,11.5535 90.1364,10.5625 C90.8054,9.6005 91.5004,8.5835 92.2504,7.5395 C92.9994,6.4955 93.6954,5.5065 94.3374,4.6225 C94.9524,3.7395 95.4884,2.9905 95.9154,2.3755 C96.3444,1.7865 96.5844,1.4655 96.6384,1.4115 C96.8264,1.1715 96.9064,0.9575 96.8794,0.7695 C96.8264,0.5825 96.6654,0.5025 96.4244,0.5025 L95.6754,0.5025 C95.4344,0.5025 95.1394,0.5825 94.8454,0.7425 C94.5244,0.9305 94.2574,1.1435 94.0694,1.4115 C93.9894,1.4925 93.7484,1.8405 93.3204,2.4555 C92.8924,3.0705 92.3574,3.7935 91.7424,4.6765 C91.0994,5.5595 90.4044,6.5495 89.6814,7.5935 C88.9584,8.6365 88.2364,9.6535 87.5674,10.6165 C87.3804,10.4295 87.0864,10.2415 86.6844,10.0555 C86.2564,9.8935 85.7214,9.8135 85.1054,9.8135 L83.6874,9.8135 C83.9824,9.3865 84.3294,8.9035 84.7314,8.3425 C85.1324,7.7805 85.5344,7.2185 85.9624,6.6025 C86.3634,6.0145 86.7914,5.4255 87.2204,4.8375 C87.6214,4.2745 87.9954,3.7395 88.3434,3.2845 C88.6644,2.8305 88.9324,2.4295 89.1734,2.1345 C89.3874,1.8405 89.5204,1.6525 89.5474,1.5995 C89.7354,1.3585 89.8154,1.1435 89.7884,0.9575 C89.7614,0.7695 89.6014,0.6895 89.3604,0.6895 L88.2894,0.6895 C87.8084,0.6895 87.4334,0.7965 87.1934,1.0105 C86.9254,1.2255 86.6844,1.4655 86.4974,1.7325 C86.4434,1.8125 86.3094,2.0005 86.0964,2.2955 C85.8554,2.6155 85.5874,2.9905 85.2664,3.4455 C84.9184,3.9005 84.5444,4.4085 84.1424,4.9715 C83.7414,5.5325 83.3134,6.0945 82.9114,6.6565 C82.5104,7.2455 82.1094,7.8075 81.7074,8.3425 C81.3064,8.9035 80.9584,9.3865 80.6644,9.8135 L77.4264,9.8135 Z M97.7614,9.0375 C97.2524,8.9845 96.7174,9.0375 96.1284,9.1985 C95.5134,9.3865 94.8974,9.6535 94.2554,10.0275 C93.5864,10.4295 92.9714,10.9105 92.3564,11.4995 C91.7404,12.0615 91.2054,12.6775 90.8044,13.2925 C90.3754,13.9075 90.0554,14.5225 89.8404,15.1115 C89.6264,15.7005 89.5464,16.2355 89.5734,16.7175 C89.5994,17.2255 89.7604,17.6275 90.0554,17.9475 C90.3494,18.2685 90.7234,18.4565 91.2324,18.5105 C91.7404,18.5635 92.2754,18.5105 92.8644,18.3225 C93.4524,18.1625 94.0684,17.8945 94.7374,17.4935 C95.3794,17.1185 95.9944,16.6375 96.6104,16.0755 C97.2254,15.5135 97.7614,14.8975 98.1894,14.2825 C98.6174,13.6675 98.9384,13.0515 99.1524,12.4635 C99.3664,11.8745 99.4464,11.3395 99.4204,10.8305 C99.3934,10.3495 99.2324,9.9475 98.9384,9.6265 C98.6434,9.3055 98.2424,9.1185 97.7614,9.0375 Z M95.1924,15.5135 C94.8444,15.8605 94.4964,16.1285 94.1754,16.3155 C93.8274,16.5295 93.5334,16.6635 93.2654,16.7175 C92.9714,16.7705 92.7574,16.7435 92.5704,16.6095 C92.4094,16.4755 92.3294,16.2895 92.3024,15.9945 C92.2754,15.7265 92.3024,15.4065 92.4094,15.0315 C92.5164,14.6845 92.6774,14.2825 92.9174,13.8535 C93.1324,13.4265 93.3994,12.9985 93.7474,12.5435 C94.0954,12.0885 94.4434,11.7135 94.8174,11.3655 C95.1654,11.0175 95.5134,10.7505 95.8614,10.5365 C96.1824,10.3225 96.4764,10.1885 96.7704,10.1355 C97.0384,10.0815 97.2524,10.1075 97.4394,10.2415 C97.6004,10.3755 97.7074,10.5625 97.7344,10.8305 C97.7614,11.1255 97.7074,11.4455 97.6004,11.8205 C97.4934,12.1955 97.3324,12.5975 97.0924,13.0245 C96.8514,13.4525 96.5834,13.8815 96.2354,14.3365 C95.8884,14.7905 95.5404,15.1655 95.1924,15.5135 Z M105.2524,9.2785 C105.2254,9.1185 105.0654,9.0375 104.8244,9.0375 L104.0484,9.0375 C103.8074,9.0375 103.5134,9.1185 103.2194,9.2785 C102.9254,9.4385 102.6574,9.6535 102.4434,9.9215 C102.3364,10.0555 102.1484,10.3225 101.8544,10.7245 C101.5604,11.1255 101.2124,11.5795 100.8644,12.0885 C100.5164,12.5975 100.1684,13.1325 99.8214,13.6405 C99.4724,14.1755 99.1794,14.6305 98.9644,14.9775 C98.6174,15.5405 98.4024,16.0485 98.2954,16.5035 C98.1614,16.9585 98.1614,17.3595 98.2684,17.6535 C98.3494,17.9755 98.5634,18.2155 98.8844,18.3495 C99.1794,18.4825 99.6064,18.5105 100.1154,18.4025 C100.6234,18.2965 101.2124,18.0015 101.8814,17.5465 C102.5504,17.0925 103.1924,16.5575 103.8344,15.9415 C103.7014,16.3435 103.6204,16.6905 103.6204,17.0115 C103.5944,17.3595 103.6474,17.6275 103.7814,17.8675 C103.9144,18.1085 104.1024,18.2685 104.3964,18.3765 C104.6644,18.4825 105.0124,18.4825 105.4404,18.4025 C105.8414,18.3225 106.2694,18.1355 106.7244,17.8415 C107.1794,17.5465 107.6604,17.2255 108.1694,16.8245 C108.6514,16.4235 109.1324,15.9945 109.6144,15.5405 C110.0964,15.0855 110.5504,14.6305 110.9514,14.2025 C111.3534,13.7735 111.6744,13.3725 111.9694,13.0245 C112.2634,12.6775 112.4504,12.4095 112.5844,12.2225 C112.7184,12.0085 112.7714,11.8205 112.7984,11.6335 C112.8254,11.4455 112.7984,11.3115 112.7184,11.2315 C112.6384,11.1515 112.5044,11.1515 112.3434,11.2315 C112.1564,11.3115 111.9694,11.4995 111.7284,11.7945 C111.3804,12.2485 110.9254,12.7305 110.4164,13.2665 C109.9084,13.8015 109.4004,14.3095 108.8914,14.7645 C108.3834,15.2195 107.9014,15.5935 107.4734,15.8885 C107.0454,16.1825 106.7514,16.2895 106.5634,16.2355 C106.4304,16.2095 106.4034,16.0485 106.4304,15.8085 C106.4564,15.5665 106.6444,15.1915 106.9924,14.6565 C107.2324,14.2285 107.5544,13.7475 107.9014,13.2385 C108.2494,12.7305 108.5974,12.2485 108.9454,11.7675 C109.2934,11.3115 109.5874,10.9105 109.8554,10.5625 C110.0964,10.2155 110.2564,10.0015 110.3364,9.9215 C110.5244,9.6805 110.6044,9.4665 110.5774,9.2785 C110.5244,9.1185 110.3634,9.0375 110.1224,9.0375 L109.3734,9.0375 C109.1324,9.0375 108.8384,9.1185 108.5434,9.2785 C108.2494,9.4385 107.9824,9.6535 107.7674,9.9215 C107.6874,10.0555 107.5004,10.2685 107.2324,10.6165 C106.9654,10.9645 106.6714,11.3925 106.3494,11.8475 C105.9754,12.3025 105.5474,12.7835 105.0384,13.3185 C104.5304,13.8535 104.0214,14.3365 103.5134,14.7905 C103.0054,15.2455 102.5504,15.6205 102.1484,15.8885 C101.7474,16.1825 101.4534,16.2895 101.2654,16.2355 C101.1324,16.2095 101.0784,16.0485 101.1054,15.8085 C101.1324,15.5665 101.3194,15.1915 101.6674,14.6565 C101.9344,14.2285 102.2564,13.7475 102.6034,13.2385 C102.9514,12.7305 103.2994,12.2485 103.6474,11.7675 C103.9684,11.3115 104.2634,10.9105 104.5304,10.5625 C104.7714,10.2155 104.9314,10.0015 105.0124,9.9215 C105.1994,9.6805 105.2794,9.4665 105.2524,9.2785 Z M111.6474,12.1955 C111.5944,12.5435 111.6474,12.8645 111.8074,13.1045 C111.9414,13.3725 112.1554,13.6135 112.4504,13.8015 C112.7174,14.0155 112.9854,14.2285 113.2254,14.4165 C113.4674,14.6305 113.6544,14.8445 113.7874,15.0855 C113.9214,15.3255 113.9484,15.5935 113.8144,15.9145 C113.6804,16.2355 113.5204,16.5035 113.2794,16.6905 C113.0384,16.9045 112.7984,17.0645 112.5304,17.1725 C112.2634,17.3065 111.9954,17.3595 111.7274,17.3865 C111.4604,17.4125 111.2194,17.3595 111.0324,17.2785 C110.8444,17.1985 110.7374,17.0925 110.7374,16.9045 C110.7374,16.7435 110.7914,16.5575 110.8984,16.3435 C110.9784,16.1555 111.1124,15.9415 111.2724,15.7545 C111.4334,15.5665 111.5674,15.4335 111.7014,15.2995 C111.8614,15.1655 111.8884,15.0315 111.7814,14.9245 C111.6744,14.8175 111.5134,14.7375 111.2994,14.6845 C111.0854,14.6305 110.8444,14.6035 110.5764,14.6035 C110.2824,14.6035 110.0684,14.6565 109.8814,14.7375 C109.5334,14.8975 109.2654,15.1655 109.0524,15.5405 C108.8104,15.9145 108.7034,16.2895 108.7304,16.6905 C108.7304,17.0925 108.8914,17.4665 109.2124,17.8135 C109.5064,18.1625 110.0144,18.3495 110.7374,18.4025 C111.2454,18.4305 111.7544,18.4025 112.2634,18.3225 C112.7714,18.2425 113.2254,18.1085 113.6804,17.8945 C114.1364,17.7075 114.5374,17.4395 114.9114,17.0925 C115.2864,16.7705 115.5804,16.3955 115.8214,15.9685 C116.1164,15.4335 116.2224,14.9775 116.1964,14.6035 C116.1424,14.2285 116.0084,13.9075 115.7944,13.6405 C115.5804,13.3725 115.3134,13.1325 115.0184,12.9175 C114.6974,12.7305 114.4034,12.5435 114.1624,12.3555 C113.9214,12.1685 113.7344,11.9805 113.6274,11.7675 C113.4934,11.5795 113.5204,11.3395 113.7074,11.0715 C113.8944,10.7765 114.1894,10.5365 114.5374,10.3755 C114.8854,10.2155 115.2064,10.1615 115.4474,10.1885 L115.4734,10.4295 C115.4204,10.5365 115.3394,10.6425 115.2594,10.7765 C115.1794,10.9105 115.0724,11.0175 114.9654,11.1255 C114.8584,11.2595 114.7784,11.3655 114.6974,11.4455 C114.5634,11.6065 114.5374,11.7405 114.6174,11.8205 C114.6974,11.9005 114.8054,11.9805 114.9924,12.0085 C115.1794,12.0345 115.3664,12.0345 115.6074,12.0085 C115.8484,11.9805 116.0624,11.9545 116.2494,11.9005 C116.6514,11.7675 117.0254,11.5265 117.3734,11.2055 C117.6944,10.8845 117.9354,10.5905 118.0964,10.2955 C118.3634,9.8135 118.3634,9.4925 118.0694,9.3325 C117.7744,9.1715 117.4004,9.0915 116.8914,9.0915 C115.8484,9.0915 114.9384,9.2525 114.1624,9.5725 C113.3864,9.8935 112.7714,10.3495 112.3164,10.9105 C111.9144,11.4195 111.7014,11.8475 111.6474,12.1955 Z M126.8984,10.5625 C126.9254,10.2415 126.8714,9.9745 126.7384,9.7335 C126.5774,9.5195 126.3364,9.3325 126.0424,9.1985 C125.7474,9.0645 125.3734,9.0115 124.9714,9.0115 C123.9284,9.0115 122.9654,9.2525 122.0554,9.7065 C121.1184,10.1615 120.3164,10.7505 119.6204,11.4455 C118.9254,12.1685 118.3634,12.9175 117.9344,13.7205 C117.5064,14.5505 117.2654,15.2995 117.2394,15.9945 C117.1854,16.7175 117.3464,17.3065 117.7474,17.7615 C118.1484,18.2155 118.7914,18.4565 119.7274,18.4565 C120.3694,18.4565 121.0924,18.2425 121.9214,17.8415 C122.7514,17.4395 123.5804,16.9045 124.4364,16.2895 C125.2934,15.6745 126.1224,15.0055 126.9254,14.2825 C127.7284,13.5595 128.4234,12.8645 128.9854,12.2225 C129.1464,12.0345 129.2534,11.8475 129.2804,11.6605 C129.3064,11.4995 129.2534,11.3925 129.1734,11.3115 C129.0924,11.2595 128.9584,11.2595 128.7714,11.3115 C128.5844,11.3655 128.3704,11.5265 128.1294,11.7945 C127.5134,12.4355 126.8454,13.0515 126.0964,13.6675 C125.3464,14.2825 124.5974,14.8445 123.8744,15.2995 C123.1524,15.7545 122.4564,16.1285 121.8414,16.3695 C121.2254,16.6095 120.7174,16.6905 120.3694,16.5835 C120.0214,16.5035 119.7814,16.2895 119.7014,15.9415 C119.6204,15.6205 119.6204,15.2455 119.7274,14.7905 C120.4504,14.7375 121.1724,14.6035 121.8684,14.4165 C122.5634,14.2285 123.2054,13.9875 123.7944,13.6935 C124.3834,13.3995 124.9184,13.0785 125.3734,12.7305 C125.8284,12.3825 126.1764,12.0085 126.4434,11.6065 C126.7114,11.2315 126.8714,10.8845 126.8984,10.5625 Z M124.2764,10.2415 C124.5174,10.3225 124.6514,10.4825 124.6774,10.6965 C124.7044,10.9105 124.6244,11.1785 124.4634,11.4735 C124.2764,11.7945 124.0084,12.0885 123.6344,12.3825 C123.2594,12.6775 122.7784,12.9445 122.1894,13.1845 C121.6004,13.4265 120.9054,13.6135 120.1024,13.6935 C120.2634,13.3465 120.4504,12.9715 120.6904,12.6235 C120.9314,12.2755 121.1724,11.9285 121.4674,11.6065 C121.7344,11.3115 122.0284,11.0445 122.3234,10.8045 C122.6174,10.5905 122.9384,10.4295 123.2324,10.3225 C123.6874,10.1885 124.0354,10.1615 124.2764,10.2415 Z" id="Fill-3" fill="#414042" mask="url(#mask-2)"></path>
            </g>
            <g id="Group-8" transform="translate(20.000000, 98.506000)">
                <mask id="mask-4" fill="white">
                    <use xlink:href="#path-3"></use>
                </mask>
                <g id="Clip-7"></g>
                <path d="M3.864,3.3354 C4.031,3.2764 4.169,3.2074 4.267,3.1394 L4.395,2.9414 C4.385,2.8834 4.297,2.8544 4.13,2.8544 C3.874,2.8544 3.657,2.7944 3.49,2.6664 C3.313,2.5484 3.186,2.4004 3.107,2.2144 C3.018,2.0274 2.989,1.8304 3.018,1.6144 C3.038,1.3984 3.127,1.2014 3.274,1.0144 C3.422,0.8274 3.628,0.6804 3.904,0.5524 C4.169,0.4344 4.513,0.3754 4.936,0.3754 C5.172,0.3754 5.438,0.3854 5.723,0.4144 C6.008,0.4434 6.293,0.4744 6.598,0.5134 C6.559,0.5624 6.48,0.6704 6.362,0.8374 C6.234,1.0044 6.096,1.2014 5.939,1.4274 C5.772,1.6534 5.605,1.8994 5.418,2.1554 C5.231,2.4204 5.054,2.6664 4.887,2.9024 C4.719,3.1394 4.562,3.3454 4.434,3.5314 C4.307,3.7194 4.208,3.8564 4.159,3.9354 C3.953,4.2394 3.746,4.5354 3.55,4.8204 C3.353,5.1064 3.156,5.3514 2.949,5.5584 C2.743,5.7644 2.536,5.9324 2.32,6.0604 C2.104,6.1874 1.878,6.2464 1.632,6.2464 C1.524,6.2464 1.415,6.2364 1.327,6.2074 C1.229,6.1874 1.14,6.1574 1.061,6.1284 L0.864,6.0494 L0.717,6.0004 L0.638,6.0894 L0.697,6.2754 C0.894,6.5224 1.189,6.6494 1.572,6.6494 C1.956,6.6494 2.31,6.5904 2.635,6.4724 C2.959,6.3644 3.264,6.1874 3.559,5.9514 C3.854,5.7254 4.149,5.4304 4.434,5.0754 C4.719,4.7224 5.025,4.2994 5.349,3.8164 C5.408,3.7294 5.497,3.6104 5.605,3.4434 C5.713,3.2864 5.841,3.1084 5.989,2.9024 C6.126,2.7064 6.274,2.4994 6.431,2.2734 C6.578,2.0574 6.736,1.8504 6.883,1.6444 C7.031,1.4374 7.158,1.2504 7.286,1.0734 C7.414,0.9064 7.512,0.7594 7.592,0.6504 C7.837,0.6894 8.063,0.7294 8.29,0.7594 C8.506,0.7984 8.702,0.8274 8.889,0.8564 C9.076,0.8864 9.234,0.9164 9.371,0.9264 C9.509,0.9454 9.617,0.9554 9.686,0.9554 C9.824,0.9554 9.962,0.9064 10.109,0.8084 C10.247,0.7094 10.355,0.6014 10.443,0.4834 C10.522,0.3754 10.561,0.2674 10.561,0.1684 C10.551,0.0704 10.473,0.0214 10.325,0.0214 L4.956,0.0214 C4.365,0.0214 3.874,0.1004 3.471,0.2674 C3.068,0.4344 2.743,0.6504 2.507,0.8974 C2.271,1.1514 2.114,1.4274 2.045,1.7224 C1.966,2.0184 1.966,2.2934 2.045,2.5384 C2.114,2.7944 2.261,3.0014 2.488,3.1684 C2.704,3.3354 2.979,3.4244 3.323,3.4244 C3.51,3.4244 3.697,3.3944 3.864,3.3354 M8.244,3.4534 C7.998,3.6014 7.742,3.7874 7.496,3.9944 L10.044,0.3564 L10.132,0.1194 L9.965,0.0214 L9.679,0.0214 C9.591,0.0214 9.483,0.0514 9.375,0.1094 C9.267,0.1784 9.168,0.2574 9.099,0.3564 L4.949,6.2954 L4.861,6.5314 L5.018,6.6304 L5.303,6.6304 C5.392,6.6304 5.5,6.6004 5.608,6.5314 C5.717,6.4724 5.815,6.3944 5.893,6.2954 L6.326,5.6764 C6.503,5.4594 6.71,5.2334 6.936,5.0074 C7.162,4.7804 7.379,4.5744 7.585,4.3884 C7.791,4.2104 7.988,4.0724 8.156,3.9654 C8.322,3.8564 8.431,3.8164 8.489,3.8474 C8.558,3.8764 8.529,3.9754 8.401,4.1324 C8.273,4.2994 8.067,4.5554 7.802,4.8984 C7.565,5.1934 7.408,5.4594 7.32,5.6864 C7.231,5.9114 7.192,6.0994 7.221,6.2464 C7.251,6.3944 7.32,6.5024 7.447,6.5704 C7.575,6.6404 7.733,6.6494 7.919,6.6094 C8.057,6.5804 8.214,6.5124 8.391,6.4034 C8.558,6.2954 8.736,6.1774 8.912,6.0294 C9.09,5.8824 9.267,5.7254 9.444,5.5584 C9.621,5.3914 9.788,5.2244 9.935,5.0654 C10.083,4.9084 10.201,4.7614 10.309,4.6334 C10.417,4.5054 10.486,4.4074 10.535,4.3384 L10.624,4.1224 L10.594,3.9754 L10.457,3.9754 C10.388,4.0044 10.319,4.0724 10.23,4.1814 C10.093,4.3484 9.926,4.5254 9.739,4.7224 C9.552,4.9184 9.365,5.1064 9.178,5.2724 C8.991,5.4394 8.814,5.5774 8.667,5.6864 C8.51,5.7944 8.401,5.8334 8.332,5.8144 L8.273,5.7644 L8.293,5.6164 C8.313,5.5484 8.362,5.4594 8.431,5.3414 C8.5,5.2244 8.617,5.0754 8.765,4.8984 C9.06,4.5354 9.267,4.2304 9.394,3.9944 C9.512,3.7684 9.572,3.5814 9.562,3.4534 C9.552,3.3254 9.493,3.2464 9.385,3.2074 C9.277,3.1684 9.129,3.1584 8.962,3.1884 C8.736,3.2174 8.489,3.3064 8.244,3.4534 M12.318,3.1684 C12.131,3.1484 11.934,3.1684 11.718,3.2274 C11.492,3.2964 11.266,3.3944 11.03,3.5314 C10.784,3.6794 10.557,3.8564 10.331,4.0724 C10.105,4.2794 9.908,4.5054 9.761,4.7314 C9.604,4.9584 9.486,5.1844 9.407,5.4004 C9.328,5.6164 9.299,5.8144 9.309,5.9904 C9.319,6.1774 9.378,6.3244 9.486,6.4424 C9.594,6.5614 9.732,6.6304 9.918,6.6494 C10.105,6.6694 10.302,6.6494 10.518,6.5804 C10.735,6.5224 10.961,6.4234 11.207,6.2754 C11.443,6.1384 11.669,5.9614 11.895,5.7544 C12.121,5.5484 12.318,5.3214 12.475,5.0964 C12.633,4.8694 12.751,4.6434 12.829,4.4274 C12.908,4.2104 12.937,4.0144 12.927,3.8274 C12.918,3.6494 12.859,3.5024 12.751,3.3844 C12.642,3.2674 12.495,3.1974 12.318,3.1684 M11.374,5.5484 C11.246,5.6764 11.118,5.7734 11,5.8434 C10.872,5.9224 10.764,5.9714 10.666,5.9904 C10.557,6.0104 10.479,6.0004 10.41,5.9514 C10.351,5.9014 10.322,5.8334 10.312,5.7254 C10.302,5.6264 10.312,5.5094 10.351,5.3714 C10.39,5.2434 10.449,5.0964 10.538,4.9384 C10.616,4.7804 10.715,4.6234 10.843,4.4564 C10.97,4.2894 11.098,4.1514 11.236,4.0234 C11.364,3.8964 11.492,3.7974 11.62,3.7194 C11.738,3.6404 11.846,3.5914 11.954,3.5714 C12.052,3.5524 12.131,3.5624 12.2,3.6104 C12.259,3.6594 12.298,3.7294 12.308,3.8274 C12.318,3.9354 12.298,4.0534 12.259,4.1904 C12.219,4.3284 12.16,4.4764 12.072,4.6334 C11.984,4.7904 11.885,4.9484 11.758,5.1154 C11.63,5.2824 11.502,5.4204 11.374,5.5484 M17.316,3.4434 C17.07,3.5914 16.834,3.7584 16.589,3.9654 C16.677,3.7974 16.726,3.6494 16.746,3.5414 C16.756,3.4344 16.746,3.3554 16.706,3.2964 L16.5,3.1784 C16.411,3.1684 16.303,3.1684 16.176,3.1884 C15.929,3.2174 15.674,3.3154 15.399,3.4824 C15.123,3.6494 14.848,3.8564 14.573,4.0824 L14.986,3.4924 L15.074,3.2564 L14.906,3.1684 L14.621,3.1684 C14.533,3.1684 14.425,3.1974 14.317,3.2564 C14.208,3.3154 14.11,3.3944 14.041,3.4924 L12.065,6.2954 L11.976,6.5314 L12.134,6.6304 L12.419,6.6304 C12.507,6.6304 12.615,6.6004 12.723,6.5314 C12.832,6.4724 12.93,6.3944 13.009,6.2954 L13.264,5.9324 L13.304,5.8824 C13.412,5.7344 13.54,5.5874 13.687,5.4204 C13.835,5.2534 13.982,5.0964 14.15,4.9284 C14.317,4.7714 14.484,4.6234 14.651,4.4764 C14.818,4.3384 14.966,4.2204 15.113,4.1124 C15.251,4.0144 15.369,3.9354 15.477,3.8864 C15.585,3.8374 15.654,3.8274 15.694,3.8474 C15.762,3.8764 15.742,3.9754 15.615,4.1424 C15.487,4.3094 15.281,4.5554 15.005,4.8984 C14.877,5.0564 14.749,5.2134 14.632,5.3814 C14.513,5.5484 14.405,5.6954 14.317,5.8334 C14.208,6.0004 14.1,6.1484 14.002,6.2954 L13.913,6.5314 L14.071,6.6304 L14.356,6.6304 C14.445,6.6304 14.552,6.6004 14.671,6.5314 C14.779,6.4624 14.867,6.3844 14.936,6.2954 L15.468,5.5674 C15.644,5.3614 15.841,5.1454 16.057,4.9284 C16.274,4.7124 16.48,4.5154 16.687,4.3484 C16.893,4.1814 17.07,4.0434 17.228,3.9444 C17.375,3.8564 17.483,3.8164 17.532,3.8474 C17.601,3.8764 17.582,3.9754 17.454,4.1324 C17.326,4.2994 17.119,4.5554 16.844,4.8984 C16.618,5.1934 16.461,5.4594 16.372,5.6864 C16.283,5.9114 16.244,6.0994 16.274,6.2464 C16.293,6.3944 16.362,6.5024 16.49,6.5704 C16.618,6.6404 16.775,6.6494 16.972,6.6094 C17.119,6.5804 17.277,6.5124 17.444,6.4034 C17.611,6.2954 17.788,6.1774 17.975,6.0294 C18.152,5.8824 18.329,5.7254 18.506,5.5584 C18.673,5.3914 18.841,5.2244 18.988,5.0654 C19.135,4.9084 19.263,4.7614 19.371,4.6334 C19.48,4.5054 19.549,4.4074 19.598,4.3384 L19.677,4.1224 L19.647,3.9754 L19.509,3.9754 C19.44,4.0044 19.362,4.0724 19.273,4.1814 C19.145,4.3484 18.978,4.5254 18.791,4.7224 C18.604,4.9184 18.418,5.1064 18.231,5.2724 C18.044,5.4394 17.867,5.5774 17.719,5.6864 C17.562,5.7944 17.454,5.8334 17.385,5.8144 L17.326,5.7644 L17.345,5.6164 C17.365,5.5484 17.414,5.4594 17.483,5.3414 C17.552,5.2244 17.66,5.0754 17.808,4.8984 C18.103,4.5354 18.309,4.2304 18.437,3.9944 C18.565,3.7684 18.624,3.5814 18.615,3.4534 C18.604,3.3254 18.546,3.2464 18.437,3.2074 C18.329,3.1684 18.181,3.1584 18.014,3.1884 C17.788,3.2174 17.562,3.3064 17.316,3.4434 M18.441,5.1844 C18.284,5.4694 18.196,5.7254 18.176,5.9324 C18.156,6.1484 18.196,6.3144 18.294,6.4424 C18.392,6.5704 18.53,6.6304 18.717,6.6304 C18.844,6.6304 18.992,6.6004 19.139,6.5314 C19.287,6.4724 19.425,6.3944 19.572,6.2954 C19.719,6.2074 19.857,6.0994 19.995,5.9814 C20.133,5.8624 20.26,5.7444 20.379,5.6364 C20.32,5.7844 20.29,5.9324 20.281,6.0604 C20.27,6.1874 20.281,6.3054 20.329,6.3944 C20.369,6.4824 20.438,6.5514 20.546,6.5904 C20.644,6.6404 20.772,6.6404 20.939,6.6094 C21.087,6.5804 21.244,6.5124 21.411,6.4034 C21.578,6.2954 21.756,6.1774 21.942,6.0294 C22.119,5.8824 22.296,5.7254 22.473,5.5584 C22.65,5.3914 22.818,5.2244 22.965,5.0654 C23.113,4.9084 23.231,4.7614 23.339,4.6334 C23.447,4.5054 23.516,4.4074 23.565,4.3384 L23.654,4.1224 L23.624,3.9754 L23.486,3.9754 C23.417,4.0044 23.348,4.0724 23.26,4.1814 C23.122,4.3484 22.955,4.5254 22.768,4.7224 C22.581,4.9184 22.395,5.1064 22.208,5.2724 C22.021,5.4394 21.844,5.5774 21.697,5.6864 C21.539,5.7944 21.431,5.8334 21.362,5.8144 L21.313,5.6564 C21.323,5.5674 21.391,5.4304 21.519,5.2334 C21.608,5.0754 21.726,4.8984 21.854,4.7124 C21.982,4.5254 22.11,4.3484 22.238,4.1714 C22.355,4.0044 22.464,3.8564 22.562,3.7294 C22.66,3.6014 22.719,3.5224 22.749,3.4924 L22.837,3.2564 L22.67,3.1684 L22.385,3.1684 L22.129,3.2274 L21.883,3.3944 C21.765,3.2864 21.618,3.2174 21.431,3.1784 C21.244,3.1484 21.037,3.1584 20.802,3.2174 C20.566,3.2864 20.31,3.4044 20.034,3.5714 C19.759,3.7384 19.474,3.9754 19.169,4.2704 C18.844,4.5944 18.598,4.8984 18.441,5.1844 M20.074,4.2104 C20.241,4.0634 20.428,3.9254 20.615,3.8164 C20.802,3.7094 20.989,3.6304 21.175,3.5914 C21.362,3.5524 21.529,3.5714 21.677,3.6594 L21.569,3.7974 C21.48,3.9154 21.362,4.0634 21.215,4.2394 C21.067,4.4174 20.91,4.5944 20.742,4.7714 C20.575,4.9584 20.398,5.1254 20.231,5.2824 C20.064,5.4494 19.906,5.5674 19.759,5.6564 C19.552,5.7844 19.405,5.8434 19.317,5.8234 C19.218,5.8044 19.169,5.7344 19.169,5.6164 C19.159,5.5094 19.198,5.3614 19.287,5.1844 C19.365,5.0174 19.484,4.8404 19.641,4.6634 C19.759,4.5154 19.906,4.3674 20.074,4.2104 M23.233,4.3284 C23.214,4.4564 23.233,4.5744 23.292,4.6634 C23.342,4.7614 23.42,4.8504 23.529,4.9184 C23.627,4.9974 23.725,5.0754 23.814,5.1454 L24.02,5.3914 C24.069,5.4794 24.079,5.5774 24.03,5.6954 C23.981,5.8144 23.922,5.9114 23.833,5.9814 C23.745,6.0604 23.656,6.1184 23.558,6.1574 C23.46,6.2074 23.361,6.2274 23.263,6.2364 C23.164,6.2464 23.076,6.2274 23.007,6.1964 L22.899,6.0604 L22.958,5.8534 L23.095,5.6364 L23.253,5.4694 L23.282,5.3314 L23.106,5.2434 C23.027,5.2244 22.938,5.2134 22.84,5.2134 C22.732,5.2134 22.653,5.2334 22.584,5.2634 C22.456,5.3214 22.358,5.4204 22.28,5.5584 C22.191,5.6954 22.152,5.8334 22.161,5.9814 C22.161,6.1284 22.22,6.2664 22.339,6.3944 C22.447,6.5224 22.634,6.5904 22.899,6.6094 C23.086,6.6204 23.273,6.6094 23.46,6.5804 C23.646,6.5514 23.814,6.5024 23.981,6.4234 C24.148,6.3554 24.296,6.2564 24.433,6.1284 C24.571,6.0104 24.679,5.8724 24.767,5.7154 C24.876,5.5194 24.915,5.3514 24.905,5.2134 C24.885,5.0754 24.836,4.9584 24.758,4.8594 C24.679,4.7614 24.581,4.6734 24.472,4.5944 C24.354,4.5254 24.246,4.4564 24.158,4.3884 L23.961,4.1714 C23.912,4.1034 23.922,4.0144 23.99,3.9154 C24.059,3.8074 24.168,3.7194 24.296,3.6594 C24.423,3.6014 24.541,3.5814 24.63,3.5914 L24.639,3.6794 L24.561,3.8074 L24.453,3.9354 L24.354,4.0534 L24.325,4.1904 L24.463,4.2604 L24.689,4.2604 L24.925,4.2204 C25.073,4.1714 25.21,4.0824 25.338,3.9654 C25.456,3.8474 25.544,3.7384 25.603,3.6304 C25.702,3.4534 25.702,3.3354 25.594,3.2764 C25.486,3.2174 25.348,3.1884 25.161,3.1884 C24.778,3.1884 24.443,3.2464 24.158,3.3644 C23.873,3.4824 23.646,3.6494 23.479,3.8564 C23.332,4.0434 23.253,4.2004 23.233,4.3284 M31.144,3.7584 C31.055,3.8864 30.947,4.0234 30.839,4.1714 C30.731,4.3284 30.613,4.4954 30.494,4.6634 C30.377,4.8404 30.268,4.9974 30.18,5.1454 C29.973,5.4204 29.786,5.6264 29.6,5.7734 C29.413,5.9224 29.236,5.9614 29.069,5.8924 C28.862,5.8044 28.724,5.6264 28.675,5.3414 C28.626,5.0654 28.636,4.7414 28.724,4.3774 C28.813,4.0144 28.96,3.6204 29.177,3.1974 C29.383,2.7844 29.649,2.3914 29.964,2.0184 C30.268,1.6534 30.632,1.3294 31.035,1.0544 C31.439,0.7784 31.871,0.5914 32.334,0.5034 L32.363,0.5714 L32.324,0.6704 L32.255,0.7694 L32.166,0.8864 L32.137,1.0234 L32.275,1.0934 L32.501,1.0934 L32.737,1.0544 C32.885,1.0044 33.022,0.9164 33.15,0.7984 C33.268,0.6804 33.356,0.5714 33.406,0.4634 L33.474,0.2474 L33.406,0.1094 L33.219,0.0404 L32.963,0.0214 C32.363,0.0214 31.812,0.1094 31.291,0.2864 C30.77,0.4744 30.288,0.7094 29.865,1.0044 C29.432,1.3104 29.049,1.6444 28.724,2.0274 C28.4,2.4104 28.135,2.8044 27.928,3.2074 C27.721,3.6104 27.574,4.0144 27.495,4.4074 C27.406,4.8014 27.397,5.1544 27.466,5.4694 C27.525,5.7844 27.662,6.0494 27.879,6.2564 C28.085,6.4624 28.38,6.5904 28.764,6.6204 C28.95,6.6404 29.137,6.6094 29.304,6.5314 C29.472,6.4524 29.639,6.3344 29.806,6.1874 C29.816,6.3554 29.865,6.4724 29.973,6.5614 C30.081,6.6494 30.249,6.6694 30.475,6.6204 C30.622,6.5904 30.78,6.5314 30.957,6.4234 C31.124,6.3144 31.301,6.1874 31.488,6.0394 C31.665,5.8924 31.842,5.7344 32.019,5.5674 C32.186,5.4004 32.353,5.2334 32.501,5.0654 C32.648,4.9084 32.776,4.7614 32.885,4.6334 C32.992,4.5054 33.061,4.4074 33.111,4.3384 L33.199,4.1224 L33.17,3.9754 L33.032,3.9754 C32.963,4.0044 32.894,4.0724 32.805,4.1814 C32.668,4.3484 32.501,4.5254 32.314,4.7224 C32.127,4.9284 31.93,5.1154 31.743,5.2824 C31.556,5.4494 31.38,5.5874 31.232,5.6954 C31.075,5.8044 30.967,5.8534 30.898,5.8334 L30.839,5.6764 C30.848,5.5874 30.917,5.4494 31.045,5.2434 C31.144,5.0864 31.261,4.9084 31.389,4.7224 C31.517,4.5354 31.645,4.3574 31.773,4.1814 C31.891,4.0144 31.999,3.8664 32.097,3.7384 C32.186,3.6104 32.245,3.5314 32.275,3.5024 L32.363,3.2674 L32.206,3.1784 L31.38,3.1784 C31.271,3.1784 31.183,3.1974 31.134,3.2274 L31.045,3.3354 L31.124,3.4534 C31.173,3.4824 31.242,3.5024 31.34,3.5024 C31.301,3.5524 31.232,3.6404 31.144,3.7584 M35.592,3.7294 C35.602,3.6104 35.582,3.5124 35.533,3.4244 C35.474,3.3454 35.385,3.2764 35.277,3.2274 C35.169,3.1784 35.031,3.1584 34.884,3.1584 C34.5,3.1584 34.146,3.2464 33.812,3.4144 C33.468,3.5814 33.173,3.7974 32.917,4.0534 C32.661,4.3184 32.455,4.5944 32.297,4.8894 C32.14,5.1934 32.052,5.4694 32.042,5.7254 C32.022,5.9904 32.081,6.2074 32.228,6.3744 C32.376,6.5414 32.612,6.6304 32.956,6.6304 C33.192,6.6304 33.458,6.5514 33.762,6.4034 C34.068,6.2564 34.372,6.0604 34.687,5.8334 C35.002,5.6064 35.306,5.3614 35.602,5.0964 C35.897,4.8304 36.153,4.5744 36.359,4.3384 L36.467,4.1324 L36.427,4.0044 L36.28,4.0044 C36.211,4.0234 36.133,4.0824 36.044,4.1814 C35.818,4.4174 35.572,4.6434 35.297,4.8694 C35.021,5.0964 34.746,5.3024 34.481,5.4694 C34.215,5.6364 33.959,5.7734 33.733,5.8624 C33.507,5.9514 33.32,5.9814 33.192,5.9414 C33.064,5.9114 32.976,5.8334 32.947,5.7054 C32.917,5.5874 32.917,5.4494 32.956,5.2824 C33.222,5.2634 33.487,5.2134 33.743,5.1454 C33.999,5.0754 34.235,4.9874 34.451,4.8794 C34.667,4.7714 34.864,4.6524 35.031,4.5254 C35.198,4.3974 35.326,4.2604 35.425,4.1124 C35.523,3.9754 35.582,3.8474 35.592,3.7294 M34.628,3.6104 L34.776,3.7774 C34.785,3.8564 34.756,3.9544 34.697,4.0634 C34.628,4.1814 34.53,4.2894 34.392,4.3974 C34.254,4.5054 34.077,4.6044 33.861,4.6924 C33.645,4.7804 33.389,4.8504 33.094,4.8794 C33.153,4.7514 33.222,4.6134 33.31,4.4854 C33.399,4.3574 33.487,4.2304 33.595,4.1124 C33.694,4.0044 33.802,3.9054 33.91,3.8164 C34.018,3.7384 34.136,3.6794 34.244,3.6404 C34.412,3.5914 34.539,3.5814 34.628,3.6104 M38.131,3.1684 C37.945,3.1484 37.748,3.1684 37.531,3.2274 C37.305,3.2964 37.079,3.3944 36.843,3.5314 C36.597,3.6794 36.371,3.8564 36.145,4.0724 C35.919,4.2794 35.722,4.5054 35.574,4.7314 C35.417,4.9584 35.299,5.1844 35.22,5.4004 C35.142,5.6164 35.112,5.8144 35.122,5.9904 C35.132,6.1774 35.191,6.3244 35.299,6.4424 C35.407,6.5614 35.545,6.6304 35.732,6.6494 C35.919,6.6694 36.115,6.6494 36.332,6.5804 C36.548,6.5224 36.774,6.4234 37.02,6.2754 C37.256,6.1384 37.482,5.9614 37.708,5.7544 C37.935,5.5484 38.131,5.3214 38.289,5.0964 C38.446,4.8694 38.564,4.6434 38.643,4.4274 C38.721,4.2104 38.751,4.0144 38.741,3.8274 C38.731,3.6494 38.672,3.5024 38.564,3.3844 C38.456,3.2674 38.308,3.1974 38.131,3.1684 M37.187,5.5484 C37.059,5.6764 36.931,5.7734 36.813,5.8434 C36.686,5.9224 36.577,5.9714 36.479,5.9904 C36.371,6.0104 36.292,6.0004 36.223,5.9514 C36.164,5.9014 36.135,5.8334 36.125,5.7254 C36.115,5.6264 36.125,5.5094 36.164,5.3714 C36.204,5.2434 36.263,5.0964 36.351,4.9384 C36.43,4.7804 36.528,4.6234 36.656,4.4564 C36.784,4.2894 36.912,4.1514 37.05,4.0234 C37.177,3.8964 37.305,3.7974 37.433,3.7194 C37.551,3.6404 37.659,3.5914 37.767,3.5714 C37.865,3.5524 37.945,3.5624 38.013,3.6104 C38.072,3.6594 38.112,3.7294 38.121,3.8274 C38.131,3.9354 38.112,4.0534 38.072,4.1904 C38.033,4.3284 37.974,4.4764 37.885,4.6334 C37.797,4.7904 37.698,4.9484 37.571,5.1154 C37.443,5.2824 37.315,5.4204 37.187,5.5484 M41.822,4.5944 C41.664,4.7024 41.477,4.8014 41.271,4.8694 C41.3,4.8014 41.379,4.6834 41.517,4.5354 C41.655,4.3884 41.792,4.2204 41.929,4.0534 C42.068,3.8864 42.176,3.7194 42.254,3.5524 C42.333,3.3944 42.333,3.2674 42.244,3.1784 C42.195,3.1294 42.116,3.1084 42.009,3.1184 C41.89,3.1294 41.753,3.1584 41.595,3.2274 C41.428,3.2964 41.251,3.3844 41.054,3.5024 C40.858,3.6304 40.661,3.7774 40.454,3.9544 L40.799,3.4924 L40.887,3.2564 L40.72,3.1684 L40.435,3.1684 C40.346,3.1684 40.238,3.1974 40.13,3.2564 C40.022,3.3154 39.924,3.3944 39.855,3.4924 L37.878,6.2954 L37.789,6.5314 L37.947,6.6304 L38.232,6.6304 C38.321,6.6304 38.428,6.6004 38.537,6.5314 C38.645,6.4724 38.743,6.3944 38.822,6.2954 C38.871,6.2174 38.94,6.1284 39.009,6.0294 C39.068,5.9414 39.136,5.8434 39.216,5.7254 C39.294,5.6164 39.383,5.4884 39.471,5.3614 C39.56,5.2334 39.677,5.0864 39.825,4.9384 C39.963,4.7904 40.11,4.6434 40.258,4.5054 C40.406,4.3774 40.563,4.2604 40.71,4.1514 C40.858,4.0534 40.976,3.9944 41.084,3.9654 C41.015,4.0534 40.936,4.1714 40.828,4.2994 C40.72,4.4274 40.612,4.5644 40.513,4.6924 C40.415,4.8304 40.337,4.9584 40.268,5.0654 C40.199,5.1744 40.169,5.2634 40.179,5.3124 C40.199,5.4004 40.297,5.4494 40.465,5.4694 C40.632,5.4884 40.828,5.4594 41.064,5.3914 C41.3,5.3214 41.556,5.2034 41.831,5.0364 C42.107,4.8694 42.363,4.6334 42.608,4.3384 L42.717,4.1324 L42.657,4.0334 L42.5,4.0434 L42.294,4.1814 C42.126,4.3484 41.969,4.4854 41.822,4.5944 M41.46,5.1844 C41.302,5.4694 41.214,5.7254 41.194,5.9324 C41.175,6.1484 41.214,6.3144 41.312,6.4424 C41.41,6.5704 41.548,6.6304 41.735,6.6304 C41.883,6.6304 42.04,6.5904 42.207,6.5124 C42.374,6.4424 42.531,6.3454 42.699,6.2274 C42.866,6.1184 43.023,5.9904 43.171,5.8534 C43.319,5.7254 43.446,5.5974 43.564,5.4794 C43.348,5.7444 43.132,6.0294 42.906,6.3144 C42.679,6.6004 42.473,6.8754 42.286,7.1314 C42.099,7.3874 41.932,7.6134 41.804,7.8004 C41.676,7.9864 41.588,8.1244 41.558,8.1934 C41.499,8.3124 41.489,8.4294 41.519,8.5474 C41.548,8.6754 41.597,8.7734 41.666,8.8534 L41.912,9.0004 L42.118,8.8924 C42.404,8.4394 42.679,7.9964 42.965,7.5544 C43.25,7.1214 43.525,6.7084 43.79,6.3144 C44.056,5.9224 44.302,5.5584 44.538,5.2134 C44.764,4.8794 44.97,4.5844 45.148,4.3384 C45.324,4.0924 45.472,3.8864 45.58,3.7384 C45.689,3.5914 45.747,3.5124 45.767,3.4924 L45.856,3.2564 L45.689,3.1684 L45.403,3.1684 L45.148,3.2274 L44.902,3.3944 C44.784,3.2864 44.636,3.2174 44.449,3.1784 C44.262,3.1484 44.056,3.1584 43.82,3.2174 C43.584,3.2864 43.328,3.4044 43.053,3.5714 C42.778,3.7384 42.492,3.9754 42.187,4.2704 C41.863,4.5944 41.617,4.8984 41.46,5.1844 M43.092,4.2104 C43.26,4.0634 43.446,3.9254 43.633,3.8164 C43.82,3.7094 44.007,3.6304 44.194,3.5914 C44.381,3.5524 44.548,3.5714 44.695,3.6594 C44.626,3.7584 44.518,3.8964 44.371,4.0724 C44.223,4.2604 44.056,4.4464 43.879,4.6524 C43.692,4.8594 43.505,5.0464 43.308,5.2334 C43.112,5.4204 42.935,5.5584 42.778,5.6564 C42.571,5.7844 42.424,5.8434 42.335,5.8234 C42.237,5.8044 42.187,5.7344 42.187,5.6164 C42.177,5.5094 42.217,5.3614 42.305,5.1844 C42.384,5.0174 42.502,4.8404 42.659,4.6634 C42.778,4.5154 42.925,4.3674 43.092,4.2104 M48.671,3.7294 C48.681,3.6104 48.661,3.5124 48.612,3.4244 C48.553,3.3454 48.464,3.2764 48.356,3.2274 C48.248,3.1784 48.11,3.1584 47.963,3.1584 C47.579,3.1584 47.225,3.2464 46.891,3.4144 C46.547,3.5814 46.252,3.7974 45.996,4.0534 C45.74,4.3184 45.534,4.5944 45.376,4.8894 C45.219,5.1934 45.131,5.4694 45.121,5.7254 C45.101,5.9904 45.16,6.2074 45.307,6.3744 C45.455,6.5414 45.691,6.6304 46.035,6.6304 C46.271,6.6304 46.537,6.5514 46.842,6.4034 C47.147,6.2564 47.451,6.0604 47.766,5.8334 C48.081,5.6064 48.385,5.3614 48.681,5.0964 C48.976,4.8304 49.231,4.5744 49.438,4.3384 L49.546,4.1324 L49.507,4.0044 L49.359,4.0044 C49.29,4.0234 49.212,4.0824 49.123,4.1814 C48.897,4.4174 48.651,4.6434 48.376,4.8694 C48.1,5.0964 47.825,5.3024 47.559,5.4694 C47.294,5.6364 47.038,5.7734 46.812,5.8624 C46.586,5.9514 46.399,5.9814 46.271,5.9414 C46.143,5.9114 46.055,5.8334 46.026,5.7054 C45.996,5.5874 45.996,5.4494 46.035,5.2824 C46.301,5.2634 46.566,5.2134 46.822,5.1454 C47.078,5.0754 47.314,4.9874 47.53,4.8794 C47.746,4.7714 47.943,4.6524 48.11,4.5254 C48.278,4.3974 48.406,4.2604 48.504,4.1124 C48.602,3.9754 48.661,3.8474 48.671,3.7294 M47.707,3.6104 L47.855,3.7774 C47.865,3.8564 47.835,3.9544 47.776,4.0634 C47.707,4.1814 47.609,4.2894 47.471,4.3974 C47.333,4.5054 47.156,4.6044 46.94,4.6924 C46.724,4.7804 46.468,4.8504 46.173,4.8794 C46.232,4.7514 46.301,4.6134 46.389,4.4854 C46.478,4.3574 46.566,4.2304 46.675,4.1124 C46.773,4.0044 46.881,3.9054 46.989,3.8164 C47.097,3.7384 47.216,3.6794 47.323,3.6404 C47.49,3.5914 47.618,3.5814 47.707,3.6104 M50.533,5.1844 C50.376,5.4694 50.287,5.7254 50.268,5.9324 C50.248,6.1484 50.287,6.3144 50.386,6.4424 C50.484,6.5704 50.622,6.6304 50.809,6.6304 C50.936,6.6304 51.084,6.6004 51.232,6.5314 C51.379,6.4724 51.517,6.3944 51.664,6.2954 C51.812,6.2074 51.949,6.0994 52.087,5.9814 C52.225,5.8624 52.353,5.7444 52.47,5.6364 C52.412,5.7844 52.382,5.9324 52.372,6.0604 C52.363,6.1874 52.372,6.3054 52.422,6.3944 C52.461,6.4824 52.53,6.5514 52.638,6.5904 C52.736,6.6404 52.864,6.6404 53.031,6.6094 C53.179,6.5804 53.336,6.5124 53.503,6.4034 C53.671,6.2954 53.847,6.1774 54.034,6.0294 C54.211,5.8824 54.388,5.7254 54.565,5.5584 C54.742,5.3914 54.909,5.2244 55.057,5.0654 C55.205,4.9084 55.323,4.7614 55.431,4.6334 C55.539,4.5054 55.608,4.4074 55.657,4.3384 L55.745,4.1224 L55.716,3.9754 L55.578,3.9754 C55.51,4.0044 55.441,4.0724 55.352,4.1814 C55.215,4.3484 55.047,4.5254 54.861,4.7224 C54.674,4.9184 54.487,5.1064 54.3,5.2724 C54.113,5.4394 53.936,5.5774 53.788,5.6864 C53.631,5.7944 53.523,5.8334 53.454,5.8144 L53.405,5.6564 C53.415,5.5674 53.484,5.4304 53.612,5.2334 C53.7,5.0754 53.818,4.8984 53.946,4.7124 C54.073,4.5254 54.201,4.3484 54.329,4.1714 C54.448,4.0044 54.555,3.8564 54.654,3.7294 C54.752,3.6014 54.811,3.5224 54.841,3.4924 L54.929,3.2564 L54.762,3.1684 L54.477,3.1684 L54.221,3.2274 L53.975,3.3944 C53.857,3.2864 53.71,3.2174 53.523,3.1784 C53.336,3.1484 53.13,3.1584 52.893,3.2174 C52.657,3.2864 52.402,3.4044 52.126,3.5714 C51.851,3.7384 51.566,3.9754 51.261,4.2704 C50.936,4.5944 50.691,4.8984 50.533,5.1844 M52.166,4.2104 C52.333,4.0634 52.52,3.9254 52.707,3.8164 C52.893,3.7094 53.08,3.6304 53.267,3.5914 C53.454,3.5524 53.621,3.5714 53.769,3.6594 L53.66,3.7974 C53.572,3.9154 53.454,4.0634 53.306,4.2394 C53.159,4.4174 53.002,4.5944 52.835,4.7714 C52.667,4.9584 52.49,5.1254 52.323,5.2824 C52.156,5.4494 51.999,5.5674 51.851,5.6564 C51.645,5.7844 51.497,5.8434 51.408,5.8234 C51.31,5.8044 51.261,5.7344 51.261,5.6164 C51.251,5.5094 51.29,5.3614 51.379,5.1844 C51.458,5.0174 51.576,4.8404 51.733,4.6634 C51.851,4.5154 51.999,4.3674 52.166,4.2104 M57.184,3.4534 C56.938,3.6014 56.682,3.7874 56.437,3.9944 L56.791,3.4924 L56.879,3.2564 L56.712,3.1684 L56.427,3.1684 C56.338,3.1684 56.23,3.1974 56.122,3.2564 C56.014,3.3154 55.915,3.3944 55.846,3.4924 L53.87,6.2954 L53.781,6.5314 L53.939,6.6304 L54.224,6.6304 C54.312,6.6304 54.421,6.6004 54.529,6.5314 C54.637,6.4724 54.735,6.3944 54.814,6.2954 L55.07,5.9324 L55.109,5.8824 C55.266,5.6564 55.463,5.4204 55.709,5.1644 C55.945,4.9184 56.181,4.6834 56.417,4.4764 C56.653,4.2704 56.869,4.1124 57.056,3.9844 C57.243,3.8564 57.361,3.8164 57.42,3.8474 C57.489,3.8764 57.469,3.9754 57.342,4.1324 C57.214,4.2994 57.007,4.5554 56.732,4.8984 C56.506,5.1934 56.348,5.4594 56.26,5.6864 C56.171,5.9114 56.132,6.0994 56.161,6.2464 C56.181,6.3944 56.25,6.5024 56.378,6.5704 C56.506,6.6404 56.663,6.6494 56.86,6.6094 C56.997,6.5804 57.155,6.5124 57.332,6.4034 C57.499,6.2954 57.676,6.1774 57.853,6.0294 C58.03,5.8824 58.207,5.7254 58.384,5.5584 C58.551,5.3914 58.718,5.2244 58.866,5.0654 C59.013,4.9084 59.141,4.7614 59.249,4.6334 C59.358,4.5054 59.427,4.4074 59.475,4.3384 L59.564,4.1224 L59.534,3.9754 L59.397,3.9754 C59.328,4.0044 59.249,4.0724 59.161,4.1814 C59.033,4.3484 58.866,4.5254 58.679,4.7224 C58.492,4.9184 58.305,5.1064 58.118,5.2724 C57.931,5.4394 57.755,5.5774 57.607,5.6864 C57.449,5.7944 57.342,5.8334 57.273,5.8144 L57.214,5.7644 L57.233,5.6164 C57.253,5.5484 57.302,5.4594 57.371,5.3414 C57.44,5.2244 57.548,5.0754 57.696,4.8984 C57.99,4.5354 58.197,4.2304 58.325,3.9944 C58.443,3.7684 58.502,3.5814 58.492,3.4534 C58.482,3.3254 58.423,3.2464 58.315,3.2074 C58.207,3.1684 58.059,3.1584 57.892,3.1884 C57.666,3.2174 57.43,3.3064 57.184,3.4534 M58.318,5.1844 C58.16,5.4694 58.072,5.7254 58.052,5.9324 C58.032,6.1484 58.072,6.3144 58.18,6.4424 C58.278,6.5704 58.416,6.6304 58.603,6.6304 C58.74,6.6304 58.888,6.6004 59.035,6.5314 C59.183,6.4624 59.341,6.3844 59.488,6.2854 C59.635,6.1874 59.773,6.0794 59.921,5.9514 C60.058,5.8334 60.186,5.7154 60.304,5.5974 C60.235,5.7544 60.196,5.9014 60.186,6.0294 C60.177,6.1674 60.186,6.2854 60.225,6.3844 C60.265,6.4824 60.334,6.5514 60.442,6.5904 C60.55,6.6404 60.688,6.6404 60.855,6.6094 C60.992,6.5804 61.15,6.5124 61.327,6.4034 C61.494,6.2954 61.671,6.1774 61.848,6.0294 C62.025,5.8824 62.202,5.7254 62.379,5.5584 C62.556,5.3914 62.723,5.2244 62.871,5.0654 C63.018,4.9084 63.136,4.7614 63.244,4.6334 C63.353,4.5054 63.422,4.4074 63.471,4.3384 L63.559,4.1224 L63.53,3.9754 L63.392,3.9754 C63.323,4.0044 63.244,4.0724 63.156,4.1814 C63.028,4.3484 62.861,4.5254 62.674,4.7224 C62.488,4.9184 62.301,5.1064 62.114,5.2724 C61.927,5.4394 61.75,5.5774 61.602,5.6864 C61.445,5.7944 61.337,5.8334 61.268,5.8144 L61.209,5.6564 C61.219,5.5674 61.287,5.4304 61.415,5.2334 C61.474,5.1254 61.602,4.9384 61.789,4.6634 C61.976,4.3884 62.202,4.0724 62.448,3.7194 C62.694,3.3644 62.959,2.9914 63.235,2.5984 C63.51,2.2144 63.766,1.8504 64.002,1.5254 C64.228,1.2014 64.425,0.9364 64.592,0.7094 C64.749,0.4934 64.838,0.3754 64.847,0.3564 L64.936,0.1194 L64.769,0.0214 L64.493,0.0214 C64.405,0.0214 64.297,0.0514 64.189,0.1094 C64.08,0.1784 63.982,0.2574 63.904,0.3564 C63.884,0.3854 63.805,0.5034 63.668,0.6894 C63.53,0.8764 63.363,1.1124 63.156,1.3984 C62.949,1.6834 62.733,2.0084 62.488,2.3524 C62.241,2.6954 61.996,3.0404 61.76,3.3844 C61.642,3.2764 61.494,3.2074 61.307,3.1784 C61.12,3.1484 60.904,3.1584 60.678,3.2174 C60.442,3.2864 60.186,3.4044 59.911,3.5714 C59.635,3.7384 59.35,3.9754 59.055,4.2704 C58.721,4.5944 58.475,4.8984 58.318,5.1844 M59.95,4.2104 C60.117,4.0634 60.304,3.9254 60.491,3.8164 C60.678,3.7094 60.865,3.6304 61.052,3.5914 C61.239,3.5524 61.406,3.5714 61.563,3.6594 C61.494,3.7584 61.376,3.8964 61.229,4.0724 C61.081,4.2604 60.914,4.4464 60.737,4.6524 C60.55,4.8594 60.363,5.0464 60.166,5.2334 C59.97,5.4204 59.793,5.5584 59.635,5.6564 C59.429,5.7844 59.281,5.8434 59.193,5.8234 C59.094,5.8044 59.045,5.7344 59.045,5.6164 C59.035,5.5094 59.075,5.3614 59.163,5.1844 C59.242,5.0174 59.36,4.8404 59.517,4.6634 C59.635,4.5154 59.783,4.3674 59.95,4.2104 M65.373,4.3284 C65.354,4.4564 65.373,4.5744 65.432,4.6634 C65.481,4.7614 65.56,4.8504 65.668,4.9184 C65.766,4.9974 65.865,5.0754 65.953,5.1454 L66.16,5.3914 C66.209,5.4794 66.219,5.5774 66.17,5.6954 C66.121,5.8144 66.062,5.9114 65.973,5.9814 C65.885,6.0604 65.796,6.1184 65.698,6.1574 C65.599,6.2074 65.501,6.2274 65.403,6.2364 C65.304,6.2464 65.216,6.2274 65.147,6.1964 L65.039,6.0604 L65.098,5.8534 L65.236,5.6364 L65.393,5.4694 L65.423,5.3314 L65.245,5.2434 C65.167,5.2244 65.078,5.2134 64.98,5.2134 C64.872,5.2134 64.793,5.2334 64.724,5.2634 C64.596,5.3214 64.498,5.4204 64.419,5.5584 C64.331,5.6954 64.291,5.8334 64.301,5.9814 C64.301,6.1284 64.36,6.2664 64.478,6.3944 C64.587,6.5224 64.773,6.5904 65.039,6.6094 C65.226,6.6204 65.412,6.6094 65.599,6.5804 C65.786,6.5514 65.953,6.5024 66.121,6.4234 C66.288,6.3554 66.435,6.2564 66.573,6.1284 C66.711,6.0104 66.819,5.8724 66.907,5.7154 C67.015,5.5194 67.055,5.3514 67.045,5.2134 C67.025,5.0754 66.976,4.9584 66.898,4.8594 C66.819,4.7614 66.72,4.6734 66.613,4.5944 C66.494,4.5254 66.386,4.4564 66.298,4.3884 L66.101,4.1714 C66.052,4.1034 66.062,4.0144 66.131,3.9154 C66.199,3.8074 66.307,3.7194 66.435,3.6594 C66.563,3.6014 66.681,3.5814 66.77,3.5914 L66.78,3.6794 L66.701,3.8074 L66.593,3.9354 L66.494,4.0534 L66.465,4.1904 L66.602,4.2604 L66.829,4.2604 L67.065,4.2204 C67.212,4.1714 67.35,4.0824 67.478,3.9654 C67.596,3.8474 67.684,3.7384 67.743,3.6304 C67.842,3.4534 67.842,3.3354 67.734,3.2764 C67.625,3.2174 67.488,3.1884 67.301,3.1884 C66.917,3.1884 66.583,3.2464 66.298,3.3644 C66.012,3.4824 65.786,3.6494 65.619,3.8564 C65.471,4.0434 65.393,4.2004 65.373,4.3284 M70.282,3.1684 C70.095,3.1484 69.899,3.1684 69.682,3.2274 C69.456,3.2964 69.23,3.3944 68.994,3.5314 C68.748,3.6794 68.522,3.8564 68.296,4.0724 C68.07,4.2794 67.873,4.5054 67.725,4.7314 C67.568,4.9584 67.45,5.1844 67.371,5.4004 C67.293,5.6164 67.263,5.8144 67.273,5.9904 C67.283,6.1774 67.342,6.3244 67.45,6.4424 C67.558,6.5614 67.696,6.6304 67.883,6.6494 C68.07,6.6694 68.266,6.6494 68.483,6.5804 C68.699,6.5224 68.926,6.4234 69.171,6.2754 C69.407,6.1384 69.634,5.9614 69.86,5.7544 C70.086,5.5484 70.282,5.3214 70.44,5.0964 C70.597,4.8694 70.715,4.6434 70.794,4.4274 C70.872,4.2104 70.902,4.0144 70.892,3.8274 C70.883,3.6494 70.823,3.5024 70.715,3.3844 C70.607,3.2674 70.46,3.1974 70.282,3.1684 M69.338,5.5484 C69.211,5.6764 69.083,5.7734 68.965,5.8434 C68.837,5.9224 68.729,5.9714 68.63,5.9904 C68.522,6.0104 68.444,6.0004 68.375,5.9514 C68.316,5.9014 68.286,5.8334 68.276,5.7254 C68.266,5.6264 68.276,5.5094 68.316,5.3714 C68.355,5.2434 68.414,5.0964 68.503,4.9384 C68.581,4.7804 68.679,4.6234 68.807,4.4564 C68.935,4.2894 69.063,4.1514 69.201,4.0234 C69.328,3.8964 69.456,3.7974 69.584,3.7194 C69.702,3.6404 69.81,3.5914 69.919,3.5714 C70.017,3.5524 70.095,3.5624 70.164,3.6104 C70.223,3.6594 70.263,3.7294 70.273,3.8274 C70.282,3.9354 70.263,4.0534 70.223,4.1904 C70.184,4.3284 70.125,4.4764 70.037,4.6334 C69.948,4.7904 69.85,4.9484 69.722,5.1154 C69.594,5.2824 69.466,5.4204 69.338,5.5484 M73.344,3.4534 C73.097,3.6014 72.842,3.7874 72.596,3.9944 L72.95,3.4924 L73.038,3.2564 L72.871,3.1684 L72.586,3.1684 C72.498,3.1684 72.389,3.1974 72.281,3.2564 C72.173,3.3154 72.074,3.3944 72.006,3.4924 L70.029,6.2954 L69.941,6.5314 L70.098,6.6304 L70.383,6.6304 C70.472,6.6304 70.58,6.6004 70.688,6.5314 C70.796,6.4724 70.895,6.3944 70.973,6.2954 L71.229,5.9324 L71.268,5.8824 C71.426,5.6564 71.622,5.4204 71.868,5.1644 C72.104,4.9184 72.34,4.6834 72.576,4.4764 C72.812,4.2704 73.029,4.1124 73.216,3.9844 C73.402,3.8564 73.52,3.8164 73.579,3.8474 C73.648,3.8764 73.629,3.9754 73.501,4.1324 C73.373,4.2994 73.166,4.5554 72.891,4.8984 C72.665,5.1934 72.508,5.4594 72.419,5.6864 C72.33,5.9114 72.291,6.0994 72.321,6.2464 C72.34,6.3944 72.409,6.5024 72.537,6.5704 C72.665,6.6404 72.822,6.6494 73.019,6.6094 C73.156,6.5804 73.314,6.5124 73.491,6.4034 C73.658,6.2954 73.835,6.1774 74.012,6.0294 C74.189,5.8824 74.366,5.7254 74.543,5.5584 C74.71,5.3914 74.878,5.2244 75.025,5.0654 C75.173,4.9084 75.301,4.7614 75.408,4.6334 C75.517,4.5054 75.586,4.4074 75.635,4.3384 L75.723,4.1224 L75.694,3.9754 L75.556,3.9754 C75.487,4.0044 75.408,4.0724 75.32,4.1814 C75.192,4.3484 75.025,4.5254 74.838,4.7224 C74.651,4.9184 74.465,5.1064 74.278,5.2724 C74.091,5.4394 73.914,5.5774 73.766,5.6864 C73.609,5.7944 73.501,5.8334 73.432,5.8144 L73.373,5.7644 L73.392,5.6164 C73.412,5.5484 73.461,5.4594 73.53,5.3414 C73.599,5.2244 73.707,5.0754 73.855,4.8984 C74.15,4.5354 74.356,4.2304 74.484,3.9944 C74.602,3.7684 74.661,3.5814 74.651,3.4534 C74.641,3.3254 74.582,3.2464 74.474,3.2074 C74.366,3.1684 74.219,3.1584 74.052,3.1884 C73.825,3.2174 73.589,3.3064 73.344,3.4534 M75.293,4.3284 C75.274,4.4564 75.293,4.5744 75.352,4.6634 C75.401,4.7614 75.48,4.8504 75.588,4.9184 C75.686,4.9974 75.785,5.0754 75.873,5.1454 L76.08,5.3914 C76.129,5.4794 76.139,5.5774 76.09,5.6954 C76.04,5.8144 75.982,5.9114 75.893,5.9814 C75.804,6.0604 75.716,6.1184 75.617,6.1574 C75.519,6.2074 75.421,6.2274 75.323,6.2364 C75.224,6.2464 75.135,6.2274 75.067,6.1964 L74.959,6.0604 L75.018,5.8534 L75.156,5.6364 L75.313,5.4694 L75.342,5.3314 L75.165,5.2434 C75.087,5.2244 74.998,5.2134 74.9,5.2134 C74.792,5.2134 74.713,5.2334 74.644,5.2634 C74.516,5.3214 74.418,5.4204 74.339,5.5584 C74.251,5.6954 74.211,5.8334 74.221,5.9814 C74.221,6.1284 74.28,6.2664 74.398,6.3944 C74.506,6.5224 74.693,6.5904 74.959,6.6094 C75.146,6.6204 75.332,6.6094 75.519,6.5804 C75.706,6.5514 75.873,6.5024 76.04,6.4234 C76.208,6.3554 76.355,6.2564 76.493,6.1284 C76.631,6.0104 76.739,5.8724 76.827,5.7154 C76.935,5.5194 76.975,5.3514 76.965,5.2134 C76.945,5.0754 76.896,4.9584 76.818,4.8594 C76.739,4.7614 76.64,4.6734 76.532,4.5944 C76.414,4.5254 76.306,4.4564 76.218,4.3884 L76.021,4.1714 C75.971,4.1034 75.982,4.0144 76.051,3.9154 C76.119,3.8074 76.227,3.7194 76.355,3.6594 C76.483,3.6014 76.601,3.5814 76.69,3.5914 L76.699,3.6794 L76.621,3.8074 L76.512,3.9354 L76.414,4.0534 L76.385,4.1904 L76.522,4.2604 L76.749,4.2604 L76.985,4.2204 C77.132,4.1714 77.27,4.0824 77.398,3.9654 C77.516,3.8474 77.604,3.7384 77.663,3.6304 C77.761,3.4534 77.761,3.3354 77.654,3.2764 C77.545,3.2174 77.407,3.1884 77.22,3.1884 C76.837,3.1884 76.503,3.2464 76.218,3.3644 C75.932,3.4824 75.706,3.6494 75.539,3.8564 C75.391,4.0434 75.313,4.2004 75.293,4.3284 M85.21,0.7984 C85.327,0.6804 85.416,0.5714 85.475,0.4634 L85.544,0.2474 L85.465,0.1094 L85.279,0.0404 L85.023,0.0214 C84.413,0.0214 83.843,0.1194 83.312,0.3064 C82.781,0.4934 82.299,0.7494 81.866,1.0544 C81.433,1.3584 81.05,1.7124 80.725,2.1064 C80.401,2.5094 80.135,2.9124 79.928,3.3254 C79.722,3.7384 79.594,4.1424 79.525,4.5354 C79.456,4.9384 79.467,5.2924 79.555,5.5974 C79.643,5.9014 79.801,6.1574 80.047,6.3454 C80.292,6.5314 80.627,6.6304 81.05,6.6304 C81.482,6.6304 81.885,6.5514 82.249,6.4034 C82.614,6.2564 82.948,6.0604 83.253,5.8334 C83.557,5.6064 83.833,5.3614 84.079,5.0964 C84.324,4.8304 84.56,4.5744 84.767,4.3384 L84.885,4.1324 L84.846,4.0044 L84.698,4.0044 C84.629,4.0234 84.541,4.0824 84.452,4.1814 C84.265,4.3774 84.059,4.5944 83.813,4.8204 C83.567,5.0564 83.312,5.2724 83.036,5.4594 C82.761,5.6474 82.476,5.7944 82.171,5.8924 C81.866,6.0004 81.571,6.0104 81.276,5.9414 C81.03,5.8924 80.863,5.7254 80.784,5.4594 C80.705,5.1934 80.705,4.8794 80.774,4.5054 C80.843,4.1324 80.981,3.7294 81.187,3.3064 C81.394,2.8834 81.65,2.4704 81.964,2.0864 C82.279,1.7024 82.643,1.3684 83.056,1.0734 C83.459,0.7884 83.911,0.5914 84.393,0.5034 L84.423,0.5714 L84.384,0.6704 L84.315,0.7694 L84.226,0.8864 L84.197,1.0234 L84.334,1.0934 L84.56,1.0934 L84.797,1.0544 C84.944,1.0044 85.082,0.9164 85.21,0.7984 M86.54,3.1684 C86.353,3.1484 86.156,3.1684 85.94,3.2274 C85.714,3.2964 85.488,3.3944 85.252,3.5314 C85.006,3.6794 84.78,3.8564 84.553,4.0724 C84.327,4.2794 84.131,4.5054 83.983,4.7314 C83.826,4.9584 83.708,5.1844 83.629,5.4004 C83.551,5.6164 83.521,5.8144 83.531,5.9904 C83.541,6.1774 83.599,6.3244 83.708,6.4424 C83.816,6.5614 83.954,6.6304 84.14,6.6494 C84.327,6.6694 84.524,6.6494 84.74,6.5804 C84.957,6.5224 85.183,6.4234 85.429,6.2754 C85.665,6.1384 85.891,5.9614 86.117,5.7544 C86.344,5.5484 86.54,5.3214 86.698,5.0964 C86.855,4.8694 86.973,4.6434 87.052,4.4274 C87.13,4.2104 87.159,4.0144 87.15,3.8274 C87.14,3.6494 87.081,3.5024 86.973,3.3844 C86.865,3.2674 86.717,3.1974 86.54,3.1684 M85.596,5.5484 C85.468,5.6764 85.34,5.7734 85.222,5.8434 C85.094,5.9224 84.986,5.9714 84.888,5.9904 C84.78,6.0104 84.701,6.0004 84.632,5.9514 C84.573,5.9014 84.544,5.8334 84.534,5.7254 C84.524,5.6264 84.534,5.5094 84.573,5.3714 C84.613,5.2434 84.672,5.0964 84.76,4.9384 C84.839,4.7804 84.937,4.6234 85.065,4.4564 C85.193,4.2894 85.321,4.1514 85.458,4.0234 C85.586,3.8964 85.714,3.7974 85.842,3.7194 C85.96,3.6404 86.068,3.5914 86.176,3.5714 C86.275,3.5524 86.353,3.5624 86.422,3.6104 C86.481,3.6594 86.52,3.7294 86.53,3.8274 C86.54,3.9354 86.52,4.0534 86.481,4.1904 C86.442,4.3284 86.383,4.4764 86.294,4.6334 C86.206,4.7904 86.107,4.9484 85.979,5.1154 C85.852,5.2824 85.724,5.4204 85.596,5.5484 M88.214,5.7054 C88.106,5.6064 87.978,5.5584 87.831,5.5584 C87.683,5.5584 87.555,5.6064 87.447,5.7054 C87.339,5.8144 87.29,5.9414 87.29,6.0894 C87.29,6.2364 87.339,6.3644 87.447,6.4724 C87.555,6.5804 87.683,6.6304 87.831,6.6304 C87.978,6.6304 88.106,6.5804 88.214,6.4724 C88.313,6.3644 88.362,6.2364 88.362,6.0894 C88.362,5.9414 88.313,5.8144 88.214,5.7054" id="Fill-6" fill="#414042" mask="url(#mask-4)"></path>
            </g>
            <mask id="mask-6" fill="white">
                <use xlink:href="#path-5"></use>
            </mask>
            <g id="Clip-10"></g>
            <polygon id="Fill-9" fill="#414042" mask="url(#mask-6)" points="52.489 92.914 76.511 92.914 76.511 71.042 52.489 71.042"></polygon>
            <path d="M59.7927,77.4508 L56.7857,80.9408 L56.7857,82.6108 C57.2307,82.4808 57.6947,82.4068 58.1777,82.4068 C59.1437,82.4068 59.9037,82.6108 60.4427,83.0018 C60.9807,83.3908 61.2597,83.9298 61.2597,84.5798 C61.2597,85.2478 61.0187,85.7488 60.5357,86.1008 C60.0347,86.4548 59.4217,86.6398 58.6607,86.6398 C57.4907,86.6398 56.3767,86.2678 55.3187,85.5258 L54.3907,87.2898 C55.7457,88.1998 57.1197,88.6448 58.5307,88.6448 C59.9417,88.6448 61.0927,88.2738 62.0017,87.5128 C62.8937,86.7518 63.3387,85.7118 63.3387,84.3928 C63.3387,83.4098 63.0047,82.5548 62.3357,81.8318 C61.6677,81.1268 60.7397,80.7548 59.5517,80.7178 L62.6887,77.2088 L62.6887,75.5018 L55.0957,75.5018 L55.0957,77.4508 L59.7927,77.4508 Z M69.4107,82.6668 L65.4747,86.6218 L65.4747,88.4778 L74.3487,88.4778 L74.3487,86.3808 L68.4637,86.3808 L71.5077,83.2798 C72.4367,82.3328 73.0677,81.5538 73.4197,80.9408 C73.7727,80.3278 73.9397,79.6968 73.9397,79.0278 C73.9397,77.8408 73.5317,76.8928 72.7147,76.2068 C71.8977,75.5198 70.9517,75.1848 69.8747,75.1848 C68.7787,75.1848 67.9067,75.4078 67.2197,75.8358 C66.5327,76.2628 65.9017,76.9118 65.3267,77.7658 L67.0897,78.7868 C67.7947,77.6918 68.6867,77.1528 69.7447,77.1528 C70.3567,77.1528 70.8587,77.3398 71.2487,77.6918 C71.6387,78.0628 71.8427,78.5088 71.8427,79.0278 C71.8427,79.5488 71.6567,80.0678 71.2857,80.5688 C70.9147,81.0708 70.2827,81.7758 69.4107,82.6668 Z" id="Fill-11" fill="#FEFEFE" mask="url(#mask-6)"></path>
            <path d="M26.3698,80.4693 L26.3698,80.0003 L24.0158,80.0003 L24.0158,80.4693 L24.9368,80.4693 L24.9368,83.0353 L25.4498,83.0353 L25.4498,80.4693 L26.3698,80.4693 Z M29.9178,80.2353 C29.7188,80.0783 29.3888,80.0003 28.9238,80.0003 L27.7938,80.0003 L27.7938,83.0353 L28.3068,83.0353 L28.3068,82.0153 L28.9798,82.0153 L29.7048,83.0353 L30.3568,83.0353 L29.5618,81.9333 C30.0008,81.8023 30.2178,81.4863 30.2178,80.9863 C30.2178,80.6433 30.1178,80.3913 29.9178,80.2353 Z M28.9448,81.5503 L28.3068,81.5503 L28.3068,80.4643 L28.9578,80.4643 C29.2318,80.4643 29.4228,80.4993 29.5318,80.5733 C29.6408,80.6473 29.6918,80.7863 29.6918,80.9823 C29.6918,81.1813 29.6408,81.3243 29.5358,81.4163 C29.4318,81.5073 29.2358,81.5503 28.9448,81.5503 Z M32.8668,80.0003 L31.8248,80.0003 L31.8248,83.0353 L32.8318,83.0353 C33.4178,83.0353 33.8528,82.8973 34.1348,82.6233 C34.4168,82.3503 34.5608,81.9763 34.5608,81.5023 C34.5608,81.0303 34.4128,80.6603 34.1218,80.3953 C33.8308,80.1303 33.4098,80.0003 32.8668,80.0003 Z M33.7528,82.2883 C33.5578,82.4673 33.2748,82.5543 32.9058,82.5543 L32.3368,82.5543 L32.3368,80.4733 L32.8498,80.4733 C33.6438,80.4733 34.0438,80.8213 34.0438,81.5163 C34.0438,81.8593 33.9488,82.1153 33.7528,82.2883 Z M36.6018,80.6643 L37.6568,82.7713 L37.9438,82.7713 L39.0038,80.6643 L39.0038,83.0353 L39.5158,83.0353 L39.5158,80.0003 L38.7208,80.0003 L37.8048,81.9063 L36.8888,80.0003 L36.0888,80.0003 L36.0888,83.0353 L36.6018,83.0353 L36.6018,80.6643 Z M91.9728,80.4563 L92.5898,80.4563 L92.5898,83.0353 L93.0758,83.0353 L93.0758,80.0003 L91.9728,80.0003 L91.9728,80.4563 Z M95.2298,82.5403 C95.1168,82.4933 95.0258,82.4413 94.9608,82.3843 L94.7038,82.7623 C94.9688,82.9663 95.2688,83.0713 95.5988,83.0713 C95.9248,83.0713 96.2028,82.9533 96.4288,82.7143 C96.5458,82.5933 96.6368,82.4283 96.7028,82.2193 C96.7668,82.0113 96.8018,81.7503 96.8018,81.4383 C96.8018,81.1253 96.7498,80.8423 96.6458,80.5953 C96.4588,80.1603 96.1248,79.9443 95.6378,79.9443 C95.3388,79.9443 95.0868,80.0343 94.8908,80.2173 C94.6908,80.4003 94.5918,80.6383 94.5918,80.9383 C94.5918,81.2383 94.6828,81.4813 94.8698,81.6593 C95.0518,81.8413 95.2778,81.9333 95.5508,81.9333 C95.7158,81.9333 95.8688,81.8983 96.0028,81.8243 C96.1378,81.7543 96.2418,81.6813 96.3158,81.5983 C96.3108,81.9063 96.2458,82.1553 96.1208,82.3363 C95.9948,82.5193 95.7948,82.6113 95.5248,82.6113 C95.4378,82.6113 95.3388,82.5883 95.2298,82.5403 Z M95.2078,81.3213 C95.1078,81.2113 95.0558,81.0813 95.0558,80.9253 C95.0558,80.7693 95.1128,80.6383 95.2208,80.5383 C95.3298,80.4393 95.4728,80.3913 95.6418,80.3913 C95.8118,80.3913 95.9508,80.4483 96.0638,80.5563 C96.1768,80.6693 96.2328,80.8033 96.2328,80.9553 C96.2328,81.1123 96.1768,81.2383 96.0588,81.3333 C95.9418,81.4333 95.7948,81.4813 95.6208,81.4813 C95.4428,81.4813 95.3078,81.4293 95.2078,81.3213 Z M98.2868,80.7473 C98.2868,80.9823 98.3958,81.1903 98.6128,81.3683 C98.3218,81.5553 98.1738,81.8163 98.1738,82.1503 C98.1738,82.4103 98.2788,82.6273 98.4868,82.8063 C98.6958,82.9843 98.9688,83.0713 99.3078,83.0713 C99.6468,83.0713 99.9198,82.9843 100.1288,82.8063 C100.3368,82.6273 100.4418,82.4103 100.4418,82.1503 C100.4418,81.8163 100.2938,81.5553 100.0028,81.3683 C100.2198,81.1903 100.3288,80.9823 100.3288,80.7473 C100.3288,80.5173 100.2328,80.3223 100.0368,80.1693 C99.8418,80.0173 99.5988,79.9393 99.3078,79.9393 C99.0168,79.9393 98.7738,80.0173 98.5788,80.1693 C98.3828,80.3223 98.2868,80.5173 98.2868,80.7473 Z M98.6828,82.1323 C98.6828,81.9723 98.7468,81.8503 98.8728,81.7633 C98.9988,81.6763 99.1468,81.6333 99.3078,81.6333 C99.4688,81.6333 99.6158,81.6763 99.7418,81.7633 C99.8678,81.8503 99.9328,81.9723 99.9328,82.1323 C99.9328,82.2933 99.8678,82.4143 99.7338,82.4973 C99.5988,82.5843 99.4598,82.6273 99.3078,82.6273 C99.1558,82.6273 99.0168,82.5843 98.8818,82.4973 C98.7468,82.4143 98.6828,82.2933 98.6828,82.1323 Z M98.7608,80.7903 C98.7608,80.6643 98.8168,80.5563 98.9258,80.4693 C99.0348,80.3823 99.1598,80.3383 99.3078,80.3383 C99.4548,80.3383 99.5858,80.3823 99.6948,80.4693 C99.8028,80.5563 99.8548,80.6643 99.8548,80.7903 C99.8548,80.9203 99.8028,81.0303 99.6948,81.1163 C99.5858,81.2073 99.4548,81.2503 99.3078,81.2503 C99.1598,81.2503 99.0348,81.2073 98.9258,81.1163 C98.8168,81.0303 98.7608,80.9203 98.7608,80.7903 Z M103.3938,80.4733 C103.5028,80.5213 103.5948,80.5733 103.6598,80.6293 L103.9158,80.2523 C103.6508,80.0483 103.3508,79.9443 103.0248,79.9443 C102.6948,79.9443 102.4168,80.0613 102.1908,80.2993 C102.0738,80.4213 101.9828,80.5863 101.9178,80.7943 C101.8528,81.0033 101.8178,81.2643 101.8178,81.5763 C101.8178,81.8893 101.8698,82.1713 101.9748,82.4193 C102.1608,82.8543 102.4958,83.0713 102.9818,83.0713 C103.2818,83.0713 103.5338,82.9803 103.7328,82.7973 C103.9288,82.6153 104.0288,82.3713 104.0288,82.0723 C104.0288,81.7723 103.9368,81.5333 103.7548,81.3513 C103.5678,81.1723 103.3428,81.0813 103.0688,81.0813 C102.9038,81.0813 102.7518,81.1163 102.6168,81.1863 C102.4818,81.2593 102.3778,81.3333 102.3048,81.4163 C102.3088,81.1083 102.3738,80.8603 102.4998,80.6773 C102.6258,80.4953 102.8258,80.4043 103.0948,80.4043 C103.1818,80.4043 103.2818,80.4253 103.3938,80.4733 Z M103.4208,81.6943 C103.5248,81.8023 103.5768,81.9373 103.5768,82.0893 C103.5768,82.2453 103.5198,82.3713 103.4078,82.4713 C103.2948,82.5723 103.1508,82.6233 102.9818,82.6233 C102.8128,82.6233 102.6688,82.5673 102.5568,82.4533 C102.4428,82.3453 102.3868,82.2103 102.3868,82.0543 C102.3868,81.9033 102.4478,81.7773 102.5648,81.6763 C102.6828,81.5813 102.8258,81.5333 103.0038,81.5333 C103.1778,81.5333 103.3158,81.5853 103.4208,81.6943 Z" id="Fill-12" fill="#414042" mask="url(#mask-6)"></path>
            <path d="M11.5271,25.4644 C11.7781,25.6354 11.9331,25.8644 11.9941,26.1504 C12.0511,26.4384 11.9981,26.7074 11.8321,26.9524 C11.6651,27.1964 11.4341,27.3454 11.1471,27.3944 C10.8581,27.4454 10.5881,27.3864 10.3361,27.2154 C10.0881,27.0464 9.9331,26.8174 9.8751,26.5284 C9.8151,26.2434 9.8681,25.9744 10.0341,25.7304 C10.2011,25.4854 10.4321,25.3364 10.7211,25.2844 C11.0081,25.2354 11.2791,25.2954 11.5271,25.4644 M11.8191,25.0354 C11.4541,24.7864 11.0651,24.7034 10.6491,24.7884 C10.2331,24.8744 9.9021,25.1014 9.6521,25.4694 C9.4011,25.8374 9.3121,26.2284 9.3851,26.6464 C9.4581,27.0644 9.6791,27.3964 10.0441,27.6444 C10.4091,27.8924 10.7981,27.9764 11.2141,27.8904 C11.6301,27.8054 11.9641,27.5814 12.2141,27.2124 C12.4651,26.8444 12.5511,26.4514 12.4781,26.0334 C12.4041,25.6144 12.1841,25.2834 11.8191,25.0354" id="Fill-13" fill="#010202" mask="url(#mask-6)"></path>
            <path d="M13.4685,21.0494 C13.2235,21.1004 12.9535,21.2984 12.6565,21.6484 L11.9355,22.4984 L14.2195,24.4384 L14.5475,24.0524 L13.7795,23.4004 L14.2095,22.8934 L15.4415,22.9994 L15.8575,22.5094 L14.5195,22.4034 C14.7015,21.9884 14.6015,21.6234 14.2255,21.3044 C13.9675,21.0854 13.7145,20.9994 13.4685,21.0494 M13.8375,22.6224 L13.4295,23.1034 L12.6125,22.4094 L13.0285,21.9194 C13.2035,21.7134 13.3515,21.5914 13.4765,21.5574 C13.6015,21.5224 13.7395,21.5714 13.8865,21.6964 C14.0365,21.8244 14.1115,21.9554 14.1135,22.0924 C14.1155,22.2294 14.0235,22.4034 13.8375,22.6224" id="Fill-14" fill="#010202" mask="url(#mask-6)"></path>
            <polygon id="Fill-15" fill="#010202" mask="url(#mask-6)" points="17.1022 21.2027 17.4572 20.8407 15.3142 18.7387 14.9602 19.0997"></polygon>
            <path d="M20.0778,17.5396 C20.0158,17.7606 19.8788,17.9606 19.6668,18.1476 C19.4518,18.3376 19.2068,18.4226 18.9288,18.4106 C18.6498,18.3996 18.4088,18.2756 18.1968,18.0346 C17.9868,17.7976 17.8938,17.5366 17.9178,17.2536 C17.9448,16.9726 18.0688,16.7316 18.2968,16.5306 C18.4158,16.4256 18.5298,16.3486 18.6448,16.2976 C18.7568,16.2496 18.8948,16.2256 19.0468,16.2226 L18.9948,15.7556 C18.6118,15.7556 18.2638,15.8966 17.9388,16.1836 C17.6148,16.4696 17.4408,16.8226 17.4088,17.2456 C17.3758,17.6686 17.5068,18.0496 17.8018,18.3836 C18.0968,18.7176 18.4528,18.8936 18.8698,18.9136 C19.2838,18.9366 19.6598,18.7996 19.9898,18.5086 C20.3848,18.1596 20.5848,17.7776 20.5898,17.3556 L19.9128,16.5896 L19.5338,16.9236 L20.0778,17.5396 Z" id="Fill-16" fill="#010202" mask="url(#mask-6)"></path>
            <polygon id="Fill-17" fill="#010202" mask="url(#mask-6)" points="22.3679 16.4986 22.7689 16.1896 20.9409 13.8136 20.5399 14.1226"></polygon>
            <polygon id="Fill-18" fill="#010202" mask="url(#mask-6)" points="25.864 13.0777 23.176 12.1867 22.756 12.4687 24.421 14.9557 24.841 14.6757 23.626 12.8597 26.25 13.7317 26.706 13.4267 25.04 10.9387 24.62 11.2207"></polygon>
            <path d="M29.8127,10.8082 L30.4087,11.2542 L30.8787,10.9892 L28.2567,9.0282 L27.7867,9.2932 L28.1087,12.5522 L28.5797,12.2872 L28.5057,11.5452 L29.8127,10.8082 Z M28.4557,11.0372 L28.3227,9.6952 L29.4037,10.5022 L28.4557,11.0372 Z" id="Fill-19" fill="#010202" mask="url(#mask-6)"></path>
            <polygon id="Fill-20" fill="#010202" mask="url(#mask-6)" points="34.0432 9.442 33.8352 9.009 32.6022 9.602 31.5112 7.334 31.0552 7.553 32.3552 10.254"></polygon>
            <path d="M39.5119,6.5035 L40.0269,7.0405 L40.5339,6.8565 L38.2689,4.4945 L37.7619,4.6805 L37.5479,7.9435 L38.0549,7.7595 L38.1039,7.0175 L39.5119,6.5035 Z M38.1369,6.5085 L38.2249,5.1625 L39.1589,6.1355 L38.1369,6.5085 Z" id="Fill-21" fill="#010202" mask="url(#mask-6)"></path>
            <path d="M42.1018,4.9605 L41.6358,3.3695 L41.1498,3.5125 L41.6228,5.1235 C41.7448,5.5385 41.9528,5.8215 42.2438,5.9775 C42.5368,6.1375 42.8608,6.1625 43.2188,6.0575 C43.5758,5.9525 43.8348,5.7555 43.9958,5.4635 C44.1558,5.1755 44.1788,4.8245 44.0568,4.4095 L43.5838,2.7985 L43.0988,2.9395 L43.5658,4.5315 C43.6428,4.7945 43.6388,5.0225 43.5518,5.2145 C43.4648,5.4045 43.3108,5.5345 43.0848,5.6015 C42.8588,5.6675 42.6588,5.6415 42.4828,5.5275 C42.3068,5.4135 42.1798,5.2235 42.1018,4.9605" id="Fill-22" fill="#010202" mask="url(#mask-6)"></path>
            <polygon id="Fill-23" fill="#010202" mask="url(#mask-6)" points="47.8088 2.232 47.7038 1.782 45.4438 2.309 45.5498 2.76 46.4338 2.553 47.0088 5.017 47.4998 4.903 46.9248 2.439"></polygon>
            <polygon id="Fill-24" fill="#010202" mask="url(#mask-6)" points="50.6521 4.2535 50.4441 3.0445 51.9111 2.7925 52.1191 4.0015 52.6181 3.9155 52.1101 0.9605 51.6111 1.0465 51.8311 2.3275 50.3641 2.5795 50.1441 1.2985 49.6461 1.3845 50.1531 4.3395"></polygon>
            <polygon id="Fill-25" fill="#010202" mask="url(#mask-6)" points="54.3244 0.6519 54.6694 3.6269 56.8104 3.3789 56.7554 2.9059 55.1164 3.0959 55.0244 2.2999 56.4504 2.1339 56.3984 1.6879 54.9724 1.8529 54.8814 1.0659 56.4694 0.8809 56.4144 0.4089"></polygon>
            <polygon id="Fill-26" fill="#010202" mask="url(#mask-6)" points="60.8928 2.3258 59.0238 0.1888 58.5178 0.2188 58.6908 3.2138 59.1968 3.1838 59.0708 0.9988 60.8928 3.0868 61.4418 3.0548 61.2688 0.0598 60.7638 0.0888"></polygon>
            <polygon id="Fill-27" fill="#010202" mask="url(#mask-6)" points="65.5315 0.4635 65.5255 0.0005 63.2025 0.0315 63.2085 0.4945 64.1175 0.4825 64.1515 3.0155 64.6575 3.0085 64.6225 0.4755"></polygon>
            <polygon id="Fill-28" fill="#010202" mask="url(#mask-6)" points="67.3703 3.065 67.8753 3.086 67.9973 0.09 67.4923 0.07"></polygon>
            <path d="M70.6677,2.484 C70.4797,2.265 70.3987,2.001 70.4247,1.698 C70.4507,1.394 70.5737,1.155 70.7957,0.976 C71.0177,0.801 71.2777,0.725 71.5807,0.751 C71.7517,0.765 71.8987,0.803 72.0217,0.87 C72.1417,0.936 72.2707,1.042 72.3987,1.19 L72.7497,0.867 C72.4667,0.499 72.0967,0.296 71.6357,0.256 C71.1697,0.216 70.7777,0.334 70.4487,0.603 C70.1207,0.872 69.9357,1.23 69.8977,1.674 C69.8597,2.119 69.9787,2.499 70.2517,2.814 C70.5217,3.13 70.8857,3.307 71.3387,3.345 C71.7867,3.383 72.1867,3.241 72.5317,2.918 L72.2357,2.557 C72.0877,2.673 71.9477,2.756 71.8197,2.801 C71.6897,2.85 71.5387,2.868 71.3627,2.853 C71.0857,2.829 70.8507,2.706 70.6677,2.484" id="Fill-29" fill="#010202" mask="url(#mask-6)"></path>
            <path d="M78.8947,3.7027 C78.6827,3.7927 78.4397,3.8107 78.1607,3.7627 C77.8777,3.7127 77.6577,3.5737 77.4927,3.3487 C77.3277,3.1237 77.2737,2.8567 77.3297,2.5397 C77.3837,2.2267 77.5297,1.9917 77.7677,1.8327 C78.0027,1.6777 78.2697,1.6247 78.5697,1.6777 C78.7267,1.7047 78.8587,1.7447 78.9707,1.8037 C79.0777,1.8617 79.1837,1.9547 79.2807,2.0717 L79.6137,1.7377 C79.3737,1.4387 79.0447,1.2547 78.6177,1.1807 C78.1907,1.1047 77.8057,1.1897 77.4547,1.4297 C77.1027,1.6687 76.8867,2.0097 76.8097,2.4487 C76.7327,2.8887 76.8167,3.2777 77.0617,3.6177 C77.3037,3.9557 77.6457,4.1637 78.0817,4.2407 C78.6017,4.3317 79.0257,4.2487 79.3587,3.9887 L79.5357,2.9787 L79.0367,2.8907 L78.8947,3.7027 Z" id="Fill-30" fill="#010202" mask="url(#mask-6)"></path>
            <polygon id="Fill-31" fill="#010202" mask="url(#mask-6)" points="81.843 1.9049 81.153 4.8189 83.25 5.3149 83.359 4.8529 81.754 4.4719 81.939 3.6929 83.335 4.0239 83.439 3.5859 82.043 3.2559 82.225 2.4839 83.78 2.8519 83.89 2.3889"></polygon>
            <polygon id="Fill-32" fill="#010202" mask="url(#mask-6)" points="87.426 5.7301 86.415 3.0841 85.931 2.9371 85.058 5.8001 85.542 5.9481 86.178 3.8591 87.164 6.4431 87.688 6.6031 88.561 3.7391 88.078 3.5921"></polygon>
            <path d="M90.5627,6.191 L91.1527,4.639 L90.6797,4.46 L90.0817,6.031 C89.9277,6.436 89.9227,6.788 90.0607,7.087 C90.1977,7.392 90.4407,7.609 90.7897,7.741 C91.1387,7.874 91.4647,7.874 91.7687,7.738 C92.0717,7.605 92.3017,7.338 92.4557,6.934 L93.0537,5.362 L92.5807,5.182 L91.9897,6.734 C91.8927,6.991 91.7497,7.17 91.5657,7.27 C91.3807,7.37 91.1797,7.38 90.9587,7.296 C90.7387,7.212 90.5947,7.071 90.5227,6.874 C90.4517,6.676 90.4647,6.448 90.5627,6.191" id="Fill-33" fill="#010202" mask="url(#mask-6)"></path>
            <polygon id="Fill-34" fill="#010202" mask="url(#mask-6)" points="93.8757 8.9683 94.3387 9.1713 95.5467 6.4303 95.0837 6.2263"></polygon>
            <polygon id="Fill-35" fill="#010202" mask="url(#mask-6)" points="98.5642 10.3892 98.0432 7.6072 97.5932 7.3752 96.2222 10.0352 96.6712 10.2672 97.6722 8.3262 98.1792 11.0432 98.6662 11.2942 100.0372 8.6342 99.5872 8.4032"></polygon>
            <polygon id="Fill-36" fill="#010202" mask="url(#mask-6)" points="102.0022 9.7447 100.4492 12.3047 102.2902 13.4217 102.5372 13.0157 101.1272 12.1597 101.5432 11.4747 102.7692 12.2207 103.0022 11.8357 101.7762 11.0907 102.1882 10.4137 103.5532 11.2427 103.7992 10.8367"></polygon>
            <polygon id="Fill-37" fill="#010202" mask="url(#mask-6)" points="107.3181 17.0211 107.6111 16.6401 106.5261 15.8061 108.0611 13.8111 107.6601 13.5021 105.8331 15.8781"></polygon>
            <path d="M110.5808,18.9566 L110.3468,19.6636 L110.7468,20.0256 L111.7778,16.9166 L111.3768,16.5546 L108.3868,17.8926 L108.7878,18.2546 L109.4678,17.9496 L110.5808,18.9566 Z M109.9338,17.7406 L111.1658,17.1896 L110.7418,18.4716 L109.9338,17.7406 Z" id="Fill-38" fill="#010202" mask="url(#mask-6)"></path>
            <path d="M113.5832,22.5865 C113.7952,22.5825 113.9802,22.5105 114.1342,22.3665 C114.2722,22.2385 114.3502,22.0895 114.3712,21.9235 C114.3862,21.7575 114.3472,21.5895 114.2502,21.4285 L114.3602,21.4715 L114.4892,21.5035 C114.6762,21.5345 114.8522,21.4715 115.0242,21.3105 C115.1652,21.1795 115.2472,21.0095 115.2672,20.8035 C115.2772,20.6945 115.2542,20.5695 115.1892,20.4305 C115.1222,20.2885 115.0202,20.1425 114.8832,19.9945 L114.0892,19.1415 L111.8962,21.1825 L112.7902,22.1435 C113.0672,22.4405 113.3342,22.5895 113.5832,22.5865 Z M114.0922,19.8295 L114.5332,20.3045 C114.6582,20.4395 114.7292,20.5605 114.7442,20.6695 C114.7582,20.7785 114.7122,20.8805 114.6082,20.9775 C114.4262,21.1465 114.2102,21.0965 113.9612,20.8295 L113.5242,20.3585 L114.0922,19.8295 Z M113.1822,20.6775 L113.6782,21.2105 C113.9672,21.5215 114.0162,21.7685 113.8212,21.9495 C113.7022,22.0605 113.5882,22.1025 113.4802,22.0675 C113.3692,22.0355 113.2482,21.9495 113.1232,21.8155 L112.5832,21.2345 L113.1822,20.6775 Z" id="Fill-39" fill="#010202" mask="url(#mask-6)"></path>
            <polygon id="Fill-40" fill="#010202" mask="url(#mask-6)" points="117.092 22.5347 114.716 24.3627 116.031 26.0727 116.408 25.7827 115.402 24.4737 116.037 23.9847 116.913 25.1237 117.27 24.8487 116.394 23.7107 117.023 23.2257 117.998 24.4947 118.376 24.2037"></polygon>
            <polygon id="Fill-41" fill="#010202" mask="url(#mask-6)" points="118.1003 29.1812 118.5053 28.9222 117.7683 27.7692 119.8923 26.4122 119.6193 25.9862 117.0913 27.6012"></polygon>
        </g>
    </g>
</svg>