<?xml version="1.0" encoding="UTF-8"?>
<svg width="108px" height="108px" viewBox="0 0 108 108" version="1.1" xmlns="http://www.w3.org/2000/svg" xmlns:xlink="http://www.w3.org/1999/xlink">
    <!-- Generator: Sketch 49 (51002) - http://www.bohemiancoding.com/sketch -->
    <title>vintage-logo-5</title>
    <desc>Created with Sketch.</desc>
    <defs>
        <polygon id="path-1" points="0.0006 0.244 107.7556 0.244 107.7556 107.9996 0.0006 107.9996"></polygon>
    </defs>
    <g id="Page-1" stroke="none" stroke-width="1" fill="none" fill-rule="evenodd">
        <g id="vintage-logo-5" transform="translate(0.000000, -1.000000)">
            <path d="M53.8786,4.3433 C26.0136,4.3433 3.3436,27.0133 3.3436,54.8783 C3.3436,82.7423 26.0136,105.4123 53.8786,105.4123 C81.7426,105.4123 104.4126,82.7423 104.4126,54.8783 C104.4126,27.0133 81.7426,4.3433 53.8786,4.3433 M53.8786,106.0413 C25.6666,106.0413 2.7146,83.0893 2.7146,54.8783 C2.7146,26.6673 25.6666,3.7153 53.8786,3.7153 C82.0886,3.7153 105.0406,26.6673 105.0406,54.8783 C105.0406,83.0893 82.0886,106.0413 53.8786,106.0413" id="Fill-1" fill="#58595B"></path>
            <path d="M17.8459,55.7129 L17.8459,54.0879 C17.8459,52.1849 16.9639,51.3139 15.1769,51.4769 L13.7839,51.6039 C11.9959,51.7669 11.1139,52.7999 11.1139,54.7029 L11.1139,58.1149 C11.1139,58.5569 11.1599,58.9009 11.2529,59.1479 C11.3459,59.4179 11.5089,59.6349 11.7179,59.7779 C11.9269,59.9209 12.2519,60.1009 12.7159,60.3139 L14.8279,61.3049 C15.1069,61.4419 15.3159,61.5619 15.4319,61.6669 C15.5479,61.7729 15.6169,61.9749 15.6169,62.2769 L15.6169,65.1089 C15.6169,65.7589 15.3159,66.1109 14.7349,66.1649 L14.3409,66.2009 C13.6679,66.2619 13.3429,65.9669 13.3429,65.3169 L13.3429,64.4119 L11.1139,64.6149 L11.1139,65.4509 C11.1139,67.4939 11.9959,68.4349 13.7839,68.2709 L15.1529,68.1459 C16.9409,67.9829 17.8459,66.9709 17.8459,65.0909 L17.8459,61.5399 C17.8459,60.9589 17.7999,60.5459 17.6829,60.3469 C17.5669,60.1489 17.4279,59.9989 17.2419,59.8539 C17.0339,59.7339 16.7079,59.5539 16.2439,59.3409 L14.1319,58.3969 C13.8529,58.2599 13.6439,58.1399 13.5279,58.0339 C13.4119,57.9289 13.3429,57.7259 13.3429,57.4239 L13.3429,54.6619 C13.3429,53.9889 13.6679,53.6339 14.2939,53.5769 L14.6419,53.5449 C15.2919,53.4859 15.6169,53.7809 15.6169,54.4539 L15.6169,55.9169 L17.8459,55.7129 Z M26.4599,61.0109 L29.0129,60.7779 L29.0129,66.8829 L31.2419,66.6789 L31.2419,52.8679 C31.2419,50.9639 30.3599,50.0929 28.5729,50.2559 L26.9009,50.4089 C25.1139,50.5719 24.2319,51.6049 24.2319,53.5079 L24.2319,67.3199 L26.4599,67.1159 L26.4599,61.0109 Z M26.4599,58.9919 L26.4599,53.4439 C26.4599,52.7939 26.7849,52.4389 27.4349,52.3799 L28.0389,52.3249 C28.6889,52.2649 29.0129,52.5609 29.0129,53.2109 L29.0129,58.7579 L26.4599,58.9919 Z M40.3209,49.1869 L37.8599,49.4109 L37.8599,66.0779 L40.0889,65.8749 L39.8569,54.9859 L41.5279,62.7259 L43.2459,62.5679 L44.9169,54.5239 L44.6849,65.4549 L46.9129,65.2509 L46.9129,48.5839 L44.4529,48.8089 L42.3869,58.7939 L40.3209,49.1869 Z M58.6619,47.5149 L58.6619,61.0709 C58.6619,61.7909 58.3599,62.1899 57.7569,62.2449 L56.8509,62.3279 C56.2009,62.3869 55.8759,62.0459 55.8759,61.3259 L55.8759,47.7699 L53.6479,47.9729 L53.6479,61.4599 C53.6479,63.5719 54.5299,64.5599 56.3169,64.3959 L58.1979,64.2239 C59.9849,64.0609 60.8899,62.9339 60.8899,60.8209 L60.8899,47.3109 L58.6619,47.5149 Z M73.1489,62.8619 L73.1489,60.8419 L69.8529,61.1439 L69.8529,55.5959 L72.7779,55.3279 L72.7779,53.3089 L69.8529,53.5759 L69.8529,48.5159 L73.1489,48.2139 L73.1489,46.1949 L67.6239,46.6999 L67.6239,63.3669 L73.1489,62.8619 Z M84.6879,59.7909 L81.6239,60.0709 L81.6239,45.4239 L79.3949,45.6279 L79.3949,62.2949 L84.6879,61.8109 L84.6879,59.7909 Z M97.1089,48.4919 L97.1089,46.8669 C97.1089,44.9629 96.2269,44.0919 94.4399,44.2559 L93.0469,44.3829 C91.2599,44.5459 90.3769,45.5789 90.3769,47.4819 L90.3769,50.8949 C90.3769,51.3359 90.4239,51.6789 90.5169,51.9259 C90.6099,52.1959 90.7719,52.4139 90.9809,52.5569 C91.1899,52.6999 91.5149,52.8799 91.9789,53.0919 L94.0919,54.0839 C94.3699,54.2199 94.5789,54.3409 94.6949,54.4459 C94.8109,54.5519 94.8809,54.7539 94.8809,55.0559 L94.8809,57.8879 C94.8809,58.5379 94.5789,58.8909 93.9989,58.9429 L93.6039,58.9799 C92.9309,59.0409 92.6059,58.7459 92.6059,58.0959 L92.6059,57.1909 L90.3769,57.3939 L90.3769,58.2299 C90.3769,60.2729 91.2599,61.2129 93.0469,61.0499 L94.4159,60.9249 C96.2039,60.7609 97.1089,59.7499 97.1089,57.8699 L97.1089,54.3179 C97.1089,53.7379 97.0629,53.3239 96.9469,53.1259 C96.8309,52.9279 96.6909,52.7779 96.5059,52.6319 C96.2969,52.5119 95.9719,52.3329 95.5079,52.1199 L93.3949,51.1759 C93.1169,51.0389 92.9079,50.9189 92.7909,50.8129 C92.6759,50.7079 92.6059,50.5049 92.6059,50.2029 L92.6059,47.4409 C92.6059,46.7679 92.9309,46.4129 93.5569,46.3559 L93.9059,46.3239 C94.5559,46.2649 94.8809,46.5599 94.8809,47.2329 L94.8809,48.6949 L97.1089,48.4919 Z" id="Fill-3" fill="#58595B"></path>
            <path d="M29.9977,76.9971 L29.9977,76.1711 L26.6217,76.4761 L26.6217,77.3021 L27.8327,77.1921 L27.8327,80.6421 L28.7867,80.5551 L28.7867,77.1061 L29.9977,76.9971 Z M35.5777,75.9991 C35.2897,75.7991 34.8187,75.7311 34.1527,75.7911 L32.5317,75.9381 L32.5317,80.2121 L33.4857,80.1261 L33.4857,78.7631 L34.1467,78.7031 L35.0947,79.9811 L36.2687,79.8751 L35.1857,78.4441 C35.7307,78.1931 35.9997,77.7281 35.9997,77.0431 C35.9997,76.5481 35.8587,76.2001 35.5777,75.9991 Z M34.1837,77.8741 L33.4857,77.9371 L33.4857,76.6711 L34.2017,76.6061 C34.5077,76.5791 34.7217,76.6021 34.8437,76.6771 C34.9657,76.7511 35.0267,76.9051 35.0267,77.1311 C35.0267,77.3641 34.9657,77.5401 34.8497,77.6551 C34.7337,77.7691 34.5077,77.8451 34.1837,77.8741 Z M42.8757,79.2731 L41.0297,75.1651 L40.1057,75.2491 L38.2587,79.6901 L39.2737,79.5991 L39.6717,78.6401 L41.4637,78.4771 L41.8607,79.3651 L42.8757,79.2731 Z M41.1027,77.6721 L40.0327,77.7691 L40.5707,76.4791 L41.1027,77.6721 Z M46.7197,74.6461 L45.2087,74.7831 L45.2087,79.0581 L46.6707,78.9261 C47.4837,78.8521 48.0957,78.6011 48.4927,78.1801 C48.8907,77.7591 49.0857,77.2151 49.0857,76.5491 C49.0857,75.8821 48.8847,75.3811 48.4747,75.0441 C48.0647,74.7081 47.4837,74.5781 46.7197,74.6461 Z M46.7687,78.0731 L46.1627,78.1271 L46.1627,75.5281 L46.6947,75.4801 C47.1787,75.4371 47.5397,75.5151 47.7777,75.7191 C48.0097,75.9241 48.1257,76.2381 48.1257,76.6601 C48.1257,77.0821 48.0097,77.4111 47.7777,77.6521 C47.5397,77.8931 47.2027,78.0341 46.7687,78.0731 Z M51.7487,74.1871 L51.7487,78.4621 L54.8987,78.1781 L54.8987,77.3331 L52.7037,77.5321 L52.7037,76.6451 L54.6177,76.4721 L54.6177,75.6591 L52.7037,75.8311 L52.7037,74.9511 L54.8317,74.7591 L54.8317,73.9091 L51.7487,74.1871 Z M61.4147,77.5841 L62.3687,77.4981 L62.3687,73.2241 L61.0837,73.3391 L59.9767,75.7881 L58.8767,73.5391 L57.5857,73.6551 L57.5857,77.9301 L58.5397,77.8441 L58.5397,75.1531 L59.6897,77.3861 L60.2587,77.3341 L61.4147,74.8931 L61.4147,77.5841 Z M69.3187,76.8651 L67.4727,72.7561 L66.5487,72.8401 L64.7017,77.2811 L65.7167,77.1901 L66.1147,76.2301 L67.9067,76.0691 L68.3037,76.9561 L69.3187,76.8651 Z M67.5457,75.2631 L66.4757,75.3601 L67.0137,74.0701 L67.5457,75.2631 Z M74.6977,72.4351 C74.4097,72.2351 73.9387,72.1671 73.2727,72.2271 L71.6517,72.3741 L71.6517,76.6481 L72.6057,76.5621 L72.6057,75.1991 L73.2667,75.1391 L74.2147,76.4171 L75.3887,76.3111 L74.3057,74.8801 C74.8507,74.6291 75.1197,74.1641 75.1197,73.4791 C75.1197,72.9841 74.9787,72.6361 74.6977,72.4351 Z M73.3027,74.3101 L72.6057,74.3731 L72.6057,73.1071 L73.3217,73.0421 C73.6267,73.0151 73.8417,73.0391 73.9637,73.1131 C74.0857,73.1871 74.1467,73.3411 74.1467,73.5671 C74.1467,73.8001 74.0857,73.9761 73.9697,74.0911 C73.8537,74.2051 73.6267,74.2811 73.3027,74.3101 Z M77.9357,76.0761 L78.8897,75.9901 L78.8897,74.7791 L79.3177,74.2641 L80.5707,75.8381 L81.6847,75.7381 C81.4887,75.4801 81.1947,75.0911 80.7977,74.5701 C80.3997,74.0501 80.1307,73.6951 79.9837,73.5061 L81.6847,71.4631 L80.5037,71.5701 L78.8897,73.4711 L78.8897,71.7151 L77.9357,71.8011 L77.9357,76.0761 Z" id="Fill-5" fill="#58595B"></path>
            <path d="M33.4196,41.4448 L31.5726,37.3368 L30.6496,37.4198 L28.8026,41.8618 L29.8176,41.7698 L30.2156,40.8108 L32.0066,40.6488 L32.4046,41.5358 L33.4196,41.4448 Z M31.6466,39.8438 L30.5756,39.9398 L31.1146,38.6498 L31.6466,39.8438 Z M36.5296,39.2448 L36.5296,36.8838 L35.5756,36.9698 L35.5756,39.3618 C35.5756,39.9788 35.7466,40.4348 36.0946,40.7388 C36.4376,41.0448 36.8776,41.1698 37.4096,41.1218 C37.9416,41.0738 38.3826,40.8688 38.7246,40.5018 C39.0666,40.1408 39.2386,39.6488 39.2386,39.0308 L39.2386,36.6398 L38.2846,36.7258 L38.2846,39.0868 C38.2846,39.4288 38.2046,39.7048 38.0516,39.9148 C37.8936,40.1308 37.6786,40.2478 37.4096,40.2718 C37.1406,40.2968 36.9266,40.2178 36.7676,40.0298 C36.6086,39.8488 36.5296,39.5868 36.5296,39.2448 Z M45.0876,36.9318 L45.0876,36.1058 L41.7116,36.4108 L41.7116,37.2368 L42.9226,37.1268 L42.9226,40.5758 L43.8766,40.4898 L43.8766,37.0408 L45.0876,36.9318 Z M50.2756,37.4188 L48.5756,37.5718 L48.5756,35.7868 L47.6216,35.8728 L47.6216,40.1478 L48.5756,40.0618 L48.5756,38.3798 L50.2756,38.2258 L50.2756,39.9078 L51.2306,39.8218 L51.2306,35.5468 L50.2756,35.6328 L50.2756,37.4188 Z M54.1196,35.2808 L54.1196,39.5558 L57.2696,39.2708 L57.2696,38.4268 L55.0736,38.6258 L55.0736,37.7388 L56.9876,37.5658 L56.9876,36.7528 L55.0736,36.9248 L55.0736,36.0448 L57.2016,35.8528 L57.2016,35.0028 L54.1196,35.2808 Z M62.9466,37.2308 L60.8496,34.6688 L59.9566,34.7488 L59.9566,39.0238 L60.9106,38.9378 L60.9106,36.2588 L62.9466,38.7538 L63.9006,38.6678 L63.9006,34.3928 L62.9466,34.4788 L62.9466,37.2308 Z M69.8116,34.6788 L69.8116,33.8538 L66.4356,34.1578 L66.4356,34.9838 L67.6466,34.8748 L67.6466,38.3238 L68.6006,38.2378 L68.6006,34.7888 L69.8116,34.6788 Z M72.3456,37.8948 L73.2996,37.8088 L73.2996,33.5338 L72.3456,33.6198 L72.3456,37.8948 Z M77.2766,36.2418 C77.0386,36.0248 76.9156,35.7118 76.9156,35.3148 C76.9156,34.9168 77.0446,34.5928 77.3006,34.3318 C77.5516,34.0768 77.8576,33.9328 78.2186,33.9008 C78.6646,33.8598 79.0446,34.0148 79.3436,34.3618 L79.9366,33.6348 C79.4656,33.1458 78.8786,32.9298 78.1756,32.9928 C77.5456,33.0498 77.0196,33.3118 76.5856,33.7728 C76.1516,34.2338 75.9316,34.7858 75.9316,35.4158 C75.9316,36.0508 76.1456,36.5578 76.5736,36.9358 C76.9956,37.3128 77.5396,37.4718 78.1996,37.4118 C78.8546,37.3528 79.4296,37.0258 79.9126,36.4378 L79.3006,35.8638 C79.0016,36.2638 78.6226,36.4818 78.1506,36.5238 C77.8086,36.5548 77.5156,36.4588 77.2766,36.2418 Z" id="Fill-7" fill="#58595B"></path>
            <path d="M44.3171,85.0532 L44.2291,85.0172 L43.7891,85.0572 C43.7101,85.0642 43.5951,85.1012 43.4631,85.1662 C43.3311,85.2392 43.1991,85.3222 43.0761,85.4122 L35.6551,91.4112 C35.5401,91.5012 35.4961,91.5752 35.5231,91.6352 L35.6811,91.7082 L35.9371,91.6852 C36.0161,91.6782 36.1301,91.6412 36.2621,91.5682 C36.3941,91.5032 36.5261,91.4202 36.6411,91.3222 L38.2251,89.9812 L40.2681,89.8312 C40.0391,90.3012 39.9331,90.6622 39.9601,90.9322 C39.9861,91.2032 40.1441,91.3292 40.4431,91.3032 C40.6021,91.2882 40.7781,91.2192 40.9811,91.1042 C41.1831,90.9892 41.3941,90.8382 41.6141,90.6412 C41.8351,90.4462 42.0721,90.2132 42.3101,89.9452 C42.5471,89.6852 42.7761,89.4012 43.0051,89.0892 L43.1201,88.8672 L43.1201,88.7182 L43.0141,88.7012 L42.8291,88.8592 C42.5831,89.1452 42.3541,89.4042 42.1341,89.6352 C41.9141,89.8752 41.7291,90.0592 41.5701,90.2052 C41.4031,90.3532 41.2801,90.4432 41.1921,90.4772 C41.0951,90.5122 41.0601,90.4812 41.0771,90.3732 C41.0861,90.2762 41.1571,90.0932 41.2891,89.8352 C41.4121,89.5772 41.6141,89.2242 41.8871,88.7682 C42.0021,88.5822 42.1161,88.3862 42.2481,88.1902 C42.3721,87.9932 42.5041,87.7882 42.6351,87.5822 C42.7681,87.3862 42.8911,87.1802 43.0231,86.9842 C43.1551,86.7872 43.2781,86.5992 43.4011,86.4212 C43.6831,85.9992 43.9651,85.5952 44.2551,85.1912 L44.3171,85.0532 Z M43.1991,85.7532 C43.0851,85.8602 42.9431,86.0232 42.7761,86.2312 C42.6091,86.4492 42.4241,86.6862 42.2311,86.9502 C42.0281,87.2152 41.8261,87.4892 41.6231,87.7712 C41.4211,88.0532 41.2271,88.3182 41.0421,88.5722 C40.9281,88.7322 40.8311,88.8732 40.7431,89.0132 C40.6461,89.1542 40.5671,89.2932 40.4871,89.4242 L38.7271,89.5482 L43.1991,85.7532 Z M44.1711,87.9072 L44.0301,87.8412 L43.7751,87.8642 C43.6961,87.8712 43.5991,87.9072 43.5031,87.9682 C43.4051,88.0302 43.3171,88.1082 43.2471,88.2022 C43.2121,88.2502 43.1501,88.3432 43.0531,88.4842 C42.9571,88.6252 42.8421,88.7852 42.7281,88.9632 C42.6131,89.1402 42.4991,89.3262 42.3841,89.5042 C42.2701,89.6912 42.1731,89.8492 42.1031,89.9702 C41.9881,90.1652 41.9181,90.3392 41.8821,90.4912 C41.8381,90.6452 41.8381,90.7782 41.8741,90.8712 C41.9001,90.9742 41.9711,91.0472 42.0761,91.0812 C42.1731,91.1172 42.3141,91.1132 42.4811,91.0622 C42.6491,91.0122 42.8421,90.8982 43.0621,90.7282 C43.2821,90.5582 43.4941,90.3632 43.7051,90.1412 C43.6611,90.2782 43.6341,90.3942 43.6341,90.5002 C43.6261,90.6152 43.6431,90.7012 43.6871,90.7772 C43.7311,90.8522 43.7931,90.8992 43.8901,90.9262 C43.9781,90.9532 44.0921,90.9432 44.2331,90.9042 C44.3651,90.8652 44.5061,90.7912 44.6551,90.6802 C44.8051,90.5702 44.9631,90.4502 45.1311,90.3032 C45.2891,90.1562 45.4481,90.0012 45.6061,89.8372 C45.7651,89.6732 45.9141,89.5102 46.0461,89.3572 C46.1781,89.2042 46.2841,89.0622 46.3811,88.9392 C46.4781,88.8162 46.5391,88.7222 46.5841,88.6572 L46.6541,88.4562 L46.6281,88.3272 L46.5041,88.3382 C46.4421,88.3702 46.3811,88.4372 46.3021,88.5412 C46.1871,88.7012 46.0381,88.8732 45.8701,89.0652 C45.7031,89.2562 45.5361,89.4382 45.3691,89.6032 C45.2011,89.7682 45.0431,89.9062 44.9021,90.0152 C44.7611,90.1252 44.6641,90.1692 44.6031,90.1572 L44.5591,90.0202 C44.5671,89.9402 44.6291,89.8112 44.7441,89.6252 C44.8231,89.4772 44.9281,89.3082 45.0431,89.1312 C45.1571,88.9532 45.2721,88.7842 45.3861,88.6162 C45.5011,88.4552 45.5971,88.3152 45.6861,88.1922 C45.7651,88.0712 45.8171,87.9952 45.8441,87.9672 L45.9231,87.7482 L45.7741,87.6822 L45.5271,87.7052 C45.4481,87.7122 45.3511,87.7472 45.2541,87.8092 C45.1571,87.8702 45.0691,87.9492 44.9991,88.0432 C44.9721,88.0902 44.9111,88.1662 44.8231,88.2882 C44.7351,88.4102 44.6381,88.5602 44.5321,88.7202 C44.4091,88.8802 44.2681,89.0522 44.1011,89.2432 C43.9341,89.4342 43.7661,89.6082 43.5991,89.7732 C43.4321,89.9372 43.2821,90.0742 43.1501,90.1742 C43.0181,90.2832 42.9211,90.3272 42.8601,90.3152 L42.8071,90.1792 C42.8161,90.0992 42.8781,89.9702 42.9921,89.7832 C43.0801,89.6352 43.1861,89.4672 43.3001,89.2892 C43.4141,89.1122 43.5291,88.9432 43.6431,88.7742 C43.7491,88.6152 43.8461,88.4742 43.9341,88.3512 C44.0131,88.2302 44.0661,88.1552 44.0921,88.1262 L44.1711,87.9072 Z M48.5001,88.7102 C48.3591,88.8202 48.1921,88.9232 48.0071,89.0022 C48.0331,88.9382 48.1041,88.8252 48.2271,88.6822 C48.3501,88.5392 48.4741,88.3782 48.5971,88.2182 C48.7201,88.0562 48.8171,87.8982 48.8871,87.7422 C48.9581,87.5952 48.9581,87.4802 48.8791,87.4082 C48.8351,87.3682 48.7641,87.3572 48.6671,87.3752 C48.5621,87.3932 48.4391,87.4312 48.2971,87.5052 C48.1481,87.5802 47.9891,87.6742 47.8141,87.7962 C47.6371,87.9262 47.4611,88.0742 47.2761,88.2492 L47.5851,87.8072 L47.6641,87.5892 L47.5141,87.5232 L47.2591,87.5472 C47.1791,87.5542 47.0831,87.5892 46.9861,87.6512 C46.8891,87.7122 46.8011,87.7902 46.7391,87.8842 L44.9701,90.5532 L44.8911,90.7722 L45.0321,90.8472 L45.2871,90.8242 C45.3661,90.8172 45.4631,90.7822 45.5601,90.7112 C45.6571,90.6502 45.7451,90.5722 45.8151,90.4772 C45.8591,90.4032 45.9211,90.3182 45.9831,90.2242 C46.0351,90.1402 46.0971,90.0472 46.1671,89.9342 C46.2371,89.8312 46.3171,89.7102 46.3961,89.5882 C46.4751,89.4662 46.5811,89.3242 46.7131,89.1802 C46.8361,89.0372 46.9681,88.8932 47.1001,88.7582 C47.2331,88.6322 47.3731,88.5132 47.5051,88.4052 C47.6371,88.3042 47.7431,88.2422 47.8401,88.2072 C47.7781,88.2922 47.7081,88.4042 47.6111,88.5272 C47.5141,88.6502 47.4171,88.7822 47.3291,88.9052 C47.2411,89.0362 47.1711,89.1572 47.1091,89.2592 C47.0471,89.3622 47.0211,89.4432 47.0301,89.4872 C47.0471,89.5642 47.1351,89.6002 47.2851,89.6042 C47.4351,89.6082 47.6111,89.5662 47.8221,89.4852 C48.0331,89.4042 48.2621,89.2782 48.5091,89.1062 C48.7551,88.9342 48.9841,88.7012 49.2041,88.4182 L49.3011,88.2242 L49.2481,88.1402 L49.1081,88.1622 L48.9221,88.3022 C48.7731,88.4662 48.6321,88.6012 48.5001,88.7102 Z M51.4121,87.6712 C51.4211,87.5642 51.4031,87.4782 51.3591,87.4032 C51.3061,87.3372 51.2271,87.2822 51.1301,87.2472 C51.0331,87.2122 50.9101,87.2052 50.7781,87.2182 C50.4351,87.2492 50.1181,87.3572 49.8181,87.5332 C49.5101,87.7112 49.2461,87.9282 49.0181,88.1782 C48.7891,88.4372 48.6041,88.7002 48.4631,88.9772 C48.3221,89.2622 48.2431,89.5162 48.2341,89.7462 C48.2161,89.9852 48.2691,90.1742 48.4011,90.3122 C48.5331,90.4492 48.7451,90.5102 49.0531,90.4822 C49.2641,90.4622 49.5021,90.3702 49.7751,90.2142 C50.0471,90.0572 50.3201,89.8562 50.6021,89.6282 C50.8841,89.4002 51.1571,89.1552 51.4211,88.8932 C51.6851,88.6322 51.9141,88.3822 52.0991,88.1542 L52.1951,87.9602 L52.1601,87.8492 L52.0281,87.8612 C51.9661,87.8842 51.8961,87.9442 51.8171,88.0392 C51.6141,88.2682 51.3941,88.4912 51.1481,88.7162 C50.9011,88.9412 50.6551,89.1482 50.4171,89.3192 C50.1791,89.4902 49.9511,89.6342 49.7481,89.7322 C49.5461,89.8292 49.3791,89.8712 49.2641,89.8462 C49.1501,89.8302 49.0701,89.7672 49.0441,89.6552 C49.0181,89.5522 49.0181,89.4282 49.0531,89.2762 C49.2911,89.2362 49.5281,89.1712 49.7571,89.0882 C49.9861,89.0062 50.1971,88.9072 50.3911,88.7932 C50.5851,88.6782 50.7601,88.5572 50.9101,88.4292 C51.0601,88.3012 51.1741,88.1672 51.2621,88.0282 C51.3501,87.8962 51.4031,87.7772 51.4121,87.6712 Z M50.5491,87.6432 L50.6811,87.7812 C50.6901,87.8502 50.6641,87.9412 50.6111,88.0422 C50.5491,88.1542 50.4611,88.2592 50.3381,88.3662 C50.2151,88.4742 50.0561,88.5772 49.8621,88.6742 C49.6691,88.7712 49.4401,88.8532 49.1761,88.9042 C49.2291,88.7842 49.2911,88.6562 49.3701,88.5332 C49.4491,88.4122 49.5281,88.2902 49.6251,88.1762 C49.7131,88.0712 49.8101,87.9742 49.9071,87.8862 C50.0041,87.8072 50.1091,87.7452 50.2061,87.7012 C50.3561,87.6432 50.4701,87.6242 50.5491,87.6432 Z M55.1511,84.0992 L55.0101,84.0242 L54.7551,84.0472 C54.6761,84.0542 54.5791,84.0902 54.4821,84.1512 C54.3851,84.2222 54.2971,84.3002 54.2271,84.3952 C54.2091,84.4232 54.1561,84.4982 54.0681,84.6292 C53.9711,84.7702 53.8571,84.9392 53.7251,85.1442 C53.5841,85.3512 53.4261,85.5852 53.2581,85.8472 C53.0821,86.1102 52.9061,86.3812 52.7211,86.6532 C52.5371,86.9252 52.3601,87.1962 52.1851,87.4682 C52.0081,87.7392 51.8501,87.9912 51.7001,88.2162 C51.5511,88.4492 51.4271,88.6452 51.3311,88.8032 C51.2251,88.9722 51.1541,89.0842 51.1191,89.1492 C51.0311,89.3152 50.9701,89.4702 50.9351,89.6232 C50.8901,89.7772 50.8901,89.9092 50.9171,90.0212 C50.9431,90.1332 51.0051,90.2062 51.1021,90.2502 C51.1981,90.2952 51.3311,90.2912 51.4981,90.2412 C51.6301,90.2022 51.7711,90.1282 51.9211,90.0182 C52.0701,89.9072 52.2291,89.7872 52.3961,89.6402 C52.5541,89.4942 52.7131,89.3392 52.8711,89.1752 C53.0211,89.0112 53.1711,88.8482 53.3021,88.6952 C53.4351,88.5422 53.5491,88.4002 53.6461,88.2772 C53.7431,88.1542 53.8041,88.0602 53.8481,87.9942 L53.9191,87.7942 L53.8921,87.6642 L53.7691,87.6762 C53.7081,87.7082 53.6461,87.7752 53.5671,87.8792 C53.4521,88.0392 53.3021,88.2112 53.1351,88.4022 C52.9681,88.5942 52.8011,88.7762 52.6331,88.9412 C52.4661,89.1062 52.3081,89.2432 52.1671,89.3532 C52.0261,89.4622 51.9291,89.5072 51.8681,89.4942 L51.8231,89.3582 C51.8321,89.2782 51.8941,89.1492 52.0081,88.9622 C52.0611,88.8612 52.1761,88.6832 52.3431,88.4212 C52.5101,88.1592 52.7131,87.8602 52.9331,87.5232 C53.1531,87.1862 53.3901,86.8302 53.6371,86.4552 C53.8831,86.0902 54.1121,85.7432 54.3231,85.4332 C54.5261,85.1242 54.7021,84.8712 54.8431,84.6562 C54.9841,84.4492 55.0631,84.3362 55.0721,84.3182 L55.1511,84.0992 Z M54.9471,86.9262 L54.7981,86.8602 L54.5431,86.8832 C54.4631,86.8902 54.3661,86.9262 54.2701,86.9872 C54.1731,87.0492 54.0851,87.1272 54.0231,87.2202 C53.9881,87.2682 53.9181,87.3622 53.8201,87.5032 C53.7241,87.6442 53.6091,87.8042 53.4951,87.9822 C53.3801,88.1592 53.2661,88.3452 53.1511,88.5232 C53.0371,88.7102 52.9411,88.8682 52.8791,88.9882 C52.7821,89.1562 52.7201,89.3112 52.6851,89.4642 C52.6501,89.6162 52.6501,89.7482 52.6761,89.8612 C52.7031,89.9722 52.7551,90.0472 52.8521,90.0912 C52.9491,90.1352 53.0811,90.1322 53.2491,90.0812 C53.3801,90.0432 53.5211,89.9692 53.6711,89.8582 C53.8201,89.7482 53.9791,89.6282 54.1461,89.4812 C54.3051,89.3342 54.4631,89.1792 54.6221,89.0152 C54.7801,88.8512 54.9301,88.6882 55.0621,88.5352 C55.1941,88.3822 55.2991,88.2412 55.3961,88.1172 C55.4931,87.9942 55.5551,87.9002 55.5991,87.8352 L55.6781,87.6342 L55.6511,87.5042 L55.5281,87.5152 C55.4671,87.5472 55.4051,87.6152 55.3261,87.7192 C55.2031,87.8802 55.0531,88.0522 54.8861,88.2432 C54.7181,88.4342 54.5511,88.6162 54.3841,88.7812 C54.2171,88.9462 54.0581,89.0842 53.9261,89.1932 C53.7851,89.3022 53.6891,89.3462 53.6271,89.3342 L53.5741,89.1982 C53.5831,89.1182 53.6451,88.9892 53.7591,88.8032 C53.8471,88.6542 53.9531,88.4862 54.0671,88.3082 C54.1821,88.1312 54.2961,87.9622 54.4101,87.7932 C54.5161,87.6342 54.6131,87.4932 54.7011,87.3702 C54.7891,87.2482 54.8421,87.1732 54.8681,87.1442 L54.9471,86.9262 Z M55.5991,85.3792 C55.5021,85.3002 55.3871,85.2662 55.2551,85.2782 C55.1241,85.2902 55.0091,85.3442 54.9121,85.4412 C54.8161,85.5472 54.7711,85.6652 54.7711,85.7972 C54.7711,85.9292 54.8161,86.0392 54.9121,86.1282 C55.0091,86.2162 55.1241,86.2492 55.2551,86.2372 C55.3871,86.2252 55.5021,86.1712 55.5991,86.0652 C55.6871,85.9602 55.7311,85.8422 55.7311,85.7102 C55.7311,85.5782 55.6871,85.4682 55.5991,85.3792 Z M54.5761,88.6842 C54.4361,88.9522 54.3561,89.1882 54.3381,89.3742 C54.3211,89.5702 54.3561,89.7162 54.4441,89.8232 C54.5321,89.9292 54.6551,89.9712 54.8231,89.9562 C54.9371,89.9452 55.0691,89.9072 55.2011,89.8332 C55.3341,89.7682 55.4571,89.6872 55.5881,89.5872 C55.7211,89.4952 55.8441,89.3872 55.9671,89.2712 C56.0901,89.1542 56.2051,89.0382 56.3111,88.9312 C56.2581,89.0682 56.2321,89.2032 56.2231,89.3182 C56.2141,89.4332 56.2231,89.5382 56.2671,89.6142 C56.3021,89.6892 56.3631,89.7452 56.4601,89.7722 C56.5481,89.8082 56.6631,89.7982 56.8121,89.7582 C56.9441,89.7192 57.0851,89.6452 57.2351,89.5342 C57.3841,89.4242 57.5431,89.3042 57.7101,89.1572 C57.8691,89.0102 58.0271,88.8552 58.1861,88.6912 C58.3441,88.5272 58.4941,88.3642 58.6261,88.2112 C58.7581,88.0582 58.8631,87.9162 58.9601,87.7932 C59.0571,87.6702 59.1191,87.5762 59.1631,87.5112 L59.2421,87.3102 L59.2151,87.1802 L59.0921,87.1912 C59.0311,87.2232 58.9691,87.2902 58.8901,87.3952 C58.7671,87.5552 58.6171,87.7272 58.4501,87.9192 C58.2821,88.1102 58.1151,88.2922 57.9481,88.4572 C57.7811,88.6222 57.6221,88.7602 57.4901,88.8682 C57.3491,88.9782 57.2531,89.0222 57.1911,89.0102 L57.1471,88.8732 C57.1561,88.7932 57.2171,88.6642 57.3321,88.4782 C57.4111,88.3302 57.5171,88.1622 57.6311,87.9842 C57.7451,87.8062 57.8601,87.6372 57.9741,87.4692 C58.0801,87.3102 58.1771,87.1692 58.2651,87.0462 C58.3531,86.9242 58.4061,86.8492 58.4321,86.8202 L58.5111,86.6012 L58.3611,86.5362 L58.1071,86.5592 L57.8781,86.6332 L57.6571,86.8022 C57.5521,86.7152 57.4201,86.6652 57.2531,86.6452 C57.0851,86.6342 56.9001,86.6592 56.6891,86.7322 C56.4781,86.8122 56.2491,86.9392 56.0031,87.1112 C55.7561,87.2832 55.5011,87.5172 55.2281,87.8062 C54.9371,88.1232 54.7171,88.4162 54.5761,88.6842 Z M56.0381,87.6802 C56.1871,87.5342 56.3551,87.3962 56.5221,87.2842 C56.6891,87.1722 56.8571,87.0862 57.0241,87.0362 C57.1911,86.9852 57.3401,86.9902 57.4731,87.0562 L57.3761,87.1892 C57.2961,87.3022 57.1911,87.4432 57.0591,87.6142 C56.9271,87.7842 56.7861,87.9552 56.6361,88.1272 C56.4861,88.3082 56.3281,88.4722 56.1781,88.6272 C56.0291,88.7902 55.8881,88.9082 55.7561,88.9992 C55.5711,89.1312 55.4391,89.1962 55.3601,89.1852 C55.2721,89.1762 55.2281,89.1182 55.2281,89.0122 C55.2191,88.9162 55.2541,88.7812 55.3341,88.6152 C55.4041,88.4592 55.5091,88.2912 55.6501,88.1202 C55.7561,87.9782 55.8881,87.8342 56.0381,87.6802 Z M60.5251,86.5942 C60.3041,86.7452 60.0761,86.9332 59.8561,87.1382 L60.1721,86.6612 L60.2521,86.4422 L60.1021,86.3772 L59.8471,86.4002 C59.7681,86.4072 59.6711,86.4422 59.5741,86.5042 C59.4771,86.5652 59.3891,86.6442 59.3271,86.7382 L57.5581,89.4072 L57.4791,89.6252 L57.6201,89.7002 L57.8751,89.6782 C57.9541,89.6702 58.0511,89.6352 58.1481,89.5652 C58.2451,89.5032 58.3331,89.4252 58.4031,89.3302 L58.6321,88.9842 L58.6671,88.9362 C58.8081,88.7212 58.9841,88.4942 59.2041,88.2452 C59.4161,88.0062 59.6271,87.7752 59.8381,87.5722 C60.0491,87.3672 60.2431,87.2092 60.4101,87.0792 C60.5771,86.9492 60.6831,86.9052 60.7361,86.9272 C60.7971,86.9482 60.7801,87.0372 60.6661,87.1882 C60.5511,87.3482 60.3661,87.5942 60.1201,87.9242 C59.9171,88.2072 59.7761,88.4572 59.6971,88.6672 C59.6181,88.8772 59.5831,89.0472 59.6091,89.1772 C59.6271,89.3072 59.6881,89.3982 59.8031,89.4492 C59.9171,89.5012 60.0581,89.4972 60.2341,89.4462 C60.3581,89.4082 60.4981,89.3342 60.6571,89.2222 C60.8061,89.1122 60.9651,88.9922 61.1231,88.8452 C61.2821,88.6992 61.4401,88.5442 61.5991,88.3802 C61.7481,88.2172 61.8981,88.0532 62.0301,87.9012 C62.1621,87.7482 62.2761,87.6052 62.3731,87.4822 C62.4701,87.3592 62.5321,87.2652 62.5761,87.1992 L62.6551,86.9992 L62.6291,86.8692 L62.5051,86.8802 C62.4431,86.9122 62.3731,86.9802 62.2941,87.0842 C62.1801,87.2442 62.0301,87.4162 61.8631,87.6082 C61.6951,87.7992 61.5281,87.9812 61.3611,88.1462 C61.1931,88.3112 61.0351,88.4492 60.9031,88.5572 C60.7621,88.6672 60.6661,88.7112 60.6041,88.6992 L60.5511,88.6602 L60.5681,88.5262 C60.5861,88.4632 60.6301,88.3802 60.6921,88.2682 C60.7541,88.1572 60.8501,88.0162 60.9831,87.8462 C61.2471,87.4962 61.4311,87.2072 61.5461,86.9852 C61.6511,86.7732 61.7041,86.6012 61.6951,86.4872 C61.6871,86.3742 61.6341,86.3082 61.5371,86.2822 C61.4401,86.2552 61.3081,86.2592 61.1581,86.2982 C60.9561,86.3432 60.7451,86.4422 60.5251,86.5942 Z M68.6371,83.4792 C68.7431,83.3642 68.8221,83.2602 68.8751,83.1582 L68.9361,82.9582 L68.8661,82.8422 L68.6991,82.7952 L68.4701,82.7982 C67.9241,82.8482 67.4131,82.9822 66.9381,83.1932 C66.4631,83.4032 66.0311,83.6712 65.6441,83.9792 C65.2561,84.2872 64.9131,84.6352 64.6231,85.0142 C64.3321,85.4012 64.0951,85.7832 63.9101,86.1702 C63.7251,86.5562 63.6101,86.9282 63.5491,87.2852 C63.4871,87.6522 63.4961,87.9682 63.5751,88.2342 C63.6541,88.5002 63.7961,88.7162 64.0151,88.8632 C64.2351,89.0102 64.5351,89.0712 64.9131,89.0372 C65.3011,89.0022 65.6621,88.8982 65.9871,88.7372 C66.3131,88.5752 66.6121,88.3722 66.8851,88.1452 C67.1581,87.9182 67.4041,87.6752 67.6251,87.4172 C67.8451,87.1602 68.0561,86.9122 68.2411,86.6842 L68.3461,86.4892 L68.3111,86.3782 L68.1791,86.3902 C68.1181,86.4132 68.0381,86.4732 67.9591,86.5682 C67.7921,86.7602 67.6071,86.9702 67.3871,87.1932 C67.1671,87.4242 66.9381,87.6382 66.6921,87.8282 C66.4451,88.0172 66.1901,88.1732 65.9171,88.2852 C65.6441,88.4072 65.3801,88.4402 65.1161,88.4022 C64.8961,88.3782 64.7461,88.2422 64.6761,88.0112 C64.6051,87.7802 64.6051,87.4982 64.6671,87.1572 C64.7291,86.8182 64.8521,86.4462 65.0371,86.0502 C65.2211,85.6552 65.4501,85.2642 65.7321,84.8952 C66.0141,84.5272 66.3391,84.1982 66.7091,83.9002 C67.0701,83.6122 67.4751,83.3992 67.9061,83.2812 L67.9331,83.3402 L67.8981,83.4312 L67.8361,83.5252 L67.7571,83.6382 L67.7301,83.7632 L67.8541,83.8142 L68.0561,83.7962 L68.2671,83.7412 C68.4001,83.6852 68.5231,83.5952 68.6371,83.4792 Z M69.8231,85.4912 C69.6551,85.4892 69.4801,85.5222 69.2861,85.5932 C69.0831,85.6732 68.8811,85.7792 68.6701,85.9222 C68.4491,86.0742 68.2471,86.2502 68.0451,86.4632 C67.8421,86.6662 67.6661,86.8842 67.5341,87.0992 C67.3931,87.3142 67.2881,87.5262 67.2171,87.7262 C67.1471,87.9262 67.1201,88.1052 67.1291,88.2622 C67.1381,88.4282 67.1911,88.5562 67.2881,88.6532 C67.3841,88.7502 67.5071,88.8002 67.6751,88.8032 C67.8421,88.8052 68.0181,88.7712 68.2121,88.6922 C68.4051,88.6222 68.6081,88.5152 68.8281,88.3632 C69.0391,88.2212 69.2421,88.0442 69.4441,87.8412 C69.6471,87.6372 69.8231,87.4192 69.9631,87.2042 C70.1051,86.9892 70.2101,86.7772 70.2801,86.5762 C70.3511,86.3762 70.3781,86.1982 70.3691,86.0322 C70.3601,85.8742 70.3071,85.7472 70.2101,85.6502 C70.1131,85.5532 69.9811,85.5032 69.8231,85.4912 Z M68.9781,87.6992 C68.8631,87.8232 68.7491,87.9222 68.6431,87.9932 C68.5291,88.0742 68.4321,88.1262 68.3441,88.1522 C68.2471,88.1782 68.1771,88.1762 68.1151,88.1372 C68.0621,88.0982 68.0361,88.0392 68.0271,87.9432 C68.0181,87.8562 68.0271,87.7492 68.0621,87.6232 C68.0971,87.5052 68.1501,87.3682 68.2301,87.2202 C68.3001,87.0732 68.3881,86.9242 68.5031,86.7642 C68.6171,86.6042 68.7311,86.4702 68.8551,86.3452 C68.9691,86.2202 69.0831,86.1222 69.1981,86.0412 C69.3031,85.9612 69.4001,85.9082 69.4971,85.8822 L69.7171,85.8972 L69.8141,86.0822 C69.8231,86.1782 69.8051,86.2852 69.7701,86.4112 C69.7351,86.5382 69.6821,86.6752 69.6031,86.8232 C69.5241,86.9712 69.4361,87.1202 69.3211,87.2802 C69.2071,87.4402 69.0921,87.5742 68.9781,87.6992 Z M71.3171,87.6262 C71.2201,87.5472 71.1061,87.5132 70.9741,87.5252 C70.8421,87.5372 70.7281,87.5912 70.6301,87.6882 C70.5341,87.7942 70.4901,87.9122 70.4901,88.0442 C70.4901,88.1762 70.5341,88.2872 70.6301,88.3752 C70.7281,88.4632 70.8421,88.4962 70.9741,88.4852 C71.1061,88.4722 71.2201,88.4182 71.3171,88.3122 C71.4051,88.2082 71.4491,88.0892 71.4491,87.9572 C71.4491,87.8252 71.4051,87.7152 71.3171,87.6262 Z" id="Fill-9" fill="#58595B"></path>
            <path d="M43.5588,20.4815 C43.5458,20.3905 43.4668,20.3585 43.3488,20.3695 L42.7718,20.4215 C42.6548,20.4325 42.5238,20.4835 42.3788,20.5755 C42.2348,20.6805 42.1038,20.7965 41.9988,20.9375 C41.9598,20.9805 41.8818,21.0925 41.7638,21.2735 C41.6458,21.4545 41.4888,21.6785 41.3178,21.9425 C41.1478,22.2075 40.9508,22.5135 40.7418,22.8345 C40.5318,23.1545 40.3218,23.4875 40.0998,23.8225 C39.8768,24.1705 39.6538,24.5045 39.4438,24.8255 C39.2218,25.1605 39.0248,25.4535 38.8548,25.7175 C38.4618,26.3035 38.1468,26.8435 37.9118,27.3365 C37.6628,27.8305 37.5178,28.2505 37.4788,28.5945 C37.4268,28.9535 37.4918,29.2095 37.6628,29.3905 C37.8328,29.5715 38.1468,29.6345 38.5928,29.5935 C39.0778,29.5495 39.5758,29.3475 40.0998,28.9985 C40.6108,28.6505 41.1348,28.2095 41.6718,27.6755 C42.1958,27.1435 42.7068,26.5465 43.2178,25.8845 C43.7288,25.2355 44.2008,24.5895 44.6598,23.9325 C45.1178,23.2745 45.5238,22.6615 45.9038,22.0635 C46.2708,21.4795 46.5848,20.9925 46.8338,20.5895 C46.9258,20.4505 46.9648,20.3415 46.9528,20.2515 L46.8478,20.1035 C46.7818,20.0965 46.6898,20.1185 46.5988,20.1655 C46.4938,20.2145 46.4018,20.3145 46.3098,20.4405 C46.0088,20.9005 45.6678,21.4165 45.2878,21.9885 C44.9078,22.5605 44.5018,23.1605 44.0828,23.7615 C43.6498,24.3645 43.2178,24.9545 42.7718,25.5315 C42.3268,26.1095 41.8948,26.6335 41.4618,27.0925 C41.0298,27.5645 40.6108,27.9425 40.2048,28.2285 C39.7978,28.5275 39.4318,28.6915 39.1038,28.7215 C38.9068,28.7395 38.8028,28.6705 38.7758,28.5285 C38.7498,28.3875 38.7888,28.1735 38.8938,27.9155 C38.9858,27.6585 39.1428,27.3425 39.3528,26.9825 C39.5618,26.6235 39.7978,26.2345 40.0738,25.8295 C40.2178,25.6205 40.4008,25.3415 40.6238,25.0065 C40.8468,24.6855 41.0688,24.3365 41.3178,23.9735 C41.5538,23.6115 41.7898,23.2495 42.0388,22.8865 C42.2878,22.5235 42.5108,22.1885 42.7068,21.8825 C42.9038,21.5895 43.0738,21.3375 43.2048,21.1425 C43.3358,20.9475 43.4138,20.8355 43.4408,20.8065 C43.5328,20.6805 43.5718,20.5715 43.5588,20.4815 M46.4298,24.3725 C46.4038,24.2965 46.3248,24.2645 46.2068,24.2745 L45.8268,24.3095 C45.7088,24.3205 45.5648,24.3725 45.4208,24.4645 C45.2768,24.5565 45.1458,24.6725 45.0538,24.8125 C45.0018,24.8825 44.8968,25.0235 44.7528,25.2325 C44.6088,25.4425 44.4378,25.6805 44.2678,25.9455 C44.0978,26.2095 43.9268,26.4875 43.7568,26.7515 C43.5858,27.0295 43.4418,27.2655 43.3508,27.4435 C43.2058,27.6925 43.1148,27.9235 43.0618,28.1515 C43.0098,28.3785 43.0098,28.5755 43.0488,28.7425 C43.0888,28.9085 43.1668,29.0195 43.3108,29.0855 C43.4548,29.1505 43.6518,29.1465 43.9008,29.0705 C44.0978,29.0135 44.3068,28.9025 44.5298,28.7385 C44.7528,28.5745 44.9888,28.3955 45.2378,28.1765 C45.4738,27.9585 45.7088,27.7275 45.9448,27.4825 C46.1808,27.2385 46.4038,26.9955 46.5998,26.7685 C46.7968,26.5405 46.9538,26.3305 47.0978,26.1465 C47.2418,25.9625 47.3338,25.8235 47.3988,25.7265 C47.4648,25.6155 47.5038,25.5205 47.5168,25.4265 C47.5308,25.3345 47.5168,25.2695 47.4778,25.2335 L47.2948,25.2505 C47.2028,25.2985 47.1108,25.3985 46.9928,25.5535 C46.8098,25.7925 46.5868,26.0485 46.3378,26.3335 C46.0888,26.6185 45.8398,26.8895 45.5908,27.1355 C45.3418,27.3805 45.1058,27.5855 44.9098,27.7475 C44.6998,27.9105 44.5558,27.9765 44.4638,27.9585 C44.3988,27.9515 44.3728,27.8755 44.3858,27.7555 C44.3988,27.6365 44.4908,27.4445 44.6608,27.1675 C44.7918,26.9455 44.9488,26.6955 45.1198,26.4315 C45.2898,26.1665 45.4598,25.9155 45.6308,25.6645 C45.7878,25.4265 45.9318,25.2175 46.0628,25.0355 C46.1938,24.8535 46.2728,24.7405 46.3118,24.6975 C46.4038,24.5715 46.4428,24.4635 46.4298,24.3725 M47.3988,22.0705 C47.2548,21.9525 47.0848,21.9025 46.8888,21.9205 C46.6918,21.9385 46.5208,22.0195 46.3768,22.1635 C46.2328,22.3205 46.1678,22.4965 46.1678,22.6935 C46.1678,22.8895 46.2328,23.0545 46.3768,23.1855 C46.5208,23.3165 46.6918,23.3665 46.8888,23.3485 C47.0848,23.3305 47.2548,23.2495 47.3988,23.0925 C47.5308,22.9365 47.5958,22.7595 47.5958,22.5635 C47.5958,22.3665 47.5308,22.2025 47.3988,22.0705 M49.4308,24.3615 C49.1028,24.5875 48.7628,24.8675 48.4348,25.1725 L48.9068,24.4615 C48.9988,24.3355 49.0378,24.2275 49.0248,24.1365 C48.9988,24.0605 48.9198,24.0275 48.8018,24.0385 L48.4218,24.0735 C48.3038,24.0845 48.1598,24.1365 48.0158,24.2285 C47.8718,24.3195 47.7408,24.4365 47.6488,24.5755 L45.0158,28.5495 C44.9238,28.6755 44.8838,28.7845 44.8968,28.8755 C44.9108,28.9655 44.9888,28.9975 45.1068,28.9865 L45.4868,28.9525 C45.6048,28.9415 45.7488,28.8895 45.8928,28.7845 C46.0378,28.6925 46.1678,28.5755 46.2728,28.4355 L46.6138,27.9195 L46.6658,27.8495 C46.8758,27.5285 47.1378,27.1905 47.4658,26.8195 C47.7798,26.4635 48.0948,26.1205 48.4088,25.8165 C48.7238,25.5135 49.0118,25.2775 49.2608,25.0845 C49.5098,24.8915 49.6668,24.8245 49.7458,24.8565 C49.8368,24.8885 49.8108,25.0215 49.6408,25.2465 C49.4708,25.4845 49.1948,25.8505 48.8288,26.3425 C48.5268,26.7625 48.3168,27.1355 48.1998,27.4475 C48.0808,27.7595 48.0288,28.0135 48.0678,28.2065 C48.0948,28.4005 48.1858,28.5365 48.3568,28.6125 C48.5268,28.6895 48.7368,28.6835 48.9988,28.6065 C49.1818,28.5505 49.3918,28.4395 49.6278,28.2745 C49.8508,28.1095 50.0858,27.9315 50.3218,27.7135 C50.5578,27.4955 50.7938,27.2645 51.0298,27.0205 C51.2518,26.7775 51.4748,26.5345 51.6718,26.3065 C51.8678,26.0795 52.0378,25.8675 52.1828,25.6835 C52.3268,25.5005 52.4178,25.3605 52.4838,25.2635 C52.5498,25.1525 52.5888,25.0575 52.6018,24.9645 C52.6148,24.8715 52.6018,24.8075 52.5628,24.7715 L52.3788,24.7885 C52.2878,24.8355 52.1828,24.9375 52.0648,25.0915 C51.8938,25.3305 51.6718,25.5855 51.4228,25.8705 C51.1738,26.1555 50.9248,26.4265 50.6758,26.6725 C50.4268,26.9175 50.1908,27.1225 49.9948,27.2845 C49.7848,27.4475 49.6408,27.5135 49.5488,27.4955 L49.4708,27.4375 C49.4568,27.3985 49.4568,27.3335 49.4958,27.2385 C49.5228,27.1445 49.5878,27.0205 49.6798,26.8545 C49.7718,26.6895 49.9158,26.4795 50.1118,26.2255 C50.5048,25.7055 50.7808,25.2735 50.9508,24.9435 C51.1078,24.6285 51.1868,24.3725 51.1738,24.2035 C51.1608,24.0335 51.0818,23.9365 50.9378,23.8975 C50.7938,23.8575 50.5968,23.8625 50.3738,23.9215 C50.0728,23.9885 49.7588,24.1355 49.4308,24.3615 M51.5678,21.7425 C51.3708,21.8915 51.2268,22.0355 51.1358,22.1875 C51.0438,22.3405 51.0048,22.4875 51.0308,22.6035 C51.0568,22.7185 51.1878,22.7725 51.4108,22.7395 C51.5548,22.7265 51.8428,22.6865 52.2888,22.6335 C52.7208,22.5805 53.2458,22.5065 53.8348,22.4275 C53.5598,22.8455 53.2578,23.2785 52.9568,23.7385 C52.6558,24.1985 52.3678,24.6305 52.0918,25.0355 C51.8168,25.4405 51.5938,25.8015 51.3978,26.1075 C51.2008,26.4275 51.0698,26.6355 51.0048,26.7465 C50.8738,26.9945 50.7818,27.2255 50.7288,27.4525 C50.6768,27.6805 50.6768,27.8765 50.7168,28.0435 C50.7558,28.2105 50.8338,28.3205 50.9778,28.3865 C51.1218,28.4525 51.3188,28.4475 51.5808,28.3715 C51.7778,28.3145 51.9868,28.2035 52.2098,28.0385 C52.4328,27.8745 52.6688,27.6955 52.9178,27.4765 C53.1538,27.2585 53.3898,27.0275 53.6248,26.7835 C53.8478,26.5405 54.0708,26.2975 54.2668,26.0695 C54.4638,25.8425 54.6338,25.6295 54.7778,25.4465 C54.9218,25.2635 55.0138,25.1245 55.0798,25.0265 C55.1448,24.9155 55.1838,24.8205 55.1978,24.7275 C55.2108,24.6345 55.1978,24.5695 55.1578,24.5345 C55.1188,24.4985 55.0538,24.5045 54.9618,24.5525 C54.8698,24.5995 54.7648,24.7015 54.6468,24.8565 C54.4768,25.0945 54.2538,25.3505 54.0048,25.6345 C53.7558,25.9195 53.5068,26.1905 53.2578,26.4365 C53.0098,26.6825 52.7738,26.8865 52.5768,27.0485 C52.3678,27.2115 52.2228,27.2775 52.1318,27.2595 C52.0658,27.2525 52.0528,27.1755 52.0658,27.0565 C52.0788,26.9375 52.1708,26.7455 52.3278,26.4685 C52.4068,26.3435 52.5508,26.1215 52.7468,25.8145 C52.9438,25.5085 53.1668,25.1605 53.4288,24.7565 C53.6908,24.3665 53.9658,23.9485 54.2668,23.5145 C54.5688,23.0815 54.8438,22.6635 55.1188,22.2575 C55.7218,22.1765 56.3248,22.0955 56.9398,22.0135 C57.5428,21.9325 58.1058,21.8555 58.6308,21.7815 C59.1418,21.7095 59.5998,21.6415 59.9798,21.5935 C60.3598,21.5455 60.6088,21.5095 60.7398,21.4985 C60.9628,21.4775 61.0808,21.4145 61.1068,21.3205 C61.1328,21.2265 61.0938,21.1255 60.9888,21.0165 C60.8838,20.9215 60.7398,20.8425 60.5428,20.7695 C60.3468,20.6955 60.1378,20.6745 59.9138,20.7085 C59.7968,20.7185 59.5998,20.7365 59.3378,20.7605 C59.0628,20.7985 58.7478,20.8275 58.3948,20.8595 C58.0278,20.9055 57.6348,20.9415 57.2028,20.9815 C56.7698,21.0335 56.3378,21.0725 55.9048,21.1115 C56.0488,20.9025 56.1808,20.7205 56.2848,20.5665 C56.3768,20.4275 56.4418,20.3425 56.4548,20.3285 C56.5468,20.2025 56.5858,20.0935 56.5738,20.0025 C56.5468,19.9265 56.4688,19.8945 56.3508,19.9055 L55.9708,19.9395 C55.8528,19.9505 55.7078,20.0025 55.5638,20.0945 C55.4198,20.1995 55.2888,20.3165 55.1978,20.4425 L54.6338,21.2535 C54.0708,21.3175 53.5728,21.3635 53.1268,21.4035 C52.6818,21.4575 52.3538,21.4875 52.1438,21.5065 C51.9478,21.5245 51.7508,21.6075 51.5678,21.7425 M53.5348,26.2935 C53.3248,26.6915 53.2068,27.0435 53.1808,27.3205 C53.1538,27.6115 53.2068,27.8295 53.3378,27.9885 C53.4688,28.1465 53.6518,28.2085 53.9008,28.1855 C54.0718,28.1705 54.2678,28.1135 54.4648,28.0035 C54.6608,27.9075 54.8448,27.7855 55.0408,27.6365 C55.2378,27.5015 55.4208,27.3395 55.6038,27.1665 C55.7878,26.9925 55.9578,26.8195 56.1158,26.6615 C56.0368,26.8645 55.9968,27.0645 55.9848,27.2365 C55.9718,27.4075 55.9848,27.5645 56.0498,27.6755 C56.1018,27.7895 56.1938,27.8725 56.3378,27.9115 C56.4688,27.9655 56.6398,27.9495 56.8628,27.8905 C57.0588,27.8335 57.2678,27.7225 57.4918,27.5585 C57.7138,27.3935 57.9498,27.2145 58.1988,26.9955 C58.4348,26.7775 58.6708,26.5465 58.9068,26.3025 C59.1418,26.0585 59.3648,25.8155 59.5608,25.5875 C59.7578,25.3605 59.9148,25.1495 60.0588,24.9655 C60.2038,24.7825 60.2948,24.6435 60.3608,24.5455 C60.4268,24.4345 60.4658,24.3395 60.4788,24.2465 C60.4918,24.1535 60.4788,24.0895 60.4388,24.0535 L60.2558,24.0705 C60.1638,24.1185 60.0728,24.2175 59.9548,24.3735 C59.7708,24.6125 59.5488,24.8685 59.2998,25.1525 C59.0508,25.4385 58.8018,25.7095 58.5528,25.9545 C58.3038,26.2005 58.0678,26.4045 57.8718,26.5665 C57.6618,26.7305 57.5168,26.7955 57.4258,26.7775 C57.3598,26.7705 57.3338,26.6945 57.3598,26.5745 C57.3728,26.4555 57.4648,26.2635 57.6358,25.9855 C57.7528,25.7655 57.9108,25.5155 58.0808,25.2515 C58.2508,24.9865 58.4218,24.7345 58.5918,24.4835 C58.7488,24.2465 58.8928,24.0375 59.0238,23.8545 C59.1558,23.6725 59.2338,23.5605 59.2728,23.5175 C59.3648,23.3915 59.4038,23.2825 59.3918,23.1925 C59.3648,23.1165 59.2868,23.0845 59.1678,23.0945 L58.7878,23.1295 C58.6838,23.1385 58.5658,23.1755 58.4478,23.2385 C58.3298,23.3025 58.2118,23.3915 58.1208,23.4915 C57.9628,23.3615 57.7668,23.2875 57.5168,23.2575 C57.2678,23.2415 56.9938,23.2795 56.6788,23.3865 C56.3648,23.5065 56.0238,23.6955 55.6568,23.9515 C55.2898,24.2075 54.9098,24.5565 54.5038,24.9865 C54.0718,25.4585 53.7438,25.8945 53.5348,26.2935 M55.7088,24.7985 C55.9318,24.5815 56.1808,24.3755 56.4298,24.2085 C56.6788,24.0415 56.9278,23.9145 57.1768,23.8395 C57.4258,23.7645 57.6488,23.7705 57.8448,23.8705 L57.7008,24.0665 C57.5828,24.2345 57.4258,24.4455 57.2288,24.6995 C57.0328,24.9535 56.8228,25.2085 56.6008,25.4635 C56.3778,25.7335 56.1418,25.9775 55.9188,26.2075 C55.6958,26.4505 55.4868,26.6265 55.2898,26.7625 C55.0148,26.9575 54.8178,27.0545 54.7008,27.0385 C54.5688,27.0245 54.5038,26.9385 54.5038,26.7815 C54.4908,26.6385 54.5428,26.4375 54.6608,26.1905 C54.7658,25.9585 54.9228,25.7085 55.1328,25.4535 C55.2898,25.2425 55.4868,25.0275 55.7088,24.7985 M58.8418,25.8095 C58.6328,26.2085 58.5148,26.5605 58.4888,26.8375 C58.4618,27.1275 58.5148,27.3465 58.6458,27.5045 C58.7768,27.6635 58.9598,27.7245 59.2088,27.7025 C59.4058,27.6845 59.6158,27.6125 59.8378,27.4875 C60.0608,27.3765 60.2698,27.2255 60.4938,27.0485 C60.7158,26.8835 60.9258,26.6945 61.1218,26.4935 C61.3188,26.3045 61.4888,26.1195 61.6458,25.9475 C61.3578,26.3275 61.0698,26.7335 60.7678,27.1415 C60.4668,27.5485 60.1918,27.9405 59.9428,28.3035 C59.6938,28.6675 59.4718,28.9885 59.3008,29.2525 C59.1308,29.5175 59.0128,29.7115 58.9738,29.8075 C58.8948,29.9715 58.8818,30.1295 58.9208,30.2835 C58.9598,30.4505 59.0258,30.5755 59.1178,30.6715 C59.2088,30.7685 59.3268,30.8235 59.4448,30.8385 C59.5628,30.8545 59.6548,30.7935 59.7198,30.6695 C60.1008,30.0325 60.4668,29.4095 60.8468,28.7855 C61.2268,28.1735 61.5938,27.5905 61.9478,27.0335 C62.3018,26.4775 62.6288,25.9625 62.9438,25.4765 C63.2448,25.0025 63.5198,24.5855 63.7558,24.2355 C63.9918,23.8865 64.1878,23.5935 64.3318,23.3845 C64.4758,23.1745 64.5548,23.0625 64.5808,23.0345 C64.6728,22.9075 64.7118,22.7995 64.6988,22.7095 C64.6728,22.6325 64.5948,22.6005 64.4758,22.6115 L64.0968,22.6455 C63.9918,22.6555 63.8738,22.6915 63.7558,22.7555 C63.6378,22.8185 63.5198,22.9075 63.4288,23.0075 C63.2708,22.8775 63.0748,22.8045 62.8258,22.7745 C62.5768,22.7575 62.3018,22.7955 61.9868,22.9025 C61.6728,23.0235 61.3318,23.2115 60.9648,23.4675 C60.5978,23.7235 60.2178,24.0725 59.8118,24.5025 C59.3798,24.9745 59.0518,25.4105 58.8418,25.8095 M61.0168,24.3145 C61.2398,24.0975 61.4888,23.8915 61.7378,23.7255 C61.9868,23.5585 62.2358,23.4305 62.4848,23.3555 C62.7338,23.2805 62.9568,23.2865 63.1528,23.3865 C63.0608,23.5255 62.9168,23.7225 62.7208,23.9765 C62.5238,24.2435 62.3018,24.5125 62.0658,24.8085 C61.8168,25.1065 61.5678,25.3785 61.3058,25.6505 C61.0438,25.9235 60.8078,26.1285 60.5978,26.2785 C60.3228,26.4745 60.1258,26.5705 60.0088,26.5555 C59.8768,26.5415 59.8118,26.4555 59.8118,26.2975 C59.7988,26.1545 59.8508,25.9535 59.9688,25.7075 C60.0738,25.4745 60.2308,25.2245 60.4408,24.9695 C60.5978,24.7585 60.7948,24.5445 61.0168,24.3145 M68.4478,22.9965 C68.4608,22.8375 68.4348,22.7095 68.3698,22.5975 C68.2908,22.4995 68.1728,22.4185 68.0288,22.3655 C67.8848,22.3135 67.7008,22.3035 67.5048,22.3215 C66.9938,22.3685 66.5218,22.5295 66.0768,22.7925 C65.6178,23.0565 65.2248,23.3805 64.8838,23.7525 C64.5428,24.1375 64.2678,24.5285 64.0588,24.9415 C63.8488,25.3665 63.7308,25.7445 63.7178,26.0855 C63.6918,26.4415 63.7698,26.7235 63.9668,26.9285 C64.1628,27.1325 64.4778,27.2225 64.9358,27.1805 C65.2508,27.1515 65.6048,27.0155 66.0108,26.7815 C66.4168,26.5475 66.8238,26.2495 67.2428,25.9095 C67.6618,25.5705 68.0678,25.2055 68.4608,24.8155 C68.8538,24.4265 69.1948,24.0555 69.4698,23.7155 C69.5488,23.6165 69.6008,23.5205 69.6138,23.4275 L69.5618,23.2615 C69.5218,23.2385 69.4568,23.2455 69.3648,23.2795 C69.2738,23.3145 69.1688,23.4025 69.0508,23.5445 C68.7488,23.8855 68.4218,24.2165 68.0548,24.5515 C67.6878,24.8865 67.3208,25.1945 66.9678,25.4495 C66.6138,25.7045 66.2728,25.9185 65.9718,26.0645 C65.6698,26.2105 65.4208,26.2715 65.2508,26.2345 C65.0808,26.2105 64.9628,26.1165 64.9238,25.9505 C64.8838,25.7965 64.8838,25.6125 64.9358,25.3855 C65.2898,25.3275 65.6438,25.2295 65.9848,25.1065 C66.3258,24.9835 66.6398,24.8375 66.9278,24.6675 C67.2168,24.4975 67.4778,24.3155 67.7008,24.1255 C67.9238,23.9345 68.0938,23.7355 68.2258,23.5275 C68.3558,23.3325 68.4348,23.1545 68.4478,22.9965 M67.1638,22.9555 C67.2818,22.9835 67.3478,23.0565 67.3608,23.1605 C67.3738,23.2645 67.3338,23.3985 67.2558,23.5495 C67.1638,23.7155 67.0328,23.8715 66.8498,24.0325 C66.6658,24.1925 66.4298,24.3455 66.1418,24.4895 C65.8538,24.6335 65.5128,24.7565 65.1198,24.8315 C65.1988,24.6545 65.2898,24.4625 65.4078,24.2815 C65.5258,24.1005 65.6438,23.9195 65.7878,23.7495 C65.9188,23.5925 66.0628,23.4485 66.2068,23.3175 C66.3508,23.1995 66.5088,23.1065 66.6528,23.0415 C66.8758,22.9555 67.0458,22.9265 67.1638,22.9555" id="Fill-11" fill="#58595B"></path>
            <g id="Group-15" transform="translate(0.000000, 0.756000)">
                <mask id="mask-2" fill="white">
                    <use xlink:href="#path-1"></use>
                </mask>
                <g id="Clip-14"></g>
                <path d="M53.8786,0.9056 C24.5346,0.9056 0.6626,24.7786 0.6626,54.1226 C0.6626,83.4656 24.5346,107.3376 53.8786,107.3376 C83.2206,107.3376 107.0936,83.4656 107.0936,54.1226 C107.0936,24.7786 83.2206,0.9056 53.8786,0.9056 M53.8786,107.9996 C24.1696,107.9996 0.0006,83.8296 0.0006,54.1226 C0.0006,24.4136 24.1696,0.2436 53.8786,0.2436 C83.5866,0.2436 107.7556,24.4136 107.7556,54.1226 C107.7556,83.8296 83.5866,107.9996 53.8786,107.9996" id="Fill-13" fill="#58595B" mask="url(#mask-2)"></path>
            </g>
            <path d="M55.5475,100.0987 C55.5475,101.0197 54.7995,101.7667 53.8785,101.7667 C52.9555,101.7667 52.2085,101.0197 52.2085,100.0987 C52.2085,99.1757 52.9555,98.4287 53.8785,98.4287 C54.7995,98.4287 55.5475,99.1757 55.5475,100.0987" id="Fill-16" fill="#58595B"></path>
            <path d="M55.5475,9.6577 C55.5475,10.5787 54.7995,11.3257 53.8785,11.3257 C52.9555,11.3257 52.2085,10.5787 52.2085,9.6577 C52.2085,8.7347 52.9555,7.9877 53.8785,7.9877 C54.7995,7.9877 55.5475,8.7347 55.5475,9.6577" id="Fill-18" fill="#58595B"></path>
        </g>
    </g>
</svg>