<?xml version="1.0" encoding="UTF-8"?>
<svg width="135px" height="102px" viewBox="0 0 135 102" version="1.1" xmlns="http://www.w3.org/2000/svg" xmlns:xlink="http://www.w3.org/1999/xlink">
    <!-- Generator: Sketch 49 (51002) - http://www.bohemiancoding.com/sketch -->
    <title>vintage-logo-2</title>
    <desc>Created with Sketch.</desc>
    <defs>
        <polygon id="path-1" points="0 0.3841 134.3187 0.3841 134.3187 27.7621 0 27.7621"></polygon>
        <polygon id="path-3" points="0.1728 0.9113 80.7618 0.9113 80.7618 4 0.1728 4"></polygon>
    </defs>
    <g id="Page-1" stroke="none" stroke-width="1" fill="none" fill-rule="evenodd">
        <g id="vintage-logo-2" transform="translate(0.000000, -1.000000)">
            <path d="M13.2785,13.1545 C13.1365,13.7795 12.9965,14.4055 12.8585,15.0305 C11.8015,14.7535 10.5375,14.7055 9.8235,14.8995 C9.2465,15.0555 8.9135,15.3655 9.0265,15.7695 C9.4195,17.1935 13.8165,15.1525 14.5765,18.1955 C14.9935,19.8715 13.7085,21.1325 11.8185,21.6425 C10.3995,22.0255 8.8025,21.9135 7.5575,21.4015 C7.6805,20.7795 7.8055,20.1575 7.9335,19.5355 C9.0305,20.0295 10.4875,20.1605 11.3805,19.9215 C12.0645,19.7365 12.4275,19.3745 12.3015,18.8965 C11.9075,17.4035 7.5955,19.5395 6.7475,16.6165 C6.3045,15.0895 7.4225,13.7085 9.5485,13.1345 C10.8265,12.7895 12.2285,12.8215 13.2785,13.1545" id="Fill-1" fill="#58595B"></path>
            <path d="M21.2677,12.6477 C21.0607,13.7817 20.8607,14.9147 20.6677,16.0477 C21.5047,15.8627 22.3427,15.6837 23.1827,15.5097 C22.5497,14.5527 21.9127,13.5987 21.2677,12.6477 M20.3857,17.8147 C20.2907,18.3797 20.1987,18.9447 20.1077,19.5087 C19.3617,19.6777 18.6167,19.8517 17.8717,20.0287 C18.4337,16.9357 19.0477,13.8437 19.7147,10.7507 C20.4917,10.5807 21.2707,10.4147 22.0497,10.2527 C23.8907,12.8087 25.6847,15.3867 27.4307,17.9847 C26.6507,18.1327 25.8737,18.2847 25.0957,18.4407 C24.7867,17.9617 24.4757,17.4837 24.1627,17.0067 C22.9017,17.2647 21.6427,17.5337 20.3857,17.8147" id="Fill-3" fill="#58595B"></path>
            <path d="M38.2507,16.2219 C37.9937,14.3689 37.7367,12.5169 37.4797,10.6639 C36.9827,12.3289 36.5007,13.9959 36.0357,15.6639 C35.5547,15.7339 35.0747,15.8059 34.5947,15.8799 C33.6597,14.4219 32.7097,12.9699 31.7447,11.5239 C32.0467,13.3689 32.3497,15.2159 32.6517,17.0609 C31.9977,17.1689 31.3437,17.2789 30.6907,17.3929 C30.1987,14.5529 29.7057,11.7139 29.2127,8.8739 C30.0467,8.7299 30.8817,8.5899 31.7177,8.4549 C32.8047,10.0159 33.8737,11.5839 34.9227,13.1599 C35.4647,11.3459 36.0257,9.5329 36.6057,7.7219 C37.4387,7.6059 38.2727,7.4959 39.1067,7.3899 C39.4697,10.2489 39.8317,13.1079 40.1947,15.9669 C39.5457,16.0489 38.8977,16.1339 38.2507,16.2219" id="Fill-5" fill="#58595B"></path>
            <path d="M53.4235,10.5476 C54.3995,10.4876 54.9445,9.9766 54.8965,9.0656 C54.8465,8.1666 54.2435,7.7416 53.2535,7.8016 C52.6745,7.8386 52.0965,7.8766 51.5185,7.9166 C51.5825,8.8316 51.6475,9.7456 51.7095,10.6606 C52.2805,10.6206 52.8525,10.5836 53.4235,10.5476 M53.5925,12.2666 L53.5295,12.2706 C52.9635,12.3056 52.3975,12.3436 51.8305,12.3826 C51.8875,13.1906 51.9445,13.9986 52.0005,14.8056 C51.2625,14.8576 50.5235,14.9126 49.7855,14.9726 C49.5555,12.1046 49.3235,9.2356 49.0925,6.3676 C50.4435,6.2586 51.7945,6.1626 53.1465,6.0796 C55.5485,5.9316 56.9705,6.9646 57.0525,8.8846 C57.1105,10.2036 56.5815,11.1746 55.5725,11.7346 C56.2415,12.6506 56.9015,13.5696 57.5525,14.4916 C56.7135,14.5276 55.8745,14.5696 55.0375,14.6156 C54.5605,13.8316 54.0795,13.0486 53.5925,12.2666" id="Fill-7" fill="#58595B"></path>
            <path d="M63.4015,7.4119 C63.4095,7.9829 63.4185,8.5549 63.4265,9.1259 C64.8495,9.1049 66.2705,9.0969 67.6935,9.1039 C67.6905,9.6789 67.6875,10.2549 67.6845,10.8309 C66.2745,10.8239 64.8635,10.8309 63.4535,10.8519 C63.4625,11.4329 63.4705,12.0119 63.4795,12.5919 C65.0755,12.5669 66.6715,12.5609 68.2675,12.5729 C68.2635,13.1479 68.2585,13.7239 68.2535,14.2999 C65.9315,14.2819 63.6095,14.3039 61.2875,14.3629 C61.2135,11.4859 61.1405,8.6099 61.0665,5.7329 C63.4355,5.6719 65.8065,5.6499 68.1755,5.6659 C68.1725,6.2409 68.1685,6.8169 68.1645,7.3929 C66.5765,7.3819 64.9895,7.3879 63.4015,7.4119" id="Fill-9" fill="#58595B"></path>
            <path d="M80.2262,7.4626 C79.7532,7.9356 79.2822,8.4096 78.8152,8.8856 C78.2662,8.1636 77.4132,7.6876 76.6152,7.6506 C75.1852,7.5856 74.0662,8.6346 74.0212,10.0526 C73.9752,11.4956 74.9942,12.6266 76.3852,12.6896 C77.1252,12.7226 77.9982,12.3726 78.6522,11.7926 C79.0642,12.2686 79.4742,12.7456 79.8792,13.2236 C78.8802,14.1116 77.4662,14.6636 76.1842,14.6066 C73.5672,14.4876 71.6572,12.5406 71.7062,10.0106 C71.7552,7.5216 73.8882,5.6866 76.6602,5.8126 C78.0102,5.8736 79.3802,6.5196 80.2262,7.4626" id="Fill-11" fill="#58595B"></path>
            <path d="M85.1935,10.7747 C85.0715,12.2257 86.1155,13.4407 87.4525,13.5717 C88.8015,13.7037 90.0005,12.7087 90.1615,11.2627 C90.3235,9.8157 89.3425,8.6017 87.9545,8.4657 C86.5665,8.3297 85.3165,9.3247 85.1935,10.7747 M92.4795,11.5177 C92.1685,14.0147 89.9315,15.6607 87.2485,15.3987 C84.5765,15.1357 82.7065,13.0987 82.8855,10.5757 C83.0655,8.0677 85.3045,6.3597 88.1075,6.6347 C90.9235,6.9117 92.7895,9.0337 92.4795,11.5177" id="Fill-13" fill="#58595B"></path>
            <path d="M100.1154,12.7537 C101.0844,12.9067 101.7284,12.5267 101.8774,11.6267 C102.0254,10.7377 101.5264,10.1927 100.5424,10.0377 C99.9694,9.9467 99.3954,9.8587 98.8214,9.7727 C98.6854,10.6797 98.5504,11.5867 98.4144,12.4937 C98.9824,12.5777 99.5484,12.6657 100.1154,12.7537 M99.9084,14.4687 L99.8464,14.4597 C99.2844,14.3707 98.7224,14.2847 98.1594,14.2007 C98.0404,15.0017 97.9204,15.8027 97.8014,16.6037 C97.0684,16.4937 96.3334,16.3887 95.5994,16.2867 C95.9944,13.4367 96.3894,10.5857 96.7844,7.7347 C98.1284,7.9207 99.4704,8.1207 100.8124,8.3317 C103.1954,8.7087 104.3654,10.0247 104.0304,11.9177 C103.8004,13.2177 103.0714,14.0517 101.9644,14.3787 C102.4194,15.4187 102.8664,16.4587 103.3054,17.5007 C102.4754,17.3537 101.6454,17.2127 100.8144,17.0757 C100.5174,16.2067 100.2164,15.3367 99.9084,14.4687" id="Fill-15" fill="#58595B"></path>
            <path d="M109.5334,16.908 C110.0564,17.016 110.5804,17.126 111.1034,17.238 C112.4484,17.526 113.6374,16.735 113.9744,15.255 C114.3134,13.764 113.5084,12.505 112.0754,12.2 C111.5734,12.092 111.0714,11.987 110.5684,11.884 C110.2234,13.559 109.8794,15.234 109.5334,16.908 M112.4914,10.497 C115.3074,11.1 116.8334,13.272 116.2334,15.765 C115.6364,18.248 113.3514,19.508 110.6024,18.922 C109.4024,18.666 108.1984,18.42 106.9944,18.186 C107.5444,15.361 108.0964,12.536 108.6464,9.712 C109.9294,9.962 111.2114,10.224 112.4914,10.497" id="Fill-17" fill="#58595B"></path>
            <path d="M127.5993,15.1887 C127.1603,15.6557 126.7233,16.1247 126.2873,16.5947 C125.5133,15.8207 124.4453,15.1407 123.7313,14.9467 C123.1543,14.7907 122.7113,14.8897 122.6033,15.2947 C122.2223,16.7217 127.0513,17.1847 126.1723,20.1937 C125.6853,21.8517 123.9353,22.2887 122.0453,21.7737 C120.6283,21.3877 119.3083,20.4847 118.4953,19.4157 C118.9153,18.9407 119.3373,18.4657 119.7613,17.9937 C120.4563,18.9727 121.6443,19.8227 122.5373,20.0677 C123.2223,20.2547 123.7193,20.1247 123.8513,19.6487 C124.2643,18.1597 119.4653,17.8257 120.2133,14.8757 C120.6023,13.3347 122.2603,12.7057 124.3863,13.2857 C125.6633,13.6327 126.8593,14.3687 127.5993,15.1887" id="Fill-19" fill="#58595B"></path>
            <path d="M88.3561,53.825 C87.8461,52.163 87.6721,50.242 86.3691,49.184 L86.4981,49.297 L86.5001,49.297 C86.5001,49.297 86.8221,47.116 86.5231,46.405 C86.4391,46.208 86.2641,46.066 86.0591,45.973 L86.1011,45.992 C85.9441,40.846 83.6741,35.738 78.9391,32.606 L78.9391,32.604 L78.9371,32.603 C75.9911,30.655 72.0941,29.515 67.1571,29.515 C62.2211,29.515 58.3231,30.655 55.3771,32.603 L55.3761,32.604 L55.3761,32.606 C50.6401,35.739 48.3691,40.848 48.2131,45.993 L48.2461,45.979 C48.0461,46.073 47.8761,46.213 47.7951,46.405 C47.4961,47.116 47.8191,49.297 47.8191,49.297 L47.8201,49.297 L47.9501,49.184 C46.6461,50.242 46.4731,52.163 45.9621,53.825 C45.4461,58.023 46.0101,61.894 47.4441,65.502 C48.3931,67.472 49.3971,69.325 50.8151,70.252 C51.3891,70.355 51.8971,70.228 52.3531,69.92 C52.3191,69.323 52.2751,68.724 52.2321,68.128 C52.2551,68.448 52.2821,68.768 52.3031,69.088 L52.3031,69.09 L56.0311,69.085 C57.6341,69.083 57.4541,67.659 57.3041,66.553 L55.0711,50.135 C54.9061,48.914 54.0731,48.442 52.9001,48.847 L49.6911,49.952 L49.6911,49.954 C49.7701,50.322 49.8401,50.691 49.9141,51.059 C49.7931,50.459 49.6721,49.858 49.5431,49.257 L49.3531,49.188 L49.3571,49.189 L49.4831,46.268 C49.5011,46.137 49.4421,46.038 49.3381,45.968 L49.3691,45.986 C50.0151,41.632 51.6521,38.073 54.6451,35.602 L55.6811,37.142 C56.3161,38.086 57.6691,37.895 59.5581,36.929 C61.7291,35.899 64.1461,35.23 67.0441,35.23 C69.9451,35.23 72.5851,35.899 74.7561,36.929 C76.6441,37.895 77.9971,38.086 78.6331,37.142 L79.6701,35.602 C82.6631,38.074 84.2991,41.634 84.9471,45.989 L84.9761,45.972 C84.8751,46.04 84.8171,46.139 84.8351,46.268 L84.9611,49.189 L84.9661,49.188 L84.7751,49.257 C84.6461,49.857 84.5261,50.457 84.4041,51.057 C84.4791,50.69 84.5491,50.322 84.6271,49.954 L84.6271,49.952 L81.4171,48.847 C80.2461,48.442 79.4141,48.914 79.2481,50.135 L77.0141,66.553 C76.8631,67.659 76.6841,69.083 78.2881,69.085 L82.0161,69.09 L82.0161,69.088 C82.0371,68.761 82.0641,68.432 82.0871,68.104 C82.0441,68.709 82.0011,69.315 81.9651,69.92 C82.4211,70.228 82.9301,70.355 83.5021,70.252 C84.9221,69.325 85.9251,67.472 86.8741,65.502 C88.3091,61.894 88.8721,58.023 88.3561,53.825" id="Fill-21" fill="#58595B"></path>
            <g id="Group-25" transform="translate(0.000000, 0.616000)">
                <mask id="mask-2" fill="white">
                    <use xlink:href="#path-1"></use>
                </mask>
                <g id="Clip-24"></g>
                <path d="M5.5397,27.1201 C45.8007,15.5261 88.5177,15.5261 128.7787,27.1201 C130.3947,21.5061 132.0117,15.8921 133.6287,10.2791 C90.1987,-2.2269 44.1207,-2.2269 0.6887,10.2791 C2.3057,15.8921 3.9227,21.5061 5.5397,27.1201 M129.1407,27.7621 C88.6567,16.0001 45.6617,16.0001 5.1767,27.7621 C3.4517,21.8211 1.7267,15.8821 -0.0003,9.9421 C43.8657,-2.8019 90.4517,-2.8019 134.3187,9.9421 C132.5917,15.8821 130.8677,21.8211 129.1407,27.7621" id="Fill-23" fill="#58595B" mask="url(#mask-2)"></path>
            </g>
            <path d="M12.7536,50.4622 L12.7536,49.4132 L8.6466,49.4132 L8.6466,54.6602 L12.8366,54.6602 L12.8366,53.6102 L9.9806,53.6102 L9.9806,52.5532 L12.4836,52.5532 L12.4836,51.5042 L9.9806,51.5042 L9.9806,50.4622 L12.7536,50.4622 Z M17.9686,49.3532 C16.7096,49.3532 15.8776,49.9672 15.8776,50.9342 C15.8776,52.7932 18.6496,52.2382 18.6496,53.1682 C18.6496,53.4682 18.3876,53.6252 17.9686,53.6252 C17.4206,53.6252 16.6116,53.3102 16.0716,52.8382 L15.5546,53.8652 C16.1766,54.3752 17.0766,54.7052 17.9536,54.7052 C19.1226,54.7052 20.0516,54.1502 20.0516,53.1012 C20.0516,51.2042 17.2786,51.7212 17.2786,50.8152 C17.2786,50.5602 17.5106,50.4322 17.8556,50.4322 C18.2826,50.4322 18.9806,50.6572 19.5346,50.9792 L20.0366,49.9372 C19.4976,49.5852 18.7256,49.3532 17.9686,49.3532 Z M27.0426,50.4842 L27.0426,49.4052 L22.5606,49.4052 L22.5606,50.4842 L24.1276,50.4842 L24.1276,54.6602 L25.4616,54.6602 L25.4616,50.4842 L27.0426,50.4842 Z M29.8656,49.4132 L29.8656,54.6602 L32.0696,54.6602 C33.7556,54.6602 34.9106,53.5872 34.9106,52.0362 C34.9106,50.4772 33.7706,49.4132 32.1216,49.4132 L29.8656,49.4132 Z M31.1996,50.4772 L32.0916,50.4772 C32.9386,50.4772 33.5536,51.1142 33.5536,52.0442 C33.5536,52.9652 32.9686,53.5952 32.1516,53.5952 L31.1996,53.5952 L31.1996,50.4772 Z M102.1566,49.3532 C101.4066,49.3532 100.6876,49.6452 100.0276,50.1402 L100.5296,51.0992 C101.0096,50.6872 101.5346,50.4322 101.9616,50.4322 C102.3366,50.4322 102.5536,50.6122 102.5536,50.9122 C102.5536,51.1512 102.3436,51.5042 102.0516,51.8112 L100.1776,53.7972 L100.1776,54.6602 L104.1056,54.6602 L104.1056,53.6032 L101.8936,53.6032 L102.9586,52.4712 C103.5276,51.8862 103.9476,51.2942 103.9476,50.7242 C103.9476,49.8922 103.1976,49.3532 102.1566,49.3532 Z M109.2516,49.3682 C107.7526,49.3682 106.9206,50.3192 106.9206,52.0282 C106.9206,53.7452 107.7526,54.6972 109.2516,54.6972 C110.7356,54.6972 111.5676,53.7452 111.5676,52.0282 C111.5676,50.3192 110.7356,49.3682 109.2516,49.3682 Z M109.2516,50.3422 C109.9116,50.3422 110.2036,50.8292 110.2036,52.0282 C110.2036,53.2282 109.9116,53.7232 109.2516,53.7232 C108.5776,53.7232 108.2926,53.2282 108.2926,52.0282 C108.2926,50.8292 108.5776,50.3422 109.2516,50.3422 Z M116.4906,54.6602 L116.4906,49.4052 L114.1896,49.4052 L114.1896,50.4772 L115.1556,50.4772 L115.1556,54.6602 L116.4906,54.6602 Z M121.7706,49.3532 C121.0216,49.3532 120.3016,49.6452 119.6416,50.1402 L120.1446,51.0992 C120.6236,50.6872 121.1486,50.4322 121.5756,50.4322 C121.9506,50.4322 122.1686,50.6122 122.1686,50.9122 C122.1686,51.1512 121.9586,51.5042 121.6656,51.8112 L119.7916,53.7972 L119.7916,54.6602 L123.7196,54.6602 L123.7196,53.6032 L121.5086,53.6032 L122.5726,52.4712 C123.1426,51.8862 123.5626,51.2942 123.5626,50.7242 C123.5626,49.8922 122.8126,49.3532 121.7706,49.3532 Z" id="Fill-26" fill="#58595B"></path>
            <path d="M25.7052,77.2561 C24.9032,77.4521 24.1982,77.7061 23.6112,78.0391 C23.0042,78.3711 22.5352,78.7231 22.1632,79.1341 C21.7912,79.5451 21.5372,79.9371 21.4392,80.3081 C21.3222,80.7001 21.3612,81.0521 21.5572,81.3651 C21.7332,81.6971 22.0852,81.9321 22.6132,82.0891 C23.1222,81.3261 23.5532,80.6801 23.9052,80.1321 C24.2372,79.5851 24.6092,79.1341 25.0202,78.7821 C25.4112,78.4301 25.8812,78.1751 26.4482,78.0001 C26.9962,77.8231 27.7402,77.7451 28.6602,77.7451 C29.2472,77.7451 29.6772,77.9211 29.9512,78.2931 C30.2052,78.6651 30.3422,79.1151 30.3232,79.6631 C30.3032,80.2111 30.1662,80.7981 29.8922,81.4231 C29.6182,82.0691 29.2472,82.6561 28.7572,83.2041 C28.2682,83.7521 27.6812,84.2021 26.9962,84.5741 C26.3112,84.9461 25.5482,85.1221 24.7072,85.1221 L23.5922,85.1221 L23.9632,84.5741 C24.1012,84.3791 24.2762,84.1041 24.5112,83.7521 C24.7462,83.4201 25.0002,83.0481 25.2942,82.6371 C25.5682,82.2451 25.8422,81.8351 26.1352,81.4231 C26.4292,81.0131 26.6832,80.6211 26.9372,80.2691 C27.1922,79.9371 27.3882,79.6431 27.5642,79.4081 C27.7402,79.1931 27.8382,79.0561 27.8572,79.0171 C27.9942,78.8411 28.0532,78.6651 27.9942,78.5081 C27.9352,78.3711 27.8382,78.3131 27.7012,78.3521 C27.5642,78.3711 27.4272,78.4101 27.2902,78.4301 C27.1532,78.4491 26.9762,78.5081 26.7622,78.5671 C26.3512,78.6651 26.0572,78.8021 25.8612,78.9781 C25.6462,79.1541 25.4702,79.3301 25.3332,79.5061 C25.2742,79.5651 25.1772,79.7211 25.0002,79.9561 C24.8242,80.2111 24.6292,80.4851 24.3942,80.8171 C24.1402,81.1501 23.8852,81.5221 23.6112,81.9131 C23.3182,82.3241 23.0442,82.6951 22.7892,83.0681 C22.5352,83.4391 22.2812,83.7911 22.0652,84.0851 C21.8502,84.3981 21.6742,84.6321 21.5762,84.8091 C21.1652,85.4151 20.7542,86.0031 20.3632,86.5701 C19.9722,87.1371 19.5802,87.6271 19.1692,88.0371 C18.7592,88.4481 18.3482,88.7811 17.9172,89.0351 C17.4872,89.2901 17.0372,89.4071 16.5472,89.4071 C16.3322,89.4071 16.1172,89.3871 15.9412,89.3291 C15.7452,89.2901 15.5692,89.2311 15.4132,89.1721 C15.2562,89.1131 15.1192,89.0741 15.0212,89.0161 C14.9042,88.9571 14.8062,88.9381 14.7472,88.9181 C14.6492,88.8981 14.5912,88.9571 14.5712,89.0941 C14.5522,89.2311 14.5912,89.3481 14.6882,89.4661 C14.8652,89.6811 15.1192,89.8571 15.4132,89.9941 C15.7062,90.1311 16.0382,90.2091 16.4302,90.2091 C17.1152,90.2091 17.7412,90.1311 18.3092,89.9551 C18.8762,89.7791 19.4242,89.5251 19.9522,89.1721 C20.4802,88.8201 20.9892,88.3701 21.4782,87.8411 C21.9682,87.3141 22.4762,86.6681 23.0042,85.9441 L24.5502,85.9441 C25.8222,85.9441 26.9762,85.7291 28.0142,85.2981 C29.0512,84.8671 29.9122,84.3191 30.5972,83.6741 C31.2812,83.0281 31.7702,82.3241 32.0832,81.5611 C32.3772,80.7981 32.4552,80.0931 32.3182,79.4281 C32.1622,78.7631 31.7702,78.1951 31.1252,77.7451 C30.4792,77.2951 29.5402,77.0411 28.3272,77.0021 C27.3682,76.9821 26.5072,77.0601 25.7052,77.2561 M34.2772,83.8501 C33.7882,84.1441 33.2792,84.5151 32.7902,84.9261 L37.8582,77.6861 C37.9952,77.5101 38.0542,77.3541 38.0342,77.2171 C37.9952,77.0801 37.8782,77.0211 37.7022,77.0211 L37.1342,77.0211 C36.9582,77.0211 36.7432,77.0801 36.5282,77.1971 C36.3122,77.3341 36.1172,77.4911 35.9802,77.6861 L27.7232,89.5051 C27.5852,89.6811 27.5272,89.8381 27.5462,89.9751 C27.5662,90.1111 27.6832,90.1701 27.8592,90.1701 L28.4272,90.1701 C28.6032,90.1701 28.8182,90.1111 29.0342,89.9751 C29.2482,89.8571 29.4442,89.7001 29.6012,89.5051 L30.4622,88.2721 C30.8142,87.8411 31.2252,87.3921 31.6752,86.9421 C32.1252,86.4911 32.5562,86.0811 32.9662,85.7091 C33.3772,85.3571 33.7682,85.0831 34.1012,84.8671 C34.4342,84.6521 34.6492,84.5741 34.7672,84.6321 C34.9032,84.6921 34.8452,84.8871 34.5902,85.2001 C34.3362,85.5331 33.9252,86.0421 33.3972,86.7261 C32.9272,87.3141 32.6142,87.8411 32.4382,88.2921 C32.2622,88.7421 32.1842,89.1131 32.2432,89.4071 C32.3012,89.7001 32.4382,89.9161 32.6922,90.0531 C32.9472,90.1901 33.2602,90.2091 33.6322,90.1311 C33.9062,90.0721 34.2192,89.9351 34.5712,89.7201 C34.9032,89.5051 35.2562,89.2701 35.6082,88.9771 C35.9602,88.6831 36.3122,88.3701 36.6642,88.0371 C37.0172,87.7051 37.3502,87.3721 37.6432,87.0591 C37.9362,86.7461 38.1712,86.4521 38.3872,86.1981 C38.6012,85.9441 38.7392,85.7481 38.8362,85.6111 C38.9342,85.4541 38.9932,85.3181 39.0132,85.1811 C39.0322,85.0441 39.0132,84.9461 38.9542,84.8871 C38.8952,84.8281 38.7972,84.8281 38.6802,84.8871 C38.5432,84.9461 38.4062,85.0831 38.2302,85.2981 C37.9562,85.6311 37.6232,85.9831 37.2512,86.3741 C36.8802,86.7651 36.5082,87.1371 36.1362,87.4701 C35.7652,87.8021 35.4122,88.0761 35.1192,88.2921 C34.8062,88.5071 34.5902,88.5851 34.4542,88.5461 L34.3362,88.4481 C34.3162,88.3901 34.3162,88.2921 34.3752,88.1551 C34.4142,88.0181 34.5122,87.8411 34.6492,87.6071 C34.7862,87.3721 35.0212,87.0791 35.3142,86.7261 C35.9012,86.0031 36.3122,85.3961 36.5672,84.9261 C36.8022,84.4761 36.9192,84.1041 36.8992,83.8501 C36.8802,83.5961 36.7622,83.4391 36.5472,83.3611 C36.3322,83.2821 36.0382,83.2631 35.7062,83.3211 C35.2562,83.3811 34.7672,83.5561 34.2772,83.8501 M41.3032,83.4591 C41.2642,83.3411 41.1462,83.2821 40.9712,83.2821 L40.4032,83.2821 C40.2272,83.2821 40.0122,83.3411 39.7962,83.4591 C39.5812,83.5761 39.3862,83.7331 39.2482,83.9281 C39.1702,84.0261 39.0142,84.2221 38.7992,84.5151 C38.5832,84.8091 38.3292,85.1411 38.0752,85.5131 C37.8202,85.8851 37.5662,86.2771 37.3112,86.6481 C37.0572,87.0391 36.8422,87.3721 36.7052,87.6271 C36.4902,87.9791 36.3522,88.3111 36.2742,88.6441 C36.1962,88.9771 36.1962,89.2701 36.2552,89.5251 C36.3132,89.7791 36.4312,89.9551 36.6462,90.0721 C36.8612,90.1901 37.1552,90.2091 37.5272,90.1311 C37.8202,90.0721 38.1332,89.9351 38.4662,89.7201 C38.7992,89.5051 39.1512,89.2701 39.5222,88.9771 C39.8752,88.6831 40.2272,88.3701 40.5792,88.0371 C40.9322,87.7051 41.2642,87.3721 41.5582,87.0591 C41.8512,86.7461 42.0862,86.4521 42.3012,86.1981 C42.5172,85.9441 42.6532,85.7481 42.7512,85.6111 C42.8492,85.4541 42.9082,85.3181 42.9272,85.1811 C42.9472,85.0441 42.9272,84.9461 42.8692,84.8871 C42.8102,84.8281 42.7122,84.8281 42.5952,84.8871 C42.4572,84.9461 42.3212,85.0831 42.1442,85.2981 C41.8712,85.6311 41.5382,85.9831 41.1662,86.3741 C40.7942,86.7651 40.4232,87.1371 40.0512,87.4701 C39.6792,87.8021 39.3272,88.0761 39.0332,88.2921 C38.7202,88.5071 38.5052,88.5851 38.3682,88.5461 C38.2702,88.5271 38.2312,88.4091 38.2512,88.2331 C38.2702,88.0571 38.4072,87.7831 38.6622,87.3921 C38.8572,87.0791 39.0922,86.7261 39.3472,86.3551 C39.6012,85.9831 39.8552,85.6311 40.1102,85.2781 C40.3442,84.9461 40.5592,84.6521 40.7552,84.3981 C40.9512,84.1441 41.0682,83.9871 41.1272,83.9281 C41.2642,83.7521 41.3232,83.5961 41.3032,83.4591 M42.7512,80.1521 C42.5362,79.9561 42.2822,79.8591 41.9882,79.8591 C41.6942,79.8591 41.4402,79.9561 41.2252,80.1521 C41.0102,80.3671 40.9122,80.6211 40.9122,80.9151 C40.9122,81.2091 41.0102,81.4631 41.2252,81.6781 C41.4402,81.8931 41.6942,81.9911 41.9882,81.9911 C42.2822,81.9911 42.5362,81.8931 42.7512,81.6781 C42.9472,81.4631 43.0442,81.2091 43.0442,80.9151 C43.0442,80.6211 42.9472,80.3671 42.7512,80.1521 M49.5612,77.2171 C49.5412,77.0801 49.4242,77.0211 49.2482,77.0211 L48.6812,77.0211 C48.5042,77.0211 48.2892,77.0801 48.0742,77.1971 C47.8592,77.3341 47.6632,77.4911 47.5062,77.6861 C47.4672,77.7451 47.3502,77.9021 47.1542,78.1751 C46.9392,78.4691 46.6842,78.8211 46.3912,79.2521 C46.0782,79.6821 45.7262,80.1721 45.3542,80.7191 C44.9632,81.2671 44.5712,81.8351 44.1612,82.4021 C43.7492,82.9691 43.3582,83.5371 42.9672,84.1041 C42.5762,84.6721 42.2242,85.2001 41.8912,85.6701 C41.5582,86.1591 41.2842,86.5701 41.0692,86.9021 C40.8342,87.2551 40.6782,87.4891 40.6002,87.6271 C40.4042,87.9791 40.2672,88.3111 40.1882,88.6441 C40.0912,88.9771 40.0912,89.2701 40.1492,89.5251 C40.2082,89.7791 40.3452,89.9551 40.5602,90.0721 C40.7752,90.1901 41.0692,90.2091 41.4412,90.1311 C41.7342,90.0721 42.0472,89.9351 42.3802,89.7201 C42.7122,89.5051 43.0652,89.2701 43.4362,88.9771 C43.7882,88.6831 44.1412,88.3701 44.4932,88.0371 C44.8262,87.7051 45.1592,87.3721 45.4522,87.0591 C45.7462,86.7461 46.0002,86.4521 46.2152,86.1981 C46.4302,85.9441 46.5672,85.7481 46.6652,85.6111 C46.7632,85.4541 46.8022,85.3181 46.8222,85.1811 C46.8412,85.0441 46.8222,84.9461 46.7632,84.8871 C46.7042,84.8281 46.6062,84.8281 46.4892,84.8871 C46.3522,84.9461 46.2152,85.0831 46.0392,85.2981 C45.7852,85.6311 45.4522,85.9831 45.0802,86.3741 C44.7082,86.7651 44.3372,87.1371 43.9652,87.4701 C43.5932,87.8021 43.2412,88.0761 42.9282,88.2921 C42.6152,88.5071 42.3992,88.5851 42.2632,88.5461 C42.1642,88.5271 42.1252,88.4091 42.1642,88.2331 C42.1842,88.0571 42.3212,87.7831 42.5762,87.3921 C42.6932,87.1761 42.9472,86.8051 43.3192,86.2571 C43.6912,85.7091 44.1412,85.0831 44.6302,84.3791 C45.1192,83.6741 45.6472,82.9301 46.1952,82.1481 C46.7442,81.3841 47.2522,80.6611 47.7222,80.0151 C48.1722,79.3691 48.5632,78.8411 48.8762,78.3911 C49.1892,77.9601 49.3652,77.7261 49.3852,77.6861 C49.5222,77.5101 49.5802,77.3541 49.5612,77.2171 M49.1122,83.4591 C49.0732,83.3411 48.9552,83.2821 48.7792,83.2821 L48.2122,83.2821 C48.0362,83.2821 47.8202,83.3411 47.6052,83.4591 C47.3902,83.5761 47.1942,83.7331 47.0572,83.9281 C46.9792,84.0261 46.8222,84.2221 46.6072,84.5151 C46.3922,84.8091 46.1382,85.1411 45.8832,85.5131 C45.6292,85.8851 45.3742,86.2771 45.1202,86.6481 C44.8662,87.0391 44.6502,87.3721 44.5142,87.6271 C44.2982,87.9791 44.1612,88.3111 44.0832,88.6441 C44.0052,88.9771 44.0052,89.2701 44.0632,89.5251 C44.1222,89.7791 44.2402,89.9551 44.4552,90.0721 C44.6702,90.1901 44.9632,90.2091 45.3352,90.1311 C45.6292,90.0721 45.9422,89.9351 46.2742,89.7201 C46.6072,89.5051 46.9592,89.2701 47.3312,88.9771 C47.6842,88.6831 48.0362,88.3701 48.3882,88.0371 C48.7402,87.7051 49.0732,87.3721 49.3662,87.0591 C49.6602,86.7461 49.8942,86.4521 50.1102,86.1981 C50.3252,85.9441 50.4622,85.7481 50.5592,85.6111 C50.6582,85.4541 50.7162,85.3181 50.7362,85.1811 C50.7552,85.0441 50.7362,84.9461 50.6772,84.8871 C50.6192,84.8281 50.5202,84.8281 50.4032,84.8871 C50.2662,84.9461 50.1292,85.0831 49.9532,85.2981 C49.6792,85.6311 49.3472,85.9831 48.9752,86.3741 C48.6032,86.7651 48.2312,87.1371 47.8592,87.4701 C47.4882,87.8021 47.1352,88.0761 46.8422,88.2921 C46.5292,88.5071 46.3132,88.5851 46.1772,88.5461 C46.0792,88.5271 46.0392,88.4091 46.0592,88.2331 C46.0792,88.0571 46.2162,87.7831 46.4702,87.3921 C46.6662,87.0791 46.9012,86.7261 47.1552,86.3551 C47.4102,85.9831 47.6632,85.6311 47.9182,85.2781 C48.1532,84.9461 48.3682,84.6521 48.5642,84.3981 C48.7602,84.1441 48.8772,83.9871 48.9352,83.9281 C49.0732,83.7521 49.1312,83.5961 49.1122,83.4591 M50.5592,80.1521 C50.3442,79.9561 50.0902,79.8591 49.7962,79.8591 C49.5032,79.8591 49.2482,79.9561 49.0342,80.1521 C48.8182,80.3671 48.7202,80.6211 48.7202,80.9151 C48.7202,81.2091 48.8182,81.4631 49.0342,81.6781 C49.2482,81.8931 49.5032,81.9911 49.7962,81.9911 C50.0902,81.9911 50.3442,81.8931 50.5592,81.6781 C50.7552,81.4631 50.8532,81.2091 50.8532,80.9151 C50.8532,80.6211 50.7552,80.3671 50.5592,80.1521 M54.1022,83.2821 C53.7302,83.2431 53.3392,83.2821 52.9082,83.4001 C52.4582,83.5371 52.0082,83.7331 51.5382,84.0061 C51.0492,84.3001 50.6002,84.6521 50.1492,85.0831 C49.6992,85.4941 49.3082,85.9441 49.0152,86.3941 C48.7022,86.8441 48.4672,87.2941 48.3102,87.7241 C48.1532,88.1551 48.0952,88.5461 48.1142,88.8981 C48.1342,89.2701 48.2512,89.5641 48.4672,89.7981 C48.6822,90.0331 48.9552,90.1701 49.3282,90.2091 C49.6992,90.2481 50.0912,90.2091 50.5212,90.0721 C50.9522,89.9551 51.4022,89.7591 51.8912,89.4661 C52.3602,89.1921 52.8102,88.8391 53.2612,88.4291 C53.7102,88.0181 54.1022,87.5681 54.4152,87.1181 C54.7282,86.6681 54.9632,86.2171 55.1202,85.7871 C55.2762,85.3571 55.3342,84.9651 55.3152,84.5931 C55.2952,84.2411 55.1782,83.9481 54.9632,83.7131 C54.7472,83.4781 54.4542,83.3411 54.1022,83.2821 M52.2242,88.0181 C51.9692,88.2721 51.7152,88.4681 51.4802,88.6051 C51.2262,88.7611 51.0102,88.8591 50.8142,88.8981 C50.6002,88.9381 50.4432,88.9181 50.3062,88.8201 C50.1882,88.7221 50.1302,88.5851 50.1102,88.3701 C50.0912,88.1741 50.1102,87.9401 50.1882,87.6661 C50.2672,87.4111 50.3842,87.1181 50.5602,86.8051 C50.7172,86.4911 50.9132,86.1781 51.1672,85.8461 C51.4212,85.5131 51.6762,85.2391 51.9502,84.9851 C52.2042,84.7311 52.4582,84.5351 52.7132,84.3791 C52.9472,84.2221 53.1632,84.1241 53.3782,84.0851 C53.5742,84.0461 53.7302,84.0651 53.8672,84.1631 C53.9842,84.2611 54.0632,84.3981 54.0822,84.5931 C54.1022,84.8091 54.0632,85.0441 53.9842,85.3181 C53.9062,85.5911 53.7892,85.8851 53.6132,86.1981 C53.4362,86.5111 53.2412,86.8241 52.9872,87.1571 C52.7322,87.4891 52.4782,87.7631 52.2242,88.0181 M56.4902,85.5911 C56.4512,85.8461 56.4902,86.0811 56.6082,86.2571 C56.7052,86.4521 56.8622,86.6291 57.0772,86.7651 C57.2732,86.9221 57.4692,87.0791 57.6442,87.2151 C57.8212,87.3721 57.9582,87.5281 58.0562,87.7051 C58.1532,87.8811 58.1732,88.0761 58.0752,88.3111 C57.9772,88.5461 57.8602,88.7421 57.6842,88.8791 C57.5082,89.0351 57.3312,89.1521 57.1362,89.2311 C56.9402,89.3291 56.7452,89.3681 56.5492,89.3871 C56.3532,89.4071 56.1772,89.3681 56.0402,89.3091 C55.9032,89.2511 55.8252,89.1721 55.8252,89.0351 C55.8252,88.9181 55.8642,88.7811 55.9422,88.6241 C56.0012,88.4871 56.0992,88.3311 56.2162,88.1941 C56.3332,88.0571 56.4322,87.9591 56.5292,87.8611 C56.6472,87.7631 56.6662,87.6661 56.5882,87.5881 C56.5102,87.5091 56.3922,87.4501 56.2362,87.4111 C56.0802,87.3721 55.9032,87.3531 55.7072,87.3531 C55.4922,87.3531 55.3362,87.3921 55.1992,87.4501 C54.9442,87.5681 54.7492,87.7631 54.5922,88.0371 C54.4162,88.3111 54.3382,88.5851 54.3572,88.8791 C54.3572,89.1721 54.4752,89.4461 54.7092,89.7001 C54.9252,89.9551 55.2972,90.0921 55.8252,90.1311 C56.1972,90.1511 56.5682,90.1311 56.9402,90.0721 C57.3122,90.0141 57.6442,89.9161 57.9772,89.7591 C58.3102,89.6221 58.6032,89.4261 58.8772,89.1721 C59.1512,88.9381 59.3672,88.6641 59.5422,88.3501 C59.7582,87.9591 59.8362,87.6271 59.8172,87.3531 C59.7772,87.0791 59.6802,86.8441 59.5232,86.6481 C59.3672,86.4521 59.1712,86.2771 58.9552,86.1201 C58.7212,85.9831 58.5062,85.8461 58.3302,85.7091 C58.1532,85.5721 58.0172,85.4351 57.9382,85.2781 C57.8402,85.1411 57.8602,84.9651 57.9972,84.7701 C58.1342,84.5541 58.3492,84.3791 58.6032,84.2611 C58.8582,84.1441 59.0932,84.1041 59.2692,84.1241 L59.2882,84.3001 C59.2492,84.3791 59.1902,84.4571 59.1322,84.5541 C59.0732,84.6521 58.9952,84.7311 58.9162,84.8091 C58.8382,84.9061 58.7802,84.9851 58.7212,85.0441 C58.6232,85.1611 58.6032,85.2591 58.6622,85.3181 C58.7212,85.3761 58.7992,85.4351 58.9362,85.4541 C59.0732,85.4741 59.2102,85.4741 59.3862,85.4541 C59.5622,85.4351 59.7192,85.4151 59.8562,85.3761 C60.1492,85.2781 60.4232,85.1021 60.6782,84.8671 C60.9132,84.6321 61.0882,84.4181 61.2062,84.2021 C61.4012,83.8501 61.4012,83.6151 61.1862,83.4981 C60.9712,83.3811 60.6972,83.3211 60.3252,83.3211 C59.5622,83.3211 58.8972,83.4391 58.3302,83.6741 C57.7622,83.9091 57.3122,84.2411 56.9792,84.6521 C56.6862,85.0241 56.5292,85.3371 56.4902,85.5911 M76.2152,78.5671 C76.4502,78.3321 76.6262,78.1171 76.7442,77.9021 C76.8412,77.7261 76.8802,77.5891 76.8802,77.4711 C76.8612,77.3541 76.8222,77.2561 76.7242,77.1971 C76.6262,77.1381 76.5092,77.0801 76.3522,77.0601 C76.1962,77.0411 76.0192,77.0211 75.8442,77.0211 C74.6302,77.0211 73.4962,77.2171 72.4392,77.5891 C71.3822,77.9601 70.4232,78.4691 69.5622,79.0761 C68.7022,79.6821 67.9382,80.3871 67.2932,81.1691 C66.6472,81.9721 66.1192,82.7741 65.7082,83.5961 C65.2972,84.4181 65.0422,85.2201 64.9062,86.0031 C64.7682,86.8051 64.7882,87.5091 64.9642,88.1151 C65.1402,88.7221 65.4542,89.2311 65.9422,89.6031 C66.4322,89.9751 67.0972,90.1701 67.9382,90.1701 C68.7992,90.1701 69.6012,90.0141 70.3262,89.7201 C71.0502,89.4261 71.7152,89.0351 72.3212,88.5851 C72.9282,88.1351 73.4762,87.6461 73.9652,87.1181 C74.4542,86.5891 74.9242,86.0811 75.3352,85.6111 C75.4722,85.4741 75.5502,85.3371 75.5702,85.2001 C75.5892,85.0831 75.5502,85.0051 75.4912,84.9461 C75.4332,84.9061 75.3352,84.9061 75.1982,84.9461 C75.0612,84.9851 74.8852,85.1021 74.7082,85.2981 C74.3372,85.6891 73.9262,86.1201 73.4362,86.5701 C72.9482,87.0391 72.4392,87.4701 71.8912,87.8411 C71.3432,88.2141 70.7762,88.5071 70.1692,88.7031 C69.5622,88.9181 68.9762,88.9381 68.3892,88.8001 C67.8992,88.7031 67.5672,88.3701 67.4102,87.8411 C67.2532,87.3141 67.2532,86.6871 67.3912,85.9441 C67.5272,85.2001 67.8012,84.3981 68.2122,83.5561 C68.6232,82.7151 69.1322,81.8931 69.7582,81.1301 C70.3842,80.3671 71.1082,79.7021 71.9302,79.1151 C72.7322,78.5481 73.6322,78.1561 74.5912,77.9801 L74.6502,78.1171 L74.5722,78.3131 L74.4342,78.5081 L74.2592,78.7431 C74.1612,78.8601 74.1412,78.9581 74.2002,79.0171 C74.2592,79.0761 74.3372,79.1341 74.4742,79.1541 C74.6112,79.1731 74.7472,79.1731 74.9242,79.1541 C75.1002,79.1341 75.2562,79.1151 75.3932,79.0761 C75.6872,78.9781 75.9612,78.8021 76.2152,78.5671 M78.8582,83.2821 C78.4862,83.2431 78.0952,83.2821 77.6642,83.4001 C77.2142,83.5371 76.7652,83.7331 76.2952,84.0061 C75.8062,84.3001 75.3552,84.6521 74.9062,85.0831 C74.4552,85.4941 74.0642,85.9441 73.7702,86.3941 C73.4572,86.8441 73.2232,87.2941 73.0662,87.7241 C72.9102,88.1551 72.8512,88.5461 72.8712,88.8981 C72.8902,89.2701 73.0082,89.5641 73.2232,89.7981 C73.4382,90.0331 73.7122,90.1701 74.0842,90.2091 C74.4552,90.2481 74.8472,90.2091 75.2772,90.0721 C75.7082,89.9551 76.1582,89.7591 76.6472,89.4661 C77.1172,89.1921 77.5672,88.8391 78.0172,88.4291 C78.4672,88.0181 78.8582,87.5681 79.1712,87.1181 C79.4842,86.6681 79.7192,86.2171 79.8752,85.7871 C80.0322,85.3571 80.0912,84.9651 80.0712,84.5931 C80.0522,84.2411 79.9342,83.9481 79.7192,83.7131 C79.5042,83.4781 79.2102,83.3411 78.8582,83.2821 M76.9792,88.0181 C76.7262,88.2721 76.4712,88.4681 76.2362,88.6051 C75.9822,88.7611 75.7672,88.8591 75.5712,88.8981 C75.3552,88.9381 75.1992,88.9181 75.0622,88.8201 C74.9452,88.7221 74.8862,88.5851 74.8672,88.3701 C74.8472,88.1741 74.8672,87.9401 74.9452,87.6661 C75.0232,87.4111 75.1412,87.1181 75.3162,86.8051 C75.4732,86.4911 75.6692,86.1781 75.9232,85.8461 C76.1772,85.5131 76.4322,85.2391 76.7052,84.9851 C76.9602,84.7311 77.2142,84.5351 77.4692,84.3791 C77.7042,84.2221 77.9192,84.1241 78.1342,84.0851 C78.3302,84.0461 78.4862,84.0651 78.6232,84.1631 C78.7412,84.2611 78.8192,84.3981 78.8382,84.5931 C78.8582,84.8091 78.8192,85.0441 78.7412,85.3181 C78.6632,85.5911 78.5452,85.8851 78.3692,86.1981 C78.1932,86.5111 77.9972,86.8241 77.7432,87.1571 C77.4882,87.4891 77.2342,87.7631 76.9792,88.0181 M88.7992,83.8301 C88.3102,84.1241 87.8412,84.4571 87.3512,84.8671 C87.5272,84.5351 87.6252,84.2411 87.6642,84.0261 C87.6842,83.8111 87.6642,83.6541 87.5862,83.5371 C87.4882,83.4201 87.3512,83.3411 87.1752,83.3021 C86.9992,83.2821 86.7842,83.2821 86.5302,83.3211 C86.0402,83.3811 85.5322,83.5761 84.9842,83.9091 C84.4362,84.2411 83.8882,84.6521 83.3402,85.1021 L84.1622,83.9281 C84.2992,83.7521 84.3572,83.5961 84.3382,83.4591 C84.2992,83.3411 84.1822,83.2821 84.0052,83.2821 L83.4382,83.2821 C83.2622,83.2821 83.0472,83.3411 82.8312,83.4591 C82.6162,83.5761 82.4202,83.7331 82.2842,83.9281 L78.3512,89.5051 C78.2132,89.6811 78.1552,89.8381 78.1742,89.9751 C78.1942,90.1111 78.3112,90.1701 78.4882,90.1701 L79.0552,90.1701 C79.2312,90.1701 79.4462,90.1111 79.6622,89.9751 C79.8772,89.8571 80.0722,89.7001 80.2292,89.5051 L80.7382,88.7811 L80.8162,88.6831 C81.0312,88.3901 81.2862,88.0961 81.5792,87.7631 C81.8722,87.4311 82.1662,87.1181 82.4982,86.7851 C82.8312,86.4721 83.1642,86.1781 83.4972,85.8851 C83.8292,85.6111 84.1232,85.3761 84.4162,85.1611 C84.6902,84.9651 84.9252,84.8091 85.1402,84.7111 C85.3552,84.6131 85.4932,84.5931 85.5712,84.6321 C85.7082,84.6921 85.6682,84.8871 85.4142,85.2201 C85.1602,85.5521 84.7492,86.0421 84.2012,86.7261 C83.9472,87.0391 83.6922,87.3531 83.4572,87.6851 C83.2232,88.0181 83.0072,88.3111 82.8312,88.5851 C82.6162,88.9181 82.4012,89.2121 82.2052,89.5051 C82.0682,89.6811 82.0102,89.8381 82.0292,89.9751 C82.0492,90.1111 82.1662,90.1701 82.3422,90.1701 L82.9102,90.1701 C83.0862,90.1701 83.3012,90.1111 83.5362,89.9751 C83.7512,89.8381 83.9272,89.6811 84.0642,89.5051 L85.1212,88.0571 C85.4732,87.6461 85.8642,87.2151 86.2952,86.7851 C86.7252,86.3551 87.1362,85.9631 87.5472,85.6311 C87.9582,85.2981 88.3102,85.0241 88.6232,84.8281 C88.9172,84.6521 89.1322,84.5741 89.2302,84.6321 C89.3672,84.6921 89.3282,84.8871 89.0732,85.2001 C88.8192,85.5331 88.4082,86.0421 87.8602,86.7261 C87.4102,87.3141 87.0972,87.8411 86.9212,88.2921 C86.7452,88.7421 86.6662,89.1131 86.7252,89.4071 C86.7652,89.7001 86.9012,89.9161 87.1562,90.0531 C87.4102,90.1901 87.7232,90.2091 88.1152,90.1311 C88.4082,90.0721 88.7212,89.9351 89.0542,89.7201 C89.3862,89.5051 89.7392,89.2701 90.1102,88.9771 C90.4622,88.6831 90.8152,88.3701 91.1672,88.0371 C91.4992,87.7051 91.8322,87.3721 92.1262,87.0591 C92.4192,86.7461 92.6742,86.4521 92.8892,86.1981 C93.1042,85.9441 93.2412,85.7481 93.3392,85.6111 C93.4362,85.4541 93.4762,85.3181 93.4962,85.1811 C93.5152,85.0441 93.4962,84.9461 93.4362,84.8871 C93.3782,84.8281 93.2802,84.8281 93.1632,84.8871 C93.0262,84.9461 92.8692,85.0831 92.6932,85.2981 C92.4392,85.6311 92.1062,85.9831 91.7342,86.3741 C91.3632,86.7651 90.9912,87.1371 90.6192,87.4701 C90.2472,87.8021 89.8952,88.0761 89.6012,88.2921 C89.2882,88.5071 89.0732,88.5851 88.9362,88.5461 L88.8192,88.4481 C88.7992,88.3901 88.7992,88.2921 88.8582,88.1551 C88.8972,88.0181 88.9952,87.8411 89.1322,87.6071 C89.2692,87.3721 89.4842,87.0791 89.7782,86.7261 C90.3652,86.0031 90.7762,85.3961 91.0302,84.9261 C91.2842,84.4761 91.4022,84.1041 91.3822,83.8501 C91.3632,83.5961 91.2452,83.4391 91.0302,83.3611 C90.8152,83.2821 90.5212,83.2631 90.1882,83.3211 C89.7392,83.3811 89.2882,83.5561 88.7992,83.8301 M92.8322,90.0531 C93.1252,90.1311 93.4772,90.1311 93.8692,90.0331 C94.2602,89.9351 94.6712,89.7591 95.1222,89.4851 C95.5712,89.2311 96.0022,88.8791 96.4522,88.4291 C96.8822,87.9791 97.2742,87.5281 97.6262,87.0391 C97.9582,86.5501 98.2322,86.1001 98.4282,85.6501 C98.6242,85.2001 98.7412,84.8091 98.7612,84.4371 C98.7802,84.0651 98.6832,83.7911 98.4872,83.5761 C98.1932,83.2821 97.7432,83.2041 97.1562,83.3811 C96.5502,83.5561 95.9042,83.8891 95.2192,84.3591 L95.5522,83.9281 C95.6892,83.7521 95.7472,83.5961 95.7282,83.4591 C95.6892,83.3411 95.5712,83.2821 95.3952,83.2821 L94.8282,83.2821 C94.6522,83.2821 94.4362,83.3411 94.2212,83.4591 C94.0062,83.5761 93.8102,83.7331 93.6732,83.9281 C93.6542,83.9481 93.5562,84.0851 93.3802,84.3391 C93.1842,84.5931 92.9492,84.9461 92.6562,85.3571 C92.3622,85.7681 92.0302,86.2571 91.6582,86.7851 C91.2862,87.3141 90.8952,87.8611 90.5032,88.4291 C90.0932,88.9961 89.7012,89.5441 89.3302,90.0721 C88.9582,90.6201 88.6052,91.1101 88.3122,91.5591 C87.9992,92.0091 87.7452,92.4011 87.5492,92.6941 C87.3332,93.0071 87.2162,93.2031 87.1772,93.2811 C87.0592,93.5161 87.0402,93.7511 87.0992,93.9851 C87.1582,94.2401 87.2552,94.4361 87.3932,94.5921 C87.5292,94.7491 87.7052,94.8471 87.8812,94.8861 C88.0582,94.9251 88.1952,94.8471 88.2922,94.6711 C88.9182,93.6731 89.5452,92.6941 90.1512,91.7351 C90.7582,90.7771 91.3652,89.8771 91.9322,89.0351 C91.9522,89.2511 92.0102,89.4461 92.1272,89.6221 C92.2842,89.8381 92.5192,89.9941 92.8322,90.0531 M94.6522,85.4741 C94.9452,85.2201 95.2192,85.0241 95.4742,84.8671 C95.7282,84.7111 95.9632,84.6131 96.1782,84.5541 C96.3932,84.5151 96.5502,84.5351 96.6472,84.6321 C96.7462,84.7311 96.8042,84.8671 96.7852,85.0631 C96.7652,85.2781 96.6862,85.5131 96.5692,85.7871 C96.4322,86.0811 96.2762,86.3741 96.0602,86.6871 C95.8452,87.0201 95.6302,87.3331 95.3762,87.6661 C94.8872,88.3111 94.3972,88.7611 93.9282,89.0161 C93.4382,89.2701 93.0862,89.3291 92.8512,89.1721 C92.7542,89.1131 92.6952,88.9961 92.6752,88.8591 C92.6362,88.7221 92.6562,88.5271 92.7152,88.2921 C92.7732,88.0761 92.8912,87.8021 93.0672,87.4701 C93.2432,87.1571 93.5172,86.7851 93.8502,86.3551 C94.1042,86.0221 94.3582,85.7291 94.6522,85.4741 M98.1362,87.2941 C97.8232,87.8611 97.6472,88.3701 97.6072,88.7811 C97.5682,89.2121 97.6472,89.5441 97.8422,89.7981 C98.0382,90.0531 98.3122,90.1701 98.6842,90.1701 C98.9382,90.1701 99.2322,90.1111 99.5252,89.9751 C99.8192,89.8571 100.0932,89.7001 100.3862,89.5051 C100.6802,89.3291 100.9542,89.1131 101.2272,88.8791 C101.5012,88.6441 101.7562,88.4091 101.9912,88.1941 C101.8732,88.4871 101.8142,88.7811 101.7952,89.0351 C101.7752,89.2901 101.7952,89.5251 101.8932,89.7001 C101.9712,89.8771 102.1082,90.0141 102.3232,90.0921 C102.5192,90.1901 102.7732,90.1901 103.1062,90.1311 C103.3992,90.0721 103.7122,89.9351 104.0452,89.7201 C104.3782,89.5051 104.7302,89.2701 105.1012,88.9771 C105.4542,88.6831 105.8062,88.3701 106.1592,88.0371 C106.5112,87.7051 106.8432,87.3721 107.1372,87.0591 C107.4302,86.7461 107.6652,86.4521 107.8802,86.1981 C108.0962,85.9441 108.2322,85.7481 108.3302,85.6111 C108.4282,85.4541 108.4872,85.3181 108.5062,85.1811 C108.5262,85.0441 108.5062,84.9461 108.4482,84.8871 C108.3892,84.8281 108.2912,84.8281 108.1742,84.8871 C108.0372,84.9461 107.9002,85.0831 107.7242,85.2981 C107.4502,85.6311 107.1172,85.9831 106.7462,86.3741 C106.3732,86.7651 106.0022,87.1371 105.6302,87.4701 C105.2582,87.8021 104.9062,88.0761 104.6132,88.2921 C104.3002,88.5071 104.0842,88.5851 103.9472,88.5461 C103.8502,88.5271 103.8102,88.4091 103.8502,88.2331 C103.8692,88.0571 104.0062,87.7831 104.2602,87.3921 C104.4362,87.0791 104.6712,86.7261 104.9262,86.3551 C105.1802,85.9831 105.4342,85.6311 105.6892,85.2781 C105.9242,84.9461 106.1392,84.6521 106.3342,84.3981 C106.5302,84.1441 106.6472,83.9871 106.7062,83.9281 C106.8432,83.7521 106.9022,83.5961 106.8822,83.4591 C106.8432,83.3411 106.7262,83.2821 106.5502,83.2821 L105.9822,83.2821 C105.8262,83.2821 105.6502,83.3211 105.4742,83.4001 C105.2972,83.4781 105.1222,83.5961 104.9842,83.7331 C104.7492,83.5171 104.4562,83.3811 104.0842,83.3021 C103.7122,83.2431 103.3022,83.2631 102.8322,83.3811 C102.3622,83.5171 101.8532,83.7521 101.3062,84.0851 C100.7582,84.4181 100.1902,84.8871 99.5842,85.4741 C98.9382,86.1201 98.4492,86.7261 98.1362,87.2941 M101.3842,85.3571 C101.7172,85.0631 102.0882,84.7891 102.4602,84.5741 C102.8322,84.3591 103.2042,84.2021 103.5762,84.1241 C103.9472,84.0461 104.2802,84.0851 104.5742,84.2611 L104.3582,84.5351 C104.1822,84.7701 103.9472,85.0631 103.6542,85.4151 C103.3602,85.7681 103.0472,86.1201 102.7152,86.4721 C102.3822,86.8441 102.0302,87.1761 101.6972,87.4891 C101.3652,87.8221 101.0512,88.0571 100.7582,88.2331 C100.3472,88.4871 100.0542,88.6051 99.8772,88.5661 C99.6822,88.5271 99.5842,88.3901 99.5842,88.1551 C99.5642,87.9401 99.6432,87.6461 99.8192,87.2941 C99.9752,86.9611 100.2102,86.6091 100.5232,86.2571 C100.7582,85.9631 101.0512,85.6701 101.3842,85.3571 M111.3652,83.8501 C110.8752,84.1441 110.3672,84.5151 109.8772,84.9261 L110.5822,83.9281 C110.7192,83.7521 110.7772,83.5961 110.7582,83.4591 C110.7192,83.3411 110.6012,83.2821 110.4252,83.2821 L109.8582,83.2821 C109.6822,83.2821 109.4662,83.3411 109.2512,83.4591 C109.0362,83.5761 108.8402,83.7331 108.7042,83.9281 L104.7702,89.5051 C104.6332,89.6811 104.5752,89.8381 104.5942,89.9751 C104.6142,90.1111 104.7312,90.1701 104.9072,90.1701 L105.4752,90.1701 C105.6512,90.1701 105.8662,90.1111 106.0812,89.9751 C106.2972,89.8571 106.4922,89.7001 106.6492,89.5051 L107.1582,88.7811 L107.2362,88.6831 C107.5492,88.2331 107.9402,87.7631 108.4302,87.2551 C108.8992,86.7651 109.3692,86.2961 109.8382,85.8851 C110.3082,85.4741 110.7382,85.1611 111.1102,84.9061 C111.4822,84.6521 111.7172,84.5741 111.8342,84.6321 C111.9712,84.6921 111.9322,84.8871 111.6782,85.2001 C111.4232,85.5331 111.0122,86.0421 110.4642,86.7261 C110.0142,87.3141 109.7012,87.8411 109.5252,88.2921 C109.3492,88.7421 109.2712,89.1131 109.3302,89.4071 C109.3692,89.7001 109.5062,89.9161 109.7602,90.0531 C110.0142,90.1901 110.3282,90.2091 110.7192,90.1311 C110.9932,90.0721 111.3062,89.9351 111.6582,89.7201 C111.9912,89.5051 112.3432,89.2701 112.6952,88.9771 C113.0472,88.6831 113.3992,88.3701 113.7512,88.0371 C114.0842,87.7051 114.4172,87.3721 114.7102,87.0591 C115.0042,86.7461 115.2582,86.4521 115.4742,86.1981 C115.6892,85.9441 115.8262,85.7481 115.9242,85.6111 C116.0212,85.4541 116.0802,85.3181 116.1002,85.1811 C116.1192,85.0441 116.1002,84.9461 116.0412,84.8871 C115.9822,84.8281 115.8842,84.8281 115.7672,84.8871 C115.6302,84.9461 115.4742,85.0831 115.2972,85.2981 C115.0432,85.6311 114.7102,85.9831 114.3392,86.3741 C113.9672,86.7651 113.5952,87.1371 113.2232,87.4701 C112.8512,87.8021 112.4992,88.0761 112.2062,88.2921 C111.8932,88.5071 111.6782,88.5851 111.5402,88.5461 L111.4232,88.4481 C111.4042,88.3901 111.4042,88.2921 111.4622,88.1551 C111.5012,88.0181 111.5992,87.8411 111.7362,87.6071 C111.8732,87.3721 112.0882,87.0791 112.3822,86.7261 C112.9692,86.0031 113.3802,85.3961 113.6342,84.9261 C113.8692,84.4761 113.9862,84.1041 113.9672,83.8501 C113.9472,83.5961 113.8302,83.4391 113.6152,83.3611 C113.3992,83.2821 113.1062,83.2631 112.7732,83.3211 C112.3232,83.3811 111.8532,83.5561 111.3652,83.8501 M116.4732,92.0091 C117.0402,91.1491 117.5682,90.3271 118.0972,89.5441 C118.6252,88.7611 119.1142,88.0371 119.5842,87.3531 C120.0342,86.6871 120.4452,86.1001 120.7972,85.6111 C121.1492,85.1221 121.4432,84.7111 121.6582,84.4181 C121.8732,84.1241 121.9912,83.9671 122.0302,83.9281 C122.1662,83.7521 122.2252,83.5961 122.2052,83.4591 C122.1862,83.3411 122.0692,83.2821 121.8932,83.2821 L121.3252,83.2821 C121.1492,83.2821 120.9342,83.3411 120.7192,83.4591 C120.5032,83.5761 120.3082,83.7331 120.1712,83.9281 C120.1122,83.9871 119.9952,84.1441 119.7992,84.4181 C119.5842,84.7111 119.3302,85.0631 119.0362,85.4941 C118.7622,85.8261 118.4492,86.1781 118.0772,86.5501 C117.7052,86.9221 117.3532,87.2741 117.0012,87.5681 C116.6492,87.8811 116.3352,88.1351 116.0422,88.3111 C115.7482,88.5071 115.5532,88.5851 115.4352,88.5461 C115.3382,88.5271 115.2992,88.4091 115.3182,88.2331 C115.3382,88.0571 115.4752,87.7831 115.7292,87.3921 C115.9252,87.0791 116.1602,86.7261 116.4142,86.3551 C116.6682,85.9831 116.9232,85.6311 117.1772,85.2781 C117.4122,84.9461 117.6272,84.6521 117.8232,84.3981 C118.0182,84.1441 118.1362,83.9871 118.1942,83.9281 C118.3312,83.7521 118.3902,83.5961 118.3712,83.4591 C118.3312,83.3411 118.2142,83.2821 118.0382,83.2821 L117.4712,83.2821 C117.2942,83.2821 117.0792,83.3411 116.8642,83.4591 C116.6492,83.5761 116.4532,83.7331 116.3162,83.9281 C116.2382,84.0261 116.0812,84.2221 115.8662,84.5151 C115.6512,84.8091 115.3962,85.1411 115.1422,85.5131 C114.8882,85.8851 114.6332,86.2771 114.3792,86.6481 C114.1242,87.0391 113.9092,87.3721 113.7722,87.6271 C113.5572,87.9791 113.4202,88.3111 113.3422,88.6441 C113.2642,88.9771 113.2642,89.2701 113.3222,89.5251 C113.3812,89.7791 113.4982,89.9551 113.7142,90.0721 C113.9292,90.1901 114.2222,90.2091 114.5942,90.1311 C114.9462,90.0721 115.3572,89.8771 115.8072,89.5641 C116.2572,89.2701 116.6882,88.9181 117.1382,88.5071 C116.7472,88.9961 116.3552,89.5051 115.9642,90.0141 C115.5732,90.5421 115.2202,91.0111 114.9072,91.4421 C114.5752,91.8921 114.3012,92.2641 114.0852,92.5961 C113.8702,92.9291 113.7332,93.1441 113.6742,93.2811 C113.5572,93.5161 113.5382,93.7511 113.5962,93.9851 C113.6552,94.2401 113.7532,94.4361 113.8902,94.5921 C114.0272,94.7491 114.1832,94.8471 114.3592,94.8861 C114.5362,94.9251 114.6722,94.8471 114.7702,94.6711 C115.3382,93.7711 115.9052,92.8901 116.4732,92.0091" id="Fill-28" fill="#58595B"></path>
            <g id="Group-32" transform="translate(26.000000, 98.616000)">
                <mask id="mask-4" fill="white">
                    <use xlink:href="#path-3"></use>
                </mask>
                <g id="Clip-31"></g>
                <path d="M2.5368,1.5493 L2.5368,0.9453 L0.1728,0.9453 L0.1728,3.9653 L2.5838,3.9653 L2.5838,3.3613 L0.9408,3.3613 L0.9408,2.7533 L2.3818,2.7533 L2.3818,2.1493 L0.9408,2.1493 L0.9408,1.5493 L2.5368,1.5493 Z M5.5408,0.9113 C4.8158,0.9113 4.3368,1.2643 4.3368,1.8213 C4.3368,2.8913 5.9328,2.5713 5.9328,3.1073 C5.9328,3.2793 5.7818,3.3703 5.5408,3.3703 C5.2258,3.3703 4.7598,3.1893 4.4488,2.9173 L4.1518,3.5083 C4.5098,3.8013 5.0268,3.9913 5.5318,3.9913 C6.2048,3.9913 6.7398,3.6723 6.7398,3.0683 C6.7398,1.9763 5.1438,2.2743 5.1438,1.7523 C5.1438,1.6053 5.2778,1.5323 5.4758,1.5323 C5.7218,1.5323 6.1228,1.6613 6.4418,1.8473 L6.7308,1.2473 C6.4208,1.0453 5.9758,0.9113 5.5408,0.9113 Z M10.7658,1.5623 L10.7658,0.9413 L8.1858,0.9413 L8.1858,1.5623 L9.0878,1.5623 L9.0878,3.9653 L9.8558,3.9653 L9.8558,1.5623 L10.7658,1.5623 Z M14.0758,3.4093 L14.2908,3.9653 L15.1108,3.9653 L13.8378,0.9453 L13.0488,0.9453 L11.7448,3.9653 L12.5348,3.9653 L12.7548,3.4093 L14.0758,3.4093 Z M13.8508,2.8263 L12.9788,2.8263 L13.4198,1.7093 L13.8508,2.8263 Z M16.6908,0.9453 L16.6908,3.9653 L18.1708,3.9653 C18.8828,3.9653 19.3318,3.6423 19.3318,3.1283 C19.3318,2.7363 19.0898,2.4383 18.7098,2.3643 C19.0298,2.2743 19.2278,2.0203 19.2278,1.7003 C19.2278,1.2383 18.7968,0.9453 18.1198,0.9453 L16.6908,0.9453 Z M17.4548,1.5323 L18.0758,1.5323 C18.3008,1.5323 18.4428,1.6443 18.4428,1.8383 C18.4428,2.0323 18.3008,2.1533 18.0758,2.1533 L17.4548,2.1533 L17.4548,1.5323 Z M17.4548,2.7053 L18.0758,2.7053 C18.3608,2.7053 18.5378,2.8313 18.5378,3.0333 C18.5378,3.2493 18.3608,3.3743 18.0758,3.3743 L17.4548,3.3743 L17.4548,2.7053 Z M21.8438,3.3223 L21.8438,0.9453 L21.0758,0.9453 L21.0758,3.9653 L23.1248,3.9653 L23.1248,3.3223 L21.8438,3.3223 Z M24.7898,3.9653 L25.5578,3.9653 L25.5578,0.9453 L24.7898,0.9453 L24.7898,3.9653 Z M28.6208,0.9113 C27.8958,0.9113 27.4168,1.2643 27.4168,1.8213 C27.4168,2.8913 29.0138,2.5713 29.0138,3.1073 C29.0138,3.2793 28.8618,3.3703 28.6208,3.3703 C28.3058,3.3703 27.8398,3.1893 27.5288,2.9173 L27.2318,3.5083 C27.5898,3.8013 28.1068,3.9913 28.6118,3.9913 C29.2848,3.9913 29.8198,3.6723 29.8198,3.0683 C29.8198,1.9763 28.2238,2.2743 28.2238,1.7523 C28.2238,1.6053 28.3578,1.5323 28.5558,1.5323 C28.8018,1.5323 29.2038,1.6613 29.5218,1.8473 L29.8108,1.2473 C29.5008,1.0453 29.0568,0.9113 28.6208,0.9113 Z M34.3248,3.9653 L34.3248,0.9453 L33.5568,0.9453 L33.5568,2.1883 L32.3058,2.1883 L32.3058,0.9453 L31.5378,0.9453 L31.5378,3.9653 L32.3058,3.9653 L32.3058,2.7923 L33.5568,2.7923 L33.5568,3.9653 L34.3248,3.9653 Z M38.5938,1.5493 L38.5938,0.9453 L36.2288,0.9453 L36.2288,3.9653 L38.6408,3.9653 L38.6408,3.3613 L36.9968,3.3613 L36.9968,2.7533 L38.4378,2.7533 L38.4378,2.1493 L36.9968,2.1493 L36.9968,1.5493 L38.5938,1.5493 Z M40.4358,0.9453 L40.4358,3.9653 L41.7048,3.9653 C42.6758,3.9653 43.3398,3.3483 43.3398,2.4553 C43.3398,1.5583 42.6838,0.9453 41.7348,0.9453 L40.4358,0.9453 Z M41.2038,1.5583 L41.7178,1.5583 C42.2048,1.5583 42.5588,1.9243 42.5588,2.4603 C42.5588,2.9903 42.2228,3.3533 41.7518,3.3533 L41.2038,3.3533 L41.2038,1.5583 Z M50.1308,3.9653 L50.1308,0.9453 L49.4138,0.9453 L49.4138,2.8093 L48.0208,0.9453 L47.3438,0.9453 L47.3438,3.9653 L48.0638,3.9653 L48.0638,2.1063 L49.4538,3.9653 L50.1308,3.9653 Z M54.3988,1.5493 L54.3988,0.9453 L52.0348,0.9453 L52.0348,3.9653 L54.4468,3.9653 L54.4468,3.3613 L52.8028,3.3613 L52.8028,2.7533 L54.2438,2.7533 L54.2438,2.1493 L52.8028,2.1493 L52.8028,1.5493 L54.3988,1.5493 Z M59.6378,3.9653 L60.6338,0.9453 L59.8488,0.9453 L59.2658,3.1673 L58.6758,0.9453 L57.9248,0.9453 L57.3468,3.1673 L56.7558,0.9453 L55.9358,0.9453 L56.9238,3.9653 L57.7178,3.9653 L58.2868,1.8773 L58.8478,3.9653 L59.6378,3.9653 Z M66.0628,2.9903 L67.1588,0.9453 L66.3908,0.9453 L65.6798,2.2613 L64.9498,0.9453 L64.1828,0.9453 L65.2998,3.0123 L65.2998,3.9653 L66.0628,3.9653 L66.0628,2.9903 Z M70.1108,0.9193 C69.1788,0.9193 68.4798,1.5713 68.4798,2.4513 C68.4798,3.3353 69.1788,4.0003 70.1108,4.0003 C71.0468,4.0003 71.7458,3.3313 71.7458,2.4513 C71.7458,1.5753 71.0468,0.9193 70.1108,0.9193 Z M70.1198,1.5623 C70.5848,1.5623 70.9558,1.9463 70.9558,2.4553 C70.9558,2.9653 70.5848,3.3573 70.1198,3.3573 C69.6578,3.3573 69.2658,2.9653 69.2658,2.4553 C69.2658,1.9463 69.6538,1.5623 70.1198,1.5623 Z M75.2718,3.9653 L76.1438,3.9653 L75.5098,2.9683 C75.8638,2.7923 76.0578,2.4603 76.0578,1.9983 C76.0578,1.3253 75.5998,0.9453 74.8018,0.9453 L73.4518,0.9453 L73.4518,3.9653 L74.2198,3.9653 L74.2198,3.1153 L74.8018,3.1153 L74.8238,3.1153 L75.2718,3.9653 Z M74.2198,2.5113 L74.2198,1.5493 L74.8018,1.5493 C75.1348,1.5493 75.3288,1.7093 75.3288,2.0243 C75.3288,2.3433 75.1348,2.5113 74.8018,2.5113 L74.2198,2.5113 Z M79.8428,3.9653 L80.7618,3.9653 L79.5658,2.1963 L80.6878,0.9453 L79.7988,0.9453 L78.6428,2.2533 L78.6428,0.9453 L77.8748,0.9453 L77.8748,3.9653 L78.6428,3.9653 L78.6428,3.2233 L79.0438,2.7793 L79.8428,3.9653 Z" id="Fill-30" fill="#58595B" mask="url(#mask-4)"></path>
            </g>
        </g>
    </g>
</svg>