<?xml version="1.0" encoding="UTF-8"?>
<svg width="151px" height="96px" viewBox="0 0 151 96" version="1.1" xmlns="http://www.w3.org/2000/svg" xmlns:xlink="http://www.w3.org/1999/xlink">
    <!-- Generator: Sketch 49 (51002) - http://www.bohemiancoding.com/sketch -->
    <title>vintage-logo-3</title>
    <desc>Created with Sketch.</desc>
    <defs>
        <polygon id="path-1" points="0.448183662 0.568 16.0237854 0.568 16.0237854 15.3676017 0.448183662 15.3676017"></polygon>
        <polygon id="path-3" points="0 0.4457 58.6814 0.4457 58.6814 6.8757 0 6.8757"></polygon>
    </defs>
    <g id="Page-1" stroke="none" stroke-width="1" fill="none" fill-rule="evenodd">
        <g id="vintage-logo-3" transform="translate(0.000000, -1.000000)">
            <path d="M25.7389,8.8113 C25.8869,9.3713 25.5259,9.9593 24.9119,10.1263 C24.6119,10.2093 24.3109,10.2923 24.0109,10.3763 C23.8499,14.4953 23.7669,18.6033 23.7599,22.7023 C23.7559,23.8033 22.4019,24.2403 21.7679,23.2923 C20.0279,20.7293 18.2499,18.1863 16.4299,15.6643 C16.4589,18.7753 16.5319,21.8813 16.6489,24.9793 C16.6949,26.0993 15.3559,26.5923 14.6869,25.6923 C12.2089,22.4143 9.6559,19.1743 7.0319,15.9783 C6.6819,16.1123 6.3329,16.2463 5.9829,16.3823 C5.3829,16.6153 4.7379,16.3603 4.5239,15.8223 C4.3099,15.2843 4.6099,14.6523 5.2179,14.4163 C6.4719,13.9283 7.7309,13.4533 8.9959,12.9913 C9.6279,12.7613 10.2679,13.0373 10.4639,13.5823 C10.6579,14.1283 10.3429,14.7463 9.7179,14.9733 C9.5749,15.0263 9.4319,15.0783 9.2879,15.1313 C11.0089,17.2833 12.6969,19.4523 14.3539,21.6393 C14.2309,18.5163 14.1529,15.3863 14.1179,12.2483 C14.1019,11.1173 15.5859,10.6493 16.2299,11.5303 C18.0639,14.0613 19.8559,16.6123 21.6069,19.1843 C21.6069,16.4723 21.6419,13.7553 21.7099,11.0343 C21.5049,11.0943 21.2999,11.1543 21.0969,11.2153 C20.4639,11.4013 19.8439,11.0933 19.6759,10.5393 C19.5089,9.9853 19.8559,9.3813 20.4979,9.1923 C21.7799,8.8123 23.0659,8.4443 24.3549,8.0923 C24.9759,7.9223 25.5899,8.2513 25.7389,8.8113" id="Fill-1" fill="#58595B"></path>
            <path d="M40.2038,18.1511 C40.3118,18.6981 39.9268,19.2611 39.3668,19.3771 C38.0288,19.6511 36.6928,19.9441 35.3598,20.2491 C34.8008,20.3791 34.2148,20.0271 34.0868,19.4851 C33.9518,18.9221 34.3288,18.3641 34.8958,18.2341 C35.2188,18.1611 35.5378,18.0881 35.8598,18.0151 C35.1038,14.6441 34.3488,11.2741 33.5938,7.9031 C33.2528,7.9791 32.9138,8.0561 32.5728,8.1341 C31.9748,8.2711 31.3618,7.9481 31.2268,7.3861 C31.0988,6.8421 31.5038,6.2581 32.1098,6.1191 C33.5508,5.7871 34.9938,5.4721 36.4398,5.1741 C37.0468,5.0491 37.6568,5.4121 37.7658,5.9601 C37.8788,6.5281 37.4568,7.0771 36.8558,7.2001 C36.5158,7.2711 36.1748,7.3421 35.8348,7.4151 C36.5508,10.7941 37.2658,14.1741 37.9808,17.5521 C38.3038,17.4851 38.6268,17.4171 38.9478,17.3511 C39.5168,17.2341 40.0918,17.5831 40.2038,18.1511" id="Fill-3" fill="#58595B"></path>
            <path d="M47.4762,15.8035 C46.9402,12.3845 46.4042,8.9645 45.8662,5.5445 C45.5242,5.5995 45.1812,5.6535 44.8382,5.7095 C44.2352,5.8065 43.6442,5.4465 43.5482,4.8745 C43.4552,4.3235 43.8952,3.7665 44.5052,3.6675 C45.9612,3.4315 47.4172,3.2115 48.8752,3.0085 C49.4902,2.9235 50.0732,3.3255 50.1452,3.8785 C50.2212,4.4535 49.7662,4.9725 49.1612,5.0575 C48.8182,5.1055 48.4732,5.1535 48.1292,5.2035 C48.6252,8.6295 49.1222,12.0555 49.6172,15.4815 C52.1332,15.1175 54.6562,14.8055 57.1822,14.5485 C57.1462,14.1845 57.1092,13.8205 57.0722,13.4565 C57.0112,12.8815 57.4602,12.3775 58.0432,12.3215 C58.6482,12.2625 59.1622,12.6745 59.2142,13.2515 C59.2772,13.9585 59.3402,14.6655 59.4062,15.3735 C59.4552,15.9295 59.0352,16.4445 58.4452,16.5015 C54.5642,16.8745 50.6912,17.3745 46.8342,18.0005 C46.2702,18.0925 45.7102,17.7045 45.6162,17.1535 C45.5202,16.5835 45.9302,16.0525 46.5032,15.9585 C46.8282,15.9065 47.1522,15.8555 47.4762,15.8035" id="Fill-5" fill="#58595B"></path>
            <g id="Group-9" transform="translate(64.000000, 0.432400)">
                <mask id="mask-2" fill="white">
                    <use xlink:href="#path-1"></use>
                </mask>
                <g id="Clip-8"></g>
                <path d="M11.7721,15.2417 C9.5391,15.2407 7.3071,15.2807 5.0751,15.3637 C2.5701,15.4547 0.6351,13.9457 0.4891,11.6937 C0.4531,11.1157 0.9241,10.6307 1.5321,10.5967 C2.1191,10.5647 2.6401,10.9957 2.6681,11.5737 C2.7311,12.8327 3.8901,13.3357 4.9991,13.2957 C7.2571,13.2127 9.5151,13.1727 11.7741,13.1737 C14.5641,13.1897 14.6081,9.0527 11.7761,9.0367 C9.5011,9.0357 7.2511,9.0757 5.0011,9.1567 C-0.6769,9.4197 -1.3429,1.1477 4.7031,0.8667 C6.6131,0.7987 8.5231,0.7587 10.4341,0.7457 C11.3241,0.7407 12.1241,0.9067 12.7841,1.2207 C12.9671,0.8287 13.3801,0.5617 13.8611,0.5677 C14.4781,0.5747 14.9971,1.0597 14.9851,1.6387 C14.9691,2.5897 14.9531,3.5417 14.9361,4.4927 C14.9261,5.0517 14.4061,5.5167 13.8061,5.5107 C13.1831,5.5037 12.6721,5.0257 12.6731,4.4677 C12.6831,3.2477 11.5321,2.8067 10.4471,2.8147 C8.5561,2.8267 6.6671,2.8657 4.7771,2.9337 C1.8081,3.0557 2.0651,7.1857 4.9261,7.0677 C7.2001,6.9867 9.4781,6.9467 11.7771,6.9467 C17.5931,7.0107 17.2851,15.3037 11.7721,15.2417" id="Fill-7" fill="#58595B" mask="url(#mask-2)"></path>
            </g>
            <path d="M93.6881,15.1028 C101.3781,15.9858 103.2031,4.5548 94.8361,3.5968 C86.4531,2.8828 85.9811,14.4478 93.6881,15.1028 M95.0411,1.5388 C106.5761,2.9198 103.7691,18.3988 93.4831,17.1618 C83.1631,16.3408 83.4741,0.6138 95.0411,1.5388" id="Fill-10" fill="#58595B"></path>
            <path d="M125.8454,8.8543 C125.6994,9.3933 125.0924,9.7213 124.4774,9.5603 C124.1684,9.4793 123.8604,9.3983 123.5514,9.3193 C122.6164,12.9593 121.6794,16.5983 120.7424,20.2383 C120.4834,21.2383 119.1644,21.3503 118.7164,20.4103 C116.8144,16.4993 114.7494,12.6143 112.5244,8.7663 C111.9794,11.5263 111.4344,14.2873 110.8904,17.0473 C111.1844,17.1053 111.4794,17.1643 111.7744,17.2243 C112.3654,17.3433 112.7344,17.8853 112.6154,18.4523 C112.4964,19.0193 111.9464,19.3693 111.3644,19.2503 C110.0874,18.9923 108.8084,18.7483 107.5284,18.5183 C106.9444,18.4123 106.5404,17.8813 106.6404,17.3103 C106.7384,16.7393 107.3014,16.3753 107.8944,16.4813 C108.1904,16.5353 108.4854,16.5893 108.7814,16.6433 C109.4084,13.2543 110.0354,9.8643 110.6644,6.4743 C110.3514,6.4163 110.0384,6.3583 109.7264,6.3023 C109.1024,6.1903 108.6694,5.6323 108.7644,5.0823 C108.8634,4.5123 109.4604,4.1533 110.0934,4.2663 C110.7624,4.3873 111.4314,4.5113 112.0994,4.6383 C112.5044,4.7153 112.7964,4.8993 112.9884,5.2313 C115.2714,9.0873 117.3944,12.9823 119.3534,16.9043 C120.0174,14.1913 120.6804,11.4793 121.3434,8.7653 C121.0344,8.6903 120.7264,8.6163 120.4164,8.5413 C119.7954,8.3933 119.4174,7.8163 119.5444,7.2723 C119.6744,6.7083 120.2694,6.3793 120.8984,6.5303 C122.2684,6.8573 123.6364,7.2013 125.0024,7.5593 C125.6244,7.7233 125.9964,8.2943 125.8454,8.8543" id="Fill-12" fill="#58595B"></path>
            <path d="M137.9352,26.7957 C135.8082,26.0107 133.6692,25.2677 131.5212,24.5647 C129.1092,23.7777 127.7962,21.6877 128.4362,19.5247 C128.6012,18.9687 129.2152,18.6777 129.8032,18.8577 C130.3722,19.0317 130.7172,19.6177 130.5422,20.1697 C130.1692,21.3747 131.0942,22.2487 132.1642,22.5987 C134.3362,23.3097 136.4992,24.0617 138.6512,24.8557 C141.3052,25.8517 142.7782,21.9837 140.0832,20.9737 C137.9172,20.1737 135.7602,19.4237 133.5952,18.7147 C128.1142,16.9827 130.3402,8.9877 136.1762,10.8327 C138.0152,11.4347 139.8472,12.0657 141.6692,12.7227 C142.5202,13.0307 143.2252,13.4677 143.7462,13.9937 C144.0552,13.6907 144.5412,13.5857 144.9982,13.7597 C145.5842,13.9837 145.9122,14.6217 145.7012,15.1607 C145.3572,16.0477 145.0122,16.9347 144.6672,17.8217 C144.4642,18.3417 143.8072,18.5957 143.2372,18.3787 C142.6452,18.1527 142.3242,17.5257 142.5192,17.0027 C142.9502,15.8597 142.0032,15.0427 140.9682,14.6687 C139.1642,14.0167 137.3512,13.3947 135.5342,12.7977 C132.6712,11.8767 131.4872,15.8417 134.2462,16.7297 C136.4352,17.4467 138.6162,18.2057 140.8072,19.0137 C146.3312,21.1197 143.1712,28.7927 137.9352,26.7957" id="Fill-14" fill="#58595B"></path>
            <path d="M111.1188,67.0681 C110.5548,67.1721 109.9788,67.2671 109.4098,67.3731 C109.0878,67.4981 108.5978,67.4801 108.2798,67.5761 C106.4988,67.8841 104.6968,68.1581 102.8818,68.4081 C101.8688,68.5491 100.8508,68.6901 99.8218,68.8111 C99.6128,68.8241 99.6128,68.8971 99.2728,68.8691 C92.0308,69.7141 84.5438,70.1421 76.8028,70.1291 C66.3588,70.1051 56.7628,69.3041 48.7228,68.3021 C48.4658,68.2721 48.2118,68.2411 47.9558,68.2061 C47.0818,68.0991 46.2338,67.9851 45.4008,67.8671 C44.3878,67.7311 43.4008,67.5881 42.4538,67.4471 C41.5218,67.3061 40.6188,67.1631 39.7548,67.0241 L39.7248,67.0171 C39.0468,66.9081 38.3928,66.7971 37.7648,66.6931 C31.5218,65.6261 27.2838,64.6331 25.9238,64.2881 C25.0898,69.9891 24.2768,75.6911 23.4798,81.3941 C39.9758,86.0551 57.0338,88.3721 74.5408,88.3721 C102.4468,88.3721 123.1718,82.3551 126.1128,81.4311 C125.1258,75.7151 124.1158,70.0021 123.0848,64.2881 C119.1938,65.3701 115.1938,66.2871 111.1188,67.0681" id="Fill-16" fill="#58595B"></path>
            <path d="M133.6237,64.7669 C135.8467,60.8999 135.9757,53.8769 135.9727,53.8769 C126.2427,59.2139 118.0697,59.3999 118.0587,59.3969 C120.3817,60.1649 122.6947,60.9399 125.0087,61.7229 C125.7877,66.4269 126.5587,71.1279 127.3117,75.8329 C133.8007,76.4889 140.0257,72.3379 140.0317,72.3379 C139.5637,70.9489 133.6337,64.7609 133.6237,64.7669" id="Fill-18" fill="#58595B"></path>
            <path d="M31.2038,59.5003 C31.1908,59.5023 23.0168,59.3173 13.2908,53.9963 C13.2868,53.9963 13.4138,61.0103 15.6378,64.8743 C15.6278,64.8713 9.6988,71.0663 9.2178,72.4523 C9.2248,72.4523 15.4638,76.6023 21.9438,75.9413 C22.6968,71.2403 23.4648,66.5393 24.2458,61.8393 C26.5598,61.0513 28.8788,60.2723 31.2038,59.5003" id="Fill-20" fill="#58595B"></path>
            <path d="M85.1979,43.0125 C85.4909,42.7525 85.6859,42.4595 85.8489,42.1335 C86.0109,41.8415 86.0439,41.5485 86.0109,41.2875 C85.9789,41.0275 85.7839,40.8975 85.4259,40.8975 C85.1979,40.8975 84.8409,40.9295 84.3189,40.9625 C83.7989,40.9945 83.2139,41.0595 82.5299,41.0925 C81.8459,41.1575 81.1629,41.2225 80.4149,41.2875 C79.6669,41.3525 78.9179,41.4175 78.2349,41.4835 C76.7379,41.3205 75.7609,40.8325 75.3059,40.0185 C74.8499,39.2375 75.0129,38.2615 75.7949,37.0905 C76.1519,36.5695 76.5749,36.1145 77.0949,35.7235 C77.6169,35.3655 78.1699,35.0405 78.7879,34.7475 C79.3739,34.4875 79.9919,34.2915 80.6099,34.1295 C81.2279,33.9985 81.7819,33.9015 82.3349,33.8685 C82.4319,33.9665 82.4649,34.0315 82.4319,34.1295 C82.3999,34.2265 82.3669,34.3565 82.3019,34.4545 C82.2369,34.5525 82.1719,34.6825 82.0739,34.7805 C81.9759,34.9095 81.8789,35.0405 81.7819,35.1375 C81.6189,35.3335 81.5869,35.4955 81.6839,35.5935 C81.7819,35.6915 81.9119,35.7885 82.1389,35.8215 C82.3669,35.8535 82.5949,35.8535 82.8869,35.8215 C83.1799,35.7885 83.4409,35.7565 83.6689,35.6915 C84.1569,35.5285 84.6119,35.2675 85.0359,34.8775 C85.4259,34.4875 85.7189,34.1295 85.8819,33.7715 C86.0439,33.4785 86.1409,33.2505 86.1089,33.0555 C86.0769,32.8605 86.0109,32.6975 85.8489,32.5675 C85.6859,32.4695 85.4909,32.3715 85.2629,32.3395 C85.0029,32.3065 84.7099,32.2745 84.4169,32.2745 C82.3019,32.2745 80.3169,32.5995 78.3969,33.2185 C76.4769,33.8365 74.7859,34.7145 73.3539,35.8215 C72.6379,36.3745 72.0519,36.9275 71.6299,37.5455 C71.2069,38.1635 70.9459,38.7495 70.8479,39.3035 C70.7509,39.8885 70.8159,40.4085 71.1089,40.8975 C71.4009,41.3855 71.9229,41.7755 72.6709,42.0685 C71.4009,42.3935 70.3279,42.8495 69.4489,43.4355 C68.5709,44.0205 67.8869,44.6715 67.4309,45.3555 C66.9439,46.0715 66.6829,46.7865 66.6509,47.5025 C66.6179,48.2515 66.7809,48.9015 67.1719,49.4875 C67.5289,50.0735 68.1469,50.5615 68.9609,50.9195 C69.7739,51.3095 70.7829,51.5055 72.0519,51.5055 C73.1589,51.5055 74.3299,51.3095 75.5659,50.9195 C76.8029,50.5615 77.9739,50.0085 79.0489,49.2925 C80.1219,48.6095 81.0329,47.7625 81.8139,46.7545 C82.5949,45.7455 83.0829,44.6395 83.2779,43.4025 C83.6689,43.4355 84.0269,43.4355 84.3189,43.4025 C84.6119,43.4025 84.9049,43.2725 85.1979,43.0125 M70.5229,48.4785 C70.1979,47.8605 70.2299,47.1445 70.5879,46.3645 C70.9459,45.5825 71.6299,44.8345 72.6379,44.1185 C73.6469,43.4355 74.9159,42.9475 76.5099,42.6865 C76.8679,42.7195 77.3559,42.7525 77.9089,42.7845 C78.4629,42.8495 79.0489,42.9145 79.6669,43.0125 C79.6339,43.7285 79.4379,44.5095 79.1129,45.3555 C78.7559,46.2005 78.2999,46.9495 77.6809,47.6335 C77.0629,48.3165 76.3469,48.8695 75.5019,49.2605 C74.6549,49.6825 73.7119,49.8125 72.6379,49.6505 C71.5639,49.5205 70.8479,49.1295 70.5229,48.4785" id="Fill-22" fill="#58595B"></path>
            <path d="M98.067,46.2361 L100.544,39.9311 L98.895,39.9311 L97.283,44.5691 L95.671,39.9311 L93.96,39.9311 L96.41,46.2361 L98.067,46.2361 Z M103.873,46.2361 L105.477,46.2361 L105.477,39.9311 L103.873,39.9311 L103.873,46.2361 Z M115.262,46.2361 L115.262,39.9311 L113.767,39.9311 L113.767,43.8221 L110.858,39.9311 L109.444,39.9311 L109.444,46.2361 L110.948,46.2361 L110.948,42.3541 L113.848,46.2361 L115.262,46.2361 Z M124.05,41.2191 L124.05,39.9231 L118.665,39.9231 L118.665,41.2191 L120.547,41.2191 L120.547,46.2361 L122.15,46.2361 L122.15,41.2191 L124.05,41.2191 Z M130.955,45.0741 L131.406,46.2361 L133.117,46.2361 L130.46,39.9311 L128.812,39.9311 L126.091,46.2361 L127.74,46.2361 L128.199,45.0741 L130.955,45.0741 Z M130.487,43.8581 L128.668,43.8581 L129.587,41.5261 L130.487,43.8581 Z M140.428,43.0291 L140.428,44.6601 C140.049,44.8491 139.635,44.9661 139.311,44.9661 C138.266,44.9661 137.464,44.1551 137.464,43.0841 C137.464,42.0301 138.257,41.2191 139.294,41.2191 C139.879,41.2191 140.518,41.4811 140.977,41.9041 L141.879,40.8141 C141.229,40.2371 140.239,39.8781 139.302,39.8781 C137.312,39.8781 135.826,41.2561 135.826,43.0841 C135.826,44.9211 137.276,46.3081 139.194,46.3081 C140.077,46.3081 141.139,45.9651 141.815,45.4881 L141.815,43.0291 L140.428,43.0291 Z M150.576,41.1931 L150.576,39.9311 L145.641,39.9311 L145.641,46.2361 L150.675,46.2361 L150.675,44.9751 L147.244,44.9751 L147.244,43.7051 L150.252,43.7051 L150.252,42.4441 L147.244,42.4441 L147.244,41.1931 L150.576,41.1931 Z" id="Fill-24" fill="#58595B"></path>
            <g id="Group-28" transform="translate(0.000000, 39.432400)">
                <mask id="mask-4" fill="white">
                    <use xlink:href="#path-3"></use>
                </mask>
                <g id="Clip-27"></g>
                <path d="M6.9254,6.8037 L6.9254,0.4907 L5.1784,0.4907 L3.4674,4.2457 L1.7564,0.4907 L-0.0006,0.4907 L-0.0006,6.8037 L1.4324,6.8037 L1.4324,2.7057 L2.9454,6.1737 L3.9894,6.1737 L5.5024,2.7057 L5.5124,6.8037 L6.9254,6.8037 Z M15.0944,5.6417 L15.5444,6.8037 L17.2554,6.8037 L14.5984,0.4987 L12.9504,0.4987 L10.2304,6.8037 L11.8784,6.8037 L12.3374,5.6417 L15.0944,5.6417 Z M14.6254,4.4257 L12.8064,4.4257 L13.7254,2.0937 L14.6254,4.4257 Z M26.0434,0.4987 L24.4494,0.4987 L24.4494,4.1557 C24.4494,5.0117 23.9364,5.5337 23.1794,5.5337 C22.4144,5.5337 21.8644,5.0117 21.8644,4.1557 L21.8644,0.4987 L20.2614,0.4987 L20.2614,4.1557 C20.2614,5.8217 21.3964,6.8757 23.1704,6.8757 C24.9364,6.8757 26.0434,5.8217 26.0434,4.1557 L26.0434,0.4987 Z M33.7064,6.8037 L35.5264,6.8037 L34.2014,4.7227 C34.9404,4.3537 35.3454,3.6597 35.3454,2.6967 C35.3454,1.2917 34.3914,0.4987 32.7244,0.4987 L29.9054,0.4987 L29.9054,6.8037 L31.5084,6.8037 L31.5084,5.0297 L32.7244,5.0297 L32.7704,5.0297 L33.7064,6.8037 Z M31.5084,3.7687 L31.5084,1.7607 L32.7244,1.7607 C33.4184,1.7607 33.8234,2.0937 33.8234,2.7507 C33.8234,3.4167 33.4184,3.7687 32.7244,3.7687 L31.5084,3.7687 Z M39.1354,6.8037 L40.7384,6.8037 L40.7384,0.4987 L39.1354,0.4987 L39.1354,6.8037 Z M47.6584,0.4457 C45.7404,0.4457 44.2904,1.8137 44.2904,3.6337 C44.2904,5.4797 45.7044,6.8757 47.6054,6.8757 C48.5324,6.8757 49.5324,6.4167 50.2074,5.7227 L49.2714,4.7317 C48.8294,5.1827 48.2174,5.4707 47.6864,5.4707 C46.6864,5.4707 45.9304,4.6687 45.9304,3.6157 C45.9304,2.5797 46.6864,1.7867 47.6864,1.7867 C48.2444,1.7867 48.8574,2.1017 49.2714,2.6067 L50.1984,1.5077 C49.5694,0.8597 48.5964,0.4457 47.6584,0.4457 Z M58.5814,1.7607 L58.5814,0.4987 L53.6464,0.4987 L53.6464,6.8037 L58.6814,6.8037 L58.6814,5.5427 L55.2494,5.5427 L55.2494,4.2727 L58.2574,4.2727 L58.2574,3.0117 L55.2494,3.0117 L55.2494,1.7607 L58.5814,1.7607 Z" id="Fill-26" fill="#58595B" mask="url(#mask-4)"></path>
            </g>
            <path d="M41.1471,75.1941 C40.8081,75.7621 40.4651,76.3291 40.1221,76.8951 C40.6061,76.9741 41.0901,77.0521 41.5741,77.1291 C41.4291,76.4841 41.2881,75.8401 41.1471,75.1941 M39.5901,77.7811 C39.4191,78.0641 39.2451,78.3441 39.0721,78.6261 C38.6301,78.5521 38.1881,78.4761 37.7481,78.3991 C38.7601,76.8901 39.7581,75.3741 40.7391,73.8521 C41.1701,73.9221 41.6021,73.9921 42.0351,74.0591 C42.4731,75.8101 42.9281,77.5591 43.4011,79.3071 C42.9421,79.2391 42.4811,79.1711 42.0221,79.1001 C41.9471,78.7791 41.8741,78.4581 41.8001,78.1371 C41.0631,78.0231 40.3281,77.9031 39.5901,77.7811" id="Fill-29" fill="#FEFEFE"></path>
            <path d="M52.1686,78.3035 C52.0336,79.6125 51.0496,80.3495 49.6186,80.1835 C48.1836,80.0155 47.3716,79.0685 47.5406,77.7635 C47.6636,76.8075 47.7856,75.8525 47.9086,74.8975 C48.3286,74.9505 48.7506,75.0025 49.1726,75.0555 C49.0566,76.0115 48.9396,76.9665 48.8236,77.9235 C48.7406,78.5945 49.1336,79.0595 49.7496,79.1305 C50.3596,79.2015 50.8176,78.8365 50.8926,78.1645 C50.9996,77.2075 51.1066,76.2495 51.2126,75.2935 C51.6326,75.3395 52.0526,75.3845 52.4726,75.4295 C52.3716,76.3865 52.2706,77.3455 52.1686,78.3035" id="Fill-31" fill="#FEFEFE"></path>
            <path d="M59.1832,77.0467 C59.0882,78.3657 58.9942,79.6837 58.8982,81.0017 C58.4642,80.9697 58.0312,80.9377 57.5982,80.9027 C57.7022,79.5857 57.8042,78.2687 57.9082,76.9507 C57.4092,76.9117 56.9112,76.8707 56.4112,76.8277 C56.4402,76.4877 56.4692,76.1477 56.4982,75.8077 C57.9182,75.9287 59.3392,76.0357 60.7622,76.1287 C60.7402,76.4687 60.7182,76.8097 60.6962,77.1507 C60.1922,77.1187 59.6872,77.0837 59.1832,77.0467" id="Fill-33" fill="#FEFEFE"></path>
            <path d="M68.0748,81.4641 C68.0938,80.8181 68.1118,80.1741 68.1308,79.5281 C67.4288,79.5081 66.7288,79.4851 66.0288,79.4581 C66.0028,80.1031 65.9778,80.7471 65.9548,81.3921 C65.5198,81.3761 65.0868,81.3571 64.6518,81.3381 C64.7258,79.6791 64.8008,78.0201 64.8748,76.3601 C65.2988,76.3801 65.7228,76.3971 66.1468,76.4131 C66.1198,77.0961 66.0938,77.7791 66.0668,78.4621 C66.7628,78.4891 67.4618,78.5121 68.1588,78.5321 C68.1788,77.8491 68.1978,77.1661 68.2188,76.4831 C68.6418,76.4951 69.0658,76.5061 69.4898,76.5151 C69.4518,78.1761 69.4138,79.8371 69.3768,81.4971 C68.9428,81.4871 68.5088,81.4761 68.0748,81.4641" id="Fill-35" fill="#FEFEFE"></path>
            <path d="M75.3414,77.5608 C75.3434,77.8918 75.3454,78.2208 75.3474,78.5498 C76.1504,78.5448 76.9524,78.5358 77.7564,78.5218 C77.7624,78.8548 77.7694,79.1858 77.7744,79.5188 C76.9674,79.5328 76.1594,79.5418 75.3534,79.5468 C75.3554,79.8808 75.3574,80.2158 75.3594,80.5498 C76.2834,80.5448 77.2084,80.5338 78.1344,80.5158 C78.1404,80.8478 78.1464,81.1808 78.1524,81.5128 C76.7894,81.5388 75.4264,81.5508 74.0624,81.5508 C74.0624,79.8898 74.0634,78.2288 74.0644,76.5678 C75.3684,76.5678 76.6734,76.5568 77.9804,76.5318 C77.9864,76.8638 77.9914,77.1968 77.9984,77.5288 C77.1124,77.5448 76.2274,77.5558 75.3414,77.5608" id="Fill-37" fill="#FEFEFE"></path>
            <path d="M86.2291,81.2053 C85.3851,80.2283 84.5541,79.2473 83.7331,78.2613 C83.7811,79.2833 83.8281,80.3043 83.8751,81.3263 C83.4671,81.3453 83.0601,81.3633 82.6541,81.3793 C82.5851,79.7203 82.5191,78.0593 82.4541,76.4003 C82.8271,76.3853 83.2001,76.3703 83.5731,76.3513 C84.3901,77.3413 85.2161,78.3253 86.0551,79.3043 C85.9961,78.2803 85.9381,77.2573 85.8791,76.2333 C86.2751,76.2103 86.6681,76.1883 87.0641,76.1633 C87.1681,77.8203 87.2731,79.4783 87.3761,81.1353 C86.9941,81.1593 86.6121,81.1833 86.2291,81.2053" id="Fill-39" fill="#FEFEFE"></path>
            <path d="M94.0368,76.6297 C94.1638,77.9457 94.2898,79.2607 94.4168,80.5757 C93.9838,80.6177 93.5518,80.6587 93.1178,80.6977 C92.9998,79.3807 92.8808,78.0657 92.7628,76.7487 C92.2638,76.7937 91.7658,76.8367 91.2658,76.8787 C91.2378,76.5377 91.2098,76.1967 91.1818,75.8567 C92.6018,75.7387 94.0208,75.6067 95.4398,75.4597 C95.4748,75.7997 95.5118,76.1397 95.5468,76.4797 C95.0428,76.5307 94.5398,76.5817 94.0368,76.6297" id="Fill-41" fill="#FEFEFE"></path>
            <path d="M100.151,79.9456 C99.947,78.2966 99.742,76.6486 99.538,75.0006 C99.959,74.9486 100.381,74.8956 100.802,74.8406 C101.017,76.4876 101.231,78.1336 101.446,79.7806 C101.013,79.8376 100.583,79.8926 100.151,79.9456" id="Fill-43" fill="#FEFEFE"></path>
            <path d="M109.7955,74.2776 C109.6025,74.6046 109.4075,74.9326 109.2115,75.2586 C108.8165,74.9236 108.2915,74.7576 107.8515,74.8306 C107.0635,74.9616 106.5635,75.6726 106.6905,76.4816 C106.8175,77.3036 107.5235,77.8356 108.3235,77.7036 C108.7495,77.6326 109.2015,77.3256 109.4935,76.9156 C109.7885,77.1296 110.0815,77.3436 110.3755,77.5576 C109.9305,78.1926 109.1875,78.6886 108.4395,78.8096 C106.9075,79.0616 105.6015,78.1396 105.3885,76.6966 C105.1765,75.2746 106.1545,74.0346 107.6575,73.7866 C108.3935,73.6676 109.2105,73.8596 109.7955,74.2776" id="Fill-45" fill="#FEFEFE"></path>
            <path d="M37.0631,90.0257 C36.8831,90.9427 36.7031,91.8587 36.5221,92.7737 C36.2231,92.7157 35.9261,92.6567 35.6271,92.5967 C35.8121,91.6807 35.9971,90.7657 36.1801,89.8507 C35.8351,89.7797 35.4921,89.7097 35.1461,89.6377 C35.1951,89.4017 35.2441,89.1647 35.2931,88.9277 C36.2761,89.1327 37.2591,89.3287 38.2451,89.5167 C38.1991,89.7547 38.1541,89.9907 38.1081,90.2287 C37.7591,90.1617 37.4111,90.0937 37.0631,90.0257" id="Fill-47" fill="#58595B"></path>
            <path d="M42.3366,92.1082 C42.7216,92.1722 42.9796,92.0162 43.0376,91.6492 C43.0986,91.2872 42.9036,91.0672 42.5216,91.0032 C42.2976,90.9662 42.0736,90.9282 41.8496,90.8902 C41.7856,91.2582 41.7246,91.6262 41.6606,91.9942 C41.8866,92.0322 42.1116,92.0702 42.3366,92.1082 M42.2446,92.8052 L42.2216,92.8012 C41.9946,92.7632 41.7686,92.7252 41.5426,92.6872 C41.4866,93.0122 41.4326,93.3372 41.3756,93.6632 C41.0766,93.6112 40.7766,93.5602 40.4786,93.5072 C40.6806,92.3532 40.8836,91.1982 41.0866,90.0442 C41.6036,90.1352 42.1196,90.2232 42.6376,90.3102 C43.5536,90.4622 44.0106,90.9812 43.8876,91.7552 C43.8026,92.2852 43.5176,92.6322 43.0726,92.7692 C43.2556,93.1912 43.4406,93.6112 43.6286,94.0322 C43.2876,93.9792 42.9486,93.9232 42.6076,93.8682 C42.4856,93.5142 42.3646,93.1592 42.2446,92.8052" id="Fill-49" fill="#58595B"></path>
            <path d="M48.5895,92.1057 C48.3615,92.5117 48.1345,92.9177 47.9035,93.3237 C48.2425,93.3697 48.5815,93.4157 48.9205,93.4597 C48.8105,93.0087 48.6995,92.5567 48.5895,92.1057 M47.5495,93.9587 C47.4335,94.1597 47.3185,94.3617 47.2005,94.5637 C46.8925,94.5207 46.5845,94.4767 46.2765,94.4327 C46.9525,93.3467 47.6215,92.2587 48.2805,91.1677 C48.5845,91.2097 48.8885,91.2507 49.1915,91.2907 C49.5275,92.5157 49.8735,93.7387 50.2275,94.9607 C49.9065,94.9217 49.5845,94.8807 49.2635,94.8397 C49.2065,94.6147 49.1505,94.3907 49.0945,94.1647 C48.5795,94.0977 48.0635,94.0297 47.5495,93.9587" id="Fill-51" fill="#58595B"></path>
            <path d="M54.0641,94.6809 C54.2781,94.7029 54.4941,94.7249 54.7081,94.7459 C55.2591,94.8029 55.6951,94.4209 55.7531,93.8079 C55.8121,93.1909 55.4431,92.7279 54.8761,92.6699 C54.6791,92.6499 54.4801,92.6299 54.2811,92.6089 C54.2091,93.2989 54.1371,93.9909 54.0641,94.6809 M54.9691,91.9649 C56.0651,92.0759 56.7591,92.8519 56.6671,93.8889 C56.5731,94.9199 55.7251,95.5639 54.5791,95.4489 C54.0821,95.3989 53.5851,95.3459 53.0861,95.2929 C53.2121,94.1309 53.3401,92.9689 53.4671,91.8059 C53.9671,91.8619 54.4671,91.9139 54.9691,91.9649" id="Fill-53" fill="#58595B"></path>
            <path d="M60.6266,93.1565 C60.6086,93.3875 60.5936,93.6185 60.5766,93.8495 C61.1376,93.8885 61.6976,93.9265 62.2596,93.9615 C62.2446,94.1945 62.2306,94.4275 62.2156,94.6595 C61.6516,94.6245 61.0886,94.5875 60.5266,94.5475 C60.5106,94.7815 60.4926,95.0155 60.4766,95.2505 C61.1206,95.2965 61.7646,95.3385 62.4086,95.3775 C62.3956,95.6105 62.3816,95.8445 62.3656,96.0765 C61.4176,96.0195 60.4696,95.9545 59.5206,95.8835 C59.6086,94.7195 59.6966,93.5565 59.7866,92.3925 C60.6996,92.4615 61.6116,92.5255 62.5256,92.5815 C62.5126,92.8135 62.4976,93.0475 62.4826,93.2805 C61.8646,93.2425 61.2446,93.2005 60.6266,93.1565" id="Fill-55" fill="#58595B"></path>
            <path d="M68.612,96.3543 C68.633,95.5983 68.654,94.8413 68.674,94.0843 C68.374,94.7183 68.069,95.3493 67.761,95.9793 C67.565,95.9723 67.368,95.9663 67.173,95.9593 C66.911,95.3083 66.652,94.6583 66.397,94.0043 C66.365,94.7613 66.334,95.5183 66.302,96.2753 C66.033,96.2643 65.762,96.2523 65.492,96.2413 C65.546,95.0753 65.598,93.9093 65.651,92.7433 C65.976,92.7583 66.302,92.7723 66.628,92.7853 C66.916,93.4913 67.21,94.1973 67.507,94.9013 C67.851,94.2203 68.192,93.5363 68.531,92.8533 C68.855,92.8623 69.178,92.8723 69.503,92.8793 C69.473,94.0443 69.444,95.2113 69.412,96.3763 C69.145,96.3693 68.879,96.3633 68.612,96.3543" id="Fill-57" fill="#58595B"></path>
            <path d="M74.2702,93.8284 C74.0992,94.2594 73.9262,94.6884 73.7522,95.1184 C74.0932,95.1194 74.4352,95.1194 74.7762,95.1184 C74.6072,94.6894 74.4382,94.2594 74.2702,93.8284 M73.4862,95.7894 C73.3982,96.0054 73.3102,96.2184 73.2222,96.4324 C72.9112,96.4304 72.6002,96.4284 72.2892,96.4244 C72.8152,95.2674 73.3332,94.1074 73.8402,92.9464 C74.1452,92.9474 74.4502,92.9474 74.7562,92.9474 C75.2502,94.1074 75.7552,95.2674 76.2682,96.4234 C75.9452,96.4264 75.6212,96.4294 75.2982,96.4314 C75.2112,96.2184 75.1252,96.0044 75.0412,95.7894 C74.5222,95.7914 74.0042,95.7924 73.4862,95.7894" id="Fill-59" fill="#58595B"></path>
            <path d="M80.6832,94.6502 C81.0732,94.6382 81.2932,94.4352 81.2792,94.0672 C81.2672,93.7052 81.0342,93.5282 80.6482,93.5422 C80.4212,93.5482 80.1952,93.5562 79.9682,93.5632 C79.9792,93.9322 79.9902,94.3022 80.0012,94.6722 C80.2282,94.6642 80.4552,94.6582 80.6832,94.6502 M80.7302,95.3452 L80.7052,95.3462 C80.4782,95.3542 80.2482,95.3602 80.0202,95.3682 C80.0302,95.6942 80.0392,96.0212 80.0472,96.3472 C79.7462,96.3572 79.4442,96.3652 79.1402,96.3722 C79.1132,95.2122 79.0852,94.0502 79.0572,92.8902 C79.5792,92.8782 80.1022,92.8622 80.6252,92.8452 C81.5502,92.8152 82.0982,93.2302 82.1292,94.0042 C82.1512,94.5372 81.9392,94.9282 81.5322,95.1482 C81.7922,95.5212 82.0572,95.8942 82.3222,96.2672 C81.9792,96.2812 81.6352,96.2942 81.2932,96.3072 C81.1052,95.9862 80.9162,95.6662 80.7302,95.3452" id="Fill-61" fill="#58595B"></path>
            <path d="M86.6676,94.6692 C86.5196,94.8492 86.3736,95.0292 86.2266,95.2102 C86.2436,95.4942 86.2616,95.7782 86.2776,96.0632 C85.9766,96.0812 85.6746,96.0992 85.3716,96.1162 C85.3066,94.9592 85.2406,93.8012 85.1776,92.6432 C85.4746,92.6272 85.7706,92.6102 86.0676,92.5922 C86.0986,93.0912 86.1286,93.5932 86.1586,94.0942 C86.5786,93.5652 86.9946,93.0352 87.4076,92.5052 C87.7516,92.4812 88.0956,92.4582 88.4386,92.4332 C88.0396,92.9432 87.6386,93.4522 87.2336,93.9602 C87.7436,94.6062 88.2586,95.2512 88.7786,95.8912 C88.4166,95.9192 88.0556,95.9452 87.6936,95.9692 C87.3496,95.5372 87.0076,95.1032 86.6676,94.6692" id="Fill-63" fill="#58595B"></path>
            <path d="M95.7594,95.2454 C95.6594,94.3294 95.5584,93.4124 95.4574,92.4964 C95.2424,92.5194 95.0284,92.5434 94.8124,92.5664 C94.7874,92.3314 94.7624,92.0974 94.7374,91.8614 C95.2474,91.8074 95.7574,91.7504 96.2684,91.6924 C96.3994,92.8424 96.5314,93.9924 96.6624,95.1434 C96.3624,95.1774 96.0614,95.2114 95.7594,95.2454" id="Fill-65" fill="#58595B"></path>
            <path d="M101.4127,92.1922 C101.3767,91.9382 101.1797,91.7352 100.8207,91.7852 C100.5017,91.8292 100.3257,92.0332 100.3687,92.3522 C100.4087,92.6462 100.6167,92.7932 100.9377,92.7482 C101.2847,92.7002 101.4517,92.4722 101.4127,92.1922 M99.8797,94.4902 C99.9687,94.2722 100.0567,94.0542 100.1427,93.8352 C100.3647,93.9502 100.6417,93.9932 100.9147,93.9562 C101.4797,93.8782 101.7037,93.4902 101.6137,92.9292 C101.4797,93.1822 101.2187,93.3592 100.8247,93.4142 C100.1297,93.5092 99.6297,93.1252 99.5417,92.4572 C99.4467,91.7302 99.9047,91.2022 100.6887,91.0932 C101.6227,90.9652 102.2847,91.5312 102.4397,92.5842 C102.6007,93.6752 102.0617,94.4812 101.0627,94.6202 C100.6687,94.6752 100.2017,94.6272 99.8797,94.4902" id="Fill-67" fill="#58595B"></path>
            <path d="M106.1061,91.2639 C106.1471,91.5079 106.3501,91.6149 106.6731,91.5599 C106.9991,91.5049 107.1551,91.3369 107.1131,91.0939 C107.0691,90.8399 106.8671,90.7309 106.5421,90.7849 C106.2201,90.8399 106.0641,91.0109 106.1061,91.2639 M106.2581,92.7269 C106.3051,93.0149 106.5431,93.1399 106.9301,93.0749 C107.3191,93.0089 107.5071,92.8159 107.4561,92.5239 C107.4091,92.2409 107.1661,92.1189 106.7791,92.1839 C106.3941,92.2489 106.2101,92.4449 106.2581,92.7269 M107.8461,90.9149 C107.8981,91.2129 107.7801,91.5049 107.5311,91.6979 C107.9421,91.7859 108.2411,92.0699 108.3071,92.4509 C108.4171,93.0619 107.9211,93.5539 107.0371,93.7039 C106.1531,93.8539 105.5241,93.5589 105.4281,92.9539 C105.3651,92.5629 105.5721,92.1889 105.9511,91.9669 C105.6291,91.8539 105.3951,91.6119 105.3471,91.3139 C105.2581,90.7679 105.6881,90.3439 106.4411,90.2159 C107.2041,90.0869 107.7471,90.3569 107.8461,90.9149" id="Fill-69" fill="#58595B"></path>
            <path d="M113.3756,89.8343 C113.4506,90.2003 113.2516,90.6403 112.9486,91.0943 C112.7626,91.3863 112.5746,91.6773 112.3866,91.9673 C112.8796,91.8693 113.3706,91.7693 113.8626,91.6673 C113.9106,91.8953 113.9576,92.1223 114.0036,92.3483 C113.1266,92.5313 112.2506,92.7063 111.3716,92.8763 C111.3356,92.6913 111.3006,92.5043 111.2636,92.3183 C111.5996,91.8093 111.9326,91.3003 112.2606,90.7913 C112.4146,90.5533 112.5086,90.2973 112.4786,90.1433 C112.4386,89.9493 112.2716,89.8623 112.0236,89.9123 C111.7406,89.9683 111.4266,90.2003 111.1606,90.5293 C111.0096,90.3433 110.8586,90.1593 110.7076,89.9733 C111.0826,89.5693 111.5206,89.2873 112.0146,89.1883 C112.6986,89.0523 113.2646,89.2983 113.3756,89.8343" id="Fill-71" fill="#58595B"></path>
        </g>
    </g>
</svg>