<?xml version="1.0" encoding="UTF-8"?>
<svg width="166px" height="87px" viewBox="0 0 166 87" version="1.1" xmlns="http://www.w3.org/2000/svg" xmlns:xlink="http://www.w3.org/1999/xlink">
    <!-- Generator: Sketch 49 (51002) - http://www.bohemiancoding.com/sketch -->
    <title>vintage-logo-4</title>
    <desc>Created with Sketch.</desc>
    <defs>
        <polygon id="path-1" points="0.0004 0.5973 165.545 0.5973 165.545 44.9053 0.0004 44.9053"></polygon>
        <polygon id="path-3" points="0 87.4026 165.545 87.4026 165.545 0.9996 0 0.9996"></polygon>
    </defs>
    <g id="Page-1" stroke="none" stroke-width="1" fill="none" fill-rule="evenodd">
        <g id="vintage-logo-4" transform="translate(0.000000, -1.000000)">
            <g id="Group-3" transform="translate(0.000000, 0.402600)">
                <mask id="mask-2" fill="white">
                    <use xlink:href="#path-1"></use>
                </mask>
                <g id="Clip-2"></g>
                <path d="M38.7354,32.3943 L38.7354,30.8103 L34.9654,30.8103 L34.9654,2.1823 L38.1884,2.1823 L38.1884,0.5973 L33.9824,0.5973 C31.1964,0.5973 29.0104,1.5813 27.3164,3.4933 C25.6234,5.4593 24.3114,7.5903 23.3284,9.9393 C23.1104,10.4313 22.8914,10.9233 22.7274,11.4153 C22.5634,11.9063 22.3994,12.3433 22.2364,12.8353 C22.0724,12.7813 21.8534,12.7813 21.6894,12.7263 C21.5254,12.6713 21.3074,12.6713 21.1434,12.6713 C20.9244,12.6173 20.7064,12.6173 20.5424,12.6173 L19.9964,12.6173 C17.2104,12.6173 14.6964,13.4913 12.5104,15.2943 C10.3264,17.0973 9.0694,19.5553 8.7964,22.5603 C8.7414,22.7243 8.7414,22.8333 8.7414,22.9973 L8.7414,23.5433 C8.7414,25.8383 9.3974,27.9693 10.7084,29.8813 C11.9644,31.8483 13.6584,33.3233 15.6794,34.3613 C14.6414,36.6013 13.4394,38.4583 12.0744,39.8793 C10.6534,41.3543 8.9054,42.0643 6.7744,42.0643 L6.5554,42.0643 L6.3384,42.0643 C5.1354,41.9553 4.0434,41.5183 3.0594,40.8083 C2.0764,40.0973 1.5844,39.0593 1.5844,37.7483 C1.5844,36.9833 1.8024,36.3283 2.2404,35.7273 C2.6764,35.1803 3.2784,34.8523 4.0434,34.6883 L4.0434,34.7433 L4.0434,34.8523 L4.0434,34.9623 C4.0434,35.0713 4.0434,35.1803 4.0974,35.2903 L4.0974,35.6183 C4.2614,36.1643 4.5894,36.6553 5.0814,37.0933 C5.5174,37.5843 6.0094,37.8033 6.5014,37.8033 C6.6654,37.8033 6.8294,37.7483 6.9934,37.6933 C7.1574,37.6393 7.3214,37.5843 7.4844,37.4753 C7.7574,37.3113 7.9224,37.0933 8.0314,36.8743 C8.0864,36.6553 8.1404,36.4373 8.1954,36.1643 L8.1954,36.0553 L8.1954,35.9453 C8.1404,35.4543 7.9224,35.0173 7.5934,34.5253 C7.2124,34.0883 6.8294,33.7603 6.4474,33.5413 L6.3924,33.4873 L6.2834,33.4873 C6.0094,33.3233 5.6814,33.2133 5.4094,33.1593 C5.0814,33.1043 4.7534,33.0503 4.4794,33.0503 C3.2784,33.0503 2.2404,33.4873 1.3664,34.4153 C0.4374,35.3443 0.0004,36.4373 0.0004,37.7483 C0.0004,39.5513 0.7104,41.0263 2.1314,42.0643 C3.4964,43.1023 5.0814,43.6483 6.7744,43.6483 C9.2884,43.6483 11.3644,42.8293 13.0034,41.2453 C14.6414,39.6603 16.0074,37.5843 17.1004,35.0173 C17.4824,35.1253 17.8104,35.2353 18.1934,35.2903 C18.5754,35.3993 18.9034,35.5083 19.2864,35.5633 C19.6134,35.6183 19.9414,35.6183 20.3244,35.6723 C20.7064,35.7273 21.0344,35.7273 21.4164,35.7813 L21.4164,34.1973 C20.8154,34.1973 20.1604,34.1423 19.5584,34.0333 C18.9584,33.9243 18.3024,33.7603 17.7014,33.5413 C18.4114,31.7383 19.0124,29.9363 19.5584,28.0783 C20.0504,26.2203 20.5964,24.3633 21.0894,22.5053 C21.4164,21.1943 21.7444,19.8833 22.1274,18.5723 C22.5084,17.3153 22.8914,16.0043 23.2744,14.7483 C24.2574,15.0753 25.1864,15.5123 26.1154,16.1133 C26.9894,16.7143 27.7544,17.4793 28.4644,18.2993 C29.4474,19.5003 30.1034,20.7573 30.4854,22.0143 C30.8134,23.3253 30.9774,24.6913 30.9774,26.0573 L30.9774,30.8103 L26.9894,30.8103 L26.9894,32.3943 L38.7354,32.3943 Z M21.7444,14.3653 C21.3614,15.5123 21.0344,16.6053 20.7604,17.7523 C20.4324,18.8993 20.1054,19.9923 19.8324,21.1403 C19.7774,21.3033 19.7774,21.4133 19.7224,21.5223 C19.6684,21.6863 19.6684,21.7953 19.6134,21.9593 C19.1224,23.8163 18.6304,25.6743 18.1384,27.4773 C17.5914,29.3343 16.9914,31.1383 16.2814,32.8863 C14.5324,32.0123 13.1124,30.7553 12.0194,29.0613 C10.9264,27.3683 10.3814,25.5653 10.3264,23.5983 L10.3264,23.3793 C10.3264,23.3253 10.3264,23.2163 10.3814,23.1063 L10.3814,22.8883 L10.3814,22.6693 C10.5984,20.1023 11.6364,18.0253 13.5484,16.4963 C15.4064,14.9663 17.5374,14.2013 19.9414,14.2013 L20.8704,14.2013 C21.1434,14.2563 21.4704,14.3103 21.7444,14.3653 Z M30.9234,19.0633 C30.1034,17.6983 29.1204,16.4963 27.8634,15.4573 C26.6064,14.4743 25.2414,13.7643 23.7654,13.2723 C24.5854,10.8143 25.5684,8.6283 26.7154,6.7713 C27.8634,4.9133 29.2294,3.6023 30.9234,2.8373 L30.9234,19.0633 Z M53.5964,29.1163 L52.0124,29.1163 L52.0124,29.3893 C51.9584,29.4983 51.9034,29.6083 51.8484,29.7713 C51.7944,29.9363 51.7394,30.1003 51.6304,30.2633 C51.4654,30.4273 51.3564,30.5373 51.1924,30.5373 C51.0834,30.5373 51.0284,30.5373 51.0284,30.4823 L50.9744,30.3183 L50.9744,30.2633 L50.9744,23.4893 C50.9744,22.9973 50.8654,22.5053 50.6464,22.0683 C50.4274,21.6863 50.1544,21.3033 49.7724,21.0303 C49.3894,20.7573 49.0074,20.4843 48.5704,20.3203 C48.0784,20.1563 47.6414,20.1023 47.1494,20.1023 C46.8224,20.1023 46.4944,20.1563 46.1664,20.2113 C45.8394,20.2653 45.5104,20.3743 45.2374,20.4843 C44.8004,20.6483 44.3634,20.8113 43.9814,21.0853 C43.5984,21.3583 43.2154,21.6863 42.8884,22.0683 C42.6154,21.3583 42.2324,20.8663 41.7414,20.5393 C41.1944,20.2653 40.6484,20.1023 40.0474,20.1023 L39.9934,20.1023 L39.8834,20.1023 C39.0644,20.1563 38.3534,20.4293 37.6984,20.9763 C37.0434,21.5773 36.7144,22.3413 36.7144,23.3253 L38.2984,23.3253 C38.2984,23.0523 38.3534,22.7783 38.5174,22.5053 C38.6274,22.2873 38.7914,22.1233 39.0094,21.9593 L39.0644,21.9043 L39.1194,21.9043 L39.2274,21.9043 L39.2824,22.0143 L39.3914,22.0683 L39.3914,22.1783 L39.3914,32.3943 L43.1614,32.3943 L43.1614,24.7453 C43.2154,24.3633 43.3804,24.0353 43.5984,23.7073 C43.8174,23.3793 44.0904,23.1063 44.3634,22.8333 C44.4184,22.7783 44.4724,22.7243 44.5824,22.6153 C44.6914,22.5603 44.8004,22.4513 44.9644,22.3963 L45.0734,22.2873 L45.1284,22.2873 C45.2924,22.1783 45.4014,22.0683 45.5654,21.9593 C45.7294,21.9043 45.7844,21.8503 45.8394,21.9043 L46.0574,21.8503 L46.1664,21.8503 C46.4394,21.8503 46.6584,21.9043 46.8774,22.0143 C47.0414,22.1783 47.1494,22.3963 47.1494,22.6693 L47.1494,29.1163 C47.1494,30.0453 47.4774,30.8103 48.1324,31.4113 C48.7344,32.0123 49.4994,32.3393 50.3734,32.3393 C51.2474,32.3393 52.0124,32.0123 52.6684,31.4113 C53.2684,30.8103 53.5964,30.0453 53.5964,29.1163 Z M68.0754,1.6903 C67.6934,1.3083 67.3104,0.9793 66.8734,0.8163 C66.3814,0.6523 65.9444,0.5973 65.4534,0.5973 C64.5244,0.5973 63.6504,0.9253 62.8314,1.6353 C62.0104,2.3463 61.6294,3.2743 61.6294,4.4213 L61.6294,12.6173 L61.6294,20.9213 C61.4104,20.7573 61.1914,20.6483 60.9724,20.5393 C60.7554,20.4293 60.5364,20.3203 60.3174,20.2653 C60.0444,20.2113 59.8264,20.2113 59.6074,20.1563 C59.3884,20.1023 59.1704,20.1023 58.9514,20.1023 C57.4764,20.0473 56.2194,20.6483 55.1274,21.9043 C54.0344,23.1613 53.4884,24.6363 53.4884,26.2203 C53.4884,27.9143 54.0344,29.3343 55.1814,30.5373 C56.2744,31.7383 57.5314,32.3393 58.9514,32.3943 C59.5524,32.3943 60.0984,32.2853 60.7004,32.0663 C61.2464,31.9023 61.7934,31.5753 62.2844,31.0833 C62.5574,31.4653 62.8844,31.7383 63.2674,31.9023 C63.5954,32.1213 63.9224,32.2303 64.3054,32.2853 L64.5244,32.3393 L64.7434,32.3393 C65.5624,32.3393 66.3274,32.0663 67.0374,31.4653 C67.6934,30.8643 68.0204,30.1003 68.0204,29.1163 L66.4914,29.1163 L66.4914,29.2253 L66.4914,29.3343 C66.4364,29.4983 66.3814,29.7173 66.2724,29.8813 C66.1634,30.0453 66.0534,30.2083 65.9444,30.3183 C65.7814,30.4273 65.6724,30.4823 65.5624,30.4823 C65.3984,30.5373 65.3434,30.4273 65.3434,30.2633 L65.3434,16.1683 L65.3434,2.1823 L65.4534,2.1823 L65.5074,2.1823 C65.7814,2.1823 66.0534,2.2363 66.3274,2.3463 C66.6004,2.5093 66.8184,2.6733 66.9824,2.8373 L68.0754,1.6903 Z M61.6294,29.4983 C61.4644,29.6633 61.2464,29.8813 61.0274,30.0453 C60.8094,30.2083 60.5904,30.3733 60.3174,30.4823 L60.2084,30.4823 L60.0984,30.5373 L59.9894,30.5913 L59.8804,30.5913 C59.6074,30.5913 59.3344,30.4823 59.0604,30.2633 C58.7884,30.0453 58.6244,29.8263 58.4604,29.6083 L58.4054,29.4983 L58.3504,29.4443 C58.0774,29.0613 57.9134,28.5703 57.7504,28.0233 C57.5864,27.4773 57.5314,26.8763 57.5314,26.2203 L57.5314,25.8383 C57.5314,25.7293 57.5314,25.6203 57.5864,25.4563 C57.6404,24.5823 57.9134,23.7623 58.2964,23.0523 C58.6784,22.3413 59.2244,21.9593 59.8264,21.9593 C60.0984,21.9043 60.4264,21.9593 60.7004,22.1233 C60.9724,22.2873 61.3004,22.6153 61.6294,22.9973 L61.6294,29.4983 Z M75.5604,29.1163 L73.9764,29.1163 C73.9764,29.3893 73.9224,29.6083 73.8124,29.8263 C73.6484,30.1003 73.4854,30.3183 73.2664,30.4823 L73.1574,30.5373 L72.9934,30.4273 L72.8834,30.2633 L72.8834,20.4293 L69.1694,20.4293 L69.1694,29.1163 C69.1694,30.0453 69.4974,30.8103 70.0974,31.4113 C70.6984,32.0123 71.4644,32.3393 72.3384,32.3393 C73.2124,32.3393 73.9764,32.0123 74.6314,31.4113 C75.2334,30.8103 75.5604,30.0453 75.5604,29.1163 Z M73.4304,13.3813 C73.4304,12.6713 73.2124,12.1253 72.7194,11.6333 C72.2284,11.1423 71.6814,10.9233 71.0264,10.9233 C70.3164,10.9233 69.7694,11.1423 69.3334,11.6333 C68.8404,12.1253 68.6224,12.6713 68.6224,13.3813 C68.6224,14.0373 68.8404,14.5833 69.3334,15.0753 C69.7694,15.5673 70.3164,15.7863 71.0264,15.7863 C71.6814,15.7863 72.2284,15.5673 72.7194,15.0753 C73.2124,14.5833 73.4304,14.0373 73.4304,13.3813 Z M88.1814,2.1823 L88.1814,0.5973 L76.3814,0.5973 L76.3814,2.1823 L80.2594,2.1823 L80.2594,34.1973 C80.2594,34.6343 80.2594,35.0713 80.2054,35.5633 C80.1504,36.0553 80.0414,36.5463 79.9314,37.0383 C79.6034,38.6223 78.9484,40.0433 78.0194,41.2993 C77.0904,42.6103 75.7244,43.2663 74.0314,43.3213 L73.9764,43.3213 C73.8124,43.3213 73.7034,43.3213 73.5394,43.2663 C73.3764,43.2663 73.2664,43.2663 73.1024,43.2113 C72.0644,42.9933 71.0814,42.4473 70.2074,41.5723 C69.3334,40.6983 68.8954,39.7153 68.8954,38.6223 L68.8954,38.1853 C68.8954,38.0213 68.9504,37.8573 69.0054,37.6933 C69.1694,37.9673 69.3874,38.1853 69.6054,38.3493 C69.8244,38.5133 70.0434,38.6773 70.2614,38.7313 C70.3714,38.7863 70.4804,38.8413 70.6434,38.8413 C70.8074,38.8953 70.9174,38.8953 71.0264,38.8953 C71.5174,38.8953 71.9004,38.7313 72.2284,38.4583 C72.5554,38.1853 72.7194,37.8573 72.7194,37.4203 C72.7194,37.1473 72.6654,36.8743 72.6104,36.6013 C72.5014,36.3283 72.3384,36.0553 72.0644,35.7813 C71.7914,35.3993 71.4634,35.1253 71.1904,34.9623 C70.8624,34.7983 70.5344,34.7433 70.2614,34.7433 C69.5504,34.7433 68.8954,35.0713 68.3494,35.6723 C67.8024,36.3283 67.4754,37.0383 67.3664,37.8033 C67.3114,37.9123 67.3114,38.0213 67.3114,38.0763 L67.3114,38.3493 C67.3114,40.3713 68.0214,41.9553 69.4964,43.0483 C70.9714,44.1953 72.5554,44.7963 74.3594,44.9053 L74.5774,44.9053 L74.7964,44.9053 C77.4724,44.9053 79.6034,43.8673 81.1884,41.8463 C82.7174,39.8243 83.7014,37.6393 84.1384,35.1803 C84.1934,34.6883 84.2484,34.2513 84.3024,33.8143 C84.3564,33.3773 84.3564,32.9403 84.3564,32.5033 L84.3564,17.3153 L84.3564,2.1823 L88.1814,2.1823 Z M100.3654,29.1163 L98.8354,29.1163 C98.8354,29.3893 98.7804,29.6083 98.6724,29.8813 C98.5074,30.1543 98.3434,30.3183 98.1254,30.4823 L98.0704,30.4823 L97.9614,30.5373 L97.7974,30.4273 L97.6884,30.2633 L97.6884,25.3463 L97.6884,20.4293 L95.8844,20.4293 L93.9724,20.4293 L93.9724,21.0303 C93.5364,20.7573 93.0984,20.4843 92.6074,20.3203 C92.1154,20.1563 91.6244,20.1023 91.1314,20.1023 C90.4224,20.1023 89.7664,20.2653 89.0554,20.5393 C88.3454,20.8663 87.7454,21.3583 87.2534,21.9593 C86.7614,22.5603 86.3794,23.2163 86.1054,23.9263 C85.8334,24.6363 85.7234,25.4013 85.7234,26.1663 C85.6694,26.9853 85.8334,27.7503 86.1054,28.4603 C86.3794,29.2253 86.7614,29.9363 87.2534,30.5373 C87.7454,31.1383 88.3454,31.5753 89.0554,31.8483 C89.7664,32.1753 90.4224,32.3393 91.1314,32.3393 C91.7334,32.3943 92.3344,32.2853 92.9344,32.0123 C93.5364,31.7933 94.0824,31.4653 94.5744,30.9743 C94.9014,31.4653 95.2844,31.7933 95.7214,32.0123 C96.1584,32.2303 96.5954,32.3393 97.0874,32.3393 C97.9064,32.3393 98.6724,32.0663 99.3814,31.4653 C100.0374,30.8643 100.3654,30.1003 100.3654,29.1163 Z M93.9724,29.2803 C93.7004,29.6633 93.3724,29.9363 93.0444,30.1543 C92.7164,30.4273 92.3884,30.5373 92.0604,30.5373 C91.7884,30.5373 91.5694,30.4273 91.2964,30.2633 C91.0224,30.1003 90.8044,29.8263 90.5314,29.4443 C90.2574,29.0073 90.0934,28.5153 89.9844,27.9693 C89.8214,27.4223 89.7664,26.8763 89.7664,26.2753 C89.7664,25.6743 89.8214,25.0733 89.9844,24.5273 C90.0934,23.9803 90.2574,23.4893 90.5314,22.9973 C90.6954,22.7243 90.9134,22.4513 91.1864,22.2323 C91.4604,22.0143 91.7334,21.9043 92.0604,21.8503 L92.2794,21.8503 L92.4984,21.9593 C92.7714,22.1233 93.0444,22.2873 93.3174,22.4513 C93.5904,22.6693 93.8084,22.8883 93.9724,23.1613 L93.9724,29.2803 Z M111.8934,29.8813 L110.5824,29.0073 C110.3094,29.3343 110.0904,29.6083 109.8724,29.8263 C109.6534,30.1003 109.4354,30.2633 109.2164,30.4273 C109.0524,30.4823 108.8344,30.5913 108.6704,30.6463 C108.4524,30.7003 108.2334,30.7553 108.0144,30.7553 C107.1954,30.7553 106.5394,30.2633 106.1024,29.3343 C105.6654,28.4063 105.4474,27.4223 105.4474,26.2753 L105.4474,26.1113 C105.5014,25.1283 105.6654,24.1993 106.0484,23.3253 C106.3764,22.5053 106.8674,21.9593 107.5774,21.7953 L107.5224,22.0143 L107.5224,22.2323 C107.5224,22.6153 107.6314,22.9423 107.8504,23.2703 C108.0144,23.6533 108.2884,23.9263 108.5604,24.0903 C108.6154,24.1443 108.7244,24.1993 108.8344,24.2533 L109.0524,24.4173 C109.2164,24.4723 109.4354,24.5273 109.5984,24.5823 C109.7624,24.6363 109.8724,24.6363 110.0364,24.6363 C110.5274,24.6363 110.9644,24.4723 111.3474,24.0903 C111.6744,23.7623 111.8394,23.3793 111.8394,22.8883 L111.8394,22.5603 C111.7844,22.5053 111.7844,22.3963 111.7294,22.2873 C111.6744,22.0683 111.5654,21.8503 111.4024,21.6313 C111.2384,21.4673 111.0744,21.2483 110.8004,21.0853 C110.6364,20.9763 110.4724,20.8663 110.3094,20.7573 C110.0904,20.7033 109.8724,20.5933 109.7084,20.5393 C109.5444,20.4843 109.4354,20.4293 109.2714,20.3743 C109.1074,20.3203 108.9434,20.3203 108.7794,20.2653 C108.6704,20.2113 108.5604,20.2113 108.4524,20.1563 L108.1244,20.1563 C107.9604,20.1023 107.8504,20.1023 107.7414,20.1023 L107.4144,20.1023 C106.5934,20.1023 105.8294,20.2653 105.0094,20.5393 C104.1904,20.8113 103.4804,21.3033 102.8794,21.9043 C102.3334,22.3963 101.8954,22.9423 101.6224,23.5433 C101.2954,24.1443 101.0764,24.8003 101.0214,25.4013 C100.9664,25.5653 100.9664,25.6743 100.9664,25.7833 L100.9664,26.1663 C100.9664,27.7503 101.5674,29.1703 102.7694,30.4273 C103.9174,31.7383 105.4474,32.3943 107.3594,32.3943 C108.3974,32.3943 109.2714,32.1753 109.9814,31.7383 C110.6914,31.3563 111.2934,30.7003 111.8934,29.8813 Z M126.4264,29.1163 L124.8424,29.1163 L124.8424,29.3893 C124.7884,29.4983 124.7884,29.6083 124.7334,29.7173 C124.6784,29.8813 124.5694,30.0453 124.4604,30.2083 C124.3504,30.3733 124.2414,30.4823 124.0774,30.5373 L123.9684,30.4823 L123.8594,30.4273 L123.7504,30.3183 C123.4764,28.5153 122.6574,27.0403 121.3454,25.8383 C120.0344,24.6913 118.5054,23.9803 116.7564,23.7623 C117.1384,23.1613 117.6314,22.6693 118.1764,22.2873 C118.7234,21.9043 119.3244,21.6863 120.0344,21.6863 L120.1434,21.6863 L120.1984,21.6863 C120.1434,21.7953 120.1434,21.9043 120.1434,22.0143 C120.0894,22.1233 120.0894,22.2323 120.0894,22.3413 C120.0894,22.9423 120.3074,23.4893 120.7454,23.9803 C121.1814,24.4723 121.6734,24.7453 122.2194,24.8543 L122.3834,24.8543 L122.4934,24.8543 C122.7664,24.8543 122.9844,24.8003 123.2574,24.6363 C123.4764,24.5273 123.6404,24.3633 123.8044,24.0903 L123.9684,23.7623 C124.0224,23.6533 124.0224,23.5433 124.0224,23.4343 L124.0774,23.2703 L124.0774,23.1063 L124.0774,22.9423 L124.0774,22.8333 C124.0224,22.4513 123.8594,22.0683 123.6404,21.6863 C123.3674,21.3033 123.0934,21.0303 122.7664,20.8663 C122.4934,20.7033 122.2744,20.5393 122.0024,20.4293 C121.7284,20.3743 121.4004,20.2653 121.1274,20.2113 C120.9644,20.2113 120.8544,20.2113 120.7454,20.1563 L120.3074,20.1563 C119.5434,20.1563 118.7784,20.3203 118.0674,20.6483 C117.3574,21.0303 116.7024,21.5223 116.1554,22.1233 L116.1554,2.1823 L116.2644,2.1823 L116.3194,2.1823 C116.5924,2.1823 116.8664,2.2363 117.1384,2.3463 C117.4124,2.5093 117.6314,2.6733 117.7954,2.8373 L118.8874,1.6903 C118.5054,1.3083 118.1224,0.9793 117.6854,0.8163 C117.1934,0.6523 116.7564,0.5973 116.2644,0.5973 C115.3364,0.5973 114.4624,0.9253 113.6424,1.6353 C112.8234,2.3463 112.4404,3.2743 112.4404,4.4213 L112.4404,32.3943 L116.2104,32.3943 L116.2104,25.5103 C116.9214,25.8383 117.5214,26.3303 118.1224,26.9853 C118.6694,27.6413 119.1604,28.3513 119.5434,29.0613 C119.7074,29.3343 119.8164,29.5533 119.9804,29.7713 C120.1434,30.0453 120.2534,30.2633 120.3624,30.5373 C120.6354,31.1383 121.0724,31.5753 121.5644,31.8483 C122.0554,32.1753 122.5484,32.3393 123.1484,32.3393 C123.9684,32.3393 124.7334,32.0663 125.4434,31.4653 C126.0984,30.9193 126.4264,30.1543 126.4264,29.1163 Z M136.7534,28.9523 C136.7534,28.1333 136.4244,27.3683 135.7694,26.7673 C135.0594,26.1663 134.2944,25.6203 133.4744,25.0193 C133.3104,24.9093 133.1474,24.7453 132.8744,24.5823 C132.6004,24.4173 132.3814,24.1993 132.1094,23.9803 L131.9454,23.8713 L131.7814,23.7073 C131.4534,23.4343 131.1804,23.2163 130.9074,22.9423 C130.6334,22.7243 130.5244,22.5603 130.5244,22.4513 C130.5244,22.2323 130.6334,22.0683 130.8524,21.9043 C131.0714,21.7953 131.2894,21.7403 131.5624,21.6863 L131.7814,21.6863 L131.8904,21.6863 L132.0544,21.6863 L132.1644,21.6863 L132.2734,21.7403 L132.3814,21.7403 L132.3814,21.8503 L132.3274,22.0143 L132.2734,22.1233 L132.2734,22.2873 L132.2734,22.3413 L132.2734,22.4513 C132.3274,23.0523 132.5464,23.5983 133.0384,24.0903 C133.4744,24.5823 134.0214,24.8543 134.6224,24.8543 L134.6764,24.8543 C135.1694,24.8003 135.5504,24.6363 135.8244,24.2533 C136.0974,23.9263 136.2074,23.5433 136.2074,23.0523 L136.2074,22.8883 L136.2074,22.7783 L136.2074,22.6153 L136.1524,22.5053 C135.9884,21.7953 135.5504,21.2483 134.9504,20.8663 C134.3484,20.4843 133.6934,20.2653 132.9834,20.1563 C132.8194,20.1563 132.6004,20.1563 132.4364,20.1023 L131.8904,20.1023 L131.3434,20.1023 C131.1264,20.1563 130.9074,20.2113 130.6884,20.2653 C129.8694,20.4293 129.1594,20.8113 128.5034,21.3033 C127.8474,21.8503 127.5194,22.5603 127.5194,23.3793 C127.5194,23.9803 127.7384,24.5273 128.1754,25.0193 C128.6124,25.5103 129.1044,26.0023 129.7054,26.4943 C129.8694,26.5483 129.9784,26.6583 130.1424,26.7673 C130.2524,26.8763 130.3604,26.9853 130.5244,27.0953 C130.6884,27.2043 130.9074,27.3683 131.1804,27.5323 C131.4534,27.7503 131.7264,27.9693 132.0004,28.2423 L132.2184,28.3513 L132.3814,28.5153 C132.7104,28.7883 132.9834,29.0613 133.2564,29.3343 C133.5294,29.6083 133.6384,29.7713 133.6384,29.9363 L133.6384,30.0453 L133.5844,30.2083 L133.4744,30.3183 L133.3104,30.4823 C133.2024,30.5373 133.0924,30.5913 132.9284,30.6463 C132.7644,30.7003 132.5464,30.7003 132.3814,30.7553 L132.2734,30.7553 L132.0544,30.7553 C131.8904,30.8103 131.7814,30.8103 131.6174,30.7553 C131.4534,30.7553 131.2894,30.7553 131.1264,30.7003 L131.2354,30.4823 L131.2894,30.2633 L131.3434,30.0453 L131.3434,29.8263 L131.3434,29.7173 L131.3434,29.6633 C131.2894,29.0613 131.0714,28.4603 130.5794,27.9143 C130.0884,27.4223 129.5414,27.1493 128.9404,27.1493 L128.8854,27.1493 L128.7764,27.1493 C128.2854,27.2043 127.9024,27.3683 127.6294,27.6953 C127.3554,28.0783 127.1924,28.4603 127.1924,28.9523 L127.1924,29.0613 L127.1924,29.2253 L127.2474,29.3893 L127.2474,29.5533 C127.4104,30.2633 127.8474,30.8103 128.4484,31.1923 C129.0494,31.6293 129.7594,31.9573 130.4694,32.1213 C130.7434,32.1753 130.9624,32.2303 131.2354,32.2853 C131.5074,32.3393 131.7264,32.3393 132.0004,32.3393 L132.1094,32.3393 L132.1644,32.3393 L132.1644,32.3943 C132.3814,32.3943 132.6004,32.3943 132.8194,32.3393 C133.0384,32.2853 133.2564,32.2853 133.5294,32.2303 C134.3484,32.0123 135.0594,31.6293 135.7694,31.0833 C136.4244,30.5373 136.7534,29.8263 136.7534,28.9523 Z M148.6084,26.2203 C148.6084,24.6913 148.1164,23.2703 147.1334,22.0143 C146.0954,20.7573 144.7844,20.1023 143.1444,20.1023 C141.5064,20.1023 140.1944,20.7573 139.2114,22.0143 C138.1734,23.2703 137.6814,24.6913 137.6814,26.2203 L137.6814,26.2753 L137.6814,26.3843 C137.7364,27.8593 138.2274,29.2253 139.2654,30.4823 C140.2494,31.7383 141.5604,32.3943 143.1444,32.3943 C144.7294,32.3943 146.0414,31.7383 147.0794,30.4823 C148.0624,29.2253 148.5534,27.8593 148.6084,26.3843 L148.6084,26.2753 L148.6084,26.2203 Z M145.8774,29.4983 C145.7134,29.7173 145.4944,29.9363 145.2204,30.1003 C144.9484,30.2633 144.6204,30.3733 144.3464,30.3733 C143.6364,30.3733 143.0904,30.1003 142.7624,29.5533 C142.4344,29.0073 142.2154,28.4063 142.1074,27.7503 C142.0524,27.4773 142.0524,27.2043 142.0524,26.9313 C141.9984,26.6583 141.9984,26.4393 141.9984,26.2203 C141.9984,25.5103 142.0524,24.8543 142.2154,24.3083 C142.3254,23.8163 142.4894,23.3793 142.7084,23.0523 C142.8724,22.7783 143.0364,22.6153 143.1994,22.4513 C143.3634,22.3413 143.5274,22.2323 143.6914,22.1783 C143.7464,22.1233 143.8554,22.1233 143.9644,22.0683 L144.1824,22.0683 C144.8934,22.0143 145.5484,22.4513 146.1494,23.3253 C146.6964,24.1993 146.9694,25.1833 147.0244,26.3303 L147.0244,26.6583 C147.0244,26.7673 147.0244,26.8763 146.9694,26.9853 C146.9154,27.4223 146.8054,27.8593 146.6414,28.2963 C146.4774,28.7333 146.2044,29.1163 145.8774,29.4983 Z M165.5454,29.1163 L163.9614,29.1163 L163.9614,29.3893 C163.9064,29.4983 163.8514,29.6083 163.7974,29.7713 C163.7424,29.9363 163.6874,30.1003 163.5784,30.2633 C163.4144,30.4273 163.3054,30.5373 163.1414,30.5373 C163.0324,30.5373 162.9774,30.5373 162.9774,30.4823 L162.9234,30.3183 L162.9234,30.2633 L162.9234,23.4893 C162.9234,22.9973 162.8134,22.5053 162.5944,22.0683 C162.3774,21.6863 162.1034,21.3033 161.7204,21.0303 C161.3394,20.7573 160.9564,20.4843 160.5184,20.3203 C160.0274,20.1563 159.5894,20.1023 159.0984,20.1023 C158.7704,20.1023 158.4434,20.1563 158.1154,20.2113 C157.7874,20.2653 157.4594,20.3743 157.1864,20.4843 C156.7494,20.6483 156.3124,20.8113 155.9294,21.0853 C155.5474,21.3583 155.1654,21.6863 154.8374,22.0683 C154.5634,21.3583 154.1814,20.8663 153.6894,20.5393 C153.1434,20.2653 152.5964,20.1023 151.9964,20.1023 L151.9414,20.1023 L151.8324,20.1023 C151.0124,20.1563 150.3024,20.4293 149.6464,20.9763 C148.9914,21.5773 148.6634,22.3413 148.6634,23.3253 L150.2484,23.3253 C150.2484,23.0523 150.3024,22.7783 150.4664,22.5053 C150.5754,22.2873 150.7394,22.1233 150.9584,21.9593 L151.0124,21.9043 L151.0674,21.9043 L151.1764,21.9043 L151.2314,22.0143 L151.3404,22.0683 L151.3404,22.1783 L151.3404,32.3943 L155.1104,32.3943 L155.1104,24.7453 C155.1654,24.3633 155.3294,24.0353 155.5474,23.7073 C155.7654,23.3793 156.0394,23.1063 156.3124,22.8333 C156.3674,22.7783 156.4224,22.7243 156.5304,22.6153 C156.6394,22.5603 156.7494,22.4513 156.9134,22.3963 L157.0224,22.2873 L157.0774,22.2873 C157.2414,22.1783 157.3504,22.0683 157.5134,21.9593 C157.6774,21.9043 157.7324,21.8503 157.7874,21.9043 L158.0064,21.8503 L158.1154,21.8503 C158.3884,21.8503 158.6064,21.9043 158.8254,22.0143 C158.9894,22.1783 159.0984,22.3963 159.0984,22.6693 L159.0984,29.1163 C159.0984,30.0453 159.4264,30.8103 160.0824,31.4113 C160.6824,32.0123 161.4484,32.3393 162.3224,32.3393 C163.1964,32.3393 163.9614,32.0123 164.6164,31.4113 C165.2174,30.8103 165.5454,30.0453 165.5454,29.1163 Z" id="Fill-1" fill="#58595B" mask="url(#mask-2)"></path>
            </g>
            <path d="M135.3838,48.3521 C148.1818,48.6831 174.8168,60.0481 148.8288,60.6931 C106.1958,61.7281 54.1308,49.5021 15.5138,65.3951 C12.5978,61.5941 9.6808,57.7891 6.7658,53.9861 C53.2228,43.5081 99.2058,57.9721 145.9678,59.1921 C174.1478,59.8951 145.0548,50.5631 135.3838,48.3521 C137.3518,48.4001 135.3838,48.3521 135.3838,48.3521" id="Fill-4" fill="#58595B"></path>
            <path d="M97.0987,46.5039 C97.0987,45.9809 96.8897,45.4919 96.4707,45.1079 C96.0177,44.7239 95.5297,44.3759 95.0057,43.9919 C94.9007,43.9219 94.7957,43.8169 94.6217,43.7119 C94.4477,43.6079 94.3077,43.4679 94.1327,43.3289 L94.0287,43.2589 L93.9237,43.1539 C93.7147,42.9799 93.5397,42.8399 93.3657,42.6659 C93.1917,42.5259 93.1207,42.4209 93.1207,42.3519 C93.1207,42.2119 93.1917,42.1079 93.3307,42.0029 C93.4707,41.9329 93.6097,41.8979 93.7847,41.8629 L93.9237,41.8629 L93.9937,41.8629 L94.0987,41.8629 L94.1677,41.8629 L94.2387,41.8979 L94.3077,41.8979 L94.3077,41.9679 L94.2727,42.0719 L94.2387,42.1419 L94.2387,42.2469 L94.2387,42.2819 L94.2387,42.3519 C94.2727,42.7349 94.4117,43.0839 94.7267,43.3989 C95.0057,43.7119 95.3547,43.8869 95.7387,43.8869 L95.7737,43.8869 C96.0867,43.8519 96.3307,43.7469 96.5057,43.5029 C96.6807,43.2939 96.7497,43.0489 96.7497,42.7349 L96.7497,42.6309 L96.7497,42.5609 L96.7497,42.4559 L96.7147,42.3859 C96.6107,41.9329 96.3307,41.5839 95.9477,41.3399 C95.5637,41.0949 95.1457,40.9559 94.6917,40.8859 C94.5867,40.8859 94.4477,40.8859 94.3427,40.8509 L93.9937,40.8509 L93.6447,40.8509 C93.5047,40.8859 93.3657,40.9209 93.2257,40.9559 C92.7027,41.0609 92.2487,41.3049 91.8297,41.6189 C91.4117,41.9679 91.2027,42.4209 91.2027,42.9449 C91.2027,43.3289 91.3417,43.6769 91.6207,43.9919 C91.9007,44.3059 92.2137,44.6199 92.5977,44.9339 C92.7027,44.9679 92.7727,45.0379 92.8767,45.1079 C92.9477,45.1779 93.0167,45.2479 93.1207,45.3169 C93.2257,45.3869 93.3657,45.4919 93.5397,45.5969 C93.7147,45.7359 93.8887,45.8759 94.0637,46.0499 L94.2027,46.1199 L94.3077,46.2249 C94.5167,46.3989 94.6917,46.5729 94.8667,46.7479 C95.0397,46.9219 95.1107,47.0269 95.1107,47.1319 L95.1107,47.2019 L95.0757,47.3059 L95.0057,47.3759 L94.9007,47.4809 C94.8307,47.5159 94.7617,47.5499 94.6567,47.5859 C94.5517,47.6199 94.4117,47.6199 94.3077,47.6549 L94.2387,47.6549 L94.0987,47.6549 C93.9937,47.6899 93.9237,47.6899 93.8197,47.6549 C93.7147,47.6549 93.6097,47.6549 93.5047,47.6199 L93.5757,47.4809 L93.6097,47.3409 L93.6447,47.2019 L93.6447,47.0619 L93.6447,46.9919 L93.6447,46.9579 C93.6097,46.5729 93.4707,46.1899 93.1567,45.8409 C92.8417,45.5269 92.4937,45.3519 92.1097,45.3519 L92.0747,45.3519 L92.0047,45.3519 C91.6907,45.3869 91.4467,45.4919 91.2727,45.7009 C91.0977,45.9449 90.9937,46.1899 90.9937,46.5039 L90.9937,46.5729 L90.9937,46.6779 L91.0277,46.7829 L91.0277,46.8879 C91.1327,47.3409 91.4117,47.6899 91.7947,47.9339 C92.1787,48.2129 92.6327,48.4229 93.0867,48.5269 C93.2607,48.5629 93.4007,48.5969 93.5757,48.6319 C93.7487,48.6669 93.8887,48.6669 94.0637,48.6669 L94.1327,48.6669 L94.1677,48.6669 L94.1677,48.7019 C94.3077,48.7019 94.4477,48.7019 94.5867,48.6669 C94.7267,48.6319 94.8667,48.6319 95.0397,48.5969 C95.5637,48.4579 96.0177,48.2129 96.4707,47.8639 C96.8897,47.5159 97.0987,47.0619 97.0987,46.5039 Z M102.1417,46.6079 L101.1297,46.6079 C101.1297,46.7829 101.0947,46.9219 101.0257,47.0969 C100.9207,47.2719 100.8167,47.3759 100.6767,47.4809 L100.6417,47.5159 L100.5717,47.4809 L100.4667,47.4109 L100.4327,47.3409 L100.4327,45.9449 L100.4327,44.5849 L100.4327,43.2239 L100.4327,41.8629 L102.0367,41.8629 L102.0367,40.8509 L100.4327,40.8509 L100.4327,34.9889 L98.0247,34.9889 L98.0247,40.8509 L97.0477,40.8509 L97.0477,41.8629 L98.0247,41.8629 L98.0247,46.6079 C98.0247,47.2019 98.2347,47.6899 98.6527,48.0739 C99.0357,48.4579 99.5257,48.6669 100.0827,48.6669 C100.6417,48.6669 101.1297,48.4579 101.5487,48.0739 C101.9327,47.6899 102.1417,47.2019 102.1417,46.6079 Z M111.6337,46.6429 L110.6217,46.6429 C110.6217,46.8179 110.5867,46.9579 110.5177,47.1319 C110.4477,47.3059 110.3427,47.4109 110.1677,47.4809 L110.1337,47.5159 L110.0987,47.5159 L110.0637,47.5159 L109.9587,47.4809 L109.9587,47.4109 L109.9587,47.3409 L109.9587,40.8509 L107.5167,40.8509 L107.5167,46.1899 C107.3417,46.5039 107.1327,46.7479 106.8537,46.9919 C106.5747,47.2359 106.2607,47.4109 105.9467,47.5159 L105.8417,47.5499 L105.7717,47.5499 L105.7027,47.5499 L105.6327,47.5499 C105.4937,47.5159 105.3877,47.4809 105.2837,47.3759 C105.1787,47.3059 105.1097,47.2019 105.1097,47.0619 L105.1097,40.8509 L102.6667,40.8509 L102.6667,46.5389 C102.6667,46.8529 102.7367,47.1319 102.8757,47.3759 C102.9807,47.6549 103.1557,47.8999 103.3997,48.0739 C103.6437,48.2829 103.9227,48.4229 104.2367,48.5269 C104.5157,48.6319 104.7947,48.6669 105.1097,48.6669 C105.5977,48.7019 106.0857,48.5969 106.5397,48.3529 C106.9937,48.1439 107.4117,47.8639 107.7607,47.5499 C107.9357,47.9339 108.2147,48.2479 108.5287,48.4229 C108.8427,48.5969 109.1917,48.7019 109.5397,48.7019 C110.0637,48.7019 110.5517,48.5269 111.0057,48.1439 C111.4247,47.7599 111.6337,47.2719 111.6337,46.6429 Z M120.9687,29.0919 C120.7247,28.8479 120.4807,28.6389 120.2017,28.5339 C119.8877,28.4289 119.6087,28.3949 119.2937,28.3949 C118.7017,28.3949 118.1427,28.6039 117.6197,29.0579 C117.0957,29.5109 116.8517,30.1049 116.8517,30.8369 L116.8517,36.0709 L116.8517,41.3749 C116.7117,41.2699 116.5727,41.1999 116.4337,41.1299 C116.2937,41.0609 116.1547,40.9909 116.0147,40.9559 C115.8397,40.9209 115.7007,40.9209 115.5607,40.8859 C115.4207,40.8509 115.2817,40.8509 115.1417,40.8509 C114.2007,40.8169 113.3977,41.1999 112.6997,42.0029 C112.0017,42.8049 111.6537,43.7469 111.6537,44.7589 C111.6537,45.8409 112.0017,46.7479 112.7347,47.5159 C113.4327,48.2829 114.2357,48.6669 115.1417,48.7019 C115.5257,48.7019 115.8747,48.6319 116.2587,48.4929 C116.6077,48.3879 116.9557,48.1789 117.2707,47.8639 C117.4457,48.1089 117.6547,48.2829 117.8987,48.3879 C118.1087,48.5269 118.3177,48.5969 118.5617,48.6319 L118.7017,48.6669 L118.8407,48.6669 C119.3647,48.6669 119.8527,48.4929 120.3057,48.1089 C120.7247,47.7249 120.9347,47.2359 120.9347,46.6079 L119.9567,46.6079 L119.9567,46.6779 L119.9567,46.7479 C119.9217,46.8529 119.8877,46.9919 119.8177,47.0969 C119.7477,47.2019 119.6777,47.3059 119.6087,47.3759 C119.5037,47.4459 119.4337,47.4809 119.3647,47.4809 C119.2597,47.5159 119.2247,47.4459 119.2247,47.3409 L119.2247,38.3389 L119.2247,29.4059 L119.2937,29.4059 L119.3287,29.4059 C119.5037,29.4059 119.6777,29.4419 119.8527,29.5109 C120.0277,29.6159 120.1667,29.7209 120.2717,29.8249 L120.9687,29.0919 Z M116.8517,46.8529 C116.7467,46.9579 116.6077,47.0969 116.4677,47.2019 C116.3277,47.3059 116.1887,47.4109 116.0147,47.4809 L115.9447,47.4809 L115.8747,47.5159 L115.8047,47.5499 L115.7357,47.5499 C115.5607,47.5499 115.3867,47.4809 115.2117,47.3409 C115.0367,47.2019 114.9327,47.0619 114.8277,46.9219 L114.7927,46.8529 L114.7577,46.8179 C114.5837,46.5729 114.4797,46.2589 114.3737,45.9109 C114.2697,45.5619 114.2357,45.1779 114.2357,44.7589 L114.2357,44.5149 C114.2357,44.4449 114.2357,44.3759 114.2697,44.2709 C114.3047,43.7119 114.4797,43.1889 114.7237,42.7349 C114.9677,42.2819 115.3167,42.0379 115.7007,42.0379 C115.8747,42.0029 116.0837,42.0379 116.2587,42.1419 C116.4337,42.2469 116.6427,42.4559 116.8517,42.6999 L116.8517,46.8529 Z M125.7517,46.6079 L124.7397,46.6079 C124.7397,46.7829 124.7047,46.9219 124.6347,47.0619 C124.5307,47.2359 124.4257,47.3759 124.2857,47.4809 L124.2157,47.5159 L124.1117,47.4459 L124.0417,47.3409 L124.0417,41.0609 L121.6687,41.0609 L121.6687,46.6079 C121.6687,47.2019 121.8777,47.6899 122.2627,48.0739 C122.6467,48.4579 123.1347,48.6669 123.6927,48.6669 C124.2507,48.6669 124.7397,48.4579 125.1587,48.0739 C125.5417,47.6899 125.7517,47.2019 125.7517,46.6079 Z M124.3907,36.5599 C124.3907,36.1059 124.2507,35.7569 123.9377,35.4429 C123.6227,35.1289 123.2747,34.9889 122.8557,34.9889 C122.4017,34.9889 122.0527,35.1289 121.7737,35.4429 C121.4597,35.7569 121.3207,36.1059 121.3207,36.5599 C121.3207,36.9779 121.4597,37.3269 121.7737,37.6409 C122.0527,37.9549 122.4017,38.0949 122.8557,38.0949 C123.2747,38.0949 123.6227,37.9549 123.9377,37.6409 C124.2507,37.3269 124.3907,36.9779 124.3907,36.5599 Z M133.0097,44.7589 C133.0097,43.7819 132.6957,42.8749 132.0677,42.0719 C131.4047,41.2699 130.5677,40.8509 129.5207,40.8509 C128.4737,40.8509 127.6367,41.2699 127.0087,42.0719 C126.3457,42.8749 126.0317,43.7819 126.0317,44.7589 L126.0317,44.7939 L126.0317,44.8639 C126.0667,45.8059 126.3797,46.6779 127.0427,47.4809 C127.6707,48.2829 128.5087,48.7019 129.5207,48.7019 C130.5327,48.7019 131.3697,48.2829 132.0337,47.4809 C132.6617,46.6779 132.9747,45.8059 133.0097,44.8639 L133.0097,44.7939 L133.0097,44.7589 Z M131.2657,46.8529 C131.1607,46.9919 131.0207,47.1319 130.8467,47.2359 C130.6717,47.3409 130.4627,47.4109 130.2877,47.4109 C129.8347,47.4109 129.4857,47.2359 129.2767,46.8879 C129.0677,46.5389 128.9277,46.1549 128.8577,45.7359 C128.8227,45.5619 128.8227,45.3869 128.8227,45.2129 C128.7877,45.0379 128.7877,44.8989 128.7877,44.7589 C128.7877,44.3059 128.8227,43.8869 128.9277,43.5379 C128.9967,43.2239 129.1017,42.9449 129.2417,42.7349 C129.3457,42.5609 129.4517,42.4559 129.5557,42.3519 C129.6607,42.2819 129.7647,42.2119 129.8697,42.1769 L130.0437,42.1079 L130.1837,42.1079 C130.6367,42.0719 131.0557,42.3519 131.4397,42.9099 C131.7877,43.4679 131.9627,44.0959 131.9977,44.8289 L131.9977,45.0379 L131.9627,45.2479 C131.9277,45.5269 131.8587,45.8059 131.7537,46.0849 C131.6497,46.3639 131.4747,46.6079 131.2657,46.8529 Z M139.8507,46.5039 C139.8507,45.9809 139.6407,45.4919 139.2217,45.1079 C138.7687,44.7239 138.2807,44.3759 137.7567,43.9919 C137.6527,43.9219 137.5467,43.8169 137.3727,43.7119 C137.1987,43.6079 137.0587,43.4679 136.8847,43.3289 L136.7797,43.2589 L136.6747,43.1539 C136.4657,42.9799 136.2907,42.8399 136.1167,42.6659 C135.9427,42.5259 135.8717,42.4209 135.8717,42.3519 C135.8717,42.2119 135.9427,42.1079 136.0817,42.0029 C136.2217,41.9329 136.3617,41.8979 136.5357,41.8629 L136.6747,41.8629 L136.7447,41.8629 L136.8497,41.8629 L136.9187,41.8629 L136.9897,41.8979 L137.0587,41.8979 L137.0587,41.9679 L137.0247,42.0719 L136.9897,42.1419 L136.9897,42.2469 L136.9897,42.2819 L136.9897,42.3519 C137.0247,42.7349 137.1627,43.0839 137.4777,43.3989 C137.7567,43.7119 138.1057,43.8869 138.4897,43.8869 L138.5247,43.8869 C138.8377,43.8519 139.0827,43.7469 139.2567,43.5029 C139.4317,43.2939 139.5007,43.0489 139.5007,42.7349 L139.5007,42.6309 L139.5007,42.5609 L139.5007,42.4559 L139.4667,42.3859 C139.3617,41.9329 139.0827,41.5839 138.6997,41.3399 C138.3147,41.0949 137.8967,40.9559 137.4427,40.8859 C137.3377,40.8859 137.1987,40.8859 137.0937,40.8509 L136.7447,40.8509 L136.3957,40.8509 C136.2557,40.8859 136.1167,40.9209 135.9777,40.9559 C135.4537,41.0609 134.9997,41.3049 134.5807,41.6189 C134.1627,41.9679 133.9527,42.4209 133.9527,42.9449 C133.9527,43.3289 134.0927,43.6769 134.3717,43.9919 C134.6517,44.3059 134.9647,44.6199 135.3487,44.9339 C135.4537,44.9679 135.5237,45.0379 135.6277,45.1079 C135.6987,45.1779 135.7677,45.2479 135.8717,45.3169 C135.9777,45.3869 136.1167,45.4919 136.2907,45.5969 C136.4657,45.7359 136.6397,45.8759 136.8147,46.0499 L136.9537,46.1199 L137.0587,46.2249 C137.2687,46.3989 137.4427,46.5729 137.6177,46.7479 C137.7917,46.9219 137.8617,47.0269 137.8617,47.1319 L137.8617,47.2019 L137.8267,47.3059 L137.7567,47.3759 L137.6527,47.4809 C137.5817,47.5159 137.5127,47.5499 137.4087,47.5859 C137.3027,47.6199 137.1627,47.6199 137.0587,47.6549 L136.9897,47.6549 L136.8497,47.6549 C136.7447,47.6899 136.6747,47.6899 136.5707,47.6549 C136.4657,47.6549 136.3617,47.6549 136.2557,47.6199 L136.3267,47.4809 L136.3617,47.3409 L136.3957,47.2019 L136.3957,47.0619 L136.3957,46.9919 L136.3957,46.9579 C136.3617,46.5729 136.2217,46.1899 135.9077,45.8409 C135.5937,45.5269 135.2447,45.3519 134.8607,45.3519 L134.8267,45.3519 L134.7557,45.3519 C134.4417,45.3869 134.1977,45.4919 134.0237,45.7009 C133.8487,45.9449 133.7447,46.1899 133.7447,46.5039 L133.7447,46.5729 L133.7447,46.6779 L133.7797,46.7829 L133.7797,46.8879 C133.8837,47.3409 134.1627,47.6899 134.5467,47.9339 C134.9307,48.2129 135.3837,48.4229 135.8377,48.5269 C136.0117,48.5629 136.1517,48.5969 136.3267,48.6319 C136.5007,48.6669 136.6397,48.6669 136.8147,48.6669 L136.8847,48.6669 L136.9187,48.6669 L136.9187,48.7019 C137.0587,48.7019 137.1987,48.7019 137.3377,48.6669 C137.4777,48.6319 137.6177,48.6319 137.7917,48.5969 C138.3147,48.4579 138.7687,48.2129 139.2217,47.8639 C139.6407,47.5159 139.8507,47.0619 139.8507,46.5039 Z" id="Fill-6" fill="#58595B"></path>
            <mask id="mask-4" fill="white">
                <use xlink:href="#path-3"></use>
            </mask>
            <g id="Clip-9"></g>
            <path d="M27.514,41.1056 L29.67,41.1056 L29.67,40.0596 L27.514,40.0596 L27.514,41.1056 Z M36.341,44.3866 L36.341,43.9276 L35.263,43.9276 L35.263,38.1266 L33.33,38.1266 L33.33,38.5866 L34.091,38.5866 L34.091,43.9276 L32.949,43.9276 L32.949,44.3866 L36.341,44.3866 Z M41.174,43.1346 C41.349,42.8656 41.475,42.5486 41.555,42.2156 C41.634,41.8826 41.681,41.5496 41.681,41.2176 L41.681,41.1536 L41.681,41.0746 C41.665,40.6466 41.586,40.2346 41.443,39.8226 C41.285,39.4266 41.064,39.0776 40.762,38.7766 C40.556,38.5706 40.318,38.3956 40.049,38.2696 C39.779,38.1586 39.494,38.0956 39.193,38.0956 L39.066,38.0956 L38.924,38.1106 C38.306,38.1896 37.814,38.4916 37.449,39.0146 C37.085,39.5376 36.848,40.0916 36.769,40.6946 C36.752,40.7886 36.736,40.8846 36.736,40.9796 C36.721,41.0746 36.721,41.1696 36.721,41.2646 L36.721,41.4236 L36.736,41.5976 L36.769,41.7556 L36.784,41.9466 C36.895,42.5166 37.148,43.0396 37.529,43.5306 C37.909,44.0226 38.416,44.2916 39.034,44.3396 L37.18,47.3976 L38.575,47.3976 L41.174,43.1346 Z M41.206,40.7736 L39.304,43.8956 L39.273,43.8956 L39.209,43.8956 C38.701,43.9116 38.29,43.7216 37.973,43.3406 C37.64,42.9606 37.418,42.5486 37.291,42.0886 L37.243,41.8986 L37.212,41.7246 L39.146,38.5546 L39.177,38.5546 L39.193,38.5546 C39.685,38.5386 40.097,38.7286 40.429,39.0936 C40.762,39.4736 40.983,39.8856 41.11,40.3296 L41.174,40.5516 L41.206,40.7736 Z M46.641,43.6576 C46.91,43.4046 47.116,43.1196 47.243,42.8176 C47.355,42.5166 47.417,42.2156 47.417,41.8986 C47.417,41.4076 47.274,40.9316 46.989,40.5036 C46.704,40.0766 46.292,39.7596 45.77,39.5536 C46.039,39.3786 46.261,39.1726 46.403,38.9036 C46.546,38.6336 46.609,38.3646 46.609,38.0796 L46.609,37.9206 L46.577,37.7936 C46.546,37.6196 46.482,37.4606 46.403,37.2866 C46.324,37.1286 46.213,36.9856 46.07,36.8426 C45.912,36.7006 45.737,36.5736 45.548,36.4946 C45.342,36.4146 45.151,36.3676 44.945,36.3516 L44.866,36.3516 L44.787,36.3516 C44.549,36.3356 44.327,36.3836 44.106,36.4626 C43.867,36.5416 43.661,36.6686 43.487,36.8426 C43.313,37.0176 43.17,37.2076 43.091,37.4136 C42.996,37.6356 42.948,37.8576 42.948,38.0796 C42.948,38.3646 43.027,38.6336 43.17,38.9036 C43.313,39.1726 43.519,39.3786 43.788,39.5536 C43.266,39.7596 42.869,40.0596 42.584,40.4886 C42.282,40.9156 42.14,41.3916 42.14,41.8826 C42.124,42.1996 42.188,42.5166 42.33,42.8176 C42.457,43.1196 42.648,43.4046 42.917,43.6576 C43.17,43.8956 43.455,44.0696 43.788,44.1966 C44.106,44.3236 44.439,44.3866 44.771,44.3866 L44.866,44.3866 L44.945,44.3866 C45.246,44.3716 45.548,44.2916 45.849,44.1646 C46.149,44.0536 46.403,43.8796 46.641,43.6576 Z M46.974,41.8826 C46.974,42.4696 46.752,42.9606 46.309,43.3406 C45.849,43.7366 45.342,43.9276 44.771,43.9276 C44.422,43.9276 44.137,43.7846 43.931,43.5156 C43.725,43.2456 43.566,42.9446 43.472,42.6116 C43.439,42.4846 43.424,42.3586 43.408,42.2316 C43.392,42.1046 43.376,41.9936 43.376,41.8826 C43.376,41.7716 43.392,41.6606 43.408,41.5346 C43.424,41.4236 43.439,41.2966 43.472,41.1696 C43.551,40.8366 43.709,40.5196 43.931,40.2346 C44.137,39.9656 44.422,39.8226 44.771,39.8226 C45.357,39.8226 45.864,40.0126 46.309,40.4086 C46.752,40.8056 46.974,41.2966 46.974,41.8826 Z M46.149,38.0796 C46.149,38.4436 46.007,38.7606 45.737,38.9986 C45.468,39.2516 45.136,39.3786 44.771,39.3786 C44.628,39.3786 44.501,39.2996 44.406,39.1566 C44.312,39.0146 44.232,38.8396 44.185,38.6496 C44.152,38.5386 44.137,38.4436 44.121,38.3326 C44.106,38.2376 44.106,38.1586 44.106,38.0796 C44.106,38.0156 44.121,37.9366 44.137,37.8256 C44.152,37.7146 44.169,37.6196 44.185,37.5086 C44.232,37.3346 44.312,37.1606 44.406,37.0176 C44.501,36.8746 44.628,36.7956 44.771,36.7956 C45.136,36.7956 45.468,36.9226 45.737,37.1606 C46.007,37.3976 46.149,37.7146 46.149,38.0796 Z M51.331,44.3866 L51.331,43.9276 L49.557,43.9276 L51.189,41.3596 L51.173,41.3756 C51.284,41.2016 51.379,41.0266 51.458,40.8206 C51.522,40.6146 51.569,40.4086 51.585,40.2026 L51.585,40.1076 L51.585,40.0286 C51.585,39.7746 51.553,39.5216 51.474,39.2836 C51.395,39.0456 51.268,38.8396 51.094,38.6656 C50.919,38.4916 50.73,38.3486 50.507,38.2536 C50.285,38.1746 50.048,38.1266 49.81,38.1266 L49.699,38.1266 L49.572,38.1426 C49.081,38.2216 48.685,38.4436 48.399,38.8396 C48.099,39.2356 47.939,39.6796 47.924,40.1556 L47.924,40.2026 L48.384,40.2186 C48.384,39.9806 48.431,39.7746 48.511,39.5686 C48.59,39.3626 48.685,39.1886 48.812,39.0456 C48.906,38.9346 49.018,38.8396 49.145,38.7606 C49.255,38.6816 49.382,38.6336 49.509,38.6186 L49.604,38.6016 L49.667,38.6016 L49.778,38.6016 L49.873,38.6336 L50.095,38.7126 L50.285,38.8876 C50.38,38.9986 50.46,39.1096 50.507,39.2356 C50.555,39.3626 50.57,39.4896 50.57,39.6326 C50.57,39.7746 50.555,39.9336 50.507,40.0766 C50.46,40.2186 50.397,40.3616 50.317,40.4726 C50.111,40.8056 49.921,41.1216 49.715,41.4546 C49.509,41.7876 49.287,42.1046 49.081,42.4216 C48.875,42.7546 48.685,43.0716 48.479,43.4046 C48.273,43.7366 48.066,44.0536 47.86,44.3866 L51.331,44.3866 Z M55.182,41.1056 L57.337,41.1056 L57.337,40.0596 L55.182,40.0596 L55.182,41.1056 Z" id="Fill-8" fill="#58595B" mask="url(#mask-4)"></path>
            <path d="M41.712,69.1309 L38.048,69.1309 L38.048,79.4979 L40.362,79.4979 L40.362,76.6059 L41.741,76.6059 C43.269,76.6059 44.411,76.3089 45.167,75.7159 C45.909,75.1229 46.279,74.1879 46.279,72.8979 C46.279,71.6229 45.924,70.6729 45.197,70.0499 C44.471,69.4429 43.299,69.1309 41.712,69.1309 Z M41.919,74.6039 L40.362,74.6039 L40.362,71.1179 L41.682,71.1179 C42.439,71.1179 43.002,71.2369 43.373,71.4889 C43.729,71.7409 43.906,72.1709 43.906,72.7639 C43.906,73.3729 43.774,73.8179 43.491,74.1289 C43.21,74.4409 42.691,74.6039 41.919,74.6039 Z M58.443,69.9459 C57.746,69.3979 56.605,69.1309 54.988,69.1309 L51.058,69.1309 L51.058,79.4979 L53.371,79.4979 L53.371,76.1909 L54.973,76.1909 L57.272,79.4979 L60.119,79.4979 L57.494,75.7899 C58.815,75.3009 59.467,74.2329 59.467,72.5719 C59.467,71.3699 59.126,70.4949 58.443,69.9459 Z M55.063,74.1879 L53.371,74.1879 L53.371,71.1179 L55.107,71.1179 C55.848,71.1179 56.367,71.2219 56.664,71.4299 C56.961,71.6369 57.108,72.0229 57.108,72.5719 C57.108,73.1349 56.961,73.5499 56.679,73.8029 C56.397,74.0549 55.848,74.1879 55.063,74.1879 Z M64.809,69.1309 L64.809,79.4979 L72.447,79.4979 L72.447,77.4509 L67.122,77.4509 L67.122,75.3009 L71.765,75.3009 L71.765,73.3279 L67.122,73.3279 L67.122,71.1929 L72.283,71.1929 L72.283,69.1309 L64.809,69.1309 Z M86.762,79.4979 L89.075,79.4979 L89.075,69.1309 L85.96,69.1309 L83.276,74.8259 L80.607,69.1309 L77.477,69.1309 L77.477,79.4979 L79.79,79.4979 L79.79,72.9719 L82.579,78.6379 L83.958,78.6379 L86.762,72.9719 L86.762,79.4979 Z M94.595,79.4979 L96.909,79.4979 L96.909,69.1309 L94.595,69.1309 L94.595,79.4979 Z M104.593,74.8559 L104.593,69.1309 L102.279,69.1309 L102.279,74.9299 C102.279,76.4279 102.694,77.5699 103.54,78.3859 C104.37,79.2009 105.439,79.6019 106.729,79.6019 C108.019,79.6019 109.087,79.2009 109.917,78.3859 C110.748,77.5849 111.163,76.4279 111.163,74.9299 L111.163,69.1309 L108.85,69.1309 L108.85,74.8559 C108.85,75.6859 108.656,76.3389 108.286,76.8139 C107.9,77.3029 107.381,77.5399 106.729,77.5399 C106.076,77.5399 105.557,77.3029 105.171,76.8139 C104.785,76.3389 104.593,75.6859 104.593,74.8559 Z M125.819,79.4979 L128.133,79.4979 L128.133,69.1309 L125.019,69.1309 L122.334,74.8259 L119.664,69.1309 L116.534,69.1309 L116.534,79.4979 L118.849,79.4979 L118.849,72.9719 L121.637,78.6379 L123.016,78.6379 L125.819,72.9719 L125.819,79.4979 Z" id="Fill-10" fill="#58595B" mask="url(#mask-4)"></path>
            <path d="M56.167,84.8516 L56.167,84.2496 L53.705,84.2496 L53.705,84.8516 L54.588,84.8516 L54.588,87.3666 L55.284,87.3666 L55.284,84.8516 L56.167,84.8516 Z M60.226,84.4956 C60.016,84.3306 59.673,84.2496 59.187,84.2496 L58.005,84.2496 L58.005,87.3666 L58.7,87.3666 L58.7,86.3726 L59.183,86.3726 L59.873,87.3666 L60.729,87.3666 L59.94,86.2516 C60.337,86.1046 60.533,85.7836 60.533,85.2846 C60.533,84.9226 60.431,84.6606 60.226,84.4956 Z M59.209,85.7706 L58.7,85.7706 L58.7,84.8476 L59.223,84.8476 C59.445,84.8476 59.602,84.8786 59.69,84.9406 C59.779,85.0036 59.824,85.1196 59.824,85.2846 C59.824,85.4536 59.779,85.5786 59.695,85.6546 C59.61,85.7306 59.445,85.7706 59.209,85.7706 Z M63.227,85.9716 L63.227,84.2496 L62.531,84.2496 L62.531,85.9936 C62.531,86.4436 62.656,86.7876 62.91,87.0326 C63.16,87.2776 63.481,87.3976 63.869,87.3976 C64.257,87.3976 64.578,87.2776 64.828,87.0326 C65.078,86.7916 65.202,86.4436 65.202,85.9936 L65.202,84.2496 L64.507,84.2496 L64.507,85.9716 C64.507,86.2206 64.449,86.4166 64.337,86.5596 C64.222,86.7066 64.065,86.7786 63.869,86.7786 C63.673,86.7786 63.517,86.7066 63.4,86.5596 C63.285,86.4166 63.227,86.2206 63.227,85.9716 Z M68.257,84.7896 C68.547,84.7896 68.823,84.8926 69.096,85.0976 L69.448,84.5886 C69.292,84.4596 69.113,84.3566 68.903,84.2856 C68.694,84.2136 68.489,84.1786 68.279,84.1786 C67.963,84.1786 67.695,84.2586 67.485,84.4186 C67.271,84.5796 67.165,84.8076 67.165,85.1016 C67.165,85.4006 67.249,85.6146 67.419,85.7526 C67.584,85.8906 67.852,86.0066 68.213,86.0916 C68.44,86.1496 68.596,86.2036 68.672,86.2566 C68.748,86.3146 68.788,86.3856 68.788,86.4796 C68.788,86.5736 68.752,86.6486 68.681,86.7026 C68.605,86.7606 68.507,86.7876 68.378,86.7876 C68.092,86.7876 67.78,86.6406 67.445,86.3456 L67.03,86.8536 C67.428,87.2196 67.869,87.4026 68.364,87.4026 C68.708,87.4026 68.984,87.3136 69.193,87.1396 C69.403,86.9656 69.506,86.7426 69.506,86.4616 C69.506,86.1806 69.426,85.9716 69.261,85.8236 C69.096,85.6766 68.868,85.5696 68.573,85.4946 C68.275,85.4226 68.088,85.3606 68.008,85.3066 C67.923,85.2526 67.883,85.1816 67.883,85.0876 L67.985,84.8696 C68.052,84.8156 68.142,84.7896 68.257,84.7896 Z M73.604,84.8516 L73.604,84.2496 L71.143,84.2496 L71.143,84.8516 L72.026,84.8516 L72.026,87.3666 L72.722,87.3666 L72.722,84.8516 L73.604,84.8516 Z M75.442,84.2496 L75.442,87.3666 L77.739,87.3666 L77.739,86.7516 L76.139,86.7516 L76.139,86.1046 L77.534,86.1046 L77.534,85.5116 L76.139,85.5116 L76.139,84.8696 L77.69,84.8696 L77.69,84.2496 L75.442,84.2496 Z M80.79,84.2496 L79.688,84.2496 L79.688,87.3666 L80.754,87.3666 C81.348,87.3666 81.793,87.2246 82.083,86.9436 C82.373,86.6626 82.516,86.2786 82.516,85.7926 C82.516,85.3066 82.368,84.9276 82.07,84.6556 C81.771,84.3836 81.348,84.2496 80.79,84.2496 Z M80.825,86.7516 L80.384,86.7516 L80.384,84.8556 L80.772,84.8556 C81.124,84.8556 81.388,84.9366 81.562,85.1016 C81.73,85.2666 81.815,85.5026 81.815,85.8106 C81.815,86.1186 81.73,86.3506 81.562,86.5106 C81.388,86.6716 81.143,86.7516 80.825,86.7516 Z M89.226,87.0776 C89.372,86.9126 89.448,86.7206 89.448,86.5016 C89.448,86.3056 89.391,86.1406 89.278,86.0066 C89.163,85.8776 89.007,85.7886 88.815,85.7476 L88.927,85.6946 L89.038,85.6186 C89.194,85.4986 89.274,85.3196 89.274,85.0746 C89.274,84.8736 89.203,84.6916 89.064,84.5306 C88.989,84.4456 88.873,84.3746 88.722,84.3256 C88.565,84.2766 88.383,84.2496 88.173,84.2496 L86.96,84.2496 L86.96,87.3666 L88.324,87.3666 C88.753,87.3666 89.052,87.2686 89.226,87.0776 Z M87.655,84.8386 L87.99,84.8386 C88.195,84.8386 88.342,84.8606 88.427,84.9056 C88.512,84.9496 88.557,85.0386 88.557,85.1776 C88.557,85.3156 88.512,85.4096 88.418,85.4496 C88.324,85.4896 88.177,85.5116 87.985,85.5116 L87.655,85.5116 L87.655,84.8386 Z M87.655,86.0596 L88.065,86.0596 C88.298,86.0596 88.467,86.0826 88.574,86.1266 C88.677,86.1766 88.73,86.2696 88.73,86.4126 C88.73,86.5596 88.682,86.6536 88.583,86.7026 C88.48,86.7516 88.333,86.7786 88.133,86.7786 L87.655,86.7786 L87.655,86.0596 Z M93.582,84.4956 C93.373,84.3306 93.029,84.2496 92.543,84.2496 L91.361,84.2496 L91.361,87.3666 L92.058,87.3666 L92.058,86.3726 L92.539,86.3726 L93.23,87.3666 L94.086,87.3666 L93.297,86.2516 C93.693,86.1046 93.89,85.7836 93.89,85.2846 C93.89,84.9226 93.787,84.6606 93.582,84.4956 Z M92.565,85.7706 L92.058,85.7706 L92.058,84.8476 L92.579,84.8476 C92.802,84.8476 92.958,84.8786 93.047,84.9406 C93.137,85.0036 93.181,85.1196 93.181,85.2846 C93.181,85.4536 93.137,85.5786 93.052,85.6546 C92.967,85.7306 92.802,85.7706 92.565,85.7706 Z M98.894,87.3666 L97.547,84.2496 L96.873,84.2496 L95.526,87.3666 L96.267,87.3666 L96.557,86.6936 L97.863,86.6936 L98.153,87.3666 L98.894,87.3666 Z M97.601,86.0826 L96.82,86.0826 L97.213,85.1776 L97.601,86.0826 Z M102.765,86.2566 L101.234,84.2496 L100.584,84.2496 L100.584,87.3666 L101.279,87.3666 L101.279,85.4136 L102.765,87.3666 L103.46,87.3666 L103.46,84.2496 L102.765,84.2496 L102.765,86.2566 Z M106.657,84.2496 L105.556,84.2496 L105.556,87.3666 L106.621,87.3666 C107.214,87.3666 107.66,87.2246 107.95,86.9436 C108.24,86.6626 108.383,86.2786 108.383,85.7926 C108.383,85.3066 108.235,84.9276 107.937,84.6556 C107.638,84.3836 107.214,84.2496 106.657,84.2496 Z M106.692,86.7516 L106.251,86.7516 L106.251,84.8556 L106.639,84.8556 C106.991,84.8556 107.255,84.9366 107.429,85.1016 C107.598,85.2666 107.683,85.5026 107.683,85.8106 C107.683,86.1186 107.598,86.3506 107.429,86.5106 C107.255,86.6716 107.009,86.7516 106.692,86.7516 Z M111.316,84.7896 C111.606,84.7896 111.883,84.8926 112.155,85.0976 L112.508,84.5886 C112.352,84.4596 112.173,84.3566 111.964,84.2856 C111.754,84.2136 111.549,84.1786 111.339,84.1786 C111.022,84.1786 110.755,84.2586 110.545,84.4186 C110.331,84.5796 110.225,84.8076 110.225,85.1016 C110.225,85.4006 110.309,85.6146 110.479,85.7526 C110.644,85.8906 110.911,86.0066 111.272,86.0916 C111.5,86.1496 111.655,86.2036 111.731,86.2566 C111.808,86.3146 111.848,86.3856 111.848,86.4796 C111.848,86.5736 111.812,86.6486 111.74,86.7026 C111.665,86.7606 111.566,86.7876 111.438,86.7876 C111.151,86.7876 110.84,86.6406 110.505,86.3456 L110.091,86.8536 C110.487,87.2196 110.929,87.4026 111.424,87.4026 C111.768,87.4026 112.044,87.3136 112.253,87.1396 C112.463,86.9656 112.565,86.7426 112.565,86.4616 C112.565,86.1806 112.485,85.9716 112.32,85.8236 C112.155,85.6766 111.928,85.5696 111.634,85.4946 C111.335,85.4226 111.147,85.3606 111.067,85.3066 C110.982,85.2526 110.942,85.1816 110.942,85.0876 L111.045,84.8696 C111.111,84.8156 111.201,84.7896 111.316,84.7896 Z" id="Fill-11" fill="#58595B" mask="url(#mask-4)"></path>
        </g>
    </g>
</svg>