<?xml version="1.0" encoding="UTF-8"?>
<svg width="135px" height="103px" viewBox="0 0 135 103" version="1.1" xmlns="http://www.w3.org/2000/svg" xmlns:xlink="http://www.w3.org/1999/xlink">
    <!-- Generator: Sketch 49 (51002) - http://www.bohemiancoding.com/sketch -->
    <title>vintage-logo-8</title>
    <desc>Created with Sketch.</desc>
    <defs>
        <polygon id="path-1" points="0 0.016624053 6.4415 0.016624053 6.4415 6.7798 0 6.7798"></polygon>
        <polygon id="path-3" points="0.832147622 0.785784053 7.525 0.785784053 7.525 7.58981595 0.832147622 7.58981595"></polygon>
    </defs>
    <g id="Page-1" stroke="none" stroke-width="1" fill="none" fill-rule="evenodd">
        <g id="vintage-logo-8">
            <path d="M28.2412,29.3676 L26.6182,47.9056 C26.5202,48.7826 26.1312,49.5616 25.4172,50.1786 C24.7022,50.7956 23.8902,51.1196 22.9812,51.1526 L24.8972,29.3676 L19.3782,29.3676 L19.1832,31.5426 L20.3192,31.5426 L18.4362,53.3276 L22.7872,53.3276 C24.9292,53.2956 26.8122,52.5156 28.4692,50.9576 C30.0922,49.4316 31.0012,47.5806 31.1952,45.4386 L32.5922,29.3676 L28.2412,29.3676 Z M38.3722,30.0166 C37.9502,29.5946 37.4302,29.3676 36.8132,29.3676 C36.1962,29.3676 35.6782,29.5946 35.2552,30.0166 C34.8332,30.4386 34.6052,30.9586 34.6052,31.5756 C34.6052,32.1916 34.8332,32.7436 35.2552,33.1656 C35.6782,33.5876 36.1962,33.8156 36.8132,33.8156 C37.4302,33.8156 37.9502,33.5876 38.3722,33.1336 C38.7942,32.7116 39.0212,32.1916 39.0212,31.5756 C39.0212,30.9586 38.7942,30.4386 38.3722,30.0166 Z M37.5282,49.2366 L38.5992,36.8026 L33.0482,36.8026 L32.8522,38.9776 L34.0872,38.9776 L33.1782,49.2366 C33.0802,50.5026 33.4372,51.4766 34.3132,52.1916 C35.1902,52.9376 36.3912,53.2956 37.9822,53.2956 L38.6322,53.2956 L38.8262,51.1196 C37.8852,50.9906 37.4302,50.3726 37.5282,49.2366 Z M53.4042,50.9256 C53.2102,50.7626 53.1442,50.3406 53.1772,49.7236 L53.8592,41.5096 C53.9892,39.9186 53.5022,38.6846 52.3652,37.8736 C51.3592,37.1596 49.9632,36.8026 48.1782,36.8026 L40.8402,36.8026 L40.6452,38.9776 L41.8792,38.9776 L40.6122,53.2956 L44.9632,53.2956 L46.2292,38.9776 L47.9822,38.9776 C48.5022,38.9776 48.9242,39.2046 49.2492,39.6596 C49.5092,40.0486 49.6052,40.5036 49.5732,40.9906 L48.7942,49.9836 C48.6962,51.0546 49.0212,51.8986 49.7682,52.5156 C50.4172,53.0356 51.2942,53.2956 52.3652,53.2956 L54.2162,53.2956 L54.4112,51.1196 C53.8592,51.1196 53.5342,51.0546 53.4042,50.9256 Z M62.4642,36.8026 L62.8202,32.9716 L58.4702,32.9716 L58.1452,36.8026 L56.4252,36.8026 L56.2292,38.9776 L57.9502,38.9776 L57.0412,49.2696 C56.9442,50.5676 57.2682,51.5746 58.0482,52.2886 C58.7622,52.9706 59.7362,53.2956 61.0022,53.2956 L62.5282,53.2956 L62.7222,51.0876 C61.7172,50.9906 61.2952,50.3726 61.3912,49.2696 L62.3012,38.9776 L64.1512,38.9776 L64.3462,36.8026 L62.4642,36.8026 Z M76.6522,49.6596 L77.7562,36.8026 L70.2562,36.8026 C68.7952,36.8026 67.4642,37.1916 66.2952,37.9716 C64.9962,38.8476 64.2822,40.0166 64.1522,41.4126 L63.5352,48.6846 C63.4052,50.1136 63.9252,51.2496 65.0612,52.1266 C66.1002,52.9056 67.3662,53.2956 68.8272,53.2956 L69.5092,53.2956 C70.7752,53.2956 71.9122,52.8406 72.8532,51.9636 C73.5352,52.8406 74.6382,53.2956 76.1652,53.2956 L77.6902,53.2956 L77.8862,51.1196 C76.9762,51.0876 76.5542,50.6006 76.6522,49.6596 Z M72.3662,48.6846 C72.3022,49.3666 72.0092,49.9186 71.4892,50.4056 C70.9702,50.8926 70.3862,51.1196 69.7042,51.1196 C68.3412,51.1196 67.7232,50.4056 67.8532,48.9446 L68.5672,40.6006 C68.6652,39.5296 69.1522,38.9776 70.0942,38.9776 L73.2112,38.9776 L72.3662,48.6846 Z M84.2182,36.8026 C82.9512,36.8026 81.8472,37.1266 80.8412,37.7436 C79.7042,38.4576 79.0882,39.3996 78.9902,40.6006 L78.5032,46.1846 C78.4062,47.3866 78.8282,48.3276 79.8342,49.0416 C80.7112,49.6916 81.7502,50.0156 82.9832,50.0156 C83.7302,50.0156 84.3802,50.4706 84.8672,51.4116 C85.3212,52.2236 85.5152,53.0356 85.4512,53.8466 L77.8212,53.8466 L77.5292,57.2556 C77.4312,58.4576 77.8872,59.4306 78.8922,60.1456 C79.7692,60.7626 80.8412,61.0866 82.1072,61.0866 L84.2502,61.0866 C85.5152,61.0866 86.6202,60.7626 87.6262,60.1456 C88.7622,59.3986 89.3802,58.4576 89.4762,57.2556 L89.5742,56.0226 L90.9702,56.0226 L91.1652,53.8466 L89.7692,53.8466 C89.9642,51.8336 89.1842,50.2426 87.4642,49.0746 C88.6002,48.3606 89.2502,47.3866 89.3462,46.1846 L89.8342,40.6006 C89.8992,39.9836 89.8022,39.4316 89.5742,38.9776 L91.3922,38.9776 L91.5872,36.8026 L84.2182,36.8026 Z M84.9972,46.1846 C84.8992,47.3216 84.4772,47.9056 83.7952,47.8726 C83.0812,47.8406 82.7572,47.2886 82.8532,46.1846 L83.3412,40.6006 C83.4382,39.5296 83.8282,38.9776 84.5742,38.9446 C84.8672,38.9446 85.0942,39.0746 85.2892,39.3676 C85.4832,39.6596 85.5492,40.0486 85.5152,40.6006 L84.9972,46.1846 Z M85.1262,57.2556 C85.0612,57.8406 84.8672,58.2946 84.5102,58.6196 C84.1522,58.9766 83.7622,59.1386 83.3412,59.1386 C82.9192,59.1386 82.5612,58.9766 82.2692,58.6196 C81.9772,58.2946 81.8472,57.8406 81.8802,57.2556 L81.9772,56.0226 L85.2562,56.0226 L85.1262,57.2556 Z M100.9702,37.9386 C100.0952,37.1916 98.8932,36.8026 97.3672,36.8026 C95.9062,36.8026 94.5752,37.1916 93.4062,38.0036 C92.1072,38.8796 91.3932,40.0166 91.2632,41.4126 C91.1662,42.7106 91.6852,43.9126 92.8872,45.0486 C91.4912,45.9576 90.7442,47.1596 90.6462,48.6846 C90.5502,50.0156 91.0692,51.1196 92.2052,51.9966 C93.2762,52.8726 94.5112,53.2956 95.9382,53.2956 C97.4322,53.2956 98.6982,52.9056 99.7372,52.1586 C100.8742,51.3146 101.4902,50.1456 101.6202,48.6846 L99.4452,48.6846 C99.3802,49.3996 99.1202,49.9836 98.6342,50.4056 C98.1462,50.8606 97.5952,51.1196 97.0102,51.1526 C96.3282,51.1846 95.8082,50.9906 95.4522,50.5356 C95.0952,50.0806 94.9002,49.5296 94.9002,48.8466 C94.9002,48.1326 95.0952,47.4836 95.4522,46.9316 C95.8082,46.3796 96.2632,46.1196 96.8472,46.1196 L100.8422,46.1196 L101.0362,43.9776 L97.0102,43.9776 C96.0042,43.9776 95.4842,43.2956 95.4842,41.8996 C95.4842,41.0876 95.7122,40.4066 96.1982,39.7886 C96.6532,39.1726 97.2692,38.9126 98.0822,38.9776 C98.6662,39.0426 99.1532,39.3026 99.5752,39.7236 C99.9972,40.1786 100.1592,40.7306 100.0952,41.4126 L102.2692,41.4126 C102.3992,39.9186 101.9772,38.7496 100.9702,37.9386 Z" id="Fill-1" fill="#58595B"></path>
            <path d="M69.2099,56.2675 L68.2689,67.1435 L64.1779,67.1435 L65.1189,56.2675 L59.5669,56.2675 L59.3729,58.4425 L60.6059,58.4425 L58.6899,80.1955 L63.0409,80.1955 L63.9829,69.3195 L68.1059,69.3195 L67.4569,76.8185 C67.3589,77.9225 67.6509,78.7675 68.2689,79.3185 C68.8859,79.9035 69.7299,80.1955 70.8009,80.1955 L72.6509,80.1955 L72.8469,78.0195 C72.0669,78.0195 71.7099,77.6305 71.7739,76.8185 L73.5609,56.2675 L69.2099,56.2675 Z M85.1519,64.8715 C84.1129,64.0915 82.8469,63.7025 81.3859,63.7025 L80.7039,63.7025 C79.2109,63.7025 77.8799,64.0915 76.7429,64.8715 C75.4439,65.7475 74.7309,66.8845 74.6009,68.3125 L73.9509,75.5845 C73.8209,77.0135 74.3409,78.1495 75.4779,79.0265 C76.5159,79.8055 77.7819,80.1955 79.2749,80.1955 L79.9249,80.1955 C81.5159,80.1955 82.8799,79.7405 84.0809,78.8315 C85.2819,77.9545 85.9319,76.8515 86.0279,75.5845 L86.6779,68.3125 C86.8079,66.9165 86.2879,65.7475 85.1519,64.8715 Z M81.7109,75.5845 C81.6459,76.3965 81.4179,76.9815 81.0619,77.4035 C80.6719,77.8255 80.2499,78.0525 79.7949,78.0195 C79.3409,77.9875 78.9509,77.7605 78.6589,77.3385 C78.3659,76.9155 78.2359,76.3315 78.3019,75.5845 L78.9189,68.3125 C78.9829,67.5655 79.2109,66.9495 79.6009,66.4945 C79.9569,66.1045 80.3799,65.9105 80.8339,65.9105 C81.3209,65.9105 81.7109,66.1045 82.0029,66.5265 C82.2949,66.9495 82.3929,67.5335 82.3269,68.3125 L81.7109,75.5845 Z M99.8279,78.0195 L101.0619,63.7025 L96.7109,63.7025 L95.4449,78.0195 L93.8869,78.0195 C93.3349,78.0195 92.9449,77.7925 92.6859,77.3385 C92.3939,76.8835 92.2959,76.3645 92.3279,75.7475 L93.3349,63.7025 L87.8799,63.7025 L87.6859,65.8775 L88.8219,65.8775 L88.0099,75.1955 C87.8479,76.8185 88.3029,78.0845 89.3089,78.9615 C90.2499,79.7735 91.5169,80.1955 93.1399,80.1955 L100.8989,80.1955 L101.0939,78.0195 L99.8279,78.0195 Z M110.8029,79.0595 C109.7309,79.8055 108.4329,80.1955 106.8739,80.1955 L101.7119,80.1955 L101.9069,78.0195 L105.3809,78.0195 C106.7119,78.0195 107.3939,77.3705 107.3939,76.1045 C107.3939,75.3905 107.1659,74.7735 106.6799,74.2215 L104.0819,71.2675 C103.2379,70.2925 102.8149,69.2545 102.8149,68.1175 C102.8149,66.6895 103.3999,65.5855 104.6019,64.7735 C105.6409,64.0595 106.9059,63.7025 108.3669,63.7025 L111.9389,63.7025 L111.7439,65.8775 L109.1799,65.8775 C108.1079,65.8775 107.5559,66.2025 107.5559,66.8515 C107.5559,67.2085 107.6859,67.5335 107.9789,67.8905 L111.1599,71.8185 C112.1339,73.0205 112.6209,74.2865 112.6209,75.5525 C112.6209,77.0135 112.0039,78.1825 110.8029,79.0595 Z M124.0179,64.8385 C123.1409,64.0915 121.9389,63.7025 120.4139,63.7025 C118.9519,63.7025 117.6209,64.0915 116.4529,64.9035 C115.1539,65.7805 114.4389,66.9165 114.3099,68.3125 C114.2129,69.6115 114.7319,70.8125 115.9339,71.9485 C114.5369,72.8575 113.7899,74.0595 113.6929,75.5845 C113.5959,76.9155 114.1149,78.0195 115.2509,78.8965 C116.3229,79.7735 117.5569,80.1955 118.9849,80.1955 C120.4789,80.1955 121.7449,79.8055 122.7829,79.0595 C123.9199,78.2145 124.5369,77.0455 124.6669,75.5845 L122.4909,75.5845 C122.4269,76.2995 122.1669,76.8835 121.6799,77.3055 C121.1919,77.7605 120.6409,78.0195 120.0569,78.0525 C119.3749,78.0845 118.8559,77.8905 118.4979,77.4355 C118.1409,76.9815 117.9459,76.4295 117.9459,75.7475 C117.9459,75.0335 118.1409,74.3835 118.4979,73.8315 C118.8559,73.2795 119.3099,73.0205 119.8949,73.0205 L123.8879,73.0205 L124.0819,70.8775 L120.0569,70.8775 C119.0499,70.8775 118.5299,70.1955 118.5299,68.7995 C118.5299,67.9875 118.7579,67.3065 119.2449,66.6895 C119.6989,66.0725 120.3159,65.8125 121.1279,65.8775 C121.7119,65.9425 122.1989,66.2025 122.6209,66.6245 C123.0429,67.0795 123.2059,67.6305 123.1409,68.3125 L125.3159,68.3125 C125.4459,66.8195 125.0229,65.6505 124.0179,64.8385 Z" id="Fill-3" fill="#58595B"></path>
            <path d="M42.5928,67.1337 L42.1028,72.9667 L38.1328,65.4677 C37.6918,64.6337 37.4958,63.7517 37.4958,62.8207 C37.4958,60.4197 38.6718,59.1937 41.0728,59.1937 L49.0628,59.1937 L49.3568,55.9097 L39.8978,55.9097 C37.5938,55.9097 35.5838,56.5957 33.9178,57.9197 C32.1048,59.3417 31.1728,61.2037 31.1728,63.4577 C31.1728,64.4877 31.3688,65.4677 31.7618,66.3987 C31.9078,66.6927 32.3498,67.5747 33.1828,69.0937 C31.4178,70.5157 30.4388,72.1817 30.2908,74.0937 L29.3598,85.0717 L29.3598,85.6117 C29.3598,87.1307 29.8498,88.4537 30.8788,89.5817 L30.8788,89.5317 C32.3498,91.1987 34.5058,92.0317 37.3488,92.0317 C40.2888,92.0317 42.6418,91.3947 44.4058,90.1207 L45.4358,92.0317 L52.6898,92.0317 L52.9838,88.7477 L50.5328,88.7477 L47.7388,83.5037 L48.8658,70.4177 L53.8658,70.4177 L54.1598,67.1337 L42.5928,67.1337 Z M41.0248,85.0717 C40.9268,86.0037 40.6818,86.7877 40.2398,87.4737 C39.7008,88.3067 38.9658,88.6987 38.1328,88.6987 C36.6628,88.6987 35.9278,87.6697 35.9278,85.6117 L35.9278,85.0717 L36.7118,75.7107 L41.1228,83.9937 L41.0248,85.0717 Z" id="Fill-5" fill="#58595B"></path>
            <path d="M62.8242,86.8666 L62.8242,85.5746 L58.0362,85.5746 L58.0362,92.0326 L59.6782,92.0326 L59.6782,89.6526 L62.5752,89.6526 L62.5752,88.3606 L59.6782,88.3606 L59.6782,86.8666 L62.8242,86.8666 Z M70.2652,92.0326 L72.1292,92.0326 L70.7722,89.9016 C71.5292,89.5226 71.9442,88.8126 71.9442,87.8256 C71.9442,86.3866 70.9672,85.5746 69.2602,85.5746 L66.3732,85.5746 L66.3732,92.0326 L68.0142,92.0326 L68.0142,90.2146 L69.2602,90.2146 L69.3052,90.2146 L70.2652,92.0326 Z M68.0142,88.9236 L68.0142,86.8666 L69.2602,86.8666 C69.9702,86.8666 70.3862,87.2076 70.3862,87.8816 C70.3862,88.5636 69.9702,88.9236 69.2602,88.9236 L68.0142,88.9236 Z M75.8152,92.0316 L77.4572,92.0316 L77.4572,85.5746 L75.8152,85.5746 L75.8152,92.0316 Z M86.5692,86.8666 L86.5692,85.5746 L81.5132,85.5746 L81.5132,92.0326 L86.6712,92.0326 L86.6712,90.7406 L83.1562,90.7406 L83.1562,89.4396 L86.2372,89.4396 L86.2372,88.1486 L83.1562,88.1486 L83.1562,86.8666 L86.5692,86.8666 Z M96.4542,92.0326 L96.4542,85.5746 L94.9232,85.5746 L94.9232,89.5596 L91.9442,85.5746 L90.4962,85.5746 L90.4962,92.0326 L92.0362,92.0326 L92.0362,88.0566 L95.0072,92.0326 L96.4542,92.0326 Z M100.5102,85.5746 L100.5102,92.0326 L103.2212,92.0326 C105.2982,92.0326 106.7182,90.7126 106.7182,88.8036 C106.7182,86.8846 105.3152,85.5746 103.2862,85.5746 L100.5102,85.5746 Z M102.1522,86.8846 L103.2502,86.8846 C104.2922,86.8846 105.0492,87.6686 105.0492,88.8126 C105.0492,89.9476 104.3292,90.7216 103.3232,90.7216 L102.1522,90.7216 L102.1522,86.8846 Z M112.8302,85.5016 C111.2812,85.5016 110.2572,86.2576 110.2572,87.4476 C110.2572,89.7356 113.6702,89.0526 113.6702,90.1966 C113.6702,90.5656 113.3462,90.7596 112.8302,90.7596 C112.1572,90.7596 111.1612,90.3716 110.4972,89.7906 L109.8602,91.0536 C110.6262,91.6816 111.7322,92.0876 112.8122,92.0876 C114.2512,92.0876 115.3942,91.4046 115.3942,90.1136 C115.3942,87.7796 111.9812,88.4156 111.9812,87.2996 C111.9812,86.9866 112.2672,86.8296 112.6922,86.8296 C113.2182,86.8296 114.0762,87.1066 114.7592,87.5026 L115.3762,86.2206 C114.7122,85.7866 113.7622,85.5016 112.8302,85.5016 Z" id="Fill-7" fill="#58595B"></path>
            <g id="Group-11" transform="translate(0.000000, 37.261000)">
                <mask id="mask-2" fill="white">
                    <use xlink:href="#path-1"></use>
                </mask>
                <g id="Clip-10"></g>
                <path d="M1.0185,1.8468 L-0.0005,3.8958 L5.7975,6.7798 L6.4415,5.4858 L4.8245,4.6808 L5.2075,3.9098 C5.6325,3.0548 5.7845,2.3338 5.6635,1.7458 C5.5375,1.1658 5.1185,0.6988 4.3965,0.3398 C3.6835,-0.0142 3.0535,-0.0792 2.5025,0.1538 C1.9605,0.3908 1.4595,0.9598 1.0185,1.8468 M4.1375,3.2528 L3.7045,4.1238 L1.7545,3.1548 L2.1225,2.4158 C2.3325,1.9928 2.5555,1.7108 2.7995,1.5738 C3.0395,1.4448 3.3305,1.4648 3.6625,1.6298 C4.0015,1.7998 4.2135,1.9978 4.3095,2.2418 C4.4055,2.4858 4.3515,2.8218 4.1375,3.2528" id="Fill-9" fill="#58595B" mask="url(#mask-2)"></path>
            </g>
            <path d="M6.5312,30.7104 C6.0072,30.8894 5.4782,31.3974 4.9292,32.2444 L3.5932,34.3034 L9.0262,37.8274 L9.8122,36.6144 L8.0792,35.4904 L8.6232,34.6514 L11.1372,34.5704 L12.1052,33.0784 L9.2702,33.1934 C9.4632,32.3354 9.1252,31.6314 8.2552,31.0664 C7.6252,30.6584 7.0512,30.5394 6.5312,30.7104 M7.6042,33.9244 L7.0302,34.8104 L5.4212,33.7664 L6.0102,32.8574 C6.2622,32.4684 6.4942,32.2314 6.7032,32.1474 C6.9132,32.0624 7.1662,32.1154 7.4532,32.3024 C7.7482,32.4934 7.9162,32.7124 7.9522,32.9454 C7.9882,33.1794 7.8722,33.5124 7.6042,33.9244" id="Fill-12" fill="#58595B"></path>
            <path d="M14.5976,27.1313 C14.6716,27.6773 14.5356,28.1563 14.1906,28.5683 C13.8386,28.9873 13.3906,29.2053 12.8396,29.2273 C12.2966,29.2553 11.8006,29.0813 11.3536,28.7063 C10.9126,28.3373 10.6556,27.8793 10.5806,27.3333 C10.5066,26.7863 10.6426,26.3073 10.9936,25.8883 C11.3396,25.4763 11.7866,25.2593 12.3376,25.2373 C12.8886,25.2153 13.3846,25.3893 13.8256,25.7583 C14.2726,26.1333 14.5306,26.5913 14.5976,27.1313 M14.7726,24.6293 C14.0396,24.0153 13.2206,23.7523 12.3086,23.8453 C11.3956,23.9383 10.6356,24.3543 10.0226,25.0863 C9.4086,25.8173 9.1316,26.6373 9.1996,27.5533 C9.2666,28.4683 9.6686,29.2293 10.4006,29.8423 C11.1316,30.4563 11.9446,30.7143 12.8576,30.6203 C13.7706,30.5273 14.5366,30.1173 15.1506,29.3853 C15.7636,28.6543 16.0336,27.8273 15.9666,26.9123 C15.8996,25.9973 15.5036,25.2423 14.7726,24.6293" id="Fill-14" fill="#58595B"></path>
            <path d="M15.9375,19.0546 L14.2655,20.6186 L18.6925,25.3506 L19.7495,24.3626 L18.5135,23.0426 L19.1435,22.4536 C19.8405,21.8016 20.2355,21.1786 20.3275,20.5846 C20.4125,19.9966 20.1825,19.4126 19.6305,18.8236 C19.0865,18.2416 18.5185,17.9596 17.9205,17.9866 C17.3305,18.0186 16.6625,18.3766 15.9375,19.0546 M18.3695,21.4636 L17.6585,22.1286 L16.1695,20.5376 L16.7725,19.9746 C17.1185,19.6516 17.4255,19.4656 17.7035,19.4216 C17.9725,19.3846 18.2375,19.5056 18.4915,19.7756 C18.7505,20.0536 18.8795,20.3136 18.8835,20.5756 C18.8885,20.8386 18.7215,21.1346 18.3695,21.4636" id="Fill-16" fill="#58595B"></path>
            <polygon id="Fill-18" fill="#58595B" points="20.043 15.4491 23.933 20.6271 27.748 17.7621 26.98 16.7401 24.32 18.7371 23.514 17.6631 25.832 15.9221 25.093 14.9361 22.773 16.6781 21.973 15.6111 24.551 13.6751 23.777 12.6451"></polygon>
            <path d="M30.4043,9.1283 C29.8543,9.0533 29.1543,9.2723 28.2833,9.7853 L26.1663,11.0323 L29.4563,16.6173 L30.7023,15.8833 L29.6533,14.1013 L30.5153,13.5933 L32.8033,14.6453 L34.3383,13.7413 L31.7473,12.5773 C32.3023,11.8943 32.3153,11.1123 31.7883,10.2173 C31.4073,9.5703 30.9453,9.2073 30.4043,9.1283 M29.9283,12.4863 L29.0173,13.0233 L28.0433,11.3693 L28.9783,10.8183 C29.3783,10.5833 29.6903,10.4743 29.9163,10.4923 C30.1413,10.5093 30.3433,10.6703 30.5173,10.9653 C30.6963,11.2693 30.7493,11.5403 30.6763,11.7653 C30.6053,11.9903 30.3513,12.2363 29.9283,12.4863" id="Fill-20" fill="#58595B"></path>
            <polygon id="Fill-22" fill="#58595B" points="37.8887 6.3598 37.3727 5.2208 32.7137 7.3298 33.2297 8.4688 34.9017 7.7128 37.0557 12.4728 38.3717 11.8768 36.2177 7.1168"></polygon>
            <polygon id="Fill-24" fill="#58595B" points="43.5693 7.1664 44.4493 2.7354 42.9643 3.2334 42.4033 5.9634 40.3093 4.1244 38.8243 4.6224 42.1983 7.6264 43.0123 10.0514 44.3833 9.5914"></polygon>
            <path d="M55.1904,5.2861 C54.8864,5.7461 54.4694,6.0171 53.9384,6.0991 C53.3984,6.1831 52.9194,6.0521 52.4904,5.7061 C52.0634,5.3691 51.8044,4.9131 51.7144,4.3361 C51.6274,3.7691 51.7344,3.2561 52.0384,2.7961 C52.3404,2.3361 52.7574,2.0651 53.2974,1.9811 C53.8294,1.8991 54.3084,2.0301 54.7374,2.3761 C55.1664,2.7221 55.4244,3.1781 55.5124,3.7451 C55.6024,4.3221 55.4954,4.8361 55.1904,5.2861 M56.9674,3.5191 C56.8214,2.5771 56.3784,1.8401 55.6304,1.3091 C54.8824,0.7791 54.0384,0.5921 53.0954,0.7381 C52.1524,0.8851 51.4054,1.3201 50.8534,2.0521 C50.3014,2.7851 50.1044,3.6211 50.2514,4.5641 C50.3974,5.5071 50.8384,6.2351 51.5864,6.7651 C52.3354,7.2961 53.1804,7.4921 54.1234,7.3461 C55.0654,7.1991 55.8124,6.7551 56.3644,6.0221 C56.9154,5.2901 57.1144,4.4621 56.9674,3.5191" id="Fill-26" fill="#58595B"></path>
            <polygon id="Fill-28" fill="#58595B" points="59.2012 0.1742 59.4552 6.6422 60.8982 6.5862 60.7992 4.0502 63.6482 3.9382 63.5982 2.6712 60.7492 2.7822 60.6942 1.3852 63.6922 1.2682 63.6422 0.0002"></polygon>
            <path d="M71.0488,5.0502 C70.7338,4.6482 70.6078,4.1392 70.6798,3.5412 C70.7508,2.9442 71.0008,2.4982 71.4298,2.1852 C71.8488,1.8812 72.3298,1.7612 72.8718,1.8272 C73.5428,1.9072 74.0788,2.2612 74.4628,2.8762 L75.4758,1.9712 C74.8638,1.0872 74.0288,0.5762 72.9728,0.4492 C72.0258,0.3352 71.1948,0.5622 70.4668,1.1182 C69.7368,1.6752 69.3108,2.4352 69.1968,3.3822 C69.0818,4.3382 69.3088,5.1672 69.8778,5.8702 C70.4368,6.5712 71.2178,6.9822 72.2108,7.1012 C73.1948,7.2192 74.1088,6.9092 74.9338,6.1782 L74.1278,5.1212 C73.6098,5.6282 73.0068,5.8352 72.2988,5.7502 C71.7828,5.6882 71.3638,5.4512 71.0488,5.0502" id="Fill-30" fill="#58595B"></path>
            <path d="M82.582,9.1488 L81.395,2.1908 L80.035,1.8598 L75.782,7.4928 L77.277,7.8568 L78.194,6.6398 L80.833,7.2818 L81.087,8.7848 L82.582,9.1488 Z M80.602,5.9188 L79.026,5.5348 L80.264,3.8998 L80.602,5.9188 Z" id="Fill-32" fill="#58595B"></path>
            <polygon id="Fill-34" fill="#58595B" points="87.9512 11.0966 88.3882 9.8856 85.7922 8.9456 87.5562 4.0646 86.1972 3.5736 83.9942 9.6656"></polygon>
            <polygon id="Fill-36" fill="#58595B" points="89.6572 11.8564 90.9732 12.4524 93.6442 6.5534 92.3282 5.9574"></polygon>
            <polygon id="Fill-38" fill="#58595B" points="96.2949 7.8207 93.1579 13.4867 94.4219 14.1867 95.6519 11.9667 98.1489 13.3487 98.7639 12.2377 96.2679 10.8557 96.9449 9.6317 99.5709 11.0857 100.1869 9.9757"></polygon>
            <path d="M103.3642,17.7685 C102.8252,17.8835 102.3382,17.7845 101.9012,17.4705 C101.4572,17.1515 101.2072,16.7215 101.1442,16.1745 C101.0752,15.6345 101.2122,15.1275 101.5522,14.6535 C101.8862,14.1865 102.3242,13.8965 102.8622,13.7815 C103.4012,13.6665 103.8882,13.7665 104.3332,14.0845 C104.7692,14.3975 105.0192,14.8285 105.0822,15.3755 C105.1452,15.9225 105.0102,16.4295 104.6752,16.8965 C104.3342,17.3705 103.8972,17.6615 103.3642,17.7685 M105.8712,17.7555 C106.4272,16.9805 106.6292,16.1435 106.4682,15.2415 C106.3062,14.3385 105.8352,13.6125 105.0602,13.0565 C104.2852,12.4995 103.4472,12.2855 102.5402,12.4205 C101.6332,12.5565 100.9042,13.0145 100.3472,13.7895 C99.7912,14.5635 99.5952,15.3935 99.7572,16.2955 C99.9182,17.1985 100.3842,17.9325 101.1592,18.4885 C101.9332,19.0455 102.7772,19.2515 103.6842,19.1165 C104.5922,18.9805 105.3142,18.5305 105.8712,17.7555" id="Fill-40" fill="#58595B"></path>
            <path d="M112.9004,20.4423 C112.8124,19.8943 112.4014,19.2873 111.6594,18.6023 L109.8534,16.9353 L105.4574,21.6973 L106.5194,22.6783 L107.9214,21.1593 L108.6584,21.8383 L108.3114,24.3333 L109.6194,25.5403 L109.9864,22.7243 C110.7994,23.0593 111.5524,22.8453 112.2564,22.0823 C112.7664,21.5303 112.9814,20.9843 112.9004,20.4423 M109.5474,20.9573 L108.7714,20.2393 L110.0734,18.8293 L110.8714,19.5653 C111.2114,19.8803 111.4054,20.1483 111.4544,20.3693 C111.5024,20.5903 111.4064,20.8303 111.1734,21.0823 C110.9344,21.3413 110.6904,21.4683 110.4544,21.4653 C110.2174,21.4613 109.9094,21.2903 109.5474,20.9573" id="Fill-42" fill="#58595B"></path>
            <polygon id="Fill-44" fill="#58595B" points="115.5488 28.8149 116.6798 23.6949 115.8058 22.6629 110.8608 26.8459 111.7938 27.9489 114.8928 25.3279 113.7868 30.3049 114.7208 31.4089 119.6658 27.2259 118.7328 26.1219"></polygon>
            <polygon id="Fill-46" fill="#58595B" points="116.0879 33.3608 116.9129 34.5478 122.2339 30.8518 121.4089 29.6648"></polygon>
            <path d="M121.3027,41.871 L125.5457,36.242 L124.8547,35.027 L117.8477,35.795 L118.6077,37.131 L120.1197,36.963 L121.4607,39.321 L120.5427,40.535 L121.3027,41.871 Z M122.2927,38.22 L121.4917,36.811 L123.5287,36.59 L122.2927,38.22 Z" id="Fill-48" fill="#58595B"></path>
            <path d="M130.1299,46.2421 L129.3589,44.0861 L123.2559,46.2691 L124.0029,48.3551 C124.4179,49.5161 125.0099,50.2901 125.7629,50.6601 C126.5159,51.0311 127.3659,51.0421 128.3179,50.7011 C129.2699,50.3611 129.9079,49.8071 130.2319,49.0321 C130.5559,48.2571 130.5209,47.3331 130.1299,46.2421 M125.2569,48.0641 L124.9479,47.2001 L128.6579,45.8721 L128.9309,46.6321 C129.1769,47.3221 129.2039,47.8931 129.0029,48.3491 C128.7989,48.7961 128.3959,49.1281 127.7929,49.3431 C127.1909,49.5591 126.6769,49.5551 126.2439,49.3361 C125.8079,49.1081 125.4799,48.6841 125.2569,48.0641" id="Fill-50" fill="#58595B"></path>
            <polygon id="Fill-52" fill="#58595B" points="132.0508 52.2621 125.7448 53.7241 126.8218 58.3701 128.0678 58.0811 127.3168 54.8431 128.6248 54.5391 129.2798 57.3631 130.4798 57.0851 129.8238 54.2621 131.1228 53.9601 131.8518 57.0991 133.1058 56.8081"></polygon>
            <path d="M133.8633,61.8876 L133.5913,59.6166 L127.1643,60.3876 L127.3363,61.8226 L129.1293,61.6076 L129.2313,62.4626 C129.3453,63.4096 129.6143,64.0956 130.0383,64.5206 C130.4613,64.9356 131.0683,65.0956 131.8683,65.0006 C132.6593,64.9056 133.2203,64.6136 133.5523,64.1166 C133.8763,63.6206 133.9813,62.8716 133.8633,61.8876 M130.4863,62.4236 L130.3703,61.4586 L132.5313,61.1986 L132.6293,62.0166 C132.6853,62.4866 132.6543,62.8446 132.5253,63.0936 C132.3953,63.3326 132.1413,63.4746 131.7743,63.5186 C131.3973,63.5646 131.1113,63.5146 130.8973,63.3636 C130.6833,63.2116 130.5443,62.9016 130.4863,62.4236" id="Fill-54" fill="#58595B"></path>
            <g id="Group-58" transform="translate(127.000000, 66.261000)">
                <mask id="mask-4" fill="white">
                    <use xlink:href="#path-3"></use>
                </mask>
                <g id="Clip-57"></g>
                <path d="M2.6836,5.5363 C2.2816,5.1593 2.0846,4.7023 2.0936,4.1643 C2.1016,3.6183 2.3126,3.1663 2.7266,2.8023 C3.1306,2.4373 3.6246,2.2603 4.2086,2.2693 C4.7836,2.2783 5.2716,2.4713 5.6736,2.8483 C6.0756,3.2253 6.2726,3.6823 6.2636,4.2293 C6.2556,4.7673 6.0436,5.2183 5.6306,5.5823 C5.2166,5.9473 4.7236,6.1243 4.1486,6.1153 C3.5646,6.1063 3.0766,5.9133 2.6836,5.5363 M4.1246,7.5893 C5.0796,7.6043 5.8816,7.2923 6.5326,6.6443 C7.1816,5.9963 7.5096,5.1953 7.5246,4.2403 C7.5386,3.2863 7.2376,2.4743 6.6076,1.8063 C5.9786,1.1383 5.1866,0.8013 4.2326,0.7863 C3.2776,0.7713 2.4846,1.0833 1.8346,1.7313 C1.1846,2.3793 0.8476,3.1813 0.8326,4.1353 C0.8186,5.0903 1.1296,5.9013 1.7586,6.5693 C2.3876,7.2373 3.1706,7.5743 4.1246,7.5893" id="Fill-56" fill="#58595B" mask="url(#mask-4)"></path>
            </g>
            <polygon id="Fill-59" fill="#58595B" points="132.3916 80.7592 133.6346 80.9002 134.2116 75.8162 132.9686 75.6752 132.7616 77.4992 127.5676 76.9082 127.4046 78.3452 132.5986 78.9352"></polygon>
            <path d="M31.0937,99.5019 L31.0937,98.8209 L28.4267,98.8209 L28.4267,102.2269 L31.1477,102.2269 L31.1477,101.5459 L29.2927,101.5459 L29.2927,100.8589 L30.9187,100.8589 L30.9187,100.1779 L29.2927,100.1779 L29.2927,99.5019 L31.0937,99.5019 Z M34.4697,98.7819 C33.6527,98.7819 33.1127,99.1809 33.1127,99.8089 C33.1127,101.0149 34.9117,100.6549 34.9117,101.2589 C34.9117,101.4529 34.7417,101.5559 34.4697,101.5559 C34.1147,101.5559 33.5887,101.3509 33.2387,101.0439 L32.9027,101.7109 C33.3067,102.0419 33.8907,102.2559 34.4597,102.2559 C35.2187,102.2559 35.8227,101.8959 35.8227,101.2149 C35.8227,99.9839 34.0217,100.3189 34.0217,99.7309 C34.0217,99.5649 34.1727,99.4819 34.3967,99.4819 C34.6737,99.4819 35.1267,99.6279 35.4867,99.8369 L35.8127,99.1609 C35.4617,98.9329 34.9607,98.7819 34.4697,98.7819 Z M40.3517,99.5169 L40.3517,98.8159 L37.4417,98.8159 L37.4417,99.5169 L38.4587,99.5169 L38.4587,102.2269 L39.3247,102.2269 L39.3247,99.5169 L40.3517,99.5169 Z M44.0737,101.5989 L44.3177,102.2269 L45.2417,102.2269 L43.8067,98.8209 L42.9157,98.8209 L41.4467,102.2269 L42.3367,102.2269 L42.5847,101.5989 L44.0737,101.5989 Z M43.8217,100.9419 L42.8377,100.9419 L43.3337,99.6819 L43.8217,100.9419 Z M47.0107,98.8209 L47.0107,102.2269 L48.6807,102.2269 C49.4837,102.2269 49.9897,101.8619 49.9897,101.2829 C49.9897,100.8399 49.7167,100.5039 49.2877,100.4209 C49.6487,100.3189 49.8717,100.0319 49.8717,99.6719 C49.8717,99.1509 49.3857,98.8209 48.6217,98.8209 L47.0107,98.8209 Z M47.8717,99.4819 L48.5727,99.4819 C48.8257,99.4819 48.9877,99.6089 48.9877,99.8279 C48.9877,100.0469 48.8257,100.1829 48.5727,100.1829 L47.8717,100.1829 L47.8717,99.4819 Z M47.8717,100.8059 L48.5727,100.8059 C48.8947,100.8059 49.0937,100.9469 49.0937,101.1759 C49.0937,101.4189 48.8947,101.5609 48.5727,101.5609 L47.8717,101.5609 L47.8717,100.8059 Z M52.8107,101.5019 L52.8107,98.8209 L51.9447,98.8209 L51.9447,102.2269 L54.2557,102.2269 L54.2557,101.5019 L52.8107,101.5019 Z M56.1237,102.2269 L56.9897,102.2269 L56.9897,98.8209 L56.1237,98.8209 L56.1237,102.2269 Z M60.4357,98.7819 C59.6177,98.7819 59.0777,99.1809 59.0777,99.8089 C59.0777,101.0149 60.8787,100.6549 60.8787,101.2589 C60.8787,101.4529 60.7077,101.5559 60.4357,101.5559 C60.0807,101.5559 59.5547,101.3509 59.2047,101.0439 L58.8687,101.7109 C59.2727,102.0419 59.8567,102.2559 60.4257,102.2559 C61.1857,102.2559 61.7887,101.8959 61.7887,101.2149 C61.7887,99.9839 59.9887,100.3189 59.9887,99.7309 C59.9887,99.5649 60.1387,99.4819 60.3637,99.4819 C60.6407,99.4819 61.0927,99.6279 61.4527,99.8369 L61.7797,99.1609 C61.4287,98.9329 60.9277,98.7819 60.4357,98.7819 Z M66.8587,102.2269 L66.8587,98.8209 L65.9917,98.8209 L65.9917,100.2219 L64.5807,100.2219 L64.5807,98.8209 L63.7147,98.8209 L63.7147,102.2269 L64.5807,102.2269 L64.5807,100.9029 L65.9917,100.9029 L65.9917,102.2269 L66.8587,102.2269 Z M71.6587,99.5019 L71.6587,98.8209 L68.9917,98.8209 L68.9917,102.2269 L71.7127,102.2269 L71.7127,101.5459 L69.8587,101.5459 L69.8587,100.8589 L71.4837,100.8589 L71.4837,100.1779 L69.8587,100.1779 L69.8587,99.5019 L71.6587,99.5019 Z M73.7257,98.8209 L73.7257,102.2269 L75.1567,102.2269 C76.2507,102.2269 77.0007,101.5309 77.0007,100.5239 C77.0007,99.5119 76.2607,98.8209 75.1907,98.8209 L73.7257,98.8209 Z M74.5917,99.5119 L75.1707,99.5119 C75.7207,99.5119 76.1197,99.9249 76.1197,100.5289 C76.1197,101.1269 75.7397,101.5359 75.2097,101.5359 L74.5917,101.5359 L74.5917,99.5119 Z M82.6837,102.2269 L82.6837,98.8159 L81.1907,98.8159 L81.1907,99.5119 L81.8177,99.5119 L81.8177,102.2269 L82.6837,102.2269 Z M85.9297,102.2609 C86.8887,102.2609 87.5067,101.5559 87.5067,100.4699 C87.5067,99.4239 86.9517,98.7769 86.0367,98.7769 C85.2687,98.7769 84.7617,99.2339 84.7617,99.9549 C84.7617,100.6159 85.1907,101.0539 85.8627,101.0539 C86.2407,101.0539 86.5137,100.9179 86.6747,100.6889 C86.6847,101.2489 86.4217,101.5939 85.8767,101.5939 C85.6147,101.5939 85.3557,101.5169 85.1607,101.3759 L84.8297,101.9789 C85.1167,102.1539 85.5507,102.2609 85.9297,102.2609 Z M86.0567,100.4209 C85.7447,100.4209 85.5657,100.2519 85.5657,99.9599 C85.5657,99.6429 85.7597,99.4679 86.0717,99.4679 C86.4217,99.4679 86.5817,99.6919 86.5817,99.9449 C86.5817,100.2219 86.3927,100.4209 86.0567,100.4209 Z M91.7347,99.5069 L91.7347,98.8209 L89.5007,98.8209 L89.5007,100.7429 C89.7097,100.7279 90.2497,100.7179 90.4257,100.7179 C90.7617,100.7179 90.9557,100.8739 90.9557,101.1419 C90.9557,101.4339 90.7617,101.5989 90.4257,101.5989 C90.1187,101.5989 89.8127,101.4529 89.5597,101.1809 L89.2137,101.8379 C89.5697,102.0909 90.0797,102.2609 90.5277,102.2609 C91.3507,102.2609 91.8857,101.7989 91.8857,101.0839 C91.8857,100.4749 91.3737,100.0569 90.5957,100.0569 L90.2887,100.0569 L90.2887,99.5069 L91.7347,99.5069 Z M94.9847,98.7819 C94.4977,98.7819 94.0307,98.9719 93.6027,99.2929 L93.9287,99.9159 C94.2397,99.6479 94.5797,99.4819 94.8577,99.4819 C95.1017,99.4819 95.2417,99.5989 95.2417,99.7939 C95.2417,99.9499 95.1057,100.1779 94.9157,100.3779 L93.6987,101.6679 L93.6987,102.2269 L96.2497,102.2269 L96.2497,101.5409 L94.8147,101.5409 L95.5047,100.8059 C95.8747,100.4259 96.1477,100.0419 96.1477,99.6719 C96.1477,99.1319 95.6607,98.7819 94.9847,98.7819 Z" id="Fill-61" fill="#58595B"></path>
            <path d="M71.209,15.435 C70.099,15.435 69.139,15.738 68.331,16.344 C67.473,17.025 66.993,17.909 66.893,19.045 L65.907,30.457 C65.832,31.391 66.109,32.199 66.791,32.855 C67.397,33.436 68.18,33.815 69.139,33.966 C69.442,34.017 69.973,34.042 70.755,34.042 C71.739,34.042 72.623,33.688 73.406,32.981 C74.163,32.274 74.593,31.441 74.668,30.457 L72.977,30.457 C72.926,30.987 72.699,31.441 72.32,31.795 C71.916,32.148 71.462,32.351 70.957,32.375 C70.427,32.401 70.022,32.274 69.72,31.997 C69.341,31.643 69.189,31.139 69.266,30.457 L70.301,18.616 C70.326,18.187 70.478,17.808 70.704,17.53 C70.932,17.253 71.209,17.126 71.513,17.126 L75.426,17.126 L75.577,15.435 L71.209,15.435 Z M85.577,31.214 L86.436,21.216 L80.604,21.216 C79.468,21.216 78.433,21.519 77.523,22.125 C76.514,22.807 75.958,23.716 75.857,24.802 L75.378,30.457 C75.276,31.568 75.681,32.451 76.564,33.133 C77.372,33.739 78.356,34.042 79.493,34.042 L80.023,34.042 C81.008,34.042 81.892,33.688 82.624,33.007 C83.153,33.688 84.012,34.042 85.199,34.042 L86.386,34.042 L86.537,32.351 C85.83,32.325 85.502,31.946 85.577,31.214 Z M82.245,30.457 C82.194,30.987 81.967,31.416 81.563,31.795 C81.159,32.174 80.705,32.351 80.175,32.351 C79.114,32.351 78.635,31.795 78.735,30.659 L79.291,24.17 C79.367,23.337 79.745,22.908 80.478,22.908 L82.901,22.908 L82.245,30.457 Z M89.848,31.492 C89.545,31.189 89.166,31.038 88.736,31.038 C88.308,31.038 87.929,31.189 87.651,31.492 C87.348,31.795 87.196,32.174 87.196,32.603 C87.196,33.032 87.348,33.386 87.651,33.688 C87.954,33.991 88.308,34.143 88.736,34.143 C89.166,34.143 89.545,33.991 89.848,33.688 C90.15,33.386 90.302,33.032 90.302,32.603 C90.302,32.174 90.15,31.795 89.848,31.492 Z" id="Fill-63" fill="#58595B"></path>
        </g>
    </g>
</svg>