<?xml version="1.0" encoding="UTF-8"?>
<svg width="127px" height="94px" viewBox="0 0 127 94" version="1.1" xmlns="http://www.w3.org/2000/svg" xmlns:xlink="http://www.w3.org/1999/xlink">
    <!-- Generator: Sketch 49 (51002) - http://www.bohemiancoding.com/sketch -->
    <title>vintage-logo-6</title>
    <desc>Created with Sketch.</desc>
    <defs></defs>
    <g id="Page-1" stroke="none" stroke-width="1" fill="none" fill-rule="evenodd">
        <g id="vintage-logo-6" fill="#58595B">
            <path d="M63.4788,-0.0001 L-0.0002,17.3409 L-0.0002,52.2249 L63.4238,69.5519 L63.4788,69.5659 L126.8038,52.2679 L126.9568,52.2249 L126.9568,17.3409 L63.5318,0.0149 L63.4788,-0.0001 Z M0.4148,51.9089 L0.4148,17.6579 L63.4788,0.4299 L126.5408,17.6579 L126.5408,51.9089 L63.4788,69.1359 L0.4148,51.9089 Z" id="Fill-1"></path>
            <g id="Group-74" transform="translate(9.000000, 10.025600)">
                <path d="M7.559,14.1105 C6.791,19.8935 6.024,25.4035 5.258,30.6215 C4.505,30.4795 3.752,30.3335 3,30.1855 C2.236,24.9625 1.47,20.0395 0.705,15.4365 C1.331,15.3065 1.958,15.1795 2.584,15.0535 C3.099,18.7795 3.613,22.6635 4.128,26.6985 C4.643,22.7685 5.159,18.6855 5.674,14.4565 C6.302,14.3395 6.93,14.2235 7.559,14.1105" id="Fill-2"></path>
                <path d="M10.6362,31.5807 L10.6362,13.5757 C11.2722,13.4687 11.9072,13.3637 12.5452,13.2627 L12.5452,31.8937 C11.9072,31.7917 11.2722,31.6867 10.6362,31.5807" id="Fill-4"></path>
                <path d="M20.2948,22.2282 L20.2948,12.1352 C20.9328,12.0522 21.5718,11.9712 22.2118,11.8922 L22.2118,33.2642 C21.5718,33.1852 20.9328,33.1032 20.2948,33.0212 L20.2948,28.8612 C19.6088,25.6372 18.9238,22.4932 18.2398,19.4352 L18.2398,32.7452 C17.6018,32.6562 16.9638,32.5662 16.3268,32.4732 L16.3268,12.6832 C16.9638,12.5902 17.6018,12.4992 18.2398,12.4112 C18.9238,15.5932 19.6088,18.8682 20.2948,22.2282" id="Fill-6"></path>
                <path d="M29.0678,13.9113 L29.0678,34.0163 C28.4268,33.9543 27.7868,33.8913 27.1468,33.8243 L27.1468,14.0573 C26.5338,14.1053 25.9208,14.1553 25.3068,14.2073 L25.3068,11.5303 C27.1728,11.3233 29.0398,11.1353 30.9088,10.9673 L30.9088,13.7813 C30.2948,13.8223 29.6808,13.8663 29.0678,13.9113" id="Fill-8"></path>
                <path d="M38.0419,22.882 L38.0419,14.79 C38.0419,13.842 37.7609,13.381 37.1999,13.41 C37.0249,13.419 36.8519,13.427 36.6779,13.437 C36.1169,13.465 35.8359,13.949 35.8359,14.885 L35.8359,22.88 C36.5709,22.881 37.3059,22.882 38.0419,22.882 M35.8359,34.585 C35.1949,34.54 34.5529,34.492 33.9129,34.443 L33.9129,14.779 C33.9129,12.075 34.6809,10.656 36.2169,10.544 C36.6979,10.51 37.1799,10.478 37.6609,10.447 C39.1969,10.345 39.9659,11.708 39.9659,14.512 L39.9659,34.848 C39.3249,34.812 38.6829,34.774 38.0419,34.734 L38.0419,25.829 C37.3059,25.815 36.5709,25.803 35.8359,25.789 L35.8359,34.585" id="Fill-10"></path>
                <path d="M46.6493,25.9352 L46.6493,22.8932 C47.6263,22.8932 48.6033,22.8942 49.5793,22.8942 L49.5793009,35.2072 C48.3203,35.1842 47.0633,35.1502 45.8053,35.1072 C44.3203,35.0552 43.5783,33.6222 43.5783,30.8302 L43.5783,14.3972 C43.5783,11.5572 44.3203,10.1022 45.8053,10.0482 C46.2473,10.0332 46.6893,10.0192 47.1293,10.0072 C48.7623,9.9592 49.5803,11.4142 49.5793,14.3462 L49.5793,17.0902 C48.9373,17.0962 48.2953,17.1022 47.6523,17.1092 L47.6523,14.8662 C47.6523,13.6492 47.3783,13.0472 46.8293,13.0602 C46.6693,13.0632 46.5083,13.0672 46.3473,13.0712 C45.7853,13.0852 45.5033,13.6972 45.5033,14.9062 L45.5033,30.2492 C45.5033,31.4582 45.7853,32.0712 46.3473,32.0852 C46.7823,32.0962 47.2173,32.1052 47.6523,32.1142 L47.6523,25.9432 C47.3183,25.9412 46.9833,25.9382 46.6493,25.9352" id="Fill-12"></path>
                <path d="M53.1542,35.2536 L53.1542,9.9026 C54.7472,9.8936 56.3402,9.8986 57.9332,9.9176 L57.9332,12.9846 C56.9832,12.9766 56.0322,12.9716 55.0812,12.9706 L55.0812,20.6706 C55.9252,20.6706 56.7682,20.6716 57.6112,20.6736 L57.6112,23.7416 C56.7682,23.7426 55.9252,23.7436 55.0812,23.7436 L55.0812,32.1856 C56.0322,32.1846 56.9832,32.1806 57.9332,32.1716 L57.9332,35.2396 C56.3402,35.2586 54.7472,35.2626 53.1542,35.2536" id="Fill-14"></path>
                <path d="M71.3993,10.4176 C70.6913,18.4806 69.9823,26.6336 69.2733,34.8626 C68.5783,34.9006 67.8823,34.9366 67.1873,34.9686 C66.7923,30.2016 66.3983,25.4116 66.0033,20.6036 C65.6153,25.4056 65.2273,30.2286 64.8393,35.0676 C64.1433,35.0946 63.4483,35.1176 62.7523,35.1386 C62.0423,26.7866 61.3333,18.3886 60.6233,9.9626 C61.2593,9.9766 61.8953,9.9926 62.5303,10.0116 C62.9853,16.3016 63.4403,22.5746 63.8953,28.8226 C64.3503,22.5596 64.8053,16.3176 65.2603,10.1056 C65.7623,10.1246 66.2643,10.1466 66.7663,10.1676 C67.2213,16.3886 67.6753,22.5786 68.1303,28.7326 C68.5853,22.5556 69.0393,16.4116 69.4943,10.3056 C70.1293,10.3406 70.7643,10.3776 71.3993,10.4176" id="Fill-16"></path>
                <path d="M76.9902,31.4826 C77.3182,31.4616 77.6452,31.4406 77.9722,31.4186 C78.4792,31.3846 78.7322,30.9146 78.7322,30.0096 L78.7322,15.1466 C78.7332,14.2416 78.4462,13.7696 77.8722,13.7316 C77.5712,13.7116 77.2712,13.6916 76.9702,13.6726 C76.4092,13.6376 76.1292,14.0816 76.1292,15.0046 L76.1292,30.1526 C76.1292,31.0756 76.4162,31.5186 76.9902,31.4826 M76.5302,34.3686 C74.9812,34.4986 74.2052,33.1966 74.2052,30.4806 L74.2052,14.7096 C74.2052,11.9726 74.9742,10.6576 76.5102,10.7876 C77.1242,10.8376 77.7392,10.8896 78.3532,10.9436 C79.8872,11.0866 80.6552,12.4696 80.6552,15.0706 L80.6552,30.1176 C80.6552,32.6986 79.8812,34.0696 78.3332,34.2136 C77.7322,34.2676 77.1312,34.3186 76.5302,34.3686" id="Fill-18"></path>
                <path d="M86.2714,22.1862 C86.6914,22.1882 87.1104,22.1902 87.5294,22.1922 C88.1024,22.1942 88.3884,21.6862 88.3884,20.6682 L88.3884,16.1122 C88.3884,15.0952 88.1024,14.5582 87.5294,14.5022 C87.1104,14.4632 86.6914,14.4252 86.2714,14.3862 L86.2714,22.1862 Z M84.3534,11.5462 C85.6054,11.6862 86.8574,11.8342 88.1084,11.9922 C89.5724,12.1862 90.3034,13.4632 90.3034,15.8072 L90.3034,20.8852 C90.3034,22.6812 89.9254,23.8212 89.1664,24.3252 C89.6124,27.2172 90.0574,30.0592 90.5024,32.8522 C89.8984,32.9332 89.2924,33.0132 88.6874,33.0902 C88.2694,30.3132 87.8494,27.4932 87.4304,24.6292 C87.0444,24.6392 86.6584,24.6472 86.2714,24.6562 L86.2714,33.3892 C85.6324,33.4652 84.9934,33.5392 84.3534,33.6102 L84.3534,11.5462 Z" id="Fill-20"></path>
                <path d="M100.1962,31.3581 C99.5602,31.4671 98.9242,31.5751 98.2882,31.6811 C97.4932,28.8451 96.6972,25.8781 95.9022,22.7891 L95.9022,22.6311 C96.5652,19.4501 97.2282,16.3751 97.8912,13.4111 C98.4742,13.5061 99.0572,13.6031 99.6392,13.7031 C98.9712,16.5301 98.3012,19.4741 97.6332,22.5261 C98.4882,25.6141 99.3422,28.5631 100.1962,31.3581 M95.8022,32.0801 C95.1652,32.1791 94.5282,32.2761 93.8912,32.3711 L93.8912,12.7851 C94.5282,12.8801 95.1652,12.9781 95.8022,13.0771 L95.8022,32.0801" id="Fill-22"></path>
                <path d="M106.9164,19.0973 L106.9164,17.7753 C106.9164,17.1773 106.6394,16.8333 106.0854,16.7503 C105.9864,16.7353 105.8874,16.7203 105.7884,16.7053 C105.2464,16.6243 104.9764,16.9023 104.9764,17.5343 L104.9764,20.1553 C104.9764,20.4493 105.0294,20.6503 105.1344,20.7573 C105.2404,20.8643 105.4124,21.0033 105.6504,21.1693 C106.2494,21.5443 106.8514,21.9043 107.4504,22.2473 C107.8464,22.4853 108.1264,22.6633 108.2914,22.7893 C108.4564,22.9173 108.5844,23.0693 108.6764,23.2473 C108.7694,23.4253 108.8154,23.7653 108.8154,24.2693 L108.8154,27.3123 C108.8154,28.9043 108.0514,29.8683 106.5214,30.1853 C106.1314,30.2613 105.7424,30.3373 105.3524,30.4133 C103.8334,30.7183 103.0734,29.8413 103.0734,27.8043 L103.0734,26.9753 C103.7084,26.9133 104.3424,26.8503 104.9764,26.7853 L104.9764,27.6443 C104.9764,28.2633 105.2604,28.5303 105.8284,28.4453 C105.9394,28.4283 106.0524,28.4113 106.1644,28.3943 C106.6664,28.3193 106.9164,27.9873 106.9164,27.4013 L106.9164,24.8433 C106.9164,24.5633 106.8644,24.3773 106.7584,24.2843 C106.6524,24.1903 106.4814,24.0703 106.2434,23.9233 C105.6434,23.5803 105.0414,23.2213 104.4414,22.8463 C104.0454,22.6103 103.7574,22.4053 103.5794,22.2373 C103.4004,22.0683 103.2724,21.8493 103.1934,21.5783 C103.1134,21.3093 103.0734,20.9593 103.0734,20.5293 L103.0734,17.1443 C103.0734,15.2463 103.8334,14.4393 105.3524,14.7433 C105.7494,14.8193 106.1454,14.8963 106.5414,14.9753 C108.0574,15.2883 108.8154,16.2643 108.8154,17.8833 L108.8154,19.2763 C108.1824,19.2153 107.5494,19.1563 106.9164,19.0973" id="Fill-24"></path>
                <path d="M47.6249,39.612 L45.6809,39.612 C45.3969,39.612 45.1649,39.835 45.1649,40.118 C45.1649,40.392 45.3969,40.625 45.6809,40.625 L46.0959,40.625 L46.0959,44.674 C46.0959,45.231 45.6509,45.687 45.0939,45.687 L43.3119,45.687 C42.7549,45.687 42.3099,45.231 42.3099,44.674 L42.3099,40.625 L42.7949,40.625 C43.0789,40.625 43.3119,40.392 43.3119,40.118 C43.3119,39.835 43.0789,39.612 42.7949,39.612 L40.8519,39.612 C40.5779,39.612 40.3449,39.835 40.3449,40.118 C40.3449,40.392 40.5779,40.625 40.8519,40.625 L41.2869,40.625 L41.2869,44.674 C41.2869,45.788 42.1979,46.699 43.3119,46.699 L45.0939,46.699 C46.2079,46.699 47.1189,45.788 47.1189,44.674 L47.1189,40.625 L47.6249,40.625 C47.9089,40.625 48.1309,40.392 48.1309,40.118 C48.1309,39.835 47.9089,39.612 47.6249,39.612 Z M55.7549,42.639 L52.6159,42.639 C51.2999,42.639 51.2899,40.614 52.6159,40.614 L55.1579,40.614 C55.6439,40.614 56.1599,40.827 56.1599,41.424 C56.1599,41.698 56.3929,41.93 56.6759,41.93 C56.9499,41.93 57.1829,41.698 57.1829,41.424 L57.1829,40.027 C57.1829,39.743 56.9499,39.511 56.6759,39.511 C56.4639,39.511 56.2819,39.642 56.2009,39.835 C55.9069,39.683 55.5529,39.602 55.1579,39.602 L52.6159,39.602 C49.9539,39.602 49.9629,43.662 52.6159,43.662 L55.7549,43.662 C57.0609,43.662 57.0819,45.687 55.7549,45.687 L52.5449,45.687 C52.0189,45.687 51.4819,45.414 51.4819,44.796 C51.4819,44.512 51.2499,44.29 50.9759,44.29 C50.6919,44.29 50.4589,44.512 50.4589,44.796 C50.4589,45.9 51.3399,46.699 52.5449,46.699 L55.7549,46.699 C58.4179,46.699 58.3969,42.639 55.7549,42.639 Z M67.7019,45.677 L67.2159,45.677 L66.6789,44.492 L66.7299,44.492 C67.0139,44.492 67.2359,44.269 67.2359,43.986 C67.2359,43.713 67.0139,43.48 66.7299,43.48 L66.2239,43.48 L64.9379,40.594 L65.0489,40.594 C65.3329,40.594 65.5559,40.371 65.5559,40.088 C65.5559,39.815 65.3329,39.582 65.0489,39.582 L63.2269,39.582 C62.9429,39.582 62.7209,39.815 62.7209,40.088 C62.7209,40.371 62.9429,40.594 63.2269,40.594 L63.3379,40.594 L62.0519,43.48 L61.5459,43.48 C61.2629,43.48 61.0399,43.713 61.0399,43.986 C61.0399,44.269 61.2629,44.492 61.5459,44.492 L61.5969,44.492 L61.0599,45.677 L60.5739,45.677 C60.2909,45.677 60.0679,45.91 60.0679,46.193 C60.0679,46.466 60.2909,46.699 60.5739,46.699 L62.3959,46.699 C62.6699,46.699 62.9029,46.466 62.9029,46.193 C62.9029,45.91 62.6699,45.677 62.3959,45.677 L62.1739,45.677 L62.7099,44.492 L65.5659,44.492 L66.1029,45.677 L65.8789,45.677 C65.6059,45.677 65.3739,45.91 65.3739,46.193 C65.3739,46.466 65.6059,46.699 65.8789,46.699 L67.7019,46.699 C67.9849,46.699 68.2079,46.466 68.2079,46.193 C68.2079,45.91 67.9849,45.677 67.7019,45.677 Z M63.1659,43.48 L64.1379,41.282 L65.1099,43.48 L63.1659,43.48 Z" id="Fill-26"></path>
                <path d="M24.2021,5.7711 C24.3191,5.7341 24.4361,5.6971 24.5531,5.6601 C24.7851,5.5871 24.8841,5.4351 24.8171,5.2221 C24.7521,5.0121 24.5851,4.9471 24.3521,5.0211 C24.2341,5.0581 24.1171,5.0951 23.9991,5.1321 C24.0671,5.3451 24.1341,5.5591 24.2021,5.7711 M24.2521,4.6101 C24.7911,4.4421 25.1781,4.6011 25.3141,5.0501 C25.4571,5.5221 25.2351,5.8871 24.7051,6.0541 C24.5811,6.0931 24.4551,6.1321 24.3301,6.1721 C24.3901,6.3601 24.4511,6.5491 24.5111,6.7361 L23.9881,6.9051 C23.7711,6.2371 23.5551,5.5701 23.3371,4.9021 C23.6421,4.8041 23.9471,4.7071 24.2521,4.6101" id="Fill-28"></path>
                <path d="M27.5234,4.777 C27.7534,4.714 27.8574,4.563 27.7984,4.349 C27.7394,4.137 27.5754,4.067 27.3424,4.132 C27.2074,4.17 27.0714,4.209 26.9364,4.247 C26.9974,4.462 27.0584,4.676 27.1204,4.891 C27.2544,4.853 27.3894,4.815 27.5234,4.777 M27.6524,5.179 L27.6364,5.184 C27.5024,5.221 27.3694,5.259 27.2354,5.297 C27.2894,5.486 27.3424,5.677 27.3974,5.866 C27.2214,5.917 27.0464,5.966 26.8714,6.018 C26.6754,5.343 26.4794,4.671 26.2834,3.996 C26.5994,3.905 26.9144,3.815 27.2294,3.726 C27.7894,3.57 28.1794,3.74 28.3014,4.193 C28.3854,4.503 28.3114,4.763 28.0984,4.949 C28.3054,5.132 28.5124,5.316 28.7184,5.501 C28.5184,5.554 28.3184,5.608 28.1194,5.664 C27.9644,5.502 27.8084,5.34 27.6524,5.179" id="Fill-30"></path>
                <path d="M30.0531,4.0661 C30.1391,4.4101 30.4781,4.6071 30.7971,4.5281 C31.1211,4.4491 31.3151,4.1221 31.2331,3.7771 C31.1521,3.4321 30.8281,3.2331 30.5001,3.3141 C30.1731,3.3931 29.9661,3.7211 30.0531,4.0661 M31.7841,3.6441 C31.9221,4.2421 31.5431,4.8071 30.8981,4.9651 C30.2561,5.1231 29.6601,4.7991 29.5051,4.2011 C29.3501,3.6081 29.7291,3.0411 30.3881,2.8791 C31.0501,2.7181 31.6481,3.0491 31.7841,3.6441" id="Fill-32"></path>
                <path d="M33.5209,3.3014 C33.6399,3.2764 33.7589,3.2514 33.8779,3.2264 C34.1139,3.1764 34.2279,3.0334 34.1829,2.8164 C34.1389,2.6004 33.9789,2.5194 33.7409,2.5704 C33.6209,2.5944 33.5009,2.6204 33.3819,2.6454 C33.4279,2.8644 33.4749,3.0834 33.5209,3.3014 M33.6829,2.1524 C34.2319,2.0374 34.5989,2.2354 34.6899,2.6954 C34.7869,3.1794 34.5309,3.5204 33.9919,3.6334 C33.8639,3.6594 33.7359,3.6864 33.6089,3.7134 C33.6499,3.9054 33.6899,4.0994 33.7319,4.2924 C33.5549,4.3304 33.3759,4.3684 33.1989,4.4074 C33.0489,3.7224 32.8989,3.0364 32.7489,2.3514 C33.0609,2.2834 33.3719,2.2174 33.6829,2.1524" id="Fill-34"></path>
                <path d="M36.3735,2.0573 C36.3975,2.1943 36.4225,2.3323 36.4475,2.4683 C36.7875,2.4073 37.1275,2.3483 37.4675,2.2903 C37.4905,2.4283 37.5145,2.5663 37.5375,2.7053 C37.1985,2.7633 36.8605,2.8223 36.5225,2.8823 C36.5475,3.0213 36.5735,3.1613 36.5985,3.3003 C36.9815,3.2303 37.3665,3.1633 37.7495,3.0993 C37.7735,3.2383 37.7965,3.3753 37.8205,3.5153 C37.2585,3.6093 36.6985,3.7083 36.1385,3.8123 C36.0085,3.1223 35.8815,2.4333 35.7515,1.7433 C36.3135,1.6393 36.8745,1.5393 37.4375,1.4443 C37.4605,1.5833 37.4845,1.7213 37.5075,1.8593 C37.1295,1.9233 36.7515,1.9893 36.3735,2.0573" id="Fill-36"></path>
                <path d="M39.871,2.1686 C40.106,2.1346 40.227,1.9996 40.197,1.7786 C40.165,1.5616 40.012,1.4706 39.775,1.5046 C39.637,1.5246 39.498,1.5446 39.36,1.5656 C39.392,1.7866 39.425,2.0076 39.459,2.2286 C39.596,2.2086 39.733,2.1886 39.871,2.1686 M39.946,2.5826 L39.931,2.5856 C39.794,2.6046 39.658,2.6246 39.52,2.6456 C39.55,2.8406 39.579,3.0356 39.608,3.2306 C39.429,3.2576 39.249,3.2856 39.07,3.3136 C38.964,2.6186 38.856,1.9256 38.748,1.2326 C39.07,1.1826 39.392,1.1346 39.715,1.0876 C40.286,1.0056 40.65,1.2246 40.711,1.6886 C40.754,2.0076 40.648,2.2556 40.415,2.4136 C40.596,2.6216 40.777,2.8306 40.956,3.0396 C40.752,3.0676 40.549,3.0956 40.345,3.1246 C40.213,2.9436 40.08,2.7626 39.946,2.5826" id="Fill-38"></path>
                <path d="M42.9613,1.1061 C43.0233,1.6611 43.0853,2.2151 43.1473,2.7701 C42.9663,2.7901 42.7873,2.8111 42.6073,2.8321 C42.5423,2.2781 42.4773,1.7231 42.4133,1.1691 C42.1973,1.1941 41.9833,1.2191 41.7693,1.2461 C41.7513,1.1031 41.7323,0.9601 41.7143,0.8171 C42.3323,0.7401 42.9493,0.6691 43.5673,0.6061 C43.5833,0.7481 43.5973,0.8921 43.6123,1.0361 C43.3963,1.0591 43.1793,1.0821 42.9613,1.1061" id="Fill-40"></path>
                <path d="M46.0229,2.4943 C45.8439,2.5083 45.6639,2.5233 45.4849,2.5383 C45.4659,2.3183 45.4469,2.0973 45.4279,1.8773 C45.1219,1.4213 44.8129,0.9673 44.4999,0.5153 C44.6839,0.4973 44.8679,0.4803 45.0519,0.4643 C45.2529,0.7533 45.4549,1.0433 45.6529,1.3323 C45.7969,1.0143 45.9419,0.6953 46.0879,0.3773 C46.2729,0.3633 46.4569,0.3493 46.6419,0.3353 C46.4129,0.8283 46.1889,1.3223 45.9679,1.8163 C45.9869,2.0423 46.0049,2.2683 46.0229,2.4943" id="Fill-42"></path>
                <path d="M49.8915,1.2043 C49.9075,1.5593 50.1955,1.8213 50.5215,1.8103 C50.8525,1.7993 51.1075,1.5183 51.0985,1.1633 C51.0885,0.8093 50.8155,0.5483 50.4785,0.5593 C50.1445,0.5713 49.8775,0.8503 49.8915,1.2043 M51.6615,1.1463 C51.6735,1.7593 51.1915,2.2353 50.5315,2.2583 C49.8755,2.2813 49.3615,1.8423 49.3315,1.2253 C49.3025,0.6133 49.7855,0.1353 50.4575,0.1123 C51.1345,0.0893 51.6495,0.5363 51.6615,1.1463" id="Fill-44"></path>
                <path d="M53.4179,0.4948 C53.4189,0.6568 53.4189,0.8198 53.4199,0.9818 C53.7429,0.9808 54.0649,0.9808 54.3879,0.9828 C54.3869,1.1218 54.3859,1.2628 54.3849,1.4028 C54.0639,1.4018 53.7439,1.4018 53.4219,1.4018 C53.4229,1.6618 53.4239,1.9198 53.4259,2.1778 C53.2449,2.1798 53.0639,2.1798 52.8829,2.1818 C52.8759,1.4798 52.8699,0.7798 52.8629,0.0778 C53.4009,0.0728 53.9399,0.0718 54.4779,0.0758 C54.4769,0.2148 54.4759,0.3558 54.4749,0.4958 C54.1229,0.4938 53.7699,0.4938 53.4179,0.4948" id="Fill-46"></path>
                <path d="M57.8647,0.5768 C57.8577,0.7388 57.8517,0.9008 57.8447,1.0628 C58.1677,1.0758 58.4897,1.0908 58.8117,1.1068 C58.8047,1.2468 58.7977,1.3878 58.7897,1.5278 C58.4697,1.5118 58.1487,1.4968 57.8277,1.4828 C57.8177,1.7428 57.8067,1.9998 57.7967,2.2588 C57.6147,2.2518 57.4347,2.2448 57.2547,2.2378 C57.2797,1.5368 57.3037,0.8358 57.3287,0.1348 C57.8667,0.1528 58.4047,0.1768 58.9427,0.2048 C58.9347,0.3458 58.9267,0.4858 58.9207,0.6258 C58.5697,0.6068 58.2167,0.5908 57.8647,0.5768" id="Fill-48"></path>
                <path d="M61.0302,1.4298 C61.2672,1.4468 61.4142,1.3418 61.4312,1.1188 C61.4482,0.9008 61.3182,0.7788 61.0792,0.7618 C60.9412,0.7508 60.8012,0.7418 60.6612,0.7308 C60.6462,0.9538 60.6302,1.1778 60.6152,1.4008 C60.7532,1.4098 60.8912,1.4198 61.0302,1.4298 M61.0142,1.8508 L60.9992,1.8498 C60.8622,1.8388 60.7232,1.8298 60.5852,1.8198 C60.5722,2.0168 60.5582,2.2148 60.5442,2.4108 C60.3642,2.3978 60.1832,2.3868 60.0042,2.3738 C60.0492,1.6748 60.0932,0.9748 60.1382,0.2738 C60.4622,0.2948 60.7862,0.3168 61.1102,0.3418 C61.6852,0.3838 61.9922,0.6758 61.9522,1.1428 C61.9262,1.4628 61.7692,1.6828 61.5082,1.7858 C61.6392,2.0288 61.7712,2.2718 61.9002,2.5148 C61.6962,2.4978 61.4902,2.4808 61.2872,2.4658 C61.1972,2.2598 61.1052,2.0548 61.0142,1.8508" id="Fill-50"></path>
                <path d="M64.2289,1.1564 C64.0979,1.4034 63.9649,1.6504 63.8349,1.8984 C64.0419,1.9194 64.2459,1.9414 64.4529,1.9644 C64.3789,1.6954 64.3039,1.4264 64.2289,1.1564 M63.6349,2.2864 C63.5689,2.4094 63.5049,2.5334 63.4399,2.6564 C63.2559,2.6374 63.0709,2.6194 62.8859,2.6024 C63.2569,1.9324 63.6349,1.2654 64.0199,0.5994 C64.2079,0.6184 64.3969,0.6394 64.5859,0.6594 C64.8139,1.3904 65.0359,2.1224 65.2499,2.8544 C65.0579,2.8314 64.8669,2.8094 64.6749,2.7884 C64.6389,2.6534 64.6029,2.5194 64.5659,2.3854 C64.2549,2.3514 63.9449,2.3184 63.6349,2.2864" id="Fill-52"></path>
                <path d="M67.8329,3.1979 C67.5709,2.7229 67.3049,2.2489 67.0339,1.7759 C66.9769,2.2039 66.9179,2.6319 66.8599,3.0599 C66.6919,3.0369 66.5229,3.0139 66.3539,2.9919 C66.4449,2.2959 66.5369,1.5999 66.6269,0.9059 C66.7889,0.9269 66.9509,0.9479 67.1119,0.9699 C67.3869,1.4439 67.6569,1.9189 67.9219,2.3949 C67.9849,1.9679 68.0479,1.5389 68.1099,1.1109 C68.2819,1.1359 68.4519,1.1609 68.6239,1.1869 C68.5179,1.8799 68.4129,2.5739 68.3069,3.2679 C68.1489,3.2439 67.9909,3.2209 67.8329,3.1979" id="Fill-54"></path>
                <path d="M70.5922,2.8024 C70.4792,2.8884 70.3682,2.9724 70.2572,3.0584 C70.2272,3.2284 70.1982,3.3984 70.1692,3.5694 C69.9912,3.5384 69.8122,3.5084 69.6332,3.4784 C69.7472,2.7864 69.8632,2.0944 69.9772,1.4014 C70.1592,1.4314 70.3422,1.4634 70.5252,1.4944 C70.4742,1.7934 70.4222,2.0934 70.3712,2.3924 C70.6952,2.1394 71.0212,1.8884 71.3492,1.6394 C71.5612,1.6774 71.7712,1.7164 71.9832,1.7554 C71.6632,1.9914 71.3462,2.2294 71.0302,2.4684 C71.2402,2.9224 71.4452,3.3784 71.6472,3.8344 C71.4332,3.7934 71.2202,3.7544 71.0062,3.7164 C70.8702,3.4104 70.7322,3.1064 70.5922,2.8024" id="Fill-56"></path>
                <path d="M74.8168,2.5446 C74.7198,2.6656 74.6218,2.7876 74.5248,2.9086 C74.3278,2.7326 74.0618,2.5856 73.8888,2.5496 C73.7478,2.5196 73.6428,2.5516 73.6228,2.6506 C73.5498,3.0056 74.7158,3.0406 74.5528,3.7856 C74.4628,4.1976 74.0448,4.3326 73.5778,4.2356 C73.2268,4.1626 72.8938,3.9596 72.6838,3.7096 C72.7798,3.5876 72.8758,3.4666 72.9718,3.3476 C73.1528,3.5766 73.4528,3.7666 73.6728,3.8126 C73.8408,3.8476 73.9598,3.8076 73.9838,3.6906 C74.0618,3.3246 72.8988,3.3126 73.0438,2.5826 C73.1188,2.2016 73.5078,2.0276 74.0228,2.1346 C74.3328,2.1986 74.6288,2.3576 74.8168,2.5446" id="Fill-58"></path>
                <path d="M79.4648,3.8068 C79.3288,3.8978 79.1938,3.9878 79.0578,4.0778 C78.9628,3.8788 78.7838,3.7228 78.5968,3.6738 C78.2608,3.5858 77.9428,3.7798 77.8578,4.1148 C77.7708,4.4548 77.9568,4.7778 78.2868,4.8648 C78.4638,4.9108 78.6908,4.8698 78.8768,4.7638 C78.9508,4.8978 79.0258,5.0328 79.0998,5.1678 C78.8168,5.3288 78.4478,5.3908 78.1428,5.3108 C77.5168,5.1488 77.1618,4.5808 77.3088,3.9818 C77.4528,3.3928 78.0538,3.0688 78.7008,3.2378 C79.0168,3.3208 79.3098,3.5418 79.4648,3.8068" id="Fill-60"></path>
                <path d="M80.7909,4.9201 C80.6929,5.2611 80.8869,5.6021 81.2039,5.6951 C81.5239,5.7891 81.8569,5.6031 81.9599,5.2641 C82.0619,4.9241 81.8819,4.5901 81.5569,4.4941 C81.2319,4.3991 80.8879,4.5781 80.7909,4.9201 M82.5059,5.4261 C82.3249,6.0131 81.7109,6.3111 81.0719,6.1221 C80.4359,5.9361 80.0819,5.3571 80.2469,4.7621 C80.4119,4.1711 81.0249,3.8711 81.6769,4.0621 C82.3329,4.2561 82.6869,4.8441 82.5059,5.4261" id="Fill-62"></path>
                <path d="M83.7524,6.6877 C83.7064,6.8307 83.5714,6.8947 83.4274,6.8487 C83.2844,6.8017 83.2154,6.6727 83.2614,6.5287 C83.3064,6.3887 83.4374,6.3227 83.5824,6.3697 C83.7264,6.4167 83.7984,6.5467 83.7524,6.6877" id="Fill-64"></path>
                <path d="M49.1322,51.6706 L49.6442,51.6706 L49.6442,53.8416 L50.2212,53.8416 L50.2212,51.1606 L49.1322,51.1606 L49.1322,51.6706 Z M52.1522,53.2966 L51.9832,53.1966 L51.9092,53.1396 L51.6092,53.5616 L51.8132,53.7036 C51.8712,53.7416 51.9602,53.7796 52.0752,53.8146 C52.1912,53.8526 52.3102,53.8716 52.4372,53.8716 C52.7372,53.8716 52.9912,53.7646 53.2032,53.5496 C53.3072,53.4426 53.3872,53.2966 53.4492,53.1086 C53.5072,52.9246 53.5382,52.7106 53.5382,52.4646 C53.5382,52.0846 53.4612,51.7666 53.3112,51.5136 C53.2302,51.3826 53.1222,51.2796 52.9842,51.2066 C52.8412,51.1336 52.6752,51.0996 52.4872,51.0996 C52.2142,51.0996 51.9862,51.1796 51.8052,51.3446 C51.6252,51.5096 51.5322,51.7286 51.5322,52.0006 C51.5322,52.2726 51.6172,52.4876 51.7862,52.6526 C51.9522,52.8176 52.1632,52.9016 52.4142,52.9016 C52.6022,52.9016 52.7792,52.8476 52.9452,52.7366 C52.9252,52.9286 52.8682,53.0786 52.7792,53.1896 C52.6872,53.3006 52.5562,53.3576 52.3912,53.3576 L52.1522,53.2966 Z M52.1952,52.2726 C52.1292,52.1956 52.0942,52.1006 52.0942,51.9886 C52.0942,51.8776 52.1322,51.7816 52.2062,51.7096 C52.2792,51.6366 52.3712,51.6016 52.4872,51.6016 C52.6022,51.6016 52.6982,51.6436 52.7762,51.7246 C52.8532,51.8046 52.8912,51.9046 52.8912,52.0156 C52.8912,52.1276 52.8532,52.2186 52.7722,52.2886 C52.6912,52.3576 52.5942,52.3916 52.4752,52.3916 C52.3562,52.3916 52.2602,52.3536 52.1952,52.2726 Z M55.2632,52.0196 L55.2632,51.6746 L55.9412,51.6746 L54.9022,53.8416 L55.5562,53.8416 L56.6452,51.6126 L56.6452,51.1606 L54.7012,51.1606 L54.7012,52.0196 L55.2632,52.0196 Z M58.6482,51.6706 L58.1322,52.2766 L58.1322,52.7176 C58.2862,52.6676 58.4062,52.6446 58.4902,52.6446 C58.6482,52.6446 58.7762,52.6756 58.8642,52.7406 C58.9522,52.8056 58.9992,52.8946 58.9992,53.0046 C58.9992,53.1166 58.9602,53.2046 58.8832,53.2626 C58.8022,53.3196 58.7022,53.3506 58.5832,53.3506 C58.3822,53.3506 58.1552,53.2626 57.9022,53.0816 L57.6552,53.5576 C57.9592,53.7686 58.2632,53.8716 58.5602,53.8716 C58.8562,53.8716 59.1032,53.7916 59.2952,53.6306 C59.4842,53.4736 59.5802,53.2506 59.5802,52.9706 C59.5802,52.7826 59.5222,52.6136 59.4032,52.4686 C59.2832,52.3266 59.1182,52.2346 58.9032,52.1996 L59.4532,51.5746 L59.4532,51.1606 L57.8052,51.1606 L57.8052,51.6706 L58.6482,51.6706 Z" id="Fill-66"></path>
                <path d="M15.6044,70.3937 L15.6044,72.9547 C15.0104,73.2517 14.3594,73.4357 13.8504,73.4357 C12.2084,73.4357 10.9494,72.1627 10.9494,70.4787 C10.9494,68.8237 12.1944,67.5497 13.8214,67.5497 C14.7414,67.5497 15.7464,67.9597 16.4674,68.6247 L17.8824,66.9137 C16.8634,66.0077 15.3074,65.4417 13.8354,65.4417 C10.7094,65.4417 8.3744,67.6067 8.3744,70.4787 C8.3744,73.3647 10.6524,75.5437 13.6664,75.5437 C15.0524,75.5437 16.7224,75.0067 17.7834,74.2567 L17.7834,70.3937 L15.6044,70.3937 Z M31.5364,67.5077 L31.5364,65.5267 L23.7824,65.5267 L23.7824,75.4307 L31.6914,75.4307 L31.6914,73.4497 L26.3014,73.4497 L26.3014,71.4547 L31.0264,71.4547 L31.0264,69.4747 L26.3014,69.4747 L26.3014,67.5077 L31.5364,67.5077 Z M46.7034,75.4307 L46.7034,65.5267 L44.3544,65.5267 L44.3544,71.6387 L39.7854,65.5267 L37.5634,65.5267 L37.5634,75.4307 L39.9264,75.4307 L39.9264,69.3327 L44.4824,75.4307 L46.7034,75.4307 Z M61.8424,65.5267 L59.3384,65.5267 L59.3384,71.2707 C59.3384,72.6147 58.5324,73.4357 57.3434,73.4357 C56.1414,73.4357 55.2774,72.6147 55.2774,71.2707 L55.2774,65.5267 L52.7594,65.5267 L52.7594,71.2707 C52.7594,73.8887 54.5424,75.5437 57.3294,75.5437 C60.1024,75.5437 61.8424,73.8887 61.8424,71.2707 L61.8424,65.5267 Z M67.8984,75.4307 L70.4174,75.4307 L70.4174,65.5267 L67.8984,65.5267 L67.8984,75.4307 Z M85.7824,75.4307 L85.7824,65.5267 L83.4334,65.5267 L83.4334,71.6387 L78.8634,65.5267 L76.6424,65.5267 L76.6424,75.4307 L79.0054,75.4307 L79.0054,69.3327 L83.5614,75.4307 L85.7824,75.4307 Z M99.7614,67.5077 L99.7614,65.5267 L92.0074,65.5267 L92.0074,75.4307 L99.9174,75.4307 L99.9174,73.4497 L94.5264,73.4497 L94.5264,71.4547 L99.2514,71.4547 L99.2514,69.4747 L94.5264,69.4747 L94.5264,67.5077 L99.7614,67.5077 Z" id="Fill-68"></path>
                <path d="M22.8197,80.3307 L23.7187,78.0427 L23.1207,78.0427 L22.5357,79.7267 L21.9497,78.0427 L21.3297,78.0427 L22.2177,80.3307 L22.8197,80.3307 Z M24.9177,80.3307 L25.4997,80.3307 L25.4997,78.0427 L24.9177,78.0427 L24.9177,80.3307 Z M29.0447,80.3307 L29.0447,78.0427 L28.5027,78.0427 L28.5027,79.4547 L27.4467,78.0427 L26.9337,78.0427 L26.9337,80.3307 L27.4797,80.3307 L27.4797,78.9217 L28.5317,80.3307 L29.0447,80.3307 Z M32.2247,78.5097 L32.2247,78.0397 L30.2697,78.0397 L30.2697,78.5097 L30.9527,78.5097 L30.9527,80.3307 L31.5347,80.3307 L31.5347,78.5097 L32.2247,78.5097 Z M34.7227,79.9087 L34.8857,80.3307 L35.5077,80.3307 L34.5427,78.0427 L33.9447,78.0427 L32.9577,80.3307 L33.5557,80.3307 L33.7227,79.9087 L34.7227,79.9087 Z M34.5527,79.4677 L33.8927,79.4677 L34.2257,78.6217 L34.5527,79.4677 Z M38.1507,79.1667 L38.1507,79.7587 C38.0137,79.8277 37.8627,79.8697 37.7457,79.8697 C37.3667,79.8697 37.0757,79.5757 37.0757,79.1867 C37.0757,78.8047 37.3627,78.5097 37.7387,78.5097 C37.9517,78.5097 38.1837,78.6047 38.3507,78.7587 L38.6767,78.3627 C38.4417,78.1537 38.0827,78.0227 37.7427,78.0227 C37.0197,78.0227 36.4807,78.5227 36.4807,79.1867 C36.4807,79.8537 37.0077,80.3567 37.7027,80.3567 C38.0237,80.3567 38.4087,80.2327 38.6537,80.0597 L38.6537,79.1667 L38.1507,79.1667 Z M41.8247,78.4997 L41.8247,78.0427 L40.0327,78.0427 L40.0327,80.3307 L41.8607,80.3307 L41.8607,79.8727 L40.6147,79.8727 L40.6147,79.4127 L41.7067,79.4127 L41.7067,78.9547 L40.6147,78.9547 L40.6147,78.4997 L41.8247,78.4997 Z M45.7827,80.3307 L46.5377,78.0427 L45.9427,78.0427 L45.5017,79.7267 L45.0537,78.0427 L44.4857,78.0427 L44.0477,79.7267 L43.5997,78.0427 L42.9787,78.0427 L43.7267,80.3307 L44.3277,80.3307 L44.7597,78.7487 L45.1847,80.3307 L45.7827,80.3307 Z M48.7997,78.0227 C48.0937,78.0227 47.5647,78.5167 47.5647,79.1837 C47.5647,79.8537 48.0937,80.3567 48.7997,80.3567 C49.5097,80.3567 50.0387,79.8507 50.0387,79.1837 C50.0387,78.5197 49.5097,78.0227 48.7997,78.0227 Z M48.8067,78.5097 C49.1597,78.5097 49.4407,78.8007 49.4407,79.1867 C49.4407,79.5727 49.1597,79.8697 48.8067,79.8697 C48.4567,79.8697 48.1597,79.5727 48.1597,79.1867 C48.1597,78.8007 48.4537,78.5097 48.8067,78.5097 Z M52.6987,80.3307 L53.3597,80.3307 L52.8787,79.5757 C53.1467,79.4417 53.2937,79.1897 53.2937,78.8407 C53.2937,78.3307 52.9467,78.0427 52.3427,78.0427 L51.3197,78.0427 L51.3197,80.3307 L51.9017,80.3307 L51.9017,79.6867 L52.3427,79.6867 L52.3587,79.6867 L52.6987,80.3307 Z M51.9017,79.2287 L51.9017,78.4997 L52.3427,78.4997 C52.5937,78.4997 52.7407,78.6217 52.7407,78.8597 C52.7407,79.1017 52.5937,79.2287 52.3427,79.2287 L51.9017,79.2287 Z M56.1507,80.3307 L56.8457,80.3307 L55.9407,78.9907 L56.7907,78.0427 L56.1177,78.0427 L55.2417,79.0327 L55.2417,78.0427 L54.6597,78.0427 L54.6597,80.3307 L55.2417,80.3307 L55.2417,79.7687 L55.5457,79.4317 L56.1507,80.3307 Z M58.9537,78.0167 C58.4047,78.0167 58.0427,78.2847 58.0427,78.7057 C58.0427,79.5167 59.2517,79.2747 59.2517,79.6807 C59.2517,79.8107 59.1367,79.8797 58.9537,79.8797 C58.7157,79.8797 58.3627,79.7427 58.1277,79.5367 L57.9017,79.9837 C58.1727,80.2067 58.5657,80.3507 58.9477,80.3507 C59.4577,80.3507 59.8627,80.1087 59.8627,79.6507 C59.8627,78.8237 58.6527,79.0497 58.6527,78.6537 C58.6527,78.5427 58.7547,78.4877 58.9047,78.4877 C59.0907,78.4877 59.3957,78.5847 59.6367,78.7257 L59.8567,78.2717 C59.6207,78.1177 59.2837,78.0167 58.9537,78.0167 Z M63.9617,78.0227 C63.2647,78.0227 62.7387,78.5197 62.7387,79.1807 C62.7387,79.8507 63.2527,80.3567 63.9417,80.3567 C64.2777,80.3567 64.6407,80.1897 64.8857,79.9387 L64.5467,79.5787 C64.3857,79.7427 64.1637,79.8467 63.9707,79.8467 C63.6087,79.8467 63.3337,79.5557 63.3337,79.1737 C63.3337,78.7977 63.6087,78.5097 63.9707,78.5097 C64.1737,78.5097 64.3957,78.6247 64.5467,78.8077 L64.8827,78.4087 C64.6537,78.1737 64.3007,78.0227 63.9617,78.0227 Z M67.1717,78.0227 C66.4657,78.0227 65.9357,78.5167 65.9357,79.1837 C65.9357,79.8537 66.4657,80.3567 67.1717,80.3567 C67.8807,80.3567 68.4097,79.8507 68.4097,79.1837 C68.4097,78.5197 67.8807,78.0227 67.1717,78.0227 Z M67.1777,78.5097 C67.5307,78.5097 67.8117,78.8007 67.8117,79.1867 C67.8117,79.5727 67.5307,79.8697 67.1777,79.8697 C66.8277,79.8697 66.5307,79.5727 66.5307,79.1867 C66.5307,78.8007 66.8247,78.5097 67.1777,78.5097 Z M72.2037,80.3307 L72.2037,78.0397 L71.5697,78.0397 L70.9487,79.4027 L70.3277,78.0397 L69.6907,78.0397 L69.6907,80.3307 L70.2097,80.3307 L70.2097,78.8437 L70.7587,80.1017 L71.1377,80.1017 L71.6877,78.8437 L71.6907,80.3307 L72.2037,80.3307 Z M73.6367,78.0427 L73.6367,80.3307 L74.2187,80.3307 L74.2187,79.6867 L74.6337,79.6867 C75.2187,79.6867 75.5557,79.3757 75.5557,78.8407 C75.5557,78.3307 75.2187,78.0427 74.6337,78.0427 L73.6367,78.0427 Z M74.2187,78.4997 L74.6047,78.4997 C74.8597,78.4997 75.0067,78.6217 75.0067,78.8597 C75.0067,79.1017 74.8597,79.2287 74.6047,79.2287 L74.2187,79.2287 L74.2187,78.4997 Z M78.1837,79.9087 L78.3477,80.3307 L78.9687,80.3307 L78.0047,78.0427 L77.4057,78.0427 L76.4197,80.3307 L77.0177,80.3307 L77.1837,79.9087 L78.1837,79.9087 Z M78.0137,79.4677 L77.3537,79.4677 L77.6877,78.6217 L78.0137,79.4677 Z M82.2657,80.3307 L82.2657,78.0427 L81.7237,78.0427 L81.7237,79.4547 L80.6677,78.0427 L80.1547,78.0427 L80.1547,80.3307 L80.7007,80.3307 L80.7007,78.9217 L81.7527,80.3307 L82.2657,80.3307 Z M84.8767,79.5917 L85.7067,78.0427 L85.1257,78.0427 L84.5857,79.0397 L84.0337,78.0427 L83.4517,78.0427 L84.2987,79.6087 L84.2987,80.3307 L84.8767,80.3307 L84.8767,79.5917 Z" id="Fill-70"></path>
                <path d="M42.7992,83.9738 L42.7992,81.6858 L42.2572,81.6858 L42.2572,83.0978 L41.2012,81.6858 L40.6882,81.6858 L40.6882,83.9738 L41.2342,83.9738 L41.2342,82.5648 L42.2862,83.9738 L42.7992,83.9738 Z M46.0212,82.1438 L46.0212,81.6858 L44.2302,81.6858 L44.2302,83.9738 L46.0572,83.9738 L46.0572,83.5158 L44.8122,83.5158 L44.8122,83.0558 L45.9032,83.0558 L45.9032,82.5978 L44.8122,82.5978 L44.8122,82.1438 L46.0212,82.1438 Z M49.9802,83.9738 L50.7352,81.6858 L50.1402,81.6858 L49.6992,83.3698 L49.2512,81.6858 L48.6822,81.6858 L48.2442,83.3698 L47.7972,81.6858 L47.1752,81.6858 L47.9242,83.9738 L48.5262,83.9738 L48.9572,82.3918 L49.3822,83.9738 L49.9802,83.9738 Z M54.8282,83.2348 L55.6582,81.6858 L55.0762,81.6858 L54.5372,82.6828 L53.9852,81.6858 L53.4032,81.6858 L54.2502,83.2518 L54.2502,83.9738 L54.8282,83.9738 L54.8282,83.2348 Z M57.8842,81.6658 C57.1792,81.6658 56.6492,82.1598 56.6492,82.8268 C56.6492,83.4968 57.1792,83.9998 57.8842,83.9998 C58.5942,83.9998 59.1232,83.4938 59.1232,82.8268 C59.1232,82.1628 58.5942,81.6658 57.8842,81.6658 Z M57.8912,82.1538 C58.2442,82.1538 58.5252,82.4448 58.5252,82.8298 C58.5252,83.2158 58.2442,83.5128 57.8912,83.5128 C57.5422,83.5128 57.2442,83.2158 57.2442,82.8298 C57.2442,82.4448 57.5382,82.1538 57.8912,82.1538 Z M61.7832,83.9738 L62.4442,83.9738 L61.9632,83.2188 C62.2312,83.0848 62.3792,82.8328 62.3792,82.4838 C62.3792,81.9738 62.0322,81.6858 61.4272,81.6858 L60.4042,81.6858 L60.4042,83.9738 L60.9862,83.9738 L60.9862,83.3298 L61.4272,83.3298 L61.4442,83.3298 L61.7832,83.9738 Z M60.9862,82.8718 L60.9862,82.1438 L61.4272,82.1438 C61.6792,82.1438 61.8262,82.2648 61.8262,82.5028 C61.8262,82.7448 61.6792,82.8718 61.4272,82.8718 L60.9862,82.8718 Z M65.2352,83.9738 L65.9312,83.9738 L65.0262,82.6338 L65.8762,81.6858 L65.2022,81.6858 L64.3262,82.6768 L64.3262,81.6858 L63.7452,81.6858 L63.7452,83.9738 L64.3262,83.9738 L64.3262,83.4118 L64.6312,83.0748 L65.2352,83.9738 Z" id="Fill-72"></path>
            </g>
        </g>
    </g>
</svg>