<?xml version="1.0" encoding="UTF-8"?>
<svg width="125px" height="112px" viewBox="0 0 125 112" version="1.1" xmlns="http://www.w3.org/2000/svg" xmlns:xlink="http://www.w3.org/1999/xlink">
    <!-- Generator: Sketch 49 (51002) - http://www.bohemiancoding.com/sketch -->
    <title>vintage-logo-10</title>
    <desc>Created with Sketch.</desc>
    <defs>
        <polygon id="path-1" points="0.6755 0.187 109.2235 0.187 109.2235 42.6991 0.6755 42.6991"></polygon>
        <polygon id="path-3" points="0 112.813 124.065 112.813 124.065 1 0 1"></polygon>
    </defs>
    <g id="Page-1" stroke="none" stroke-width="1" fill="none" fill-rule="evenodd">
        <g id="vintage-logo-10" transform="translate(0.000000, -1.000000)">
            <path d="M11.35,50.4037 C10.474,49.5847 9.287,49.1607 7.762,49.1607 L6.547,49.1607 C5.021,49.1607 3.749,49.5847 2.761,50.4037 C1.744,51.2517 1.179,52.2967 1.065,53.5397 L0.02,65.6037 C-0.093,66.8467 0.274,67.8647 1.122,68.6837 C1.998,69.5597 3.184,69.9837 4.71,69.9837 L5.954,69.9837 C7.507,69.9837 8.779,69.5597 9.796,68.6837 C10.756,67.8647 11.293,66.8467 11.406,65.6037 L12.48,53.5397 C12.593,52.2967 12.225,51.2517 11.35,50.4037 Z M7.62,66.1697 C7.592,66.7067 7.366,67.1857 6.942,67.5537 C6.518,67.9217 6.038,68.1187 5.501,68.1187 C4.964,68.1187 4.512,67.9217 4.173,67.5257 C3.806,67.1577 3.665,66.7067 3.721,66.1697 L4.88,53.0037 C4.936,52.4667 5.162,52.0137 5.586,51.6187 C6.01,51.2517 6.462,51.0527 6.998,51.0527 C7.536,51.0527 7.959,51.2517 8.298,51.6187 C8.638,52.0137 8.779,52.4667 8.75,53.0037 L7.62,66.1697 Z M30.847,52.8047 C30.847,51.5907 30.366,50.6577 29.406,50.0077 C28.586,49.4707 27.513,49.1887 26.213,49.1887 L19.404,49.1887 L19.234,51.0527 L20.336,51.0527 L18.697,69.9837 L22.455,69.9837 L23.331,59.9247 L25.365,59.9247 C25.987,59.9247 26.298,60.2637 26.298,60.9417 L26.298,61.1967 L25.817,67.0457 C25.789,67.1577 25.789,67.2707 25.789,67.3837 C25.789,69.1077 26.778,69.9837 28.727,69.9837 L30.338,69.9837 L30.507,68.0907 C29.886,68.0907 29.575,67.8077 29.575,67.2707 L29.575,67.0457 L30.084,61.1397 L30.112,60.6597 C30.112,59.7557 29.801,59.0777 29.208,58.6257 C30.309,57.6357 30.847,55.7157 30.847,52.8047 Z M26.75,56.6197 C26.665,57.5517 26.241,58.0317 25.422,58.0317 L23.5,58.0317 L24.122,51.0527 L25.789,51.0527 C26.184,51.0527 26.496,51.1667 26.75,51.4207 C27.004,51.6747 27.117,52.0137 27.089,52.3817 L26.75,56.6197 Z M38.731,49.1607 L36.923,69.9837 L40.709,69.9837 L42.517,49.1607 L38.731,49.1607 Z M53.65,49.1607 C52.379,49.1607 51.305,49.4997 50.429,50.1767 C49.44,50.9407 48.904,51.9287 48.79,53.2007 L47.688,65.9707 C47.604,67.0167 47.914,67.9217 48.678,68.6557 C49.355,69.3047 50.231,69.7287 51.305,69.8987 C51.644,69.9557 52.238,69.9837 53.113,69.9837 C53.905,69.9837 54.639,69.7857 55.317,69.3617 L55.063,72.1307 C55.006,72.7237 54.78,73.2327 54.385,73.6567 C53.989,74.0807 53.509,74.2777 52.972,74.2777 L49.892,74.2777 L49.723,76.1717 L53.537,76.1717 C54.893,76.1717 56.108,75.7757 57.154,74.9847 C58.199,74.1937 58.764,73.2327 58.849,72.1307 L60.036,58.6257 L56.249,58.6257 L55.6,65.9707 C55.543,66.5647 55.289,67.0737 54.865,67.4687 C54.413,67.8647 53.905,68.0907 53.339,68.1187 C52.774,68.1467 52.322,68.0057 51.955,67.6947 C51.559,67.2997 51.39,66.7337 51.475,65.9707 L52.633,52.7197 C52.661,52.2397 52.831,51.8157 53.085,51.5057 C53.339,51.1947 53.622,51.0527 53.961,51.0527 L60.685,51.0527 L60.855,49.1607 L53.65,49.1607 Z M67.468,49.1607 L65.66,69.9837 L69.446,69.9837 L71.254,49.1607 L67.468,49.1607 Z M88.038,50.2617 C87.105,49.5277 85.862,49.1607 84.365,49.1607 L77.81,49.1607 L77.641,51.0527 L78.77,51.0527 L77.132,69.9837 L80.918,69.9837 L82.557,51.1947 L84.195,51.1667 C84.647,51.1667 85.015,51.3917 85.326,51.8157 C85.608,52.2397 85.721,52.8617 85.636,53.6247 L84.45,67.0457 C84.365,68.0057 84.619,68.7407 85.212,69.2767 C85.749,69.7577 86.455,69.9837 87.388,69.9837 L88.913,69.9837 L89.083,68.0907 C88.49,68.0617 88.207,67.7227 88.264,67.0457 L89.422,53.6247 C89.563,52.1837 89.083,51.0817 88.038,50.2617 Z M106.376,50.1217 C105.415,49.4707 104.229,49.1607 102.845,49.1607 C101.46,49.1607 100.217,49.4707 99.171,50.1217 C97.844,50.8837 97.137,52.0427 96.996,53.5397 L95.555,69.9837 L99.313,69.9837 L99.991,62.2417 L103.41,62.2417 L102.986,67.0457 C102.901,68.0057 103.127,68.7407 103.721,69.2767 C104.257,69.7577 104.992,69.9837 105.924,69.9837 L107.422,69.9837 L107.591,68.0907 C106.998,68.0617 106.715,67.7227 106.772,67.0457 L107.958,53.5397 C108.1,52.0427 107.563,50.9127 106.376,50.1217 Z M103.579,60.3487 L100.161,60.3487 L100.81,53.0037 C100.867,52.4667 101.064,51.9857 101.404,51.6187 C101.743,51.2517 102.166,51.0527 102.675,51.0527 C103.212,51.0527 103.607,51.2517 103.89,51.6187 C104.172,51.9857 104.286,52.4667 104.229,53.0037 L103.579,60.3487 Z M119.827,68.0907 C119.121,68.0907 118.81,67.7517 118.866,67.0457 L120.392,49.1607 L115.589,49.1607 L115.419,51.0527 L116.465,51.0527 L115.08,67.0457 C114.996,68.0057 115.25,68.7407 115.787,69.2197 C116.324,69.7287 117.058,69.9837 117.991,69.9837 L123.924,69.9837 L124.065,68.0907 L119.827,68.0907 Z" id="Fill-1" fill="#414042"></path>
            <path d="M45.1171,22.9604 L44.9491,24.8304 L48.2611,24.8304 L48.4291,22.9604 L45.1171,22.9604 Z M52.9381,21.3144 L52.8261,22.5664 L55.8201,22.5664 L53.2381,27.0014 L55.2211,27.0014 C55.7631,27.0014 55.9881,27.3194 55.9321,27.9374 L55.6141,31.4544 C55.5201,32.4084 55.0901,32.8764 54.3231,32.8764 C53.9681,32.8764 53.6501,32.7454 53.3691,32.4644 L53.3501,32.4454 C53.1071,32.2024 52.9941,31.8654 53.0321,31.4544 L51.7791,31.4544 C51.7221,32.1844 51.9281,32.8014 52.3961,33.3254 C52.8641,33.8494 53.4811,34.1104 54.2111,34.1104 L54.6041,34.1104 C55.5021,34.1104 56.3061,33.8494 56.9981,33.3254 C57.6911,32.8014 58.0651,32.1844 58.1211,31.4544 L58.3831,28.4234 C58.4391,27.8064 58.2711,27.2634 57.8781,26.7954 C57.5221,26.3644 57.0551,26.0654 56.4561,25.8984 L59.0941,21.3144 L52.9381,21.3144 Z M65.1381,21.8564 C64.6141,21.5004 63.9221,21.3144 63.0801,21.3144 C62.2001,21.3144 61.4711,21.5374 60.8911,21.9684 C60.2361,22.4364 59.8621,23.1094 59.7871,23.9704 L59.7501,24.3824 L61.0031,24.3824 L61.0401,23.9704 C61.0781,23.5774 61.2461,23.2594 61.5271,22.9974 C61.8081,22.7544 62.1071,22.6054 62.4631,22.5664 C63.2301,22.4924 63.6791,22.8104 63.7911,23.5214 C63.9031,24.2314 63.6411,24.9054 63.0051,25.5614 L59.0761,29.5834 L58.9641,30.8174 L65.0821,30.8174 L65.1941,29.5644 L61.9011,29.5644 L64.6701,26.6464 C65.5871,25.6734 66.0551,24.6814 66.0551,23.6514 C66.0551,22.8664 65.7561,22.2684 65.1381,21.8564 Z M72.8471,21.9864 C72.2481,21.5374 71.5191,21.3144 70.6771,21.3144 L70.2841,21.3144 C69.9661,21.3144 69.7041,21.3324 69.4981,21.3884 L69.5541,20.7524 C69.5921,20.2844 69.7971,19.8914 70.1721,19.5554 C70.5461,19.2364 70.9951,19.0674 71.5371,19.0674 L73.0721,19.0674 L73.1841,17.8144 L71.6501,17.8144 C70.5081,17.8144 69.4791,18.1514 68.5811,18.8064 C67.6081,19.5174 67.0661,20.4344 66.9721,21.5374 L66.3921,28.1614 C66.3171,28.9844 66.6171,29.6394 67.2711,30.1454 C67.8701,30.5934 68.6001,30.8174 69.4611,30.8174 L69.8351,30.8174 C70.7521,30.8174 71.5371,30.5564 72.2301,30.0324 C72.9221,29.5264 73.2961,28.8914 73.3521,28.1614 L73.7261,23.9704 C73.8011,23.1654 73.5021,22.4924 72.8471,21.9864 Z M70.8641,28.1614 C70.8261,28.5914 70.6961,28.9094 70.4901,29.1524 C70.2651,29.3964 70.0221,29.5084 69.7601,29.5084 C69.4981,29.5084 69.2731,29.3964 69.1051,29.1524 C68.9371,28.9094 68.8621,28.5914 68.8991,28.1614 L69.2731,23.9514 C69.3111,23.5214 69.4421,23.1654 69.6661,22.9034 C69.8721,22.6794 70.1161,22.5664 70.3771,22.5664 C70.6391,22.5664 70.8641,22.6974 71.0321,22.9404 C71.2001,23.1844 71.2571,23.5394 71.2191,23.9704 L70.8641,28.1614 Z M78.3481,22.9604 L78.1801,24.8304 L81.4921,24.8304 L81.6601,22.9604 L78.3481,22.9604 Z" id="Fill-3" fill="#414042"></path>
            <path d="M16.3129,43.5121 C22.1429,23.2471 40.8349,8.3741 62.9489,8.3741 C85.0629,8.3741 103.7559,23.2471 109.5849,43.5121 L110.4149,43.5121 C104.5619,22.8021 85.5069,7.5771 62.9489,7.5771 C40.3919,7.5771 21.3359,22.8021 15.4839,43.5121 L16.3129,43.5121" id="Fill-5" fill="#414042"></path>
            <path d="M107.8046,75.4135 C100.5146,93.0175 83.1576,105.4365 62.9486,105.4365 C42.7406,105.4365 25.3846,93.0175 18.0946,75.4135 L17.2366,75.4135 C24.5726,93.4675 42.2926,106.2345 62.9486,106.2345 C83.6056,106.2345 101.3256,93.4675 108.6616,75.4135 L107.8046,75.4135" id="Fill-7" fill="#414042"></path>
            <g id="Group-11" transform="translate(8.000000, 0.813000)">
                <mask id="mask-2" fill="white">
                    <use xlink:href="#path-1"></use>
                </mask>
                <g id="Clip-10"></g>
                <path d="M5.6205,42.6991 C11.5215,20.9881 31.3945,4.9711 54.9485,4.9711 C78.5025,4.9711 98.3755,20.9881 104.2775,42.6991 L109.2235,42.6991 C103.2045,18.3221 81.1595,0.1861 54.9485,0.1861 C28.7385,0.1861 6.6945,18.3221 0.6755,42.6991 L5.6205,42.6991" id="Fill-9" fill="#414042" mask="url(#mask-2)"></path>
            </g>
            <path d="M110.5892,75.4135 C103.1572,94.4775 84.6122,108.0275 62.9482,108.0275 C41.2862,108.0275 22.7412,94.4775 15.3092,75.4135 L10.2052,75.4135 C17.8612,97.1695 38.6072,112.8125 62.9482,112.8125 C87.2912,112.8125 108.0372,97.1695 115.6932,75.4135 L110.5892,75.4135" id="Fill-12" fill="#414042"></path>
            <path d="M34.1542,83.6684 L34.4222,84.2754 L34.9032,84.2754 L33.7262,81.6054 L33.2452,81.6054 L32.0682,84.2754 L32.5502,84.2754 L32.8172,83.6684 L34.1542,83.6684 Z M33.0002,83.2524 L33.4862,82.1514 L33.9712,83.2524 L33.0002,83.2524 Z M36.7752,83.0834 L36.7752,81.6054 L36.3242,81.6054 L36.3242,83.1034 C36.3242,83.4884 36.4312,83.7824 36.6412,83.9894 C36.8512,84.1994 37.1222,84.3024 37.4552,84.3024 C37.7872,84.3024 38.0582,84.1994 38.2692,83.9894 C38.4792,83.7824 38.5862,83.4884 38.5862,83.1034 L38.5862,81.6054 L38.1352,81.6054 L38.1352,83.0834 C38.1352,83.3284 38.0732,83.5224 37.9512,83.6644 C37.8292,83.8064 37.6652,83.8784 37.4552,83.8784 C37.2452,83.8784 37.0802,83.8064 36.9582,83.6644 C36.8362,83.5224 36.7752,83.3284 36.7752,83.0834 Z M42.2612,82.0184 L42.2612,81.6054 L40.1902,81.6054 L40.1902,82.0184 L41.0002,82.0184 L41.0002,84.2754 L41.4512,84.2754 L41.4512,82.0184 L42.2612,82.0184 Z M44.3502,84.2754 L44.3502,83.1834 L45.6752,83.1834 L45.6752,84.2754 L46.1262,84.2754 L46.1262,81.6054 L45.6752,81.6054 L45.6752,82.7634 L44.3502,82.7634 L44.3502,81.6054 L43.8992,81.6054 L43.8992,84.2754 L44.3502,84.2754 Z M48.0172,81.6054 L48.0172,84.2754 L49.9392,84.2754 L49.9392,83.8524 L48.4682,83.8524 L48.4682,83.1374 L49.7482,83.1374 L49.7482,82.7354 L48.4682,82.7354 L48.4682,82.0294 L49.8932,82.0294 L49.8932,81.6054 L48.0172,81.6054 Z M53.6672,83.6004 L52.1162,81.6054 L51.6652,81.6054 L51.6652,84.2754 L52.1162,84.2754 L52.1162,82.3274 L53.6292,84.2754 L54.1182,84.2754 L54.1182,81.6054 L53.6672,81.6054 L53.6672,83.6004 Z M57.8282,82.0184 L57.8282,81.6054 L55.7572,81.6054 L55.7572,82.0184 L56.5672,82.0184 L56.5672,84.2754 L57.0182,84.2754 L57.0182,82.0184 L57.8282,82.0184 Z M59.4662,84.2754 L59.9172,84.2754 L59.9172,81.6044 L59.4662,81.6044 L59.4662,84.2754 Z M62.3802,83.5924 C62.1962,83.4124 62.1042,83.1834 62.1042,82.9114 C62.1042,82.6414 62.1962,82.4194 62.3802,82.2434 C62.5632,82.0714 62.7882,81.9834 63.0592,81.9834 C63.2122,81.9834 63.3462,82.0064 63.4612,82.0564 C63.5712,82.1064 63.6942,82.1894 63.8202,82.3124 L64.1062,81.9984 C63.8272,81.6924 63.4842,81.5404 63.0712,81.5404 C62.6542,81.5404 62.3152,81.6744 62.0432,81.9384 C61.7722,82.2014 61.6342,82.5334 61.6342,82.9314 C61.6342,83.3284 61.7682,83.6564 62.0352,83.9164 C62.2992,84.1764 62.6352,84.3064 63.0402,84.3064 C63.4422,84.3064 63.7852,84.1494 64.0682,83.8364 L63.7782,83.5384 C63.6552,83.6524 63.5372,83.7364 63.4262,83.7864 C63.3162,83.8404 63.1822,83.8664 63.0252,83.8664 C62.7772,83.8664 62.5592,83.7754 62.3802,83.5924 Z M69.6782,83.6684 L69.9462,84.2754 L70.4272,84.2754 L69.2502,81.6054 L68.7692,81.6054 L67.5922,84.2754 L68.0732,84.2754 L68.3412,83.6684 L69.6782,83.6684 Z M68.5252,83.2524 L69.0092,82.1514 L69.4952,83.2524 L68.5252,83.2524 Z M72.8642,81.6054 L71.9472,81.6054 L71.9472,84.2754 L72.3982,84.2754 L72.3982,83.4924 L72.8722,83.4924 C73.2652,83.4924 73.5562,83.4164 73.7472,83.2674 C73.9342,83.1184 74.0292,82.8814 74.0292,82.5574 C74.0292,82.2314 73.9382,81.9954 73.7512,81.8384 C73.5632,81.6824 73.2692,81.6054 72.8642,81.6054 Z M72.9222,83.0834 L72.3982,83.0834 L72.3982,82.0144 L72.8572,82.0144 C73.1012,82.0144 73.2802,82.0524 73.3952,82.1284 C73.5102,82.2054 73.5672,82.3354 73.5672,82.5184 C73.5672,82.7054 73.5212,82.8434 73.4332,82.9394 C73.3422,83.0344 73.1702,83.0834 72.9222,83.0834 Z M76.6272,81.6054 L75.7102,81.6054 L75.7102,84.2754 L76.1612,84.2754 L76.1612,83.4924 L76.6342,83.4924 C77.0282,83.4924 77.3192,83.4164 77.5092,83.2674 C77.6962,83.1184 77.7922,82.8814 77.7922,82.5574 C77.7922,82.2314 77.7002,81.9954 77.5132,81.8384 C77.3262,81.6824 77.0322,81.6054 76.6272,81.6054 Z M76.6842,83.0834 L76.1612,83.0834 L76.1612,82.0144 L76.6192,82.0144 C76.8642,82.0144 77.0442,82.0524 77.1582,82.1284 C77.2732,82.2054 77.3302,82.3354 77.3302,82.5184 C77.3302,82.7054 77.2842,82.8434 77.1962,82.9394 C77.1052,83.0344 76.9332,83.0834 76.6842,83.0834 Z M81.0432,83.6684 L81.3102,84.2754 L81.7922,84.2754 L80.6152,81.6054 L80.1332,81.6054 L78.9572,84.2754 L79.4382,84.2754 L79.7062,83.6684 L81.0432,83.6684 Z M79.8892,83.2524 L80.3742,82.1514 L80.8602,83.2524 L79.8892,83.2524 Z M85.1802,81.8124 C85.0052,81.6744 84.7142,81.6054 84.3052,81.6054 L83.3122,81.6054 L83.3122,84.2754 L83.7632,84.2754 L83.7632,83.3784 L84.3552,83.3784 L84.9932,84.2754 L85.5662,84.2754 L84.8672,83.3054 C85.2532,83.1904 85.4442,82.9114 85.4442,82.4734 C85.4442,82.1704 85.3562,81.9494 85.1802,81.8124 Z M84.3242,82.9694 L83.7632,82.9694 L83.7632,82.0144 L84.3362,82.0144 C84.5762,82.0144 84.7452,82.0444 84.8402,82.1094 C84.9362,82.1744 84.9822,82.2974 84.9822,82.4694 C84.9822,82.6454 84.9362,82.7714 84.8442,82.8514 C84.7522,82.9314 84.5802,82.9694 84.3242,82.9694 Z M87.2432,81.6054 L87.2432,84.2754 L89.1652,84.2754 L89.1652,83.8524 L87.6942,83.8524 L87.6942,83.1374 L88.9742,83.1374 L88.9742,82.7354 L87.6942,82.7354 L87.6942,82.0294 L89.1192,82.0294 L89.1192,81.6054 L87.2432,81.6054 Z M92.5612,84.2754 L92.5612,83.8484 L91.3422,83.8484 L91.3422,81.6054 L90.8912,81.6054 L90.8912,84.2754 L92.5612,84.2754 Z" id="Fill-14" fill="#414042"></path>
            <path d="M43.1752,89.2006 L41.3912,86.8596 L40.6322,86.8596 L40.6322,90.4956 L41.4442,90.4956 L41.4442,88.2176 L43.1752,90.4956 L43.9872,90.4956 L43.9872,86.8596 L43.1752,86.8596 L43.1752,89.2006 Z M45.4072,86.8596 L45.4072,90.4956 L48.0862,90.4956 L48.0862,89.7776 L46.2192,89.7776 L46.2192,89.0236 L47.8462,89.0236 L47.8462,88.3316 L46.2192,88.3316 L46.2192,87.5836 L48.0292,87.5836 L48.0292,86.8596 L45.4072,86.8596 Z M49.7502,86.8596 L48.8712,86.8596 L50.1402,90.4956 L50.7432,90.4956 L51.5342,87.9686 L52.3292,90.4956 L52.9332,90.4956 L54.2022,86.8596 L53.3232,86.8596 L52.6002,88.9506 L51.9602,86.8596 L51.1122,86.8596 L50.4672,88.9506 L49.7502,86.8596 Z M58.6222,89.0596 L59.8812,86.8596 L59.0022,86.8596 L58.2172,88.2126 L57.4312,86.8596 L56.5522,86.8596 L57.8112,89.0596 L57.8112,90.4956 L58.6222,90.4956 L58.6222,89.0596 Z M63.1362,89.4806 C62.9282,89.7106 62.6732,89.8246 62.3712,89.8246 C62.0652,89.8246 61.8102,89.7106 61.6022,89.4806 C61.3942,89.2576 61.2902,88.9816 61.2902,88.6546 C61.2902,88.3316 61.3942,88.0556 61.6022,87.8276 C61.8102,87.5986 62.0652,87.4836 62.3712,87.4836 C62.6732,87.4836 62.9282,87.5986 63.1362,87.8276 C63.3442,88.0556 63.4482,88.3316 63.4482,88.6546 C63.4482,88.9816 63.3442,89.2576 63.1362,89.4806 Z M64.2752,88.6546 C64.2752,88.1186 64.0922,87.6716 63.7232,87.3126 C63.3542,86.9536 62.9022,86.7766 62.3662,86.7766 C61.8312,86.7766 61.3782,86.9536 61.0092,87.3126 C60.6402,87.6716 60.4582,88.1186 60.4582,88.6546 C60.4582,89.1896 60.6402,89.6326 61.0092,89.9906 C61.3782,90.3496 61.8312,90.5316 62.3662,90.5316 C62.9022,90.5316 63.3542,90.3496 63.7232,89.9906 C64.0922,89.6326 64.2752,89.1896 64.2752,88.6546 Z M68.0782,87.1456 C67.8332,86.9536 67.4332,86.8596 66.8662,86.8596 L65.4882,86.8596 L65.4882,90.4956 L66.2992,90.4956 L66.2992,89.3356 L66.8612,89.3356 L67.6672,90.4956 L68.6652,90.4956 L67.7452,89.1946 C68.2082,89.0236 68.4372,88.6486 68.4372,88.0666 C68.4372,87.6446 68.3172,87.3386 68.0782,87.1456 Z M66.8922,88.6336 L66.2992,88.6336 L66.2992,87.5566 L66.9072,87.5566 C67.1682,87.5566 67.3502,87.5936 67.4542,87.6666 C67.5582,87.7386 67.6102,87.8746 67.6102,88.0666 C67.6102,88.2636 67.5582,88.4096 67.4592,88.4986 C67.3602,88.5866 67.1682,88.6336 66.8922,88.6336 Z M69.7952,90.4956 L70.6062,90.4956 L70.6062,89.4656 L70.9702,89.0596 L72.0362,90.4956 L72.9822,90.4956 C72.8162,90.2616 72.5662,89.9076 72.2282,89.4336 C71.8902,88.9616 71.6612,88.6386 71.5372,88.4676 L72.9822,86.8596 L71.9792,86.8596 L70.6062,88.3526 L70.6062,86.8596 L69.7952,86.8596 L69.7952,90.4956 Z M78.4512,89.2006 L76.6682,86.8596 L75.9082,86.8596 L75.9082,90.4956 L76.7192,90.4956 L76.7192,88.2176 L78.4512,90.4956 L79.2622,90.4956 L79.2622,86.8596 L78.4512,86.8596 L78.4512,89.2006 Z M82.2492,89.0596 L83.5082,86.8596 L82.6292,86.8596 L81.8432,88.2126 L81.0582,86.8596 L80.1792,86.8596 L81.4382,89.0596 L81.4382,90.4956 L82.2492,90.4956 L82.2492,89.0596 Z M84.4432,90.5366 C84.5732,90.5366 84.6822,90.4896 84.7712,90.4016 C84.8592,90.3126 84.9012,90.2096 84.9012,90.0796 C84.9012,89.9496 84.8592,89.8406 84.7712,89.7516 C84.6822,89.6636 84.5732,89.6216 84.4432,89.6216 C84.3132,89.6216 84.2092,89.6636 84.1202,89.7516 C84.0322,89.8406 83.9852,89.9496 83.9852,90.0796 C83.9852,90.2096 84.0322,90.3126 84.1202,90.4016 C84.2092,90.4896 84.3132,90.5366 84.4432,90.5366 Z" id="Fill-16" fill="#414042"></path>
            <path d="M40.6717,39.5385 L40.6717,41.9955 L42.4397,41.9955 L42.4397,41.6055 L41.0867,41.6055 L41.0867,40.9475 L42.2637,40.9475 L42.2637,40.5785 L41.0867,40.5785 L41.0867,39.9285 L42.3977,39.9285 L42.3977,39.5385 L40.6717,39.5385 Z M44.4367,39.9255 C44.5597,39.9675 44.6577,40.0195 44.7317,40.0865 L44.9527,39.7735 C44.8407,39.6795 44.7067,39.6085 44.5527,39.5565 C44.3977,39.5035 44.2427,39.4785 44.0847,39.4785 C43.8417,39.4785 43.6387,39.5385 43.4727,39.6615 C43.3077,39.7845 43.2237,39.9605 43.2237,40.1885 C43.2237,40.4175 43.2967,40.5865 43.4417,40.6945 C43.5157,40.7545 43.5957,40.8005 43.6917,40.8355 C43.7857,40.8745 43.9227,40.9125 44.1027,40.9555 C44.2817,41.0005 44.4117,41.0465 44.4857,41.0995 C44.5597,41.1515 44.5947,41.2255 44.5947,41.3205 C44.5947,41.4155 44.5557,41.4925 44.4787,41.5495 C44.3977,41.6085 44.2927,41.6375 44.1587,41.6375 C43.8917,41.6375 43.6347,41.5275 43.3847,41.3135 L43.1257,41.6265 C43.4237,41.8905 43.7647,42.0235 44.1487,42.0235 C44.4117,42.0235 44.6227,41.9575 44.7847,41.8235 C44.9457,41.6895 45.0267,41.5145 45.0267,41.2995 C45.0267,41.0855 44.9637,40.9235 44.8377,40.8145 C44.7067,40.7055 44.5177,40.6175 44.2677,40.5585 C44.0147,40.4985 43.8497,40.4375 43.7717,40.3855 C43.6947,40.3325 43.6557,40.2595 43.6557,40.1565 C43.6557,40.0595 43.6947,39.9845 43.7717,39.9355 C43.8497,39.8865 43.9477,39.8615 44.0707,39.8615 C44.1907,39.8615 44.3137,39.8835 44.4367,39.9255 Z M47.5677,39.9185 L47.5677,39.5385 L45.6627,39.5385 L45.6627,39.9185 L46.4077,39.9185 L46.4077,41.9955 L46.8227,41.9955 L46.8227,39.9185 L47.5677,39.9185 Z M49.7567,41.4365 L50.0037,41.9955 L50.4467,41.9955 L49.3637,39.5385 L48.9207,39.5385 L47.8387,41.9955 L48.2807,41.9955 L48.5267,41.4365 L49.7567,41.4365 Z M48.6957,41.0535 L49.1427,40.0415 L49.5887,41.0535 L48.6957,41.0535 Z M52.9277,41.7675 C53.0447,41.6375 53.1037,41.4855 53.1037,41.3135 C53.1037,41.1585 53.0587,41.0285 52.9707,40.9235 C52.8797,40.8215 52.7557,40.7515 52.6047,40.7195 L52.6927,40.6775 L52.7837,40.6175 C52.9067,40.5225 52.9667,40.3825 52.9667,40.1885 C52.9667,40.0305 52.9107,39.8865 52.7977,39.7605 C52.7387,39.6925 52.6507,39.6375 52.5307,39.5985 C52.4077,39.5595 52.2637,39.5385 52.0987,39.5385 L51.1427,39.5385 L51.1427,41.9955 L52.2177,41.9955 C52.5517,41.9955 52.7917,41.9185 52.9277,41.7675 Z M51.5577,39.9215 L52.0887,39.9215 C52.2387,39.9215 52.3517,39.9455 52.4257,39.9985 C52.4997,40.0515 52.5347,40.1365 52.5347,40.2525 C52.5347,40.4555 52.3837,40.5585 52.0847,40.5585 L51.5577,40.5585 L51.5577,39.9215 Z M51.5577,40.9405 L52.1547,40.9405 C52.5027,40.9405 52.6787,41.0505 52.6787,41.2675 C52.6787,41.4015 52.6397,41.4925 52.5587,41.5385 C52.4787,41.5885 52.3587,41.6125 52.2077,41.6125 L51.5577,41.6125 L51.5577,40.9405 Z M55.5157,41.9955 L55.5157,41.6015 L54.3937,41.6015 L54.3937,39.5385 L53.9797,39.5385 L53.9797,41.9955 L55.5157,41.9955 Z M56.3227,41.9955 L56.7377,41.9955 L56.7377,39.5385 L56.3227,39.5385 L56.3227,41.9955 Z M58.8837,39.9255 C59.0067,39.9675 59.1057,40.0195 59.1797,40.0865 L59.4007,39.7735 C59.2887,39.6795 59.1547,39.6085 59.0007,39.5565 C58.8457,39.5035 58.6907,39.4785 58.5327,39.4785 C58.2897,39.4785 58.0867,39.5385 57.9207,39.6615 C57.7557,39.7845 57.6717,39.9605 57.6717,40.1885 C57.6717,40.4175 57.7447,40.5865 57.8887,40.6945 C57.9637,40.7545 58.0437,40.8005 58.1387,40.8355 C58.2337,40.8745 58.3707,40.9125 58.5497,40.9555 C58.7297,41.0005 58.8597,41.0465 58.9337,41.0995 C59.0067,41.1515 59.0427,41.2255 59.0427,41.3205 C59.0427,41.4155 59.0037,41.4925 58.9257,41.5495 C58.8457,41.6085 58.7397,41.6375 58.6067,41.6375 C58.3387,41.6375 58.0827,41.5275 57.8327,41.3135 L57.5727,41.6265 C57.8717,41.8905 58.2127,42.0235 58.5957,42.0235 C58.8597,42.0235 59.0697,41.9575 59.2327,41.8235 C59.3937,41.6895 59.4747,41.5145 59.4747,41.2995 C59.4747,41.0855 59.4117,40.9235 59.2847,40.8145 C59.1547,40.7055 58.9647,40.6175 58.7147,40.5585 C58.4627,40.4985 58.2967,40.4375 58.2197,40.3855 C58.1427,40.3325 58.1037,40.2595 58.1037,40.1565 C58.1037,40.0595 58.1427,39.9845 58.2197,39.9355 C58.2967,39.8865 58.3957,39.8615 58.5187,39.8615 C58.6377,39.8615 58.7607,39.8835 58.8837,39.9255 Z M60.7567,41.9955 L60.7567,40.9905 L61.9777,40.9905 L61.9777,41.9955 L62.3917,41.9955 L62.3917,39.5385 L61.9777,39.5385 L61.9777,40.6035 L60.7567,40.6035 L60.7567,39.5385 L60.3427,39.5385 L60.3427,41.9955 L60.7567,41.9955 Z M63.4287,39.5385 L63.4287,41.9955 L65.1967,41.9955 L65.1967,41.6055 L63.8437,41.6055 L63.8437,40.9475 L65.0217,40.9475 L65.0217,40.5785 L63.8437,40.5785 L63.8437,39.9285 L65.1547,39.9285 L65.1547,39.5385 L63.4287,39.5385 Z M66.9267,39.5385 L66.0827,39.5385 L66.0827,41.9955 L66.8987,41.9955 C67.3727,41.9955 67.7247,41.8835 67.9527,41.6615 C68.1817,41.4395 68.2977,41.1385 68.2977,40.7545 C68.2977,40.3715 68.1777,40.0725 67.9427,39.8575 C67.7067,39.6435 67.3657,39.5385 66.9267,39.5385 Z M67.6437,41.3915 C67.4857,41.5355 67.2567,41.6055 66.9587,41.6055 L66.4977,41.6055 L66.4977,39.9215 L66.9127,39.9215 C67.5557,39.9215 67.8797,40.2025 67.8797,40.7655 C67.8797,41.0435 67.8017,41.2505 67.6437,41.3915 Z M70.5037,41.9955 L70.9187,41.9955 L70.9187,39.5385 L70.5037,39.5385 L70.5037,41.9955 Z M73.7957,41.3735 L72.3687,39.5385 L71.9537,39.5385 L71.9537,41.9955 L72.3687,41.9955 L72.3687,40.2025 L73.7607,41.9955 L74.2107,41.9955 L74.2107,39.5385 L73.7957,39.5385 L73.7957,41.3735 Z M76.3247,39.9075 L76.8237,39.9075 L76.8237,41.9955 L77.2177,41.9955 L77.2177,39.5385 L76.3247,39.5385 L76.3247,39.9075 Z M78.6117,41.5955 C78.5207,41.5565 78.4467,41.5145 78.3937,41.4685 L78.1867,41.7735 C78.4007,41.9395 78.6437,42.0235 78.9107,42.0235 C79.1747,42.0235 79.3997,41.9295 79.5827,41.7355 C79.6767,41.6375 79.7507,41.5035 79.8037,41.3345 C79.8567,41.1665 79.8847,40.9555 79.8847,40.7015 C79.8847,40.4485 79.8427,40.2205 79.7577,40.0195 C79.6067,39.6685 79.3367,39.4925 78.9427,39.4925 C78.6997,39.4925 78.4957,39.5665 78.3377,39.7145 C78.1757,39.8615 78.0947,40.0555 78.0947,40.2975 C78.0947,40.5405 78.1697,40.7365 78.3197,40.8815 C78.4677,41.0285 78.6507,41.1025 78.8717,41.1025 C79.0057,41.1025 79.1287,41.0745 79.2377,41.0155 C79.3467,40.9585 79.4307,40.8985 79.4907,40.8325 C79.4867,41.0815 79.4347,41.2815 79.3327,41.4305 C79.2307,41.5775 79.0687,41.6505 78.8507,41.6505 L78.6117,41.5955 Z M78.5947,40.6065 C78.5137,40.5185 78.4717,40.4135 78.4717,40.2875 C78.4717,40.1605 78.5167,40.0555 78.6047,39.9745 C78.6927,39.8925 78.8087,39.8545 78.9457,39.8545 C79.0827,39.8545 79.1957,39.9005 79.2867,39.9885 C79.3787,40.0795 79.4237,40.1885 79.4237,40.3115 C79.4237,40.4375 79.3787,40.5405 79.2837,40.6175 C79.1887,40.6985 79.0687,40.7365 78.9287,40.7365 C78.7847,40.7365 78.6747,40.6945 78.5947,40.6065 Z M80.7377,40.1425 C80.7377,40.3325 80.8257,40.5015 81.0017,40.6455 C80.7667,40.7975 80.6467,41.0085 80.6467,41.2785 C80.6467,41.4895 80.7317,41.6655 80.9007,41.8095 C81.0687,41.9535 81.2907,42.0235 81.5647,42.0235 C81.8387,42.0235 82.0597,41.9535 82.2287,41.8095 C82.3977,41.6655 82.4817,41.4895 82.4817,41.2785 C82.4817,41.0085 82.3627,40.7975 82.1267,40.6455 C82.3027,40.5015 82.3907,40.3325 82.3907,40.1425 C82.3907,39.9565 82.3137,39.7985 82.1547,39.6755 C81.9967,39.5525 81.7997,39.4885 81.5647,39.4885 C81.3287,39.4885 81.1317,39.5525 80.9737,39.6755 C80.8157,39.7985 80.7377,39.9565 80.7377,40.1425 Z M81.0587,41.2645 C81.0587,41.1345 81.1107,41.0355 81.2127,40.9655 C81.3147,40.8945 81.4347,40.8595 81.5647,40.8595 C81.6947,40.8595 81.8137,40.8945 81.9157,40.9655 C82.0177,41.0355 82.0707,41.1345 82.0707,41.2645 C82.0707,41.3945 82.0177,41.4925 81.9087,41.5595 C81.7997,41.6305 81.6877,41.6655 81.5647,41.6655 C81.4417,41.6655 81.3287,41.6305 81.2197,41.5595 C81.1107,41.4925 81.0587,41.3945 81.0587,41.2645 Z M81.1217,40.1785 C81.1217,40.0765 81.1677,39.9885 81.2547,39.9185 C81.3427,39.8485 81.4447,39.8125 81.5647,39.8125 C81.6837,39.8125 81.7897,39.8485 81.8777,39.9185 C81.9647,39.9885 82.0067,40.0765 82.0067,40.1785 C82.0067,40.2835 81.9647,40.3715 81.8777,40.4415 C81.7897,40.5165 81.6837,40.5515 81.5647,40.5515 C81.4447,40.5515 81.3427,40.5165 81.2547,40.4415 C81.1677,40.3715 81.1217,40.2835 81.1217,40.1785 Z M83.7327,41.5955 C83.6417,41.5565 83.5677,41.5145 83.5147,41.4685 L83.3077,41.7735 C83.5217,41.9395 83.7647,42.0235 84.0317,42.0235 C84.2957,42.0235 84.5207,41.9295 84.7027,41.7355 C84.7977,41.6375 84.8717,41.5035 84.9247,41.3345 C84.9777,41.1665 85.0057,40.9555 85.0057,40.7015 C85.0057,40.4485 84.9637,40.2205 84.8787,40.0195 C84.7277,39.6685 84.4577,39.4925 84.0637,39.4925 C83.8207,39.4925 83.6167,39.5665 83.4587,39.7145 C83.2967,39.8615 83.2157,40.0555 83.2157,40.2975 C83.2157,40.5405 83.2897,40.7365 83.4417,40.8815 C83.5887,41.0285 83.7717,41.1025 83.9927,41.1025 C84.1267,41.1025 84.2497,41.0745 84.3587,41.0155 C84.4677,40.9585 84.5517,40.8985 84.6117,40.8325 C84.6087,41.0815 84.5557,41.2815 84.4537,41.4305 C84.3517,41.5775 84.1897,41.6505 83.9717,41.6505 L83.7327,41.5955 Z M83.7147,40.6065 C83.6347,40.5185 83.5917,40.4135 83.5917,40.2875 C83.5917,40.1605 83.6377,40.0555 83.7257,39.9745 C83.8137,39.8925 83.9297,39.8545 84.0667,39.8545 C84.2037,39.8545 84.3167,39.9005 84.4077,39.9885 C84.4997,40.0795 84.5457,40.1885 84.5457,40.3115 C84.5457,40.4375 84.4997,40.5405 84.4047,40.6175 C84.3097,40.6985 84.1897,40.7365 84.0487,40.7365 C83.9047,40.7365 83.7967,40.6945 83.7147,40.6065 Z" id="Fill-18" fill="#414042"></path>
            <mask id="mask-4" fill="white">
                <use xlink:href="#path-3"></use>
            </mask>
            <g id="Clip-21"></g>
            <polygon id="Fill-20" fill="#414042" mask="url(#mask-4)" points="59.616 97.451 66.283 97.451 66.283 95.058 59.616 95.058"></polygon>
        </g>
    </g>
</svg>