<?xml version="1.0" encoding="UTF-8"?>
<svg width="120px" height="104px" viewBox="0 0 120 104" version="1.1" xmlns="http://www.w3.org/2000/svg" xmlns:xlink="http://www.w3.org/1999/xlink">
    <!-- Generator: Sketch 49 (51002) - http://www.bohemiancoding.com/sketch -->
    <title>vintage-logo-13</title>
    <desc>Created with Sketch.</desc>
    <defs>
        <polygon id="path-1" points="0.284466109 0.438 3.406 0.438 3.406 3.89098816 0.284466109 3.89098816"></polygon>
        <polygon id="path-3" points="0 104.562 119.211 104.562 119.211 1 0 1"></polygon>
    </defs>
    <g id="Page-1" stroke="none" stroke-width="1" fill="none" fill-rule="evenodd">
        <g id="vintage-logo-13" transform="translate(0.000000, -1.000000)">
            <path d="M23.586,4.9641 C23.315,4.7731 23.014,4.7061 22.682,4.7671 C22.348,4.8261 22.088,4.9951 21.904,5.2691 C21.718,5.5431 21.658,5.8441 21.72,6.1751 C21.782,6.5031 21.947,6.7631 22.217,6.9511 C22.486,7.1411 22.784,7.2061 23.114,7.1461 C23.443,7.0871 23.699,6.9201 23.885,6.6491 C24.07,6.3771 24.135,6.0751 24.077,5.7451 C24.019,5.4161 23.855,5.1541 23.586,4.9641 M24.362,6.9441 C24.083,7.3281 23.698,7.5641 23.206,7.6521 C22.714,7.7421 22.271,7.6571 21.875,7.3971 C21.48,7.1361 21.234,6.7671 21.142,6.2841 C21.05,5.8021 21.142,5.3651 21.42,4.9791 C21.698,4.5911 22.088,4.3521 22.589,4.2601 C23.09,4.1691 23.539,4.2561 23.936,4.5211 C24.332,4.7861 24.571,5.1601 24.655,5.6461 C24.739,6.1291 24.64,6.5621 24.362,6.9441" id="Fill-1" fill="#414042"></path>
            <path d="M29.1866,4.8244 C29.2866,4.7104 29.3206,4.5454 29.2886,4.3284 C29.2566,4.1134 29.1756,3.9744 29.0446,3.9124 C28.9146,3.8494 28.6956,3.8414 28.3906,3.8874 C28.1496,3.9254 27.9096,3.9624 27.6686,3.9994 C27.7306,4.3934 27.7926,4.7854 27.8536,5.1784 C28.0876,5.1414 28.3226,5.1054 28.5576,5.0694 C28.8756,5.0204 29.0856,4.9394 29.1866,4.8244 M29.8716,4.2464 C29.9496,4.7904 29.7586,5.1674 29.2986,5.3824 C29.6496,5.7364 30.0006,6.0944 30.3486,6.4504 C30.1106,6.4844 29.8726,6.5204 29.6356,6.5554 C29.3156,6.2244 28.9956,5.8964 28.6726,5.5684 C28.4256,5.6054 28.1796,5.6444 27.9326,5.6824 C27.9906,6.0524 28.0486,6.4204 28.1056,6.7894 C27.9196,6.8184 27.7326,6.8484 27.5456,6.8784 C27.3716,5.7814 27.1956,4.6834 27.0206,3.5874 C27.4386,3.5204 27.8566,3.4554 28.2746,3.3904 C28.7896,3.3114 29.1716,3.3414 29.4186,3.4784 C29.6656,3.6144 29.8166,3.8724 29.8716,4.2464" id="Fill-3" fill="#414042"></path>
            <path d="M32.4688,2.7912 C32.6588,2.7672 32.8498,2.7402 33.0398,2.7162 C33.1828,3.8172 33.3258,4.9192 33.4698,6.0212 C33.2818,6.0452 33.0938,6.0692 32.9078,6.0962 C32.7608,4.9932 32.6158,3.8922 32.4688,2.7912" id="Fill-5" fill="#414042"></path>
            <path d="M38.439,3.8068 C38.628,3.7878 38.818,3.7678 39.006,3.7498 C39.045,4.1268 39.084,4.5058 39.122,4.8828 C38.841,5.2608 38.408,5.4788 37.824,5.5418 C37.332,5.5948 36.901,5.4808 36.532,5.1958 C36.162,4.9108 35.947,4.5248 35.889,4.0318 C35.832,3.5388 35.955,3.1088 36.261,2.7408 C36.566,2.3718 36.965,2.1618 37.453,2.1088 C37.941,2.0558 38.363,2.1538 38.713,2.3988 C38.626,2.5508 38.539,2.7028 38.452,2.8568 C38.309,2.7608 38.168,2.6978 38.029,2.6688 C37.892,2.6398 37.733,2.6348 37.555,2.6548 C37.214,2.6908 36.939,2.8318 36.732,3.0748 C36.524,3.3168 36.441,3.6138 36.481,3.9658 C36.522,4.3178 36.666,4.5878 36.913,4.7768 C37.159,4.9648 37.442,5.0408 37.759,5.0068 C38.076,4.9718 38.334,4.8758 38.534,4.7178 C38.503,4.4148 38.47,4.1118 38.439,3.8068" id="Fill-7" fill="#414042"></path>
            <path d="M41.5274,1.7912 C41.7184,1.7742 41.9094,1.7582 42.1004,1.7412 C42.1954,2.8492 42.2894,3.9552 42.3834,5.0622 C42.1964,5.0782 42.0084,5.0952 41.8204,5.1112 C41.7224,4.0042 41.6254,2.8972 41.5274,1.7912" id="Fill-9" fill="#414042"></path>
            <path d="M47.5332,1.3488 C47.7242,1.3378 47.9162,1.3278 48.1062,1.3158 C48.1692,2.4248 48.2322,3.5338 48.2942,4.6438 C48.0902,4.6558 47.8872,4.6678 47.6822,4.6788 C47.0022,3.9078 46.3162,3.1388 45.6212,2.3728 C45.6772,3.1828 45.7322,3.9918 45.7872,4.7998 C45.5992,4.8138 45.4112,4.8268 45.2232,4.8388 C45.1432,3.7318 45.0652,2.6228 44.9862,1.5158 C45.1772,1.5008 45.3682,1.4898 45.5602,1.4748 C46.2742,2.2568 46.9812,3.0438 47.6802,3.8338 C47.6312,3.0048 47.5822,2.1768 47.5332,1.3488" id="Fill-11" fill="#414042"></path>
            <path d="M53.0162,3.1525 C52.7972,2.7025 52.5762,2.2525 52.3542,1.8015 C52.1662,2.2665 51.9772,2.7315 51.7912,3.1975 C52.2002,3.1815 52.6072,3.1665 53.0162,3.1525 M51.5812,3.7245 C51.4792,3.9835 51.3782,4.2395 51.2762,4.4975 C51.0762,4.5065 50.8752,4.5145 50.6732,4.5225 C51.1162,3.3915 51.5652,2.2605 52.0232,1.1325 C52.2272,1.1245 52.4322,1.1175 52.6362,1.1105 C53.1742,2.2045 53.7042,3.2985 54.2272,4.3955 C54.0252,4.4015 53.8242,4.4065 53.6222,4.4135 C53.5032,4.1635 53.3832,3.9145 53.2632,3.6655 C52.7032,3.6825 52.1422,3.7035 51.5812,3.7245" id="Fill-13" fill="#414042"></path>
            <path d="M56.607,4.3449 C56.59,3.2339 56.572,2.1229 56.555,1.0119 C56.746,1.0089 56.938,1.0059 57.129,1.0039 C57.142,1.9369 57.153,2.8699 57.166,3.8019 C57.676,3.7969 58.186,3.7919 58.697,3.7889 L58.7,4.3229 C58.003,4.3259 57.305,4.3329 56.607,4.3449" id="Fill-15" fill="#414042"></path>
            <g id="Group-19" transform="translate(64.000000, 0.562000)">
                <mask id="mask-2" fill="white">
                    <use xlink:href="#path-1"></use>
                </mask>
                <g id="Clip-18"></g>
                <path d="M2.837,2.2556 C3.026,2.2626 3.217,2.2696 3.406,2.2766 C3.393,2.6556 3.379,3.0366 3.364,3.4156 C3.035,3.7506 2.578,3.9076 1.991,3.8896 C1.496,3.8746 1.087,3.7016 0.76,3.3696 C0.433,3.0376 0.274,2.6236 0.285,2.1276 C0.295,1.6326 0.476,1.2226 0.829,0.9006 C1.182,0.5786 1.605,0.4236 2.095,0.4386 C2.585,0.4526 2.988,0.6086 3.303,0.8986 C3.195,1.0376 3.087,1.1766 2.981,1.3166 C2.853,1.2006 2.722,1.1186 2.588,1.0726 C2.455,1.0246 2.3,0.9986 2.122,0.9926 C1.778,0.9816 1.487,1.0836 1.249,1.2946 C1.01,1.5066 0.887,1.7896 0.879,2.1436 C0.869,2.4986 0.976,2.7846 1.194,3.0056 C1.413,3.2266 1.681,3.3406 2,3.3506 C2.318,3.3596 2.587,3.3016 2.806,3.1716 C2.816,2.8656 2.827,2.5616 2.837,2.2556" id="Fill-17" fill="#414042" mask="url(#mask-2)"></path>
            </g>
            <path d="M72.5577,1.3781 C72.5477,1.5551 72.5367,1.7311 72.5257,1.9051 C71.9227,1.8681 71.3197,1.8341 70.7167,1.8031 C70.7007,2.0961 70.6847,2.3911 70.6697,2.6851 C71.2087,2.7121 71.7487,2.7421 72.2867,2.7741 C72.2777,2.9411 72.2667,3.1081 72.2577,3.2741 C71.7197,3.2421 71.1827,3.2121 70.6427,3.1841 C70.6277,3.4821 70.6127,3.7771 70.5967,4.0751 C71.2127,4.1071 71.8277,4.1431 72.4437,4.1801 C72.4327,4.3571 72.4217,4.5321 72.4117,4.7081 C71.6087,4.6591 70.8067,4.6141 70.0037,4.5741 C70.0597,3.4641 70.1147,2.3561 70.1697,1.2451 C70.9657,1.2851 71.7617,1.3301 72.5577,1.3781" id="Fill-20" fill="#414042"></path>
            <path d="M77.8394,1.7707 C78.0304,1.7877 78.2214,1.8037 78.4124,1.8217 C78.3124,2.9267 78.2134,4.0347 78.1134,5.1407 C77.9104,5.1227 77.7064,5.1047 77.5024,5.0857 C76.9414,4.2237 76.3744,3.3647 75.7984,2.5067 C75.7354,3.3147 75.6724,4.1227 75.6104,4.9317 C75.4224,4.9167 75.2354,4.9027 75.0464,4.8887 C75.1294,3.7807 75.2124,2.6717 75.2944,1.5647 C75.4854,1.5797 75.6764,1.5937 75.8674,1.6087 C76.4624,2.4867 77.0464,3.3667 77.6234,4.2497 C77.6954,3.4227 77.7684,2.5967 77.8394,1.7707" id="Fill-22" fill="#414042"></path>
            <path d="M81.7808,4.7365 C81.9148,4.9305 82.1128,5.0415 82.3738,5.0695 C82.6348,5.0985 82.8518,5.0335 83.0248,4.8735 C83.1978,4.7145 83.3028,4.4825 83.3378,4.1795 C83.4078,3.5695 83.4778,2.9585 83.5488,2.3465 C83.7388,2.3695 83.9288,2.3915 84.1208,2.4135 C84.0478,3.0325 83.9738,3.6505 83.9018,4.2695 C83.8458,4.7465 83.6698,5.0975 83.3748,5.3245 C83.0808,5.5505 82.7288,5.6415 82.3158,5.5945 C81.9018,5.5485 81.5778,5.3855 81.3408,5.0995 C81.1038,4.8135 81.0088,4.4335 81.0578,3.9545 C81.1228,3.3355 81.1868,2.7155 81.2508,2.0945 C81.4418,2.1155 81.6328,2.1345 81.8228,2.1565 C81.7578,2.7685 81.6918,3.3805 81.6278,3.9915 C81.5948,4.2945 81.6468,4.5435 81.7808,4.7365" id="Fill-24" fill="#414042"></path>
            <path d="M86.9517,2.7678 C87.1417,2.7908 87.3327,2.8168 87.5217,2.8428 C87.3747,3.9448 87.2257,5.0448 87.0787,6.1448 C86.8907,6.1208 86.7037,6.0958 86.5167,6.0708 C86.6617,4.9698 86.8057,3.8688 86.9517,2.7678" id="Fill-26" fill="#414042"></path>
            <path d="M92.9219,3.6418 C93.1109,3.6718 93.3019,3.7028 93.4909,3.7338 C93.3109,4.8298 93.1299,5.9258 92.9499,7.0218 C92.7489,6.9898 92.5459,6.9558 92.3439,6.9238 C91.8459,6.0228 91.3409,5.1218 90.8289,4.2258 C90.7069,5.0278 90.5859,5.8288 90.4639,6.6298 C90.2769,6.6018 90.0909,6.5738 89.9029,6.5458 C90.0669,5.4478 90.2299,4.3488 90.3939,3.2488 C90.5839,3.2778 90.7739,3.3058 90.9639,3.3348 C91.4919,4.2528 92.0139,5.1748 92.5259,6.0988 C92.6579,5.2788 92.7899,4.4598 92.9219,3.6418" id="Fill-28" fill="#414042"></path>
            <path d="M98.7129,4.6594 C98.6799,4.8324 98.6459,5.0064 98.6139,5.1794 C98.0179,5.0654 97.4219,4.9544 96.8249,4.8464 C96.7729,5.1364 96.7199,5.4264 96.6679,5.7154 C97.2009,5.8114 97.7339,5.9104 98.2669,6.0124 C98.2359,6.1764 98.2049,6.3394 98.1739,6.5024 C97.6429,6.4024 97.1109,6.3034 96.5789,6.2074 C96.5249,6.4994 96.4729,6.7924 96.4199,7.0854 C97.0279,7.1954 97.6359,7.3084 98.2449,7.4254 C98.2119,7.5974 98.1789,7.7694 98.1459,7.9444 C97.3529,7.7934 96.5599,7.6474 95.7659,7.5054 C95.9619,6.4114 96.1569,5.3164 96.3519,4.2234 C97.1389,4.3644 97.9259,4.5104 98.7129,4.6594" id="Fill-30" fill="#414042"></path>
            <path d="M15.0777,25.4602 L12.7237,52.4222 C12.5567,54.1132 11.7617,54.9422 10.2687,54.9422 L6.6537,54.9422 L6.4547,57.1652 L11.4627,57.1652 C13.0217,57.1652 14.3487,56.7002 15.4097,55.8052 C16.4707,54.9092 17.0677,53.7822 17.1667,52.4222 L19.5217,25.4602 L15.0777,25.4602 Z M33.1187,26.9192 C32.0907,25.9582 30.6977,25.4602 28.9067,25.4602 L27.4807,25.4602 C25.6897,25.4602 24.1977,25.9582 23.0367,26.9192 C21.8427,27.9142 21.1797,29.1422 21.0467,30.6012 L19.8197,44.7622 C19.6867,46.2212 20.1187,47.4142 21.1137,48.3762 C22.1407,49.4042 23.5347,49.9012 25.3257,49.9012 L26.7847,49.9012 C28.6087,49.9012 30.1007,49.4042 31.2947,48.3762 C32.4217,47.4142 33.0527,46.2212 33.1847,44.7622 L34.4447,30.6012 C34.5777,29.1422 34.1467,27.9142 33.1187,26.9192 Z M28.7407,45.4252 C28.7077,46.0552 28.4427,46.6182 27.9447,47.0502 C27.4477,47.4812 26.8837,47.7132 26.2537,47.7132 C25.6237,47.7132 25.0927,47.4812 24.6947,47.0172 C24.2637,46.5852 24.0987,46.0552 24.1637,45.4252 L25.5237,29.9712 C25.5907,29.3402 25.8557,28.8102 26.3527,28.3462 C26.8507,27.9142 27.3817,27.6822 28.0117,27.6822 C28.6407,27.6822 29.1387,27.9142 29.5367,28.3462 C29.9347,28.8102 30.1007,29.3402 30.0677,29.9712 L28.7407,45.4252 Z M45.6867,25.4602 L44.7247,36.5702 L40.5457,36.5702 L41.5077,25.4602 L35.8367,25.4602 L35.6377,27.6822 L36.8977,27.6822 L34.9417,49.9012 L39.3857,49.9012 L40.3477,38.7922 L44.5587,38.7922 L43.8957,46.4532 C43.7957,47.5802 44.0947,48.4422 44.7247,49.0062 C45.3547,49.6042 46.2177,49.9012 47.3117,49.9012 L49.2017,49.9012 L49.4007,47.6802 C48.6047,47.6802 48.2407,47.2822 48.3067,46.4532 L50.1307,25.4602 L45.6867,25.4602 Z M64.2567,26.7542 C63.1627,25.8922 61.7027,25.4602 59.9457,25.4602 L52.2517,25.4602 L52.0527,27.6822 L53.3797,27.6822 L51.4557,49.9012 L55.8997,49.9012 L57.8237,27.8482 L59.7467,27.8142 C60.2777,27.8142 60.7087,28.0802 61.0737,28.5772 C61.4047,29.0752 61.5377,29.8052 61.4377,30.7002 L60.0457,46.4532 C59.9457,47.5802 60.2447,48.4422 60.9407,49.0722 C61.5707,49.6372 62.3997,49.9012 63.4947,49.9012 L65.2857,49.9012 L65.4837,47.6802 C64.7877,47.6472 64.4557,47.2492 64.5227,46.4532 L65.8817,30.7002 C66.0477,29.0092 65.4837,27.7152 64.2567,26.7542 Z M75.4977,25.4602 C73.5087,25.4602 71.8167,25.9912 70.4577,27.0852 C68.8327,28.3792 68.0037,30.0372 68.0037,32.0602 C68.0037,33.2212 68.3347,34.2152 68.9647,35.1102 L73.5417,41.4452 C74.2707,42.4402 74.6367,43.4352 74.6367,44.4302 C74.6367,45.3922 74.2707,46.1542 73.5747,46.7512 C72.8787,47.3812 71.8497,47.6802 70.5567,47.6802 L67.7047,47.6802 L67.4727,49.9012 L70.7557,49.9012 C73.0777,49.9012 74.9677,49.3052 76.4597,48.1452 C78.2177,46.7842 79.0797,44.9602 79.0797,42.6722 C79.0797,40.9812 78.5827,39.4882 77.5877,38.1952 L73.5087,32.8892 C72.8457,32.0262 72.5137,31.1642 72.5137,30.3022 C72.5137,29.4062 72.9447,28.6772 73.7737,28.1132 C74.2047,27.8142 75.0007,27.6822 76.0957,27.6822 L78.2177,27.6822 L78.4167,25.4602 L75.4977,25.4602 Z M93.6707,26.9192 C92.6427,25.9582 91.2497,25.4602 89.4587,25.4602 L88.0337,25.4602 C86.2427,25.4602 84.7497,25.9582 83.5897,26.9192 C82.3957,27.9142 81.7317,29.1422 81.5987,30.6012 L80.3717,44.7622 C80.2397,46.2212 80.6707,47.4142 81.6657,48.3762 C82.6937,49.4042 84.0867,49.9012 85.8777,49.9012 L87.3367,49.9012 C89.1607,49.9012 90.6527,49.4042 91.8477,48.3762 C92.9747,47.4142 93.6047,46.2212 93.7377,44.7622 L94.9977,30.6012 C95.1307,29.1422 94.6997,27.9142 93.6707,26.9192 Z M89.2937,45.4252 C89.2607,46.0552 88.9947,46.6182 88.4977,47.0502 C87.9997,47.4812 87.4357,47.7132 86.8067,47.7132 C86.1757,47.7132 85.6457,47.4812 85.2477,47.0172 C84.8167,46.5852 84.6507,46.0552 84.7167,45.4252 L86.0767,29.9712 C86.1427,29.3402 86.4087,28.8102 86.9057,28.3462 C87.4027,27.9142 87.9337,27.6822 88.5637,27.6822 C89.1937,27.6822 89.6917,27.9142 90.0897,28.3462 C90.4877,28.8102 90.6527,29.3402 90.6197,29.9712 L89.2937,45.4252 Z M108.5937,26.7542 C107.4987,25.8922 106.0397,25.4602 104.2827,25.4602 L96.5887,25.4602 L96.3897,27.6822 L97.7157,27.6822 L95.7927,49.9012 L100.2367,49.9012 L102.1597,27.8482 L104.0837,27.8142 C104.6137,27.8142 105.0447,28.0802 105.4097,28.5772 C105.7417,29.0752 105.8737,29.8052 105.7747,30.7002 L104.3817,46.4532 C104.2827,47.5802 104.5807,48.4422 105.2777,49.0722 C105.9077,49.6372 106.7367,49.9012 107.8307,49.9012 L109.6217,49.9012 L109.8207,47.6802 C109.1237,47.6472 108.7927,47.2492 108.8587,46.4532 L110.2187,30.7002 C110.3847,29.0092 109.8207,27.7152 108.5937,26.7542 Z" id="Fill-32" fill="#414042"></path>
            <path d="M60.0914,53.9358 C58.1014,53.9358 56.4104,54.4668 55.0504,55.5608 C53.4254,56.8548 52.5964,58.5128 52.5964,60.5358 C52.5964,61.6968 52.9284,62.6918 53.5584,63.5868 L58.1344,69.9208 C58.8644,70.9158 59.2294,71.9108 59.2294,72.9058 C59.2294,73.8678 58.8644,74.6298 58.1684,75.2268 C57.4714,75.8578 56.4434,76.1558 55.1504,76.1558 L52.2984,76.1558 L52.0664,78.3778 L55.3494,78.3778 C57.6704,78.3778 59.5614,77.7808 61.0534,76.6208 C62.8114,75.2598 63.6734,73.4368 63.6734,71.1478 C63.6734,69.4568 63.1754,67.9638 62.1804,66.6708 L58.1014,61.3648 C57.4384,60.5018 57.1074,59.6398 57.1074,58.7778 C57.1074,57.8828 57.5384,57.1528 58.3674,56.5888 C58.7984,56.2898 59.5944,56.1588 60.6884,56.1588 L62.8114,56.1588 L63.0094,53.9358 L60.0914,53.9358 Z M78.2644,55.3958 C77.2364,54.4338 75.8434,53.9358 74.0524,53.9358 L72.6264,53.9358 C70.8354,53.9358 69.3434,54.4338 68.1824,55.3958 C66.9884,56.3898 66.3254,57.6178 66.1924,59.0768 L64.9654,73.2378 C64.8334,74.6968 65.2644,75.8908 66.2584,76.8518 C67.2874,77.8798 68.6794,78.3778 70.4704,78.3778 L71.9294,78.3778 C73.7544,78.3778 75.2464,77.8798 76.4404,76.8518 C77.5684,75.8908 78.1974,74.6968 78.3304,73.2378 L79.5914,59.0768 C79.7234,57.6178 79.2924,56.3898 78.2644,55.3958 Z M73.8864,73.9008 C73.8534,74.5308 73.5884,75.0948 73.0914,75.5258 C72.5934,75.9568 72.0294,76.1888 71.3994,76.1888 C70.7694,76.1888 70.2384,75.9568 69.8404,75.4928 C69.4094,75.0618 69.2434,74.5308 69.3104,73.9008 L70.6694,58.4468 C70.7364,57.8168 71.0014,57.2858 71.4984,56.8218 C71.9964,56.3898 72.5274,56.1588 73.1564,56.1588 C73.7874,56.1588 74.2844,56.3898 74.6824,56.8218 C75.0804,57.2858 75.2464,57.8168 75.2134,58.4468 L73.8864,73.9008 Z M93.1864,55.2298 C92.0924,54.3678 90.6334,53.9358 88.8754,53.9358 L81.1814,53.9358 L80.9824,56.1588 L82.3094,56.1588 L80.3854,78.3778 L84.8294,78.3778 L86.7534,56.3238 L88.6764,56.2898 C89.2074,56.2898 89.6384,56.5558 90.0034,57.0538 C90.3344,57.5508 90.4674,58.2808 90.3674,59.1758 L88.9754,74.9288 C88.8754,76.0558 89.1744,76.9178 89.8704,77.5488 C90.5004,78.1128 91.3294,78.3778 92.4244,78.3778 L94.2154,78.3778 L94.4134,76.1558 C93.7174,76.1228 93.3854,75.7248 93.4524,74.9288 L94.8114,59.1758 C94.9774,57.4848 94.4134,56.1918 93.1864,55.2298 Z M104.4284,53.9358 C102.4384,53.9358 100.7474,54.4668 99.3874,55.5608 C97.7624,56.8548 96.9334,58.5128 96.9334,60.5358 C96.9334,61.6968 97.2644,62.6918 97.8954,63.5868 L102.4714,69.9208 C103.2014,70.9158 103.5664,71.9108 103.5664,72.9058 C103.5664,73.8678 103.2014,74.6298 102.5044,75.2268 C101.8084,75.8578 100.7804,76.1558 99.4874,76.1558 L96.6344,76.1558 L96.4024,78.3778 L99.6854,78.3778 C102.0074,78.3778 103.8974,77.7808 105.3894,76.6208 C107.1474,75.2598 108.0094,73.4368 108.0094,71.1478 C108.0094,69.4568 107.5124,67.9638 106.5174,66.6708 L102.4384,61.3648 C101.7754,60.5018 101.4434,59.6398 101.4434,58.7778 C101.4434,57.8828 101.8744,57.1528 102.7034,56.5888 C103.1344,56.2898 103.9304,56.1588 105.0254,56.1588 L107.1474,56.1588 L107.3464,53.9358 L104.4284,53.9358 Z" id="Fill-34" fill="#414042"></path>
            <path d="M53.0108,88.1223 C52.8328,88.2373 52.6148,88.2933 52.3528,88.2933 C52.0868,88.2933 51.8648,88.2013 51.6778,88.0233 C51.4918,87.8453 51.4008,87.6103 51.4008,87.3133 C51.4008,87.0193 51.4958,86.7823 51.6858,86.6003 C51.8768,86.4213 52.1108,86.3303 52.3918,86.3303 C52.5388,86.3303 52.6658,86.3463 52.7768,86.3813 C52.8838,86.4173 52.9948,86.4843 53.1018,86.5753 L53.3518,86.2193 C53.0858,85.9843 52.7568,85.8703 52.3568,85.8703 C51.9558,85.8703 51.6188,86.0093 51.3378,86.2823 C51.0558,86.5563 50.9128,86.9003 50.9128,87.3133 C50.9128,87.7263 51.0518,88.0663 51.3288,88.3363 C51.6028,88.6063 51.9478,88.7413 52.3568,88.7413 C52.8438,88.7413 53.2168,88.5983 53.4788,88.3093 L53.4788,87.3603 L53.0108,87.3603 L53.0108,88.1223 Z M55.2828,85.9373 L55.2828,88.7093 L57.2778,88.7093 L57.2778,88.2683 L55.7518,88.2683 L55.7518,87.5273 L57.0798,87.5273 L57.0798,87.1113 L55.7518,87.1113 L55.7518,86.3773 L57.2308,86.3773 L57.2308,85.9373 L55.2828,85.9373 Z M61.1448,88.0073 L59.5348,85.9373 L59.0668,85.9373 L59.0668,88.7093 L59.5348,88.7093 L59.5348,86.6863 L61.1048,88.7093 L61.6128,88.7093 L61.6128,85.9373 L61.1448,85.9373 L61.1448,88.0073 Z M64.0048,87.4723 L64.0048,85.9373 L63.5358,85.9373 L63.5358,87.4913 C63.5358,87.8933 63.6478,88.1973 63.8648,88.4123 C64.0838,88.6303 64.3648,88.7373 64.7098,88.7373 C65.0548,88.7373 65.3368,88.6303 65.5548,88.4123 C65.7728,88.1973 65.8838,87.8933 65.8838,87.4913 L65.8838,85.9373 L65.4158,85.9373 L65.4158,87.4723 C65.4158,87.7263 65.3528,87.9283 65.2258,88.0743 C65.0988,88.2223 64.9278,88.2973 64.7098,88.2973 C64.4918,88.2973 64.3218,88.2223 64.1948,88.0743 C64.0678,87.9283 64.0048,87.7263 64.0048,87.4723 Z M67.8078,88.7093 L68.2758,88.7093 L68.2758,85.9383 L67.8078,85.9383 L67.8078,88.7093 Z M72.3128,88.0073 L70.7028,85.9373 L70.2348,85.9373 L70.2348,88.7093 L70.7028,88.7093 L70.7028,86.6863 L72.2728,88.7093 L72.7808,88.7093 L72.7808,85.9373 L72.3128,85.9373 L72.3128,88.0073 Z M74.7398,85.9373 L74.7398,88.7093 L76.7348,88.7093 L76.7348,88.2683 L75.2078,88.2683 L75.2078,87.5273 L76.5358,87.5273 L76.5358,87.1113 L75.2078,87.1113 L75.2078,86.3773 L76.6868,86.3773 L76.6868,85.9373 L74.7398,85.9373 Z M81.3948,87.9993 C81.2038,87.8123 81.1088,87.5753 81.1088,87.2933 C81.1088,87.0123 81.2038,86.7823 81.3948,86.6003 C81.5848,86.4213 81.8188,86.3303 82.0998,86.3303 C82.2588,86.3303 82.3978,86.3533 82.5168,86.4053 C82.6318,86.4573 82.7588,86.5443 82.8898,86.6713 L83.1868,86.3463 C82.8978,86.0283 82.5408,85.8703 82.1128,85.8703 C81.6798,85.8703 81.3268,86.0093 81.0458,86.2823 C80.7638,86.5563 80.6208,86.9003 80.6208,87.3133 C80.6208,87.7263 80.7598,88.0663 81.0378,88.3363 C81.3108,88.6063 81.6598,88.7413 82.0808,88.7413 C82.4968,88.7413 82.8538,88.5783 83.1478,88.2533 L82.8458,87.9433 C82.7188,88.0623 82.5958,88.1503 82.4808,88.2013 C82.3658,88.2573 82.2268,88.2853 82.0648,88.2853 C81.8068,88.2853 81.5808,88.1893 81.3948,87.9993 Z M87.1088,87.3013 C87.1088,87.5833 87.0138,87.8203 86.8278,88.0153 C86.6368,88.2093 86.4038,88.3093 86.1298,88.3093 C85.8558,88.3093 85.6218,88.2093 85.4358,88.0153 C85.2448,87.8203 85.1498,87.5833 85.1498,87.3013 C85.1498,87.0233 85.2448,86.7863 85.4358,86.5923 C85.6218,86.3973 85.8558,86.2983 86.1298,86.2983 C86.4038,86.2983 86.6368,86.3973 86.8278,86.5923 C87.0138,86.7863 87.1088,87.0233 87.1088,87.3013 Z M87.5888,87.3013 C87.5888,86.8933 87.4498,86.5523 87.1688,86.2783 C86.8868,86.0053 86.5418,85.8703 86.1298,85.8703 C85.7178,85.8703 85.3718,86.0053 85.0908,86.2783 C84.8088,86.5523 84.6708,86.8933 84.6708,87.3013 C84.6708,87.7103 84.8088,88.0513 85.0908,88.3243 C85.3718,88.5983 85.7178,88.7373 86.1298,88.7373 C86.5418,88.7373 86.8868,88.5983 87.1688,88.3243 C87.4498,88.0513 87.5888,87.7103 87.5888,87.3013 Z M89.8378,86.5443 L90.8018,88.4673 L91.0628,88.4673 L92.0308,86.5443 L92.0308,88.7093 L92.4988,88.7093 L92.4988,85.9373 L91.7728,85.9373 L90.9358,87.6783 L90.0998,85.9373 L89.3698,85.9373 L89.3698,88.7093 L89.8378,88.7093 L89.8378,86.5443 Z M95.4098,85.9373 L94.4578,85.9373 L94.4578,88.7093 L94.9258,88.7093 L94.9258,87.8963 L95.4178,87.8963 C95.8258,87.8963 96.1278,87.8163 96.3258,87.6623 C96.5198,87.5083 96.6188,87.2623 96.6188,86.9253 C96.6188,86.5883 96.5238,86.3423 96.3298,86.1793 C96.1358,86.0173 95.8298,85.9373 95.4098,85.9373 Z M95.4688,87.4723 L94.9258,87.4723 L94.9258,86.3613 L95.4018,86.3613 C95.6558,86.3613 95.8418,86.4013 95.9608,86.4803 C96.0798,86.5603 96.1388,86.6943 96.1388,86.8853 C96.1388,87.0793 96.0918,87.2223 96.0008,87.3213 C95.9058,87.4203 95.7268,87.4723 95.4688,87.4723 Z M99.9898,88.0783 L100.2678,88.7093 L100.7678,88.7093 L99.5458,85.9373 L99.0468,85.9373 L97.8248,88.7093 L98.3248,88.7093 L98.6018,88.0783 L99.9898,88.0783 Z M98.7928,87.6463 L99.2968,86.5043 L99.7998,87.6463 L98.7928,87.6463 Z M104.4198,88.0073 L102.8098,85.9373 L102.3428,85.9373 L102.3428,88.7093 L102.8098,88.7093 L102.8098,86.6863 L104.3808,88.7093 L104.8878,88.7093 L104.8878,85.9373 L104.4198,85.9373 L104.4198,88.0073 Z M107.9378,87.6143 L108.9688,85.9373 L108.4578,85.9373 L107.6998,87.1983 L106.9428,85.9373 L106.4308,85.9373 L107.4618,87.6143 L107.4618,88.7093 L107.9378,88.7093 L107.9378,87.6143 Z" id="Fill-36" fill="#414042"></path>
            <path d="M51.1646,92.7815 L51.1646,96.4975 L53.9026,96.4975 L53.9026,95.7635 L51.9936,95.7635 L51.9936,94.9935 L53.6576,94.9935 L53.6576,94.2865 L51.9936,94.2865 L51.9936,93.5205 L53.8446,93.5205 L53.8446,92.7815 L51.1646,92.7815 Z M56.3686,93.4255 C56.7136,93.4255 57.0436,93.5475 57.3686,93.7915 L57.7886,93.1855 C57.6016,93.0315 57.3896,92.9085 57.1396,92.8235 C56.8896,92.7385 56.6446,92.6965 56.3946,92.6965 C56.0176,92.6965 55.6986,92.7925 55.4486,92.9835 C55.1936,93.1755 55.0656,93.4455 55.0656,93.7975 C55.0656,94.1525 55.1666,94.4085 55.3696,94.5735 C55.5656,94.7375 55.8846,94.8765 56.3156,94.9765 C56.5866,95.0465 56.7726,95.1095 56.8626,95.1745 C56.9536,95.2425 57.0006,95.3285 57.0006,95.4395 C57.0006,95.5515 56.9586,95.6415 56.8736,95.7055 C56.7836,95.7745 56.6656,95.8065 56.5126,95.8065 C56.1716,95.8065 55.7996,95.6315 55.4006,95.2805 L54.9066,95.8855 C55.3796,96.3225 55.9056,96.5405 56.4966,96.5405 C56.9056,96.5405 57.2356,96.4335 57.4846,96.2265 C57.7346,96.0185 57.8566,95.7535 57.8566,95.4185 C57.8566,95.0835 57.7616,94.8335 57.5646,94.6585 C57.3686,94.4825 57.0966,94.3545 56.7466,94.2645 C56.3896,94.1795 56.1666,94.1045 56.0706,94.0415 C55.9696,93.9775 55.9216,93.8925 55.9216,93.7805 C55.9216,93.6745 55.9646,93.5895 56.0446,93.5205 C56.1236,93.4565 56.2306,93.4255 56.3686,93.4255 Z M61.6896,93.4995 L61.6896,92.7815 L58.7546,92.7815 L58.7546,93.4995 L59.8076,93.4995 L59.8076,96.4975 L60.6366,96.4975 L60.6366,93.4995 L61.6896,93.4995 Z M66.0856,96.4975 L64.4796,92.7815 L63.6776,92.7815 L62.0716,96.4975 L62.9546,96.4975 L63.2996,95.6945 L64.8576,95.6945 L65.2036,96.4975 L66.0856,96.4975 Z M64.5436,94.9665 L63.6136,94.9665 L64.0816,93.8865 L64.5436,94.9665 Z M69.7476,96.1515 C69.9236,95.9555 70.0136,95.7265 70.0136,95.4665 C70.0136,95.2325 69.9446,95.0355 69.8116,94.8765 C69.6736,94.7215 69.4876,94.6155 69.2586,94.5675 L69.3916,94.5045 L69.5246,94.4135 C69.7106,94.2695 69.8066,94.0565 69.8066,93.7645 C69.8066,93.5255 69.7216,93.3075 69.5566,93.1165 C69.4656,93.0145 69.3276,92.9295 69.1466,92.8715 C68.9606,92.8125 68.7426,92.7815 68.4936,92.7815 L67.0466,92.7815 L67.0466,96.4975 L68.6736,96.4975 C69.1846,96.4975 69.5406,96.3815 69.7476,96.1515 Z M67.8766,93.4825 L68.2746,93.4825 C68.5196,93.4825 68.6946,93.5105 68.7956,93.5625 C68.8966,93.6165 68.9506,93.7215 68.9506,93.8865 C68.9506,94.0525 68.8966,94.1635 68.7856,94.2115 C68.6736,94.2595 68.4976,94.2865 68.2696,94.2865 L67.8766,94.2865 L67.8766,93.4825 Z M67.8766,94.9395 L68.3656,94.9395 C68.6416,94.9395 68.8436,94.9665 68.9716,95.0195 C69.0936,95.0785 69.1576,95.1895 69.1576,95.3595 C69.1576,95.5355 69.0996,95.6465 68.9816,95.7055 C68.8596,95.7635 68.6846,95.7965 68.4456,95.7965 L67.8766,95.7965 L67.8766,94.9395 Z M73.6546,96.4975 L73.6546,95.7595 L72.0696,95.7595 L72.0696,92.7815 L71.2406,92.7815 L71.2406,96.4975 L73.6546,96.4975 Z M74.7916,96.4975 L75.6206,96.4975 L75.6206,92.7815 L74.7916,92.7815 L74.7916,96.4975 Z M78.2626,93.4255 C78.6076,93.4255 78.9376,93.5475 79.2626,93.7915 L79.6826,93.1855 C79.4966,93.0315 79.2836,92.9085 79.0336,92.8235 C78.7836,92.7385 78.5396,92.6965 78.2896,92.6965 C77.9116,92.6965 77.5926,92.7925 77.3426,92.9835 C77.0876,93.1755 76.9596,93.4455 76.9596,93.7975 C76.9596,94.1525 77.0606,94.4085 77.2636,94.5735 C77.4596,94.7375 77.7786,94.8765 78.2096,94.9765 C78.4806,95.0465 78.6666,95.1095 78.7566,95.1745 C78.8476,95.2425 78.8946,95.3285 78.8946,95.4395 C78.8946,95.5515 78.8526,95.6415 78.7676,95.7055 C78.6776,95.7745 78.5606,95.8065 78.4066,95.8065 C78.0656,95.8065 77.6936,95.6315 77.2946,95.2805 L76.8006,95.8855 C77.2736,96.3225 77.7996,96.5405 78.3906,96.5405 C78.7996,96.5405 79.1296,96.4335 79.3786,96.2265 C79.6286,96.0185 79.7516,95.7535 79.7516,95.4185 C79.7516,95.0835 79.6556,94.8335 79.4586,94.6585 C79.2626,94.4825 78.9906,94.3545 78.6406,94.2645 C78.2836,94.1795 78.0606,94.1045 77.9646,94.0415 C77.8636,93.9775 77.8156,93.8925 77.8156,93.7805 C77.8156,93.6745 77.8586,93.5895 77.9386,93.5205 C78.0186,93.4565 78.1246,93.4255 78.2626,93.4255 Z M83.2966,94.3345 L81.8186,94.3345 L81.8186,92.7815 L80.9896,92.7815 L80.9896,96.4975 L81.8186,96.4975 L81.8186,95.0355 L83.2966,95.0355 L83.2966,96.4975 L84.1256,96.4975 L84.1256,92.7815 L83.2966,92.7815 L83.2966,94.3345 Z M85.5706,92.7815 L85.5706,96.4975 L88.3096,96.4975 L88.3096,95.7635 L86.4006,95.7635 L86.4006,94.9935 L88.0646,94.9935 L88.0646,94.2865 L86.4006,94.2865 L86.4006,93.5205 L88.2506,93.5205 L88.2506,92.7815 L85.5706,92.7815 Z M90.8926,92.7815 L89.5786,92.7815 L89.5786,96.4975 L90.8496,96.4975 C91.5566,96.4975 92.0886,96.3275 92.4336,95.9925 C92.7796,95.6575 92.9496,95.2005 92.9496,94.6215 C92.9496,94.0415 92.7736,93.5895 92.4176,93.2645 C92.0616,92.9405 91.5566,92.7815 90.8926,92.7815 Z M90.9346,95.7635 L90.4086,95.7635 L90.4086,93.5045 L90.8706,93.5045 C91.2906,93.5045 91.6046,93.5995 91.8116,93.7975 C92.0136,93.9935 92.1146,94.2755 92.1146,94.6415 C92.1146,95.0095 92.0136,95.2855 91.8116,95.4765 C91.6046,95.6685 91.3116,95.7635 90.9346,95.7635 Z M95.8406,93.4885 L96.5476,93.4885 L96.5476,96.4975 L97.3446,96.4975 L97.3446,92.7815 L95.8406,92.7815 L95.8406,93.4885 Z M99.4816,95.7425 C99.3646,95.6835 99.2846,95.6415 99.2476,95.6045 L99.1466,95.5245 L98.7316,96.1095 C98.8386,96.1895 98.9346,96.2585 99.0136,96.3055 C99.0936,96.3595 99.2156,96.4125 99.3746,96.4605 C99.5346,96.5135 99.6996,96.5405 99.8746,96.5405 C100.2896,96.5405 100.6406,96.3905 100.9336,96.0945 C101.0766,95.9445 101.1876,95.7425 101.2736,95.4815 C101.3526,95.2265 101.3956,94.9285 101.3956,94.5895 C101.3956,94.0625 101.2896,93.6215 101.0816,93.2705 C100.9706,93.0905 100.8216,92.9465 100.6296,92.8445 C100.4336,92.7445 100.2046,92.6965 99.9436,92.6965 C99.5666,92.6965 99.2526,92.8075 99.0026,93.0365 C98.7526,93.2645 98.6256,93.5685 98.6256,93.9455 C98.6256,94.3235 98.7426,94.6215 98.9766,94.8495 C99.2056,95.0785 99.4976,95.1945 99.8436,95.1945 C100.1036,95.1945 100.3486,95.1205 100.5766,94.9665 C100.5506,95.2325 100.4706,95.4395 100.3486,95.5945 C100.2206,95.7485 100.0396,95.8275 99.8106,95.8275 C99.7096,95.8275 99.5986,95.8015 99.4816,95.7425 Z M99.5396,94.3235 C99.4496,94.2175 99.4016,94.0845 99.4016,93.9295 C99.4016,93.7755 99.4556,93.6425 99.5566,93.5415 C99.6576,93.4405 99.7846,93.3925 99.9436,93.3925 C100.1036,93.3925 100.2366,93.4515 100.3426,93.5625 C100.4496,93.6745 100.5026,93.8125 100.5026,93.9675 C100.5026,94.1215 100.4496,94.2485 100.3376,94.3435 C100.2266,94.4395 100.0926,94.4875 99.9286,94.4875 C99.7636,94.4875 99.6306,94.4345 99.5396,94.3235 Z M102.6386,93.7065 C102.6386,93.9885 102.7506,94.2385 102.9736,94.4455 C102.6656,94.6845 102.5116,94.9935 102.5116,95.3815 C102.5116,95.7055 102.6436,95.9815 102.9046,96.2055 C103.1646,96.4285 103.5106,96.5405 103.9306,96.5405 C104.3506,96.5405 104.6966,96.4285 104.9566,96.2055 C105.2176,95.9815 105.3506,95.7055 105.3506,95.3815 C105.3506,94.9935 105.1956,94.6845 104.8876,94.4455 C105.1056,94.2385 105.2176,93.9935 105.2176,93.7065 C105.2176,93.4255 105.0956,93.1855 104.8506,92.9885 C104.6056,92.7925 104.2976,92.6965 103.9306,92.6965 C103.5636,92.6965 103.2556,92.7925 103.0106,92.9885 C102.7606,93.1855 102.6386,93.4255 102.6386,93.7065 Z M103.3406,95.3595 C103.3406,95.2005 103.3986,95.0785 103.5216,94.9935 C103.6436,94.9085 103.7766,94.8655 103.9306,94.8655 C104.0846,94.8655 104.2176,94.9085 104.3396,94.9935 C104.4626,95.0785 104.5206,95.2005 104.5206,95.3595 C104.5206,95.5195 104.4566,95.6415 104.3346,95.7205 C104.2126,95.8065 104.0746,95.8485 103.9306,95.8485 C103.7876,95.8485 103.6486,95.8065 103.5266,95.7205 C103.4046,95.6415 103.3406,95.5195 103.3406,95.3595 Z M103.4256,93.7805 C103.4256,93.6585 103.4736,93.5525 103.5746,93.4675 C103.6756,93.3825 103.7926,93.3395 103.9306,93.3395 C104.0686,93.3395 104.1856,93.3825 104.2866,93.4675 C104.3876,93.5525 104.4356,93.6585 104.4356,93.7805 C104.4356,93.9085 104.3876,94.0145 104.2866,94.0995 C104.1856,94.1845 104.0636,94.2275 103.9306,94.2275 C103.7976,94.2275 103.6806,94.1845 103.5796,94.0995 C103.4786,94.0145 103.4256,93.9085 103.4256,93.7805 Z M107.3006,95.7425 C107.1836,95.6835 107.1036,95.6415 107.0666,95.6045 L106.9656,95.5245 L106.5506,96.1095 C106.6576,96.1895 106.7526,96.2585 106.8326,96.3055 C106.9126,96.3595 107.0346,96.4125 107.1946,96.4605 C107.3536,96.5135 107.5186,96.5405 107.6936,96.5405 C108.1086,96.5405 108.4596,96.3905 108.7516,96.0945 C108.8956,95.9445 109.0076,95.7425 109.0926,95.4815 C109.1716,95.2265 109.2146,94.9285 109.2146,94.5895 C109.2146,94.0625 109.1076,93.6215 108.9006,93.2705 C108.7896,93.0905 108.6406,92.9465 108.4486,92.8445 C108.2516,92.7445 108.0236,92.6965 107.7636,92.6965 C107.3856,92.6965 107.0716,92.8075 106.8216,93.0365 C106.5726,93.2645 106.4446,93.5685 106.4446,93.9455 C106.4446,94.3235 106.5616,94.6215 106.7956,94.8495 C107.0236,95.0785 107.3166,95.1945 107.6626,95.1945 C107.9226,95.1945 108.1666,95.1205 108.3956,94.9665 C108.3696,95.2325 108.2896,95.4395 108.1666,95.5945 C108.0396,95.7485 107.8586,95.8275 107.6296,95.8275 C107.5296,95.8275 107.4176,95.8015 107.3006,95.7425 Z M107.3586,94.3235 C107.2686,94.2175 107.2206,94.0845 107.2206,93.9295 C107.2206,93.7755 107.2736,93.6425 107.3746,93.5415 C107.4766,93.4405 107.6036,93.3925 107.7636,93.3925 C107.9226,93.3925 108.0556,93.4515 108.1616,93.5625 C108.2686,93.6745 108.3216,93.8125 108.3216,93.9675 C108.3216,94.1215 108.2686,94.2485 108.1566,94.3435 C108.0446,94.4395 107.9126,94.4875 107.7476,94.4875 C107.5816,94.4875 107.4496,94.4345 107.3586,94.3235 Z" id="Fill-38" fill="#414042"></path>
            <path d="M33.2178,69.0539 L32.6778,75.4829 L28.3018,67.2169 C27.8158,66.2979 27.5988,65.3259 27.5988,64.2999 C27.5988,61.6529 28.8958,60.3019 31.5428,60.3019 L40.3488,60.3019 L40.6728,56.6819 L30.2468,56.6819 C27.7078,56.6819 25.4918,57.4389 23.6558,58.8979 C21.6568,60.4639 20.6308,62.5169 20.6308,65.0019 C20.6308,66.1359 20.8458,67.2169 21.2788,68.2429 C21.4408,68.5679 21.9268,69.5399 22.8448,71.2149 C20.9008,72.7819 19.8198,74.6179 19.6578,76.7249 L18.6318,88.8259 L18.6318,89.4199 C18.6318,91.0949 19.1718,92.5539 20.3058,93.7959 L20.3058,93.7419 C21.9268,95.5789 24.3038,96.4969 27.4368,96.4969 C30.6788,96.4969 33.2718,95.7949 35.2168,94.3909 L36.3508,96.4969 L44.3468,96.4969 L44.6708,92.8779 L41.9698,92.8779 L38.8898,87.0979 L40.1328,72.6729 L45.6428,72.6729 L45.9678,69.0539 L33.2178,69.0539 Z M31.4888,88.8259 C31.3808,89.8529 31.1108,90.7169 30.6248,91.4739 C30.0298,92.3919 29.2198,92.8249 28.3018,92.8249 C26.6808,92.8249 25.8708,91.6899 25.8708,89.4199 L25.8708,88.8259 L26.7348,78.5079 L31.5968,87.6379 L31.4888,88.8259 Z" id="Fill-40" fill="#414042"></path>
            <path d="M17.3311,7.175 C17.3311,7.598 16.9891,7.94 16.5681,7.94 C16.1471,7.94 15.8031,7.598 15.8031,7.175 C15.8031,6.752 16.1471,6.412 16.5681,6.412 C16.9891,6.412 17.3311,6.752 17.3311,7.175" id="Fill-42" fill="#414042"></path>
            <path d="M103.7832,7.175 C103.7832,7.598 103.4392,7.94 103.0172,7.94 C102.5972,7.94 102.2542,7.598 102.2542,7.175 C102.2542,6.752 102.5972,6.412 103.0172,6.412 C103.4392,6.412 103.7832,6.752 103.7832,7.175" id="Fill-44" fill="#414042"></path>
            <mask id="mask-4" fill="white">
                <use xlink:href="#path-3"></use>
            </mask>
            <g id="Clip-47"></g>
            <path d="M1.128,103.434 L118.083,103.434 L118.083,18.497 L1.128,18.497 L1.128,103.434 Z M0,104.561 L119.211,104.561 L119.211,17.369 L0,17.369 L0,104.561 Z" id="Fill-46" fill="#414042" mask="url(#mask-4)"></path>
        </g>
    </g>
</svg>